<?xml version="1.0" encoding="UTF-8" standalone="no"?>
<!DOCTYPE svg PUBLIC "-//W3C//DTD SVG 1.1//EN"
 "http://www.w3.org/Graphics/SVG/1.1/DTD/svg11.dtd">
<!-- Generated by graphviz version 2.36.0 (20140111.2315)
 -->
<!-- Title: view.Editor.createRunButton Pages: 1 -->
<svg width="1148pt" height="406pt"
 viewBox="0.00 0.00 1148.00 405.63" xmlns="http://www.w3.org/2000/svg" xmlns:xlink="http://www.w3.org/1999/xlink">
<g id="graph0" class="graph" transform="scale(1 1) rotate(0) translate(4 401.627)">
<title>view.Editor.createRunButton</title>
<polygon fill="white" stroke="none" points="-4,4 -4,-401.627 1144,-401.627 1144,4 -4,4"/>
<!-- Node1 -->
<g id="node1" class="node"><title>Node1</title>
<polygon fill="#bfbfbf" stroke="black" points="0.5,-163.564 0.5,-182.564 149.5,-182.564 149.5,-163.564 0.5,-163.564"/>
<text text-anchor="middle" x="75" y="-170.564" font-family="Helvetica,sans-Serif" font-size="10.00">view.Editor.createRunButton</text>
</g>
<!-- Node2 -->
<g id="node2" class="node"><title>Node2</title>
<g id="a_node2"><a xlink:href="../../da/dc8/classview_1_1_editor.html#a149e24d4e5e4464f3fb1601f2717663b" target="_top" xlink:title="view.Editor.parse">
<polygon fill="white" stroke="black" points="186,-163.564 186,-182.564 282,-182.564 282,-163.564 186,-163.564"/>
<text text-anchor="middle" x="234" y="-170.564" font-family="Helvetica,sans-Serif" font-size="10.00">view.Editor.parse</text>
</a>
</g>
</g>
<!-- Node1&#45;&gt;Node2 -->
<g id="edge1" class="edge"><title>Node1&#45;&gt;Node2</title>
<path fill="none" stroke="midnightblue" d="M149.903,-173.064C158.61,-173.064 167.394,-173.064 175.822,-173.064"/>
<polygon fill="midnightblue" stroke="midnightblue" points="175.898,-176.565 185.898,-173.064 175.898,-169.565 175.898,-176.565"/>
</g>
<!-- Node3 -->
<g id="node3" class="node"><title>Node3</title>
<g id="a_node3"><a xlink:href="../../d1/dc7/classview_1_1_side_bar.html#a7e070e482d2d160b3d5aa05f813d2607" target="_top" xlink:title="view.SideBar.setHistory">
<polygon fill="white" stroke="black" points="337,-182.564 337,-201.564 465,-201.564 465,-182.564 337,-182.564"/>
<text text-anchor="middle" x="401" y="-189.564" font-family="Helvetica,sans-Serif" font-size="10.00">view.SideBar.setHistory</text>
</a>
</g>
</g>
<!-- Node2&#45;&gt;Node3 -->
<g id="edge2" class="edge"><title>Node2&#45;&gt;Node3</title>
<path fill="none" stroke="midnightblue" d="M282.282,-178.509C296.055,-180.095 311.439,-181.867 326.426,-183.592"/>
<polygon fill="midnightblue" stroke="midnightblue" points="326.379,-187.11 336.714,-184.777 327.18,-180.156 326.379,-187.11"/>
</g>
<!-- Node4 -->
<g id="node4" class="node"><title>Node4</title>
<g id="a_node4"><a xlink:href="../../dc/df5/classmodel_1_1_parser.html#ab83c099e5a13c82b1a12d7eedda6fbf9" target="_top" xlink:title="model.Parser.parseAndExecute">
<polygon fill="white" stroke="black" points="318,-144.564 318,-163.564 484,-163.564 484,-144.564 318,-144.564"/>
<text text-anchor="middle" x="401" y="-151.564" font-family="Helvetica,sans-Serif" font-size="10.00">model.Parser.parseAndExecute</text>
</a>
</g>
</g>
<!-- Node2&#45;&gt;Node4 -->
<g id="edge3" class="edge"><title>Node2&#45;&gt;Node4</title>
<path fill="none" stroke="midnightblue" d="M282.282,-167.62C290.378,-166.688 299.03,-165.691 307.831,-164.678"/>
<polygon fill="midnightblue" stroke="midnightblue" points="308.275,-168.15 317.809,-163.529 307.474,-161.196 308.275,-168.15"/>
</g>
<!-- Node5 -->
<g id="node5" class="node"><title>Node5</title>
<g id="a_node5"><a xlink:href="../../d1/dca/classmodel_1_1_execution_environment.html#abf8338dc619905fbc175bb52b246843e" target="_top" xlink:title="model.ExecutionEnvironment.get\lActiveList">
<polygon fill="white" stroke="black" points="520,-205.064 520,-235.064 696,-235.064 696,-205.064 520,-205.064"/>
<text text-anchor="start" x="528" y="-223.064" font-family="Helvetica,sans-Serif" font-size="10.00">model.ExecutionEnvironment.get</text>
<text text-anchor="middle" x="608" y="-212.064" font-family="Helvetica,sans-Serif" font-size="10.00">ActiveList</text>
</a>
</g>
</g>
<!-- Node4&#45;&gt;Node5 -->
<g id="edge4" class="edge"><title>Node4&#45;&gt;Node5</title>
<path fill="none" stroke="midnightblue" d="M454.835,-163.671C464.705,-166.2 474.802,-169.304 484,-173.064 501.356,-180.161 502.834,-187.518 520,-195.064 525.346,-197.414 530.972,-199.609 536.685,-201.644"/>
<polygon fill="midnightblue" stroke="midnightblue" points="535.754,-205.023 546.348,-204.916 537.999,-198.393 535.754,-205.023"/>
</g>
<!-- Node6 -->
<g id="node6" class="node"><title>Node6</title>
<g id="a_node6"><a xlink:href="../../dc/df5/classmodel_1_1_parser.html#ae83c95a5190fc22b9b70b1a40b76661c" target="_top" xlink:title="model.Parser.makeTree">
<polygon fill="white" stroke="black" points="544,-166.564 544,-185.564 672,-185.564 672,-166.564 544,-166.564"/>
<text text-anchor="middle" x="608" y="-173.564" font-family="Helvetica,sans-Serif" font-size="10.00">model.Parser.makeTree</text>
</a>
</g>
</g>
<!-- Node4&#45;&gt;Node6 -->
<g id="edge5" class="edge"><title>Node4&#45;&gt;Node6</title>
<path fill="none" stroke="midnightblue" d="M484.2,-162.886C500.465,-164.631 517.44,-166.453 533.398,-168.166"/>
<polygon fill="midnightblue" stroke="midnightblue" points="533.404,-171.686 543.72,-169.273 534.151,-164.726 533.404,-171.686"/>
</g>
<!-- Node15 -->
<g id="node15" class="node"><title>Node15</title>
<g id="a_node15"><a xlink:href="../../d6/de7/classview_1_1_s_logo_view.html#acf8498d7311bed1575638cca1c3f8777" target="_top" xlink:title="view.SLogoView.openDialog">
<polygon fill="white" stroke="black" points="747.5,-29.5645 747.5,-48.5645 894.5,-48.5645 894.5,-29.5645 747.5,-29.5645"/>
<text text-anchor="middle" x="821" y="-36.5645" font-family="Helvetica,sans-Serif" font-size="10.00">view.SLogoView.openDialog</text>
</a>
</g>
</g>
<!-- Node4&#45;&gt;Node15 -->
<g id="edge17" class="edge"><title>Node4&#45;&gt;Node15</title>
<path fill="none" stroke="midnightblue" d="M432.286,-144.476C490.168,-126.326 620.652,-86.2438 732,-58.0645 741.99,-55.5363 752.671,-53.0502 763.024,-50.7521"/>
<polygon fill="midnightblue" stroke="midnightblue" points="763.796,-54.1662 772.817,-48.6111 762.3,-47.3277 763.796,-54.1662"/>
</g>
<!-- Node17 -->
<g id="node17" class="node"><title>Node17</title>
<g id="a_node17"><a xlink:href="../../d1/dca/classmodel_1_1_execution_environment.html#a472ef4da5205b0e95ec51fdbf52f654a" target="_top" xlink:title="model.ExecutionEnvironment.set\lActiveTurtle">
<polygon fill="white" stroke="black" points="520.5,-7.06448 520.5,-37.0645 695.5,-37.0645 695.5,-7.06448 520.5,-7.06448"/>
<text text-anchor="start" x="528.5" y="-25.0645" font-family="Helvetica,sans-Serif" font-size="10.00">model.ExecutionEnvironment.set</text>
<text text-anchor="middle" x="608" y="-14.0645" font-family="Helvetica,sans-Serif" font-size="10.00">ActiveTurtle</text>
</a>
</g>
</g>
<!-- Node4&#45;&gt;Node17 -->
<g id="edge18" class="edge"><title>Node4&#45;&gt;Node17</title>
<path fill="none" stroke="midnightblue" d="M417.074,-144.358C450.275,-122.98 530.317,-71.441 575.172,-42.5584"/>
<polygon fill="midnightblue" stroke="midnightblue" points="577.137,-45.4562 583.65,-37.0996 573.347,-39.5707 577.137,-45.4562"/>
</g>
<!-- Node7 -->
<g id="node7" class="node"><title>Node7</title>
<g id="a_node7"><a xlink:href="../../d2/d19/classmodel_1_1_node.html#a59dd0ae47774a51a1590d7fd205b14d5" target="_top" xlink:title="model.Node.addChild">
<polygon fill="white" stroke="black" points="761.5,-292.564 761.5,-311.564 880.5,-311.564 880.5,-292.564 761.5,-292.564"/>
<text text-anchor="middle" x="821" y="-299.564" font-family="Helvetica,sans-Serif" font-size="10.00">model.Node.addChild</text>
</a>
</g>
</g>
<!-- Node6&#45;&gt;Node7 -->
<g id="edge6" class="edge"><title>Node6&#45;&gt;Node7</title>
<path fill="none" stroke="midnightblue" d="M672.29,-183.056C680.901,-186.079 689.126,-190.273 696,-196.064 727.688,-222.763 700.279,-255.405 732,-282.064 737.772,-286.916 744.484,-290.65 751.578,-293.515"/>
<polygon fill="midnightblue" stroke="midnightblue" points="750.842,-296.963 761.437,-296.907 753.12,-290.344 750.842,-296.963"/>
</g>
<!-- Node8 -->
<g id="node8" class="node"><title>Node8</title>
<g id="a_node8"><a xlink:href="../../d1/dca/classmodel_1_1_execution_environment.html#a83ef2b9eaef50b67c0b978f2abb8200c" target="_top" xlink:title="model.ExecutionEnvironment.add\lCommand">
<polygon fill="white" stroke="black" points="732,-243.064 732,-273.064 910,-273.064 910,-243.064 732,-243.064"/>
<text text-anchor="start" x="740" y="-261.064" font-family="Helvetica,sans-Serif" font-size="10.00">model.ExecutionEnvironment.add</text>
<text text-anchor="middle" x="821" y="-250.064" font-family="Helvetica,sans-Serif" font-size="10.00">Command</text>
</a>
</g>
</g>
<!-- Node6&#45;&gt;Node8 -->
<g id="edge7" class="edge"><title>Node6&#45;&gt;Node8</title>
<path fill="none" stroke="midnightblue" d="M671.025,-185.678C679.718,-188.338 688.301,-191.732 696,-196.064 715.996,-207.316 712.297,-221.309 732,-233.064 735.606,-235.216 739.405,-237.19 743.32,-238.999"/>
<polygon fill="midnightblue" stroke="midnightblue" points="742.054,-242.264 752.627,-242.931 744.778,-235.815 742.054,-242.264"/>
</g>
<!-- Node10 -->
<g id="node10" class="node"><title>Node10</title>
<g id="a_node10"><a xlink:href="../../d2/d19/classmodel_1_1_node.html#a30a55e40eef5514f8201573584ca9aea" target="_top" xlink:title="model.Node.getChildren">
<polygon fill="white" stroke="black" points="754.5,-204.564 754.5,-223.564 887.5,-223.564 887.5,-204.564 754.5,-204.564"/>
<text text-anchor="middle" x="821" y="-211.564" font-family="Helvetica,sans-Serif" font-size="10.00">model.Node.getChildren</text>
</a>
</g>
</g>
<!-- Node6&#45;&gt;Node10 -->
<g id="edge9" class="edge"><title>Node6&#45;&gt;Node10</title>
<path fill="none" stroke="midnightblue" d="M661.972,-185.604C690.817,-190.799 726.695,-197.261 756.972,-202.713"/>
<polygon fill="midnightblue" stroke="midnightblue" points="756.544,-206.193 767.006,-204.521 757.785,-199.304 756.544,-206.193"/>
</g>
<!-- Node11 -->
<g id="node11" class="node"><title>Node11</title>
<g id="a_node11"><a xlink:href="../../d2/d19/classmodel_1_1_node.html#a3036121af674a3a8ff49e82bd77ab5a4" target="_top" xlink:title="model.Node.getInstruction">
<polygon fill="white" stroke="black" points="749,-166.564 749,-185.564 893,-185.564 893,-166.564 749,-166.564"/>
<text text-anchor="middle" x="821" y="-173.564" font-family="Helvetica,sans-Serif" font-size="10.00">model.Node.getInstruction</text>
</a>
</g>
</g>
<!-- Node6&#45;&gt;Node11 -->
<g id="edge10" class="edge"><title>Node6&#45;&gt;Node11</title>
<path fill="none" stroke="midnightblue" d="M672.021,-176.064C692.977,-176.064 716.618,-176.064 738.752,-176.064"/>
<polygon fill="midnightblue" stroke="midnightblue" points="738.801,-179.565 748.801,-176.064 738.801,-172.565 738.801,-179.565"/>
</g>
<!-- Node12 -->
<g id="node12" class="node"><title>Node12</title>
<g id="a_node12"><a xlink:href="../../d1/dea/classmodel_1_1instructions_1_1_instruction.html#afd4726dcbdbf559356c38970061d9b79" target="_top" xlink:title="model.instructions.Instruction.get\lNumberOfArguments">
<polygon fill="white" stroke="black" points="732.5,-117.064 732.5,-147.064 909.5,-147.064 909.5,-117.064 732.5,-117.064"/>
<text text-anchor="start" x="740.5" y="-135.064" font-family="Helvetica,sans-Serif" font-size="10.00">model.instructions.Instruction.get</text>
<text text-anchor="middle" x="821" y="-124.064" font-family="Helvetica,sans-Serif" font-size="10.00">NumberOfArguments</text>
</a>
</g>
</g>
<!-- Node6&#45;&gt;Node12 -->
<g id="edge11" class="edge"><title>Node6&#45;&gt;Node12</title>
<path fill="none" stroke="midnightblue" d="M654.784,-166.517C679.07,-161.453 709.652,-155.075 737.882,-149.189"/>
<polygon fill="midnightblue" stroke="midnightblue" points="738.68,-152.598 747.755,-147.13 737.251,-145.745 738.68,-152.598"/>
</g>
<!-- Node13 -->
<g id="node13" class="node"><title>Node13</title>
<g id="a_node13"><a xlink:href="../../d1/dca/classmodel_1_1_execution_environment.html#a7eac9bbab890abbeb7db1a095fca5fc8" target="_top" xlink:title="model.ExecutionEnvironment.get\lUserCommandMap">
<polygon fill="white" stroke="black" points="733,-68.0645 733,-98.0645 909,-98.0645 909,-68.0645 733,-68.0645"/>
<text text-anchor="start" x="741" y="-86.0645" font-family="Helvetica,sans-Serif" font-size="10.00">model.ExecutionEnvironment.get</text>
<text text-anchor="middle" x="821" y="-75.0645" font-family="Helvetica,sans-Serif" font-size="10.00">UserCommandMap</text>
</a>
</g>
</g>
<!-- Node6&#45;&gt;Node13 -->
<g id="edge12" class="edge"><title>Node6&#45;&gt;Node13</title>
<path fill="none" stroke="midnightblue" d="M625.484,-166.335C653.799,-149.727 710.681,-116.85 732,-108.064 737.782,-105.682 743.867,-103.44 750.025,-101.353"/>
<polygon fill="midnightblue" stroke="midnightblue" points="751.299,-104.62 759.73,-98.2031 749.138,-97.9619 751.299,-104.62"/>
</g>
<!-- Node14 -->
<g id="node14" class="node"><title>Node14</title>
<g id="a_node14"><a xlink:href="../../dc/df5/classmodel_1_1_parser.html#ae24603572f6f919b363a7cef0cbe45c0" target="_top" xlink:title="model.Parser.match">
<polygon fill="white" stroke="black" points="986.5,-349.564 986.5,-368.564 1099.5,-368.564 1099.5,-349.564 986.5,-349.564"/>
<text text-anchor="middle" x="1043" y="-356.564" font-family="Helvetica,sans-Serif" font-size="10.00">model.Parser.match</text>
</a>
</g>
</g>
<!-- Node6&#45;&gt;Node14 -->
<g id="edge13" class="edge"><title>Node6&#45;&gt;Node14</title>
<path fill="none" stroke="midnightblue" d="M672.39,-181.671C681.196,-184.854 689.453,-189.461 696,-196.064 748.235,-248.75 674.159,-312.604 732,-359.064 811.692,-423.077 943.766,-392.107 1006.63,-371.857"/>
<polygon fill="midnightblue" stroke="midnightblue" points="1008.08,-375.065 1016.47,-368.593 1005.88,-368.421 1008.08,-375.065"/>
</g>
<!-- Node6&#45;&gt;Node15 -->
<g id="edge14" class="edge"><title>Node6&#45;&gt;Node15</title>
<path fill="none" stroke="midnightblue" d="M633.597,-166.436C652.518,-158.049 678.33,-144.359 696,-126.064 719.757,-101.468 704.741,-78.7125 732,-58.0645 734.474,-56.1903 737.094,-54.4925 739.822,-52.9551"/>
<polygon fill="midnightblue" stroke="midnightblue" points="741.389,-56.0854 748.858,-48.571 738.333,-49.7876 741.389,-56.0854"/>
</g>
<!-- Node16 -->
<g id="node16" class="node"><title>Node16</title>
<g id="a_node16"><a xlink:href="../../dc/df5/classmodel_1_1_parser.html#a367f66d63cda3e0b2733b078c20a1f73" target="_top" xlink:title="model.Parser.testMatches">
<polygon fill="white" stroke="black" points="750.5,-330.564 750.5,-349.564 891.5,-349.564 891.5,-330.564 750.5,-330.564"/>
<text text-anchor="middle" x="821" y="-337.564" font-family="Helvetica,sans-Serif" font-size="10.00">model.Parser.testMatches</text>
</a>
</g>
</g>
<!-- Node6&#45;&gt;Node16 -->
<g id="edge15" class="edge"><title>Node6&#45;&gt;Node16</title>
<path fill="none" stroke="midnightblue" d="M672.03,-182.04C680.882,-185.175 689.248,-189.671 696,-196.064 737.978,-235.817 689.758,-281.592 732,-321.064 734.791,-323.672 737.851,-325.955 741.103,-327.952"/>
<polygon fill="midnightblue" stroke="midnightblue" points="739.615,-331.123 750.108,-332.594 742.823,-324.901 739.615,-331.123"/>
</g>
<!-- Node9 -->
<g id="node9" class="node"><title>Node9</title>
<g id="a_node9"><a xlink:href="../../d1/dca/classmodel_1_1_execution_environment.html#a93fd01341f06dfa81727344b120aef66" target="_top" xlink:title="model.ExecutionEnvironment.update\lObserver">
<polygon fill="white" stroke="black" points="946,-115.064 946,-145.064 1140,-145.064 1140,-115.064 946,-115.064"/>
<text text-anchor="start" x="954" y="-133.064" font-family="Helvetica,sans-Serif" font-size="10.00">model.ExecutionEnvironment.update</text>
<text text-anchor="middle" x="1043" y="-122.064" font-family="Helvetica,sans-Serif" font-size="10.00">Observer</text>
</a>
</g>
</g>
<!-- Node8&#45;&gt;Node9 -->
<g id="edge8" class="edge"><title>Node8&#45;&gt;Node9</title>
<path fill="none" stroke="midnightblue" d="M886.087,-243.023C894.324,-240.178 902.494,-236.875 910,-233.064 952.333,-211.576 994.378,-175.583 1019.27,-152.339"/>
<polygon fill="midnightblue" stroke="midnightblue" points="1021.88,-154.692 1026.73,-145.274 1017.06,-149.61 1021.88,-154.692"/>
</g>
<!-- Node16&#45;&gt;Node14 -->
<g id="edge16" class="edge"><title>Node16&#45;&gt;Node14</title>
<path fill="none" stroke="midnightblue" d="M891.609,-346.076C918.734,-348.419 949.664,-351.09 976.392,-353.398"/>
<polygon fill="midnightblue" stroke="midnightblue" points="976.15,-356.89 986.414,-354.264 976.752,-349.916 976.15,-356.89"/>
</g>
<!-- Node17&#45;&gt;Node9 -->
<g id="edge19" class="edge"><title>Node17&#45;&gt;Node9</title>
<path fill="none" stroke="midnightblue" d="M686.952,-7.06264C749.243,1.5455 837.769,6.08678 910,-20.0645 957.789,-37.3663 1000.43,-80.3604 1023.62,-107.186"/>
<polygon fill="midnightblue" stroke="midnightblue" points="1021.04,-109.564 1030.17,-114.945 1026.39,-105.047 1021.04,-109.564"/>
</g>
</g>
</svg>
