<?xml version="1.0" encoding="UTF-8" standalone="no"?>
<!DOCTYPE svg PUBLIC "-//W3C//DTD SVG 1.1//EN"
 "http://www.w3.org/Graphics/SVG/1.1/DTD/svg11.dtd">
<!-- Generated by graphviz version 2.36.0 (20140111.2315)
 -->
<!-- Title: view.Editor.parse Pages: 1 -->
<!--zoomable 405 -->
<svg id="main" version="1.1" xmlns="http://www.w3.org/2000/svg" xmlns:xlink="http://www.w3.org/1999/xlink" xml:space="preserve" onload="init(evt)">
<style type="text/css"><![CDATA[
.edge:hover path { stroke: red; }
.edge:hover polygon { stroke: red; fill: red; }
]]></style>
<script type="text/javascript"><![CDATA[
var edges = document.getElementsByTagName('g');
if (edges && edges.length) {
  for (var i=0;i<edges.length;i++) {
    if (edges[i].id.substr(0,4)=='edge') {
      edges[i].setAttribute('class','edge');
    }
  }
}
]]></script>
        <defs>
                <circle id="rim" cx="0" cy="0" r="7"/>
                <circle id="rim2" cx="0" cy="0" r="3.5"/>
                <g id="zoomPlus">
                        <use xlink:href="#rim" fill="#404040">
                                <set attributeName="fill" to="#808080" begin="zoomplus.mouseover" end="zoomplus.mouseout"/>
                        </use>
                        <path d="M-4,0h8M0,-4v8" fill="none" stroke="white" stroke-width="1.5" pointer-events="none"/>
                </g>
                <g id="zoomMin">
                        <use xlink:href="#rim" fill="#404040">
                                <set attributeName="fill" to="#808080" begin="zoomminus.mouseover" end="zoomminus.mouseout"/>
                        </use>
                        <path d="M-4,0h8" fill="none" stroke="white" stroke-width="1.5" pointer-events="none"/>
                </g>
                <g id="dirArrow">
                        <path fill="none" stroke="white" stroke-width="1.5" d="M0,-3.0v7 M-2.5,-0.5L0,-3.0L2.5,-0.5"/>
                </g>
               <g id="resetDef">
                       <use xlink:href="#rim2" fill="#404040">
                               <set attributeName="fill" to="#808080" begin="reset.mouseover" end="reset.mouseout"/>
                       </use>
               </g>
        </defs>

<script type="text/javascript">
var viewWidth = 962;
var viewHeight = 405;
var sectionId = 'dynsection-6';
</script>
<script xlink:href="../../svgpan.js"/>
<svg id="graph" class="graph">
<g id="viewport">
<title>view.Editor.parse</title>
<polygon fill="white" stroke="none" points="-4,4 -4,-401.058 958,-401.058 958,4 -4,4"/>
<!-- Node1 -->
<g id="node1" class="node"><title>Node1</title>
<polygon fill="#bfbfbf" stroke="black" points="0,-115.995 0,-134.995 96,-134.995 96,-115.995 0,-115.995"/>
<text text-anchor="middle" x="48" y="-122.995" font-family="Helvetica,sans-Serif" font-size="10.00">view.Editor.parse</text>
</g>
<!-- Node2 -->
<g id="node2" class="node"><title>Node2</title>
<g id="a_node2"><a xlink:href="../../dc/df5/classmodel_1_1_parser.html#ab83c099e5a13c82b1a12d7eedda6fbf9" target="_top" xlink:title="model.Parser.parseAndExecute">
<polygon fill="white" stroke="black" points="132,-134.995 132,-153.995 298,-153.995 298,-134.995 132,-134.995"/>
<text text-anchor="middle" x="215" y="-141.995" font-family="Helvetica,sans-Serif" font-size="10.00">model.Parser.parseAndExecute</text>
</a>
</g>
</g>
<!-- Node1&#45;&gt;Node2 -->
<g id="edge1" class="edge"><title>Node1&#45;&gt;Node2</title>
<path fill="none" stroke="midnightblue" d="M96.2824,-130.94C104.378,-131.872 113.03,-132.868 121.831,-133.881"/>
<polygon fill="midnightblue" stroke="midnightblue" points="121.474,-137.363 131.809,-135.03 122.275,-130.409 121.474,-137.363"/>
</g>
<!-- Node16 -->
<g id="node16" class="node"><title>Node16</title>
<g id="a_node16"><a xlink:href="../../d1/dc7/classview_1_1_side_bar.html#a7e070e482d2d160b3d5aa05f813d2607" target="_top" xlink:title="view.SideBar.setHistory">
<polygon fill="white" stroke="black" points="151,-96.9949 151,-115.995 279,-115.995 279,-96.9949 151,-96.9949"/>
<text text-anchor="middle" x="215" y="-103.995" font-family="Helvetica,sans-Serif" font-size="10.00">view.SideBar.setHistory</text>
</a>
</g>
</g>
<!-- Node1&#45;&gt;Node16 -->
<g id="edge18" class="edge"><title>Node1&#45;&gt;Node16</title>
<path fill="none" stroke="midnightblue" d="M96.2824,-120.05C110.055,-118.464 125.439,-116.693 140.426,-114.967"/>
<polygon fill="midnightblue" stroke="midnightblue" points="141.18,-118.403 150.714,-113.782 140.379,-111.449 141.18,-118.403"/>
</g>
<!-- Node3 -->
<g id="node3" class="node"><title>Node3</title>
<g id="a_node3"><a xlink:href="../../d1/dca/classmodel_1_1_execution_environment.html#abf8338dc619905fbc175bb52b246843e" target="_top" xlink:title="model.ExecutionEnvironment.get\lActiveList">
<polygon fill="white" stroke="black" points="334,-204.495 334,-234.495 510,-234.495 510,-204.495 334,-204.495"/>
<text text-anchor="start" x="342" y="-222.495" font-family="Helvetica,sans-Serif" font-size="10.00">model.ExecutionEnvironment.get</text>
<text text-anchor="middle" x="422" y="-211.495" font-family="Helvetica,sans-Serif" font-size="10.00">ActiveList</text>
</a>
</g>
</g>
<!-- Node2&#45;&gt;Node3 -->
<g id="edge2" class="edge"><title>Node2&#45;&gt;Node3</title>
<path fill="none" stroke="midnightblue" d="M236.589,-154.118C259.905,-164.803 299.184,-182.167 334,-194.495 340.824,-196.911 348.009,-199.267 355.204,-201.506"/>
<polygon fill="midnightblue" stroke="midnightblue" points="354.403,-204.921 364.988,-204.482 356.44,-198.224 354.403,-204.921"/>
</g>
<!-- Node4 -->
<g id="node4" class="node"><title>Node4</title>
<g id="a_node4"><a xlink:href="../../dc/df5/classmodel_1_1_parser.html#ae83c95a5190fc22b9b70b1a40b76661c" target="_top" xlink:title="model.Parser.makeTree">
<polygon fill="white" stroke="black" points="358,-165.995 358,-184.995 486,-184.995 486,-165.995 358,-165.995"/>
<text text-anchor="middle" x="422" y="-172.995" font-family="Helvetica,sans-Serif" font-size="10.00">model.Parser.makeTree</text>
</a>
</g>
</g>
<!-- Node2&#45;&gt;Node4 -->
<g id="edge3" class="edge"><title>Node2&#45;&gt;Node4</title>
<path fill="none" stroke="midnightblue" d="M278.9,-154.007C300.64,-157.294 325.188,-161.006 347.689,-164.409"/>
<polygon fill="midnightblue" stroke="midnightblue" points="347.455,-167.913 357.866,-165.948 348.502,-160.992 347.455,-167.913"/>
</g>
<!-- Node13 -->
<g id="node13" class="node"><title>Node13</title>
<g id="a_node13"><a xlink:href="../../d6/de7/classview_1_1_s_logo_view.html#acf8498d7311bed1575638cca1c3f8777" target="_top" xlink:title="view.SLogoView.openDialog">
<polygon fill="white" stroke="black" points="561.5,-28.9949 561.5,-47.9949 708.5,-47.9949 708.5,-28.9949 561.5,-28.9949"/>
<text text-anchor="middle" x="635" y="-35.9949" font-family="Helvetica,sans-Serif" font-size="10.00">view.SLogoView.openDialog</text>
</a>
</g>
</g>
<!-- Node2&#45;&gt;Node13 -->
<g id="edge15" class="edge"><title>Node2&#45;&gt;Node13</title>
<path fill="none" stroke="midnightblue" d="M258.638,-134.955C271.329,-132.024 285.249,-128.719 298,-125.495 408.804,-97.479 434.989,-84.6765 546,-57.4949 556.124,-55.016 566.945,-52.5392 577.413,-50.2317"/>
<polygon fill="midnightblue" stroke="midnightblue" points="578.281,-53.6249 587.307,-48.0767 576.791,-46.7852 578.281,-53.6249"/>
</g>
<!-- Node15 -->
<g id="node15" class="node"><title>Node15</title>
<g id="a_node15"><a xlink:href="../../d1/dca/classmodel_1_1_execution_environment.html#a472ef4da5205b0e95ec51fdbf52f654a" target="_top" xlink:title="model.ExecutionEnvironment.set\lActiveTurtle">
<polygon fill="white" stroke="black" points="334.5,-8.49488 334.5,-38.4949 509.5,-38.4949 509.5,-8.49488 334.5,-8.49488"/>
<text text-anchor="start" x="342.5" y="-26.4949" font-family="Helvetica,sans-Serif" font-size="10.00">model.ExecutionEnvironment.set</text>
<text text-anchor="middle" x="422" y="-15.4949" font-family="Helvetica,sans-Serif" font-size="10.00">ActiveTurtle</text>
</a>
</g>
</g>
<!-- Node2&#45;&gt;Node15 -->
<g id="edge16" class="edge"><title>Node2&#45;&gt;Node15</title>
<path fill="none" stroke="midnightblue" d="M272.782,-134.982C281.465,-132.499 290.143,-129.387 298,-125.495 308.942,-120.073 363.021,-73.856 395.72,-45.5268"/>
<polygon fill="midnightblue" stroke="midnightblue" points="398.275,-47.9435 403.534,-38.7455 393.687,-42.6568 398.275,-47.9435"/>
</g>
<!-- Node5 -->
<g id="node5" class="node"><title>Node5</title>
<g id="a_node5"><a xlink:href="../../d2/d19/classmodel_1_1_node.html#a59dd0ae47774a51a1590d7fd205b14d5" target="_top" xlink:title="model.Node.addChild">
<polygon fill="white" stroke="black" points="575.5,-291.995 575.5,-310.995 694.5,-310.995 694.5,-291.995 575.5,-291.995"/>
<text text-anchor="middle" x="635" y="-298.995" font-family="Helvetica,sans-Serif" font-size="10.00">model.Node.addChild</text>
</a>
</g>
</g>
<!-- Node4&#45;&gt;Node5 -->
<g id="edge4" class="edge"><title>Node4&#45;&gt;Node5</title>
<path fill="none" stroke="midnightblue" d="M486.29,-182.486C494.901,-185.509 503.126,-189.703 510,-195.495 541.688,-222.194 514.279,-254.835 546,-281.495 551.772,-286.346 558.484,-290.08 565.578,-292.945"/>
<polygon fill="midnightblue" stroke="midnightblue" points="564.842,-296.394 575.437,-296.338 567.12,-289.774 564.842,-296.394"/>
</g>
<!-- Node6 -->
<g id="node6" class="node"><title>Node6</title>
<g id="a_node6"><a xlink:href="../../d1/dca/classmodel_1_1_execution_environment.html#a83ef2b9eaef50b67c0b978f2abb8200c" target="_top" xlink:title="model.ExecutionEnvironment.add\lCommand">
<polygon fill="white" stroke="black" points="546,-242.495 546,-272.495 724,-272.495 724,-242.495 546,-242.495"/>
<text text-anchor="start" x="554" y="-260.495" font-family="Helvetica,sans-Serif" font-size="10.00">model.ExecutionEnvironment.add</text>
<text text-anchor="middle" x="635" y="-249.495" font-family="Helvetica,sans-Serif" font-size="10.00">Command</text>
</a>
</g>
</g>
<!-- Node4&#45;&gt;Node6 -->
<g id="edge5" class="edge"><title>Node4&#45;&gt;Node6</title>
<path fill="none" stroke="midnightblue" d="M485.025,-185.109C493.718,-187.768 502.301,-191.163 510,-195.495 529.996,-206.746 526.297,-220.739 546,-232.495 549.606,-234.646 553.405,-236.62 557.32,-238.43"/>
<polygon fill="midnightblue" stroke="midnightblue" points="556.054,-241.694 566.627,-242.361 558.778,-235.246 556.054,-241.694"/>
</g>
<!-- Node8 -->
<g id="node8" class="node"><title>Node8</title>
<g id="a_node8"><a xlink:href="../../d2/d19/classmodel_1_1_node.html#a30a55e40eef5514f8201573584ca9aea" target="_top" xlink:title="model.Node.getChildren">
<polygon fill="white" stroke="black" points="568.5,-203.995 568.5,-222.995 701.5,-222.995 701.5,-203.995 568.5,-203.995"/>
<text text-anchor="middle" x="635" y="-210.995" font-family="Helvetica,sans-Serif" font-size="10.00">model.Node.getChildren</text>
</a>
</g>
</g>
<!-- Node4&#45;&gt;Node8 -->
<g id="edge7" class="edge"><title>Node4&#45;&gt;Node8</title>
<path fill="none" stroke="midnightblue" d="M475.972,-185.035C504.817,-190.23 540.695,-196.691 570.972,-202.144"/>
<polygon fill="midnightblue" stroke="midnightblue" points="570.544,-205.623 581.006,-203.951 571.785,-198.734 570.544,-205.623"/>
</g>
<!-- Node9 -->
<g id="node9" class="node"><title>Node9</title>
<g id="a_node9"><a xlink:href="../../d2/d19/classmodel_1_1_node.html#a3036121af674a3a8ff49e82bd77ab5a4" target="_top" xlink:title="model.Node.getInstruction">
<polygon fill="white" stroke="black" points="563,-165.995 563,-184.995 707,-184.995 707,-165.995 563,-165.995"/>
<text text-anchor="middle" x="635" y="-172.995" font-family="Helvetica,sans-Serif" font-size="10.00">model.Node.getInstruction</text>
</a>
</g>
</g>
<!-- Node4&#45;&gt;Node9 -->
<g id="edge8" class="edge"><title>Node4&#45;&gt;Node9</title>
<path fill="none" stroke="midnightblue" d="M486.021,-175.495C506.977,-175.495 530.618,-175.495 552.752,-175.495"/>
<polygon fill="midnightblue" stroke="midnightblue" points="552.801,-178.995 562.801,-175.495 552.801,-171.995 552.801,-178.995"/>
</g>
<!-- Node10 -->
<g id="node10" class="node"><title>Node10</title>
<g id="a_node10"><a xlink:href="../../d1/dea/classmodel_1_1instructions_1_1_instruction.html#afd4726dcbdbf559356c38970061d9b79" target="_top" xlink:title="model.instructions.Instruction.get\lNumberOfArguments">
<polygon fill="white" stroke="black" points="546.5,-116.495 546.5,-146.495 723.5,-146.495 723.5,-116.495 546.5,-116.495"/>
<text text-anchor="start" x="554.5" y="-134.495" font-family="Helvetica,sans-Serif" font-size="10.00">model.instructions.Instruction.get</text>
<text text-anchor="middle" x="635" y="-123.495" font-family="Helvetica,sans-Serif" font-size="10.00">NumberOfArguments</text>
</a>
</g>
</g>
<!-- Node4&#45;&gt;Node10 -->
<g id="edge9" class="edge"><title>Node4&#45;&gt;Node10</title>
<path fill="none" stroke="midnightblue" d="M468.784,-165.948C493.07,-160.883 523.652,-154.506 551.882,-148.619"/>
<polygon fill="midnightblue" stroke="midnightblue" points="552.68,-152.028 561.755,-146.56 551.251,-145.175 552.68,-152.028"/>
</g>
<!-- Node11 -->
<g id="node11" class="node"><title>Node11</title>
<g id="a_node11"><a xlink:href="../../d1/dca/classmodel_1_1_execution_environment.html#a7eac9bbab890abbeb7db1a095fca5fc8" target="_top" xlink:title="model.ExecutionEnvironment.get\lUserCommandMap">
<polygon fill="white" stroke="black" points="547,-67.4949 547,-97.4949 723,-97.4949 723,-67.4949 547,-67.4949"/>
<text text-anchor="start" x="555" y="-85.4949" font-family="Helvetica,sans-Serif" font-size="10.00">model.ExecutionEnvironment.get</text>
<text text-anchor="middle" x="635" y="-74.4949" font-family="Helvetica,sans-Serif" font-size="10.00">UserCommandMap</text>
</a>
</g>
</g>
<!-- Node4&#45;&gt;Node11 -->
<g id="edge10" class="edge"><title>Node4&#45;&gt;Node11</title>
<path fill="none" stroke="midnightblue" d="M440.34,-165.947C457.905,-156.271 485.853,-140.864 510,-127.495 526.013,-118.629 529.085,-114.487 546,-107.495 551.779,-105.106 557.863,-102.861 564.02,-100.771"/>
<polygon fill="midnightblue" stroke="midnightblue" points="565.295,-104.037 573.723,-97.6174 563.131,-97.3798 565.295,-104.037"/>
</g>
<!-- Node12 -->
<g id="node12" class="node"><title>Node12</title>
<g id="a_node12"><a xlink:href="../../dc/df5/classmodel_1_1_parser.html#ae24603572f6f919b363a7cef0cbe45c0" target="_top" xlink:title="model.Parser.match">
<polygon fill="white" stroke="black" points="800.5,-348.995 800.5,-367.995 913.5,-367.995 913.5,-348.995 800.5,-348.995"/>
<text text-anchor="middle" x="857" y="-355.995" font-family="Helvetica,sans-Serif" font-size="10.00">model.Parser.match</text>
</a>
</g>
</g>
<!-- Node4&#45;&gt;Node12 -->
<g id="edge11" class="edge"><title>Node4&#45;&gt;Node12</title>
<path fill="none" stroke="midnightblue" d="M486.39,-181.101C495.196,-184.285 503.453,-188.891 510,-195.495 562.235,-248.18 488.159,-312.034 546,-358.495 625.692,-422.507 757.766,-391.538 820.634,-371.287"/>
<polygon fill="midnightblue" stroke="midnightblue" points="822.081,-374.495 830.469,-368.023 819.876,-367.851 822.081,-374.495"/>
</g>
<!-- Node4&#45;&gt;Node13 -->
<g id="edge12" class="edge"><title>Node4&#45;&gt;Node13</title>
<path fill="none" stroke="midnightblue" d="M449.239,-165.87C468.032,-157.913 492.933,-145.067 510,-127.495 534.374,-102.399 518.239,-78.7841 546,-57.4949 548.325,-55.7115 550.782,-54.0874 553.339,-52.6089"/>
<polygon fill="midnightblue" stroke="midnightblue" points="554.971,-55.7064 562.369,-48.1227 551.857,-49.4374 554.971,-55.7064"/>
</g>
<!-- Node14 -->
<g id="node14" class="node"><title>Node14</title>
<g id="a_node14"><a xlink:href="../../dc/df5/classmodel_1_1_parser.html#a367f66d63cda3e0b2733b078c20a1f73" target="_top" xlink:title="model.Parser.testMatches">
<polygon fill="white" stroke="black" points="564.5,-329.995 564.5,-348.995 705.5,-348.995 705.5,-329.995 564.5,-329.995"/>
<text text-anchor="middle" x="635" y="-336.995" font-family="Helvetica,sans-Serif" font-size="10.00">model.Parser.testMatches</text>
</a>
</g>
</g>
<!-- Node4&#45;&gt;Node14 -->
<g id="edge13" class="edge"><title>Node4&#45;&gt;Node14</title>
<path fill="none" stroke="midnightblue" d="M486.03,-181.47C494.882,-184.606 503.248,-189.101 510,-195.495 551.978,-235.247 503.758,-281.023 546,-320.495 548.791,-323.103 551.851,-325.386 555.103,-327.382"/>
<polygon fill="midnightblue" stroke="midnightblue" points="553.615,-330.553 564.108,-332.024 556.823,-324.331 553.615,-330.553"/>
</g>
<!-- Node7 -->
<g id="node7" class="node"><title>Node7</title>
<g id="a_node7"><a xlink:href="../../d1/dca/classmodel_1_1_execution_environment.html#a93fd01341f06dfa81727344b120aef66" target="_top" xlink:title="model.ExecutionEnvironment.update\lObserver">
<polygon fill="white" stroke="black" points="760,-114.495 760,-144.495 954,-144.495 954,-114.495 760,-114.495"/>
<text text-anchor="start" x="768" y="-132.495" font-family="Helvetica,sans-Serif" font-size="10.00">model.ExecutionEnvironment.update</text>
<text text-anchor="middle" x="857" y="-121.495" font-family="Helvetica,sans-Serif" font-size="10.00">Observer</text>
</a>
</g>
</g>
<!-- Node6&#45;&gt;Node7 -->
<g id="edge6" class="edge"><title>Node6&#45;&gt;Node7</title>
<path fill="none" stroke="midnightblue" d="M700.087,-242.453C708.324,-239.609 716.494,-236.305 724,-232.495 766.333,-211.007 808.378,-175.013 833.271,-151.769"/>
<polygon fill="midnightblue" stroke="midnightblue" points="835.876,-154.123 840.73,-144.705 831.063,-149.04 835.876,-154.123"/>
</g>
<!-- Node14&#45;&gt;Node12 -->
<g id="edge14" class="edge"><title>Node14&#45;&gt;Node12</title>
<path fill="none" stroke="midnightblue" d="M705.609,-345.507C732.734,-347.849 763.664,-350.52 790.392,-352.829"/>
<polygon fill="midnightblue" stroke="midnightblue" points="790.15,-356.321 800.414,-353.694 790.752,-349.347 790.15,-356.321"/>
</g>
<!-- Node15&#45;&gt;Node7 -->
<g id="edge17" class="edge"><title>Node15&#45;&gt;Node7</title>
<path fill="none" stroke="midnightblue" d="M495.924,-8.46998C558.409,1.15086 649.799,7.36976 724,-19.4949 771.789,-36.7967 814.434,-79.7908 837.616,-106.616"/>
<polygon fill="midnightblue" stroke="midnightblue" points="835.043,-108.994 844.169,-114.375 840.391,-104.477 835.043,-108.994"/>
</g>
</g>
</svg>
        <g id="navigator" transform="translate(0 0)" fill="#404254">
                <rect fill="#f2f5e9" fill-opacity="0.5" stroke="#606060" stroke-width=".5" x="0" y="0" width="60" height="60"/>
                <use id="zoomplus" xlink:href="#zoomPlus" x="17" y="9" onmousedown="handleZoom(evt,'in')"/>
                <use id="zoomminus" xlink:href="#zoomMin" x="42" y="9" onmousedown="handleZoom(evt,'out')"/>
                <use id="reset" xlink:href="#resetDef" x="30" y="36" onmousedown="handleReset()"/>
                <g id="arrowUp" xlink:href="#dirArrow" transform="translate(30 24)" onmousedown="handlePan(0,-1)">
                  <use xlink:href="#rim" fill="#404040">
                        <set attributeName="fill" to="#808080" begin="arrowUp.mouseover" end="arrowUp.mouseout"/>
                  </use>
                  <path fill="none" stroke="white" stroke-width="1.5" d="M0,-3.0v7 M-2.5,-0.5L0,-3.0L2.5,-0.5"/>
                </g>
                <g id="arrowRight" xlink:href="#dirArrow" transform="rotate(90) translate(36 -43)" onmousedown="handlePan(1,0)">
                  <use xlink:href="#rim" fill="#404040">
                        <set attributeName="fill" to="#808080" begin="arrowRight.mouseover" end="arrowRight.mouseout"/>
                  </use>
                  <path fill="none" stroke="white" stroke-width="1.5" d="M0,-3.0v7 M-2.5,-0.5L0,-3.0L2.5,-0.5"/>
                </g>
                <g id="arrowDown" xlink:href="#dirArrow" transform="rotate(180) translate(-30 -48)" onmousedown="handlePan(0,1)">
                  <use xlink:href="#rim" fill="#404040">
                        <set attributeName="fill" to="#808080" begin="arrowDown.mouseover" end="arrowDown.mouseout"/>
                  </use>
                  <path fill="none" stroke="white" stroke-width="1.5" d="M0,-3.0v7 M-2.5,-0.5L0,-3.0L2.5,-0.5"/>
                </g>
                <g id="arrowLeft" xlink:href="#dirArrow" transform="rotate(270) translate(-36 17)" onmousedown="handlePan(-1,0)">
                  <use xlink:href="#rim" fill="#404040">
                        <set attributeName="fill" to="#808080" begin="arrowLeft.mouseover" end="arrowLeft.mouseout"/>
                  </use>
                  <path fill="none" stroke="white" stroke-width="1.5" d="M0,-3.0v7 M-2.5,-0.5L0,-3.0L2.5,-0.5"/>
                </g>
        </g>
        <svg viewBox="0 0 15 15" width="100%" height="30px" preserveAspectRatio="xMaxYMin meet">
         <g id="arrow_out" transform="scale(0.3 0.3)">
          <a xlink:href="classview_1_1_editor_a149e24d4e5e4464f3fb1601f2717663b_cgraph_org.svg" target="_base">
           <rect id="button" ry="5" rx="5" y="6" x="6" height="38" width="38"
                fill="#f2f5e9" fill-opacity="0.5" stroke="#606060" stroke-width="1.0"/>
           <path id="arrow"
             d="M 11.500037,31.436501 C 11.940474,20.09759 22.043105,11.32322 32.158766,21.979434 L 37.068811,17.246167 C 37.068811,17.246167 37.088388,32 37.088388,32 L 22.160133,31.978069 C 22.160133,31.978069 26.997745,27.140456 26.997745,27.140456 C 18.528582,18.264221 13.291696,25.230495 11.500037,31.436501 z"
             style="fill:#404040;"/>
          </a>
         </g>
        </svg>
</svg>
