<?xml version="1.0" encoding="UTF-8" standalone="no"?>
<!DOCTYPE svg PUBLIC "-//W3C//DTD SVG 1.1//EN"
 "http://www.w3.org/Graphics/SVG/1.1/DTD/svg11.dtd">
<!-- Generated by graphviz version 2.36.0 (20140111.2315)
 -->
<!-- Title: view.Editor.Editor Pages: 1 -->
<!--zoomable 406 -->
<svg id="main" version="1.1" xmlns="http://www.w3.org/2000/svg" xmlns:xlink="http://www.w3.org/1999/xlink" xml:space="preserve" onload="init(evt)">
<style type="text/css"><![CDATA[
.edge:hover path { stroke: red; }
.edge:hover polygon { stroke: red; fill: red; }
]]></style>
<script type="text/javascript"><![CDATA[
var edges = document.getElementsByTagName('g');
if (edges && edges.length) {
  for (var i=0;i<edges.length;i++) {
    if (edges[i].id.substr(0,4)=='edge') {
      edges[i].setAttribute('class','edge');
    }
  }
}
]]></script>
        <defs>
                <circle id="rim" cx="0" cy="0" r="7"/>
                <circle id="rim2" cx="0" cy="0" r="3.5"/>
                <g id="zoomPlus">
                        <use xlink:href="#rim" fill="#404040">
                                <set attributeName="fill" to="#808080" begin="zoomplus.mouseover" end="zoomplus.mouseout"/>
                        </use>
                        <path d="M-4,0h8M0,-4v8" fill="none" stroke="white" stroke-width="1.5" pointer-events="none"/>
                </g>
                <g id="zoomMin">
                        <use xlink:href="#rim" fill="#404040">
                                <set attributeName="fill" to="#808080" begin="zoomminus.mouseover" end="zoomminus.mouseout"/>
                        </use>
                        <path d="M-4,0h8" fill="none" stroke="white" stroke-width="1.5" pointer-events="none"/>
                </g>
                <g id="dirArrow">
                        <path fill="none" stroke="white" stroke-width="1.5" d="M0,-3.0v7 M-2.5,-0.5L0,-3.0L2.5,-0.5"/>
                </g>
               <g id="resetDef">
                       <use xlink:href="#rim2" fill="#404040">
                               <set attributeName="fill" to="#808080" begin="reset.mouseover" end="reset.mouseout"/>
                       </use>
               </g>
        </defs>

<script type="text/javascript">
var viewWidth = 1282;
var viewHeight = 406;
var sectionId = 'dynsection-2';
</script>
<script xlink:href="../../svgpan.js"/>
<svg id="graph" class="graph">
<g id="viewport">
<title>view.Editor.Editor</title>
<polygon fill="white" stroke="none" points="-4,4 -4,-401.627 1278,-401.627 1278,4 -4,4"/>
<!-- Node1 -->
<g id="node1" class="node"><title>Node1</title>
<polygon fill="#bfbfbf" stroke="black" points="0.5,-144.564 0.5,-163.564 97.5,-163.564 97.5,-144.564 0.5,-144.564"/>
<text text-anchor="middle" x="49" y="-151.564" font-family="Helvetica,sans-Serif" font-size="10.00">view.Editor.Editor</text>
</g>
<!-- Node2 -->
<g id="node2" class="node"><title>Node2</title>
<g id="a_node2"><a xlink:href="../../da/dc8/classview_1_1_editor.html#abd790752cfd8c9f01fb5b27a3680a982" target="_top" xlink:title="view.Editor.createRunButton">
<polygon fill="white" stroke="black" points="134.5,-163.564 134.5,-182.564 283.5,-182.564 283.5,-163.564 134.5,-163.564"/>
<text text-anchor="middle" x="209" y="-170.564" font-family="Helvetica,sans-Serif" font-size="10.00">view.Editor.createRunButton</text>
</a>
</g>
</g>
<!-- Node1&#45;&gt;Node2 -->
<g id="edge1" class="edge"><title>Node1&#45;&gt;Node2</title>
<path fill="none" stroke="midnightblue" d="M97.834,-159.817C106.215,-160.825 115.153,-161.899 124.176,-162.984"/>
<polygon fill="midnightblue" stroke="midnightblue" points="124.027,-166.492 134.373,-164.211 124.862,-159.542 124.027,-166.492"/>
</g>
<!-- Node19 -->
<g id="node19" class="node"><title>Node19</title>
<g id="a_node19"><a xlink:href="../../da/dc8/classview_1_1_editor.html#a3ec2538490bac0e894c3a34a7a74b1ae" target="_top" xlink:title="view.Editor.createTextEditor">
<polygon fill="white" stroke="black" points="136,-125.564 136,-144.564 282,-144.564 282,-125.564 136,-125.564"/>
<text text-anchor="middle" x="209" y="-132.564" font-family="Helvetica,sans-Serif" font-size="10.00">view.Editor.createTextEditor</text>
</a>
</g>
</g>
<!-- Node1&#45;&gt;Node19 -->
<g id="edge21" class="edge"><title>Node1&#45;&gt;Node19</title>
<path fill="none" stroke="midnightblue" d="M97.834,-148.312C106.732,-147.242 116.259,-146.097 125.847,-144.944"/>
<polygon fill="midnightblue" stroke="midnightblue" points="126.328,-148.411 135.838,-143.742 125.492,-141.461 126.328,-148.411"/>
</g>
<!-- Node3 -->
<g id="node3" class="node"><title>Node3</title>
<g id="a_node3"><a xlink:href="../../da/dc8/classview_1_1_editor.html#a149e24d4e5e4464f3fb1601f2717663b" target="_top" xlink:title="view.Editor.parse">
<polygon fill="white" stroke="black" points="320,-163.564 320,-182.564 416,-182.564 416,-163.564 320,-163.564"/>
<text text-anchor="middle" x="368" y="-170.564" font-family="Helvetica,sans-Serif" font-size="10.00">view.Editor.parse</text>
</a>
</g>
</g>
<!-- Node2&#45;&gt;Node3 -->
<g id="edge2" class="edge"><title>Node2&#45;&gt;Node3</title>
<path fill="none" stroke="midnightblue" d="M283.903,-173.064C292.61,-173.064 301.394,-173.064 309.822,-173.064"/>
<polygon fill="midnightblue" stroke="midnightblue" points="309.898,-176.565 319.898,-173.064 309.898,-169.565 309.898,-176.565"/>
</g>
<!-- Node4 -->
<g id="node4" class="node"><title>Node4</title>
<g id="a_node4"><a xlink:href="../../d1/dc7/classview_1_1_side_bar.html#a7e070e482d2d160b3d5aa05f813d2607" target="_top" xlink:title="view.SideBar.setHistory">
<polygon fill="white" stroke="black" points="471,-182.564 471,-201.564 599,-201.564 599,-182.564 471,-182.564"/>
<text text-anchor="middle" x="535" y="-189.564" font-family="Helvetica,sans-Serif" font-size="10.00">view.SideBar.setHistory</text>
</a>
</g>
</g>
<!-- Node3&#45;&gt;Node4 -->
<g id="edge3" class="edge"><title>Node3&#45;&gt;Node4</title>
<path fill="none" stroke="midnightblue" d="M416.282,-178.509C430.055,-180.095 445.439,-181.867 460.426,-183.592"/>
<polygon fill="midnightblue" stroke="midnightblue" points="460.379,-187.11 470.714,-184.777 461.18,-180.156 460.379,-187.11"/>
</g>
<!-- Node5 -->
<g id="node5" class="node"><title>Node5</title>
<g id="a_node5"><a xlink:href="../../dc/df5/classmodel_1_1_parser.html#ab83c099e5a13c82b1a12d7eedda6fbf9" target="_top" xlink:title="model.Parser.parseAndExecute">
<polygon fill="white" stroke="black" points="452,-144.564 452,-163.564 618,-163.564 618,-144.564 452,-144.564"/>
<text text-anchor="middle" x="535" y="-151.564" font-family="Helvetica,sans-Serif" font-size="10.00">model.Parser.parseAndExecute</text>
</a>
</g>
</g>
<!-- Node3&#45;&gt;Node5 -->
<g id="edge4" class="edge"><title>Node3&#45;&gt;Node5</title>
<path fill="none" stroke="midnightblue" d="M416.282,-167.62C424.378,-166.688 433.03,-165.691 441.831,-164.678"/>
<polygon fill="midnightblue" stroke="midnightblue" points="442.275,-168.15 451.809,-163.529 441.474,-161.196 442.275,-168.15"/>
</g>
<!-- Node6 -->
<g id="node6" class="node"><title>Node6</title>
<g id="a_node6"><a xlink:href="../../d1/dca/classmodel_1_1_execution_environment.html#abf8338dc619905fbc175bb52b246843e" target="_top" xlink:title="model.ExecutionEnvironment.get\lActiveList">
<polygon fill="white" stroke="black" points="654,-205.064 654,-235.064 830,-235.064 830,-205.064 654,-205.064"/>
<text text-anchor="start" x="662" y="-223.064" font-family="Helvetica,sans-Serif" font-size="10.00">model.ExecutionEnvironment.get</text>
<text text-anchor="middle" x="742" y="-212.064" font-family="Helvetica,sans-Serif" font-size="10.00">ActiveList</text>
</a>
</g>
</g>
<!-- Node5&#45;&gt;Node6 -->
<g id="edge5" class="edge"><title>Node5&#45;&gt;Node6</title>
<path fill="none" stroke="midnightblue" d="M588.835,-163.671C598.705,-166.2 608.802,-169.304 618,-173.064 635.356,-180.161 636.834,-187.518 654,-195.064 659.346,-197.414 664.972,-199.609 670.685,-201.644"/>
<polygon fill="midnightblue" stroke="midnightblue" points="669.754,-205.023 680.348,-204.916 671.999,-198.393 669.754,-205.023"/>
</g>
<!-- Node7 -->
<g id="node7" class="node"><title>Node7</title>
<g id="a_node7"><a xlink:href="../../dc/df5/classmodel_1_1_parser.html#ae83c95a5190fc22b9b70b1a40b76661c" target="_top" xlink:title="model.Parser.makeTree">
<polygon fill="white" stroke="black" points="678,-166.564 678,-185.564 806,-185.564 806,-166.564 678,-166.564"/>
<text text-anchor="middle" x="742" y="-173.564" font-family="Helvetica,sans-Serif" font-size="10.00">model.Parser.makeTree</text>
</a>
</g>
</g>
<!-- Node5&#45;&gt;Node7 -->
<g id="edge6" class="edge"><title>Node5&#45;&gt;Node7</title>
<path fill="none" stroke="midnightblue" d="M618.2,-162.886C634.465,-164.631 651.44,-166.453 667.398,-168.166"/>
<polygon fill="midnightblue" stroke="midnightblue" points="667.404,-171.686 677.72,-169.273 668.151,-164.726 667.404,-171.686"/>
</g>
<!-- Node16 -->
<g id="node16" class="node"><title>Node16</title>
<g id="a_node16"><a xlink:href="../../d6/de7/classview_1_1_s_logo_view.html#acf8498d7311bed1575638cca1c3f8777" target="_top" xlink:title="view.SLogoView.openDialog">
<polygon fill="white" stroke="black" points="881.5,-29.5645 881.5,-48.5645 1028.5,-48.5645 1028.5,-29.5645 881.5,-29.5645"/>
<text text-anchor="middle" x="955" y="-36.5645" font-family="Helvetica,sans-Serif" font-size="10.00">view.SLogoView.openDialog</text>
</a>
</g>
</g>
<!-- Node5&#45;&gt;Node16 -->
<g id="edge18" class="edge"><title>Node5&#45;&gt;Node16</title>
<path fill="none" stroke="midnightblue" d="M567.233,-144.43C625.625,-126.563 755.434,-87.5192 866,-59.0645 876.804,-56.2841 888.405,-53.5032 899.525,-50.9371"/>
<polygon fill="midnightblue" stroke="midnightblue" points="900.594,-54.2833 909.565,-48.6471 899.037,-47.4586 900.594,-54.2833"/>
</g>
<!-- Node18 -->
<g id="node18" class="node"><title>Node18</title>
<g id="a_node18"><a xlink:href="../../d1/dca/classmodel_1_1_execution_environment.html#a472ef4da5205b0e95ec51fdbf52f654a" target="_top" xlink:title="model.ExecutionEnvironment.set\lActiveTurtle">
<polygon fill="white" stroke="black" points="654.5,-7.06448 654.5,-37.0645 829.5,-37.0645 829.5,-7.06448 654.5,-7.06448"/>
<text text-anchor="start" x="662.5" y="-25.0645" font-family="Helvetica,sans-Serif" font-size="10.00">model.ExecutionEnvironment.set</text>
<text text-anchor="middle" x="742" y="-14.0645" font-family="Helvetica,sans-Serif" font-size="10.00">ActiveTurtle</text>
</a>
</g>
</g>
<!-- Node5&#45;&gt;Node18 -->
<g id="edge19" class="edge"><title>Node5&#45;&gt;Node18</title>
<path fill="none" stroke="midnightblue" d="M551.074,-144.358C584.275,-122.98 664.317,-71.441 709.172,-42.5584"/>
<polygon fill="midnightblue" stroke="midnightblue" points="711.137,-45.4562 717.65,-37.0996 707.347,-39.5707 711.137,-45.4562"/>
</g>
<!-- Node8 -->
<g id="node8" class="node"><title>Node8</title>
<g id="a_node8"><a xlink:href="../../d2/d19/classmodel_1_1_node.html#a59dd0ae47774a51a1590d7fd205b14d5" target="_top" xlink:title="model.Node.addChild">
<polygon fill="white" stroke="black" points="895.5,-292.564 895.5,-311.564 1014.5,-311.564 1014.5,-292.564 895.5,-292.564"/>
<text text-anchor="middle" x="955" y="-299.564" font-family="Helvetica,sans-Serif" font-size="10.00">model.Node.addChild</text>
</a>
</g>
</g>
<!-- Node7&#45;&gt;Node8 -->
<g id="edge7" class="edge"><title>Node7&#45;&gt;Node8</title>
<path fill="none" stroke="midnightblue" d="M806.29,-183.056C814.901,-186.079 823.126,-190.273 830,-196.064 861.688,-222.763 834.279,-255.405 866,-282.064 871.772,-286.916 878.484,-290.65 885.578,-293.515"/>
<polygon fill="midnightblue" stroke="midnightblue" points="884.842,-296.963 895.437,-296.907 887.12,-290.344 884.842,-296.963"/>
</g>
<!-- Node9 -->
<g id="node9" class="node"><title>Node9</title>
<g id="a_node9"><a xlink:href="../../d1/dca/classmodel_1_1_execution_environment.html#a83ef2b9eaef50b67c0b978f2abb8200c" target="_top" xlink:title="model.ExecutionEnvironment.add\lCommand">
<polygon fill="white" stroke="black" points="866,-243.064 866,-273.064 1044,-273.064 1044,-243.064 866,-243.064"/>
<text text-anchor="start" x="874" y="-261.064" font-family="Helvetica,sans-Serif" font-size="10.00">model.ExecutionEnvironment.add</text>
<text text-anchor="middle" x="955" y="-250.064" font-family="Helvetica,sans-Serif" font-size="10.00">Command</text>
</a>
</g>
</g>
<!-- Node7&#45;&gt;Node9 -->
<g id="edge8" class="edge"><title>Node7&#45;&gt;Node9</title>
<path fill="none" stroke="midnightblue" d="M805.025,-185.678C813.718,-188.338 822.301,-191.732 830,-196.064 849.996,-207.316 846.297,-221.309 866,-233.064 869.606,-235.216 873.405,-237.19 877.32,-238.999"/>
<polygon fill="midnightblue" stroke="midnightblue" points="876.054,-242.264 886.627,-242.931 878.778,-235.815 876.054,-242.264"/>
</g>
<!-- Node11 -->
<g id="node11" class="node"><title>Node11</title>
<g id="a_node11"><a xlink:href="../../d2/d19/classmodel_1_1_node.html#a30a55e40eef5514f8201573584ca9aea" target="_top" xlink:title="model.Node.getChildren">
<polygon fill="white" stroke="black" points="888.5,-204.564 888.5,-223.564 1021.5,-223.564 1021.5,-204.564 888.5,-204.564"/>
<text text-anchor="middle" x="955" y="-211.564" font-family="Helvetica,sans-Serif" font-size="10.00">model.Node.getChildren</text>
</a>
</g>
</g>
<!-- Node7&#45;&gt;Node11 -->
<g id="edge10" class="edge"><title>Node7&#45;&gt;Node11</title>
<path fill="none" stroke="midnightblue" d="M795.972,-185.604C824.817,-190.799 860.695,-197.261 890.972,-202.713"/>
<polygon fill="midnightblue" stroke="midnightblue" points="890.544,-206.193 901.006,-204.521 891.785,-199.304 890.544,-206.193"/>
</g>
<!-- Node12 -->
<g id="node12" class="node"><title>Node12</title>
<g id="a_node12"><a xlink:href="../../d2/d19/classmodel_1_1_node.html#a3036121af674a3a8ff49e82bd77ab5a4" target="_top" xlink:title="model.Node.getInstruction">
<polygon fill="white" stroke="black" points="883,-166.564 883,-185.564 1027,-185.564 1027,-166.564 883,-166.564"/>
<text text-anchor="middle" x="955" y="-173.564" font-family="Helvetica,sans-Serif" font-size="10.00">model.Node.getInstruction</text>
</a>
</g>
</g>
<!-- Node7&#45;&gt;Node12 -->
<g id="edge11" class="edge"><title>Node7&#45;&gt;Node12</title>
<path fill="none" stroke="midnightblue" d="M806.021,-176.064C826.977,-176.064 850.618,-176.064 872.752,-176.064"/>
<polygon fill="midnightblue" stroke="midnightblue" points="872.801,-179.565 882.801,-176.064 872.801,-172.565 872.801,-179.565"/>
</g>
<!-- Node13 -->
<g id="node13" class="node"><title>Node13</title>
<g id="a_node13"><a xlink:href="../../d1/dea/classmodel_1_1instructions_1_1_instruction.html#afd4726dcbdbf559356c38970061d9b79" target="_top" xlink:title="model.instructions.Instruction.get\lNumberOfArguments">
<polygon fill="white" stroke="black" points="866.5,-117.064 866.5,-147.064 1043.5,-147.064 1043.5,-117.064 866.5,-117.064"/>
<text text-anchor="start" x="874.5" y="-135.064" font-family="Helvetica,sans-Serif" font-size="10.00">model.instructions.Instruction.get</text>
<text text-anchor="middle" x="955" y="-124.064" font-family="Helvetica,sans-Serif" font-size="10.00">NumberOfArguments</text>
</a>
</g>
</g>
<!-- Node7&#45;&gt;Node13 -->
<g id="edge12" class="edge"><title>Node7&#45;&gt;Node13</title>
<path fill="none" stroke="midnightblue" d="M788.784,-166.517C813.07,-161.453 843.652,-155.075 871.882,-149.189"/>
<polygon fill="midnightblue" stroke="midnightblue" points="872.68,-152.598 881.755,-147.13 871.251,-145.745 872.68,-152.598"/>
</g>
<!-- Node14 -->
<g id="node14" class="node"><title>Node14</title>
<g id="a_node14"><a xlink:href="../../d1/dca/classmodel_1_1_execution_environment.html#a7eac9bbab890abbeb7db1a095fca5fc8" target="_top" xlink:title="model.ExecutionEnvironment.get\lUserCommandMap">
<polygon fill="white" stroke="black" points="867,-68.0645 867,-98.0645 1043,-98.0645 1043,-68.0645 867,-68.0645"/>
<text text-anchor="start" x="875" y="-86.0645" font-family="Helvetica,sans-Serif" font-size="10.00">model.ExecutionEnvironment.get</text>
<text text-anchor="middle" x="955" y="-75.0645" font-family="Helvetica,sans-Serif" font-size="10.00">UserCommandMap</text>
</a>
</g>
</g>
<!-- Node7&#45;&gt;Node14 -->
<g id="edge13" class="edge"><title>Node7&#45;&gt;Node14</title>
<path fill="none" stroke="midnightblue" d="M759.484,-166.335C787.799,-149.727 844.681,-116.85 866,-108.064 871.782,-105.682 877.867,-103.44 884.025,-101.353"/>
<polygon fill="midnightblue" stroke="midnightblue" points="885.299,-104.62 893.73,-98.2031 883.138,-97.9619 885.299,-104.62"/>
</g>
<!-- Node15 -->
<g id="node15" class="node"><title>Node15</title>
<g id="a_node15"><a xlink:href="../../dc/df5/classmodel_1_1_parser.html#ae24603572f6f919b363a7cef0cbe45c0" target="_top" xlink:title="model.Parser.match">
<polygon fill="white" stroke="black" points="1120.5,-349.564 1120.5,-368.564 1233.5,-368.564 1233.5,-349.564 1120.5,-349.564"/>
<text text-anchor="middle" x="1177" y="-356.564" font-family="Helvetica,sans-Serif" font-size="10.00">model.Parser.match</text>
</a>
</g>
</g>
<!-- Node7&#45;&gt;Node15 -->
<g id="edge14" class="edge"><title>Node7&#45;&gt;Node15</title>
<path fill="none" stroke="midnightblue" d="M806.39,-181.671C815.196,-184.854 823.453,-189.461 830,-196.064 882.235,-248.75 808.159,-312.604 866,-359.064 945.692,-423.077 1077.77,-392.107 1140.63,-371.857"/>
<polygon fill="midnightblue" stroke="midnightblue" points="1142.08,-375.065 1150.47,-368.593 1139.88,-368.421 1142.08,-375.065"/>
</g>
<!-- Node7&#45;&gt;Node16 -->
<g id="edge15" class="edge"><title>Node7&#45;&gt;Node16</title>
<path fill="none" stroke="midnightblue" d="M767.566,-166.406C786.469,-158.002 812.274,-144.304 830,-126.064 853.559,-101.822 839.102,-79.5387 866,-59.0645 868.98,-56.7959 872.171,-54.7767 875.508,-52.9799"/>
<polygon fill="midnightblue" stroke="midnightblue" points="877.05,-56.1227 884.635,-48.7251 874.092,-49.7783 877.05,-56.1227"/>
</g>
<!-- Node17 -->
<g id="node17" class="node"><title>Node17</title>
<g id="a_node17"><a xlink:href="../../dc/df5/classmodel_1_1_parser.html#a367f66d63cda3e0b2733b078c20a1f73" target="_top" xlink:title="model.Parser.testMatches">
<polygon fill="white" stroke="black" points="884.5,-330.564 884.5,-349.564 1025.5,-349.564 1025.5,-330.564 884.5,-330.564"/>
<text text-anchor="middle" x="955" y="-337.564" font-family="Helvetica,sans-Serif" font-size="10.00">model.Parser.testMatches</text>
</a>
</g>
</g>
<!-- Node7&#45;&gt;Node17 -->
<g id="edge16" class="edge"><title>Node7&#45;&gt;Node17</title>
<path fill="none" stroke="midnightblue" d="M806.03,-182.04C814.882,-185.175 823.248,-189.671 830,-196.064 871.978,-235.817 823.758,-281.592 866,-321.064 868.791,-323.672 871.851,-325.955 875.103,-327.952"/>
<polygon fill="midnightblue" stroke="midnightblue" points="873.615,-331.123 884.108,-332.594 876.823,-324.901 873.615,-331.123"/>
</g>
<!-- Node10 -->
<g id="node10" class="node"><title>Node10</title>
<g id="a_node10"><a xlink:href="../../d1/dca/classmodel_1_1_execution_environment.html#a93fd01341f06dfa81727344b120aef66" target="_top" xlink:title="model.ExecutionEnvironment.update\lObserver">
<polygon fill="white" stroke="black" points="1080,-115.064 1080,-145.064 1274,-145.064 1274,-115.064 1080,-115.064"/>
<text text-anchor="start" x="1088" y="-133.064" font-family="Helvetica,sans-Serif" font-size="10.00">model.ExecutionEnvironment.update</text>
<text text-anchor="middle" x="1177" y="-122.064" font-family="Helvetica,sans-Serif" font-size="10.00">Observer</text>
</a>
</g>
</g>
<!-- Node9&#45;&gt;Node10 -->
<g id="edge9" class="edge"><title>Node9&#45;&gt;Node10</title>
<path fill="none" stroke="midnightblue" d="M1020.09,-243.023C1028.32,-240.178 1036.49,-236.875 1044,-233.064 1086.33,-211.576 1128.38,-175.583 1153.27,-152.339"/>
<polygon fill="midnightblue" stroke="midnightblue" points="1155.88,-154.692 1160.73,-145.274 1151.06,-149.61 1155.88,-154.692"/>
</g>
<!-- Node17&#45;&gt;Node15 -->
<g id="edge17" class="edge"><title>Node17&#45;&gt;Node15</title>
<path fill="none" stroke="midnightblue" d="M1025.61,-346.076C1052.73,-348.419 1083.66,-351.09 1110.39,-353.398"/>
<polygon fill="midnightblue" stroke="midnightblue" points="1110.15,-356.89 1120.41,-354.264 1110.75,-349.916 1110.15,-356.89"/>
</g>
<!-- Node18&#45;&gt;Node10 -->
<g id="edge20" class="edge"><title>Node18&#45;&gt;Node10</title>
<path fill="none" stroke="midnightblue" d="M820.952,-7.06264C883.243,1.5455 971.769,6.08678 1044,-20.0645 1091.79,-37.3663 1134.43,-80.3604 1157.62,-107.186"/>
<polygon fill="midnightblue" stroke="midnightblue" points="1155.04,-109.564 1164.17,-114.945 1160.39,-105.047 1155.04,-109.564"/>
</g>
</g>
</svg>
        <g id="navigator" transform="translate(0 0)" fill="#404254">
                <rect fill="#f2f5e9" fill-opacity="0.5" stroke="#606060" stroke-width=".5" x="0" y="0" width="60" height="60"/>
                <use id="zoomplus" xlink:href="#zoomPlus" x="17" y="9" onmousedown="handleZoom(evt,'in')"/>
                <use id="zoomminus" xlink:href="#zoomMin" x="42" y="9" onmousedown="handleZoom(evt,'out')"/>
                <use id="reset" xlink:href="#resetDef" x="30" y="36" onmousedown="handleReset()"/>
                <g id="arrowUp" xlink:href="#dirArrow" transform="translate(30 24)" onmousedown="handlePan(0,-1)">
                  <use xlink:href="#rim" fill="#404040">
                        <set attributeName="fill" to="#808080" begin="arrowUp.mouseover" end="arrowUp.mouseout"/>
                  </use>
                  <path fill="none" stroke="white" stroke-width="1.5" d="M0,-3.0v7 M-2.5,-0.5L0,-3.0L2.5,-0.5"/>
                </g>
                <g id="arrowRight" xlink:href="#dirArrow" transform="rotate(90) translate(36 -43)" onmousedown="handlePan(1,0)">
                  <use xlink:href="#rim" fill="#404040">
                        <set attributeName="fill" to="#808080" begin="arrowRight.mouseover" end="arrowRight.mouseout"/>
                  </use>
                  <path fill="none" stroke="white" stroke-width="1.5" d="M0,-3.0v7 M-2.5,-0.5L0,-3.0L2.5,-0.5"/>
                </g>
                <g id="arrowDown" xlink:href="#dirArrow" transform="rotate(180) translate(-30 -48)" onmousedown="handlePan(0,1)">
                  <use xlink:href="#rim" fill="#404040">
                        <set attributeName="fill" to="#808080" begin="arrowDown.mouseover" end="arrowDown.mouseout"/>
                  </use>
                  <path fill="none" stroke="white" stroke-width="1.5" d="M0,-3.0v7 M-2.5,-0.5L0,-3.0L2.5,-0.5"/>
                </g>
                <g id="arrowLeft" xlink:href="#dirArrow" transform="rotate(270) translate(-36 17)" onmousedown="handlePan(-1,0)">
                  <use xlink:href="#rim" fill="#404040">
                        <set attributeName="fill" to="#808080" begin="arrowLeft.mouseover" end="arrowLeft.mouseout"/>
                  </use>
                  <path fill="none" stroke="white" stroke-width="1.5" d="M0,-3.0v7 M-2.5,-0.5L0,-3.0L2.5,-0.5"/>
                </g>
        </g>
        <svg viewBox="0 0 15 15" width="100%" height="30px" preserveAspectRatio="xMaxYMin meet">
         <g id="arrow_out" transform="scale(0.3 0.3)">
          <a xlink:href="classview_1_1_editor_a5b88172770caabfc64e9b7adaee1a2c5_cgraph_org.svg" target="_base">
           <rect id="button" ry="5" rx="5" y="6" x="6" height="38" width="38"
                fill="#f2f5e9" fill-opacity="0.5" stroke="#606060" stroke-width="1.0"/>
           <path id="arrow"
             d="M 11.500037,31.436501 C 11.940474,20.09759 22.043105,11.32322 32.158766,21.979434 L 37.068811,17.246167 C 37.068811,17.246167 37.088388,32 37.088388,32 L 22.160133,31.978069 C 22.160133,31.978069 26.997745,27.140456 26.997745,27.140456 C 18.528582,18.264221 13.291696,25.230495 11.500037,31.436501 z"
             style="fill:#404040;"/>
          </a>
         </g>
        </svg>
</svg>
