<?xml version="1.0" encoding="UTF-8" standalone="no"?>
<!DOCTYPE svg PUBLIC "-//W3C//DTD SVG 1.1//EN"
 "http://www.w3.org/Graphics/SVG/1.1/DTD/svg11.dtd">
<!-- Generated by graphviz version 2.36.0 (20140111.2315)
 -->
<!-- Title: view.SLogoView Pages: 1 -->
<svg width="1886pt" height="756pt"
 viewBox="0.00 0.00 1886.00 756.00" xmlns="http://www.w3.org/2000/svg" xmlns:xlink="http://www.w3.org/1999/xlink">
<g id="graph0" class="graph" transform="scale(1 1) rotate(0) translate(4 752)">
<title>view.SLogoView</title>
<polygon fill="white" stroke="none" points="-4,4 -4,-752 1882,-752 1882,4 -4,4"/>
<!-- Node1 -->
<g id="node1" class="node"><title>Node1</title>
<polygon fill="#bfbfbf" stroke="black" points="611.5,-314.5 611.5,-333.5 702.5,-333.5 702.5,-314.5 611.5,-314.5"/>
<text text-anchor="middle" x="657" y="-321.5" font-family="Helvetica,sans-Serif" font-size="10.00">view.SLogoView</text>
</g>
<!-- Node18 -->
<g id="node18" class="node"><title>Node18</title>
<g id="a_node18"><a xlink:href="../../dc/df5/classmodel_1_1_parser.html" target="_top" xlink:title="model.Parser">
<polygon fill="white" stroke="black" points="891,-129.5 891,-148.5 971,-148.5 971,-129.5 891,-129.5"/>
<text text-anchor="middle" x="931" y="-136.5" font-family="Helvetica,sans-Serif" font-size="10.00">model.Parser</text>
</a>
</g>
</g>
<!-- Node1&#45;&gt;Node18 -->
<g id="edge31" class="edge"><title>Node1&#45;&gt;Node18</title>
<path fill="none" stroke="#9a32cd" stroke-dasharray="5,2" d="M659.599,-303.888C663.943,-264.429 679.752,-177.458 736,-140 785.059,-107.33 857.701,-118.858 898.759,-129.425"/>
<polygon fill="#9a32cd" stroke="#9a32cd" points="656.091,-303.802 658.619,-314.09 663.059,-304.471 656.091,-303.802"/>
<text text-anchor="middle" x="781" y="-143" font-family="Helvetica,sans-Serif" font-size="10.00"> mySLogoView</text>
</g>
<!-- Node2 -->
<g id="node2" class="node"><title>Node2</title>
<g id="a_node2"><a xlink:href="../../da/d64/classview_1_1_workspace.html" target="_top" xlink:title="view.Workspace">
<polygon fill="white" stroke="black" points="1420,-527.5 1420,-546.5 1510,-546.5 1510,-527.5 1420,-527.5"/>
<text text-anchor="middle" x="1465" y="-534.5" font-family="Helvetica,sans-Serif" font-size="10.00">view.Workspace</text>
</a>
</g>
</g>
<!-- Node2&#45;&gt;Node1 -->
<g id="edge1" class="edge"><title>Node2&#45;&gt;Node1</title>
<path fill="none" stroke="#9a32cd" stroke-dasharray="5,2" d="M1454.76,-518.284C1444.55,-499.736 1426.28,-472.113 1402,-458 1365.48,-436.77 1350.12,-447.12 1308,-444 1247.72,-439.536 1229.85,-426.484 1172,-444 1162.8,-446.786 1163.13,-452.978 1154,-456 1023.17,-499.314 974.778,-506.468 844,-463 764.047,-436.426 690.67,-360.596 666.421,-333.648"/>
<polygon fill="#9a32cd" stroke="#9a32cd" points="1451.73,-520.044 1459.47,-527.275 1457.93,-516.793 1451.73,-520.044"/>
<text text-anchor="middle" x="1095" y="-492" font-family="Helvetica,sans-Serif" font-size="10.00"> myWorkspace</text>
</g>
<!-- Node21 -->
<g id="node21" class="node"><title>Node21</title>
<g id="a_node21"><a xlink:href="../../d4/d64/classview_1_1_view_updater.html" target="_top" xlink:title="view.ViewUpdater">
<polygon fill="white" stroke="black" points="1778,-527.5 1778,-546.5 1878,-546.5 1878,-527.5 1778,-527.5"/>
<text text-anchor="middle" x="1828" y="-534.5" font-family="Helvetica,sans-Serif" font-size="10.00">view.ViewUpdater</text>
</a>
</g>
</g>
<!-- Node2&#45;&gt;Node21 -->
<g id="edge25" class="edge"><title>Node2&#45;&gt;Node21</title>
<path fill="none" stroke="#9a32cd" stroke-dasharray="5,2" d="M1520.62,-537C1590.51,-537 1710.55,-537 1777.75,-537"/>
<polygon fill="#9a32cd" stroke="#9a32cd" points="1520.27,-533.5 1510.27,-537 1520.27,-540.5 1520.27,-533.5"/>
<text text-anchor="middle" x="1653" y="-540" font-family="Helvetica,sans-Serif" font-size="10.00"> myWorkspace</text>
</g>
<!-- Node22 -->
<g id="node22" class="node"><title>Node22</title>
<g id="a_node22"><a xlink:href="../../de/d0a/classview_1_1_drawer.html" target="_top" xlink:title="view.Drawer">
<polygon fill="white" stroke="black" points="1616.5,-602.5 1616.5,-621.5 1689.5,-621.5 1689.5,-602.5 1616.5,-602.5"/>
<text text-anchor="middle" x="1653" y="-609.5" font-family="Helvetica,sans-Serif" font-size="10.00">view.Drawer</text>
</a>
</g>
</g>
<!-- Node2&#45;&gt;Node22 -->
<g id="edge27" class="edge"><title>Node2&#45;&gt;Node22</title>
<path fill="none" stroke="#9a32cd" stroke-dasharray="5,2" d="M1499.32,-550.435C1536.41,-565.39 1595.42,-589.186 1628.16,-602.386"/>
<polygon fill="#9a32cd" stroke="#9a32cd" points="1500.52,-547.145 1489.94,-546.651 1497.9,-553.637 1500.52,-547.145"/>
<text text-anchor="middle" x="1563" y="-593" font-family="Helvetica,sans-Serif" font-size="10.00"> myWorkspace</text>
</g>
<!-- Node3 -->
<g id="node3" class="node"><title>Node3</title>
<polygon fill="white" stroke="#bfbfbf" points="1206.5,-489.5 1206.5,-508.5 1273.5,-508.5 1273.5,-489.5 1206.5,-489.5"/>
<text text-anchor="middle" x="1240" y="-496.5" font-family="Helvetica,sans-Serif" font-size="10.00">StackPane</text>
</g>
<!-- Node3&#45;&gt;Node2 -->
<g id="edge2" class="edge"><title>Node3&#45;&gt;Node2</title>
<path fill="none" stroke="midnightblue" d="M1283.91,-506.312C1322.96,-512.966 1380.36,-522.747 1419.8,-529.469"/>
<polygon fill="midnightblue" stroke="midnightblue" points="1284.35,-502.837 1273.9,-504.607 1283.17,-509.737 1284.35,-502.837"/>
</g>
<!-- Node4 -->
<g id="node4" class="node"><title>Node4</title>
<polygon fill="white" stroke="#bfbfbf" points="354.5,-615.5 354.5,-634.5 447.5,-634.5 447.5,-615.5 354.5,-615.5"/>
<text text-anchor="middle" x="401" y="-622.5" font-family="Helvetica,sans-Serif" font-size="10.00">ResourceBundle</text>
</g>
<!-- Node4&#45;&gt;Node1 -->
<g id="edge35" class="edge"><title>Node4&#45;&gt;Node1</title>
<path fill="none" stroke="#9a32cd" stroke-dasharray="5,2" d="M416.902,-607.341C464.405,-551.048 611.272,-377.005 647.739,-333.789"/>
<polygon fill="#9a32cd" stroke="#9a32cd" points="413.938,-605.426 410.163,-615.326 419.287,-609.941 413.938,-605.426"/>
<text text-anchor="middle" x="538" y="-514" font-family="Helvetica,sans-Serif" font-size="10.00"> myResources</text>
</g>
<!-- Node4&#45;&gt;Node2 -->
<g id="edge3" class="edge"><title>Node4&#45;&gt;Node2</title>
<path fill="none" stroke="#9a32cd" stroke-dasharray="5,2" d="M451.399,-636.833C502.345,-647.986 584.252,-663 656,-663 656,-663 656,-663 1241,-663 1315.18,-663 1340.57,-660.584 1402,-619 1430.08,-599.991 1450.63,-564.029 1459.36,-546.75"/>
<polygon fill="#9a32cd" stroke="#9a32cd" points="451.846,-633.347 441.324,-634.589 450.324,-640.179 451.846,-633.347"/>
<text text-anchor="middle" x="931" y="-666" font-family="Helvetica,sans-Serif" font-size="10.00"> myResources</text>
</g>
<!-- Node9 -->
<g id="node9" class="node"><title>Node9</title>
<g id="a_node9"><a xlink:href="../../d1/dc7/classview_1_1_side_bar.html" target="_top" xlink:title="view.SideBar">
<polygon fill="white" stroke="black" points="1201.5,-344.5 1201.5,-363.5 1278.5,-363.5 1278.5,-344.5 1201.5,-344.5"/>
<text text-anchor="middle" x="1240" y="-351.5" font-family="Helvetica,sans-Serif" font-size="10.00">view.SideBar</text>
</a>
</g>
</g>
<!-- Node4&#45;&gt;Node9 -->
<g id="edge12" class="edge"><title>Node4&#45;&gt;Node9</title>
<path fill="none" stroke="#9a32cd" stroke-dasharray="5,2" d="M455.165,-613.289C625.392,-575.762 1146.36,-460.669 1154,-456 1192.94,-432.2 1222.49,-384.199 1233.88,-363.67"/>
<polygon fill="#9a32cd" stroke="#9a32cd" points="454.191,-609.919 445.179,-615.49 455.698,-616.755 454.191,-609.919"/>
<text text-anchor="middle" x="781" y="-554" font-family="Helvetica,sans-Serif" font-size="10.00"> myResources</text>
</g>
<!-- Node5 -->
<g id="node5" class="node"><title>Node5</title>
<g id="a_node5"><a xlink:href="../../d8/df7/classview_1_1_turtle_view.html" target="_top" xlink:title="view.TurtleView">
<polygon fill="white" stroke="black" points="1197,-565.5 1197,-584.5 1283,-584.5 1283,-565.5 1197,-565.5"/>
<text text-anchor="middle" x="1240" y="-572.5" font-family="Helvetica,sans-Serif" font-size="10.00">view.TurtleView</text>
</a>
</g>
</g>
<!-- Node5&#45;&gt;Node2 -->
<g id="edge4" class="edge"><title>Node5&#45;&gt;Node2</title>
<path fill="none" stroke="#9a32cd" stroke-dasharray="5,2" d="M1293.09,-568.232C1324.69,-563.879 1365.78,-557.779 1402,-551 1409.05,-549.68 1416.52,-548.128 1423.74,-546.547"/>
<polygon fill="#9a32cd" stroke="#9a32cd" points="1292.61,-564.764 1283.18,-569.583 1293.56,-571.7 1292.61,-564.764"/>
<text text-anchor="middle" x="1364" y="-567" font-family="Helvetica,sans-Serif" font-size="10.00"> myActiveTurtle</text>
</g>
<!-- Node6 -->
<g id="node6" class="node"><title>Node6</title>
<polygon fill="white" stroke="#bfbfbf" points="897,-606.5 897,-625.5 965,-625.5 965,-606.5 897,-606.5"/>
<text text-anchor="middle" x="931" y="-613.5" font-family="Helvetica,sans-Serif" font-size="10.00">ImageView</text>
</g>
<!-- Node6&#45;&gt;Node5 -->
<g id="edge5" class="edge"><title>Node6&#45;&gt;Node5</title>
<path fill="none" stroke="midnightblue" d="M975.184,-612.487C1020.03,-608.569 1092.15,-601.509 1154,-592 1167.98,-589.85 1183.16,-586.987 1196.76,-584.225"/>
<polygon fill="midnightblue" stroke="midnightblue" points="974.882,-609 965.219,-613.345 975.482,-615.974 974.882,-609"/>
</g>
<!-- Node7 -->
<g id="node7" class="node"><title>Node7</title>
<polygon fill="white" stroke="#bfbfbf" points="908,-568.5 908,-587.5 954,-587.5 954,-568.5 908,-568.5"/>
<text text-anchor="middle" x="931" y="-575.5" font-family="Helvetica,sans-Serif" font-size="10.00">Group</text>
</g>
<!-- Node7&#45;&gt;Node2 -->
<g id="edge8" class="edge"><title>Node7&#45;&gt;Node2</title>
<path fill="none" stroke="#9a32cd" stroke-dasharray="5,2" d="M964.3,-569.045C980.438,-564.555 1000.26,-559.019 1018,-554 1078.51,-536.882 1107.5,-557.332 1154,-515 1170.23,-500.22 1153.87,-481.376 1172,-469 1264.43,-405.912 1407.57,-496.755 1451.04,-527.471"/>
<polygon fill="#9a32cd" stroke="#9a32cd" points="962.983,-565.778 954.286,-571.828 964.858,-572.522 962.983,-565.778"/>
<text text-anchor="middle" x="1240" y="-472" font-family="Helvetica,sans-Serif" font-size="10.00"> myLines</text>
</g>
<!-- Node7&#45;&gt;Node5 -->
<g id="edge6" class="edge"><title>Node7&#45;&gt;Node5</title>
<path fill="none" stroke="#9a32cd" stroke-dasharray="5,2" d="M964.102,-577.686C1019.9,-577.141 1134.75,-576.019 1196.88,-575.412"/>
<polygon fill="#9a32cd" stroke="#9a32cd" points="964.044,-574.187 954.079,-577.784 964.112,-581.186 964.044,-574.187"/>
<text text-anchor="middle" x="1095" y="-580" font-family="Helvetica,sans-Serif" font-size="10.00"> myStamps</text>
</g>
<!-- Node8 -->
<g id="node8" class="node"><title>Node8</title>
<polygon fill="white" stroke="#bfbfbf" points="1172,-604 1172,-634 1308,-634 1308,-604 1172,-604"/>
<text text-anchor="start" x="1180" y="-622" font-family="Helvetica,sans-Serif" font-size="10.00">Map&lt; Integer, view.Turtle</text>
<text text-anchor="middle" x="1240" y="-611" font-family="Helvetica,sans-Serif" font-size="10.00">View &gt;</text>
</g>
<!-- Node8&#45;&gt;Node2 -->
<g id="edge7" class="edge"><title>Node8&#45;&gt;Node2</title>
<path fill="none" stroke="#9a32cd" stroke-dasharray="5,2" d="M1318.03,-605.646C1345.26,-599.433 1375.64,-590.753 1402,-579 1421,-570.528 1440.47,-556.24 1452.4,-546.715"/>
<polygon fill="#9a32cd" stroke="#9a32cd" points="1317.17,-602.252 1308.16,-607.824 1318.67,-609.088 1317.17,-602.252"/>
<text text-anchor="middle" x="1364" y="-607" font-family="Helvetica,sans-Serif" font-size="10.00"> myTurtles</text>
</g>
<!-- Node9&#45;&gt;Node1 -->
<g id="edge47" class="edge"><title>Node9&#45;&gt;Node1</title>
<path fill="none" stroke="#9a32cd" stroke-dasharray="5,2" d="M1191.49,-350.099C1146.75,-346.536 1077.86,-341.33 1018,-338 904.496,-331.686 770.703,-327.281 702.64,-325.257"/>
<polygon fill="#9a32cd" stroke="#9a32cd" points="1191.24,-353.59 1201.49,-350.9 1191.8,-346.613 1191.24,-353.59"/>
<text text-anchor="middle" x="931" y="-341" font-family="Helvetica,sans-Serif" font-size="10.00"> mySidebar</text>
</g>
<!-- Node9&#45;&gt;Node2 -->
<g id="edge9" class="edge"><title>Node9&#45;&gt;Node2</title>
<path fill="none" stroke="#9a32cd" stroke-dasharray="5,2" d="M1288.59,-362.05C1332.84,-369.902 1393.23,-381.701 1402,-389 1446.54,-426.066 1459.63,-500.603 1462.98,-527.251"/>
<polygon fill="#9a32cd" stroke="#9a32cd" points="1289.03,-358.574 1278.57,-360.291 1287.82,-365.468 1289.03,-358.574"/>
<text text-anchor="middle" x="1364" y="-392" font-family="Helvetica,sans-Serif" font-size="10.00"> mySidebar</text>
</g>
<!-- Node9&#45;&gt;Node21 -->
<g id="edge29" class="edge"><title>Node9&#45;&gt;Node21</title>
<path fill="none" stroke="#9a32cd" stroke-dasharray="5,2" d="M1288.67,-354.515C1321.02,-355.745 1364.55,-359.129 1402,-368 1566.19,-406.896 1750.64,-497.665 1808.58,-527.389"/>
<polygon fill="#9a32cd" stroke="#9a32cd" points="1288.69,-351.014 1278.58,-354.187 1288.46,-358.01 1288.69,-351.014"/>
<text text-anchor="middle" x="1563" y="-434" font-family="Helvetica,sans-Serif" font-size="10.00"> mySidebar</text>
</g>
<!-- Node28 -->
<g id="node28" class="node"><title>Node28</title>
<g id="a_node28"><a xlink:href="../../da/dc8/classview_1_1_editor.html" target="_top" xlink:title="view.Editor">
<polygon fill="white" stroke="black" points="1431.5,-178.5 1431.5,-197.5 1498.5,-197.5 1498.5,-178.5 1431.5,-178.5"/>
<text text-anchor="middle" x="1465" y="-185.5" font-family="Helvetica,sans-Serif" font-size="10.00">view.Editor</text>
</a>
</g>
</g>
<!-- Node9&#45;&gt;Node28 -->
<g id="edge41" class="edge"><title>Node9&#45;&gt;Node28</title>
<path fill="none" stroke="#9a32cd" stroke-dasharray="5,2" d="M1271,-339.961C1304.79,-323.345 1360.41,-293.534 1402,-259 1424.91,-239.972 1446.58,-212.114 1457.2,-197.598"/>
<polygon fill="#9a32cd" stroke="#9a32cd" points="1269.13,-336.974 1261.66,-344.487 1272.19,-343.273 1269.13,-336.974"/>
<text text-anchor="middle" x="1364" y="-314" font-family="Helvetica,sans-Serif" font-size="10.00"> mySidebar</text>
</g>
<!-- Node10 -->
<g id="node10" class="node"><title>Node10</title>
<polygon fill="white" stroke="#bfbfbf" points="910.5,-273.5 910.5,-292.5 951.5,-292.5 951.5,-273.5 910.5,-273.5"/>
<text text-anchor="middle" x="931" y="-280.5" font-family="Helvetica,sans-Serif" font-size="10.00">VBox</text>
</g>
<!-- Node10&#45;&gt;Node9 -->
<g id="edge10" class="edge"><title>Node10&#45;&gt;Node9</title>
<path fill="none" stroke="midnightblue" d="M961.926,-283.29C1005.24,-284.454 1087.48,-289.47 1154,-310 1180.2,-318.085 1207.94,-334.027 1224.35,-344.338"/>
<polygon fill="midnightblue" stroke="midnightblue" points="961.861,-279.788 951.787,-283.07 961.709,-286.786 961.861,-279.788"/>
</g>
<!-- Node11 -->
<g id="node11" class="node"><title>Node11</title>
<polygon fill="white" stroke="#bfbfbf" points="844.5,-434.5 844.5,-453.5 1017.5,-453.5 1017.5,-434.5 844.5,-434.5"/>
<text text-anchor="middle" x="931" y="-441.5" font-family="Helvetica,sans-Serif" font-size="10.00">ObservableList&lt; view.Property &gt;</text>
</g>
<!-- Node11&#45;&gt;Node9 -->
<g id="edge11" class="edge"><title>Node11&#45;&gt;Node9</title>
<path fill="none" stroke="#9a32cd" stroke-dasharray="5,2" d="M1027.7,-441.065C1077.4,-438.171 1132.21,-432.421 1154,-421 1164.89,-415.294 1162.86,-408.215 1172,-400 1187.95,-385.667 1208.58,-372.138 1222.71,-363.511"/>
<polygon fill="#9a32cd" stroke="#9a32cd" points="1027.3,-437.582 1017.51,-441.624 1027.69,-444.571 1027.3,-437.582"/>
<text text-anchor="middle" x="1095" y="-444" font-family="Helvetica,sans-Serif" font-size="10.00"> myVariablesList</text>
</g>
<!-- Node12 -->
<g id="node12" class="node"><title>Node12</title>
<g id="a_node12"><a xlink:href="../../d1/dca/classmodel_1_1_execution_environment.html" target="_top" xlink:title="model.ExecutionEnvironment">
<polygon fill="white" stroke="black" points="322.5,-197.5 322.5,-216.5 479.5,-216.5 479.5,-197.5 322.5,-197.5"/>
<text text-anchor="middle" x="401" y="-204.5" font-family="Helvetica,sans-Serif" font-size="10.00">model.ExecutionEnvironment</text>
</a>
</g>
</g>
<!-- Node12&#45;&gt;Node1 -->
<g id="edge43" class="edge"><title>Node12&#45;&gt;Node1</title>
<path fill="none" stroke="#9a32cd" stroke-dasharray="5,2" d="M435.022,-220.375C470.644,-235.009 528.866,-259.52 578,-283 599.257,-293.158 623.166,-305.932 638.843,-314.498"/>
<polygon fill="#9a32cd" stroke="#9a32cd" points="436.181,-217.068 425.6,-216.519 433.529,-223.546 436.181,-217.068"/>
<text text-anchor="middle" x="538" y="-286" font-family="Helvetica,sans-Serif" font-size="10.00"> myEnvironment</text>
</g>
<!-- Node12&#45;&gt;Node9 -->
<g id="edge13" class="edge"><title>Node12&#45;&gt;Node9</title>
<path fill="none" stroke="#9a32cd" stroke-dasharray="5,2" d="M490.166,-213.46C609.907,-222.621 830.53,-240.874 1018,-264 1078.7,-271.488 1098.09,-260.199 1154,-285 1162.43,-288.738 1206.9,-326.436 1227.94,-344.477"/>
<polygon fill="#9a32cd" stroke="#9a32cd" points="490.194,-209.952 479.957,-212.682 489.662,-216.932 490.194,-209.952"/>
<text text-anchor="middle" x="781" y="-246" font-family="Helvetica,sans-Serif" font-size="10.00"> myEnvironment</text>
</g>
<!-- Node12&#45;&gt;Node18 -->
<g id="edge22" class="edge"><title>Node12&#45;&gt;Node18</title>
<path fill="none" stroke="#9a32cd" stroke-dasharray="5,2" d="M434.345,-193.663C504.781,-166.111 677.633,-106.558 826,-120 847.57,-121.954 871.351,-126.144 890.722,-130.093"/>
<polygon fill="#9a32cd" stroke="#9a32cd" points="432.717,-190.544 424.711,-197.484 435.297,-197.051 432.717,-190.544"/>
<text text-anchor="middle" x="657" y="-145" font-family="Helvetica,sans-Serif" font-size="10.00"> myExecutionParameters</text>
</g>
<!-- Node13 -->
<g id="node13" class="node"><title>Node13</title>
<polygon fill="white" stroke="#bfbfbf" points="51.5,-257.5 51.5,-276.5 122.5,-276.5 122.5,-257.5 51.5,-257.5"/>
<text text-anchor="middle" x="87" y="-264.5" font-family="Helvetica,sans-Serif" font-size="10.00">Observable</text>
</g>
<!-- Node13&#45;&gt;Node12 -->
<g id="edge14" class="edge"><title>Node13&#45;&gt;Node12</title>
<path fill="none" stroke="midnightblue" d="M132.717,-267.151C176.879,-266.351 246.026,-262.537 304,-248 332.478,-240.859 363.357,-226.337 382.194,-216.636"/>
<polygon fill="midnightblue" stroke="midnightblue" points="132.548,-263.652 122.596,-267.289 132.643,-270.652 132.548,-263.652"/>
</g>
<!-- Node14 -->
<g id="node14" class="node"><title>Node14</title>
<polygon fill="white" stroke="#bfbfbf" points="42.5,-219.5 42.5,-238.5 131.5,-238.5 131.5,-219.5 42.5,-219.5"/>
<text text-anchor="middle" x="87" y="-226.5" font-family="Helvetica,sans-Serif" font-size="10.00">Set&lt; Integer &gt;</text>
</g>
<!-- Node14&#45;&gt;Node12 -->
<g id="edge15" class="edge"><title>Node14&#45;&gt;Node12</title>
<path fill="none" stroke="#9a32cd" stroke-dasharray="5,2" d="M141.939,-225.197C191.701,-221.688 266.155,-216.438 322.32,-212.477"/>
<polygon fill="#9a32cd" stroke="#9a32cd" points="141.44,-221.723 131.711,-225.918 141.932,-228.706 141.44,-221.723"/>
<text text-anchor="middle" x="248" y="-236" font-family="Helvetica,sans-Serif" font-size="10.00"> myTurtleList</text>
<text text-anchor="middle" x="248" y="-225" font-family="Helvetica,sans-Serif" font-size="10.00">activeTurtleList</text>
</g>
<!-- Node15 -->
<g id="node15" class="node"><title>Node15</title>
<polygon fill="white" stroke="#bfbfbf" points="0,-170 0,-200 174,-200 174,-170 0,-170"/>
<text text-anchor="start" x="8" y="-188" font-family="Helvetica,sans-Serif" font-size="10.00">Map&lt; String, model.instructions.</text>
<text text-anchor="middle" x="87" y="-177" font-family="Helvetica,sans-Serif" font-size="10.00">Instruction &gt;</text>
</g>
<!-- Node15&#45;&gt;Node12 -->
<g id="edge16" class="edge"><title>Node15&#45;&gt;Node12</title>
<path fill="none" stroke="#9a32cd" stroke-dasharray="5,2" d="M184.559,-191.634C221.877,-194.217 264.929,-197.219 304,-200 310.001,-200.427 316.212,-200.873 322.456,-201.323"/>
<polygon fill="#9a32cd" stroke="#9a32cd" points="184.411,-188.115 174.193,-190.917 183.928,-195.099 184.411,-188.115"/>
<text text-anchor="middle" x="248" y="-203" font-family="Helvetica,sans-Serif" font-size="10.00"> myUserInstructionMap</text>
</g>
<!-- Node16 -->
<g id="node16" class="node"><title>Node16</title>
<polygon fill="white" stroke="#bfbfbf" points="23,-131.5 23,-150.5 151,-150.5 151,-131.5 23,-131.5"/>
<text text-anchor="middle" x="87" y="-138.5" font-family="Helvetica,sans-Serif" font-size="10.00">Map&lt; String, Double &gt;</text>
</g>
<!-- Node16&#45;&gt;Node12 -->
<g id="edge17" class="edge"><title>Node16&#45;&gt;Node12</title>
<path fill="none" stroke="#9a32cd" stroke-dasharray="5,2" d="M161.414,-151.267C203.421,-157.717 256.961,-166.911 304,-178 327.047,-183.433 352.7,-191.278 371.686,-197.439"/>
<polygon fill="#9a32cd" stroke="#9a32cd" points="161.68,-147.768 151.268,-149.729 160.63,-154.689 161.68,-147.768"/>
<text text-anchor="middle" x="248" y="-181" font-family="Helvetica,sans-Serif" font-size="10.00"> myVariableMap</text>
</g>
<!-- Node17 -->
<g id="node17" class="node"><title>Node17</title>
<polygon fill="white" stroke="#bfbfbf" points="857,-396.5 857,-415.5 1005,-415.5 1005,-396.5 857,-396.5"/>
<text text-anchor="middle" x="931" y="-403.5" font-family="Helvetica,sans-Serif" font-size="10.00">TableView&lt; view.Property &gt;</text>
</g>
<!-- Node17&#45;&gt;Node9 -->
<g id="edge18" class="edge"><title>Node17&#45;&gt;Node9</title>
<path fill="none" stroke="#9a32cd" stroke-dasharray="5,2" d="M1015.29,-397.803C1057.13,-393.007 1108.49,-386.088 1154,-377 1171.99,-373.408 1191.79,-368.13 1207.75,-363.535"/>
<polygon fill="#9a32cd" stroke="#9a32cd" points="1014.69,-394.349 1005.14,-398.947 1015.47,-401.305 1014.69,-394.349"/>
<text text-anchor="middle" x="1095" y="-409" font-family="Helvetica,sans-Serif" font-size="10.00"> myTurtlePropertiesTable</text>
<text text-anchor="middle" x="1095" y="-398" font-family="Helvetica,sans-Serif" font-size="10.00">myVariablesTable</text>
</g>
<!-- Node18&#45;&gt;Node1 -->
<g id="edge44" class="edge"><title>Node18&#45;&gt;Node1</title>
<path fill="none" stroke="#9a32cd" stroke-dasharray="5,2" d="M880.797,-145.583C827.213,-153.111 747.552,-165.49 736,-174 686.608,-210.383 665.875,-287.337 659.927,-314.368"/>
<polygon fill="#9a32cd" stroke="#9a32cd" points="881.385,-149.035 890.807,-144.19 880.42,-142.102 881.385,-149.035"/>
<text text-anchor="middle" x="781" y="-177" font-family="Helvetica,sans-Serif" font-size="10.00"> myParser</text>
</g>
<!-- Node18&#45;&gt;Node9 -->
<g id="edge19" class="edge"><title>Node18&#45;&gt;Node9</title>
<path fill="none" stroke="#9a32cd" stroke-dasharray="5,2" d="M957.407,-153.487C978.005,-164.667 1008.09,-179.742 1036,-189 1086.71,-205.824 1115.91,-174.525 1154,-212 1181.53,-239.084 1152.24,-263.825 1172,-297 1184.35,-317.73 1206.98,-334.584 1222.49,-344.45"/>
<polygon fill="#9a32cd" stroke="#9a32cd" points="958.827,-150.273 948.381,-148.506 955.445,-156.402 958.827,-150.273"/>
<text text-anchor="middle" x="1095" y="-215" font-family="Helvetica,sans-Serif" font-size="10.00"> myParser</text>
</g>
<!-- Node18&#45;&gt;Node28 -->
<g id="edge39" class="edge"><title>Node18&#45;&gt;Node28</title>
<path fill="none" stroke="#9a32cd" stroke-dasharray="5,2" d="M974.23,-126.886C1044.16,-108.574 1188.19,-78.2699 1308,-101 1352.11,-109.369 1363.19,-115.426 1402,-138 1422.08,-149.68 1442.51,-167.563 1454.18,-178.478"/>
<polygon fill="#9a32cd" stroke="#9a32cd" points="973.22,-123.533 964.461,-129.493 975.025,-130.296 973.22,-123.533"/>
<text text-anchor="middle" x="1240" y="-104" font-family="Helvetica,sans-Serif" font-size="10.00"> myParser</text>
</g>
<!-- Node19 -->
<g id="node19" class="node"><title>Node19</title>
<polygon fill="white" stroke="#bfbfbf" points="627,-465.5 627,-484.5 687,-484.5 687,-465.5 627,-465.5"/>
<text text-anchor="middle" x="657" y="-472.5" font-family="Helvetica,sans-Serif" font-size="10.00">Observer</text>
</g>
<!-- Node19&#45;&gt;Node18 -->
<g id="edge20" class="edge"><title>Node19&#45;&gt;Node18</title>
<path fill="none" stroke="midnightblue" d="M672.287,-457.352C721.694,-396.319 884.359,-195.38 922.121,-148.733"/>
<polygon fill="midnightblue" stroke="midnightblue" points="669.419,-455.332 665.847,-465.307 674.859,-459.736 669.419,-455.332"/>
</g>
<!-- Node19&#45;&gt;Node21 -->
<g id="edge24" class="edge"><title>Node19&#45;&gt;Node21</title>
<path fill="none" stroke="midnightblue" d="M681.494,-490.191C723.285,-517.694 807.867,-575.691 826,-606 850.308,-646.631 809.019,-679.092 844,-711 855.766,-721.732 1221.63,-748 1363,-748 1363,-748 1363,-748 1654,-748 1759.64,-748 1812.51,-587.892 1824.38,-546.615"/>
<polygon fill="midnightblue" stroke="midnightblue" points="683.313,-487.199 673.029,-484.652 679.48,-493.056 683.313,-487.199"/>
</g>
<!-- Node20 -->
<g id="node20" class="node"><title>Node20</title>
<polygon fill="white" stroke="#bfbfbf" points="601,-39 601,-69 713,-69 713,-39 601,-39"/>
<text text-anchor="start" x="609" y="-57" font-family="Helvetica,sans-Serif" font-size="10.00">List&lt; Entry&lt; String,</text>
<text text-anchor="middle" x="657" y="-46" font-family="Helvetica,sans-Serif" font-size="10.00"> Pattern &gt; &gt;</text>
</g>
<!-- Node20&#45;&gt;Node18 -->
<g id="edge21" class="edge"><title>Node20&#45;&gt;Node18</title>
<path fill="none" stroke="#9a32cd" stroke-dasharray="5,2" d="M723.312,-59.1394C754.96,-62.9693 793.137,-69.5949 826,-81 860.765,-93.065 897.465,-116.393 916.601,-129.488"/>
<polygon fill="#9a32cd" stroke="#9a32cd" points="723.614,-55.6512 713.281,-57.9917 722.818,-62.6058 723.614,-55.6512"/>
<text text-anchor="middle" x="781" y="-84" font-family="Helvetica,sans-Serif" font-size="10.00"> myPatterns</text>
</g>
<!-- Node21&#45;&gt;Node18 -->
<g id="edge23" class="edge"><title>Node21&#45;&gt;Node18</title>
<path fill="none" stroke="#9a32cd" stroke-dasharray="5,2" d="M1823.5,-517.336C1811.66,-457.711 1767.28,-283 1654,-283 1363,-283 1363,-283 1363,-283 1274.41,-283 1240.49,-282.182 1172,-226 1158.78,-215.157 1167.52,-202.471 1154,-192 1100.28,-150.382 1018.9,-140.739 971.035,-138.908"/>
<polygon fill="#9a32cd" stroke="#9a32cd" points="1820.1,-518.178 1825.4,-527.353 1826.98,-516.877 1820.1,-518.178"/>
<text text-anchor="middle" x="1465" y="-286" font-family="Helvetica,sans-Serif" font-size="10.00"> myViewUpdater</text>
</g>
<!-- Node22&#45;&gt;Node1 -->
<g id="edge46" class="edge"><title>Node22&#45;&gt;Node1</title>
<path fill="none" stroke="#9a32cd" stroke-dasharray="5,2" d="M1606.07,-623.818C1452.56,-662.116 960.501,-774.871 844,-678 810.285,-649.966 842.314,-621.699 826,-581 823.205,-574.027 694.981,-379.929 664.467,-333.778"/>
<polygon fill="#9a32cd" stroke="#9a32cd" points="1607.25,-627.128 1616.1,-621.3 1605.55,-620.339 1607.25,-627.128"/>
<text text-anchor="middle" x="1240" y="-709" font-family="Helvetica,sans-Serif" font-size="10.00"> drawer</text>
</g>
<!-- Node22&#45;&gt;Node21 -->
<g id="edge26" class="edge"><title>Node22&#45;&gt;Node21</title>
<path fill="none" stroke="#9a32cd" stroke-dasharray="5,2" d="M1685.88,-598.181C1720.42,-583.206 1774.63,-559.702 1804.82,-546.614"/>
<polygon fill="#9a32cd" stroke="#9a32cd" points="1684.05,-595.16 1676.26,-602.349 1686.83,-601.582 1684.05,-595.16"/>
<text text-anchor="middle" x="1734" y="-591" font-family="Helvetica,sans-Serif" font-size="10.00"> myDrawer</text>
</g>
<!-- Node23 -->
<g id="node23" class="node"><title>Node23</title>
<polygon fill="white" stroke="#bfbfbf" points="1444.5,-700.5 1444.5,-719.5 1485.5,-719.5 1485.5,-700.5 1444.5,-700.5"/>
<text text-anchor="middle" x="1465" y="-707.5" font-family="Helvetica,sans-Serif" font-size="10.00">Color</text>
</g>
<!-- Node23&#45;&gt;Node22 -->
<g id="edge28" class="edge"><title>Node23&#45;&gt;Node22</title>
<path fill="none" stroke="#9a32cd" stroke-dasharray="5,2" d="M1495.6,-710.736C1523.94,-710.103 1566.85,-705.532 1598,-686 1623.33,-670.114 1640.58,-637.652 1647.96,-621.527"/>
<polygon fill="#9a32cd" stroke="#9a32cd" points="1495.49,-707.236 1485.51,-710.808 1495.54,-714.236 1495.49,-707.236"/>
<text text-anchor="middle" x="1563" y="-711" font-family="Helvetica,sans-Serif" font-size="10.00"> myColor</text>
</g>
<!-- Node24 -->
<g id="node24" class="node"><title>Node24</title>
<polygon fill="white" stroke="#bfbfbf" points="596,-0.5 596,-19.5 718,-19.5 718,-0.5 596,-0.5"/>
<text text-anchor="middle" x="657" y="-7.5" font-family="Helvetica,sans-Serif" font-size="10.00">Map&lt; String, String &gt;</text>
</g>
<!-- Node24&#45;&gt;Node18 -->
<g id="edge30" class="edge"><title>Node24&#45;&gt;Node18</title>
<path fill="none" stroke="#9a32cd" stroke-dasharray="5,2" d="M727.998,-16.7569C759.253,-21.8116 795.769,-30.6301 826,-46 868.103,-67.4059 906.407,-110.161 922.271,-129.322"/>
<polygon fill="#9a32cd" stroke="#9a32cd" points="728.463,-13.2874 718.05,-15.2445 727.41,-20.2078 728.463,-13.2874"/>
<text text-anchor="middle" x="781" y="-49" font-family="Helvetica,sans-Serif" font-size="10.00"> myCommandMap</text>
</g>
<!-- Node25 -->
<g id="node25" class="node"><title>Node25</title>
<polygon fill="white" stroke="#bfbfbf" points="862,-358.5 862,-377.5 1000,-377.5 1000,-358.5 862,-358.5"/>
<text text-anchor="middle" x="931" y="-365.5" font-family="Helvetica,sans-Serif" font-size="10.00">ObservableList&lt; String &gt;</text>
</g>
<!-- Node25&#45;&gt;Node9 -->
<g id="edge32" class="edge"><title>Node25&#45;&gt;Node9</title>
<path fill="none" stroke="#9a32cd" stroke-dasharray="5,2" d="M1008.46,-357.388C1017.72,-356.415 1027.07,-355.578 1036,-355 1093.5,-351.278 1160.36,-351.902 1201.17,-352.839"/>
<polygon fill="#9a32cd" stroke="#9a32cd" points="1008.02,-353.916 998.464,-358.493 1008.79,-360.873 1008.02,-353.916"/>
<text text-anchor="middle" x="1095" y="-369" font-family="Helvetica,sans-Serif" font-size="10.00"> myCommandItems</text>
<text text-anchor="middle" x="1095" y="-358" font-family="Helvetica,sans-Serif" font-size="10.00">myHistoryItems</text>
</g>
<!-- Node26 -->
<g id="node26" class="node"><title>Node26</title>
<polygon fill="white" stroke="#bfbfbf" points="1208.5,-527.5 1208.5,-546.5 1271.5,-546.5 1271.5,-527.5 1208.5,-527.5"/>
<text text-anchor="middle" x="1240" y="-534.5" font-family="Helvetica,sans-Serif" font-size="10.00">Rectangle</text>
</g>
<!-- Node26&#45;&gt;Node2 -->
<g id="edge33" class="edge"><title>Node26&#45;&gt;Node2</title>
<path fill="none" stroke="#9a32cd" stroke-dasharray="5,2" d="M1281.99,-537C1321,-537 1379.53,-537 1419.62,-537"/>
<polygon fill="#9a32cd" stroke="#9a32cd" points="1281.54,-533.5 1271.54,-537 1281.54,-540.5 1281.54,-533.5"/>
<text text-anchor="middle" x="1364" y="-540" font-family="Helvetica,sans-Serif" font-size="10.00"> myBackground</text>
</g>
<!-- Node27 -->
<g id="node27" class="node"><title>Node27</title>
<polygon fill="white" stroke="#bfbfbf" points="378.5,-352.5 378.5,-371.5 423.5,-371.5 423.5,-352.5 378.5,-352.5"/>
<text text-anchor="middle" x="401" y="-359.5" font-family="Helvetica,sans-Serif" font-size="10.00">Stage</text>
</g>
<!-- Node27&#45;&gt;Node1 -->
<g id="edge34" class="edge"><title>Node27&#45;&gt;Node1</title>
<path fill="none" stroke="#9a32cd" stroke-dasharray="5,2" d="M433.919,-358.413C469.244,-354.307 527.823,-347.096 578,-339 588.755,-337.265 600.3,-335.172 611.123,-333.108"/>
<polygon fill="#9a32cd" stroke="#9a32cd" points="433.271,-354.964 423.737,-359.585 434.072,-361.918 433.271,-354.964"/>
<text text-anchor="middle" x="538" y="-354" font-family="Helvetica,sans-Serif" font-size="10.00"> myStage</text>
</g>
<!-- Node28&#45;&gt;Node1 -->
<g id="edge36" class="edge"><title>Node28&#45;&gt;Node1</title>
<path fill="none" stroke="#9a32cd" stroke-dasharray="5,2" d="M1431.91,-201.273C1422.4,-204.83 1411.89,-208.404 1402,-211 1361.08,-221.743 1350,-220.936 1308,-226 1102.57,-250.765 1046.92,-223.526 844,-264 784.105,-275.947 716.482,-300.756 681.609,-314.434"/>
<polygon fill="#9a32cd" stroke="#9a32cd" points="1433.31,-204.483 1441.38,-197.615 1430.79,-197.953 1433.31,-204.483"/>
<text text-anchor="middle" x="1095" y="-244" font-family="Helvetica,sans-Serif" font-size="10.00"> myEditor</text>
</g>
<!-- Node29 -->
<g id="node29" class="node"><title>Node29</title>
<polygon fill="white" stroke="#bfbfbf" points="1219,-197.5 1219,-216.5 1261,-216.5 1261,-197.5 1219,-197.5"/>
<text text-anchor="middle" x="1240" y="-204.5" font-family="Helvetica,sans-Serif" font-size="10.00">HBox</text>
</g>
<!-- Node29&#45;&gt;Node28 -->
<g id="edge37" class="edge"><title>Node29&#45;&gt;Node28</title>
<path fill="none" stroke="midnightblue" d="M1271.3,-204.419C1313.09,-200.858 1388.12,-194.465 1431.19,-190.795"/>
<polygon fill="midnightblue" stroke="midnightblue" points="1270.85,-200.944 1261.18,-205.28 1271.44,-207.919 1270.85,-200.944"/>
</g>
<!-- Node30 -->
<g id="node30" class="node"><title>Node30</title>
<polygon fill="white" stroke="#bfbfbf" points="1215.5,-159.5 1215.5,-178.5 1264.5,-178.5 1264.5,-159.5 1215.5,-159.5"/>
<text text-anchor="middle" x="1240" y="-166.5" font-family="Helvetica,sans-Serif" font-size="10.00">Button</text>
</g>
<!-- Node30&#45;&gt;Node28 -->
<g id="edge38" class="edge"><title>Node30&#45;&gt;Node28</title>
<path fill="none" stroke="#9a32cd" stroke-dasharray="5,2" d="M1274.85,-170.294C1307.47,-171.731 1358.2,-174.469 1402,-179 1411.52,-179.985 1421.82,-181.356 1431.24,-182.732"/>
<polygon fill="#9a32cd" stroke="#9a32cd" points="1274.65,-166.782 1264.51,-169.855 1274.36,-173.776 1274.65,-166.782"/>
<text text-anchor="middle" x="1364" y="-182" font-family="Helvetica,sans-Serif" font-size="10.00"> runButton</text>
</g>
<!-- Node31 -->
<g id="node31" class="node"><title>Node31</title>
<polygon fill="white" stroke="#bfbfbf" points="1211,-121.5 1211,-140.5 1269,-140.5 1269,-121.5 1211,-121.5"/>
<text text-anchor="middle" x="1240" y="-128.5" font-family="Helvetica,sans-Serif" font-size="10.00">TextArea</text>
</g>
<!-- Node31&#45;&gt;Node28 -->
<g id="edge40" class="edge"><title>Node31&#45;&gt;Node28</title>
<path fill="none" stroke="#9a32cd" stroke-dasharray="5,2" d="M1279.32,-134.767C1312.37,-138.696 1361.1,-146.129 1402,-159 1417.76,-163.958 1434.68,-172.081 1446.86,-178.471"/>
<polygon fill="#9a32cd" stroke="#9a32cd" points="1279.5,-131.265 1269.17,-133.611 1278.71,-138.22 1279.5,-131.265"/>
<text text-anchor="middle" x="1364" y="-162" font-family="Helvetica,sans-Serif" font-size="10.00"> textEditor</text>
</g>
<!-- Node32 -->
<g id="node32" class="node"><title>Node32</title>
<polygon fill="white" stroke="#bfbfbf" points="341.5,-314.5 341.5,-333.5 460.5,-333.5 460.5,-314.5 341.5,-314.5"/>
<text text-anchor="middle" x="401" y="-321.5" font-family="Helvetica,sans-Serif" font-size="10.00">Map&lt; String, Node &gt;</text>
</g>
<!-- Node32&#45;&gt;Node1 -->
<g id="edge42" class="edge"><title>Node32&#45;&gt;Node1</title>
<path fill="none" stroke="#9a32cd" stroke-dasharray="5,2" d="M470.785,-324C515.419,-324 572.295,-324 611.171,-324"/>
<polygon fill="#9a32cd" stroke="#9a32cd" points="470.592,-320.5 460.592,-324 470.592,-327.5 470.592,-320.5"/>
<text text-anchor="middle" x="538" y="-327" font-family="Helvetica,sans-Serif" font-size="10.00"> variables</text>
</g>
<!-- Node33 -->
<g id="node33" class="node"><title>Node33</title>
<polygon fill="white" stroke="#bfbfbf" points="360.5,-276.5 360.5,-295.5 441.5,-295.5 441.5,-276.5 360.5,-276.5"/>
<text text-anchor="middle" x="401" y="-283.5" font-family="Helvetica,sans-Serif" font-size="10.00">Dimension2D</text>
</g>
<!-- Node33&#45;&gt;Node1 -->
<g id="edge45" class="edge"><title>Node33&#45;&gt;Node1</title>
<path fill="none" stroke="#9a32cd" stroke-dasharray="5,2" d="M451.647,-291.681C486.968,-295.92 535.498,-302.142 578,-309 588.755,-310.735 600.3,-312.828 611.123,-314.892"/>
<polygon fill="#9a32cd" stroke="#9a32cd" points="451.936,-288.191 441.592,-290.485 451.109,-295.142 451.936,-288.191"/>
<text text-anchor="middle" x="538" y="-312" font-family="Helvetica,sans-Serif" font-size="10.00"> myDimensions</text>
</g>
</g>
</svg>
