<?xml version="1.0" encoding="UTF-8" standalone="no"?>
<!DOCTYPE svg PUBLIC "-//W3C//DTD SVG 1.1//EN"
 "http://www.w3.org/Graphics/SVG/1.1/DTD/svg11.dtd">
<!-- Generated by graphviz version 2.36.0 (20140111.2315)
 -->
<!-- Title: view.SLogoView Pages: 1 -->
<!--zoomable 828 -->
<svg id="main" version="1.1" xmlns="http://www.w3.org/2000/svg" xmlns:xlink="http://www.w3.org/1999/xlink" xml:space="preserve" onload="init(evt)">
<style type="text/css"><![CDATA[
.edge:hover path { stroke: red; }
.edge:hover polygon { stroke: red; fill: red; }
]]></style>
<script type="text/javascript"><![CDATA[
var edges = document.getElementsByTagName('g');
if (edges && edges.length) {
  for (var i=0;i<edges.length;i++) {
    if (edges[i].id.substr(0,4)=='edge') {
      edges[i].setAttribute('class','edge');
    }
  }
}
]]></script>
        <defs>
                <circle id="rim" cx="0" cy="0" r="7"/>
                <circle id="rim2" cx="0" cy="0" r="3.5"/>
                <g id="zoomPlus">
                        <use xlink:href="#rim" fill="#404040">
                                <set attributeName="fill" to="#808080" begin="zoomplus.mouseover" end="zoomplus.mouseout"/>
                        </use>
                        <path d="M-4,0h8M0,-4v8" fill="none" stroke="white" stroke-width="1.5" pointer-events="none"/>
                </g>
                <g id="zoomMin">
                        <use xlink:href="#rim" fill="#404040">
                                <set attributeName="fill" to="#808080" begin="zoomminus.mouseover" end="zoomminus.mouseout"/>
                        </use>
                        <path d="M-4,0h8" fill="none" stroke="white" stroke-width="1.5" pointer-events="none"/>
                </g>
                <g id="dirArrow">
                        <path fill="none" stroke="white" stroke-width="1.5" d="M0,-3.0v7 M-2.5,-0.5L0,-3.0L2.5,-0.5"/>
                </g>
               <g id="resetDef">
                       <use xlink:href="#rim2" fill="#404040">
                               <set attributeName="fill" to="#808080" begin="reset.mouseover" end="reset.mouseout"/>
                       </use>
               </g>
        </defs>

<script type="text/javascript">
var viewWidth = 1928;
var viewHeight = 828;
var sectionId = 'dynsection-0';
</script>
<script xlink:href="../../svgpan.js"/>
<svg id="graph" class="graph">
<g id="viewport">
<title>view.SLogoView</title>
<polygon fill="white" stroke="none" points="-4,4 -4,-824 1924,-824 1924,4 -4,4"/>
<!-- Node1 -->
<g id="node1" class="node"><title>Node1</title>
<polygon fill="#bfbfbf" stroke="black" points="637.5,-269.5 637.5,-288.5 728.5,-288.5 728.5,-269.5 637.5,-269.5"/>
<text text-anchor="middle" x="683" y="-276.5" font-family="Helvetica,sans-Serif" font-size="10.00">view.SLogoView</text>
</g>
<!-- Node24 -->
<g id="node24" class="node"><title>Node24</title>
<g id="a_node24"><a xlink:href="../../dc/df5/classmodel_1_1_parser.html" target="_top" xlink:title="model.Parser">
<polygon fill="white" stroke="black" points="953,-123.5 953,-142.5 1033,-142.5 1033,-123.5 953,-123.5"/>
<text text-anchor="middle" x="993" y="-130.5" font-family="Helvetica,sans-Serif" font-size="10.00">model.Parser</text>
</a>
</g>
</g>
<!-- Node1&#45;&gt;Node24 -->
<g id="edge41" class="edge"><title>Node1&#45;&gt;Node24</title>
<path fill="none" stroke="#9a32cd" stroke-dasharray="5,2" d="M701.089,-262.514C720.527,-244.736 754,-216.977 788,-202 836.898,-180.461 855.66,-196.911 906,-179 932.481,-169.578 960.78,-153.033 977.405,-142.565"/>
<polygon fill="#9a32cd" stroke="#9a32cd" points="698.576,-260.072 693.657,-269.455 703.355,-265.187 698.576,-260.072"/>
<text text-anchor="middle" x="847" y="-205" font-family="Helvetica,sans-Serif" font-size="10.00"> mySLogoView</text>
</g>
<!-- Node2 -->
<g id="node2" class="node"><title>Node2</title>
<g id="a_node2"><a xlink:href="../../da/d64/classview_1_1_workspace.html" target="_top" xlink:title="view.Workspace">
<polygon fill="white" stroke="black" points="1462,-568.5 1462,-587.5 1552,-587.5 1552,-568.5 1462,-568.5"/>
<text text-anchor="middle" x="1507" y="-575.5" font-family="Helvetica,sans-Serif" font-size="10.00">view.Workspace</text>
</a>
</g>
</g>
<!-- Node2&#45;&gt;Node1 -->
<g id="edge1" class="edge"><title>Node2&#45;&gt;Node1</title>
<path fill="none" stroke="#9a32cd" stroke-dasharray="5,2" d="M1503.32,-558.479C1496.21,-509.742 1475.24,-384.786 1444,-359 1387.58,-312.433 860.266,-314.364 788,-303 765.119,-299.402 739.787,-293.595 719.853,-288.595"/>
<polygon fill="#9a32cd" stroke="#9a32cd" points="1499.86,-558.988 1504.73,-568.397 1506.79,-558.005 1499.86,-558.988"/>
<text text-anchor="middle" x="1138" y="-325" font-family="Helvetica,sans-Serif" font-size="10.00"> myWorkspace</text>
</g>
<!-- Node27 -->
<g id="node27" class="node"><title>Node27</title>
<g id="a_node27"><a xlink:href="../../d4/d64/classview_1_1_view_updater.html" target="_top" xlink:title="view.ViewUpdater">
<polygon fill="white" stroke="black" points="1820,-538.5 1820,-557.5 1920,-557.5 1920,-538.5 1820,-538.5"/>
<text text-anchor="middle" x="1870" y="-545.5" font-family="Helvetica,sans-Serif" font-size="10.00">view.ViewUpdater</text>
</a>
</g>
</g>
<!-- Node2&#45;&gt;Node27 -->
<g id="edge35" class="edge"><title>Node2&#45;&gt;Node27</title>
<path fill="none" stroke="#9a32cd" stroke-dasharray="5,2" d="M1548.68,-590.054C1555.73,-591.694 1563.04,-593.116 1570,-594 1670.04,-606.7 1788.21,-574.475 1841.04,-557.569"/>
<polygon fill="#9a32cd" stroke="#9a32cd" points="1549.16,-586.564 1538.61,-587.532 1547.46,-593.355 1549.16,-586.564"/>
<text text-anchor="middle" x="1695" y="-599" font-family="Helvetica,sans-Serif" font-size="10.00"> myWorkspace</text>
</g>
<!-- Node28 -->
<g id="node28" class="node"><title>Node28</title>
<g id="a_node28"><a xlink:href="../../de/d0a/classview_1_1_drawer.html" target="_top" xlink:title="view.Drawer">
<polygon fill="white" stroke="black" points="1658.5,-538.5 1658.5,-557.5 1731.5,-557.5 1731.5,-538.5 1658.5,-538.5"/>
<text text-anchor="middle" x="1695" y="-545.5" font-family="Helvetica,sans-Serif" font-size="10.00">view.Drawer</text>
</a>
</g>
</g>
<!-- Node2&#45;&gt;Node28 -->
<g id="edge37" class="edge"><title>Node2&#45;&gt;Node28</title>
<path fill="none" stroke="#9a32cd" stroke-dasharray="5,2" d="M1532.65,-563.491C1543.68,-557.793 1557.09,-551.924 1570,-549 1599.19,-542.388 1633.23,-542.662 1658.26,-544.293"/>
<polygon fill="#9a32cd" stroke="#9a32cd" points="1530.76,-560.533 1523.63,-568.376 1534.09,-566.687 1530.76,-560.533"/>
<text text-anchor="middle" x="1605" y="-552" font-family="Helvetica,sans-Serif" font-size="10.00"> myWorkspace</text>
</g>
<!-- Node3 -->
<g id="node3" class="node"><title>Node3</title>
<polygon fill="white" stroke="#bfbfbf" points="1248.5,-778.5 1248.5,-797.5 1315.5,-797.5 1315.5,-778.5 1248.5,-778.5"/>
<text text-anchor="middle" x="1282" y="-785.5" font-family="Helvetica,sans-Serif" font-size="10.00">StackPane</text>
</g>
<!-- Node3&#45;&gt;Node2 -->
<g id="edge2" class="edge"><title>Node3&#45;&gt;Node2</title>
<path fill="none" stroke="midnightblue" d="M1325.97,-791.915C1362.84,-792.697 1414.55,-787.188 1444,-755 1491.71,-702.857 1419.89,-653.761 1462,-597 1464.88,-593.124 1468.71,-590.029 1472.91,-587.561"/>
<polygon fill="midnightblue" stroke="midnightblue" points="1325.65,-788.4 1315.52,-791.519 1325.38,-795.395 1325.65,-788.4"/>
</g>
<!-- Node4 -->
<g id="node4" class="node"><title>Node4</title>
<polygon fill="white" stroke="#bfbfbf" points="354.5,-363.5 354.5,-382.5 447.5,-382.5 447.5,-363.5 354.5,-363.5"/>
<text text-anchor="middle" x="401" y="-370.5" font-family="Helvetica,sans-Serif" font-size="10.00">ResourceBundle</text>
</g>
<!-- Node4&#45;&gt;Node1 -->
<g id="edge45" class="edge"><title>Node4&#45;&gt;Node1</title>
<path fill="none" stroke="#9a32cd" stroke-dasharray="5,2" d="M422.319,-357.458C441,-343.938 469.968,-324.857 498,-314 543.635,-296.325 599.207,-287.335 637.259,-282.928"/>
<polygon fill="#9a32cd" stroke="#9a32cd" points="420.227,-354.652 414.262,-363.409 424.386,-360.283 420.227,-354.652"/>
<text text-anchor="middle" x="538" y="-317" font-family="Helvetica,sans-Serif" font-size="10.00"> myResources</text>
</g>
<!-- Node4&#45;&gt;Node2 -->
<g id="edge3" class="edge"><title>Node4&#45;&gt;Node2</title>
<path fill="none" stroke="#9a32cd" stroke-dasharray="5,2" d="M457.74,-373C514.248,-373 604.203,-373 682,-373 682,-373 682,-373 1283,-373 1400.01,-373 1482.08,-527.858 1501.55,-568.387"/>
<polygon fill="#9a32cd" stroke="#9a32cd" points="457.588,-369.5 447.588,-373 457.588,-376.5 457.588,-369.5"/>
<text text-anchor="middle" x="993" y="-376" font-family="Helvetica,sans-Serif" font-size="10.00"> myResources</text>
</g>
<!-- Node9 -->
<g id="node9" class="node"><title>Node9</title>
<g id="a_node9"><a xlink:href="../../d1/dc7/classview_1_1_side_bar.html" target="_top" xlink:title="view.SideBar">
<polygon fill="white" stroke="black" points="1243.5,-544.5 1243.5,-563.5 1320.5,-563.5 1320.5,-544.5 1243.5,-544.5"/>
<text text-anchor="middle" x="1282" y="-551.5" font-family="Helvetica,sans-Serif" font-size="10.00">view.SideBar</text>
</a>
</g>
</g>
<!-- Node4&#45;&gt;Node9 -->
<g id="edge12" class="edge"><title>Node4&#45;&gt;Node9</title>
<path fill="none" stroke="#9a32cd" stroke-dasharray="5,2" d="M458.169,-381.27C471.24,-383.172 485.104,-385.173 498,-387 575.512,-397.982 1124.4,-451.344 1196,-483 1228.89,-497.539 1259.08,-528.722 1272.97,-544.475"/>
<polygon fill="#9a32cd" stroke="#9a32cd" points="458.291,-377.75 447.89,-379.77 457.28,-384.677 458.291,-377.75"/>
<text text-anchor="middle" x="847" y="-437" font-family="Helvetica,sans-Serif" font-size="10.00"> myResources</text>
</g>
<!-- Node5 -->
<g id="node5" class="node"><title>Node5</title>
<g id="a_node5"><a xlink:href="../../d8/df7/classview_1_1_turtle_view.html" target="_top" xlink:title="view.TurtleView">
<polygon fill="white" stroke="black" points="1239,-740.5 1239,-759.5 1325,-759.5 1325,-740.5 1239,-740.5"/>
<text text-anchor="middle" x="1282" y="-747.5" font-family="Helvetica,sans-Serif" font-size="10.00">view.TurtleView</text>
</a>
</g>
</g>
<!-- Node5&#45;&gt;Node2 -->
<g id="edge4" class="edge"><title>Node5&#45;&gt;Node2</title>
<path fill="none" stroke="#9a32cd" stroke-dasharray="5,2" d="M1335.5,-747.066C1376.6,-743.621 1429.22,-736.296 1444,-721 1482.7,-680.957 1428.14,-641.209 1462,-597 1464.93,-593.169 1468.8,-590.098 1473.02,-587.641"/>
<polygon fill="#9a32cd" stroke="#9a32cd" points="1335.02,-743.592 1325.32,-747.861 1335.57,-750.571 1335.02,-743.592"/>
<text text-anchor="middle" x="1406" y="-746" font-family="Helvetica,sans-Serif" font-size="10.00"> myActiveTurtle</text>
</g>
<!-- Node6 -->
<g id="node6" class="node"><title>Node6</title>
<polygon fill="white" stroke="#bfbfbf" points="959,-800.5 959,-819.5 1027,-819.5 1027,-800.5 959,-800.5"/>
<text text-anchor="middle" x="993" y="-807.5" font-family="Helvetica,sans-Serif" font-size="10.00">ImageView</text>
</g>
<!-- Node6&#45;&gt;Node5 -->
<g id="edge5" class="edge"><title>Node6&#45;&gt;Node5</title>
<path fill="none" stroke="midnightblue" d="M1037.11,-807.807C1078.74,-804.669 1143.08,-797.108 1196,-779 1204.66,-776.037 1205.54,-772.494 1214,-769 1222.72,-765.4 1232.34,-762.229 1241.51,-759.561"/>
<polygon fill="midnightblue" stroke="midnightblue" points="1036.77,-804.322 1027.03,-808.513 1037.26,-811.305 1036.77,-804.322"/>
</g>
<!-- Node7 -->
<g id="node7" class="node"><title>Node7</title>
<polygon fill="white" stroke="#bfbfbf" points="970,-762.5 970,-781.5 1016,-781.5 1016,-762.5 970,-762.5"/>
<text text-anchor="middle" x="993" y="-769.5" font-family="Helvetica,sans-Serif" font-size="10.00">Group</text>
</g>
<!-- Node7&#45;&gt;Node2 -->
<g id="edge8" class="edge"><title>Node7&#45;&gt;Node2</title>
<path fill="none" stroke="#9a32cd" stroke-dasharray="5,2" d="M1026.26,-765.631C1081.64,-754.585 1189.51,-732.521 1196,-727 1212.41,-713.045 1198.34,-696.788 1214,-682 1292.38,-607.996 1343.52,-644.046 1444,-605 1452.16,-601.829 1453.98,-600.513 1462,-597 1469.01,-593.928 1476.67,-590.61 1483.6,-587.62"/>
<polygon fill="#9a32cd" stroke="#9a32cd" points="1025.37,-762.239 1016.25,-767.622 1026.74,-769.105 1025.37,-762.239"/>
<text text-anchor="middle" x="1282" y="-685" font-family="Helvetica,sans-Serif" font-size="10.00"> myLines</text>
</g>
<!-- Node7&#45;&gt;Node5 -->
<g id="edge6" class="edge"><title>Node7&#45;&gt;Node5</title>
<path fill="none" stroke="#9a32cd" stroke-dasharray="5,2" d="M1026.04,-769.544C1078.08,-765.555 1180.95,-757.67 1238.85,-753.231"/>
<polygon fill="#9a32cd" stroke="#9a32cd" points="1025.75,-766.056 1016.04,-770.31 1026.28,-773.036 1025.75,-766.056"/>
<text text-anchor="middle" x="1138" y="-767" font-family="Helvetica,sans-Serif" font-size="10.00"> myStamps</text>
</g>
<!-- Node8 -->
<g id="node8" class="node"><title>Node8</title>
<polygon fill="white" stroke="#bfbfbf" points="1214,-583 1214,-613 1350,-613 1350,-583 1214,-583"/>
<text text-anchor="start" x="1222" y="-601" font-family="Helvetica,sans-Serif" font-size="10.00">Map&lt; Integer, view.Turtle</text>
<text text-anchor="middle" x="1282" y="-590" font-family="Helvetica,sans-Serif" font-size="10.00">View &gt;</text>
</g>
<!-- Node8&#45;&gt;Node2 -->
<g id="edge7" class="edge"><title>Node8&#45;&gt;Node2</title>
<path fill="none" stroke="#9a32cd" stroke-dasharray="5,2" d="M1360.56,-591.044C1394.44,-588.005 1432.95,-584.552 1461.82,-581.962"/>
<polygon fill="#9a32cd" stroke="#9a32cd" points="1359.86,-587.593 1350.21,-591.972 1360.48,-594.565 1359.86,-587.593"/>
<text text-anchor="middle" x="1406" y="-593" font-family="Helvetica,sans-Serif" font-size="10.00"> myTurtles</text>
</g>
<!-- Node9&#45;&gt;Node1 -->
<g id="edge57" class="edge"><title>Node9&#45;&gt;Node1</title>
<path fill="none" stroke="#9a32cd" stroke-dasharray="5,2" d="M1271.68,-535.364C1258.39,-510.817 1231.6,-468.174 1196,-446 1182.89,-437.831 938.885,-392.142 924,-388 862.389,-370.855 845.992,-367.96 788,-341 754.261,-325.315 717.46,-301.681 697.96,-288.588"/>
<polygon fill="#9a32cd" stroke="#9a32cd" points="1268.66,-537.139 1276.39,-544.379 1274.86,-533.895 1268.66,-537.139"/>
<text text-anchor="middle" x="993" y="-419" font-family="Helvetica,sans-Serif" font-size="10.00"> mySidebar</text>
</g>
<!-- Node9&#45;&gt;Node2 -->
<g id="edge9" class="edge"><title>Node9&#45;&gt;Node2</title>
<path fill="none" stroke="#9a32cd" stroke-dasharray="5,2" d="M1330.79,-557.807C1362.86,-560.519 1406.02,-564.477 1444,-569 1449.72,-569.682 1455.74,-570.467 1461.67,-571.283"/>
<polygon fill="#9a32cd" stroke="#9a32cd" points="1331.05,-554.316 1320.79,-556.971 1330.47,-561.292 1331.05,-554.316"/>
<text text-anchor="middle" x="1406" y="-572" font-family="Helvetica,sans-Serif" font-size="10.00"> mySidebar</text>
</g>
<!-- Node9&#45;&gt;Node27 -->
<g id="edge39" class="edge"><title>Node9&#45;&gt;Node27</title>
<path fill="none" stroke="#9a32cd" stroke-dasharray="5,2" d="M1330.45,-559.728C1337.93,-562.633 1344.88,-566.866 1350,-573 1376.47,-604.705 1337.41,-730.243 1368,-758 1393.01,-780.699 1411.03,-765.351 1444,-758 1619.52,-718.865 1805.03,-593.552 1855.61,-557.679"/>
<polygon fill="#9a32cd" stroke="#9a32cd" points="1331.37,-556.348 1320.78,-556.716 1329.29,-563.032 1331.37,-556.348"/>
<text text-anchor="middle" x="1605" y="-720" font-family="Helvetica,sans-Serif" font-size="10.00"> mySidebar</text>
</g>
<!-- Node34 -->
<g id="node34" class="node"><title>Node34</title>
<g id="a_node34"><a xlink:href="../../da/dc8/classview_1_1_editor.html" target="_top" xlink:title="view.Editor">
<polygon fill="white" stroke="black" points="1473.5,-183.5 1473.5,-202.5 1540.5,-202.5 1540.5,-183.5 1473.5,-183.5"/>
<text text-anchor="middle" x="1507" y="-190.5" font-family="Helvetica,sans-Serif" font-size="10.00">view.Editor</text>
</a>
</g>
</g>
<!-- Node9&#45;&gt;Node34 -->
<g id="edge51" class="edge"><title>Node9&#45;&gt;Node34</title>
<path fill="none" stroke="#9a32cd" stroke-dasharray="5,2" d="M1294.41,-535.534C1334.8,-470.146 1470.21,-250.935 1500.12,-202.518"/>
<polygon fill="#9a32cd" stroke="#9a32cd" points="1291.24,-533.997 1288.96,-544.344 1297.2,-537.676 1291.24,-533.997"/>
<text text-anchor="middle" x="1406" y="-409" font-family="Helvetica,sans-Serif" font-size="10.00"> mySidebar</text>
</g>
<!-- Node10 -->
<g id="node10" class="node"><title>Node10</title>
<polygon fill="white" stroke="#bfbfbf" points="972.5,-601.5 972.5,-620.5 1013.5,-620.5 1013.5,-601.5 972.5,-601.5"/>
<text text-anchor="middle" x="993" y="-608.5" font-family="Helvetica,sans-Serif" font-size="10.00">VBox</text>
</g>
<!-- Node10&#45;&gt;Node9 -->
<g id="edge10" class="edge"><title>Node10&#45;&gt;Node9</title>
<path fill="none" stroke="midnightblue" d="M1023.81,-609.703C1063.81,-607.295 1136.68,-600.551 1196,-582 1204.54,-579.33 1205.66,-576.234 1214,-573 1223.36,-569.371 1233.69,-566.098 1243.38,-563.332"/>
<polygon fill="midnightblue" stroke="midnightblue" points="1023.47,-606.217 1013.68,-610.262 1023.85,-613.206 1023.47,-606.217"/>
</g>
<!-- Node11 -->
<g id="node11" class="node"><title>Node11</title>
<polygon fill="white" stroke="#bfbfbf" points="596.5,-596.5 596.5,-615.5 769.5,-615.5 769.5,-596.5 596.5,-596.5"/>
<text text-anchor="middle" x="683" y="-603.5" font-family="Helvetica,sans-Serif" font-size="10.00">ObservableList&lt; view.Property &gt;</text>
</g>
<!-- Node11&#45;&gt;Node9 -->
<g id="edge11" class="edge"><title>Node11&#45;&gt;Node9</title>
<path fill="none" stroke="#9a32cd" stroke-dasharray="5,2" d="M759.927,-616.893C885.34,-633.179 1128.63,-657.04 1196,-608 1210.14,-597.705 1200.47,-584.081 1214,-573 1222.33,-566.183 1232.96,-561.81 1243.29,-559.005"/>
<polygon fill="#9a32cd" stroke="#9a32cd" points="760.007,-613.373 749.636,-615.539 759.094,-620.314 760.007,-613.373"/>
<text text-anchor="middle" x="993" y="-641" font-family="Helvetica,sans-Serif" font-size="10.00"> myVariablesList</text>
</g>
<!-- Node18 -->
<g id="node18" class="node"><title>Node18</title>
<g id="a_node18"><a xlink:href="../../d9/dd3/classview_1_1_variables_view.html" target="_top" xlink:title="view.VariablesView">
<polygon fill="white" stroke="black" points="941,-563.5 941,-582.5 1045,-582.5 1045,-563.5 941,-563.5"/>
<text text-anchor="middle" x="993" y="-570.5" font-family="Helvetica,sans-Serif" font-size="10.00">view.VariablesView</text>
</a>
</g>
</g>
<!-- Node11&#45;&gt;Node18 -->
<g id="edge25" class="edge"><title>Node11&#45;&gt;Node18</title>
<path fill="none" stroke="#9a32cd" stroke-dasharray="5,2" d="M779.937,-595.721C833.134,-590.021 897.159,-583.162 940.846,-578.481"/>
<polygon fill="#9a32cd" stroke="#9a32cd" points="779.365,-592.262 769.795,-596.808 780.111,-599.222 779.365,-592.262"/>
<text text-anchor="middle" x="847" y="-598" font-family="Helvetica,sans-Serif" font-size="10.00"> myVariablesList</text>
</g>
<!-- Node12 -->
<g id="node12" class="node"><title>Node12</title>
<g id="a_node12"><a xlink:href="../../d1/dca/classmodel_1_1_execution_environment.html" target="_top" xlink:title="model.ExecutionEnvironment">
<polygon fill="white" stroke="black" points="322.5,-437.5 322.5,-456.5 479.5,-456.5 479.5,-437.5 322.5,-437.5"/>
<text text-anchor="middle" x="401" y="-444.5" font-family="Helvetica,sans-Serif" font-size="10.00">model.ExecutionEnvironment</text>
</a>
</g>
</g>
<!-- Node12&#45;&gt;Node1 -->
<g id="edge53" class="edge"><title>Node12&#45;&gt;Node1</title>
<path fill="none" stroke="#9a32cd" stroke-dasharray="5,2" d="M426.443,-432.334C482.517,-398.69 619.174,-316.696 665.971,-288.618"/>
<polygon fill="#9a32cd" stroke="#9a32cd" points="424.63,-429.34 417.856,-437.486 428.232,-435.342 424.63,-429.34"/>
<text text-anchor="middle" x="538" y="-391" font-family="Helvetica,sans-Serif" font-size="10.00"> myEnvironment</text>
</g>
<!-- Node12&#45;&gt;Node9 -->
<g id="edge13" class="edge"><title>Node12&#45;&gt;Node9</title>
<path fill="none" stroke="#9a32cd" stroke-dasharray="5,2" d="M442.067,-459.403C459.158,-464.288 479.41,-469.544 498,-473 781.503,-525.698 1129.59,-546.553 1243.2,-552.256"/>
<polygon fill="#9a32cd" stroke="#9a32cd" points="442.986,-456.025 432.406,-456.586 441.027,-462.745 442.986,-456.025"/>
<text text-anchor="middle" x="847" y="-530" font-family="Helvetica,sans-Serif" font-size="10.00"> myEnvironment</text>
</g>
<!-- Node12&#45;&gt;Node18 -->
<g id="edge26" class="edge"><title>Node12&#45;&gt;Node18</title>
<path fill="none" stroke="#9a32cd" stroke-dasharray="5,2" d="M415.102,-464.711C431.749,-485.667 462.61,-519.645 498,-535 576.417,-569.023 830.83,-573.122 940.698,-573.253"/>
<polygon fill="#9a32cd" stroke="#9a32cd" points="417.742,-462.403 408.865,-456.619 412.198,-466.676 417.742,-462.403"/>
<text text-anchor="middle" x="683" y="-573" font-family="Helvetica,sans-Serif" font-size="10.00"> myEnvironment</text>
</g>
<!-- Node12&#45;&gt;Node24 -->
<g id="edge32" class="edge"><title>Node12&#45;&gt;Node24</title>
<path fill="none" stroke="#9a32cd" stroke-dasharray="5,2" d="M433.858,-432.728C450.468,-423.556 469.466,-409.972 480,-392 519.09,-325.308 472.133,-291.848 498,-219 524.646,-143.957 525.964,-106.901 596,-69 727.99,2.42952 918.377,-91.7511 975.313,-123.338"/>
<polygon fill="#9a32cd" stroke="#9a32cd" points="432.198,-429.647 424.946,-437.37 435.432,-435.855 432.198,-429.647"/>
<text text-anchor="middle" x="683" y="-72" font-family="Helvetica,sans-Serif" font-size="10.00"> myExecutionParameters</text>
</g>
<!-- Node13 -->
<g id="node13" class="node"><title>Node13</title>
<polygon fill="white" stroke="#bfbfbf" points="51.5,-497.5 51.5,-516.5 122.5,-516.5 122.5,-497.5 51.5,-497.5"/>
<text text-anchor="middle" x="87" y="-504.5" font-family="Helvetica,sans-Serif" font-size="10.00">Observable</text>
</g>
<!-- Node13&#45;&gt;Node12 -->
<g id="edge14" class="edge"><title>Node13&#45;&gt;Node12</title>
<path fill="none" stroke="midnightblue" d="M132.717,-507.151C176.879,-506.351 246.026,-502.537 304,-488 332.478,-480.859 363.357,-466.337 382.194,-456.636"/>
<polygon fill="midnightblue" stroke="midnightblue" points="132.548,-503.652 122.596,-507.289 132.643,-510.652 132.548,-503.652"/>
</g>
<!-- Node14 -->
<g id="node14" class="node"><title>Node14</title>
<polygon fill="white" stroke="#bfbfbf" points="42.5,-459.5 42.5,-478.5 131.5,-478.5 131.5,-459.5 42.5,-459.5"/>
<text text-anchor="middle" x="87" y="-466.5" font-family="Helvetica,sans-Serif" font-size="10.00">Set&lt; Integer &gt;</text>
</g>
<!-- Node14&#45;&gt;Node12 -->
<g id="edge15" class="edge"><title>Node14&#45;&gt;Node12</title>
<path fill="none" stroke="#9a32cd" stroke-dasharray="5,2" d="M141.939,-465.197C191.701,-461.688 266.155,-456.438 322.32,-452.477"/>
<polygon fill="#9a32cd" stroke="#9a32cd" points="141.44,-461.723 131.711,-465.918 141.932,-468.706 141.44,-461.723"/>
<text text-anchor="middle" x="248" y="-476" font-family="Helvetica,sans-Serif" font-size="10.00"> myTurtleList</text>
<text text-anchor="middle" x="248" y="-465" font-family="Helvetica,sans-Serif" font-size="10.00">activeTurtleList</text>
</g>
<!-- Node15 -->
<g id="node15" class="node"><title>Node15</title>
<polygon fill="white" stroke="#bfbfbf" points="0,-410 0,-440 174,-440 174,-410 0,-410"/>
<text text-anchor="start" x="8" y="-428" font-family="Helvetica,sans-Serif" font-size="10.00">Map&lt; String, model.instructions.</text>
<text text-anchor="middle" x="87" y="-417" font-family="Helvetica,sans-Serif" font-size="10.00">Instruction &gt;</text>
</g>
<!-- Node15&#45;&gt;Node12 -->
<g id="edge16" class="edge"><title>Node15&#45;&gt;Node12</title>
<path fill="none" stroke="#9a32cd" stroke-dasharray="5,2" d="M184.559,-431.634C221.877,-434.217 264.929,-437.219 304,-440 310.001,-440.427 316.212,-440.873 322.456,-441.323"/>
<polygon fill="#9a32cd" stroke="#9a32cd" points="184.411,-428.115 174.193,-430.917 183.928,-435.099 184.411,-428.115"/>
<text text-anchor="middle" x="248" y="-443" font-family="Helvetica,sans-Serif" font-size="10.00"> myUserInstructionMap</text>
</g>
<!-- Node16 -->
<g id="node16" class="node"><title>Node16</title>
<polygon fill="white" stroke="#bfbfbf" points="23,-371.5 23,-390.5 151,-390.5 151,-371.5 23,-371.5"/>
<text text-anchor="middle" x="87" y="-378.5" font-family="Helvetica,sans-Serif" font-size="10.00">Map&lt; String, Double &gt;</text>
</g>
<!-- Node16&#45;&gt;Node12 -->
<g id="edge17" class="edge"><title>Node16&#45;&gt;Node12</title>
<path fill="none" stroke="#9a32cd" stroke-dasharray="5,2" d="M161.414,-391.267C203.421,-397.717 256.961,-406.911 304,-418 327.047,-423.433 352.7,-431.278 371.686,-437.439"/>
<polygon fill="#9a32cd" stroke="#9a32cd" points="161.68,-387.768 151.268,-389.729 160.63,-394.689 161.68,-387.768"/>
<text text-anchor="middle" x="248" y="-421" font-family="Helvetica,sans-Serif" font-size="10.00"> myVariableMap</text>
</g>
<!-- Node17 -->
<g id="node17" class="node"><title>Node17</title>
<polygon fill="white" stroke="#bfbfbf" points="327,-673.5 327,-692.5 475,-692.5 475,-673.5 327,-673.5"/>
<text text-anchor="middle" x="401" y="-680.5" font-family="Helvetica,sans-Serif" font-size="10.00">TableView&lt; view.Property &gt;</text>
</g>
<!-- Node17&#45;&gt;Node9 -->
<g id="edge18" class="edge"><title>Node17&#45;&gt;Node9</title>
<path fill="none" stroke="#9a32cd" stroke-dasharray="5,2" d="M485.417,-683.451C514.698,-683.364 547.813,-682.989 578,-682 715.639,-677.489 1091.5,-725.698 1196,-636 1218.1,-617.033 1193.39,-593.571 1214,-573 1221.87,-565.142 1232.74,-560.479 1243.43,-557.728"/>
<polygon fill="#9a32cd" stroke="#9a32cd" points="485.224,-679.951 475.231,-683.47 485.238,-686.951 485.224,-679.951"/>
<text text-anchor="middle" x="847" y="-705" font-family="Helvetica,sans-Serif" font-size="10.00"> myTurtlePropertiesTable</text>
<text text-anchor="middle" x="847" y="-694" font-family="Helvetica,sans-Serif" font-size="10.00">myVariablesTable</text>
</g>
<!-- Node19 -->
<g id="node19" class="node"><title>Node19</title>
<g id="a_node19"><a xlink:href="../../d5/dea/classview_1_1_side_table_view.html" target="_top" xlink:title="view.SideTableView">
<polygon fill="white" stroke="black" points="630,-634.5 630,-653.5 736,-653.5 736,-634.5 630,-634.5"/>
<text text-anchor="middle" x="683" y="-641.5" font-family="Helvetica,sans-Serif" font-size="10.00">view.SideTableView</text>
</a>
</g>
</g>
<!-- Node17&#45;&gt;Node19 -->
<g id="edge23" class="edge"><title>Node17&#45;&gt;Node19</title>
<path fill="none" stroke="#9a32cd" stroke-dasharray="5,2" d="M480.47,-672.07C528.105,-665.435 587.604,-657.148 629.566,-651.303"/>
<polygon fill="#9a32cd" stroke="#9a32cd" points="479.917,-668.613 470.496,-673.46 480.883,-675.546 479.917,-668.613"/>
<text text-anchor="middle" x="538" y="-673" font-family="Helvetica,sans-Serif" font-size="10.00"> myTable</text>
</g>
<!-- Node18&#45;&gt;Node9 -->
<g id="edge19" class="edge"><title>Node18&#45;&gt;Node9</title>
<path fill="none" stroke="#9a32cd" stroke-dasharray="5,2" d="M1055.29,-568.942C1112.35,-565.165 1195.57,-559.656 1243.39,-556.49"/>
<polygon fill="#9a32cd" stroke="#9a32cd" points="1055.06,-565.45 1045.31,-569.603 1055.52,-572.435 1055.06,-565.45"/>
<text text-anchor="middle" x="1138" y="-570" font-family="Helvetica,sans-Serif" font-size="10.00"> myVariablesPane</text>
</g>
<!-- Node19&#45;&gt;Node18 -->
<g id="edge20" class="edge"><title>Node19&#45;&gt;Node18</title>
<path fill="none" stroke="midnightblue" d="M746.334,-644.703C792.662,-642.862 856.196,-635.217 906,-610 916.094,-604.889 914.232,-597.709 924,-592 930.561,-588.165 937.933,-585.073 945.338,-582.59"/>
<polygon fill="midnightblue" stroke="midnightblue" points="746.015,-641.211 736.131,-645.026 746.237,-648.208 746.015,-641.211"/>
</g>
<!-- Node23 -->
<g id="node23" class="node"><title>Node23</title>
<g id="a_node23"><a xlink:href="../../d9/d3a/classview_1_1_turtle_properties_view.html" target="_top" xlink:title="view.TurtlePropertiesView">
<polygon fill="white" stroke="black" points="925.5,-724.5 925.5,-743.5 1060.5,-743.5 1060.5,-724.5 925.5,-724.5"/>
<text text-anchor="middle" x="993" y="-731.5" font-family="Helvetica,sans-Serif" font-size="10.00">view.TurtlePropertiesView</text>
</a>
</g>
</g>
<!-- Node19&#45;&gt;Node23 -->
<g id="edge28" class="edge"><title>Node19&#45;&gt;Node23</title>
<path fill="none" stroke="midnightblue" d="M700.866,-660.808C720.107,-678.787 753.407,-706.408 788,-719 831.882,-734.973 884.509,-738.494 925.319,-738.141"/>
<polygon fill="midnightblue" stroke="midnightblue" points="703.159,-658.158 693.518,-653.766 698.316,-663.212 703.159,-658.158"/>
</g>
<!-- Node20 -->
<g id="node20" class="node"><title>Node20</title>
<g id="a_node20"><a xlink:href="../../d2/d38/classview_1_1_side_properties_view.html" target="_top" xlink:title="view.SidePropertiesView">
<polygon fill="white" stroke="black" points="335.5,-571.5 335.5,-590.5 466.5,-590.5 466.5,-571.5 335.5,-571.5"/>
<text text-anchor="middle" x="401" y="-578.5" font-family="Helvetica,sans-Serif" font-size="10.00">view.SidePropertiesView</text>
</a>
</g>
</g>
<!-- Node20&#45;&gt;Node19 -->
<g id="edge21" class="edge"><title>Node20&#45;&gt;Node19</title>
<path fill="none" stroke="midnightblue" d="M463.436,-592.553C497.424,-599.372 540.293,-608.678 578,-619 586.134,-621.226 587.872,-622.754 596,-625 608.38,-628.421 621.895,-631.642 634.467,-634.427"/>
<polygon fill="midnightblue" stroke="midnightblue" points="463.678,-589.033 453.188,-590.518 462.315,-595.899 463.678,-589.033"/>
</g>
<!-- Node21 -->
<g id="node21" class="node"><title>Node21</title>
<polygon fill="white" stroke="#bfbfbf" points="19.5,-571.5 19.5,-590.5 154.5,-590.5 154.5,-571.5 19.5,-571.5"/>
<text text-anchor="middle" x="87" y="-578.5" font-family="Helvetica,sans-Serif" font-size="10.00">ObservableList&lt; Node &gt;</text>
</g>
<!-- Node21&#45;&gt;Node20 -->
<g id="edge22" class="edge"><title>Node21&#45;&gt;Node20</title>
<path fill="none" stroke="#9a32cd" stroke-dasharray="5,2" d="M164.803,-581C217.206,-581 285.836,-581 335.423,-581"/>
<polygon fill="#9a32cd" stroke="#9a32cd" points="164.549,-577.5 154.549,-581 164.549,-584.5 164.549,-577.5"/>
<text text-anchor="middle" x="248" y="-584" font-family="Helvetica,sans-Serif" font-size="10.00"> myChildren</text>
</g>
<!-- Node22 -->
<g id="node22" class="node"><title>Node22</title>
<polygon fill="white" stroke="#bfbfbf" points="323.5,-610 323.5,-640 478.5,-640 478.5,-610 323.5,-610"/>
<text text-anchor="start" x="331.5" y="-628" font-family="Helvetica,sans-Serif" font-size="10.00">TableColumn&lt; view.Property,</text>
<text text-anchor="middle" x="401" y="-617" font-family="Helvetica,sans-Serif" font-size="10.00"> String &gt;</text>
</g>
<!-- Node22&#45;&gt;Node19 -->
<g id="edge24" class="edge"><title>Node22&#45;&gt;Node19</title>
<path fill="none" stroke="#9a32cd" stroke-dasharray="5,2" d="M489.101,-622.644C517.493,-622.637 549.131,-623.437 578,-626 597.347,-627.717 618.503,-631.099 636.653,-634.471"/>
<polygon fill="#9a32cd" stroke="#9a32cd" points="488.787,-619.145 478.799,-622.681 488.812,-626.145 488.787,-619.145"/>
<text text-anchor="middle" x="538" y="-640" font-family="Helvetica,sans-Serif" font-size="10.00"> rightTableCol</text>
<text text-anchor="middle" x="538" y="-629" font-family="Helvetica,sans-Serif" font-size="10.00">leftTableCol</text>
</g>
<!-- Node23&#45;&gt;Node9 -->
<g id="edge27" class="edge"><title>Node23&#45;&gt;Node9</title>
<path fill="none" stroke="#9a32cd" stroke-dasharray="5,2" d="M1049.15,-722.366C1059.4,-720.23 1070.02,-718.033 1080,-716 1131.5,-705.505 1159.72,-731.025 1196,-693 1233.23,-653.983 1178.37,-613.485 1214,-573 1221.51,-564.468 1232.54,-559.64 1243.49,-556.946"/>
<polygon fill="#9a32cd" stroke="#9a32cd" points="1048.13,-719.003 1039.06,-724.475 1049.57,-725.855 1048.13,-719.003"/>
<text text-anchor="middle" x="1138" y="-719" font-family="Helvetica,sans-Serif" font-size="10.00"> myTurtlePropertiesPane</text>
</g>
<!-- Node24&#45;&gt;Node1 -->
<g id="edge54" class="edge"><title>Node24&#45;&gt;Node1</title>
<path fill="none" stroke="#9a32cd" stroke-dasharray="5,2" d="M942.882,-140.122C884.717,-148.679 794.799,-162.342 788,-166 740.572,-191.518 703.239,-247.122 689.599,-269.444"/>
<polygon fill="#9a32cd" stroke="#9a32cd" points="943.604,-143.554 952.99,-138.64 942.588,-136.628 943.604,-143.554"/>
<text text-anchor="middle" x="847" y="-169" font-family="Helvetica,sans-Serif" font-size="10.00"> myParser</text>
</g>
<!-- Node24&#45;&gt;Node9 -->
<g id="edge29" class="edge"><title>Node24&#45;&gt;Node9</title>
<path fill="none" stroke="#9a32cd" stroke-dasharray="5,2" d="M997.257,-152.736C1004.89,-193.466 1027.43,-287.872 1080,-346 1119.07,-389.203 1153.99,-366.646 1196,-407 1239.8,-449.072 1268.15,-518.62 1277.55,-544.182"/>
<polygon fill="#9a32cd" stroke="#9a32cd" points="1000.68,-151.982 995.486,-142.747 993.785,-153.204 1000.68,-151.982"/>
<text text-anchor="middle" x="1138" y="-410" font-family="Helvetica,sans-Serif" font-size="10.00"> myParser</text>
</g>
<!-- Node24&#45;&gt;Node34 -->
<g id="edge49" class="edge"><title>Node24&#45;&gt;Node34</title>
<path fill="none" stroke="#9a32cd" stroke-dasharray="5,2" d="M1043.21,-130.31C1112.29,-127.485 1241.7,-125.675 1350,-144 1398.42,-152.193 1452.64,-171.69 1482.71,-183.471"/>
<polygon fill="#9a32cd" stroke="#9a32cd" points="1042.9,-126.82 1033.06,-130.75 1043.2,-133.813 1042.9,-126.82"/>
<text text-anchor="middle" x="1282" y="-147" font-family="Helvetica,sans-Serif" font-size="10.00"> myParser</text>
</g>
<!-- Node25 -->
<g id="node25" class="node"><title>Node25</title>
<polygon fill="white" stroke="#bfbfbf" points="653,-0.5 653,-19.5 713,-19.5 713,-0.5 653,-0.5"/>
<text text-anchor="middle" x="683" y="-7.5" font-family="Helvetica,sans-Serif" font-size="10.00">Observer</text>
</g>
<!-- Node25&#45;&gt;Node24 -->
<g id="edge30" class="edge"><title>Node25&#45;&gt;Node24</title>
<path fill="none" stroke="midnightblue" d="M723.339,-13.4271C778.309,-18.7125 874.863,-29.949 906,-46 942.622,-64.8788 973.127,-105.107 985.755,-123.485"/>
<polygon fill="midnightblue" stroke="midnightblue" points="723.542,-9.93075 713.258,-12.4796 722.887,-16.9 723.542,-9.93075"/>
</g>
<!-- Node25&#45;&gt;Node27 -->
<g id="edge34" class="edge"><title>Node25&#45;&gt;Node27</title>
<path fill="none" stroke="midnightblue" d="M723.594,-8.94645C782.222,-7.4796 895.588,-5 992,-5 992,-5 992,-5 1696,-5 1756.39,-5 1771.99,-37.5973 1802,-90 1848.22,-170.718 1865.64,-479.981 1868.55,-538.436"/>
<polygon fill="midnightblue" stroke="midnightblue" points="723.208,-5.45503 713.3,-9.20774 723.386,-12.4528 723.208,-5.45503"/>
</g>
<!-- Node26 -->
<g id="node26" class="node"><title>Node26</title>
<polygon fill="white" stroke="#bfbfbf" points="627,-128 627,-158 739,-158 739,-128 627,-128"/>
<text text-anchor="start" x="635" y="-146" font-family="Helvetica,sans-Serif" font-size="10.00">List&lt; Entry&lt; String,</text>
<text text-anchor="middle" x="683" y="-135" font-family="Helvetica,sans-Serif" font-size="10.00"> Pattern &gt; &gt;</text>
</g>
<!-- Node26&#45;&gt;Node24 -->
<g id="edge31" class="edge"><title>Node26&#45;&gt;Node24</title>
<path fill="none" stroke="#9a32cd" stroke-dasharray="5,2" d="M749.387,-136.524C762.178,-135.488 775.5,-134.571 788,-134 845.316,-131.384 911.784,-131.678 952.868,-132.247"/>
<polygon fill="#9a32cd" stroke="#9a32cd" points="748.939,-133.049 739.267,-137.375 749.526,-140.024 748.939,-133.049"/>
<text text-anchor="middle" x="847" y="-137" font-family="Helvetica,sans-Serif" font-size="10.00"> myPatterns</text>
</g>
<!-- Node27&#45;&gt;Node24 -->
<g id="edge33" class="edge"><title>Node27&#45;&gt;Node24</title>
<path fill="none" stroke="#9a32cd" stroke-dasharray="5,2" d="M1866.54,-528.039C1854.59,-435.299 1798.83,-51 1696,-51 1281,-51 1281,-51 1281,-51 1176.58,-51 1058.73,-101.802 1013.29,-123.433"/>
<polygon fill="#9a32cd" stroke="#9a32cd" points="1863.08,-528.59 1867.81,-538.072 1870.03,-527.712 1863.08,-528.59"/>
<text text-anchor="middle" x="1507" y="-54" font-family="Helvetica,sans-Serif" font-size="10.00"> myViewUpdater</text>
</g>
<!-- Node28&#45;&gt;Node1 -->
<g id="edge56" class="edge"><title>Node28&#45;&gt;Node1</title>
<path fill="none" stroke="#9a32cd" stroke-dasharray="5,2" d="M1678.74,-530.479C1642.31,-489.761 1545.71,-388.11 1444,-334 1319.03,-267.519 871.914,-273.753 728.566,-277.587"/>
<polygon fill="#9a32cd" stroke="#9a32cd" points="1676.33,-533.037 1685.58,-538.204 1681.57,-528.397 1676.33,-533.037"/>
<text text-anchor="middle" x="1282" y="-308" font-family="Helvetica,sans-Serif" font-size="10.00"> drawer</text>
</g>
<!-- Node28&#45;&gt;Node27 -->
<g id="edge36" class="edge"><title>Node28&#45;&gt;Node27</title>
<path fill="none" stroke="#9a32cd" stroke-dasharray="5,2" d="M1742.1,-548C1766.06,-548 1795.35,-548 1819.75,-548"/>
<polygon fill="#9a32cd" stroke="#9a32cd" points="1741.85,-544.5 1731.85,-548 1741.85,-551.5 1741.85,-544.5"/>
<text text-anchor="middle" x="1776" y="-551" font-family="Helvetica,sans-Serif" font-size="10.00"> myDrawer</text>
</g>
<!-- Node29 -->
<g id="node29" class="node"><title>Node29</title>
<polygon fill="white" stroke="#bfbfbf" points="1486.5,-606.5 1486.5,-625.5 1527.5,-625.5 1527.5,-606.5 1486.5,-606.5"/>
<text text-anchor="middle" x="1507" y="-613.5" font-family="Helvetica,sans-Serif" font-size="10.00">Color</text>
</g>
<!-- Node29&#45;&gt;Node28 -->
<g id="edge38" class="edge"><title>Node29&#45;&gt;Node28</title>
<path fill="none" stroke="#9a32cd" stroke-dasharray="5,2" d="M1536.97,-605.407C1572.84,-592.294 1633.4,-570.154 1667.89,-557.544"/>
<polygon fill="#9a32cd" stroke="#9a32cd" points="1535.74,-602.13 1527.55,-608.851 1538.15,-608.705 1535.74,-602.13"/>
<text text-anchor="middle" x="1605" y="-596" font-family="Helvetica,sans-Serif" font-size="10.00"> myColor</text>
</g>
<!-- Node30 -->
<g id="node30" class="node"><title>Node30</title>
<polygon fill="white" stroke="#bfbfbf" points="622,-89.5 622,-108.5 744,-108.5 744,-89.5 622,-89.5"/>
<text text-anchor="middle" x="683" y="-96.5" font-family="Helvetica,sans-Serif" font-size="10.00">Map&lt; String, String &gt;</text>
</g>
<!-- Node30&#45;&gt;Node24 -->
<g id="edge40" class="edge"><title>Node30&#45;&gt;Node24</title>
<path fill="none" stroke="#9a32cd" stroke-dasharray="5,2" d="M754.263,-102.84C798.029,-105.691 855.434,-110.264 906,-117 921.355,-119.045 938.127,-122.001 952.748,-124.816"/>
<polygon fill="#9a32cd" stroke="#9a32cd" points="754.212,-99.3294 744.01,-102.187 753.767,-106.315 754.212,-99.3294"/>
<text text-anchor="middle" x="847" y="-120" font-family="Helvetica,sans-Serif" font-size="10.00"> myCommandMap</text>
</g>
<!-- Node31 -->
<g id="node31" class="node"><title>Node31</title>
<polygon fill="white" stroke="#bfbfbf" points="924,-487.5 924,-506.5 1062,-506.5 1062,-487.5 924,-487.5"/>
<text text-anchor="middle" x="993" y="-494.5" font-family="Helvetica,sans-Serif" font-size="10.00">ObservableList&lt; String &gt;</text>
</g>
<!-- Node31&#45;&gt;Node9 -->
<g id="edge42" class="edge"><title>Node31&#45;&gt;Node9</title>
<path fill="none" stroke="#9a32cd" stroke-dasharray="5,2" d="M1072.3,-487.726C1110.39,-485.728 1156.38,-487.087 1196,-499 1225.96,-508.01 1255.35,-531.08 1270.48,-544.303"/>
<polygon fill="#9a32cd" stroke="#9a32cd" points="1072.06,-484.234 1062.29,-488.337 1072.49,-491.221 1072.06,-484.234"/>
<text text-anchor="middle" x="1138" y="-513" font-family="Helvetica,sans-Serif" font-size="10.00"> myCommandItems</text>
<text text-anchor="middle" x="1138" y="-502" font-family="Helvetica,sans-Serif" font-size="10.00">myHistoryItems</text>
</g>
<!-- Node32 -->
<g id="node32" class="node"><title>Node32</title>
<polygon fill="white" stroke="#bfbfbf" points="1250.5,-702.5 1250.5,-721.5 1313.5,-721.5 1313.5,-702.5 1250.5,-702.5"/>
<text text-anchor="middle" x="1282" y="-709.5" font-family="Helvetica,sans-Serif" font-size="10.00">Rectangle</text>
</g>
<!-- Node32&#45;&gt;Node2 -->
<g id="edge43" class="edge"><title>Node32&#45;&gt;Node2</title>
<path fill="none" stroke="#9a32cd" stroke-dasharray="5,2" d="M1323.87,-710.853C1365.81,-708.797 1427.24,-703.051 1444,-687 1473.46,-658.787 1436.34,-628.712 1462,-597 1465.14,-593.119 1469.23,-590.013 1473.64,-587.533"/>
<polygon fill="#9a32cd" stroke="#9a32cd" points="1323.5,-707.366 1313.67,-711.301 1323.81,-714.359 1323.5,-707.366"/>
<text text-anchor="middle" x="1406" y="-711" font-family="Helvetica,sans-Serif" font-size="10.00"> myBackground</text>
</g>
<!-- Node33 -->
<g id="node33" class="node"><title>Node33</title>
<polygon fill="white" stroke="#bfbfbf" points="378.5,-195.5 378.5,-214.5 423.5,-214.5 423.5,-195.5 378.5,-195.5"/>
<text text-anchor="middle" x="401" y="-202.5" font-family="Helvetica,sans-Serif" font-size="10.00">Stage</text>
</g>
<!-- Node33&#45;&gt;Node1 -->
<g id="edge44" class="edge"><title>Node33&#45;&gt;Node1</title>
<path fill="none" stroke="#9a32cd" stroke-dasharray="5,2" d="M433.886,-210.054C469.407,-216.022 528.37,-226.941 578,-241 606.298,-249.016 637.919,-261.024 658.783,-269.388"/>
<polygon fill="#9a32cd" stroke="#9a32cd" points="434.087,-206.54 423.65,-208.362 432.946,-213.446 434.087,-206.54"/>
<text text-anchor="middle" x="538" y="-244" font-family="Helvetica,sans-Serif" font-size="10.00"> myStage</text>
</g>
<!-- Node34&#45;&gt;Node1 -->
<g id="edge46" class="edge"><title>Node34&#45;&gt;Node1</title>
<path fill="none" stroke="#9a32cd" stroke-dasharray="5,2" d="M1463.41,-197.455C1322.59,-212.188 872.754,-259.252 728.778,-274.315"/>
<polygon fill="#9a32cd" stroke="#9a32cd" points="1463.81,-200.933 1473.4,-196.411 1463.09,-193.971 1463.81,-200.933"/>
<text text-anchor="middle" x="1138" y="-240" font-family="Helvetica,sans-Serif" font-size="10.00"> myEditor</text>
</g>
<!-- Node35 -->
<g id="node35" class="node"><title>Node35</title>
<polygon fill="white" stroke="#bfbfbf" points="1261,-240.5 1261,-259.5 1303,-259.5 1303,-240.5 1261,-240.5"/>
<text text-anchor="middle" x="1282" y="-247.5" font-family="Helvetica,sans-Serif" font-size="10.00">HBox</text>
</g>
<!-- Node35&#45;&gt;Node34 -->
<g id="edge47" class="edge"><title>Node35&#45;&gt;Node34</title>
<path fill="none" stroke="midnightblue" d="M1313.3,-247.509C1346.12,-244.218 1399.72,-237.106 1444,-223 1460.06,-217.882 1477.24,-209.301 1489.43,-202.624"/>
<polygon fill="midnightblue" stroke="midnightblue" points="1312.63,-244.057 1303.01,-248.484 1313.29,-251.026 1312.63,-244.057"/>
</g>
<!-- Node36 -->
<g id="node36" class="node"><title>Node36</title>
<polygon fill="white" stroke="#bfbfbf" points="1257.5,-164.5 1257.5,-183.5 1306.5,-183.5 1306.5,-164.5 1257.5,-164.5"/>
<text text-anchor="middle" x="1282" y="-171.5" font-family="Helvetica,sans-Serif" font-size="10.00">Button</text>
</g>
<!-- Node36&#45;&gt;Node34 -->
<g id="edge48" class="edge"><title>Node36&#45;&gt;Node34</title>
<path fill="none" stroke="#9a32cd" stroke-dasharray="5,2" d="M1317.07,-176.593C1349.67,-179.111 1400.21,-183.113 1444,-187 1453.48,-187.841 1463.77,-188.813 1473.19,-189.727"/>
<polygon fill="#9a32cd" stroke="#9a32cd" points="1316.98,-173.076 1306.74,-175.798 1316.45,-180.055 1316.98,-173.076"/>
<text text-anchor="middle" x="1406" y="-190" font-family="Helvetica,sans-Serif" font-size="10.00"> runButton</text>
</g>
<!-- Node37 -->
<g id="node37" class="node"><title>Node37</title>
<polygon fill="white" stroke="#bfbfbf" points="1253,-79.5 1253,-98.5 1311,-98.5 1311,-79.5 1253,-79.5"/>
<text text-anchor="middle" x="1282" y="-86.5" font-family="Helvetica,sans-Serif" font-size="10.00">TextArea</text>
</g>
<!-- Node37&#45;&gt;Node34 -->
<g id="edge50" class="edge"><title>Node37&#45;&gt;Node34</title>
<path fill="none" stroke="#9a32cd" stroke-dasharray="5,2" d="M1321.42,-85.904C1355.84,-84.9265 1406.52,-88.0661 1444,-110 1473.81,-127.442 1493.78,-165.408 1501.9,-183.302"/>
<polygon fill="#9a32cd" stroke="#9a32cd" points="1321.15,-82.4125 1311.3,-86.3233 1321.43,-89.4065 1321.15,-82.4125"/>
<text text-anchor="middle" x="1406" y="-113" font-family="Helvetica,sans-Serif" font-size="10.00"> textEditor</text>
</g>
<!-- Node38 -->
<g id="node38" class="node"><title>Node38</title>
<polygon fill="white" stroke="#bfbfbf" points="341.5,-271.5 341.5,-290.5 460.5,-290.5 460.5,-271.5 341.5,-271.5"/>
<text text-anchor="middle" x="401" y="-278.5" font-family="Helvetica,sans-Serif" font-size="10.00">Map&lt; String, Node &gt;</text>
</g>
<!-- Node38&#45;&gt;Node1 -->
<g id="edge52" class="edge"><title>Node38&#45;&gt;Node1</title>
<path fill="none" stroke="#9a32cd" stroke-dasharray="5,2" d="M470.864,-280.241C479.989,-280.153 489.221,-280.07 498,-280 545.596,-279.623 600.12,-279.346 637.382,-279.18"/>
<polygon fill="#9a32cd" stroke="#9a32cd" points="470.601,-276.744 460.637,-280.343 470.671,-283.743 470.601,-276.744"/>
<text text-anchor="middle" x="538" y="-283" font-family="Helvetica,sans-Serif" font-size="10.00"> variables</text>
</g>
<!-- Node39 -->
<g id="node39" class="node"><title>Node39</title>
<polygon fill="white" stroke="#bfbfbf" points="360.5,-233.5 360.5,-252.5 441.5,-252.5 441.5,-233.5 360.5,-233.5"/>
<text text-anchor="middle" x="401" y="-240.5" font-family="Helvetica,sans-Serif" font-size="10.00">Dimension2D</text>
</g>
<!-- Node39&#45;&gt;Node1 -->
<g id="edge55" class="edge"><title>Node39&#45;&gt;Node1</title>
<path fill="none" stroke="#9a32cd" stroke-dasharray="5,2" d="M451.548,-249.067C486.821,-253.416 535.337,-259.462 578,-265 597.512,-267.533 619.071,-270.42 637.476,-272.912"/>
<polygon fill="#9a32cd" stroke="#9a32cd" points="451.86,-245.579 441.507,-247.83 451.004,-252.526 451.86,-245.579"/>
<text text-anchor="middle" x="538" y="-268" font-family="Helvetica,sans-Serif" font-size="10.00"> myDimensions</text>
</g>
</g>
</svg>
        <g id="navigator" transform="translate(0 0)" fill="#404254">
                <rect fill="#f2f5e9" fill-opacity="0.5" stroke="#606060" stroke-width=".5" x="0" y="0" width="60" height="60"/>
                <use id="zoomplus" xlink:href="#zoomPlus" x="17" y="9" onmousedown="handleZoom(evt,'in')"/>
                <use id="zoomminus" xlink:href="#zoomMin" x="42" y="9" onmousedown="handleZoom(evt,'out')"/>
                <use id="reset" xlink:href="#resetDef" x="30" y="36" onmousedown="handleReset()"/>
                <g id="arrowUp" xlink:href="#dirArrow" transform="translate(30 24)" onmousedown="handlePan(0,-1)">
                  <use xlink:href="#rim" fill="#404040">
                        <set attributeName="fill" to="#808080" begin="arrowUp.mouseover" end="arrowUp.mouseout"/>
                  </use>
                  <path fill="none" stroke="white" stroke-width="1.5" d="M0,-3.0v7 M-2.5,-0.5L0,-3.0L2.5,-0.5"/>
                </g>
                <g id="arrowRight" xlink:href="#dirArrow" transform="rotate(90) translate(36 -43)" onmousedown="handlePan(1,0)">
                  <use xlink:href="#rim" fill="#404040">
                        <set attributeName="fill" to="#808080" begin="arrowRight.mouseover" end="arrowRight.mouseout"/>
                  </use>
                  <path fill="none" stroke="white" stroke-width="1.5" d="M0,-3.0v7 M-2.5,-0.5L0,-3.0L2.5,-0.5"/>
                </g>
                <g id="arrowDown" xlink:href="#dirArrow" transform="rotate(180) translate(-30 -48)" onmousedown="handlePan(0,1)">
                  <use xlink:href="#rim" fill="#404040">
                        <set attributeName="fill" to="#808080" begin="arrowDown.mouseover" end="arrowDown.mouseout"/>
                  </use>
                  <path fill="none" stroke="white" stroke-width="1.5" d="M0,-3.0v7 M-2.5,-0.5L0,-3.0L2.5,-0.5"/>
                </g>
                <g id="arrowLeft" xlink:href="#dirArrow" transform="rotate(270) translate(-36 17)" onmousedown="handlePan(-1,0)">
                  <use xlink:href="#rim" fill="#404040">
                        <set attributeName="fill" to="#808080" begin="arrowLeft.mouseover" end="arrowLeft.mouseout"/>
                  </use>
                  <path fill="none" stroke="white" stroke-width="1.5" d="M0,-3.0v7 M-2.5,-0.5L0,-3.0L2.5,-0.5"/>
                </g>
        </g>
        <svg viewBox="0 0 15 15" width="100%" height="30px" preserveAspectRatio="xMaxYMin meet">
         <g id="arrow_out" transform="scale(0.3 0.3)">
          <a xlink:href="classview_1_1_s_logo_view__coll__graph_org.svg" target="_base">
           <rect id="button" ry="5" rx="5" y="6" x="6" height="38" width="38"
                fill="#f2f5e9" fill-opacity="0.5" stroke="#606060" stroke-width="1.0"/>
           <path id="arrow"
             d="M 11.500037,31.436501 C 11.940474,20.09759 22.043105,11.32322 32.158766,21.979434 L 37.068811,17.246167 C 37.068811,17.246167 37.088388,32 37.088388,32 L 22.160133,31.978069 C 22.160133,31.978069 26.997745,27.140456 26.997745,27.140456 C 18.528582,18.264221 13.291696,25.230495 11.500037,31.436501 z"
             style="fill:#404040;"/>
          </a>
         </g>
        </svg>
</svg>
