<?xml version="1.0" encoding="UTF-8" standalone="no"?>
<!DOCTYPE svg PUBLIC "-//W3C//DTD SVG 1.1//EN"
 "http://www.w3.org/Graphics/SVG/1.1/DTD/svg11.dtd">
<!-- Generated by graphviz version 2.36.0 (20140111.2315)
 -->
<!-- Title: model.instructions.MathInstruction Pages: 1 -->
<!--zoomable 859 -->
<svg id="main" version="1.1" xmlns="http://www.w3.org/2000/svg" xmlns:xlink="http://www.w3.org/1999/xlink" xml:space="preserve" onload="init(evt)">
<style type="text/css"><![CDATA[
.edge:hover path { stroke: red; }
.edge:hover polygon { stroke: red; fill: red; }
]]></style>
<script type="text/javascript"><![CDATA[
var edges = document.getElementsByTagName('g');
if (edges && edges.length) {
  for (var i=0;i<edges.length;i++) {
    if (edges[i].id.substr(0,4)=='edge') {
      edges[i].setAttribute('class','edge');
    }
  }
}
]]></script>
        <defs>
                <circle id="rim" cx="0" cy="0" r="7"/>
                <circle id="rim2" cx="0" cy="0" r="3.5"/>
                <g id="zoomPlus">
                        <use xlink:href="#rim" fill="#404040">
                                <set attributeName="fill" to="#808080" begin="zoomplus.mouseover" end="zoomplus.mouseout"/>
                        </use>
                        <path d="M-4,0h8M0,-4v8" fill="none" stroke="white" stroke-width="1.5" pointer-events="none"/>
                </g>
                <g id="zoomMin">
                        <use xlink:href="#rim" fill="#404040">
                                <set attributeName="fill" to="#808080" begin="zoomminus.mouseover" end="zoomminus.mouseout"/>
                        </use>
                        <path d="M-4,0h8" fill="none" stroke="white" stroke-width="1.5" pointer-events="none"/>
                </g>
                <g id="dirArrow">
                        <path fill="none" stroke="white" stroke-width="1.5" d="M0,-3.0v7 M-2.5,-0.5L0,-3.0L2.5,-0.5"/>
                </g>
               <g id="resetDef">
                       <use xlink:href="#rim2" fill="#404040">
                               <set attributeName="fill" to="#808080" begin="reset.mouseover" end="reset.mouseout"/>
                       </use>
               </g>
        </defs>

<script type="text/javascript">
var viewWidth = 1792;
var viewHeight = 859;
var sectionId = 'dynsection-1';
</script>
<script xlink:href="../../svgpan.js"/>
<svg id="graph" class="graph">
<g id="viewport">
<title>model.instructions.MathInstruction</title>
<polygon fill="white" stroke="none" points="-4,4 -4,-855.201 1788,-855.201 1788,4 -4,4"/>
<!-- Node1 -->
<g id="node1" class="node"><title>Node1</title>
<polygon fill="#bfbfbf" stroke="black" points="966,-707.701 966,-726.701 1148,-726.701 1148,-707.701 966,-707.701"/>
<text text-anchor="middle" x="1057" y="-714.701" font-family="Helvetica,sans-Serif" font-size="10.00">model.instructions.MathInstruction</text>
</g>
<!-- Node2 -->
<g id="node2" class="node"><title>Node2</title>
<g id="a_node2"><a xlink:href="../../d1/dea/classmodel_1_1instructions_1_1_instruction.html" target="_top" xlink:title="model.instructions.Instruction">
<polygon fill="white" stroke="black" points="646,-707.701 646,-726.701 804,-726.701 804,-707.701 646,-707.701"/>
<text text-anchor="middle" x="725" y="-714.701" font-family="Helvetica,sans-Serif" font-size="10.00">model.instructions.Instruction</text>
</a>
</g>
</g>
<!-- Node2&#45;&gt;Node1 -->
<g id="edge1" class="edge"><title>Node2&#45;&gt;Node1</title>
<path fill="none" stroke="midnightblue" d="M814.341,-717.201C861.201,-717.201 918.668,-717.201 965.804,-717.201"/>
<polygon fill="midnightblue" stroke="midnightblue" points="814.205,-713.701 804.205,-717.201 814.205,-720.701 814.205,-713.701"/>
</g>
<!-- Node3 -->
<g id="node3" class="node"><title>Node3</title>
<polygon fill="white" stroke="#bfbfbf" points="57,-491.701 57,-510.701 117,-510.701 117,-491.701 57,-491.701"/>
<text text-anchor="middle" x="87" y="-498.701" font-family="Helvetica,sans-Serif" font-size="10.00">Observer</text>
</g>
<!-- Node3&#45;&gt;Node2 -->
<g id="edge2" class="edge"><title>Node3&#45;&gt;Node2</title>
<path fill="none" stroke="midnightblue" d="M112.161,-516.069C153.662,-541.032 241.78,-591.542 322,-621.201 440.114,-664.87 585.213,-693.782 664.787,-707.647"/>
<polygon fill="midnightblue" stroke="midnightblue" points="113.935,-513.052 103.569,-510.864 110.308,-519.039 113.935,-513.052"/>
</g>
<!-- Node9 -->
<g id="node9" class="node"><title>Node9</title>
<g id="a_node9"><a xlink:href="../../d4/d64/classview_1_1_view_updater.html" target="_top" xlink:title="view.ViewUpdater">
<polygon fill="white" stroke="black" points="351,-443.701 351,-462.701 451,-462.701 451,-443.701 351,-443.701"/>
<text text-anchor="middle" x="401" y="-450.701" font-family="Helvetica,sans-Serif" font-size="10.00">view.ViewUpdater</text>
</a>
</g>
</g>
<!-- Node3&#45;&gt;Node9 -->
<g id="edge9" class="edge"><title>Node3&#45;&gt;Node9</title>
<path fill="none" stroke="midnightblue" d="M127.079,-495.189C183.8,-486.463 288.905,-470.293 350.82,-460.767"/>
<polygon fill="midnightblue" stroke="midnightblue" points="126.424,-491.748 117.072,-496.728 127.488,-498.667 126.424,-491.748"/>
</g>
<!-- Node21 -->
<g id="node21" class="node"><title>Node21</title>
<g id="a_node21"><a xlink:href="../../dc/df5/classmodel_1_1_parser.html" target="_top" xlink:title="model.Parser">
<polygon fill="white" stroke="black" points="685,-581.701 685,-600.701 765,-600.701 765,-581.701 685,-581.701"/>
<text text-anchor="middle" x="725" y="-588.701" font-family="Helvetica,sans-Serif" font-size="10.00">model.Parser</text>
</a>
</g>
</g>
<!-- Node3&#45;&gt;Node21 -->
<g id="edge25" class="edge"><title>Node3&#45;&gt;Node21</title>
<path fill="none" stroke="midnightblue" d="M127.209,-499.452C234.48,-495.196 530.729,-487.132 620,-523.201 629.924,-527.211 629.384,-532.85 638,-539.201 660.33,-555.662 688.097,-571.735 705.934,-581.552"/>
<polygon fill="midnightblue" stroke="midnightblue" points="126.985,-495.958 117.136,-499.863 127.271,-502.952 126.985,-495.958"/>
</g>
<!-- Node4 -->
<g id="node4" class="node"><title>Node4</title>
<g id="a_node4"><a xlink:href="../../d1/dca/classmodel_1_1_execution_environment.html" target="_top" xlink:title="model.ExecutionEnvironment">
<polygon fill="white" stroke="black" points="322.5,-727.701 322.5,-746.701 479.5,-746.701 479.5,-727.701 322.5,-727.701"/>
<text text-anchor="middle" x="401" y="-734.701" font-family="Helvetica,sans-Serif" font-size="10.00">model.ExecutionEnvironment</text>
</a>
</g>
</g>
<!-- Node4&#45;&gt;Node2 -->
<g id="edge3" class="edge"><title>Node4&#45;&gt;Node2</title>
<path fill="none" stroke="#9a32cd" stroke-dasharray="5,2" d="M489.727,-730.749C492.516,-730.562 495.28,-730.378 498,-730.201 547.12,-726.998 602.274,-723.817 645.799,-721.404"/>
<polygon fill="#9a32cd" stroke="#9a32cd" points="489.276,-727.272 479.538,-731.445 489.753,-734.255 489.276,-727.272"/>
<text text-anchor="middle" x="559" y="-733.201" font-family="Helvetica,sans-Serif" font-size="10.00"> myEnvironment</text>
</g>
<!-- Node17 -->
<g id="node17" class="node"><title>Node17</title>
<g id="a_node17"><a xlink:href="../../d1/dc7/classview_1_1_side_bar.html" target="_top" xlink:title="view.SideBar">
<polygon fill="white" stroke="black" points="1018.5,-432.701 1018.5,-451.701 1095.5,-451.701 1095.5,-432.701 1018.5,-432.701"/>
<text text-anchor="middle" x="1057" y="-439.701" font-family="Helvetica,sans-Serif" font-size="10.00">view.SideBar</text>
</a>
</g>
</g>
<!-- Node4&#45;&gt;Node17 -->
<g id="edge22" class="edge"><title>Node4&#45;&gt;Node17</title>
<path fill="none" stroke="#9a32cd" stroke-dasharray="5,2" d="M455.012,-725.447C585.571,-696.032 914.488,-618.903 948,-581.201 981.203,-543.847 933.235,-507.94 966,-470.201 978.981,-455.25 999.797,-448.177 1018.14,-444.875"/>
<polygon fill="#9a32cd" stroke="#9a32cd" points="454.21,-722.04 445.221,-727.648 455.745,-728.87 454.21,-722.04"/>
<text text-anchor="middle" x="725" y="-685.201" font-family="Helvetica,sans-Serif" font-size="10.00"> myEnvironment</text>
</g>
<!-- Node4&#45;&gt;Node21 -->
<g id="edge27" class="edge"><title>Node4&#45;&gt;Node21</title>
<path fill="none" stroke="#9a32cd" stroke-dasharray="5,2" d="M413.897,-719.138C430.049,-696.178 461.167,-657.135 498,-637.201 546.526,-610.938 565.944,-625.271 620,-614.201 641.377,-609.823 665.143,-604.595 684.554,-600.23"/>
<polygon fill="#9a32cd" stroke="#9a32cd" points="410.852,-717.39 408.097,-727.62 416.63,-721.341 410.852,-717.39"/>
<text text-anchor="middle" x="559" y="-640.201" font-family="Helvetica,sans-Serif" font-size="10.00"> myExecutionParameters</text>
</g>
<!-- Node24 -->
<g id="node24" class="node"><title>Node24</title>
<g id="a_node24"><a xlink:href="../../d6/de7/classview_1_1_s_logo_view.html" target="_top" xlink:title="view.SLogoView">
<polygon fill="white" stroke="black" points="1692.5,-257.701 1692.5,-276.701 1783.5,-276.701 1783.5,-257.701 1692.5,-257.701"/>
<text text-anchor="middle" x="1738" y="-264.701" font-family="Helvetica,sans-Serif" font-size="10.00">view.SLogoView</text>
</a>
</g>
</g>
<!-- Node4&#45;&gt;Node24 -->
<g id="edge41" class="edge"><title>Node4&#45;&gt;Node24</title>
<path fill="none" stroke="#9a32cd" stroke-dasharray="5,2" d="M489.843,-744.765C554.537,-749.688 644.678,-755.201 724,-755.201 724,-755.201 724,-755.201 1521,-755.201 1597.13,-755.201 1629.25,-739.788 1674,-678.201 1722.8,-611.04 1734.76,-332.804 1736.69,-276.98"/>
<polygon fill="#9a32cd" stroke="#9a32cd" points="489.924,-741.261 479.684,-743.98 489.385,-748.24 489.924,-741.261"/>
<text text-anchor="middle" x="1206" y="-758.201" font-family="Helvetica,sans-Serif" font-size="10.00"> myEnvironment</text>
</g>
<!-- Node5 -->
<g id="node5" class="node"><title>Node5</title>
<polygon fill="white" stroke="#bfbfbf" points="51.5,-697.701 51.5,-716.701 122.5,-716.701 122.5,-697.701 51.5,-697.701"/>
<text text-anchor="middle" x="87" y="-704.701" font-family="Helvetica,sans-Serif" font-size="10.00">Observable</text>
</g>
<!-- Node5&#45;&gt;Node4 -->
<g id="edge4" class="edge"><title>Node5&#45;&gt;Node4</title>
<path fill="none" stroke="midnightblue" d="M132.637,-711.493C182.066,-716.246 262.658,-723.995 322.457,-729.745"/>
<polygon fill="midnightblue" stroke="midnightblue" points="132.871,-707.999 122.582,-710.526 132.201,-714.967 132.871,-707.999"/>
</g>
<!-- Node6 -->
<g id="node6" class="node"><title>Node6</title>
<polygon fill="white" stroke="#bfbfbf" points="42.5,-823.701 42.5,-842.701 131.5,-842.701 131.5,-823.701 42.5,-823.701"/>
<text text-anchor="middle" x="87" y="-830.701" font-family="Helvetica,sans-Serif" font-size="10.00">Set&lt; Integer &gt;</text>
</g>
<!-- Node6&#45;&gt;Node4 -->
<g id="edge5" class="edge"><title>Node6&#45;&gt;Node4</title>
<path fill="none" stroke="#9a32cd" stroke-dasharray="5,2" d="M141.753,-834.186C188.385,-832.535 255.788,-823.885 304,-791.201 316.245,-782.9 310.318,-772.279 322,-763.201 331.355,-755.931 342.843,-750.643 354.098,-746.814"/>
<polygon fill="#9a32cd" stroke="#9a32cd" points="141.453,-830.693 131.546,-834.448 141.633,-837.69 141.453,-830.693"/>
<text text-anchor="middle" x="248" y="-843.201" font-family="Helvetica,sans-Serif" font-size="10.00"> myTurtleList</text>
<text text-anchor="middle" x="248" y="-832.201" font-family="Helvetica,sans-Serif" font-size="10.00">activeTurtleList</text>
</g>
<!-- Node7 -->
<g id="node7" class="node"><title>Node7</title>
<polygon fill="white" stroke="#bfbfbf" points="0,-774.201 0,-804.201 174,-804.201 174,-774.201 0,-774.201"/>
<text text-anchor="start" x="8" y="-792.201" font-family="Helvetica,sans-Serif" font-size="10.00">Map&lt; String, model.instructions.</text>
<text text-anchor="middle" x="87" y="-781.201" font-family="Helvetica,sans-Serif" font-size="10.00">Instruction &gt;</text>
</g>
<!-- Node7&#45;&gt;Node4 -->
<g id="edge6" class="edge"><title>Node7&#45;&gt;Node4</title>
<path fill="none" stroke="#9a32cd" stroke-dasharray="5,2" d="M184.071,-776.94C221.587,-771.754 264.902,-765.273 304,-758.201 322.299,-754.891 342.419,-750.593 359.492,-746.747"/>
<polygon fill="#9a32cd" stroke="#9a32cd" points="183.592,-773.473 174.16,-778.299 184.543,-780.408 183.592,-773.473"/>
<text text-anchor="middle" x="248" y="-779.201" font-family="Helvetica,sans-Serif" font-size="10.00"> myUserInstructionMap</text>
</g>
<!-- Node8 -->
<g id="node8" class="node"><title>Node8</title>
<polygon fill="white" stroke="#bfbfbf" points="23,-735.701 23,-754.701 151,-754.701 151,-735.701 23,-735.701"/>
<text text-anchor="middle" x="87" y="-742.701" font-family="Helvetica,sans-Serif" font-size="10.00">Map&lt; String, Double &gt;</text>
</g>
<!-- Node8&#45;&gt;Node4 -->
<g id="edge7" class="edge"><title>Node8&#45;&gt;Node4</title>
<path fill="none" stroke="#9a32cd" stroke-dasharray="5,2" d="M161.23,-743.323C209.637,-742.082 273.011,-740.457 322.303,-739.193"/>
<polygon fill="#9a32cd" stroke="#9a32cd" points="161.045,-739.827 151.138,-743.582 161.224,-746.825 161.045,-739.827"/>
<text text-anchor="middle" x="248" y="-746.201" font-family="Helvetica,sans-Serif" font-size="10.00"> myVariableMap</text>
</g>
<!-- Node9&#45;&gt;Node2 -->
<g id="edge8" class="edge"><title>Node9&#45;&gt;Node2</title>
<path fill="none" stroke="#9a32cd" stroke-dasharray="5,2" d="M423.006,-468.833C439.491,-481.646 462.499,-500.775 480,-520.201 489.407,-530.643 486.549,-538.052 498,-546.201 543.86,-578.839 581.424,-539.21 620,-580.201 646.166,-608.006 615.978,-633.011 638,-664.201 652.668,-684.975 678.31,-699.219 697.789,-707.666"/>
<polygon fill="#9a32cd" stroke="#9a32cd" points="425.113,-466.037 415.044,-462.74 420.859,-471.596 425.113,-466.037"/>
<text text-anchor="middle" x="559" y="-583.201" font-family="Helvetica,sans-Serif" font-size="10.00"> myViewUpdater</text>
</g>
<!-- Node9&#45;&gt;Node21 -->
<g id="edge28" class="edge"><title>Node9&#45;&gt;Node21</title>
<path fill="none" stroke="#9a32cd" stroke-dasharray="5,2" d="M461.326,-456.073C521.686,-459.527 608.036,-466.148 620,-476.201 642.295,-494.934 620.316,-516.065 638,-539.201 653.364,-559.301 678.913,-573.314 698.181,-581.687"/>
<polygon fill="#9a32cd" stroke="#9a32cd" points="461.31,-452.566 451.131,-455.505 460.92,-459.555 461.31,-452.566"/>
<text text-anchor="middle" x="559" y="-479.201" font-family="Helvetica,sans-Serif" font-size="10.00"> myViewUpdater</text>
</g>
<!-- Node10 -->
<g id="node10" class="node"><title>Node10</title>
<g id="a_node10"><a xlink:href="../../da/d64/classview_1_1_workspace.html" target="_top" xlink:title="view.Workspace">
<polygon fill="white" stroke="black" points="1264,-246.701 1264,-265.701 1354,-265.701 1354,-246.701 1264,-246.701"/>
<text text-anchor="middle" x="1309" y="-253.701" font-family="Helvetica,sans-Serif" font-size="10.00">view.Workspace</text>
</a>
</g>
</g>
<!-- Node10&#45;&gt;Node9 -->
<g id="edge10" class="edge"><title>Node10&#45;&gt;Node9</title>
<path fill="none" stroke="#9a32cd" stroke-dasharray="5,2" d="M1253.79,-260.827C1251.16,-260.972 1248.55,-261.098 1246,-261.201 1210.47,-262.631 1201.55,-261.645 1166,-261.201 1077.09,-260.09 1047.72,-291.252 966,-256.201 955.602,-251.741 958.453,-242.531 948,-238.201 899.548,-218.131 882.335,-234.808 830,-238.201 744.127,-243.768 717.138,-229.401 638,-263.201 533.998,-307.621 438.227,-411.444 410.218,-443.56"/>
<polygon fill="#9a32cd" stroke="#9a32cd" points="1254.23,-264.307 1264,-260.189 1253.8,-257.32 1254.23,-264.307"/>
<text text-anchor="middle" x="889" y="-241.201" font-family="Helvetica,sans-Serif" font-size="10.00"> myWorkspace</text>
</g>
<!-- Node10&#45;&gt;Node24 -->
<g id="edge31" class="edge"><title>Node10&#45;&gt;Node24</title>
<path fill="none" stroke="#9a32cd" stroke-dasharray="5,2" d="M1364.34,-257.601C1449.6,-259.797 1613.23,-264.012 1692.19,-266.047"/>
<polygon fill="#9a32cd" stroke="#9a32cd" points="1364.18,-254.096 1354.09,-257.337 1363.99,-261.093 1364.18,-254.096"/>
<text text-anchor="middle" x="1520" y="-266.201" font-family="Helvetica,sans-Serif" font-size="10.00"> myWorkspace</text>
</g>
<!-- Node32 -->
<g id="node32" class="node"><title>Node32</title>
<g id="a_node32"><a xlink:href="../../de/d0a/classview_1_1_drawer.html" target="_top" xlink:title="view.Drawer">
<polygon fill="white" stroke="black" points="1483.5,-204.701 1483.5,-223.701 1556.5,-223.701 1556.5,-204.701 1483.5,-204.701"/>
<text text-anchor="middle" x="1520" y="-211.701" font-family="Helvetica,sans-Serif" font-size="10.00">view.Drawer</text>
</a>
</g>
</g>
<!-- Node10&#45;&gt;Node32 -->
<g id="edge45" class="edge"><title>Node10&#45;&gt;Node32</title>
<path fill="none" stroke="#9a32cd" stroke-dasharray="5,2" d="M1361.08,-244.523C1364.77,-243.723 1368.44,-242.941 1372,-242.201 1409.9,-234.315 1453.48,-226.124 1483.29,-220.654"/>
<polygon fill="#9a32cd" stroke="#9a32cd" points="1360.33,-241.105 1351.31,-246.668 1361.83,-247.942 1360.33,-241.105"/>
<text text-anchor="middle" x="1407" y="-245.201" font-family="Helvetica,sans-Serif" font-size="10.00"> myWorkspace</text>
</g>
<!-- Node11 -->
<g id="node11" class="node"><title>Node11</title>
<polygon fill="white" stroke="#bfbfbf" points="1023.5,-139.701 1023.5,-158.701 1090.5,-158.701 1090.5,-139.701 1023.5,-139.701"/>
<text text-anchor="middle" x="1057" y="-146.701" font-family="Helvetica,sans-Serif" font-size="10.00">StackPane</text>
</g>
<!-- Node11&#45;&gt;Node10 -->
<g id="edge11" class="edge"><title>Node11&#45;&gt;Node10</title>
<path fill="none" stroke="midnightblue" d="M1100.65,-155.534C1140.81,-163.052 1201.31,-178.508 1246,-208.201 1255.42,-214.462 1255.29,-218.983 1264,-226.201 1272.97,-233.633 1283.77,-241.017 1292.42,-246.599"/>
<polygon fill="midnightblue" stroke="midnightblue" points="1101.11,-152.061 1090.65,-153.747 1099.88,-158.951 1101.11,-152.061"/>
</g>
<!-- Node12 -->
<g id="node12" class="node"><title>Node12</title>
<polygon fill="white" stroke="#bfbfbf" points="678.5,-100.701 678.5,-119.701 771.5,-119.701 771.5,-100.701 678.5,-100.701"/>
<text text-anchor="middle" x="725" y="-107.701" font-family="Helvetica,sans-Serif" font-size="10.00">ResourceBundle</text>
</g>
<!-- Node12&#45;&gt;Node10 -->
<g id="edge12" class="edge"><title>Node12&#45;&gt;Node10</title>
<path fill="none" stroke="#9a32cd" stroke-dasharray="5,2" d="M781.607,-103.604C863.334,-95.6418 1020.05,-86.9994 1148,-119.201 1195.42,-131.135 1214.41,-131.88 1246,-169.201 1263.16,-189.478 1248.15,-204.878 1264,-226.201 1270.29,-234.66 1279.7,-241.535 1288.21,-246.558"/>
<polygon fill="#9a32cd" stroke="#9a32cd" points="781.138,-100.134 771.54,-104.619 781.84,-107.098 781.138,-100.134"/>
<text text-anchor="middle" x="1057" y="-122.201" font-family="Helvetica,sans-Serif" font-size="10.00"> myResources</text>
</g>
<!-- Node12&#45;&gt;Node17 -->
<g id="edge21" class="edge"><title>Node12&#45;&gt;Node17</title>
<path fill="none" stroke="#9a32cd" stroke-dasharray="5,2" d="M735.555,-129.028C751.456,-158.687 785.997,-216.48 830,-251.201 874.714,-286.484 911.051,-257.853 948,-301.201 969.677,-326.632 947.61,-346.3 966,-374.201 983.675,-401.017 1015.64,-421.382 1036.33,-432.556"/>
<polygon fill="#9a32cd" stroke="#9a32cd" points="738.46,-127.031 730.723,-119.794 732.258,-130.277 738.46,-127.031"/>
<text text-anchor="middle" x="889" y="-304.201" font-family="Helvetica,sans-Serif" font-size="10.00"> myResources</text>
</g>
<!-- Node12&#45;&gt;Node24 -->
<g id="edge33" class="edge"><title>Node12&#45;&gt;Node24</title>
<path fill="none" stroke="#9a32cd" stroke-dasharray="5,2" d="M781.635,-99.4002C797.222,-96.8401 814.219,-94.4823 830,-93.201 1165.3,-65.9775 1254.54,-110.09 1580,-195.201 1622.05,-206.198 1634.86,-203.295 1674,-222.201 1693.85,-231.789 1714.12,-247.56 1726.13,-257.658"/>
<polygon fill="#9a32cd" stroke="#9a32cd" points="780.895,-95.9758 771.623,-101.102 782.068,-102.877 780.895,-95.9758"/>
<text text-anchor="middle" x="1309" y="-137.201" font-family="Helvetica,sans-Serif" font-size="10.00"> myResources</text>
</g>
<!-- Node13 -->
<g id="node13" class="node"><title>Node13</title>
<g id="a_node13"><a xlink:href="../../d8/df7/classview_1_1_turtle_view.html" target="_top" xlink:title="view.TurtleView">
<polygon fill="white" stroke="black" points="1014,-303.701 1014,-322.701 1100,-322.701 1100,-303.701 1014,-303.701"/>
<text text-anchor="middle" x="1057" y="-310.701" font-family="Helvetica,sans-Serif" font-size="10.00">view.TurtleView</text>
</a>
</g>
</g>
<!-- Node13&#45;&gt;Node10 -->
<g id="edge13" class="edge"><title>Node13&#45;&gt;Node10</title>
<path fill="none" stroke="#9a32cd" stroke-dasharray="5,2" d="M1110.41,-311.573C1148.74,-309.176 1201.58,-303.335 1246,-289.201 1263.2,-283.729 1281.23,-273.555 1293.39,-265.944"/>
<polygon fill="#9a32cd" stroke="#9a32cd" points="1109.79,-308.103 1100,-312.162 1110.19,-315.092 1109.79,-308.103"/>
<text text-anchor="middle" x="1206" y="-309.201" font-family="Helvetica,sans-Serif" font-size="10.00"> myActiveTurtle</text>
</g>
<!-- Node14 -->
<g id="node14" class="node"><title>Node14</title>
<polygon fill="white" stroke="#bfbfbf" points="691,-272.701 691,-291.701 759,-291.701 759,-272.701 691,-272.701"/>
<text text-anchor="middle" x="725" y="-279.701" font-family="Helvetica,sans-Serif" font-size="10.00">ImageView</text>
</g>
<!-- Node14&#45;&gt;Node13 -->
<g id="edge14" class="edge"><title>Node14&#45;&gt;Node13</title>
<path fill="none" stroke="midnightblue" d="M769.251,-286.264C832.857,-292.239 950.88,-303.326 1013.85,-309.242"/>
<polygon fill="midnightblue" stroke="midnightblue" points="769.436,-282.766 759.153,-285.315 768.781,-289.735 769.436,-282.766"/>
</g>
<!-- Node15 -->
<g id="node15" class="node"><title>Node15</title>
<polygon fill="white" stroke="#bfbfbf" points="702,-310.701 702,-329.701 748,-329.701 748,-310.701 702,-310.701"/>
<text text-anchor="middle" x="725" y="-317.701" font-family="Helvetica,sans-Serif" font-size="10.00">Group</text>
</g>
<!-- Node15&#45;&gt;Node10 -->
<g id="edge17" class="edge"><title>Node15&#45;&gt;Node10</title>
<path fill="none" stroke="#9a32cd" stroke-dasharray="5,2" d="M758.299,-325.289C778.782,-328.255 805.874,-331.699 830,-333.201 865.861,-335.434 1110.56,-334.39 1148,-332.201 1191.75,-329.643 1206.73,-340.674 1246,-321.201 1271.71,-308.452 1292.49,-280.45 1302.15,-265.708"/>
<polygon fill="#9a32cd" stroke="#9a32cd" points="758.647,-321.803 748.241,-323.795 757.618,-328.727 758.647,-321.803"/>
<text text-anchor="middle" x="1057" y="-338.201" font-family="Helvetica,sans-Serif" font-size="10.00"> myLines</text>
</g>
<!-- Node15&#45;&gt;Node13 -->
<g id="edge15" class="edge"><title>Node15&#45;&gt;Node13</title>
<path fill="none" stroke="#9a32cd" stroke-dasharray="5,2" d="M758.199,-319.518C818.199,-318.245 947.061,-315.512 1013.88,-314.094"/>
<polygon fill="#9a32cd" stroke="#9a32cd" points="758.088,-316.019 748.165,-319.731 758.237,-323.018 758.088,-316.019"/>
<text text-anchor="middle" x="889" y="-321.201" font-family="Helvetica,sans-Serif" font-size="10.00"> myStamps</text>
</g>
<!-- Node16 -->
<g id="node16" class="node"><title>Node16</title>
<polygon fill="white" stroke="#bfbfbf" points="989,-178.201 989,-208.201 1125,-208.201 1125,-178.201 989,-178.201"/>
<text text-anchor="start" x="997" y="-196.201" font-family="Helvetica,sans-Serif" font-size="10.00">Map&lt; Integer, view.Turtle</text>
<text text-anchor="middle" x="1057" y="-185.201" font-family="Helvetica,sans-Serif" font-size="10.00">View &gt;</text>
</g>
<!-- Node16&#45;&gt;Node10 -->
<g id="edge16" class="edge"><title>Node16&#45;&gt;Node10</title>
<path fill="none" stroke="#9a32cd" stroke-dasharray="5,2" d="M1135.33,-204.78C1169.63,-210.844 1210.23,-219.305 1246,-230.201 1260.4,-234.589 1276.03,-241.156 1288,-246.593"/>
<polygon fill="#9a32cd" stroke="#9a32cd" points="1135.82,-201.313 1125.37,-203.055 1134.63,-208.21 1135.82,-201.313"/>
<text text-anchor="middle" x="1206" y="-233.201" font-family="Helvetica,sans-Serif" font-size="10.00"> myTurtles</text>
</g>
<!-- Node17&#45;&gt;Node9 -->
<g id="edge51" class="edge"><title>Node17&#45;&gt;Node9</title>
<path fill="none" stroke="#9a32cd" stroke-dasharray="5,2" d="M1008.09,-443.007C887.615,-445.033 572.966,-450.325 451.156,-452.374"/>
<polygon fill="#9a32cd" stroke="#9a32cd" points="1008.18,-446.506 1018.12,-442.838 1008.07,-439.507 1008.18,-446.506"/>
<text text-anchor="middle" x="725" y="-452.201" font-family="Helvetica,sans-Serif" font-size="10.00"> mySidebar</text>
</g>
<!-- Node17&#45;&gt;Node10 -->
<g id="edge18" class="edge"><title>Node17&#45;&gt;Node10</title>
<path fill="none" stroke="#9a32cd" stroke-dasharray="5,2" d="M1093.25,-429.077C1114.34,-421.24 1141.69,-411.109 1166,-402.201 1201.51,-389.189 1217.46,-398.014 1246,-373.201 1280.87,-342.885 1299.2,-288.048 1305.47,-265.884"/>
<polygon fill="#9a32cd" stroke="#9a32cd" points="1091.88,-425.849 1083.73,-432.614 1094.32,-432.41 1091.88,-425.849"/>
<text text-anchor="middle" x="1206" y="-405.201" font-family="Helvetica,sans-Serif" font-size="10.00"> mySidebar</text>
</g>
<!-- Node17&#45;&gt;Node24 -->
<g id="edge47" class="edge"><title>Node17&#45;&gt;Node24</title>
<path fill="none" stroke="#9a32cd" stroke-dasharray="5,2" d="M1106.05,-436.62C1144.24,-431.745 1198.88,-423.79 1246,-413.201 1425.61,-372.841 1635.78,-302.292 1709.66,-276.764"/>
<polygon fill="#9a32cd" stroke="#9a32cd" points="1105.22,-433.196 1095.73,-437.913 1106.09,-440.142 1105.22,-433.196"/>
<text text-anchor="middle" x="1407" y="-384.201" font-family="Helvetica,sans-Serif" font-size="10.00"> mySidebar</text>
</g>
<!-- Node26 -->
<g id="node26" class="node"><title>Node26</title>
<g id="a_node26"><a xlink:href="../../da/dc8/classview_1_1_editor.html" target="_top" xlink:title="view.Editor">
<polygon fill="white" stroke="black" points="1275.5,-504.701 1275.5,-523.701 1342.5,-523.701 1342.5,-504.701 1275.5,-504.701"/>
<text text-anchor="middle" x="1309" y="-511.701" font-family="Helvetica,sans-Serif" font-size="10.00">view.Editor</text>
</a>
</g>
</g>
<!-- Node17&#45;&gt;Node26 -->
<g id="edge39" class="edge"><title>Node17&#45;&gt;Node26</title>
<path fill="none" stroke="#9a32cd" stroke-dasharray="5,2" d="M1105.68,-440.158C1144.85,-440.181 1201.01,-444.191 1246,-463.201 1268.08,-472.532 1288.48,-492.347 1299.49,-504.345"/>
<polygon fill="#9a32cd" stroke="#9a32cd" points="1105.58,-436.659 1095.6,-440.24 1105.63,-443.658 1105.58,-436.659"/>
<text text-anchor="middle" x="1206" y="-466.201" font-family="Helvetica,sans-Serif" font-size="10.00"> mySidebar</text>
</g>
<!-- Node18 -->
<g id="node18" class="node"><title>Node18</title>
<polygon fill="white" stroke="#bfbfbf" points="704.5,-386.701 704.5,-405.701 745.5,-405.701 745.5,-386.701 704.5,-386.701"/>
<text text-anchor="middle" x="725" y="-393.701" font-family="Helvetica,sans-Serif" font-size="10.00">VBox</text>
</g>
<!-- Node18&#45;&gt;Node17 -->
<g id="edge19" class="edge"><title>Node18&#45;&gt;Node17</title>
<path fill="none" stroke="midnightblue" d="M755.63,-400.331C815.758,-408.713 952.004,-427.705 1018.32,-436.949"/>
<polygon fill="midnightblue" stroke="midnightblue" points="756.042,-396.855 745.655,-398.941 755.076,-403.788 756.042,-396.855"/>
</g>
<!-- Node19 -->
<g id="node19" class="node"><title>Node19</title>
<polygon fill="white" stroke="#bfbfbf" points="638.5,-348.701 638.5,-367.701 811.5,-367.701 811.5,-348.701 638.5,-348.701"/>
<text text-anchor="middle" x="725" y="-355.701" font-family="Helvetica,sans-Serif" font-size="10.00">ObservableList&lt; view.Property &gt;</text>
</g>
<!-- Node19&#45;&gt;Node17 -->
<g id="edge20" class="edge"><title>Node19&#45;&gt;Node17</title>
<path fill="none" stroke="#9a32cd" stroke-dasharray="5,2" d="M819.065,-369.199C859.217,-375.204 906.415,-383.968 948,-396.201 980.456,-405.748 1016.23,-422.256 1037.37,-432.682"/>
<polygon fill="#9a32cd" stroke="#9a32cd" points="819.417,-365.713 809.016,-367.731 818.405,-372.64 819.417,-365.713"/>
<text text-anchor="middle" x="889" y="-399.201" font-family="Helvetica,sans-Serif" font-size="10.00"> myVariablesList</text>
</g>
<!-- Node20 -->
<g id="node20" class="node"><title>Node20</title>
<polygon fill="white" stroke="#bfbfbf" points="651,-510.701 651,-529.701 799,-529.701 799,-510.701 651,-510.701"/>
<text text-anchor="middle" x="725" y="-517.701" font-family="Helvetica,sans-Serif" font-size="10.00">TableView&lt; view.Property &gt;</text>
</g>
<!-- Node20&#45;&gt;Node17 -->
<g id="edge23" class="edge"><title>Node20&#45;&gt;Node17</title>
<path fill="none" stroke="#9a32cd" stroke-dasharray="5,2" d="M809.215,-518.296C862.331,-515.678 925.324,-509.535 948,-495.201 960.823,-487.095 953.814,-475.235 966,-466.201 981.069,-455.029 1000.96,-449.054 1018.21,-445.86"/>
<polygon fill="#9a32cd" stroke="#9a32cd" points="808.911,-514.807 799.081,-518.76 809.231,-521.799 808.911,-514.807"/>
<text text-anchor="middle" x="889" y="-531.201" font-family="Helvetica,sans-Serif" font-size="10.00"> myTurtlePropertiesTable</text>
<text text-anchor="middle" x="889" y="-520.201" font-family="Helvetica,sans-Serif" font-size="10.00">myVariablesTable</text>
</g>
<!-- Node21&#45;&gt;Node17 -->
<g id="edge24" class="edge"><title>Node21&#45;&gt;Node17</title>
<path fill="none" stroke="#9a32cd" stroke-dasharray="5,2" d="M773.976,-579.208C791.56,-574.934 811.646,-570.194 830,-566.201 882.21,-554.843 909.523,-580.275 948,-543.201 973.308,-518.816 941.536,-491.434 966,-466.201 979.508,-452.269 1000.13,-446.124 1018.22,-443.528"/>
<polygon fill="#9a32cd" stroke="#9a32cd" points="772.826,-575.886 763.944,-581.661 774.489,-582.686 772.826,-575.886"/>
<text text-anchor="middle" x="889" y="-569.201" font-family="Helvetica,sans-Serif" font-size="10.00"> myParser</text>
</g>
<!-- Node21&#45;&gt;Node24 -->
<g id="edge42" class="edge"><title>Node21&#45;&gt;Node24</title>
<path fill="none" stroke="#9a32cd" stroke-dasharray="5,2" d="M775.3,-599.876C792.567,-602.75 812.111,-605.82 830,-608.201 890.233,-616.217 905.316,-619.086 966,-622.201 1241.44,-636.341 1322.21,-630.241 1580,-532.201 1625.03,-515.074 1644.09,-515.973 1674,-478.201 1725.03,-413.763 1734.78,-308.734 1736.6,-276.745"/>
<polygon fill="#9a32cd" stroke="#9a32cd" points="775.868,-596.422 765.426,-598.212 774.706,-603.325 775.868,-596.422"/>
<text text-anchor="middle" x="1309" y="-625.201" font-family="Helvetica,sans-Serif" font-size="10.00"> myParser</text>
</g>
<!-- Node21&#45;&gt;Node26 -->
<g id="edge37" class="edge"><title>Node21&#45;&gt;Node26</title>
<path fill="none" stroke="#9a32cd" stroke-dasharray="5,2" d="M771.723,-602.806C821.193,-612.407 899.484,-618.585 948,-577.201 975.727,-553.55 937.542,-519.968 966,-497.201 1029.16,-446.67 1067.22,-492.922 1148,-497.201 1192.21,-499.543 1243.01,-505.502 1275.29,-509.701"/>
<polygon fill="#9a32cd" stroke="#9a32cd" points="772.429,-599.378 761.928,-600.787 771.016,-606.234 772.429,-599.378"/>
<text text-anchor="middle" x="1057" y="-500.201" font-family="Helvetica,sans-Serif" font-size="10.00"> myParser</text>
</g>
<!-- Node22 -->
<g id="node22" class="node"><title>Node22</title>
<polygon fill="white" stroke="#bfbfbf" points="345,-530.201 345,-560.201 457,-560.201 457,-530.201 345,-530.201"/>
<text text-anchor="start" x="353" y="-548.201" font-family="Helvetica,sans-Serif" font-size="10.00">List&lt; Entry&lt; String,</text>
<text text-anchor="middle" x="401" y="-537.201" font-family="Helvetica,sans-Serif" font-size="10.00"> Pattern &gt; &gt;</text>
</g>
<!-- Node22&#45;&gt;Node21 -->
<g id="edge26" class="edge"><title>Node22&#45;&gt;Node21</title>
<path fill="none" stroke="#9a32cd" stroke-dasharray="5,2" d="M467.05,-532.48C510.912,-526.259 569.728,-522.527 620,-535.201 655.593,-544.175 692.258,-567.978 711.094,-581.485"/>
<polygon fill="#9a32cd" stroke="#9a32cd" points="466.455,-529.03 457.083,-533.973 467.491,-535.953 466.455,-529.03"/>
<text text-anchor="middle" x="559" y="-538.201" font-family="Helvetica,sans-Serif" font-size="10.00"> myPatterns</text>
</g>
<!-- Node23 -->
<g id="node23" class="node"><title>Node23</title>
<polygon fill="white" stroke="#bfbfbf" points="340,-592.701 340,-611.701 462,-611.701 462,-592.701 340,-592.701"/>
<text text-anchor="middle" x="401" y="-599.701" font-family="Helvetica,sans-Serif" font-size="10.00">Map&lt; String, String &gt;</text>
</g>
<!-- Node23&#45;&gt;Node21 -->
<g id="edge29" class="edge"><title>Node23&#45;&gt;Node21</title>
<path fill="none" stroke="#9a32cd" stroke-dasharray="5,2" d="M472.39,-599.796C537.597,-597.569 632.209,-594.337 684.877,-592.538"/>
<polygon fill="#9a32cd" stroke="#9a32cd" points="472.063,-596.305 462.188,-600.145 472.302,-603.301 472.063,-596.305"/>
<text text-anchor="middle" x="559" y="-602.201" font-family="Helvetica,sans-Serif" font-size="10.00"> myCommandMap</text>
</g>
<!-- Node24&#45;&gt;Node21 -->
<g id="edge30" class="edge"><title>Node24&#45;&gt;Node21</title>
<path fill="none" stroke="#9a32cd" stroke-dasharray="5,2" d="M1736.55,-286.876C1734.52,-357.057 1724.03,-593.725 1674,-646.201 1626,-696.549 1590.56,-679.201 1521,-679.201 1056,-679.201 1056,-679.201 1056,-679.201 954.991,-679.201 918.338,-704.183 830,-655.201 818.648,-648.906 822.127,-640.321 812,-632.201 794.707,-618.337 771.955,-607.753 754.197,-600.814"/>
<polygon fill="#9a32cd" stroke="#9a32cd" points="1740.05,-286.851 1736.81,-276.763 1733.05,-286.668 1740.05,-286.851"/>
<text text-anchor="middle" x="1309" y="-682.201" font-family="Helvetica,sans-Serif" font-size="10.00"> mySLogoView</text>
</g>
<!-- Node25 -->
<g id="node25" class="node"><title>Node25</title>
<polygon fill="white" stroke="#bfbfbf" points="1497.5,-76.701 1497.5,-95.701 1542.5,-95.701 1542.5,-76.701 1497.5,-76.701"/>
<text text-anchor="middle" x="1520" y="-83.701" font-family="Helvetica,sans-Serif" font-size="10.00">Stage</text>
</g>
<!-- Node25&#45;&gt;Node24 -->
<g id="edge32" class="edge"><title>Node25&#45;&gt;Node24</title>
<path fill="none" stroke="#9a32cd" stroke-dasharray="5,2" d="M1552.71,-79.7813C1586.31,-74.8833 1639.2,-72.8347 1674,-99.201 1726.64,-139.082 1735.3,-228.123 1736.72,-257.553"/>
<polygon fill="#9a32cd" stroke="#9a32cd" points="1551.84,-76.3774 1542.53,-81.4392 1552.97,-83.2864 1551.84,-76.3774"/>
<text text-anchor="middle" x="1636" y="-102.201" font-family="Helvetica,sans-Serif" font-size="10.00"> myStage</text>
</g>
<!-- Node26&#45;&gt;Node24 -->
<g id="edge34" class="edge"><title>Node26&#45;&gt;Node24</title>
<path fill="none" stroke="#9a32cd" stroke-dasharray="5,2" d="M1353.11,-518.167C1427.73,-522.58 1581.81,-520.548 1674,-441.201 1725.62,-396.77 1734.95,-306.6 1736.63,-276.917"/>
<polygon fill="#9a32cd" stroke="#9a32cd" points="1352.9,-514.645 1342.69,-517.477 1352.44,-521.63 1352.9,-514.645"/>
<text text-anchor="middle" x="1520" y="-520.201" font-family="Helvetica,sans-Serif" font-size="10.00"> myEditor</text>
</g>
<!-- Node27 -->
<g id="node27" class="node"><title>Node27</title>
<polygon fill="white" stroke="#bfbfbf" points="1036,-593.701 1036,-612.701 1078,-612.701 1078,-593.701 1036,-593.701"/>
<text text-anchor="middle" x="1057" y="-600.701" font-family="Helvetica,sans-Serif" font-size="10.00">HBox</text>
</g>
<!-- Node27&#45;&gt;Node26 -->
<g id="edge35" class="edge"><title>Node27&#45;&gt;Node26</title>
<path fill="none" stroke="midnightblue" d="M1088.02,-602.44C1126.45,-600.412 1194.23,-593.23 1246,-568.201 1268.36,-557.391 1288.97,-536.329 1299.87,-523.946"/>
<polygon fill="midnightblue" stroke="midnightblue" points="1087.84,-598.945 1078,-602.886 1088.15,-605.938 1087.84,-598.945"/>
</g>
<!-- Node28 -->
<g id="node28" class="node"><title>Node28</title>
<polygon fill="white" stroke="#bfbfbf" points="1032.5,-555.701 1032.5,-574.701 1081.5,-574.701 1081.5,-555.701 1032.5,-555.701"/>
<text text-anchor="middle" x="1057" y="-562.701" font-family="Helvetica,sans-Serif" font-size="10.00">Button</text>
</g>
<!-- Node28&#45;&gt;Node26 -->
<g id="edge36" class="edge"><title>Node28&#45;&gt;Node26</title>
<path fill="none" stroke="#9a32cd" stroke-dasharray="5,2" d="M1091.77,-562.301C1129.72,-558.552 1192.98,-550.827 1246,-537.201 1259.45,-533.743 1274.04,-528.416 1285.68,-523.759"/>
<polygon fill="#9a32cd" stroke="#9a32cd" points="1091.38,-558.821 1081.76,-563.255 1092.05,-565.79 1091.38,-558.821"/>
<text text-anchor="middle" x="1206" y="-556.201" font-family="Helvetica,sans-Serif" font-size="10.00"> runButton</text>
</g>
<!-- Node29 -->
<g id="node29" class="node"><title>Node29</title>
<polygon fill="white" stroke="#bfbfbf" points="1028,-517.701 1028,-536.701 1086,-536.701 1086,-517.701 1028,-517.701"/>
<text text-anchor="middle" x="1057" y="-524.701" font-family="Helvetica,sans-Serif" font-size="10.00">TextArea</text>
</g>
<!-- Node29&#45;&gt;Node26 -->
<g id="edge38" class="edge"><title>Node29&#45;&gt;Node26</title>
<path fill="none" stroke="#9a32cd" stroke-dasharray="5,2" d="M1096.37,-525.206C1145.3,-522.662 1229.07,-518.306 1275.17,-515.908"/>
<polygon fill="#9a32cd" stroke="#9a32cd" points="1096,-521.72 1086.19,-525.735 1096.36,-528.711 1096,-521.72"/>
<text text-anchor="middle" x="1206" y="-525.201" font-family="Helvetica,sans-Serif" font-size="10.00"> textEditor</text>
</g>
<!-- Node30 -->
<g id="node30" class="node"><title>Node30</title>
<polygon fill="white" stroke="#bfbfbf" points="1460.5,-38.701 1460.5,-57.701 1579.5,-57.701 1579.5,-38.701 1460.5,-38.701"/>
<text text-anchor="middle" x="1520" y="-45.701" font-family="Helvetica,sans-Serif" font-size="10.00">Map&lt; String, Node &gt;</text>
</g>
<!-- Node30&#45;&gt;Node24 -->
<g id="edge40" class="edge"><title>Node30&#45;&gt;Node24</title>
<path fill="none" stroke="#9a32cd" stroke-dasharray="5,2" d="M1589.9,-38.6316C1618.73,-38.3543 1650.85,-43.402 1674,-62.201 1736.44,-112.892 1738.36,-223.984 1737.44,-257.463"/>
<polygon fill="#9a32cd" stroke="#9a32cd" points="1589.74,-35.1345 1579.85,-38.938 1589.96,-42.1313 1589.74,-35.1345"/>
<text text-anchor="middle" x="1636" y="-65.201" font-family="Helvetica,sans-Serif" font-size="10.00"> variables</text>
</g>
<!-- Node31 -->
<g id="node31" class="node"><title>Node31</title>
<polygon fill="white" stroke="#bfbfbf" points="1479.5,-0.701017 1479.5,-19.701 1560.5,-19.701 1560.5,-0.701017 1479.5,-0.701017"/>
<text text-anchor="middle" x="1520" y="-7.70102" font-family="Helvetica,sans-Serif" font-size="10.00">Dimension2D</text>
</g>
<!-- Node31&#45;&gt;Node24 -->
<g id="edge43" class="edge"><title>Node31&#45;&gt;Node24</title>
<path fill="none" stroke="#9a32cd" stroke-dasharray="5,2" d="M1570.95,-1.16707C1603.92,1.8236 1646.03,-0.437917 1674,-24.201 1711.04,-55.6616 1731.35,-216.701 1735.98,-257.697"/>
<polygon fill="#9a32cd" stroke="#9a32cd" points="1570.16,2.26706 1560.6,-2.30202 1570.92,-4.69125 1570.16,2.26706"/>
<text text-anchor="middle" x="1636" y="-27.201" font-family="Helvetica,sans-Serif" font-size="10.00"> myDimensions</text>
</g>
<!-- Node32&#45;&gt;Node9 -->
<g id="edge50" class="edge"><title>Node32&#45;&gt;Node9</title>
<path fill="none" stroke="#9a32cd" stroke-dasharray="5,2" d="M1480.62,-201.301C1473.75,-198.959 1466.66,-196.523 1460,-194.201 1320.9,-145.661 1293.15,-107.464 1148,-82.201 924.656,-43.328 839.813,12.0724 638,-91.201 486.06,-168.953 417.792,-394.398 404.474,-443.631"/>
<polygon fill="#9a32cd" stroke="#9a32cd" points="1479.86,-204.74 1490.46,-204.639 1482.11,-198.111 1479.86,-204.74"/>
<text text-anchor="middle" x="1057" y="-85.201" font-family="Helvetica,sans-Serif" font-size="10.00"> myDrawer</text>
</g>
<!-- Node32&#45;&gt;Node24 -->
<g id="edge44" class="edge"><title>Node32&#45;&gt;Node24</title>
<path fill="none" stroke="#9a32cd" stroke-dasharray="5,2" d="M1566.69,-220.158C1597.39,-224.744 1638.55,-232.032 1674,-242.201 1688.36,-246.322 1703.98,-252.507 1716.07,-257.694"/>
<polygon fill="#9a32cd" stroke="#9a32cd" points="1567.1,-216.681 1556.7,-218.705 1566.09,-223.608 1567.1,-216.681"/>
<text text-anchor="middle" x="1636" y="-245.201" font-family="Helvetica,sans-Serif" font-size="10.00"> drawer</text>
</g>
<!-- Node33 -->
<g id="node33" class="node"><title>Node33</title>
<polygon fill="white" stroke="#bfbfbf" points="1288.5,-197.701 1288.5,-216.701 1329.5,-216.701 1329.5,-197.701 1288.5,-197.701"/>
<text text-anchor="middle" x="1309" y="-204.701" font-family="Helvetica,sans-Serif" font-size="10.00">Color</text>
</g>
<!-- Node33&#45;&gt;Node32 -->
<g id="edge46" class="edge"><title>Node33&#45;&gt;Node32</title>
<path fill="none" stroke="#9a32cd" stroke-dasharray="5,2" d="M1339.93,-206.83C1366.7,-206.64 1406.98,-206.706 1442,-208.201 1455.53,-208.779 1470.37,-209.834 1483.38,-210.901"/>
<polygon fill="#9a32cd" stroke="#9a32cd" points="1339.66,-203.332 1329.69,-206.92 1339.72,-210.332 1339.66,-203.332"/>
<text text-anchor="middle" x="1407" y="-211.201" font-family="Helvetica,sans-Serif" font-size="10.00"> myColor</text>
</g>
<!-- Node34 -->
<g id="node34" class="node"><title>Node34</title>
<polygon fill="white" stroke="#bfbfbf" points="656,-471.701 656,-490.701 794,-490.701 794,-471.701 656,-471.701"/>
<text text-anchor="middle" x="725" y="-478.701" font-family="Helvetica,sans-Serif" font-size="10.00">ObservableList&lt; String &gt;</text>
</g>
<!-- Node34&#45;&gt;Node17 -->
<g id="edge48" class="edge"><title>Node34&#45;&gt;Node17</title>
<path fill="none" stroke="#9a32cd" stroke-dasharray="5,2" d="M804.564,-471.916C872.162,-463.927 966.729,-452.751 1018.49,-446.634"/>
<polygon fill="#9a32cd" stroke="#9a32cd" points="803.896,-468.471 794.376,-473.12 804.718,-475.422 803.896,-468.471"/>
<text text-anchor="middle" x="889" y="-483.201" font-family="Helvetica,sans-Serif" font-size="10.00"> myCommandItems</text>
<text text-anchor="middle" x="889" y="-472.201" font-family="Helvetica,sans-Serif" font-size="10.00">myHistoryItems</text>
</g>
<!-- Node35 -->
<g id="node35" class="node"><title>Node35</title>
<polygon fill="white" stroke="#bfbfbf" points="1025.5,-227.701 1025.5,-246.701 1088.5,-246.701 1088.5,-227.701 1025.5,-227.701"/>
<text text-anchor="middle" x="1057" y="-234.701" font-family="Helvetica,sans-Serif" font-size="10.00">Rectangle</text>
</g>
<!-- Node35&#45;&gt;Node10 -->
<g id="edge49" class="edge"><title>Node35&#45;&gt;Node10</title>
<path fill="none" stroke="#9a32cd" stroke-dasharray="5,2" d="M1098.81,-239.699C1136.91,-242.108 1195.34,-245.999 1246,-250.201 1251.82,-250.684 1257.94,-251.23 1263.98,-251.791"/>
<polygon fill="#9a32cd" stroke="#9a32cd" points="1098.83,-236.193 1088.63,-239.06 1098.39,-243.18 1098.83,-236.193"/>
<text text-anchor="middle" x="1206" y="-253.201" font-family="Helvetica,sans-Serif" font-size="10.00"> myBackground</text>
</g>
<!-- Node36 -->
<g id="node36" class="node"><title>Node36</title>
<polygon fill="white" stroke="#bfbfbf" points="333,-773.201 333,-803.201 469,-803.201 469,-773.201 333,-773.201"/>
<text text-anchor="start" x="341" y="-791.201" font-family="Helvetica,sans-Serif" font-size="10.00">List&lt; model.instructions.</text>
<text text-anchor="middle" x="401" y="-780.201" font-family="Helvetica,sans-Serif" font-size="10.00">Instruction &gt;</text>
</g>
<!-- Node36&#45;&gt;Node2 -->
<g id="edge52" class="edge"><title>Node36&#45;&gt;Node2</title>
<path fill="none" stroke="#9a32cd" stroke-dasharray="5,2" d="M478.894,-774.36C520.763,-766.491 573.392,-756.058 620,-745.201 643.856,-739.644 670.53,-732.442 690.891,-726.734"/>
<polygon fill="#9a32cd" stroke="#9a32cd" points="478.227,-770.924 469.04,-776.202 479.513,-777.805 478.227,-770.924"/>
<text text-anchor="middle" x="559" y="-773.201" font-family="Helvetica,sans-Serif" font-size="10.00"> myDependencies</text>
</g>
</g>
</svg>
        <g id="navigator" transform="translate(0 0)" fill="#404254">
                <rect fill="#f2f5e9" fill-opacity="0.5" stroke="#606060" stroke-width=".5" x="0" y="0" width="60" height="60"/>
                <use id="zoomplus" xlink:href="#zoomPlus" x="17" y="9" onmousedown="handleZoom(evt,'in')"/>
                <use id="zoomminus" xlink:href="#zoomMin" x="42" y="9" onmousedown="handleZoom(evt,'out')"/>
                <use id="reset" xlink:href="#resetDef" x="30" y="36" onmousedown="handleReset()"/>
                <g id="arrowUp" xlink:href="#dirArrow" transform="translate(30 24)" onmousedown="handlePan(0,-1)">
                  <use xlink:href="#rim" fill="#404040">
                        <set attributeName="fill" to="#808080" begin="arrowUp.mouseover" end="arrowUp.mouseout"/>
                  </use>
                  <path fill="none" stroke="white" stroke-width="1.5" d="M0,-3.0v7 M-2.5,-0.5L0,-3.0L2.5,-0.5"/>
                </g>
                <g id="arrowRight" xlink:href="#dirArrow" transform="rotate(90) translate(36 -43)" onmousedown="handlePan(1,0)">
                  <use xlink:href="#rim" fill="#404040">
                        <set attributeName="fill" to="#808080" begin="arrowRight.mouseover" end="arrowRight.mouseout"/>
                  </use>
                  <path fill="none" stroke="white" stroke-width="1.5" d="M0,-3.0v7 M-2.5,-0.5L0,-3.0L2.5,-0.5"/>
                </g>
                <g id="arrowDown" xlink:href="#dirArrow" transform="rotate(180) translate(-30 -48)" onmousedown="handlePan(0,1)">
                  <use xlink:href="#rim" fill="#404040">
                        <set attributeName="fill" to="#808080" begin="arrowDown.mouseover" end="arrowDown.mouseout"/>
                  </use>
                  <path fill="none" stroke="white" stroke-width="1.5" d="M0,-3.0v7 M-2.5,-0.5L0,-3.0L2.5,-0.5"/>
                </g>
                <g id="arrowLeft" xlink:href="#dirArrow" transform="rotate(270) translate(-36 17)" onmousedown="handlePan(-1,0)">
                  <use xlink:href="#rim" fill="#404040">
                        <set attributeName="fill" to="#808080" begin="arrowLeft.mouseover" end="arrowLeft.mouseout"/>
                  </use>
                  <path fill="none" stroke="white" stroke-width="1.5" d="M0,-3.0v7 M-2.5,-0.5L0,-3.0L2.5,-0.5"/>
                </g>
        </g>
        <svg viewBox="0 0 15 15" width="100%" height="30px" preserveAspectRatio="xMaxYMin meet">
         <g id="arrow_out" transform="scale(0.3 0.3)">
          <a xlink:href="classmodel_1_1instructions_1_1_math_instruction__coll__graph_org.svg" target="_base">
           <rect id="button" ry="5" rx="5" y="6" x="6" height="38" width="38"
                fill="#f2f5e9" fill-opacity="0.5" stroke="#606060" stroke-width="1.0"/>
           <path id="arrow"
             d="M 11.500037,31.436501 C 11.940474,20.09759 22.043105,11.32322 32.158766,21.979434 L 37.068811,17.246167 C 37.068811,17.246167 37.088388,32 37.088388,32 L 22.160133,31.978069 C 22.160133,31.978069 26.997745,27.140456 26.997745,27.140456 C 18.528582,18.264221 13.291696,25.230495 11.500037,31.436501 z"
             style="fill:#404040;"/>
          </a>
         </g>
        </svg>
</svg>
