<?xml version="1.0" encoding="UTF-8" standalone="no"?>
<!DOCTYPE svg PUBLIC "-//W3C//DTD SVG 1.1//EN"
 "http://www.w3.org/Graphics/SVG/1.1/DTD/svg11.dtd">
<!-- Generated by graphviz version 2.36.0 (20140111.2315)
 -->
<!-- Title: model.instructions.TurtleRequestInstruction.execute Pages: 1 -->
<svg width="558pt" height="229pt"
 viewBox="0.00 0.00 558.00 229.00" xmlns="http://www.w3.org/2000/svg" xmlns:xlink="http://www.w3.org/1999/xlink">
<g id="graph0" class="graph" transform="scale(1 1) rotate(0) translate(4 225)">
<title>model.instructions.TurtleRequestInstruction.execute</title>
<polygon fill="white" stroke="none" points="-4,4 -4,-225 554,-225 554,4 -4,4"/>
<!-- Node1 -->
<g id="node1" class="node"><title>Node1</title>
<polygon fill="#bfbfbf" stroke="black" points="0,-90 0,-120 146,-120 146,-90 0,-90"/>
<text text-anchor="start" x="8" y="-108" font-family="Helvetica,sans-Serif" font-size="10.00">model.instructions.Turtle</text>
<text text-anchor="middle" x="73" y="-97" font-family="Helvetica,sans-Serif" font-size="10.00">RequestInstruction.execute</text>
</g>
<!-- Node2 -->
<g id="node2" class="node"><title>Node2</title>
<g id="a_node2"><a xlink:href="../../d1/dca/classmodel_1_1_execution_environment.html#a429a18123e450d0e124af2ccf2274b06" target="_top" xlink:title="model.ExecutionEnvironment.get\lActiveTurtle">
<polygon fill="white" stroke="black" points="182,-191 182,-221 358,-221 358,-191 182,-191"/>
<text text-anchor="start" x="190" y="-209" font-family="Helvetica,sans-Serif" font-size="10.00">model.ExecutionEnvironment.get</text>
<text text-anchor="middle" x="270" y="-198" font-family="Helvetica,sans-Serif" font-size="10.00">ActiveTurtle</text>
</a>
</g>
</g>
<!-- Node1&#45;&gt;Node2 -->
<g id="edge1" class="edge"><title>Node1&#45;&gt;Node2</title>
<path fill="none" stroke="midnightblue" d="M91.562,-120.175C112.028,-137.162 147.465,-164.466 182,-181 186.873,-183.333 192.005,-185.49 197.24,-187.476"/>
<polygon fill="midnightblue" stroke="midnightblue" points="196.145,-190.802 206.74,-190.869 198.499,-184.209 196.145,-190.802"/>
</g>
<!-- Node3 -->
<g id="node3" class="node"><title>Node3</title>
<g id="a_node3"><a xlink:href="../../d4/d64/classview_1_1_view_updater.html#a3db7d2ecda74d84e1fe3ff39363c235f" target="_top" xlink:title="view.ViewUpdater.getHeading">
<polygon fill="white" stroke="black" points="191,-152.5 191,-171.5 349,-171.5 349,-152.5 191,-152.5"/>
<text text-anchor="middle" x="270" y="-159.5" font-family="Helvetica,sans-Serif" font-size="10.00">view.ViewUpdater.getHeading</text>
</a>
</g>
</g>
<!-- Node1&#45;&gt;Node3 -->
<g id="edge2" class="edge"><title>Node1&#45;&gt;Node3</title>
<path fill="none" stroke="midnightblue" d="M113.123,-120.076C133.471,-127.582 158.864,-136.43 182,-143 191.162,-145.601 200.952,-148.051 210.537,-150.271"/>
<polygon fill="midnightblue" stroke="midnightblue" points="209.892,-153.714 220.417,-152.499 211.432,-146.885 209.892,-153.714"/>
</g>
<!-- Node5 -->
<g id="node5" class="node"><title>Node5</title>
<g id="a_node5"><a xlink:href="../../d4/d64/classview_1_1_view_updater.html#a5a8ab7b17323b0ee31de9c39964bdd86" target="_top" xlink:title="view.ViewUpdater.getPenDown">
<polygon fill="white" stroke="black" points="189,-114.5 189,-133.5 351,-133.5 351,-114.5 189,-114.5"/>
<text text-anchor="middle" x="270" y="-121.5" font-family="Helvetica,sans-Serif" font-size="10.00">view.ViewUpdater.getPenDown</text>
</a>
</g>
</g>
<!-- Node1&#45;&gt;Node5 -->
<g id="edge4" class="edge"><title>Node1&#45;&gt;Node5</title>
<path fill="none" stroke="midnightblue" d="M146.057,-112.021C156.689,-113.057 167.755,-114.135 178.7,-115.202"/>
<polygon fill="midnightblue" stroke="midnightblue" points="178.409,-118.69 188.701,-116.176 179.088,-111.723 178.409,-118.69"/>
</g>
<!-- Node6 -->
<g id="node6" class="node"><title>Node6</title>
<g id="a_node6"><a xlink:href="../../d4/d64/classview_1_1_view_updater.html#a31710e29788322071a77988fc6a6a629" target="_top" xlink:title="view.ViewUpdater.getXCor">
<polygon fill="white" stroke="black" points="200,-76.5 200,-95.5 340,-95.5 340,-76.5 200,-76.5"/>
<text text-anchor="middle" x="270" y="-83.5" font-family="Helvetica,sans-Serif" font-size="10.00">view.ViewUpdater.getXCor</text>
</a>
</g>
</g>
<!-- Node1&#45;&gt;Node6 -->
<g id="edge6" class="edge"><title>Node1&#45;&gt;Node6</title>
<path fill="none" stroke="midnightblue" d="M146.057,-97.9791C160.2,-96.601 175.111,-95.1482 189.482,-93.7479"/>
<polygon fill="midnightblue" stroke="midnightblue" points="190.219,-97.1928 199.832,-92.7394 189.54,-90.2258 190.219,-97.1928"/>
</g>
<!-- Node7 -->
<g id="node7" class="node"><title>Node7</title>
<g id="a_node7"><a xlink:href="../../d4/d64/classview_1_1_view_updater.html#ad06188d7864b313379c7a59629bee05c" target="_top" xlink:title="view.ViewUpdater.getYCor">
<polygon fill="white" stroke="black" points="200.5,-38.5 200.5,-57.5 339.5,-57.5 339.5,-38.5 200.5,-38.5"/>
<text text-anchor="middle" x="270" y="-45.5" font-family="Helvetica,sans-Serif" font-size="10.00">view.ViewUpdater.getYCor</text>
</a>
</g>
</g>
<!-- Node1&#45;&gt;Node7 -->
<g id="edge8" class="edge"><title>Node1&#45;&gt;Node7</title>
<path fill="none" stroke="midnightblue" d="M113.123,-89.9238C133.471,-82.4182 158.864,-73.5696 182,-67 191.162,-64.3986 200.952,-61.9489 210.537,-59.7287"/>
<polygon fill="midnightblue" stroke="midnightblue" points="211.432,-63.1149 220.417,-57.5013 209.892,-56.2863 211.432,-63.1149"/>
</g>
<!-- Node8 -->
<g id="node8" class="node"><title>Node8</title>
<g id="a_node8"><a xlink:href="../../d4/d64/classview_1_1_view_updater.html#af750c6e02e9def5c4c4060840ccb5220" target="_top" xlink:title="view.ViewUpdater.isShowing">
<polygon fill="white" stroke="black" points="195.5,-0.5 195.5,-19.5 344.5,-19.5 344.5,-0.5 195.5,-0.5"/>
<text text-anchor="middle" x="270" y="-7.5" font-family="Helvetica,sans-Serif" font-size="10.00">view.ViewUpdater.isShowing</text>
</a>
</g>
</g>
<!-- Node1&#45;&gt;Node8 -->
<g id="edge10" class="edge"><title>Node1&#45;&gt;Node8</title>
<path fill="none" stroke="midnightblue" d="M91.0114,-89.7268C111.246,-72.3858 146.738,-44.4986 182,-29 187.759,-26.4689 193.884,-24.2624 200.115,-22.3413"/>
<polygon fill="midnightblue" stroke="midnightblue" points="201.289,-25.6466 209.955,-19.5517 199.38,-18.912 201.289,-25.6466"/>
</g>
<!-- Node4 -->
<g id="node4" class="node"><title>Node4</title>
<g id="a_node4"><a xlink:href="../../da/d64/classview_1_1_workspace.html#ad460da1164f039e5ea9a265d446d13fe" target="_top" xlink:title="view.Workspace.getTurtleMap">
<polygon fill="white" stroke="black" points="394.5,-76.5 394.5,-95.5 549.5,-95.5 549.5,-76.5 394.5,-76.5"/>
<text text-anchor="middle" x="472" y="-83.5" font-family="Helvetica,sans-Serif" font-size="10.00">view.Workspace.getTurtleMap</text>
</a>
</g>
</g>
<!-- Node3&#45;&gt;Node4 -->
<g id="edge3" class="edge"><title>Node3&#45;&gt;Node4</title>
<path fill="none" stroke="midnightblue" d="M324.968,-152.434C336.039,-149.856 347.51,-146.724 358,-143 389.707,-131.745 423.912,-113.561 446.283,-100.764"/>
<polygon fill="midnightblue" stroke="midnightblue" points="448.211,-103.691 455.104,-95.6449 444.698,-97.6368 448.211,-103.691"/>
</g>
<!-- Node5&#45;&gt;Node4 -->
<g id="edge5" class="edge"><title>Node5&#45;&gt;Node4</title>
<path fill="none" stroke="midnightblue" d="M321.21,-114.46C348.433,-109.288 382.264,-102.86 410.883,-97.4222"/>
<polygon fill="midnightblue" stroke="midnightblue" points="411.598,-100.849 420.769,-95.5439 410.291,-93.9721 411.598,-100.849"/>
</g>
<!-- Node6&#45;&gt;Node4 -->
<g id="edge7" class="edge"><title>Node6&#45;&gt;Node4</title>
<path fill="none" stroke="midnightblue" d="M340.109,-86C354.328,-86 369.472,-86 384.224,-86"/>
<polygon fill="midnightblue" stroke="midnightblue" points="384.359,-89.5001 394.359,-86 384.359,-82.5001 384.359,-89.5001"/>
</g>
<!-- Node7&#45;&gt;Node4 -->
<g id="edge9" class="edge"><title>Node7&#45;&gt;Node4</title>
<path fill="none" stroke="midnightblue" d="M321.21,-57.54C348.433,-62.7122 382.264,-69.1401 410.883,-74.5778"/>
<polygon fill="midnightblue" stroke="midnightblue" points="410.291,-78.0279 420.769,-76.4561 411.598,-71.1509 410.291,-78.0279"/>
</g>
<!-- Node8&#45;&gt;Node4 -->
<g id="edge11" class="edge"><title>Node8&#45;&gt;Node4</title>
<path fill="none" stroke="midnightblue" d="M324.968,-19.5656C336.039,-22.1443 347.51,-25.2763 358,-29 389.707,-40.2552 423.912,-58.4392 446.283,-71.2363"/>
<polygon fill="midnightblue" stroke="midnightblue" points="444.698,-74.3632 455.104,-76.3551 448.211,-68.3087 444.698,-74.3632"/>
</g>
</g>
</svg>
