<?xml version="1.0" encoding="UTF-8" standalone="no"?>
<!DOCTYPE svg PUBLIC "-//W3C//DTD SVG 1.1//EN"
 "http://www.w3.org/Graphics/SVG/1.1/DTD/svg11.dtd">
<!-- Generated by graphviz version 2.36.0 (20140111.2315)
 -->
<!-- Title: view.SideBar Pages: 1 -->
<!--zoomable 794 -->
<svg id="main" version="1.1" xmlns="http://www.w3.org/2000/svg" xmlns:xlink="http://www.w3.org/1999/xlink" xml:space="preserve" onload="init(evt)">
<style type="text/css"><![CDATA[
.edge:hover path { stroke: red; }
.edge:hover polygon { stroke: red; fill: red; }
]]></style>
<script type="text/javascript"><![CDATA[
var edges = document.getElementsByTagName('g');
if (edges && edges.length) {
  for (var i=0;i<edges.length;i++) {
    if (edges[i].id.substr(0,4)=='edge') {
      edges[i].setAttribute('class','edge');
    }
  }
}
]]></script>
        <defs>
                <circle id="rim" cx="0" cy="0" r="7"/>
                <circle id="rim2" cx="0" cy="0" r="3.5"/>
                <g id="zoomPlus">
                        <use xlink:href="#rim" fill="#404040">
                                <set attributeName="fill" to="#808080" begin="zoomplus.mouseover" end="zoomplus.mouseout"/>
                        </use>
                        <path d="M-4,0h8M0,-4v8" fill="none" stroke="white" stroke-width="1.5" pointer-events="none"/>
                </g>
                <g id="zoomMin">
                        <use xlink:href="#rim" fill="#404040">
                                <set attributeName="fill" to="#808080" begin="zoomminus.mouseover" end="zoomminus.mouseout"/>
                        </use>
                        <path d="M-4,0h8" fill="none" stroke="white" stroke-width="1.5" pointer-events="none"/>
                </g>
                <g id="dirArrow">
                        <path fill="none" stroke="white" stroke-width="1.5" d="M0,-3.0v7 M-2.5,-0.5L0,-3.0L2.5,-0.5"/>
                </g>
               <g id="resetDef">
                       <use xlink:href="#rim2" fill="#404040">
                               <set attributeName="fill" to="#808080" begin="reset.mouseover" end="reset.mouseout"/>
                       </use>
               </g>
        </defs>

<script type="text/javascript">
var viewWidth = 2578;
var viewHeight = 794;
var sectionId = 'dynsection-1';
</script>
<script xlink:href="../../svgpan.js"/>
<svg id="graph" class="graph">
<g id="viewport">
<title>view.SideBar</title>
<polygon fill="white" stroke="none" points="-4,4 -4,-790.295 2574,-790.295 2574,4 -4,4"/>
<!-- Node1 -->
<g id="node1" class="node"><title>Node1</title>
<polygon fill="#bfbfbf" stroke="black" points="1199.5,-418.795 1199.5,-437.795 1276.5,-437.795 1276.5,-418.795 1199.5,-418.795"/>
<text text-anchor="middle" x="1238" y="-425.795" font-family="Helvetica,sans-Serif" font-size="10.00">view.SideBar</text>
</g>
<!-- Node20 -->
<g id="node20" class="node"><title>Node20</title>
<g id="a_node20"><a xlink:href="../../d4/d64/classview_1_1_view_updater.html" target="_top" xlink:title="view.ViewUpdater">
<polygon fill="white" stroke="black" points="1841,-510.795 1841,-529.795 1941,-529.795 1941,-510.795 1841,-510.795"/>
<text text-anchor="middle" x="1891" y="-517.795" font-family="Helvetica,sans-Serif" font-size="10.00">view.ViewUpdater</text>
</a>
</g>
</g>
<!-- Node1&#45;&gt;Node20 -->
<g id="edge39" class="edge"><title>Node1&#45;&gt;Node20</title>
<path fill="none" stroke="#9a32cd" stroke-dasharray="5,2" d="M1274.57,-441.094C1289.65,-446.128 1307.52,-451.58 1324,-455.295 1512.15,-497.703 1742.07,-513.219 1840.95,-518.205"/>
<polygon fill="#9a32cd" stroke="#9a32cd" points="1275.69,-437.78 1265.1,-437.868 1273.44,-444.406 1275.69,-437.78"/>
<text text-anchor="middle" x="1593" y="-505.295" font-family="Helvetica,sans-Serif" font-size="10.00"> mySidebar</text>
</g>
<!-- Node21 -->
<g id="node21" class="node"><title>Node21</title>
<g id="a_node21"><a xlink:href="../../da/d64/classview_1_1_workspace.html" target="_top" xlink:title="view.Workspace">
<polygon fill="white" stroke="black" points="1434,-597.795 1434,-616.795 1524,-616.795 1524,-597.795 1434,-597.795"/>
<text text-anchor="middle" x="1479" y="-604.795" font-family="Helvetica,sans-Serif" font-size="10.00">view.Workspace</text>
</a>
</g>
</g>
<!-- Node1&#45;&gt;Node21 -->
<g id="edge34" class="edge"><title>Node1&#45;&gt;Node21</title>
<path fill="none" stroke="#9a32cd" stroke-dasharray="5,2" d="M1255.73,-445.216C1271.96,-460.823 1297.89,-483.717 1324,-498.295 1355.17,-515.7 1373.25,-500.652 1400,-524.295 1413.7,-536.405 1406.43,-547.13 1418,-561.295 1430.29,-576.342 1448.42,-589.365 1461.53,-597.675"/>
<polygon fill="#9a32cd" stroke="#9a32cd" points="1258.18,-442.711 1248.59,-438.208 1253.27,-447.709 1258.18,-442.711"/>
<text text-anchor="middle" x="1362" y="-527.295" font-family="Helvetica,sans-Serif" font-size="10.00"> mySidebar</text>
</g>
<!-- Node31 -->
<g id="node31" class="node"><title>Node31</title>
<g id="a_node31"><a xlink:href="../../d6/de7/classview_1_1_s_logo_view.html" target="_top" xlink:title="view.SLogoView">
<polygon fill="white" stroke="black" points="2478.5,-266.795 2478.5,-285.795 2569.5,-285.795 2569.5,-266.795 2478.5,-266.795"/>
<text text-anchor="middle" x="2524" y="-273.795" font-family="Helvetica,sans-Serif" font-size="10.00">view.SLogoView</text>
</a>
</g>
</g>
<!-- Node1&#45;&gt;Node31 -->
<g id="edge56" class="edge"><title>Node1&#45;&gt;Node31</title>
<path fill="none" stroke="#9a32cd" stroke-dasharray="5,2" d="M1253.07,-410.957C1287.14,-371.088 1378.59,-276.295 1478,-276.295 1478,-276.295 1478,-276.295 2307,-276.295 2366.25,-276.295 2434.64,-276.295 2478.32,-276.295"/>
<polygon fill="#9a32cd" stroke="#9a32cd" points="1250.25,-408.871 1246.52,-418.786 1255.62,-413.363 1250.25,-408.871"/>
<text text-anchor="middle" x="1891" y="-279.295" font-family="Helvetica,sans-Serif" font-size="10.00"> mySidebar</text>
</g>
<!-- Node33 -->
<g id="node33" class="node"><title>Node33</title>
<g id="a_node33"><a xlink:href="../../da/dc8/classview_1_1_editor.html" target="_top" xlink:title="view.Editor">
<polygon fill="white" stroke="black" points="2272.5,-195.795 2272.5,-214.795 2339.5,-214.795 2339.5,-195.795 2272.5,-195.795"/>
<text text-anchor="middle" x="2306" y="-202.795" font-family="Helvetica,sans-Serif" font-size="10.00">view.Editor</text>
</a>
</g>
</g>
<!-- Node1&#45;&gt;Node33 -->
<g id="edge50" class="edge"><title>Node1&#45;&gt;Node33</title>
<path fill="none" stroke="#9a32cd" stroke-dasharray="5,2" d="M1242.6,-408.325C1250.31,-372.087 1272.12,-296.124 1324,-262.295 1344.33,-249.038 2104.09,-214.291 2272.26,-206.752"/>
<polygon fill="#9a32cd" stroke="#9a32cd" points="1239.08,-408.103 1240.57,-418.591 1245.95,-409.459 1239.08,-408.103"/>
<text text-anchor="middle" x="1778" y="-235.295" font-family="Helvetica,sans-Serif" font-size="10.00"> mySidebar</text>
</g>
<!-- Node2 -->
<g id="node2" class="node"><title>Node2</title>
<polygon fill="white" stroke="#bfbfbf" points="928.5,-227.795 928.5,-246.795 969.5,-246.795 969.5,-227.795 928.5,-227.795"/>
<text text-anchor="middle" x="949" y="-234.795" font-family="Helvetica,sans-Serif" font-size="10.00">VBox</text>
</g>
<!-- Node2&#45;&gt;Node1 -->
<g id="edge1" class="edge"><title>Node2&#45;&gt;Node1</title>
<path fill="none" stroke="midnightblue" d="M979.53,-232.133C1021.76,-226.436 1100.01,-222.318 1152,-258.295 1209.52,-298.103 1230.07,-388.563 1235.43,-418.483"/>
<polygon fill="midnightblue" stroke="midnightblue" points="978.994,-228.674 969.609,-233.591 980.012,-235.599 978.994,-228.674"/>
</g>
<!-- Node3 -->
<g id="node3" class="node"><title>Node3</title>
<polygon fill="white" stroke="#bfbfbf" points="552.5,-479.795 552.5,-498.795 725.5,-498.795 725.5,-479.795 552.5,-479.795"/>
<text text-anchor="middle" x="639" y="-486.795" font-family="Helvetica,sans-Serif" font-size="10.00">ObservableList&lt; view.Property &gt;</text>
</g>
<!-- Node3&#45;&gt;Node1 -->
<g id="edge2" class="edge"><title>Node3&#45;&gt;Node1</title>
<path fill="none" stroke="#9a32cd" stroke-dasharray="5,2" d="M729.728,-499.706C833.681,-508.736 1008.99,-514.534 1152,-472.295 1178.45,-464.481 1206.34,-448.3 1222.68,-437.888"/>
<polygon fill="#9a32cd" stroke="#9a32cd" points="729.857,-496.204 719.584,-498.795 729.231,-503.176 729.857,-496.204"/>
<text text-anchor="middle" x="949" y="-509.295" font-family="Helvetica,sans-Serif" font-size="10.00"> myVariablesList</text>
</g>
<!-- Node11 -->
<g id="node11" class="node"><title>Node11</title>
<g id="a_node11"><a xlink:href="../../d9/dd3/classview_1_1_variables_view.html" target="_top" xlink:title="view.VariablesView">
<polygon fill="white" stroke="black" points="897,-418.795 897,-437.795 1001,-437.795 1001,-418.795 897,-418.795"/>
<text text-anchor="middle" x="949" y="-425.795" font-family="Helvetica,sans-Serif" font-size="10.00">view.VariablesView</text>
</a>
</g>
</g>
<!-- Node3&#45;&gt;Node11 -->
<g id="edge16" class="edge"><title>Node3&#45;&gt;Node11</title>
<path fill="none" stroke="#9a32cd" stroke-dasharray="5,2" d="M697.937,-477.82C756.322,-466.257 845.377,-448.619 899.96,-437.809"/>
<polygon fill="#9a32cd" stroke="#9a32cd" points="697.254,-474.387 688.125,-479.763 698.614,-481.254 697.254,-474.387"/>
<text text-anchor="middle" x="803" y="-471.295" font-family="Helvetica,sans-Serif" font-size="10.00"> myVariablesList</text>
</g>
<!-- Node4 -->
<g id="node4" class="node"><title>Node4</title>
<polygon fill="white" stroke="#bfbfbf" points="902.5,-561.795 902.5,-580.795 995.5,-580.795 995.5,-561.795 902.5,-561.795"/>
<text text-anchor="middle" x="949" y="-568.795" font-family="Helvetica,sans-Serif" font-size="10.00">ResourceBundle</text>
</g>
<!-- Node4&#45;&gt;Node1 -->
<g id="edge3" class="edge"><title>Node4&#45;&gt;Node1</title>
<path fill="none" stroke="#9a32cd" stroke-dasharray="5,2" d="M990.084,-558.856C1004.49,-554.595 1020.9,-549.978 1036,-546.295 1087.06,-533.836 1106.34,-549.333 1152,-523.295 1161.76,-517.73 1209.49,-461.255 1228.83,-438.109"/>
<polygon fill="#9a32cd" stroke="#9a32cd" points="989.05,-555.512 980.474,-561.733 991.057,-562.218 989.05,-555.512"/>
<text text-anchor="middle" x="1094" y="-549.295" font-family="Helvetica,sans-Serif" font-size="10.00"> myResources</text>
</g>
<!-- Node4&#45;&gt;Node21 -->
<g id="edge28" class="edge"><title>Node4&#45;&gt;Node21</title>
<path fill="none" stroke="#9a32cd" stroke-dasharray="5,2" d="M1006,-570.762C1076.23,-570.578 1200.27,-571.854 1306,-581.295 1349.77,-585.203 1399.35,-593.067 1433.99,-599.128"/>
<polygon fill="#9a32cd" stroke="#9a32cd" points="1005.61,-567.263 995.623,-570.801 1005.64,-574.263 1005.61,-567.263"/>
<text text-anchor="middle" x="1238" y="-584.295" font-family="Helvetica,sans-Serif" font-size="10.00"> myResources</text>
</g>
<!-- Node4&#45;&gt;Node31 -->
<g id="edge44" class="edge"><title>Node4&#45;&gt;Node31</title>
<path fill="none" stroke="#9a32cd" stroke-dasharray="5,2" d="M969.758,-587.027C1014.51,-621.022 1128.2,-698.295 1237,-698.295 1237,-698.295 1237,-698.295 2307,-698.295 2387.28,-698.295 2414.63,-668.52 2460,-602.295 2496.98,-548.32 2517.91,-333.742 2522.18,-285.819"/>
<polygon fill="#9a32cd" stroke="#9a32cd" points="971.802,-584.183 961.749,-580.84 967.523,-589.723 971.802,-584.183"/>
<text text-anchor="middle" x="1778" y="-701.295" font-family="Helvetica,sans-Serif" font-size="10.00"> myResources</text>
</g>
<!-- Node5 -->
<g id="node5" class="node"><title>Node5</title>
<g id="a_node5"><a xlink:href="../../d1/dca/classmodel_1_1_execution_environment.html" target="_top" xlink:title="model.ExecutionEnvironment">
<polygon fill="white" stroke="black" points="560.5,-257.795 560.5,-276.795 717.5,-276.795 717.5,-257.795 560.5,-257.795"/>
<text text-anchor="middle" x="639" y="-264.795" font-family="Helvetica,sans-Serif" font-size="10.00">model.ExecutionEnvironment</text>
</a>
</g>
</g>
<!-- Node5&#45;&gt;Node1 -->
<g id="edge4" class="edge"><title>Node5&#45;&gt;Node1</title>
<path fill="none" stroke="#9a32cd" stroke-dasharray="5,2" d="M727.713,-277.891C863.957,-294.791 1114.73,-327.818 1152,-346.295 1187.27,-363.781 1217.45,-401.163 1230.33,-418.761"/>
<polygon fill="#9a32cd" stroke="#9a32cd" points="728.059,-274.408 717.705,-276.653 727.2,-281.355 728.059,-274.408"/>
<text text-anchor="middle" x="949" y="-320.295" font-family="Helvetica,sans-Serif" font-size="10.00"> myEnvironment</text>
</g>
<!-- Node5&#45;&gt;Node11 -->
<g id="edge17" class="edge"><title>Node5&#45;&gt;Node11</title>
<path fill="none" stroke="#9a32cd" stroke-dasharray="5,2" d="M651.604,-285.604C668.664,-310.952 702.975,-356.314 744,-380.295 769.6,-395.259 845.304,-410.627 896.929,-419.818"/>
<polygon fill="#9a32cd" stroke="#9a32cd" points="654.343,-283.399 645.932,-276.956 648.489,-287.237 654.343,-283.399"/>
<text text-anchor="middle" x="803" y="-416.295" font-family="Helvetica,sans-Serif" font-size="10.00"> myEnvironment</text>
</g>
<!-- Node17 -->
<g id="node17" class="node"><title>Node17</title>
<g id="a_node17"><a xlink:href="../../dc/df5/classmodel_1_1_parser.html" target="_top" xlink:title="model.Parser">
<polygon fill="white" stroke="black" points="2078,-359.795 2078,-378.795 2158,-378.795 2158,-359.795 2078,-359.795"/>
<text text-anchor="middle" x="2118" y="-366.795" font-family="Helvetica,sans-Serif" font-size="10.00">model.Parser</text>
</a>
</g>
</g>
<!-- Node5&#45;&gt;Node17 -->
<g id="edge23" class="edge"><title>Node5&#45;&gt;Node17</title>
<path fill="none" stroke="#9a32cd" stroke-dasharray="5,2" d="M675.081,-254.321C731.677,-234.587 847.008,-199.295 948,-199.295 948,-199.295 948,-199.295 1594,-199.295 1706.58,-199.295 1723.09,-256.038 1830,-291.295 1917.28,-320.078 2021.94,-346.544 2077.61,-360"/>
<polygon fill="#9a32cd" stroke="#9a32cd" points="673.799,-251.062 665.538,-257.696 676.133,-257.661 673.799,-251.062"/>
<text text-anchor="middle" x="1479" y="-202.295" font-family="Helvetica,sans-Serif" font-size="10.00"> myExecutionParameters</text>
</g>
<!-- Node5&#45;&gt;Node31 -->
<g id="edge52" class="edge"><title>Node5&#45;&gt;Node31</title>
<path fill="none" stroke="#9a32cd" stroke-dasharray="5,2" d="M654.631,-249.887C695.678,-203.125 817.475,-78.2945 948,-78.2945 948,-78.2945 948,-78.2945 2016,-78.2945 2223.73,-78.2945 2282.26,-116.772 2460,-224.295 2480.39,-236.627 2501.15,-255.168 2513.01,-266.457"/>
<polygon fill="#9a32cd" stroke="#9a32cd" points="651.805,-247.804 647.922,-257.662 657.105,-252.377 651.805,-247.804"/>
<text text-anchor="middle" x="1686" y="-81.2945" font-family="Helvetica,sans-Serif" font-size="10.00"> myEnvironment</text>
</g>
<!-- Node6 -->
<g id="node6" class="node"><title>Node6</title>
<polygon fill="white" stroke="#bfbfbf" points="281.5,-241.795 281.5,-260.795 352.5,-260.795 352.5,-241.795 281.5,-241.795"/>
<text text-anchor="middle" x="317" y="-248.795" font-family="Helvetica,sans-Serif" font-size="10.00">Observable</text>
</g>
<!-- Node6&#45;&gt;Node5 -->
<g id="edge5" class="edge"><title>Node6&#45;&gt;Node5</title>
<path fill="none" stroke="midnightblue" d="M362.61,-253.525C413.684,-256.079 498.273,-260.308 560.249,-263.407"/>
<polygon fill="midnightblue" stroke="midnightblue" points="362.712,-250.026 352.55,-253.022 362.362,-257.017 362.712,-250.026"/>
</g>
<!-- Node7 -->
<g id="node7" class="node"><title>Node7</title>
<polygon fill="white" stroke="#bfbfbf" points="272.5,-279.795 272.5,-298.795 361.5,-298.795 361.5,-279.795 272.5,-279.795"/>
<text text-anchor="middle" x="317" y="-286.795" font-family="Helvetica,sans-Serif" font-size="10.00">Set&lt; Integer &gt;</text>
</g>
<!-- Node7&#45;&gt;Node5 -->
<g id="edge6" class="edge"><title>Node7&#45;&gt;Node5</title>
<path fill="none" stroke="#9a32cd" stroke-dasharray="5,2" d="M372.097,-285.575C423.719,-282.026 502.037,-276.642 560.323,-272.635"/>
<polygon fill="#9a32cd" stroke="#9a32cd" points="371.56,-282.104 361.824,-286.282 372.04,-289.087 371.56,-282.104"/>
<text text-anchor="middle" x="478" y="-296.295" font-family="Helvetica,sans-Serif" font-size="10.00"> myTurtleList</text>
<text text-anchor="middle" x="478" y="-285.295" font-family="Helvetica,sans-Serif" font-size="10.00">activeTurtleList</text>
</g>
<!-- Node8 -->
<g id="node8" class="node"><title>Node8</title>
<polygon fill="white" stroke="#bfbfbf" points="230,-192.295 230,-222.295 404,-222.295 404,-192.295 230,-192.295"/>
<text text-anchor="start" x="238" y="-210.295" font-family="Helvetica,sans-Serif" font-size="10.00">Map&lt; String, model.instructions.</text>
<text text-anchor="middle" x="317" y="-199.295" font-family="Helvetica,sans-Serif" font-size="10.00">Instruction &gt;</text>
</g>
<!-- Node8&#45;&gt;Node5 -->
<g id="edge7" class="edge"><title>Node8&#45;&gt;Node5</title>
<path fill="none" stroke="#9a32cd" stroke-dasharray="5,2" d="M414.109,-221.28C451.629,-227.155 494.938,-234.446 534,-242.295 556.393,-246.794 581.277,-252.741 601.088,-257.706"/>
<polygon fill="#9a32cd" stroke="#9a32cd" points="414.615,-217.817 404.196,-219.74 413.54,-224.734 414.615,-217.817"/>
<text text-anchor="middle" x="478" y="-245.295" font-family="Helvetica,sans-Serif" font-size="10.00"> myUserInstructionMap</text>
</g>
<!-- Node9 -->
<g id="node9" class="node"><title>Node9</title>
<polygon fill="white" stroke="#bfbfbf" points="253,-321.795 253,-340.795 381,-340.795 381,-321.795 253,-321.795"/>
<text text-anchor="middle" x="317" y="-328.795" font-family="Helvetica,sans-Serif" font-size="10.00">Map&lt; String, Double &gt;</text>
</g>
<!-- Node9&#45;&gt;Node5 -->
<g id="edge8" class="edge"><title>Node9&#45;&gt;Node5</title>
<path fill="none" stroke="#9a32cd" stroke-dasharray="5,2" d="M391.349,-328.394C433.553,-325.51 487.309,-319.76 534,-308.295 564.345,-300.843 597.656,-286.547 618.2,-276.964"/>
<polygon fill="#9a32cd" stroke="#9a32cd" points="390.91,-324.915 381.155,-329.05 391.359,-331.9 390.91,-324.915"/>
<text text-anchor="middle" x="478" y="-329.295" font-family="Helvetica,sans-Serif" font-size="10.00"> myVariableMap</text>
</g>
<!-- Node10 -->
<g id="node10" class="node"><title>Node10</title>
<polygon fill="white" stroke="#bfbfbf" points="243,-364.795 243,-383.795 391,-383.795 391,-364.795 243,-364.795"/>
<text text-anchor="middle" x="317" y="-371.795" font-family="Helvetica,sans-Serif" font-size="10.00">TableView&lt; view.Property &gt;</text>
</g>
<!-- Node10&#45;&gt;Node1 -->
<g id="edge9" class="edge"><title>Node10&#45;&gt;Node1</title>
<path fill="none" stroke="#9a32cd" stroke-dasharray="5,2" d="M401.301,-364.321C508.222,-353.103 699.349,-338.4 862,-354.295 988.146,-366.622 1134.8,-401.747 1201.15,-418.789"/>
<polygon fill="#9a32cd" stroke="#9a32cd" points="400.794,-360.855 391.221,-365.394 401.535,-367.816 400.794,-360.855"/>
<text text-anchor="middle" x="803" y="-368.295" font-family="Helvetica,sans-Serif" font-size="10.00"> myTurtlePropertiesTable</text>
<text text-anchor="middle" x="803" y="-357.295" font-family="Helvetica,sans-Serif" font-size="10.00">myVariablesTable</text>
</g>
<!-- Node12 -->
<g id="node12" class="node"><title>Node12</title>
<g id="a_node12"><a xlink:href="../../d5/dea/classview_1_1_side_table_view.html" target="_top" xlink:title="view.SideTableView">
<polygon fill="white" stroke="black" points="586,-418.795 586,-437.795 692,-437.795 692,-418.795 586,-418.795"/>
<text text-anchor="middle" x="639" y="-425.795" font-family="Helvetica,sans-Serif" font-size="10.00">view.SideTableView</text>
</a>
</g>
</g>
<!-- Node10&#45;&gt;Node12 -->
<g id="edge14" class="edge"><title>Node10&#45;&gt;Node12</title>
<path fill="none" stroke="#9a32cd" stroke-dasharray="5,2" d="M401.279,-384.106C441.512,-389.293 490.41,-396.254 534,-404.295 556.049,-408.362 580.489,-413.946 600.134,-418.704"/>
<polygon fill="#9a32cd" stroke="#9a32cd" points="401.609,-380.62 391.246,-382.826 400.723,-387.564 401.609,-380.62"/>
<text text-anchor="middle" x="478" y="-407.295" font-family="Helvetica,sans-Serif" font-size="10.00"> myTable</text>
</g>
<!-- Node11&#45;&gt;Node1 -->
<g id="edge10" class="edge"><title>Node11&#45;&gt;Node1</title>
<path fill="none" stroke="#9a32cd" stroke-dasharray="5,2" d="M1011.65,-428.295C1068.69,-428.295 1151.66,-428.295 1199.39,-428.295"/>
<polygon fill="#9a32cd" stroke="#9a32cd" points="1011.31,-424.795 1001.31,-428.295 1011.31,-431.795 1011.31,-424.795"/>
<text text-anchor="middle" x="1094" y="-431.295" font-family="Helvetica,sans-Serif" font-size="10.00"> myVariablesPane</text>
</g>
<!-- Node12&#45;&gt;Node11 -->
<g id="edge11" class="edge"><title>Node12&#45;&gt;Node11</title>
<path fill="none" stroke="midnightblue" d="M702.257,-428.295C759.492,-428.295 843.331,-428.295 896.779,-428.295"/>
<polygon fill="midnightblue" stroke="midnightblue" points="702.248,-424.795 692.248,-428.295 702.248,-431.795 702.248,-424.795"/>
</g>
<!-- Node16 -->
<g id="node16" class="node"><title>Node16</title>
<g id="a_node16"><a xlink:href="../../d9/d3a/classview_1_1_turtle_properties_view.html" target="_top" xlink:title="view.TurtlePropertiesView">
<polygon fill="white" stroke="black" points="881.5,-456.795 881.5,-475.795 1016.5,-475.795 1016.5,-456.795 881.5,-456.795"/>
<text text-anchor="middle" x="949" y="-463.795" font-family="Helvetica,sans-Serif" font-size="10.00">view.TurtlePropertiesView</text>
</a>
</g>
</g>
<!-- Node12&#45;&gt;Node16 -->
<g id="edge19" class="edge"><title>Node12&#45;&gt;Node16</title>
<path fill="none" stroke="midnightblue" d="M665.206,-442.686C685.692,-453.509 715.728,-467.44 744,-473.295 791.541,-483.139 846.622,-480.442 887.558,-475.807"/>
<polygon fill="midnightblue" stroke="midnightblue" points="666.696,-439.512 656.237,-437.822 663.359,-445.666 666.696,-439.512"/>
</g>
<!-- Node13 -->
<g id="node13" class="node"><title>Node13</title>
<g id="a_node13"><a xlink:href="../../d2/d38/classview_1_1_side_properties_view.html" target="_top" xlink:title="view.SidePropertiesView">
<polygon fill="white" stroke="black" points="251.5,-404.795 251.5,-423.795 382.5,-423.795 382.5,-404.795 251.5,-404.795"/>
<text text-anchor="middle" x="317" y="-411.795" font-family="Helvetica,sans-Serif" font-size="10.00">view.SidePropertiesView</text>
</a>
</g>
</g>
<!-- Node13&#45;&gt;Node12 -->
<g id="edge12" class="edge"><title>Node13&#45;&gt;Node12</title>
<path fill="none" stroke="midnightblue" d="M392.81,-417.567C452.066,-420.16 533.328,-423.715 585.754,-426.009"/>
<polygon fill="midnightblue" stroke="midnightblue" points="392.9,-414.068 382.757,-417.128 392.594,-421.061 392.9,-414.068"/>
</g>
<!-- Node14 -->
<g id="node14" class="node"><title>Node14</title>
<polygon fill="white" stroke="#bfbfbf" points="0.5,-404.795 0.5,-423.795 135.5,-423.795 135.5,-404.795 0.5,-404.795"/>
<text text-anchor="middle" x="68" y="-411.795" font-family="Helvetica,sans-Serif" font-size="10.00">ObservableList&lt; Node &gt;</text>
</g>
<!-- Node14&#45;&gt;Node13 -->
<g id="edge13" class="edge"><title>Node14&#45;&gt;Node13</title>
<path fill="none" stroke="#9a32cd" stroke-dasharray="5,2" d="M145.848,-414.295C179.752,-414.295 219.154,-414.295 251.499,-414.295"/>
<polygon fill="#9a32cd" stroke="#9a32cd" points="145.516,-410.795 135.516,-414.295 145.516,-417.795 145.516,-410.795"/>
<text text-anchor="middle" x="183" y="-417.295" font-family="Helvetica,sans-Serif" font-size="10.00"> myChildren</text>
</g>
<!-- Node15 -->
<g id="node15" class="node"><title>Node15</title>
<polygon fill="white" stroke="#bfbfbf" points="239.5,-443.295 239.5,-473.295 394.5,-473.295 394.5,-443.295 239.5,-443.295"/>
<text text-anchor="start" x="247.5" y="-461.295" font-family="Helvetica,sans-Serif" font-size="10.00">TableColumn&lt; view.Property,</text>
<text text-anchor="middle" x="317" y="-450.295" font-family="Helvetica,sans-Serif" font-size="10.00"> String &gt;</text>
</g>
<!-- Node15&#45;&gt;Node12 -->
<g id="edge15" class="edge"><title>Node15&#45;&gt;Node12</title>
<path fill="none" stroke="#9a32cd" stroke-dasharray="5,2" d="M404.896,-450.148C462.818,-444.718 537.022,-437.761 585.963,-433.173"/>
<polygon fill="#9a32cd" stroke="#9a32cd" points="404.278,-446.691 394.648,-451.109 404.931,-453.66 404.278,-446.691"/>
<text text-anchor="middle" x="478" y="-462.295" font-family="Helvetica,sans-Serif" font-size="10.00"> rightTableCol</text>
<text text-anchor="middle" x="478" y="-451.295" font-family="Helvetica,sans-Serif" font-size="10.00">leftTableCol</text>
</g>
<!-- Node16&#45;&gt;Node1 -->
<g id="edge18" class="edge"><title>Node16&#45;&gt;Node1</title>
<path fill="none" stroke="#9a32cd" stroke-dasharray="5,2" d="M1026.92,-457.978C1064.67,-453.688 1110.77,-448.136 1152,-442.295 1167.55,-440.092 1184.64,-437.341 1199.4,-434.862"/>
<polygon fill="#9a32cd" stroke="#9a32cd" points="1026.06,-454.554 1016.51,-459.154 1026.84,-461.51 1026.06,-454.554"/>
<text text-anchor="middle" x="1094" y="-460.295" font-family="Helvetica,sans-Serif" font-size="10.00"> myTurtlePropertiesPane</text>
</g>
<!-- Node17&#45;&gt;Node1 -->
<g id="edge20" class="edge"><title>Node17&#45;&gt;Node1</title>
<path fill="none" stroke="#9a32cd" stroke-dasharray="5,2" d="M2098.03,-385.688C2087.49,-393.975 2073.74,-403.482 2060,-409.295 1989.99,-438.898 1968.01,-441.295 1892,-441.295 1478,-441.295 1478,-441.295 1478,-441.295 1406.73,-441.295 1323.69,-435.46 1276.63,-431.609"/>
<polygon fill="#9a32cd" stroke="#9a32cd" points="2100.54,-388.159 2106.07,-379.121 2096.11,-382.738 2100.54,-388.159"/>
<text text-anchor="middle" x="1686" y="-444.295" font-family="Helvetica,sans-Serif" font-size="10.00"> myParser</text>
</g>
<!-- Node17&#45;&gt;Node31 -->
<g id="edge53" class="edge"><title>Node17&#45;&gt;Node31</title>
<path fill="none" stroke="#9a32cd" stroke-dasharray="5,2" d="M2168.27,-368.766C2218.55,-367.33 2298.57,-362.559 2366,-347.295 2409.48,-337.451 2419.62,-331.194 2460,-312.295 2476.89,-304.391 2495.3,-293.593 2507.84,-285.89"/>
<polygon fill="#9a32cd" stroke="#9a32cd" points="2167.91,-365.273 2158,-369.024 2168.09,-372.271 2167.91,-365.273"/>
<text text-anchor="middle" x="2306" y="-368.295" font-family="Helvetica,sans-Serif" font-size="10.00"> myParser</text>
</g>
<!-- Node17&#45;&gt;Node33 -->
<g id="edge48" class="edge"><title>Node17&#45;&gt;Node33</title>
<path fill="none" stroke="#9a32cd" stroke-dasharray="5,2" d="M2131.16,-351.181C2141.92,-335.872 2158.59,-313.854 2176,-297.295 2212.48,-262.602 2262.72,-230.497 2288.41,-215.008"/>
<polygon fill="#9a32cd" stroke="#9a32cd" points="2128.05,-349.516 2125.26,-359.737 2133.82,-353.487 2128.05,-349.516"/>
<text text-anchor="middle" x="2202" y="-300.295" font-family="Helvetica,sans-Serif" font-size="10.00"> myParser</text>
</g>
<!-- Node18 -->
<g id="node18" class="node"><title>Node18</title>
<polygon fill="white" stroke="#bfbfbf" points="1656,-470.795 1656,-489.795 1716,-489.795 1716,-470.795 1656,-470.795"/>
<text text-anchor="middle" x="1686" y="-477.795" font-family="Helvetica,sans-Serif" font-size="10.00">Observer</text>
</g>
<!-- Node18&#45;&gt;Node17 -->
<g id="edge21" class="edge"><title>Node18&#45;&gt;Node17</title>
<path fill="none" stroke="midnightblue" d="M1726.25,-481.963C1810.23,-484.852 2004.23,-487.688 2060,-455.295 2090.05,-437.841 2107.29,-397.453 2113.88,-378.913"/>
<polygon fill="midnightblue" stroke="midnightblue" points="1726.22,-478.46 1716.1,-481.595 1725.97,-485.455 1726.22,-478.46"/>
</g>
<!-- Node18&#45;&gt;Node20 -->
<g id="edge25" class="edge"><title>Node18&#45;&gt;Node20</title>
<path fill="none" stroke="midnightblue" d="M1726.26,-488.03C1759.23,-494.528 1806.49,-503.839 1841.77,-510.79"/>
<polygon fill="midnightblue" stroke="midnightblue" points="1726.57,-484.525 1716.08,-486.026 1725.22,-491.393 1726.57,-484.525"/>
</g>
<!-- Node19 -->
<g id="node19" class="node"><title>Node19</title>
<polygon fill="white" stroke="#bfbfbf" points="1835,-344.295 1835,-374.295 1947,-374.295 1947,-344.295 1835,-344.295"/>
<text text-anchor="start" x="1843" y="-362.295" font-family="Helvetica,sans-Serif" font-size="10.00">List&lt; Entry&lt; String,</text>
<text text-anchor="middle" x="1891" y="-351.295" font-family="Helvetica,sans-Serif" font-size="10.00"> Pattern &gt; &gt;</text>
</g>
<!-- Node19&#45;&gt;Node17 -->
<g id="edge22" class="edge"><title>Node19&#45;&gt;Node17</title>
<path fill="none" stroke="#9a32cd" stroke-dasharray="5,2" d="M1957.25,-362.195C1996.24,-363.928 2044.49,-366.072 2077.69,-367.548"/>
<polygon fill="#9a32cd" stroke="#9a32cd" points="1957.19,-358.688 1947.04,-361.741 1956.88,-365.681 1957.19,-358.688"/>
<text text-anchor="middle" x="2015" y="-370.295" font-family="Helvetica,sans-Serif" font-size="10.00"> myPatterns</text>
</g>
<!-- Node20&#45;&gt;Node17 -->
<g id="edge24" class="edge"><title>Node20&#45;&gt;Node17</title>
<path fill="none" stroke="#9a32cd" stroke-dasharray="5,2" d="M1951.32,-524.005C1986.17,-523.185 2029.28,-516.633 2060,-493.295 2098.49,-464.057 2111.83,-402.676 2115.66,-378.946"/>
<polygon fill="#9a32cd" stroke="#9a32cd" points="1951.23,-520.506 1941.26,-524.091 1951.29,-527.505 1951.23,-520.506"/>
<text text-anchor="middle" x="2015" y="-526.295" font-family="Helvetica,sans-Serif" font-size="10.00"> myViewUpdater</text>
</g>
<!-- Node21&#45;&gt;Node20 -->
<g id="edge26" class="edge"><title>Node21&#45;&gt;Node20</title>
<path fill="none" stroke="#9a32cd" stroke-dasharray="5,2" d="M1534.45,-605.876C1601.39,-602.755 1717.71,-592.821 1812,-561.295 1835.36,-553.484 1860.19,-539.281 1875.4,-529.816"/>
<polygon fill="#9a32cd" stroke="#9a32cd" points="1533.98,-602.393 1524.14,-606.321 1534.29,-609.386 1533.98,-602.393"/>
<text text-anchor="middle" x="1686" y="-599.295" font-family="Helvetica,sans-Serif" font-size="10.00"> myWorkspace</text>
</g>
<!-- Node28 -->
<g id="node28" class="node"><title>Node28</title>
<g id="a_node28"><a xlink:href="../../de/d0a/classview_1_1_drawer.html" target="_top" xlink:title="view.Drawer">
<polygon fill="white" stroke="black" points="1649.5,-546.795 1649.5,-565.795 1722.5,-565.795 1722.5,-546.795 1649.5,-546.795"/>
<text text-anchor="middle" x="1686" y="-553.795" font-family="Helvetica,sans-Serif" font-size="10.00">view.Drawer</text>
</a>
</g>
</g>
<!-- Node21&#45;&gt;Node28 -->
<g id="edge37" class="edge"><title>Node21&#45;&gt;Node28</title>
<path fill="none" stroke="#9a32cd" stroke-dasharray="5,2" d="M1510.73,-593.812C1524.9,-588.03 1542.07,-581.625 1558,-577.295 1588.3,-569.055 1623.59,-563.534 1649.27,-560.23"/>
<polygon fill="#9a32cd" stroke="#9a32cd" points="1509.34,-590.601 1501.46,-597.681 1512.04,-597.061 1509.34,-590.601"/>
<text text-anchor="middle" x="1593" y="-580.295" font-family="Helvetica,sans-Serif" font-size="10.00"> myWorkspace</text>
</g>
<!-- Node21&#45;&gt;Node31 -->
<g id="edge42" class="edge"><title>Node21&#45;&gt;Node31</title>
<path fill="none" stroke="#9a32cd" stroke-dasharray="5,2" d="M1523.13,-619.364C1564.35,-629.825 1628.42,-643.295 1685,-643.295 1685,-643.295 1685,-643.295 2307,-643.295 2387.28,-643.295 2416.26,-614.612 2460,-547.295 2517.76,-458.385 2522.79,-322.71 2523.05,-285.829"/>
<polygon fill="#9a32cd" stroke="#9a32cd" points="1523.98,-615.968 1513.42,-616.847 1522.22,-622.744 1523.98,-615.968"/>
<text text-anchor="middle" x="2015" y="-646.295" font-family="Helvetica,sans-Serif" font-size="10.00"> myWorkspace</text>
</g>
<!-- Node22 -->
<g id="node22" class="node"><title>Node22</title>
<polygon fill="white" stroke="#bfbfbf" points="1204.5,-515.795 1204.5,-534.795 1271.5,-534.795 1271.5,-515.795 1204.5,-515.795"/>
<text text-anchor="middle" x="1238" y="-522.795" font-family="Helvetica,sans-Serif" font-size="10.00">StackPane</text>
</g>
<!-- Node22&#45;&gt;Node21 -->
<g id="edge27" class="edge"><title>Node22&#45;&gt;Node21</title>
<path fill="none" stroke="midnightblue" d="M1281.94,-530.71C1315.03,-535.808 1361.5,-544.999 1400,-560.295 1424.54,-570.043 1450.25,-587.074 1465.17,-597.737"/>
<polygon fill="midnightblue" stroke="midnightblue" points="1282.09,-527.195 1271.69,-529.196 1281.07,-534.119 1282.09,-527.195"/>
</g>
<!-- Node23 -->
<g id="node23" class="node"><title>Node23</title>
<g id="a_node23"><a xlink:href="../../d8/df7/classview_1_1_turtle_view.html" target="_top" xlink:title="view.TurtleView">
<polygon fill="white" stroke="black" points="1195,-726.795 1195,-745.795 1281,-745.795 1281,-726.795 1195,-726.795"/>
<text text-anchor="middle" x="1238" y="-733.795" font-family="Helvetica,sans-Serif" font-size="10.00">view.TurtleView</text>
</a>
</g>
</g>
<!-- Node23&#45;&gt;Node21 -->
<g id="edge29" class="edge"><title>Node23&#45;&gt;Node21</title>
<path fill="none" stroke="#9a32cd" stroke-dasharray="5,2" d="M1270.61,-722.43C1303.52,-707.661 1356.28,-683.046 1400,-658.295 1423.37,-645.064 1449.23,-627.547 1464.52,-616.867"/>
<polygon fill="#9a32cd" stroke="#9a32cd" points="1268.77,-719.417 1261.07,-726.686 1271.63,-725.81 1268.77,-719.417"/>
<text text-anchor="middle" x="1362" y="-699.295" font-family="Helvetica,sans-Serif" font-size="10.00"> myActiveTurtle</text>
</g>
<!-- Node24 -->
<g id="node24" class="node"><title>Node24</title>
<polygon fill="white" stroke="#bfbfbf" points="915,-713.795 915,-732.795 983,-732.795 983,-713.795 915,-713.795"/>
<text text-anchor="middle" x="949" y="-720.795" font-family="Helvetica,sans-Serif" font-size="10.00">ImageView</text>
</g>
<!-- Node24&#45;&gt;Node23 -->
<g id="edge30" class="edge"><title>Node24&#45;&gt;Node23</title>
<path fill="none" stroke="midnightblue" d="M993.24,-725.253C1047.74,-727.722 1140.82,-731.938 1194.82,-734.384"/>
<polygon fill="midnightblue" stroke="midnightblue" points="993.351,-721.755 983.203,-724.798 993.034,-728.747 993.351,-721.755"/>
</g>
<!-- Node25 -->
<g id="node25" class="node"><title>Node25</title>
<polygon fill="white" stroke="#bfbfbf" points="926,-762.795 926,-781.795 972,-781.795 972,-762.795 926,-762.795"/>
<text text-anchor="middle" x="949" y="-769.795" font-family="Helvetica,sans-Serif" font-size="10.00">Group</text>
</g>
<!-- Node25&#45;&gt;Node21 -->
<g id="edge33" class="edge"><title>Node25&#45;&gt;Node21</title>
<path fill="none" stroke="#9a32cd" stroke-dasharray="5,2" d="M982.328,-775.253C1045.7,-780.075 1190.15,-786.237 1306,-755.295 1350.57,-743.391 1364.21,-740.391 1400,-711.295 1434.5,-683.249 1462.09,-636.781 1472.98,-616.852"/>
<polygon fill="#9a32cd" stroke="#9a32cd" points="982.414,-771.748 972.166,-774.437 981.854,-778.726 982.414,-771.748"/>
<text text-anchor="middle" x="1238" y="-778.295" font-family="Helvetica,sans-Serif" font-size="10.00"> myLines</text>
</g>
<!-- Node25&#45;&gt;Node23 -->
<g id="edge31" class="edge"><title>Node25&#45;&gt;Node23</title>
<path fill="none" stroke="#9a32cd" stroke-dasharray="5,2" d="M982.202,-766.138C998.316,-763.196 1018.15,-759.781 1036,-757.295 1090.73,-749.671 1154.2,-743.48 1194.94,-739.843"/>
<polygon fill="#9a32cd" stroke="#9a32cd" points="981.403,-762.727 972.208,-767.99 982.678,-769.61 981.403,-762.727"/>
<text text-anchor="middle" x="1094" y="-760.295" font-family="Helvetica,sans-Serif" font-size="10.00"> myStamps</text>
</g>
<!-- Node26 -->
<g id="node26" class="node"><title>Node26</title>
<polygon fill="white" stroke="#bfbfbf" points="1170,-601.295 1170,-631.295 1306,-631.295 1306,-601.295 1170,-601.295"/>
<text text-anchor="start" x="1178" y="-619.295" font-family="Helvetica,sans-Serif" font-size="10.00">Map&lt; Integer, view.Turtle</text>
<text text-anchor="middle" x="1238" y="-608.295" font-family="Helvetica,sans-Serif" font-size="10.00">View &gt;</text>
</g>
<!-- Node26&#45;&gt;Node21 -->
<g id="edge32" class="edge"><title>Node26&#45;&gt;Node21</title>
<path fill="none" stroke="#9a32cd" stroke-dasharray="5,2" d="M1316.46,-613.378C1355.35,-611.913 1401.05,-610.192 1433.89,-608.955"/>
<polygon fill="#9a32cd" stroke="#9a32cd" points="1316.07,-609.89 1306.21,-613.764 1316.34,-616.885 1316.07,-609.89"/>
<text text-anchor="middle" x="1362" y="-615.295" font-family="Helvetica,sans-Serif" font-size="10.00"> myTurtles</text>
</g>
<!-- Node27 -->
<g id="node27" class="node"><title>Node27</title>
<polygon fill="white" stroke="#bfbfbf" points="1206.5,-650.795 1206.5,-669.795 1269.5,-669.795 1269.5,-650.795 1206.5,-650.795"/>
<text text-anchor="middle" x="1238" y="-657.795" font-family="Helvetica,sans-Serif" font-size="10.00">Rectangle</text>
</g>
<!-- Node27&#45;&gt;Node21 -->
<g id="edge35" class="edge"><title>Node27&#45;&gt;Node21</title>
<path fill="none" stroke="#9a32cd" stroke-dasharray="5,2" d="M1279.73,-652.518C1312.35,-646.152 1359.23,-636.693 1400,-627.295 1413.89,-624.091 1429.1,-620.265 1442.37,-616.822"/>
<polygon fill="#9a32cd" stroke="#9a32cd" points="1278.81,-649.13 1269.66,-654.472 1280.15,-656.002 1278.81,-649.13"/>
<text text-anchor="middle" x="1362" y="-646.295" font-family="Helvetica,sans-Serif" font-size="10.00"> myBackground</text>
</g>
<!-- Node28&#45;&gt;Node20 -->
<g id="edge36" class="edge"><title>Node28&#45;&gt;Node20</title>
<path fill="none" stroke="#9a32cd" stroke-dasharray="5,2" d="M1732.86,-548.162C1765.02,-542.459 1807.96,-534.843 1840.83,-529.015"/>
<polygon fill="#9a32cd" stroke="#9a32cd" points="1732.06,-544.749 1722.83,-549.941 1733.28,-551.641 1732.06,-544.749"/>
<text text-anchor="middle" x="1778" y="-549.295" font-family="Helvetica,sans-Serif" font-size="10.00"> myDrawer</text>
</g>
<!-- Node28&#45;&gt;Node31 -->
<g id="edge55" class="edge"><title>Node28&#45;&gt;Node31</title>
<path fill="none" stroke="#9a32cd" stroke-dasharray="5,2" d="M1720.73,-569.349C1760.55,-583.563 1829.07,-604.295 1890,-604.295 1890,-604.295 1890,-604.295 2307,-604.295 2463.48,-604.295 2512.99,-340.686 2521.57,-286.111"/>
<polygon fill="#9a32cd" stroke="#9a32cd" points="1721.84,-566.029 1711.25,-565.893 1719.44,-572.606 1721.84,-566.029"/>
<text text-anchor="middle" x="2118" y="-607.295" font-family="Helvetica,sans-Serif" font-size="10.00"> drawer</text>
</g>
<!-- Node29 -->
<g id="node29" class="node"><title>Node29</title>
<polygon fill="white" stroke="#bfbfbf" points="1458.5,-532.795 1458.5,-551.795 1499.5,-551.795 1499.5,-532.795 1458.5,-532.795"/>
<text text-anchor="middle" x="1479" y="-539.795" font-family="Helvetica,sans-Serif" font-size="10.00">Color</text>
</g>
<!-- Node29&#45;&gt;Node28 -->
<g id="edge38" class="edge"><title>Node29&#45;&gt;Node28</title>
<path fill="none" stroke="#9a32cd" stroke-dasharray="5,2" d="M1509.92,-540.599C1539.9,-539.345 1587.31,-538.574 1628,-543.295 1634.96,-544.102 1642.3,-545.418 1649.33,-546.911"/>
<polygon fill="#9a32cd" stroke="#9a32cd" points="1509.54,-537.113 1499.71,-541.073 1509.87,-544.105 1509.54,-537.113"/>
<text text-anchor="middle" x="1593" y="-546.295" font-family="Helvetica,sans-Serif" font-size="10.00"> myColor</text>
</g>
<!-- Node30 -->
<g id="node30" class="node"><title>Node30</title>
<polygon fill="white" stroke="#bfbfbf" points="1830,-393.795 1830,-412.795 1952,-412.795 1952,-393.795 1830,-393.795"/>
<text text-anchor="middle" x="1891" y="-400.795" font-family="Helvetica,sans-Serif" font-size="10.00">Map&lt; String, String &gt;</text>
</g>
<!-- Node30&#45;&gt;Node17 -->
<g id="edge40" class="edge"><title>Node30&#45;&gt;Node17</title>
<path fill="none" stroke="#9a32cd" stroke-dasharray="5,2" d="M1962.06,-395.347C1992.27,-391.603 2027.96,-386.757 2060,-381.295 2065.78,-380.309 2071.87,-379.154 2077.83,-377.957"/>
<polygon fill="#9a32cd" stroke="#9a32cd" points="1961.54,-391.885 1952.04,-396.574 1962.39,-398.833 1961.54,-391.885"/>
<text text-anchor="middle" x="2015" y="-397.295" font-family="Helvetica,sans-Serif" font-size="10.00"> myCommandMap</text>
</g>
<!-- Node31&#45;&gt;Node17 -->
<g id="edge41" class="edge"><title>Node31&#45;&gt;Node17</title>
<path fill="none" stroke="#9a32cd" stroke-dasharray="5,2" d="M2470.39,-288.014C2466.87,-288.789 2463.39,-289.554 2460,-290.295 2364.96,-311.069 2340.66,-313.834 2246,-336.295 2214.75,-343.71 2179.39,-352.968 2153.94,-359.789"/>
<polygon fill="#9a32cd" stroke="#9a32cd" points="2471.3,-291.398 2480.31,-285.823 2469.79,-284.563 2471.3,-291.398"/>
<text text-anchor="middle" x="2306" y="-339.295" font-family="Helvetica,sans-Serif" font-size="10.00"> mySLogoView</text>
</g>
<!-- Node32 -->
<g id="node32" class="node"><title>Node32</title>
<polygon fill="white" stroke="#bfbfbf" points="2283.5,-76.7945 2283.5,-95.7945 2328.5,-95.7945 2328.5,-76.7945 2283.5,-76.7945"/>
<text text-anchor="middle" x="2306" y="-83.7945" font-family="Helvetica,sans-Serif" font-size="10.00">Stage</text>
</g>
<!-- Node32&#45;&gt;Node31 -->
<g id="edge43" class="edge"><title>Node32&#45;&gt;Node31</title>
<path fill="none" stroke="#9a32cd" stroke-dasharray="5,2" d="M2338.8,-79.7612C2372.47,-74.7666 2425.42,-72.6364 2460,-99.2945 2515.02,-141.716 2522.1,-236.078 2522.92,-266.581"/>
<polygon fill="#9a32cd" stroke="#9a32cd" points="2337.89,-76.3643 2328.6,-81.4506 2339.03,-83.2704 2337.89,-76.3643"/>
<text text-anchor="middle" x="2422" y="-102.295" font-family="Helvetica,sans-Serif" font-size="10.00"> myStage</text>
</g>
<!-- Node33&#45;&gt;Node31 -->
<g id="edge45" class="edge"><title>Node33&#45;&gt;Node31</title>
<path fill="none" stroke="#9a32cd" stroke-dasharray="5,2" d="M2349.78,-217.094C2380.64,-225.862 2423.17,-238.476 2460,-251.295 2473.45,-255.974 2488.26,-261.815 2500.14,-266.675"/>
<polygon fill="#9a32cd" stroke="#9a32cd" points="2350.37,-213.622 2339.79,-214.274 2348.47,-220.359 2350.37,-213.622"/>
<text text-anchor="middle" x="2422" y="-254.295" font-family="Helvetica,sans-Serif" font-size="10.00"> myEditor</text>
</g>
<!-- Node34 -->
<g id="node34" class="node"><title>Node34</title>
<polygon fill="white" stroke="#bfbfbf" points="2097,-182.795 2097,-201.795 2139,-201.795 2139,-182.795 2097,-182.795"/>
<text text-anchor="middle" x="2118" y="-189.795" font-family="Helvetica,sans-Serif" font-size="10.00">HBox</text>
</g>
<!-- Node34&#45;&gt;Node33 -->
<g id="edge46" class="edge"><title>Node34&#45;&gt;Node33</title>
<path fill="none" stroke="midnightblue" d="M2149.46,-194.424C2183.27,-196.786 2237.61,-200.584 2272.29,-203.008"/>
<polygon fill="midnightblue" stroke="midnightblue" points="2149.48,-190.916 2139.26,-193.711 2148.99,-197.899 2149.48,-190.916"/>
</g>
<!-- Node35 -->
<g id="node35" class="node"><title>Node35</title>
<polygon fill="white" stroke="#bfbfbf" points="2093.5,-144.795 2093.5,-163.795 2142.5,-163.795 2142.5,-144.795 2093.5,-144.795"/>
<text text-anchor="middle" x="2118" y="-151.795" font-family="Helvetica,sans-Serif" font-size="10.00">Button</text>
</g>
<!-- Node35&#45;&gt;Node33 -->
<g id="edge47" class="edge"><title>Node35&#45;&gt;Node33</title>
<path fill="none" stroke="#9a32cd" stroke-dasharray="5,2" d="M2152.87,-162.635C2174.43,-168.034 2202.92,-175.331 2228,-182.295 2243.19,-186.513 2259.97,-191.488 2273.98,-195.731"/>
<polygon fill="#9a32cd" stroke="#9a32cd" points="2153.44,-159.169 2142.89,-160.147 2151.74,-165.961 2153.44,-159.169"/>
<text text-anchor="middle" x="2202" y="-185.295" font-family="Helvetica,sans-Serif" font-size="10.00"> runButton</text>
</g>
<!-- Node36 -->
<g id="node36" class="node"><title>Node36</title>
<polygon fill="white" stroke="#bfbfbf" points="2089,-106.795 2089,-125.795 2147,-125.795 2147,-106.795 2089,-106.795"/>
<text text-anchor="middle" x="2118" y="-113.795" font-family="Helvetica,sans-Serif" font-size="10.00">TextArea</text>
</g>
<!-- Node36&#45;&gt;Node33 -->
<g id="edge49" class="edge"><title>Node36&#45;&gt;Node33</title>
<path fill="none" stroke="#9a32cd" stroke-dasharray="5,2" d="M2156.82,-126.921C2178.23,-133.564 2205.21,-142.999 2228,-154.295 2252.13,-166.259 2277.75,-184.484 2292.52,-195.6"/>
<polygon fill="#9a32cd" stroke="#9a32cd" points="2157.68,-123.527 2147.1,-123.979 2155.66,-130.227 2157.68,-123.527"/>
<text text-anchor="middle" x="2202" y="-157.295" font-family="Helvetica,sans-Serif" font-size="10.00"> textEditor</text>
</g>
<!-- Node37 -->
<g id="node37" class="node"><title>Node37</title>
<polygon fill="white" stroke="#bfbfbf" points="2246.5,-38.7945 2246.5,-57.7945 2365.5,-57.7945 2365.5,-38.7945 2246.5,-38.7945"/>
<text text-anchor="middle" x="2306" y="-45.7945" font-family="Helvetica,sans-Serif" font-size="10.00">Map&lt; String, Node &gt;</text>
</g>
<!-- Node37&#45;&gt;Node31 -->
<g id="edge51" class="edge"><title>Node37&#45;&gt;Node31</title>
<path fill="none" stroke="#9a32cd" stroke-dasharray="5,2" d="M2375.66,-38.5987C2404.6,-38.2533 2436.86,-43.2829 2460,-62.2945 2524.93,-115.653 2525.05,-232.316 2523.58,-266.623"/>
<polygon fill="#9a32cd" stroke="#9a32cd" points="2375.46,-35.1033 2365.58,-38.931 2375.69,-42.0995 2375.46,-35.1033"/>
<text text-anchor="middle" x="2422" y="-65.2945" font-family="Helvetica,sans-Serif" font-size="10.00"> variables</text>
</g>
<!-- Node38 -->
<g id="node38" class="node"><title>Node38</title>
<polygon fill="white" stroke="#bfbfbf" points="2265.5,-0.794527 2265.5,-19.7945 2346.5,-19.7945 2346.5,-0.794527 2265.5,-0.794527"/>
<text text-anchor="middle" x="2306" y="-7.79453" font-family="Helvetica,sans-Serif" font-size="10.00">Dimension2D</text>
</g>
<!-- Node38&#45;&gt;Node31 -->
<g id="edge54" class="edge"><title>Node38&#45;&gt;Node31</title>
<path fill="none" stroke="#9a32cd" stroke-dasharray="5,2" d="M2357.02,-1.18269C2390.01,1.84237 2432.13,-0.410029 2460,-24.2945 2498.27,-57.0878 2517.74,-224.698 2522.06,-266.727"/>
<polygon fill="#9a32cd" stroke="#9a32cd" points="2356.21,2.24937 2346.66,-2.32956 2356.98,-4.70815 2356.21,2.24937"/>
<text text-anchor="middle" x="2422" y="-27.2945" font-family="Helvetica,sans-Serif" font-size="10.00"> myDimensions</text>
</g>
<!-- Node39 -->
<g id="node39" class="node"><title>Node39</title>
<polygon fill="white" stroke="#bfbfbf" points="880,-265.795 880,-284.795 1018,-284.795 1018,-265.795 880,-265.795"/>
<text text-anchor="middle" x="949" y="-272.795" font-family="Helvetica,sans-Serif" font-size="10.00">ObservableList&lt; String &gt;</text>
</g>
<!-- Node39&#45;&gt;Node1 -->
<g id="edge57" class="edge"><title>Node39&#45;&gt;Node1</title>
<path fill="none" stroke="#9a32cd" stroke-dasharray="5,2" d="M1006.91,-264.43C1049.84,-259.31 1108.56,-259.137 1152,-285.295 1203.71,-316.431 1227.64,-392.04 1234.69,-418.753"/>
<polygon fill="#9a32cd" stroke="#9a32cd" points="1006.37,-260.972 996.907,-265.746 1007.28,-267.912 1006.37,-260.972"/>
<text text-anchor="middle" x="1094" y="-299.295" font-family="Helvetica,sans-Serif" font-size="10.00"> myCommandItems</text>
<text text-anchor="middle" x="1094" y="-288.295" font-family="Helvetica,sans-Serif" font-size="10.00">myHistoryItems</text>
</g>
</g>
</svg>
        <g id="navigator" transform="translate(0 0)" fill="#404254">
                <rect fill="#f2f5e9" fill-opacity="0.5" stroke="#606060" stroke-width=".5" x="0" y="0" width="60" height="60"/>
                <use id="zoomplus" xlink:href="#zoomPlus" x="17" y="9" onmousedown="handleZoom(evt,'in')"/>
                <use id="zoomminus" xlink:href="#zoomMin" x="42" y="9" onmousedown="handleZoom(evt,'out')"/>
                <use id="reset" xlink:href="#resetDef" x="30" y="36" onmousedown="handleReset()"/>
                <g id="arrowUp" xlink:href="#dirArrow" transform="translate(30 24)" onmousedown="handlePan(0,-1)">
                  <use xlink:href="#rim" fill="#404040">
                        <set attributeName="fill" to="#808080" begin="arrowUp.mouseover" end="arrowUp.mouseout"/>
                  </use>
                  <path fill="none" stroke="white" stroke-width="1.5" d="M0,-3.0v7 M-2.5,-0.5L0,-3.0L2.5,-0.5"/>
                </g>
                <g id="arrowRight" xlink:href="#dirArrow" transform="rotate(90) translate(36 -43)" onmousedown="handlePan(1,0)">
                  <use xlink:href="#rim" fill="#404040">
                        <set attributeName="fill" to="#808080" begin="arrowRight.mouseover" end="arrowRight.mouseout"/>
                  </use>
                  <path fill="none" stroke="white" stroke-width="1.5" d="M0,-3.0v7 M-2.5,-0.5L0,-3.0L2.5,-0.5"/>
                </g>
                <g id="arrowDown" xlink:href="#dirArrow" transform="rotate(180) translate(-30 -48)" onmousedown="handlePan(0,1)">
                  <use xlink:href="#rim" fill="#404040">
                        <set attributeName="fill" to="#808080" begin="arrowDown.mouseover" end="arrowDown.mouseout"/>
                  </use>
                  <path fill="none" stroke="white" stroke-width="1.5" d="M0,-3.0v7 M-2.5,-0.5L0,-3.0L2.5,-0.5"/>
                </g>
                <g id="arrowLeft" xlink:href="#dirArrow" transform="rotate(270) translate(-36 17)" onmousedown="handlePan(-1,0)">
                  <use xlink:href="#rim" fill="#404040">
                        <set attributeName="fill" to="#808080" begin="arrowLeft.mouseover" end="arrowLeft.mouseout"/>
                  </use>
                  <path fill="none" stroke="white" stroke-width="1.5" d="M0,-3.0v7 M-2.5,-0.5L0,-3.0L2.5,-0.5"/>
                </g>
        </g>
        <svg viewBox="0 0 15 15" width="100%" height="30px" preserveAspectRatio="xMaxYMin meet">
         <g id="arrow_out" transform="scale(0.3 0.3)">
          <a xlink:href="classview_1_1_side_bar__coll__graph_org.svg" target="_base">
           <rect id="button" ry="5" rx="5" y="6" x="6" height="38" width="38"
                fill="#f2f5e9" fill-opacity="0.5" stroke="#606060" stroke-width="1.0"/>
           <path id="arrow"
             d="M 11.500037,31.436501 C 11.940474,20.09759 22.043105,11.32322 32.158766,21.979434 L 37.068811,17.246167 C 37.068811,17.246167 37.088388,32 37.088388,32 L 22.160133,31.978069 C 22.160133,31.978069 26.997745,27.140456 26.997745,27.140456 C 18.528582,18.264221 13.291696,25.230495 11.500037,31.436501 z"
             style="fill:#404040;"/>
          </a>
         </g>
        </svg>
</svg>
