<?xml version="1.0" encoding="UTF-8" standalone="no"?>
<!DOCTYPE svg PUBLIC "-//W3C//DTD SVG 1.1//EN"
 "http://www.w3.org/Graphics/SVG/1.1/DTD/svg11.dtd">
<!-- Generated by graphviz version 2.36.0 (20140111.2315)
 -->
<!-- Title: view.SideBar Pages: 1 -->
<svg width="2084pt" height="712pt"
 viewBox="0.00 0.00 2084.00 712.00" xmlns="http://www.w3.org/2000/svg" xmlns:xlink="http://www.w3.org/1999/xlink">
<g id="graph0" class="graph" transform="scale(1 1) rotate(0) translate(4 708)">
<title>view.SideBar</title>
<polygon fill="white" stroke="none" points="-4,4 -4,-708 2080,-708 2080,4 -4,4"/>
<!-- Node1 -->
<g id="node1" class="node"><title>Node1</title>
<polygon fill="#bfbfbf" stroke="black" points="679.5,-362.5 679.5,-381.5 756.5,-381.5 756.5,-362.5 679.5,-362.5"/>
<text text-anchor="middle" x="718" y="-369.5" font-family="Helvetica,sans-Serif" font-size="10.00">view.SideBar</text>
</g>
<!-- Node14 -->
<g id="node14" class="node"><title>Node14</title>
<g id="a_node14"><a xlink:href="../../d4/d64/classview_1_1_view_updater.html" target="_top" xlink:title="view.ViewUpdater">
<polygon fill="white" stroke="black" points="1347,-441.5 1347,-460.5 1447,-460.5 1447,-441.5 1347,-441.5"/>
<text text-anchor="middle" x="1397" y="-448.5" font-family="Helvetica,sans-Serif" font-size="10.00">view.ViewUpdater</text>
</a>
</g>
</g>
<!-- Node1&#45;&gt;Node14 -->
<g id="edge29" class="edge"><title>Node1&#45;&gt;Node14</title>
<path fill="none" stroke="#9a32cd" stroke-dasharray="5,2" d="M766.59,-380.167C778.771,-382.167 791.859,-384.238 804,-386 955.608,-408.008 993.67,-412.727 1146,-429 1215.54,-436.428 1296.15,-443.19 1346.61,-447.201"/>
<polygon fill="#9a32cd" stroke="#9a32cd" points="767.049,-376.695 756.611,-378.512 765.904,-383.601 767.049,-376.695"/>
<text text-anchor="middle" x="1067" y="-430" font-family="Helvetica,sans-Serif" font-size="10.00"> mySidebar</text>
</g>
<!-- Node15 -->
<g id="node15" class="node"><title>Node15</title>
<g id="a_node15"><a xlink:href="../../da/d64/classview_1_1_workspace.html" target="_top" xlink:title="view.Workspace">
<polygon fill="white" stroke="black" points="898,-522.5 898,-541.5 988,-541.5 988,-522.5 898,-522.5"/>
<text text-anchor="middle" x="943" y="-529.5" font-family="Helvetica,sans-Serif" font-size="10.00">view.Workspace</text>
</a>
</g>
</g>
<!-- Node1&#45;&gt;Node15 -->
<g id="edge24" class="edge"><title>Node1&#45;&gt;Node15</title>
<path fill="none" stroke="#9a32cd" stroke-dasharray="5,2" d="M746.996,-385.911C763.393,-393.789 784.625,-403.529 804,-411 837.05,-423.744 854.889,-410.017 880,-435 898.533,-453.439 883.984,-468.932 898,-491 905.949,-503.516 918.617,-514.762 928.324,-522.296"/>
<polygon fill="#9a32cd" stroke="#9a32cd" points="748.475,-382.739 737.951,-381.519 745.418,-389.036 748.475,-382.739"/>
<text text-anchor="middle" x="842" y="-438" font-family="Helvetica,sans-Serif" font-size="10.00"> mySidebar</text>
</g>
<!-- Node25 -->
<g id="node25" class="node"><title>Node25</title>
<g id="a_node25"><a xlink:href="../../d6/de7/classview_1_1_s_logo_view.html" target="_top" xlink:title="view.SLogoView">
<polygon fill="white" stroke="black" points="1984.5,-217.5 1984.5,-236.5 2075.5,-236.5 2075.5,-217.5 1984.5,-217.5"/>
<text text-anchor="middle" x="2030" y="-224.5" font-family="Helvetica,sans-Serif" font-size="10.00">view.SLogoView</text>
</a>
</g>
</g>
<!-- Node1&#45;&gt;Node25 -->
<g id="edge46" class="edge"><title>Node1&#45;&gt;Node25</title>
<path fill="none" stroke="#9a32cd" stroke-dasharray="5,2" d="M766.973,-372C812.133,-372 881.659,-372 942,-372 942,-372 942,-372 1813,-372 1910.56,-372 1997.26,-268.772 2021.97,-236.514"/>
<polygon fill="#9a32cd" stroke="#9a32cd" points="766.879,-368.5 756.879,-372 766.879,-375.5 766.879,-368.5"/>
<text text-anchor="middle" x="1397" y="-375" font-family="Helvetica,sans-Serif" font-size="10.00"> mySidebar</text>
</g>
<!-- Node27 -->
<g id="node27" class="node"><title>Node27</title>
<g id="a_node27"><a xlink:href="../../da/dc8/classview_1_1_editor.html" target="_top" xlink:title="view.Editor">
<polygon fill="white" stroke="black" points="1778.5,-88.5 1778.5,-107.5 1845.5,-107.5 1845.5,-88.5 1778.5,-88.5"/>
<text text-anchor="middle" x="1812" y="-95.5" font-family="Helvetica,sans-Serif" font-size="10.00">view.Editor</text>
</a>
</g>
</g>
<!-- Node1&#45;&gt;Node27 -->
<g id="edge40" class="edge"><title>Node1&#45;&gt;Node27</title>
<path fill="none" stroke="#9a32cd" stroke-dasharray="5,2" d="M738.599,-355.92C807.637,-300.965 1047.75,-124 1277,-124 1277,-124 1277,-124 1625,-124 1679.13,-124 1741.26,-113.068 1778.27,-105.381"/>
<polygon fill="#9a32cd" stroke="#9a32cd" points="736.293,-353.283 730.694,-362.278 740.68,-358.738 736.293,-353.283"/>
<text text-anchor="middle" x="1278" y="-129" font-family="Helvetica,sans-Serif" font-size="10.00"> mySidebar</text>
</g>
<!-- Node2 -->
<g id="node2" class="node"><title>Node2</title>
<polygon fill="white" stroke="#bfbfbf" points="388.5,-422.5 388.5,-441.5 429.5,-441.5 429.5,-422.5 388.5,-422.5"/>
<text text-anchor="middle" x="409" y="-429.5" font-family="Helvetica,sans-Serif" font-size="10.00">VBox</text>
</g>
<!-- Node2&#45;&gt;Node1 -->
<g id="edge1" class="edge"><title>Node2&#45;&gt;Node1</title>
<path fill="none" stroke="midnightblue" d="M439.584,-429.941C482.475,-426.52 564.211,-418.36 632,-402 653.449,-396.823 677.057,-388.248 693.938,-381.589"/>
<polygon fill="midnightblue" stroke="midnightblue" points="439.252,-426.456 429.549,-430.71 439.788,-433.435 439.252,-426.456"/>
</g>
<!-- Node3 -->
<g id="node3" class="node"><title>Node3</title>
<polygon fill="white" stroke="#bfbfbf" points="322.5,-384.5 322.5,-403.5 495.5,-403.5 495.5,-384.5 322.5,-384.5"/>
<text text-anchor="middle" x="409" y="-391.5" font-family="Helvetica,sans-Serif" font-size="10.00">ObservableList&lt; view.Property &gt;</text>
</g>
<!-- Node3&#45;&gt;Node1 -->
<g id="edge2" class="edge"><title>Node3&#45;&gt;Node1</title>
<path fill="none" stroke="#9a32cd" stroke-dasharray="5,2" d="M505.563,-387.152C564.26,-382.946 636.205,-377.79 679.231,-374.707"/>
<polygon fill="#9a32cd" stroke="#9a32cd" points="505.241,-383.666 495.517,-387.872 505.741,-390.648 505.241,-383.666"/>
<text text-anchor="middle" x="573" y="-390" font-family="Helvetica,sans-Serif" font-size="10.00"> myVariablesList</text>
</g>
<!-- Node4 -->
<g id="node4" class="node"><title>Node4</title>
<polygon fill="white" stroke="#bfbfbf" points="362.5,-644.5 362.5,-663.5 455.5,-663.5 455.5,-644.5 362.5,-644.5"/>
<text text-anchor="middle" x="409" y="-651.5" font-family="Helvetica,sans-Serif" font-size="10.00">ResourceBundle</text>
</g>
<!-- Node4&#45;&gt;Node1 -->
<g id="edge3" class="edge"><title>Node4&#45;&gt;Node1</title>
<path fill="none" stroke="#9a32cd" stroke-dasharray="5,2" d="M448.569,-640.358C465.504,-632.505 484.184,-620.967 496,-605 517.68,-575.705 494.696,-555.912 514,-525 538.428,-485.883 658.273,-408.659 701.455,-381.622"/>
<polygon fill="#9a32cd" stroke="#9a32cd" points="447.169,-637.15 439.394,-644.347 449.96,-643.569 447.169,-637.15"/>
<text text-anchor="middle" x="573" y="-528" font-family="Helvetica,sans-Serif" font-size="10.00"> myResources</text>
</g>
<!-- Node4&#45;&gt;Node15 -->
<g id="edge18" class="edge"><title>Node4&#45;&gt;Node15</title>
<path fill="none" stroke="#9a32cd" stroke-dasharray="5,2" d="M465.758,-654.324C574.807,-654.015 811.635,-648.429 880,-607 907.162,-590.54 927.867,-557.807 936.95,-541.58"/>
<polygon fill="#9a32cd" stroke="#9a32cd" points="465.609,-650.824 455.614,-654.338 465.619,-657.824 465.609,-650.824"/>
<text text-anchor="middle" x="718" y="-651" font-family="Helvetica,sans-Serif" font-size="10.00"> myResources</text>
</g>
<!-- Node4&#45;&gt;Node25 -->
<g id="edge34" class="edge"><title>Node4&#45;&gt;Node25</title>
<path fill="none" stroke="#9a32cd" stroke-dasharray="5,2" d="M465.388,-665.317C526.659,-676.833 628.445,-693 717,-693 717,-693 717,-693 1813,-693 2021.66,-693 2029.33,-303.652 2029.11,-236.733"/>
<polygon fill="#9a32cd" stroke="#9a32cd" points="466.02,-661.875 455.541,-663.441 464.709,-668.751 466.02,-661.875"/>
<text text-anchor="middle" x="1278" y="-696" font-family="Helvetica,sans-Serif" font-size="10.00"> myResources</text>
</g>
<!-- Node5 -->
<g id="node5" class="node"><title>Node5</title>
<g id="a_node5"><a xlink:href="../../d1/dca/classmodel_1_1_execution_environment.html" target="_top" xlink:title="model.ExecutionEnvironment">
<polygon fill="white" stroke="black" points="330.5,-186.5 330.5,-205.5 487.5,-205.5 487.5,-186.5 330.5,-186.5"/>
<text text-anchor="middle" x="409" y="-193.5" font-family="Helvetica,sans-Serif" font-size="10.00">model.ExecutionEnvironment</text>
</a>
</g>
</g>
<!-- Node5&#45;&gt;Node1 -->
<g id="edge4" class="edge"><title>Node5&#45;&gt;Node1</title>
<path fill="none" stroke="#9a32cd" stroke-dasharray="5,2" d="M453.747,-208.574C500.378,-223.204 575.174,-250.266 632,-288 664.839,-309.806 695.754,-345.514 709.512,-362.477"/>
<polygon fill="#9a32cd" stroke="#9a32cd" points="454.543,-205.157 443.955,-205.555 452.48,-211.846 454.543,-205.157"/>
<text text-anchor="middle" x="573" y="-291" font-family="Helvetica,sans-Serif" font-size="10.00"> myEnvironment</text>
</g>
<!-- Node11 -->
<g id="node11" class="node"><title>Node11</title>
<g id="a_node11"><a xlink:href="../../dc/df5/classmodel_1_1_parser.html" target="_top" xlink:title="model.Parser">
<polygon fill="white" stroke="black" points="1584,-264.5 1584,-283.5 1664,-283.5 1664,-264.5 1584,-264.5"/>
<text text-anchor="middle" x="1624" y="-271.5" font-family="Helvetica,sans-Serif" font-size="10.00">model.Parser</text>
</a>
</g>
</g>
<!-- Node5&#45;&gt;Node11 -->
<g id="edge13" class="edge"><title>Node5&#45;&gt;Node11</title>
<path fill="none" stroke="#9a32cd" stroke-dasharray="5,2" d="M497.847,-196.876C623.699,-198.053 862.586,-200 1066,-200 1066,-200 1066,-200 1398,-200 1479.63,-200 1569.94,-244.491 1606.4,-264.477"/>
<polygon fill="#9a32cd" stroke="#9a32cd" points="497.537,-193.373 487.504,-196.778 497.471,-200.372 497.537,-193.373"/>
<text text-anchor="middle" x="1067" y="-203" font-family="Helvetica,sans-Serif" font-size="10.00"> myExecutionParameters</text>
</g>
<!-- Node5&#45;&gt;Node25 -->
<g id="edge42" class="edge"><title>Node5&#45;&gt;Node25</title>
<path fill="none" stroke="#9a32cd" stroke-dasharray="5,2" d="M497.963,-189.198C710.7,-174.012 1269.75,-141.652 1734,-181 1823.35,-188.573 1926.66,-206.918 1984.26,-218.017"/>
<polygon fill="#9a32cd" stroke="#9a32cd" points="497.514,-185.721 487.791,-189.93 498.017,-192.703 497.514,-185.721"/>
<text text-anchor="middle" x="1278" y="-166" font-family="Helvetica,sans-Serif" font-size="10.00"> myEnvironment</text>
</g>
<!-- Node6 -->
<g id="node6" class="node"><title>Node6</title>
<polygon fill="white" stroke="#bfbfbf" points="51.5,-246.5 51.5,-265.5 122.5,-265.5 122.5,-246.5 51.5,-246.5"/>
<text text-anchor="middle" x="87" y="-253.5" font-family="Helvetica,sans-Serif" font-size="10.00">Observable</text>
</g>
<!-- Node6&#45;&gt;Node5 -->
<g id="edge5" class="edge"><title>Node6&#45;&gt;Node5</title>
<path fill="none" stroke="midnightblue" d="M132.631,-255.797C176.728,-254.731 245.827,-250.721 304,-237 334.601,-229.782 368.12,-215.281 388.609,-205.605"/>
<polygon fill="midnightblue" stroke="midnightblue" points="132.454,-252.3 122.526,-256.001 132.595,-259.299 132.454,-252.3"/>
</g>
<!-- Node7 -->
<g id="node7" class="node"><title>Node7</title>
<polygon fill="white" stroke="#bfbfbf" points="42.5,-208.5 42.5,-227.5 131.5,-227.5 131.5,-208.5 42.5,-208.5"/>
<text text-anchor="middle" x="87" y="-215.5" font-family="Helvetica,sans-Serif" font-size="10.00">Set&lt; Integer &gt;</text>
</g>
<!-- Node7&#45;&gt;Node5 -->
<g id="edge6" class="edge"><title>Node7&#45;&gt;Node5</title>
<path fill="none" stroke="#9a32cd" stroke-dasharray="5,2" d="M142.097,-214.281C193.719,-210.732 272.037,-205.347 330.323,-201.34"/>
<polygon fill="#9a32cd" stroke="#9a32cd" points="141.56,-210.809 131.824,-214.987 142.04,-217.793 141.56,-210.809"/>
<text text-anchor="middle" x="248" y="-225" font-family="Helvetica,sans-Serif" font-size="10.00"> myTurtleList</text>
<text text-anchor="middle" x="248" y="-214" font-family="Helvetica,sans-Serif" font-size="10.00">activeTurtleList</text>
</g>
<!-- Node8 -->
<g id="node8" class="node"><title>Node8</title>
<polygon fill="white" stroke="#bfbfbf" points="0,-159 0,-189 174,-189 174,-159 0,-159"/>
<text text-anchor="start" x="8" y="-177" font-family="Helvetica,sans-Serif" font-size="10.00">Map&lt; String, model.instructions.</text>
<text text-anchor="middle" x="87" y="-166" font-family="Helvetica,sans-Serif" font-size="10.00">Instruction &gt;</text>
</g>
<!-- Node8&#45;&gt;Node5 -->
<g id="edge7" class="edge"><title>Node8&#45;&gt;Node5</title>
<path fill="none" stroke="#9a32cd" stroke-dasharray="5,2" d="M184.315,-180.622C231.052,-183.835 286.453,-187.644 330.426,-190.667"/>
<polygon fill="#9a32cd" stroke="#9a32cd" points="184.392,-177.119 174.175,-179.925 183.911,-184.102 184.392,-177.119"/>
<text text-anchor="middle" x="248" y="-192" font-family="Helvetica,sans-Serif" font-size="10.00"> myUserInstructionMap</text>
</g>
<!-- Node9 -->
<g id="node9" class="node"><title>Node9</title>
<polygon fill="white" stroke="#bfbfbf" points="23,-120.5 23,-139.5 151,-139.5 151,-120.5 23,-120.5"/>
<text text-anchor="middle" x="87" y="-127.5" font-family="Helvetica,sans-Serif" font-size="10.00">Map&lt; String, Double &gt;</text>
</g>
<!-- Node9&#45;&gt;Node5 -->
<g id="edge8" class="edge"><title>Node9&#45;&gt;Node5</title>
<path fill="none" stroke="#9a32cd" stroke-dasharray="5,2" d="M161.326,-140.652C203.304,-147.225 256.845,-156.416 304,-167 328.691,-172.542 356.262,-180.303 376.809,-186.403"/>
<polygon fill="#9a32cd" stroke="#9a32cd" points="161.606,-137.153 151.188,-139.08 160.533,-144.071 161.606,-137.153"/>
<text text-anchor="middle" x="248" y="-170" font-family="Helvetica,sans-Serif" font-size="10.00"> myVariableMap</text>
</g>
<!-- Node10 -->
<g id="node10" class="node"><title>Node10</title>
<polygon fill="white" stroke="#bfbfbf" points="335,-339.5 335,-358.5 483,-358.5 483,-339.5 335,-339.5"/>
<text text-anchor="middle" x="409" y="-346.5" font-family="Helvetica,sans-Serif" font-size="10.00">TableView&lt; view.Property &gt;</text>
</g>
<!-- Node10&#45;&gt;Node1 -->
<g id="edge9" class="edge"><title>Node10&#45;&gt;Node1</title>
<path fill="none" stroke="#9a32cd" stroke-dasharray="5,2" d="M493.371,-346.534C535.13,-346.305 586.386,-347.548 632,-353 648.516,-354.974 666.532,-358.76 681.71,-362.436"/>
<polygon fill="#9a32cd" stroke="#9a32cd" points="493.214,-343.035 483.244,-346.619 493.273,-350.035 493.214,-343.035"/>
<text text-anchor="middle" x="573" y="-367" font-family="Helvetica,sans-Serif" font-size="10.00"> myTurtlePropertiesTable</text>
<text text-anchor="middle" x="573" y="-356" font-family="Helvetica,sans-Serif" font-size="10.00">myVariablesTable</text>
</g>
<!-- Node11&#45;&gt;Node1 -->
<g id="edge10" class="edge"><title>Node11&#45;&gt;Node1</title>
<path fill="none" stroke="#9a32cd" stroke-dasharray="5,2" d="M1573.54,-267.564C1540.82,-263.637 1496.93,-259 1458,-257 1180.83,-242.759 851.31,-332.473 750.093,-362.473"/>
<polygon fill="#9a32cd" stroke="#9a32cd" points="1573.4,-271.073 1583.75,-268.81 1574.25,-264.125 1573.4,-271.073"/>
<text text-anchor="middle" x="1183" y="-279" font-family="Helvetica,sans-Serif" font-size="10.00"> myParser</text>
</g>
<!-- Node11&#45;&gt;Node25 -->
<g id="edge43" class="edge"><title>Node11&#45;&gt;Node25</title>
<path fill="none" stroke="#9a32cd" stroke-dasharray="5,2" d="M1663.67,-261.327C1688.6,-253.739 1721.87,-244.685 1752,-240 1833.11,-227.39 1929.05,-225.81 1984.09,-226.162"/>
<polygon fill="#9a32cd" stroke="#9a32cd" points="1662.39,-258.06 1653.88,-264.364 1664.46,-264.746 1662.39,-258.06"/>
<text text-anchor="middle" x="1812" y="-243" font-family="Helvetica,sans-Serif" font-size="10.00"> myParser</text>
</g>
<!-- Node11&#45;&gt;Node27 -->
<g id="edge38" class="edge"><title>Node11&#45;&gt;Node27</title>
<path fill="none" stroke="#9a32cd" stroke-dasharray="5,2" d="M1639.1,-255.995C1650.58,-241.384 1667.24,-220.284 1682,-202 1683.92,-199.62 1749.47,-118.719 1752,-117 1759.83,-111.679 1769.25,-107.771 1778.24,-104.933"/>
<polygon fill="#9a32cd" stroke="#9a32cd" points="1636.1,-254.142 1632.68,-264.17 1641.61,-258.462 1636.1,-254.142"/>
<text text-anchor="middle" x="1708" y="-205" font-family="Helvetica,sans-Serif" font-size="10.00"> myParser</text>
</g>
<!-- Node12 -->
<g id="node12" class="node"><title>Node12</title>
<polygon fill="white" stroke="#bfbfbf" points="1153,-400.5 1153,-419.5 1213,-419.5 1213,-400.5 1153,-400.5"/>
<text text-anchor="middle" x="1183" y="-407.5" font-family="Helvetica,sans-Serif" font-size="10.00">Observer</text>
</g>
<!-- Node12&#45;&gt;Node11 -->
<g id="edge11" class="edge"><title>Node12&#45;&gt;Node11</title>
<path fill="none" stroke="midnightblue" d="M1223.44,-412.138C1277.66,-413.867 1377.64,-412.682 1458,-387 1525.14,-365.543 1589.55,-307.061 1613.34,-283.766"/>
<polygon fill="midnightblue" stroke="midnightblue" points="1223.35,-408.632 1213.23,-411.76 1223.09,-415.628 1223.35,-408.632"/>
</g>
<!-- Node12&#45;&gt;Node14 -->
<g id="edge15" class="edge"><title>Node12&#45;&gt;Node14</title>
<path fill="none" stroke="midnightblue" d="M1223.28,-417.597C1258.08,-424.327 1309.05,-434.184 1346.6,-441.447"/>
<polygon fill="midnightblue" stroke="midnightblue" points="1223.52,-414.077 1213.03,-415.615 1222.19,-420.95 1223.52,-414.077"/>
</g>
<!-- Node13 -->
<g id="node13" class="node"><title>Node13</title>
<polygon fill="white" stroke="#bfbfbf" points="1341,-305 1341,-335 1453,-335 1453,-305 1341,-305"/>
<text text-anchor="start" x="1349" y="-323" font-family="Helvetica,sans-Serif" font-size="10.00">List&lt; Entry&lt; String,</text>
<text text-anchor="middle" x="1397" y="-312" font-family="Helvetica,sans-Serif" font-size="10.00"> Pattern &gt; &gt;</text>
</g>
<!-- Node13&#45;&gt;Node11 -->
<g id="edge12" class="edge"><title>Node13&#45;&gt;Node11</title>
<path fill="none" stroke="#9a32cd" stroke-dasharray="5,2" d="M1463.1,-310.611C1494.39,-305.628 1532.33,-298.898 1566,-291 1574.95,-288.901 1584.56,-286.207 1593.3,-283.585"/>
<polygon fill="#9a32cd" stroke="#9a32cd" points="1462.52,-307.158 1453.19,-312.167 1463.61,-314.074 1462.52,-307.158"/>
<text text-anchor="middle" x="1521" y="-311" font-family="Helvetica,sans-Serif" font-size="10.00"> myPatterns</text>
</g>
<!-- Node14&#45;&gt;Node11 -->
<g id="edge14" class="edge"><title>Node14&#45;&gt;Node11</title>
<path fill="none" stroke="#9a32cd" stroke-dasharray="5,2" d="M1457.16,-455.885C1492.35,-455.648 1535.86,-449.458 1566,-425 1611.47,-388.098 1620.69,-310.806 1622.54,-283.669"/>
<polygon fill="#9a32cd" stroke="#9a32cd" points="1457.03,-452.384 1447,-455.793 1456.97,-459.384 1457.03,-452.384"/>
<text text-anchor="middle" x="1521" y="-459" font-family="Helvetica,sans-Serif" font-size="10.00"> myViewUpdater</text>
</g>
<!-- Node15&#45;&gt;Node14 -->
<g id="edge16" class="edge"><title>Node15&#45;&gt;Node14</title>
<path fill="none" stroke="#9a32cd" stroke-dasharray="5,2" d="M998.109,-532.995C1072.12,-532.846 1208.27,-527.147 1318,-492 1341.46,-484.487 1366.26,-470.207 1381.44,-460.644"/>
<polygon fill="#9a32cd" stroke="#9a32cd" points="998.091,-529.495 988.086,-532.981 998.082,-536.495 998.091,-529.495"/>
<text text-anchor="middle" x="1183" y="-529" font-family="Helvetica,sans-Serif" font-size="10.00"> myWorkspace</text>
</g>
<!-- Node22 -->
<g id="node22" class="node"><title>Node22</title>
<g id="a_node22"><a xlink:href="../../de/d0a/classview_1_1_drawer.html" target="_top" xlink:title="view.Drawer">
<polygon fill="white" stroke="black" points="1146.5,-476.5 1146.5,-495.5 1219.5,-495.5 1219.5,-476.5 1146.5,-476.5"/>
<text text-anchor="middle" x="1183" y="-483.5" font-family="Helvetica,sans-Serif" font-size="10.00">view.Drawer</text>
</a>
</g>
</g>
<!-- Node15&#45;&gt;Node22 -->
<g id="edge27" class="edge"><title>Node15&#45;&gt;Node22</title>
<path fill="none" stroke="#9a32cd" stroke-dasharray="5,2" d="M973.184,-518.383C983.372,-514.13 995.01,-509.818 1006,-507 1053.69,-494.77 1110.52,-489.625 1146.43,-487.485"/>
<polygon fill="#9a32cd" stroke="#9a32cd" points="971.714,-515.205 963.929,-522.392 974.496,-521.629 971.714,-515.205"/>
<text text-anchor="middle" x="1067" y="-510" font-family="Helvetica,sans-Serif" font-size="10.00"> myWorkspace</text>
</g>
<!-- Node15&#45;&gt;Node25 -->
<g id="edge32" class="edge"><title>Node15&#45;&gt;Node25</title>
<path fill="none" stroke="#9a32cd" stroke-dasharray="5,2" d="M986.682,-544.171C1034.01,-556.573 1112.81,-574 1182,-574 1182,-574 1182,-574 1813,-574 1892.35,-574 1921.4,-547.627 1966,-482 2021.88,-399.777 2028.27,-272.675 2028.94,-236.753"/>
<polygon fill="#9a32cd" stroke="#9a32cd" points="987.353,-540.727 976.789,-541.53 985.548,-547.491 987.353,-540.727"/>
<text text-anchor="middle" x="1521" y="-577" font-family="Helvetica,sans-Serif" font-size="10.00"> myWorkspace</text>
</g>
<!-- Node16 -->
<g id="node16" class="node"><title>Node16</title>
<polygon fill="white" stroke="#bfbfbf" points="684.5,-560.5 684.5,-579.5 751.5,-579.5 751.5,-560.5 684.5,-560.5"/>
<text text-anchor="middle" x="718" y="-567.5" font-family="Helvetica,sans-Serif" font-size="10.00">StackPane</text>
</g>
<!-- Node16&#45;&gt;Node15 -->
<g id="edge17" class="edge"><title>Node16&#45;&gt;Node15</title>
<path fill="none" stroke="midnightblue" d="M761.608,-565.039C794.169,-560.977 840.091,-554.66 880,-547 888.157,-545.434 896.856,-543.499 905.079,-541.544"/>
<polygon fill="midnightblue" stroke="midnightblue" points="761.029,-561.584 751.531,-566.278 761.883,-568.532 761.029,-561.584"/>
</g>
<!-- Node17 -->
<g id="node17" class="node"><title>Node17</title>
<g id="a_node17"><a xlink:href="../../d8/df7/classview_1_1_turtle_view.html" target="_top" xlink:title="view.TurtleView">
<polygon fill="white" stroke="black" points="675,-522.5 675,-541.5 761,-541.5 761,-522.5 675,-522.5"/>
<text text-anchor="middle" x="718" y="-529.5" font-family="Helvetica,sans-Serif" font-size="10.00">view.TurtleView</text>
</a>
</g>
</g>
<!-- Node17&#45;&gt;Node15 -->
<g id="edge19" class="edge"><title>Node17&#45;&gt;Node15</title>
<path fill="none" stroke="#9a32cd" stroke-dasharray="5,2" d="M771.658,-532C810.02,-532 861.407,-532 897.675,-532"/>
<polygon fill="#9a32cd" stroke="#9a32cd" points="771.207,-528.5 761.207,-532 771.207,-535.5 771.207,-528.5"/>
<text text-anchor="middle" x="842" y="-535" font-family="Helvetica,sans-Serif" font-size="10.00"> myActiveTurtle</text>
</g>
<!-- Node18 -->
<g id="node18" class="node"><title>Node18</title>
<polygon fill="white" stroke="#bfbfbf" points="375,-576.5 375,-595.5 443,-595.5 443,-576.5 375,-576.5"/>
<text text-anchor="middle" x="409" y="-583.5" font-family="Helvetica,sans-Serif" font-size="10.00">ImageView</text>
</g>
<!-- Node18&#45;&gt;Node17 -->
<g id="edge20" class="edge"><title>Node18&#45;&gt;Node17</title>
<path fill="none" stroke="midnightblue" d="M453.341,-581.969C498.311,-577.36 570.53,-568.765 632,-556 633.351,-555.719 660.077,-548.161 683.203,-541.601"/>
<polygon fill="midnightblue" stroke="midnightblue" points="452.946,-578.491 443.346,-582.973 453.646,-585.456 452.946,-578.491"/>
</g>
<!-- Node19 -->
<g id="node19" class="node"><title>Node19</title>
<polygon fill="white" stroke="#bfbfbf" points="386,-511.5 386,-530.5 432,-530.5 432,-511.5 386,-511.5"/>
<text text-anchor="middle" x="409" y="-518.5" font-family="Helvetica,sans-Serif" font-size="10.00">Group</text>
</g>
<!-- Node19&#45;&gt;Node15 -->
<g id="edge23" class="edge"><title>Node19&#45;&gt;Node15</title>
<path fill="none" stroke="#9a32cd" stroke-dasharray="5,2" d="M442.307,-515.828C462.793,-512.753 489.886,-509.061 514,-507 634.47,-496.701 665.636,-490.532 786,-502 826.496,-505.859 872.115,-515.23 903.51,-522.481"/>
<polygon fill="#9a32cd" stroke="#9a32cd" points="441.602,-512.395 432.247,-517.368 442.661,-519.315 441.602,-512.395"/>
<text text-anchor="middle" x="718" y="-505" font-family="Helvetica,sans-Serif" font-size="10.00"> myLines</text>
</g>
<!-- Node19&#45;&gt;Node17 -->
<g id="edge21" class="edge"><title>Node19&#45;&gt;Node17</title>
<path fill="none" stroke="#9a32cd" stroke-dasharray="5,2" d="M442.231,-527.652C462.687,-531.53 489.776,-536.033 514,-538 566.272,-542.244 579.588,-539.848 632,-538 645.897,-537.51 661.049,-536.571 674.66,-535.579"/>
<polygon fill="#9a32cd" stroke="#9a32cd" points="442.672,-524.173 432.188,-525.698 441.335,-531.044 442.672,-524.173"/>
<text text-anchor="middle" x="573" y="-544" font-family="Helvetica,sans-Serif" font-size="10.00"> myStamps</text>
</g>
<!-- Node20 -->
<g id="node20" class="node"><title>Node20</title>
<polygon fill="white" stroke="#bfbfbf" points="650,-426 650,-456 786,-456 786,-426 650,-426"/>
<text text-anchor="start" x="658" y="-444" font-family="Helvetica,sans-Serif" font-size="10.00">Map&lt; Integer, view.Turtle</text>
<text text-anchor="middle" x="718" y="-433" font-family="Helvetica,sans-Serif" font-size="10.00">View &gt;</text>
</g>
<!-- Node20&#45;&gt;Node15 -->
<g id="edge22" class="edge"><title>Node20&#45;&gt;Node15</title>
<path fill="none" stroke="#9a32cd" stroke-dasharray="5,2" d="M796.109,-448.593C830.106,-453.015 865.588,-459.431 880,-468 891.157,-474.634 889.225,-481.435 898,-491 908.447,-502.387 921.52,-514.311 930.692,-522.345"/>
<polygon fill="#9a32cd" stroke="#9a32cd" points="796.463,-445.11 786.106,-447.341 795.594,-452.056 796.463,-445.11"/>
<text text-anchor="middle" x="842" y="-471" font-family="Helvetica,sans-Serif" font-size="10.00"> myTurtles</text>
</g>
<!-- Node21 -->
<g id="node21" class="node"><title>Node21</title>
<polygon fill="white" stroke="#bfbfbf" points="686.5,-598.5 686.5,-617.5 749.5,-617.5 749.5,-598.5 686.5,-598.5"/>
<text text-anchor="middle" x="718" y="-605.5" font-family="Helvetica,sans-Serif" font-size="10.00">Rectangle</text>
</g>
<!-- Node21&#45;&gt;Node15 -->
<g id="edge25" class="edge"><title>Node21&#45;&gt;Node15</title>
<path fill="none" stroke="#9a32cd" stroke-dasharray="5,2" d="M760.005,-601.132C793.154,-594.801 840.616,-583.95 880,-568 897.305,-560.992 915.617,-549.837 927.814,-541.8"/>
<polygon fill="#9a32cd" stroke="#9a32cd" points="758.968,-597.765 749.774,-603.03 760.245,-604.648 758.968,-597.765"/>
<text text-anchor="middle" x="842" y="-595" font-family="Helvetica,sans-Serif" font-size="10.00"> myBackground</text>
</g>
<!-- Node22&#45;&gt;Node14 -->
<g id="edge26" class="edge"><title>Node22&#45;&gt;Node14</title>
<path fill="none" stroke="#9a32cd" stroke-dasharray="5,2" d="M1230.22,-478.369C1264.65,-472.685 1311.58,-464.938 1346.72,-459.136"/>
<polygon fill="#9a32cd" stroke="#9a32cd" points="1229.26,-474.98 1219.96,-480.063 1230.4,-481.887 1229.26,-474.98"/>
<text text-anchor="middle" x="1278" y="-480" font-family="Helvetica,sans-Serif" font-size="10.00"> myDrawer</text>
</g>
<!-- Node22&#45;&gt;Node25 -->
<g id="edge45" class="edge"><title>Node22&#45;&gt;Node25</title>
<path fill="none" stroke="#9a32cd" stroke-dasharray="5,2" d="M1218.31,-498.997C1259.77,-513.513 1331.96,-535 1396,-535 1396,-535 1396,-535 1813,-535 1962.56,-535 2017.39,-288.543 2027.29,-236.556"/>
<polygon fill="#9a32cd" stroke="#9a32cd" points="1219.29,-495.633 1208.7,-495.564 1216.94,-502.224 1219.29,-495.633"/>
<text text-anchor="middle" x="1624" y="-538" font-family="Helvetica,sans-Serif" font-size="10.00"> drawer</text>
</g>
<!-- Node23 -->
<g id="node23" class="node"><title>Node23</title>
<polygon fill="white" stroke="#bfbfbf" points="922.5,-462.5 922.5,-481.5 963.5,-481.5 963.5,-462.5 922.5,-462.5"/>
<text text-anchor="middle" x="943" y="-469.5" font-family="Helvetica,sans-Serif" font-size="10.00">Color</text>
</g>
<!-- Node23&#45;&gt;Node22 -->
<g id="edge28" class="edge"><title>Node23&#45;&gt;Node22</title>
<path fill="none" stroke="#9a32cd" stroke-dasharray="5,2" d="M974.142,-470.044C1010.7,-468.159 1074.11,-466.457 1128,-473 1134.41,-473.779 1141.17,-475.04 1147.65,-476.479"/>
<polygon fill="#9a32cd" stroke="#9a32cd" points="973.49,-466.575 963.7,-470.626 973.88,-473.564 973.49,-466.575"/>
<text text-anchor="middle" x="1067" y="-476" font-family="Helvetica,sans-Serif" font-size="10.00"> myColor</text>
</g>
<!-- Node24 -->
<g id="node24" class="node"><title>Node24</title>
<polygon fill="white" stroke="#bfbfbf" points="1336,-266.5 1336,-285.5 1458,-285.5 1458,-266.5 1336,-266.5"/>
<text text-anchor="middle" x="1397" y="-273.5" font-family="Helvetica,sans-Serif" font-size="10.00">Map&lt; String, String &gt;</text>
</g>
<!-- Node24&#45;&gt;Node11 -->
<g id="edge30" class="edge"><title>Node24&#45;&gt;Node11</title>
<path fill="none" stroke="#9a32cd" stroke-dasharray="5,2" d="M1468.02,-275.378C1506.12,-275.039 1551.84,-274.633 1583.71,-274.349"/>
<polygon fill="#9a32cd" stroke="#9a32cd" points="1467.97,-271.878 1458,-275.467 1468.03,-278.878 1467.97,-271.878"/>
<text text-anchor="middle" x="1521" y="-279" font-family="Helvetica,sans-Serif" font-size="10.00"> myCommandMap</text>
</g>
<!-- Node25&#45;&gt;Node11 -->
<g id="edge31" class="edge"><title>Node25&#45;&gt;Node11</title>
<path fill="none" stroke="#9a32cd" stroke-dasharray="5,2" d="M1979.55,-238.587C1974.98,-239.476 1970.41,-240.299 1966,-241 1857.33,-258.267 1727.64,-267.811 1664.06,-271.777"/>
<polygon fill="#9a32cd" stroke="#9a32cd" points="1980.39,-241.988 1989.49,-236.555 1978.99,-235.129 1980.39,-241.988"/>
<text text-anchor="middle" x="1812" y="-269" font-family="Helvetica,sans-Serif" font-size="10.00"> mySLogoView</text>
</g>
<!-- Node26 -->
<g id="node26" class="node"><title>Node26</title>
<polygon fill="white" stroke="#bfbfbf" points="1789.5,-126.5 1789.5,-145.5 1834.5,-145.5 1834.5,-126.5 1789.5,-126.5"/>
<text text-anchor="middle" x="1812" y="-133.5" font-family="Helvetica,sans-Serif" font-size="10.00">Stage</text>
</g>
<!-- Node26&#45;&gt;Node25 -->
<g id="edge33" class="edge"><title>Node26&#45;&gt;Node25</title>
<path fill="none" stroke="#9a32cd" stroke-dasharray="5,2" d="M1845.02,-131.718C1877.46,-128.921 1928.13,-128.896 1966,-149 1995.37,-164.591 2015.98,-200.336 2024.56,-217.483"/>
<polygon fill="#9a32cd" stroke="#9a32cd" points="1844.36,-128.266 1834.76,-132.748 1845.06,-135.231 1844.36,-128.266"/>
<text text-anchor="middle" x="1928" y="-152" font-family="Helvetica,sans-Serif" font-size="10.00"> myStage</text>
</g>
<!-- Node27&#45;&gt;Node25 -->
<g id="edge35" class="edge"><title>Node27&#45;&gt;Node25</title>
<path fill="none" stroke="#9a32cd" stroke-dasharray="5,2" d="M1855.94,-93.1326C1888.72,-91.6199 1933.62,-94.5169 1966,-116 2003.11,-140.625 2020.78,-195.009 2026.66,-217.241"/>
<polygon fill="#9a32cd" stroke="#9a32cd" points="1855.51,-89.6519 1845.75,-93.7608 1855.94,-96.6387 1855.51,-89.6519"/>
<text text-anchor="middle" x="1928" y="-119" font-family="Helvetica,sans-Serif" font-size="10.00"> myEditor</text>
</g>
<!-- Node28 -->
<g id="node28" class="node"><title>Node28</title>
<polygon fill="white" stroke="#bfbfbf" points="1603,-76.5 1603,-95.5 1645,-95.5 1645,-76.5 1603,-76.5"/>
<text text-anchor="middle" x="1624" y="-83.5" font-family="Helvetica,sans-Serif" font-size="10.00">HBox</text>
</g>
<!-- Node28&#45;&gt;Node27 -->
<g id="edge36" class="edge"><title>Node28&#45;&gt;Node27</title>
<path fill="none" stroke="midnightblue" d="M1655.46,-87.9653C1689.27,-90.1461 1743.61,-93.6522 1778.29,-95.8898"/>
<polygon fill="midnightblue" stroke="midnightblue" points="1655.46,-84.4582 1645.26,-87.3071 1655.01,-91.4437 1655.46,-84.4582"/>
</g>
<!-- Node29 -->
<g id="node29" class="node"><title>Node29</title>
<polygon fill="white" stroke="#bfbfbf" points="1599.5,-38.5 1599.5,-57.5 1648.5,-57.5 1648.5,-38.5 1599.5,-38.5"/>
<text text-anchor="middle" x="1624" y="-45.5" font-family="Helvetica,sans-Serif" font-size="10.00">Button</text>
</g>
<!-- Node29&#45;&gt;Node27 -->
<g id="edge37" class="edge"><title>Node29&#45;&gt;Node27</title>
<path fill="none" stroke="#9a32cd" stroke-dasharray="5,2" d="M1658.89,-55.9558C1680.46,-61.1281 1708.95,-68.1599 1734,-75 1749.34,-79.1893 1766.29,-84.2085 1780.37,-88.4877"/>
<polygon fill="#9a32cd" stroke="#9a32cd" points="1659.44,-52.4894 1648.9,-53.5751 1657.81,-59.2986 1659.44,-52.4894"/>
<text text-anchor="middle" x="1708" y="-78" font-family="Helvetica,sans-Serif" font-size="10.00"> runButton</text>
</g>
<!-- Node30 -->
<g id="node30" class="node"><title>Node30</title>
<polygon fill="white" stroke="#bfbfbf" points="1595,-0.5 1595,-19.5 1653,-19.5 1653,-0.5 1595,-0.5"/>
<text text-anchor="middle" x="1624" y="-7.5" font-family="Helvetica,sans-Serif" font-size="10.00">TextArea</text>
</g>
<!-- Node30&#45;&gt;Node27 -->
<g id="edge39" class="edge"><title>Node30&#45;&gt;Node27</title>
<path fill="none" stroke="#9a32cd" stroke-dasharray="5,2" d="M1663.2,-15.8963C1685.81,-20.9899 1713.86,-30.2859 1734,-47 1746.56,-57.4224 1739.36,-68.6764 1752,-79 1759.5,-85.1273 1769.02,-89.2946 1778.21,-92.1228"/>
<polygon fill="#9a32cd" stroke="#9a32cd" points="1663.75,-12.4354 1653.25,-13.8401 1662.34,-19.2907 1663.75,-12.4354"/>
<text text-anchor="middle" x="1708" y="-50" font-family="Helvetica,sans-Serif" font-size="10.00"> textEditor</text>
</g>
<!-- Node31 -->
<g id="node31" class="node"><title>Node31</title>
<polygon fill="white" stroke="#bfbfbf" points="1752.5,-50.5 1752.5,-69.5 1871.5,-69.5 1871.5,-50.5 1752.5,-50.5"/>
<text text-anchor="middle" x="1812" y="-57.5" font-family="Helvetica,sans-Serif" font-size="10.00">Map&lt; String, Node &gt;</text>
</g>
<!-- Node31&#45;&gt;Node25 -->
<g id="edge41" class="edge"><title>Node31&#45;&gt;Node25</title>
<path fill="none" stroke="#9a32cd" stroke-dasharray="5,2" d="M1881.91,-54.1715C1910.43,-55.1805 1942.3,-61.1342 1966,-79 2012.61,-114.133 2025.1,-190.545 2028.12,-217.419"/>
<polygon fill="#9a32cd" stroke="#9a32cd" points="1881.63,-50.6668 1871.57,-54.0106 1881.52,-57.666 1881.63,-50.6668"/>
<text text-anchor="middle" x="1928" y="-82" font-family="Helvetica,sans-Serif" font-size="10.00"> variables</text>
</g>
<!-- Node32 -->
<g id="node32" class="node"><title>Node32</title>
<polygon fill="white" stroke="#bfbfbf" points="1771.5,-12.5 1771.5,-31.5 1852.5,-31.5 1852.5,-12.5 1771.5,-12.5"/>
<text text-anchor="middle" x="1812" y="-19.5" font-family="Helvetica,sans-Serif" font-size="10.00">Dimension2D</text>
</g>
<!-- Node32&#45;&gt;Node25 -->
<g id="edge44" class="edge"><title>Node32&#45;&gt;Node25</title>
<path fill="none" stroke="#9a32cd" stroke-dasharray="5,2" d="M1862.89,-15.0956C1895.63,-13.3779 1937.51,-16.8917 1966,-40 2022.94,-86.1824 2028.71,-185.828 2029.07,-217.281"/>
<polygon fill="#9a32cd" stroke="#9a32cd" points="1862.33,-11.6256 1852.6,-15.8189 1862.83,-18.6084 1862.33,-11.6256"/>
<text text-anchor="middle" x="1928" y="-43" font-family="Helvetica,sans-Serif" font-size="10.00"> myDimensions</text>
</g>
<!-- Node33 -->
<g id="node33" class="node"><title>Node33</title>
<polygon fill="white" stroke="#bfbfbf" points="340,-294.5 340,-313.5 478,-313.5 478,-294.5 340,-294.5"/>
<text text-anchor="middle" x="409" y="-301.5" font-family="Helvetica,sans-Serif" font-size="10.00">ObservableList&lt; String &gt;</text>
</g>
<!-- Node33&#45;&gt;Node1 -->
<g id="edge47" class="edge"><title>Node33&#45;&gt;Node1</title>
<path fill="none" stroke="#9a32cd" stroke-dasharray="5,2" d="M488.276,-301.27C531.571,-301.905 585.799,-306.281 632,-321 660.531,-330.09 689.546,-350.384 705.206,-362.452"/>
<polygon fill="#9a32cd" stroke="#9a32cd" points="488.113,-297.768 478.084,-301.186 488.055,-304.768 488.113,-297.768"/>
<text text-anchor="middle" x="573" y="-335" font-family="Helvetica,sans-Serif" font-size="10.00"> myCommandItems</text>
<text text-anchor="middle" x="573" y="-324" font-family="Helvetica,sans-Serif" font-size="10.00">myHistoryItems</text>
</g>
</g>
</svg>
