<?xml version="1.0" encoding="UTF-8" standalone="no"?>
<!DOCTYPE svg PUBLIC "-//W3C//DTD SVG 1.1//EN"
 "http://www.w3.org/Graphics/SVG/1.1/DTD/svg11.dtd">
<!-- Generated by graphviz version 2.36.0 (20140111.2315)
 -->
<!-- Title: view.ViewUpdater.setPenUp Pages: 1 -->
<svg width="732pt" height="180pt"
 viewBox="0.00 0.00 732.00 180.00" xmlns="http://www.w3.org/2000/svg" xmlns:xlink="http://www.w3.org/1999/xlink">
<g id="graph0" class="graph" transform="scale(1 1) rotate(0) translate(4 176)">
<title>view.ViewUpdater.setPenUp</title>
<polygon fill="white" stroke="none" points="-4,4 -4,-176 728,-176 728,4 -4,4"/>
<!-- Node1 -->
<g id="node1" class="node"><title>Node1</title>
<polygon fill="#bfbfbf" stroke="black" points="0.5,-122.5 0.5,-141.5 149.5,-141.5 149.5,-122.5 0.5,-122.5"/>
<text text-anchor="middle" x="75" y="-129.5" font-family="Helvetica,sans-Serif" font-size="10.00">view.ViewUpdater.setPenUp</text>
</g>
<!-- Node2 -->
<g id="node2" class="node"><title>Node2</title>
<g id="a_node2"><a xlink:href="../../da/d64/classview_1_1_workspace.html#ad460da1164f039e5ea9a265d446d13fe" target="_top" xlink:title="view.Workspace.getTurtleMap">
<polygon fill="white" stroke="black" points="568.5,-152.5 568.5,-171.5 723.5,-171.5 723.5,-152.5 568.5,-152.5"/>
<text text-anchor="middle" x="646" y="-159.5" font-family="Helvetica,sans-Serif" font-size="10.00">view.Workspace.getTurtleMap</text>
</a>
</g>
</g>
<!-- Node1&#45;&gt;Node2 -->
<g id="edge1" class="edge"><title>Node1&#45;&gt;Node2</title>
<path fill="none" stroke="midnightblue" d="M149.512,-135.876C254.246,-141.398 446.07,-151.512 557.83,-157.404"/>
<polygon fill="midnightblue" stroke="midnightblue" points="557.887,-160.912 568.058,-157.943 558.256,-153.922 557.887,-160.912"/>
</g>
<!-- Node3 -->
<g id="node3" class="node"><title>Node3</title>
<g id="a_node3"><a xlink:href="../../d1/dc7/classview_1_1_side_bar.html#a7d73038dbba05f96990b60664afa2670" target="_top" xlink:title="view.SideBar.updateTurtle\lProperties">
<polygon fill="white" stroke="black" points="186,-91 186,-121 324,-121 324,-91 186,-91"/>
<text text-anchor="start" x="194" y="-109" font-family="Helvetica,sans-Serif" font-size="10.00">view.SideBar.updateTurtle</text>
<text text-anchor="middle" x="255" y="-98" font-family="Helvetica,sans-Serif" font-size="10.00">Properties</text>
</a>
</g>
</g>
<!-- Node1&#45;&gt;Node3 -->
<g id="edge2" class="edge"><title>Node1&#45;&gt;Node3</title>
<path fill="none" stroke="midnightblue" d="M141.27,-122.466C152.474,-120.83 164.22,-119.114 175.723,-117.434"/>
<polygon fill="midnightblue" stroke="midnightblue" points="176.36,-120.878 185.749,-115.969 175.348,-113.951 176.36,-120.878"/>
</g>
<!-- Node4 -->
<g id="node4" class="node"><title>Node4</title>
<g id="a_node4"><a xlink:href="../../d9/d3a/classview_1_1_turtle_properties_view.html#af07bce3cf2bed2814a0fb3812d00b69e" target="_top" xlink:title="view.TurtlePropertiesView.update">
<polygon fill="white" stroke="black" points="360.5,-80.5 360.5,-99.5 531.5,-99.5 531.5,-80.5 360.5,-80.5"/>
<text text-anchor="middle" x="446" y="-87.5" font-family="Helvetica,sans-Serif" font-size="10.00">view.TurtlePropertiesView.update</text>
</a>
</g>
</g>
<!-- Node3&#45;&gt;Node4 -->
<g id="edge3" class="edge"><title>Node3&#45;&gt;Node4</title>
<path fill="none" stroke="midnightblue" d="M324.233,-100.224C332.669,-99.5095 341.408,-98.7697 350.151,-98.0295"/>
<polygon fill="midnightblue" stroke="midnightblue" points="350.73,-101.493 360.399,-97.162 350.139,-94.5181 350.73,-101.493"/>
</g>
<!-- Node4&#45;&gt;Node2 -->
<g id="edge7" class="edge"><title>Node4&#45;&gt;Node2</title>
<path fill="none" stroke="midnightblue" d="M466.293,-99.6806C489.838,-111.205 531.083,-130.463 568,-143 575.334,-145.491 583.162,-147.804 590.914,-149.898"/>
<polygon fill="midnightblue" stroke="midnightblue" points="590.09,-153.3 600.649,-152.429 591.851,-146.525 590.09,-153.3"/>
</g>
<!-- Node5 -->
<g id="node5" class="node"><title>Node5</title>
<g id="a_node5"><a xlink:href="../../d8/df7/classview_1_1_turtle_view.html#a5da3d4c9dafb77af0db0c589a72eadc8" target="_top" xlink:title="view.TurtleView.getHeading">
<polygon fill="white" stroke="black" points="574,-114.5 574,-133.5 718,-133.5 718,-114.5 574,-114.5"/>
<text text-anchor="middle" x="646" y="-121.5" font-family="Helvetica,sans-Serif" font-size="10.00">view.TurtleView.getHeading</text>
</a>
</g>
</g>
<!-- Node4&#45;&gt;Node5 -->
<g id="edge4" class="edge"><title>Node4&#45;&gt;Node5</title>
<path fill="none" stroke="midnightblue" d="M502.417,-99.5161C526.349,-103.626 554.525,-108.464 579.483,-112.75"/>
<polygon fill="midnightblue" stroke="midnightblue" points="579.148,-116.243 589.596,-114.486 580.333,-109.344 579.148,-116.243"/>
</g>
<!-- Node6 -->
<g id="node6" class="node"><title>Node6</title>
<g id="a_node6"><a xlink:href="../../d8/df7/classview_1_1_turtle_view.html#ab5fdc3775e06339f4a68d1b795a81643" target="_top" xlink:title="view.TurtleView.getID">
<polygon fill="white" stroke="black" points="589,-76.5 589,-95.5 703,-95.5 703,-76.5 589,-76.5"/>
<text text-anchor="middle" x="646" y="-83.5" font-family="Helvetica,sans-Serif" font-size="10.00">view.TurtleView.getID</text>
</a>
</g>
</g>
<!-- Node4&#45;&gt;Node6 -->
<g id="edge5" class="edge"><title>Node4&#45;&gt;Node6</title>
<path fill="none" stroke="midnightblue" d="M531.544,-88.292C547.258,-87.9746 563.468,-87.6471 578.546,-87.3425"/>
<polygon fill="midnightblue" stroke="midnightblue" points="578.855,-90.8371 588.783,-87.1357 578.714,-83.8385 578.855,-90.8371"/>
</g>
<!-- Node7 -->
<g id="node7" class="node"><title>Node7</title>
<g id="a_node7"><a xlink:href="../../d5/dea/classview_1_1_side_table_view.html#adbdf2bf0ebf7fc8ab04db2087baea03a" target="_top" xlink:title="view.SideTableView.getTable">
<polygon fill="white" stroke="black" points="572,-38.5 572,-57.5 720,-57.5 720,-38.5 572,-38.5"/>
<text text-anchor="middle" x="646" y="-45.5" font-family="Helvetica,sans-Serif" font-size="10.00">view.SideTableView.getTable</text>
</a>
</g>
</g>
<!-- Node4&#45;&gt;Node7 -->
<g id="edge6" class="edge"><title>Node4&#45;&gt;Node7</title>
<path fill="none" stroke="midnightblue" d="M491.929,-80.4695C520.94,-74.3158 558.886,-66.2667 589.738,-59.7222"/>
<polygon fill="midnightblue" stroke="midnightblue" points="590.85,-63.0643 599.906,-57.5653 589.398,-56.2166 590.85,-63.0643"/>
</g>
<!-- Node8 -->
<g id="node8" class="node"><title>Node8</title>
<g id="a_node8"><a xlink:href="../../d8/df7/classview_1_1_turtle_view.html#afddbc74313a99bb100c8c50efa88f330" target="_top" xlink:title="view.TurtleView.getYCoord">
<polygon fill="white" stroke="black" points="577.5,-0.5 577.5,-19.5 714.5,-19.5 714.5,-0.5 577.5,-0.5"/>
<text text-anchor="middle" x="646" y="-7.5" font-family="Helvetica,sans-Serif" font-size="10.00">view.TurtleView.getYCoord</text>
</a>
</g>
</g>
<!-- Node4&#45;&gt;Node8 -->
<g id="edge8" class="edge"><title>Node4&#45;&gt;Node8</title>
<path fill="none" stroke="midnightblue" d="M463.3,-80.2868C486.055,-67.0799 528.948,-43.4516 568,-29 574.747,-26.5031 581.948,-24.234 589.136,-22.2037"/>
<polygon fill="midnightblue" stroke="midnightblue" points="590.136,-25.5591 598.885,-19.5841 588.32,-18.7988 590.136,-25.5591"/>
</g>
</g>
</svg>
