<?xml version="1.0" encoding="UTF-8" standalone="no"?>
<!DOCTYPE svg PUBLIC "-//W3C//DTD SVG 1.1//EN"
 "http://www.w3.org/Graphics/SVG/1.1/DTD/svg11.dtd">
<!-- Generated by graphviz version 2.36.0 (20140111.2315)
 -->
<!-- Title: view.ViewUpdater.towards Pages: 1 -->
<svg width="712pt" height="218pt"
 viewBox="0.00 0.00 712.00 218.00" xmlns="http://www.w3.org/2000/svg" xmlns:xlink="http://www.w3.org/1999/xlink">
<g id="graph0" class="graph" transform="scale(1 1) rotate(0) translate(4 214)">
<title>view.ViewUpdater.towards</title>
<polygon fill="white" stroke="none" points="-4,4 -4,-214 708,-214 708,4 -4,4"/>
<!-- Node1 -->
<g id="node1" class="node"><title>Node1</title>
<polygon fill="#bfbfbf" stroke="black" points="0,-144.5 0,-163.5 140,-163.5 140,-144.5 0,-144.5"/>
<text text-anchor="middle" x="70" y="-151.5" font-family="Helvetica,sans-Serif" font-size="10.00">view.ViewUpdater.towards</text>
</g>
<!-- Node2 -->
<g id="node2" class="node"><title>Node2</title>
<g id="a_node2"><a xlink:href="../../d4/d64/classview_1_1_view_updater.html#ab8c47e1d6b8bc5c076184e3e0af5e4b2" target="_top" xlink:title="view.ViewUpdater.setHeading">
<polygon fill="white" stroke="black" points="176.5,-144.5 176.5,-163.5 333.5,-163.5 333.5,-144.5 176.5,-144.5"/>
<text text-anchor="middle" x="255" y="-151.5" font-family="Helvetica,sans-Serif" font-size="10.00">view.ViewUpdater.setHeading</text>
</a>
</g>
</g>
<!-- Node1&#45;&gt;Node2 -->
<g id="edge1" class="edge"><title>Node1&#45;&gt;Node2</title>
<path fill="none" stroke="midnightblue" d="M140.184,-154C148.696,-154 157.482,-154 166.223,-154"/>
<polygon fill="midnightblue" stroke="midnightblue" points="166.443,-157.5 176.443,-154 166.443,-150.5 166.443,-157.5"/>
</g>
<!-- Node3 -->
<g id="node3" class="node"><title>Node3</title>
<g id="a_node3"><a xlink:href="../../da/d64/classview_1_1_workspace.html#ad460da1164f039e5ea9a265d446d13fe" target="_top" xlink:title="view.Workspace.getTurtleMap">
<polygon fill="white" stroke="black" points="546.5,-190.5 546.5,-209.5 701.5,-209.5 701.5,-190.5 546.5,-190.5"/>
<text text-anchor="middle" x="624" y="-197.5" font-family="Helvetica,sans-Serif" font-size="10.00">view.Workspace.getTurtleMap</text>
</a>
</g>
</g>
<!-- Node2&#45;&gt;Node3 -->
<g id="edge2" class="edge"><title>Node2&#45;&gt;Node3</title>
<path fill="none" stroke="midnightblue" d="M332.043,-163.531C391.707,-171.01 474.774,-181.421 536.884,-189.206"/>
<polygon fill="midnightblue" stroke="midnightblue" points="536.697,-192.71 547.055,-190.481 537.568,-185.764 536.697,-192.71"/>
</g>
<!-- Node4 -->
<g id="node4" class="node"><title>Node4</title>
<g id="a_node4"><a xlink:href="../../d1/dc7/classview_1_1_side_bar.html#a7d73038dbba05f96990b60664afa2670" target="_top" xlink:title="view.SideBar.updateTurtle\lProperties">
<polygon fill="white" stroke="black" points="370,-109 370,-139 508,-139 508,-109 370,-109"/>
<text text-anchor="start" x="378" y="-127" font-family="Helvetica,sans-Serif" font-size="10.00">view.SideBar.updateTurtle</text>
<text text-anchor="middle" x="439" y="-116" font-family="Helvetica,sans-Serif" font-size="10.00">Properties</text>
</a>
</g>
</g>
<!-- Node2&#45;&gt;Node4 -->
<g id="edge3" class="edge"><title>Node2&#45;&gt;Node4</title>
<path fill="none" stroke="midnightblue" d="M313.836,-144.467C328.437,-142.06 344.357,-139.436 359.777,-136.894"/>
<polygon fill="midnightblue" stroke="midnightblue" points="360.522,-140.318 369.82,-135.238 359.384,-133.412 360.522,-140.318"/>
</g>
<!-- Node4&#45;&gt;Node3 -->
<g id="edge7" class="edge"><title>Node4&#45;&gt;Node3</title>
<path fill="none" stroke="midnightblue" d="M463.499,-139.246C484.027,-151.977 514.999,-169.795 544,-181 550.454,-183.493 557.334,-185.729 564.241,-187.714"/>
<polygon fill="midnightblue" stroke="midnightblue" points="563.766,-191.211 574.333,-190.443 565.594,-184.454 563.766,-191.211"/>
</g>
<!-- Node5 -->
<g id="node5" class="node"><title>Node5</title>
<g id="a_node5"><a xlink:href="../../d8/df7/classview_1_1_turtle_view.html#a5da3d4c9dafb77af0db0c589a72eadc8" target="_top" xlink:title="view.TurtleView.getHeading">
<polygon fill="white" stroke="black" points="552,-152.5 552,-171.5 696,-171.5 696,-152.5 552,-152.5"/>
<text text-anchor="middle" x="624" y="-159.5" font-family="Helvetica,sans-Serif" font-size="10.00">view.TurtleView.getHeading</text>
</a>
</g>
</g>
<!-- Node4&#45;&gt;Node5 -->
<g id="edge4" class="edge"><title>Node4&#45;&gt;Node5</title>
<path fill="none" stroke="midnightblue" d="M508.142,-138.15C527.61,-142.192 548.589,-146.549 567.223,-150.418"/>
<polygon fill="midnightblue" stroke="midnightblue" points="566.518,-153.846 577.021,-152.452 567.941,-146.992 566.518,-153.846"/>
</g>
<!-- Node6 -->
<g id="node6" class="node"><title>Node6</title>
<g id="a_node6"><a xlink:href="../../d8/df7/classview_1_1_turtle_view.html#ab5fdc3775e06339f4a68d1b795a81643" target="_top" xlink:title="view.TurtleView.getID">
<polygon fill="white" stroke="black" points="567,-114.5 567,-133.5 681,-133.5 681,-114.5 567,-114.5"/>
<text text-anchor="middle" x="624" y="-121.5" font-family="Helvetica,sans-Serif" font-size="10.00">view.TurtleView.getID</text>
</a>
</g>
</g>
<!-- Node4&#45;&gt;Node6 -->
<g id="edge5" class="edge"><title>Node4&#45;&gt;Node6</title>
<path fill="none" stroke="midnightblue" d="M508.142,-124C523.981,-124 540.82,-124 556.583,-124"/>
<polygon fill="midnightblue" stroke="midnightblue" points="556.765,-127.5 566.765,-124 556.765,-120.5 556.765,-127.5"/>
</g>
<!-- Node7 -->
<g id="node7" class="node"><title>Node7</title>
<g id="a_node7"><a xlink:href="../../d8/df7/classview_1_1_turtle_view.html#a85b9acc922cc69f27c79bf13e3356e09" target="_top" xlink:title="view.TurtleView.getPenPosition">
<polygon fill="white" stroke="black" points="544,-76.5 544,-95.5 704,-95.5 704,-76.5 544,-76.5"/>
<text text-anchor="middle" x="624" y="-83.5" font-family="Helvetica,sans-Serif" font-size="10.00">view.TurtleView.getPenPosition</text>
</a>
</g>
</g>
<!-- Node4&#45;&gt;Node7 -->
<g id="edge6" class="edge"><title>Node4&#45;&gt;Node7</title>
<path fill="none" stroke="midnightblue" d="M508.142,-109.85C527.61,-105.808 548.589,-101.451 567.223,-97.5821"/>
<polygon fill="midnightblue" stroke="midnightblue" points="567.941,-101.008 577.021,-95.5476 566.518,-94.1539 567.941,-101.008"/>
</g>
<!-- Node8 -->
<g id="node8" class="node"><title>Node8</title>
<g id="a_node8"><a xlink:href="../../d8/df7/classview_1_1_turtle_view.html#afddbc74313a99bb100c8c50efa88f330" target="_top" xlink:title="view.TurtleView.getYCoord">
<polygon fill="white" stroke="black" points="555.5,-38.5 555.5,-57.5 692.5,-57.5 692.5,-38.5 555.5,-38.5"/>
<text text-anchor="middle" x="624" y="-45.5" font-family="Helvetica,sans-Serif" font-size="10.00">view.TurtleView.getYCoord</text>
</a>
</g>
</g>
<!-- Node4&#45;&gt;Node8 -->
<g id="edge8" class="edge"><title>Node4&#45;&gt;Node8</title>
<path fill="none" stroke="midnightblue" d="M463.499,-108.754C484.027,-96.0227 514.999,-78.2049 544,-67 550.454,-64.5065 557.334,-62.271 564.241,-60.2863"/>
<polygon fill="midnightblue" stroke="midnightblue" points="565.594,-63.5463 574.333,-57.5568 563.766,-56.7891 565.594,-63.5463"/>
</g>
<!-- Node9 -->
<g id="node9" class="node"><title>Node9</title>
<g id="a_node9"><a xlink:href="../../d8/df7/classview_1_1_turtle_view.html#a5f7b22cd8ab69258535b18920a488b63" target="_top" xlink:title="view.TurtleView.isShowing">
<polygon fill="white" stroke="black" points="556,-0.5 556,-19.5 692,-19.5 692,-0.5 556,-0.5"/>
<text text-anchor="middle" x="624" y="-7.5" font-family="Helvetica,sans-Serif" font-size="10.00">view.TurtleView.isShowing</text>
</a>
</g>
</g>
<!-- Node4&#45;&gt;Node9 -->
<g id="edge9" class="edge"><title>Node4&#45;&gt;Node9</title>
<path fill="none" stroke="midnightblue" d="M452.073,-108.958C469.896,-87.7951 505.338,-49.5281 544,-29 548.479,-26.6216 553.259,-24.5365 558.166,-22.7092"/>
<polygon fill="midnightblue" stroke="midnightblue" points="559.347,-26.0045 567.713,-19.5037 557.119,-19.3685 559.347,-26.0045"/>
</g>
</g>
</svg>
