<?xml version="1.0" encoding="UTF-8" standalone="no"?>
<!DOCTYPE svg PUBLIC "-//W3C//DTD SVG 1.1//EN"
 "http://www.w3.org/Graphics/SVG/1.1/DTD/svg11.dtd">
<!-- Generated by graphviz version 2.36.0 (20140111.2315)
 -->
<!-- Title: view.ViewUpdater.setXY Pages: 1 -->
<svg width="710pt" height="180pt"
 viewBox="0.00 0.00 710.00 180.00" xmlns="http://www.w3.org/2000/svg" xmlns:xlink="http://www.w3.org/1999/xlink">
<g id="graph0" class="graph" transform="scale(1 1) rotate(0) translate(4 176)">
<title>view.ViewUpdater.setXY</title>
<polygon fill="white" stroke="none" points="-4,4 -4,-176 706,-176 706,4 -4,4"/>
<!-- Node1 -->
<g id="node1" class="node"><title>Node1</title>
<polygon fill="#bfbfbf" stroke="black" points="0,-122.5 0,-141.5 128,-141.5 128,-122.5 0,-122.5"/>
<text text-anchor="middle" x="64" y="-129.5" font-family="Helvetica,sans-Serif" font-size="10.00">view.ViewUpdater.setXY</text>
</g>
<!-- Node2 -->
<g id="node2" class="node"><title>Node2</title>
<g id="a_node2"><a xlink:href="../../da/d64/classview_1_1_workspace.html#ad460da1164f039e5ea9a265d446d13fe" target="_top" xlink:title="view.Workspace.getTurtleMap">
<polygon fill="white" stroke="black" points="546.5,-152.5 546.5,-171.5 701.5,-171.5 701.5,-152.5 546.5,-152.5"/>
<text text-anchor="middle" x="624" y="-159.5" font-family="Helvetica,sans-Serif" font-size="10.00">view.Workspace.getTurtleMap</text>
</a>
</g>
</g>
<!-- Node1&#45;&gt;Node2 -->
<g id="edge1" class="edge"><title>Node1&#45;&gt;Node2</title>
<path fill="none" stroke="midnightblue" d="M128.195,-135.398C228.184,-140.773 423.086,-151.252 536.143,-157.33"/>
<polygon fill="midnightblue" stroke="midnightblue" points="535.977,-160.826 546.151,-157.868 536.353,-153.836 535.977,-160.826"/>
</g>
<!-- Node3 -->
<g id="node3" class="node"><title>Node3</title>
<g id="a_node3"><a xlink:href="../../d1/dc7/classview_1_1_side_bar.html#a7d73038dbba05f96990b60664afa2670" target="_top" xlink:title="view.SideBar.updateTurtle\lProperties">
<polygon fill="white" stroke="black" points="164,-91 164,-121 302,-121 302,-91 164,-91"/>
<text text-anchor="start" x="172" y="-109" font-family="Helvetica,sans-Serif" font-size="10.00">view.SideBar.updateTurtle</text>
<text text-anchor="middle" x="233" y="-98" font-family="Helvetica,sans-Serif" font-size="10.00">Properties</text>
</a>
</g>
</g>
<!-- Node1&#45;&gt;Node3 -->
<g id="edge2" class="edge"><title>Node1&#45;&gt;Node3</title>
<path fill="none" stroke="midnightblue" d="M126.236,-122.466C135.192,-121.072 144.516,-119.62 153.754,-118.182"/>
<polygon fill="midnightblue" stroke="midnightblue" points="154.38,-121.627 163.723,-116.63 153.303,-114.71 154.38,-121.627"/>
</g>
<!-- Node4 -->
<g id="node4" class="node"><title>Node4</title>
<g id="a_node4"><a xlink:href="../../d9/d3a/classview_1_1_turtle_properties_view.html#af07bce3cf2bed2814a0fb3812d00b69e" target="_top" xlink:title="view.TurtlePropertiesView.update">
<polygon fill="white" stroke="black" points="338.5,-80.5 338.5,-99.5 509.5,-99.5 509.5,-80.5 338.5,-80.5"/>
<text text-anchor="middle" x="424" y="-87.5" font-family="Helvetica,sans-Serif" font-size="10.00">view.TurtlePropertiesView.update</text>
</a>
</g>
</g>
<!-- Node3&#45;&gt;Node4 -->
<g id="edge3" class="edge"><title>Node3&#45;&gt;Node4</title>
<path fill="none" stroke="midnightblue" d="M302.233,-100.224C310.669,-99.5095 319.408,-98.7697 328.151,-98.0295"/>
<polygon fill="midnightblue" stroke="midnightblue" points="328.73,-101.493 338.399,-97.162 328.139,-94.5181 328.73,-101.493"/>
</g>
<!-- Node4&#45;&gt;Node2 -->
<g id="edge7" class="edge"><title>Node4&#45;&gt;Node2</title>
<path fill="none" stroke="midnightblue" d="M444.293,-99.6806C467.838,-111.205 509.083,-130.463 546,-143 553.334,-145.491 561.162,-147.804 568.914,-149.898"/>
<polygon fill="midnightblue" stroke="midnightblue" points="568.09,-153.3 578.649,-152.429 569.851,-146.525 568.09,-153.3"/>
</g>
<!-- Node5 -->
<g id="node5" class="node"><title>Node5</title>
<g id="a_node5"><a xlink:href="../../d8/df7/classview_1_1_turtle_view.html#a5da3d4c9dafb77af0db0c589a72eadc8" target="_top" xlink:title="view.TurtleView.getHeading">
<polygon fill="white" stroke="black" points="552,-114.5 552,-133.5 696,-133.5 696,-114.5 552,-114.5"/>
<text text-anchor="middle" x="624" y="-121.5" font-family="Helvetica,sans-Serif" font-size="10.00">view.TurtleView.getHeading</text>
</a>
</g>
</g>
<!-- Node4&#45;&gt;Node5 -->
<g id="edge4" class="edge"><title>Node4&#45;&gt;Node5</title>
<path fill="none" stroke="midnightblue" d="M480.417,-99.5161C504.349,-103.626 532.525,-108.464 557.483,-112.75"/>
<polygon fill="midnightblue" stroke="midnightblue" points="557.148,-116.243 567.596,-114.486 558.333,-109.344 557.148,-116.243"/>
</g>
<!-- Node6 -->
<g id="node6" class="node"><title>Node6</title>
<g id="a_node6"><a xlink:href="../../d8/df7/classview_1_1_turtle_view.html#ab5fdc3775e06339f4a68d1b795a81643" target="_top" xlink:title="view.TurtleView.getID">
<polygon fill="white" stroke="black" points="567,-76.5 567,-95.5 681,-95.5 681,-76.5 567,-76.5"/>
<text text-anchor="middle" x="624" y="-83.5" font-family="Helvetica,sans-Serif" font-size="10.00">view.TurtleView.getID</text>
</a>
</g>
</g>
<!-- Node4&#45;&gt;Node6 -->
<g id="edge5" class="edge"><title>Node4&#45;&gt;Node6</title>
<path fill="none" stroke="midnightblue" d="M509.544,-88.292C525.258,-87.9746 541.468,-87.6471 556.546,-87.3425"/>
<polygon fill="midnightblue" stroke="midnightblue" points="556.855,-90.8371 566.783,-87.1357 556.714,-83.8385 556.855,-90.8371"/>
</g>
<!-- Node7 -->
<g id="node7" class="node"><title>Node7</title>
<g id="a_node7"><a xlink:href="../../d5/dea/classview_1_1_side_table_view.html#adbdf2bf0ebf7fc8ab04db2087baea03a" target="_top" xlink:title="view.SideTableView.getTable">
<polygon fill="white" stroke="black" points="550,-38.5 550,-57.5 698,-57.5 698,-38.5 550,-38.5"/>
<text text-anchor="middle" x="624" y="-45.5" font-family="Helvetica,sans-Serif" font-size="10.00">view.SideTableView.getTable</text>
</a>
</g>
</g>
<!-- Node4&#45;&gt;Node7 -->
<g id="edge6" class="edge"><title>Node4&#45;&gt;Node7</title>
<path fill="none" stroke="midnightblue" d="M469.929,-80.4695C498.94,-74.3158 536.886,-66.2667 567.738,-59.7222"/>
<polygon fill="midnightblue" stroke="midnightblue" points="568.85,-63.0643 577.906,-57.5653 567.398,-56.2166 568.85,-63.0643"/>
</g>
<!-- Node8 -->
<g id="node8" class="node"><title>Node8</title>
<g id="a_node8"><a xlink:href="../../d8/df7/classview_1_1_turtle_view.html#afddbc74313a99bb100c8c50efa88f330" target="_top" xlink:title="view.TurtleView.getYCoord">
<polygon fill="white" stroke="black" points="555.5,-0.5 555.5,-19.5 692.5,-19.5 692.5,-0.5 555.5,-0.5"/>
<text text-anchor="middle" x="624" y="-7.5" font-family="Helvetica,sans-Serif" font-size="10.00">view.TurtleView.getYCoord</text>
</a>
</g>
</g>
<!-- Node4&#45;&gt;Node8 -->
<g id="edge8" class="edge"><title>Node4&#45;&gt;Node8</title>
<path fill="none" stroke="midnightblue" d="M441.3,-80.2868C464.055,-67.0799 506.948,-43.4516 546,-29 552.747,-26.5031 559.948,-24.234 567.136,-22.2037"/>
<polygon fill="midnightblue" stroke="midnightblue" points="568.136,-25.5591 576.885,-19.5841 566.32,-18.7988 568.136,-25.5591"/>
</g>
</g>
</svg>
