<?xml version="1.0" encoding="UTF-8" standalone="no"?>
<!DOCTYPE svg PUBLIC "-//W3C//DTD SVG 1.1//EN"
 "http://www.w3.org/Graphics/SVG/1.1/DTD/svg11.dtd">
<!-- Generated by graphviz version 2.36.0 (20140111.2315)
 -->
<!-- Title: view.ViewUpdater.clearScreen Pages: 1 -->
<svg width="746pt" height="214pt"
 viewBox="0.00 0.00 746.00 214.00" xmlns="http://www.w3.org/2000/svg" xmlns:xlink="http://www.w3.org/1999/xlink">
<g id="graph0" class="graph" transform="scale(1 1) rotate(0) translate(4 210)">
<title>view.ViewUpdater.clearScreen</title>
<polygon fill="white" stroke="none" points="-4,4 -4,-210 742,-210 742,4 -4,4"/>
<!-- Node1 -->
<g id="node1" class="node"><title>Node1</title>
<polygon fill="#bfbfbf" stroke="black" points="0.5,-148.5 0.5,-167.5 159.5,-167.5 159.5,-148.5 0.5,-148.5"/>
<text text-anchor="middle" x="80" y="-155.5" font-family="Helvetica,sans-Serif" font-size="10.00">view.ViewUpdater.clearScreen</text>
</g>
<!-- Node2 -->
<g id="node2" class="node"><title>Node2</title>
<g id="a_node2"><a xlink:href="../../da/d64/classview_1_1_workspace.html#af056d219d5078e688731c51fb6da7c7e" target="_top" xlink:title="view.Workspace.clearLines">
<polygon fill="white" stroke="black" points="196.5,-186.5 196.5,-205.5 337.5,-205.5 337.5,-186.5 196.5,-186.5"/>
<text text-anchor="middle" x="267" y="-193.5" font-family="Helvetica,sans-Serif" font-size="10.00">view.Workspace.clearLines</text>
</a>
</g>
</g>
<!-- Node1&#45;&gt;Node2 -->
<g id="edge1" class="edge"><title>Node1&#45;&gt;Node2</title>
<path fill="none" stroke="midnightblue" d="M127.683,-167.589C152.646,-172.716 183.564,-179.067 209.834,-184.463"/>
<polygon fill="midnightblue" stroke="midnightblue" points="209.153,-187.896 219.652,-186.48 210.561,-181.039 209.153,-187.896"/>
</g>
<!-- Node3 -->
<g id="node3" class="node"><title>Node3</title>
<g id="a_node3"><a xlink:href="../../da/d64/classview_1_1_workspace.html#ad460da1164f039e5ea9a265d446d13fe" target="_top" xlink:title="view.Workspace.getTurtleMap">
<polygon fill="white" stroke="black" points="582.5,-152.5 582.5,-171.5 737.5,-171.5 737.5,-152.5 582.5,-152.5"/>
<text text-anchor="middle" x="660" y="-159.5" font-family="Helvetica,sans-Serif" font-size="10.00">view.Workspace.getTurtleMap</text>
</a>
</g>
</g>
<!-- Node1&#45;&gt;Node3 -->
<g id="edge2" class="edge"><title>Node1&#45;&gt;Node3</title>
<path fill="none" stroke="midnightblue" d="M159.553,-158.544C267.308,-159.289 460.315,-160.625 572.222,-161.399"/>
<polygon fill="midnightblue" stroke="midnightblue" points="572.437,-164.901 582.461,-161.47 572.485,-157.901 572.437,-164.901"/>
</g>
<!-- Node4 -->
<g id="node4" class="node"><title>Node4</title>
<g id="a_node4"><a xlink:href="../../d1/dc7/classview_1_1_side_bar.html#a7d73038dbba05f96990b60664afa2670" target="_top" xlink:title="view.SideBar.updateTurtle\lProperties">
<polygon fill="white" stroke="black" points="198,-91 198,-121 336,-121 336,-91 198,-91"/>
<text text-anchor="start" x="206" y="-109" font-family="Helvetica,sans-Serif" font-size="10.00">view.SideBar.updateTurtle</text>
<text text-anchor="middle" x="267" y="-98" font-family="Helvetica,sans-Serif" font-size="10.00">Properties</text>
</a>
</g>
</g>
<!-- Node1&#45;&gt;Node4 -->
<g id="edge3" class="edge"><title>Node1&#45;&gt;Node4</title>
<path fill="none" stroke="midnightblue" d="M114.932,-148.462C139.392,-141.587 173.135,-132.103 202.527,-123.841"/>
<polygon fill="midnightblue" stroke="midnightblue" points="203.628,-127.167 212.308,-121.092 201.734,-120.428 203.628,-127.167"/>
</g>
<!-- Node5 -->
<g id="node5" class="node"><title>Node5</title>
<g id="a_node5"><a xlink:href="../../d9/d3a/classview_1_1_turtle_properties_view.html#af07bce3cf2bed2814a0fb3812d00b69e" target="_top" xlink:title="view.TurtlePropertiesView.update">
<polygon fill="white" stroke="black" points="374.5,-80.5 374.5,-99.5 545.5,-99.5 545.5,-80.5 374.5,-80.5"/>
<text text-anchor="middle" x="460" y="-87.5" font-family="Helvetica,sans-Serif" font-size="10.00">view.TurtlePropertiesView.update</text>
</a>
</g>
</g>
<!-- Node4&#45;&gt;Node5 -->
<g id="edge4" class="edge"><title>Node4&#45;&gt;Node5</title>
<path fill="none" stroke="midnightblue" d="M336.146,-100.291C345.194,-99.5335 354.6,-98.7456 363.999,-97.9582"/>
<polygon fill="midnightblue" stroke="midnightblue" points="364.505,-101.428 374.178,-97.1055 363.921,-94.4526 364.505,-101.428"/>
</g>
<!-- Node5&#45;&gt;Node3 -->
<g id="edge8" class="edge"><title>Node5&#45;&gt;Node3</title>
<path fill="none" stroke="midnightblue" d="M480.293,-99.6806C503.838,-111.205 545.083,-130.463 582,-143 589.334,-145.491 597.162,-147.804 604.914,-149.898"/>
<polygon fill="midnightblue" stroke="midnightblue" points="604.09,-153.3 614.649,-152.429 605.851,-146.525 604.09,-153.3"/>
</g>
<!-- Node6 -->
<g id="node6" class="node"><title>Node6</title>
<g id="a_node6"><a xlink:href="../../d8/df7/classview_1_1_turtle_view.html#a5da3d4c9dafb77af0db0c589a72eadc8" target="_top" xlink:title="view.TurtleView.getHeading">
<polygon fill="white" stroke="black" points="588,-114.5 588,-133.5 732,-133.5 732,-114.5 588,-114.5"/>
<text text-anchor="middle" x="660" y="-121.5" font-family="Helvetica,sans-Serif" font-size="10.00">view.TurtleView.getHeading</text>
</a>
</g>
</g>
<!-- Node5&#45;&gt;Node6 -->
<g id="edge5" class="edge"><title>Node5&#45;&gt;Node6</title>
<path fill="none" stroke="midnightblue" d="M516.417,-99.5161C540.349,-103.626 568.525,-108.464 593.483,-112.75"/>
<polygon fill="midnightblue" stroke="midnightblue" points="593.148,-116.243 603.596,-114.486 594.333,-109.344 593.148,-116.243"/>
</g>
<!-- Node7 -->
<g id="node7" class="node"><title>Node7</title>
<g id="a_node7"><a xlink:href="../../d8/df7/classview_1_1_turtle_view.html#ab5fdc3775e06339f4a68d1b795a81643" target="_top" xlink:title="view.TurtleView.getID">
<polygon fill="white" stroke="black" points="603,-76.5 603,-95.5 717,-95.5 717,-76.5 603,-76.5"/>
<text text-anchor="middle" x="660" y="-83.5" font-family="Helvetica,sans-Serif" font-size="10.00">view.TurtleView.getID</text>
</a>
</g>
</g>
<!-- Node5&#45;&gt;Node7 -->
<g id="edge6" class="edge"><title>Node5&#45;&gt;Node7</title>
<path fill="none" stroke="midnightblue" d="M545.544,-88.292C561.258,-87.9746 577.468,-87.6471 592.546,-87.3425"/>
<polygon fill="midnightblue" stroke="midnightblue" points="592.855,-90.8371 602.783,-87.1357 592.714,-83.8385 592.855,-90.8371"/>
</g>
<!-- Node8 -->
<g id="node8" class="node"><title>Node8</title>
<g id="a_node8"><a xlink:href="../../d5/dea/classview_1_1_side_table_view.html#adbdf2bf0ebf7fc8ab04db2087baea03a" target="_top" xlink:title="view.SideTableView.getTable">
<polygon fill="white" stroke="black" points="586,-38.5 586,-57.5 734,-57.5 734,-38.5 586,-38.5"/>
<text text-anchor="middle" x="660" y="-45.5" font-family="Helvetica,sans-Serif" font-size="10.00">view.SideTableView.getTable</text>
</a>
</g>
</g>
<!-- Node5&#45;&gt;Node8 -->
<g id="edge7" class="edge"><title>Node5&#45;&gt;Node8</title>
<path fill="none" stroke="midnightblue" d="M505.929,-80.4695C534.94,-74.3158 572.886,-66.2667 603.738,-59.7222"/>
<polygon fill="midnightblue" stroke="midnightblue" points="604.85,-63.0643 613.906,-57.5653 603.398,-56.2166 604.85,-63.0643"/>
</g>
<!-- Node9 -->
<g id="node9" class="node"><title>Node9</title>
<g id="a_node9"><a xlink:href="../../d8/df7/classview_1_1_turtle_view.html#afddbc74313a99bb100c8c50efa88f330" target="_top" xlink:title="view.TurtleView.getYCoord">
<polygon fill="white" stroke="black" points="591.5,-0.5 591.5,-19.5 728.5,-19.5 728.5,-0.5 591.5,-0.5"/>
<text text-anchor="middle" x="660" y="-7.5" font-family="Helvetica,sans-Serif" font-size="10.00">view.TurtleView.getYCoord</text>
</a>
</g>
</g>
<!-- Node5&#45;&gt;Node9 -->
<g id="edge9" class="edge"><title>Node5&#45;&gt;Node9</title>
<path fill="none" stroke="midnightblue" d="M477.3,-80.2868C500.055,-67.0799 542.948,-43.4516 582,-29 588.747,-26.5031 595.948,-24.234 603.136,-22.2037"/>
<polygon fill="midnightblue" stroke="midnightblue" points="604.136,-25.5591 612.885,-19.5841 602.32,-18.7988 604.136,-25.5591"/>
</g>
</g>
</svg>
