<?xml version="1.0" encoding="UTF-8" standalone="no"?>
<!DOCTYPE svg PUBLIC "-//W3C//DTD SVG 1.1//EN"
 "http://www.w3.org/Graphics/SVG/1.1/DTD/svg11.dtd">
<!-- Generated by graphviz version 2.36.0 (20140111.2315)
 -->
<!-- Title: view.ViewUpdater.updateWorkspace Pages: 1 -->
<svg width="980pt" height="592pt"
 viewBox="0.00 0.00 980.00 592.00" xmlns="http://www.w3.org/2000/svg" xmlns:xlink="http://www.w3.org/1999/xlink">
<g id="graph0" class="graph" transform="scale(1 1) rotate(0) translate(4 588)">
<title>view.ViewUpdater.updateWorkspace</title>
<polygon fill="white" stroke="none" points="-4,4 -4,-588 976,-588 976,4 -4,4"/>
<!-- Node1 -->
<g id="node1" class="node"><title>Node1</title>
<polygon fill="#bfbfbf" stroke="black" points="0.5,-38.5 0.5,-57.5 187.5,-57.5 187.5,-38.5 0.5,-38.5"/>
<text text-anchor="middle" x="94" y="-45.5" font-family="Helvetica,sans-Serif" font-size="10.00">view.ViewUpdater.updateWorkspace</text>
</g>
<!-- Node2 -->
<g id="node2" class="node"><title>Node2</title>
<g id="a_node2"><a xlink:href="../../de/d0a/classview_1_1_drawer.html#a6b9f362b8bc763689630b1fe7b5c1887" target="_top" xlink:title="view.Drawer.draw">
<polygon fill="white" stroke="black" points="242,-266.5 242,-285.5 340,-285.5 340,-266.5 242,-266.5"/>
<text text-anchor="middle" x="291" y="-273.5" font-family="Helvetica,sans-Serif" font-size="10.00">view.Drawer.draw</text>
</a>
</g>
</g>
<!-- Node1&#45;&gt;Node2 -->
<g id="edge1" class="edge"><title>Node1&#45;&gt;Node2</title>
<path fill="none" stroke="midnightblue" d="M103.131,-57.5066C132.926,-92.344 236.413,-213.344 275.182,-258.675"/>
<polygon fill="midnightblue" stroke="midnightblue" points="272.675,-261.128 281.835,-266.453 277.995,-256.578 272.675,-261.128"/>
</g>
<!-- Node18 -->
<g id="node18" class="node"><title>Node18</title>
<g id="a_node18"><a xlink:href="../../da/d64/classview_1_1_workspace.html#ad460da1164f039e5ea9a265d446d13fe" target="_top" xlink:title="view.Workspace.getTurtleMap">
<polygon fill="white" stroke="black" points="816.5,-235.5 816.5,-254.5 971.5,-254.5 971.5,-235.5 816.5,-235.5"/>
<text text-anchor="middle" x="894" y="-242.5" font-family="Helvetica,sans-Serif" font-size="10.00">view.Workspace.getTurtleMap</text>
</a>
</g>
</g>
<!-- Node1&#45;&gt;Node18 -->
<g id="edge29" class="edge"><title>Node1&#45;&gt;Node18</title>
<path fill="none" stroke="midnightblue" d="M187.511,-39.2176C285.071,-32.8142 442.313,-30.6807 572,-67 695.911,-101.702 824.067,-192.41 872.674,-229.177"/>
<polygon fill="midnightblue" stroke="midnightblue" points="870.734,-232.1 880.805,-235.389 874.983,-226.537 870.734,-232.1"/>
</g>
<!-- Node23 -->
<g id="node23" class="node"><title>Node23</title>
<g id="a_node23"><a xlink:href="../../da/d64/classview_1_1_workspace.html#a08f0e92c7d15f9c170e406af39ec54a5" target="_top" xlink:title="view.Workspace.getLines">
<polygon fill="white" stroke="black" points="224,-0.5 224,-19.5 358,-19.5 358,-0.5 224,-0.5"/>
<text text-anchor="middle" x="291" y="-7.5" font-family="Helvetica,sans-Serif" font-size="10.00">view.Workspace.getLines</text>
</a>
</g>
</g>
<!-- Node1&#45;&gt;Node23 -->
<g id="edge28" class="edge"><title>Node1&#45;&gt;Node23</title>
<path fill="none" stroke="midnightblue" d="M143.955,-38.46C170.381,-33.3104 203.194,-26.916 231.02,-21.4935"/>
<polygon fill="midnightblue" stroke="midnightblue" points="231.879,-24.8921 241.025,-19.5439 230.54,-18.0213 231.879,-24.8921"/>
</g>
<!-- Node3 -->
<g id="node3" class="node"><title>Node3</title>
<g id="a_node3"><a xlink:href="../../d1/d0b/classmodel_1_1_polar.html#adbd9afb75cf519b2dd9f1331e406b8c2" target="_top" xlink:title="model.Polar.getAngle">
<polygon fill="white" stroke="black" points="423.5,-380.5 423.5,-399.5 542.5,-399.5 542.5,-380.5 423.5,-380.5"/>
<text text-anchor="middle" x="483" y="-387.5" font-family="Helvetica,sans-Serif" font-size="10.00">model.Polar.getAngle</text>
</a>
</g>
</g>
<!-- Node2&#45;&gt;Node3 -->
<g id="edge2" class="edge"><title>Node2&#45;&gt;Node3</title>
<path fill="none" stroke="midnightblue" d="M299.254,-285.591C314.502,-305.021 351.957,-349.044 394,-371 400.05,-374.16 406.598,-376.794 413.296,-378.991"/>
<polygon fill="midnightblue" stroke="midnightblue" points="412.596,-382.433 423.177,-381.906 414.576,-375.72 412.596,-382.433"/>
</g>
<!-- Node4 -->
<g id="node4" class="node"><title>Node4</title>
<g id="a_node4"><a xlink:href="../../d1/d0b/classmodel_1_1_polar.html#a8abcb5640caf12d2941533a6e1c04faa" target="_top" xlink:title="model.Polar.getDistance">
<polygon fill="white" stroke="black" points="416,-342.5 416,-361.5 550,-361.5 550,-342.5 416,-342.5"/>
<text text-anchor="middle" x="483" y="-349.5" font-family="Helvetica,sans-Serif" font-size="10.00">model.Polar.getDistance</text>
</a>
</g>
</g>
<!-- Node2&#45;&gt;Node4 -->
<g id="edge3" class="edge"><title>Node2&#45;&gt;Node4</title>
<path fill="none" stroke="midnightblue" d="M308.129,-285.538C327.844,-296.884 362.482,-315.817 394,-328 405.54,-332.461 418.232,-336.434 430.298,-339.802"/>
<polygon fill="midnightblue" stroke="midnightblue" points="429.681,-343.26 440.248,-342.486 431.504,-336.502 429.681,-343.26"/>
</g>
<!-- Node5 -->
<g id="node5" class="node"><title>Node5</title>
<g id="a_node5"><a xlink:href="../../d8/df7/classview_1_1_turtle_view.html#a68c8a2962e23e5794fcfbe7ef1968fad" target="_top" xlink:title="view.TurtleView.getPenUp">
<polygon fill="white" stroke="black" points="626,-285.5 626,-304.5 762,-304.5 762,-285.5 626,-285.5"/>
<text text-anchor="middle" x="694" y="-292.5" font-family="Helvetica,sans-Serif" font-size="10.00">view.TurtleView.getPenUp</text>
</a>
</g>
</g>
<!-- Node2&#45;&gt;Node5 -->
<g id="edge4" class="edge"><title>Node2&#45;&gt;Node5</title>
<path fill="none" stroke="midnightblue" d="M333.444,-285.511C351.876,-289.276 373.911,-293.145 394,-295 469.005,-301.926 555.045,-301.001 615.513,-298.899"/>
<polygon fill="midnightblue" stroke="midnightblue" points="615.878,-302.388 625.743,-298.524 615.622,-295.393 615.878,-302.388"/>
</g>
<!-- Node6 -->
<g id="node6" class="node"><title>Node6</title>
<g id="a_node6"><a xlink:href="../../d6/d06/classmodel_1_1_turtle_command.html#ab94da8b47588273eb8db943096f12422" target="_top" xlink:title="model.TurtleCommand.getPolar">
<polygon fill="white" stroke="black" points="399,-152.5 399,-171.5 567,-171.5 567,-152.5 399,-152.5"/>
<text text-anchor="middle" x="483" y="-159.5" font-family="Helvetica,sans-Serif" font-size="10.00">model.TurtleCommand.getPolar</text>
</a>
</g>
</g>
<!-- Node2&#45;&gt;Node6 -->
<g id="edge5" class="edge"><title>Node2&#45;&gt;Node6</title>
<path fill="none" stroke="midnightblue" d="M300.203,-266.262C316.281,-247.803 353.883,-207.636 394,-186 402.676,-181.321 412.336,-177.498 421.989,-174.392"/>
<polygon fill="midnightblue" stroke="midnightblue" points="423.023,-177.736 431.602,-171.519 421.019,-171.029 423.023,-177.736"/>
</g>
<!-- Node7 -->
<g id="node7" class="node"><title>Node7</title>
<g id="a_node7"><a xlink:href="../../d6/d06/classmodel_1_1_turtle_command.html#ab30f5c95162492cb8fd19f1fd7350f9f" target="_top" xlink:title="model.TurtleCommand.getTurtleId">
<polygon fill="white" stroke="black" points="394,-114.5 394,-133.5 572,-133.5 572,-114.5 394,-114.5"/>
<text text-anchor="middle" x="483" y="-121.5" font-family="Helvetica,sans-Serif" font-size="10.00">model.TurtleCommand.getTurtleId</text>
</a>
</g>
</g>
<!-- Node2&#45;&gt;Node7 -->
<g id="edge6" class="edge"><title>Node2&#45;&gt;Node7</title>
<path fill="none" stroke="midnightblue" d="M296.358,-266.432C308.171,-241.65 343.359,-175.075 394,-143 397.322,-140.896 400.84,-139.022 404.485,-137.354"/>
<polygon fill="midnightblue" stroke="midnightblue" points="405.798,-140.598 413.764,-133.614 403.181,-134.106 405.798,-140.598"/>
</g>
<!-- Node8 -->
<g id="node8" class="node"><title>Node8</title>
<g id="a_node8"><a xlink:href="../../d6/d06/classmodel_1_1_turtle_command.html#abb952ce819f91c0f5970c2f2b1c43d73" target="_top" xlink:title="model.TurtleCommand.isRelative">
<polygon fill="white" stroke="black" points="396.5,-76.5 396.5,-95.5 569.5,-95.5 569.5,-76.5 396.5,-76.5"/>
<text text-anchor="middle" x="483" y="-83.5" font-family="Helvetica,sans-Serif" font-size="10.00">model.TurtleCommand.isRelative</text>
</a>
</g>
</g>
<!-- Node2&#45;&gt;Node8 -->
<g id="edge7" class="edge"><title>Node2&#45;&gt;Node8</title>
<path fill="none" stroke="midnightblue" d="M294.729,-266.37C303.588,-236.965 334.476,-147.747 394,-105 396.666,-103.085 399.487,-101.357 402.419,-99.7973"/>
<polygon fill="midnightblue" stroke="midnightblue" points="403.892,-102.973 411.507,-95.6062 400.96,-96.616 403.892,-102.973"/>
</g>
<!-- Node9 -->
<g id="node9" class="node"><title>Node9</title>
<g id="a_node9"><a xlink:href="../../d8/df7/classview_1_1_turtle_view.html#a5e7cf3c4f078acae07bcbeee264a5581" target="_top" xlink:title="view.TurtleView.move">
<polygon fill="white" stroke="black" points="636,-209.5 636,-228.5 752,-228.5 752,-209.5 636,-209.5"/>
<text text-anchor="middle" x="694" y="-216.5" font-family="Helvetica,sans-Serif" font-size="10.00">view.TurtleView.move</text>
</a>
</g>
</g>
<!-- Node2&#45;&gt;Node9 -->
<g id="edge8" class="edge"><title>Node2&#45;&gt;Node9</title>
<path fill="none" stroke="midnightblue" d="M304.289,-266.345C322.592,-252.644 358.664,-228.203 394,-219 471.682,-198.767 564.618,-202.978 626.033,-209.485"/>
<polygon fill="midnightblue" stroke="midnightblue" points="625.664,-212.965 635.989,-210.589 626.436,-206.008 625.664,-212.965"/>
</g>
<!-- Node10 -->
<g id="node10" class="node"><title>Node10</title>
<g id="a_node10"><a xlink:href="../../d8/df7/classview_1_1_turtle_view.html#a166c0ff50e234c0a2725aa1cbc38c933" target="_top" xlink:title="view.TurtleView.setAbsolute\lHeading">
<polygon fill="white" stroke="black" points="410,-468 410,-498 556,-498 556,-468 410,-468"/>
<text text-anchor="start" x="418" y="-486" font-family="Helvetica,sans-Serif" font-size="10.00">view.TurtleView.setAbsolute</text>
<text text-anchor="middle" x="483" y="-475" font-family="Helvetica,sans-Serif" font-size="10.00">Heading</text>
</a>
</g>
</g>
<!-- Node2&#45;&gt;Node10 -->
<g id="edge9" class="edge"><title>Node2&#45;&gt;Node10</title>
<path fill="none" stroke="midnightblue" d="M294.542,-285.633C303.047,-315.944 333.45,-410.188 394,-458 396.279,-459.799 398.681,-461.469 401.177,-463.019"/>
<polygon fill="midnightblue" stroke="midnightblue" points="399.531,-466.108 409.984,-467.838 402.891,-459.967 399.531,-466.108"/>
</g>
<!-- Node12 -->
<g id="node12" class="node"><title>Node12</title>
<g id="a_node12"><a xlink:href="../../d8/df7/classview_1_1_turtle_view.html#a199407b3121d1bc310d7f75cdab2da94" target="_top" xlink:title="view.TurtleView.setRelative\lHeading">
<polygon fill="white" stroke="black" points="413,-419 413,-449 553,-449 553,-419 413,-419"/>
<text text-anchor="start" x="421" y="-437" font-family="Helvetica,sans-Serif" font-size="10.00">view.TurtleView.setRelative</text>
<text text-anchor="middle" x="483" y="-426" font-family="Helvetica,sans-Serif" font-size="10.00">Heading</text>
</a>
</g>
</g>
<!-- Node2&#45;&gt;Node12 -->
<g id="edge11" class="edge"><title>Node2&#45;&gt;Node12</title>
<path fill="none" stroke="midnightblue" d="M296.656,-285.742C308.931,-310.359 344.655,-375.481 394,-409 397.071,-411.086 400.315,-413 403.674,-414.755"/>
<polygon fill="midnightblue" stroke="midnightblue" points="402.259,-417.957 412.798,-419.04 405.235,-411.621 402.259,-417.957"/>
</g>
<!-- Node13 -->
<g id="node13" class="node"><title>Node13</title>
<g id="a_node13"><a xlink:href="../../d1/dc7/classview_1_1_side_bar.html#a7d73038dbba05f96990b60664afa2670" target="_top" xlink:title="view.SideBar.updateTurtle\lProperties">
<polygon fill="white" stroke="black" points="414,-517 414,-547 552,-547 552,-517 414,-517"/>
<text text-anchor="start" x="422" y="-535" font-family="Helvetica,sans-Serif" font-size="10.00">view.SideBar.updateTurtle</text>
<text text-anchor="middle" x="483" y="-524" font-family="Helvetica,sans-Serif" font-size="10.00">Properties</text>
</a>
</g>
</g>
<!-- Node2&#45;&gt;Node13 -->
<g id="edge13" class="edge"><title>Node2&#45;&gt;Node13</title>
<path fill="none" stroke="midnightblue" d="M293.309,-285.612C298.626,-320.868 321.891,-444.278 394,-507 397.395,-509.953 401.116,-512.558 405.049,-514.857"/>
<polygon fill="midnightblue" stroke="midnightblue" points="403.459,-517.975 413.955,-519.415 406.648,-511.743 403.459,-517.975"/>
</g>
<!-- Node20 -->
<g id="node20" class="node"><title>Node20</title>
<g id="a_node20"><a xlink:href="../../de/d0a/classview_1_1_drawer.html#a24eafc164d9d0ab08036dc5cf7d72dd4" target="_top" xlink:title="view.Drawer.wrapX">
<polygon fill="white" stroke="black" points="431,-228.5 431,-247.5 535,-247.5 535,-228.5 431,-228.5"/>
<text text-anchor="middle" x="483" y="-235.5" font-family="Helvetica,sans-Serif" font-size="10.00">view.Drawer.wrapX</text>
</a>
</g>
</g>
<!-- Node2&#45;&gt;Node20 -->
<g id="edge20" class="edge"><title>Node2&#45;&gt;Node20</title>
<path fill="none" stroke="midnightblue" d="M339.945,-266.411C365.582,-261.284 397.336,-254.933 424.316,-249.537"/>
<polygon fill="midnightblue" stroke="midnightblue" points="425.28,-252.913 434.4,-247.52 423.908,-246.049 425.28,-252.913"/>
</g>
<!-- Node22 -->
<g id="node22" class="node"><title>Node22</title>
<g id="a_node22"><a xlink:href="../../de/d0a/classview_1_1_drawer.html#ad1636376006d26ed1ca9784e13f96a2a" target="_top" xlink:title="view.Drawer.wrapY">
<polygon fill="white" stroke="black" points="431.5,-266.5 431.5,-285.5 534.5,-285.5 534.5,-266.5 431.5,-266.5"/>
<text text-anchor="middle" x="483" y="-273.5" font-family="Helvetica,sans-Serif" font-size="10.00">view.Drawer.wrapY</text>
</a>
</g>
</g>
<!-- Node2&#45;&gt;Node22 -->
<g id="edge24" class="edge"><title>Node2&#45;&gt;Node22</title>
<path fill="none" stroke="midnightblue" d="M340.437,-276C364.993,-276 395.064,-276 421.166,-276"/>
<polygon fill="midnightblue" stroke="midnightblue" points="421.328,-279.5 431.328,-276 421.328,-272.5 421.328,-279.5"/>
</g>
<!-- Node11 -->
<g id="node11" class="node"><title>Node11</title>
<g id="a_node11"><a xlink:href="../../d8/df7/classview_1_1_turtle_view.html#aea0727a510b53db67aa4100a6106eb5b" target="_top" xlink:title="view.TurtleView.adjustAngle">
<polygon fill="white" stroke="black" points="621.5,-439.5 621.5,-458.5 766.5,-458.5 766.5,-439.5 621.5,-439.5"/>
<text text-anchor="middle" x="694" y="-446.5" font-family="Helvetica,sans-Serif" font-size="10.00">view.TurtleView.adjustAngle</text>
</a>
</g>
</g>
<!-- Node10&#45;&gt;Node11 -->
<g id="edge10" class="edge"><title>Node10&#45;&gt;Node11</title>
<path fill="none" stroke="midnightblue" d="M556.219,-471.252C578.422,-467.64 602.781,-463.677 624.712,-460.109"/>
<polygon fill="midnightblue" stroke="midnightblue" points="625.293,-463.561 634.601,-458.5 624.169,-456.651 625.293,-463.561"/>
</g>
<!-- Node12&#45;&gt;Node11 -->
<g id="edge12" class="edge"><title>Node12&#45;&gt;Node11</title>
<path fill="none" stroke="midnightblue" d="M553.014,-438.953C571.558,-440.284 591.795,-441.736 610.972,-443.113"/>
<polygon fill="midnightblue" stroke="midnightblue" points="610.968,-446.621 621.193,-443.846 611.469,-439.639 610.968,-446.621"/>
</g>
<!-- Node14 -->
<g id="node14" class="node"><title>Node14</title>
<g id="a_node14"><a xlink:href="../../d9/d3a/classview_1_1_turtle_properties_view.html#af07bce3cf2bed2814a0fb3812d00b69e" target="_top" xlink:title="view.TurtlePropertiesView.update">
<polygon fill="white" stroke="black" points="608.5,-507.5 608.5,-526.5 779.5,-526.5 779.5,-507.5 608.5,-507.5"/>
<text text-anchor="middle" x="694" y="-514.5" font-family="Helvetica,sans-Serif" font-size="10.00">view.TurtlePropertiesView.update</text>
</a>
</g>
</g>
<!-- Node13&#45;&gt;Node14 -->
<g id="edge14" class="edge"><title>Node13&#45;&gt;Node14</title>
<path fill="none" stroke="midnightblue" d="M552.145,-527.109C566.9,-526.05 582.76,-524.912 598.327,-523.795"/>
<polygon fill="midnightblue" stroke="midnightblue" points="598.776,-527.272 608.499,-523.065 598.275,-520.29 598.776,-527.272"/>
</g>
<!-- Node15 -->
<g id="node15" class="node"><title>Node15</title>
<g id="a_node15"><a xlink:href="../../d8/df7/classview_1_1_turtle_view.html#a5da3d4c9dafb77af0db0c589a72eadc8" target="_top" xlink:title="view.TurtleView.getHeading">
<polygon fill="white" stroke="black" points="822,-450.5 822,-469.5 966,-469.5 966,-450.5 822,-450.5"/>
<text text-anchor="middle" x="894" y="-457.5" font-family="Helvetica,sans-Serif" font-size="10.00">view.TurtleView.getHeading</text>
</a>
</g>
</g>
<!-- Node14&#45;&gt;Node15 -->
<g id="edge15" class="edge"><title>Node14&#45;&gt;Node15</title>
<path fill="none" stroke="midnightblue" d="M723.698,-507.432C748.121,-499.424 784.196,-487.908 816,-479 824.477,-476.625 833.523,-474.252 842.325,-472.027"/>
<polygon fill="midnightblue" stroke="midnightblue" points="843.259,-475.401 852.115,-469.586 841.565,-468.609 843.259,-475.401"/>
</g>
<!-- Node16 -->
<g id="node16" class="node"><title>Node16</title>
<g id="a_node16"><a xlink:href="../../d8/df7/classview_1_1_turtle_view.html#ab5fdc3775e06339f4a68d1b795a81643" target="_top" xlink:title="view.TurtleView.getID">
<polygon fill="white" stroke="black" points="837,-564.5 837,-583.5 951,-583.5 951,-564.5 837,-564.5"/>
<text text-anchor="middle" x="894" y="-571.5" font-family="Helvetica,sans-Serif" font-size="10.00">view.TurtleView.getID</text>
</a>
</g>
</g>
<!-- Node14&#45;&gt;Node16 -->
<g id="edge16" class="edge"><title>Node14&#45;&gt;Node16</title>
<path fill="none" stroke="midnightblue" d="M723.698,-526.568C748.121,-534.576 784.196,-546.092 816,-555 824.477,-557.375 833.523,-559.748 842.325,-561.973"/>
<polygon fill="midnightblue" stroke="midnightblue" points="841.565,-565.391 852.115,-564.414 843.259,-558.599 841.565,-565.391"/>
</g>
<!-- Node17 -->
<g id="node17" class="node"><title>Node17</title>
<g id="a_node17"><a xlink:href="../../d5/dea/classview_1_1_side_table_view.html#adbdf2bf0ebf7fc8ab04db2087baea03a" target="_top" xlink:title="view.SideTableView.getTable">
<polygon fill="white" stroke="black" points="820,-526.5 820,-545.5 968,-545.5 968,-526.5 820,-526.5"/>
<text text-anchor="middle" x="894" y="-533.5" font-family="Helvetica,sans-Serif" font-size="10.00">view.SideTableView.getTable</text>
</a>
</g>
</g>
<!-- Node14&#45;&gt;Node17 -->
<g id="edge17" class="edge"><title>Node14&#45;&gt;Node17</title>
<path fill="none" stroke="midnightblue" d="M779.544,-525.113C789.635,-526.081 799.93,-527.069 809.998,-528.035"/>
<polygon fill="midnightblue" stroke="midnightblue" points="809.687,-531.521 819.975,-528.993 810.355,-524.553 809.687,-531.521"/>
</g>
<!-- Node14&#45;&gt;Node18 -->
<g id="edge18" class="edge"><title>Node14&#45;&gt;Node18</title>
<path fill="none" stroke="midnightblue" d="M719.502,-507.464C738,-499.268 763.013,-485.929 780,-468 839.19,-405.529 874.48,-306.051 887.384,-264.369"/>
<polygon fill="midnightblue" stroke="midnightblue" points="890.78,-265.232 890.308,-254.647 884.076,-263.215 890.78,-265.232"/>
</g>
<!-- Node19 -->
<g id="node19" class="node"><title>Node19</title>
<g id="a_node19"><a xlink:href="../../d8/df7/classview_1_1_turtle_view.html#afddbc74313a99bb100c8c50efa88f330" target="_top" xlink:title="view.TurtleView.getYCoord">
<polygon fill="white" stroke="black" points="825.5,-488.5 825.5,-507.5 962.5,-507.5 962.5,-488.5 825.5,-488.5"/>
<text text-anchor="middle" x="894" y="-495.5" font-family="Helvetica,sans-Serif" font-size="10.00">view.TurtleView.getYCoord</text>
</a>
</g>
</g>
<!-- Node14&#45;&gt;Node19 -->
<g id="edge19" class="edge"><title>Node14&#45;&gt;Node19</title>
<path fill="none" stroke="midnightblue" d="M779.544,-508.887C791.413,-507.748 803.566,-506.582 815.299,-505.456"/>
<polygon fill="midnightblue" stroke="midnightblue" points="815.865,-508.918 825.485,-504.479 815.196,-501.95 815.865,-508.918"/>
</g>
<!-- Node20&#45;&gt;Node5 -->
<g id="edge22" class="edge"><title>Node20&#45;&gt;Node5</title>
<path fill="none" stroke="midnightblue" d="M535.392,-246.631C547.575,-249.35 560.397,-252.776 572,-257 589,-263.189 591.022,-269.749 608,-276 615.184,-278.645 622.85,-280.987 630.528,-283.042"/>
<polygon fill="midnightblue" stroke="midnightblue" points="629.67,-286.435 640.223,-285.493 631.386,-279.649 629.67,-286.435"/>
</g>
<!-- Node20&#45;&gt;Node9 -->
<g id="edge23" class="edge"><title>Node20&#45;&gt;Node9</title>
<path fill="none" stroke="midnightblue" d="M535.127,-233.352C562.369,-230.876 596.226,-227.798 625.592,-225.128"/>
<polygon fill="midnightblue" stroke="midnightblue" points="626.131,-228.594 635.773,-224.202 625.497,-221.622 626.131,-228.594"/>
</g>
<!-- Node21 -->
<g id="node21" class="node"><title>Node21</title>
<g id="a_node21"><a xlink:href="../../de/d0a/classview_1_1_drawer.html#a1489f58b0b2c2012d23d546013a47972" target="_top" xlink:title="view.Drawer.drawLine">
<polygon fill="white" stroke="black" points="635.5,-247.5 635.5,-266.5 752.5,-266.5 752.5,-247.5 635.5,-247.5"/>
<text text-anchor="middle" x="694" y="-254.5" font-family="Helvetica,sans-Serif" font-size="10.00">view.Drawer.drawLine</text>
</a>
</g>
</g>
<!-- Node20&#45;&gt;Node21 -->
<g id="edge21" class="edge"><title>Node20&#45;&gt;Node21</title>
<path fill="none" stroke="midnightblue" d="M535.127,-242.648C562.261,-245.115 595.957,-248.178 625.242,-250.84"/>
<polygon fill="midnightblue" stroke="midnightblue" points="625.122,-254.344 635.398,-251.763 625.756,-247.372 625.122,-254.344"/>
</g>
<!-- Node22&#45;&gt;Node5 -->
<g id="edge26" class="edge"><title>Node22&#45;&gt;Node5</title>
<path fill="none" stroke="midnightblue" d="M534.593,-280.599C558.91,-282.81 588.59,-285.508 615.658,-287.969"/>
<polygon fill="midnightblue" stroke="midnightblue" points="615.611,-291.479 625.887,-288.899 616.245,-284.508 615.611,-291.479"/>
</g>
<!-- Node22&#45;&gt;Node9 -->
<g id="edge27" class="edge"><title>Node22&#45;&gt;Node9</title>
<path fill="none" stroke="midnightblue" d="M534.929,-267.472C547.251,-264.737 560.251,-261.277 572,-257 589,-250.811 591.022,-244.251 608,-238 615.184,-235.355 622.85,-233.013 630.528,-230.958"/>
<polygon fill="midnightblue" stroke="midnightblue" points="631.386,-234.351 640.223,-228.507 629.67,-227.565 631.386,-234.351"/>
</g>
<!-- Node22&#45;&gt;Node21 -->
<g id="edge25" class="edge"><title>Node22&#45;&gt;Node21</title>
<path fill="none" stroke="midnightblue" d="M534.593,-271.401C561.826,-268.925 595.785,-265.838 625.269,-263.157"/>
<polygon fill="midnightblue" stroke="midnightblue" points="625.85,-266.619 635.492,-262.228 625.216,-259.648 625.85,-266.619"/>
</g>
</g>
</svg>
