<?xml version="1.0" encoding="UTF-8" standalone="no"?>
<!DOCTYPE svg PUBLIC "-//W3C//DTD SVG 1.1//EN"
 "http://www.w3.org/Graphics/SVG/1.1/DTD/svg11.dtd">
<!-- Generated by graphviz version 2.36.0 (20140111.2315)
 -->
<!-- Title: view.ViewUpdater.setPenUp Pages: 1 -->
<svg width="528pt" height="218pt"
 viewBox="0.00 0.00 528.00 218.00" xmlns="http://www.w3.org/2000/svg" xmlns:xlink="http://www.w3.org/1999/xlink">
<g id="graph0" class="graph" transform="scale(1 1) rotate(0) translate(4 214)">
<title>view.ViewUpdater.setPenUp</title>
<polygon fill="white" stroke="none" points="-4,4 -4,-214 524,-214 524,4 -4,4"/>
<!-- Node1 -->
<g id="node1" class="node"><title>Node1</title>
<polygon fill="#bfbfbf" stroke="black" points="0.5,-144.5 0.5,-163.5 149.5,-163.5 149.5,-144.5 0.5,-144.5"/>
<text text-anchor="middle" x="75" y="-151.5" font-family="Helvetica,sans-Serif" font-size="10.00">view.ViewUpdater.setPenUp</text>
</g>
<!-- Node2 -->
<g id="node2" class="node"><title>Node2</title>
<g id="a_node2"><a xlink:href="../../da/d64/classview_1_1_workspace.html#ad460da1164f039e5ea9a265d446d13fe" target="_top" xlink:title="view.Workspace.getTurtleMap">
<polygon fill="white" stroke="black" points="362.5,-190.5 362.5,-209.5 517.5,-209.5 517.5,-190.5 362.5,-190.5"/>
<text text-anchor="middle" x="440" y="-197.5" font-family="Helvetica,sans-Serif" font-size="10.00">view.Workspace.getTurtleMap</text>
</a>
</g>
</g>
<!-- Node1&#45;&gt;Node2 -->
<g id="edge1" class="edge"><title>Node1&#45;&gt;Node2</title>
<path fill="none" stroke="midnightblue" d="M149.896,-163.364C209.002,-170.854 291.935,-181.364 353.828,-189.207"/>
<polygon fill="midnightblue" stroke="midnightblue" points="353.6,-192.706 363.961,-190.491 354.48,-185.761 353.6,-192.706"/>
</g>
<!-- Node3 -->
<g id="node3" class="node"><title>Node3</title>
<g id="a_node3"><a xlink:href="../../d1/dc7/classview_1_1_side_bar.html#a7d73038dbba05f96990b60664afa2670" target="_top" xlink:title="view.SideBar.updateTurtle\lProperties">
<polygon fill="white" stroke="black" points="186,-109 186,-139 324,-139 324,-109 186,-109"/>
<text text-anchor="start" x="194" y="-127" font-family="Helvetica,sans-Serif" font-size="10.00">view.SideBar.updateTurtle</text>
<text text-anchor="middle" x="255" y="-116" font-family="Helvetica,sans-Serif" font-size="10.00">Properties</text>
</a>
</g>
</g>
<!-- Node1&#45;&gt;Node3 -->
<g id="edge2" class="edge"><title>Node1&#45;&gt;Node3</title>
<path fill="none" stroke="midnightblue" d="M132.81,-144.425C146.532,-142.113 161.435,-139.601 175.944,-137.156"/>
<polygon fill="midnightblue" stroke="midnightblue" points="176.627,-140.59 185.906,-135.476 175.464,-133.687 176.627,-140.59"/>
</g>
<!-- Node3&#45;&gt;Node2 -->
<g id="edge6" class="edge"><title>Node3&#45;&gt;Node2</title>
<path fill="none" stroke="midnightblue" d="M279.499,-139.246C300.027,-151.977 330.999,-169.795 360,-181 366.454,-183.493 373.334,-185.729 380.241,-187.714"/>
<polygon fill="midnightblue" stroke="midnightblue" points="379.766,-191.211 390.333,-190.443 381.594,-184.454 379.766,-191.211"/>
</g>
<!-- Node4 -->
<g id="node4" class="node"><title>Node4</title>
<g id="a_node4"><a xlink:href="../../d8/df7/classview_1_1_turtle_view.html#a5da3d4c9dafb77af0db0c589a72eadc8" target="_top" xlink:title="view.TurtleView.getHeading">
<polygon fill="white" stroke="black" points="368,-152.5 368,-171.5 512,-171.5 512,-152.5 368,-152.5"/>
<text text-anchor="middle" x="440" y="-159.5" font-family="Helvetica,sans-Serif" font-size="10.00">view.TurtleView.getHeading</text>
</a>
</g>
</g>
<!-- Node3&#45;&gt;Node4 -->
<g id="edge3" class="edge"><title>Node3&#45;&gt;Node4</title>
<path fill="none" stroke="midnightblue" d="M324.142,-138.15C343.61,-142.192 364.589,-146.549 383.223,-150.418"/>
<polygon fill="midnightblue" stroke="midnightblue" points="382.518,-153.846 393.021,-152.452 383.941,-146.992 382.518,-153.846"/>
</g>
<!-- Node5 -->
<g id="node5" class="node"><title>Node5</title>
<g id="a_node5"><a xlink:href="../../d8/df7/classview_1_1_turtle_view.html#ab5fdc3775e06339f4a68d1b795a81643" target="_top" xlink:title="view.TurtleView.getID">
<polygon fill="white" stroke="black" points="383,-114.5 383,-133.5 497,-133.5 497,-114.5 383,-114.5"/>
<text text-anchor="middle" x="440" y="-121.5" font-family="Helvetica,sans-Serif" font-size="10.00">view.TurtleView.getID</text>
</a>
</g>
</g>
<!-- Node3&#45;&gt;Node5 -->
<g id="edge4" class="edge"><title>Node3&#45;&gt;Node5</title>
<path fill="none" stroke="midnightblue" d="M324.142,-124C339.981,-124 356.82,-124 372.583,-124"/>
<polygon fill="midnightblue" stroke="midnightblue" points="372.765,-127.5 382.765,-124 372.765,-120.5 372.765,-127.5"/>
</g>
<!-- Node6 -->
<g id="node6" class="node"><title>Node6</title>
<g id="a_node6"><a xlink:href="../../d8/df7/classview_1_1_turtle_view.html#a85b9acc922cc69f27c79bf13e3356e09" target="_top" xlink:title="view.TurtleView.getPenPosition">
<polygon fill="white" stroke="black" points="360,-76.5 360,-95.5 520,-95.5 520,-76.5 360,-76.5"/>
<text text-anchor="middle" x="440" y="-83.5" font-family="Helvetica,sans-Serif" font-size="10.00">view.TurtleView.getPenPosition</text>
</a>
</g>
</g>
<!-- Node3&#45;&gt;Node6 -->
<g id="edge5" class="edge"><title>Node3&#45;&gt;Node6</title>
<path fill="none" stroke="midnightblue" d="M324.142,-109.85C343.61,-105.808 364.589,-101.451 383.223,-97.5821"/>
<polygon fill="midnightblue" stroke="midnightblue" points="383.941,-101.008 393.021,-95.5476 382.518,-94.1539 383.941,-101.008"/>
</g>
<!-- Node7 -->
<g id="node7" class="node"><title>Node7</title>
<g id="a_node7"><a xlink:href="../../d8/df7/classview_1_1_turtle_view.html#afddbc74313a99bb100c8c50efa88f330" target="_top" xlink:title="view.TurtleView.getYCoord">
<polygon fill="white" stroke="black" points="371.5,-38.5 371.5,-57.5 508.5,-57.5 508.5,-38.5 371.5,-38.5"/>
<text text-anchor="middle" x="440" y="-45.5" font-family="Helvetica,sans-Serif" font-size="10.00">view.TurtleView.getYCoord</text>
</a>
</g>
</g>
<!-- Node3&#45;&gt;Node7 -->
<g id="edge7" class="edge"><title>Node3&#45;&gt;Node7</title>
<path fill="none" stroke="midnightblue" d="M279.499,-108.754C300.027,-96.0227 330.999,-78.2049 360,-67 366.454,-64.5065 373.334,-62.271 380.241,-60.2863"/>
<polygon fill="midnightblue" stroke="midnightblue" points="381.594,-63.5463 390.333,-57.5568 379.766,-56.7891 381.594,-63.5463"/>
</g>
<!-- Node8 -->
<g id="node8" class="node"><title>Node8</title>
<g id="a_node8"><a xlink:href="../../d8/df7/classview_1_1_turtle_view.html#a5f7b22cd8ab69258535b18920a488b63" target="_top" xlink:title="view.TurtleView.isShowing">
<polygon fill="white" stroke="black" points="372,-0.5 372,-19.5 508,-19.5 508,-0.5 372,-0.5"/>
<text text-anchor="middle" x="440" y="-7.5" font-family="Helvetica,sans-Serif" font-size="10.00">view.TurtleView.isShowing</text>
</a>
</g>
</g>
<!-- Node3&#45;&gt;Node8 -->
<g id="edge8" class="edge"><title>Node3&#45;&gt;Node8</title>
<path fill="none" stroke="midnightblue" d="M268.073,-108.958C285.896,-87.7951 321.338,-49.5281 360,-29 364.479,-26.6216 369.259,-24.5365 374.166,-22.7092"/>
<polygon fill="midnightblue" stroke="midnightblue" points="375.347,-26.0045 383.713,-19.5037 373.119,-19.3685 375.347,-26.0045"/>
</g>
</g>
</svg>
