<?xml version="1.0" encoding="UTF-8" standalone="no"?>
<!DOCTYPE svg PUBLIC "-//W3C//DTD SVG 1.1//EN"
 "http://www.w3.org/Graphics/SVG/1.1/DTD/svg11.dtd">
<!-- Generated by graphviz version 2.36.0 (20140111.2315)
 -->
<!-- Title: view.ViewUpdater.setHeading Pages: 1 -->
<svg width="740pt" height="180pt"
 viewBox="0.00 0.00 740.00 180.00" xmlns="http://www.w3.org/2000/svg" xmlns:xlink="http://www.w3.org/1999/xlink">
<g id="graph0" class="graph" transform="scale(1 1) rotate(0) translate(4 176)">
<title>view.ViewUpdater.setHeading</title>
<polygon fill="white" stroke="none" points="-4,4 -4,-176 736,-176 736,4 -4,4"/>
<!-- Node1 -->
<g id="node1" class="node"><title>Node1</title>
<polygon fill="#bfbfbf" stroke="black" points="0.5,-122.5 0.5,-141.5 157.5,-141.5 157.5,-122.5 0.5,-122.5"/>
<text text-anchor="middle" x="79" y="-129.5" font-family="Helvetica,sans-Serif" font-size="10.00">view.ViewUpdater.setHeading</text>
</g>
<!-- Node2 -->
<g id="node2" class="node"><title>Node2</title>
<g id="a_node2"><a xlink:href="../../da/d64/classview_1_1_workspace.html#ad460da1164f039e5ea9a265d446d13fe" target="_top" xlink:title="view.Workspace.getTurtleMap">
<polygon fill="white" stroke="black" points="576.5,-152.5 576.5,-171.5 731.5,-171.5 731.5,-152.5 576.5,-152.5"/>
<text text-anchor="middle" x="654" y="-159.5" font-family="Helvetica,sans-Serif" font-size="10.00">view.Workspace.getTurtleMap</text>
</a>
</g>
</g>
<!-- Node1&#45;&gt;Node2 -->
<g id="edge1" class="edge"><title>Node1&#45;&gt;Node2</title>
<path fill="none" stroke="midnightblue" d="M157.575,-136.062C264.012,-141.634 454.754,-151.621 565.947,-157.442"/>
<polygon fill="midnightblue" stroke="midnightblue" points="565.954,-160.947 576.123,-157.975 566.32,-153.957 565.954,-160.947"/>
</g>
<!-- Node3 -->
<g id="node3" class="node"><title>Node3</title>
<g id="a_node3"><a xlink:href="../../d1/dc7/classview_1_1_side_bar.html#a7d73038dbba05f96990b60664afa2670" target="_top" xlink:title="view.SideBar.updateTurtle\lProperties">
<polygon fill="white" stroke="black" points="194,-91 194,-121 332,-121 332,-91 194,-91"/>
<text text-anchor="start" x="202" y="-109" font-family="Helvetica,sans-Serif" font-size="10.00">view.SideBar.updateTurtle</text>
<text text-anchor="middle" x="263" y="-98" font-family="Helvetica,sans-Serif" font-size="10.00">Properties</text>
</a>
</g>
</g>
<!-- Node1&#45;&gt;Node3 -->
<g id="edge2" class="edge"><title>Node1&#45;&gt;Node3</title>
<path fill="none" stroke="midnightblue" d="M146.737,-122.466C158.705,-120.756 171.277,-118.96 183.539,-117.209"/>
<polygon fill="midnightblue" stroke="midnightblue" points="184.342,-120.63 193.747,-115.75 183.352,-113.7 184.342,-120.63"/>
</g>
<!-- Node4 -->
<g id="node4" class="node"><title>Node4</title>
<g id="a_node4"><a xlink:href="../../d9/d3a/classview_1_1_turtle_properties_view.html#af07bce3cf2bed2814a0fb3812d00b69e" target="_top" xlink:title="view.TurtlePropertiesView.update">
<polygon fill="white" stroke="black" points="368.5,-80.5 368.5,-99.5 539.5,-99.5 539.5,-80.5 368.5,-80.5"/>
<text text-anchor="middle" x="454" y="-87.5" font-family="Helvetica,sans-Serif" font-size="10.00">view.TurtlePropertiesView.update</text>
</a>
</g>
</g>
<!-- Node3&#45;&gt;Node4 -->
<g id="edge3" class="edge"><title>Node3&#45;&gt;Node4</title>
<path fill="none" stroke="midnightblue" d="M332.233,-100.224C340.669,-99.5095 349.408,-98.7697 358.151,-98.0295"/>
<polygon fill="midnightblue" stroke="midnightblue" points="358.73,-101.493 368.399,-97.162 358.139,-94.5181 358.73,-101.493"/>
</g>
<!-- Node4&#45;&gt;Node2 -->
<g id="edge7" class="edge"><title>Node4&#45;&gt;Node2</title>
<path fill="none" stroke="midnightblue" d="M474.293,-99.6806C497.838,-111.205 539.083,-130.463 576,-143 583.334,-145.491 591.162,-147.804 598.914,-149.898"/>
<polygon fill="midnightblue" stroke="midnightblue" points="598.09,-153.3 608.649,-152.429 599.851,-146.525 598.09,-153.3"/>
</g>
<!-- Node5 -->
<g id="node5" class="node"><title>Node5</title>
<g id="a_node5"><a xlink:href="../../d8/df7/classview_1_1_turtle_view.html#a5da3d4c9dafb77af0db0c589a72eadc8" target="_top" xlink:title="view.TurtleView.getHeading">
<polygon fill="white" stroke="black" points="582,-114.5 582,-133.5 726,-133.5 726,-114.5 582,-114.5"/>
<text text-anchor="middle" x="654" y="-121.5" font-family="Helvetica,sans-Serif" font-size="10.00">view.TurtleView.getHeading</text>
</a>
</g>
</g>
<!-- Node4&#45;&gt;Node5 -->
<g id="edge4" class="edge"><title>Node4&#45;&gt;Node5</title>
<path fill="none" stroke="midnightblue" d="M510.417,-99.5161C534.349,-103.626 562.525,-108.464 587.483,-112.75"/>
<polygon fill="midnightblue" stroke="midnightblue" points="587.148,-116.243 597.596,-114.486 588.333,-109.344 587.148,-116.243"/>
</g>
<!-- Node6 -->
<g id="node6" class="node"><title>Node6</title>
<g id="a_node6"><a xlink:href="../../d8/df7/classview_1_1_turtle_view.html#ab5fdc3775e06339f4a68d1b795a81643" target="_top" xlink:title="view.TurtleView.getID">
<polygon fill="white" stroke="black" points="597,-76.5 597,-95.5 711,-95.5 711,-76.5 597,-76.5"/>
<text text-anchor="middle" x="654" y="-83.5" font-family="Helvetica,sans-Serif" font-size="10.00">view.TurtleView.getID</text>
</a>
</g>
</g>
<!-- Node4&#45;&gt;Node6 -->
<g id="edge5" class="edge"><title>Node4&#45;&gt;Node6</title>
<path fill="none" stroke="midnightblue" d="M539.544,-88.292C555.258,-87.9746 571.468,-87.6471 586.546,-87.3425"/>
<polygon fill="midnightblue" stroke="midnightblue" points="586.855,-90.8371 596.783,-87.1357 586.714,-83.8385 586.855,-90.8371"/>
</g>
<!-- Node7 -->
<g id="node7" class="node"><title>Node7</title>
<g id="a_node7"><a xlink:href="../../d5/dea/classview_1_1_side_table_view.html#adbdf2bf0ebf7fc8ab04db2087baea03a" target="_top" xlink:title="view.SideTableView.getTable">
<polygon fill="white" stroke="black" points="580,-38.5 580,-57.5 728,-57.5 728,-38.5 580,-38.5"/>
<text text-anchor="middle" x="654" y="-45.5" font-family="Helvetica,sans-Serif" font-size="10.00">view.SideTableView.getTable</text>
</a>
</g>
</g>
<!-- Node4&#45;&gt;Node7 -->
<g id="edge6" class="edge"><title>Node4&#45;&gt;Node7</title>
<path fill="none" stroke="midnightblue" d="M499.929,-80.4695C528.94,-74.3158 566.886,-66.2667 597.738,-59.7222"/>
<polygon fill="midnightblue" stroke="midnightblue" points="598.85,-63.0643 607.906,-57.5653 597.398,-56.2166 598.85,-63.0643"/>
</g>
<!-- Node8 -->
<g id="node8" class="node"><title>Node8</title>
<g id="a_node8"><a xlink:href="../../d8/df7/classview_1_1_turtle_view.html#afddbc74313a99bb100c8c50efa88f330" target="_top" xlink:title="view.TurtleView.getYCoord">
<polygon fill="white" stroke="black" points="585.5,-0.5 585.5,-19.5 722.5,-19.5 722.5,-0.5 585.5,-0.5"/>
<text text-anchor="middle" x="654" y="-7.5" font-family="Helvetica,sans-Serif" font-size="10.00">view.TurtleView.getYCoord</text>
</a>
</g>
</g>
<!-- Node4&#45;&gt;Node8 -->
<g id="edge8" class="edge"><title>Node4&#45;&gt;Node8</title>
<path fill="none" stroke="midnightblue" d="M471.3,-80.2868C494.055,-67.0799 536.948,-43.4516 576,-29 582.747,-26.5031 589.948,-24.234 597.136,-22.2037"/>
<polygon fill="midnightblue" stroke="midnightblue" points="598.136,-25.5591 606.885,-19.5841 596.32,-18.7988 598.136,-25.5591"/>
</g>
</g>
</svg>
