<?xml version="1.0" encoding="UTF-8" standalone="no"?>
<!DOCTYPE svg PUBLIC "-//W3C//DTD SVG 1.1//EN"
 "http://www.w3.org/Graphics/SVG/1.1/DTD/svg11.dtd">
<!-- Generated by graphviz version 2.36.0 (20140111.2315)
 -->
<!-- Title: view.ViewUpdater.updateWorkspace Pages: 1 -->
<svg width="776pt" height="550pt"
 viewBox="0.00 0.00 776.00 550.00" xmlns="http://www.w3.org/2000/svg" xmlns:xlink="http://www.w3.org/1999/xlink">
<g id="graph0" class="graph" transform="scale(1 1) rotate(0) translate(4 546)">
<title>view.ViewUpdater.updateWorkspace</title>
<polygon fill="white" stroke="none" points="-4,4 -4,-546 772,-546 772,4 -4,4"/>
<!-- Node1 -->
<g id="node1" class="node"><title>Node1</title>
<polygon fill="#bfbfbf" stroke="black" points="0.5,-250.5 0.5,-269.5 187.5,-269.5 187.5,-250.5 0.5,-250.5"/>
<text text-anchor="middle" x="94" y="-257.5" font-family="Helvetica,sans-Serif" font-size="10.00">view.ViewUpdater.updateWorkspace</text>
</g>
<!-- Node2 -->
<g id="node2" class="node"><title>Node2</title>
<g id="a_node2"><a xlink:href="../../de/d0a/classview_1_1_drawer.html#a6b9f362b8bc763689630b1fe7b5c1887" target="_top" xlink:title="view.Drawer.draw">
<polygon fill="white" stroke="black" points="242,-250.5 242,-269.5 340,-269.5 340,-250.5 242,-250.5"/>
<text text-anchor="middle" x="291" y="-257.5" font-family="Helvetica,sans-Serif" font-size="10.00">view.Drawer.draw</text>
</a>
</g>
</g>
<!-- Node1&#45;&gt;Node2 -->
<g id="edge1" class="edge"><title>Node1&#45;&gt;Node2</title>
<path fill="none" stroke="midnightblue" d="M187.646,-260C202.602,-260 217.712,-260 231.561,-260"/>
<polygon fill="midnightblue" stroke="midnightblue" points="231.883,-263.5 241.883,-260 231.883,-256.5 231.883,-263.5"/>
</g>
<!-- Node17 -->
<g id="node17" class="node"><title>Node17</title>
<g id="a_node17"><a xlink:href="../../da/d64/classview_1_1_workspace.html#ad460da1164f039e5ea9a265d446d13fe" target="_top" xlink:title="view.Workspace.getTurtleMap">
<polygon fill="white" stroke="black" points="610.5,-522.5 610.5,-541.5 765.5,-541.5 765.5,-522.5 610.5,-522.5"/>
<text text-anchor="middle" x="688" y="-529.5" font-family="Helvetica,sans-Serif" font-size="10.00">view.Workspace.getTurtleMap</text>
</a>
</g>
</g>
<!-- Node1&#45;&gt;Node17 -->
<g id="edge29" class="edge"><title>Node1&#45;&gt;Node17</title>
<path fill="none" stroke="midnightblue" d="M104.754,-269.925C139.999,-305.136 265.463,-424.897 394,-480 459.759,-508.19 540.117,-521.098 600.034,-527.008"/>
<polygon fill="midnightblue" stroke="midnightblue" points="599.937,-530.515 610.221,-527.966 600.592,-523.545 599.937,-530.515"/>
</g>
<!-- Node23 -->
<g id="node23" class="node"><title>Node23</title>
<g id="a_node23"><a xlink:href="../../da/d64/classview_1_1_workspace.html#a08f0e92c7d15f9c170e406af39ec54a5" target="_top" xlink:title="view.Workspace.getLines">
<polygon fill="white" stroke="black" points="224,-212.5 224,-231.5 358,-231.5 358,-212.5 224,-212.5"/>
<text text-anchor="middle" x="291" y="-219.5" font-family="Helvetica,sans-Serif" font-size="10.00">view.Workspace.getLines</text>
</a>
</g>
</g>
<!-- Node1&#45;&gt;Node23 -->
<g id="edge28" class="edge"><title>Node1&#45;&gt;Node23</title>
<path fill="none" stroke="midnightblue" d="M143.955,-250.46C170.381,-245.31 203.194,-238.916 231.02,-233.494"/>
<polygon fill="midnightblue" stroke="midnightblue" points="231.879,-236.892 241.025,-231.544 230.54,-230.021 231.879,-236.892"/>
</g>
<!-- Node3 -->
<g id="node3" class="node"><title>Node3</title>
<g id="a_node3"><a xlink:href="../../d1/d0b/classmodel_1_1_polar.html#adbd9afb75cf519b2dd9f1331e406b8c2" target="_top" xlink:title="model.Polar.getAngle">
<polygon fill="white" stroke="black" points="423.5,-364.5 423.5,-383.5 542.5,-383.5 542.5,-364.5 423.5,-364.5"/>
<text text-anchor="middle" x="483" y="-371.5" font-family="Helvetica,sans-Serif" font-size="10.00">model.Polar.getAngle</text>
</a>
</g>
</g>
<!-- Node2&#45;&gt;Node3 -->
<g id="edge2" class="edge"><title>Node2&#45;&gt;Node3</title>
<path fill="none" stroke="midnightblue" d="M299.254,-269.591C314.502,-289.021 351.957,-333.044 394,-355 400.05,-358.16 406.598,-360.794 413.296,-362.991"/>
<polygon fill="midnightblue" stroke="midnightblue" points="412.596,-366.433 423.177,-365.906 414.576,-359.72 412.596,-366.433"/>
</g>
<!-- Node4 -->
<g id="node4" class="node"><title>Node4</title>
<g id="a_node4"><a xlink:href="../../d1/d0b/classmodel_1_1_polar.html#a8abcb5640caf12d2941533a6e1c04faa" target="_top" xlink:title="model.Polar.getDistance">
<polygon fill="white" stroke="black" points="416,-326.5 416,-345.5 550,-345.5 550,-326.5 416,-326.5"/>
<text text-anchor="middle" x="483" y="-333.5" font-family="Helvetica,sans-Serif" font-size="10.00">model.Polar.getDistance</text>
</a>
</g>
</g>
<!-- Node2&#45;&gt;Node4 -->
<g id="edge3" class="edge"><title>Node2&#45;&gt;Node4</title>
<path fill="none" stroke="midnightblue" d="M305.872,-269.525C324.914,-282.174 360.6,-304.385 394,-317 401.015,-319.649 408.491,-321.973 416.01,-324"/>
<polygon fill="midnightblue" stroke="midnightblue" points="415.33,-327.438 425.883,-326.496 417.046,-320.652 415.33,-327.438"/>
</g>
<!-- Node5 -->
<g id="node5" class="node"><title>Node5</title>
<g id="a_node5"><a xlink:href="../../d8/df7/classview_1_1_turtle_view.html#a68c8a2962e23e5794fcfbe7ef1968fad" target="_top" xlink:title="view.TurtleView.getPenUp">
<polygon fill="white" stroke="black" points="620,-291.5 620,-310.5 756,-310.5 756,-291.5 620,-291.5"/>
<text text-anchor="middle" x="688" y="-298.5" font-family="Helvetica,sans-Serif" font-size="10.00">view.TurtleView.getPenUp</text>
</a>
</g>
</g>
<!-- Node2&#45;&gt;Node5 -->
<g id="edge4" class="edge"><title>Node2&#45;&gt;Node5</title>
<path fill="none" stroke="midnightblue" d="M295.843,-269.824C306.631,-295.84 339.981,-366.352 394,-393 464.948,-427.999 504.469,-434.208 572,-393 601.863,-374.777 580.879,-345.098 608,-323 611.968,-319.767 616.38,-317.008 621.033,-314.653"/>
<polygon fill="midnightblue" stroke="midnightblue" points="622.481,-317.84 630.223,-310.607 619.661,-311.433 622.481,-317.84"/>
</g>
<!-- Node6 -->
<g id="node6" class="node"><title>Node6</title>
<g id="a_node6"><a xlink:href="../../d6/d06/classmodel_1_1_turtle_command.html#ab94da8b47588273eb8db943096f12422" target="_top" xlink:title="model.TurtleCommand.getPolar">
<polygon fill="white" stroke="black" points="399,-174.5 399,-193.5 567,-193.5 567,-174.5 399,-174.5"/>
<text text-anchor="middle" x="483" y="-181.5" font-family="Helvetica,sans-Serif" font-size="10.00">model.TurtleCommand.getPolar</text>
</a>
</g>
</g>
<!-- Node2&#45;&gt;Node6 -->
<g id="edge5" class="edge"><title>Node2&#45;&gt;Node6</title>
<path fill="none" stroke="midnightblue" d="M335.759,-250.499C343.425,-247.977 351.136,-244.849 358,-241 376.931,-230.383 374.995,-218.484 394,-208 402.336,-203.402 411.609,-199.639 420.921,-196.574"/>
<polygon fill="midnightblue" stroke="midnightblue" points="422.054,-199.888 430.6,-193.627 420.014,-193.192 422.054,-199.888"/>
</g>
<!-- Node7 -->
<g id="node7" class="node"><title>Node7</title>
<g id="a_node7"><a xlink:href="../../d6/d06/classmodel_1_1_turtle_command.html#ab30f5c95162492cb8fd19f1fd7350f9f" target="_top" xlink:title="model.TurtleCommand.getTurtleId">
<polygon fill="white" stroke="black" points="394,-136.5 394,-155.5 572,-155.5 572,-136.5 394,-136.5"/>
<text text-anchor="middle" x="483" y="-143.5" font-family="Helvetica,sans-Serif" font-size="10.00">model.TurtleCommand.getTurtleId</text>
</a>
</g>
</g>
<!-- Node2&#45;&gt;Node7 -->
<g id="edge6" class="edge"><title>Node2&#45;&gt;Node7</title>
<path fill="none" stroke="midnightblue" d="M340.252,-251.385C346.676,-248.784 352.821,-245.401 358,-241 386.481,-216.798 364.717,-188.225 394,-165 396.089,-163.343 398.291,-161.822 400.581,-160.427"/>
<polygon fill="midnightblue" stroke="midnightblue" points="402.534,-163.357 409.799,-155.647 399.311,-157.143 402.534,-163.357"/>
</g>
<!-- Node8 -->
<g id="node8" class="node"><title>Node8</title>
<g id="a_node8"><a xlink:href="../../d6/d06/classmodel_1_1_turtle_command.html#abb952ce819f91c0f5970c2f2b1c43d73" target="_top" xlink:title="model.TurtleCommand.isRelative">
<polygon fill="white" stroke="black" points="396.5,-98.5 396.5,-117.5 569.5,-117.5 569.5,-98.5 396.5,-98.5"/>
<text text-anchor="middle" x="483" y="-105.5" font-family="Helvetica,sans-Serif" font-size="10.00">model.TurtleCommand.isRelative</text>
</a>
</g>
</g>
<!-- Node2&#45;&gt;Node8 -->
<g id="edge7" class="edge"><title>Node2&#45;&gt;Node8</title>
<path fill="none" stroke="midnightblue" d="M340.149,-252.286C346.741,-249.567 352.962,-245.91 358,-241 396.048,-203.913 354.719,-162.779 394,-127 395.69,-125.461 397.474,-124.035 399.336,-122.716"/>
<polygon fill="midnightblue" stroke="midnightblue" points="401.149,-125.71 407.948,-117.584 397.566,-119.696 401.149,-125.71"/>
</g>
<!-- Node9 -->
<g id="node9" class="node"><title>Node9</title>
<g id="a_node9"><a xlink:href="../../d8/df7/classview_1_1_turtle_view.html#a5e7cf3c4f078acae07bcbeee264a5581" target="_top" xlink:title="view.TurtleView.move">
<polygon fill="white" stroke="black" points="630,-215.5 630,-234.5 746,-234.5 746,-215.5 630,-215.5"/>
<text text-anchor="middle" x="688" y="-222.5" font-family="Helvetica,sans-Serif" font-size="10.00">view.TurtleView.move</text>
</a>
</g>
</g>
<!-- Node2&#45;&gt;Node9 -->
<g id="edge8" class="edge"><title>Node2&#45;&gt;Node9</title>
<path fill="none" stroke="midnightblue" d="M336.241,-250.466C354.1,-246.956 374.953,-243.284 394,-241 471.102,-231.753 560.267,-227.845 619.793,-226.197"/>
<polygon fill="midnightblue" stroke="midnightblue" points="619.914,-229.695 629.818,-225.933 619.73,-222.698 619.914,-229.695"/>
</g>
<!-- Node10 -->
<g id="node10" class="node"><title>Node10</title>
<g id="a_node10"><a xlink:href="../../d8/df7/classview_1_1_turtle_view.html#a166c0ff50e234c0a2725aa1cbc38c933" target="_top" xlink:title="view.TurtleView.setAbsolute\lHeading">
<polygon fill="white" stroke="black" points="410,-49 410,-79 556,-79 556,-49 410,-49"/>
<text text-anchor="start" x="418" y="-67" font-family="Helvetica,sans-Serif" font-size="10.00">view.TurtleView.setAbsolute</text>
<text text-anchor="middle" x="483" y="-56" font-family="Helvetica,sans-Serif" font-size="10.00">Heading</text>
</a>
</g>
</g>
<!-- Node2&#45;&gt;Node10 -->
<g id="edge9" class="edge"><title>Node2&#45;&gt;Node10</title>
<path fill="none" stroke="midnightblue" d="M340.142,-252.748C346.815,-249.973 353.063,-246.178 358,-241 405.905,-190.752 346.007,-139.164 394,-89 396.306,-86.59 398.825,-84.4072 401.508,-82.4305"/>
<polygon fill="midnightblue" stroke="midnightblue" points="403.39,-85.3813 409.996,-77.0976 399.666,-79.4541 403.39,-85.3813"/>
</g>
<!-- Node12 -->
<g id="node12" class="node"><title>Node12</title>
<g id="a_node12"><a xlink:href="../../d8/df7/classview_1_1_turtle_view.html#a199407b3121d1bc310d7f75cdab2da94" target="_top" xlink:title="view.TurtleView.setRelative\lHeading">
<polygon fill="white" stroke="black" points="413,-0 413,-30 553,-30 553,-0 413,-0"/>
<text text-anchor="start" x="421" y="-18" font-family="Helvetica,sans-Serif" font-size="10.00">view.TurtleView.setRelative</text>
<text text-anchor="middle" x="483" y="-7" font-family="Helvetica,sans-Serif" font-size="10.00">Heading</text>
</a>
</g>
</g>
<!-- Node2&#45;&gt;Node12 -->
<g id="edge11" class="edge"><title>Node2&#45;&gt;Node12</title>
<path fill="none" stroke="midnightblue" d="M340.069,-253.127C346.835,-250.31 353.131,-246.403 358,-241 419.046,-173.255 332.479,-106.315 394,-39 396.945,-35.7781 400.275,-32.9718 403.875,-30.5289"/>
<polygon fill="midnightblue" stroke="midnightblue" points="405.772,-33.4752 412.706,-25.4639 402.29,-27.4031 405.772,-33.4752"/>
</g>
<!-- Node13 -->
<g id="node13" class="node"><title>Node13</title>
<g id="a_node13"><a xlink:href="../../d1/dc7/classview_1_1_side_bar.html#a7d73038dbba05f96990b60664afa2670" target="_top" xlink:title="view.SideBar.updateTurtle\lProperties">
<polygon fill="white" stroke="black" points="414,-441 414,-471 552,-471 552,-441 414,-441"/>
<text text-anchor="start" x="422" y="-459" font-family="Helvetica,sans-Serif" font-size="10.00">view.SideBar.updateTurtle</text>
<text text-anchor="middle" x="483" y="-448" font-family="Helvetica,sans-Serif" font-size="10.00">Properties</text>
</a>
</g>
</g>
<!-- Node2&#45;&gt;Node13 -->
<g id="edge13" class="edge"><title>Node2&#45;&gt;Node13</title>
<path fill="none" stroke="midnightblue" d="M295.321,-269.858C305.42,-298.361 338.508,-381.657 394,-426 399.048,-430.034 404.669,-433.539 410.56,-436.584"/>
<polygon fill="midnightblue" stroke="midnightblue" points="409.456,-439.931 419.997,-440.997 412.422,-433.59 409.456,-439.931"/>
</g>
<!-- Node20 -->
<g id="node20" class="node"><title>Node20</title>
<g id="a_node20"><a xlink:href="../../de/d0a/classview_1_1_drawer.html#a24eafc164d9d0ab08036dc5cf7d72dd4" target="_top" xlink:title="view.Drawer.wrapX">
<polygon fill="white" stroke="black" points="431,-250.5 431,-269.5 535,-269.5 535,-250.5 431,-250.5"/>
<text text-anchor="middle" x="483" y="-257.5" font-family="Helvetica,sans-Serif" font-size="10.00">view.Drawer.wrapX</text>
</a>
</g>
</g>
<!-- Node2&#45;&gt;Node20 -->
<g id="edge20" class="edge"><title>Node2&#45;&gt;Node20</title>
<path fill="none" stroke="midnightblue" d="M340.437,-260C364.896,-260 394.827,-260 420.856,-260"/>
<polygon fill="midnightblue" stroke="midnightblue" points="420.994,-263.5 430.994,-260 420.994,-256.5 420.994,-263.5"/>
</g>
<!-- Node22 -->
<g id="node22" class="node"><title>Node22</title>
<g id="a_node22"><a xlink:href="../../de/d0a/classview_1_1_drawer.html#ad1636376006d26ed1ca9784e13f96a2a" target="_top" xlink:title="view.Drawer.wrapY">
<polygon fill="white" stroke="black" points="431.5,-288.5 431.5,-307.5 534.5,-307.5 534.5,-288.5 431.5,-288.5"/>
<text text-anchor="middle" x="483" y="-295.5" font-family="Helvetica,sans-Serif" font-size="10.00">view.Drawer.wrapY</text>
</a>
</g>
</g>
<!-- Node2&#45;&gt;Node22 -->
<g id="edge24" class="edge"><title>Node2&#45;&gt;Node22</title>
<path fill="none" stroke="midnightblue" d="M339.945,-269.589C365.582,-274.716 397.336,-281.067 424.316,-286.463"/>
<polygon fill="midnightblue" stroke="midnightblue" points="423.908,-289.951 434.4,-288.48 425.28,-283.087 423.908,-289.951"/>
</g>
<!-- Node11 -->
<g id="node11" class="node"><title>Node11</title>
<g id="a_node11"><a xlink:href="../../d8/df7/classview_1_1_turtle_view.html#aea0727a510b53db67aa4100a6106eb5b" target="_top" xlink:title="view.TurtleView.adjustAngle">
<polygon fill="white" stroke="black" points="615.5,-30.5 615.5,-49.5 760.5,-49.5 760.5,-30.5 615.5,-30.5"/>
<text text-anchor="middle" x="688" y="-37.5" font-family="Helvetica,sans-Serif" font-size="10.00">view.TurtleView.adjustAngle</text>
</a>
</g>
</g>
<!-- Node10&#45;&gt;Node11 -->
<g id="edge10" class="edge"><title>Node10&#45;&gt;Node11</title>
<path fill="none" stroke="midnightblue" d="M556.142,-55.4709C572.091,-53.5853 589.098,-51.5746 605.394,-49.648"/>
<polygon fill="midnightblue" stroke="midnightblue" points="605.912,-53.1112 615.432,-48.4612 605.09,-46.1596 605.912,-53.1112"/>
</g>
<!-- Node12&#45;&gt;Node11 -->
<g id="edge12" class="edge"><title>Node12&#45;&gt;Node11</title>
<path fill="none" stroke="midnightblue" d="M553.01,-23.4987C569.824,-25.5695 587.969,-27.8041 605.311,-29.9398"/>
<polygon fill="midnightblue" stroke="midnightblue" points="605.06,-33.4352 615.413,-31.1838 605.915,-26.4877 605.06,-33.4352"/>
</g>
<!-- Node14 -->
<g id="node14" class="node"><title>Node14</title>
<g id="a_node14"><a xlink:href="../../d8/df7/classview_1_1_turtle_view.html#a5da3d4c9dafb77af0db0c589a72eadc8" target="_top" xlink:title="view.TurtleView.getHeading">
<polygon fill="white" stroke="black" points="616,-332.5 616,-351.5 760,-351.5 760,-332.5 616,-332.5"/>
<text text-anchor="middle" x="688" y="-339.5" font-family="Helvetica,sans-Serif" font-size="10.00">view.TurtleView.getHeading</text>
</a>
</g>
</g>
<!-- Node13&#45;&gt;Node14 -->
<g id="edge14" class="edge"><title>Node13&#45;&gt;Node14</title>
<path fill="none" stroke="midnightblue" d="M547.157,-440.903C556.085,-437 564.696,-432.112 572,-426 597.326,-404.807 581.721,-380.999 608,-361 610.368,-359.198 612.882,-357.564 615.502,-356.082"/>
<polygon fill="midnightblue" stroke="midnightblue" points="617.278,-359.112 624.76,-351.611 614.233,-352.809 617.278,-359.112"/>
</g>
<!-- Node15 -->
<g id="node15" class="node"><title>Node15</title>
<g id="a_node15"><a xlink:href="../../d8/df7/classview_1_1_turtle_view.html#ab5fdc3775e06339f4a68d1b795a81643" target="_top" xlink:title="view.TurtleView.getID">
<polygon fill="white" stroke="black" points="631,-484.5 631,-503.5 745,-503.5 745,-484.5 631,-484.5"/>
<text text-anchor="middle" x="688" y="-491.5" font-family="Helvetica,sans-Serif" font-size="10.00">view.TurtleView.getID</text>
</a>
</g>
</g>
<!-- Node13&#45;&gt;Node15 -->
<g id="edge15" class="edge"><title>Node13&#45;&gt;Node15</title>
<path fill="none" stroke="midnightblue" d="M552.161,-468.759C576.041,-473.229 602.69,-478.218 625.951,-482.572"/>
<polygon fill="midnightblue" stroke="midnightblue" points="625.561,-486.06 636.035,-484.46 626.849,-479.179 625.561,-486.06"/>
</g>
<!-- Node16 -->
<g id="node16" class="node"><title>Node16</title>
<g id="a_node16"><a xlink:href="../../d8/df7/classview_1_1_turtle_view.html#a85b9acc922cc69f27c79bf13e3356e09" target="_top" xlink:title="view.TurtleView.getPenPosition">
<polygon fill="white" stroke="black" points="608,-446.5 608,-465.5 768,-465.5 768,-446.5 608,-446.5"/>
<text text-anchor="middle" x="688" y="-453.5" font-family="Helvetica,sans-Serif" font-size="10.00">view.TurtleView.getPenPosition</text>
</a>
</g>
</g>
<!-- Node13&#45;&gt;Node16 -->
<g id="edge16" class="edge"><title>Node13&#45;&gt;Node16</title>
<path fill="none" stroke="midnightblue" d="M552.161,-456C566.667,-456 582.194,-456 597.364,-456"/>
<polygon fill="midnightblue" stroke="midnightblue" points="597.792,-459.5 607.792,-456 597.792,-452.5 597.792,-459.5"/>
</g>
<!-- Node13&#45;&gt;Node17 -->
<g id="edge17" class="edge"><title>Node13&#45;&gt;Node17</title>
<path fill="none" stroke="midnightblue" d="M512.9,-471.242C537.618,-483.798 574.418,-501.368 608,-513 615.31,-515.532 623.114,-517.851 630.865,-519.933"/>
<polygon fill="midnightblue" stroke="midnightblue" points="630.055,-523.338 640.612,-522.44 631.799,-516.559 630.055,-523.338"/>
</g>
<!-- Node18 -->
<g id="node18" class="node"><title>Node18</title>
<g id="a_node18"><a xlink:href="../../d8/df7/classview_1_1_turtle_view.html#afddbc74313a99bb100c8c50efa88f330" target="_top" xlink:title="view.TurtleView.getYCoord">
<polygon fill="white" stroke="black" points="619.5,-408.5 619.5,-427.5 756.5,-427.5 756.5,-408.5 619.5,-408.5"/>
<text text-anchor="middle" x="688" y="-415.5" font-family="Helvetica,sans-Serif" font-size="10.00">view.TurtleView.getYCoord</text>
</a>
</g>
</g>
<!-- Node13&#45;&gt;Node18 -->
<g id="edge18" class="edge"><title>Node13&#45;&gt;Node18</title>
<path fill="none" stroke="midnightblue" d="M552.161,-443.241C576.041,-438.771 602.69,-433.782 625.951,-429.428"/>
<polygon fill="midnightblue" stroke="midnightblue" points="626.849,-432.821 636.035,-427.54 625.561,-425.94 626.849,-432.821"/>
</g>
<!-- Node19 -->
<g id="node19" class="node"><title>Node19</title>
<g id="a_node19"><a xlink:href="../../d8/df7/classview_1_1_turtle_view.html#a5f7b22cd8ab69258535b18920a488b63" target="_top" xlink:title="view.TurtleView.isShowing">
<polygon fill="white" stroke="black" points="620,-370.5 620,-389.5 756,-389.5 756,-370.5 620,-370.5"/>
<text text-anchor="middle" x="688" y="-377.5" font-family="Helvetica,sans-Serif" font-size="10.00">view.TurtleView.isShowing</text>
</a>
</g>
</g>
<!-- Node13&#45;&gt;Node19 -->
<g id="edge19" class="edge"><title>Node13&#45;&gt;Node19</title>
<path fill="none" stroke="midnightblue" d="M537.25,-440.861C548.991,-436.702 561.153,-431.73 572,-426 589.684,-416.658 589.903,-407.514 608,-399 613.233,-396.538 618.817,-394.377 624.504,-392.484"/>
<polygon fill="midnightblue" stroke="midnightblue" points="625.587,-395.813 634.129,-389.545 623.543,-389.118 625.587,-395.813"/>
</g>
<!-- Node20&#45;&gt;Node5 -->
<g id="edge22" class="edge"><title>Node20&#45;&gt;Node5</title>
<path fill="none" stroke="midnightblue" d="M531.083,-269.509C560.569,-275.465 598.755,-283.177 629.957,-289.479"/>
<polygon fill="midnightblue" stroke="midnightblue" points="629.327,-292.922 639.822,-291.471 630.712,-286.061 629.327,-292.922"/>
</g>
<!-- Node20&#45;&gt;Node9 -->
<g id="edge23" class="edge"><title>Node20&#45;&gt;Node9</title>
<path fill="none" stroke="midnightblue" d="M535.225,-251.168C561.482,-246.641 593.744,-241.079 621.762,-236.248"/>
<polygon fill="midnightblue" stroke="midnightblue" points="622.613,-239.653 631.873,-234.505 621.424,-232.755 622.613,-239.653"/>
</g>
<!-- Node21 -->
<g id="node21" class="node"><title>Node21</title>
<g id="a_node21"><a xlink:href="../../de/d0a/classview_1_1_drawer.html#a1489f58b0b2c2012d23d546013a47972" target="_top" xlink:title="view.Drawer.drawLine">
<polygon fill="white" stroke="black" points="629.5,-253.5 629.5,-272.5 746.5,-272.5 746.5,-253.5 629.5,-253.5"/>
<text text-anchor="middle" x="688" y="-260.5" font-family="Helvetica,sans-Serif" font-size="10.00">view.Drawer.drawLine</text>
</a>
</g>
</g>
<!-- Node20&#45;&gt;Node21 -->
<g id="edge21" class="edge"><title>Node20&#45;&gt;Node21</title>
<path fill="none" stroke="midnightblue" d="M535.225,-260.757C560.638,-261.133 591.676,-261.591 619.046,-261.996"/>
<polygon fill="midnightblue" stroke="midnightblue" points="619.287,-265.5 629.337,-262.148 619.39,-258.5 619.287,-265.5"/>
</g>
<!-- Node22&#45;&gt;Node5 -->
<g id="edge26" class="edge"><title>Node22&#45;&gt;Node5</title>
<path fill="none" stroke="midnightblue" d="M534.702,-298.749C557.306,-299.083 584.439,-299.484 609.501,-299.855"/>
<polygon fill="midnightblue" stroke="midnightblue" points="609.674,-303.358 619.724,-300.006 609.777,-296.358 609.674,-303.358"/>
</g>
<!-- Node22&#45;&gt;Node9 -->
<g id="edge27" class="edge"><title>Node22&#45;&gt;Node9</title>
<path fill="none" stroke="midnightblue" d="M534.582,-292.092C547.296,-289.28 560.566,-285.128 572,-279 591.669,-268.459 588.456,-254.77 608,-244 612.181,-241.696 616.638,-239.669 621.223,-237.886"/>
<polygon fill="midnightblue" stroke="midnightblue" points="622.48,-241.155 630.771,-234.559 620.176,-234.544 622.48,-241.155"/>
</g>
<!-- Node22&#45;&gt;Node21 -->
<g id="edge25" class="edge"><title>Node22&#45;&gt;Node21</title>
<path fill="none" stroke="midnightblue" d="M534.702,-289.258C560.954,-284.732 593.315,-279.153 621.446,-274.302"/>
<polygon fill="midnightblue" stroke="midnightblue" points="622.34,-277.7 631.6,-272.552 621.15,-270.802 622.34,-277.7"/>
</g>
</g>
</svg>
