<?xml version="1.0" encoding="UTF-8" standalone="no"?>
<!DOCTYPE svg PUBLIC "-//W3C//DTD SVG 1.1//EN"
 "http://www.w3.org/Graphics/SVG/1.1/DTD/svg11.dtd">
<!-- Generated by graphviz version 2.36.0 (20140111.2315)
 -->
<!-- Title: view.ViewUpdater.showTurtle Pages: 1 -->
<svg width="530pt" height="218pt"
 viewBox="0.00 0.00 530.00 218.00" xmlns="http://www.w3.org/2000/svg" xmlns:xlink="http://www.w3.org/1999/xlink">
<g id="graph0" class="graph" transform="scale(1 1) rotate(0) translate(4 214)">
<title>view.ViewUpdater.showTurtle</title>
<polygon fill="white" stroke="none" points="-4,4 -4,-214 526,-214 526,4 -4,4"/>
<!-- Node1 -->
<g id="node1" class="node"><title>Node1</title>
<polygon fill="#bfbfbf" stroke="black" points="0,-144.5 0,-163.5 152,-163.5 152,-144.5 0,-144.5"/>
<text text-anchor="middle" x="76" y="-151.5" font-family="Helvetica,sans-Serif" font-size="10.00">view.ViewUpdater.showTurtle</text>
</g>
<!-- Node2 -->
<g id="node2" class="node"><title>Node2</title>
<g id="a_node2"><a xlink:href="../../da/d64/classview_1_1_workspace.html#ad460da1164f039e5ea9a265d446d13fe" target="_top" xlink:title="view.Workspace.getTurtleMap">
<polygon fill="white" stroke="black" points="364.5,-190.5 364.5,-209.5 519.5,-209.5 519.5,-190.5 364.5,-190.5"/>
<text text-anchor="middle" x="442" y="-197.5" font-family="Helvetica,sans-Serif" font-size="10.00">view.Workspace.getTurtleMap</text>
</a>
</g>
</g>
<!-- Node1&#45;&gt;Node2 -->
<g id="edge1" class="edge"><title>Node1&#45;&gt;Node2</title>
<path fill="none" stroke="midnightblue" d="M152.421,-163.531C211.598,-171.01 293.986,-181.421 355.588,-189.206"/>
<polygon fill="midnightblue" stroke="midnightblue" points="355.316,-192.7 365.676,-190.481 356.193,-185.755 355.316,-192.7"/>
</g>
<!-- Node3 -->
<g id="node3" class="node"><title>Node3</title>
<g id="a_node3"><a xlink:href="../../d1/dc7/classview_1_1_side_bar.html#a7d73038dbba05f96990b60664afa2670" target="_top" xlink:title="view.SideBar.updateTurtle\lProperties">
<polygon fill="white" stroke="black" points="188,-109 188,-139 326,-139 326,-109 188,-109"/>
<text text-anchor="start" x="196" y="-127" font-family="Helvetica,sans-Serif" font-size="10.00">view.SideBar.updateTurtle</text>
<text text-anchor="middle" x="257" y="-116" font-family="Helvetica,sans-Serif" font-size="10.00">Properties</text>
</a>
</g>
</g>
<!-- Node1&#45;&gt;Node3 -->
<g id="edge2" class="edge"><title>Node1&#45;&gt;Node3</title>
<path fill="none" stroke="midnightblue" d="M134.129,-144.425C148.012,-142.099 163.096,-139.571 177.769,-137.111"/>
<polygon fill="midnightblue" stroke="midnightblue" points="178.558,-140.528 187.842,-135.423 177.401,-133.624 178.558,-140.528"/>
</g>
<!-- Node3&#45;&gt;Node2 -->
<g id="edge6" class="edge"><title>Node3&#45;&gt;Node2</title>
<path fill="none" stroke="midnightblue" d="M281.499,-139.246C302.027,-151.977 332.999,-169.795 362,-181 368.454,-183.493 375.334,-185.729 382.241,-187.714"/>
<polygon fill="midnightblue" stroke="midnightblue" points="381.766,-191.211 392.333,-190.443 383.594,-184.454 381.766,-191.211"/>
</g>
<!-- Node4 -->
<g id="node4" class="node"><title>Node4</title>
<g id="a_node4"><a xlink:href="../../d8/df7/classview_1_1_turtle_view.html#a5da3d4c9dafb77af0db0c589a72eadc8" target="_top" xlink:title="view.TurtleView.getHeading">
<polygon fill="white" stroke="black" points="370,-152.5 370,-171.5 514,-171.5 514,-152.5 370,-152.5"/>
<text text-anchor="middle" x="442" y="-159.5" font-family="Helvetica,sans-Serif" font-size="10.00">view.TurtleView.getHeading</text>
</a>
</g>
</g>
<!-- Node3&#45;&gt;Node4 -->
<g id="edge3" class="edge"><title>Node3&#45;&gt;Node4</title>
<path fill="none" stroke="midnightblue" d="M326.142,-138.15C345.61,-142.192 366.589,-146.549 385.223,-150.418"/>
<polygon fill="midnightblue" stroke="midnightblue" points="384.518,-153.846 395.021,-152.452 385.941,-146.992 384.518,-153.846"/>
</g>
<!-- Node5 -->
<g id="node5" class="node"><title>Node5</title>
<g id="a_node5"><a xlink:href="../../d8/df7/classview_1_1_turtle_view.html#ab5fdc3775e06339f4a68d1b795a81643" target="_top" xlink:title="view.TurtleView.getID">
<polygon fill="white" stroke="black" points="385,-114.5 385,-133.5 499,-133.5 499,-114.5 385,-114.5"/>
<text text-anchor="middle" x="442" y="-121.5" font-family="Helvetica,sans-Serif" font-size="10.00">view.TurtleView.getID</text>
</a>
</g>
</g>
<!-- Node3&#45;&gt;Node5 -->
<g id="edge4" class="edge"><title>Node3&#45;&gt;Node5</title>
<path fill="none" stroke="midnightblue" d="M326.142,-124C341.981,-124 358.82,-124 374.583,-124"/>
<polygon fill="midnightblue" stroke="midnightblue" points="374.765,-127.5 384.765,-124 374.765,-120.5 374.765,-127.5"/>
</g>
<!-- Node6 -->
<g id="node6" class="node"><title>Node6</title>
<g id="a_node6"><a xlink:href="../../d8/df7/classview_1_1_turtle_view.html#a85b9acc922cc69f27c79bf13e3356e09" target="_top" xlink:title="view.TurtleView.getPenPosition">
<polygon fill="white" stroke="black" points="362,-76.5 362,-95.5 522,-95.5 522,-76.5 362,-76.5"/>
<text text-anchor="middle" x="442" y="-83.5" font-family="Helvetica,sans-Serif" font-size="10.00">view.TurtleView.getPenPosition</text>
</a>
</g>
</g>
<!-- Node3&#45;&gt;Node6 -->
<g id="edge5" class="edge"><title>Node3&#45;&gt;Node6</title>
<path fill="none" stroke="midnightblue" d="M326.142,-109.85C345.61,-105.808 366.589,-101.451 385.223,-97.5821"/>
<polygon fill="midnightblue" stroke="midnightblue" points="385.941,-101.008 395.021,-95.5476 384.518,-94.1539 385.941,-101.008"/>
</g>
<!-- Node7 -->
<g id="node7" class="node"><title>Node7</title>
<g id="a_node7"><a xlink:href="../../d8/df7/classview_1_1_turtle_view.html#afddbc74313a99bb100c8c50efa88f330" target="_top" xlink:title="view.TurtleView.getYCoord">
<polygon fill="white" stroke="black" points="373.5,-38.5 373.5,-57.5 510.5,-57.5 510.5,-38.5 373.5,-38.5"/>
<text text-anchor="middle" x="442" y="-45.5" font-family="Helvetica,sans-Serif" font-size="10.00">view.TurtleView.getYCoord</text>
</a>
</g>
</g>
<!-- Node3&#45;&gt;Node7 -->
<g id="edge7" class="edge"><title>Node3&#45;&gt;Node7</title>
<path fill="none" stroke="midnightblue" d="M281.499,-108.754C302.027,-96.0227 332.999,-78.2049 362,-67 368.454,-64.5065 375.334,-62.271 382.241,-60.2863"/>
<polygon fill="midnightblue" stroke="midnightblue" points="383.594,-63.5463 392.333,-57.5568 381.766,-56.7891 383.594,-63.5463"/>
</g>
<!-- Node8 -->
<g id="node8" class="node"><title>Node8</title>
<g id="a_node8"><a xlink:href="../../d8/df7/classview_1_1_turtle_view.html#a5f7b22cd8ab69258535b18920a488b63" target="_top" xlink:title="view.TurtleView.isShowing">
<polygon fill="white" stroke="black" points="374,-0.5 374,-19.5 510,-19.5 510,-0.5 374,-0.5"/>
<text text-anchor="middle" x="442" y="-7.5" font-family="Helvetica,sans-Serif" font-size="10.00">view.TurtleView.isShowing</text>
</a>
</g>
</g>
<!-- Node3&#45;&gt;Node8 -->
<g id="edge8" class="edge"><title>Node3&#45;&gt;Node8</title>
<path fill="none" stroke="midnightblue" d="M270.073,-108.958C287.896,-87.7951 323.338,-49.5281 362,-29 366.479,-26.6216 371.259,-24.5365 376.166,-22.7092"/>
<polygon fill="midnightblue" stroke="midnightblue" points="377.347,-26.0045 385.713,-19.5037 375.119,-19.3685 377.347,-26.0045"/>
</g>
</g>
</svg>
