<?xml version="1.0" encoding="UTF-8" standalone="no"?>
<!DOCTYPE svg PUBLIC "-//W3C//DTD SVG 1.1//EN"
 "http://www.w3.org/Graphics/SVG/1.1/DTD/svg11.dtd">
<!-- Generated by graphviz version 2.36.0 (20140111.2315)
 -->
<!-- Title: view.ViewUpdater.showTurtle Pages: 1 -->
<svg width="734pt" height="180pt"
 viewBox="0.00 0.00 734.00 180.00" xmlns="http://www.w3.org/2000/svg" xmlns:xlink="http://www.w3.org/1999/xlink">
<g id="graph0" class="graph" transform="scale(1 1) rotate(0) translate(4 176)">
<title>view.ViewUpdater.showTurtle</title>
<polygon fill="white" stroke="none" points="-4,4 -4,-176 730,-176 730,4 -4,4"/>
<!-- Node1 -->
<g id="node1" class="node"><title>Node1</title>
<polygon fill="#bfbfbf" stroke="black" points="0,-122.5 0,-141.5 152,-141.5 152,-122.5 0,-122.5"/>
<text text-anchor="middle" x="76" y="-129.5" font-family="Helvetica,sans-Serif" font-size="10.00">view.ViewUpdater.showTurtle</text>
</g>
<!-- Node2 -->
<g id="node2" class="node"><title>Node2</title>
<g id="a_node2"><a xlink:href="../../da/d64/classview_1_1_workspace.html#ad460da1164f039e5ea9a265d446d13fe" target="_top" xlink:title="view.Workspace.getTurtleMap">
<polygon fill="white" stroke="black" points="570.5,-152.5 570.5,-171.5 725.5,-171.5 725.5,-152.5 570.5,-152.5"/>
<text text-anchor="middle" x="648" y="-159.5" font-family="Helvetica,sans-Serif" font-size="10.00">view.Workspace.getTurtleMap</text>
</a>
</g>
</g>
<!-- Node1&#45;&gt;Node2 -->
<g id="edge1" class="edge"><title>Node1&#45;&gt;Node2</title>
<path fill="none" stroke="midnightblue" d="M152.104,-135.953C257.492,-141.5 448.805,-151.569 560.172,-157.43"/>
<polygon fill="midnightblue" stroke="midnightblue" points="560.194,-160.936 570.364,-157.967 560.562,-153.946 560.194,-160.936"/>
</g>
<!-- Node3 -->
<g id="node3" class="node"><title>Node3</title>
<g id="a_node3"><a xlink:href="../../d1/dc7/classview_1_1_side_bar.html#a7d73038dbba05f96990b60664afa2670" target="_top" xlink:title="view.SideBar.updateTurtle\lProperties">
<polygon fill="white" stroke="black" points="188,-91 188,-121 326,-121 326,-91 188,-91"/>
<text text-anchor="start" x="196" y="-109" font-family="Helvetica,sans-Serif" font-size="10.00">view.SideBar.updateTurtle</text>
<text text-anchor="middle" x="257" y="-98" font-family="Helvetica,sans-Serif" font-size="10.00">Properties</text>
</a>
</g>
</g>
<!-- Node1&#45;&gt;Node3 -->
<g id="edge2" class="edge"><title>Node1&#45;&gt;Node3</title>
<path fill="none" stroke="midnightblue" d="M142.637,-122.466C154.058,-120.807 166.039,-119.067 177.758,-117.365"/>
<polygon fill="midnightblue" stroke="midnightblue" points="178.576,-120.783 187.969,-115.882 177.57,-113.855 178.576,-120.783"/>
</g>
<!-- Node4 -->
<g id="node4" class="node"><title>Node4</title>
<g id="a_node4"><a xlink:href="../../d9/d3a/classview_1_1_turtle_properties_view.html#af07bce3cf2bed2814a0fb3812d00b69e" target="_top" xlink:title="view.TurtlePropertiesView.update">
<polygon fill="white" stroke="black" points="362.5,-80.5 362.5,-99.5 533.5,-99.5 533.5,-80.5 362.5,-80.5"/>
<text text-anchor="middle" x="448" y="-87.5" font-family="Helvetica,sans-Serif" font-size="10.00">view.TurtlePropertiesView.update</text>
</a>
</g>
</g>
<!-- Node3&#45;&gt;Node4 -->
<g id="edge3" class="edge"><title>Node3&#45;&gt;Node4</title>
<path fill="none" stroke="midnightblue" d="M326.233,-100.224C334.669,-99.5095 343.408,-98.7697 352.151,-98.0295"/>
<polygon fill="midnightblue" stroke="midnightblue" points="352.73,-101.493 362.399,-97.162 352.139,-94.5181 352.73,-101.493"/>
</g>
<!-- Node4&#45;&gt;Node2 -->
<g id="edge7" class="edge"><title>Node4&#45;&gt;Node2</title>
<path fill="none" stroke="midnightblue" d="M468.293,-99.6806C491.838,-111.205 533.083,-130.463 570,-143 577.334,-145.491 585.162,-147.804 592.914,-149.898"/>
<polygon fill="midnightblue" stroke="midnightblue" points="592.09,-153.3 602.649,-152.429 593.851,-146.525 592.09,-153.3"/>
</g>
<!-- Node5 -->
<g id="node5" class="node"><title>Node5</title>
<g id="a_node5"><a xlink:href="../../d8/df7/classview_1_1_turtle_view.html#a5da3d4c9dafb77af0db0c589a72eadc8" target="_top" xlink:title="view.TurtleView.getHeading">
<polygon fill="white" stroke="black" points="576,-114.5 576,-133.5 720,-133.5 720,-114.5 576,-114.5"/>
<text text-anchor="middle" x="648" y="-121.5" font-family="Helvetica,sans-Serif" font-size="10.00">view.TurtleView.getHeading</text>
</a>
</g>
</g>
<!-- Node4&#45;&gt;Node5 -->
<g id="edge4" class="edge"><title>Node4&#45;&gt;Node5</title>
<path fill="none" stroke="midnightblue" d="M504.417,-99.5161C528.349,-103.626 556.525,-108.464 581.483,-112.75"/>
<polygon fill="midnightblue" stroke="midnightblue" points="581.148,-116.243 591.596,-114.486 582.333,-109.344 581.148,-116.243"/>
</g>
<!-- Node6 -->
<g id="node6" class="node"><title>Node6</title>
<g id="a_node6"><a xlink:href="../../d8/df7/classview_1_1_turtle_view.html#ab5fdc3775e06339f4a68d1b795a81643" target="_top" xlink:title="view.TurtleView.getID">
<polygon fill="white" stroke="black" points="591,-76.5 591,-95.5 705,-95.5 705,-76.5 591,-76.5"/>
<text text-anchor="middle" x="648" y="-83.5" font-family="Helvetica,sans-Serif" font-size="10.00">view.TurtleView.getID</text>
</a>
</g>
</g>
<!-- Node4&#45;&gt;Node6 -->
<g id="edge5" class="edge"><title>Node4&#45;&gt;Node6</title>
<path fill="none" stroke="midnightblue" d="M533.544,-88.292C549.258,-87.9746 565.468,-87.6471 580.546,-87.3425"/>
<polygon fill="midnightblue" stroke="midnightblue" points="580.855,-90.8371 590.783,-87.1357 580.714,-83.8385 580.855,-90.8371"/>
</g>
<!-- Node7 -->
<g id="node7" class="node"><title>Node7</title>
<g id="a_node7"><a xlink:href="../../d5/dea/classview_1_1_side_table_view.html#adbdf2bf0ebf7fc8ab04db2087baea03a" target="_top" xlink:title="view.SideTableView.getTable">
<polygon fill="white" stroke="black" points="574,-38.5 574,-57.5 722,-57.5 722,-38.5 574,-38.5"/>
<text text-anchor="middle" x="648" y="-45.5" font-family="Helvetica,sans-Serif" font-size="10.00">view.SideTableView.getTable</text>
</a>
</g>
</g>
<!-- Node4&#45;&gt;Node7 -->
<g id="edge6" class="edge"><title>Node4&#45;&gt;Node7</title>
<path fill="none" stroke="midnightblue" d="M493.929,-80.4695C522.94,-74.3158 560.886,-66.2667 591.738,-59.7222"/>
<polygon fill="midnightblue" stroke="midnightblue" points="592.85,-63.0643 601.906,-57.5653 591.398,-56.2166 592.85,-63.0643"/>
</g>
<!-- Node8 -->
<g id="node8" class="node"><title>Node8</title>
<g id="a_node8"><a xlink:href="../../d8/df7/classview_1_1_turtle_view.html#afddbc74313a99bb100c8c50efa88f330" target="_top" xlink:title="view.TurtleView.getYCoord">
<polygon fill="white" stroke="black" points="579.5,-0.5 579.5,-19.5 716.5,-19.5 716.5,-0.5 579.5,-0.5"/>
<text text-anchor="middle" x="648" y="-7.5" font-family="Helvetica,sans-Serif" font-size="10.00">view.TurtleView.getYCoord</text>
</a>
</g>
</g>
<!-- Node4&#45;&gt;Node8 -->
<g id="edge8" class="edge"><title>Node4&#45;&gt;Node8</title>
<path fill="none" stroke="midnightblue" d="M465.3,-80.2868C488.055,-67.0799 530.948,-43.4516 570,-29 576.747,-26.5031 583.948,-24.234 591.136,-22.2037"/>
<polygon fill="midnightblue" stroke="midnightblue" points="592.136,-25.5591 600.885,-19.5841 590.32,-18.7988 592.136,-25.5591"/>
</g>
</g>
</svg>
