<?xml version="1.0" encoding="UTF-8" standalone="no"?>
<!DOCTYPE svg PUBLIC "-//W3C//DTD SVG 1.1//EN"
 "http://www.w3.org/Graphics/SVG/1.1/DTD/svg11.dtd">
<!-- Generated by graphviz version 2.36.0 (20140111.2315)
 -->
<!-- Title: view.ViewUpdater.clearStamps Pages: 1 -->
<svg width="364pt" height="66pt"
 viewBox="0.00 0.00 364.00 66.00" xmlns="http://www.w3.org/2000/svg" xmlns:xlink="http://www.w3.org/1999/xlink">
<g id="graph0" class="graph" transform="scale(1 1) rotate(0) translate(4 62)">
<title>view.ViewUpdater.clearStamps</title>
<polygon fill="white" stroke="none" points="-4,4 -4,-62 360,-62 360,4 -4,4"/>
<!-- Node1 -->
<g id="node1" class="node"><title>Node1</title>
<polygon fill="#bfbfbf" stroke="black" points="0.5,-19.5 0.5,-38.5 163.5,-38.5 163.5,-19.5 0.5,-19.5"/>
<text text-anchor="middle" x="82" y="-26.5" font-family="Helvetica,sans-Serif" font-size="10.00">view.ViewUpdater.clearStamps</text>
</g>
<!-- Node2 -->
<g id="node2" class="node"><title>Node2</title>
<g id="a_node2"><a xlink:href="../../d8/df7/classview_1_1_turtle_view.html#aece45eec820c533ef48ccdf9a5515d7a" target="_top" xlink:title="view.TurtleView.clearStamps">
<polygon fill="white" stroke="black" points="203.5,-38.5 203.5,-57.5 352.5,-57.5 352.5,-38.5 203.5,-38.5"/>
<text text-anchor="middle" x="278" y="-45.5" font-family="Helvetica,sans-Serif" font-size="10.00">view.TurtleView.clearStamps</text>
</a>
</g>
</g>
<!-- Node1&#45;&gt;Node2 -->
<g id="edge1" class="edge"><title>Node1&#45;&gt;Node2</title>
<path fill="none" stroke="midnightblue" d="M163.588,-36.8926C173.401,-37.8537 183.444,-38.8373 193.301,-39.8026"/>
<polygon fill="midnightblue" stroke="midnightblue" points="193.194,-43.3088 203.487,-40.8003 193.876,-36.3422 193.194,-43.3088"/>
</g>
<!-- Node3 -->
<g id="node3" class="node"><title>Node3</title>
<g id="a_node3"><a xlink:href="../../da/d64/classview_1_1_workspace.html#ad460da1164f039e5ea9a265d446d13fe" target="_top" xlink:title="view.Workspace.getTurtleMap">
<polygon fill="white" stroke="black" points="200.5,-0.5 200.5,-19.5 355.5,-19.5 355.5,-0.5 200.5,-0.5"/>
<text text-anchor="middle" x="278" y="-7.5" font-family="Helvetica,sans-Serif" font-size="10.00">view.Workspace.getTurtleMap</text>
</a>
</g>
</g>
<!-- Node1&#45;&gt;Node3 -->
<g id="edge2" class="edge"><title>Node1&#45;&gt;Node3</title>
<path fill="none" stroke="midnightblue" d="M163.588,-21.1074C172.438,-20.2406 181.475,-19.3555 190.394,-18.482"/>
<polygon fill="midnightblue" stroke="midnightblue" points="190.786,-21.9605 200.397,-17.5024 190.103,-14.9939 190.786,-21.9605"/>
</g>
</g>
</svg>
