<?xml version="1.0" encoding="UTF-8" standalone="no"?>
<!DOCTYPE svg PUBLIC "-//W3C//DTD SVG 1.1//EN"
 "http://www.w3.org/Graphics/SVG/1.1/DTD/svg11.dtd">
<!-- Generated by graphviz version 2.36.0 (20140111.2315)
 -->
<!-- Title: view.ViewUpdater.update Pages: 1 -->
<!--zoomable 233 -->
<svg id="main" version="1.1" xmlns="http://www.w3.org/2000/svg" xmlns:xlink="http://www.w3.org/1999/xlink" xml:space="preserve" onload="init(evt)">
<style type="text/css"><![CDATA[
.edge:hover path { stroke: red; }
.edge:hover polygon { stroke: red; fill: red; }
]]></style>
<script type="text/javascript"><![CDATA[
var edges = document.getElementsByTagName('g');
if (edges && edges.length) {
  for (var i=0;i<edges.length;i++) {
    if (edges[i].id.substr(0,4)=='edge') {
      edges[i].setAttribute('class','edge');
    }
  }
}
]]></script>
        <defs>
                <circle id="rim" cx="0" cy="0" r="7"/>
                <circle id="rim2" cx="0" cy="0" r="3.5"/>
                <g id="zoomPlus">
                        <use xlink:href="#rim" fill="#404040">
                                <set attributeName="fill" to="#808080" begin="zoomplus.mouseover" end="zoomplus.mouseout"/>
                        </use>
                        <path d="M-4,0h8M0,-4v8" fill="none" stroke="white" stroke-width="1.5" pointer-events="none"/>
                </g>
                <g id="zoomMin">
                        <use xlink:href="#rim" fill="#404040">
                                <set attributeName="fill" to="#808080" begin="zoomminus.mouseover" end="zoomminus.mouseout"/>
                        </use>
                        <path d="M-4,0h8" fill="none" stroke="white" stroke-width="1.5" pointer-events="none"/>
                </g>
                <g id="dirArrow">
                        <path fill="none" stroke="white" stroke-width="1.5" d="M0,-3.0v7 M-2.5,-0.5L0,-3.0L2.5,-0.5"/>
                </g>
               <g id="resetDef">
                       <use xlink:href="#rim2" fill="#404040">
                               <set attributeName="fill" to="#808080" begin="reset.mouseover" end="reset.mouseout"/>
                       </use>
               </g>
        </defs>

<script type="text/javascript">
var viewWidth = 566;
var viewHeight = 233;
var sectionId = 'dynsection-38';
</script>
<script xlink:href="../../svgpan.js"/>
<svg id="graph" class="graph">
<g id="viewport">
<title>view.ViewUpdater.update</title>
<polygon fill="white" stroke="none" points="-4,4 -4,-229 562,-229 562,4 -4,4"/>
<!-- Node1 -->
<g id="node1" class="node"><title>Node1</title>
<polygon fill="#bfbfbf" stroke="black" points="0,-107.5 0,-126.5 136,-126.5 136,-107.5 0,-107.5"/>
<text text-anchor="middle" x="68" y="-114.5" font-family="Helvetica,sans-Serif" font-size="10.00">view.ViewUpdater.update</text>
</g>
<!-- Node2 -->
<g id="node2" class="node"><title>Node2</title>
<g id="a_node2"><a xlink:href="../../d1/dca/classmodel_1_1_execution_environment.html#a7eac9bbab890abbeb7db1a095fca5fc8" target="_top" xlink:title="model.ExecutionEnvironment.get\lUserCommandMap">
<polygon fill="white" stroke="black" points="177,-195 177,-225 353,-225 353,-195 177,-195"/>
<text text-anchor="start" x="185" y="-213" font-family="Helvetica,sans-Serif" font-size="10.00">model.ExecutionEnvironment.get</text>
<text text-anchor="middle" x="265" y="-202" font-family="Helvetica,sans-Serif" font-size="10.00">UserCommandMap</text>
</a>
</g>
</g>
<!-- Node1&#45;&gt;Node2 -->
<g id="edge1" class="edge"><title>Node1&#45;&gt;Node2</title>
<path fill="none" stroke="midnightblue" d="M80.9352,-126.735C99.3951,-141.346 136.462,-168.941 172,-185 177.314,-187.401 182.909,-189.616 188.605,-191.648"/>
<polygon fill="midnightblue" stroke="midnightblue" points="187.663,-195.024 198.257,-194.899 189.897,-188.39 187.663,-195.024"/>
</g>
<!-- Node3 -->
<g id="node3" class="node"><title>Node3</title>
<g id="a_node3"><a xlink:href="../../d1/dca/classmodel_1_1_execution_environment.html#a609066792c4820c151299cb96de01c24" target="_top" xlink:title="model.ExecutionEnvironment.get\lVariableMap">
<polygon fill="white" stroke="black" points="177,-146 177,-176 353,-176 353,-146 177,-146"/>
<text text-anchor="start" x="185" y="-164" font-family="Helvetica,sans-Serif" font-size="10.00">model.ExecutionEnvironment.get</text>
<text text-anchor="middle" x="265" y="-153" font-family="Helvetica,sans-Serif" font-size="10.00">VariableMap</text>
</a>
</g>
</g>
<!-- Node1&#45;&gt;Node3 -->
<g id="edge2" class="edge"><title>Node1&#45;&gt;Node3</title>
<path fill="none" stroke="midnightblue" d="M111.312,-126.547C133.561,-131.568 161.526,-137.878 187.425,-143.721"/>
<polygon fill="midnightblue" stroke="midnightblue" points="186.708,-147.148 197.233,-145.935 188.249,-140.319 186.708,-147.148"/>
</g>
<!-- Node4 -->
<g id="node4" class="node"><title>Node4</title>
<g id="a_node4"><a xlink:href="../../d4/d64/classview_1_1_view_updater.html#af96f8276592f10c4abcd04246bb7e8fd" target="_top" xlink:title="view.ViewUpdater.updateCommand">
<polygon fill="white" stroke="black" points="172,-107.5 172,-126.5 358,-126.5 358,-107.5 172,-107.5"/>
<text text-anchor="middle" x="265" y="-114.5" font-family="Helvetica,sans-Serif" font-size="10.00">view.ViewUpdater.updateCommand</text>
</a>
</g>
</g>
<!-- Node1&#45;&gt;Node4 -->
<g id="edge3" class="edge"><title>Node1&#45;&gt;Node4</title>
<path fill="none" stroke="midnightblue" d="M136.108,-117C144.422,-117 153.064,-117 161.757,-117"/>
<polygon fill="midnightblue" stroke="midnightblue" points="161.967,-120.5 171.967,-117 161.967,-113.5 161.967,-120.5"/>
</g>
<!-- Node6 -->
<g id="node6" class="node"><title>Node6</title>
<g id="a_node6"><a xlink:href="../../d1/dc7/classview_1_1_side_bar.html#ac38f82259f9d70aedeefef0a42e1afd5" target="_top" xlink:title="view.SideBar.updateExecution\lEnvironment">
<polygon fill="white" stroke="black" points="185.5,-58 185.5,-88 344.5,-88 344.5,-58 185.5,-58"/>
<text text-anchor="start" x="193.5" y="-76" font-family="Helvetica,sans-Serif" font-size="10.00">view.SideBar.updateExecution</text>
<text text-anchor="middle" x="265" y="-65" font-family="Helvetica,sans-Serif" font-size="10.00">Environment</text>
</a>
</g>
</g>
<!-- Node1&#45;&gt;Node6 -->
<g id="edge5" class="edge"><title>Node1&#45;&gt;Node6</title>
<path fill="none" stroke="midnightblue" d="M111.312,-107.453C133.561,-102.432 161.526,-96.1223 187.425,-90.2785"/>
<polygon fill="midnightblue" stroke="midnightblue" points="188.249,-93.6807 197.233,-88.0654 186.708,-86.8523 188.249,-93.6807"/>
</g>
<!-- Node7 -->
<g id="node7" class="node"><title>Node7</title>
<g id="a_node7"><a xlink:href="../../d1/dc7/classview_1_1_side_bar.html#a9ee7c3d1f9e3f461361703420eb09b26" target="_top" xlink:title="view.SideBar.updateVariable">
<polygon fill="white" stroke="black" points="189.5,-19.5 189.5,-38.5 340.5,-38.5 340.5,-19.5 189.5,-19.5"/>
<text text-anchor="middle" x="265" y="-26.5" font-family="Helvetica,sans-Serif" font-size="10.00">view.SideBar.updateVariable</text>
</a>
</g>
</g>
<!-- Node1&#45;&gt;Node7 -->
<g id="edge6" class="edge"><title>Node1&#45;&gt;Node7</title>
<path fill="none" stroke="midnightblue" d="M80.1921,-107.329C98.2453,-92.2579 135.476,-63.3109 172,-48 178.165,-45.4158 184.713,-43.1721 191.365,-41.226"/>
<polygon fill="midnightblue" stroke="midnightblue" points="192.41,-44.5692 201.152,-38.5829 190.585,-37.8113 192.41,-44.5692"/>
</g>
<!-- Node5 -->
<g id="node5" class="node"><title>Node5</title>
<g id="a_node5"><a xlink:href="../../d1/dc7/classview_1_1_side_bar.html#aea1c222b09a77a6f88ae9360c401f595" target="_top" xlink:title="view.SideBar.updateCommand">
<polygon fill="white" stroke="black" points="394.5,-107.5 394.5,-126.5 557.5,-126.5 557.5,-107.5 394.5,-107.5"/>
<text text-anchor="middle" x="476" y="-114.5" font-family="Helvetica,sans-Serif" font-size="10.00">view.SideBar.updateCommand</text>
</a>
</g>
</g>
<!-- Node4&#45;&gt;Node5 -->
<g id="edge4" class="edge"><title>Node4&#45;&gt;Node5</title>
<path fill="none" stroke="midnightblue" d="M358.279,-117C366.924,-117 375.683,-117 384.314,-117"/>
<polygon fill="midnightblue" stroke="midnightblue" points="384.373,-120.5 394.373,-117 384.373,-113.5 384.373,-120.5"/>
</g>
<!-- Node8 -->
<g id="node8" class="node"><title>Node8</title>
<g id="a_node8"><a xlink:href="../../d6/d58/classview_1_1_property.html#a51a9b0be72a7421596996f752b75ad93" target="_top" xlink:title="view.Property.getName">
<polygon fill="white" stroke="black" points="413,-38.5 413,-57.5 539,-57.5 539,-38.5 413,-38.5"/>
<text text-anchor="middle" x="476" y="-45.5" font-family="Helvetica,sans-Serif" font-size="10.00">view.Property.getName</text>
</a>
</g>
</g>
<!-- Node7&#45;&gt;Node8 -->
<g id="edge7" class="edge"><title>Node7&#45;&gt;Node8</title>
<path fill="none" stroke="midnightblue" d="M340.569,-35.779C360.827,-37.6206 382.723,-39.6112 402.845,-41.4405"/>
<polygon fill="midnightblue" stroke="midnightblue" points="402.6,-44.9325 412.876,-42.3523 403.234,-37.9612 402.6,-44.9325"/>
</g>
<!-- Node9 -->
<g id="node9" class="node"><title>Node9</title>
<g id="a_node9"><a xlink:href="../../d6/d58/classview_1_1_property.html#ac169f9069f86f72b224cf0b1ccdd1c3c" target="_top" xlink:title="view.Property.getValue">
<polygon fill="white" stroke="black" points="414.5,-0.5 414.5,-19.5 537.5,-19.5 537.5,-0.5 414.5,-0.5"/>
<text text-anchor="middle" x="476" y="-7.5" font-family="Helvetica,sans-Serif" font-size="10.00">view.Property.getValue</text>
</a>
</g>
</g>
<!-- Node7&#45;&gt;Node9 -->
<g id="edge8" class="edge"><title>Node7&#45;&gt;Node9</title>
<path fill="none" stroke="midnightblue" d="M340.569,-22.221C361.228,-20.3429 383.591,-18.3099 404.038,-16.451"/>
<polygon fill="midnightblue" stroke="midnightblue" points="404.579,-19.9165 414.221,-15.5254 403.945,-12.9452 404.579,-19.9165"/>
</g>
</g>
</svg>
        <g id="navigator" transform="translate(0 0)" fill="#404254">
                <rect fill="#f2f5e9" fill-opacity="0.5" stroke="#606060" stroke-width=".5" x="0" y="0" width="60" height="60"/>
                <use id="zoomplus" xlink:href="#zoomPlus" x="17" y="9" onmousedown="handleZoom(evt,'in')"/>
                <use id="zoomminus" xlink:href="#zoomMin" x="42" y="9" onmousedown="handleZoom(evt,'out')"/>
                <use id="reset" xlink:href="#resetDef" x="30" y="36" onmousedown="handleReset()"/>
                <g id="arrowUp" xlink:href="#dirArrow" transform="translate(30 24)" onmousedown="handlePan(0,-1)">
                  <use xlink:href="#rim" fill="#404040">
                        <set attributeName="fill" to="#808080" begin="arrowUp.mouseover" end="arrowUp.mouseout"/>
                  </use>
                  <path fill="none" stroke="white" stroke-width="1.5" d="M0,-3.0v7 M-2.5,-0.5L0,-3.0L2.5,-0.5"/>
                </g>
                <g id="arrowRight" xlink:href="#dirArrow" transform="rotate(90) translate(36 -43)" onmousedown="handlePan(1,0)">
                  <use xlink:href="#rim" fill="#404040">
                        <set attributeName="fill" to="#808080" begin="arrowRight.mouseover" end="arrowRight.mouseout"/>
                  </use>
                  <path fill="none" stroke="white" stroke-width="1.5" d="M0,-3.0v7 M-2.5,-0.5L0,-3.0L2.5,-0.5"/>
                </g>
                <g id="arrowDown" xlink:href="#dirArrow" transform="rotate(180) translate(-30 -48)" onmousedown="handlePan(0,1)">
                  <use xlink:href="#rim" fill="#404040">
                        <set attributeName="fill" to="#808080" begin="arrowDown.mouseover" end="arrowDown.mouseout"/>
                  </use>
                  <path fill="none" stroke="white" stroke-width="1.5" d="M0,-3.0v7 M-2.5,-0.5L0,-3.0L2.5,-0.5"/>
                </g>
                <g id="arrowLeft" xlink:href="#dirArrow" transform="rotate(270) translate(-36 17)" onmousedown="handlePan(-1,0)">
                  <use xlink:href="#rim" fill="#404040">
                        <set attributeName="fill" to="#808080" begin="arrowLeft.mouseover" end="arrowLeft.mouseout"/>
                  </use>
                  <path fill="none" stroke="white" stroke-width="1.5" d="M0,-3.0v7 M-2.5,-0.5L0,-3.0L2.5,-0.5"/>
                </g>
        </g>
        <svg viewBox="0 0 15 15" width="100%" height="30px" preserveAspectRatio="xMaxYMin meet">
         <g id="arrow_out" transform="scale(0.3 0.3)">
          <a xlink:href="classview_1_1_view_updater_aa4cfbf2ecad29abda8cd3aaff891539a_cgraph_org.svg" target="_base">
           <rect id="button" ry="5" rx="5" y="6" x="6" height="38" width="38"
                fill="#f2f5e9" fill-opacity="0.5" stroke="#606060" stroke-width="1.0"/>
           <path id="arrow"
             d="M 11.500037,31.436501 C 11.940474,20.09759 22.043105,11.32322 32.158766,21.979434 L 37.068811,17.246167 C 37.068811,17.246167 37.088388,32 37.088388,32 L 22.160133,31.978069 C 22.160133,31.978069 26.997745,27.140456 26.997745,27.140456 C 18.528582,18.264221 13.291696,25.230495 11.500037,31.436501 z"
             style="fill:#404040;"/>
          </a>
         </g>
        </svg>
</svg>
