<?xml version="1.0" encoding="UTF-8" standalone="no"?>
<!DOCTYPE svg PUBLIC "-//W3C//DTD SVG 1.1//EN"
 "http://www.w3.org/Graphics/SVG/1.1/DTD/svg11.dtd">
<!-- Generated by graphviz version 2.36.0 (20140111.2315)
 -->
<!-- Title: view.ViewUpdater.createStamp Pages: 1 -->
<svg width="546pt" height="85pt"
 viewBox="0.00 0.00 546.00 85.00" xmlns="http://www.w3.org/2000/svg" xmlns:xlink="http://www.w3.org/1999/xlink">
<g id="graph0" class="graph" transform="scale(1 1) rotate(0) translate(4 81)">
<title>view.ViewUpdater.createStamp</title>
<polygon fill="white" stroke="none" points="-4,4 -4,-81 542,-81 542,4 -4,4"/>
<!-- Node1 -->
<g id="node1" class="node"><title>Node1</title>
<polygon fill="#bfbfbf" stroke="black" points="0.5,-19.5 0.5,-38.5 165.5,-38.5 165.5,-19.5 0.5,-19.5"/>
<text text-anchor="middle" x="83" y="-26.5" font-family="Helvetica,sans-Serif" font-size="10.00">view.ViewUpdater.createStamp</text>
</g>
<!-- Node2 -->
<g id="node2" class="node"><title>Node2</title>
<g id="a_node2"><a xlink:href="../../d8/df7/classview_1_1_turtle_view.html#a2efe7ca23cb6fdf75e0bfba1108d3af6" target="_top" xlink:title="view.TurtleView.createStamp">
<polygon fill="white" stroke="black" points="204,-38.5 204,-57.5 356,-57.5 356,-38.5 204,-38.5"/>
<text text-anchor="middle" x="280" y="-45.5" font-family="Helvetica,sans-Serif" font-size="10.00">view.TurtleView.createStamp</text>
</a>
</g>
</g>
<!-- Node1&#45;&gt;Node2 -->
<g id="edge1" class="edge"><title>Node1&#45;&gt;Node2</title>
<path fill="none" stroke="midnightblue" d="M165.568,-36.9476C174.918,-37.8587 184.47,-38.7893 193.865,-39.7048"/>
<polygon fill="midnightblue" stroke="midnightblue" points="193.69,-43.2043 203.983,-40.6906 194.369,-36.2373 193.69,-43.2043"/>
</g>
<!-- Node5 -->
<g id="node5" class="node"><title>Node5</title>
<g id="a_node5"><a xlink:href="../../da/d64/classview_1_1_workspace.html#ad460da1164f039e5ea9a265d446d13fe" target="_top" xlink:title="view.Workspace.getTurtleMap">
<polygon fill="white" stroke="black" points="202.5,-0.5 202.5,-19.5 357.5,-19.5 357.5,-0.5 202.5,-0.5"/>
<text text-anchor="middle" x="280" y="-7.5" font-family="Helvetica,sans-Serif" font-size="10.00">view.Workspace.getTurtleMap</text>
</a>
</g>
</g>
<!-- Node1&#45;&gt;Node5 -->
<g id="edge4" class="edge"><title>Node1&#45;&gt;Node5</title>
<path fill="none" stroke="midnightblue" d="M165.568,-21.0524C174.44,-20.1879 183.492,-19.3059 192.421,-18.4359"/>
<polygon fill="midnightblue" stroke="midnightblue" points="192.82,-21.9137 202.434,-17.4603 192.141,-14.9467 192.82,-21.9137"/>
</g>
<!-- Node3 -->
<g id="node3" class="node"><title>Node3</title>
<g id="a_node3"><a xlink:href="../../d8/df7/classview_1_1_turtle_view.html#a740c69205e98525bdb1cebba031c9f74" target="_top" xlink:title="view.TurtleView.getImageID">
<polygon fill="white" stroke="black" points="394,-57.5 394,-76.5 538,-76.5 538,-57.5 394,-57.5"/>
<text text-anchor="middle" x="466" y="-64.5" font-family="Helvetica,sans-Serif" font-size="10.00">view.TurtleView.getImageID</text>
</a>
</g>
</g>
<!-- Node2&#45;&gt;Node3 -->
<g id="edge2" class="edge"><title>Node2&#45;&gt;Node3</title>
<path fill="none" stroke="midnightblue" d="M356.105,-55.7554C365.3,-56.7049 374.728,-57.6785 384.005,-58.6364"/>
<polygon fill="midnightblue" stroke="midnightblue" points="383.687,-62.1221 393.993,-59.6678 384.406,-55.1591 383.687,-62.1221"/>
</g>
<!-- Node4 -->
<g id="node4" class="node"><title>Node4</title>
<g id="a_node4"><a xlink:href="../../d8/df7/classview_1_1_turtle_view.html#afddbc74313a99bb100c8c50efa88f330" target="_top" xlink:title="view.TurtleView.getYCoord">
<polygon fill="white" stroke="black" points="397.5,-19.5 397.5,-38.5 534.5,-38.5 534.5,-19.5 397.5,-19.5"/>
<text text-anchor="middle" x="466" y="-26.5" font-family="Helvetica,sans-Serif" font-size="10.00">view.TurtleView.getYCoord</text>
</a>
</g>
</g>
<!-- Node2&#45;&gt;Node4 -->
<g id="edge3" class="edge"><title>Node2&#45;&gt;Node4</title>
<path fill="none" stroke="midnightblue" d="M356.105,-40.2446C366.316,-39.1902 376.813,-38.1062 387.072,-37.0469"/>
<polygon fill="midnightblue" stroke="midnightblue" points="387.644,-40.5065 397.232,-35.9978 386.925,-33.5435 387.644,-40.5065"/>
</g>
</g>
</svg>
