<?xml version="1.0" encoding="UTF-8" standalone="no"?>
<!DOCTYPE svg PUBLIC "-//W3C//DTD SVG 1.1//EN"
 "http://www.w3.org/Graphics/SVG/1.1/DTD/svg11.dtd">
<!-- Generated by graphviz version 2.36.0 (20140111.2315)
 -->
<!-- Title: view.ViewUpdater.update Pages: 1 -->
<svg width="750pt" height="252pt"
 viewBox="0.00 0.00 750.00 252.00" xmlns="http://www.w3.org/2000/svg" xmlns:xlink="http://www.w3.org/1999/xlink">
<g id="graph0" class="graph" transform="scale(1 1) rotate(0) translate(4 248)">
<title>view.ViewUpdater.update</title>
<polygon fill="white" stroke="none" points="-4,4 -4,-248 746,-248 746,4 -4,4"/>
<!-- Node1 -->
<g id="node1" class="node"><title>Node1</title>
<polygon fill="#bfbfbf" stroke="black" points="0,-126.5 0,-145.5 136,-145.5 136,-126.5 0,-126.5"/>
<text text-anchor="middle" x="68" y="-133.5" font-family="Helvetica,sans-Serif" font-size="10.00">view.ViewUpdater.update</text>
</g>
<!-- Node2 -->
<g id="node2" class="node"><title>Node2</title>
<g id="a_node2"><a xlink:href="../../d1/dca/classmodel_1_1_execution_environment.html#a7eac9bbab890abbeb7db1a095fca5fc8" target="_top" xlink:title="model.ExecutionEnvironment.get\lUserCommandMap">
<polygon fill="white" stroke="black" points="177,-214 177,-244 353,-244 353,-214 177,-214"/>
<text text-anchor="start" x="185" y="-232" font-family="Helvetica,sans-Serif" font-size="10.00">model.ExecutionEnvironment.get</text>
<text text-anchor="middle" x="265" y="-221" font-family="Helvetica,sans-Serif" font-size="10.00">UserCommandMap</text>
</a>
</g>
</g>
<!-- Node1&#45;&gt;Node2 -->
<g id="edge1" class="edge"><title>Node1&#45;&gt;Node2</title>
<path fill="none" stroke="midnightblue" d="M80.9352,-145.735C99.3951,-160.346 136.462,-187.941 172,-204 177.314,-206.401 182.909,-208.616 188.605,-210.648"/>
<polygon fill="midnightblue" stroke="midnightblue" points="187.663,-214.024 198.257,-213.899 189.897,-207.39 187.663,-214.024"/>
</g>
<!-- Node3 -->
<g id="node3" class="node"><title>Node3</title>
<g id="a_node3"><a xlink:href="../../d1/dca/classmodel_1_1_execution_environment.html#a609066792c4820c151299cb96de01c24" target="_top" xlink:title="model.ExecutionEnvironment.get\lVariableMap">
<polygon fill="white" stroke="black" points="177,-165 177,-195 353,-195 353,-165 177,-165"/>
<text text-anchor="start" x="185" y="-183" font-family="Helvetica,sans-Serif" font-size="10.00">model.ExecutionEnvironment.get</text>
<text text-anchor="middle" x="265" y="-172" font-family="Helvetica,sans-Serif" font-size="10.00">VariableMap</text>
</a>
</g>
</g>
<!-- Node1&#45;&gt;Node3 -->
<g id="edge2" class="edge"><title>Node1&#45;&gt;Node3</title>
<path fill="none" stroke="midnightblue" d="M111.312,-145.547C133.561,-150.568 161.526,-156.878 187.425,-162.721"/>
<polygon fill="midnightblue" stroke="midnightblue" points="186.708,-166.148 197.233,-164.935 188.249,-159.319 186.708,-166.148"/>
</g>
<!-- Node4 -->
<g id="node4" class="node"><title>Node4</title>
<g id="a_node4"><a xlink:href="../../d4/d64/classview_1_1_view_updater.html#af96f8276592f10c4abcd04246bb7e8fd" target="_top" xlink:title="view.ViewUpdater.updateCommand">
<polygon fill="white" stroke="black" points="172,-126.5 172,-145.5 358,-145.5 358,-126.5 172,-126.5"/>
<text text-anchor="middle" x="265" y="-133.5" font-family="Helvetica,sans-Serif" font-size="10.00">view.ViewUpdater.updateCommand</text>
</a>
</g>
</g>
<!-- Node1&#45;&gt;Node4 -->
<g id="edge3" class="edge"><title>Node1&#45;&gt;Node4</title>
<path fill="none" stroke="midnightblue" d="M136.108,-136C144.422,-136 153.064,-136 161.757,-136"/>
<polygon fill="midnightblue" stroke="midnightblue" points="161.967,-139.5 171.967,-136 161.967,-132.5 161.967,-139.5"/>
</g>
<!-- Node6 -->
<g id="node6" class="node"><title>Node6</title>
<g id="a_node6"><a xlink:href="../../d1/dc7/classview_1_1_side_bar.html#ac38f82259f9d70aedeefef0a42e1afd5" target="_top" xlink:title="view.SideBar.updateExecution\lEnvironment">
<polygon fill="white" stroke="black" points="185.5,-77 185.5,-107 344.5,-107 344.5,-77 185.5,-77"/>
<text text-anchor="start" x="193.5" y="-95" font-family="Helvetica,sans-Serif" font-size="10.00">view.SideBar.updateExecution</text>
<text text-anchor="middle" x="265" y="-84" font-family="Helvetica,sans-Serif" font-size="10.00">Environment</text>
</a>
</g>
</g>
<!-- Node1&#45;&gt;Node6 -->
<g id="edge5" class="edge"><title>Node1&#45;&gt;Node6</title>
<path fill="none" stroke="midnightblue" d="M111.312,-126.453C133.561,-121.432 161.526,-115.122 187.425,-109.279"/>
<polygon fill="midnightblue" stroke="midnightblue" points="188.249,-112.681 197.233,-107.065 186.708,-105.852 188.249,-112.681"/>
</g>
<!-- Node7 -->
<g id="node7" class="node"><title>Node7</title>
<g id="a_node7"><a xlink:href="../../d1/dc7/classview_1_1_side_bar.html#a9ee7c3d1f9e3f461361703420eb09b26" target="_top" xlink:title="view.SideBar.updateVariable">
<polygon fill="white" stroke="black" points="189.5,-38.5 189.5,-57.5 340.5,-57.5 340.5,-38.5 189.5,-38.5"/>
<text text-anchor="middle" x="265" y="-45.5" font-family="Helvetica,sans-Serif" font-size="10.00">view.SideBar.updateVariable</text>
</a>
</g>
</g>
<!-- Node1&#45;&gt;Node7 -->
<g id="edge6" class="edge"><title>Node1&#45;&gt;Node7</title>
<path fill="none" stroke="midnightblue" d="M80.5345,-126.28C98.7584,-111.432 135.865,-83.226 172,-68 179.202,-64.9654 186.923,-62.3667 194.718,-60.1469"/>
<polygon fill="midnightblue" stroke="midnightblue" points="195.825,-63.4745 204.597,-57.5336 194.034,-56.7073 195.825,-63.4745"/>
</g>
<!-- Node5 -->
<g id="node5" class="node"><title>Node5</title>
<g id="a_node5"><a xlink:href="../../d1/dc7/classview_1_1_side_bar.html#aea1c222b09a77a6f88ae9360c401f595" target="_top" xlink:title="view.SideBar.updateCommand">
<polygon fill="white" stroke="black" points="394.5,-126.5 394.5,-145.5 557.5,-145.5 557.5,-126.5 394.5,-126.5"/>
<text text-anchor="middle" x="476" y="-133.5" font-family="Helvetica,sans-Serif" font-size="10.00">view.SideBar.updateCommand</text>
</a>
</g>
</g>
<!-- Node4&#45;&gt;Node5 -->
<g id="edge4" class="edge"><title>Node4&#45;&gt;Node5</title>
<path fill="none" stroke="midnightblue" d="M358.279,-136C366.924,-136 375.683,-136 384.314,-136"/>
<polygon fill="midnightblue" stroke="midnightblue" points="384.373,-139.5 394.373,-136 384.373,-132.5 384.373,-139.5"/>
</g>
<!-- Node8 -->
<g id="node8" class="node"><title>Node8</title>
<g id="a_node8"><a xlink:href="../../d9/dd3/classview_1_1_variables_view.html#aebedf2b729065ddab04f33f4e217d785" target="_top" xlink:title="view.VariablesView.update">
<polygon fill="white" stroke="black" points="406,-38.5 406,-57.5 546,-57.5 546,-38.5 406,-38.5"/>
<text text-anchor="middle" x="476" y="-45.5" font-family="Helvetica,sans-Serif" font-size="10.00">view.VariablesView.update</text>
</a>
</g>
</g>
<!-- Node7&#45;&gt;Node8 -->
<g id="edge7" class="edge"><title>Node7&#45;&gt;Node8</title>
<path fill="none" stroke="midnightblue" d="M340.569,-48C358.389,-48 377.478,-48 395.511,-48"/>
<polygon fill="midnightblue" stroke="midnightblue" points="395.696,-51.5001 405.696,-48 395.696,-44.5001 395.696,-51.5001"/>
</g>
<!-- Node9 -->
<g id="node9" class="node"><title>Node9</title>
<g id="a_node9"><a xlink:href="../../d6/d58/classview_1_1_property.html#a51a9b0be72a7421596996f752b75ad93" target="_top" xlink:title="view.Property.getName">
<polygon fill="white" stroke="black" points="605,-76.5 605,-95.5 731,-95.5 731,-76.5 605,-76.5"/>
<text text-anchor="middle" x="668" y="-83.5" font-family="Helvetica,sans-Serif" font-size="10.00">view.Property.getName</text>
</a>
</g>
</g>
<!-- Node8&#45;&gt;Node9 -->
<g id="edge8" class="edge"><title>Node8&#45;&gt;Node9</title>
<path fill="none" stroke="midnightblue" d="M524.945,-57.589C550.582,-62.7165 582.336,-69.0672 609.316,-74.4632"/>
<polygon fill="midnightblue" stroke="midnightblue" points="608.908,-77.9507 619.4,-76.4799 610.28,-71.0867 608.908,-77.9507"/>
</g>
<!-- Node10 -->
<g id="node10" class="node"><title>Node10</title>
<g id="a_node10"><a xlink:href="../../d5/dea/classview_1_1_side_table_view.html#adbdf2bf0ebf7fc8ab04db2087baea03a" target="_top" xlink:title="view.SideTableView.getTable">
<polygon fill="white" stroke="black" points="594,-38.5 594,-57.5 742,-57.5 742,-38.5 594,-38.5"/>
<text text-anchor="middle" x="668" y="-45.5" font-family="Helvetica,sans-Serif" font-size="10.00">view.SideTableView.getTable</text>
</a>
</g>
</g>
<!-- Node8&#45;&gt;Node10 -->
<g id="edge9" class="edge"><title>Node8&#45;&gt;Node10</title>
<path fill="none" stroke="midnightblue" d="M546.132,-48C558.234,-48 570.943,-48 583.388,-48"/>
<polygon fill="midnightblue" stroke="midnightblue" points="583.76,-51.5001 593.76,-48 583.76,-44.5001 583.76,-51.5001"/>
</g>
<!-- Node11 -->
<g id="node11" class="node"><title>Node11</title>
<g id="a_node11"><a xlink:href="../../d6/d58/classview_1_1_property.html#ac169f9069f86f72b224cf0b1ccdd1c3c" target="_top" xlink:title="view.Property.getValue">
<polygon fill="white" stroke="black" points="606.5,-0.5 606.5,-19.5 729.5,-19.5 729.5,-0.5 606.5,-0.5"/>
<text text-anchor="middle" x="668" y="-7.5" font-family="Helvetica,sans-Serif" font-size="10.00">view.Property.getValue</text>
</a>
</g>
</g>
<!-- Node8&#45;&gt;Node11 -->
<g id="edge10" class="edge"><title>Node8&#45;&gt;Node11</title>
<path fill="none" stroke="midnightblue" d="M524.945,-38.411C550.582,-33.2835 582.336,-26.9328 609.316,-21.5368"/>
<polygon fill="midnightblue" stroke="midnightblue" points="610.28,-24.9133 619.4,-19.5201 608.908,-18.0493 610.28,-24.9133"/>
</g>
</g>
</svg>
