<?xml version="1.0" encoding="UTF-8" standalone="no"?>
<!DOCTYPE svg PUBLIC "-//W3C//DTD SVG 1.1//EN"
 "http://www.w3.org/Graphics/SVG/1.1/DTD/svg11.dtd">
<!-- Generated by graphviz version 2.36.0 (20140111.2315)
 -->
<!-- Title: view.ViewUpdater.towards Pages: 1 -->
<svg width="916pt" height="180pt"
 viewBox="0.00 0.00 916.00 180.00" xmlns="http://www.w3.org/2000/svg" xmlns:xlink="http://www.w3.org/1999/xlink">
<g id="graph0" class="graph" transform="scale(1 1) rotate(0) translate(4 176)">
<title>view.ViewUpdater.towards</title>
<polygon fill="white" stroke="none" points="-4,4 -4,-176 912,-176 912,4 -4,4"/>
<!-- Node1 -->
<g id="node1" class="node"><title>Node1</title>
<polygon fill="#bfbfbf" stroke="black" points="0,-122.5 0,-141.5 140,-141.5 140,-122.5 0,-122.5"/>
<text text-anchor="middle" x="70" y="-129.5" font-family="Helvetica,sans-Serif" font-size="10.00">view.ViewUpdater.towards</text>
</g>
<!-- Node2 -->
<g id="node2" class="node"><title>Node2</title>
<g id="a_node2"><a xlink:href="../../d4/d64/classview_1_1_view_updater.html#ab8c47e1d6b8bc5c076184e3e0af5e4b2" target="_top" xlink:title="view.ViewUpdater.setHeading">
<polygon fill="white" stroke="black" points="176.5,-122.5 176.5,-141.5 333.5,-141.5 333.5,-122.5 176.5,-122.5"/>
<text text-anchor="middle" x="255" y="-129.5" font-family="Helvetica,sans-Serif" font-size="10.00">view.ViewUpdater.setHeading</text>
</a>
</g>
</g>
<!-- Node1&#45;&gt;Node2 -->
<g id="edge1" class="edge"><title>Node1&#45;&gt;Node2</title>
<path fill="none" stroke="midnightblue" d="M140.184,-132C148.696,-132 157.482,-132 166.223,-132"/>
<polygon fill="midnightblue" stroke="midnightblue" points="166.443,-135.5 176.443,-132 166.443,-128.5 166.443,-135.5"/>
</g>
<!-- Node3 -->
<g id="node3" class="node"><title>Node3</title>
<g id="a_node3"><a xlink:href="../../da/d64/classview_1_1_workspace.html#ad460da1164f039e5ea9a265d446d13fe" target="_top" xlink:title="view.Workspace.getTurtleMap">
<polygon fill="white" stroke="black" points="752.5,-152.5 752.5,-171.5 907.5,-171.5 907.5,-152.5 752.5,-152.5"/>
<text text-anchor="middle" x="830" y="-159.5" font-family="Helvetica,sans-Serif" font-size="10.00">view.Workspace.getTurtleMap</text>
</a>
</g>
</g>
<!-- Node2&#45;&gt;Node3 -->
<g id="edge2" class="edge"><title>Node2&#45;&gt;Node3</title>
<path fill="none" stroke="midnightblue" d="M333.575,-136.062C440.012,-141.634 630.754,-151.621 741.947,-157.442"/>
<polygon fill="midnightblue" stroke="midnightblue" points="741.954,-160.947 752.123,-157.975 742.32,-153.957 741.954,-160.947"/>
</g>
<!-- Node4 -->
<g id="node4" class="node"><title>Node4</title>
<g id="a_node4"><a xlink:href="../../d1/dc7/classview_1_1_side_bar.html#a7d73038dbba05f96990b60664afa2670" target="_top" xlink:title="view.SideBar.updateTurtle\lProperties">
<polygon fill="white" stroke="black" points="370,-91 370,-121 508,-121 508,-91 370,-91"/>
<text text-anchor="start" x="378" y="-109" font-family="Helvetica,sans-Serif" font-size="10.00">view.SideBar.updateTurtle</text>
<text text-anchor="middle" x="439" y="-98" font-family="Helvetica,sans-Serif" font-size="10.00">Properties</text>
</a>
</g>
</g>
<!-- Node2&#45;&gt;Node4 -->
<g id="edge3" class="edge"><title>Node2&#45;&gt;Node4</title>
<path fill="none" stroke="midnightblue" d="M322.737,-122.466C334.705,-120.756 347.277,-118.96 359.539,-117.209"/>
<polygon fill="midnightblue" stroke="midnightblue" points="360.342,-120.63 369.747,-115.75 359.352,-113.7 360.342,-120.63"/>
</g>
<!-- Node5 -->
<g id="node5" class="node"><title>Node5</title>
<g id="a_node5"><a xlink:href="../../d9/d3a/classview_1_1_turtle_properties_view.html#af07bce3cf2bed2814a0fb3812d00b69e" target="_top" xlink:title="view.TurtlePropertiesView.update">
<polygon fill="white" stroke="black" points="544.5,-80.5 544.5,-99.5 715.5,-99.5 715.5,-80.5 544.5,-80.5"/>
<text text-anchor="middle" x="630" y="-87.5" font-family="Helvetica,sans-Serif" font-size="10.00">view.TurtlePropertiesView.update</text>
</a>
</g>
</g>
<!-- Node4&#45;&gt;Node5 -->
<g id="edge4" class="edge"><title>Node4&#45;&gt;Node5</title>
<path fill="none" stroke="midnightblue" d="M508.233,-100.224C516.669,-99.5095 525.408,-98.7697 534.151,-98.0295"/>
<polygon fill="midnightblue" stroke="midnightblue" points="534.73,-101.493 544.399,-97.162 534.139,-94.5181 534.73,-101.493"/>
</g>
<!-- Node5&#45;&gt;Node3 -->
<g id="edge8" class="edge"><title>Node5&#45;&gt;Node3</title>
<path fill="none" stroke="midnightblue" d="M650.293,-99.6806C673.838,-111.205 715.083,-130.463 752,-143 759.334,-145.491 767.162,-147.804 774.914,-149.898"/>
<polygon fill="midnightblue" stroke="midnightblue" points="774.09,-153.3 784.649,-152.429 775.851,-146.525 774.09,-153.3"/>
</g>
<!-- Node6 -->
<g id="node6" class="node"><title>Node6</title>
<g id="a_node6"><a xlink:href="../../d8/df7/classview_1_1_turtle_view.html#a5da3d4c9dafb77af0db0c589a72eadc8" target="_top" xlink:title="view.TurtleView.getHeading">
<polygon fill="white" stroke="black" points="758,-114.5 758,-133.5 902,-133.5 902,-114.5 758,-114.5"/>
<text text-anchor="middle" x="830" y="-121.5" font-family="Helvetica,sans-Serif" font-size="10.00">view.TurtleView.getHeading</text>
</a>
</g>
</g>
<!-- Node5&#45;&gt;Node6 -->
<g id="edge5" class="edge"><title>Node5&#45;&gt;Node6</title>
<path fill="none" stroke="midnightblue" d="M686.417,-99.5161C710.349,-103.626 738.525,-108.464 763.483,-112.75"/>
<polygon fill="midnightblue" stroke="midnightblue" points="763.148,-116.243 773.596,-114.486 764.333,-109.344 763.148,-116.243"/>
</g>
<!-- Node7 -->
<g id="node7" class="node"><title>Node7</title>
<g id="a_node7"><a xlink:href="../../d8/df7/classview_1_1_turtle_view.html#ab5fdc3775e06339f4a68d1b795a81643" target="_top" xlink:title="view.TurtleView.getID">
<polygon fill="white" stroke="black" points="773,-76.5 773,-95.5 887,-95.5 887,-76.5 773,-76.5"/>
<text text-anchor="middle" x="830" y="-83.5" font-family="Helvetica,sans-Serif" font-size="10.00">view.TurtleView.getID</text>
</a>
</g>
</g>
<!-- Node5&#45;&gt;Node7 -->
<g id="edge6" class="edge"><title>Node5&#45;&gt;Node7</title>
<path fill="none" stroke="midnightblue" d="M715.544,-88.292C731.258,-87.9746 747.468,-87.6471 762.546,-87.3425"/>
<polygon fill="midnightblue" stroke="midnightblue" points="762.855,-90.8371 772.783,-87.1357 762.714,-83.8385 762.855,-90.8371"/>
</g>
<!-- Node8 -->
<g id="node8" class="node"><title>Node8</title>
<g id="a_node8"><a xlink:href="../../d5/dea/classview_1_1_side_table_view.html#adbdf2bf0ebf7fc8ab04db2087baea03a" target="_top" xlink:title="view.SideTableView.getTable">
<polygon fill="white" stroke="black" points="756,-38.5 756,-57.5 904,-57.5 904,-38.5 756,-38.5"/>
<text text-anchor="middle" x="830" y="-45.5" font-family="Helvetica,sans-Serif" font-size="10.00">view.SideTableView.getTable</text>
</a>
</g>
</g>
<!-- Node5&#45;&gt;Node8 -->
<g id="edge7" class="edge"><title>Node5&#45;&gt;Node8</title>
<path fill="none" stroke="midnightblue" d="M675.929,-80.4695C704.94,-74.3158 742.886,-66.2667 773.738,-59.7222"/>
<polygon fill="midnightblue" stroke="midnightblue" points="774.85,-63.0643 783.906,-57.5653 773.398,-56.2166 774.85,-63.0643"/>
</g>
<!-- Node9 -->
<g id="node9" class="node"><title>Node9</title>
<g id="a_node9"><a xlink:href="../../d8/df7/classview_1_1_turtle_view.html#afddbc74313a99bb100c8c50efa88f330" target="_top" xlink:title="view.TurtleView.getYCoord">
<polygon fill="white" stroke="black" points="761.5,-0.5 761.5,-19.5 898.5,-19.5 898.5,-0.5 761.5,-0.5"/>
<text text-anchor="middle" x="830" y="-7.5" font-family="Helvetica,sans-Serif" font-size="10.00">view.TurtleView.getYCoord</text>
</a>
</g>
</g>
<!-- Node5&#45;&gt;Node9 -->
<g id="edge9" class="edge"><title>Node5&#45;&gt;Node9</title>
<path fill="none" stroke="midnightblue" d="M647.3,-80.2868C670.055,-67.0799 712.948,-43.4516 752,-29 758.747,-26.5031 765.948,-24.234 773.136,-22.2037"/>
<polygon fill="midnightblue" stroke="midnightblue" points="774.136,-25.5591 782.885,-19.5841 772.32,-18.7988 774.136,-25.5591"/>
</g>
</g>
</svg>
