<?xml version="1.0" encoding="UTF-8" standalone="no"?>
<!DOCTYPE svg PUBLIC "-//W3C//DTD SVG 1.1//EN"
 "http://www.w3.org/Graphics/SVG/1.1/DTD/svg11.dtd">
<!-- Generated by graphviz version 2.36.0 (20140111.2315)
 -->
<!-- Title: view.ViewUpdater.setBackgroundColor Pages: 1 -->
<svg width="350pt" height="38pt"
 viewBox="0.00 0.00 350.00 38.00" xmlns="http://www.w3.org/2000/svg" xmlns:xlink="http://www.w3.org/1999/xlink">
<g id="graph0" class="graph" transform="scale(1 1) rotate(0) translate(4 34)">
<title>view.ViewUpdater.setBackgroundColor</title>
<polygon fill="white" stroke="none" points="-4,4 -4,-34 346,-34 346,4 -4,4"/>
<!-- Node1 -->
<g id="node1" class="node"><title>Node1</title>
<polygon fill="#bfbfbf" stroke="black" points="0,-0 0,-30 174,-30 174,-0 0,-0"/>
<text text-anchor="start" x="8" y="-18" font-family="Helvetica,sans-Serif" font-size="10.00">view.ViewUpdater.setBackground</text>
<text text-anchor="middle" x="87" y="-7" font-family="Helvetica,sans-Serif" font-size="10.00">Color</text>
</g>
<!-- Node2 -->
<g id="node2" class="node"><title>Node2</title>
<g id="a_node2"><a xlink:href="../../d2/d2b/classmodel_1_1instructions_1_1_front_end_instruction.html#ad73f35e44bf151648463df17e10152ac" target="_top" xlink:title="model.instructions.Front\lEndInstruction.execute">
<polygon fill="white" stroke="black" points="210,-0 210,-30 342,-30 342,-0 210,-0"/>
<text text-anchor="start" x="218" y="-18" font-family="Helvetica,sans-Serif" font-size="10.00">model.instructions.Front</text>
<text text-anchor="middle" x="276" y="-7" font-family="Helvetica,sans-Serif" font-size="10.00">EndInstruction.execute</text>
</a>
</g>
</g>
<!-- Node1&#45;&gt;Node2 -->
<g id="edge1" class="edge"><title>Node1&#45;&gt;Node2</title>
<path fill="none" stroke="midnightblue" d="M184.242,-15C192.875,-15 201.476,-15 209.752,-15"/>
<polygon fill="midnightblue" stroke="midnightblue" points="184.111,-11.5001 174.111,-15 184.111,-18.5001 184.111,-11.5001"/>
</g>
</g>
</svg>
