<?xml version="1.0" encoding="UTF-8" standalone="no"?>
<!DOCTYPE svg PUBLIC "-//W3C//DTD SVG 1.1//EN"
 "http://www.w3.org/Graphics/SVG/1.1/DTD/svg11.dtd">
<!-- Generated by graphviz version 2.36.0 (20140111.2315)
 -->
<!-- Title: view.ViewUpdater.ViewUpdater Pages: 1 -->
<svg width="368pt" height="104pt"
 viewBox="0.00 0.00 368.00 104.00" xmlns="http://www.w3.org/2000/svg" xmlns:xlink="http://www.w3.org/1999/xlink">
<g id="graph0" class="graph" transform="scale(1 1) rotate(0) translate(4 100)">
<title>view.ViewUpdater.ViewUpdater</title>
<polygon fill="white" stroke="none" points="-4,4 -4,-100 364,-100 364,4 -4,4"/>
<!-- Node1 -->
<g id="node1" class="node"><title>Node1</title>
<polygon fill="#bfbfbf" stroke="black" points="0.5,-38.5 0.5,-57.5 163.5,-57.5 163.5,-38.5 0.5,-38.5"/>
<text text-anchor="middle" x="82" y="-45.5" font-family="Helvetica,sans-Serif" font-size="10.00">view.ViewUpdater.ViewUpdater</text>
</g>
<!-- Node2 -->
<g id="node2" class="node"><title>Node2</title>
<g id="a_node2"><a xlink:href="../../d6/de7/classview_1_1_s_logo_view.html#a5ebfb7c8428f6356482923501f94e2bb" target="_top" xlink:title="view.SLogoView.getDrawer">
<polygon fill="white" stroke="black" points="208.5,-76.5 208.5,-95.5 351.5,-95.5 351.5,-76.5 208.5,-76.5"/>
<text text-anchor="middle" x="280" y="-83.5" font-family="Helvetica,sans-Serif" font-size="10.00">view.SLogoView.getDrawer</text>
</a>
</g>
</g>
<!-- Node1&#45;&gt;Node2 -->
<g id="edge1" class="edge"><title>Node1&#45;&gt;Node2</title>
<path fill="none" stroke="midnightblue" d="M132.206,-57.54C158.767,-62.6896 191.749,-69.084 219.718,-74.5065"/>
<polygon fill="midnightblue" stroke="midnightblue" points="219.29,-77.9887 229.774,-76.4561 220.623,-71.1167 219.29,-77.9887"/>
</g>
<!-- Node3 -->
<g id="node3" class="node"><title>Node3</title>
<g id="a_node3"><a xlink:href="../../d6/de7/classview_1_1_s_logo_view.html#af8887095b62669d49323cc83e8e18aae" target="_top" xlink:title="view.SLogoView.getSidebar">
<polygon fill="white" stroke="black" points="207,-38.5 207,-57.5 353,-57.5 353,-38.5 207,-38.5"/>
<text text-anchor="middle" x="280" y="-45.5" font-family="Helvetica,sans-Serif" font-size="10.00">view.SLogoView.getSidebar</text>
</a>
</g>
</g>
<!-- Node1&#45;&gt;Node3 -->
<g id="edge2" class="edge"><title>Node1&#45;&gt;Node3</title>
<path fill="none" stroke="midnightblue" d="M163.569,-48C174.563,-48 185.86,-48 196.881,-48"/>
<polygon fill="midnightblue" stroke="midnightblue" points="196.908,-51.5001 206.908,-48 196.908,-44.5001 196.908,-51.5001"/>
</g>
<!-- Node4 -->
<g id="node4" class="node"><title>Node4</title>
<g id="a_node4"><a xlink:href="../../d6/de7/classview_1_1_s_logo_view.html#a58510b0daad68b27282ea3f6307ac98d" target="_top" xlink:title="view.SLogoView.getWorkspace">
<polygon fill="white" stroke="black" points="200,-0.5 200,-19.5 360,-19.5 360,-0.5 200,-0.5"/>
<text text-anchor="middle" x="280" y="-7.5" font-family="Helvetica,sans-Serif" font-size="10.00">view.SLogoView.getWorkspace</text>
</a>
</g>
</g>
<!-- Node1&#45;&gt;Node4 -->
<g id="edge3" class="edge"><title>Node1&#45;&gt;Node4</title>
<path fill="none" stroke="midnightblue" d="M132.206,-38.46C158.767,-33.3104 191.749,-26.916 219.718,-21.4935"/>
<polygon fill="midnightblue" stroke="midnightblue" points="220.623,-24.8833 229.774,-19.5439 219.29,-18.0113 220.623,-24.8833"/>
</g>
</g>
</svg>
