<?xml version="1.0" encoding="UTF-8" standalone="no"?>
<!DOCTYPE svg PUBLIC "-//W3C//DTD SVG 1.1//EN"
 "http://www.w3.org/Graphics/SVG/1.1/DTD/svg11.dtd">
<!-- Generated by graphviz version 2.36.0 (20140111.2315)
 -->
<!-- Title: view.ViewUpdater.setHeading Pages: 1 -->
<svg width="536pt" height="218pt"
 viewBox="0.00 0.00 536.00 218.00" xmlns="http://www.w3.org/2000/svg" xmlns:xlink="http://www.w3.org/1999/xlink">
<g id="graph0" class="graph" transform="scale(1 1) rotate(0) translate(4 214)">
<title>view.ViewUpdater.setHeading</title>
<polygon fill="white" stroke="none" points="-4,4 -4,-214 532,-214 532,4 -4,4"/>
<!-- Node1 -->
<g id="node1" class="node"><title>Node1</title>
<polygon fill="#bfbfbf" stroke="black" points="0.5,-144.5 0.5,-163.5 157.5,-163.5 157.5,-144.5 0.5,-144.5"/>
<text text-anchor="middle" x="79" y="-151.5" font-family="Helvetica,sans-Serif" font-size="10.00">view.ViewUpdater.setHeading</text>
</g>
<!-- Node2 -->
<g id="node2" class="node"><title>Node2</title>
<g id="a_node2"><a xlink:href="../../da/d64/classview_1_1_workspace.html#ad460da1164f039e5ea9a265d446d13fe" target="_top" xlink:title="view.Workspace.getTurtleMap">
<polygon fill="white" stroke="black" points="370.5,-190.5 370.5,-209.5 525.5,-209.5 525.5,-190.5 370.5,-190.5"/>
<text text-anchor="middle" x="448" y="-197.5" font-family="Helvetica,sans-Serif" font-size="10.00">view.Workspace.getTurtleMap</text>
</a>
</g>
</g>
<!-- Node1&#45;&gt;Node2 -->
<g id="edge1" class="edge"><title>Node1&#45;&gt;Node2</title>
<path fill="none" stroke="midnightblue" d="M156.043,-163.531C215.707,-171.01 298.774,-181.421 360.884,-189.206"/>
<polygon fill="midnightblue" stroke="midnightblue" points="360.697,-192.71 371.055,-190.481 361.568,-185.764 360.697,-192.71"/>
</g>
<!-- Node3 -->
<g id="node3" class="node"><title>Node3</title>
<g id="a_node3"><a xlink:href="../../d1/dc7/classview_1_1_side_bar.html#a7d73038dbba05f96990b60664afa2670" target="_top" xlink:title="view.SideBar.updateTurtle\lProperties">
<polygon fill="white" stroke="black" points="194,-109 194,-139 332,-139 332,-109 194,-109"/>
<text text-anchor="start" x="202" y="-127" font-family="Helvetica,sans-Serif" font-size="10.00">view.SideBar.updateTurtle</text>
<text text-anchor="middle" x="263" y="-116" font-family="Helvetica,sans-Serif" font-size="10.00">Properties</text>
</a>
</g>
</g>
<!-- Node1&#45;&gt;Node3 -->
<g id="edge2" class="edge"><title>Node1&#45;&gt;Node3</title>
<path fill="none" stroke="midnightblue" d="M137.836,-144.467C152.437,-142.06 168.357,-139.436 183.777,-136.894"/>
<polygon fill="midnightblue" stroke="midnightblue" points="184.522,-140.318 193.82,-135.238 183.384,-133.412 184.522,-140.318"/>
</g>
<!-- Node3&#45;&gt;Node2 -->
<g id="edge6" class="edge"><title>Node3&#45;&gt;Node2</title>
<path fill="none" stroke="midnightblue" d="M287.499,-139.246C308.027,-151.977 338.999,-169.795 368,-181 374.454,-183.493 381.334,-185.729 388.241,-187.714"/>
<polygon fill="midnightblue" stroke="midnightblue" points="387.766,-191.211 398.333,-190.443 389.594,-184.454 387.766,-191.211"/>
</g>
<!-- Node4 -->
<g id="node4" class="node"><title>Node4</title>
<g id="a_node4"><a xlink:href="../../d8/df7/classview_1_1_turtle_view.html#a5da3d4c9dafb77af0db0c589a72eadc8" target="_top" xlink:title="view.TurtleView.getHeading">
<polygon fill="white" stroke="black" points="376,-152.5 376,-171.5 520,-171.5 520,-152.5 376,-152.5"/>
<text text-anchor="middle" x="448" y="-159.5" font-family="Helvetica,sans-Serif" font-size="10.00">view.TurtleView.getHeading</text>
</a>
</g>
</g>
<!-- Node3&#45;&gt;Node4 -->
<g id="edge3" class="edge"><title>Node3&#45;&gt;Node4</title>
<path fill="none" stroke="midnightblue" d="M332.142,-138.15C351.61,-142.192 372.589,-146.549 391.223,-150.418"/>
<polygon fill="midnightblue" stroke="midnightblue" points="390.518,-153.846 401.021,-152.452 391.941,-146.992 390.518,-153.846"/>
</g>
<!-- Node5 -->
<g id="node5" class="node"><title>Node5</title>
<g id="a_node5"><a xlink:href="../../d8/df7/classview_1_1_turtle_view.html#ab5fdc3775e06339f4a68d1b795a81643" target="_top" xlink:title="view.TurtleView.getID">
<polygon fill="white" stroke="black" points="391,-114.5 391,-133.5 505,-133.5 505,-114.5 391,-114.5"/>
<text text-anchor="middle" x="448" y="-121.5" font-family="Helvetica,sans-Serif" font-size="10.00">view.TurtleView.getID</text>
</a>
</g>
</g>
<!-- Node3&#45;&gt;Node5 -->
<g id="edge4" class="edge"><title>Node3&#45;&gt;Node5</title>
<path fill="none" stroke="midnightblue" d="M332.142,-124C347.981,-124 364.82,-124 380.583,-124"/>
<polygon fill="midnightblue" stroke="midnightblue" points="380.765,-127.5 390.765,-124 380.765,-120.5 380.765,-127.5"/>
</g>
<!-- Node6 -->
<g id="node6" class="node"><title>Node6</title>
<g id="a_node6"><a xlink:href="../../d8/df7/classview_1_1_turtle_view.html#a85b9acc922cc69f27c79bf13e3356e09" target="_top" xlink:title="view.TurtleView.getPenPosition">
<polygon fill="white" stroke="black" points="368,-76.5 368,-95.5 528,-95.5 528,-76.5 368,-76.5"/>
<text text-anchor="middle" x="448" y="-83.5" font-family="Helvetica,sans-Serif" font-size="10.00">view.TurtleView.getPenPosition</text>
</a>
</g>
</g>
<!-- Node3&#45;&gt;Node6 -->
<g id="edge5" class="edge"><title>Node3&#45;&gt;Node6</title>
<path fill="none" stroke="midnightblue" d="M332.142,-109.85C351.61,-105.808 372.589,-101.451 391.223,-97.5821"/>
<polygon fill="midnightblue" stroke="midnightblue" points="391.941,-101.008 401.021,-95.5476 390.518,-94.1539 391.941,-101.008"/>
</g>
<!-- Node7 -->
<g id="node7" class="node"><title>Node7</title>
<g id="a_node7"><a xlink:href="../../d8/df7/classview_1_1_turtle_view.html#afddbc74313a99bb100c8c50efa88f330" target="_top" xlink:title="view.TurtleView.getYCoord">
<polygon fill="white" stroke="black" points="379.5,-38.5 379.5,-57.5 516.5,-57.5 516.5,-38.5 379.5,-38.5"/>
<text text-anchor="middle" x="448" y="-45.5" font-family="Helvetica,sans-Serif" font-size="10.00">view.TurtleView.getYCoord</text>
</a>
</g>
</g>
<!-- Node3&#45;&gt;Node7 -->
<g id="edge7" class="edge"><title>Node3&#45;&gt;Node7</title>
<path fill="none" stroke="midnightblue" d="M287.499,-108.754C308.027,-96.0227 338.999,-78.2049 368,-67 374.454,-64.5065 381.334,-62.271 388.241,-60.2863"/>
<polygon fill="midnightblue" stroke="midnightblue" points="389.594,-63.5463 398.333,-57.5568 387.766,-56.7891 389.594,-63.5463"/>
</g>
<!-- Node8 -->
<g id="node8" class="node"><title>Node8</title>
<g id="a_node8"><a xlink:href="../../d8/df7/classview_1_1_turtle_view.html#a5f7b22cd8ab69258535b18920a488b63" target="_top" xlink:title="view.TurtleView.isShowing">
<polygon fill="white" stroke="black" points="380,-0.5 380,-19.5 516,-19.5 516,-0.5 380,-0.5"/>
<text text-anchor="middle" x="448" y="-7.5" font-family="Helvetica,sans-Serif" font-size="10.00">view.TurtleView.isShowing</text>
</a>
</g>
</g>
<!-- Node3&#45;&gt;Node8 -->
<g id="edge8" class="edge"><title>Node3&#45;&gt;Node8</title>
<path fill="none" stroke="midnightblue" d="M276.073,-108.958C293.896,-87.7951 329.338,-49.5281 368,-29 372.479,-26.6216 377.259,-24.5365 382.166,-22.7092"/>
<polygon fill="midnightblue" stroke="midnightblue" points="383.347,-26.0045 391.713,-19.5037 381.119,-19.3685 383.347,-26.0045"/>
</g>
</g>
</svg>
