<?xml version="1.0" encoding="UTF-8" standalone="no"?>
<!DOCTYPE svg PUBLIC "-//W3C//DTD SVG 1.1//EN"
 "http://www.w3.org/Graphics/SVG/1.1/DTD/svg11.dtd">
<!-- Generated by graphviz version 2.36.0 (20140111.2315)
 -->
<!-- Title: view.ViewUpdater.setXY Pages: 1 -->
<svg width="506pt" height="218pt"
 viewBox="0.00 0.00 506.00 218.00" xmlns="http://www.w3.org/2000/svg" xmlns:xlink="http://www.w3.org/1999/xlink">
<g id="graph0" class="graph" transform="scale(1 1) rotate(0) translate(4 214)">
<title>view.ViewUpdater.setXY</title>
<polygon fill="white" stroke="none" points="-4,4 -4,-214 502,-214 502,4 -4,4"/>
<!-- Node1 -->
<g id="node1" class="node"><title>Node1</title>
<polygon fill="#bfbfbf" stroke="black" points="0,-144.5 0,-163.5 128,-163.5 128,-144.5 0,-144.5"/>
<text text-anchor="middle" x="64" y="-151.5" font-family="Helvetica,sans-Serif" font-size="10.00">view.ViewUpdater.setXY</text>
</g>
<!-- Node2 -->
<g id="node2" class="node"><title>Node2</title>
<g id="a_node2"><a xlink:href="../../da/d64/classview_1_1_workspace.html#ad460da1164f039e5ea9a265d446d13fe" target="_top" xlink:title="view.Workspace.getTurtleMap">
<polygon fill="white" stroke="black" points="340.5,-190.5 340.5,-209.5 495.5,-209.5 495.5,-190.5 340.5,-190.5"/>
<text text-anchor="middle" x="418" y="-197.5" font-family="Helvetica,sans-Serif" font-size="10.00">view.Workspace.getTurtleMap</text>
</a>
</g>
</g>
<!-- Node1&#45;&gt;Node2 -->
<g id="edge1" class="edge"><title>Node1&#45;&gt;Node2</title>
<path fill="none" stroke="midnightblue" d="M128.337,-162.277C185.805,-169.787 270.92,-180.91 333.847,-189.133"/>
<polygon fill="midnightblue" stroke="midnightblue" points="333.772,-192.653 344.142,-190.479 334.68,-185.712 333.772,-192.653"/>
</g>
<!-- Node3 -->
<g id="node3" class="node"><title>Node3</title>
<g id="a_node3"><a xlink:href="../../d1/dc7/classview_1_1_side_bar.html#a7d73038dbba05f96990b60664afa2670" target="_top" xlink:title="view.SideBar.updateTurtle\lProperties">
<polygon fill="white" stroke="black" points="164,-109 164,-139 302,-139 302,-109 164,-109"/>
<text text-anchor="start" x="172" y="-127" font-family="Helvetica,sans-Serif" font-size="10.00">view.SideBar.updateTurtle</text>
<text text-anchor="middle" x="233" y="-116" font-family="Helvetica,sans-Serif" font-size="10.00">Properties</text>
</a>
</g>
</g>
<!-- Node1&#45;&gt;Node3 -->
<g id="edge2" class="edge"><title>Node1&#45;&gt;Node3</title>
<path fill="none" stroke="midnightblue" d="M118.299,-144.425C129.634,-142.389 141.828,-140.199 153.872,-138.035"/>
<polygon fill="midnightblue" stroke="midnightblue" points="154.708,-141.441 163.932,-136.228 153.47,-134.551 154.708,-141.441"/>
</g>
<!-- Node3&#45;&gt;Node2 -->
<g id="edge6" class="edge"><title>Node3&#45;&gt;Node2</title>
<path fill="none" stroke="midnightblue" d="M257.499,-139.246C278.027,-151.977 308.999,-169.795 338,-181 344.454,-183.493 351.334,-185.729 358.241,-187.714"/>
<polygon fill="midnightblue" stroke="midnightblue" points="357.766,-191.211 368.333,-190.443 359.594,-184.454 357.766,-191.211"/>
</g>
<!-- Node4 -->
<g id="node4" class="node"><title>Node4</title>
<g id="a_node4"><a xlink:href="../../d8/df7/classview_1_1_turtle_view.html#a5da3d4c9dafb77af0db0c589a72eadc8" target="_top" xlink:title="view.TurtleView.getHeading">
<polygon fill="white" stroke="black" points="346,-152.5 346,-171.5 490,-171.5 490,-152.5 346,-152.5"/>
<text text-anchor="middle" x="418" y="-159.5" font-family="Helvetica,sans-Serif" font-size="10.00">view.TurtleView.getHeading</text>
</a>
</g>
</g>
<!-- Node3&#45;&gt;Node4 -->
<g id="edge3" class="edge"><title>Node3&#45;&gt;Node4</title>
<path fill="none" stroke="midnightblue" d="M302.142,-138.15C321.61,-142.192 342.589,-146.549 361.223,-150.418"/>
<polygon fill="midnightblue" stroke="midnightblue" points="360.518,-153.846 371.021,-152.452 361.941,-146.992 360.518,-153.846"/>
</g>
<!-- Node5 -->
<g id="node5" class="node"><title>Node5</title>
<g id="a_node5"><a xlink:href="../../d8/df7/classview_1_1_turtle_view.html#ab5fdc3775e06339f4a68d1b795a81643" target="_top" xlink:title="view.TurtleView.getID">
<polygon fill="white" stroke="black" points="361,-114.5 361,-133.5 475,-133.5 475,-114.5 361,-114.5"/>
<text text-anchor="middle" x="418" y="-121.5" font-family="Helvetica,sans-Serif" font-size="10.00">view.TurtleView.getID</text>
</a>
</g>
</g>
<!-- Node3&#45;&gt;Node5 -->
<g id="edge4" class="edge"><title>Node3&#45;&gt;Node5</title>
<path fill="none" stroke="midnightblue" d="M302.142,-124C317.981,-124 334.82,-124 350.583,-124"/>
<polygon fill="midnightblue" stroke="midnightblue" points="350.765,-127.5 360.765,-124 350.765,-120.5 350.765,-127.5"/>
</g>
<!-- Node6 -->
<g id="node6" class="node"><title>Node6</title>
<g id="a_node6"><a xlink:href="../../d8/df7/classview_1_1_turtle_view.html#a85b9acc922cc69f27c79bf13e3356e09" target="_top" xlink:title="view.TurtleView.getPenPosition">
<polygon fill="white" stroke="black" points="338,-76.5 338,-95.5 498,-95.5 498,-76.5 338,-76.5"/>
<text text-anchor="middle" x="418" y="-83.5" font-family="Helvetica,sans-Serif" font-size="10.00">view.TurtleView.getPenPosition</text>
</a>
</g>
</g>
<!-- Node3&#45;&gt;Node6 -->
<g id="edge5" class="edge"><title>Node3&#45;&gt;Node6</title>
<path fill="none" stroke="midnightblue" d="M302.142,-109.85C321.61,-105.808 342.589,-101.451 361.223,-97.5821"/>
<polygon fill="midnightblue" stroke="midnightblue" points="361.941,-101.008 371.021,-95.5476 360.518,-94.1539 361.941,-101.008"/>
</g>
<!-- Node7 -->
<g id="node7" class="node"><title>Node7</title>
<g id="a_node7"><a xlink:href="../../d8/df7/classview_1_1_turtle_view.html#afddbc74313a99bb100c8c50efa88f330" target="_top" xlink:title="view.TurtleView.getYCoord">
<polygon fill="white" stroke="black" points="349.5,-38.5 349.5,-57.5 486.5,-57.5 486.5,-38.5 349.5,-38.5"/>
<text text-anchor="middle" x="418" y="-45.5" font-family="Helvetica,sans-Serif" font-size="10.00">view.TurtleView.getYCoord</text>
</a>
</g>
</g>
<!-- Node3&#45;&gt;Node7 -->
<g id="edge7" class="edge"><title>Node3&#45;&gt;Node7</title>
<path fill="none" stroke="midnightblue" d="M257.499,-108.754C278.027,-96.0227 308.999,-78.2049 338,-67 344.454,-64.5065 351.334,-62.271 358.241,-60.2863"/>
<polygon fill="midnightblue" stroke="midnightblue" points="359.594,-63.5463 368.333,-57.5568 357.766,-56.7891 359.594,-63.5463"/>
</g>
<!-- Node8 -->
<g id="node8" class="node"><title>Node8</title>
<g id="a_node8"><a xlink:href="../../d8/df7/classview_1_1_turtle_view.html#a5f7b22cd8ab69258535b18920a488b63" target="_top" xlink:title="view.TurtleView.isShowing">
<polygon fill="white" stroke="black" points="350,-0.5 350,-19.5 486,-19.5 486,-0.5 350,-0.5"/>
<text text-anchor="middle" x="418" y="-7.5" font-family="Helvetica,sans-Serif" font-size="10.00">view.TurtleView.isShowing</text>
</a>
</g>
</g>
<!-- Node3&#45;&gt;Node8 -->
<g id="edge8" class="edge"><title>Node3&#45;&gt;Node8</title>
<path fill="none" stroke="midnightblue" d="M246.073,-108.958C263.896,-87.7951 299.338,-49.5281 338,-29 342.479,-26.6216 347.259,-24.5365 352.166,-22.7092"/>
<polygon fill="midnightblue" stroke="midnightblue" points="353.347,-26.0045 361.713,-19.5037 351.119,-19.3685 353.347,-26.0045"/>
</g>
</g>
</svg>
