<?xml version="1.0" encoding="UTF-8" standalone="no"?>
<!DOCTYPE svg PUBLIC "-//W3C//DTD SVG 1.1//EN"
 "http://www.w3.org/Graphics/SVG/1.1/DTD/svg11.dtd">
<!-- Generated by graphviz version 2.36.0 (20140111.2315)
 -->
<!-- Title: view.ViewUpdater.setShape Pages: 1 -->
<svg width="348pt" height="77pt"
 viewBox="0.00 0.00 348.00 77.00" xmlns="http://www.w3.org/2000/svg" xmlns:xlink="http://www.w3.org/1999/xlink">
<g id="graph0" class="graph" transform="scale(1 1) rotate(0) translate(4 73)">
<title>view.ViewUpdater.setShape</title>
<polygon fill="white" stroke="none" points="-4,4 -4,-73 344,-73 344,4 -4,4"/>
<!-- Node1 -->
<g id="node1" class="node"><title>Node1</title>
<polygon fill="#bfbfbf" stroke="black" points="0,-22.5 0,-41.5 148,-41.5 148,-22.5 0,-22.5"/>
<text text-anchor="middle" x="74" y="-29.5" font-family="Helvetica,sans-Serif" font-size="10.00">view.ViewUpdater.setShape</text>
</g>
<!-- Node2 -->
<g id="node2" class="node"><title>Node2</title>
<g id="a_node2"><a xlink:href="../../da/d64/classview_1_1_workspace.html#a4fa39210415cbc1075098e1babd0cec7" target="_top" xlink:title="view.Workspace.getActive\lTurtle">
<polygon fill="white" stroke="black" points="193,-39 193,-69 331,-69 331,-39 193,-39"/>
<text text-anchor="start" x="201" y="-57" font-family="Helvetica,sans-Serif" font-size="10.00">view.Workspace.getActive</text>
<text text-anchor="middle" x="262" y="-46" font-family="Helvetica,sans-Serif" font-size="10.00">Turtle</text>
</a>
</g>
</g>
<!-- Node1&#45;&gt;Node2 -->
<g id="edge1" class="edge"><title>Node1&#45;&gt;Node2</title>
<path fill="none" stroke="midnightblue" d="M148.245,-40.6634C159.646,-42.0119 171.462,-43.4095 182.965,-44.7701"/>
<polygon fill="midnightblue" stroke="midnightblue" points="182.632,-48.255 192.974,-45.9539 183.455,-41.3035 182.632,-48.255"/>
</g>
<!-- Node3 -->
<g id="node3" class="node"><title>Node3</title>
<g id="a_node3"><a xlink:href="../../da/d64/classview_1_1_workspace.html#ad460da1164f039e5ea9a265d446d13fe" target="_top" xlink:title="view.Workspace.getTurtleMap">
<polygon fill="white" stroke="black" points="184.5,-0.5 184.5,-19.5 339.5,-19.5 339.5,-0.5 184.5,-0.5"/>
<text text-anchor="middle" x="262" y="-7.5" font-family="Helvetica,sans-Serif" font-size="10.00">view.Workspace.getTurtleMap</text>
</a>
</g>
</g>
<!-- Node1&#45;&gt;Node3 -->
<g id="edge2" class="edge"><title>Node1&#45;&gt;Node3</title>
<path fill="none" stroke="midnightblue" d="M148.245,-23.3366C156.794,-22.3254 165.577,-21.2866 174.285,-20.2566"/>
<polygon fill="midnightblue" stroke="midnightblue" points="174.936,-23.7041 184.456,-19.0536 174.114,-16.7525 174.936,-23.7041"/>
</g>
</g>
</svg>
