<?xml version="1.0" encoding="UTF-8" standalone="no"?>
<!DOCTYPE svg PUBLIC "-//W3C//DTD SVG 1.1//EN"
 "http://www.w3.org/Graphics/SVG/1.1/DTD/svg11.dtd">
<!-- Generated by graphviz version 2.36.0 (20140111.2315)
 -->
<!-- Title: view.ViewUpdater.clearScreen Pages: 1 -->
<!--zoomable 240 -->
<svg id="main" version="1.1" xmlns="http://www.w3.org/2000/svg" xmlns:xlink="http://www.w3.org/1999/xlink" xml:space="preserve" onload="init(evt)">
<style type="text/css"><![CDATA[
.edge:hover path { stroke: red; }
.edge:hover polygon { stroke: red; fill: red; }
]]></style>
<script type="text/javascript"><![CDATA[
var edges = document.getElementsByTagName('g');
if (edges && edges.length) {
  for (var i=0;i<edges.length;i++) {
    if (edges[i].id.substr(0,4)=='edge') {
      edges[i].setAttribute('class','edge');
    }
  }
}
]]></script>
        <defs>
                <circle id="rim" cx="0" cy="0" r="7"/>
                <circle id="rim2" cx="0" cy="0" r="3.5"/>
                <g id="zoomPlus">
                        <use xlink:href="#rim" fill="#404040">
                                <set attributeName="fill" to="#808080" begin="zoomplus.mouseover" end="zoomplus.mouseout"/>
                        </use>
                        <path d="M-4,0h8M0,-4v8" fill="none" stroke="white" stroke-width="1.5" pointer-events="none"/>
                </g>
                <g id="zoomMin">
                        <use xlink:href="#rim" fill="#404040">
                                <set attributeName="fill" to="#808080" begin="zoomminus.mouseover" end="zoomminus.mouseout"/>
                        </use>
                        <path d="M-4,0h8" fill="none" stroke="white" stroke-width="1.5" pointer-events="none"/>
                </g>
                <g id="dirArrow">
                        <path fill="none" stroke="white" stroke-width="1.5" d="M0,-3.0v7 M-2.5,-0.5L0,-3.0L2.5,-0.5"/>
                </g>
               <g id="resetDef">
                       <use xlink:href="#rim2" fill="#404040">
                               <set attributeName="fill" to="#808080" begin="reset.mouseover" end="reset.mouseout"/>
                       </use>
               </g>
        </defs>

<script type="text/javascript">
var viewWidth = 542;
var viewHeight = 240;
var sectionId = 'dynsection-3';
</script>
<script xlink:href="../../svgpan.js"/>
<svg id="graph" class="graph">
<g id="viewport">
<title>view.ViewUpdater.clearScreen</title>
<polygon fill="white" stroke="none" points="-4,4 -4,-236 538,-236 538,4 -4,4"/>
<!-- Node1 -->
<g id="node1" class="node"><title>Node1</title>
<polygon fill="#bfbfbf" stroke="black" points="0.5,-174.5 0.5,-193.5 159.5,-193.5 159.5,-174.5 0.5,-174.5"/>
<text text-anchor="middle" x="80" y="-181.5" font-family="Helvetica,sans-Serif" font-size="10.00">view.ViewUpdater.clearScreen</text>
</g>
<!-- Node2 -->
<g id="node2" class="node"><title>Node2</title>
<g id="a_node2"><a xlink:href="../../da/d64/classview_1_1_workspace.html#af056d219d5078e688731c51fb6da7c7e" target="_top" xlink:title="view.Workspace.clearLines">
<polygon fill="white" stroke="black" points="196.5,-212.5 196.5,-231.5 337.5,-231.5 337.5,-212.5 196.5,-212.5"/>
<text text-anchor="middle" x="267" y="-219.5" font-family="Helvetica,sans-Serif" font-size="10.00">view.Workspace.clearLines</text>
</a>
</g>
</g>
<!-- Node1&#45;&gt;Node2 -->
<g id="edge1" class="edge"><title>Node1&#45;&gt;Node2</title>
<path fill="none" stroke="midnightblue" d="M127.683,-193.589C152.646,-198.716 183.564,-205.067 209.834,-210.463"/>
<polygon fill="midnightblue" stroke="midnightblue" points="209.153,-213.896 219.652,-212.48 210.561,-207.039 209.153,-213.896"/>
</g>
<!-- Node3 -->
<g id="node3" class="node"><title>Node3</title>
<g id="a_node3"><a xlink:href="../../da/d64/classview_1_1_workspace.html#ad460da1164f039e5ea9a265d446d13fe" target="_top" xlink:title="view.Workspace.getTurtleMap">
<polygon fill="white" stroke="black" points="376.5,-190.5 376.5,-209.5 531.5,-209.5 531.5,-190.5 376.5,-190.5"/>
<text text-anchor="middle" x="454" y="-197.5" font-family="Helvetica,sans-Serif" font-size="10.00">view.Workspace.getTurtleMap</text>
</a>
</g>
</g>
<!-- Node1&#45;&gt;Node3 -->
<g id="edge2" class="edge"><title>Node1&#45;&gt;Node3</title>
<path fill="none" stroke="midnightblue" d="M159.892,-187.393C220.399,-189.996 303.847,-193.585 366.234,-196.268"/>
<polygon fill="midnightblue" stroke="midnightblue" points="366.309,-199.774 376.45,-196.708 366.61,-192.781 366.309,-199.774"/>
</g>
<!-- Node4 -->
<g id="node4" class="node"><title>Node4</title>
<g id="a_node4"><a xlink:href="../../d1/dc7/classview_1_1_side_bar.html#a7d73038dbba05f96990b60664afa2670" target="_top" xlink:title="view.SideBar.updateTurtle\lProperties">
<polygon fill="white" stroke="black" points="198,-109 198,-139 336,-139 336,-109 198,-109"/>
<text text-anchor="start" x="206" y="-127" font-family="Helvetica,sans-Serif" font-size="10.00">view.SideBar.updateTurtle</text>
<text text-anchor="middle" x="267" y="-116" font-family="Helvetica,sans-Serif" font-size="10.00">Properties</text>
</a>
</g>
</g>
<!-- Node1&#45;&gt;Node4 -->
<g id="edge3" class="edge"><title>Node1&#45;&gt;Node4</title>
<path fill="none" stroke="midnightblue" d="M110.314,-174.493C136.906,-165.868 176.843,-152.916 209.61,-142.289"/>
<polygon fill="midnightblue" stroke="midnightblue" points="211.093,-145.487 219.526,-139.073 208.934,-138.829 211.093,-145.487"/>
</g>
<!-- Node4&#45;&gt;Node3 -->
<g id="edge7" class="edge"><title>Node4&#45;&gt;Node3</title>
<path fill="none" stroke="midnightblue" d="M291.993,-139.222C312.941,-151.938 344.524,-169.747 374,-181 380.705,-183.56 387.864,-185.852 395.034,-187.883"/>
<polygon fill="midnightblue" stroke="midnightblue" points="394.209,-191.286 404.774,-190.49 396.019,-184.524 394.209,-191.286"/>
</g>
<!-- Node5 -->
<g id="node5" class="node"><title>Node5</title>
<g id="a_node5"><a xlink:href="../../d8/df7/classview_1_1_turtle_view.html#a5da3d4c9dafb77af0db0c589a72eadc8" target="_top" xlink:title="view.TurtleView.getHeading">
<polygon fill="white" stroke="black" points="382,-152.5 382,-171.5 526,-171.5 526,-152.5 382,-152.5"/>
<text text-anchor="middle" x="454" y="-159.5" font-family="Helvetica,sans-Serif" font-size="10.00">view.TurtleView.getHeading</text>
</a>
</g>
</g>
<!-- Node4&#45;&gt;Node5 -->
<g id="edge4" class="edge"><title>Node4&#45;&gt;Node5</title>
<path fill="none" stroke="midnightblue" d="M336.099,-137.988C356.01,-142.078 377.547,-146.501 396.644,-150.424"/>
<polygon fill="midnightblue" stroke="midnightblue" points="396.181,-153.902 406.68,-152.486 397.589,-147.045 396.181,-153.902"/>
</g>
<!-- Node6 -->
<g id="node6" class="node"><title>Node6</title>
<g id="a_node6"><a xlink:href="../../d8/df7/classview_1_1_turtle_view.html#ab5fdc3775e06339f4a68d1b795a81643" target="_top" xlink:title="view.TurtleView.getID">
<polygon fill="white" stroke="black" points="397,-114.5 397,-133.5 511,-133.5 511,-114.5 397,-114.5"/>
<text text-anchor="middle" x="454" y="-121.5" font-family="Helvetica,sans-Serif" font-size="10.00">view.TurtleView.getID</text>
</a>
</g>
</g>
<!-- Node4&#45;&gt;Node6 -->
<g id="edge5" class="edge"><title>Node4&#45;&gt;Node6</title>
<path fill="none" stroke="midnightblue" d="M336.099,-124C352.651,-124 370.325,-124 386.788,-124"/>
<polygon fill="midnightblue" stroke="midnightblue" points="386.861,-127.5 396.861,-124 386.861,-120.5 386.861,-127.5"/>
</g>
<!-- Node7 -->
<g id="node7" class="node"><title>Node7</title>
<g id="a_node7"><a xlink:href="../../d8/df7/classview_1_1_turtle_view.html#a85b9acc922cc69f27c79bf13e3356e09" target="_top" xlink:title="view.TurtleView.getPenPosition">
<polygon fill="white" stroke="black" points="374,-76.5 374,-95.5 534,-95.5 534,-76.5 374,-76.5"/>
<text text-anchor="middle" x="454" y="-83.5" font-family="Helvetica,sans-Serif" font-size="10.00">view.TurtleView.getPenPosition</text>
</a>
</g>
</g>
<!-- Node4&#45;&gt;Node7 -->
<g id="edge6" class="edge"><title>Node4&#45;&gt;Node7</title>
<path fill="none" stroke="midnightblue" d="M336.099,-110.012C356.01,-105.922 377.547,-101.499 396.644,-97.5759"/>
<polygon fill="midnightblue" stroke="midnightblue" points="397.589,-100.955 406.68,-95.5143 396.181,-94.098 397.589,-100.955"/>
</g>
<!-- Node8 -->
<g id="node8" class="node"><title>Node8</title>
<g id="a_node8"><a xlink:href="../../d8/df7/classview_1_1_turtle_view.html#afddbc74313a99bb100c8c50efa88f330" target="_top" xlink:title="view.TurtleView.getYCoord">
<polygon fill="white" stroke="black" points="385.5,-38.5 385.5,-57.5 522.5,-57.5 522.5,-38.5 385.5,-38.5"/>
<text text-anchor="middle" x="454" y="-45.5" font-family="Helvetica,sans-Serif" font-size="10.00">view.TurtleView.getYCoord</text>
</a>
</g>
</g>
<!-- Node4&#45;&gt;Node8 -->
<g id="edge8" class="edge"><title>Node4&#45;&gt;Node8</title>
<path fill="none" stroke="midnightblue" d="M291.993,-108.778C312.941,-96.0624 344.524,-78.2533 374,-67 380.705,-64.4403 387.864,-62.1476 395.034,-60.1169"/>
<polygon fill="midnightblue" stroke="midnightblue" points="396.019,-63.4764 404.774,-57.5096 394.209,-56.7145 396.019,-63.4764"/>
</g>
<!-- Node9 -->
<g id="node9" class="node"><title>Node9</title>
<g id="a_node9"><a xlink:href="../../d8/df7/classview_1_1_turtle_view.html#a5f7b22cd8ab69258535b18920a488b63" target="_top" xlink:title="view.TurtleView.isShowing">
<polygon fill="white" stroke="black" points="386,-0.5 386,-19.5 522,-19.5 522,-0.5 386,-0.5"/>
<text text-anchor="middle" x="454" y="-7.5" font-family="Helvetica,sans-Serif" font-size="10.00">view.TurtleView.isShowing</text>
</a>
</g>
</g>
<!-- Node4&#45;&gt;Node9 -->
<g id="edge9" class="edge"><title>Node4&#45;&gt;Node9</title>
<path fill="none" stroke="midnightblue" d="M280.37,-108.966C298.615,-87.8136 334.833,-49.5589 374,-29 378.491,-26.6428 383.278,-24.573 388.19,-22.7563"/>
<polygon fill="midnightblue" stroke="midnightblue" points="389.369,-26.0527 397.746,-19.5656 387.152,-19.4131 389.369,-26.0527"/>
</g>
</g>
</svg>
        <g id="navigator" transform="translate(0 0)" fill="#404254">
                <rect fill="#f2f5e9" fill-opacity="0.5" stroke="#606060" stroke-width=".5" x="0" y="0" width="60" height="60"/>
                <use id="zoomplus" xlink:href="#zoomPlus" x="17" y="9" onmousedown="handleZoom(evt,'in')"/>
                <use id="zoomminus" xlink:href="#zoomMin" x="42" y="9" onmousedown="handleZoom(evt,'out')"/>
                <use id="reset" xlink:href="#resetDef" x="30" y="36" onmousedown="handleReset()"/>
                <g id="arrowUp" xlink:href="#dirArrow" transform="translate(30 24)" onmousedown="handlePan(0,-1)">
                  <use xlink:href="#rim" fill="#404040">
                        <set attributeName="fill" to="#808080" begin="arrowUp.mouseover" end="arrowUp.mouseout"/>
                  </use>
                  <path fill="none" stroke="white" stroke-width="1.5" d="M0,-3.0v7 M-2.5,-0.5L0,-3.0L2.5,-0.5"/>
                </g>
                <g id="arrowRight" xlink:href="#dirArrow" transform="rotate(90) translate(36 -43)" onmousedown="handlePan(1,0)">
                  <use xlink:href="#rim" fill="#404040">
                        <set attributeName="fill" to="#808080" begin="arrowRight.mouseover" end="arrowRight.mouseout"/>
                  </use>
                  <path fill="none" stroke="white" stroke-width="1.5" d="M0,-3.0v7 M-2.5,-0.5L0,-3.0L2.5,-0.5"/>
                </g>
                <g id="arrowDown" xlink:href="#dirArrow" transform="rotate(180) translate(-30 -48)" onmousedown="handlePan(0,1)">
                  <use xlink:href="#rim" fill="#404040">
                        <set attributeName="fill" to="#808080" begin="arrowDown.mouseover" end="arrowDown.mouseout"/>
                  </use>
                  <path fill="none" stroke="white" stroke-width="1.5" d="M0,-3.0v7 M-2.5,-0.5L0,-3.0L2.5,-0.5"/>
                </g>
                <g id="arrowLeft" xlink:href="#dirArrow" transform="rotate(270) translate(-36 17)" onmousedown="handlePan(-1,0)">
                  <use xlink:href="#rim" fill="#404040">
                        <set attributeName="fill" to="#808080" begin="arrowLeft.mouseover" end="arrowLeft.mouseout"/>
                  </use>
                  <path fill="none" stroke="white" stroke-width="1.5" d="M0,-3.0v7 M-2.5,-0.5L0,-3.0L2.5,-0.5"/>
                </g>
        </g>
        <svg viewBox="0 0 15 15" width="100%" height="30px" preserveAspectRatio="xMaxYMin meet">
         <g id="arrow_out" transform="scale(0.3 0.3)">
          <a xlink:href="classview_1_1_view_updater_ace7ce28317856b4b454a798d1af23b38_cgraph_org.svg" target="_base">
           <rect id="button" ry="5" rx="5" y="6" x="6" height="38" width="38"
                fill="#f2f5e9" fill-opacity="0.5" stroke="#606060" stroke-width="1.0"/>
           <path id="arrow"
             d="M 11.500037,31.436501 C 11.940474,20.09759 22.043105,11.32322 32.158766,21.979434 L 37.068811,17.246167 C 37.068811,17.246167 37.088388,32 37.088388,32 L 22.160133,31.978069 C 22.160133,31.978069 26.997745,27.140456 26.997745,27.140456 C 18.528582,18.264221 13.291696,25.230495 11.500037,31.436501 z"
             style="fill:#404040;"/>
          </a>
         </g>
        </svg>
</svg>
