<?xml version="1.0" encoding="UTF-8" standalone="no"?>
<!DOCTYPE svg PUBLIC "-//W3C//DTD SVG 1.1//EN"
 "http://www.w3.org/Graphics/SVG/1.1/DTD/svg11.dtd">
<!-- Generated by graphviz version 2.36.0 (20140111.2315)
 -->
<!-- Title: controller.Main Pages: 1 -->
<svg width="476pt" height="164pt"
 viewBox="0.00 0.00 476.00 164.00" xmlns="http://www.w3.org/2000/svg" xmlns:xlink="http://www.w3.org/1999/xlink">
<g id="graph0" class="graph" transform="scale(1 1) rotate(0) translate(4 160)">
<title>controller.Main</title>
<polygon fill="white" stroke="none" points="-4,4 -4,-160 472,-160 472,4 -4,4"/>
<!-- Node1 -->
<g id="node1" class="node"><title>Node1</title>
<polygon fill="#bfbfbf" stroke="black" points="117,-0.5 117,-19.5 203,-19.5 203,-0.5 117,-0.5"/>
<text text-anchor="middle" x="160" y="-7.5" font-family="Helvetica,sans-Serif" font-size="10.00">controller.Main</text>
</g>
<!-- Node2 -->
<g id="node2" class="node"><title>Node2</title>
<polygon fill="white" stroke="#bfbfbf" points="94.5,-68.5 94.5,-87.5 163.5,-87.5 163.5,-68.5 94.5,-68.5"/>
<text text-anchor="middle" x="129" y="-75.5" font-family="Helvetica,sans-Serif" font-size="10.00">Application</text>
</g>
<!-- Node2&#45;&gt;Node1 -->
<g id="edge1" class="edge"><title>Node2&#45;&gt;Node1</title>
<path fill="none" stroke="midnightblue" d="M137.367,-59.1859C143.348,-46.4523 151.141,-29.8607 155.847,-19.8411"/>
<polygon fill="midnightblue" stroke="midnightblue" points="134.136,-57.8324 133.053,-68.3717 140.472,-60.8083 134.136,-57.8324"/>
</g>
<!-- Node3 -->
<g id="node3" class="node"><title>Node3</title>
<g id="a_node3"><a xlink:href="../../d1/d75/classview_1_1_main_view.html" target="_top" xlink:title="view.MainView">
<polygon fill="white" stroke="black" points="181.5,-68.5 181.5,-87.5 264.5,-87.5 264.5,-68.5 181.5,-68.5"/>
<text text-anchor="middle" x="223" y="-75.5" font-family="Helvetica,sans-Serif" font-size="10.00">view.MainView</text>
</a>
</g>
</g>
<!-- Node3&#45;&gt;Node1 -->
<g id="edge2" class="edge"><title>Node3&#45;&gt;Node1</title>
<path fill="none" stroke="#9a32cd" stroke-dasharray="5,2" d="M207.773,-61.0474C195.424,-48.1111 178.477,-30.3567 168.439,-19.8411"/>
<polygon fill="#9a32cd" stroke="#9a32cd" points="205.327,-63.5547 214.764,-68.3717 210.391,-58.7214 205.327,-63.5547"/>
<text text-anchor="middle" x="218" y="-41.5" font-family="Helvetica,sans-Serif" font-size="10.00"> myView</text>
</g>
<!-- Node4 -->
<g id="node4" class="node"><title>Node4</title>
<polygon fill="white" stroke="#bfbfbf" points="-0.5,-136.5 -0.5,-155.5 44.5,-155.5 44.5,-136.5 -0.5,-136.5"/>
<text text-anchor="middle" x="22" y="-143.5" font-family="Helvetica,sans-Serif" font-size="10.00">Stage</text>
</g>
<!-- Node4&#45;&gt;Node3 -->
<g id="edge3" class="edge"><title>Node4&#45;&gt;Node3</title>
<path fill="none" stroke="#9a32cd" stroke-dasharray="5,2" d="M42.0486,-130.239C54.2044,-121.954 70.3453,-112.089 86,-106 94.8679,-102.551 144.386,-93.1773 181.36,-86.4432"/>
<polygon fill="#9a32cd" stroke="#9a32cd" points="39.7704,-127.562 33.6038,-136.177 43.7971,-133.288 39.7704,-127.562"/>
<text text-anchor="middle" x="109.5" y="-109.5" font-family="Helvetica,sans-Serif" font-size="10.00"> myStage</text>
</g>
<!-- Node5 -->
<g id="node5" class="node"><title>Node5</title>
<polygon fill="white" stroke="#bfbfbf" points="62.5,-136.5 62.5,-155.5 155.5,-155.5 155.5,-136.5 62.5,-136.5"/>
<text text-anchor="middle" x="109" y="-143.5" font-family="Helvetica,sans-Serif" font-size="10.00">ResourceBundle</text>
</g>
<!-- Node5&#45;&gt;Node3 -->
<g id="edge4" class="edge"><title>Node5&#45;&gt;Node3</title>
<path fill="none" stroke="#9a32cd" stroke-dasharray="5,2" d="M123.783,-129.027C131.597,-121.286 141.69,-112.322 152,-106 164.704,-98.2106 180.026,-92.0371 193.18,-87.5707"/>
<polygon fill="#9a32cd" stroke="#9a32cd" points="121.259,-126.602 116.806,-136.216 126.282,-131.478 121.259,-126.602"/>
<text text-anchor="middle" x="185.5" y="-109.5" font-family="Helvetica,sans-Serif" font-size="10.00"> myResources</text>
</g>
<!-- Node6 -->
<g id="node6" class="node"><title>Node6</title>
<g id="a_node6"><a xlink:href="../../d4/de2/classview_1_1_scene_setter.html" target="_top" xlink:title="view.SceneSetter">
<polygon fill="white" stroke="black" points="173.5,-136.5 173.5,-155.5 272.5,-155.5 272.5,-136.5 173.5,-136.5"/>
<text text-anchor="middle" x="223" y="-143.5" font-family="Helvetica,sans-Serif" font-size="10.00">view.SceneSetter</text>
</a>
</g>
</g>
<!-- Node6&#45;&gt;Node3 -->
<g id="edge5" class="edge"><title>Node6&#45;&gt;Node3</title>
<path fill="none" stroke="#9a32cd" stroke-dasharray="5,2" d="M223,-126.041C223,-113.472 223,-97.5631 223,-87.8411"/>
<polygon fill="#9a32cd" stroke="#9a32cd" points="219.5,-126.372 223,-136.372 226.5,-126.372 219.5,-126.372"/>
<text text-anchor="middle" x="262.5" y="-109.5" font-family="Helvetica,sans-Serif" font-size="10.00"> mySceneSetter</text>
</g>
<!-- Node7 -->
<g id="node7" class="node"><title>Node7</title>
<polygon fill="white" stroke="#bfbfbf" points="290.5,-136.5 290.5,-155.5 371.5,-155.5 371.5,-136.5 290.5,-136.5"/>
<text text-anchor="middle" x="331" y="-143.5" font-family="Helvetica,sans-Serif" font-size="10.00">Dimension2D</text>
</g>
<!-- Node7&#45;&gt;Node3 -->
<g id="edge6" class="edge"><title>Node7&#45;&gt;Node3</title>
<path fill="none" stroke="#9a32cd" stroke-dasharray="5,2" d="M323.006,-127.216C318.87,-119.752 313.17,-111.537 306,-106 294.007,-96.7378 278.719,-90.5919 264.54,-86.5409"/>
<polygon fill="#9a32cd" stroke="#9a32cd" points="319.943,-128.917 327.534,-136.308 326.209,-125.796 319.943,-128.917"/>
<text text-anchor="middle" x="355.5" y="-109.5" font-family="Helvetica,sans-Serif" font-size="10.00"> myDimensions</text>
</g>
<!-- Node8 -->
<g id="node8" class="node"><title>Node8</title>
<polygon fill="white" stroke="#bfbfbf" points="398,-136.5 398,-155.5 454,-155.5 454,-136.5 398,-136.5"/>
<text text-anchor="middle" x="426" y="-143.5" font-family="Helvetica,sans-Serif" font-size="10.00">TabPane</text>
</g>
<!-- Node8&#45;&gt;Node3 -->
<g id="edge7" class="edge"><title>Node8&#45;&gt;Node3</title>
<path fill="none" stroke="#9a32cd" stroke-dasharray="5,2" d="M417.061,-127.42C412.19,-119.623 405.424,-111.08 397,-106 375.338,-92.9361 308.962,-85.479 264.74,-81.8392"/>
<polygon fill="#9a32cd" stroke="#9a32cd" points="414.092,-129.281 422.047,-136.278 420.192,-125.847 414.092,-129.281"/>
<text text-anchor="middle" x="439" y="-109.5" font-family="Helvetica,sans-Serif" font-size="10.00"> myTabPane</text>
</g>
</g>
</svg>
