<?xml version="1.0" encoding="UTF-8" standalone="no"?>
<!DOCTYPE svg PUBLIC "-//W3C//DTD SVG 1.1//EN"
 "http://www.w3.org/Graphics/SVG/1.1/DTD/svg11.dtd">
<!-- Generated by graphviz version 2.36.0 (20140111.2315)
 -->
<!-- Title: model.instructions.FrontEndInstruction Pages: 1 -->
<!--zoomable 853 -->
<svg id="main" version="1.1" xmlns="http://www.w3.org/2000/svg" xmlns:xlink="http://www.w3.org/1999/xlink" xml:space="preserve" onload="init(evt)">
<style type="text/css"><![CDATA[
.edge:hover path { stroke: red; }
.edge:hover polygon { stroke: red; fill: red; }
]]></style>
<script type="text/javascript"><![CDATA[
var edges = document.getElementsByTagName('g');
if (edges && edges.length) {
  for (var i=0;i<edges.length;i++) {
    if (edges[i].id.substr(0,4)=='edge') {
      edges[i].setAttribute('class','edge');
    }
  }
}
]]></script>
        <defs>
                <circle id="rim" cx="0" cy="0" r="7"/>
                <circle id="rim2" cx="0" cy="0" r="3.5"/>
                <g id="zoomPlus">
                        <use xlink:href="#rim" fill="#404040">
                                <set attributeName="fill" to="#808080" begin="zoomplus.mouseover" end="zoomplus.mouseout"/>
                        </use>
                        <path d="M-4,0h8M0,-4v8" fill="none" stroke="white" stroke-width="1.5" pointer-events="none"/>
                </g>
                <g id="zoomMin">
                        <use xlink:href="#rim" fill="#404040">
                                <set attributeName="fill" to="#808080" begin="zoomminus.mouseover" end="zoomminus.mouseout"/>
                        </use>
                        <path d="M-4,0h8" fill="none" stroke="white" stroke-width="1.5" pointer-events="none"/>
                </g>
                <g id="dirArrow">
                        <path fill="none" stroke="white" stroke-width="1.5" d="M0,-3.0v7 M-2.5,-0.5L0,-3.0L2.5,-0.5"/>
                </g>
               <g id="resetDef">
                       <use xlink:href="#rim2" fill="#404040">
                               <set attributeName="fill" to="#808080" begin="reset.mouseover" end="reset.mouseout"/>
                       </use>
               </g>
        </defs>

<script type="text/javascript">
var viewWidth = 1746;
var viewHeight = 853;
var sectionId = 'dynsection-1';
</script>
<script xlink:href="../../svgpan.js"/>
<svg id="graph" class="graph">
<g id="viewport">
<title>model.instructions.FrontEndInstruction</title>
<polygon fill="white" stroke="none" points="-4,4 -4,-849.201 1742,-849.201 1742,4 -4,4"/>
<!-- Node1 -->
<g id="node1" class="node"><title>Node1</title>
<polygon fill="#bfbfbf" stroke="black" points="968,-708.201 968,-738.201 1100,-738.201 1100,-708.201 968,-708.201"/>
<text text-anchor="start" x="976" y="-726.201" font-family="Helvetica,sans-Serif" font-size="10.00">model.instructions.Front</text>
<text text-anchor="middle" x="1034" y="-715.201" font-family="Helvetica,sans-Serif" font-size="10.00">EndInstruction</text>
</g>
<!-- Node2 -->
<g id="node2" class="node"><title>Node2</title>
<g id="a_node2"><a xlink:href="../../d1/dea/classmodel_1_1instructions_1_1_instruction.html" target="_top" xlink:title="model.instructions.Instruction">
<polygon fill="white" stroke="black" points="646,-713.701 646,-732.701 804,-732.701 804,-713.701 646,-713.701"/>
<text text-anchor="middle" x="725" y="-720.701" font-family="Helvetica,sans-Serif" font-size="10.00">model.instructions.Instruction</text>
</a>
</g>
</g>
<!-- Node2&#45;&gt;Node1 -->
<g id="edge1" class="edge"><title>Node2&#45;&gt;Node1</title>
<path fill="none" stroke="midnightblue" d="M814.532,-723.201C863.468,-723.201 923.206,-723.201 967.839,-723.201"/>
<polygon fill="midnightblue" stroke="midnightblue" points="814.263,-719.701 804.263,-723.201 814.263,-726.701 814.263,-719.701"/>
</g>
<!-- Node3 -->
<g id="node3" class="node"><title>Node3</title>
<polygon fill="white" stroke="#bfbfbf" points="57,-491.701 57,-510.701 117,-510.701 117,-491.701 57,-491.701"/>
<text text-anchor="middle" x="87" y="-498.701" font-family="Helvetica,sans-Serif" font-size="10.00">Observer</text>
</g>
<!-- Node3&#45;&gt;Node2 -->
<g id="edge2" class="edge"><title>Node3&#45;&gt;Node2</title>
<path fill="none" stroke="midnightblue" d="M112.207,-515.948C153.775,-540.73 241.991,-590.978 322,-621.201 443.244,-667 592.731,-698.821 670.804,-713.679"/>
<polygon fill="midnightblue" stroke="midnightblue" points="113.975,-512.927 103.599,-510.781 110.372,-518.929 113.975,-512.927"/>
</g>
<!-- Node9 -->
<g id="node9" class="node"><title>Node9</title>
<g id="a_node9"><a xlink:href="../../d4/d64/classview_1_1_view_updater.html" target="_top" xlink:title="view.ViewUpdater">
<polygon fill="white" stroke="black" points="351,-443.701 351,-462.701 451,-462.701 451,-443.701 351,-443.701"/>
<text text-anchor="middle" x="401" y="-450.701" font-family="Helvetica,sans-Serif" font-size="10.00">view.ViewUpdater</text>
</a>
</g>
</g>
<!-- Node3&#45;&gt;Node9 -->
<g id="edge9" class="edge"><title>Node3&#45;&gt;Node9</title>
<path fill="none" stroke="midnightblue" d="M127.079,-495.189C183.8,-486.463 288.905,-470.293 350.82,-460.767"/>
<polygon fill="midnightblue" stroke="midnightblue" points="126.424,-491.748 117.072,-496.728 127.488,-498.667 126.424,-491.748"/>
</g>
<!-- Node21 -->
<g id="node21" class="node"><title>Node21</title>
<g id="a_node21"><a xlink:href="../../dc/df5/classmodel_1_1_parser.html" target="_top" xlink:title="model.Parser">
<polygon fill="white" stroke="black" points="685,-581.701 685,-600.701 765,-600.701 765,-581.701 685,-581.701"/>
<text text-anchor="middle" x="725" y="-588.701" font-family="Helvetica,sans-Serif" font-size="10.00">model.Parser</text>
</a>
</g>
</g>
<!-- Node3&#45;&gt;Node21 -->
<g id="edge25" class="edge"><title>Node3&#45;&gt;Node21</title>
<path fill="none" stroke="midnightblue" d="M127.209,-499.452C234.48,-495.196 530.729,-487.132 620,-523.201 629.924,-527.211 629.384,-532.85 638,-539.201 660.33,-555.662 688.097,-571.735 705.934,-581.552"/>
<polygon fill="midnightblue" stroke="midnightblue" points="126.985,-495.958 117.136,-499.863 127.271,-502.952 126.985,-495.958"/>
</g>
<!-- Node4 -->
<g id="node4" class="node"><title>Node4</title>
<g id="a_node4"><a xlink:href="../../d1/dca/classmodel_1_1_execution_environment.html" target="_top" xlink:title="model.ExecutionEnvironment">
<polygon fill="white" stroke="black" points="322.5,-725.701 322.5,-744.701 479.5,-744.701 479.5,-725.701 322.5,-725.701"/>
<text text-anchor="middle" x="401" y="-732.701" font-family="Helvetica,sans-Serif" font-size="10.00">model.ExecutionEnvironment</text>
</a>
</g>
</g>
<!-- Node4&#45;&gt;Node2 -->
<g id="edge3" class="edge"><title>Node4&#45;&gt;Node2</title>
<path fill="none" stroke="#9a32cd" stroke-dasharray="5,2" d="M489.755,-731.931C538.493,-730.114 598.611,-727.874 645.74,-726.118"/>
<polygon fill="#9a32cd" stroke="#9a32cd" points="489.399,-728.441 479.537,-732.311 489.66,-735.437 489.399,-728.441"/>
<text text-anchor="middle" x="559" y="-735.201" font-family="Helvetica,sans-Serif" font-size="10.00"> myEnvironment</text>
</g>
<!-- Node17 -->
<g id="node17" class="node"><title>Node17</title>
<g id="a_node17"><a xlink:href="../../d1/dc7/classview_1_1_side_bar.html" target="_top" xlink:title="view.SideBar">
<polygon fill="white" stroke="black" points="995.5,-432.701 995.5,-451.701 1072.5,-451.701 1072.5,-432.701 995.5,-432.701"/>
<text text-anchor="middle" x="1034" y="-439.701" font-family="Helvetica,sans-Serif" font-size="10.00">view.SideBar</text>
</a>
</g>
</g>
<!-- Node4&#45;&gt;Node17 -->
<g id="edge22" class="edge"><title>Node4&#45;&gt;Node17</title>
<path fill="none" stroke="#9a32cd" stroke-dasharray="5,2" d="M455.455,-723.523C586.273,-694.475 914.327,-618.614 948,-581.201 979.674,-546.009 937.896,-514.305 966,-476.201 974.362,-464.864 987.593,-457.041 1000.1,-451.785"/>
<polygon fill="#9a32cd" stroke="#9a32cd" points="454.648,-720.117 445.641,-725.697 456.161,-726.951 454.648,-720.117"/>
<text text-anchor="middle" x="725" y="-683.201" font-family="Helvetica,sans-Serif" font-size="10.00"> myEnvironment</text>
</g>
<!-- Node4&#45;&gt;Node21 -->
<g id="edge27" class="edge"><title>Node4&#45;&gt;Node21</title>
<path fill="none" stroke="#9a32cd" stroke-dasharray="5,2" d="M414.231,-717.16C430.546,-694.617 461.634,-656.646 498,-637.201 546.658,-611.183 565.944,-625.271 620,-614.201 641.377,-609.823 665.143,-604.595 684.554,-600.23"/>
<polygon fill="#9a32cd" stroke="#9a32cd" points="411.247,-715.318 408.354,-725.51 416.972,-719.347 411.247,-715.318"/>
<text text-anchor="middle" x="559" y="-640.201" font-family="Helvetica,sans-Serif" font-size="10.00"> myExecutionParameters</text>
</g>
<!-- Node24 -->
<g id="node24" class="node"><title>Node24</title>
<g id="a_node24"><a xlink:href="../../d6/de7/classview_1_1_s_logo_view.html" target="_top" xlink:title="view.SLogoView">
<polygon fill="white" stroke="black" points="1646.5,-257.701 1646.5,-276.701 1737.5,-276.701 1737.5,-257.701 1646.5,-257.701"/>
<text text-anchor="middle" x="1692" y="-264.701" font-family="Helvetica,sans-Serif" font-size="10.00">view.SLogoView</text>
</a>
</g>
</g>
<!-- Node4&#45;&gt;Node24 -->
<g id="edge41" class="edge"><title>Node4&#45;&gt;Node24</title>
<path fill="none" stroke="#9a32cd" stroke-dasharray="5,2" d="M471.904,-746.178C536.995,-755.44 636.813,-767.201 724,-767.201 724,-767.201 724,-767.201 1475,-767.201 1553.67,-767.201 1583.71,-743.216 1628,-678.201 1674.74,-609.593 1688.35,-332.51 1690.63,-276.935"/>
<polygon fill="#9a32cd" stroke="#9a32cd" points="472.16,-742.679 461.763,-744.715 471.161,-749.607 472.16,-742.679"/>
<text text-anchor="middle" x="1160" y="-770.201" font-family="Helvetica,sans-Serif" font-size="10.00"> myEnvironment</text>
</g>
<!-- Node5 -->
<g id="node5" class="node"><title>Node5</title>
<polygon fill="white" stroke="#bfbfbf" points="51.5,-697.701 51.5,-716.701 122.5,-716.701 122.5,-697.701 51.5,-697.701"/>
<text text-anchor="middle" x="87" y="-704.701" font-family="Helvetica,sans-Serif" font-size="10.00">Observable</text>
</g>
<!-- Node5&#45;&gt;Node4 -->
<g id="edge4" class="edge"><title>Node5&#45;&gt;Node4</title>
<path fill="none" stroke="midnightblue" d="M132.637,-711.207C182.066,-715.643 262.658,-722.875 322.457,-728.242"/>
<polygon fill="midnightblue" stroke="midnightblue" points="132.854,-707.712 122.582,-710.304 132.229,-714.684 132.854,-707.712"/>
</g>
<!-- Node6 -->
<g id="node6" class="node"><title>Node6</title>
<polygon fill="white" stroke="#bfbfbf" points="42.5,-823.701 42.5,-842.701 131.5,-842.701 131.5,-823.701 42.5,-823.701"/>
<text text-anchor="middle" x="87" y="-830.701" font-family="Helvetica,sans-Serif" font-size="10.00">Set&lt; Integer &gt;</text>
</g>
<!-- Node6&#45;&gt;Node4 -->
<g id="edge5" class="edge"><title>Node6&#45;&gt;Node4</title>
<path fill="none" stroke="#9a32cd" stroke-dasharray="5,2" d="M141.747,-830.652C187.052,-826.699 252.536,-816.657 304,-791.201 313.594,-786.455 313.167,-781.247 322,-775.201 339.707,-763.081 361.571,-752.177 377.641,-744.827"/>
<polygon fill="#9a32cd" stroke="#9a32cd" points="141.232,-827.182 131.543,-831.47 141.791,-834.16 141.232,-827.182"/>
<text text-anchor="middle" x="248" y="-837.201" font-family="Helvetica,sans-Serif" font-size="10.00"> myTurtleList</text>
<text text-anchor="middle" x="248" y="-826.201" font-family="Helvetica,sans-Serif" font-size="10.00">activeTurtleList</text>
</g>
<!-- Node7 -->
<g id="node7" class="node"><title>Node7</title>
<polygon fill="white" stroke="#bfbfbf" points="0,-774.201 0,-804.201 174,-804.201 174,-774.201 0,-774.201"/>
<text text-anchor="start" x="8" y="-792.201" font-family="Helvetica,sans-Serif" font-size="10.00">Map&lt; String, model.instructions.</text>
<text text-anchor="middle" x="87" y="-781.201" font-family="Helvetica,sans-Serif" font-size="10.00">Instruction &gt;</text>
</g>
<!-- Node7&#45;&gt;Node4 -->
<g id="edge6" class="edge"><title>Node7&#45;&gt;Node4</title>
<path fill="none" stroke="#9a32cd" stroke-dasharray="5,2" d="M184.099,-776.607C221.618,-771.261 264.929,-764.56 304,-757.201 322.988,-753.625 343.917,-748.919 361.375,-744.778"/>
<polygon fill="#9a32cd" stroke="#9a32cd" points="183.599,-773.142 174.187,-778.007 184.578,-780.074 183.599,-773.142"/>
<text text-anchor="middle" x="248" y="-779.201" font-family="Helvetica,sans-Serif" font-size="10.00"> myUserInstructionMap</text>
</g>
<!-- Node8 -->
<g id="node8" class="node"><title>Node8</title>
<polygon fill="white" stroke="#bfbfbf" points="23,-735.701 23,-754.701 151,-754.701 151,-735.701 23,-735.701"/>
<text text-anchor="middle" x="87" y="-742.701" font-family="Helvetica,sans-Serif" font-size="10.00">Map&lt; String, Double &gt;</text>
</g>
<!-- Node8&#45;&gt;Node4 -->
<g id="edge7" class="edge"><title>Node8&#45;&gt;Node4</title>
<path fill="none" stroke="#9a32cd" stroke-dasharray="5,2" d="M161.23,-742.854C209.637,-741.302 273.011,-739.271 322.303,-737.691"/>
<polygon fill="#9a32cd" stroke="#9a32cd" points="161.021,-739.359 151.138,-743.177 161.245,-746.355 161.021,-739.359"/>
<text text-anchor="middle" x="248" y="-745.201" font-family="Helvetica,sans-Serif" font-size="10.00"> myVariableMap</text>
</g>
<!-- Node9&#45;&gt;Node2 -->
<g id="edge8" class="edge"><title>Node9&#45;&gt;Node2</title>
<path fill="none" stroke="#9a32cd" stroke-dasharray="5,2" d="M423.006,-468.833C439.491,-481.646 462.499,-500.775 480,-520.201 489.407,-530.643 486.549,-538.052 498,-546.201 543.86,-578.839 581.424,-539.21 620,-580.201 646.166,-608.006 616.748,-632.481 638,-664.201 653.52,-687.366 681.489,-704.012 701.313,-713.598"/>
<polygon fill="#9a32cd" stroke="#9a32cd" points="425.113,-466.037 415.044,-462.74 420.859,-471.596 425.113,-466.037"/>
<text text-anchor="middle" x="559" y="-583.201" font-family="Helvetica,sans-Serif" font-size="10.00"> myViewUpdater</text>
</g>
<!-- Node9&#45;&gt;Node21 -->
<g id="edge28" class="edge"><title>Node9&#45;&gt;Node21</title>
<path fill="none" stroke="#9a32cd" stroke-dasharray="5,2" d="M461.326,-456.073C521.686,-459.527 608.036,-466.148 620,-476.201 642.295,-494.934 620.316,-516.065 638,-539.201 653.364,-559.301 678.913,-573.314 698.181,-581.687"/>
<polygon fill="#9a32cd" stroke="#9a32cd" points="461.31,-452.566 451.131,-455.505 460.92,-459.555 461.31,-452.566"/>
<text text-anchor="middle" x="559" y="-479.201" font-family="Helvetica,sans-Serif" font-size="10.00"> myViewUpdater</text>
</g>
<!-- Node10 -->
<g id="node10" class="node"><title>Node10</title>
<g id="a_node10"><a xlink:href="../../da/d64/classview_1_1_workspace.html" target="_top" xlink:title="view.Workspace">
<polygon fill="white" stroke="black" points="1218,-246.701 1218,-265.701 1308,-265.701 1308,-246.701 1218,-246.701"/>
<text text-anchor="middle" x="1263" y="-253.701" font-family="Helvetica,sans-Serif" font-size="10.00">view.Workspace</text>
</a>
</g>
</g>
<!-- Node10&#45;&gt;Node9 -->
<g id="edge10" class="edge"><title>Node10&#45;&gt;Node9</title>
<path fill="none" stroke="#9a32cd" stroke-dasharray="5,2" d="M1207.79,-260.827C1205.16,-260.972 1202.55,-261.098 1200,-261.201 1164.47,-262.631 1155.55,-261.778 1120,-261.201 1051.53,-260.09 1028.83,-283.431 966,-256.201 955.619,-251.702 958.453,-242.531 948,-238.201 820.297,-185.305 765.116,-208.908 638,-263.201 533.998,-307.621 438.227,-411.444 410.218,-443.56"/>
<polygon fill="#9a32cd" stroke="#9a32cd" points="1208.23,-264.307 1218,-260.189 1207.8,-257.32 1208.23,-264.307"/>
<text text-anchor="middle" x="889" y="-241.201" font-family="Helvetica,sans-Serif" font-size="10.00"> myWorkspace</text>
</g>
<!-- Node10&#45;&gt;Node24 -->
<g id="edge31" class="edge"><title>Node10&#45;&gt;Node24</title>
<path fill="none" stroke="#9a32cd" stroke-dasharray="5,2" d="M1318.34,-257.601C1403.6,-259.797 1567.23,-264.012 1646.19,-266.047"/>
<polygon fill="#9a32cd" stroke="#9a32cd" points="1318.18,-254.096 1308.09,-257.337 1317.99,-261.093 1318.18,-254.096"/>
<text text-anchor="middle" x="1474" y="-266.201" font-family="Helvetica,sans-Serif" font-size="10.00"> myWorkspace</text>
</g>
<!-- Node32 -->
<g id="node32" class="node"><title>Node32</title>
<g id="a_node32"><a xlink:href="../../de/d0a/classview_1_1_drawer.html" target="_top" xlink:title="view.Drawer">
<polygon fill="white" stroke="black" points="1437.5,-204.701 1437.5,-223.701 1510.5,-223.701 1510.5,-204.701 1437.5,-204.701"/>
<text text-anchor="middle" x="1474" y="-211.701" font-family="Helvetica,sans-Serif" font-size="10.00">view.Drawer</text>
</a>
</g>
</g>
<!-- Node10&#45;&gt;Node32 -->
<g id="edge45" class="edge"><title>Node10&#45;&gt;Node32</title>
<path fill="none" stroke="#9a32cd" stroke-dasharray="5,2" d="M1315.08,-244.523C1318.77,-243.723 1322.44,-242.941 1326,-242.201 1363.9,-234.315 1407.48,-226.124 1437.29,-220.654"/>
<polygon fill="#9a32cd" stroke="#9a32cd" points="1314.33,-241.105 1305.31,-246.668 1315.83,-247.942 1314.33,-241.105"/>
<text text-anchor="middle" x="1361" y="-245.201" font-family="Helvetica,sans-Serif" font-size="10.00"> myWorkspace</text>
</g>
<!-- Node11 -->
<g id="node11" class="node"><title>Node11</title>
<polygon fill="white" stroke="#bfbfbf" points="1000.5,-139.701 1000.5,-158.701 1067.5,-158.701 1067.5,-139.701 1000.5,-139.701"/>
<text text-anchor="middle" x="1034" y="-146.701" font-family="Helvetica,sans-Serif" font-size="10.00">StackPane</text>
</g>
<!-- Node11&#45;&gt;Node10 -->
<g id="edge11" class="edge"><title>Node11&#45;&gt;Node10</title>
<path fill="none" stroke="midnightblue" d="M1077.71,-157.267C1112.86,-165.401 1162.76,-180.511 1200,-206.201 1209.84,-212.992 1209,-218.332 1218,-226.201 1226.63,-233.745 1237.23,-241.019 1245.85,-246.515"/>
<polygon fill="midnightblue" stroke="midnightblue" points="1078.28,-153.808 1067.76,-155.058 1076.77,-160.642 1078.28,-153.808"/>
</g>
<!-- Node12 -->
<g id="node12" class="node"><title>Node12</title>
<polygon fill="white" stroke="#bfbfbf" points="678.5,-100.701 678.5,-119.701 771.5,-119.701 771.5,-100.701 678.5,-100.701"/>
<text text-anchor="middle" x="725" y="-107.701" font-family="Helvetica,sans-Serif" font-size="10.00">ResourceBundle</text>
</g>
<!-- Node12&#45;&gt;Node10 -->
<g id="edge12" class="edge"><title>Node12&#45;&gt;Node10</title>
<path fill="none" stroke="#9a32cd" stroke-dasharray="5,2" d="M781.712,-104.326C855.953,-98.12 990.875,-92.5294 1102,-119.201 1148.97,-130.475 1168.6,-129.49 1200,-166.201 1218.1,-187.359 1201.55,-203.736 1218,-226.201 1224.23,-234.706 1233.63,-241.585 1242.15,-246.6"/>
<polygon fill="#9a32cd" stroke="#9a32cd" points="781.307,-100.848 771.648,-105.203 781.914,-107.822 781.307,-100.848"/>
<text text-anchor="middle" x="1034" y="-122.201" font-family="Helvetica,sans-Serif" font-size="10.00"> myResources</text>
</g>
<!-- Node12&#45;&gt;Node17 -->
<g id="edge21" class="edge"><title>Node12&#45;&gt;Node17</title>
<path fill="none" stroke="#9a32cd" stroke-dasharray="5,2" d="M735.555,-129.028C751.456,-158.687 785.997,-216.48 830,-251.201 874.714,-286.484 911.051,-257.853 948,-301.201 969.677,-326.632 949.691,-345.035 966,-374.201 979.751,-398.792 1004.78,-420.71 1020.05,-432.66"/>
<polygon fill="#9a32cd" stroke="#9a32cd" points="738.46,-127.031 730.723,-119.794 732.258,-130.277 738.46,-127.031"/>
<text text-anchor="middle" x="889" y="-304.201" font-family="Helvetica,sans-Serif" font-size="10.00"> myResources</text>
</g>
<!-- Node12&#45;&gt;Node24 -->
<g id="edge33" class="edge"><title>Node12&#45;&gt;Node24</title>
<path fill="none" stroke="#9a32cd" stroke-dasharray="5,2" d="M781.68,-100.67C797.267,-98.4109 814.253,-96.3308 830,-95.201 882.31,-91.4481 895.557,-94.8605 948,-95.201 1016.45,-95.6455 1034.03,-89.1405 1102,-97.201 1297.51,-120.385 1343.31,-146.227 1534,-195.201 1576.1,-206.013 1588.86,-203.295 1628,-222.201 1647.85,-231.789 1668.12,-247.56 1680.13,-257.658"/>
<polygon fill="#9a32cd" stroke="#9a32cd" points="781.036,-97.2271 771.666,-102.172 782.075,-104.15 781.036,-97.2271"/>
<text text-anchor="middle" x="1263" y="-137.201" font-family="Helvetica,sans-Serif" font-size="10.00"> myResources</text>
</g>
<!-- Node13 -->
<g id="node13" class="node"><title>Node13</title>
<g id="a_node13"><a xlink:href="../../d8/df7/classview_1_1_turtle_view.html" target="_top" xlink:title="view.TurtleView">
<polygon fill="white" stroke="black" points="991,-303.701 991,-322.701 1077,-322.701 1077,-303.701 991,-303.701"/>
<text text-anchor="middle" x="1034" y="-310.701" font-family="Helvetica,sans-Serif" font-size="10.00">view.TurtleView</text>
</a>
</g>
</g>
<!-- Node13&#45;&gt;Node10 -->
<g id="edge13" class="edge"><title>Node13&#45;&gt;Node10</title>
<path fill="none" stroke="#9a32cd" stroke-dasharray="5,2" d="M1087.6,-310.185C1120.54,-307.171 1163.51,-301.162 1200,-289.201 1217.15,-283.579 1235.19,-273.428 1247.36,-265.864"/>
<polygon fill="#9a32cd" stroke="#9a32cd" points="1086.94,-306.728 1077.27,-311.063 1087.53,-313.703 1086.94,-306.728"/>
<text text-anchor="middle" x="1160" y="-310.201" font-family="Helvetica,sans-Serif" font-size="10.00"> myActiveTurtle</text>
</g>
<!-- Node14 -->
<g id="node14" class="node"><title>Node14</title>
<polygon fill="white" stroke="#bfbfbf" points="691,-272.701 691,-291.701 759,-291.701 759,-272.701 691,-272.701"/>
<text text-anchor="middle" x="725" y="-279.701" font-family="Helvetica,sans-Serif" font-size="10.00">ImageView</text>
</g>
<!-- Node14&#45;&gt;Node13 -->
<g id="edge14" class="edge"><title>Node14&#45;&gt;Node13</title>
<path fill="none" stroke="midnightblue" d="M769.232,-286.566C828.085,-292.509 932.74,-303.077 990.965,-308.956"/>
<polygon fill="midnightblue" stroke="midnightblue" points="769.447,-283.07 759.146,-285.548 768.744,-290.035 769.447,-283.07"/>
</g>
<!-- Node15 -->
<g id="node15" class="node"><title>Node15</title>
<polygon fill="white" stroke="#bfbfbf" points="702,-310.701 702,-329.701 748,-329.701 748,-310.701 702,-310.701"/>
<text text-anchor="middle" x="725" y="-317.701" font-family="Helvetica,sans-Serif" font-size="10.00">Group</text>
</g>
<!-- Node15&#45;&gt;Node10 -->
<g id="edge17" class="edge"><title>Node15&#45;&gt;Node10</title>
<path fill="none" stroke="#9a32cd" stroke-dasharray="5,2" d="M758.299,-325.289C778.782,-328.255 805.874,-331.699 830,-333.201 994.199,-343.424 1052.52,-395.115 1200,-322.201 1225.93,-309.381 1246.62,-280.894 1256.2,-265.884"/>
<polygon fill="#9a32cd" stroke="#9a32cd" points="758.647,-321.803 748.241,-323.795 757.618,-328.727 758.647,-321.803"/>
<text text-anchor="middle" x="1034" y="-364.201" font-family="Helvetica,sans-Serif" font-size="10.00"> myLines</text>
</g>
<!-- Node15&#45;&gt;Node13 -->
<g id="edge15" class="edge"><title>Node15&#45;&gt;Node13</title>
<path fill="none" stroke="#9a32cd" stroke-dasharray="5,2" d="M758.102,-319.469C813.902,-318.197 928.754,-315.578 990.879,-314.161"/>
<polygon fill="#9a32cd" stroke="#9a32cd" points="757.996,-315.97 748.079,-319.698 758.156,-322.969 757.996,-315.97"/>
<text text-anchor="middle" x="889" y="-321.201" font-family="Helvetica,sans-Serif" font-size="10.00"> myStamps</text>
</g>
<!-- Node16 -->
<g id="node16" class="node"><title>Node16</title>
<polygon fill="white" stroke="#bfbfbf" points="966,-178.201 966,-208.201 1102,-208.201 1102,-178.201 966,-178.201"/>
<text text-anchor="start" x="974" y="-196.201" font-family="Helvetica,sans-Serif" font-size="10.00">Map&lt; Integer, view.Turtle</text>
<text text-anchor="middle" x="1034" y="-185.201" font-family="Helvetica,sans-Serif" font-size="10.00">View &gt;</text>
</g>
<!-- Node16&#45;&gt;Node10 -->
<g id="edge16" class="edge"><title>Node16&#45;&gt;Node10</title>
<path fill="none" stroke="#9a32cd" stroke-dasharray="5,2" d="M1112.16,-206.776C1140.14,-212.551 1171.8,-220.082 1200,-229.201 1214.75,-233.969 1230.77,-240.999 1242.83,-246.69"/>
<polygon fill="#9a32cd" stroke="#9a32cd" points="1112.52,-203.279 1102.03,-204.729 1111.13,-210.14 1112.52,-203.279"/>
<text text-anchor="middle" x="1160" y="-232.201" font-family="Helvetica,sans-Serif" font-size="10.00"> myTurtles</text>
</g>
<!-- Node17&#45;&gt;Node9 -->
<g id="edge51" class="edge"><title>Node17&#45;&gt;Node9</title>
<path fill="none" stroke="#9a32cd" stroke-dasharray="5,2" d="M985.129,-443.036C868.296,-445.072 569.502,-450.281 451.251,-452.342"/>
<polygon fill="#9a32cd" stroke="#9a32cd" points="985.263,-446.534 995.2,-442.86 985.141,-439.535 985.263,-446.534"/>
<text text-anchor="middle" x="725" y="-452.201" font-family="Helvetica,sans-Serif" font-size="10.00"> mySidebar</text>
</g>
<!-- Node17&#45;&gt;Node10 -->
<g id="edge18" class="edge"><title>Node17&#45;&gt;Node10</title>
<path fill="none" stroke="#9a32cd" stroke-dasharray="5,2" d="M1063.08,-428.19C1079.51,-420.195 1100.74,-410.205 1120,-402.201 1154.92,-387.689 1171.46,-398.014 1200,-373.201 1234.87,-342.885 1253.2,-288.048 1259.47,-265.884"/>
<polygon fill="#9a32cd" stroke="#9a32cd" points="1061.45,-425.089 1054.02,-432.636 1064.54,-431.374 1061.45,-425.089"/>
<text text-anchor="middle" x="1160" y="-405.201" font-family="Helvetica,sans-Serif" font-size="10.00"> mySidebar</text>
</g>
<!-- Node17&#45;&gt;Node24 -->
<g id="edge47" class="edge"><title>Node17&#45;&gt;Node24</title>
<path fill="none" stroke="#9a32cd" stroke-dasharray="5,2" d="M1082.91,-435.273C1116,-430.124 1160.92,-422.414 1200,-413.201 1378.74,-371.066 1588.6,-301.909 1663.08,-276.74"/>
<polygon fill="#9a32cd" stroke="#9a32cd" points="1081.96,-431.878 1072.6,-436.853 1083.02,-438.797 1081.96,-431.878"/>
<text text-anchor="middle" x="1361" y="-383.201" font-family="Helvetica,sans-Serif" font-size="10.00"> mySidebar</text>
</g>
<!-- Node26 -->
<g id="node26" class="node"><title>Node26</title>
<g id="a_node26"><a xlink:href="../../da/dc8/classview_1_1_editor.html" target="_top" xlink:title="view.Editor">
<polygon fill="white" stroke="black" points="1229.5,-504.701 1229.5,-523.701 1296.5,-523.701 1296.5,-504.701 1229.5,-504.701"/>
<text text-anchor="middle" x="1263" y="-511.701" font-family="Helvetica,sans-Serif" font-size="10.00">view.Editor</text>
</a>
</g>
</g>
<!-- Node17&#45;&gt;Node26 -->
<g id="edge39" class="edge"><title>Node17&#45;&gt;Node26</title>
<path fill="none" stroke="#9a32cd" stroke-dasharray="5,2" d="M1082.73,-441.35C1116.71,-442.369 1162.76,-447.126 1200,-463.201 1222.01,-472.701 1242.43,-492.458 1253.46,-504.4"/>
<polygon fill="#9a32cd" stroke="#9a32cd" points="1082.66,-437.848 1072.59,-441.145 1082.52,-444.847 1082.66,-437.848"/>
<text text-anchor="middle" x="1160" y="-466.201" font-family="Helvetica,sans-Serif" font-size="10.00"> mySidebar</text>
</g>
<!-- Node18 -->
<g id="node18" class="node"><title>Node18</title>
<polygon fill="white" stroke="#bfbfbf" points="704.5,-386.701 704.5,-405.701 745.5,-405.701 745.5,-386.701 704.5,-386.701"/>
<text text-anchor="middle" x="725" y="-393.701" font-family="Helvetica,sans-Serif" font-size="10.00">VBox</text>
</g>
<!-- Node18&#45;&gt;Node17 -->
<g id="edge19" class="edge"><title>Node18&#45;&gt;Node17</title>
<path fill="none" stroke="midnightblue" d="M755.677,-400.648C811.827,-409.061 933.506,-427.293 995.322,-436.555"/>
<polygon fill="midnightblue" stroke="midnightblue" points="756.08,-397.169 745.671,-399.148 755.042,-404.092 756.08,-397.169"/>
</g>
<!-- Node19 -->
<g id="node19" class="node"><title>Node19</title>
<polygon fill="white" stroke="#bfbfbf" points="638.5,-348.701 638.5,-367.701 811.5,-367.701 811.5,-348.701 638.5,-348.701"/>
<text text-anchor="middle" x="725" y="-355.701" font-family="Helvetica,sans-Serif" font-size="10.00">ObservableList&lt; view.Property &gt;</text>
</g>
<!-- Node19&#45;&gt;Node17 -->
<g id="edge20" class="edge"><title>Node19&#45;&gt;Node17</title>
<path fill="none" stroke="#9a32cd" stroke-dasharray="5,2" d="M821.546,-369.018C861.333,-375.156 907.584,-384.449 948,-398.201 973.799,-406.979 1001.43,-422.568 1017.95,-432.639"/>
<polygon fill="#9a32cd" stroke="#9a32cd" points="821.986,-365.545 811.577,-367.525 820.948,-372.468 821.986,-365.545"/>
<text text-anchor="middle" x="889" y="-401.201" font-family="Helvetica,sans-Serif" font-size="10.00"> myVariablesList</text>
</g>
<!-- Node20 -->
<g id="node20" class="node"><title>Node20</title>
<polygon fill="white" stroke="#bfbfbf" points="651,-510.701 651,-529.701 799,-529.701 799,-510.701 651,-510.701"/>
<text text-anchor="middle" x="725" y="-517.701" font-family="Helvetica,sans-Serif" font-size="10.00">TableView&lt; view.Property &gt;</text>
</g>
<!-- Node20&#45;&gt;Node17 -->
<g id="edge23" class="edge"><title>Node20&#45;&gt;Node17</title>
<path fill="none" stroke="#9a32cd" stroke-dasharray="5,2" d="M809.156,-517.779C862.246,-514.858 925.231,-508.413 948,-494.201 960.55,-486.367 954.42,-475.408 966,-466.201 974.511,-459.434 985.088,-454.484 995.304,-450.901"/>
<polygon fill="#9a32cd" stroke="#9a32cd" points="808.834,-514.291 799.028,-518.302 809.195,-521.282 808.834,-514.291"/>
<text text-anchor="middle" x="889" y="-531.201" font-family="Helvetica,sans-Serif" font-size="10.00"> myTurtlePropertiesTable</text>
<text text-anchor="middle" x="889" y="-520.201" font-family="Helvetica,sans-Serif" font-size="10.00">myVariablesTable</text>
</g>
<!-- Node21&#45;&gt;Node17 -->
<g id="edge24" class="edge"><title>Node21&#45;&gt;Node17</title>
<path fill="none" stroke="#9a32cd" stroke-dasharray="5,2" d="M773.976,-579.208C791.56,-574.934 811.646,-570.194 830,-566.201 882.21,-554.843 909.523,-580.275 948,-543.201 973.308,-518.816 942.609,-492.431 966,-466.201 973.648,-457.625 984.581,-452.112 995.404,-448.57"/>
<polygon fill="#9a32cd" stroke="#9a32cd" points="772.826,-575.886 763.944,-581.661 774.489,-582.686 772.826,-575.886"/>
<text text-anchor="middle" x="889" y="-569.201" font-family="Helvetica,sans-Serif" font-size="10.00"> myParser</text>
</g>
<!-- Node21&#45;&gt;Node24 -->
<g id="edge42" class="edge"><title>Node21&#45;&gt;Node24</title>
<path fill="none" stroke="#9a32cd" stroke-dasharray="5,2" d="M775.3,-599.876C792.567,-602.75 812.111,-605.82 830,-608.201 890.233,-616.217 905.316,-619.086 966,-622.201 1221.26,-635.305 1295.1,-623.056 1534,-532.201 1579.03,-515.074 1598.09,-515.973 1628,-478.201 1679.03,-413.763 1688.78,-308.734 1690.6,-276.745"/>
<polygon fill="#9a32cd" stroke="#9a32cd" points="775.868,-596.422 765.426,-598.212 774.706,-603.325 775.868,-596.422"/>
<text text-anchor="middle" x="1263" y="-624.201" font-family="Helvetica,sans-Serif" font-size="10.00"> myParser</text>
</g>
<!-- Node21&#45;&gt;Node26 -->
<g id="edge37" class="edge"><title>Node21&#45;&gt;Node26</title>
<path fill="none" stroke="#9a32cd" stroke-dasharray="5,2" d="M771.723,-602.806C821.193,-612.407 899.484,-618.585 948,-577.201 975.727,-553.55 937.542,-519.968 966,-497.201 1013.2,-459.442 1041.64,-494.003 1102,-497.201 1146.21,-499.543 1197.01,-505.502 1229.29,-509.701"/>
<polygon fill="#9a32cd" stroke="#9a32cd" points="772.429,-599.378 761.928,-600.787 771.016,-606.234 772.429,-599.378"/>
<text text-anchor="middle" x="1034" y="-500.201" font-family="Helvetica,sans-Serif" font-size="10.00"> myParser</text>
</g>
<!-- Node22 -->
<g id="node22" class="node"><title>Node22</title>
<polygon fill="white" stroke="#bfbfbf" points="345,-530.201 345,-560.201 457,-560.201 457,-530.201 345,-530.201"/>
<text text-anchor="start" x="353" y="-548.201" font-family="Helvetica,sans-Serif" font-size="10.00">List&lt; Entry&lt; String,</text>
<text text-anchor="middle" x="401" y="-537.201" font-family="Helvetica,sans-Serif" font-size="10.00"> Pattern &gt; &gt;</text>
</g>
<!-- Node22&#45;&gt;Node21 -->
<g id="edge26" class="edge"><title>Node22&#45;&gt;Node21</title>
<path fill="none" stroke="#9a32cd" stroke-dasharray="5,2" d="M467.05,-532.48C510.912,-526.259 569.728,-522.527 620,-535.201 655.593,-544.175 692.258,-567.978 711.094,-581.485"/>
<polygon fill="#9a32cd" stroke="#9a32cd" points="466.455,-529.03 457.083,-533.973 467.491,-535.953 466.455,-529.03"/>
<text text-anchor="middle" x="559" y="-538.201" font-family="Helvetica,sans-Serif" font-size="10.00"> myPatterns</text>
</g>
<!-- Node23 -->
<g id="node23" class="node"><title>Node23</title>
<polygon fill="white" stroke="#bfbfbf" points="340,-592.701 340,-611.701 462,-611.701 462,-592.701 340,-592.701"/>
<text text-anchor="middle" x="401" y="-599.701" font-family="Helvetica,sans-Serif" font-size="10.00">Map&lt; String, String &gt;</text>
</g>
<!-- Node23&#45;&gt;Node21 -->
<g id="edge29" class="edge"><title>Node23&#45;&gt;Node21</title>
<path fill="none" stroke="#9a32cd" stroke-dasharray="5,2" d="M472.39,-599.796C537.597,-597.569 632.209,-594.337 684.877,-592.538"/>
<polygon fill="#9a32cd" stroke="#9a32cd" points="472.063,-596.305 462.188,-600.145 472.302,-603.301 472.063,-596.305"/>
<text text-anchor="middle" x="559" y="-602.201" font-family="Helvetica,sans-Serif" font-size="10.00"> myCommandMap</text>
</g>
<!-- Node24&#45;&gt;Node21 -->
<g id="edge30" class="edge"><title>Node24&#45;&gt;Node21</title>
<path fill="none" stroke="#9a32cd" stroke-dasharray="5,2" d="M1690.55,-286.876C1688.52,-357.057 1678.03,-593.725 1628,-646.201 1580,-696.549 1544.56,-679.201 1475,-679.201 1033,-679.201 1033,-679.201 1033,-679.201 942.149,-679.201 908.729,-700.539 830,-655.201 818.446,-648.547 822.357,-639.599 812,-631.201 795.245,-617.615 773.118,-607.459 755.504,-600.781"/>
<polygon fill="#9a32cd" stroke="#9a32cd" points="1694.05,-286.851 1690.81,-276.763 1687.05,-286.668 1694.05,-286.851"/>
<text text-anchor="middle" x="1263" y="-682.201" font-family="Helvetica,sans-Serif" font-size="10.00"> mySLogoView</text>
</g>
<!-- Node25 -->
<g id="node25" class="node"><title>Node25</title>
<polygon fill="white" stroke="#bfbfbf" points="1451.5,-76.701 1451.5,-95.701 1496.5,-95.701 1496.5,-76.701 1451.5,-76.701"/>
<text text-anchor="middle" x="1474" y="-83.701" font-family="Helvetica,sans-Serif" font-size="10.00">Stage</text>
</g>
<!-- Node25&#45;&gt;Node24 -->
<g id="edge32" class="edge"><title>Node25&#45;&gt;Node24</title>
<path fill="none" stroke="#9a32cd" stroke-dasharray="5,2" d="M1506.71,-79.7813C1540.31,-74.8833 1593.2,-72.8347 1628,-99.201 1680.64,-139.082 1689.3,-228.123 1690.72,-257.553"/>
<polygon fill="#9a32cd" stroke="#9a32cd" points="1505.84,-76.3774 1496.53,-81.4392 1506.97,-83.2864 1505.84,-76.3774"/>
<text text-anchor="middle" x="1590" y="-102.201" font-family="Helvetica,sans-Serif" font-size="10.00"> myStage</text>
</g>
<!-- Node26&#45;&gt;Node24 -->
<g id="edge34" class="edge"><title>Node26&#45;&gt;Node24</title>
<path fill="none" stroke="#9a32cd" stroke-dasharray="5,2" d="M1307.11,-518.167C1381.73,-522.58 1535.81,-520.548 1628,-441.201 1679.62,-396.77 1688.95,-306.6 1690.63,-276.917"/>
<polygon fill="#9a32cd" stroke="#9a32cd" points="1306.9,-514.645 1296.69,-517.477 1306.44,-521.63 1306.9,-514.645"/>
<text text-anchor="middle" x="1474" y="-520.201" font-family="Helvetica,sans-Serif" font-size="10.00"> myEditor</text>
</g>
<!-- Node27 -->
<g id="node27" class="node"><title>Node27</title>
<polygon fill="white" stroke="#bfbfbf" points="1013,-593.701 1013,-612.701 1055,-612.701 1055,-593.701 1013,-593.701"/>
<text text-anchor="middle" x="1034" y="-600.701" font-family="Helvetica,sans-Serif" font-size="10.00">HBox</text>
</g>
<!-- Node27&#45;&gt;Node26 -->
<g id="edge35" class="edge"><title>Node27&#45;&gt;Node26</title>
<path fill="none" stroke="midnightblue" d="M1065.45,-601.637C1099.77,-598.833 1156.47,-591.011 1200,-569.201 1222.38,-557.987 1242.98,-536.608 1253.88,-524.063"/>
<polygon fill="midnightblue" stroke="midnightblue" points="1064.85,-598.17 1055.13,-602.382 1065.36,-605.152 1064.85,-598.17"/>
</g>
<!-- Node28 -->
<g id="node28" class="node"><title>Node28</title>
<polygon fill="white" stroke="#bfbfbf" points="1009.5,-555.701 1009.5,-574.701 1058.5,-574.701 1058.5,-555.701 1009.5,-555.701"/>
<text text-anchor="middle" x="1034" y="-562.701" font-family="Helvetica,sans-Serif" font-size="10.00">Button</text>
</g>
<!-- Node28&#45;&gt;Node26 -->
<g id="edge36" class="edge"><title>Node28&#45;&gt;Node26</title>
<path fill="none" stroke="#9a32cd" stroke-dasharray="5,2" d="M1068.77,-561.75C1102.43,-557.827 1155.39,-550.343 1200,-538.201 1213.81,-534.442 1228.79,-528.694 1240.56,-523.765"/>
<polygon fill="#9a32cd" stroke="#9a32cd" points="1068.1,-558.303 1058.55,-562.9 1068.88,-565.259 1068.1,-558.303"/>
<text text-anchor="middle" x="1160" y="-557.201" font-family="Helvetica,sans-Serif" font-size="10.00"> runButton</text>
</g>
<!-- Node29 -->
<g id="node29" class="node"><title>Node29</title>
<polygon fill="white" stroke="#bfbfbf" points="1005,-517.701 1005,-536.701 1063,-536.701 1063,-517.701 1005,-517.701"/>
<text text-anchor="middle" x="1034" y="-524.701" font-family="Helvetica,sans-Serif" font-size="10.00">TextArea</text>
</g>
<!-- Node29&#45;&gt;Node26 -->
<g id="edge38" class="edge"><title>Node29&#45;&gt;Node26</title>
<path fill="none" stroke="#9a32cd" stroke-dasharray="5,2" d="M1073.54,-524.994C1117.35,-522.485 1188.09,-518.434 1229.31,-516.073"/>
<polygon fill="#9a32cd" stroke="#9a32cd" points="1073.07,-521.515 1063.29,-525.581 1073.47,-528.503 1073.07,-521.515"/>
<text text-anchor="middle" x="1160" y="-526.201" font-family="Helvetica,sans-Serif" font-size="10.00"> textEditor</text>
</g>
<!-- Node30 -->
<g id="node30" class="node"><title>Node30</title>
<polygon fill="white" stroke="#bfbfbf" points="1414.5,-38.701 1414.5,-57.701 1533.5,-57.701 1533.5,-38.701 1414.5,-38.701"/>
<text text-anchor="middle" x="1474" y="-45.701" font-family="Helvetica,sans-Serif" font-size="10.00">Map&lt; String, Node &gt;</text>
</g>
<!-- Node30&#45;&gt;Node24 -->
<g id="edge40" class="edge"><title>Node30&#45;&gt;Node24</title>
<path fill="none" stroke="#9a32cd" stroke-dasharray="5,2" d="M1543.9,-38.6316C1572.73,-38.3543 1604.85,-43.402 1628,-62.201 1690.44,-112.892 1692.36,-223.984 1691.44,-257.463"/>
<polygon fill="#9a32cd" stroke="#9a32cd" points="1543.74,-35.1345 1533.85,-38.938 1543.96,-42.1313 1543.74,-35.1345"/>
<text text-anchor="middle" x="1590" y="-65.201" font-family="Helvetica,sans-Serif" font-size="10.00"> variables</text>
</g>
<!-- Node31 -->
<g id="node31" class="node"><title>Node31</title>
<polygon fill="white" stroke="#bfbfbf" points="1433.5,-0.701017 1433.5,-19.701 1514.5,-19.701 1514.5,-0.701017 1433.5,-0.701017"/>
<text text-anchor="middle" x="1474" y="-7.70102" font-family="Helvetica,sans-Serif" font-size="10.00">Dimension2D</text>
</g>
<!-- Node31&#45;&gt;Node24 -->
<g id="edge43" class="edge"><title>Node31&#45;&gt;Node24</title>
<path fill="none" stroke="#9a32cd" stroke-dasharray="5,2" d="M1524.95,-1.16707C1557.92,1.8236 1600.03,-0.437917 1628,-24.201 1665.04,-55.6616 1685.35,-216.701 1689.98,-257.697"/>
<polygon fill="#9a32cd" stroke="#9a32cd" points="1524.16,2.26706 1514.6,-2.30202 1524.92,-4.69125 1524.16,2.26706"/>
<text text-anchor="middle" x="1590" y="-27.201" font-family="Helvetica,sans-Serif" font-size="10.00"> myDimensions</text>
</g>
<!-- Node32&#45;&gt;Node9 -->
<g id="edge50" class="edge"><title>Node32&#45;&gt;Node9</title>
<path fill="none" stroke="#9a32cd" stroke-dasharray="5,2" d="M1436.51,-201.245C1346.37,-169.292 1119.2,-89.0855 1102,-86.201 898.605,-52.1002 822.816,0.31688 638,-91.201 485.047,-166.941 417.566,-393.95 404.437,-443.556"/>
<polygon fill="#9a32cd" stroke="#9a32cd" points="1435.46,-204.585 1446.05,-204.629 1437.8,-197.988 1435.46,-204.585"/>
<text text-anchor="middle" x="1034" y="-89.201" font-family="Helvetica,sans-Serif" font-size="10.00"> myDrawer</text>
</g>
<!-- Node32&#45;&gt;Node24 -->
<g id="edge44" class="edge"><title>Node32&#45;&gt;Node24</title>
<path fill="none" stroke="#9a32cd" stroke-dasharray="5,2" d="M1520.69,-220.158C1551.39,-224.744 1592.55,-232.032 1628,-242.201 1642.36,-246.322 1657.98,-252.507 1670.07,-257.694"/>
<polygon fill="#9a32cd" stroke="#9a32cd" points="1521.1,-216.681 1510.7,-218.705 1520.09,-223.608 1521.1,-216.681"/>
<text text-anchor="middle" x="1590" y="-245.201" font-family="Helvetica,sans-Serif" font-size="10.00"> drawer</text>
</g>
<!-- Node33 -->
<g id="node33" class="node"><title>Node33</title>
<polygon fill="white" stroke="#bfbfbf" points="1242.5,-197.701 1242.5,-216.701 1283.5,-216.701 1283.5,-197.701 1242.5,-197.701"/>
<text text-anchor="middle" x="1263" y="-204.701" font-family="Helvetica,sans-Serif" font-size="10.00">Color</text>
</g>
<!-- Node33&#45;&gt;Node32 -->
<g id="edge46" class="edge"><title>Node33&#45;&gt;Node32</title>
<path fill="none" stroke="#9a32cd" stroke-dasharray="5,2" d="M1293.93,-206.83C1320.7,-206.64 1360.98,-206.706 1396,-208.201 1409.53,-208.779 1424.37,-209.834 1437.38,-210.901"/>
<polygon fill="#9a32cd" stroke="#9a32cd" points="1293.66,-203.332 1283.69,-206.92 1293.72,-210.332 1293.66,-203.332"/>
<text text-anchor="middle" x="1361" y="-211.201" font-family="Helvetica,sans-Serif" font-size="10.00"> myColor</text>
</g>
<!-- Node34 -->
<g id="node34" class="node"><title>Node34</title>
<polygon fill="white" stroke="#bfbfbf" points="656,-471.701 656,-490.701 794,-490.701 794,-471.701 656,-471.701"/>
<text text-anchor="middle" x="725" y="-478.701" font-family="Helvetica,sans-Serif" font-size="10.00">ObservableList&lt; String &gt;</text>
</g>
<!-- Node34&#45;&gt;Node17 -->
<g id="edge48" class="edge"><title>Node34&#45;&gt;Node17</title>
<path fill="none" stroke="#9a32cd" stroke-dasharray="5,2" d="M804.034,-471.421C846.592,-466.072 900.197,-459.309 948,-453.201 963.498,-451.221 980.582,-449.015 995.344,-447.101"/>
<polygon fill="#9a32cd" stroke="#9a32cd" points="803.506,-467.96 794.02,-472.68 804.378,-474.906 803.506,-467.96"/>
<text text-anchor="middle" x="889" y="-482.201" font-family="Helvetica,sans-Serif" font-size="10.00"> myCommandItems</text>
<text text-anchor="middle" x="889" y="-471.201" font-family="Helvetica,sans-Serif" font-size="10.00">myHistoryItems</text>
</g>
<!-- Node35 -->
<g id="node35" class="node"><title>Node35</title>
<polygon fill="white" stroke="#bfbfbf" points="1002.5,-227.701 1002.5,-246.701 1065.5,-246.701 1065.5,-227.701 1002.5,-227.701"/>
<text text-anchor="middle" x="1034" y="-234.701" font-family="Helvetica,sans-Serif" font-size="10.00">Rectangle</text>
</g>
<!-- Node35&#45;&gt;Node10 -->
<g id="edge49" class="edge"><title>Node35&#45;&gt;Node10</title>
<path fill="none" stroke="#9a32cd" stroke-dasharray="5,2" d="M1076.02,-240.228C1109.41,-242.742 1157.77,-246.494 1200,-250.201 1205.82,-250.712 1211.94,-251.274 1217.98,-251.843"/>
<polygon fill="#9a32cd" stroke="#9a32cd" points="1075.96,-236.714 1065.73,-239.457 1075.44,-243.695 1075.96,-236.714"/>
<text text-anchor="middle" x="1160" y="-253.201" font-family="Helvetica,sans-Serif" font-size="10.00"> myBackground</text>
</g>
<!-- Node36 -->
<g id="node36" class="node"><title>Node36</title>
<polygon fill="white" stroke="#bfbfbf" points="333,-785.201 333,-815.201 469,-815.201 469,-785.201 333,-785.201"/>
<text text-anchor="start" x="341" y="-803.201" font-family="Helvetica,sans-Serif" font-size="10.00">List&lt; model.instructions.</text>
<text text-anchor="middle" x="401" y="-792.201" font-family="Helvetica,sans-Serif" font-size="10.00">Instruction &gt;</text>
</g>
<!-- Node36&#45;&gt;Node2 -->
<g id="edge52" class="edge"><title>Node36&#45;&gt;Node2</title>
<path fill="none" stroke="#9a32cd" stroke-dasharray="5,2" d="M474.604,-782.839C539.429,-767.338 631.962,-745.21 684.17,-732.726"/>
<polygon fill="#9a32cd" stroke="#9a32cd" points="473.761,-779.442 464.849,-785.172 475.389,-786.25 473.761,-779.442"/>
<text text-anchor="middle" x="559" y="-779.201" font-family="Helvetica,sans-Serif" font-size="10.00"> myDependencies</text>
</g>
</g>
</svg>
        <g id="navigator" transform="translate(0 0)" fill="#404254">
                <rect fill="#f2f5e9" fill-opacity="0.5" stroke="#606060" stroke-width=".5" x="0" y="0" width="60" height="60"/>
                <use id="zoomplus" xlink:href="#zoomPlus" x="17" y="9" onmousedown="handleZoom(evt,'in')"/>
                <use id="zoomminus" xlink:href="#zoomMin" x="42" y="9" onmousedown="handleZoom(evt,'out')"/>
                <use id="reset" xlink:href="#resetDef" x="30" y="36" onmousedown="handleReset()"/>
                <g id="arrowUp" xlink:href="#dirArrow" transform="translate(30 24)" onmousedown="handlePan(0,-1)">
                  <use xlink:href="#rim" fill="#404040">
                        <set attributeName="fill" to="#808080" begin="arrowUp.mouseover" end="arrowUp.mouseout"/>
                  </use>
                  <path fill="none" stroke="white" stroke-width="1.5" d="M0,-3.0v7 M-2.5,-0.5L0,-3.0L2.5,-0.5"/>
                </g>
                <g id="arrowRight" xlink:href="#dirArrow" transform="rotate(90) translate(36 -43)" onmousedown="handlePan(1,0)">
                  <use xlink:href="#rim" fill="#404040">
                        <set attributeName="fill" to="#808080" begin="arrowRight.mouseover" end="arrowRight.mouseout"/>
                  </use>
                  <path fill="none" stroke="white" stroke-width="1.5" d="M0,-3.0v7 M-2.5,-0.5L0,-3.0L2.5,-0.5"/>
                </g>
                <g id="arrowDown" xlink:href="#dirArrow" transform="rotate(180) translate(-30 -48)" onmousedown="handlePan(0,1)">
                  <use xlink:href="#rim" fill="#404040">
                        <set attributeName="fill" to="#808080" begin="arrowDown.mouseover" end="arrowDown.mouseout"/>
                  </use>
                  <path fill="none" stroke="white" stroke-width="1.5" d="M0,-3.0v7 M-2.5,-0.5L0,-3.0L2.5,-0.5"/>
                </g>
                <g id="arrowLeft" xlink:href="#dirArrow" transform="rotate(270) translate(-36 17)" onmousedown="handlePan(-1,0)">
                  <use xlink:href="#rim" fill="#404040">
                        <set attributeName="fill" to="#808080" begin="arrowLeft.mouseover" end="arrowLeft.mouseout"/>
                  </use>
                  <path fill="none" stroke="white" stroke-width="1.5" d="M0,-3.0v7 M-2.5,-0.5L0,-3.0L2.5,-0.5"/>
                </g>
        </g>
        <svg viewBox="0 0 15 15" width="100%" height="30px" preserveAspectRatio="xMaxYMin meet">
         <g id="arrow_out" transform="scale(0.3 0.3)">
          <a xlink:href="classmodel_1_1instructions_1_1_front_end_instruction__coll__graph_org.svg" target="_base">
           <rect id="button" ry="5" rx="5" y="6" x="6" height="38" width="38"
                fill="#f2f5e9" fill-opacity="0.5" stroke="#606060" stroke-width="1.0"/>
           <path id="arrow"
             d="M 11.500037,31.436501 C 11.940474,20.09759 22.043105,11.32322 32.158766,21.979434 L 37.068811,17.246167 C 37.068811,17.246167 37.088388,32 37.088388,32 L 22.160133,31.978069 C 22.160133,31.978069 26.997745,27.140456 26.997745,27.140456 C 18.528582,18.264221 13.291696,25.230495 11.500037,31.436501 z"
             style="fill:#404040;"/>
          </a>
         </g>
        </svg>
</svg>
