<?xml version="1.0" encoding="UTF-8" standalone="no"?>
<!DOCTYPE svg PUBLIC "-//W3C//DTD SVG 1.1//EN"
 "http://www.w3.org/Graphics/SVG/1.1/DTD/svg11.dtd">
<!-- Generated by graphviz version 2.36.0 (20140111.2315)
 -->
<!-- Title: model.instructions.UserRunningInstruction Pages: 1 -->
<svg width="1778pt" height="853pt"
 viewBox="0.00 0.00 1778.00 853.20" xmlns="http://www.w3.org/2000/svg" xmlns:xlink="http://www.w3.org/1999/xlink">
<g id="graph0" class="graph" transform="scale(1 1) rotate(0) translate(4 849.201)">
<title>model.instructions.UserRunningInstruction</title>
<polygon fill="white" stroke="none" points="-4,4 -4,-849.201 1774,-849.201 1774,4 -4,4"/>
<!-- Node1 -->
<g id="node1" class="node"><title>Node1</title>
<polygon fill="#bfbfbf" stroke="black" points="966,-708.201 966,-738.201 1134,-738.201 1134,-708.201 966,-708.201"/>
<text text-anchor="start" x="974" y="-726.201" font-family="Helvetica,sans-Serif" font-size="10.00">model.instructions.UserRunning</text>
<text text-anchor="middle" x="1050" y="-715.201" font-family="Helvetica,sans-Serif" font-size="10.00">Instruction</text>
</g>
<!-- Node2 -->
<g id="node2" class="node"><title>Node2</title>
<g id="a_node2"><a xlink:href="../../d1/dea/classmodel_1_1instructions_1_1_instruction.html" target="_top" xlink:title="model.instructions.Instruction">
<polygon fill="white" stroke="black" points="646,-713.701 646,-732.701 804,-732.701 804,-713.701 646,-713.701"/>
<text text-anchor="middle" x="725" y="-720.701" font-family="Helvetica,sans-Serif" font-size="10.00">model.instructions.Instruction</text>
</a>
</g>
</g>
<!-- Node2&#45;&gt;Node1 -->
<g id="edge1" class="edge"><title>Node2&#45;&gt;Node1</title>
<path fill="none" stroke="midnightblue" d="M814.409,-723.201C861.652,-723.201 919.47,-723.201 965.885,-723.201"/>
<polygon fill="midnightblue" stroke="midnightblue" points="814.189,-719.701 804.189,-723.201 814.189,-726.701 814.189,-719.701"/>
</g>
<!-- Node3 -->
<g id="node3" class="node"><title>Node3</title>
<polygon fill="white" stroke="#bfbfbf" points="57,-491.701 57,-510.701 117,-510.701 117,-491.701 57,-491.701"/>
<text text-anchor="middle" x="87" y="-498.701" font-family="Helvetica,sans-Serif" font-size="10.00">Observer</text>
</g>
<!-- Node3&#45;&gt;Node2 -->
<g id="edge2" class="edge"><title>Node3&#45;&gt;Node2</title>
<path fill="none" stroke="midnightblue" d="M112.207,-515.948C153.775,-540.73 241.991,-590.978 322,-621.201 443.244,-667 592.731,-698.821 670.804,-713.679"/>
<polygon fill="midnightblue" stroke="midnightblue" points="113.975,-512.927 103.599,-510.781 110.372,-518.929 113.975,-512.927"/>
</g>
<!-- Node9 -->
<g id="node9" class="node"><title>Node9</title>
<g id="a_node9"><a xlink:href="../../d4/d64/classview_1_1_view_updater.html" target="_top" xlink:title="view.ViewUpdater">
<polygon fill="white" stroke="black" points="351,-443.701 351,-462.701 451,-462.701 451,-443.701 351,-443.701"/>
<text text-anchor="middle" x="401" y="-450.701" font-family="Helvetica,sans-Serif" font-size="10.00">view.ViewUpdater</text>
</a>
</g>
</g>
<!-- Node3&#45;&gt;Node9 -->
<g id="edge9" class="edge"><title>Node3&#45;&gt;Node9</title>
<path fill="none" stroke="midnightblue" d="M127.079,-495.189C183.8,-486.463 288.905,-470.293 350.82,-460.767"/>
<polygon fill="midnightblue" stroke="midnightblue" points="126.424,-491.748 117.072,-496.728 127.488,-498.667 126.424,-491.748"/>
</g>
<!-- Node21 -->
<g id="node21" class="node"><title>Node21</title>
<g id="a_node21"><a xlink:href="../../dc/df5/classmodel_1_1_parser.html" target="_top" xlink:title="model.Parser">
<polygon fill="white" stroke="black" points="685,-581.701 685,-600.701 765,-600.701 765,-581.701 685,-581.701"/>
<text text-anchor="middle" x="725" y="-588.701" font-family="Helvetica,sans-Serif" font-size="10.00">model.Parser</text>
</a>
</g>
</g>
<!-- Node3&#45;&gt;Node21 -->
<g id="edge25" class="edge"><title>Node3&#45;&gt;Node21</title>
<path fill="none" stroke="midnightblue" d="M127.209,-499.452C234.48,-495.196 530.729,-487.132 620,-523.201 629.924,-527.211 629.384,-532.85 638,-539.201 660.33,-555.662 688.097,-571.735 705.934,-581.552"/>
<polygon fill="midnightblue" stroke="midnightblue" points="126.985,-495.958 117.136,-499.863 127.271,-502.952 126.985,-495.958"/>
</g>
<!-- Node4 -->
<g id="node4" class="node"><title>Node4</title>
<g id="a_node4"><a xlink:href="../../d1/dca/classmodel_1_1_execution_environment.html" target="_top" xlink:title="model.ExecutionEnvironment">
<polygon fill="white" stroke="black" points="322.5,-725.701 322.5,-744.701 479.5,-744.701 479.5,-725.701 322.5,-725.701"/>
<text text-anchor="middle" x="401" y="-732.701" font-family="Helvetica,sans-Serif" font-size="10.00">model.ExecutionEnvironment</text>
</a>
</g>
</g>
<!-- Node4&#45;&gt;Node2 -->
<g id="edge3" class="edge"><title>Node4&#45;&gt;Node2</title>
<path fill="none" stroke="#9a32cd" stroke-dasharray="5,2" d="M489.755,-731.931C538.493,-730.114 598.611,-727.874 645.74,-726.118"/>
<polygon fill="#9a32cd" stroke="#9a32cd" points="489.399,-728.441 479.537,-732.311 489.66,-735.437 489.399,-728.441"/>
<text text-anchor="middle" x="559" y="-735.201" font-family="Helvetica,sans-Serif" font-size="10.00"> myEnvironment</text>
</g>
<!-- Node17 -->
<g id="node17" class="node"><title>Node17</title>
<g id="a_node17"><a xlink:href="../../d1/dc7/classview_1_1_side_bar.html" target="_top" xlink:title="view.SideBar">
<polygon fill="white" stroke="black" points="1011.5,-432.701 1011.5,-451.701 1088.5,-451.701 1088.5,-432.701 1011.5,-432.701"/>
<text text-anchor="middle" x="1050" y="-439.701" font-family="Helvetica,sans-Serif" font-size="10.00">view.SideBar</text>
</a>
</g>
</g>
<!-- Node4&#45;&gt;Node17 -->
<g id="edge22" class="edge"><title>Node4&#45;&gt;Node17</title>
<path fill="none" stroke="#9a32cd" stroke-dasharray="5,2" d="M455.938,-723.432C587.101,-694.335 914.482,-618.672 948,-581.201 980.735,-544.605 934.602,-509.95 966,-472.201 977.268,-458.654 995.161,-451.224 1011.45,-447.15"/>
<polygon fill="#9a32cd" stroke="#9a32cd" points="455.103,-720.032 446.095,-725.609 456.615,-726.866 455.103,-720.032"/>
<text text-anchor="middle" x="725" y="-683.201" font-family="Helvetica,sans-Serif" font-size="10.00"> myEnvironment</text>
</g>
<!-- Node4&#45;&gt;Node21 -->
<g id="edge27" class="edge"><title>Node4&#45;&gt;Node21</title>
<path fill="none" stroke="#9a32cd" stroke-dasharray="5,2" d="M414.231,-717.16C430.546,-694.617 461.634,-656.646 498,-637.201 546.658,-611.183 565.944,-625.271 620,-614.201 641.377,-609.823 665.143,-604.595 684.554,-600.23"/>
<polygon fill="#9a32cd" stroke="#9a32cd" points="411.247,-715.318 408.354,-725.51 416.972,-719.347 411.247,-715.318"/>
<text text-anchor="middle" x="559" y="-640.201" font-family="Helvetica,sans-Serif" font-size="10.00"> myExecutionParameters</text>
</g>
<!-- Node24 -->
<g id="node24" class="node"><title>Node24</title>
<g id="a_node24"><a xlink:href="../../d6/de7/classview_1_1_s_logo_view.html" target="_top" xlink:title="view.SLogoView">
<polygon fill="white" stroke="black" points="1678.5,-257.701 1678.5,-276.701 1769.5,-276.701 1769.5,-257.701 1678.5,-257.701"/>
<text text-anchor="middle" x="1724" y="-264.701" font-family="Helvetica,sans-Serif" font-size="10.00">view.SLogoView</text>
</a>
</g>
</g>
<!-- Node4&#45;&gt;Node24 -->
<g id="edge41" class="edge"><title>Node4&#45;&gt;Node24</title>
<path fill="none" stroke="#9a32cd" stroke-dasharray="5,2" d="M471.904,-746.178C536.995,-755.44 636.813,-767.201 724,-767.201 724,-767.201 724,-767.201 1507,-767.201 1585.67,-767.201 1615.71,-743.216 1660,-678.201 1706.74,-609.593 1720.35,-332.51 1722.63,-276.935"/>
<polygon fill="#9a32cd" stroke="#9a32cd" points="472.16,-742.679 461.763,-744.715 471.161,-749.607 472.16,-742.679"/>
<text text-anchor="middle" x="1192" y="-770.201" font-family="Helvetica,sans-Serif" font-size="10.00"> myEnvironment</text>
</g>
<!-- Node5 -->
<g id="node5" class="node"><title>Node5</title>
<polygon fill="white" stroke="#bfbfbf" points="51.5,-697.701 51.5,-716.701 122.5,-716.701 122.5,-697.701 51.5,-697.701"/>
<text text-anchor="middle" x="87" y="-704.701" font-family="Helvetica,sans-Serif" font-size="10.00">Observable</text>
</g>
<!-- Node5&#45;&gt;Node4 -->
<g id="edge4" class="edge"><title>Node5&#45;&gt;Node4</title>
<path fill="none" stroke="midnightblue" d="M132.637,-711.207C182.066,-715.643 262.658,-722.875 322.457,-728.242"/>
<polygon fill="midnightblue" stroke="midnightblue" points="132.854,-707.712 122.582,-710.304 132.229,-714.684 132.854,-707.712"/>
</g>
<!-- Node6 -->
<g id="node6" class="node"><title>Node6</title>
<polygon fill="white" stroke="#bfbfbf" points="42.5,-823.701 42.5,-842.701 131.5,-842.701 131.5,-823.701 42.5,-823.701"/>
<text text-anchor="middle" x="87" y="-830.701" font-family="Helvetica,sans-Serif" font-size="10.00">Set&lt; Integer &gt;</text>
</g>
<!-- Node6&#45;&gt;Node4 -->
<g id="edge5" class="edge"><title>Node6&#45;&gt;Node4</title>
<path fill="none" stroke="#9a32cd" stroke-dasharray="5,2" d="M141.747,-830.652C187.052,-826.699 252.536,-816.657 304,-791.201 313.594,-786.455 313.167,-781.247 322,-775.201 339.707,-763.081 361.571,-752.177 377.641,-744.827"/>
<polygon fill="#9a32cd" stroke="#9a32cd" points="141.232,-827.182 131.543,-831.47 141.791,-834.16 141.232,-827.182"/>
<text text-anchor="middle" x="248" y="-837.201" font-family="Helvetica,sans-Serif" font-size="10.00"> myTurtleList</text>
<text text-anchor="middle" x="248" y="-826.201" font-family="Helvetica,sans-Serif" font-size="10.00">activeTurtleList</text>
</g>
<!-- Node7 -->
<g id="node7" class="node"><title>Node7</title>
<polygon fill="white" stroke="#bfbfbf" points="0,-774.201 0,-804.201 174,-804.201 174,-774.201 0,-774.201"/>
<text text-anchor="start" x="8" y="-792.201" font-family="Helvetica,sans-Serif" font-size="10.00">Map&lt; String, model.instructions.</text>
<text text-anchor="middle" x="87" y="-781.201" font-family="Helvetica,sans-Serif" font-size="10.00">Instruction &gt;</text>
</g>
<!-- Node7&#45;&gt;Node4 -->
<g id="edge6" class="edge"><title>Node7&#45;&gt;Node4</title>
<path fill="none" stroke="#9a32cd" stroke-dasharray="5,2" d="M184.099,-776.607C221.618,-771.261 264.929,-764.56 304,-757.201 322.988,-753.625 343.917,-748.919 361.375,-744.778"/>
<polygon fill="#9a32cd" stroke="#9a32cd" points="183.599,-773.142 174.187,-778.007 184.578,-780.074 183.599,-773.142"/>
<text text-anchor="middle" x="248" y="-779.201" font-family="Helvetica,sans-Serif" font-size="10.00"> myUserInstructionMap</text>
</g>
<!-- Node8 -->
<g id="node8" class="node"><title>Node8</title>
<polygon fill="white" stroke="#bfbfbf" points="23,-735.701 23,-754.701 151,-754.701 151,-735.701 23,-735.701"/>
<text text-anchor="middle" x="87" y="-742.701" font-family="Helvetica,sans-Serif" font-size="10.00">Map&lt; String, Double &gt;</text>
</g>
<!-- Node8&#45;&gt;Node4 -->
<g id="edge7" class="edge"><title>Node8&#45;&gt;Node4</title>
<path fill="none" stroke="#9a32cd" stroke-dasharray="5,2" d="M161.23,-742.854C209.637,-741.302 273.011,-739.271 322.303,-737.691"/>
<polygon fill="#9a32cd" stroke="#9a32cd" points="161.021,-739.359 151.138,-743.177 161.245,-746.355 161.021,-739.359"/>
<text text-anchor="middle" x="248" y="-745.201" font-family="Helvetica,sans-Serif" font-size="10.00"> myVariableMap</text>
</g>
<!-- Node9&#45;&gt;Node2 -->
<g id="edge8" class="edge"><title>Node9&#45;&gt;Node2</title>
<path fill="none" stroke="#9a32cd" stroke-dasharray="5,2" d="M423.006,-468.833C439.491,-481.646 462.499,-500.775 480,-520.201 489.407,-530.643 486.549,-538.052 498,-546.201 543.86,-578.839 581.424,-539.21 620,-580.201 646.166,-608.006 616.748,-632.481 638,-664.201 653.52,-687.366 681.489,-704.012 701.313,-713.598"/>
<polygon fill="#9a32cd" stroke="#9a32cd" points="425.113,-466.037 415.044,-462.74 420.859,-471.596 425.113,-466.037"/>
<text text-anchor="middle" x="559" y="-583.201" font-family="Helvetica,sans-Serif" font-size="10.00"> myViewUpdater</text>
</g>
<!-- Node9&#45;&gt;Node21 -->
<g id="edge28" class="edge"><title>Node9&#45;&gt;Node21</title>
<path fill="none" stroke="#9a32cd" stroke-dasharray="5,2" d="M461.326,-456.073C521.686,-459.527 608.036,-466.148 620,-476.201 642.295,-494.934 620.316,-516.065 638,-539.201 653.364,-559.301 678.913,-573.314 698.181,-581.687"/>
<polygon fill="#9a32cd" stroke="#9a32cd" points="461.31,-452.566 451.131,-455.505 460.92,-459.555 461.31,-452.566"/>
<text text-anchor="middle" x="559" y="-479.201" font-family="Helvetica,sans-Serif" font-size="10.00"> myViewUpdater</text>
</g>
<!-- Node10 -->
<g id="node10" class="node"><title>Node10</title>
<g id="a_node10"><a xlink:href="../../da/d64/classview_1_1_workspace.html" target="_top" xlink:title="view.Workspace">
<polygon fill="white" stroke="black" points="1250,-246.701 1250,-265.701 1340,-265.701 1340,-246.701 1250,-246.701"/>
<text text-anchor="middle" x="1295" y="-253.701" font-family="Helvetica,sans-Serif" font-size="10.00">view.Workspace</text>
</a>
</g>
</g>
<!-- Node10&#45;&gt;Node9 -->
<g id="edge10" class="edge"><title>Node10&#45;&gt;Node9</title>
<path fill="none" stroke="#9a32cd" stroke-dasharray="5,2" d="M1239.79,-260.827C1237.16,-260.972 1234.55,-261.098 1232,-261.201 1196.47,-262.631 1187.55,-261.679 1152,-261.201 1069.31,-260.09 1041.97,-288.871 966,-256.201 955.607,-251.731 958.453,-242.531 948,-238.201 899.548,-218.131 882.335,-234.808 830,-238.201 744.127,-243.768 717.138,-229.401 638,-263.201 533.998,-307.621 438.227,-411.444 410.218,-443.56"/>
<polygon fill="#9a32cd" stroke="#9a32cd" points="1240.23,-264.307 1250,-260.189 1239.8,-257.32 1240.23,-264.307"/>
<text text-anchor="middle" x="889" y="-241.201" font-family="Helvetica,sans-Serif" font-size="10.00"> myWorkspace</text>
</g>
<!-- Node10&#45;&gt;Node24 -->
<g id="edge31" class="edge"><title>Node10&#45;&gt;Node24</title>
<path fill="none" stroke="#9a32cd" stroke-dasharray="5,2" d="M1350.34,-257.601C1435.6,-259.797 1599.23,-264.012 1678.19,-266.047"/>
<polygon fill="#9a32cd" stroke="#9a32cd" points="1350.18,-254.096 1340.09,-257.337 1349.99,-261.093 1350.18,-254.096"/>
<text text-anchor="middle" x="1506" y="-266.201" font-family="Helvetica,sans-Serif" font-size="10.00"> myWorkspace</text>
</g>
<!-- Node32 -->
<g id="node32" class="node"><title>Node32</title>
<g id="a_node32"><a xlink:href="../../de/d0a/classview_1_1_drawer.html" target="_top" xlink:title="view.Drawer">
<polygon fill="white" stroke="black" points="1469.5,-204.701 1469.5,-223.701 1542.5,-223.701 1542.5,-204.701 1469.5,-204.701"/>
<text text-anchor="middle" x="1506" y="-211.701" font-family="Helvetica,sans-Serif" font-size="10.00">view.Drawer</text>
</a>
</g>
</g>
<!-- Node10&#45;&gt;Node32 -->
<g id="edge45" class="edge"><title>Node10&#45;&gt;Node32</title>
<path fill="none" stroke="#9a32cd" stroke-dasharray="5,2" d="M1347.08,-244.523C1350.77,-243.723 1354.44,-242.941 1358,-242.201 1395.9,-234.315 1439.48,-226.124 1469.29,-220.654"/>
<polygon fill="#9a32cd" stroke="#9a32cd" points="1346.33,-241.105 1337.31,-246.668 1347.83,-247.942 1346.33,-241.105"/>
<text text-anchor="middle" x="1393" y="-245.201" font-family="Helvetica,sans-Serif" font-size="10.00"> myWorkspace</text>
</g>
<!-- Node11 -->
<g id="node11" class="node"><title>Node11</title>
<polygon fill="white" stroke="#bfbfbf" points="1016.5,-139.701 1016.5,-158.701 1083.5,-158.701 1083.5,-139.701 1016.5,-139.701"/>
<text text-anchor="middle" x="1050" y="-146.701" font-family="Helvetica,sans-Serif" font-size="10.00">StackPane</text>
</g>
<!-- Node11&#45;&gt;Node10 -->
<g id="edge11" class="edge"><title>Node11&#45;&gt;Node10</title>
<path fill="none" stroke="midnightblue" d="M1093.56,-155.257C1132.38,-162.397 1189.93,-177.176 1232,-206.201 1241.84,-212.992 1241,-218.332 1250,-226.201 1258.63,-233.745 1269.23,-241.019 1277.85,-246.515"/>
<polygon fill="midnightblue" stroke="midnightblue" points="1094.08,-151.794 1083.63,-153.521 1092.87,-158.69 1094.08,-151.794"/>
</g>
<!-- Node12 -->
<g id="node12" class="node"><title>Node12</title>
<polygon fill="white" stroke="#bfbfbf" points="678.5,-100.701 678.5,-119.701 771.5,-119.701 771.5,-100.701 678.5,-100.701"/>
<text text-anchor="middle" x="725" y="-107.701" font-family="Helvetica,sans-Serif" font-size="10.00">ResourceBundle</text>
</g>
<!-- Node12&#45;&gt;Node10 -->
<g id="edge12" class="edge"><title>Node12&#45;&gt;Node10</title>
<path fill="none" stroke="#9a32cd" stroke-dasharray="5,2" d="M782.056,-104.062C861.589,-97.0038 1011.17,-89.842 1134,-119.201 1180.98,-130.431 1200.6,-129.49 1232,-166.201 1250.1,-187.359 1233.55,-203.736 1250,-226.201 1256.23,-234.706 1265.63,-241.585 1274.15,-246.6"/>
<polygon fill="#9a32cd" stroke="#9a32cd" points="781.413,-100.607 771.776,-105.009 782.055,-107.577 781.413,-100.607"/>
<text text-anchor="middle" x="1050" y="-122.201" font-family="Helvetica,sans-Serif" font-size="10.00"> myResources</text>
</g>
<!-- Node12&#45;&gt;Node17 -->
<g id="edge21" class="edge"><title>Node12&#45;&gt;Node17</title>
<path fill="none" stroke="#9a32cd" stroke-dasharray="5,2" d="M735.555,-129.028C751.456,-158.687 785.997,-216.48 830,-251.201 874.714,-286.484 911.051,-257.853 948,-301.201 969.677,-326.632 948.163,-345.944 966,-374.201 982.506,-400.35 1012.51,-421.179 1031.56,-432.593"/>
<polygon fill="#9a32cd" stroke="#9a32cd" points="738.46,-127.031 730.723,-119.794 732.258,-130.277 738.46,-127.031"/>
<text text-anchor="middle" x="889" y="-304.201" font-family="Helvetica,sans-Serif" font-size="10.00"> myResources</text>
</g>
<!-- Node12&#45;&gt;Node24 -->
<g id="edge33" class="edge"><title>Node12&#45;&gt;Node24</title>
<path fill="none" stroke="#9a32cd" stroke-dasharray="5,2" d="M781.658,-100.035C797.245,-97.6255 814.236,-95.4065 830,-94.201 882.292,-90.2021 895.556,-94.06 948,-94.201 1030.67,-94.4232 1051.89,-85.5981 1134,-95.201 1329.74,-118.094 1375.23,-145.758 1566,-195.201 1608.08,-206.106 1620.86,-203.295 1660,-222.201 1679.85,-231.789 1700.12,-247.56 1712.13,-257.658"/>
<polygon fill="#9a32cd" stroke="#9a32cd" points="780.966,-96.601 771.645,-101.637 782.072,-103.513 780.966,-96.601"/>
<text text-anchor="middle" x="1295" y="-135.201" font-family="Helvetica,sans-Serif" font-size="10.00"> myResources</text>
</g>
<!-- Node13 -->
<g id="node13" class="node"><title>Node13</title>
<g id="a_node13"><a xlink:href="../../d8/df7/classview_1_1_turtle_view.html" target="_top" xlink:title="view.TurtleView">
<polygon fill="white" stroke="black" points="1007,-303.701 1007,-322.701 1093,-322.701 1093,-303.701 1007,-303.701"/>
<text text-anchor="middle" x="1050" y="-310.701" font-family="Helvetica,sans-Serif" font-size="10.00">view.TurtleView</text>
</a>
</g>
</g>
<!-- Node13&#45;&gt;Node10 -->
<g id="edge13" class="edge"><title>Node13&#45;&gt;Node10</title>
<path fill="none" stroke="#9a32cd" stroke-dasharray="5,2" d="M1103.26,-311.201C1140.01,-308.614 1189.93,-302.7 1232,-289.201 1249.18,-283.688 1267.22,-273.52 1279.38,-265.921"/>
<polygon fill="#9a32cd" stroke="#9a32cd" points="1103.02,-307.71 1093.26,-311.846 1103.47,-314.695 1103.02,-307.71"/>
<text text-anchor="middle" x="1192" y="-309.201" font-family="Helvetica,sans-Serif" font-size="10.00"> myActiveTurtle</text>
</g>
<!-- Node14 -->
<g id="node14" class="node"><title>Node14</title>
<polygon fill="white" stroke="#bfbfbf" points="691,-272.701 691,-291.701 759,-291.701 759,-272.701 691,-272.701"/>
<text text-anchor="middle" x="725" y="-279.701" font-family="Helvetica,sans-Serif" font-size="10.00">ImageView</text>
</g>
<!-- Node14&#45;&gt;Node13 -->
<g id="edge14" class="edge"><title>Node14&#45;&gt;Node13</title>
<path fill="none" stroke="midnightblue" d="M769.302,-286.357C831.486,-292.325 945.343,-303.253 1006.87,-309.158"/>
<polygon fill="midnightblue" stroke="midnightblue" points="769.337,-282.844 759.049,-285.373 768.669,-289.812 769.337,-282.844"/>
</g>
<!-- Node15 -->
<g id="node15" class="node"><title>Node15</title>
<polygon fill="white" stroke="#bfbfbf" points="702,-310.701 702,-329.701 748,-329.701 748,-310.701 702,-310.701"/>
<text text-anchor="middle" x="725" y="-317.701" font-family="Helvetica,sans-Serif" font-size="10.00">Group</text>
</g>
<!-- Node15&#45;&gt;Node10 -->
<g id="edge17" class="edge"><title>Node15&#45;&gt;Node10</title>
<path fill="none" stroke="#9a32cd" stroke-dasharray="5,2" d="M758.299,-325.289C778.782,-328.255 805.874,-331.699 830,-333.201 1008.4,-344.308 1071.87,-400.619 1232,-321.201 1257.71,-308.452 1278.49,-280.45 1288.15,-265.708"/>
<polygon fill="#9a32cd" stroke="#9a32cd" points="758.647,-321.803 748.241,-323.795 757.618,-328.727 758.647,-321.803"/>
<text text-anchor="middle" x="1050" y="-366.201" font-family="Helvetica,sans-Serif" font-size="10.00"> myLines</text>
</g>
<!-- Node15&#45;&gt;Node13 -->
<g id="edge15" class="edge"><title>Node15&#45;&gt;Node13</title>
<path fill="none" stroke="#9a32cd" stroke-dasharray="5,2" d="M758.392,-319.499C817.208,-318.224 941.505,-315.531 1006.84,-314.115"/>
<polygon fill="#9a32cd" stroke="#9a32cd" points="758.123,-316.004 748.201,-319.72 758.275,-323.002 758.123,-316.004"/>
<text text-anchor="middle" x="889" y="-321.201" font-family="Helvetica,sans-Serif" font-size="10.00"> myStamps</text>
</g>
<!-- Node16 -->
<g id="node16" class="node"><title>Node16</title>
<polygon fill="white" stroke="#bfbfbf" points="982,-178.201 982,-208.201 1118,-208.201 1118,-178.201 982,-178.201"/>
<text text-anchor="start" x="990" y="-196.201" font-family="Helvetica,sans-Serif" font-size="10.00">Map&lt; Integer, view.Turtle</text>
<text text-anchor="middle" x="1050" y="-185.201" font-family="Helvetica,sans-Serif" font-size="10.00">View &gt;</text>
</g>
<!-- Node16&#45;&gt;Node10 -->
<g id="edge16" class="edge"><title>Node16&#45;&gt;Node10</title>
<path fill="none" stroke="#9a32cd" stroke-dasharray="5,2" d="M1127.95,-204.749C1160.46,-210.59 1198.47,-218.7 1232,-229.201 1246.79,-233.833 1262.81,-240.867 1274.86,-246.594"/>
<polygon fill="#9a32cd" stroke="#9a32cd" points="1128.51,-201.293 1118.05,-203.009 1127.3,-208.188 1128.51,-201.293"/>
<text text-anchor="middle" x="1192" y="-232.201" font-family="Helvetica,sans-Serif" font-size="10.00"> myTurtles</text>
</g>
<!-- Node17&#45;&gt;Node9 -->
<g id="edge51" class="edge"><title>Node17&#45;&gt;Node9</title>
<path fill="none" stroke="#9a32cd" stroke-dasharray="5,2" d="M1000.93,-443.018C881.415,-445.05 571.819,-450.314 451.161,-452.365"/>
<polygon fill="#9a32cd" stroke="#9a32cd" points="1001.28,-446.513 1011.22,-442.843 1001.16,-439.514 1001.28,-446.513"/>
<text text-anchor="middle" x="725" y="-452.201" font-family="Helvetica,sans-Serif" font-size="10.00"> mySidebar</text>
</g>
<!-- Node17&#45;&gt;Node10 -->
<g id="edge18" class="edge"><title>Node17&#45;&gt;Node10</title>
<path fill="none" stroke="#9a32cd" stroke-dasharray="5,2" d="M1084.03,-428.836C1103.71,-420.944 1129.22,-410.839 1152,-402.201 1187.36,-388.792 1203.46,-398.014 1232,-373.201 1266.87,-342.885 1285.2,-288.048 1291.47,-265.884"/>
<polygon fill="#9a32cd" stroke="#9a32cd" points="1082.57,-425.652 1074.6,-432.629 1085.18,-432.147 1082.57,-425.652"/>
<text text-anchor="middle" x="1192" y="-405.201" font-family="Helvetica,sans-Serif" font-size="10.00"> mySidebar</text>
</g>
<!-- Node17&#45;&gt;Node24 -->
<g id="edge47" class="edge"><title>Node17&#45;&gt;Node24</title>
<path fill="none" stroke="#9a32cd" stroke-dasharray="5,2" d="M1098.64,-436.293C1135.33,-431.328 1187.19,-423.408 1232,-413.201 1411.49,-372.318 1621.74,-302.092 1695.65,-276.707"/>
<polygon fill="#9a32cd" stroke="#9a32cd" points="1098.16,-432.826 1088.71,-437.615 1099.09,-439.765 1098.16,-432.826"/>
<text text-anchor="middle" x="1393" y="-383.201" font-family="Helvetica,sans-Serif" font-size="10.00"> mySidebar</text>
</g>
<!-- Node26 -->
<g id="node26" class="node"><title>Node26</title>
<g id="a_node26"><a xlink:href="../../da/dc8/classview_1_1_editor.html" target="_top" xlink:title="view.Editor">
<polygon fill="white" stroke="black" points="1261.5,-504.701 1261.5,-523.701 1328.5,-523.701 1328.5,-504.701 1261.5,-504.701"/>
<text text-anchor="middle" x="1295" y="-511.701" font-family="Helvetica,sans-Serif" font-size="10.00">view.Editor</text>
</a>
</g>
</g>
<!-- Node17&#45;&gt;Node26 -->
<g id="edge39" class="edge"><title>Node17&#45;&gt;Node26</title>
<path fill="none" stroke="#9a32cd" stroke-dasharray="5,2" d="M1098.8,-440.491C1136.42,-440.829 1189.42,-445.102 1232,-463.201 1254.06,-472.579 1274.47,-492.378 1285.48,-504.361"/>
<polygon fill="#9a32cd" stroke="#9a32cd" points="1098.62,-436.991 1088.62,-440.492 1098.62,-443.991 1098.62,-436.991"/>
<text text-anchor="middle" x="1192" y="-466.201" font-family="Helvetica,sans-Serif" font-size="10.00"> mySidebar</text>
</g>
<!-- Node18 -->
<g id="node18" class="node"><title>Node18</title>
<polygon fill="white" stroke="#bfbfbf" points="704.5,-386.701 704.5,-405.701 745.5,-405.701 745.5,-386.701 704.5,-386.701"/>
<text text-anchor="middle" x="725" y="-393.701" font-family="Helvetica,sans-Serif" font-size="10.00">VBox</text>
</g>
<!-- Node18&#45;&gt;Node17 -->
<g id="edge19" class="edge"><title>Node18&#45;&gt;Node17</title>
<path fill="none" stroke="midnightblue" d="M755.875,-400.456C814.966,-408.871 946.647,-427.624 1011.47,-436.857"/>
<polygon fill="midnightblue" stroke="midnightblue" points="756.112,-396.954 745.719,-399.009 755.125,-403.884 756.112,-396.954"/>
</g>
<!-- Node19 -->
<g id="node19" class="node"><title>Node19</title>
<polygon fill="white" stroke="#bfbfbf" points="638.5,-348.701 638.5,-367.701 811.5,-367.701 811.5,-348.701 638.5,-348.701"/>
<text text-anchor="middle" x="725" y="-355.701" font-family="Helvetica,sans-Serif" font-size="10.00">ObservableList&lt; view.Property &gt;</text>
</g>
<!-- Node19&#45;&gt;Node17 -->
<g id="edge20" class="edge"><title>Node19&#45;&gt;Node17</title>
<path fill="none" stroke="#9a32cd" stroke-dasharray="5,2" d="M821.476,-369.039C861.155,-374.954 907.344,-383.694 948,-396.201 978.57,-405.606 1011.96,-422.155 1031.66,-432.629"/>
<polygon fill="#9a32cd" stroke="#9a32cd" points="821.935,-365.569 811.536,-367.596 820.929,-372.497 821.935,-365.569"/>
<text text-anchor="middle" x="889" y="-399.201" font-family="Helvetica,sans-Serif" font-size="10.00"> myVariablesList</text>
</g>
<!-- Node20 -->
<g id="node20" class="node"><title>Node20</title>
<polygon fill="white" stroke="#bfbfbf" points="651,-510.701 651,-529.701 799,-529.701 799,-510.701 651,-510.701"/>
<text text-anchor="middle" x="725" y="-517.701" font-family="Helvetica,sans-Serif" font-size="10.00">TableView&lt; view.Property &gt;</text>
</g>
<!-- Node20&#45;&gt;Node17 -->
<g id="edge23" class="edge"><title>Node20&#45;&gt;Node17</title>
<path fill="none" stroke="#9a32cd" stroke-dasharray="5,2" d="M809.215,-518.296C862.331,-515.678 925.324,-509.535 948,-495.201 960.823,-487.095 953.909,-475.362 966,-466.201 979.032,-456.327 996.013,-450.511 1011.22,-447.086"/>
<polygon fill="#9a32cd" stroke="#9a32cd" points="808.911,-514.807 799.081,-518.76 809.231,-521.799 808.911,-514.807"/>
<text text-anchor="middle" x="889" y="-531.201" font-family="Helvetica,sans-Serif" font-size="10.00"> myTurtlePropertiesTable</text>
<text text-anchor="middle" x="889" y="-520.201" font-family="Helvetica,sans-Serif" font-size="10.00">myVariablesTable</text>
</g>
<!-- Node21&#45;&gt;Node17 -->
<g id="edge24" class="edge"><title>Node21&#45;&gt;Node17</title>
<path fill="none" stroke="#9a32cd" stroke-dasharray="5,2" d="M773.976,-579.208C791.56,-574.934 811.646,-570.194 830,-566.201 882.21,-554.843 909.523,-580.275 948,-543.201 973.308,-518.816 941.801,-491.688 966,-466.201 977.671,-453.909 995.21,-447.792 1011.16,-444.794"/>
<polygon fill="#9a32cd" stroke="#9a32cd" points="772.826,-575.886 763.944,-581.661 774.489,-582.686 772.826,-575.886"/>
<text text-anchor="middle" x="889" y="-569.201" font-family="Helvetica,sans-Serif" font-size="10.00"> myParser</text>
</g>
<!-- Node21&#45;&gt;Node24 -->
<g id="edge42" class="edge"><title>Node21&#45;&gt;Node24</title>
<path fill="none" stroke="#9a32cd" stroke-dasharray="5,2" d="M775.3,-599.876C792.567,-602.75 812.111,-605.82 830,-608.201 890.233,-616.217 905.316,-619.086 966,-622.201 1235.3,-636.025 1313.96,-628.053 1566,-532.201 1611.03,-515.074 1630.09,-515.973 1660,-478.201 1711.03,-413.763 1720.78,-308.734 1722.6,-276.745"/>
<polygon fill="#9a32cd" stroke="#9a32cd" points="775.868,-596.422 765.426,-598.212 774.706,-603.325 775.868,-596.422"/>
<text text-anchor="middle" x="1295" y="-624.201" font-family="Helvetica,sans-Serif" font-size="10.00"> myParser</text>
</g>
<!-- Node21&#45;&gt;Node26 -->
<g id="edge37" class="edge"><title>Node21&#45;&gt;Node26</title>
<path fill="none" stroke="#9a32cd" stroke-dasharray="5,2" d="M771.723,-602.806C821.193,-612.407 899.484,-618.585 948,-577.201 975.727,-553.55 937.542,-519.968 966,-497.201 1024.3,-450.557 1059.44,-493.251 1134,-497.201 1178.21,-499.543 1229.01,-505.502 1261.29,-509.701"/>
<polygon fill="#9a32cd" stroke="#9a32cd" points="772.429,-599.378 761.928,-600.787 771.016,-606.234 772.429,-599.378"/>
<text text-anchor="middle" x="1050" y="-500.201" font-family="Helvetica,sans-Serif" font-size="10.00"> myParser</text>
</g>
<!-- Node22 -->
<g id="node22" class="node"><title>Node22</title>
<polygon fill="white" stroke="#bfbfbf" points="345,-530.201 345,-560.201 457,-560.201 457,-530.201 345,-530.201"/>
<text text-anchor="start" x="353" y="-548.201" font-family="Helvetica,sans-Serif" font-size="10.00">List&lt; Entry&lt; String,</text>
<text text-anchor="middle" x="401" y="-537.201" font-family="Helvetica,sans-Serif" font-size="10.00"> Pattern &gt; &gt;</text>
</g>
<!-- Node22&#45;&gt;Node21 -->
<g id="edge26" class="edge"><title>Node22&#45;&gt;Node21</title>
<path fill="none" stroke="#9a32cd" stroke-dasharray="5,2" d="M467.05,-532.48C510.912,-526.259 569.728,-522.527 620,-535.201 655.593,-544.175 692.258,-567.978 711.094,-581.485"/>
<polygon fill="#9a32cd" stroke="#9a32cd" points="466.455,-529.03 457.083,-533.973 467.491,-535.953 466.455,-529.03"/>
<text text-anchor="middle" x="559" y="-538.201" font-family="Helvetica,sans-Serif" font-size="10.00"> myPatterns</text>
</g>
<!-- Node23 -->
<g id="node23" class="node"><title>Node23</title>
<polygon fill="white" stroke="#bfbfbf" points="340,-592.701 340,-611.701 462,-611.701 462,-592.701 340,-592.701"/>
<text text-anchor="middle" x="401" y="-599.701" font-family="Helvetica,sans-Serif" font-size="10.00">Map&lt; String, String &gt;</text>
</g>
<!-- Node23&#45;&gt;Node21 -->
<g id="edge29" class="edge"><title>Node23&#45;&gt;Node21</title>
<path fill="none" stroke="#9a32cd" stroke-dasharray="5,2" d="M472.39,-599.796C537.597,-597.569 632.209,-594.337 684.877,-592.538"/>
<polygon fill="#9a32cd" stroke="#9a32cd" points="472.063,-596.305 462.188,-600.145 472.302,-603.301 472.063,-596.305"/>
<text text-anchor="middle" x="559" y="-602.201" font-family="Helvetica,sans-Serif" font-size="10.00"> myCommandMap</text>
</g>
<!-- Node24&#45;&gt;Node21 -->
<g id="edge30" class="edge"><title>Node24&#45;&gt;Node21</title>
<path fill="none" stroke="#9a32cd" stroke-dasharray="5,2" d="M1722.55,-286.876C1720.52,-357.057 1710.03,-593.725 1660,-646.201 1612,-696.549 1576.56,-679.201 1507,-679.201 1049,-679.201 1049,-679.201 1049,-679.201 951.084,-679.201 915.06,-703.703 830,-655.201 818.417,-648.597 822.357,-639.599 812,-631.201 795.245,-617.615 773.118,-607.459 755.504,-600.781"/>
<polygon fill="#9a32cd" stroke="#9a32cd" points="1726.05,-286.851 1722.81,-276.763 1719.05,-286.668 1726.05,-286.851"/>
<text text-anchor="middle" x="1295" y="-682.201" font-family="Helvetica,sans-Serif" font-size="10.00"> mySLogoView</text>
</g>
<!-- Node25 -->
<g id="node25" class="node"><title>Node25</title>
<polygon fill="white" stroke="#bfbfbf" points="1483.5,-76.701 1483.5,-95.701 1528.5,-95.701 1528.5,-76.701 1483.5,-76.701"/>
<text text-anchor="middle" x="1506" y="-83.701" font-family="Helvetica,sans-Serif" font-size="10.00">Stage</text>
</g>
<!-- Node25&#45;&gt;Node24 -->
<g id="edge32" class="edge"><title>Node25&#45;&gt;Node24</title>
<path fill="none" stroke="#9a32cd" stroke-dasharray="5,2" d="M1538.71,-79.7813C1572.31,-74.8833 1625.2,-72.8347 1660,-99.201 1712.64,-139.082 1721.3,-228.123 1722.72,-257.553"/>
<polygon fill="#9a32cd" stroke="#9a32cd" points="1537.84,-76.3774 1528.53,-81.4392 1538.97,-83.2864 1537.84,-76.3774"/>
<text text-anchor="middle" x="1622" y="-102.201" font-family="Helvetica,sans-Serif" font-size="10.00"> myStage</text>
</g>
<!-- Node26&#45;&gt;Node24 -->
<g id="edge34" class="edge"><title>Node26&#45;&gt;Node24</title>
<path fill="none" stroke="#9a32cd" stroke-dasharray="5,2" d="M1339.11,-518.167C1413.73,-522.58 1567.81,-520.548 1660,-441.201 1711.62,-396.77 1720.95,-306.6 1722.63,-276.917"/>
<polygon fill="#9a32cd" stroke="#9a32cd" points="1338.9,-514.645 1328.69,-517.477 1338.44,-521.63 1338.9,-514.645"/>
<text text-anchor="middle" x="1506" y="-520.201" font-family="Helvetica,sans-Serif" font-size="10.00"> myEditor</text>
</g>
<!-- Node27 -->
<g id="node27" class="node"><title>Node27</title>
<polygon fill="white" stroke="#bfbfbf" points="1029,-593.701 1029,-612.701 1071,-612.701 1071,-593.701 1029,-593.701"/>
<text text-anchor="middle" x="1050" y="-600.701" font-family="Helvetica,sans-Serif" font-size="10.00">HBox</text>
</g>
<!-- Node27&#45;&gt;Node26 -->
<g id="edge35" class="edge"><title>Node27&#45;&gt;Node26</title>
<path fill="none" stroke="midnightblue" d="M1081.27,-602.127C1118.49,-599.759 1182.78,-592.208 1232,-568.201 1254.32,-557.313 1274.94,-536.279 1285.86,-523.922"/>
<polygon fill="midnightblue" stroke="midnightblue" points="1080.87,-598.644 1071.08,-602.688 1081.26,-605.633 1080.87,-598.644"/>
</g>
<!-- Node28 -->
<g id="node28" class="node"><title>Node28</title>
<polygon fill="white" stroke="#bfbfbf" points="1025.5,-555.701 1025.5,-574.701 1074.5,-574.701 1074.5,-555.701 1025.5,-555.701"/>
<text text-anchor="middle" x="1050" y="-562.701" font-family="Helvetica,sans-Serif" font-size="10.00">Button</text>
</g>
<!-- Node28&#45;&gt;Node26 -->
<g id="edge36" class="edge"><title>Node28&#45;&gt;Node26</title>
<path fill="none" stroke="#9a32cd" stroke-dasharray="5,2" d="M1084.89,-562.023C1121.57,-558.107 1181.58,-550.309 1232,-537.201 1245.44,-533.706 1260.03,-528.376 1271.68,-523.727"/>
<polygon fill="#9a32cd" stroke="#9a32cd" points="1084.33,-558.562 1074.74,-563.071 1085.05,-565.525 1084.33,-558.562"/>
<text text-anchor="middle" x="1192" y="-556.201" font-family="Helvetica,sans-Serif" font-size="10.00"> runButton</text>
</g>
<!-- Node29 -->
<g id="node29" class="node"><title>Node29</title>
<polygon fill="white" stroke="#bfbfbf" points="1021,-517.701 1021,-536.701 1079,-536.701 1079,-517.701 1021,-517.701"/>
<text text-anchor="middle" x="1050" y="-524.701" font-family="Helvetica,sans-Serif" font-size="10.00">TextArea</text>
</g>
<!-- Node29&#45;&gt;Node26 -->
<g id="edge38" class="edge"><title>Node29&#45;&gt;Node26</title>
<path fill="none" stroke="#9a32cd" stroke-dasharray="5,2" d="M1089.52,-525.14C1136.92,-522.604 1216.58,-518.343 1261.19,-515.956"/>
<polygon fill="#9a32cd" stroke="#9a32cd" points="1089.15,-521.655 1079.35,-525.684 1089.52,-528.645 1089.15,-521.655"/>
<text text-anchor="middle" x="1192" y="-525.201" font-family="Helvetica,sans-Serif" font-size="10.00"> textEditor</text>
</g>
<!-- Node30 -->
<g id="node30" class="node"><title>Node30</title>
<polygon fill="white" stroke="#bfbfbf" points="1446.5,-38.701 1446.5,-57.701 1565.5,-57.701 1565.5,-38.701 1446.5,-38.701"/>
<text text-anchor="middle" x="1506" y="-45.701" font-family="Helvetica,sans-Serif" font-size="10.00">Map&lt; String, Node &gt;</text>
</g>
<!-- Node30&#45;&gt;Node24 -->
<g id="edge40" class="edge"><title>Node30&#45;&gt;Node24</title>
<path fill="none" stroke="#9a32cd" stroke-dasharray="5,2" d="M1575.9,-38.6316C1604.73,-38.3543 1636.85,-43.402 1660,-62.201 1722.44,-112.892 1724.36,-223.984 1723.44,-257.463"/>
<polygon fill="#9a32cd" stroke="#9a32cd" points="1575.74,-35.1345 1565.85,-38.938 1575.96,-42.1313 1575.74,-35.1345"/>
<text text-anchor="middle" x="1622" y="-65.201" font-family="Helvetica,sans-Serif" font-size="10.00"> variables</text>
</g>
<!-- Node31 -->
<g id="node31" class="node"><title>Node31</title>
<polygon fill="white" stroke="#bfbfbf" points="1465.5,-0.701017 1465.5,-19.701 1546.5,-19.701 1546.5,-0.701017 1465.5,-0.701017"/>
<text text-anchor="middle" x="1506" y="-7.70102" font-family="Helvetica,sans-Serif" font-size="10.00">Dimension2D</text>
</g>
<!-- Node31&#45;&gt;Node24 -->
<g id="edge43" class="edge"><title>Node31&#45;&gt;Node24</title>
<path fill="none" stroke="#9a32cd" stroke-dasharray="5,2" d="M1556.95,-1.16707C1589.92,1.8236 1632.03,-0.437917 1660,-24.201 1697.04,-55.6616 1717.35,-216.701 1721.98,-257.697"/>
<polygon fill="#9a32cd" stroke="#9a32cd" points="1556.16,2.26706 1546.6,-2.30202 1556.92,-4.69125 1556.16,2.26706"/>
<text text-anchor="middle" x="1622" y="-27.201" font-family="Helvetica,sans-Serif" font-size="10.00"> myDimensions</text>
</g>
<!-- Node32&#45;&gt;Node9 -->
<g id="edge50" class="edge"><title>Node32&#45;&gt;Node9</title>
<path fill="none" stroke="#9a32cd" stroke-dasharray="5,2" d="M1468.73,-201.312C1377.05,-168.755 1142.65,-85.673 1134,-84.201 916.657,-47.2242 835.271,7.23421 638,-91.201 485.279,-167.406 417.618,-394.054 404.445,-443.574"/>
<polygon fill="#9a32cd" stroke="#9a32cd" points="1467.57,-204.615 1478.17,-204.664 1469.92,-198.019 1467.57,-204.615"/>
<text text-anchor="middle" x="1050" y="-87.201" font-family="Helvetica,sans-Serif" font-size="10.00"> myDrawer</text>
</g>
<!-- Node32&#45;&gt;Node24 -->
<g id="edge44" class="edge"><title>Node32&#45;&gt;Node24</title>
<path fill="none" stroke="#9a32cd" stroke-dasharray="5,2" d="M1552.69,-220.158C1583.39,-224.744 1624.55,-232.032 1660,-242.201 1674.36,-246.322 1689.98,-252.507 1702.07,-257.694"/>
<polygon fill="#9a32cd" stroke="#9a32cd" points="1553.1,-216.681 1542.7,-218.705 1552.09,-223.608 1553.1,-216.681"/>
<text text-anchor="middle" x="1622" y="-245.201" font-family="Helvetica,sans-Serif" font-size="10.00"> drawer</text>
</g>
<!-- Node33 -->
<g id="node33" class="node"><title>Node33</title>
<polygon fill="white" stroke="#bfbfbf" points="1274.5,-197.701 1274.5,-216.701 1315.5,-216.701 1315.5,-197.701 1274.5,-197.701"/>
<text text-anchor="middle" x="1295" y="-204.701" font-family="Helvetica,sans-Serif" font-size="10.00">Color</text>
</g>
<!-- Node33&#45;&gt;Node32 -->
<g id="edge46" class="edge"><title>Node33&#45;&gt;Node32</title>
<path fill="none" stroke="#9a32cd" stroke-dasharray="5,2" d="M1325.93,-206.83C1352.7,-206.64 1392.98,-206.706 1428,-208.201 1441.53,-208.779 1456.37,-209.834 1469.38,-210.901"/>
<polygon fill="#9a32cd" stroke="#9a32cd" points="1325.66,-203.332 1315.69,-206.92 1325.72,-210.332 1325.66,-203.332"/>
<text text-anchor="middle" x="1393" y="-211.201" font-family="Helvetica,sans-Serif" font-size="10.00"> myColor</text>
</g>
<!-- Node34 -->
<g id="node34" class="node"><title>Node34</title>
<polygon fill="white" stroke="#bfbfbf" points="656,-471.701 656,-490.701 794,-490.701 794,-471.701 656,-471.701"/>
<text text-anchor="middle" x="725" y="-478.701" font-family="Helvetica,sans-Serif" font-size="10.00">ObservableList&lt; String &gt;</text>
</g>
<!-- Node34&#45;&gt;Node17 -->
<g id="edge48" class="edge"><title>Node34&#45;&gt;Node17</title>
<path fill="none" stroke="#9a32cd" stroke-dasharray="5,2" d="M804.407,-471.734C870.005,-463.813 960.738,-452.858 1011.23,-446.762"/>
<polygon fill="#9a32cd" stroke="#9a32cd" points="803.614,-468.304 794.105,-472.978 804.453,-475.254 803.614,-468.304"/>
<text text-anchor="middle" x="889" y="-483.201" font-family="Helvetica,sans-Serif" font-size="10.00"> myCommandItems</text>
<text text-anchor="middle" x="889" y="-472.201" font-family="Helvetica,sans-Serif" font-size="10.00">myHistoryItems</text>
</g>
<!-- Node35 -->
<g id="node35" class="node"><title>Node35</title>
<polygon fill="white" stroke="#bfbfbf" points="1018.5,-227.701 1018.5,-246.701 1081.5,-246.701 1081.5,-227.701 1018.5,-227.701"/>
<text text-anchor="middle" x="1050" y="-234.701" font-family="Helvetica,sans-Serif" font-size="10.00">Rectangle</text>
</g>
<!-- Node35&#45;&gt;Node10 -->
<g id="edge49" class="edge"><title>Node35&#45;&gt;Node10</title>
<path fill="none" stroke="#9a32cd" stroke-dasharray="5,2" d="M1092.06,-239.859C1128.77,-242.305 1184,-246.155 1232,-250.201 1237.82,-250.691 1243.94,-251.242 1249.98,-251.805"/>
<polygon fill="#9a32cd" stroke="#9a32cd" points="1091.97,-236.346 1081.76,-239.178 1091.51,-243.33 1091.97,-236.346"/>
<text text-anchor="middle" x="1192" y="-253.201" font-family="Helvetica,sans-Serif" font-size="10.00"> myBackground</text>
</g>
<!-- Node36 -->
<g id="node36" class="node"><title>Node36</title>
<polygon fill="white" stroke="#bfbfbf" points="333,-785.201 333,-815.201 469,-815.201 469,-785.201 333,-785.201"/>
<text text-anchor="start" x="341" y="-803.201" font-family="Helvetica,sans-Serif" font-size="10.00">List&lt; model.instructions.</text>
<text text-anchor="middle" x="401" y="-792.201" font-family="Helvetica,sans-Serif" font-size="10.00">Instruction &gt;</text>
</g>
<!-- Node36&#45;&gt;Node2 -->
<g id="edge52" class="edge"><title>Node36&#45;&gt;Node2</title>
<path fill="none" stroke="#9a32cd" stroke-dasharray="5,2" d="M474.604,-782.839C539.429,-767.338 631.962,-745.21 684.17,-732.726"/>
<polygon fill="#9a32cd" stroke="#9a32cd" points="473.761,-779.442 464.849,-785.172 475.389,-786.25 473.761,-779.442"/>
<text text-anchor="middle" x="559" y="-779.201" font-family="Helvetica,sans-Serif" font-size="10.00"> myDependencies</text>
</g>
</g>
</svg>
