<?xml version="1.0" encoding="UTF-8" standalone="no"?>
<!DOCTYPE svg PUBLIC "-//W3C//DTD SVG 1.1//EN"
 "http://www.w3.org/Graphics/SVG/1.1/DTD/svg11.dtd">
<!-- Generated by graphviz version 2.36.0 (20140111.2315)
 -->
<!-- Title: model.TurtleCommand.isRelative Pages: 1 -->
<svg width="932pt" height="38pt"
 viewBox="0.00 0.00 932.00 38.00" xmlns="http://www.w3.org/2000/svg" xmlns:xlink="http://www.w3.org/1999/xlink">
<g id="graph0" class="graph" transform="scale(1 1) rotate(0) translate(4 34)">
<title>model.TurtleCommand.isRelative</title>
<polygon fill="white" stroke="none" points="-4,4 -4,-34 928,-34 928,4 -4,4"/>
<!-- Node1 -->
<g id="node1" class="node"><title>Node1</title>
<polygon fill="#bfbfbf" stroke="black" points="0.5,-5.5 0.5,-24.5 173.5,-24.5 173.5,-5.5 0.5,-5.5"/>
<text text-anchor="middle" x="87" y="-12.5" font-family="Helvetica,sans-Serif" font-size="10.00">model.TurtleCommand.isRelative</text>
</g>
<!-- Node2 -->
<g id="node2" class="node"><title>Node2</title>
<g id="a_node2"><a xlink:href="../../de/d0a/classview_1_1_drawer.html#a6b9f362b8bc763689630b1fe7b5c1887" target="_top" xlink:title="view.Drawer.draw">
<polygon fill="white" stroke="black" points="210,-5.5 210,-24.5 308,-24.5 308,-5.5 210,-5.5"/>
<text text-anchor="middle" x="259" y="-12.5" font-family="Helvetica,sans-Serif" font-size="10.00">view.Drawer.draw</text>
</a>
</g>
</g>
<!-- Node1&#45;&gt;Node2 -->
<g id="edge1" class="edge"><title>Node1&#45;&gt;Node2</title>
<path fill="none" stroke="midnightblue" d="M184.102,-15C193.009,-15 201.751,-15 209.927,-15"/>
<polygon fill="midnightblue" stroke="midnightblue" points="183.996,-11.5001 173.996,-15 183.996,-18.5001 183.996,-11.5001"/>
</g>
<!-- Node3 -->
<g id="node3" class="node"><title>Node3</title>
<g id="a_node3"><a xlink:href="../../d4/d64/classview_1_1_view_updater.html#adc0790ceed057768bd5a29a470e626d1" target="_top" xlink:title="view.ViewUpdater.updateWorkspace">
<polygon fill="white" stroke="black" points="344.5,-5.5 344.5,-24.5 531.5,-24.5 531.5,-5.5 344.5,-5.5"/>
<text text-anchor="middle" x="438" y="-12.5" font-family="Helvetica,sans-Serif" font-size="10.00">view.ViewUpdater.updateWorkspace</text>
</a>
</g>
</g>
<!-- Node2&#45;&gt;Node3 -->
<g id="edge2" class="edge"><title>Node2&#45;&gt;Node3</title>
<path fill="none" stroke="midnightblue" d="M318.382,-15C326.779,-15 335.587,-15 344.45,-15"/>
<polygon fill="midnightblue" stroke="midnightblue" points="318.366,-11.5001 308.366,-15 318.366,-18.5001 318.366,-11.5001"/>
</g>
<!-- Node4 -->
<g id="node4" class="node"><title>Node4</title>
<g id="a_node4"><a xlink:href="../../d1/dd3/classmodel_1_1instructions_1_1_movement_instruction.html#a51c776093aeb820937b12e2b89eb2f89" target="_top" xlink:title="model.instructions.Movement\lInstruction.updateView">
<polygon fill="white" stroke="black" points="568.5,-0 568.5,-30 727.5,-30 727.5,-0 568.5,-0"/>
<text text-anchor="start" x="576.5" y="-18" font-family="Helvetica,sans-Serif" font-size="10.00">model.instructions.Movement</text>
<text text-anchor="middle" x="648" y="-7" font-family="Helvetica,sans-Serif" font-size="10.00">Instruction.updateView</text>
</a>
</g>
</g>
<!-- Node3&#45;&gt;Node4 -->
<g id="edge3" class="edge"><title>Node3&#45;&gt;Node4</title>
<path fill="none" stroke="midnightblue" d="M541.821,-15C550.762,-15 559.714,-15 568.413,-15"/>
<polygon fill="midnightblue" stroke="midnightblue" points="541.746,-11.5001 531.746,-15 541.746,-18.5001 541.746,-11.5001"/>
</g>
<!-- Node5 -->
<g id="node5" class="node"><title>Node5</title>
<g id="a_node5"><a xlink:href="../../d1/dd3/classmodel_1_1instructions_1_1_movement_instruction.html#a33e802cec8283d190a8daac6e485e3b4" target="_top" xlink:title="model.instructions.Movement\lInstruction.execute">
<polygon fill="white" stroke="black" points="764.5,-0 764.5,-30 923.5,-30 923.5,-0 764.5,-0"/>
<text text-anchor="start" x="772.5" y="-18" font-family="Helvetica,sans-Serif" font-size="10.00">model.instructions.Movement</text>
<text text-anchor="middle" x="844" y="-7" font-family="Helvetica,sans-Serif" font-size="10.00">Instruction.execute</text>
</a>
</g>
</g>
<!-- Node4&#45;&gt;Node5 -->
<g id="edge4" class="edge"><title>Node4&#45;&gt;Node5</title>
<path fill="none" stroke="midnightblue" d="M737.895,-15C746.691,-15 755.577,-15 764.26,-15"/>
<polygon fill="midnightblue" stroke="midnightblue" points="737.628,-11.5001 727.628,-15 737.628,-18.5001 737.628,-11.5001"/>
</g>
</g>
</svg>
