<?xml version="1.0" encoding="UTF-8" standalone="no"?>
<!DOCTYPE svg PUBLIC "-//W3C//DTD SVG 1.1//EN"
 "http://www.w3.org/Graphics/SVG/1.1/DTD/svg11.dtd">
<!-- Generated by graphviz version 2.36.0 (20140111.2315)
 -->
<!-- Title: model.instructions.MovementInstruction.updateView Pages: 1 -->
<svg width="1176pt" height="554pt"
 viewBox="0.00 0.00 1176.00 553.67" xmlns="http://www.w3.org/2000/svg" xmlns:xlink="http://www.w3.org/1999/xlink">
<g id="graph0" class="graph" transform="scale(1 1) rotate(0) translate(4 549.668)">
<title>model.instructions.MovementInstruction.updateView</title>
<polygon fill="white" stroke="none" points="-4,4 -4,-549.668 1172,-549.668 1172,4 -4,4"/>
<!-- Node1 -->
<g id="node1" class="node"><title>Node1</title>
<polygon fill="#bfbfbf" stroke="black" points="0.5,-244.668 0.5,-274.668 159.5,-274.668 159.5,-244.668 0.5,-244.668"/>
<text text-anchor="start" x="8.5" y="-262.668" font-family="Helvetica,sans-Serif" font-size="10.00">model.instructions.Movement</text>
<text text-anchor="middle" x="80" y="-251.668" font-family="Helvetica,sans-Serif" font-size="10.00">Instruction.updateView</text>
</g>
<!-- Node2 -->
<g id="node2" class="node"><title>Node2</title>
<g id="a_node2"><a xlink:href="../../d1/dca/classmodel_1_1_execution_environment.html#a429a18123e450d0e124af2ccf2274b06" target="_top" xlink:title="model.ExecutionEnvironment.get\lActiveTurtle">
<polygon fill="white" stroke="black" points="202,-266.668 202,-296.668 378,-296.668 378,-266.668 202,-266.668"/>
<text text-anchor="start" x="210" y="-284.668" font-family="Helvetica,sans-Serif" font-size="10.00">model.ExecutionEnvironment.get</text>
<text text-anchor="middle" x="290" y="-273.668" font-family="Helvetica,sans-Serif" font-size="10.00">ActiveTurtle</text>
</a>
</g>
</g>
<!-- Node1&#45;&gt;Node2 -->
<g id="edge1" class="edge"><title>Node1&#45;&gt;Node2</title>
<path fill="none" stroke="midnightblue" d="M159.636,-267.986C170.098,-269.092 180.924,-270.237 191.655,-271.372"/>
<polygon fill="midnightblue" stroke="midnightblue" points="191.588,-274.885 201.9,-272.456 192.324,-267.923 191.588,-274.885"/>
</g>
<!-- Node3 -->
<g id="node3" class="node"><title>Node3</title>
<g id="a_node3"><a xlink:href="../../d4/d64/classview_1_1_view_updater.html#adc0790ceed057768bd5a29a470e626d1" target="_top" xlink:title="view.ViewUpdater.updateWorkspace">
<polygon fill="white" stroke="black" points="196.5,-228.168 196.5,-247.168 383.5,-247.168 383.5,-228.168 196.5,-228.168"/>
<text text-anchor="middle" x="290" y="-235.168" font-family="Helvetica,sans-Serif" font-size="10.00">view.ViewUpdater.updateWorkspace</text>
</a>
</g>
</g>
<!-- Node1&#45;&gt;Node3 -->
<g id="edge2" class="edge"><title>Node1&#45;&gt;Node3</title>
<path fill="none" stroke="midnightblue" d="M159.636,-251.351C169.199,-250.34 179.066,-249.296 188.888,-248.257"/>
<polygon fill="midnightblue" stroke="midnightblue" points="189.515,-251.71 199.091,-247.178 188.779,-244.749 189.515,-251.71"/>
</g>
<!-- Node4 -->
<g id="node4" class="node"><title>Node4</title>
<g id="a_node4"><a xlink:href="../../da/d64/classview_1_1_workspace.html#a08f0e92c7d15f9c170e406af39ec54a5" target="_top" xlink:title="view.Workspace.getLines">
<polygon fill="white" stroke="black" points="420,-266.168 420,-285.168 554,-285.168 554,-266.168 420,-266.168"/>
<text text-anchor="middle" x="487" y="-273.168" font-family="Helvetica,sans-Serif" font-size="10.00">view.Workspace.getLines</text>
</a>
</g>
</g>
<!-- Node3&#45;&gt;Node4 -->
<g id="edge3" class="edge"><title>Node3&#45;&gt;Node4</title>
<path fill="none" stroke="midnightblue" d="M339.955,-247.208C366.381,-252.358 399.194,-258.752 427.02,-264.175"/>
<polygon fill="midnightblue" stroke="midnightblue" points="426.54,-267.647 437.025,-266.125 427.879,-260.776 426.54,-267.647"/>
</g>
<!-- Node5 -->
<g id="node5" class="node"><title>Node5</title>
<g id="a_node5"><a xlink:href="../../de/d0a/classview_1_1_drawer.html#a6b9f362b8bc763689630b1fe7b5c1887" target="_top" xlink:title="view.Drawer.draw">
<polygon fill="white" stroke="black" points="438,-228.168 438,-247.168 536,-247.168 536,-228.168 438,-228.168"/>
<text text-anchor="middle" x="487" y="-235.168" font-family="Helvetica,sans-Serif" font-size="10.00">view.Drawer.draw</text>
</a>
</g>
</g>
<!-- Node3&#45;&gt;Node5 -->
<g id="edge4" class="edge"><title>Node3&#45;&gt;Node5</title>
<path fill="none" stroke="midnightblue" d="M383.646,-237.668C398.602,-237.668 413.712,-237.668 427.561,-237.668"/>
<polygon fill="midnightblue" stroke="midnightblue" points="427.883,-241.168 437.883,-237.668 427.883,-234.168 427.883,-241.168"/>
</g>
<!-- Node21 -->
<g id="node21" class="node"><title>Node21</title>
<g id="a_node21"><a xlink:href="../../da/d64/classview_1_1_workspace.html#ad460da1164f039e5ea9a265d446d13fe" target="_top" xlink:title="view.Workspace.getTurtleMap">
<polygon fill="white" stroke="black" points="1012.5,-197.168 1012.5,-216.168 1167.5,-216.168 1167.5,-197.168 1012.5,-197.168"/>
<text text-anchor="middle" x="1090" y="-204.168" font-family="Helvetica,sans-Serif" font-size="10.00">view.Workspace.getTurtleMap</text>
</a>
</g>
</g>
<!-- Node3&#45;&gt;Node21 -->
<g id="edge31" class="edge"><title>Node3&#45;&gt;Node21</title>
<path fill="none" stroke="midnightblue" d="M300.103,-227.961C334.081,-192.536 458.305,-70.1328 590,-28.6684 755.411,23.4115 827.575,4.01435 976,-85.6684 1020.67,-112.661 1058.83,-162.242 1077.23,-188.784"/>
<polygon fill="midnightblue" stroke="midnightblue" points="1074.39,-190.825 1082.9,-197.137 1080.18,-186.896 1074.39,-190.825"/>
</g>
<!-- Node6 -->
<g id="node6" class="node"><title>Node6</title>
<g id="a_node6"><a xlink:href="../../d6/d06/classmodel_1_1_turtle_command.html#ab30f5c95162492cb8fd19f1fd7350f9f" target="_top" xlink:title="model.TurtleCommand.getTurtleId">
<polygon fill="white" stroke="black" points="590,-342.168 590,-361.168 768,-361.168 768,-342.168 590,-342.168"/>
<text text-anchor="middle" x="679" y="-349.168" font-family="Helvetica,sans-Serif" font-size="10.00">model.TurtleCommand.getTurtleId</text>
</a>
</g>
</g>
<!-- Node5&#45;&gt;Node6 -->
<g id="edge5" class="edge"><title>Node5&#45;&gt;Node6</title>
<path fill="none" stroke="midnightblue" d="M536.252,-246.284C542.676,-248.884 548.821,-252.267 554,-256.668 582.481,-280.871 560.717,-309.443 590,-332.668 592.089,-334.326 594.291,-335.846 596.581,-337.241"/>
<polygon fill="midnightblue" stroke="midnightblue" points="595.311,-340.525 605.799,-342.022 598.534,-334.311 595.311,-340.525"/>
</g>
<!-- Node7 -->
<g id="node7" class="node"><title>Node7</title>
<g id="a_node7"><a xlink:href="../../d6/d06/classmodel_1_1_turtle_command.html#ab94da8b47588273eb8db943096f12422" target="_top" xlink:title="model.TurtleCommand.getPolar">
<polygon fill="white" stroke="black" points="595,-304.168 595,-323.168 763,-323.168 763,-304.168 595,-304.168"/>
<text text-anchor="middle" x="679" y="-311.168" font-family="Helvetica,sans-Serif" font-size="10.00">model.TurtleCommand.getPolar</text>
</a>
</g>
</g>
<!-- Node5&#45;&gt;Node7 -->
<g id="edge6" class="edge"><title>Node5&#45;&gt;Node7</title>
<path fill="none" stroke="midnightblue" d="M533.379,-247.247C540.555,-249.732 547.684,-252.827 554,-256.668 573.878,-268.756 569.725,-283.26 590,-294.668 594.016,-296.928 598.275,-298.92 602.666,-300.674"/>
<polygon fill="midnightblue" stroke="midnightblue" points="601.856,-304.101 612.45,-304.15 604.199,-297.504 601.856,-304.101"/>
</g>
<!-- Node8 -->
<g id="node8" class="node"><title>Node8</title>
<g id="a_node8"><a xlink:href="../../d1/d0b/classmodel_1_1_polar.html#a8abcb5640caf12d2941533a6e1c04faa" target="_top" xlink:title="model.Polar.getDistance">
<polygon fill="white" stroke="black" points="612,-266.168 612,-285.168 746,-285.168 746,-266.168 612,-266.168"/>
<text text-anchor="middle" x="679" y="-273.168" font-family="Helvetica,sans-Serif" font-size="10.00">model.Polar.getDistance</text>
</a>
</g>
</g>
<!-- Node5&#45;&gt;Node8 -->
<g id="edge7" class="edge"><title>Node5&#45;&gt;Node8</title>
<path fill="none" stroke="midnightblue" d="M535.945,-247.257C561.582,-252.385 593.336,-258.736 620.316,-264.132"/>
<polygon fill="midnightblue" stroke="midnightblue" points="619.908,-267.619 630.4,-266.148 621.28,-260.755 619.908,-267.619"/>
</g>
<!-- Node9 -->
<g id="node9" class="node"><title>Node9</title>
<g id="a_node9"><a xlink:href="../../d1/d0b/classmodel_1_1_polar.html#adbd9afb75cf519b2dd9f1331e406b8c2" target="_top" xlink:title="model.Polar.getAngle">
<polygon fill="white" stroke="black" points="619.5,-228.168 619.5,-247.168 738.5,-247.168 738.5,-228.168 619.5,-228.168"/>
<text text-anchor="middle" x="679" y="-235.168" font-family="Helvetica,sans-Serif" font-size="10.00">model.Polar.getAngle</text>
</a>
</g>
</g>
<!-- Node5&#45;&gt;Node9 -->
<g id="edge8" class="edge"><title>Node5&#45;&gt;Node9</title>
<path fill="none" stroke="midnightblue" d="M536.437,-237.668C558.563,-237.668 585.167,-237.668 609.31,-237.668"/>
<polygon fill="midnightblue" stroke="midnightblue" points="609.486,-241.168 619.486,-237.668 609.486,-234.168 609.486,-241.168"/>
</g>
<!-- Node10 -->
<g id="node10" class="node"><title>Node10</title>
<g id="a_node10"><a xlink:href="../../de/d0a/classview_1_1_drawer.html#ad1636376006d26ed1ca9784e13f96a2a" target="_top" xlink:title="view.Drawer.wrapY">
<polygon fill="white" stroke="black" points="627.5,-114.168 627.5,-133.168 730.5,-133.168 730.5,-114.168 627.5,-114.168"/>
<text text-anchor="middle" x="679" y="-121.168" font-family="Helvetica,sans-Serif" font-size="10.00">view.Drawer.wrapY</text>
</a>
</g>
</g>
<!-- Node5&#45;&gt;Node10 -->
<g id="edge9" class="edge"><title>Node5&#45;&gt;Node10</title>
<path fill="none" stroke="midnightblue" d="M495.254,-228.077C510.502,-208.647 547.957,-164.624 590,-142.668 598.432,-138.265 607.828,-134.882 617.253,-132.282"/>
<polygon fill="midnightblue" stroke="midnightblue" points="618.187,-135.656 627.047,-129.847 616.498,-128.863 618.187,-135.656"/>
</g>
<!-- Node11 -->
<g id="node11" class="node"><title>Node11</title>
<g id="a_node11"><a xlink:href="../../d8/df7/classview_1_1_turtle_view.html#a5e7cf3c4f078acae07bcbeee264a5581" target="_top" xlink:title="view.TurtleView.move">
<polygon fill="white" stroke="black" points="832,-95.1684 832,-114.168 948,-114.168 948,-95.1684 832,-95.1684"/>
<text text-anchor="middle" x="890" y="-102.168" font-family="Helvetica,sans-Serif" font-size="10.00">view.TurtleView.move</text>
</a>
</g>
</g>
<!-- Node5&#45;&gt;Node11 -->
<g id="edge17" class="edge"><title>Node5&#45;&gt;Node11</title>
<path fill="none" stroke="midnightblue" d="M491.843,-227.845C502.631,-201.828 535.981,-131.317 590,-104.668 671.854,-64.2893 782.317,-79.3773 843.477,-92.7877"/>
<polygon fill="midnightblue" stroke="midnightblue" points="843.054,-96.2809 853.581,-95.0872 844.607,-89.4554 843.054,-96.2809"/>
</g>
<!-- Node12 -->
<g id="node12" class="node"><title>Node12</title>
<g id="a_node12"><a xlink:href="../../d8/df7/classview_1_1_turtle_view.html#a68c8a2962e23e5794fcfbe7ef1968fad" target="_top" xlink:title="view.TurtleView.getPenUp">
<polygon fill="white" stroke="black" points="822,-171.168 822,-190.168 958,-190.168 958,-171.168 822,-171.168"/>
<text text-anchor="middle" x="890" y="-178.168" font-family="Helvetica,sans-Serif" font-size="10.00">view.TurtleView.getPenUp</text>
</a>
</g>
</g>
<!-- Node5&#45;&gt;Node12 -->
<g id="edge18" class="edge"><title>Node5&#45;&gt;Node12</title>
<path fill="none" stroke="midnightblue" d="M535.899,-228.156C552.941,-224.928 572.293,-221.44 590,-218.668 665.016,-206.925 751.055,-196.285 811.519,-189.271"/>
<polygon fill="midnightblue" stroke="midnightblue" points="812.216,-192.714 821.749,-188.091 811.414,-185.76 812.216,-192.714"/>
</g>
<!-- Node14 -->
<g id="node14" class="node"><title>Node14</title>
<g id="a_node14"><a xlink:href="../../de/d0a/classview_1_1_drawer.html#a24eafc164d9d0ab08036dc5cf7d72dd4" target="_top" xlink:title="view.Drawer.wrapX">
<polygon fill="white" stroke="black" points="627,-152.168 627,-171.168 731,-171.168 731,-152.168 627,-152.168"/>
<text text-anchor="middle" x="679" y="-159.168" font-family="Helvetica,sans-Serif" font-size="10.00">view.Drawer.wrapX</text>
</a>
</g>
</g>
<!-- Node5&#45;&gt;Node14 -->
<g id="edge13" class="edge"><title>Node5&#45;&gt;Node14</title>
<path fill="none" stroke="midnightblue" d="M504.129,-228.131C523.844,-216.785 558.482,-197.852 590,-185.668 601.54,-181.208 614.232,-177.235 626.298,-173.867"/>
<polygon fill="midnightblue" stroke="midnightblue" points="627.504,-177.166 636.248,-171.183 625.681,-170.408 627.504,-177.166"/>
</g>
<!-- Node15 -->
<g id="node15" class="node"><title>Node15</title>
<g id="a_node15"><a xlink:href="../../d6/d06/classmodel_1_1_turtle_command.html#abb952ce819f91c0f5970c2f2b1c43d73" target="_top" xlink:title="model.TurtleCommand.isRelative">
<polygon fill="white" stroke="black" points="592.5,-38.1684 592.5,-57.1684 765.5,-57.1684 765.5,-38.1684 592.5,-38.1684"/>
<text text-anchor="middle" x="679" y="-45.1684" font-family="Helvetica,sans-Serif" font-size="10.00">model.TurtleCommand.isRelative</text>
</a>
</g>
</g>
<!-- Node5&#45;&gt;Node15 -->
<g id="edge19" class="edge"><title>Node5&#45;&gt;Node15</title>
<path fill="none" stroke="midnightblue" d="M491.053,-228.051C500.627,-199.484 532.883,-114.464 590,-71.6684 595.838,-67.2945 602.423,-63.7176 609.299,-60.7925"/>
<polygon fill="midnightblue" stroke="midnightblue" points="610.697,-64.0058 618.812,-57.1941 608.221,-57.4585 610.697,-64.0058"/>
</g>
<!-- Node16 -->
<g id="node16" class="node"><title>Node16</title>
<g id="a_node16"><a xlink:href="../../d8/df7/classview_1_1_turtle_view.html#a199407b3121d1bc310d7f75cdab2da94" target="_top" xlink:title="view.TurtleView.setRelative\lHeading">
<polygon fill="white" stroke="black" points="609,-429.668 609,-459.668 749,-459.668 749,-429.668 609,-429.668"/>
<text text-anchor="start" x="617" y="-447.668" font-family="Helvetica,sans-Serif" font-size="10.00">view.TurtleView.setRelative</text>
<text text-anchor="middle" x="679" y="-436.668" font-family="Helvetica,sans-Serif" font-size="10.00">Heading</text>
</a>
</g>
</g>
<!-- Node5&#45;&gt;Node16 -->
<g id="edge20" class="edge"><title>Node5&#45;&gt;Node16</title>
<path fill="none" stroke="midnightblue" d="M536.211,-244.855C542.876,-247.639 549.103,-251.453 554,-256.668 604.784,-310.753 539.121,-365.673 590,-419.668 593.002,-422.854 596.378,-425.644 600.012,-428.086"/>
<polygon fill="midnightblue" stroke="midnightblue" points="598.488,-431.247 608.906,-433.175 601.965,-425.171 598.488,-431.247"/>
</g>
<!-- Node18 -->
<g id="node18" class="node"><title>Node18</title>
<g id="a_node18"><a xlink:href="../../d8/df7/classview_1_1_turtle_view.html#a166c0ff50e234c0a2725aa1cbc38c933" target="_top" xlink:title="view.TurtleView.setAbsolute\lHeading">
<polygon fill="white" stroke="black" points="606,-380.668 606,-410.668 752,-410.668 752,-380.668 606,-380.668"/>
<text text-anchor="start" x="614" y="-398.668" font-family="Helvetica,sans-Serif" font-size="10.00">view.TurtleView.setAbsolute</text>
<text text-anchor="middle" x="679" y="-387.668" font-family="Helvetica,sans-Serif" font-size="10.00">Heading</text>
</a>
</g>
</g>
<!-- Node5&#45;&gt;Node18 -->
<g id="edge22" class="edge"><title>Node5&#45;&gt;Node18</title>
<path fill="none" stroke="midnightblue" d="M536.149,-245.382C542.741,-248.102 548.962,-251.758 554,-256.668 592.048,-293.756 551.887,-333.648 590,-370.668 592.19,-372.795 594.546,-374.743 597.033,-376.528"/>
<polygon fill="midnightblue" stroke="midnightblue" points="595.578,-379.742 605.932,-381.987 599.238,-373.775 595.578,-379.742"/>
</g>
<!-- Node19 -->
<g id="node19" class="node"><title>Node19</title>
<g id="a_node19"><a xlink:href="../../d1/dc7/classview_1_1_side_bar.html#a7d73038dbba05f96990b60664afa2670" target="_top" xlink:title="view.SideBar.updateTurtle\lProperties">
<polygon fill="white" stroke="black" points="610,-478.668 610,-508.668 748,-508.668 748,-478.668 610,-478.668"/>
<text text-anchor="start" x="618" y="-496.668" font-family="Helvetica,sans-Serif" font-size="10.00">view.SideBar.updateTurtle</text>
<text text-anchor="middle" x="679" y="-485.668" font-family="Helvetica,sans-Serif" font-size="10.00">Properties</text>
</a>
</g>
</g>
<!-- Node5&#45;&gt;Node19 -->
<g id="edge24" class="edge"><title>Node5&#45;&gt;Node19</title>
<path fill="none" stroke="midnightblue" d="M536.107,-244.506C542.869,-247.328 549.153,-251.245 554,-256.668 617.687,-327.927 526.188,-397.522 590,-468.668 593.274,-472.319 597.039,-475.452 601.127,-478.141"/>
<polygon fill="midnightblue" stroke="midnightblue" points="599.486,-481.233 609.923,-483.056 602.901,-475.122 599.486,-481.233"/>
</g>
<!-- Node10&#45;&gt;Node11 -->
<g id="edge10" class="edge"><title>Node10&#45;&gt;Node11</title>
<path fill="none" stroke="midnightblue" d="M730.593,-119.069C757.934,-116.583 792.055,-113.482 821.619,-110.794"/>
<polygon fill="midnightblue" stroke="midnightblue" points="822.226,-114.253 831.868,-109.862 821.592,-107.282 822.226,-114.253"/>
</g>
<!-- Node10&#45;&gt;Node12 -->
<g id="edge11" class="edge"><title>Node10&#45;&gt;Node12</title>
<path fill="none" stroke="midnightblue" d="M730.929,-132.196C743.251,-134.932 756.251,-138.391 768,-142.668 785,-148.857 787.022,-155.418 804,-161.668 811.184,-164.313 818.85,-166.655 826.528,-168.71"/>
<polygon fill="midnightblue" stroke="midnightblue" points="825.67,-172.103 836.223,-171.161 827.386,-165.317 825.67,-172.103"/>
</g>
<!-- Node13 -->
<g id="node13" class="node"><title>Node13</title>
<g id="a_node13"><a xlink:href="../../de/d0a/classview_1_1_drawer.html#a1489f58b0b2c2012d23d546013a47972" target="_top" xlink:title="view.Drawer.drawLine">
<polygon fill="white" stroke="black" points="831.5,-133.168 831.5,-152.168 948.5,-152.168 948.5,-133.168 831.5,-133.168"/>
<text text-anchor="middle" x="890" y="-140.168" font-family="Helvetica,sans-Serif" font-size="10.00">view.Drawer.drawLine</text>
</a>
</g>
</g>
<!-- Node10&#45;&gt;Node13 -->
<g id="edge12" class="edge"><title>Node10&#45;&gt;Node13</title>
<path fill="none" stroke="midnightblue" d="M730.593,-128.268C757.826,-130.743 791.785,-133.831 821.269,-136.511"/>
<polygon fill="midnightblue" stroke="midnightblue" points="821.216,-140.021 831.492,-137.44 821.85,-133.049 821.216,-140.021"/>
</g>
<!-- Node14&#45;&gt;Node11 -->
<g id="edge14" class="edge"><title>Node14&#45;&gt;Node11</title>
<path fill="none" stroke="midnightblue" d="M731.392,-153.037C743.575,-150.319 756.397,-146.892 768,-142.668 785,-136.48 787.022,-129.919 804,-123.668 811.184,-121.024 818.85,-118.682 826.528,-116.627"/>
<polygon fill="midnightblue" stroke="midnightblue" points="827.386,-120.02 836.223,-114.175 825.67,-113.233 827.386,-120.02"/>
</g>
<!-- Node14&#45;&gt;Node12 -->
<g id="edge15" class="edge"><title>Node14&#45;&gt;Node12</title>
<path fill="none" stroke="midnightblue" d="M731.127,-166.316C755.345,-168.518 784.79,-171.195 811.661,-173.638"/>
<polygon fill="midnightblue" stroke="midnightblue" points="811.542,-177.141 821.817,-174.561 812.175,-170.17 811.542,-177.141"/>
</g>
<!-- Node14&#45;&gt;Node13 -->
<g id="edge16" class="edge"><title>Node14&#45;&gt;Node13</title>
<path fill="none" stroke="midnightblue" d="M731.127,-157.02C758.261,-154.554 791.957,-151.49 821.242,-148.828"/>
<polygon fill="midnightblue" stroke="midnightblue" points="821.756,-152.296 831.398,-147.905 821.122,-145.325 821.756,-152.296"/>
</g>
<!-- Node17 -->
<g id="node17" class="node"><title>Node17</title>
<g id="a_node17"><a xlink:href="../../d8/df7/classview_1_1_turtle_view.html#aea0727a510b53db67aa4100a6106eb5b" target="_top" xlink:title="view.TurtleView.adjustAngle">
<polygon fill="white" stroke="black" points="817.5,-401.168 817.5,-420.168 962.5,-420.168 962.5,-401.168 817.5,-401.168"/>
<text text-anchor="middle" x="890" y="-408.168" font-family="Helvetica,sans-Serif" font-size="10.00">view.TurtleView.adjustAngle</text>
</a>
</g>
</g>
<!-- Node16&#45;&gt;Node17 -->
<g id="edge21" class="edge"><title>Node16&#45;&gt;Node17</title>
<path fill="none" stroke="midnightblue" d="M749.014,-433.441C772.007,-429.701 797.601,-425.537 820.552,-421.804"/>
<polygon fill="midnightblue" stroke="midnightblue" points="821.241,-425.237 830.55,-420.177 820.117,-418.328 821.241,-425.237"/>
</g>
<!-- Node18&#45;&gt;Node17 -->
<g id="edge23" class="edge"><title>Node18&#45;&gt;Node17</title>
<path fill="none" stroke="midnightblue" d="M752.219,-400.852C770.039,-402.131 789.248,-403.509 807.475,-404.817"/>
<polygon fill="midnightblue" stroke="midnightblue" points="807.261,-408.311 817.486,-405.536 807.762,-401.329 807.261,-408.311"/>
</g>
<!-- Node20 -->
<g id="node20" class="node"><title>Node20</title>
<g id="a_node20"><a xlink:href="../../d9/d3a/classview_1_1_turtle_properties_view.html#af07bce3cf2bed2814a0fb3812d00b69e" target="_top" xlink:title="view.TurtlePropertiesView.update">
<polygon fill="white" stroke="black" points="804.5,-469.168 804.5,-488.168 975.5,-488.168 975.5,-469.168 804.5,-469.168"/>
<text text-anchor="middle" x="890" y="-476.168" font-family="Helvetica,sans-Serif" font-size="10.00">view.TurtlePropertiesView.update</text>
</a>
</g>
</g>
<!-- Node19&#45;&gt;Node20 -->
<g id="edge25" class="edge"><title>Node19&#45;&gt;Node20</title>
<path fill="none" stroke="midnightblue" d="M748.145,-488.778C762.9,-487.719 778.76,-486.58 794.327,-485.463"/>
<polygon fill="midnightblue" stroke="midnightblue" points="794.776,-488.94 804.499,-484.733 794.275,-481.958 794.776,-488.94"/>
</g>
<!-- Node20&#45;&gt;Node21 -->
<g id="edge26" class="edge"><title>Node20&#45;&gt;Node21</title>
<path fill="none" stroke="midnightblue" d="M915.502,-469.133C934,-460.936 959.013,-447.597 976,-429.668 1035.19,-367.198 1070.48,-267.72 1083.38,-226.038"/>
<polygon fill="midnightblue" stroke="midnightblue" points="1086.78,-226.9 1086.31,-216.316 1080.08,-224.884 1086.78,-226.9"/>
</g>
<!-- Node22 -->
<g id="node22" class="node"><title>Node22</title>
<g id="a_node22"><a xlink:href="../../d8/df7/classview_1_1_turtle_view.html#ab5fdc3775e06339f4a68d1b795a81643" target="_top" xlink:title="view.TurtleView.getID">
<polygon fill="white" stroke="black" points="1033,-412.168 1033,-431.168 1147,-431.168 1147,-412.168 1033,-412.168"/>
<text text-anchor="middle" x="1090" y="-419.168" font-family="Helvetica,sans-Serif" font-size="10.00">view.TurtleView.getID</text>
</a>
</g>
</g>
<!-- Node20&#45;&gt;Node22 -->
<g id="edge27" class="edge"><title>Node20&#45;&gt;Node22</title>
<path fill="none" stroke="midnightblue" d="M919.698,-469.101C944.121,-461.092 980.196,-449.577 1012,-440.668 1020.48,-438.294 1029.52,-435.92 1038.32,-433.695"/>
<polygon fill="midnightblue" stroke="midnightblue" points="1039.26,-437.07 1048.12,-431.254 1037.57,-430.277 1039.26,-437.07"/>
</g>
<!-- Node23 -->
<g id="node23" class="node"><title>Node23</title>
<g id="a_node23"><a xlink:href="../../d8/df7/classview_1_1_turtle_view.html#afddbc74313a99bb100c8c50efa88f330" target="_top" xlink:title="view.TurtleView.getYCoord">
<polygon fill="white" stroke="black" points="1021.5,-526.168 1021.5,-545.168 1158.5,-545.168 1158.5,-526.168 1021.5,-526.168"/>
<text text-anchor="middle" x="1090" y="-533.168" font-family="Helvetica,sans-Serif" font-size="10.00">view.TurtleView.getYCoord</text>
</a>
</g>
</g>
<!-- Node20&#45;&gt;Node23 -->
<g id="edge28" class="edge"><title>Node20&#45;&gt;Node23</title>
<path fill="none" stroke="midnightblue" d="M919.698,-488.236C944.121,-496.245 980.196,-507.76 1012,-516.668 1020.48,-519.043 1029.52,-521.417 1038.32,-523.642"/>
<polygon fill="midnightblue" stroke="midnightblue" points="1037.57,-527.059 1048.12,-526.083 1039.26,-520.267 1037.57,-527.059"/>
</g>
<!-- Node24 -->
<g id="node24" class="node"><title>Node24</title>
<g id="a_node24"><a xlink:href="../../d8/df7/classview_1_1_turtle_view.html#a5da3d4c9dafb77af0db0c589a72eadc8" target="_top" xlink:title="view.TurtleView.getHeading">
<polygon fill="white" stroke="black" points="1018,-488.168 1018,-507.168 1162,-507.168 1162,-488.168 1018,-488.168"/>
<text text-anchor="middle" x="1090" y="-495.168" font-family="Helvetica,sans-Serif" font-size="10.00">view.TurtleView.getHeading</text>
</a>
</g>
</g>
<!-- Node20&#45;&gt;Node24 -->
<g id="edge29" class="edge"><title>Node20&#45;&gt;Node24</title>
<path fill="none" stroke="midnightblue" d="M975.544,-486.781C986.218,-487.805 997.12,-488.852 1007.74,-489.871"/>
<polygon fill="midnightblue" stroke="midnightblue" points="1007.53,-493.367 1017.82,-490.838 1008.2,-486.399 1007.53,-493.367"/>
</g>
<!-- Node25 -->
<g id="node25" class="node"><title>Node25</title>
<g id="a_node25"><a xlink:href="../../d5/dea/classview_1_1_side_table_view.html#adbdf2bf0ebf7fc8ab04db2087baea03a" target="_top" xlink:title="view.SideTableView.getTable">
<polygon fill="white" stroke="black" points="1016,-450.168 1016,-469.168 1164,-469.168 1164,-450.168 1016,-450.168"/>
<text text-anchor="middle" x="1090" y="-457.168" font-family="Helvetica,sans-Serif" font-size="10.00">view.SideTableView.getTable</text>
</a>
</g>
</g>
<!-- Node20&#45;&gt;Node25 -->
<g id="edge30" class="edge"><title>Node20&#45;&gt;Node25</title>
<path fill="none" stroke="midnightblue" d="M975.544,-470.556C985.635,-469.587 995.93,-468.599 1006,-467.633"/>
<polygon fill="midnightblue" stroke="midnightblue" points="1006.36,-471.115 1015.98,-466.676 1005.69,-464.147 1006.36,-471.115"/>
</g>
</g>
</svg>
