<?xml version="1.0" encoding="UTF-8" standalone="no"?>
<!DOCTYPE svg PUBLIC "-//W3C//DTD SVG 1.1//EN"
 "http://www.w3.org/Graphics/SVG/1.1/DTD/svg11.dtd">
<!-- Generated by graphviz version 2.36.0 (20140111.2315)
 -->
<!-- Title: model.instructions.MovementInstruction.updateView Pages: 1 -->
<svg width="972pt" height="583pt"
 viewBox="0.00 0.00 972.00 583.05" xmlns="http://www.w3.org/2000/svg" xmlns:xlink="http://www.w3.org/1999/xlink">
<g id="graph0" class="graph" transform="scale(1 1) rotate(0) translate(4 579.046)">
<title>model.instructions.MovementInstruction.updateView</title>
<polygon fill="white" stroke="none" points="-4,4 -4,-579.046 968,-579.046 968,4 -4,4"/>
<!-- Node1 -->
<g id="node1" class="node"><title>Node1</title>
<polygon fill="#bfbfbf" stroke="black" points="0.5,-522.046 0.5,-552.046 159.5,-552.046 159.5,-522.046 0.5,-522.046"/>
<text text-anchor="start" x="8.5" y="-540.046" font-family="Helvetica,sans-Serif" font-size="10.00">model.instructions.Movement</text>
<text text-anchor="middle" x="80" y="-529.046" font-family="Helvetica,sans-Serif" font-size="10.00">Instruction.updateView</text>
</g>
<!-- Node2 -->
<g id="node2" class="node"><title>Node2</title>
<g id="a_node2"><a xlink:href="../../d1/dca/classmodel_1_1_execution_environment.html#a429a18123e450d0e124af2ccf2274b06" target="_top" xlink:title="model.ExecutionEnvironment.get\lActiveTurtle">
<polygon fill="white" stroke="black" points="202,-544.046 202,-574.046 378,-574.046 378,-544.046 202,-544.046"/>
<text text-anchor="start" x="210" y="-562.046" font-family="Helvetica,sans-Serif" font-size="10.00">model.ExecutionEnvironment.get</text>
<text text-anchor="middle" x="290" y="-551.046" font-family="Helvetica,sans-Serif" font-size="10.00">ActiveTurtle</text>
</a>
</g>
</g>
<!-- Node1&#45;&gt;Node2 -->
<g id="edge1" class="edge"><title>Node1&#45;&gt;Node2</title>
<path fill="none" stroke="midnightblue" d="M159.636,-545.363C170.098,-546.469 180.924,-547.615 191.655,-548.75"/>
<polygon fill="midnightblue" stroke="midnightblue" points="191.588,-552.262 201.9,-549.833 192.324,-545.301 191.588,-552.262"/>
</g>
<!-- Node3 -->
<g id="node3" class="node"><title>Node3</title>
<g id="a_node3"><a xlink:href="../../d4/d64/classview_1_1_view_updater.html#adc0790ceed057768bd5a29a470e626d1" target="_top" xlink:title="view.ViewUpdater.updateWorkspace">
<polygon fill="white" stroke="black" points="196.5,-505.546 196.5,-524.546 383.5,-524.546 383.5,-505.546 196.5,-505.546"/>
<text text-anchor="middle" x="290" y="-512.546" font-family="Helvetica,sans-Serif" font-size="10.00">view.ViewUpdater.updateWorkspace</text>
</a>
</g>
</g>
<!-- Node1&#45;&gt;Node3 -->
<g id="edge2" class="edge"><title>Node1&#45;&gt;Node3</title>
<path fill="none" stroke="midnightblue" d="M159.636,-528.728C169.199,-527.717 179.066,-526.673 188.888,-525.634"/>
<polygon fill="midnightblue" stroke="midnightblue" points="189.515,-529.088 199.091,-524.555 188.779,-522.127 189.515,-529.088"/>
</g>
<!-- Node4 -->
<g id="node4" class="node"><title>Node4</title>
<g id="a_node4"><a xlink:href="../../da/d64/classview_1_1_workspace.html#a08f0e92c7d15f9c170e406af39ec54a5" target="_top" xlink:title="view.Workspace.getLines">
<polygon fill="white" stroke="black" points="420,-543.546 420,-562.546 554,-562.546 554,-543.546 420,-543.546"/>
<text text-anchor="middle" x="487" y="-550.546" font-family="Helvetica,sans-Serif" font-size="10.00">view.Workspace.getLines</text>
</a>
</g>
</g>
<!-- Node3&#45;&gt;Node4 -->
<g id="edge3" class="edge"><title>Node3&#45;&gt;Node4</title>
<path fill="none" stroke="midnightblue" d="M339.955,-524.586C366.381,-529.735 399.194,-536.13 427.02,-541.552"/>
<polygon fill="midnightblue" stroke="midnightblue" points="426.54,-545.024 437.025,-543.502 427.879,-538.154 426.54,-545.024"/>
</g>
<!-- Node5 -->
<g id="node5" class="node"><title>Node5</title>
<g id="a_node5"><a xlink:href="../../de/d0a/classview_1_1_drawer.html#a6b9f362b8bc763689630b1fe7b5c1887" target="_top" xlink:title="view.Drawer.draw">
<polygon fill="white" stroke="black" points="438,-238.546 438,-257.546 536,-257.546 536,-238.546 438,-238.546"/>
<text text-anchor="middle" x="487" y="-245.546" font-family="Helvetica,sans-Serif" font-size="10.00">view.Drawer.draw</text>
</a>
</g>
</g>
<!-- Node3&#45;&gt;Node5 -->
<g id="edge4" class="edge"><title>Node3&#45;&gt;Node5</title>
<path fill="none" stroke="midnightblue" d="M297.94,-505.543C326.486,-466.458 435.109,-317.727 472.926,-265.947"/>
<polygon fill="midnightblue" stroke="midnightblue" points="475.868,-267.853 478.939,-257.713 470.215,-263.725 475.868,-267.853"/>
</g>
<!-- Node20 -->
<g id="node20" class="node"><title>Node20</title>
<g id="a_node20"><a xlink:href="../../da/d64/classview_1_1_workspace.html#ad460da1164f039e5ea9a265d446d13fe" target="_top" xlink:title="view.Workspace.getTurtleMap">
<polygon fill="white" stroke="black" points="806.5,-521.546 806.5,-540.546 961.5,-540.546 961.5,-521.546 806.5,-521.546"/>
<text text-anchor="middle" x="884" y="-528.546" font-family="Helvetica,sans-Serif" font-size="10.00">view.Workspace.getTurtleMap</text>
</a>
</g>
</g>
<!-- Node3&#45;&gt;Node20 -->
<g id="edge31" class="edge"><title>Node3&#45;&gt;Node20</title>
<path fill="none" stroke="midnightblue" d="M383.825,-517.554C496.794,-520.608 686.063,-525.723 796.223,-528.7"/>
<polygon fill="midnightblue" stroke="midnightblue" points="796.213,-532.201 806.304,-528.973 796.403,-525.204 796.213,-532.201"/>
</g>
<!-- Node6 -->
<g id="node6" class="node"><title>Node6</title>
<g id="a_node6"><a xlink:href="../../d6/d06/classmodel_1_1_turtle_command.html#ab30f5c95162492cb8fd19f1fd7350f9f" target="_top" xlink:title="model.TurtleCommand.getTurtleId">
<polygon fill="white" stroke="black" points="590,-352.546 590,-371.546 768,-371.546 768,-352.546 590,-352.546"/>
<text text-anchor="middle" x="679" y="-359.546" font-family="Helvetica,sans-Serif" font-size="10.00">model.TurtleCommand.getTurtleId</text>
</a>
</g>
</g>
<!-- Node5&#45;&gt;Node6 -->
<g id="edge5" class="edge"><title>Node5&#45;&gt;Node6</title>
<path fill="none" stroke="midnightblue" d="M495.254,-257.637C510.502,-277.067 547.957,-321.09 590,-343.046 594.559,-345.426 599.4,-347.509 604.375,-349.331"/>
<polygon fill="midnightblue" stroke="midnightblue" points="603.476,-352.72 614.069,-352.523 605.665,-346.071 603.476,-352.72"/>
</g>
<!-- Node7 -->
<g id="node7" class="node"><title>Node7</title>
<g id="a_node7"><a xlink:href="../../d6/d06/classmodel_1_1_turtle_command.html#ab94da8b47588273eb8db943096f12422" target="_top" xlink:title="model.TurtleCommand.getPolar">
<polygon fill="white" stroke="black" points="595,-314.546 595,-333.546 763,-333.546 763,-314.546 595,-314.546"/>
<text text-anchor="middle" x="679" y="-321.546" font-family="Helvetica,sans-Serif" font-size="10.00">model.TurtleCommand.getPolar</text>
</a>
</g>
</g>
<!-- Node5&#45;&gt;Node7 -->
<g id="edge6" class="edge"><title>Node5&#45;&gt;Node7</title>
<path fill="none" stroke="midnightblue" d="M501.872,-257.57C520.914,-270.22 556.6,-292.431 590,-305.046 597.015,-307.695 604.491,-310.019 612.01,-312.046"/>
<polygon fill="midnightblue" stroke="midnightblue" points="611.33,-315.484 621.883,-314.542 613.046,-308.697 611.33,-315.484"/>
</g>
<!-- Node8 -->
<g id="node8" class="node"><title>Node8</title>
<g id="a_node8"><a xlink:href="../../d1/d0b/classmodel_1_1_polar.html#a8abcb5640caf12d2941533a6e1c04faa" target="_top" xlink:title="model.Polar.getDistance">
<polygon fill="white" stroke="black" points="612,-276.546 612,-295.546 746,-295.546 746,-276.546 612,-276.546"/>
<text text-anchor="middle" x="679" y="-283.546" font-family="Helvetica,sans-Serif" font-size="10.00">model.Polar.getDistance</text>
</a>
</g>
</g>
<!-- Node5&#45;&gt;Node8 -->
<g id="edge7" class="edge"><title>Node5&#45;&gt;Node8</title>
<path fill="none" stroke="midnightblue" d="M535.945,-257.635C561.582,-262.762 593.336,-269.113 620.316,-274.509"/>
<polygon fill="midnightblue" stroke="midnightblue" points="619.908,-277.996 630.4,-276.526 621.28,-271.132 619.908,-277.996"/>
</g>
<!-- Node9 -->
<g id="node9" class="node"><title>Node9</title>
<g id="a_node9"><a xlink:href="../../d1/d0b/classmodel_1_1_polar.html#adbd9afb75cf519b2dd9f1331e406b8c2" target="_top" xlink:title="model.Polar.getAngle">
<polygon fill="white" stroke="black" points="619.5,-238.546 619.5,-257.546 738.5,-257.546 738.5,-238.546 619.5,-238.546"/>
<text text-anchor="middle" x="679" y="-245.546" font-family="Helvetica,sans-Serif" font-size="10.00">model.Polar.getAngle</text>
</a>
</g>
</g>
<!-- Node5&#45;&gt;Node9 -->
<g id="edge8" class="edge"><title>Node5&#45;&gt;Node9</title>
<path fill="none" stroke="midnightblue" d="M536.437,-248.046C558.563,-248.046 585.167,-248.046 609.31,-248.046"/>
<polygon fill="midnightblue" stroke="midnightblue" points="609.486,-251.546 619.486,-248.046 609.486,-244.546 609.486,-251.546"/>
</g>
<!-- Node10 -->
<g id="node10" class="node"><title>Node10</title>
<g id="a_node10"><a xlink:href="../../de/d0a/classview_1_1_drawer.html#ad1636376006d26ed1ca9784e13f96a2a" target="_top" xlink:title="view.Drawer.wrapY">
<polygon fill="white" stroke="black" points="627.5,-112.546 627.5,-131.546 730.5,-131.546 730.5,-112.546 627.5,-112.546"/>
<text text-anchor="middle" x="679" y="-119.546" font-family="Helvetica,sans-Serif" font-size="10.00">view.Drawer.wrapY</text>
</a>
</g>
</g>
<!-- Node5&#45;&gt;Node10 -->
<g id="edge9" class="edge"><title>Node5&#45;&gt;Node10</title>
<path fill="none" stroke="midnightblue" d="M494.73,-238.544C509.55,-218.34 547.113,-170.934 590,-146.046 598.526,-141.098 608.109,-137.137 617.731,-133.976"/>
<polygon fill="midnightblue" stroke="midnightblue" points="618.768,-137.319 627.328,-131.075 616.743,-130.618 618.768,-137.319"/>
</g>
<!-- Node11 -->
<g id="node11" class="node"><title>Node11</title>
<g id="a_node11"><a xlink:href="../../d8/df7/classview_1_1_turtle_view.html#a5e7cf3c4f078acae07bcbeee264a5581" target="_top" xlink:title="view.TurtleView.move">
<polygon fill="white" stroke="black" points="826,-112.546 826,-131.546 942,-131.546 942,-112.546 826,-112.546"/>
<text text-anchor="middle" x="884" y="-119.546" font-family="Helvetica,sans-Serif" font-size="10.00">view.TurtleView.move</text>
</a>
</g>
</g>
<!-- Node5&#45;&gt;Node11 -->
<g id="edge17" class="edge"><title>Node5&#45;&gt;Node11</title>
<path fill="none" stroke="midnightblue" d="M499.045,-238.321C516.87,-223.174 553.667,-194.127 590,-179.046 610.741,-170.436 737.723,-147.354 817.566,-133.344"/>
<polygon fill="midnightblue" stroke="midnightblue" points="818.294,-136.77 827.54,-131.598 817.087,-129.875 818.294,-136.77"/>
</g>
<!-- Node12 -->
<g id="node12" class="node"><title>Node12</title>
<g id="a_node12"><a xlink:href="../../d8/df7/classview_1_1_turtle_view.html#a68c8a2962e23e5794fcfbe7ef1968fad" target="_top" xlink:title="view.TurtleView.getPenUp">
<polygon fill="white" stroke="black" points="816,-36.5457 816,-55.5457 952,-55.5457 952,-36.5457 816,-36.5457"/>
<text text-anchor="middle" x="884" y="-43.5457" font-family="Helvetica,sans-Serif" font-size="10.00">view.TurtleView.getPenUp</text>
</a>
</g>
</g>
<!-- Node5&#45;&gt;Node12 -->
<g id="edge18" class="edge"><title>Node5&#45;&gt;Node12</title>
<path fill="none" stroke="midnightblue" d="M488.946,-238.165C492.997,-202.045 512.403,-76.6947 590,-27.0457 671.822,25.3067 794.18,-10.8076 851.389,-32.6925"/>
<polygon fill="midnightblue" stroke="midnightblue" points="850.38,-36.0562 860.967,-36.4583 852.941,-29.5417 850.38,-36.0562"/>
</g>
<!-- Node14 -->
<g id="node14" class="node"><title>Node14</title>
<g id="a_node14"><a xlink:href="../../de/d0a/classview_1_1_drawer.html#a24eafc164d9d0ab08036dc5cf7d72dd4" target="_top" xlink:title="view.Drawer.wrapX">
<polygon fill="white" stroke="black" points="627,-36.5457 627,-55.5457 731,-55.5457 731,-36.5457 627,-36.5457"/>
<text text-anchor="middle" x="679" y="-43.5457" font-family="Helvetica,sans-Serif" font-size="10.00">view.Drawer.wrapX</text>
</a>
</g>
</g>
<!-- Node5&#45;&gt;Node14 -->
<g id="edge13" class="edge"><title>Node5&#45;&gt;Node14</title>
<path fill="none" stroke="midnightblue" d="M490.397,-238.194C498.473,-207.222 527.742,-111.156 590,-65.0457 598.007,-59.1154 607.483,-54.9604 617.201,-52.0643"/>
<polygon fill="midnightblue" stroke="midnightblue" points="618.133,-55.4387 626.953,-49.5688 616.397,-48.6572 618.133,-55.4387"/>
</g>
<!-- Node15 -->
<g id="node15" class="node"><title>Node15</title>
<g id="a_node15"><a xlink:href="../../d6/d06/classmodel_1_1_turtle_command.html#abb952ce819f91c0f5970c2f2b1c43d73" target="_top" xlink:title="model.TurtleCommand.isRelative">
<polygon fill="white" stroke="black" points="592.5,-74.5457 592.5,-93.5457 765.5,-93.5457 765.5,-74.5457 592.5,-74.5457"/>
<text text-anchor="middle" x="679" y="-81.5457" font-family="Helvetica,sans-Serif" font-size="10.00">model.TurtleCommand.isRelative</text>
</a>
</g>
</g>
<!-- Node5&#45;&gt;Node15 -->
<g id="edge19" class="edge"><title>Node5&#45;&gt;Node15</title>
<path fill="none" stroke="midnightblue" d="M491.785,-238.394C502.652,-212.029 536.634,-138.407 590,-103.046 593.115,-100.982 596.415,-99.1376 599.839,-97.4902"/>
<polygon fill="midnightblue" stroke="midnightblue" points="601.29,-100.677 609.15,-93.5731 598.576,-94.2248 601.29,-100.677"/>
</g>
<!-- Node16 -->
<g id="node16" class="node"><title>Node16</title>
<g id="a_node16"><a xlink:href="../../d8/df7/classview_1_1_turtle_view.html#a199407b3121d1bc310d7f75cdab2da94" target="_top" xlink:title="view.TurtleView.setRelative\lHeading">
<polygon fill="white" stroke="black" points="609,-391.046 609,-421.046 749,-421.046 749,-391.046 609,-391.046"/>
<text text-anchor="start" x="617" y="-409.046" font-family="Helvetica,sans-Serif" font-size="10.00">view.TurtleView.setRelative</text>
<text text-anchor="middle" x="679" y="-398.046" font-family="Helvetica,sans-Serif" font-size="10.00">Heading</text>
</a>
</g>
</g>
<!-- Node5&#45;&gt;Node16 -->
<g id="edge20" class="edge"><title>Node5&#45;&gt;Node16</title>
<path fill="none" stroke="midnightblue" d="M492.656,-257.787C504.931,-282.404 540.655,-347.527 590,-381.046 593.071,-383.132 596.315,-385.045 599.674,-386.8"/>
<polygon fill="midnightblue" stroke="midnightblue" points="598.259,-390.002 608.798,-391.086 601.235,-383.666 598.259,-390.002"/>
</g>
<!-- Node18 -->
<g id="node18" class="node"><title>Node18</title>
<g id="a_node18"><a xlink:href="../../d8/df7/classview_1_1_turtle_view.html#a166c0ff50e234c0a2725aa1cbc38c933" target="_top" xlink:title="view.TurtleView.setAbsolute\lHeading">
<polygon fill="white" stroke="black" points="606,-189.046 606,-219.046 752,-219.046 752,-189.046 606,-189.046"/>
<text text-anchor="start" x="614" y="-207.046" font-family="Helvetica,sans-Serif" font-size="10.00">view.TurtleView.setAbsolute</text>
<text text-anchor="middle" x="679" y="-196.046" font-family="Helvetica,sans-Serif" font-size="10.00">Heading</text>
</a>
</g>
</g>
<!-- Node5&#45;&gt;Node18 -->
<g id="edge22" class="edge"><title>Node5&#45;&gt;Node18</title>
<path fill="none" stroke="midnightblue" d="M529.227,-238.498C550.81,-233.5 577.914,-227.223 603.055,-221.401"/>
<polygon fill="midnightblue" stroke="midnightblue" points="603.992,-224.777 612.945,-219.111 602.413,-217.957 603.992,-224.777"/>
</g>
<!-- Node19 -->
<g id="node19" class="node"><title>Node19</title>
<g id="a_node19"><a xlink:href="../../d1/dc7/classview_1_1_side_bar.html#a7d73038dbba05f96990b60664afa2670" target="_top" xlink:title="view.SideBar.updateTurtle\lProperties">
<polygon fill="white" stroke="black" points="610,-440.046 610,-470.046 748,-470.046 748,-440.046 610,-440.046"/>
<text text-anchor="start" x="618" y="-458.046" font-family="Helvetica,sans-Serif" font-size="10.00">view.SideBar.updateTurtle</text>
<text text-anchor="middle" x="679" y="-447.046" font-family="Helvetica,sans-Serif" font-size="10.00">Properties</text>
</a>
</g>
</g>
<!-- Node5&#45;&gt;Node19 -->
<g id="edge24" class="edge"><title>Node5&#45;&gt;Node19</title>
<path fill="none" stroke="midnightblue" d="M490.542,-257.678C499.047,-287.99 529.45,-382.234 590,-430.046 593.366,-432.703 597,-435.078 600.809,-437.201"/>
<polygon fill="midnightblue" stroke="midnightblue" points="599.453,-440.434 609.97,-441.709 602.544,-434.153 599.453,-440.434"/>
</g>
<!-- Node10&#45;&gt;Node11 -->
<g id="edge10" class="edge"><title>Node10&#45;&gt;Node11</title>
<path fill="none" stroke="midnightblue" d="M730.702,-122.046C756.431,-122.046 788.028,-122.046 815.76,-122.046"/>
<polygon fill="midnightblue" stroke="midnightblue" points="815.784,-125.546 825.784,-122.046 815.784,-118.546 815.784,-125.546"/>
</g>
<!-- Node10&#45;&gt;Node12 -->
<g id="edge11" class="edge"><title>Node10&#45;&gt;Node12</title>
<path fill="none" stroke="midnightblue" d="M730.758,-116.458C743.469,-113.641 756.694,-109.407 768,-103.046 788.275,-91.6371 783.86,-76.6904 804,-65.0457 807.883,-62.8005 812.02,-60.82 816.289,-59.073"/>
<polygon fill="midnightblue" stroke="midnightblue" points="817.597,-62.3215 825.794,-55.6094 815.2,-55.7445 817.597,-62.3215"/>
</g>
<!-- Node13 -->
<g id="node13" class="node"><title>Node13</title>
<g id="a_node13"><a xlink:href="../../de/d0a/classview_1_1_drawer.html#a1489f58b0b2c2012d23d546013a47972" target="_top" xlink:title="view.Drawer.drawLine">
<polygon fill="white" stroke="black" points="825.5,-74.5457 825.5,-93.5457 942.5,-93.5457 942.5,-74.5457 825.5,-74.5457"/>
<text text-anchor="middle" x="884" y="-81.5457" font-family="Helvetica,sans-Serif" font-size="10.00">view.Drawer.drawLine</text>
</a>
</g>
</g>
<!-- Node10&#45;&gt;Node13 -->
<g id="edge12" class="edge"><title>Node10&#45;&gt;Node13</title>
<path fill="none" stroke="midnightblue" d="M730.702,-112.555C758.435,-107.363 792.985,-100.896 822.164,-95.4336"/>
<polygon fill="midnightblue" stroke="midnightblue" points="823.056,-98.8276 832.241,-93.5473 821.768,-91.9471 823.056,-98.8276"/>
</g>
<!-- Node14&#45;&gt;Node11 -->
<g id="edge14" class="edge"><title>Node14&#45;&gt;Node11</title>
<path fill="none" stroke="midnightblue" d="M731.217,-51.7357C743.787,-54.5526 756.83,-58.7607 768,-65.0457 788.275,-76.4542 783.86,-91.4009 804,-103.046 807.883,-105.291 812.02,-107.271 816.289,-109.018"/>
<polygon fill="midnightblue" stroke="midnightblue" points="815.2,-112.347 825.794,-112.482 817.597,-105.77 815.2,-112.347"/>
</g>
<!-- Node14&#45;&gt;Node12 -->
<g id="edge15" class="edge"><title>Node14&#45;&gt;Node12</title>
<path fill="none" stroke="midnightblue" d="M731.225,-46.0457C753.73,-46.0457 780.646,-46.0457 805.52,-46.0457"/>
<polygon fill="midnightblue" stroke="midnightblue" points="805.668,-49.5457 815.668,-46.0457 805.668,-42.5457 805.668,-49.5457"/>
</g>
<!-- Node14&#45;&gt;Node13 -->
<g id="edge16" class="edge"><title>Node14&#45;&gt;Node13</title>
<path fill="none" stroke="midnightblue" d="M730.963,-55.5856C758.594,-60.7578 792.933,-67.1858 821.981,-72.6234"/>
<polygon fill="midnightblue" stroke="midnightblue" points="821.542,-76.102 832.016,-74.5018 822.83,-69.2215 821.542,-76.102"/>
</g>
<!-- Node17 -->
<g id="node17" class="node"><title>Node17</title>
<g id="a_node17"><a xlink:href="../../d8/df7/classview_1_1_turtle_view.html#aea0727a510b53db67aa4100a6106eb5b" target="_top" xlink:title="view.TurtleView.adjustAngle">
<polygon fill="white" stroke="black" points="811.5,-243.546 811.5,-262.546 956.5,-262.546 956.5,-243.546 811.5,-243.546"/>
<text text-anchor="middle" x="884" y="-250.546" font-family="Helvetica,sans-Serif" font-size="10.00">view.TurtleView.adjustAngle</text>
</a>
</g>
</g>
<!-- Node16&#45;&gt;Node17 -->
<g id="edge21" class="edge"><title>Node16&#45;&gt;Node17</title>
<path fill="none" stroke="midnightblue" d="M749.202,-391.905C755.901,-388.947 762.31,-385.37 768,-381.046 792.457,-362.459 784.202,-345.533 804,-322.046 821.19,-301.652 844.57,-282.007 861.43,-268.931"/>
<polygon fill="midnightblue" stroke="midnightblue" points="863.749,-271.564 869.585,-262.722 859.509,-265.995 863.749,-271.564"/>
</g>
<!-- Node18&#45;&gt;Node17 -->
<g id="edge23" class="edge"><title>Node18&#45;&gt;Node17</title>
<path fill="none" stroke="midnightblue" d="M742.286,-219.08C771.662,-226.171 806.216,-234.512 833.731,-241.153"/>
<polygon fill="midnightblue" stroke="midnightblue" points="832.985,-244.574 843.527,-243.518 834.627,-237.769 832.985,-244.574"/>
</g>
<!-- Node19&#45;&gt;Node20 -->
<g id="edge25" class="edge"><title>Node19&#45;&gt;Node20</title>
<path fill="none" stroke="midnightblue" d="M708.9,-470.287C733.618,-482.843 770.418,-500.413 804,-512.046 811.31,-514.578 819.114,-516.897 826.865,-518.978"/>
<polygon fill="midnightblue" stroke="midnightblue" points="826.055,-522.384 836.612,-521.486 827.799,-515.605 826.055,-522.384"/>
</g>
<!-- Node21 -->
<g id="node21" class="node"><title>Node21</title>
<g id="a_node21"><a xlink:href="../../d8/df7/classview_1_1_turtle_view.html#ab5fdc3775e06339f4a68d1b795a81643" target="_top" xlink:title="view.TurtleView.getID">
<polygon fill="white" stroke="black" points="827,-483.546 827,-502.546 941,-502.546 941,-483.546 827,-483.546"/>
<text text-anchor="middle" x="884" y="-490.546" font-family="Helvetica,sans-Serif" font-size="10.00">view.TurtleView.getID</text>
</a>
</g>
</g>
<!-- Node19&#45;&gt;Node21 -->
<g id="edge26" class="edge"><title>Node19&#45;&gt;Node21</title>
<path fill="none" stroke="midnightblue" d="M748.161,-467.805C772.041,-472.275 798.69,-477.263 821.951,-481.618"/>
<polygon fill="midnightblue" stroke="midnightblue" points="821.561,-485.106 832.035,-483.505 822.849,-478.225 821.561,-485.106"/>
</g>
<!-- Node22 -->
<g id="node22" class="node"><title>Node22</title>
<g id="a_node22"><a xlink:href="../../d8/df7/classview_1_1_turtle_view.html#afddbc74313a99bb100c8c50efa88f330" target="_top" xlink:title="view.TurtleView.getYCoord">
<polygon fill="white" stroke="black" points="815.5,-445.546 815.5,-464.546 952.5,-464.546 952.5,-445.546 815.5,-445.546"/>
<text text-anchor="middle" x="884" y="-452.546" font-family="Helvetica,sans-Serif" font-size="10.00">view.TurtleView.getYCoord</text>
</a>
</g>
</g>
<!-- Node19&#45;&gt;Node22 -->
<g id="edge27" class="edge"><title>Node19&#45;&gt;Node22</title>
<path fill="none" stroke="midnightblue" d="M748.161,-455.046C766.516,-455.046 786.508,-455.046 805.34,-455.046"/>
<polygon fill="midnightblue" stroke="midnightblue" points="805.364,-458.546 815.364,-455.046 805.364,-451.546 805.364,-458.546"/>
</g>
<!-- Node23 -->
<g id="node23" class="node"><title>Node23</title>
<g id="a_node23"><a xlink:href="../../d8/df7/classview_1_1_turtle_view.html#a5da3d4c9dafb77af0db0c589a72eadc8" target="_top" xlink:title="view.TurtleView.getHeading">
<polygon fill="white" stroke="black" points="812,-407.546 812,-426.546 956,-426.546 956,-407.546 812,-407.546"/>
<text text-anchor="middle" x="884" y="-414.546" font-family="Helvetica,sans-Serif" font-size="10.00">view.TurtleView.getHeading</text>
</a>
</g>
</g>
<!-- Node19&#45;&gt;Node23 -->
<g id="edge28" class="edge"><title>Node19&#45;&gt;Node23</title>
<path fill="none" stroke="midnightblue" d="M748.161,-442.286C772.041,-437.816 798.69,-432.828 821.951,-428.474"/>
<polygon fill="midnightblue" stroke="midnightblue" points="822.849,-431.866 832.035,-426.586 821.561,-424.986 822.849,-431.866"/>
</g>
<!-- Node24 -->
<g id="node24" class="node"><title>Node24</title>
<g id="a_node24"><a xlink:href="../../d8/df7/classview_1_1_turtle_view.html#a85b9acc922cc69f27c79bf13e3356e09" target="_top" xlink:title="view.TurtleView.getPenPosition">
<polygon fill="white" stroke="black" points="804,-369.546 804,-388.546 964,-388.546 964,-369.546 804,-369.546"/>
<text text-anchor="middle" x="884" y="-376.546" font-family="Helvetica,sans-Serif" font-size="10.00">view.TurtleView.getPenPosition</text>
</a>
</g>
</g>
<!-- Node19&#45;&gt;Node24 -->
<g id="edge29" class="edge"><title>Node19&#45;&gt;Node24</title>
<path fill="none" stroke="midnightblue" d="M745.715,-439.953C753.438,-437.146 761.038,-433.865 768,-430.046 786.769,-419.75 785.025,-407.956 804,-398.046 808.495,-395.698 813.286,-393.634 818.201,-391.822"/>
<polygon fill="midnightblue" stroke="midnightblue" points="819.379,-395.119 827.76,-388.638 817.166,-388.478 819.379,-395.119"/>
</g>
<!-- Node25 -->
<g id="node25" class="node"><title>Node25</title>
<g id="a_node25"><a xlink:href="../../d8/df7/classview_1_1_turtle_view.html#a5f7b22cd8ab69258535b18920a488b63" target="_top" xlink:title="view.TurtleView.isShowing">
<polygon fill="white" stroke="black" points="816,-331.546 816,-350.546 952,-350.546 952,-331.546 816,-331.546"/>
<text text-anchor="middle" x="884" y="-338.546" font-family="Helvetica,sans-Serif" font-size="10.00">view.TurtleView.isShowing</text>
</a>
</g>
</g>
<!-- Node19&#45;&gt;Node25 -->
<g id="edge30" class="edge"><title>Node19&#45;&gt;Node25</title>
<path fill="none" stroke="midnightblue" d="M748.199,-441.92C755.323,-438.775 762.102,-434.876 768,-430.046 795.064,-407.877 776.49,-381.658 804,-360.046 806.288,-358.248 808.72,-356.617 811.258,-355.137"/>
<polygon fill="midnightblue" stroke="midnightblue" points="812.848,-358.255 820.241,-350.666 809.729,-351.989 812.848,-358.255"/>
</g>
</g>
</svg>
