<?xml version="1.0" encoding="UTF-8" standalone="no"?>
<!DOCTYPE svg PUBLIC "-//W3C//DTD SVG 1.1//EN"
 "http://www.w3.org/Graphics/SVG/1.1/DTD/svg11.dtd">
<!-- Generated by graphviz version 2.36.0 (20140111.2315)
 -->
<!-- Title: model.instructions.MovementInstruction.execute Pages: 1 -->
<!--zoomable 747 -->
<svg id="main" version="1.1" xmlns="http://www.w3.org/2000/svg" xmlns:xlink="http://www.w3.org/1999/xlink" xml:space="preserve" onload="init(evt)">
<style type="text/css"><![CDATA[
.edge:hover path { stroke: red; }
.edge:hover polygon { stroke: red; fill: red; }
]]></style>
<script type="text/javascript"><![CDATA[
var edges = document.getElementsByTagName('g');
if (edges && edges.length) {
  for (var i=0;i<edges.length;i++) {
    if (edges[i].id.substr(0,4)=='edge') {
      edges[i].setAttribute('class','edge');
    }
  }
}
]]></script>
        <defs>
                <circle id="rim" cx="0" cy="0" r="7"/>
                <circle id="rim2" cx="0" cy="0" r="3.5"/>
                <g id="zoomPlus">
                        <use xlink:href="#rim" fill="#404040">
                                <set attributeName="fill" to="#808080" begin="zoomplus.mouseover" end="zoomplus.mouseout"/>
                        </use>
                        <path d="M-4,0h8M0,-4v8" fill="none" stroke="white" stroke-width="1.5" pointer-events="none"/>
                </g>
                <g id="zoomMin">
                        <use xlink:href="#rim" fill="#404040">
                                <set attributeName="fill" to="#808080" begin="zoomminus.mouseover" end="zoomminus.mouseout"/>
                        </use>
                        <path d="M-4,0h8" fill="none" stroke="white" stroke-width="1.5" pointer-events="none"/>
                </g>
                <g id="dirArrow">
                        <path fill="none" stroke="white" stroke-width="1.5" d="M0,-3.0v7 M-2.5,-0.5L0,-3.0L2.5,-0.5"/>
                </g>
               <g id="resetDef">
                       <use xlink:href="#rim2" fill="#404040">
                               <set attributeName="fill" to="#808080" begin="reset.mouseover" end="reset.mouseout"/>
                       </use>
               </g>
        </defs>

<script type="text/javascript">
var viewWidth = 1210;
var viewHeight = 747;
var sectionId = 'dynsection-2';
</script>
<script xlink:href="../../svgpan.js"/>
<svg id="graph" class="graph">
<g id="viewport">
<title>model.instructions.MovementInstruction.execute</title>
<polygon fill="white" stroke="none" points="-4,4 -4,-743 1206,-743 1206,4 -4,4"/>
<!-- Node1 -->
<g id="node1" class="node"><title>Node1</title>
<polygon fill="#bfbfbf" stroke="black" points="0.5,-543 0.5,-573 159.5,-573 159.5,-543 0.5,-543"/>
<text text-anchor="start" x="8.5" y="-561" font-family="Helvetica,sans-Serif" font-size="10.00">model.instructions.Movement</text>
<text text-anchor="middle" x="80" y="-550" font-family="Helvetica,sans-Serif" font-size="10.00">Instruction.execute</text>
</g>
<!-- Node2 -->
<g id="node2" class="node"><title>Node2</title>
<g id="a_node2"><a xlink:href="../../d4/d64/classview_1_1_view_updater.html#ace7ce28317856b4b454a798d1af23b38" target="_top" xlink:title="view.ViewUpdater.clearScreen">
<polygon fill="white" stroke="black" points="632.5,-681.5 632.5,-700.5 791.5,-700.5 791.5,-681.5 632.5,-681.5"/>
<text text-anchor="middle" x="712" y="-688.5" font-family="Helvetica,sans-Serif" font-size="10.00">view.ViewUpdater.clearScreen</text>
</a>
</g>
</g>
<!-- Node1&#45;&gt;Node2 -->
<g id="edge1" class="edge"><title>Node1&#45;&gt;Node2</title>
<path fill="none" stroke="midnightblue" d="M99.176,-573.169C120.78,-590.295 158.628,-617.521 196,-631 338.792,-682.5 516.932,-692.186 621.89,-692.8"/>
<polygon fill="midnightblue" stroke="midnightblue" points="622.117,-696.3 632.128,-692.832 622.139,-689.3 622.117,-696.3"/>
</g>
<!-- Node11 -->
<g id="node11" class="node"><title>Node11</title>
<g id="a_node11"><a xlink:href="../../d1/dca/classmodel_1_1_execution_environment.html#a429a18123e450d0e124af2ccf2274b06" target="_top" xlink:title="model.ExecutionEnvironment.get\lActiveTurtle">
<polygon fill="white" stroke="black" points="414,-436 414,-466 590,-466 590,-436 414,-436"/>
<text text-anchor="start" x="422" y="-454" font-family="Helvetica,sans-Serif" font-size="10.00">model.ExecutionEnvironment.get</text>
<text text-anchor="middle" x="502" y="-443" font-family="Helvetica,sans-Serif" font-size="10.00">ActiveTurtle</text>
</a>
</g>
</g>
<!-- Node1&#45;&gt;Node11 -->
<g id="edge11" class="edge"><title>Node1&#45;&gt;Node11</title>
<path fill="none" stroke="midnightblue" d="M94.8482,-542.833C114.859,-522.092 154.083,-485.667 196,-470 262.259,-445.234 342.23,-441.112 403.659,-442.847"/>
<polygon fill="midnightblue" stroke="midnightblue" points="403.627,-446.348 413.74,-443.189 403.865,-439.352 403.627,-446.348"/>
</g>
<!-- Node12 -->
<g id="node12" class="node"><title>Node12</title>
<g id="a_node12"><a xlink:href="../../d1/dca/classmodel_1_1_execution_environment.html#aa3b6a8cec06247f7249a73d0307c66bc" target="_top" xlink:title="model.ExecutionEnvironment.get\lTurtles">
<polygon fill="white" stroke="black" points="196,-392 196,-422 372,-422 372,-392 196,-392"/>
<text text-anchor="start" x="204" y="-410" font-family="Helvetica,sans-Serif" font-size="10.00">model.ExecutionEnvironment.get</text>
<text text-anchor="middle" x="284" y="-399" font-family="Helvetica,sans-Serif" font-size="10.00">Turtles</text>
</a>
</g>
</g>
<!-- Node1&#45;&gt;Node12 -->
<g id="edge12" class="edge"><title>Node1&#45;&gt;Node12</title>
<path fill="none" stroke="midnightblue" d="M91.625,-542.756C110.065,-517.364 150.416,-466.311 196,-437 202.52,-432.808 209.693,-429.127 217.038,-425.915"/>
<polygon fill="midnightblue" stroke="midnightblue" points="218.463,-429.113 226.397,-422.092 215.816,-422.633 218.463,-429.113"/>
</g>
<!-- Node13 -->
<g id="node13" class="node"><title>Node13</title>
<g id="a_node13"><a xlink:href="../../d4/d64/classview_1_1_view_updater.html#ad79c00c54aabbeca7b8a0461fea36c29" target="_top" xlink:title="view.ViewUpdater.setPenUp">
<polygon fill="white" stroke="black" points="637.5,-643.5 637.5,-662.5 786.5,-662.5 786.5,-643.5 637.5,-643.5"/>
<text text-anchor="middle" x="712" y="-650.5" font-family="Helvetica,sans-Serif" font-size="10.00">view.ViewUpdater.setPenUp</text>
</a>
</g>
</g>
<!-- Node1&#45;&gt;Node13 -->
<g id="edge13" class="edge"><title>Node1&#45;&gt;Node13</title>
<path fill="none" stroke="midnightblue" d="M113.477,-573.103C136.116,-582.96 167.291,-595.215 196,-602 345.356,-637.296 524.68,-648.196 627.487,-651.542"/>
<polygon fill="midnightblue" stroke="midnightblue" points="627.395,-655.04 637.499,-651.851 627.612,-648.044 627.395,-655.04"/>
</g>
<!-- Node14 -->
<g id="node14" class="node"><title>Node14</title>
<g id="a_node14"><a xlink:href="../../d4/d64/classview_1_1_view_updater.html#a497cc83cdcb6fdb430bdb78431c5cd20" target="_top" xlink:title="view.ViewUpdater.setXY">
<polygon fill="white" stroke="black" points="648,-605.5 648,-624.5 776,-624.5 776,-605.5 648,-605.5"/>
<text text-anchor="middle" x="712" y="-612.5" font-family="Helvetica,sans-Serif" font-size="10.00">view.ViewUpdater.setXY</text>
</a>
</g>
</g>
<!-- Node1&#45;&gt;Node14 -->
<g id="edge16" class="edge"><title>Node1&#45;&gt;Node14</title>
<path fill="none" stroke="midnightblue" d="M156.593,-573.035C169.694,-575.288 183.213,-577.391 196,-579 352.687,-598.721 537.654,-608.349 637.746,-612.435"/>
<polygon fill="midnightblue" stroke="midnightblue" points="637.621,-615.933 647.753,-612.837 637.902,-608.939 637.621,-615.933"/>
</g>
<!-- Node15 -->
<g id="node15" class="node"><title>Node15</title>
<g id="a_node15"><a xlink:href="../../d4/d64/classview_1_1_view_updater.html#a9797c2f411ad272a0feb84c26836bfd4" target="_top" xlink:title="view.ViewUpdater.showTurtle">
<polygon fill="white" stroke="black" points="636,-567.5 636,-586.5 788,-586.5 788,-567.5 636,-567.5"/>
<text text-anchor="middle" x="712" y="-574.5" font-family="Helvetica,sans-Serif" font-size="10.00">view.ViewUpdater.showTurtle</text>
</a>
</g>
</g>
<!-- Node1&#45;&gt;Node15 -->
<g id="edge19" class="edge"><title>Node1&#45;&gt;Node15</title>
<path fill="none" stroke="midnightblue" d="M159.516,-560.368C278.383,-563.953 503.127,-570.731 625.819,-574.431"/>
<polygon fill="midnightblue" stroke="midnightblue" points="625.819,-577.933 635.92,-574.736 626.03,-570.936 625.819,-577.933"/>
</g>
<!-- Node16 -->
<g id="node16" class="node"><title>Node16</title>
<g id="a_node16"><a xlink:href="../../d4/d64/classview_1_1_view_updater.html#ad29dfbb2499161b985c26e01f73ea5ac" target="_top" xlink:title="view.ViewUpdater.towards">
<polygon fill="white" stroke="black" points="214,-529.5 214,-548.5 354,-548.5 354,-529.5 214,-529.5"/>
<text text-anchor="middle" x="284" y="-536.5" font-family="Helvetica,sans-Serif" font-size="10.00">view.ViewUpdater.towards</text>
</a>
</g>
</g>
<!-- Node1&#45;&gt;Node16 -->
<g id="edge22" class="edge"><title>Node1&#45;&gt;Node16</title>
<path fill="none" stroke="midnightblue" d="M159.677,-550.6C174.029,-549.25 189.013,-547.84 203.392,-546.488"/>
<polygon fill="midnightblue" stroke="midnightblue" points="204.109,-549.936 213.737,-545.515 203.453,-542.967 204.109,-549.936"/>
</g>
<!-- Node18 -->
<g id="node18" class="node"><title>Node18</title>
<g id="a_node18"><a xlink:href="../../d1/dd3/classmodel_1_1instructions_1_1_movement_instruction.html#a51c776093aeb820937b12e2b89eb2f89" target="_top" xlink:title="model.instructions.Movement\lInstruction.updateView">
<polygon fill="white" stroke="black" points="204.5,-480 204.5,-510 363.5,-510 363.5,-480 204.5,-480"/>
<text text-anchor="start" x="212.5" y="-498" font-family="Helvetica,sans-Serif" font-size="10.00">model.instructions.Movement</text>
<text text-anchor="middle" x="284" y="-487" font-family="Helvetica,sans-Serif" font-size="10.00">Instruction.updateView</text>
</a>
</g>
</g>
<!-- Node1&#45;&gt;Node18 -->
<g id="edge26" class="edge"><title>Node1&#45;&gt;Node18</title>
<path fill="none" stroke="midnightblue" d="M125.104,-542.976C146.452,-535.819 172.493,-527.258 196,-520 203.686,-517.627 211.777,-515.203 219.803,-512.844"/>
<polygon fill="midnightblue" stroke="midnightblue" points="220.911,-516.167 229.53,-510.006 218.95,-509.447 220.911,-516.167"/>
</g>
<!-- Node3 -->
<g id="node3" class="node"><title>Node3</title>
<g id="a_node3"><a xlink:href="../../da/d64/classview_1_1_workspace.html#ad460da1164f039e5ea9a265d446d13fe" target="_top" xlink:title="view.Workspace.getTurtleMap">
<polygon fill="white" stroke="black" points="1044.5,-567.5 1044.5,-586.5 1199.5,-586.5 1199.5,-567.5 1044.5,-567.5"/>
<text text-anchor="middle" x="1122" y="-574.5" font-family="Helvetica,sans-Serif" font-size="10.00">view.Workspace.getTurtleMap</text>
</a>
</g>
</g>
<!-- Node2&#45;&gt;Node3 -->
<g id="edge2" class="edge"><title>Node2&#45;&gt;Node3</title>
<path fill="none" stroke="midnightblue" d="M791.658,-685.326C851.739,-679.223 935.865,-666.816 1006,-642 1040.58,-629.763 1076.85,-607.441 1099.19,-592.414"/>
<polygon fill="midnightblue" stroke="midnightblue" points="1101.32,-595.2 1107.59,-586.664 1097.36,-589.424 1101.32,-595.2"/>
</g>
<!-- Node4 -->
<g id="node4" class="node"><title>Node4</title>
<g id="a_node4"><a xlink:href="../../da/d64/classview_1_1_workspace.html#af056d219d5078e688731c51fb6da7c7e" target="_top" xlink:title="view.Workspace.clearLines">
<polygon fill="white" stroke="black" points="846.5,-719.5 846.5,-738.5 987.5,-738.5 987.5,-719.5 846.5,-719.5"/>
<text text-anchor="middle" x="917" y="-726.5" font-family="Helvetica,sans-Serif" font-size="10.00">view.Workspace.clearLines</text>
</a>
</g>
</g>
<!-- Node2&#45;&gt;Node4 -->
<g id="edge3" class="edge"><title>Node2&#45;&gt;Node4</title>
<path fill="none" stroke="midnightblue" d="M763.963,-700.54C791.594,-705.712 825.933,-712.14 854.981,-717.578"/>
<polygon fill="midnightblue" stroke="midnightblue" points="854.542,-721.056 865.016,-719.456 855.83,-714.176 854.542,-721.056"/>
</g>
<!-- Node5 -->
<g id="node5" class="node"><title>Node5</title>
<g id="a_node5"><a xlink:href="../../d1/dc7/classview_1_1_side_bar.html#a7d73038dbba05f96990b60664afa2670" target="_top" xlink:title="view.SideBar.updateTurtle\lProperties">
<polygon fill="white" stroke="black" points="848,-442 848,-472 986,-472 986,-442 848,-442"/>
<text text-anchor="start" x="856" y="-460" font-family="Helvetica,sans-Serif" font-size="10.00">view.SideBar.updateTurtle</text>
<text text-anchor="middle" x="917" y="-449" font-family="Helvetica,sans-Serif" font-size="10.00">Properties</text>
</a>
</g>
</g>
<!-- Node2&#45;&gt;Node5 -->
<g id="edge4" class="edge"><title>Node2&#45;&gt;Node5</title>
<path fill="none" stroke="midnightblue" d="M774.772,-681.462C780.922,-678.987 786.802,-675.885 792,-672 858.122,-622.58 894.723,-526.721 908.956,-481.605"/>
<polygon fill="midnightblue" stroke="midnightblue" points="912.307,-482.618 911.879,-472.032 905.612,-480.574 912.307,-482.618"/>
</g>
<!-- Node5&#45;&gt;Node3 -->
<g id="edge5" class="edge"><title>Node5&#45;&gt;Node3</title>
<path fill="none" stroke="midnightblue" d="M981.157,-472.097C990.085,-476 998.696,-480.888 1006,-487 1031.33,-508.193 1016.44,-531.088 1042,-552 1047.74,-556.697 1054.37,-560.516 1061.31,-563.621"/>
<polygon fill="midnightblue" stroke="midnightblue" points="1060.31,-566.989 1070.89,-567.426 1062.89,-560.483 1060.31,-566.989"/>
</g>
<!-- Node6 -->
<g id="node6" class="node"><title>Node6</title>
<g id="a_node6"><a xlink:href="../../d8/df7/classview_1_1_turtle_view.html#ab5fdc3775e06339f4a68d1b795a81643" target="_top" xlink:title="view.TurtleView.getID">
<polygon fill="white" stroke="black" points="1065,-409.5 1065,-428.5 1179,-428.5 1179,-409.5 1065,-409.5"/>
<text text-anchor="middle" x="1122" y="-416.5" font-family="Helvetica,sans-Serif" font-size="10.00">view.TurtleView.getID</text>
</a>
</g>
</g>
<!-- Node5&#45;&gt;Node6 -->
<g id="edge6" class="edge"><title>Node5&#45;&gt;Node6</title>
<path fill="none" stroke="midnightblue" d="M986.161,-444.241C1010.04,-439.771 1036.69,-434.782 1059.95,-430.428"/>
<polygon fill="midnightblue" stroke="midnightblue" points="1060.85,-433.821 1070.03,-428.54 1059.56,-426.94 1060.85,-433.821"/>
</g>
<!-- Node7 -->
<g id="node7" class="node"><title>Node7</title>
<g id="a_node7"><a xlink:href="../../d8/df7/classview_1_1_turtle_view.html#afddbc74313a99bb100c8c50efa88f330" target="_top" xlink:title="view.TurtleView.getYCoord">
<polygon fill="white" stroke="black" points="1053.5,-371.5 1053.5,-390.5 1190.5,-390.5 1190.5,-371.5 1053.5,-371.5"/>
<text text-anchor="middle" x="1122" y="-378.5" font-family="Helvetica,sans-Serif" font-size="10.00">view.TurtleView.getYCoord</text>
</a>
</g>
</g>
<!-- Node5&#45;&gt;Node7 -->
<g id="edge7" class="edge"><title>Node5&#45;&gt;Node7</title>
<path fill="none" stroke="midnightblue" d="M983.715,-441.908C991.438,-439.1 999.038,-435.819 1006,-432 1024.77,-421.705 1023.03,-409.911 1042,-400 1046.5,-397.652 1051.29,-395.589 1056.2,-393.777"/>
<polygon fill="midnightblue" stroke="midnightblue" points="1057.38,-397.074 1065.76,-390.592 1055.17,-390.432 1057.38,-397.074"/>
</g>
<!-- Node8 -->
<g id="node8" class="node"><title>Node8</title>
<g id="a_node8"><a xlink:href="../../d8/df7/classview_1_1_turtle_view.html#a5da3d4c9dafb77af0db0c589a72eadc8" target="_top" xlink:title="view.TurtleView.getHeading">
<polygon fill="white" stroke="black" points="1050,-523.5 1050,-542.5 1194,-542.5 1194,-523.5 1050,-523.5"/>
<text text-anchor="middle" x="1122" y="-530.5" font-family="Helvetica,sans-Serif" font-size="10.00">view.TurtleView.getHeading</text>
</a>
</g>
</g>
<!-- Node5&#45;&gt;Node8 -->
<g id="edge8" class="edge"><title>Node5&#45;&gt;Node8</title>
<path fill="none" stroke="midnightblue" d="M971.25,-472.139C982.991,-476.298 995.153,-481.27 1006,-487 1023.68,-496.342 1023.9,-505.486 1042,-514 1047.23,-516.462 1052.82,-518.623 1058.5,-520.516"/>
<polygon fill="midnightblue" stroke="midnightblue" points="1057.54,-523.882 1068.13,-523.455 1059.59,-517.187 1057.54,-523.882"/>
</g>
<!-- Node9 -->
<g id="node9" class="node"><title>Node9</title>
<g id="a_node9"><a xlink:href="../../d8/df7/classview_1_1_turtle_view.html#a85b9acc922cc69f27c79bf13e3356e09" target="_top" xlink:title="view.TurtleView.getPenPosition">
<polygon fill="white" stroke="black" points="1042,-485.5 1042,-504.5 1202,-504.5 1202,-485.5 1042,-485.5"/>
<text text-anchor="middle" x="1122" y="-492.5" font-family="Helvetica,sans-Serif" font-size="10.00">view.TurtleView.getPenPosition</text>
</a>
</g>
</g>
<!-- Node5&#45;&gt;Node9 -->
<g id="edge9" class="edge"><title>Node5&#45;&gt;Node9</title>
<path fill="none" stroke="midnightblue" d="M986.161,-469.759C1010.04,-474.229 1036.69,-479.218 1059.95,-483.572"/>
<polygon fill="midnightblue" stroke="midnightblue" points="1059.56,-487.06 1070.03,-485.46 1060.85,-480.179 1059.56,-487.06"/>
</g>
<!-- Node10 -->
<g id="node10" class="node"><title>Node10</title>
<g id="a_node10"><a xlink:href="../../d8/df7/classview_1_1_turtle_view.html#a5f7b22cd8ab69258535b18920a488b63" target="_top" xlink:title="view.TurtleView.isShowing">
<polygon fill="white" stroke="black" points="1054,-447.5 1054,-466.5 1190,-466.5 1190,-447.5 1054,-447.5"/>
<text text-anchor="middle" x="1122" y="-454.5" font-family="Helvetica,sans-Serif" font-size="10.00">view.TurtleView.isShowing</text>
</a>
</g>
</g>
<!-- Node5&#45;&gt;Node10 -->
<g id="edge10" class="edge"><title>Node5&#45;&gt;Node10</title>
<path fill="none" stroke="midnightblue" d="M986.161,-457C1004.61,-457 1024.72,-457 1043.64,-457"/>
<polygon fill="midnightblue" stroke="midnightblue" points="1043.71,-460.5 1053.71,-457 1043.71,-453.5 1043.71,-460.5"/>
</g>
<!-- Node13&#45;&gt;Node3 -->
<g id="edge14" class="edge"><title>Node13&#45;&gt;Node3</title>
<path fill="none" stroke="midnightblue" d="M786.756,-646.39C846.374,-640.221 932.216,-629.463 1006,-613 1033.04,-606.968 1062.87,-597.545 1085.37,-589.853"/>
<polygon fill="midnightblue" stroke="midnightblue" points="1086.55,-593.15 1094.85,-586.568 1084.25,-586.536 1086.55,-593.15"/>
</g>
<!-- Node13&#45;&gt;Node5 -->
<g id="edge15" class="edge"><title>Node13&#45;&gt;Node5</title>
<path fill="none" stroke="midnightblue" d="M773.219,-643.453C779.866,-640.988 786.287,-637.891 792,-634 849.22,-595.033 888.373,-520.289 905.778,-481.583"/>
<polygon fill="midnightblue" stroke="midnightblue" points="909.116,-482.686 909.92,-472.121 902.703,-479.878 909.116,-482.686"/>
</g>
<!-- Node14&#45;&gt;Node3 -->
<g id="edge17" class="edge"><title>Node14&#45;&gt;Node3</title>
<path fill="none" stroke="midnightblue" d="M776.222,-610.544C835.608,-606.188 926.916,-599.05 1006,-591 1015.83,-589.999 1026.12,-588.867 1036.34,-587.691"/>
<polygon fill="midnightblue" stroke="midnightblue" points="1036.98,-591.14 1046.5,-586.503 1036.17,-584.187 1036.98,-591.14"/>
</g>
<!-- Node14&#45;&gt;Node5 -->
<g id="edge18" class="edge"><title>Node14&#45;&gt;Node5</title>
<path fill="none" stroke="midnightblue" d="M770.728,-605.485C778.169,-603.018 785.463,-599.911 792,-596 840.747,-566.833 880.979,-512.247 901.431,-480.859"/>
<polygon fill="midnightblue" stroke="midnightblue" points="904.47,-482.602 906.898,-472.289 898.569,-478.837 904.47,-482.602"/>
</g>
<!-- Node15&#45;&gt;Node3 -->
<g id="edge20" class="edge"><title>Node15&#45;&gt;Node3</title>
<path fill="none" stroke="midnightblue" d="M788.309,-577C857.91,-577 961.292,-577 1034.31,-577"/>
<polygon fill="midnightblue" stroke="midnightblue" points="1034.4,-580.5 1044.4,-577 1034.4,-573.5 1034.4,-580.5"/>
</g>
<!-- Node15&#45;&gt;Node5 -->
<g id="edge21" class="edge"><title>Node15&#45;&gt;Node5</title>
<path fill="none" stroke="midnightblue" d="M766.84,-567.49C775.487,-564.997 784.162,-561.881 792,-558 832.462,-537.964 871.554,-502.628 894.69,-479.515"/>
<polygon fill="midnightblue" stroke="midnightblue" points="897.384,-481.768 901.904,-472.185 892.395,-476.858 897.384,-481.768"/>
</g>
<!-- Node17 -->
<g id="node17" class="node"><title>Node17</title>
<g id="a_node17"><a xlink:href="../../d4/d64/classview_1_1_view_updater.html#ab8c47e1d6b8bc5c076184e3e0af5e4b2" target="_top" xlink:title="view.ViewUpdater.setHeading">
<polygon fill="white" stroke="black" points="633.5,-529.5 633.5,-548.5 790.5,-548.5 790.5,-529.5 633.5,-529.5"/>
<text text-anchor="middle" x="712" y="-536.5" font-family="Helvetica,sans-Serif" font-size="10.00">view.ViewUpdater.setHeading</text>
</a>
</g>
</g>
<!-- Node16&#45;&gt;Node17 -->
<g id="edge23" class="edge"><title>Node16&#45;&gt;Node17</title>
<path fill="none" stroke="midnightblue" d="M354.392,-539C427.76,-539 543.679,-539 623.321,-539"/>
<polygon fill="midnightblue" stroke="midnightblue" points="623.334,-542.5 633.334,-539 623.334,-535.5 623.334,-542.5"/>
</g>
<!-- Node17&#45;&gt;Node3 -->
<g id="edge24" class="edge"><title>Node17&#45;&gt;Node3</title>
<path fill="none" stroke="midnightblue" d="M790.702,-546.237C860.26,-552.715 962.116,-562.202 1034.3,-568.925"/>
<polygon fill="midnightblue" stroke="midnightblue" points="1034,-572.412 1044.28,-569.854 1034.65,-565.442 1034,-572.412"/>
</g>
<!-- Node17&#45;&gt;Node5 -->
<g id="edge25" class="edge"><title>Node17&#45;&gt;Node5</title>
<path fill="none" stroke="midnightblue" d="M736.684,-529.433C769.092,-516.342 827.951,-492.567 869.375,-475.834"/>
<polygon fill="midnightblue" stroke="midnightblue" points="870.756,-479.051 878.717,-472.06 868.134,-472.56 870.756,-479.051"/>
</g>
<!-- Node18&#45;&gt;Node11 -->
<g id="edge27" class="edge"><title>Node18&#45;&gt;Node11</title>
<path fill="none" stroke="midnightblue" d="M358.731,-479.981C377.568,-476.144 397.957,-471.99 417.256,-468.059"/>
<polygon fill="midnightblue" stroke="midnightblue" points="418.135,-471.452 427.235,-466.026 416.738,-464.593 418.135,-471.452"/>
</g>
<!-- Node19 -->
<g id="node19" class="node"><title>Node19</title>
<g id="a_node19"><a xlink:href="../../d4/d64/classview_1_1_view_updater.html#adc0790ceed057768bd5a29a470e626d1" target="_top" xlink:title="view.ViewUpdater.updateWorkspace">
<polygon fill="white" stroke="black" points="408.5,-485.5 408.5,-504.5 595.5,-504.5 595.5,-485.5 408.5,-485.5"/>
<text text-anchor="middle" x="502" y="-492.5" font-family="Helvetica,sans-Serif" font-size="10.00">view.ViewUpdater.updateWorkspace</text>
</a>
</g>
</g>
<!-- Node18&#45;&gt;Node19 -->
<g id="edge28" class="edge"><title>Node18&#45;&gt;Node19</title>
<path fill="none" stroke="midnightblue" d="M363.592,-495C374.787,-495 386.439,-495 398.014,-495"/>
<polygon fill="midnightblue" stroke="midnightblue" points="398.153,-498.5 408.153,-495 398.153,-491.5 398.153,-498.5"/>
</g>
<!-- Node19&#45;&gt;Node3 -->
<g id="edge51" class="edge"><title>Node19&#45;&gt;Node3</title>
<path fill="none" stroke="midnightblue" d="M595.955,-499.737C697.445,-506.039 864.406,-519.718 1006,-547 1030.49,-551.718 1057.48,-558.668 1079.16,-564.69"/>
<polygon fill="midnightblue" stroke="midnightblue" points="1078.46,-568.128 1089.03,-567.47 1080.36,-561.39 1078.46,-568.128"/>
</g>
<!-- Node20 -->
<g id="node20" class="node"><title>Node20</title>
<g id="a_node20"><a xlink:href="../../da/d64/classview_1_1_workspace.html#a08f0e92c7d15f9c170e406af39ec54a5" target="_top" xlink:title="view.Workspace.getLines">
<polygon fill="white" stroke="black" points="645,-453.5 645,-472.5 779,-472.5 779,-453.5 645,-453.5"/>
<text text-anchor="middle" x="712" y="-460.5" font-family="Helvetica,sans-Serif" font-size="10.00">view.Workspace.getLines</text>
</a>
</g>
</g>
<!-- Node19&#45;&gt;Node20 -->
<g id="edge29" class="edge"><title>Node19&#45;&gt;Node20</title>
<path fill="none" stroke="midnightblue" d="M564.844,-485.486C588.105,-481.907 614.754,-477.807 638.872,-474.097"/>
<polygon fill="midnightblue" stroke="midnightblue" points="639.684,-477.513 649.035,-472.533 638.619,-470.594 639.684,-477.513"/>
</g>
<!-- Node21 -->
<g id="node21" class="node"><title>Node21</title>
<g id="a_node21"><a xlink:href="../../de/d0a/classview_1_1_drawer.html#a6b9f362b8bc763689630b1fe7b5c1887" target="_top" xlink:title="view.Drawer.draw">
<polygon fill="white" stroke="black" points="663,-251.5 663,-270.5 761,-270.5 761,-251.5 663,-251.5"/>
<text text-anchor="middle" x="712" y="-258.5" font-family="Helvetica,sans-Serif" font-size="10.00">view.Drawer.draw</text>
</a>
</g>
</g>
<!-- Node19&#45;&gt;Node21 -->
<g id="edge30" class="edge"><title>Node19&#45;&gt;Node21</title>
<path fill="none" stroke="midnightblue" d="M577.222,-485.367C583.931,-482.667 590.324,-479.268 596,-475 663.15,-424.505 695.428,-323.021 706.445,-280.473"/>
<polygon fill="midnightblue" stroke="midnightblue" points="709.895,-281.105 708.899,-270.557 703.1,-279.423 709.895,-281.105"/>
</g>
<!-- Node21&#45;&gt;Node5 -->
<g id="edge50" class="edge"><title>Node21&#45;&gt;Node5</title>
<path fill="none" stroke="midnightblue" d="M716.748,-270.884C728.397,-300.246 766.905,-387.662 828,-432 831.398,-434.466 835.033,-436.69 838.82,-438.694"/>
<polygon fill="midnightblue" stroke="midnightblue" points="837.353,-441.872 847.89,-442.985 840.347,-435.545 837.353,-441.872"/>
</g>
<!-- Node22 -->
<g id="node22" class="node"><title>Node22</title>
<g id="a_node22"><a xlink:href="../../d6/d06/classmodel_1_1_turtle_command.html#ab30f5c95162492cb8fd19f1fd7350f9f" target="_top" xlink:title="model.TurtleCommand.getTurtleId">
<polygon fill="white" stroke="black" points="828,-125.5 828,-144.5 1006,-144.5 1006,-125.5 828,-125.5"/>
<text text-anchor="middle" x="917" y="-132.5" font-family="Helvetica,sans-Serif" font-size="10.00">model.TurtleCommand.getTurtleId</text>
</a>
</g>
</g>
<!-- Node21&#45;&gt;Node22 -->
<g id="edge31" class="edge"><title>Node21&#45;&gt;Node22</title>
<path fill="none" stroke="midnightblue" d="M720.409,-251.183C737.085,-229.837 779.889,-179.109 828,-154 832.56,-151.62 837.401,-149.539 842.376,-147.717"/>
<polygon fill="midnightblue" stroke="midnightblue" points="843.666,-150.978 852.071,-144.526 841.478,-144.328 843.666,-150.978"/>
</g>
<!-- Node23 -->
<g id="node23" class="node"><title>Node23</title>
<g id="a_node23"><a xlink:href="../../d6/d06/classmodel_1_1_turtle_command.html#ab94da8b47588273eb8db943096f12422" target="_top" xlink:title="model.TurtleCommand.getPolar">
<polygon fill="white" stroke="black" points="833,-87.5 833,-106.5 1001,-106.5 1001,-87.5 833,-87.5"/>
<text text-anchor="middle" x="917" y="-94.5" font-family="Helvetica,sans-Serif" font-size="10.00">model.TurtleCommand.getPolar</text>
</a>
</g>
</g>
<!-- Node21&#45;&gt;Node23 -->
<g id="edge32" class="edge"><title>Node21&#45;&gt;Node23</title>
<path fill="none" stroke="midnightblue" d="M717.628,-251.342C730.802,-224.96 771.253,-151.298 828,-116 831.411,-113.878 835.025,-111.991 838.765,-110.312"/>
<polygon fill="midnightblue" stroke="midnightblue" points="840.266,-113.483 848.282,-106.556 837.695,-106.972 840.266,-113.483"/>
</g>
<!-- Node24 -->
<g id="node24" class="node"><title>Node24</title>
<g id="a_node24"><a xlink:href="../../d1/d0b/classmodel_1_1_polar.html#a8abcb5640caf12d2941533a6e1c04faa" target="_top" xlink:title="model.Polar.getDistance">
<polygon fill="white" stroke="black" points="850,-49.5 850,-68.5 984,-68.5 984,-49.5 850,-49.5"/>
<text text-anchor="middle" x="917" y="-56.5" font-family="Helvetica,sans-Serif" font-size="10.00">model.Polar.getDistance</text>
</a>
</g>
</g>
<!-- Node21&#45;&gt;Node24 -->
<g id="edge33" class="edge"><title>Node21&#45;&gt;Node24</title>
<path fill="none" stroke="midnightblue" d="M716.104,-251.127C726.399,-220.094 762.545,-123.864 828,-78 831.774,-75.3555 835.846,-73.0681 840.097,-71.0907"/>
<polygon fill="midnightblue" stroke="midnightblue" points="841.681,-74.2261 849.645,-67.2385 839.061,-67.7346 841.681,-74.2261"/>
</g>
<!-- Node25 -->
<g id="node25" class="node"><title>Node25</title>
<g id="a_node25"><a xlink:href="../../d1/d0b/classmodel_1_1_polar.html#adbd9afb75cf519b2dd9f1331e406b8c2" target="_top" xlink:title="model.Polar.getAngle">
<polygon fill="white" stroke="black" points="857.5,-403.5 857.5,-422.5 976.5,-422.5 976.5,-403.5 857.5,-403.5"/>
<text text-anchor="middle" x="917" y="-410.5" font-family="Helvetica,sans-Serif" font-size="10.00">model.Polar.getAngle</text>
</a>
</g>
</g>
<!-- Node21&#45;&gt;Node25 -->
<g id="edge34" class="edge"><title>Node21&#45;&gt;Node25</title>
<path fill="none" stroke="midnightblue" d="M718.886,-270.739C733.9,-294.724 776.126,-357.014 828,-389 835.443,-393.59 843.769,-397.316 852.252,-400.338"/>
<polygon fill="midnightblue" stroke="midnightblue" points="851.264,-403.697 861.856,-403.459 853.427,-397.039 851.264,-403.697"/>
</g>
<!-- Node26 -->
<g id="node26" class="node"><title>Node26</title>
<g id="a_node26"><a xlink:href="../../de/d0a/classview_1_1_drawer.html#ad1636376006d26ed1ca9784e13f96a2a" target="_top" xlink:title="view.Drawer.wrapY">
<polygon fill="white" stroke="black" points="865.5,-289.5 865.5,-308.5 968.5,-308.5 968.5,-289.5 865.5,-289.5"/>
<text text-anchor="middle" x="917" y="-296.5" font-family="Helvetica,sans-Serif" font-size="10.00">view.Drawer.wrapY</text>
</a>
</g>
</g>
<!-- Node21&#45;&gt;Node26 -->
<g id="edge35" class="edge"><title>Node21&#45;&gt;Node26</title>
<path fill="none" stroke="midnightblue" d="M761.108,-270.005C789.339,-275.29 825.273,-282.017 855.421,-287.66"/>
<polygon fill="midnightblue" stroke="midnightblue" points="854.931,-291.129 865.404,-289.529 856.219,-284.249 854.931,-291.129"/>
</g>
<!-- Node27 -->
<g id="node27" class="node"><title>Node27</title>
<g id="a_node27"><a xlink:href="../../d8/df7/classview_1_1_turtle_view.html#a5e7cf3c4f078acae07bcbeee264a5581" target="_top" xlink:title="view.TurtleView.move">
<polygon fill="white" stroke="black" points="1064,-330.5 1064,-349.5 1180,-349.5 1180,-330.5 1064,-330.5"/>
<text text-anchor="middle" x="1122" y="-337.5" font-family="Helvetica,sans-Serif" font-size="10.00">view.TurtleView.move</text>
</a>
</g>
</g>
<!-- Node21&#45;&gt;Node27 -->
<g id="edge43" class="edge"><title>Node21&#45;&gt;Node27</title>
<path fill="none" stroke="midnightblue" d="M720.604,-270.748C737.343,-291.308 779.75,-338.648 828,-356 913.245,-386.656 1021.44,-367.003 1079.57,-352.142"/>
<polygon fill="midnightblue" stroke="midnightblue" points="1080.7,-355.462 1089.48,-349.528 1078.92,-348.693 1080.7,-355.462"/>
</g>
<!-- Node28 -->
<g id="node28" class="node"><title>Node28</title>
<g id="a_node28"><a xlink:href="../../d8/df7/classview_1_1_turtle_view.html#a68c8a2962e23e5794fcfbe7ef1968fad" target="_top" xlink:title="view.TurtleView.getPenUp">
<polygon fill="white" stroke="black" points="1054,-254.5 1054,-273.5 1190,-273.5 1190,-254.5 1054,-254.5"/>
<text text-anchor="middle" x="1122" y="-261.5" font-family="Helvetica,sans-Serif" font-size="10.00">view.TurtleView.getPenUp</text>
</a>
</g>
</g>
<!-- Node21&#45;&gt;Node28 -->
<g id="edge44" class="edge"><title>Node21&#45;&gt;Node28</title>
<path fill="none" stroke="midnightblue" d="M759.784,-251.487C780.576,-247.722 805.412,-243.853 828,-242 906.846,-235.53 927.242,-234.534 1006,-242 1027.64,-244.051 1051.27,-248.227 1071.44,-252.395"/>
<polygon fill="midnightblue" stroke="midnightblue" points="1070.84,-255.845 1081.35,-254.497 1072.29,-248.998 1070.84,-255.845"/>
</g>
<!-- Node30 -->
<g id="node30" class="node"><title>Node30</title>
<g id="a_node30"><a xlink:href="../../de/d0a/classview_1_1_drawer.html#a24eafc164d9d0ab08036dc5cf7d72dd4" target="_top" xlink:title="view.Drawer.wrapX">
<polygon fill="white" stroke="black" points="865,-327.5 865,-346.5 969,-346.5 969,-327.5 865,-327.5"/>
<text text-anchor="middle" x="917" y="-334.5" font-family="Helvetica,sans-Serif" font-size="10.00">view.Drawer.wrapX</text>
</a>
</g>
</g>
<!-- Node21&#45;&gt;Node30 -->
<g id="edge39" class="edge"><title>Node21&#45;&gt;Node30</title>
<path fill="none" stroke="midnightblue" d="M729.198,-270.642C750.967,-283.218 791.19,-305.128 828,-318 836.559,-320.993 845.759,-323.606 854.869,-325.856"/>
<polygon fill="midnightblue" stroke="midnightblue" points="854.149,-329.282 864.684,-328.157 855.747,-322.467 854.149,-329.282"/>
</g>
<!-- Node31 -->
<g id="node31" class="node"><title>Node31</title>
<g id="a_node31"><a xlink:href="../../d6/d06/classmodel_1_1_turtle_command.html#abb952ce819f91c0f5970c2f2b1c43d73" target="_top" xlink:title="model.TurtleCommand.isRelative">
<polygon fill="white" stroke="black" points="830.5,-251.5 830.5,-270.5 1003.5,-270.5 1003.5,-251.5 830.5,-251.5"/>
<text text-anchor="middle" x="917" y="-258.5" font-family="Helvetica,sans-Serif" font-size="10.00">model.TurtleCommand.isRelative</text>
</a>
</g>
</g>
<!-- Node21&#45;&gt;Node31 -->
<g id="edge45" class="edge"><title>Node21&#45;&gt;Node31</title>
<path fill="none" stroke="midnightblue" d="M761.108,-261C778.942,-261 799.851,-261 820.433,-261"/>
<polygon fill="midnightblue" stroke="midnightblue" points="820.496,-264.5 830.496,-261 820.496,-257.5 820.496,-264.5"/>
</g>
<!-- Node32 -->
<g id="node32" class="node"><title>Node32</title>
<g id="a_node32"><a xlink:href="../../d8/df7/classview_1_1_turtle_view.html#a199407b3121d1bc310d7f75cdab2da94" target="_top" xlink:title="view.TurtleView.setRelative\lHeading">
<polygon fill="white" stroke="black" points="847,-164 847,-194 987,-194 987,-164 847,-164"/>
<text text-anchor="start" x="855" y="-182" font-family="Helvetica,sans-Serif" font-size="10.00">view.TurtleView.setRelative</text>
<text text-anchor="middle" x="917" y="-171" font-family="Helvetica,sans-Serif" font-size="10.00">Heading</text>
</a>
</g>
</g>
<!-- Node21&#45;&gt;Node32 -->
<g id="edge46" class="edge"><title>Node21&#45;&gt;Node32</title>
<path fill="none" stroke="midnightblue" d="M732.696,-251.395C755.402,-240.486 793.972,-222.457 828,-209 838.113,-205 848.998,-201.028 859.549,-197.346"/>
<polygon fill="midnightblue" stroke="midnightblue" points="860.796,-200.618 869.112,-194.053 858.517,-193.999 860.796,-200.618"/>
</g>
<!-- Node34 -->
<g id="node34" class="node"><title>Node34</title>
<g id="a_node34"><a xlink:href="../../d8/df7/classview_1_1_turtle_view.html#a166c0ff50e234c0a2725aa1cbc38c933" target="_top" xlink:title="view.TurtleView.setAbsolute\lHeading">
<polygon fill="white" stroke="black" points="844,-0 844,-30 990,-30 990,-0 844,-0"/>
<text text-anchor="start" x="852" y="-18" font-family="Helvetica,sans-Serif" font-size="10.00">view.TurtleView.setAbsolute</text>
<text text-anchor="middle" x="917" y="-7" font-family="Helvetica,sans-Serif" font-size="10.00">Heading</text>
</a>
</g>
</g>
<!-- Node21&#45;&gt;Node34 -->
<g id="edge48" class="edge"><title>Node21&#45;&gt;Node34</title>
<path fill="none" stroke="midnightblue" d="M715.128,-251.304C723.204,-216.861 755.25,-99.3001 828,-40 830.251,-38.1655 832.628,-36.4656 835.104,-34.8903"/>
<polygon fill="midnightblue" stroke="midnightblue" points="836.832,-37.934 843.854,-30.0002 833.417,-31.8235 836.832,-37.934"/>
</g>
<!-- Node26&#45;&gt;Node27 -->
<g id="edge36" class="edge"><title>Node26&#45;&gt;Node27</title>
<path fill="none" stroke="midnightblue" d="M965.083,-308.509C994.569,-314.465 1032.76,-322.177 1063.96,-328.479"/>
<polygon fill="midnightblue" stroke="midnightblue" points="1063.33,-331.922 1073.82,-330.471 1064.71,-325.061 1063.33,-331.922"/>
</g>
<!-- Node26&#45;&gt;Node28 -->
<g id="edge37" class="edge"><title>Node26&#45;&gt;Node28</title>
<path fill="none" stroke="midnightblue" d="M968.702,-290.258C994.954,-285.732 1027.32,-280.153 1055.45,-275.302"/>
<polygon fill="midnightblue" stroke="midnightblue" points="1056.34,-278.7 1065.6,-273.552 1055.15,-271.802 1056.34,-278.7"/>
</g>
<!-- Node29 -->
<g id="node29" class="node"><title>Node29</title>
<g id="a_node29"><a xlink:href="../../de/d0a/classview_1_1_drawer.html#a1489f58b0b2c2012d23d546013a47972" target="_top" xlink:title="view.Drawer.drawLine">
<polygon fill="white" stroke="black" points="1063.5,-292.5 1063.5,-311.5 1180.5,-311.5 1180.5,-292.5 1063.5,-292.5"/>
<text text-anchor="middle" x="1122" y="-299.5" font-family="Helvetica,sans-Serif" font-size="10.00">view.Drawer.drawLine</text>
</a>
</g>
</g>
<!-- Node26&#45;&gt;Node29 -->
<g id="edge38" class="edge"><title>Node26&#45;&gt;Node29</title>
<path fill="none" stroke="midnightblue" d="M968.702,-299.749C994.214,-300.126 1025.5,-300.589 1053.06,-300.996"/>
<polygon fill="midnightblue" stroke="midnightblue" points="1053.37,-304.501 1063.42,-301.149 1053.47,-297.502 1053.37,-304.501"/>
</g>
<!-- Node30&#45;&gt;Node27 -->
<g id="edge40" class="edge"><title>Node30&#45;&gt;Node27</title>
<path fill="none" stroke="midnightblue" d="M969.225,-337.757C994.742,-338.134 1025.93,-338.595 1053.38,-339.001"/>
<polygon fill="midnightblue" stroke="midnightblue" points="1053.65,-342.505 1063.7,-339.153 1053.75,-335.506 1053.65,-342.505"/>
</g>
<!-- Node30&#45;&gt;Node28 -->
<g id="edge41" class="edge"><title>Node30&#45;&gt;Node28</title>
<path fill="none" stroke="midnightblue" d="M969.042,-330.99C981.615,-328.179 994.704,-324.054 1006,-318 1025.67,-307.459 1022.46,-293.77 1042,-283 1046.18,-280.696 1050.64,-278.669 1055.22,-276.886"/>
<polygon fill="midnightblue" stroke="midnightblue" points="1056.48,-280.155 1064.77,-273.559 1054.18,-273.544 1056.48,-280.155"/>
</g>
<!-- Node30&#45;&gt;Node29 -->
<g id="edge42" class="edge"><title>Node30&#45;&gt;Node29</title>
<path fill="none" stroke="midnightblue" d="M969.225,-328.168C995.482,-323.641 1027.74,-318.079 1055.76,-313.248"/>
<polygon fill="midnightblue" stroke="midnightblue" points="1056.61,-316.653 1065.87,-311.505 1055.42,-309.755 1056.61,-316.653"/>
</g>
<!-- Node33 -->
<g id="node33" class="node"><title>Node33</title>
<g id="a_node33"><a xlink:href="../../d8/df7/classview_1_1_turtle_view.html#aea0727a510b53db67aa4100a6106eb5b" target="_top" xlink:title="view.TurtleView.adjustAngle">
<polygon fill="white" stroke="black" points="1049.5,-87.5 1049.5,-106.5 1194.5,-106.5 1194.5,-87.5 1049.5,-87.5"/>
<text text-anchor="middle" x="1122" y="-94.5" font-family="Helvetica,sans-Serif" font-size="10.00">view.TurtleView.adjustAngle</text>
</a>
</g>
</g>
<!-- Node32&#45;&gt;Node33 -->
<g id="edge47" class="edge"><title>Node32&#45;&gt;Node33</title>
<path fill="none" stroke="midnightblue" d="M976.719,-163.942C986.596,-160.948 996.666,-157.604 1006,-154 1037.47,-141.85 1071.93,-124.139 1094.84,-111.692"/>
<polygon fill="midnightblue" stroke="midnightblue" points="1096.83,-114.592 1103.91,-106.711 1093.46,-108.456 1096.83,-114.592"/>
</g>
<!-- Node34&#45;&gt;Node33 -->
<g id="edge49" class="edge"><title>Node34&#45;&gt;Node33</title>
<path fill="none" stroke="midnightblue" d="M976.719,-30.0576C986.596,-33.0516 996.666,-36.3959 1006,-40 1037.47,-52.1499 1071.93,-69.8609 1094.84,-82.3083"/>
<polygon fill="midnightblue" stroke="midnightblue" points="1093.46,-85.5436 1103.91,-87.289 1096.83,-79.4078 1093.46,-85.5436"/>
</g>
</g>
</svg>
        <g id="navigator" transform="translate(0 0)" fill="#404254">
                <rect fill="#f2f5e9" fill-opacity="0.5" stroke="#606060" stroke-width=".5" x="0" y="0" width="60" height="60"/>
                <use id="zoomplus" xlink:href="#zoomPlus" x="17" y="9" onmousedown="handleZoom(evt,'in')"/>
                <use id="zoomminus" xlink:href="#zoomMin" x="42" y="9" onmousedown="handleZoom(evt,'out')"/>
                <use id="reset" xlink:href="#resetDef" x="30" y="36" onmousedown="handleReset()"/>
                <g id="arrowUp" xlink:href="#dirArrow" transform="translate(30 24)" onmousedown="handlePan(0,-1)">
                  <use xlink:href="#rim" fill="#404040">
                        <set attributeName="fill" to="#808080" begin="arrowUp.mouseover" end="arrowUp.mouseout"/>
                  </use>
                  <path fill="none" stroke="white" stroke-width="1.5" d="M0,-3.0v7 M-2.5,-0.5L0,-3.0L2.5,-0.5"/>
                </g>
                <g id="arrowRight" xlink:href="#dirArrow" transform="rotate(90) translate(36 -43)" onmousedown="handlePan(1,0)">
                  <use xlink:href="#rim" fill="#404040">
                        <set attributeName="fill" to="#808080" begin="arrowRight.mouseover" end="arrowRight.mouseout"/>
                  </use>
                  <path fill="none" stroke="white" stroke-width="1.5" d="M0,-3.0v7 M-2.5,-0.5L0,-3.0L2.5,-0.5"/>
                </g>
                <g id="arrowDown" xlink:href="#dirArrow" transform="rotate(180) translate(-30 -48)" onmousedown="handlePan(0,1)">
                  <use xlink:href="#rim" fill="#404040">
                        <set attributeName="fill" to="#808080" begin="arrowDown.mouseover" end="arrowDown.mouseout"/>
                  </use>
                  <path fill="none" stroke="white" stroke-width="1.5" d="M0,-3.0v7 M-2.5,-0.5L0,-3.0L2.5,-0.5"/>
                </g>
                <g id="arrowLeft" xlink:href="#dirArrow" transform="rotate(270) translate(-36 17)" onmousedown="handlePan(-1,0)">
                  <use xlink:href="#rim" fill="#404040">
                        <set attributeName="fill" to="#808080" begin="arrowLeft.mouseover" end="arrowLeft.mouseout"/>
                  </use>
                  <path fill="none" stroke="white" stroke-width="1.5" d="M0,-3.0v7 M-2.5,-0.5L0,-3.0L2.5,-0.5"/>
                </g>
        </g>
        <svg viewBox="0 0 15 15" width="100%" height="30px" preserveAspectRatio="xMaxYMin meet">
         <g id="arrow_out" transform="scale(0.3 0.3)">
          <a xlink:href="classmodel_1_1instructions_1_1_movement_instruction_a33e802cec8283d190a8daac6e485e3b4_cgraph_org.svg" target="_base">
           <rect id="button" ry="5" rx="5" y="6" x="6" height="38" width="38"
                fill="#f2f5e9" fill-opacity="0.5" stroke="#606060" stroke-width="1.0"/>
           <path id="arrow"
             d="M 11.500037,31.436501 C 11.940474,20.09759 22.043105,11.32322 32.158766,21.979434 L 37.068811,17.246167 C 37.068811,17.246167 37.088388,32 37.088388,32 L 22.160133,31.978069 C 22.160133,31.978069 26.997745,27.140456 26.997745,27.140456 C 18.528582,18.264221 13.291696,25.230495 11.500037,31.436501 z"
             style="fill:#404040;"/>
          </a>
         </g>
        </svg>
</svg>
