<?xml version="1.0" encoding="UTF-8" standalone="no"?>
<!DOCTYPE svg PUBLIC "-//W3C//DTD SVG 1.1//EN"
 "http://www.w3.org/Graphics/SVG/1.1/DTD/svg11.dtd">
<!-- Generated by graphviz version 2.36.0 (20140111.2315)
 -->
<!-- Title: model.instructions.MovementInstruction.execute Pages: 1 -->
<svg width="1398pt" height="747pt"
 viewBox="0.00 0.00 1398.00 747.00" xmlns="http://www.w3.org/2000/svg" xmlns:xlink="http://www.w3.org/1999/xlink">
<g id="graph0" class="graph" transform="scale(1 1) rotate(0) translate(4 743)">
<title>model.instructions.MovementInstruction.execute</title>
<polygon fill="white" stroke="none" points="-4,4 -4,-743 1394,-743 1394,4 -4,4"/>
<!-- Node1 -->
<g id="node1" class="node"><title>Node1</title>
<polygon fill="#bfbfbf" stroke="black" points="0.5,-518 0.5,-548 159.5,-548 159.5,-518 0.5,-518"/>
<text text-anchor="start" x="8.5" y="-536" font-family="Helvetica,sans-Serif" font-size="10.00">model.instructions.Movement</text>
<text text-anchor="middle" x="80" y="-525" font-family="Helvetica,sans-Serif" font-size="10.00">Instruction.execute</text>
</g>
<!-- Node2 -->
<g id="node2" class="node"><title>Node2</title>
<g id="a_node2"><a xlink:href="../../d4/d64/classview_1_1_view_updater.html#ace7ce28317856b4b454a798d1af23b38" target="_top" xlink:title="view.ViewUpdater.clearScreen">
<polygon fill="white" stroke="black" points="616.5,-659.5 616.5,-678.5 775.5,-678.5 775.5,-659.5 616.5,-659.5"/>
<text text-anchor="middle" x="696" y="-666.5" font-family="Helvetica,sans-Serif" font-size="10.00">view.ViewUpdater.clearScreen</text>
</a>
</g>
</g>
<!-- Node1&#45;&gt;Node2 -->
<g id="edge1" class="edge"><title>Node1&#45;&gt;Node2</title>
<path fill="none" stroke="midnightblue" d="M104.217,-548.049C126.756,-561.935 162.395,-582.012 196,-593 334.907,-638.419 504.603,-656.915 606.022,-664.291"/>
<polygon fill="midnightblue" stroke="midnightblue" points="606.003,-667.798 616.225,-665.012 606.497,-660.816 606.003,-667.798"/>
</g>
<!-- Node11 -->
<g id="node11" class="node"><title>Node11</title>
<g id="a_node11"><a xlink:href="../../d1/dca/classmodel_1_1_execution_environment.html#a429a18123e450d0e124af2ccf2274b06" target="_top" xlink:title="model.ExecutionEnvironment.get\lActiveTurtle">
<polygon fill="white" stroke="black" points="398,-392 398,-422 574,-422 574,-392 398,-392"/>
<text text-anchor="start" x="406" y="-410" font-family="Helvetica,sans-Serif" font-size="10.00">model.ExecutionEnvironment.get</text>
<text text-anchor="middle" x="486" y="-399" font-family="Helvetica,sans-Serif" font-size="10.00">ActiveTurtle</text>
</a>
</g>
</g>
<!-- Node1&#45;&gt;Node11 -->
<g id="edge11" class="edge"><title>Node1&#45;&gt;Node11</title>
<path fill="none" stroke="midnightblue" d="M91.647,-517.884C109.824,-493.478 149.43,-446.103 196,-426 255.989,-400.104 329.542,-395.602 387.431,-397.448"/>
<polygon fill="midnightblue" stroke="midnightblue" points="387.555,-400.955 397.683,-397.845 387.826,-393.96 387.555,-400.955"/>
</g>
<!-- Node12 -->
<g id="node12" class="node"><title>Node12</title>
<g id="a_node12"><a xlink:href="../../d4/d64/classview_1_1_view_updater.html#ad79c00c54aabbeca7b8a0461fea36c29" target="_top" xlink:title="view.ViewUpdater.setPenUp">
<polygon fill="white" stroke="black" points="621.5,-599.5 621.5,-618.5 770.5,-618.5 770.5,-599.5 621.5,-599.5"/>
<text text-anchor="middle" x="696" y="-606.5" font-family="Helvetica,sans-Serif" font-size="10.00">view.ViewUpdater.setPenUp</text>
</a>
</g>
</g>
<!-- Node1&#45;&gt;Node12 -->
<g id="edge12" class="edge"><title>Node1&#45;&gt;Node12</title>
<path fill="none" stroke="midnightblue" d="M124.176,-548.034C145.536,-554.886 171.855,-562.464 196,-567 340.355,-594.122 511.508,-603.738 611.216,-607.142"/>
<polygon fill="midnightblue" stroke="midnightblue" points="611.123,-610.64 621.233,-607.471 611.353,-603.644 611.123,-610.64"/>
</g>
<!-- Node13 -->
<g id="node13" class="node"><title>Node13</title>
<g id="a_node13"><a xlink:href="../../d4/d64/classview_1_1_view_updater.html#a497cc83cdcb6fdb430bdb78431c5cd20" target="_top" xlink:title="view.ViewUpdater.setXY">
<polygon fill="white" stroke="black" points="632,-561.5 632,-580.5 760,-580.5 760,-561.5 632,-561.5"/>
<text text-anchor="middle" x="696" y="-568.5" font-family="Helvetica,sans-Serif" font-size="10.00">view.ViewUpdater.setXY</text>
</a>
</g>
</g>
<!-- Node1&#45;&gt;Node13 -->
<g id="edge15" class="edge"><title>Node1&#45;&gt;Node13</title>
<path fill="none" stroke="midnightblue" d="M159.795,-543.366C171.905,-544.735 184.276,-546.006 196,-547 347.077,-559.812 524.51,-566.317 621.855,-569.155"/>
<polygon fill="midnightblue" stroke="midnightblue" points="621.788,-572.655 631.885,-569.443 621.989,-565.658 621.788,-572.655"/>
</g>
<!-- Node14 -->
<g id="node14" class="node"><title>Node14</title>
<g id="a_node14"><a xlink:href="../../d4/d64/classview_1_1_view_updater.html#a9797c2f411ad272a0feb84c26836bfd4" target="_top" xlink:title="view.ViewUpdater.showTurtle">
<polygon fill="white" stroke="black" points="620,-523.5 620,-542.5 772,-542.5 772,-523.5 620,-523.5"/>
<text text-anchor="middle" x="696" y="-530.5" font-family="Helvetica,sans-Serif" font-size="10.00">view.ViewUpdater.showTurtle</text>
</a>
</g>
</g>
<!-- Node1&#45;&gt;Node14 -->
<g id="edge18" class="edge"><title>Node1&#45;&gt;Node14</title>
<path fill="none" stroke="midnightblue" d="M159.7,-533C275.252,-533 490.008,-533 609.381,-533"/>
<polygon fill="midnightblue" stroke="midnightblue" points="609.571,-536.5 619.571,-533 609.571,-529.5 609.571,-536.5"/>
</g>
<!-- Node15 -->
<g id="node15" class="node"><title>Node15</title>
<g id="a_node15"><a xlink:href="../../d4/d64/classview_1_1_view_updater.html#ad29dfbb2499161b985c26e01f73ea5ac" target="_top" xlink:title="view.ViewUpdater.towards">
<polygon fill="white" stroke="black" points="206,-485.5 206,-504.5 346,-504.5 346,-485.5 206,-485.5"/>
<text text-anchor="middle" x="276" y="-492.5" font-family="Helvetica,sans-Serif" font-size="10.00">view.ViewUpdater.towards</text>
</a>
</g>
</g>
<!-- Node1&#45;&gt;Node15 -->
<g id="edge21" class="edge"><title>Node1&#45;&gt;Node15</title>
<path fill="none" stroke="midnightblue" d="M157.674,-517.981C177.244,-514.148 197.97,-510.088 216.469,-506.465"/>
<polygon fill="midnightblue" stroke="midnightblue" points="217.355,-509.858 226.495,-504.501 216.009,-502.989 217.355,-509.858"/>
</g>
<!-- Node17 -->
<g id="node17" class="node"><title>Node17</title>
<g id="a_node17"><a xlink:href="../../d1/dd3/classmodel_1_1instructions_1_1_movement_instruction.html#a51c776093aeb820937b12e2b89eb2f89" target="_top" xlink:title="model.instructions.Movement\lInstruction.updateView">
<polygon fill="white" stroke="black" points="196.5,-436 196.5,-466 355.5,-466 355.5,-436 196.5,-436"/>
<text text-anchor="start" x="204.5" y="-454" font-family="Helvetica,sans-Serif" font-size="10.00">model.instructions.Movement</text>
<text text-anchor="middle" x="276" y="-443" font-family="Helvetica,sans-Serif" font-size="10.00">Instruction.updateView</text>
</a>
</g>
</g>
<!-- Node1&#45;&gt;Node17 -->
<g id="edge25" class="edge"><title>Node1&#45;&gt;Node17</title>
<path fill="none" stroke="midnightblue" d="M108.338,-517.959C131.302,-505.69 165.208,-488.418 196,-476 201.779,-473.67 207.863,-471.412 213.985,-469.27"/>
<polygon fill="midnightblue" stroke="midnightblue" points="215.254,-472.535 223.597,-466.004 213.002,-465.907 215.254,-472.535"/>
</g>
<!-- Node3 -->
<g id="node3" class="node"><title>Node3</title>
<g id="a_node3"><a xlink:href="../../da/d64/classview_1_1_workspace.html#ad460da1164f039e5ea9a265d446d13fe" target="_top" xlink:title="view.Workspace.getTurtleMap">
<polygon fill="white" stroke="black" points="1234.5,-567.5 1234.5,-586.5 1389.5,-586.5 1389.5,-567.5 1234.5,-567.5"/>
<text text-anchor="middle" x="1312" y="-574.5" font-family="Helvetica,sans-Serif" font-size="10.00">view.Workspace.getTurtleMap</text>
</a>
</g>
</g>
<!-- Node2&#45;&gt;Node3 -->
<g id="edge2" class="edge"><title>Node2&#45;&gt;Node3</title>
<path fill="none" stroke="midnightblue" d="M775.73,-671.89C875.684,-673.559 1052.62,-669.792 1198,-631 1230.35,-622.368 1264.67,-604.58 1286.89,-591.775"/>
<polygon fill="midnightblue" stroke="midnightblue" points="1288.78,-594.722 1295.62,-586.634 1285.23,-588.689 1288.78,-594.722"/>
</g>
<!-- Node4 -->
<g id="node4" class="node"><title>Node4</title>
<g id="a_node4"><a xlink:href="../../da/d64/classview_1_1_workspace.html#af056d219d5078e688731c51fb6da7c7e" target="_top" xlink:title="view.Workspace.clearLines">
<polygon fill="white" stroke="black" points="830.5,-719.5 830.5,-738.5 971.5,-738.5 971.5,-719.5 830.5,-719.5"/>
<text text-anchor="middle" x="901" y="-726.5" font-family="Helvetica,sans-Serif" font-size="10.00">view.Workspace.clearLines</text>
</a>
</g>
</g>
<!-- Node2&#45;&gt;Node4 -->
<g id="edge3" class="edge"><title>Node2&#45;&gt;Node4</title>
<path fill="none" stroke="midnightblue" d="M726.692,-678.628C749.86,-686.059 782.887,-696.476 812,-705 825.697,-709.01 840.657,-713.171 854.292,-716.88"/>
<polygon fill="midnightblue" stroke="midnightblue" points="853.383,-720.26 863.95,-719.492 855.211,-713.503 853.383,-720.26"/>
</g>
<!-- Node5 -->
<g id="node5" class="node"><title>Node5</title>
<g id="a_node5"><a xlink:href="../../d1/dc7/classview_1_1_side_bar.html#a7d73038dbba05f96990b60664afa2670" target="_top" xlink:title="view.SideBar.updateTurtle\lProperties">
<polygon fill="white" stroke="black" points="832,-518 832,-548 970,-548 970,-518 832,-518"/>
<text text-anchor="start" x="840" y="-536" font-family="Helvetica,sans-Serif" font-size="10.00">view.SideBar.updateTurtle</text>
<text text-anchor="middle" x="901" y="-525" font-family="Helvetica,sans-Serif" font-size="10.00">Properties</text>
</a>
</g>
</g>
<!-- Node2&#45;&gt;Node5 -->
<g id="edge4" class="edge"><title>Node2&#45;&gt;Node5</title>
<path fill="none" stroke="midnightblue" d="M717.677,-659.499C733.943,-651.736 756.961,-640.103 776,-628 811.779,-605.257 850.1,-574.864 874.517,-554.646"/>
<polygon fill="midnightblue" stroke="midnightblue" points="876.802,-557.298 882.241,-548.205 872.319,-551.922 876.802,-557.298"/>
</g>
<!-- Node6 -->
<g id="node6" class="node"><title>Node6</title>
<g id="a_node6"><a xlink:href="../../d9/d3a/classview_1_1_turtle_properties_view.html#af07bce3cf2bed2814a0fb3812d00b69e" target="_top" xlink:title="view.TurtlePropertiesView.update">
<polygon fill="white" stroke="black" points="1026.5,-403.5 1026.5,-422.5 1197.5,-422.5 1197.5,-403.5 1026.5,-403.5"/>
<text text-anchor="middle" x="1112" y="-410.5" font-family="Helvetica,sans-Serif" font-size="10.00">view.TurtlePropertiesView.update</text>
</a>
</g>
</g>
<!-- Node5&#45;&gt;Node6 -->
<g id="edge5" class="edge"><title>Node5&#45;&gt;Node6</title>
<path fill="none" stroke="midnightblue" d="M928.47,-517.802C968.942,-494.564 1045.69,-450.496 1085.55,-427.613"/>
<polygon fill="midnightblue" stroke="midnightblue" points="1087.45,-430.555 1094.38,-422.54 1083.97,-424.484 1087.45,-430.555"/>
</g>
<!-- Node6&#45;&gt;Node3 -->
<g id="edge6" class="edge"><title>Node6&#45;&gt;Node3</title>
<path fill="none" stroke="midnightblue" d="M1168.13,-422.572C1178.66,-426.008 1189.14,-430.672 1198,-437 1220.87,-453.337 1216.72,-466.832 1234,-489 1253.84,-514.454 1278.74,-542.232 1294.76,-559.631"/>
<polygon fill="midnightblue" stroke="midnightblue" points="1292.48,-562.326 1301.85,-567.283 1297.62,-557.568 1292.48,-562.326"/>
</g>
<!-- Node7 -->
<g id="node7" class="node"><title>Node7</title>
<g id="a_node7"><a xlink:href="../../d8/df7/classview_1_1_turtle_view.html#ab5fdc3775e06339f4a68d1b795a81643" target="_top" xlink:title="view.TurtleView.getID">
<polygon fill="white" stroke="black" points="1255,-460.5 1255,-479.5 1369,-479.5 1369,-460.5 1255,-460.5"/>
<text text-anchor="middle" x="1312" y="-467.5" font-family="Helvetica,sans-Serif" font-size="10.00">view.TurtleView.getID</text>
</a>
</g>
</g>
<!-- Node6&#45;&gt;Node7 -->
<g id="edge7" class="edge"><title>Node6&#45;&gt;Node7</title>
<path fill="none" stroke="midnightblue" d="M1149.63,-422.518C1164.71,-426.65 1182.3,-431.743 1198,-437 1214.28,-442.45 1217.63,-445.822 1234,-451 1241.75,-453.451 1250.01,-455.781 1258.15,-457.916"/>
<polygon fill="midnightblue" stroke="midnightblue" points="1257.41,-461.34 1267.96,-460.419 1259.14,-454.557 1257.41,-461.34"/>
</g>
<!-- Node8 -->
<g id="node8" class="node"><title>Node8</title>
<g id="a_node8"><a xlink:href="../../d8/df7/classview_1_1_turtle_view.html#afddbc74313a99bb100c8c50efa88f330" target="_top" xlink:title="view.TurtleView.getYCoord">
<polygon fill="white" stroke="black" points="1243.5,-422.5 1243.5,-441.5 1380.5,-441.5 1380.5,-422.5 1243.5,-422.5"/>
<text text-anchor="middle" x="1312" y="-429.5" font-family="Helvetica,sans-Serif" font-size="10.00">view.TurtleView.getYCoord</text>
</a>
</g>
</g>
<!-- Node6&#45;&gt;Node8 -->
<g id="edge8" class="edge"><title>Node6&#45;&gt;Node8</title>
<path fill="none" stroke="midnightblue" d="M1197.54,-421.113C1209.41,-422.252 1221.57,-423.418 1233.3,-424.544"/>
<polygon fill="midnightblue" stroke="midnightblue" points="1233.2,-428.05 1243.48,-425.521 1233.86,-421.082 1233.2,-428.05"/>
</g>
<!-- Node9 -->
<g id="node9" class="node"><title>Node9</title>
<g id="a_node9"><a xlink:href="../../d8/df7/classview_1_1_turtle_view.html#a5da3d4c9dafb77af0db0c589a72eadc8" target="_top" xlink:title="view.TurtleView.getHeading">
<polygon fill="white" stroke="black" points="1240,-384.5 1240,-403.5 1384,-403.5 1384,-384.5 1240,-384.5"/>
<text text-anchor="middle" x="1312" y="-391.5" font-family="Helvetica,sans-Serif" font-size="10.00">view.TurtleView.getHeading</text>
</a>
</g>
</g>
<!-- Node6&#45;&gt;Node9 -->
<g id="edge9" class="edge"><title>Node6&#45;&gt;Node9</title>
<path fill="none" stroke="midnightblue" d="M1197.54,-404.887C1208.22,-403.863 1219.12,-402.817 1229.74,-401.798"/>
<polygon fill="midnightblue" stroke="midnightblue" points="1230.2,-405.27 1239.82,-400.83 1229.53,-398.302 1230.2,-405.27"/>
</g>
<!-- Node10 -->
<g id="node10" class="node"><title>Node10</title>
<g id="a_node10"><a xlink:href="../../d5/dea/classview_1_1_side_table_view.html#adbdf2bf0ebf7fc8ab04db2087baea03a" target="_top" xlink:title="view.SideTableView.getTable">
<polygon fill="white" stroke="black" points="1238,-346.5 1238,-365.5 1386,-365.5 1386,-346.5 1238,-346.5"/>
<text text-anchor="middle" x="1312" y="-353.5" font-family="Helvetica,sans-Serif" font-size="10.00">view.SideTableView.getTable</text>
</a>
</g>
</g>
<!-- Node6&#45;&gt;Node10 -->
<g id="edge10" class="edge"><title>Node6&#45;&gt;Node10</title>
<path fill="none" stroke="midnightblue" d="M1141.7,-403.432C1166.12,-395.424 1202.2,-383.908 1234,-375 1242.48,-372.625 1251.52,-370.252 1260.32,-368.027"/>
<polygon fill="midnightblue" stroke="midnightblue" points="1261.26,-371.401 1270.12,-365.586 1259.57,-364.609 1261.26,-371.401"/>
</g>
<!-- Node12&#45;&gt;Node3 -->
<g id="edge13" class="edge"><title>Node12&#45;&gt;Node3</title>
<path fill="none" stroke="midnightblue" d="M770.896,-615.742C869.041,-623.195 1047.53,-631.521 1198,-610 1224.84,-606.161 1254.22,-597.437 1276.28,-589.923"/>
<polygon fill="midnightblue" stroke="midnightblue" points="1277.59,-593.176 1285.87,-586.577 1275.28,-586.566 1277.59,-593.176"/>
</g>
<!-- Node12&#45;&gt;Node5 -->
<g id="edge14" class="edge"><title>Node12&#45;&gt;Node5</title>
<path fill="none" stroke="midnightblue" d="M743.388,-599.44C754.208,-596.772 765.603,-593.601 776,-590 805.647,-579.731 837.802,-564.834 861.937,-552.845"/>
<polygon fill="midnightblue" stroke="midnightblue" points="863.735,-555.858 871.1,-548.242 860.593,-549.603 863.735,-555.858"/>
</g>
<!-- Node13&#45;&gt;Node3 -->
<g id="edge16" class="edge"><title>Node13&#45;&gt;Node3</title>
<path fill="none" stroke="midnightblue" d="M741.275,-580.536C762.549,-584.646 788.479,-588.97 812,-591 982.92,-605.752 1026.77,-601.567 1198,-591 1210.02,-590.258 1222.73,-589.076 1235.1,-587.706"/>
<polygon fill="midnightblue" stroke="midnightblue" points="1235.87,-591.14 1245.4,-586.515 1235.06,-584.187 1235.87,-591.14"/>
</g>
<!-- Node13&#45;&gt;Node5 -->
<g id="edge17" class="edge"><title>Node13&#45;&gt;Node5</title>
<path fill="none" stroke="midnightblue" d="M747.963,-561.46C770.26,-557.286 796.924,-552.295 821.652,-547.666"/>
<polygon fill="midnightblue" stroke="midnightblue" points="822.561,-551.057 831.746,-545.777 821.273,-544.176 822.561,-551.057"/>
</g>
<!-- Node14&#45;&gt;Node3 -->
<g id="edge19" class="edge"><title>Node14&#45;&gt;Node3</title>
<path fill="none" stroke="midnightblue" d="M734.807,-542.539C757.116,-547.753 785.99,-553.787 812,-557 955.712,-574.752 1124.3,-577.854 1224.13,-577.865"/>
<polygon fill="midnightblue" stroke="midnightblue" points="1224.17,-581.365 1234.17,-577.856 1224.17,-574.365 1224.17,-581.365"/>
</g>
<!-- Node14&#45;&gt;Node5 -->
<g id="edge20" class="edge"><title>Node14&#45;&gt;Node5</title>
<path fill="none" stroke="midnightblue" d="M772.013,-533C788.194,-533 805.34,-533 821.645,-533"/>
<polygon fill="midnightblue" stroke="midnightblue" points="821.673,-536.5 831.672,-533 821.672,-529.5 821.673,-536.5"/>
</g>
<!-- Node16 -->
<g id="node16" class="node"><title>Node16</title>
<g id="a_node16"><a xlink:href="../../d4/d64/classview_1_1_view_updater.html#ab8c47e1d6b8bc5c076184e3e0af5e4b2" target="_top" xlink:title="view.ViewUpdater.setHeading">
<polygon fill="white" stroke="black" points="617.5,-485.5 617.5,-504.5 774.5,-504.5 774.5,-485.5 617.5,-485.5"/>
<text text-anchor="middle" x="696" y="-492.5" font-family="Helvetica,sans-Serif" font-size="10.00">view.ViewUpdater.setHeading</text>
</a>
</g>
</g>
<!-- Node15&#45;&gt;Node16 -->
<g id="edge22" class="edge"><title>Node15&#45;&gt;Node16</title>
<path fill="none" stroke="midnightblue" d="M346.024,-495C417.482,-495 529.342,-495 607.084,-495"/>
<polygon fill="midnightblue" stroke="midnightblue" points="607.342,-498.5 617.342,-495 607.342,-491.5 607.342,-498.5"/>
</g>
<!-- Node16&#45;&gt;Node3 -->
<g id="edge23" class="edge"><title>Node16&#45;&gt;Node3</title>
<path fill="none" stroke="midnightblue" d="M774.725,-494.916C833.952,-495.705 917.404,-498.654 990,-508 1089.61,-520.824 1204.16,-548.68 1265.9,-564.802"/>
<polygon fill="midnightblue" stroke="midnightblue" points="1265.15,-568.223 1275.71,-567.381 1266.93,-561.453 1265.15,-568.223"/>
</g>
<!-- Node16&#45;&gt;Node5 -->
<g id="edge24" class="edge"><title>Node16&#45;&gt;Node5</title>
<path fill="none" stroke="midnightblue" d="M747.963,-504.54C770.26,-508.714 796.924,-513.705 821.652,-518.334"/>
<polygon fill="midnightblue" stroke="midnightblue" points="821.273,-521.824 831.746,-520.223 822.561,-514.943 821.273,-521.824"/>
</g>
<!-- Node17&#45;&gt;Node11 -->
<g id="edge26" class="edge"><title>Node17&#45;&gt;Node11</title>
<path fill="none" stroke="midnightblue" d="M348,-435.981C366.056,-432.161 385.593,-428.028 404.102,-424.113"/>
<polygon fill="midnightblue" stroke="midnightblue" points="404.908,-427.52 413.967,-422.026 403.459,-420.672 404.908,-427.52"/>
</g>
<!-- Node18 -->
<g id="node18" class="node"><title>Node18</title>
<g id="a_node18"><a xlink:href="../../d4/d64/classview_1_1_view_updater.html#adc0790ceed057768bd5a29a470e626d1" target="_top" xlink:title="view.ViewUpdater.updateWorkspace">
<polygon fill="white" stroke="black" points="392.5,-441.5 392.5,-460.5 579.5,-460.5 579.5,-441.5 392.5,-441.5"/>
<text text-anchor="middle" x="486" y="-448.5" font-family="Helvetica,sans-Serif" font-size="10.00">view.ViewUpdater.updateWorkspace</text>
</a>
</g>
</g>
<!-- Node17&#45;&gt;Node18 -->
<g id="edge27" class="edge"><title>Node17&#45;&gt;Node18</title>
<path fill="none" stroke="midnightblue" d="M355.636,-451C364.329,-451 373.274,-451 382.206,-451"/>
<polygon fill="midnightblue" stroke="midnightblue" points="382.273,-454.5 392.273,-451 382.273,-447.5 382.273,-454.5"/>
</g>
<!-- Node18&#45;&gt;Node3 -->
<g id="edge50" class="edge"><title>Node18&#45;&gt;Node3</title>
<path fill="none" stroke="midnightblue" d="M579.644,-445.562C717.876,-440.34 984.696,-441.494 1198,-510 1233.31,-521.34 1269.35,-545.303 1290.95,-561.28"/>
<polygon fill="midnightblue" stroke="midnightblue" points="1288.93,-564.139 1299.02,-567.375 1293.15,-558.554 1288.93,-564.139"/>
</g>
<!-- Node19 -->
<g id="node19" class="node"><title>Node19</title>
<g id="a_node19"><a xlink:href="../../da/d64/classview_1_1_workspace.html#a08f0e92c7d15f9c170e406af39ec54a5" target="_top" xlink:title="view.Workspace.getLines">
<polygon fill="white" stroke="black" points="629,-403.5 629,-422.5 763,-422.5 763,-403.5 629,-403.5"/>
<text text-anchor="middle" x="696" y="-410.5" font-family="Helvetica,sans-Serif" font-size="10.00">view.Workspace.getLines</text>
</a>
</g>
</g>
<!-- Node18&#45;&gt;Node19 -->
<g id="edge28" class="edge"><title>Node18&#45;&gt;Node19</title>
<path fill="none" stroke="midnightblue" d="M539.219,-441.46C567.654,-436.265 603.022,-429.804 632.868,-424.351"/>
<polygon fill="midnightblue" stroke="midnightblue" points="633.552,-427.784 642.76,-422.544 632.294,-420.898 633.552,-427.784"/>
</g>
<!-- Node20 -->
<g id="node20" class="node"><title>Node20</title>
<g id="a_node20"><a xlink:href="../../de/d0a/classview_1_1_drawer.html#a6b9f362b8bc763689630b1fe7b5c1887" target="_top" xlink:title="view.Drawer.draw">
<polygon fill="white" stroke="black" points="647,-251.5 647,-270.5 745,-270.5 745,-251.5 647,-251.5"/>
<text text-anchor="middle" x="696" y="-258.5" font-family="Helvetica,sans-Serif" font-size="10.00">view.Drawer.draw</text>
</a>
</g>
</g>
<!-- Node18&#45;&gt;Node20 -->
<g id="edge29" class="edge"><title>Node18&#45;&gt;Node20</title>
<path fill="none" stroke="midnightblue" d="M558.884,-441.461C566.362,-438.767 573.567,-435.344 580,-431 609.401,-411.146 662.642,-319.324 684.847,-279.505"/>
<polygon fill="midnightblue" stroke="midnightblue" points="688.008,-281.021 689.79,-270.577 681.884,-277.63 688.008,-281.021"/>
</g>
<!-- Node20&#45;&gt;Node5 -->
<g id="edge49" class="edge"><title>Node20&#45;&gt;Node5</title>
<path fill="none" stroke="midnightblue" d="M702.836,-270.554C719.097,-296.972 766.706,-372.957 812,-432 833.494,-460.019 860.45,-490.333 878.827,-510.362"/>
<polygon fill="midnightblue" stroke="midnightblue" points="876.304,-512.789 885.658,-517.765 881.449,-508.042 876.304,-512.789"/>
</g>
<!-- Node21 -->
<g id="node21" class="node"><title>Node21</title>
<g id="a_node21"><a xlink:href="../../d6/d06/classmodel_1_1_turtle_command.html#ab30f5c95162492cb8fd19f1fd7350f9f" target="_top" xlink:title="model.TurtleCommand.getTurtleId">
<polygon fill="white" stroke="black" points="812,-76.5 812,-95.5 990,-95.5 990,-76.5 812,-76.5"/>
<text text-anchor="middle" x="901" y="-83.5" font-family="Helvetica,sans-Serif" font-size="10.00">model.TurtleCommand.getTurtleId</text>
</a>
</g>
</g>
<!-- Node20&#45;&gt;Node21 -->
<g id="edge30" class="edge"><title>Node20&#45;&gt;Node21</title>
<path fill="none" stroke="midnightblue" d="M701.058,-251.416C713.293,-223.765 752.669,-143.373 812,-105 815.137,-102.971 818.456,-101.155 821.895,-99.5301"/>
<polygon fill="midnightblue" stroke="midnightblue" points="823.338,-102.721 831.238,-95.6606 820.659,-96.2538 823.338,-102.721"/>
</g>
<!-- Node22 -->
<g id="node22" class="node"><title>Node22</title>
<g id="a_node22"><a xlink:href="../../d6/d06/classmodel_1_1_turtle_command.html#ab94da8b47588273eb8db943096f12422" target="_top" xlink:title="model.TurtleCommand.getPolar">
<polygon fill="white" stroke="black" points="817,-38.5 817,-57.5 985,-57.5 985,-38.5 817,-38.5"/>
<text text-anchor="middle" x="901" y="-45.5" font-family="Helvetica,sans-Serif" font-size="10.00">model.TurtleCommand.getPolar</text>
</a>
</g>
</g>
<!-- Node20&#45;&gt;Node22 -->
<g id="edge31" class="edge"><title>Node20&#45;&gt;Node22</title>
<path fill="none" stroke="midnightblue" d="M699.648,-251.451C709.006,-219.594 743.692,-116.197 812,-67 814.663,-65.0818 817.482,-63.3504 820.412,-61.7881"/>
<polygon fill="midnightblue" stroke="midnightblue" points="821.886,-64.9628 829.496,-57.5909 818.95,-58.6084 821.886,-64.9628"/>
</g>
<!-- Node23 -->
<g id="node23" class="node"><title>Node23</title>
<g id="a_node23"><a xlink:href="../../d1/d0b/classmodel_1_1_polar.html#a8abcb5640caf12d2941533a6e1c04faa" target="_top" xlink:title="model.Polar.getDistance">
<polygon fill="white" stroke="black" points="834,-0.5 834,-19.5 968,-19.5 968,-0.5 834,-0.5"/>
<text text-anchor="middle" x="901" y="-7.5" font-family="Helvetica,sans-Serif" font-size="10.00">model.Polar.getDistance</text>
</a>
</g>
</g>
<!-- Node20&#45;&gt;Node23 -->
<g id="edge32" class="edge"><title>Node20&#45;&gt;Node23</title>
<path fill="none" stroke="midnightblue" d="M698.738,-251.162C705.652,-215.112 734.678,-89.2117 812,-29 815.807,-26.0351 819.977,-23.509 824.365,-21.359"/>
<polygon fill="midnightblue" stroke="midnightblue" points="825.777,-24.5619 833.634,-17.4538 823.059,-18.111 825.777,-24.5619"/>
</g>
<!-- Node24 -->
<g id="node24" class="node"><title>Node24</title>
<g id="a_node24"><a xlink:href="../../d1/d0b/classmodel_1_1_polar.html#adbd9afb75cf519b2dd9f1331e406b8c2" target="_top" xlink:title="model.Polar.getAngle">
<polygon fill="white" stroke="black" points="841.5,-403.5 841.5,-422.5 960.5,-422.5 960.5,-403.5 841.5,-403.5"/>
<text text-anchor="middle" x="901" y="-410.5" font-family="Helvetica,sans-Serif" font-size="10.00">model.Polar.getAngle</text>
</a>
</g>
</g>
<!-- Node20&#45;&gt;Node24 -->
<g id="edge33" class="edge"><title>Node20&#45;&gt;Node24</title>
<path fill="none" stroke="midnightblue" d="M702.886,-270.739C717.9,-294.724 760.126,-357.014 812,-389 819.443,-393.59 827.769,-397.316 836.252,-400.338"/>
<polygon fill="midnightblue" stroke="midnightblue" points="835.264,-403.697 845.856,-403.459 837.427,-397.039 835.264,-403.697"/>
</g>
<!-- Node25 -->
<g id="node25" class="node"><title>Node25</title>
<g id="a_node25"><a xlink:href="../../de/d0a/classview_1_1_drawer.html#ad1636376006d26ed1ca9784e13f96a2a" target="_top" xlink:title="view.Drawer.wrapY">
<polygon fill="white" stroke="black" points="849.5,-327.5 849.5,-346.5 952.5,-346.5 952.5,-327.5 849.5,-327.5"/>
<text text-anchor="middle" x="901" y="-334.5" font-family="Helvetica,sans-Serif" font-size="10.00">view.Drawer.wrapY</text>
</a>
</g>
</g>
<!-- Node20&#45;&gt;Node25 -->
<g id="edge34" class="edge"><title>Node20&#45;&gt;Node25</title>
<path fill="none" stroke="midnightblue" d="M713.198,-270.642C734.967,-283.218 775.19,-305.128 812,-318 820.668,-321.031 829.992,-323.672 839.215,-325.941"/>
<polygon fill="midnightblue" stroke="midnightblue" points="838.613,-329.395 849.146,-328.259 840.204,-322.578 838.613,-329.395"/>
</g>
<!-- Node26 -->
<g id="node26" class="node"><title>Node26</title>
<g id="a_node26"><a xlink:href="../../d8/df7/classview_1_1_turtle_view.html#a5e7cf3c4f078acae07bcbeee264a5581" target="_top" xlink:title="view.TurtleView.move">
<polygon fill="white" stroke="black" points="1054,-346.5 1054,-365.5 1170,-365.5 1170,-346.5 1054,-346.5"/>
<text text-anchor="middle" x="1112" y="-353.5" font-family="Helvetica,sans-Serif" font-size="10.00">view.TurtleView.move</text>
</a>
</g>
</g>
<!-- Node20&#45;&gt;Node26 -->
<g id="edge42" class="edge"><title>Node20&#45;&gt;Node26</title>
<path fill="none" stroke="midnightblue" d="M704.604,-270.748C721.343,-291.308 763.75,-338.648 812,-356 892.165,-384.829 992.427,-376.695 1054.07,-367.142"/>
<polygon fill="midnightblue" stroke="midnightblue" points="1054.69,-370.589 1064,-365.54 1053.57,-363.678 1054.69,-370.589"/>
</g>
<!-- Node27 -->
<g id="node27" class="node"><title>Node27</title>
<g id="a_node27"><a xlink:href="../../d8/df7/classview_1_1_turtle_view.html#a68c8a2962e23e5794fcfbe7ef1968fad" target="_top" xlink:title="view.TurtleView.getPenUp">
<polygon fill="white" stroke="black" points="1044,-270.5 1044,-289.5 1180,-289.5 1180,-270.5 1044,-270.5"/>
<text text-anchor="middle" x="1112" y="-277.5" font-family="Helvetica,sans-Serif" font-size="10.00">view.TurtleView.getPenUp</text>
</a>
</g>
</g>
<!-- Node20&#45;&gt;Node27 -->
<g id="edge43" class="edge"><title>Node20&#45;&gt;Node27</title>
<path fill="none" stroke="midnightblue" d="M745.301,-263.217C816.22,-266.471 949.246,-272.577 1033.81,-276.458"/>
<polygon fill="midnightblue" stroke="midnightblue" points="1033.73,-279.957 1043.88,-276.919 1034.05,-272.965 1033.73,-279.957"/>
</g>
<!-- Node29 -->
<g id="node29" class="node"><title>Node29</title>
<g id="a_node29"><a xlink:href="../../de/d0a/classview_1_1_drawer.html#a24eafc164d9d0ab08036dc5cf7d72dd4" target="_top" xlink:title="view.Drawer.wrapX">
<polygon fill="white" stroke="black" points="849,-289.5 849,-308.5 953,-308.5 953,-289.5 849,-289.5"/>
<text text-anchor="middle" x="901" y="-296.5" font-family="Helvetica,sans-Serif" font-size="10.00">view.Drawer.wrapX</text>
</a>
</g>
</g>
<!-- Node20&#45;&gt;Node29 -->
<g id="edge38" class="edge"><title>Node20&#45;&gt;Node29</title>
<path fill="none" stroke="midnightblue" d="M745.108,-270.005C773.233,-275.27 809.005,-281.966 839.084,-287.597"/>
<polygon fill="midnightblue" stroke="midnightblue" points="838.573,-291.062 849.047,-289.462 839.862,-284.182 838.573,-291.062"/>
</g>
<!-- Node30 -->
<g id="node30" class="node"><title>Node30</title>
<g id="a_node30"><a xlink:href="../../d6/d06/classmodel_1_1_turtle_command.html#abb952ce819f91c0f5970c2f2b1c43d73" target="_top" xlink:title="model.TurtleCommand.isRelative">
<polygon fill="white" stroke="black" points="814.5,-213.5 814.5,-232.5 987.5,-232.5 987.5,-213.5 814.5,-213.5"/>
<text text-anchor="middle" x="901" y="-220.5" font-family="Helvetica,sans-Serif" font-size="10.00">model.TurtleCommand.isRelative</text>
</a>
</g>
</g>
<!-- Node20&#45;&gt;Node30 -->
<g id="edge44" class="edge"><title>Node20&#45;&gt;Node30</title>
<path fill="none" stroke="midnightblue" d="M745.108,-251.995C773.233,-246.73 809.005,-240.034 839.084,-234.403"/>
<polygon fill="midnightblue" stroke="midnightblue" points="839.862,-237.818 849.047,-232.538 838.573,-230.938 839.862,-237.818"/>
</g>
<!-- Node31 -->
<g id="node31" class="node"><title>Node31</title>
<g id="a_node31"><a xlink:href="../../d8/df7/classview_1_1_turtle_view.html#a199407b3121d1bc310d7f75cdab2da94" target="_top" xlink:title="view.TurtleView.setRelative\lHeading">
<polygon fill="white" stroke="black" points="831,-164 831,-194 971,-194 971,-164 831,-164"/>
<text text-anchor="start" x="839" y="-182" font-family="Helvetica,sans-Serif" font-size="10.00">view.TurtleView.setRelative</text>
<text text-anchor="middle" x="901" y="-171" font-family="Helvetica,sans-Serif" font-size="10.00">Heading</text>
</a>
</g>
</g>
<!-- Node20&#45;&gt;Node31 -->
<g id="edge45" class="edge"><title>Node20&#45;&gt;Node31</title>
<path fill="none" stroke="midnightblue" d="M714.086,-251.289C736.162,-239.035 776.038,-217.886 812,-204 818.271,-201.578 824.875,-199.274 831.529,-197.115"/>
<polygon fill="midnightblue" stroke="midnightblue" points="832.786,-200.389 841.281,-194.058 830.692,-193.709 832.786,-200.389"/>
</g>
<!-- Node33 -->
<g id="node33" class="node"><title>Node33</title>
<g id="a_node33"><a xlink:href="../../d8/df7/classview_1_1_turtle_view.html#a166c0ff50e234c0a2725aa1cbc38c933" target="_top" xlink:title="view.TurtleView.setAbsolute\lHeading">
<polygon fill="white" stroke="black" points="828,-115 828,-145 974,-145 974,-115 828,-115"/>
<text text-anchor="start" x="836" y="-133" font-family="Helvetica,sans-Serif" font-size="10.00">view.TurtleView.setAbsolute</text>
<text text-anchor="middle" x="901" y="-122" font-family="Helvetica,sans-Serif" font-size="10.00">Heading</text>
</a>
</g>
</g>
<!-- Node20&#45;&gt;Node33 -->
<g id="edge47" class="edge"><title>Node20&#45;&gt;Node33</title>
<path fill="none" stroke="midnightblue" d="M704.512,-251.373C721.393,-230.408 764.579,-180.389 812,-154 815.235,-152.2 818.612,-150.529 822.079,-148.977"/>
<polygon fill="midnightblue" stroke="midnightblue" points="823.505,-152.176 831.431,-145.146 820.851,-145.698 823.505,-152.176"/>
</g>
<!-- Node25&#45;&gt;Node26 -->
<g id="edge35" class="edge"><title>Node25&#45;&gt;Node26</title>
<path fill="none" stroke="midnightblue" d="M952.593,-341.599C979.934,-344.085 1014.05,-347.187 1043.62,-349.874"/>
<polygon fill="midnightblue" stroke="midnightblue" points="1043.59,-353.386 1053.87,-350.806 1044.23,-346.415 1043.59,-353.386"/>
</g>
<!-- Node25&#45;&gt;Node27 -->
<g id="edge36" class="edge"><title>Node25&#45;&gt;Node27</title>
<path fill="none" stroke="midnightblue" d="M952.929,-328.472C965.251,-325.737 978.251,-322.277 990,-318 1007,-311.811 1009.02,-305.251 1026,-299 1033.18,-296.355 1040.85,-294.013 1048.53,-291.958"/>
<polygon fill="midnightblue" stroke="midnightblue" points="1049.39,-295.351 1058.22,-289.507 1047.67,-288.565 1049.39,-295.351"/>
</g>
<!-- Node28 -->
<g id="node28" class="node"><title>Node28</title>
<g id="a_node28"><a xlink:href="../../de/d0a/classview_1_1_drawer.html#a1489f58b0b2c2012d23d546013a47972" target="_top" xlink:title="view.Drawer.drawLine">
<polygon fill="white" stroke="black" points="1053.5,-308.5 1053.5,-327.5 1170.5,-327.5 1170.5,-308.5 1053.5,-308.5"/>
<text text-anchor="middle" x="1112" y="-315.5" font-family="Helvetica,sans-Serif" font-size="10.00">view.Drawer.drawLine</text>
</a>
</g>
</g>
<!-- Node25&#45;&gt;Node28 -->
<g id="edge37" class="edge"><title>Node25&#45;&gt;Node28</title>
<path fill="none" stroke="midnightblue" d="M952.593,-332.401C979.826,-329.925 1013.79,-326.838 1043.27,-324.157"/>
<polygon fill="midnightblue" stroke="midnightblue" points="1043.85,-327.619 1053.49,-323.228 1043.22,-320.648 1043.85,-327.619"/>
</g>
<!-- Node29&#45;&gt;Node26 -->
<g id="edge39" class="edge"><title>Node29&#45;&gt;Node26</title>
<path fill="none" stroke="midnightblue" d="M953.392,-307.631C965.575,-310.35 978.397,-313.776 990,-318 1007,-324.189 1009.02,-330.749 1026,-337 1033.18,-339.645 1040.85,-341.987 1048.53,-344.042"/>
<polygon fill="midnightblue" stroke="midnightblue" points="1047.67,-347.435 1058.22,-346.493 1049.39,-340.649 1047.67,-347.435"/>
</g>
<!-- Node29&#45;&gt;Node27 -->
<g id="edge40" class="edge"><title>Node29&#45;&gt;Node27</title>
<path fill="none" stroke="midnightblue" d="M953.127,-294.352C977.345,-292.15 1006.79,-289.474 1033.66,-287.031"/>
<polygon fill="midnightblue" stroke="midnightblue" points="1034.18,-290.499 1043.82,-286.108 1033.54,-283.527 1034.18,-290.499"/>
</g>
<!-- Node29&#45;&gt;Node28 -->
<g id="edge41" class="edge"><title>Node29&#45;&gt;Node28</title>
<path fill="none" stroke="midnightblue" d="M953.127,-303.648C980.261,-306.115 1013.96,-309.178 1043.24,-311.84"/>
<polygon fill="midnightblue" stroke="midnightblue" points="1043.12,-315.344 1053.4,-312.763 1043.76,-308.372 1043.12,-315.344"/>
</g>
<!-- Node32 -->
<g id="node32" class="node"><title>Node32</title>
<g id="a_node32"><a xlink:href="../../d8/df7/classview_1_1_turtle_view.html#aea0727a510b53db67aa4100a6106eb5b" target="_top" xlink:title="view.TurtleView.adjustAngle">
<polygon fill="white" stroke="black" points="1039.5,-145.5 1039.5,-164.5 1184.5,-164.5 1184.5,-145.5 1039.5,-145.5"/>
<text text-anchor="middle" x="1112" y="-152.5" font-family="Helvetica,sans-Serif" font-size="10.00">view.TurtleView.adjustAngle</text>
</a>
</g>
</g>
<!-- Node31&#45;&gt;Node32 -->
<g id="edge46" class="edge"><title>Node31&#45;&gt;Node32</title>
<path fill="none" stroke="midnightblue" d="M971.014,-171.075C989.644,-168.936 1009.98,-166.6 1029.24,-164.389"/>
<polygon fill="midnightblue" stroke="midnightblue" points="1029.66,-167.864 1039.19,-163.246 1028.86,-160.91 1029.66,-167.864"/>
</g>
<!-- Node33&#45;&gt;Node32 -->
<g id="edge48" class="edge"><title>Node33&#45;&gt;Node32</title>
<path fill="none" stroke="midnightblue" d="M974.219,-138.639C992.039,-140.77 1011.25,-143.068 1029.48,-145.248"/>
<polygon fill="midnightblue" stroke="midnightblue" points="1029.14,-148.733 1039.49,-146.446 1029.97,-141.783 1029.14,-148.733"/>
</g>
</g>
</svg>
