<?xml version="1.0" encoding="UTF-8" standalone="no"?>
<!DOCTYPE svg PUBLIC "-//W3C//DTD SVG 1.1//EN"
 "http://www.w3.org/Graphics/SVG/1.1/DTD/svg11.dtd">
<!-- Generated by graphviz version 2.36.0 (20140111.2315)
 -->
<!-- Title: model.instructions.MovementInstruction.execute Pages: 1 -->
<!--zoomable 747 -->
<svg id="main" version="1.1" xmlns="http://www.w3.org/2000/svg" xmlns:xlink="http://www.w3.org/1999/xlink" xml:space="preserve" onload="init(evt)">
<style type="text/css"><![CDATA[
.edge:hover path { stroke: red; }
.edge:hover polygon { stroke: red; fill: red; }
]]></style>
<script type="text/javascript"><![CDATA[
var edges = document.getElementsByTagName('g');
if (edges && edges.length) {
  for (var i=0;i<edges.length;i++) {
    if (edges[i].id.substr(0,4)=='edge') {
      edges[i].setAttribute('class','edge');
    }
  }
}
]]></script>
        <defs>
                <circle id="rim" cx="0" cy="0" r="7"/>
                <circle id="rim2" cx="0" cy="0" r="3.5"/>
                <g id="zoomPlus">
                        <use xlink:href="#rim" fill="#404040">
                                <set attributeName="fill" to="#808080" begin="zoomplus.mouseover" end="zoomplus.mouseout"/>
                        </use>
                        <path d="M-4,0h8M0,-4v8" fill="none" stroke="white" stroke-width="1.5" pointer-events="none"/>
                </g>
                <g id="zoomMin">
                        <use xlink:href="#rim" fill="#404040">
                                <set attributeName="fill" to="#808080" begin="zoomminus.mouseover" end="zoomminus.mouseout"/>
                        </use>
                        <path d="M-4,0h8" fill="none" stroke="white" stroke-width="1.5" pointer-events="none"/>
                </g>
                <g id="dirArrow">
                        <path fill="none" stroke="white" stroke-width="1.5" d="M0,-3.0v7 M-2.5,-0.5L0,-3.0L2.5,-0.5"/>
                </g>
               <g id="resetDef">
                       <use xlink:href="#rim2" fill="#404040">
                               <set attributeName="fill" to="#808080" begin="reset.mouseover" end="reset.mouseout"/>
                       </use>
               </g>
        </defs>

<script type="text/javascript">
var viewWidth = 1194;
var viewHeight = 747;
var sectionId = 'dynsection-2';
</script>
<script xlink:href="../../svgpan.js"/>
<svg id="graph" class="graph">
<g id="viewport">
<title>model.instructions.MovementInstruction.execute</title>
<polygon fill="white" stroke="none" points="-4,4 -4,-743 1190,-743 1190,4 -4,4"/>
<!-- Node1 -->
<g id="node1" class="node"><title>Node1</title>
<polygon fill="#bfbfbf" stroke="black" points="0.5,-562 0.5,-592 159.5,-592 159.5,-562 0.5,-562"/>
<text text-anchor="start" x="8.5" y="-580" font-family="Helvetica,sans-Serif" font-size="10.00">model.instructions.Movement</text>
<text text-anchor="middle" x="80" y="-569" font-family="Helvetica,sans-Serif" font-size="10.00">Instruction.execute</text>
</g>
<!-- Node2 -->
<g id="node2" class="node"><title>Node2</title>
<g id="a_node2"><a xlink:href="../../d4/d64/classview_1_1_view_updater.html#ace7ce28317856b4b454a798d1af23b38" target="_top" xlink:title="view.ViewUpdater.clearScreen">
<polygon fill="white" stroke="black" points="616.5,-681.5 616.5,-700.5 775.5,-700.5 775.5,-681.5 616.5,-681.5"/>
<text text-anchor="middle" x="696" y="-688.5" font-family="Helvetica,sans-Serif" font-size="10.00">view.ViewUpdater.clearScreen</text>
</a>
</g>
</g>
<!-- Node1&#45;&gt;Node2 -->
<g id="edge1" class="edge"><title>Node1&#45;&gt;Node2</title>
<path fill="none" stroke="midnightblue" d="M103.686,-592.108C126.124,-606.242 161.95,-626.678 196,-637 335.072,-679.159 504.718,-689.306 606.082,-691.258"/>
<polygon fill="midnightblue" stroke="midnightblue" points="606.222,-694.76 616.28,-691.431 606.34,-687.761 606.222,-694.76"/>
</g>
<!-- Node11 -->
<g id="node11" class="node"><title>Node11</title>
<g id="a_node11"><a xlink:href="../../d1/dca/classmodel_1_1_execution_environment.html#a429a18123e450d0e124af2ccf2274b06" target="_top" xlink:title="model.ExecutionEnvironment.get\lActiveTurtle">
<polygon fill="white" stroke="black" points="398,-436 398,-466 574,-466 574,-436 398,-436"/>
<text text-anchor="start" x="406" y="-454" font-family="Helvetica,sans-Serif" font-size="10.00">model.ExecutionEnvironment.get</text>
<text text-anchor="middle" x="486" y="-443" font-family="Helvetica,sans-Serif" font-size="10.00">ActiveTurtle</text>
</a>
</g>
</g>
<!-- Node1&#45;&gt;Node11 -->
<g id="edge11" class="edge"><title>Node1&#45;&gt;Node11</title>
<path fill="none" stroke="midnightblue" d="M91.647,-561.884C109.824,-537.478 149.43,-490.103 196,-470 255.989,-444.104 329.542,-439.602 387.431,-441.448"/>
<polygon fill="midnightblue" stroke="midnightblue" points="387.555,-444.955 397.683,-441.845 387.826,-437.96 387.555,-444.955"/>
</g>
<!-- Node12 -->
<g id="node12" class="node"><title>Node12</title>
<g id="a_node12"><a xlink:href="../../d4/d64/classview_1_1_view_updater.html#ad79c00c54aabbeca7b8a0461fea36c29" target="_top" xlink:title="view.ViewUpdater.setPenUp">
<polygon fill="white" stroke="black" points="621.5,-643.5 621.5,-662.5 770.5,-662.5 770.5,-643.5 621.5,-643.5"/>
<text text-anchor="middle" x="696" y="-650.5" font-family="Helvetica,sans-Serif" font-size="10.00">view.ViewUpdater.setPenUp</text>
</a>
</g>
</g>
<!-- Node1&#45;&gt;Node12 -->
<g id="edge12" class="edge"><title>Node1&#45;&gt;Node12</title>
<path fill="none" stroke="midnightblue" d="M124.176,-592.034C145.536,-598.886 171.855,-606.464 196,-611 340.355,-638.122 511.508,-647.738 611.216,-651.142"/>
<polygon fill="midnightblue" stroke="midnightblue" points="611.123,-654.64 621.233,-651.471 611.353,-647.644 611.123,-654.64"/>
</g>
<!-- Node13 -->
<g id="node13" class="node"><title>Node13</title>
<g id="a_node13"><a xlink:href="../../d4/d64/classview_1_1_view_updater.html#a497cc83cdcb6fdb430bdb78431c5cd20" target="_top" xlink:title="view.ViewUpdater.setXY">
<polygon fill="white" stroke="black" points="632,-605.5 632,-624.5 760,-624.5 760,-605.5 632,-605.5"/>
<text text-anchor="middle" x="696" y="-612.5" font-family="Helvetica,sans-Serif" font-size="10.00">view.ViewUpdater.setXY</text>
</a>
</g>
</g>
<!-- Node1&#45;&gt;Node13 -->
<g id="edge15" class="edge"><title>Node1&#45;&gt;Node13</title>
<path fill="none" stroke="midnightblue" d="M159.795,-587.366C171.905,-588.735 184.276,-590.006 196,-591 347.077,-603.812 524.51,-610.317 621.855,-613.155"/>
<polygon fill="midnightblue" stroke="midnightblue" points="621.788,-616.655 631.885,-613.443 621.989,-609.658 621.788,-616.655"/>
</g>
<!-- Node14 -->
<g id="node14" class="node"><title>Node14</title>
<g id="a_node14"><a xlink:href="../../d4/d64/classview_1_1_view_updater.html#a9797c2f411ad272a0feb84c26836bfd4" target="_top" xlink:title="view.ViewUpdater.showTurtle">
<polygon fill="white" stroke="black" points="620,-567.5 620,-586.5 772,-586.5 772,-567.5 620,-567.5"/>
<text text-anchor="middle" x="696" y="-574.5" font-family="Helvetica,sans-Serif" font-size="10.00">view.ViewUpdater.showTurtle</text>
</a>
</g>
</g>
<!-- Node1&#45;&gt;Node14 -->
<g id="edge18" class="edge"><title>Node1&#45;&gt;Node14</title>
<path fill="none" stroke="midnightblue" d="M159.7,-577C275.252,-577 490.008,-577 609.381,-577"/>
<polygon fill="midnightblue" stroke="midnightblue" points="609.571,-580.5 619.571,-577 609.571,-573.5 609.571,-580.5"/>
</g>
<!-- Node15 -->
<g id="node15" class="node"><title>Node15</title>
<g id="a_node15"><a xlink:href="../../d4/d64/classview_1_1_view_updater.html#ad29dfbb2499161b985c26e01f73ea5ac" target="_top" xlink:title="view.ViewUpdater.towards">
<polygon fill="white" stroke="black" points="206,-529.5 206,-548.5 346,-548.5 346,-529.5 206,-529.5"/>
<text text-anchor="middle" x="276" y="-536.5" font-family="Helvetica,sans-Serif" font-size="10.00">view.ViewUpdater.towards</text>
</a>
</g>
</g>
<!-- Node1&#45;&gt;Node15 -->
<g id="edge21" class="edge"><title>Node1&#45;&gt;Node15</title>
<path fill="none" stroke="midnightblue" d="M157.674,-561.981C177.244,-558.148 197.97,-554.088 216.469,-550.465"/>
<polygon fill="midnightblue" stroke="midnightblue" points="217.355,-553.858 226.495,-548.501 216.009,-546.989 217.355,-553.858"/>
</g>
<!-- Node17 -->
<g id="node17" class="node"><title>Node17</title>
<g id="a_node17"><a xlink:href="../../d1/dd3/classmodel_1_1instructions_1_1_movement_instruction.html#a51c776093aeb820937b12e2b89eb2f89" target="_top" xlink:title="model.instructions.Movement\lInstruction.updateView">
<polygon fill="white" stroke="black" points="196.5,-480 196.5,-510 355.5,-510 355.5,-480 196.5,-480"/>
<text text-anchor="start" x="204.5" y="-498" font-family="Helvetica,sans-Serif" font-size="10.00">model.instructions.Movement</text>
<text text-anchor="middle" x="276" y="-487" font-family="Helvetica,sans-Serif" font-size="10.00">Instruction.updateView</text>
</a>
</g>
</g>
<!-- Node1&#45;&gt;Node17 -->
<g id="edge25" class="edge"><title>Node1&#45;&gt;Node17</title>
<path fill="none" stroke="midnightblue" d="M108.338,-561.959C131.302,-549.69 165.208,-532.418 196,-520 201.779,-517.67 207.863,-515.412 213.985,-513.27"/>
<polygon fill="midnightblue" stroke="midnightblue" points="215.254,-516.535 223.597,-510.004 213.002,-509.907 215.254,-516.535"/>
</g>
<!-- Node3 -->
<g id="node3" class="node"><title>Node3</title>
<g id="a_node3"><a xlink:href="../../da/d64/classview_1_1_workspace.html#ad460da1164f039e5ea9a265d446d13fe" target="_top" xlink:title="view.Workspace.getTurtleMap">
<polygon fill="white" stroke="black" points="1028.5,-567.5 1028.5,-586.5 1183.5,-586.5 1183.5,-567.5 1028.5,-567.5"/>
<text text-anchor="middle" x="1106" y="-574.5" font-family="Helvetica,sans-Serif" font-size="10.00">view.Workspace.getTurtleMap</text>
</a>
</g>
</g>
<!-- Node2&#45;&gt;Node3 -->
<g id="edge2" class="edge"><title>Node2&#45;&gt;Node3</title>
<path fill="none" stroke="midnightblue" d="M775.658,-685.326C835.739,-679.223 919.865,-666.816 990,-642 1024.58,-629.763 1060.85,-607.441 1083.19,-592.414"/>
<polygon fill="midnightblue" stroke="midnightblue" points="1085.32,-595.2 1091.59,-586.664 1081.36,-589.424 1085.32,-595.2"/>
</g>
<!-- Node4 -->
<g id="node4" class="node"><title>Node4</title>
<g id="a_node4"><a xlink:href="../../da/d64/classview_1_1_workspace.html#af056d219d5078e688731c51fb6da7c7e" target="_top" xlink:title="view.Workspace.clearLines">
<polygon fill="white" stroke="black" points="830.5,-719.5 830.5,-738.5 971.5,-738.5 971.5,-719.5 830.5,-719.5"/>
<text text-anchor="middle" x="901" y="-726.5" font-family="Helvetica,sans-Serif" font-size="10.00">view.Workspace.clearLines</text>
</a>
</g>
</g>
<!-- Node2&#45;&gt;Node4 -->
<g id="edge3" class="edge"><title>Node2&#45;&gt;Node4</title>
<path fill="none" stroke="midnightblue" d="M747.963,-700.54C775.594,-705.712 809.933,-712.14 838.981,-717.578"/>
<polygon fill="midnightblue" stroke="midnightblue" points="838.542,-721.056 849.016,-719.456 839.83,-714.176 838.542,-721.056"/>
</g>
<!-- Node5 -->
<g id="node5" class="node"><title>Node5</title>
<g id="a_node5"><a xlink:href="../../d1/dc7/classview_1_1_side_bar.html#a7d73038dbba05f96990b60664afa2670" target="_top" xlink:title="view.SideBar.updateTurtle\lProperties">
<polygon fill="white" stroke="black" points="832,-442 832,-472 970,-472 970,-442 832,-442"/>
<text text-anchor="start" x="840" y="-460" font-family="Helvetica,sans-Serif" font-size="10.00">view.SideBar.updateTurtle</text>
<text text-anchor="middle" x="901" y="-449" font-family="Helvetica,sans-Serif" font-size="10.00">Properties</text>
</a>
</g>
</g>
<!-- Node2&#45;&gt;Node5 -->
<g id="edge4" class="edge"><title>Node2&#45;&gt;Node5</title>
<path fill="none" stroke="midnightblue" d="M758.772,-681.462C764.922,-678.987 770.802,-675.885 776,-672 842.122,-622.58 878.723,-526.721 892.956,-481.605"/>
<polygon fill="midnightblue" stroke="midnightblue" points="896.307,-482.618 895.879,-472.032 889.612,-480.574 896.307,-482.618"/>
</g>
<!-- Node5&#45;&gt;Node3 -->
<g id="edge5" class="edge"><title>Node5&#45;&gt;Node3</title>
<path fill="none" stroke="midnightblue" d="M965.157,-472.097C974.085,-476 982.696,-480.888 990,-487 1015.33,-508.193 1000.44,-531.088 1026,-552 1031.74,-556.697 1038.37,-560.516 1045.31,-563.621"/>
<polygon fill="midnightblue" stroke="midnightblue" points="1044.31,-566.989 1054.89,-567.426 1046.89,-560.483 1044.31,-566.989"/>
</g>
<!-- Node6 -->
<g id="node6" class="node"><title>Node6</title>
<g id="a_node6"><a xlink:href="../../d8/df7/classview_1_1_turtle_view.html#ab5fdc3775e06339f4a68d1b795a81643" target="_top" xlink:title="view.TurtleView.getID">
<polygon fill="white" stroke="black" points="1049,-409.5 1049,-428.5 1163,-428.5 1163,-409.5 1049,-409.5"/>
<text text-anchor="middle" x="1106" y="-416.5" font-family="Helvetica,sans-Serif" font-size="10.00">view.TurtleView.getID</text>
</a>
</g>
</g>
<!-- Node5&#45;&gt;Node6 -->
<g id="edge6" class="edge"><title>Node5&#45;&gt;Node6</title>
<path fill="none" stroke="midnightblue" d="M970.161,-444.241C994.041,-439.771 1020.69,-434.782 1043.95,-430.428"/>
<polygon fill="midnightblue" stroke="midnightblue" points="1044.85,-433.821 1054.03,-428.54 1043.56,-426.94 1044.85,-433.821"/>
</g>
<!-- Node7 -->
<g id="node7" class="node"><title>Node7</title>
<g id="a_node7"><a xlink:href="../../d8/df7/classview_1_1_turtle_view.html#afddbc74313a99bb100c8c50efa88f330" target="_top" xlink:title="view.TurtleView.getYCoord">
<polygon fill="white" stroke="black" points="1037.5,-371.5 1037.5,-390.5 1174.5,-390.5 1174.5,-371.5 1037.5,-371.5"/>
<text text-anchor="middle" x="1106" y="-378.5" font-family="Helvetica,sans-Serif" font-size="10.00">view.TurtleView.getYCoord</text>
</a>
</g>
</g>
<!-- Node5&#45;&gt;Node7 -->
<g id="edge7" class="edge"><title>Node5&#45;&gt;Node7</title>
<path fill="none" stroke="midnightblue" d="M967.715,-441.908C975.438,-439.1 983.038,-435.819 990,-432 1008.77,-421.705 1007.03,-409.911 1026,-400 1030.5,-397.652 1035.29,-395.589 1040.2,-393.777"/>
<polygon fill="midnightblue" stroke="midnightblue" points="1041.38,-397.074 1049.76,-390.592 1039.17,-390.432 1041.38,-397.074"/>
</g>
<!-- Node8 -->
<g id="node8" class="node"><title>Node8</title>
<g id="a_node8"><a xlink:href="../../d8/df7/classview_1_1_turtle_view.html#a5da3d4c9dafb77af0db0c589a72eadc8" target="_top" xlink:title="view.TurtleView.getHeading">
<polygon fill="white" stroke="black" points="1034,-523.5 1034,-542.5 1178,-542.5 1178,-523.5 1034,-523.5"/>
<text text-anchor="middle" x="1106" y="-530.5" font-family="Helvetica,sans-Serif" font-size="10.00">view.TurtleView.getHeading</text>
</a>
</g>
</g>
<!-- Node5&#45;&gt;Node8 -->
<g id="edge8" class="edge"><title>Node5&#45;&gt;Node8</title>
<path fill="none" stroke="midnightblue" d="M955.25,-472.139C966.991,-476.298 979.153,-481.27 990,-487 1007.68,-496.342 1007.9,-505.486 1026,-514 1031.23,-516.462 1036.82,-518.623 1042.5,-520.516"/>
<polygon fill="midnightblue" stroke="midnightblue" points="1041.54,-523.882 1052.13,-523.455 1043.59,-517.187 1041.54,-523.882"/>
</g>
<!-- Node9 -->
<g id="node9" class="node"><title>Node9</title>
<g id="a_node9"><a xlink:href="../../d8/df7/classview_1_1_turtle_view.html#a85b9acc922cc69f27c79bf13e3356e09" target="_top" xlink:title="view.TurtleView.getPenPosition">
<polygon fill="white" stroke="black" points="1026,-485.5 1026,-504.5 1186,-504.5 1186,-485.5 1026,-485.5"/>
<text text-anchor="middle" x="1106" y="-492.5" font-family="Helvetica,sans-Serif" font-size="10.00">view.TurtleView.getPenPosition</text>
</a>
</g>
</g>
<!-- Node5&#45;&gt;Node9 -->
<g id="edge9" class="edge"><title>Node5&#45;&gt;Node9</title>
<path fill="none" stroke="midnightblue" d="M970.161,-469.759C994.041,-474.229 1020.69,-479.218 1043.95,-483.572"/>
<polygon fill="midnightblue" stroke="midnightblue" points="1043.56,-487.06 1054.03,-485.46 1044.85,-480.179 1043.56,-487.06"/>
</g>
<!-- Node10 -->
<g id="node10" class="node"><title>Node10</title>
<g id="a_node10"><a xlink:href="../../d8/df7/classview_1_1_turtle_view.html#a5f7b22cd8ab69258535b18920a488b63" target="_top" xlink:title="view.TurtleView.isShowing">
<polygon fill="white" stroke="black" points="1038,-447.5 1038,-466.5 1174,-466.5 1174,-447.5 1038,-447.5"/>
<text text-anchor="middle" x="1106" y="-454.5" font-family="Helvetica,sans-Serif" font-size="10.00">view.TurtleView.isShowing</text>
</a>
</g>
</g>
<!-- Node5&#45;&gt;Node10 -->
<g id="edge10" class="edge"><title>Node5&#45;&gt;Node10</title>
<path fill="none" stroke="midnightblue" d="M970.161,-457C988.614,-457 1008.72,-457 1027.64,-457"/>
<polygon fill="midnightblue" stroke="midnightblue" points="1027.71,-460.5 1037.71,-457 1027.71,-453.5 1027.71,-460.5"/>
</g>
<!-- Node12&#45;&gt;Node3 -->
<g id="edge13" class="edge"><title>Node12&#45;&gt;Node3</title>
<path fill="none" stroke="midnightblue" d="M770.756,-646.39C830.374,-640.221 916.216,-629.463 990,-613 1017.04,-606.968 1046.87,-597.545 1069.37,-589.853"/>
<polygon fill="midnightblue" stroke="midnightblue" points="1070.55,-593.15 1078.85,-586.568 1068.25,-586.536 1070.55,-593.15"/>
</g>
<!-- Node12&#45;&gt;Node5 -->
<g id="edge14" class="edge"><title>Node12&#45;&gt;Node5</title>
<path fill="none" stroke="midnightblue" d="M757.219,-643.453C763.866,-640.988 770.287,-637.891 776,-634 833.22,-595.033 872.373,-520.289 889.778,-481.583"/>
<polygon fill="midnightblue" stroke="midnightblue" points="893.116,-482.686 893.92,-472.121 886.703,-479.878 893.116,-482.686"/>
</g>
<!-- Node13&#45;&gt;Node3 -->
<g id="edge16" class="edge"><title>Node13&#45;&gt;Node3</title>
<path fill="none" stroke="midnightblue" d="M760.222,-610.544C819.608,-606.188 910.916,-599.05 990,-591 999.83,-589.999 1010.12,-588.867 1020.34,-587.691"/>
<polygon fill="midnightblue" stroke="midnightblue" points="1020.98,-591.14 1030.5,-586.503 1020.17,-584.187 1020.98,-591.14"/>
</g>
<!-- Node13&#45;&gt;Node5 -->
<g id="edge17" class="edge"><title>Node13&#45;&gt;Node5</title>
<path fill="none" stroke="midnightblue" d="M754.728,-605.485C762.169,-603.018 769.463,-599.911 776,-596 824.747,-566.833 864.979,-512.247 885.431,-480.859"/>
<polygon fill="midnightblue" stroke="midnightblue" points="888.47,-482.602 890.898,-472.289 882.569,-478.837 888.47,-482.602"/>
</g>
<!-- Node14&#45;&gt;Node3 -->
<g id="edge19" class="edge"><title>Node14&#45;&gt;Node3</title>
<path fill="none" stroke="midnightblue" d="M772.309,-577C841.91,-577 945.292,-577 1018.31,-577"/>
<polygon fill="midnightblue" stroke="midnightblue" points="1018.4,-580.5 1028.4,-577 1018.4,-573.5 1018.4,-580.5"/>
</g>
<!-- Node14&#45;&gt;Node5 -->
<g id="edge20" class="edge"><title>Node14&#45;&gt;Node5</title>
<path fill="none" stroke="midnightblue" d="M750.84,-567.49C759.487,-564.997 768.162,-561.881 776,-558 816.462,-537.964 855.554,-502.628 878.69,-479.515"/>
<polygon fill="midnightblue" stroke="midnightblue" points="881.384,-481.768 885.904,-472.185 876.395,-476.858 881.384,-481.768"/>
</g>
<!-- Node16 -->
<g id="node16" class="node"><title>Node16</title>
<g id="a_node16"><a xlink:href="../../d4/d64/classview_1_1_view_updater.html#ab8c47e1d6b8bc5c076184e3e0af5e4b2" target="_top" xlink:title="view.ViewUpdater.setHeading">
<polygon fill="white" stroke="black" points="617.5,-529.5 617.5,-548.5 774.5,-548.5 774.5,-529.5 617.5,-529.5"/>
<text text-anchor="middle" x="696" y="-536.5" font-family="Helvetica,sans-Serif" font-size="10.00">view.ViewUpdater.setHeading</text>
</a>
</g>
</g>
<!-- Node15&#45;&gt;Node16 -->
<g id="edge22" class="edge"><title>Node15&#45;&gt;Node16</title>
<path fill="none" stroke="midnightblue" d="M346.024,-539C417.482,-539 529.342,-539 607.084,-539"/>
<polygon fill="midnightblue" stroke="midnightblue" points="607.342,-542.5 617.342,-539 607.342,-535.5 607.342,-542.5"/>
</g>
<!-- Node16&#45;&gt;Node3 -->
<g id="edge23" class="edge"><title>Node16&#45;&gt;Node3</title>
<path fill="none" stroke="midnightblue" d="M774.702,-546.237C844.26,-552.715 946.116,-562.202 1018.3,-568.925"/>
<polygon fill="midnightblue" stroke="midnightblue" points="1018,-572.412 1028.28,-569.854 1018.65,-565.442 1018,-572.412"/>
</g>
<!-- Node16&#45;&gt;Node5 -->
<g id="edge24" class="edge"><title>Node16&#45;&gt;Node5</title>
<path fill="none" stroke="midnightblue" d="M720.684,-529.433C753.092,-516.342 811.951,-492.567 853.375,-475.834"/>
<polygon fill="midnightblue" stroke="midnightblue" points="854.756,-479.051 862.717,-472.06 852.134,-472.56 854.756,-479.051"/>
</g>
<!-- Node17&#45;&gt;Node11 -->
<g id="edge26" class="edge"><title>Node17&#45;&gt;Node11</title>
<path fill="none" stroke="midnightblue" d="M348,-479.981C366.056,-476.161 385.593,-472.028 404.102,-468.113"/>
<polygon fill="midnightblue" stroke="midnightblue" points="404.908,-471.52 413.967,-466.026 403.459,-464.672 404.908,-471.52"/>
</g>
<!-- Node18 -->
<g id="node18" class="node"><title>Node18</title>
<g id="a_node18"><a xlink:href="../../d4/d64/classview_1_1_view_updater.html#adc0790ceed057768bd5a29a470e626d1" target="_top" xlink:title="view.ViewUpdater.updateWorkspace">
<polygon fill="white" stroke="black" points="392.5,-485.5 392.5,-504.5 579.5,-504.5 579.5,-485.5 392.5,-485.5"/>
<text text-anchor="middle" x="486" y="-492.5" font-family="Helvetica,sans-Serif" font-size="10.00">view.ViewUpdater.updateWorkspace</text>
</a>
</g>
</g>
<!-- Node17&#45;&gt;Node18 -->
<g id="edge27" class="edge"><title>Node17&#45;&gt;Node18</title>
<path fill="none" stroke="midnightblue" d="M355.636,-495C364.329,-495 373.274,-495 382.206,-495"/>
<polygon fill="midnightblue" stroke="midnightblue" points="382.273,-498.5 392.273,-495 382.273,-491.5 382.273,-498.5"/>
</g>
<!-- Node18&#45;&gt;Node3 -->
<g id="edge50" class="edge"><title>Node18&#45;&gt;Node3</title>
<path fill="none" stroke="midnightblue" d="M579.955,-499.737C681.445,-506.039 848.406,-519.718 990,-547 1014.49,-551.718 1041.48,-558.668 1063.16,-564.69"/>
<polygon fill="midnightblue" stroke="midnightblue" points="1062.46,-568.128 1073.03,-567.47 1064.36,-561.39 1062.46,-568.128"/>
</g>
<!-- Node19 -->
<g id="node19" class="node"><title>Node19</title>
<g id="a_node19"><a xlink:href="../../da/d64/classview_1_1_workspace.html#a08f0e92c7d15f9c170e406af39ec54a5" target="_top" xlink:title="view.Workspace.getLines">
<polygon fill="white" stroke="black" points="629,-453.5 629,-472.5 763,-472.5 763,-453.5 629,-453.5"/>
<text text-anchor="middle" x="696" y="-460.5" font-family="Helvetica,sans-Serif" font-size="10.00">view.Workspace.getLines</text>
</a>
</g>
</g>
<!-- Node18&#45;&gt;Node19 -->
<g id="edge28" class="edge"><title>Node18&#45;&gt;Node19</title>
<path fill="none" stroke="midnightblue" d="M548.844,-485.486C572.105,-481.907 598.754,-477.807 622.872,-474.097"/>
<polygon fill="midnightblue" stroke="midnightblue" points="623.684,-477.513 633.035,-472.533 622.619,-470.594 623.684,-477.513"/>
</g>
<!-- Node20 -->
<g id="node20" class="node"><title>Node20</title>
<g id="a_node20"><a xlink:href="../../de/d0a/classview_1_1_drawer.html#a6b9f362b8bc763689630b1fe7b5c1887" target="_top" xlink:title="view.Drawer.draw">
<polygon fill="white" stroke="black" points="647,-251.5 647,-270.5 745,-270.5 745,-251.5 647,-251.5"/>
<text text-anchor="middle" x="696" y="-258.5" font-family="Helvetica,sans-Serif" font-size="10.00">view.Drawer.draw</text>
</a>
</g>
</g>
<!-- Node18&#45;&gt;Node20 -->
<g id="edge29" class="edge"><title>Node18&#45;&gt;Node20</title>
<path fill="none" stroke="midnightblue" d="M561.222,-485.367C567.931,-482.667 574.324,-479.268 580,-475 647.15,-424.505 679.428,-323.021 690.445,-280.473"/>
<polygon fill="midnightblue" stroke="midnightblue" points="693.895,-281.105 692.899,-270.557 687.1,-279.423 693.895,-281.105"/>
</g>
<!-- Node20&#45;&gt;Node5 -->
<g id="edge49" class="edge"><title>Node20&#45;&gt;Node5</title>
<path fill="none" stroke="midnightblue" d="M700.748,-270.884C712.397,-300.246 750.905,-387.662 812,-432 815.398,-434.466 819.033,-436.69 822.82,-438.694"/>
<polygon fill="midnightblue" stroke="midnightblue" points="821.353,-441.872 831.89,-442.985 824.347,-435.545 821.353,-441.872"/>
</g>
<!-- Node21 -->
<g id="node21" class="node"><title>Node21</title>
<g id="a_node21"><a xlink:href="../../d6/d06/classmodel_1_1_turtle_command.html#ab30f5c95162492cb8fd19f1fd7350f9f" target="_top" xlink:title="model.TurtleCommand.getTurtleId">
<polygon fill="white" stroke="black" points="812,-125.5 812,-144.5 990,-144.5 990,-125.5 812,-125.5"/>
<text text-anchor="middle" x="901" y="-132.5" font-family="Helvetica,sans-Serif" font-size="10.00">model.TurtleCommand.getTurtleId</text>
</a>
</g>
</g>
<!-- Node20&#45;&gt;Node21 -->
<g id="edge30" class="edge"><title>Node20&#45;&gt;Node21</title>
<path fill="none" stroke="midnightblue" d="M704.409,-251.183C721.085,-229.837 763.889,-179.109 812,-154 816.56,-151.62 821.401,-149.539 826.376,-147.717"/>
<polygon fill="midnightblue" stroke="midnightblue" points="827.666,-150.978 836.071,-144.526 825.478,-144.328 827.666,-150.978"/>
</g>
<!-- Node22 -->
<g id="node22" class="node"><title>Node22</title>
<g id="a_node22"><a xlink:href="../../d6/d06/classmodel_1_1_turtle_command.html#ab94da8b47588273eb8db943096f12422" target="_top" xlink:title="model.TurtleCommand.getPolar">
<polygon fill="white" stroke="black" points="817,-87.5 817,-106.5 985,-106.5 985,-87.5 817,-87.5"/>
<text text-anchor="middle" x="901" y="-94.5" font-family="Helvetica,sans-Serif" font-size="10.00">model.TurtleCommand.getPolar</text>
</a>
</g>
</g>
<!-- Node20&#45;&gt;Node22 -->
<g id="edge31" class="edge"><title>Node20&#45;&gt;Node22</title>
<path fill="none" stroke="midnightblue" d="M701.628,-251.342C714.802,-224.96 755.253,-151.298 812,-116 815.411,-113.878 819.025,-111.991 822.765,-110.312"/>
<polygon fill="midnightblue" stroke="midnightblue" points="824.266,-113.483 832.282,-106.556 821.695,-106.972 824.266,-113.483"/>
</g>
<!-- Node23 -->
<g id="node23" class="node"><title>Node23</title>
<g id="a_node23"><a xlink:href="../../d1/d0b/classmodel_1_1_polar.html#a8abcb5640caf12d2941533a6e1c04faa" target="_top" xlink:title="model.Polar.getDistance">
<polygon fill="white" stroke="black" points="834,-49.5 834,-68.5 968,-68.5 968,-49.5 834,-49.5"/>
<text text-anchor="middle" x="901" y="-56.5" font-family="Helvetica,sans-Serif" font-size="10.00">model.Polar.getDistance</text>
</a>
</g>
</g>
<!-- Node20&#45;&gt;Node23 -->
<g id="edge32" class="edge"><title>Node20&#45;&gt;Node23</title>
<path fill="none" stroke="midnightblue" d="M700.104,-251.127C710.399,-220.094 746.545,-123.864 812,-78 815.774,-75.3555 819.846,-73.0681 824.097,-71.0907"/>
<polygon fill="midnightblue" stroke="midnightblue" points="825.681,-74.2261 833.645,-67.2385 823.061,-67.7346 825.681,-74.2261"/>
</g>
<!-- Node24 -->
<g id="node24" class="node"><title>Node24</title>
<g id="a_node24"><a xlink:href="../../d1/d0b/classmodel_1_1_polar.html#adbd9afb75cf519b2dd9f1331e406b8c2" target="_top" xlink:title="model.Polar.getAngle">
<polygon fill="white" stroke="black" points="841.5,-403.5 841.5,-422.5 960.5,-422.5 960.5,-403.5 841.5,-403.5"/>
<text text-anchor="middle" x="901" y="-410.5" font-family="Helvetica,sans-Serif" font-size="10.00">model.Polar.getAngle</text>
</a>
</g>
</g>
<!-- Node20&#45;&gt;Node24 -->
<g id="edge33" class="edge"><title>Node20&#45;&gt;Node24</title>
<path fill="none" stroke="midnightblue" d="M702.886,-270.739C717.9,-294.724 760.126,-357.014 812,-389 819.443,-393.59 827.769,-397.316 836.252,-400.338"/>
<polygon fill="midnightblue" stroke="midnightblue" points="835.264,-403.697 845.856,-403.459 837.427,-397.039 835.264,-403.697"/>
</g>
<!-- Node25 -->
<g id="node25" class="node"><title>Node25</title>
<g id="a_node25"><a xlink:href="../../de/d0a/classview_1_1_drawer.html#ad1636376006d26ed1ca9784e13f96a2a" target="_top" xlink:title="view.Drawer.wrapY">
<polygon fill="white" stroke="black" points="849.5,-289.5 849.5,-308.5 952.5,-308.5 952.5,-289.5 849.5,-289.5"/>
<text text-anchor="middle" x="901" y="-296.5" font-family="Helvetica,sans-Serif" font-size="10.00">view.Drawer.wrapY</text>
</a>
</g>
</g>
<!-- Node20&#45;&gt;Node25 -->
<g id="edge34" class="edge"><title>Node20&#45;&gt;Node25</title>
<path fill="none" stroke="midnightblue" d="M745.108,-270.005C773.339,-275.29 809.273,-282.017 839.421,-287.66"/>
<polygon fill="midnightblue" stroke="midnightblue" points="838.931,-291.129 849.404,-289.529 840.219,-284.249 838.931,-291.129"/>
</g>
<!-- Node26 -->
<g id="node26" class="node"><title>Node26</title>
<g id="a_node26"><a xlink:href="../../d8/df7/classview_1_1_turtle_view.html#a5e7cf3c4f078acae07bcbeee264a5581" target="_top" xlink:title="view.TurtleView.move">
<polygon fill="white" stroke="black" points="1048,-330.5 1048,-349.5 1164,-349.5 1164,-330.5 1048,-330.5"/>
<text text-anchor="middle" x="1106" y="-337.5" font-family="Helvetica,sans-Serif" font-size="10.00">view.TurtleView.move</text>
</a>
</g>
</g>
<!-- Node20&#45;&gt;Node26 -->
<g id="edge42" class="edge"><title>Node20&#45;&gt;Node26</title>
<path fill="none" stroke="midnightblue" d="M704.604,-270.748C721.343,-291.308 763.75,-338.648 812,-356 897.245,-386.656 1005.44,-367.003 1063.57,-352.142"/>
<polygon fill="midnightblue" stroke="midnightblue" points="1064.7,-355.462 1073.48,-349.528 1062.92,-348.693 1064.7,-355.462"/>
</g>
<!-- Node27 -->
<g id="node27" class="node"><title>Node27</title>
<g id="a_node27"><a xlink:href="../../d8/df7/classview_1_1_turtle_view.html#a68c8a2962e23e5794fcfbe7ef1968fad" target="_top" xlink:title="view.TurtleView.getPenUp">
<polygon fill="white" stroke="black" points="1038,-254.5 1038,-273.5 1174,-273.5 1174,-254.5 1038,-254.5"/>
<text text-anchor="middle" x="1106" y="-261.5" font-family="Helvetica,sans-Serif" font-size="10.00">view.TurtleView.getPenUp</text>
</a>
</g>
</g>
<!-- Node20&#45;&gt;Node27 -->
<g id="edge43" class="edge"><title>Node20&#45;&gt;Node27</title>
<path fill="none" stroke="midnightblue" d="M743.784,-251.487C764.576,-247.722 789.412,-243.853 812,-242 890.846,-235.53 911.242,-234.534 990,-242 1011.64,-244.051 1035.27,-248.227 1055.44,-252.395"/>
<polygon fill="midnightblue" stroke="midnightblue" points="1054.84,-255.845 1065.35,-254.497 1056.29,-248.998 1054.84,-255.845"/>
</g>
<!-- Node29 -->
<g id="node29" class="node"><title>Node29</title>
<g id="a_node29"><a xlink:href="../../de/d0a/classview_1_1_drawer.html#a24eafc164d9d0ab08036dc5cf7d72dd4" target="_top" xlink:title="view.Drawer.wrapX">
<polygon fill="white" stroke="black" points="849,-327.5 849,-346.5 953,-346.5 953,-327.5 849,-327.5"/>
<text text-anchor="middle" x="901" y="-334.5" font-family="Helvetica,sans-Serif" font-size="10.00">view.Drawer.wrapX</text>
</a>
</g>
</g>
<!-- Node20&#45;&gt;Node29 -->
<g id="edge38" class="edge"><title>Node20&#45;&gt;Node29</title>
<path fill="none" stroke="midnightblue" d="M713.198,-270.642C734.967,-283.218 775.19,-305.128 812,-318 820.559,-320.993 829.759,-323.606 838.869,-325.856"/>
<polygon fill="midnightblue" stroke="midnightblue" points="838.149,-329.282 848.684,-328.157 839.747,-322.467 838.149,-329.282"/>
</g>
<!-- Node30 -->
<g id="node30" class="node"><title>Node30</title>
<g id="a_node30"><a xlink:href="../../d6/d06/classmodel_1_1_turtle_command.html#abb952ce819f91c0f5970c2f2b1c43d73" target="_top" xlink:title="model.TurtleCommand.isRelative">
<polygon fill="white" stroke="black" points="814.5,-251.5 814.5,-270.5 987.5,-270.5 987.5,-251.5 814.5,-251.5"/>
<text text-anchor="middle" x="901" y="-258.5" font-family="Helvetica,sans-Serif" font-size="10.00">model.TurtleCommand.isRelative</text>
</a>
</g>
</g>
<!-- Node20&#45;&gt;Node30 -->
<g id="edge44" class="edge"><title>Node20&#45;&gt;Node30</title>
<path fill="none" stroke="midnightblue" d="M745.108,-261C762.942,-261 783.851,-261 804.433,-261"/>
<polygon fill="midnightblue" stroke="midnightblue" points="804.496,-264.5 814.496,-261 804.496,-257.5 804.496,-264.5"/>
</g>
<!-- Node31 -->
<g id="node31" class="node"><title>Node31</title>
<g id="a_node31"><a xlink:href="../../d8/df7/classview_1_1_turtle_view.html#a199407b3121d1bc310d7f75cdab2da94" target="_top" xlink:title="view.TurtleView.setRelative\lHeading">
<polygon fill="white" stroke="black" points="831,-164 831,-194 971,-194 971,-164 831,-164"/>
<text text-anchor="start" x="839" y="-182" font-family="Helvetica,sans-Serif" font-size="10.00">view.TurtleView.setRelative</text>
<text text-anchor="middle" x="901" y="-171" font-family="Helvetica,sans-Serif" font-size="10.00">Heading</text>
</a>
</g>
</g>
<!-- Node20&#45;&gt;Node31 -->
<g id="edge45" class="edge"><title>Node20&#45;&gt;Node31</title>
<path fill="none" stroke="midnightblue" d="M716.696,-251.395C739.402,-240.486 777.972,-222.457 812,-209 822.113,-205 832.998,-201.028 843.549,-197.346"/>
<polygon fill="midnightblue" stroke="midnightblue" points="844.796,-200.618 853.112,-194.053 842.517,-193.999 844.796,-200.618"/>
</g>
<!-- Node33 -->
<g id="node33" class="node"><title>Node33</title>
<g id="a_node33"><a xlink:href="../../d8/df7/classview_1_1_turtle_view.html#a166c0ff50e234c0a2725aa1cbc38c933" target="_top" xlink:title="view.TurtleView.setAbsolute\lHeading">
<polygon fill="white" stroke="black" points="828,-0 828,-30 974,-30 974,-0 828,-0"/>
<text text-anchor="start" x="836" y="-18" font-family="Helvetica,sans-Serif" font-size="10.00">view.TurtleView.setAbsolute</text>
<text text-anchor="middle" x="901" y="-7" font-family="Helvetica,sans-Serif" font-size="10.00">Heading</text>
</a>
</g>
</g>
<!-- Node20&#45;&gt;Node33 -->
<g id="edge47" class="edge"><title>Node20&#45;&gt;Node33</title>
<path fill="none" stroke="midnightblue" d="M699.128,-251.304C707.204,-216.861 739.25,-99.3001 812,-40 814.251,-38.1655 816.628,-36.4656 819.104,-34.8903"/>
<polygon fill="midnightblue" stroke="midnightblue" points="820.832,-37.934 827.854,-30.0002 817.417,-31.8235 820.832,-37.934"/>
</g>
<!-- Node25&#45;&gt;Node26 -->
<g id="edge35" class="edge"><title>Node25&#45;&gt;Node26</title>
<path fill="none" stroke="midnightblue" d="M949.083,-308.509C978.569,-314.465 1016.76,-322.177 1047.96,-328.479"/>
<polygon fill="midnightblue" stroke="midnightblue" points="1047.33,-331.922 1057.82,-330.471 1048.71,-325.061 1047.33,-331.922"/>
</g>
<!-- Node25&#45;&gt;Node27 -->
<g id="edge36" class="edge"><title>Node25&#45;&gt;Node27</title>
<path fill="none" stroke="midnightblue" d="M952.702,-290.258C978.954,-285.732 1011.32,-280.153 1039.45,-275.302"/>
<polygon fill="midnightblue" stroke="midnightblue" points="1040.34,-278.7 1049.6,-273.552 1039.15,-271.802 1040.34,-278.7"/>
</g>
<!-- Node28 -->
<g id="node28" class="node"><title>Node28</title>
<g id="a_node28"><a xlink:href="../../de/d0a/classview_1_1_drawer.html#a1489f58b0b2c2012d23d546013a47972" target="_top" xlink:title="view.Drawer.drawLine">
<polygon fill="white" stroke="black" points="1047.5,-292.5 1047.5,-311.5 1164.5,-311.5 1164.5,-292.5 1047.5,-292.5"/>
<text text-anchor="middle" x="1106" y="-299.5" font-family="Helvetica,sans-Serif" font-size="10.00">view.Drawer.drawLine</text>
</a>
</g>
</g>
<!-- Node25&#45;&gt;Node28 -->
<g id="edge37" class="edge"><title>Node25&#45;&gt;Node28</title>
<path fill="none" stroke="midnightblue" d="M952.702,-299.749C978.214,-300.126 1009.5,-300.589 1037.06,-300.996"/>
<polygon fill="midnightblue" stroke="midnightblue" points="1037.37,-304.501 1047.42,-301.149 1037.47,-297.502 1037.37,-304.501"/>
</g>
<!-- Node29&#45;&gt;Node26 -->
<g id="edge39" class="edge"><title>Node29&#45;&gt;Node26</title>
<path fill="none" stroke="midnightblue" d="M953.225,-337.757C978.742,-338.134 1009.93,-338.595 1037.38,-339.001"/>
<polygon fill="midnightblue" stroke="midnightblue" points="1037.65,-342.505 1047.7,-339.153 1037.75,-335.506 1037.65,-342.505"/>
</g>
<!-- Node29&#45;&gt;Node27 -->
<g id="edge40" class="edge"><title>Node29&#45;&gt;Node27</title>
<path fill="none" stroke="midnightblue" d="M953.042,-330.99C965.615,-328.179 978.704,-324.054 990,-318 1009.67,-307.459 1006.46,-293.77 1026,-283 1030.18,-280.696 1034.64,-278.669 1039.22,-276.886"/>
<polygon fill="midnightblue" stroke="midnightblue" points="1040.48,-280.155 1048.77,-273.559 1038.18,-273.544 1040.48,-280.155"/>
</g>
<!-- Node29&#45;&gt;Node28 -->
<g id="edge41" class="edge"><title>Node29&#45;&gt;Node28</title>
<path fill="none" stroke="midnightblue" d="M953.225,-328.168C979.482,-323.641 1011.74,-318.079 1039.76,-313.248"/>
<polygon fill="midnightblue" stroke="midnightblue" points="1040.61,-316.653 1049.87,-311.505 1039.42,-309.755 1040.61,-316.653"/>
</g>
<!-- Node32 -->
<g id="node32" class="node"><title>Node32</title>
<g id="a_node32"><a xlink:href="../../d8/df7/classview_1_1_turtle_view.html#aea0727a510b53db67aa4100a6106eb5b" target="_top" xlink:title="view.TurtleView.adjustAngle">
<polygon fill="white" stroke="black" points="1033.5,-87.5 1033.5,-106.5 1178.5,-106.5 1178.5,-87.5 1033.5,-87.5"/>
<text text-anchor="middle" x="1106" y="-94.5" font-family="Helvetica,sans-Serif" font-size="10.00">view.TurtleView.adjustAngle</text>
</a>
</g>
</g>
<!-- Node31&#45;&gt;Node32 -->
<g id="edge46" class="edge"><title>Node31&#45;&gt;Node32</title>
<path fill="none" stroke="midnightblue" d="M960.719,-163.942C970.596,-160.948 980.666,-157.604 990,-154 1021.47,-141.85 1055.93,-124.139 1078.84,-111.692"/>
<polygon fill="midnightblue" stroke="midnightblue" points="1080.83,-114.592 1087.91,-106.711 1077.46,-108.456 1080.83,-114.592"/>
</g>
<!-- Node33&#45;&gt;Node32 -->
<g id="edge48" class="edge"><title>Node33&#45;&gt;Node32</title>
<path fill="none" stroke="midnightblue" d="M960.719,-30.0576C970.596,-33.0516 980.666,-36.3959 990,-40 1021.47,-52.1499 1055.93,-69.8609 1078.84,-82.3083"/>
<polygon fill="midnightblue" stroke="midnightblue" points="1077.46,-85.5436 1087.91,-87.289 1080.83,-79.4078 1077.46,-85.5436"/>
</g>
</g>
</svg>
        <g id="navigator" transform="translate(0 0)" fill="#404254">
                <rect fill="#f2f5e9" fill-opacity="0.5" stroke="#606060" stroke-width=".5" x="0" y="0" width="60" height="60"/>
                <use id="zoomplus" xlink:href="#zoomPlus" x="17" y="9" onmousedown="handleZoom(evt,'in')"/>
                <use id="zoomminus" xlink:href="#zoomMin" x="42" y="9" onmousedown="handleZoom(evt,'out')"/>
                <use id="reset" xlink:href="#resetDef" x="30" y="36" onmousedown="handleReset()"/>
                <g id="arrowUp" xlink:href="#dirArrow" transform="translate(30 24)" onmousedown="handlePan(0,-1)">
                  <use xlink:href="#rim" fill="#404040">
                        <set attributeName="fill" to="#808080" begin="arrowUp.mouseover" end="arrowUp.mouseout"/>
                  </use>
                  <path fill="none" stroke="white" stroke-width="1.5" d="M0,-3.0v7 M-2.5,-0.5L0,-3.0L2.5,-0.5"/>
                </g>
                <g id="arrowRight" xlink:href="#dirArrow" transform="rotate(90) translate(36 -43)" onmousedown="handlePan(1,0)">
                  <use xlink:href="#rim" fill="#404040">
                        <set attributeName="fill" to="#808080" begin="arrowRight.mouseover" end="arrowRight.mouseout"/>
                  </use>
                  <path fill="none" stroke="white" stroke-width="1.5" d="M0,-3.0v7 M-2.5,-0.5L0,-3.0L2.5,-0.5"/>
                </g>
                <g id="arrowDown" xlink:href="#dirArrow" transform="rotate(180) translate(-30 -48)" onmousedown="handlePan(0,1)">
                  <use xlink:href="#rim" fill="#404040">
                        <set attributeName="fill" to="#808080" begin="arrowDown.mouseover" end="arrowDown.mouseout"/>
                  </use>
                  <path fill="none" stroke="white" stroke-width="1.5" d="M0,-3.0v7 M-2.5,-0.5L0,-3.0L2.5,-0.5"/>
                </g>
                <g id="arrowLeft" xlink:href="#dirArrow" transform="rotate(270) translate(-36 17)" onmousedown="handlePan(-1,0)">
                  <use xlink:href="#rim" fill="#404040">
                        <set attributeName="fill" to="#808080" begin="arrowLeft.mouseover" end="arrowLeft.mouseout"/>
                  </use>
                  <path fill="none" stroke="white" stroke-width="1.5" d="M0,-3.0v7 M-2.5,-0.5L0,-3.0L2.5,-0.5"/>
                </g>
        </g>
        <svg viewBox="0 0 15 15" width="100%" height="30px" preserveAspectRatio="xMaxYMin meet">
         <g id="arrow_out" transform="scale(0.3 0.3)">
          <a xlink:href="classmodel_1_1instructions_1_1_movement_instruction_a33e802cec8283d190a8daac6e485e3b4_cgraph_org.svg" target="_base">
           <rect id="button" ry="5" rx="5" y="6" x="6" height="38" width="38"
                fill="#f2f5e9" fill-opacity="0.5" stroke="#606060" stroke-width="1.0"/>
           <path id="arrow"
             d="M 11.500037,31.436501 C 11.940474,20.09759 22.043105,11.32322 32.158766,21.979434 L 37.068811,17.246167 C 37.068811,17.246167 37.088388,32 37.088388,32 L 22.160133,31.978069 C 22.160133,31.978069 26.997745,27.140456 26.997745,27.140456 C 18.528582,18.264221 13.291696,25.230495 11.500037,31.436501 z"
             style="fill:#404040;"/>
          </a>
         </g>
        </svg>
</svg>
