<?xml version="1.0" encoding="UTF-8" standalone="no"?>
<!DOCTYPE svg PUBLIC "-//W3C//DTD SVG 1.1//EN"
 "http://www.w3.org/Graphics/SVG/1.1/DTD/svg11.dtd">
<!-- Generated by graphviz version 2.36.0 (20140111.2315)
 -->
<!-- Title: view.MainView Pages: 1 -->
<svg width="476pt" height="96pt"
 viewBox="0.00 0.00 476.00 96.00" xmlns="http://www.w3.org/2000/svg" xmlns:xlink="http://www.w3.org/1999/xlink">
<g id="graph0" class="graph" transform="scale(1 1) rotate(0) translate(4 92)">
<title>view.MainView</title>
<polygon fill="white" stroke="none" points="-4,4 -4,-92 472,-92 472,4 -4,4"/>
<!-- Node1 -->
<g id="node1" class="node"><title>Node1</title>
<polygon fill="#bfbfbf" stroke="black" points="181.5,-0.5 181.5,-19.5 264.5,-19.5 264.5,-0.5 181.5,-0.5"/>
<text text-anchor="middle" x="223" y="-7.5" font-family="Helvetica,sans-Serif" font-size="10.00">view.MainView</text>
</g>
<!-- Node2 -->
<g id="node2" class="node"><title>Node2</title>
<polygon fill="white" stroke="#bfbfbf" points="-0.5,-68.5 -0.5,-87.5 44.5,-87.5 44.5,-68.5 -0.5,-68.5"/>
<text text-anchor="middle" x="22" y="-75.5" font-family="Helvetica,sans-Serif" font-size="10.00">Stage</text>
</g>
<!-- Node2&#45;&gt;Node1 -->
<g id="edge1" class="edge"><title>Node2&#45;&gt;Node1</title>
<path fill="none" stroke="#9a32cd" stroke-dasharray="5,2" d="M42.0486,-62.2388C54.2044,-53.9541 70.3453,-44.0887 86,-38 116.84,-26.0051 153.742,-19.1253 181.473,-15.3162"/>
<polygon fill="#9a32cd" stroke="#9a32cd" points="39.7704,-59.562 33.6038,-68.1773 43.7971,-65.288 39.7704,-59.562"/>
<text text-anchor="middle" x="109.5" y="-41.5" font-family="Helvetica,sans-Serif" font-size="10.00"> myStage</text>
</g>
<!-- Node3 -->
<g id="node3" class="node"><title>Node3</title>
<polygon fill="white" stroke="#bfbfbf" points="62.5,-68.5 62.5,-87.5 155.5,-87.5 155.5,-68.5 62.5,-68.5"/>
<text text-anchor="middle" x="109" y="-75.5" font-family="Helvetica,sans-Serif" font-size="10.00">ResourceBundle</text>
</g>
<!-- Node3&#45;&gt;Node1 -->
<g id="edge2" class="edge"><title>Node3&#45;&gt;Node1</title>
<path fill="none" stroke="#9a32cd" stroke-dasharray="5,2" d="M123.783,-61.0267C131.597,-53.2861 141.69,-44.3217 152,-38 164.704,-30.2106 180.026,-24.0371 193.18,-19.5707"/>
<polygon fill="#9a32cd" stroke="#9a32cd" points="121.259,-58.6025 116.806,-68.2161 126.282,-63.4777 121.259,-58.6025"/>
<text text-anchor="middle" x="185.5" y="-41.5" font-family="Helvetica,sans-Serif" font-size="10.00"> myResources</text>
</g>
<!-- Node4 -->
<g id="node4" class="node"><title>Node4</title>
<g id="a_node4"><a xlink:href="../../d4/de2/classview_1_1_scene_setter.html" target="_top" xlink:title="view.SceneSetter">
<polygon fill="white" stroke="black" points="173.5,-68.5 173.5,-87.5 272.5,-87.5 272.5,-68.5 173.5,-68.5"/>
<text text-anchor="middle" x="223" y="-75.5" font-family="Helvetica,sans-Serif" font-size="10.00">view.SceneSetter</text>
</a>
</g>
</g>
<!-- Node4&#45;&gt;Node1 -->
<g id="edge3" class="edge"><title>Node4&#45;&gt;Node1</title>
<path fill="none" stroke="#9a32cd" stroke-dasharray="5,2" d="M223,-58.0413C223,-45.4724 223,-29.5631 223,-19.8411"/>
<polygon fill="#9a32cd" stroke="#9a32cd" points="219.5,-58.3716 223,-68.3717 226.5,-58.3717 219.5,-58.3716"/>
<text text-anchor="middle" x="262.5" y="-41.5" font-family="Helvetica,sans-Serif" font-size="10.00"> mySceneSetter</text>
</g>
<!-- Node5 -->
<g id="node5" class="node"><title>Node5</title>
<polygon fill="white" stroke="#bfbfbf" points="290.5,-68.5 290.5,-87.5 371.5,-87.5 371.5,-68.5 290.5,-68.5"/>
<text text-anchor="middle" x="331" y="-75.5" font-family="Helvetica,sans-Serif" font-size="10.00">Dimension2D</text>
</g>
<!-- Node5&#45;&gt;Node1 -->
<g id="edge4" class="edge"><title>Node5&#45;&gt;Node1</title>
<path fill="none" stroke="#9a32cd" stroke-dasharray="5,2" d="M323.006,-59.2165C318.87,-51.7523 313.17,-43.5373 306,-38 294.007,-28.7378 278.719,-22.5919 264.54,-18.5409"/>
<polygon fill="#9a32cd" stroke="#9a32cd" points="319.943,-60.9171 327.534,-68.308 326.209,-57.7964 319.943,-60.9171"/>
<text text-anchor="middle" x="355.5" y="-41.5" font-family="Helvetica,sans-Serif" font-size="10.00"> myDimensions</text>
</g>
<!-- Node6 -->
<g id="node6" class="node"><title>Node6</title>
<polygon fill="white" stroke="#bfbfbf" points="398,-68.5 398,-87.5 454,-87.5 454,-68.5 398,-68.5"/>
<text text-anchor="middle" x="426" y="-75.5" font-family="Helvetica,sans-Serif" font-size="10.00">TabPane</text>
</g>
<!-- Node6&#45;&gt;Node1 -->
<g id="edge5" class="edge"><title>Node6&#45;&gt;Node1</title>
<path fill="none" stroke="#9a32cd" stroke-dasharray="5,2" d="M417.061,-59.4201C412.19,-51.623 405.424,-43.0805 397,-38 375.338,-24.9361 308.962,-17.479 264.74,-13.8392"/>
<polygon fill="#9a32cd" stroke="#9a32cd" points="414.092,-61.2805 422.047,-68.2784 420.192,-57.8472 414.092,-61.2805"/>
<text text-anchor="middle" x="439" y="-41.5" font-family="Helvetica,sans-Serif" font-size="10.00"> myTabPane</text>
</g>
</g>
</svg>
