<?xml version="1.0" encoding="UTF-8" standalone="no"?>
<!DOCTYPE svg PUBLIC "-//W3C//DTD SVG 1.1//EN"
 "http://www.w3.org/Graphics/SVG/1.1/DTD/svg11.dtd">
<!-- Generated by graphviz version 2.36.0 (20140111.2315)
 -->
<!-- Title: model.instructions.Instruction.execute Pages: 1 -->
<svg width="748pt" height="128pt"
 viewBox="0.00 0.00 748.00 128.00" xmlns="http://www.w3.org/2000/svg" xmlns:xlink="http://www.w3.org/1999/xlink">
<g id="graph0" class="graph" transform="scale(1 1) rotate(0) translate(4 124)">
<title>model.instructions.Instruction.execute</title>
<polygon fill="white" stroke="none" points="-4,4 -4,-124 744,-124 744,4 -4,4"/>
<!-- Node1 -->
<g id="node1" class="node"><title>Node1</title>
<polygon fill="#bfbfbf" stroke="black" points="0,-49.5 0,-68.5 200,-68.5 200,-49.5 0,-49.5"/>
<text text-anchor="middle" x="100" y="-56.5" font-family="Helvetica,sans-Serif" font-size="10.00">model.instructions.Instruction.execute</text>
</g>
<!-- Node2 -->
<g id="node2" class="node"><title>Node2</title>
<g id="a_node2"><a xlink:href="../../d5/dbb/classmodel_1_1instructions_1_1_control_instruction.html#a1c4a55cb8aa53805da8193f686964ca7" target="_top" xlink:title="model.instructions.Control\lInstruction.executeList">
<polygon fill="white" stroke="black" points="416.5,-90 416.5,-120 559.5,-120 559.5,-90 416.5,-90"/>
<text text-anchor="start" x="424.5" y="-108" font-family="Helvetica,sans-Serif" font-size="10.00">model.instructions.Control</text>
<text text-anchor="middle" x="488" y="-97" font-family="Helvetica,sans-Serif" font-size="10.00">Instruction.executeList</text>
</a>
</g>
</g>
<!-- Node1&#45;&gt;Node2 -->
<g id="edge1" class="edge"><title>Node1&#45;&gt;Node2</title>
<path fill="none" stroke="midnightblue" d="M190.922,-69.7161C259.564,-77.8962 352.824,-89.0102 416.209,-96.5637"/>
<polygon fill="midnightblue" stroke="midnightblue" points="191.323,-66.2392 180.979,-68.5312 190.495,-73.1901 191.323,-66.2392"/>
</g>
<!-- Node4 -->
<g id="node4" class="node"><title>Node4</title>
<g id="a_node4"><a xlink:href="../../d5/dbb/classmodel_1_1instructions_1_1_control_instruction.html#afdbf98dbab1ed6b6ace9a1773299eb30" target="_top" xlink:title="model.instructions.Control\lInstruction.forLoop">
<polygon fill="white" stroke="black" points="416.5,-41 416.5,-71 559.5,-71 559.5,-41 416.5,-41"/>
<text text-anchor="start" x="424.5" y="-59" font-family="Helvetica,sans-Serif" font-size="10.00">model.instructions.Control</text>
<text text-anchor="middle" x="488" y="-48" font-family="Helvetica,sans-Serif" font-size="10.00">Instruction.forLoop</text>
</a>
</g>
</g>
<!-- Node1&#45;&gt;Node4 -->
<g id="edge3" class="edge"><title>Node1&#45;&gt;Node4</title>
<path fill="none" stroke="midnightblue" d="M210.208,-58.1512C276.368,-57.637 358.829,-56.9961 416.464,-56.5482"/>
<polygon fill="midnightblue" stroke="midnightblue" points="210.126,-54.6517 200.154,-58.2294 210.181,-61.6515 210.126,-54.6517"/>
</g>
<!-- Node5 -->
<g id="node5" class="node"><title>Node5</title>
<g id="a_node5"><a xlink:href="../../d5/dbb/classmodel_1_1instructions_1_1_control_instruction.html#a738157283e6cd27e99b991d1e70258f6" target="_top" xlink:title="model.instructions.Control\lInstruction.makeVariable">
<polygon fill="white" stroke="black" points="236.5,-0 236.5,-30 379.5,-30 379.5,-0 236.5,-0"/>
<text text-anchor="start" x="244.5" y="-18" font-family="Helvetica,sans-Serif" font-size="10.00">model.instructions.Control</text>
<text text-anchor="middle" x="308" y="-7" font-family="Helvetica,sans-Serif" font-size="10.00">Instruction.makeVariable</text>
</a>
</g>
</g>
<!-- Node1&#45;&gt;Node5 -->
<g id="edge5" class="edge"><title>Node1&#45;&gt;Node5</title>
<path fill="none" stroke="midnightblue" d="M155.645,-47.3282C180.425,-42.0355 210.035,-35.7111 236.467,-30.0654"/>
<polygon fill="midnightblue" stroke="midnightblue" points="154.747,-43.941 145.699,-49.4527 156.209,-50.7866 154.747,-43.941"/>
</g>
<!-- Node3 -->
<g id="node3" class="node"><title>Node3</title>
<g id="a_node3"><a xlink:href="../../d5/dbb/classmodel_1_1instructions_1_1_control_instruction.html#a5ec77a176debc7a35ce9026c808d021e" target="_top" xlink:title="model.instructions.Control\lInstruction.execute">
<polygon fill="white" stroke="black" points="596.5,-41 596.5,-71 739.5,-71 739.5,-41 596.5,-41"/>
<text text-anchor="start" x="604.5" y="-59" font-family="Helvetica,sans-Serif" font-size="10.00">model.instructions.Control</text>
<text text-anchor="middle" x="668" y="-48" font-family="Helvetica,sans-Serif" font-size="10.00">Instruction.execute</text>
</a>
</g>
</g>
<!-- Node2&#45;&gt;Node3 -->
<g id="edge2" class="edge"><title>Node2&#45;&gt;Node3</title>
<path fill="none" stroke="midnightblue" d="M553.738,-87.1788C572.957,-81.8882 593.81,-76.1478 612.323,-71.0516"/>
<polygon fill="midnightblue" stroke="midnightblue" points="552.571,-83.8699 543.858,-89.8986 554.429,-90.6189 552.571,-83.8699"/>
</g>
<!-- Node4&#45;&gt;Node3 -->
<g id="edge4" class="edge"><title>Node4&#45;&gt;Node3</title>
<path fill="none" stroke="midnightblue" d="M569.646,-56C578.599,-56 587.666,-56 596.479,-56"/>
<polygon fill="midnightblue" stroke="midnightblue" points="569.606,-52.5001 559.606,-56 569.606,-59.5001 569.606,-52.5001"/>
</g>
<!-- Node5&#45;&gt;Node3 -->
<g id="edge6" class="edge"><title>Node5&#45;&gt;Node3</title>
<path fill="none" stroke="midnightblue" d="M389.95,-16.7557C439.305,-18.669 503.541,-22.6637 560,-31 576.607,-33.4521 594.441,-37.1725 610.695,-40.9995"/>
<polygon fill="midnightblue" stroke="midnightblue" points="389.774,-13.2469 379.653,-16.3782 389.518,-20.2422 389.774,-13.2469"/>
</g>
<!-- Node5&#45;&gt;Node4 -->
<g id="edge7" class="edge"><title>Node5&#45;&gt;Node4</title>
<path fill="none" stroke="midnightblue" d="M384.183,-32.3175C396.668,-35.1932 409.525,-38.1546 421.738,-40.9677"/>
<polygon fill="midnightblue" stroke="midnightblue" points="384.8,-28.8681 374.27,-30.0341 383.229,-35.6894 384.8,-28.8681"/>
</g>
</g>
</svg>
