<?xml version="1.0" encoding="UTF-8" standalone="no"?>
<!DOCTYPE svg PUBLIC "-//W3C//DTD SVG 1.1//EN"
 "http://www.w3.org/Graphics/SVG/1.1/DTD/svg11.dtd">
<!-- Generated by graphviz version 2.36.0 (20140111.2315)
 -->
<!-- Title: model.instructions.Instruction.getName Pages: 1 -->
<svg width="754pt" height="60pt"
 viewBox="0.00 0.00 754.00 60.00" xmlns="http://www.w3.org/2000/svg" xmlns:xlink="http://www.w3.org/1999/xlink">
<g id="graph0" class="graph" transform="scale(1 1) rotate(0) translate(4 56)">
<title>model.instructions.Instruction.getName</title>
<polygon fill="white" stroke="none" points="-4,4 -4,-56 750,-56 750,4 -4,4"/>
<!-- Node1 -->
<g id="node1" class="node"><title>Node1</title>
<polygon fill="#bfbfbf" stroke="black" points="0,-27.5 0,-46.5 206,-46.5 206,-27.5 0,-27.5"/>
<text text-anchor="middle" x="103" y="-34.5" font-family="Helvetica,sans-Serif" font-size="10.00">model.instructions.Instruction.getName</text>
</g>
<!-- Node2 -->
<g id="node2" class="node"><title>Node2</title>
<g id="a_node2"><a xlink:href="../../d5/dbb/classmodel_1_1instructions_1_1_control_instruction.html#a738157283e6cd27e99b991d1e70258f6" target="_top" xlink:title="model.instructions.Control\lInstruction.makeVariable">
<polygon fill="white" stroke="black" points="242.5,-22 242.5,-52 385.5,-52 385.5,-22 242.5,-22"/>
<text text-anchor="start" x="250.5" y="-40" font-family="Helvetica,sans-Serif" font-size="10.00">model.instructions.Control</text>
<text text-anchor="middle" x="314" y="-29" font-family="Helvetica,sans-Serif" font-size="10.00">Instruction.makeVariable</text>
</a>
</g>
</g>
<!-- Node1&#45;&gt;Node2 -->
<g id="edge1" class="edge"><title>Node1&#45;&gt;Node2</title>
<path fill="none" stroke="midnightblue" d="M216.162,-37C225.102,-37 233.967,-37 242.493,-37"/>
<polygon fill="midnightblue" stroke="midnightblue" points="216.051,-33.5001 206.051,-37 216.051,-40.5001 216.051,-33.5001"/>
</g>
<!-- Node3 -->
<g id="node3" class="node"><title>Node3</title>
<g id="a_node3"><a xlink:href="../../d5/dbb/classmodel_1_1instructions_1_1_control_instruction.html#a5ec77a176debc7a35ce9026c808d021e" target="_top" xlink:title="model.instructions.Control\lInstruction.execute">
<polygon fill="white" stroke="black" points="602.5,-22 602.5,-52 745.5,-52 745.5,-22 602.5,-22"/>
<text text-anchor="start" x="610.5" y="-40" font-family="Helvetica,sans-Serif" font-size="10.00">model.instructions.Control</text>
<text text-anchor="middle" x="674" y="-29" font-family="Helvetica,sans-Serif" font-size="10.00">Instruction.execute</text>
</a>
</g>
</g>
<!-- Node2&#45;&gt;Node3 -->
<g id="edge2" class="edge"><title>Node2&#45;&gt;Node3</title>
<path fill="none" stroke="midnightblue" d="M395.545,-38.667C404.471,-38.8037 413.428,-38.9199 422,-39 485.997,-39.5981 502.003,-39.5981 566,-39 577.798,-38.8898 590.326,-38.7111 602.496,-38.5049"/>
<polygon fill="midnightblue" stroke="midnightblue" points="395.559,-35.1669 385.504,-38.5049 395.446,-42.166 395.559,-35.1669"/>
</g>
<!-- Node4 -->
<g id="node4" class="node"><title>Node4</title>
<g id="a_node4"><a xlink:href="../../d5/dbb/classmodel_1_1instructions_1_1_control_instruction.html#afdbf98dbab1ed6b6ace9a1773299eb30" target="_top" xlink:title="model.instructions.Control\lInstruction.forLoop">
<polygon fill="white" stroke="black" points="422.5,-0 422.5,-30 565.5,-30 565.5,-0 422.5,-0"/>
<text text-anchor="start" x="430.5" y="-18" font-family="Helvetica,sans-Serif" font-size="10.00">model.instructions.Control</text>
<text text-anchor="middle" x="494" y="-7" font-family="Helvetica,sans-Serif" font-size="10.00">Instruction.forLoop</text>
</a>
</g>
</g>
<!-- Node2&#45;&gt;Node4 -->
<g id="edge3" class="edge"><title>Node2&#45;&gt;Node4</title>
<path fill="none" stroke="midnightblue" d="M395.646,-27.0325C404.599,-25.926 413.666,-24.8054 422.479,-23.716"/>
<polygon fill="midnightblue" stroke="midnightblue" points="395.101,-23.5731 385.606,-28.2734 395.96,-30.5203 395.101,-23.5731"/>
</g>
<!-- Node4&#45;&gt;Node3 -->
<g id="edge4" class="edge"><title>Node4&#45;&gt;Node3</title>
<path fill="none" stroke="midnightblue" d="M575.646,-24.9675C584.599,-26.074 593.666,-27.1946 602.479,-28.284"/>
<polygon fill="midnightblue" stroke="midnightblue" points="575.96,-21.4797 565.606,-23.7266 575.101,-28.4269 575.96,-21.4797"/>
</g>
</g>
</svg>
