<?xml version="1.0" encoding="UTF-8" standalone="no"?>
<!DOCTYPE svg PUBLIC "-//W3C//DTD SVG 1.1//EN"
 "http://www.w3.org/Graphics/SVG/1.1/DTD/svg11.dtd">
<!-- Generated by graphviz version 2.36.0 (20140111.2315)
 -->
<!-- Title: model.ExecutionEnvironment.setActiveTurtle Pages: 1 -->
<svg width="1724pt" height="173pt"
 viewBox="0.00 0.00 1724.00 173.00" xmlns="http://www.w3.org/2000/svg" xmlns:xlink="http://www.w3.org/1999/xlink">
<g id="graph0" class="graph" transform="scale(1 1) rotate(0) translate(4 169)">
<title>model.ExecutionEnvironment.setActiveTurtle</title>
<polygon fill="white" stroke="none" points="-4,4 -4,-169 1720,-169 1720,4 -4,4"/>
<!-- Node1 -->
<g id="node1" class="node"><title>Node1</title>
<polygon fill="#bfbfbf" stroke="black" points="0.5,-58 0.5,-88 175.5,-88 175.5,-58 0.5,-58"/>
<text text-anchor="start" x="8.5" y="-76" font-family="Helvetica,sans-Serif" font-size="10.00">model.ExecutionEnvironment.set</text>
<text text-anchor="middle" x="88" y="-65" font-family="Helvetica,sans-Serif" font-size="10.00">ActiveTurtle</text>
</g>
<!-- Node2 -->
<g id="node2" class="node"><title>Node2</title>
<g id="a_node2"><a xlink:href="../../da/d64/classview_1_1_workspace.html#a4abde41a3048fa8f64ddfec40c8ffdb7" target="_top" xlink:title="view.Workspace.addTurtle">
<polygon fill="white" stroke="black" points="226.5,-107.5 226.5,-126.5 363.5,-126.5 363.5,-107.5 226.5,-107.5"/>
<text text-anchor="middle" x="295" y="-114.5" font-family="Helvetica,sans-Serif" font-size="10.00">view.Workspace.addTurtle</text>
</a>
</g>
</g>
<!-- Node1&#45;&gt;Node2 -->
<g id="edge1" class="edge"><title>Node1&#45;&gt;Node2</title>
<path fill="none" stroke="midnightblue" d="M168.967,-90.1637C196.406,-96.053 226.112,-102.429 249.681,-107.488"/>
<polygon fill="midnightblue" stroke="midnightblue" points="169.488,-86.6958 158.976,-88.0192 168.019,-93.5399 169.488,-86.6958"/>
</g>
<!-- Node12 -->
<g id="node12" class="node"><title>Node12</title>
<g id="a_node12"><a xlink:href="../../dc/dbe/classmodel_1_1instructions_1_1_multiple_turtles_instruction.html#a592a35330637d1bd6edfe4476163e0a1" target="_top" xlink:title="model.instructions.Multiple\lTurtlesInstruction.execute">
<polygon fill="white" stroke="black" points="222.5,-58 222.5,-88 367.5,-88 367.5,-58 222.5,-58"/>
<text text-anchor="start" x="230.5" y="-76" font-family="Helvetica,sans-Serif" font-size="10.00">model.instructions.Multiple</text>
<text text-anchor="middle" x="295" y="-65" font-family="Helvetica,sans-Serif" font-size="10.00">TurtlesInstruction.execute</text>
</a>
</g>
</g>
<!-- Node1&#45;&gt;Node12 -->
<g id="edge12" class="edge"><title>Node1&#45;&gt;Node12</title>
<path fill="none" stroke="midnightblue" d="M185.88,-73C198.118,-73 210.463,-73 222.214,-73"/>
<polygon fill="midnightblue" stroke="midnightblue" points="185.641,-69.5001 175.641,-73 185.641,-76.5001 185.641,-69.5001"/>
</g>
<!-- Node13 -->
<g id="node13" class="node"><title>Node13</title>
<g id="a_node13"><a xlink:href="../../dc/df5/classmodel_1_1_parser.html#ab83c099e5a13c82b1a12d7eedda6fbf9" target="_top" xlink:title="model.Parser.parseAndExecute">
<polygon fill="white" stroke="black" points="212,-19.5 212,-38.5 378,-38.5 378,-19.5 212,-19.5"/>
<text text-anchor="middle" x="295" y="-26.5" font-family="Helvetica,sans-Serif" font-size="10.00">model.Parser.parseAndExecute</text>
</a>
</g>
</g>
<!-- Node1&#45;&gt;Node13 -->
<g id="edge13" class="edge"><title>Node1&#45;&gt;Node13</title>
<path fill="none" stroke="midnightblue" d="M168.967,-55.8363C196.406,-49.947 226.112,-43.5712 249.681,-38.5124"/>
<polygon fill="midnightblue" stroke="midnightblue" points="168.019,-52.4601 158.976,-57.9808 169.488,-59.3042 168.019,-52.4601"/>
</g>
<!-- Node3 -->
<g id="node3" class="node"><title>Node3</title>
<g id="a_node3"><a xlink:href="../../d6/de7/classview_1_1_s_logo_view.html#acf432f20e1a7dda7bef97f0619fb0fa5" target="_top" xlink:title="view.SLogoView.configure\lAddTurtlesButton">
<polygon fill="white" stroke="black" points="429.5,-121 429.5,-151 566.5,-151 566.5,-121 429.5,-121"/>
<text text-anchor="start" x="437.5" y="-139" font-family="Helvetica,sans-Serif" font-size="10.00">view.SLogoView.configure</text>
<text text-anchor="middle" x="498" y="-128" font-family="Helvetica,sans-Serif" font-size="10.00">AddTurtlesButton</text>
</a>
</g>
</g>
<!-- Node2&#45;&gt;Node3 -->
<g id="edge2" class="edge"><title>Node2&#45;&gt;Node3</title>
<path fill="none" stroke="midnightblue" d="M373.794,-124.354C392.064,-126.081 411.391,-127.908 429.183,-129.589"/>
<polygon fill="midnightblue" stroke="midnightblue" points="374.054,-120.863 363.769,-123.406 373.395,-127.832 374.054,-120.863"/>
</g>
<!-- Node11 -->
<g id="node11" class="node"><title>Node11</title>
<g id="a_node11"><a xlink:href="../../da/d64/classview_1_1_workspace.html#abbd85b844575ebab6643ba4ddc5a1612" target="_top" xlink:title="view.Workspace.Workspace">
<polygon fill="white" stroke="black" points="426,-82.5 426,-101.5 570,-101.5 570,-82.5 426,-82.5"/>
<text text-anchor="middle" x="498" y="-89.5" font-family="Helvetica,sans-Serif" font-size="10.00">view.Workspace.Workspace</text>
</a>
</g>
</g>
<!-- Node2&#45;&gt;Node11 -->
<g id="edge11" class="edge"><title>Node2&#45;&gt;Node11</title>
<path fill="none" stroke="midnightblue" d="M373.726,-107.333C390.845,-105.203 408.896,-102.958 425.745,-100.863"/>
<polygon fill="midnightblue" stroke="midnightblue" points="373.261,-103.863 363.769,-108.571 374.125,-110.81 373.261,-103.863"/>
</g>
<!-- Node4 -->
<g id="node4" class="node"><title>Node4</title>
<g id="a_node4"><a xlink:href="../../d6/de7/classview_1_1_s_logo_view.html#ae0050481c9168dd8eeb434d9aa79b047" target="_top" xlink:title="view.SLogoView.configureUI">
<polygon fill="white" stroke="black" points="619.5,-126.5 619.5,-145.5 766.5,-145.5 766.5,-126.5 619.5,-126.5"/>
<text text-anchor="middle" x="693" y="-133.5" font-family="Helvetica,sans-Serif" font-size="10.00">view.SLogoView.configureUI</text>
</a>
</g>
</g>
<!-- Node3&#45;&gt;Node4 -->
<g id="edge3" class="edge"><title>Node3&#45;&gt;Node4</title>
<path fill="none" stroke="midnightblue" d="M576.636,-136C590.714,-136 605.35,-136 619.28,-136"/>
<polygon fill="midnightblue" stroke="midnightblue" points="576.502,-132.5 566.502,-136 576.502,-139.5 576.502,-132.5"/>
</g>
<!-- Node5 -->
<g id="node5" class="node"><title>Node5</title>
<g id="a_node5"><a xlink:href="../../d1/d75/classview_1_1_main_view.html#ade3718ede33fa2086649c8b3cf75d2f9" target="_top" xlink:title="view.MainView.initTabs">
<polygon fill="white" stroke="black" points="985.5,-145.5 985.5,-164.5 1106.5,-164.5 1106.5,-145.5 985.5,-145.5"/>
<text text-anchor="middle" x="1046" y="-152.5" font-family="Helvetica,sans-Serif" font-size="10.00">view.MainView.initTabs</text>
</a>
</g>
</g>
<!-- Node4&#45;&gt;Node5 -->
<g id="edge4" class="edge"><title>Node4&#45;&gt;Node5</title>
<path fill="none" stroke="midnightblue" d="M776.808,-140.482C840.905,-143.952 928.136,-148.674 985.472,-151.778"/>
<polygon fill="midnightblue" stroke="midnightblue" points="776.902,-136.983 766.727,-139.937 776.524,-143.972 776.902,-136.983"/>
</g>
<!-- Node7 -->
<g id="node7" class="node"><title>Node7</title>
<g id="a_node7"><a xlink:href="../../d1/d75/classview_1_1_main_view.html#a39a2b399924a553ccd89dd2a2e6ea208" target="_top" xlink:title="view.MainView.newTab">
<polygon fill="white" stroke="black" points="804,-107.5 804,-126.5 924,-126.5 924,-107.5 804,-107.5"/>
<text text-anchor="middle" x="864" y="-114.5" font-family="Helvetica,sans-Serif" font-size="10.00">view.MainView.newTab</text>
</a>
</g>
</g>
<!-- Node4&#45;&gt;Node7 -->
<g id="edge6" class="edge"><title>Node4&#45;&gt;Node7</title>
<path fill="none" stroke="midnightblue" d="M776.615,-126.712C785.826,-125.676 795.067,-124.637 803.899,-123.644"/>
<polygon fill="midnightblue" stroke="midnightblue" points="776.198,-123.237 766.652,-127.832 776.98,-130.193 776.198,-123.237"/>
</g>
<!-- Node6 -->
<g id="node6" class="node"><title>Node6</title>
<g id="a_node6"><a xlink:href="../../d1/d75/classview_1_1_main_view.html#a9e27015c007bed90f32c79fc1187083f" target="_top" xlink:title="view.MainView.MainView">
<polygon fill="white" stroke="black" points="1586,-126.5 1586,-145.5 1716,-145.5 1716,-126.5 1586,-126.5"/>
<text text-anchor="middle" x="1651" y="-133.5" font-family="Helvetica,sans-Serif" font-size="10.00">view.MainView.MainView</text>
</a>
</g>
</g>
<!-- Node5&#45;&gt;Node6 -->
<g id="edge5" class="edge"><title>Node5&#45;&gt;Node6</title>
<path fill="none" stroke="midnightblue" d="M1116.74,-152.803C1234.6,-149.089 1471.48,-141.625 1585.62,-138.029"/>
<polygon fill="midnightblue" stroke="midnightblue" points="1116.63,-149.304 1106.75,-153.117 1116.85,-156.301 1116.63,-149.304"/>
</g>
<!-- Node8 -->
<g id="node8" class="node"><title>Node8</title>
<g id="a_node8"><a xlink:href="../../d1/d75/classview_1_1_main_view.html#a0424800b5057be73f94e16ef2e1e2b33" target="_top" xlink:title="view.MainView.configureFileMenu">
<polygon fill="white" stroke="black" points="960.5,-107.5 960.5,-126.5 1131.5,-126.5 1131.5,-107.5 960.5,-107.5"/>
<text text-anchor="middle" x="1046" y="-114.5" font-family="Helvetica,sans-Serif" font-size="10.00">view.MainView.configureFileMenu</text>
</a>
</g>
</g>
<!-- Node7&#45;&gt;Node8 -->
<g id="edge7" class="edge"><title>Node7&#45;&gt;Node8</title>
<path fill="none" stroke="midnightblue" d="M934.551,-117C942.961,-117 951.623,-117 960.221,-117"/>
<polygon fill="midnightblue" stroke="midnightblue" points="934.438,-113.5 924.438,-117 934.438,-120.5 934.438,-113.5"/>
</g>
<!-- Node9 -->
<g id="node9" class="node"><title>Node9</title>
<g id="a_node9"><a xlink:href="../../d1/d75/classview_1_1_main_view.html#a200c2c8e08e038e2ea86acc40c17d8d2" target="_top" xlink:title="view.MainView.configureTopMenu">
<polygon fill="white" stroke="black" points="1168,-107.5 1168,-126.5 1340,-126.5 1340,-107.5 1168,-107.5"/>
<text text-anchor="middle" x="1254" y="-114.5" font-family="Helvetica,sans-Serif" font-size="10.00">view.MainView.configureTopMenu</text>
</a>
</g>
</g>
<!-- Node8&#45;&gt;Node9 -->
<g id="edge8" class="edge"><title>Node8&#45;&gt;Node9</title>
<path fill="none" stroke="midnightblue" d="M1141.86,-117C1150.57,-117 1159.36,-117 1167.98,-117"/>
<polygon fill="midnightblue" stroke="midnightblue" points="1141.68,-113.5 1131.68,-117 1141.68,-120.5 1141.68,-113.5"/>
</g>
<!-- Node10 -->
<g id="node10" class="node"><title>Node10</title>
<g id="a_node10"><a xlink:href="../../d1/d75/classview_1_1_main_view.html#aff9e267e9368512a16e425f08d7b3ea0" target="_top" xlink:title="view.MainView.initRowConstraints">
<polygon fill="white" stroke="black" points="1376.5,-107.5 1376.5,-126.5 1549.5,-126.5 1549.5,-107.5 1376.5,-107.5"/>
<text text-anchor="middle" x="1463" y="-114.5" font-family="Helvetica,sans-Serif" font-size="10.00">view.MainView.initRowConstraints</text>
</a>
</g>
</g>
<!-- Node9&#45;&gt;Node10 -->
<g id="edge9" class="edge"><title>Node9&#45;&gt;Node10</title>
<path fill="none" stroke="midnightblue" d="M1350.22,-117C1358.9,-117 1367.65,-117 1376.24,-117"/>
<polygon fill="midnightblue" stroke="midnightblue" points="1350.09,-113.5 1340.09,-117 1350.09,-120.5 1350.09,-113.5"/>
</g>
<!-- Node10&#45;&gt;Node6 -->
<g id="edge10" class="edge"><title>Node10&#45;&gt;Node6</title>
<path fill="none" stroke="midnightblue" d="M1559.68,-126.774C1568.57,-127.682 1577.43,-128.587 1585.92,-129.455"/>
<polygon fill="midnightblue" stroke="midnightblue" points="1559.95,-123.284 1549.65,-125.749 1559.24,-130.247 1559.95,-123.284"/>
</g>
<!-- Node14 -->
<g id="node14" class="node"><title>Node14</title>
<g id="a_node14"><a xlink:href="../../da/dc8/classview_1_1_editor.html#a149e24d4e5e4464f3fb1601f2717663b" target="_top" xlink:title="view.Editor.parse">
<polygon fill="white" stroke="black" points="450,-38.5 450,-57.5 546,-57.5 546,-38.5 450,-38.5"/>
<text text-anchor="middle" x="498" y="-45.5" font-family="Helvetica,sans-Serif" font-size="10.00">view.Editor.parse</text>
</a>
</g>
</g>
<!-- Node13&#45;&gt;Node14 -->
<g id="edge14" class="edge"><title>Node13&#45;&gt;Node14</title>
<path fill="none" stroke="midnightblue" d="M388.131,-37.7089C409.474,-39.7264 431.324,-41.7918 449.795,-43.5378"/>
<polygon fill="midnightblue" stroke="midnightblue" points="388.329,-34.2121 378.044,-36.7554 387.671,-41.1811 388.329,-34.2121"/>
</g>
<!-- Node17 -->
<g id="node17" class="node"><title>Node17</title>
<g id="a_node17"><a xlink:href="../../d1/dc7/classview_1_1_side_bar.html#ac97dbdf731a291e46ba643c78b4c5a93" target="_top" xlink:title="view.SideBar.createHistoryPane">
<polygon fill="white" stroke="black" points="414.5,-0.5 414.5,-19.5 581.5,-19.5 581.5,-0.5 414.5,-0.5"/>
<text text-anchor="middle" x="498" y="-7.5" font-family="Helvetica,sans-Serif" font-size="10.00">view.SideBar.createHistoryPane</text>
</a>
</g>
</g>
<!-- Node13&#45;&gt;Node17 -->
<g id="edge17" class="edge"><title>Node13&#45;&gt;Node17</title>
<path fill="none" stroke="midnightblue" d="M388.189,-20.2856C396.877,-19.4644 405.648,-18.6353 414.241,-17.823"/>
<polygon fill="midnightblue" stroke="midnightblue" points="387.671,-16.8189 378.044,-21.2446 388.329,-23.7879 387.671,-16.8189"/>
</g>
<!-- Node15 -->
<g id="node15" class="node"><title>Node15</title>
<g id="a_node15"><a xlink:href="../../da/dc8/classview_1_1_editor.html#abd790752cfd8c9f01fb5b27a3680a982" target="_top" xlink:title="view.Editor.createRunButton">
<polygon fill="white" stroke="black" points="618.5,-38.5 618.5,-57.5 767.5,-57.5 767.5,-38.5 618.5,-38.5"/>
<text text-anchor="middle" x="693" y="-45.5" font-family="Helvetica,sans-Serif" font-size="10.00">view.Editor.createRunButton</text>
</a>
</g>
</g>
<!-- Node14&#45;&gt;Node15 -->
<g id="edge15" class="edge"><title>Node14&#45;&gt;Node15</title>
<path fill="none" stroke="midnightblue" d="M556.4,-48C575.791,-48 597.718,-48 618.198,-48"/>
<polygon fill="midnightblue" stroke="midnightblue" points="556.213,-44.5001 546.213,-48 556.213,-51.5001 556.213,-44.5001"/>
</g>
<!-- Node16 -->
<g id="node16" class="node"><title>Node16</title>
<g id="a_node16"><a xlink:href="../../da/dc8/classview_1_1_editor.html#a5b88172770caabfc64e9b7adaee1a2c5" target="_top" xlink:title="view.Editor.Editor">
<polygon fill="white" stroke="black" points="815.5,-38.5 815.5,-57.5 912.5,-57.5 912.5,-38.5 815.5,-38.5"/>
<text text-anchor="middle" x="864" y="-45.5" font-family="Helvetica,sans-Serif" font-size="10.00">view.Editor.Editor</text>
</a>
</g>
</g>
<!-- Node15&#45;&gt;Node16 -->
<g id="edge16" class="edge"><title>Node15&#45;&gt;Node16</title>
<path fill="none" stroke="midnightblue" d="M777.928,-48C790.797,-48 803.683,-48 815.393,-48"/>
<polygon fill="midnightblue" stroke="midnightblue" points="777.634,-44.5001 767.634,-48 777.634,-51.5001 777.634,-44.5001"/>
</g>
<!-- Node18 -->
<g id="node18" class="node"><title>Node18</title>
<g id="a_node18"><a xlink:href="../../d1/dc7/classview_1_1_side_bar.html#aaa1459e91d727b5bd46e51f5b4a596f2" target="_top" xlink:title="view.SideBar.SideBar">
<polygon fill="white" stroke="black" points="635,-0.5 635,-19.5 751,-19.5 751,-0.5 635,-0.5"/>
<text text-anchor="middle" x="693" y="-7.5" font-family="Helvetica,sans-Serif" font-size="10.00">view.SideBar.SideBar</text>
</a>
</g>
</g>
<!-- Node17&#45;&gt;Node18 -->
<g id="edge18" class="edge"><title>Node17&#45;&gt;Node18</title>
<path fill="none" stroke="midnightblue" d="M591.812,-10C606.484,-10 621.271,-10 634.811,-10"/>
<polygon fill="midnightblue" stroke="midnightblue" points="591.689,-6.5001 581.689,-10 591.689,-13.5001 591.689,-6.5001"/>
</g>
</g>
</svg>
