<?xml version="1.0" encoding="UTF-8" standalone="no"?>
<!DOCTYPE svg PUBLIC "-//W3C//DTD SVG 1.1//EN"
 "http://www.w3.org/Graphics/SVG/1.1/DTD/svg11.dtd">
<!-- Generated by graphviz version 2.36.0 (20140111.2315)
 -->
<!-- Title: model.ExecutionEnvironment.updateObserver Pages: 1 -->
<svg width="2018pt" height="403pt"
 viewBox="0.00 0.00 2018.00 403.00" xmlns="http://www.w3.org/2000/svg" xmlns:xlink="http://www.w3.org/1999/xlink">
<g id="graph0" class="graph" transform="scale(1 1) rotate(0) translate(4 399)">
<title>model.ExecutionEnvironment.updateObserver</title>
<polygon fill="white" stroke="none" points="-4,4 -4,-399 2014,-399 2014,4 -4,4"/>
<!-- Node1 -->
<g id="node1" class="node"><title>Node1</title>
<polygon fill="#bfbfbf" stroke="black" points="0,-122 0,-152 194,-152 194,-122 0,-122"/>
<text text-anchor="start" x="8" y="-140" font-family="Helvetica,sans-Serif" font-size="10.00">model.ExecutionEnvironment.update</text>
<text text-anchor="middle" x="97" y="-129" font-family="Helvetica,sans-Serif" font-size="10.00">Observer</text>
</g>
<!-- Node2 -->
<g id="node2" class="node"><title>Node2</title>
<g id="a_node2"><a xlink:href="../../d1/dca/classmodel_1_1_execution_environment.html#a83ef2b9eaef50b67c0b978f2abb8200c" target="_top" xlink:title="model.ExecutionEnvironment.add\lCommand">
<polygon fill="white" stroke="black" points="233,-196 233,-226 411,-226 411,-196 233,-196"/>
<text text-anchor="start" x="241" y="-214" font-family="Helvetica,sans-Serif" font-size="10.00">model.ExecutionEnvironment.add</text>
<text text-anchor="middle" x="322" y="-203" font-family="Helvetica,sans-Serif" font-size="10.00">Command</text>
</a>
</g>
</g>
<!-- Node1&#45;&gt;Node2 -->
<g id="edge1" class="edge"><title>Node1&#45;&gt;Node2</title>
<path fill="none" stroke="midnightblue" d="M145.412,-155.743C170.394,-165.327 201.655,-176.865 230,-186 240.604,-189.418 251.995,-192.783 263.007,-195.884"/>
<polygon fill="midnightblue" stroke="midnightblue" points="146.406,-152.375 135.816,-152.039 143.885,-158.905 146.406,-152.375"/>
</g>
<!-- Node12 -->
<g id="node12" class="node"><title>Node12</title>
<g id="a_node12"><a xlink:href="../../d1/dca/classmodel_1_1_execution_environment.html#a96986e0e8de018fd9b1b2bf79de862e1" target="_top" xlink:title="model.ExecutionEnvironment.add\lTurtle">
<polygon fill="white" stroke="black" points="233,-98 233,-128 411,-128 411,-98 233,-98"/>
<text text-anchor="start" x="241" y="-116" font-family="Helvetica,sans-Serif" font-size="10.00">model.ExecutionEnvironment.add</text>
<text text-anchor="middle" x="322" y="-105" font-family="Helvetica,sans-Serif" font-size="10.00">Turtle</text>
</a>
</g>
</g>
<!-- Node1&#45;&gt;Node12 -->
<g id="edge11" class="edge"><title>Node1&#45;&gt;Node12</title>
<path fill="none" stroke="midnightblue" d="M204.171,-125.574C213.779,-124.54 223.439,-123.5 232.866,-122.485"/>
<polygon fill="midnightblue" stroke="midnightblue" points="203.758,-122.098 194.19,-126.648 204.507,-129.057 203.758,-122.098"/>
</g>
<!-- Node24 -->
<g id="node24" class="node"><title>Node24</title>
<g id="a_node24"><a xlink:href="../../d1/dca/classmodel_1_1_execution_environment.html#a4765560d59fa5a9c8ce4948fc0a8855d" target="_top" xlink:title="model.ExecutionEnvironment.add\lTurtleToActiveList">
<polygon fill="white" stroke="black" points="233,-49 233,-79 411,-79 411,-49 233,-49"/>
<text text-anchor="start" x="241" y="-67" font-family="Helvetica,sans-Serif" font-size="10.00">model.ExecutionEnvironment.add</text>
<text text-anchor="middle" x="322" y="-56" font-family="Helvetica,sans-Serif" font-size="10.00">TurtleToActiveList</text>
</a>
</g>
</g>
<!-- Node1&#45;&gt;Node24 -->
<g id="edge24" class="edge"><title>Node1&#45;&gt;Node24</title>
<path fill="none" stroke="midnightblue" d="M145.102,-118.242C170.119,-108.604 201.506,-97.0224 230,-88 239.813,-84.8927 250.308,-81.8613 260.554,-79.0566"/>
<polygon fill="midnightblue" stroke="midnightblue" points="143.556,-115.088 135.498,-121.967 146.087,-121.614 143.556,-115.088"/>
</g>
<!-- Node25 -->
<g id="node25" class="node"><title>Node25</title>
<g id="a_node25"><a xlink:href="../../d1/dca/classmodel_1_1_execution_environment.html#a3afb09ec1e342a734f59161beca05b0e" target="_top" xlink:title="model.ExecutionEnvironment.add\lVariable">
<polygon fill="white" stroke="black" points="233,-291 233,-321 411,-321 411,-291 233,-291"/>
<text text-anchor="start" x="241" y="-309" font-family="Helvetica,sans-Serif" font-size="10.00">model.ExecutionEnvironment.add</text>
<text text-anchor="middle" x="322" y="-298" font-family="Helvetica,sans-Serif" font-size="10.00">Variable</text>
</a>
</g>
</g>
<!-- Node1&#45;&gt;Node25 -->
<g id="edge26" class="edge"><title>Node1&#45;&gt;Node25</title>
<path fill="none" stroke="midnightblue" d="M126.197,-158.369C171.945,-193.039 261.225,-260.699 301.023,-290.861"/>
<polygon fill="midnightblue" stroke="midnightblue" points="128.267,-155.546 118.183,-152.296 124.039,-161.125 128.267,-155.546"/>
</g>
<!-- Node31 -->
<g id="node31" class="node"><title>Node31</title>
<g id="a_node31"><a xlink:href="../../d1/dca/classmodel_1_1_execution_environment.html#a2360a2c35bcb4879d0799710e7ee55d2" target="_top" xlink:title="model.ExecutionEnvironment.clear\lActiveList">
<polygon fill="white" stroke="black" points="230.5,-0 230.5,-30 413.5,-30 413.5,-0 230.5,-0"/>
<text text-anchor="start" x="238.5" y="-18" font-family="Helvetica,sans-Serif" font-size="10.00">model.ExecutionEnvironment.clear</text>
<text text-anchor="middle" x="322" y="-7" font-family="Helvetica,sans-Serif" font-size="10.00">ActiveList</text>
</a>
</g>
</g>
<!-- Node1&#45;&gt;Node31 -->
<g id="edge35" class="edge"><title>Node1&#45;&gt;Node31</title>
<path fill="none" stroke="midnightblue" d="M121.69,-114.972C146.787,-92.7594 188.454,-58.9796 230,-39 237.068,-35.6011 244.684,-32.633 252.396,-30.0537"/>
<polygon fill="midnightblue" stroke="midnightblue" points="119.249,-112.46 114.146,-121.745 123.925,-117.669 119.249,-112.46"/>
</g>
<!-- Node32 -->
<g id="node32" class="node"><title>Node32</title>
<g id="a_node32"><a xlink:href="../../d1/dca/classmodel_1_1_execution_environment.html#a472ef4da5205b0e95ec51fdbf52f654a" target="_top" xlink:title="model.ExecutionEnvironment.set\lActiveTurtle">
<polygon fill="white" stroke="black" points="234.5,-147 234.5,-177 409.5,-177 409.5,-147 234.5,-147"/>
<text text-anchor="start" x="242.5" y="-165" font-family="Helvetica,sans-Serif" font-size="10.00">model.ExecutionEnvironment.set</text>
<text text-anchor="middle" x="322" y="-154" font-family="Helvetica,sans-Serif" font-size="10.00">ActiveTurtle</text>
</a>
</g>
</g>
<!-- Node1&#45;&gt;Node32 -->
<g id="edge37" class="edge"><title>Node1&#45;&gt;Node32</title>
<path fill="none" stroke="midnightblue" d="M204.224,-148.909C214.289,-150.037 224.412,-151.172 234.263,-152.276"/>
<polygon fill="midnightblue" stroke="midnightblue" points="204.518,-145.42 194.19,-147.784 203.738,-152.376 204.518,-145.42"/>
</g>
<!-- Node3 -->
<g id="node3" class="node"><title>Node3</title>
<g id="a_node3"><a xlink:href="../../d5/dbb/classmodel_1_1instructions_1_1_control_instruction.html#a3fb86527d4ea267d661780b12d33344e" target="_top" xlink:title="model.instructions.Control\lInstruction.addToMap">
<polygon fill="white" stroke="black" points="665.5,-220 665.5,-250 808.5,-250 808.5,-220 665.5,-220"/>
<text text-anchor="start" x="673.5" y="-238" font-family="Helvetica,sans-Serif" font-size="10.00">model.instructions.Control</text>
<text text-anchor="middle" x="737" y="-227" font-family="Helvetica,sans-Serif" font-size="10.00">Instruction.addToMap</text>
</a>
</g>
</g>
<!-- Node2&#45;&gt;Node3 -->
<g id="edge2" class="edge"><title>Node2&#45;&gt;Node3</title>
<path fill="none" stroke="midnightblue" d="M421.497,-216.724C496.525,-221.084 598.024,-226.982 665.179,-230.884"/>
<polygon fill="midnightblue" stroke="midnightblue" points="421.279,-213.205 411.092,-216.119 420.872,-220.193 421.279,-213.205"/>
</g>
<!-- Node5 -->
<g id="node5" class="node"><title>Node5</title>
<g id="a_node5"><a xlink:href="../../dc/df5/classmodel_1_1_parser.html#ae83c95a5190fc22b9b70b1a40b76661c" target="_top" xlink:title="model.Parser.makeTree">
<polygon fill="white" stroke="black" points="470,-188.5 470,-207.5 598,-207.5 598,-188.5 470,-188.5"/>
<text text-anchor="middle" x="534" y="-195.5" font-family="Helvetica,sans-Serif" font-size="10.00">model.Parser.makeTree</text>
</a>
</g>
</g>
<!-- Node2&#45;&gt;Node5 -->
<g id="edge4" class="edge"><title>Node2&#45;&gt;Node5</title>
<path fill="none" stroke="midnightblue" d="M421.39,-204.909C437.911,-203.886 454.652,-202.85 469.966,-201.902"/>
<polygon fill="midnightblue" stroke="midnightblue" points="420.911,-201.432 411.146,-205.543 421.343,-208.419 420.911,-201.432"/>
</g>
<!-- Node4 -->
<g id="node4" class="node"><title>Node4</title>
<g id="a_node4"><a xlink:href="../../d5/dbb/classmodel_1_1instructions_1_1_control_instruction.html#a5ec77a176debc7a35ce9026c808d021e" target="_top" xlink:title="model.instructions.Control\lInstruction.execute">
<polygon fill="white" stroke="black" points="872.5,-269 872.5,-299 1015.5,-299 1015.5,-269 872.5,-269"/>
<text text-anchor="start" x="880.5" y="-287" font-family="Helvetica,sans-Serif" font-size="10.00">model.instructions.Control</text>
<text text-anchor="middle" x="944" y="-276" font-family="Helvetica,sans-Serif" font-size="10.00">Instruction.execute</text>
</a>
</g>
</g>
<!-- Node3&#45;&gt;Node4 -->
<g id="edge3" class="edge"><title>Node3&#45;&gt;Node4</title>
<path fill="none" stroke="midnightblue" d="M810.812,-252.404C833.49,-257.824 858.289,-263.752 880.219,-268.994"/>
<polygon fill="midnightblue" stroke="midnightblue" points="811.44,-248.955 800.9,-250.035 809.812,-255.764 811.44,-248.955"/>
</g>
<!-- Node6 -->
<g id="node6" class="node"><title>Node6</title>
<g id="a_node6"><a xlink:href="../../dc/df5/classmodel_1_1_parser.html#ab83c099e5a13c82b1a12d7eedda6fbf9" target="_top" xlink:title="model.Parser.parseAndExecute">
<polygon fill="white" stroke="black" points="654,-181.5 654,-200.5 820,-200.5 820,-181.5 654,-181.5"/>
<text text-anchor="middle" x="737" y="-188.5" font-family="Helvetica,sans-Serif" font-size="10.00">model.Parser.parseAndExecute</text>
</a>
</g>
</g>
<!-- Node5&#45;&gt;Node6 -->
<g id="edge5" class="edge"><title>Node5&#45;&gt;Node6</title>
<path fill="none" stroke="midnightblue" d="M608.193,-195.451C623.075,-194.933 638.821,-194.384 653.985,-193.856"/>
<polygon fill="midnightblue" stroke="midnightblue" points="607.918,-191.958 598.046,-195.804 608.162,-198.954 607.918,-191.958"/>
</g>
<!-- Node7 -->
<g id="node7" class="node"><title>Node7</title>
<g id="a_node7"><a xlink:href="../../da/dc8/classview_1_1_editor.html#a149e24d4e5e4464f3fb1601f2717663b" target="_top" xlink:title="view.Editor.parse">
<polygon fill="white" stroke="black" points="896,-181.5 896,-200.5 992,-200.5 992,-181.5 896,-181.5"/>
<text text-anchor="middle" x="944" y="-188.5" font-family="Helvetica,sans-Serif" font-size="10.00">view.Editor.parse</text>
</a>
</g>
</g>
<!-- Node6&#45;&gt;Node7 -->
<g id="edge6" class="edge"><title>Node6&#45;&gt;Node7</title>
<path fill="none" stroke="midnightblue" d="M830.225,-191C852.94,-191 876.334,-191 895.886,-191"/>
<polygon fill="midnightblue" stroke="midnightblue" points="830.2,-187.5 820.2,-191 830.2,-194.5 830.2,-187.5"/>
</g>
<!-- Node10 -->
<g id="node10" class="node"><title>Node10</title>
<g id="a_node10"><a xlink:href="../../d1/dc7/classview_1_1_side_bar.html#ac97dbdf731a291e46ba643c78b4c5a93" target="_top" xlink:title="view.SideBar.createHistoryPane">
<polygon fill="white" stroke="black" points="860.5,-224.5 860.5,-243.5 1027.5,-243.5 1027.5,-224.5 860.5,-224.5"/>
<text text-anchor="middle" x="944" y="-231.5" font-family="Helvetica,sans-Serif" font-size="10.00">view.SideBar.createHistoryPane</text>
</a>
</g>
</g>
<!-- Node6&#45;&gt;Node10 -->
<g id="edge9" class="edge"><title>Node6&#45;&gt;Node10</title>
<path fill="none" stroke="midnightblue" d="M793.354,-202.611C826.027,-209.464 866.872,-218.032 897.631,-224.484"/>
<polygon fill="midnightblue" stroke="midnightblue" points="794.002,-199.171 783.496,-200.543 792.565,-206.022 794.002,-199.171"/>
</g>
<!-- Node8 -->
<g id="node8" class="node"><title>Node8</title>
<g id="a_node8"><a xlink:href="../../da/dc8/classview_1_1_editor.html#abd790752cfd8c9f01fb5b27a3680a982" target="_top" xlink:title="view.Editor.createRunButton">
<polygon fill="white" stroke="black" points="1068.5,-181.5 1068.5,-200.5 1217.5,-200.5 1217.5,-181.5 1068.5,-181.5"/>
<text text-anchor="middle" x="1143" y="-188.5" font-family="Helvetica,sans-Serif" font-size="10.00">view.Editor.createRunButton</text>
</a>
</g>
</g>
<!-- Node7&#45;&gt;Node8 -->
<g id="edge7" class="edge"><title>Node7&#45;&gt;Node8</title>
<path fill="none" stroke="midnightblue" d="M1002.35,-191C1022.95,-191 1046.47,-191 1068.27,-191"/>
<polygon fill="midnightblue" stroke="midnightblue" points="1002.19,-187.5 992.186,-191 1002.19,-194.5 1002.19,-187.5"/>
</g>
<!-- Node9 -->
<g id="node9" class="node"><title>Node9</title>
<g id="a_node9"><a xlink:href="../../da/dc8/classview_1_1_editor.html#a5b88172770caabfc64e9b7adaee1a2c5" target="_top" xlink:title="view.Editor.Editor">
<polygon fill="white" stroke="black" points="1291.5,-181.5 1291.5,-200.5 1388.5,-200.5 1388.5,-181.5 1291.5,-181.5"/>
<text text-anchor="middle" x="1340" y="-188.5" font-family="Helvetica,sans-Serif" font-size="10.00">view.Editor.Editor</text>
</a>
</g>
</g>
<!-- Node8&#45;&gt;Node9 -->
<g id="edge8" class="edge"><title>Node8&#45;&gt;Node9</title>
<path fill="none" stroke="midnightblue" d="M1227.96,-191C1249.68,-191 1272.31,-191 1291.44,-191"/>
<polygon fill="midnightblue" stroke="midnightblue" points="1227.72,-187.5 1217.72,-191 1227.72,-194.5 1227.72,-187.5"/>
</g>
<!-- Node11 -->
<g id="node11" class="node"><title>Node11</title>
<g id="a_node11"><a xlink:href="../../d1/dc7/classview_1_1_side_bar.html#aaa1459e91d727b5bd46e51f5b4a596f2" target="_top" xlink:title="view.SideBar.SideBar">
<polygon fill="white" stroke="black" points="1085,-224.5 1085,-243.5 1201,-243.5 1201,-224.5 1085,-224.5"/>
<text text-anchor="middle" x="1143" y="-231.5" font-family="Helvetica,sans-Serif" font-size="10.00">view.SideBar.SideBar</text>
</a>
</g>
</g>
<!-- Node10&#45;&gt;Node11 -->
<g id="edge10" class="edge"><title>Node10&#45;&gt;Node11</title>
<path fill="none" stroke="midnightblue" d="M1038.14,-234C1054.11,-234 1070.27,-234 1084.93,-234"/>
<polygon fill="midnightblue" stroke="midnightblue" points="1037.69,-230.5 1027.69,-234 1037.69,-237.5 1037.69,-230.5"/>
</g>
<!-- Node13 -->
<g id="node13" class="node"><title>Node13</title>
<g id="a_node13"><a xlink:href="../../da/d64/classview_1_1_workspace.html#a4abde41a3048fa8f64ddfec40c8ffdb7" target="_top" xlink:title="view.Workspace.addTurtle">
<polygon fill="white" stroke="black" points="465.5,-107.5 465.5,-126.5 602.5,-126.5 602.5,-107.5 465.5,-107.5"/>
<text text-anchor="middle" x="534" y="-114.5" font-family="Helvetica,sans-Serif" font-size="10.00">view.Workspace.addTurtle</text>
</a>
</g>
</g>
<!-- Node12&#45;&gt;Node13 -->
<g id="edge12" class="edge"><title>Node12&#45;&gt;Node13</title>
<path fill="none" stroke="midnightblue" d="M421.369,-114.874C436.197,-115.156 451.202,-115.442 465.195,-115.708"/>
<polygon fill="midnightblue" stroke="midnightblue" points="421.211,-111.37 411.146,-114.679 421.078,-118.369 421.211,-111.37"/>
</g>
<!-- Node23 -->
<g id="node23" class="node"><title>Node23</title>
<g id="a_node23"><a xlink:href="../../dc/dbe/classmodel_1_1instructions_1_1_multiple_turtles_instruction.html#a592a35330637d1bd6edfe4476163e0a1" target="_top" xlink:title="model.instructions.Multiple\lTurtlesInstruction.execute">
<polygon fill="white" stroke="black" points="461.5,-53 461.5,-83 606.5,-83 606.5,-53 461.5,-53"/>
<text text-anchor="start" x="469.5" y="-71" font-family="Helvetica,sans-Serif" font-size="10.00">model.instructions.Multiple</text>
<text text-anchor="middle" x="534" y="-60" font-family="Helvetica,sans-Serif" font-size="10.00">TurtlesInstruction.execute</text>
</a>
</g>
</g>
<!-- Node12&#45;&gt;Node23 -->
<g id="edge23" class="edge"><title>Node12&#45;&gt;Node23</title>
<path fill="none" stroke="midnightblue" d="M403.073,-95.8414C422.754,-91.6241 443.675,-87.1411 462.847,-83.0327"/>
<polygon fill="midnightblue" stroke="midnightblue" points="402.264,-92.4354 393.219,-97.9531 403.73,-99.28 402.264,-92.4354"/>
</g>
<!-- Node14 -->
<g id="node14" class="node"><title>Node14</title>
<g id="a_node14"><a xlink:href="../../d6/de7/classview_1_1_s_logo_view.html#acf432f20e1a7dda7bef97f0619fb0fa5" target="_top" xlink:title="view.SLogoView.configure\lAddTurtlesButton">
<polygon fill="white" stroke="black" points="668.5,-107 668.5,-137 805.5,-137 805.5,-107 668.5,-107"/>
<text text-anchor="start" x="676.5" y="-125" font-family="Helvetica,sans-Serif" font-size="10.00">view.SLogoView.configure</text>
<text text-anchor="middle" x="737" y="-114" font-family="Helvetica,sans-Serif" font-size="10.00">AddTurtlesButton</text>
</a>
</g>
</g>
<!-- Node13&#45;&gt;Node14 -->
<g id="edge13" class="edge"><title>Node13&#45;&gt;Node14</title>
<path fill="none" stroke="midnightblue" d="M612.794,-118.935C631.064,-119.39 650.391,-119.87 668.183,-120.313"/>
<polygon fill="midnightblue" stroke="midnightblue" points="612.853,-115.436 602.769,-118.686 612.679,-122.433 612.853,-115.436"/>
</g>
<!-- Node22 -->
<g id="node22" class="node"><title>Node22</title>
<g id="a_node22"><a xlink:href="../../da/d64/classview_1_1_workspace.html#abbd85b844575ebab6643ba4ddc5a1612" target="_top" xlink:title="view.Workspace.Workspace">
<polygon fill="white" stroke="black" points="665,-68.5 665,-87.5 809,-87.5 809,-68.5 665,-68.5"/>
<text text-anchor="middle" x="737" y="-75.5" font-family="Helvetica,sans-Serif" font-size="10.00">view.Workspace.Workspace</text>
</a>
</g>
</g>
<!-- Node13&#45;&gt;Node22 -->
<g id="edge22" class="edge"><title>Node13&#45;&gt;Node22</title>
<path fill="none" stroke="midnightblue" d="M594.343,-105.486C623.838,-99.7627 659.051,-92.9304 686.99,-87.5095"/>
<polygon fill="midnightblue" stroke="midnightblue" points="593.32,-102.119 584.17,-107.46 594.654,-108.991 593.32,-102.119"/>
</g>
<!-- Node15 -->
<g id="node15" class="node"><title>Node15</title>
<g id="a_node15"><a xlink:href="../../d6/de7/classview_1_1_s_logo_view.html#ae0050481c9168dd8eeb434d9aa79b047" target="_top" xlink:title="view.SLogoView.configureUI">
<polygon fill="white" stroke="black" points="870.5,-112.5 870.5,-131.5 1017.5,-131.5 1017.5,-112.5 870.5,-112.5"/>
<text text-anchor="middle" x="944" y="-119.5" font-family="Helvetica,sans-Serif" font-size="10.00">view.SLogoView.configureUI</text>
</a>
</g>
</g>
<!-- Node14&#45;&gt;Node15 -->
<g id="edge14" class="edge"><title>Node14&#45;&gt;Node15</title>
<path fill="none" stroke="midnightblue" d="M815.817,-122C833.746,-122 852.747,-122 870.443,-122"/>
<polygon fill="midnightblue" stroke="midnightblue" points="815.693,-118.5 805.693,-122 815.693,-125.5 815.693,-118.5"/>
</g>
<!-- Node16 -->
<g id="node16" class="node"><title>Node16</title>
<g id="a_node16"><a xlink:href="../../d1/d75/classview_1_1_main_view.html#ade3718ede33fa2086649c8b3cf75d2f9" target="_top" xlink:title="view.MainView.initTabs">
<polygon fill="white" stroke="black" points="1487.5,-134.5 1487.5,-153.5 1608.5,-153.5 1608.5,-134.5 1487.5,-134.5"/>
<text text-anchor="middle" x="1548" y="-141.5" font-family="Helvetica,sans-Serif" font-size="10.00">view.MainView.initTabs</text>
</a>
</g>
</g>
<!-- Node15&#45;&gt;Node16 -->
<g id="edge15" class="edge"><title>Node15&#45;&gt;Node16</title>
<path fill="none" stroke="midnightblue" d="M1027.74,-125.024C1150.79,-129.521 1379.1,-137.864 1487.23,-141.816"/>
<polygon fill="midnightblue" stroke="midnightblue" points="1027.74,-121.521 1017.62,-124.654 1027.48,-128.517 1027.74,-121.521"/>
</g>
<!-- Node18 -->
<g id="node18" class="node"><title>Node18</title>
<g id="a_node18"><a xlink:href="../../d1/d75/classview_1_1_main_view.html#a39a2b399924a553ccd89dd2a2e6ea208" target="_top" xlink:title="view.MainView.newTab">
<polygon fill="white" stroke="black" points="1083,-96.5 1083,-115.5 1203,-115.5 1203,-96.5 1083,-96.5"/>
<text text-anchor="middle" x="1143" y="-103.5" font-family="Helvetica,sans-Serif" font-size="10.00">view.MainView.newTab</text>
</a>
</g>
</g>
<!-- Node15&#45;&gt;Node18 -->
<g id="edge17" class="edge"><title>Node15&#45;&gt;Node18</title>
<path fill="none" stroke="midnightblue" d="M1027.71,-115.283C1046.23,-113.778 1065.51,-112.212 1082.85,-110.804"/>
<polygon fill="midnightblue" stroke="midnightblue" points="1027.2,-111.812 1017.52,-116.11 1027.77,-118.789 1027.2,-111.812"/>
</g>
<!-- Node17 -->
<g id="node17" class="node"><title>Node17</title>
<g id="a_node17"><a xlink:href="../../d1/d75/classview_1_1_main_view.html#a9e27015c007bed90f32c79fc1187083f" target="_top" xlink:title="view.MainView.MainView">
<polygon fill="white" stroke="black" points="1880,-115.5 1880,-134.5 2010,-134.5 2010,-115.5 1880,-115.5"/>
<text text-anchor="middle" x="1945" y="-122.5" font-family="Helvetica,sans-Serif" font-size="10.00">view.MainView.MainView</text>
</a>
</g>
</g>
<!-- Node16&#45;&gt;Node17 -->
<g id="edge16" class="edge"><title>Node16&#45;&gt;Node17</title>
<path fill="none" stroke="midnightblue" d="M1618.69,-140.648C1692.48,-137.098 1808,-131.542 1879.68,-128.094"/>
<polygon fill="midnightblue" stroke="midnightblue" points="1618.38,-137.158 1608.56,-141.135 1618.72,-144.15 1618.38,-137.158"/>
</g>
<!-- Node19 -->
<g id="node19" class="node"><title>Node19</title>
<g id="a_node19"><a xlink:href="../../d1/d75/classview_1_1_main_view.html#a0424800b5057be73f94e16ef2e1e2b33" target="_top" xlink:title="view.MainView.configureFileMenu">
<polygon fill="white" stroke="black" points="1254.5,-96.5 1254.5,-115.5 1425.5,-115.5 1425.5,-96.5 1254.5,-96.5"/>
<text text-anchor="middle" x="1340" y="-103.5" font-family="Helvetica,sans-Serif" font-size="10.00">view.MainView.configureFileMenu</text>
</a>
</g>
</g>
<!-- Node18&#45;&gt;Node19 -->
<g id="edge18" class="edge"><title>Node18&#45;&gt;Node19</title>
<path fill="none" stroke="midnightblue" d="M1213.06,-106C1226.39,-106 1240.5,-106 1254.27,-106"/>
<polygon fill="midnightblue" stroke="midnightblue" points="1213.04,-102.5 1203.04,-106 1213.04,-109.5 1213.04,-102.5"/>
</g>
<!-- Node20 -->
<g id="node20" class="node"><title>Node20</title>
<g id="a_node20"><a xlink:href="../../d1/d75/classview_1_1_main_view.html#a200c2c8e08e038e2ea86acc40c17d8d2" target="_top" xlink:title="view.MainView.configureTopMenu">
<polygon fill="white" stroke="black" points="1462,-96.5 1462,-115.5 1634,-115.5 1634,-96.5 1462,-96.5"/>
<text text-anchor="middle" x="1548" y="-103.5" font-family="Helvetica,sans-Serif" font-size="10.00">view.MainView.configureTopMenu</text>
</a>
</g>
</g>
<!-- Node19&#45;&gt;Node20 -->
<g id="edge19" class="edge"><title>Node19&#45;&gt;Node20</title>
<path fill="none" stroke="midnightblue" d="M1435.86,-106C1444.57,-106 1453.36,-106 1461.98,-106"/>
<polygon fill="midnightblue" stroke="midnightblue" points="1435.68,-102.5 1425.68,-106 1435.68,-109.5 1435.68,-102.5"/>
</g>
<!-- Node21 -->
<g id="node21" class="node"><title>Node21</title>
<g id="a_node21"><a xlink:href="../../d1/d75/classview_1_1_main_view.html#aff9e267e9368512a16e425f08d7b3ea0" target="_top" xlink:title="view.MainView.initRowConstraints">
<polygon fill="white" stroke="black" points="1670.5,-96.5 1670.5,-115.5 1843.5,-115.5 1843.5,-96.5 1670.5,-96.5"/>
<text text-anchor="middle" x="1757" y="-103.5" font-family="Helvetica,sans-Serif" font-size="10.00">view.MainView.initRowConstraints</text>
</a>
</g>
</g>
<!-- Node20&#45;&gt;Node21 -->
<g id="edge20" class="edge"><title>Node20&#45;&gt;Node21</title>
<path fill="none" stroke="midnightblue" d="M1644.22,-106C1652.9,-106 1661.65,-106 1670.24,-106"/>
<polygon fill="midnightblue" stroke="midnightblue" points="1644.09,-102.5 1634.09,-106 1644.09,-109.5 1644.09,-102.5"/>
</g>
<!-- Node21&#45;&gt;Node17 -->
<g id="edge21" class="edge"><title>Node21&#45;&gt;Node17</title>
<path fill="none" stroke="midnightblue" d="M1853.68,-115.774C1862.57,-116.682 1871.43,-117.587 1879.92,-118.455"/>
<polygon fill="midnightblue" stroke="midnightblue" points="1853.95,-112.284 1843.65,-114.749 1853.24,-119.247 1853.95,-112.284"/>
</g>
<!-- Node24&#45;&gt;Node23 -->
<g id="edge25" class="edge"><title>Node24&#45;&gt;Node23</title>
<path fill="none" stroke="midnightblue" d="M421.395,-65.8742C434.854,-66.1306 448.459,-66.3897 461.319,-66.6346"/>
<polygon fill="midnightblue" stroke="midnightblue" points="421.211,-62.3701 411.146,-65.679 421.078,-69.3689 421.211,-62.3701"/>
</g>
<!-- Node26 -->
<g id="node26" class="node"><title>Node26</title>
<g id="a_node26"><a xlink:href="../../d1/dc7/classview_1_1_side_bar.html#aa92fe508daefb3ce28e76bf9e0314409" target="_top" xlink:title="view.SideBar.createVariable\lColumns">
<polygon fill="white" stroke="black" points="460,-365 460,-395 608,-395 608,-365 460,-365"/>
<text text-anchor="start" x="468" y="-383" font-family="Helvetica,sans-Serif" font-size="10.00">view.SideBar.createVariable</text>
<text text-anchor="middle" x="534" y="-372" font-family="Helvetica,sans-Serif" font-size="10.00">Columns</text>
</a>
</g>
</g>
<!-- Node25&#45;&gt;Node26 -->
<g id="edge27" class="edge"><title>Node25&#45;&gt;Node26</title>
<path fill="none" stroke="midnightblue" d="M369.227,-324.804C393.174,-334.297 422.985,-345.735 450,-355 459.965,-358.418 470.686,-361.835 481.004,-364.998"/>
<polygon fill="midnightblue" stroke="midnightblue" points="370.271,-321.452 359.685,-321.001 367.679,-327.955 370.271,-321.452"/>
</g>
<!-- Node28 -->
<g id="node28" class="node"><title>Node28</title>
<g id="a_node28"><a xlink:href="../../d9/d13/classmodel_1_1instructions_1_1_user_running_instruction.html#aa0e048b0bbca8aaddd3ea84bd0cf7bf7" target="_top" xlink:title="model.instructions.UserRunning\lInstruction.execute">
<polygon fill="white" stroke="black" points="450,-316 450,-346 618,-346 618,-316 450,-316"/>
<text text-anchor="start" x="458" y="-334" font-family="Helvetica,sans-Serif" font-size="10.00">model.instructions.UserRunning</text>
<text text-anchor="middle" x="534" y="-323" font-family="Helvetica,sans-Serif" font-size="10.00">Instruction.execute</text>
</a>
</g>
</g>
<!-- Node25&#45;&gt;Node28 -->
<g id="edge30" class="edge"><title>Node25&#45;&gt;Node28</title>
<path fill="none" stroke="midnightblue" d="M421.098,-317.678C430.687,-318.82 440.353,-319.971 449.775,-321.092"/>
<polygon fill="midnightblue" stroke="midnightblue" points="421.49,-314.2 411.146,-316.494 420.662,-321.151 421.49,-314.2"/>
</g>
<!-- Node29 -->
<g id="node29" class="node"><title>Node29</title>
<g id="a_node29"><a xlink:href="../../d5/dbb/classmodel_1_1instructions_1_1_control_instruction.html#a738157283e6cd27e99b991d1e70258f6" target="_top" xlink:title="model.instructions.Control\lInstruction.makeVariable">
<polygon fill="white" stroke="black" points="462.5,-267 462.5,-297 605.5,-297 605.5,-267 462.5,-267"/>
<text text-anchor="start" x="470.5" y="-285" font-family="Helvetica,sans-Serif" font-size="10.00">model.instructions.Control</text>
<text text-anchor="middle" x="534" y="-274" font-family="Helvetica,sans-Serif" font-size="10.00">Instruction.makeVariable</text>
</a>
</g>
</g>
<!-- Node25&#45;&gt;Node29 -->
<g id="edge31" class="edge"><title>Node25&#45;&gt;Node29</title>
<path fill="none" stroke="midnightblue" d="M421.199,-294.777C435.062,-293.193 449.084,-291.59 462.292,-290.081"/>
<polygon fill="midnightblue" stroke="midnightblue" points="420.684,-291.313 411.146,-295.926 421.479,-298.268 420.684,-291.313"/>
</g>
<!-- Node27 -->
<g id="node27" class="node"><title>Node27</title>
<g id="a_node27"><a xlink:href="../../d1/dc7/classview_1_1_side_bar.html#a4d3c67d26a035d35d92c0234f89f6796" target="_top" xlink:title="view.SideBar.createVariablesPane">
<polygon fill="white" stroke="black" points="856,-340.5 856,-359.5 1032,-359.5 1032,-340.5 856,-340.5"/>
<text text-anchor="middle" x="944" y="-347.5" font-family="Helvetica,sans-Serif" font-size="10.00">view.SideBar.createVariablesPane</text>
</a>
</g>
</g>
<!-- Node26&#45;&gt;Node27 -->
<g id="edge28" class="edge"><title>Node26&#45;&gt;Node27</title>
<path fill="none" stroke="midnightblue" d="M618.396,-373.868C687.515,-368.786 785.454,-361.584 855.645,-356.423"/>
<polygon fill="midnightblue" stroke="midnightblue" points="618.13,-370.378 608.413,-374.602 618.643,-377.359 618.13,-370.378"/>
</g>
<!-- Node27&#45;&gt;Node11 -->
<g id="edge29" class="edge"><title>Node27&#45;&gt;Node11</title>
<path fill="none" stroke="midnightblue" d="M976.265,-336.22C993.081,-328.483 1014,-318.328 1032,-308 1068.53,-287.036 1109.04,-258.23 1129.18,-243.506"/>
<polygon fill="midnightblue" stroke="midnightblue" points="974.549,-333.155 966.892,-340.479 977.444,-339.528 974.549,-333.155"/>
</g>
<!-- Node29&#45;&gt;Node4 -->
<g id="edge32" class="edge"><title>Node29&#45;&gt;Node4</title>
<path fill="none" stroke="midnightblue" d="M601.609,-299.193C618.577,-302.842 636.864,-306.15 654,-308 727.351,-315.92 746.564,-315.098 820,-308 839.057,-306.158 859.547,-302.747 878.232,-299.062"/>
<polygon fill="midnightblue" stroke="midnightblue" points="602.311,-295.764 591.79,-297.013 600.794,-302.597 602.311,-295.764"/>
</g>
<!-- Node30 -->
<g id="node30" class="node"><title>Node30</title>
<g id="a_node30"><a xlink:href="../../d5/dbb/classmodel_1_1instructions_1_1_control_instruction.html#afdbf98dbab1ed6b6ace9a1773299eb30" target="_top" xlink:title="model.instructions.Control\lInstruction.forLoop">
<polygon fill="white" stroke="black" points="665.5,-269 665.5,-299 808.5,-299 808.5,-269 665.5,-269"/>
<text text-anchor="start" x="673.5" y="-287" font-family="Helvetica,sans-Serif" font-size="10.00">model.instructions.Control</text>
<text text-anchor="middle" x="737" y="-276" font-family="Helvetica,sans-Serif" font-size="10.00">Instruction.forLoop</text>
</a>
</g>
</g>
<!-- Node29&#45;&gt;Node30 -->
<g id="edge33" class="edge"><title>Node29&#45;&gt;Node30</title>
<path fill="none" stroke="midnightblue" d="M615.684,-282.803C632.086,-282.966 649.222,-283.137 665.248,-283.296"/>
<polygon fill="midnightblue" stroke="midnightblue" points="615.617,-279.302 605.582,-282.702 615.547,-286.302 615.617,-279.302"/>
</g>
<!-- Node30&#45;&gt;Node4 -->
<g id="edge34" class="edge"><title>Node30&#45;&gt;Node4</title>
<path fill="none" stroke="midnightblue" d="M818.834,-284C836.507,-284 855.08,-284 872.321,-284"/>
<polygon fill="midnightblue" stroke="midnightblue" points="818.549,-280.5 808.549,-284 818.549,-287.5 818.549,-280.5"/>
</g>
<!-- Node31&#45;&gt;Node23 -->
<g id="edge36" class="edge"><title>Node31&#45;&gt;Node23</title>
<path fill="none" stroke="midnightblue" d="M392.454,-32.5288C418.59,-39.1251 448.058,-46.5622 473.235,-52.9165"/>
<polygon fill="midnightblue" stroke="midnightblue" points="393.168,-29.0995 382.616,-30.0459 391.455,-35.8866 393.168,-29.0995"/>
</g>
<!-- Node32&#45;&gt;Node6 -->
<g id="edge40" class="edge"><title>Node32&#45;&gt;Node6</title>
<path fill="none" stroke="midnightblue" d="M419.744,-166.506C477.363,-169.456 551.909,-173.738 618,-179 629.598,-179.923 641.824,-181.024 653.836,-182.178"/>
<polygon fill="midnightblue" stroke="midnightblue" points="419.718,-163 409.554,-165.989 419.363,-169.991 419.718,-163"/>
</g>
<!-- Node32&#45;&gt;Node13 -->
<g id="edge38" class="edge"><title>Node32&#45;&gt;Node13</title>
<path fill="none" stroke="midnightblue" d="M403.32,-144.789C432.234,-138.593 463.795,-131.83 488.541,-126.527"/>
<polygon fill="midnightblue" stroke="midnightblue" points="402.264,-141.435 393.219,-146.953 403.73,-148.28 402.264,-141.435"/>
</g>
<!-- Node32&#45;&gt;Node23 -->
<g id="edge39" class="edge"><title>Node32&#45;&gt;Node23</title>
<path fill="none" stroke="midnightblue" d="M403.197,-142.786C406.933,-141.021 410.556,-139.096 414,-137 434.15,-124.736 430.348,-111.048 450,-98 458.935,-92.0675 469.19,-87.1363 479.374,-83.1024"/>
<polygon fill="midnightblue" stroke="midnightblue" points="401.525,-139.696 393.718,-146.858 404.287,-146.127 401.525,-139.696"/>
</g>
</g>
</svg>
