<?xml version="1.0" encoding="UTF-8" standalone="no"?>
<!DOCTYPE svg PUBLIC "-//W3C//DTD SVG 1.1//EN"
 "http://www.w3.org/Graphics/SVG/1.1/DTD/svg11.dtd">
<!-- Generated by graphviz version 2.36.0 (20140111.2315)
 -->
<!-- Title: model.ExecutionEnvironment.getUserCommandMap Pages: 1 -->
<svg width="1082pt" height="85pt"
 viewBox="0.00 0.00 1082.00 85.00" xmlns="http://www.w3.org/2000/svg" xmlns:xlink="http://www.w3.org/1999/xlink">
<g id="graph0" class="graph" transform="scale(1 1) rotate(0) translate(4 81)">
<title>model.ExecutionEnvironment.getUserCommandMap</title>
<polygon fill="white" stroke="none" points="-4,4 -4,-81 1078,-81 1078,4 -4,4"/>
<!-- Node1 -->
<g id="node1" class="node"><title>Node1</title>
<polygon fill="#bfbfbf" stroke="black" points="0,-14 0,-44 176,-44 176,-14 0,-14"/>
<text text-anchor="start" x="8" y="-32" font-family="Helvetica,sans-Serif" font-size="10.00">model.ExecutionEnvironment.get</text>
<text text-anchor="middle" x="88" y="-21" font-family="Helvetica,sans-Serif" font-size="10.00">UserCommandMap</text>
</g>
<!-- Node2 -->
<g id="node2" class="node"><title>Node2</title>
<g id="a_node2"><a xlink:href="../../dc/df5/classmodel_1_1_parser.html#ae83c95a5190fc22b9b70b1a40b76661c" target="_top" xlink:title="model.Parser.makeTree">
<polygon fill="white" stroke="black" points="216,-38.5 216,-57.5 344,-57.5 344,-38.5 216,-38.5"/>
<text text-anchor="middle" x="280" y="-45.5" font-family="Helvetica,sans-Serif" font-size="10.00">model.Parser.makeTree</text>
</a>
</g>
</g>
<!-- Node1&#45;&gt;Node2 -->
<g id="edge1" class="edge"><title>Node1&#45;&gt;Node2</title>
<path fill="none" stroke="midnightblue" d="M186.261,-38.7261C196.312,-39.7312 206.329,-40.7329 215.863,-41.6863"/>
<polygon fill="midnightblue" stroke="midnightblue" points="186.513,-35.234 176.215,-37.7215 185.817,-42.1992 186.513,-35.234"/>
</g>
<!-- Node9 -->
<g id="node9" class="node"><title>Node9</title>
<g id="a_node9"><a xlink:href="../../d4/d64/classview_1_1_view_updater.html#aa4cfbf2ecad29abda8cd3aaff891539a" target="_top" xlink:title="view.ViewUpdater.update">
<polygon fill="white" stroke="black" points="212,-0.5 212,-19.5 348,-19.5 348,-0.5 212,-0.5"/>
<text text-anchor="middle" x="280" y="-7.5" font-family="Helvetica,sans-Serif" font-size="10.00">view.ViewUpdater.update</text>
</a>
</g>
</g>
<!-- Node1&#45;&gt;Node9 -->
<g id="edge8" class="edge"><title>Node1&#45;&gt;Node9</title>
<path fill="none" stroke="midnightblue" d="M186.361,-19.2639C195.009,-18.3991 203.631,-17.5369 211.94,-16.706"/>
<polygon fill="midnightblue" stroke="midnightblue" points="185.817,-15.8008 176.215,-20.2785 186.513,-22.766 185.817,-15.8008"/>
</g>
<!-- Node3 -->
<g id="node3" class="node"><title>Node3</title>
<g id="a_node3"><a xlink:href="../../dc/df5/classmodel_1_1_parser.html#ab83c099e5a13c82b1a12d7eedda6fbf9" target="_top" xlink:title="model.Parser.parseAndExecute">
<polygon fill="white" stroke="black" points="384,-38.5 384,-57.5 550,-57.5 550,-38.5 384,-38.5"/>
<text text-anchor="middle" x="467" y="-45.5" font-family="Helvetica,sans-Serif" font-size="10.00">model.Parser.parseAndExecute</text>
</a>
</g>
</g>
<!-- Node2&#45;&gt;Node3 -->
<g id="edge2" class="edge"><title>Node2&#45;&gt;Node3</title>
<path fill="none" stroke="midnightblue" d="M354.173,-48C363.914,-48 373.955,-48 383.836,-48"/>
<polygon fill="midnightblue" stroke="midnightblue" points="354.149,-44.5001 344.149,-48 354.149,-51.5001 354.149,-44.5001"/>
</g>
<!-- Node4 -->
<g id="node4" class="node"><title>Node4</title>
<g id="a_node4"><a xlink:href="../../da/dc8/classview_1_1_editor.html#a149e24d4e5e4464f3fb1601f2717663b" target="_top" xlink:title="view.Editor.parse">
<polygon fill="white" stroke="black" points="622,-57.5 622,-76.5 718,-76.5 718,-57.5 622,-57.5"/>
<text text-anchor="middle" x="670" y="-64.5" font-family="Helvetica,sans-Serif" font-size="10.00">view.Editor.parse</text>
</a>
</g>
</g>
<!-- Node3&#45;&gt;Node4 -->
<g id="edge3" class="edge"><title>Node3&#45;&gt;Node4</title>
<path fill="none" stroke="midnightblue" d="M560.131,-56.7089C581.474,-58.7264 603.324,-60.7918 621.795,-62.5378"/>
<polygon fill="midnightblue" stroke="midnightblue" points="560.329,-53.2121 550.044,-55.7554 559.671,-60.1811 560.329,-53.2121"/>
</g>
<!-- Node7 -->
<g id="node7" class="node"><title>Node7</title>
<g id="a_node7"><a xlink:href="../../d1/dc7/classview_1_1_side_bar.html#ac97dbdf731a291e46ba643c78b4c5a93" target="_top" xlink:title="view.SideBar.createHistoryPane">
<polygon fill="white" stroke="black" points="586.5,-19.5 586.5,-38.5 753.5,-38.5 753.5,-19.5 586.5,-19.5"/>
<text text-anchor="middle" x="670" y="-26.5" font-family="Helvetica,sans-Serif" font-size="10.00">view.SideBar.createHistoryPane</text>
</a>
</g>
</g>
<!-- Node3&#45;&gt;Node7 -->
<g id="edge6" class="edge"><title>Node3&#45;&gt;Node7</title>
<path fill="none" stroke="midnightblue" d="M560.189,-39.2856C568.877,-38.4644 577.648,-37.6353 586.241,-36.823"/>
<polygon fill="midnightblue" stroke="midnightblue" points="559.671,-35.8189 550.044,-40.2446 560.329,-42.7879 559.671,-35.8189"/>
</g>
<!-- Node5 -->
<g id="node5" class="node"><title>Node5</title>
<g id="a_node5"><a xlink:href="../../da/dc8/classview_1_1_editor.html#abd790752cfd8c9f01fb5b27a3680a982" target="_top" xlink:title="view.Editor.createRunButton">
<polygon fill="white" stroke="black" points="790.5,-57.5 790.5,-76.5 939.5,-76.5 939.5,-57.5 790.5,-57.5"/>
<text text-anchor="middle" x="865" y="-64.5" font-family="Helvetica,sans-Serif" font-size="10.00">view.Editor.createRunButton</text>
</a>
</g>
</g>
<!-- Node4&#45;&gt;Node5 -->
<g id="edge4" class="edge"><title>Node4&#45;&gt;Node5</title>
<path fill="none" stroke="midnightblue" d="M728.4,-67C747.791,-67 769.718,-67 790.198,-67"/>
<polygon fill="midnightblue" stroke="midnightblue" points="728.213,-63.5001 718.213,-67 728.213,-70.5001 728.213,-63.5001"/>
</g>
<!-- Node6 -->
<g id="node6" class="node"><title>Node6</title>
<g id="a_node6"><a xlink:href="../../da/dc8/classview_1_1_editor.html#a5b88172770caabfc64e9b7adaee1a2c5" target="_top" xlink:title="view.Editor.Editor">
<polygon fill="white" stroke="black" points="976.5,-57.5 976.5,-76.5 1073.5,-76.5 1073.5,-57.5 976.5,-57.5"/>
<text text-anchor="middle" x="1025" y="-64.5" font-family="Helvetica,sans-Serif" font-size="10.00">view.Editor.Editor</text>
</a>
</g>
</g>
<!-- Node5&#45;&gt;Node6 -->
<g id="edge5" class="edge"><title>Node5&#45;&gt;Node6</title>
<path fill="none" stroke="midnightblue" d="M950.07,-67C959.056,-67 967.955,-67 976.298,-67"/>
<polygon fill="midnightblue" stroke="midnightblue" points="949.911,-63.5001 939.911,-67 949.911,-70.5001 949.911,-63.5001"/>
</g>
<!-- Node8 -->
<g id="node8" class="node"><title>Node8</title>
<g id="a_node8"><a xlink:href="../../d1/dc7/classview_1_1_side_bar.html#aaa1459e91d727b5bd46e51f5b4a596f2" target="_top" xlink:title="view.SideBar.SideBar">
<polygon fill="white" stroke="black" points="807,-19.5 807,-38.5 923,-38.5 923,-19.5 807,-19.5"/>
<text text-anchor="middle" x="865" y="-26.5" font-family="Helvetica,sans-Serif" font-size="10.00">view.SideBar.SideBar</text>
</a>
</g>
</g>
<!-- Node7&#45;&gt;Node8 -->
<g id="edge7" class="edge"><title>Node7&#45;&gt;Node8</title>
<path fill="none" stroke="midnightblue" d="M763.812,-29C778.484,-29 793.271,-29 806.811,-29"/>
<polygon fill="midnightblue" stroke="midnightblue" points="763.689,-25.5001 753.689,-29 763.689,-32.5001 763.689,-25.5001"/>
</g>
</g>
</svg>
