<?xml version="1.0" encoding="UTF-8" standalone="no"?>
<!DOCTYPE svg PUBLIC "-//W3C//DTD SVG 1.1//EN"
 "http://www.w3.org/Graphics/SVG/1.1/DTD/svg11.dtd">
<!-- Generated by graphviz version 2.36.0 (20140111.2315)
 -->
<!-- Title: model.ExecutionEnvironment.addCommand Pages: 1 -->
<svg width="1092pt" height="96pt"
 viewBox="0.00 0.00 1092.00 96.00" xmlns="http://www.w3.org/2000/svg" xmlns:xlink="http://www.w3.org/1999/xlink">
<g id="graph0" class="graph" transform="scale(1 1) rotate(0) translate(4 92)">
<title>model.ExecutionEnvironment.addCommand</title>
<polygon fill="white" stroke="none" points="-4,4 -4,-92 1088,-92 1088,4 -4,4"/>
<!-- Node1 -->
<g id="node1" class="node"><title>Node1</title>
<polygon fill="#bfbfbf" stroke="black" points="0,-36 0,-66 178,-66 178,-36 0,-36"/>
<text text-anchor="start" x="8" y="-54" font-family="Helvetica,sans-Serif" font-size="10.00">model.ExecutionEnvironment.add</text>
<text text-anchor="middle" x="89" y="-43" font-family="Helvetica,sans-Serif" font-size="10.00">Command</text>
</g>
<!-- Node2 -->
<g id="node2" class="node"><title>Node2</title>
<g id="a_node2"><a xlink:href="../../d5/dbb/classmodel_1_1instructions_1_1_control_instruction.html#a3fb86527d4ea267d661780b12d33344e" target="_top" xlink:title="model.instructions.Control\lInstruction.addToMap">
<polygon fill="white" stroke="black" points="214.5,-58 214.5,-88 357.5,-88 357.5,-58 214.5,-58"/>
<text text-anchor="start" x="222.5" y="-76" font-family="Helvetica,sans-Serif" font-size="10.00">model.instructions.Control</text>
<text text-anchor="middle" x="286" y="-65" font-family="Helvetica,sans-Serif" font-size="10.00">Instruction.addToMap</text>
</a>
</g>
</g>
<!-- Node1&#45;&gt;Node2 -->
<g id="edge1" class="edge"><title>Node1&#45;&gt;Node2</title>
<path fill="none" stroke="midnightblue" d="M188.051,-62.0621C196.887,-63.059 205.717,-64.0553 214.252,-65.0181"/>
<polygon fill="midnightblue" stroke="midnightblue" points="188.416,-58.5812 178.087,-60.938 187.631,-65.5371 188.416,-58.5812"/>
</g>
<!-- Node4 -->
<g id="node4" class="node"><title>Node4</title>
<g id="a_node4"><a xlink:href="../../dc/df5/classmodel_1_1_parser.html#ae83c95a5190fc22b9b70b1a40b76661c" target="_top" xlink:title="model.Parser.makeTree">
<polygon fill="white" stroke="black" points="222,-19.5 222,-38.5 350,-38.5 350,-19.5 222,-19.5"/>
<text text-anchor="middle" x="286" y="-26.5" font-family="Helvetica,sans-Serif" font-size="10.00">model.Parser.makeTree</text>
</a>
</g>
</g>
<!-- Node1&#45;&gt;Node4 -->
<g id="edge3" class="edge"><title>Node1&#45;&gt;Node4</title>
<path fill="none" stroke="midnightblue" d="M188.131,-39.9288C199.576,-38.6376 211.009,-37.3477 221.8,-36.1303"/>
<polygon fill="midnightblue" stroke="midnightblue" points="187.631,-36.4629 178.087,-41.062 188.416,-43.4188 187.631,-36.4629"/>
</g>
<!-- Node3 -->
<g id="node3" class="node"><title>Node3</title>
<g id="a_node3"><a xlink:href="../../d5/dbb/classmodel_1_1instructions_1_1_control_instruction.html#a5ec77a176debc7a35ce9026c808d021e" target="_top" xlink:title="model.instructions.Control\lInstruction.execute">
<polygon fill="white" stroke="black" points="405.5,-58 405.5,-88 548.5,-88 548.5,-58 405.5,-58"/>
<text text-anchor="start" x="413.5" y="-76" font-family="Helvetica,sans-Serif" font-size="10.00">model.instructions.Control</text>
<text text-anchor="middle" x="477" y="-65" font-family="Helvetica,sans-Serif" font-size="10.00">Instruction.execute</text>
</a>
</g>
</g>
<!-- Node2&#45;&gt;Node3 -->
<g id="edge2" class="edge"><title>Node2&#45;&gt;Node3</title>
<path fill="none" stroke="midnightblue" d="M368.012,-73C380.465,-73 393.238,-73 405.44,-73"/>
<polygon fill="midnightblue" stroke="midnightblue" points="367.645,-69.5001 357.645,-73 367.645,-76.5001 367.645,-69.5001"/>
</g>
<!-- Node5 -->
<g id="node5" class="node"><title>Node5</title>
<g id="a_node5"><a xlink:href="../../dc/df5/classmodel_1_1_parser.html#ab83c099e5a13c82b1a12d7eedda6fbf9" target="_top" xlink:title="model.Parser.parseAndExecute">
<polygon fill="white" stroke="black" points="394,-19.5 394,-38.5 560,-38.5 560,-19.5 394,-19.5"/>
<text text-anchor="middle" x="477" y="-26.5" font-family="Helvetica,sans-Serif" font-size="10.00">model.Parser.parseAndExecute</text>
</a>
</g>
</g>
<!-- Node4&#45;&gt;Node5 -->
<g id="edge4" class="edge"><title>Node4&#45;&gt;Node5</title>
<path fill="none" stroke="midnightblue" d="M360.493,-29C371.379,-29 382.656,-29 393.706,-29"/>
<polygon fill="midnightblue" stroke="midnightblue" points="360.197,-25.5001 350.197,-29 360.197,-32.5001 360.197,-25.5001"/>
</g>
<!-- Node6 -->
<g id="node6" class="node"><title>Node6</title>
<g id="a_node6"><a xlink:href="../../da/dc8/classview_1_1_editor.html#a149e24d4e5e4464f3fb1601f2717663b" target="_top" xlink:title="view.Editor.parse">
<polygon fill="white" stroke="black" points="632,-38.5 632,-57.5 728,-57.5 728,-38.5 632,-38.5"/>
<text text-anchor="middle" x="680" y="-45.5" font-family="Helvetica,sans-Serif" font-size="10.00">view.Editor.parse</text>
</a>
</g>
</g>
<!-- Node5&#45;&gt;Node6 -->
<g id="edge5" class="edge"><title>Node5&#45;&gt;Node6</title>
<path fill="none" stroke="midnightblue" d="M570.131,-37.7089C591.474,-39.7264 613.324,-41.7918 631.795,-43.5378"/>
<polygon fill="midnightblue" stroke="midnightblue" points="570.329,-34.2121 560.044,-36.7554 569.671,-41.1811 570.329,-34.2121"/>
</g>
<!-- Node9 -->
<g id="node9" class="node"><title>Node9</title>
<g id="a_node9"><a xlink:href="../../d1/dc7/classview_1_1_side_bar.html#ac97dbdf731a291e46ba643c78b4c5a93" target="_top" xlink:title="view.SideBar.createHistoryPane">
<polygon fill="white" stroke="black" points="596.5,-0.5 596.5,-19.5 763.5,-19.5 763.5,-0.5 596.5,-0.5"/>
<text text-anchor="middle" x="680" y="-7.5" font-family="Helvetica,sans-Serif" font-size="10.00">view.SideBar.createHistoryPane</text>
</a>
</g>
</g>
<!-- Node5&#45;&gt;Node9 -->
<g id="edge8" class="edge"><title>Node5&#45;&gt;Node9</title>
<path fill="none" stroke="midnightblue" d="M570.189,-20.2856C578.877,-19.4644 587.648,-18.6353 596.241,-17.823"/>
<polygon fill="midnightblue" stroke="midnightblue" points="569.671,-16.8189 560.044,-21.2446 570.329,-23.7879 569.671,-16.8189"/>
</g>
<!-- Node7 -->
<g id="node7" class="node"><title>Node7</title>
<g id="a_node7"><a xlink:href="../../da/dc8/classview_1_1_editor.html#abd790752cfd8c9f01fb5b27a3680a982" target="_top" xlink:title="view.Editor.createRunButton">
<polygon fill="white" stroke="black" points="800.5,-38.5 800.5,-57.5 949.5,-57.5 949.5,-38.5 800.5,-38.5"/>
<text text-anchor="middle" x="875" y="-45.5" font-family="Helvetica,sans-Serif" font-size="10.00">view.Editor.createRunButton</text>
</a>
</g>
</g>
<!-- Node6&#45;&gt;Node7 -->
<g id="edge6" class="edge"><title>Node6&#45;&gt;Node7</title>
<path fill="none" stroke="midnightblue" d="M738.4,-48C757.791,-48 779.718,-48 800.198,-48"/>
<polygon fill="midnightblue" stroke="midnightblue" points="738.213,-44.5001 728.213,-48 738.213,-51.5001 738.213,-44.5001"/>
</g>
<!-- Node8 -->
<g id="node8" class="node"><title>Node8</title>
<g id="a_node8"><a xlink:href="../../da/dc8/classview_1_1_editor.html#a5b88172770caabfc64e9b7adaee1a2c5" target="_top" xlink:title="view.Editor.Editor">
<polygon fill="white" stroke="black" points="986.5,-38.5 986.5,-57.5 1083.5,-57.5 1083.5,-38.5 986.5,-38.5"/>
<text text-anchor="middle" x="1035" y="-45.5" font-family="Helvetica,sans-Serif" font-size="10.00">view.Editor.Editor</text>
</a>
</g>
</g>
<!-- Node7&#45;&gt;Node8 -->
<g id="edge7" class="edge"><title>Node7&#45;&gt;Node8</title>
<path fill="none" stroke="midnightblue" d="M960.07,-48C969.056,-48 977.955,-48 986.298,-48"/>
<polygon fill="midnightblue" stroke="midnightblue" points="959.911,-44.5001 949.911,-48 959.911,-51.5001 959.911,-44.5001"/>
</g>
<!-- Node10 -->
<g id="node10" class="node"><title>Node10</title>
<g id="a_node10"><a xlink:href="../../d1/dc7/classview_1_1_side_bar.html#aaa1459e91d727b5bd46e51f5b4a596f2" target="_top" xlink:title="view.SideBar.SideBar">
<polygon fill="white" stroke="black" points="817,-0.5 817,-19.5 933,-19.5 933,-0.5 817,-0.5"/>
<text text-anchor="middle" x="875" y="-7.5" font-family="Helvetica,sans-Serif" font-size="10.00">view.SideBar.SideBar</text>
</a>
</g>
</g>
<!-- Node9&#45;&gt;Node10 -->
<g id="edge9" class="edge"><title>Node9&#45;&gt;Node10</title>
<path fill="none" stroke="midnightblue" d="M773.812,-10C788.484,-10 803.271,-10 816.811,-10"/>
<polygon fill="midnightblue" stroke="midnightblue" points="773.689,-6.5001 763.689,-10 773.689,-13.5001 773.689,-6.5001"/>
</g>
</g>
</svg>
