<?xml version="1.0" encoding="UTF-8" standalone="no"?>
<!DOCTYPE svg PUBLIC "-//W3C//DTD SVG 1.1//EN"
 "http://www.w3.org/Graphics/SVG/1.1/DTD/svg11.dtd">
<!-- Generated by graphviz version 2.36.0 (20140111.2315)
 -->
<!-- Title: model.ExecutionEnvironment.updateObserver Pages: 1 -->
<!--zoomable 401 -->
<svg id="main" version="1.1" xmlns="http://www.w3.org/2000/svg" xmlns:xlink="http://www.w3.org/1999/xlink" xml:space="preserve" onload="init(evt)">
<style type="text/css"><![CDATA[
.edge:hover path { stroke: red; }
.edge:hover polygon { stroke: red; fill: red; }
]]></style>
<script type="text/javascript"><![CDATA[
var edges = document.getElementsByTagName('g');
if (edges && edges.length) {
  for (var i=0;i<edges.length;i++) {
    if (edges[i].id.substr(0,4)=='edge') {
      edges[i].setAttribute('class','edge');
    }
  }
}
]]></script>
        <defs>
                <circle id="rim" cx="0" cy="0" r="7"/>
                <circle id="rim2" cx="0" cy="0" r="3.5"/>
                <g id="zoomPlus">
                        <use xlink:href="#rim" fill="#404040">
                                <set attributeName="fill" to="#808080" begin="zoomplus.mouseover" end="zoomplus.mouseout"/>
                        </use>
                        <path d="M-4,0h8M0,-4v8" fill="none" stroke="white" stroke-width="1.5" pointer-events="none"/>
                </g>
                <g id="zoomMin">
                        <use xlink:href="#rim" fill="#404040">
                                <set attributeName="fill" to="#808080" begin="zoomminus.mouseover" end="zoomminus.mouseout"/>
                        </use>
                        <path d="M-4,0h8" fill="none" stroke="white" stroke-width="1.5" pointer-events="none"/>
                </g>
                <g id="dirArrow">
                        <path fill="none" stroke="white" stroke-width="1.5" d="M0,-3.0v7 M-2.5,-0.5L0,-3.0L2.5,-0.5"/>
                </g>
               <g id="resetDef">
                       <use xlink:href="#rim2" fill="#404040">
                               <set attributeName="fill" to="#808080" begin="reset.mouseover" end="reset.mouseout"/>
                       </use>
               </g>
        </defs>

<script type="text/javascript">
var viewWidth = 2010;
var viewHeight = 401;
var sectionId = 'dynsection-23';
</script>
<script xlink:href="../../svgpan.js"/>
<svg id="graph" class="graph">
<g id="viewport">
<title>model.ExecutionEnvironment.updateObserver</title>
<polygon fill="white" stroke="none" points="-4,4 -4,-397 2006,-397 2006,4 -4,4"/>
<!-- Node1 -->
<g id="node1" class="node"><title>Node1</title>
<polygon fill="#bfbfbf" stroke="black" points="0,-122 0,-152 194,-152 194,-122 0,-122"/>
<text text-anchor="start" x="8" y="-140" font-family="Helvetica,sans-Serif" font-size="10.00">model.ExecutionEnvironment.update</text>
<text text-anchor="middle" x="97" y="-129" font-family="Helvetica,sans-Serif" font-size="10.00">Observer</text>
</g>
<!-- Node2 -->
<g id="node2" class="node"><title>Node2</title>
<g id="a_node2"><a xlink:href="../../d1/dca/classmodel_1_1_execution_environment.html#a83ef2b9eaef50b67c0b978f2abb8200c" target="_top" xlink:title="model.ExecutionEnvironment.add\lCommand">
<polygon fill="white" stroke="black" points="233,-196 233,-226 411,-226 411,-196 233,-196"/>
<text text-anchor="start" x="241" y="-214" font-family="Helvetica,sans-Serif" font-size="10.00">model.ExecutionEnvironment.add</text>
<text text-anchor="middle" x="322" y="-203" font-family="Helvetica,sans-Serif" font-size="10.00">Command</text>
</a>
</g>
</g>
<!-- Node1&#45;&gt;Node2 -->
<g id="edge1" class="edge"><title>Node1&#45;&gt;Node2</title>
<path fill="none" stroke="midnightblue" d="M145.412,-155.743C170.394,-165.327 201.655,-176.865 230,-186 240.604,-189.418 251.995,-192.783 263.007,-195.884"/>
<polygon fill="midnightblue" stroke="midnightblue" points="146.406,-152.375 135.816,-152.039 143.885,-158.905 146.406,-152.375"/>
</g>
<!-- Node12 -->
<g id="node12" class="node"><title>Node12</title>
<g id="a_node12"><a xlink:href="../../d1/dca/classmodel_1_1_execution_environment.html#a96986e0e8de018fd9b1b2bf79de862e1" target="_top" xlink:title="model.ExecutionEnvironment.add\lTurtle">
<polygon fill="white" stroke="black" points="233,-98 233,-128 411,-128 411,-98 233,-98"/>
<text text-anchor="start" x="241" y="-116" font-family="Helvetica,sans-Serif" font-size="10.00">model.ExecutionEnvironment.add</text>
<text text-anchor="middle" x="322" y="-105" font-family="Helvetica,sans-Serif" font-size="10.00">Turtle</text>
</a>
</g>
</g>
<!-- Node1&#45;&gt;Node12 -->
<g id="edge11" class="edge"><title>Node1&#45;&gt;Node12</title>
<path fill="none" stroke="midnightblue" d="M204.171,-125.574C213.779,-124.54 223.439,-123.5 232.866,-122.485"/>
<polygon fill="midnightblue" stroke="midnightblue" points="203.758,-122.098 194.19,-126.648 204.507,-129.057 203.758,-122.098"/>
</g>
<!-- Node24 -->
<g id="node24" class="node"><title>Node24</title>
<g id="a_node24"><a xlink:href="../../d1/dca/classmodel_1_1_execution_environment.html#a4765560d59fa5a9c8ce4948fc0a8855d" target="_top" xlink:title="model.ExecutionEnvironment.add\lTurtleToActiveList">
<polygon fill="white" stroke="black" points="233,-49 233,-79 411,-79 411,-49 233,-49"/>
<text text-anchor="start" x="241" y="-67" font-family="Helvetica,sans-Serif" font-size="10.00">model.ExecutionEnvironment.add</text>
<text text-anchor="middle" x="322" y="-56" font-family="Helvetica,sans-Serif" font-size="10.00">TurtleToActiveList</text>
</a>
</g>
</g>
<!-- Node1&#45;&gt;Node24 -->
<g id="edge24" class="edge"><title>Node1&#45;&gt;Node24</title>
<path fill="none" stroke="midnightblue" d="M145.102,-118.242C170.119,-108.604 201.506,-97.0224 230,-88 239.813,-84.8927 250.308,-81.8613 260.554,-79.0566"/>
<polygon fill="midnightblue" stroke="midnightblue" points="143.556,-115.088 135.498,-121.967 146.087,-121.614 143.556,-115.088"/>
</g>
<!-- Node25 -->
<g id="node25" class="node"><title>Node25</title>
<g id="a_node25"><a xlink:href="../../d1/dca/classmodel_1_1_execution_environment.html#a3afb09ec1e342a734f59161beca05b0e" target="_top" xlink:title="model.ExecutionEnvironment.add\lVariable">
<polygon fill="white" stroke="black" points="233,-289 233,-319 411,-319 411,-289 233,-289"/>
<text text-anchor="start" x="241" y="-307" font-family="Helvetica,sans-Serif" font-size="10.00">model.ExecutionEnvironment.add</text>
<text text-anchor="middle" x="322" y="-296" font-family="Helvetica,sans-Serif" font-size="10.00">Variable</text>
</a>
</g>
</g>
<!-- Node1&#45;&gt;Node25 -->
<g id="edge26" class="edge"><title>Node1&#45;&gt;Node25</title>
<path fill="none" stroke="midnightblue" d="M126.46,-158.313C172.163,-192.539 260.823,-258.934 300.702,-288.799"/>
<polygon fill="midnightblue" stroke="midnightblue" points="128.285,-155.307 118.183,-152.115 124.089,-160.91 128.285,-155.307"/>
</g>
<!-- Node30 -->
<g id="node30" class="node"><title>Node30</title>
<g id="a_node30"><a xlink:href="../../d1/dca/classmodel_1_1_execution_environment.html#a2360a2c35bcb4879d0799710e7ee55d2" target="_top" xlink:title="model.ExecutionEnvironment.clear\lActiveList">
<polygon fill="white" stroke="black" points="230.5,-0 230.5,-30 413.5,-30 413.5,-0 230.5,-0"/>
<text text-anchor="start" x="238.5" y="-18" font-family="Helvetica,sans-Serif" font-size="10.00">model.ExecutionEnvironment.clear</text>
<text text-anchor="middle" x="322" y="-7" font-family="Helvetica,sans-Serif" font-size="10.00">ActiveList</text>
</a>
</g>
</g>
<!-- Node1&#45;&gt;Node30 -->
<g id="edge33" class="edge"><title>Node1&#45;&gt;Node30</title>
<path fill="none" stroke="midnightblue" d="M121.69,-114.972C146.787,-92.7594 188.454,-58.9796 230,-39 237.068,-35.6011 244.684,-32.633 252.396,-30.0537"/>
<polygon fill="midnightblue" stroke="midnightblue" points="119.249,-112.46 114.146,-121.745 123.925,-117.669 119.249,-112.46"/>
</g>
<!-- Node31 -->
<g id="node31" class="node"><title>Node31</title>
<g id="a_node31"><a xlink:href="../../d1/dca/classmodel_1_1_execution_environment.html#a472ef4da5205b0e95ec51fdbf52f654a" target="_top" xlink:title="model.ExecutionEnvironment.set\lActiveTurtle">
<polygon fill="white" stroke="black" points="234.5,-147 234.5,-177 409.5,-177 409.5,-147 234.5,-147"/>
<text text-anchor="start" x="242.5" y="-165" font-family="Helvetica,sans-Serif" font-size="10.00">model.ExecutionEnvironment.set</text>
<text text-anchor="middle" x="322" y="-154" font-family="Helvetica,sans-Serif" font-size="10.00">ActiveTurtle</text>
</a>
</g>
</g>
<!-- Node1&#45;&gt;Node31 -->
<g id="edge35" class="edge"><title>Node1&#45;&gt;Node31</title>
<path fill="none" stroke="midnightblue" d="M204.224,-148.909C214.289,-150.037 224.412,-151.172 234.263,-152.276"/>
<polygon fill="midnightblue" stroke="midnightblue" points="204.518,-145.42 194.19,-147.784 203.738,-152.376 204.518,-145.42"/>
</g>
<!-- Node3 -->
<g id="node3" class="node"><title>Node3</title>
<g id="a_node3"><a xlink:href="../../d5/dbb/classmodel_1_1instructions_1_1_control_instruction.html#a3fb86527d4ea267d661780b12d33344e" target="_top" xlink:title="model.instructions.Control\lInstruction.addToMap">
<polygon fill="white" stroke="black" points="665.5,-221 665.5,-251 808.5,-251 808.5,-221 665.5,-221"/>
<text text-anchor="start" x="673.5" y="-239" font-family="Helvetica,sans-Serif" font-size="10.00">model.instructions.Control</text>
<text text-anchor="middle" x="737" y="-228" font-family="Helvetica,sans-Serif" font-size="10.00">Instruction.addToMap</text>
</a>
</g>
</g>
<!-- Node2&#45;&gt;Node3 -->
<g id="edge2" class="edge"><title>Node2&#45;&gt;Node3</title>
<path fill="none" stroke="midnightblue" d="M421.497,-216.962C496.525,-221.504 598.024,-227.648 665.179,-231.713"/>
<polygon fill="midnightblue" stroke="midnightblue" points="421.286,-213.443 411.092,-216.332 420.863,-220.43 421.286,-213.443"/>
</g>
<!-- Node5 -->
<g id="node5" class="node"><title>Node5</title>
<g id="a_node5"><a xlink:href="../../dc/df5/classmodel_1_1_parser.html#ae83c95a5190fc22b9b70b1a40b76661c" target="_top" xlink:title="model.Parser.makeTree">
<polygon fill="white" stroke="black" points="470,-188.5 470,-207.5 598,-207.5 598,-188.5 470,-188.5"/>
<text text-anchor="middle" x="534" y="-195.5" font-family="Helvetica,sans-Serif" font-size="10.00">model.Parser.makeTree</text>
</a>
</g>
</g>
<!-- Node2&#45;&gt;Node5 -->
<g id="edge4" class="edge"><title>Node2&#45;&gt;Node5</title>
<path fill="none" stroke="midnightblue" d="M421.39,-204.909C437.911,-203.886 454.652,-202.85 469.966,-201.902"/>
<polygon fill="midnightblue" stroke="midnightblue" points="420.911,-201.432 411.146,-205.543 421.343,-208.419 420.911,-201.432"/>
</g>
<!-- Node4 -->
<g id="node4" class="node"><title>Node4</title>
<g id="a_node4"><a xlink:href="../../d5/dbb/classmodel_1_1instructions_1_1_control_instruction.html#a5ec77a176debc7a35ce9026c808d021e" target="_top" xlink:title="model.instructions.Control\lInstruction.execute">
<polygon fill="white" stroke="black" points="868.5,-270 868.5,-300 1011.5,-300 1011.5,-270 868.5,-270"/>
<text text-anchor="start" x="876.5" y="-288" font-family="Helvetica,sans-Serif" font-size="10.00">model.instructions.Control</text>
<text text-anchor="middle" x="940" y="-277" font-family="Helvetica,sans-Serif" font-size="10.00">Instruction.execute</text>
</a>
</g>
</g>
<!-- Node3&#45;&gt;Node4 -->
<g id="edge3" class="edge"><title>Node3&#45;&gt;Node4</title>
<path fill="none" stroke="midnightblue" d="M809.391,-253.404C831.626,-258.824 855.942,-264.752 877.444,-269.994"/>
<polygon fill="midnightblue" stroke="midnightblue" points="810.217,-250.003 799.673,-251.035 808.559,-256.804 810.217,-250.003"/>
</g>
<!-- Node6 -->
<g id="node6" class="node"><title>Node6</title>
<g id="a_node6"><a xlink:href="../../dc/df5/classmodel_1_1_parser.html#ab83c099e5a13c82b1a12d7eedda6fbf9" target="_top" xlink:title="model.Parser.parseAndExecute">
<polygon fill="white" stroke="black" points="654,-181.5 654,-200.5 820,-200.5 820,-181.5 654,-181.5"/>
<text text-anchor="middle" x="737" y="-188.5" font-family="Helvetica,sans-Serif" font-size="10.00">model.Parser.parseAndExecute</text>
</a>
</g>
</g>
<!-- Node5&#45;&gt;Node6 -->
<g id="edge5" class="edge"><title>Node5&#45;&gt;Node6</title>
<path fill="none" stroke="midnightblue" d="M608.193,-195.451C623.075,-194.933 638.821,-194.384 653.985,-193.856"/>
<polygon fill="midnightblue" stroke="midnightblue" points="607.918,-191.958 598.046,-195.804 608.162,-198.954 607.918,-191.958"/>
</g>
<!-- Node7 -->
<g id="node7" class="node"><title>Node7</title>
<g id="a_node7"><a xlink:href="../../da/dc8/classview_1_1_editor.html#a149e24d4e5e4464f3fb1601f2717663b" target="_top" xlink:title="view.Editor.parse">
<polygon fill="white" stroke="black" points="892,-218.5 892,-237.5 988,-237.5 988,-218.5 892,-218.5"/>
<text text-anchor="middle" x="940" y="-225.5" font-family="Helvetica,sans-Serif" font-size="10.00">view.Editor.parse</text>
</a>
</g>
</g>
<!-- Node6&#45;&gt;Node7 -->
<g id="edge6" class="edge"><title>Node6&#45;&gt;Node7</title>
<path fill="none" stroke="midnightblue" d="M799.609,-202.341C829.306,-207.808 864.359,-214.26 891.884,-219.327"/>
<polygon fill="midnightblue" stroke="midnightblue" points="800.231,-198.897 789.762,-200.528 798.964,-205.781 800.231,-198.897"/>
</g>
<!-- Node10 -->
<g id="node10" class="node"><title>Node10</title>
<g id="a_node10"><a xlink:href="../../d1/dc7/classview_1_1_side_bar.html#ac97dbdf731a291e46ba643c78b4c5a93" target="_top" xlink:title="view.SideBar.createHistoryPane">
<polygon fill="white" stroke="black" points="856.5,-180.5 856.5,-199.5 1023.5,-199.5 1023.5,-180.5 856.5,-180.5"/>
<text text-anchor="middle" x="940" y="-187.5" font-family="Helvetica,sans-Serif" font-size="10.00">view.SideBar.createHistoryPane</text>
</a>
</g>
</g>
<!-- Node6&#45;&gt;Node10 -->
<g id="edge9" class="edge"><title>Node6&#45;&gt;Node10</title>
<path fill="none" stroke="midnightblue" d="M830.189,-190.541C838.877,-190.498 847.648,-190.454 856.241,-190.412"/>
<polygon fill="midnightblue" stroke="midnightblue" points="830.027,-187.042 820.044,-190.592 830.062,-194.042 830.027,-187.042"/>
</g>
<!-- Node8 -->
<g id="node8" class="node"><title>Node8</title>
<g id="a_node8"><a xlink:href="../../da/dc8/classview_1_1_editor.html#abd790752cfd8c9f01fb5b27a3680a982" target="_top" xlink:title="view.Editor.createRunButton">
<polygon fill="white" stroke="black" points="1060.5,-218.5 1060.5,-237.5 1209.5,-237.5 1209.5,-218.5 1060.5,-218.5"/>
<text text-anchor="middle" x="1135" y="-225.5" font-family="Helvetica,sans-Serif" font-size="10.00">view.Editor.createRunButton</text>
</a>
</g>
</g>
<!-- Node7&#45;&gt;Node8 -->
<g id="edge7" class="edge"><title>Node7&#45;&gt;Node8</title>
<path fill="none" stroke="midnightblue" d="M998.4,-228C1017.79,-228 1039.72,-228 1060.2,-228"/>
<polygon fill="midnightblue" stroke="midnightblue" points="998.213,-224.5 988.213,-228 998.213,-231.5 998.213,-224.5"/>
</g>
<!-- Node9 -->
<g id="node9" class="node"><title>Node9</title>
<g id="a_node9"><a xlink:href="../../da/dc8/classview_1_1_editor.html#a5b88172770caabfc64e9b7adaee1a2c5" target="_top" xlink:title="view.Editor.Editor">
<polygon fill="white" stroke="black" points="1283.5,-218.5 1283.5,-237.5 1380.5,-237.5 1380.5,-218.5 1283.5,-218.5"/>
<text text-anchor="middle" x="1332" y="-225.5" font-family="Helvetica,sans-Serif" font-size="10.00">view.Editor.Editor</text>
</a>
</g>
</g>
<!-- Node8&#45;&gt;Node9 -->
<g id="edge8" class="edge"><title>Node8&#45;&gt;Node9</title>
<path fill="none" stroke="midnightblue" d="M1219.96,-228C1241.68,-228 1264.31,-228 1283.44,-228"/>
<polygon fill="midnightblue" stroke="midnightblue" points="1219.72,-224.5 1209.72,-228 1219.72,-231.5 1219.72,-224.5"/>
</g>
<!-- Node11 -->
<g id="node11" class="node"><title>Node11</title>
<g id="a_node11"><a xlink:href="../../d1/dc7/classview_1_1_side_bar.html#aaa1459e91d727b5bd46e51f5b4a596f2" target="_top" xlink:title="view.SideBar.SideBar">
<polygon fill="white" stroke="black" points="1077,-180.5 1077,-199.5 1193,-199.5 1193,-180.5 1077,-180.5"/>
<text text-anchor="middle" x="1135" y="-187.5" font-family="Helvetica,sans-Serif" font-size="10.00">view.SideBar.SideBar</text>
</a>
</g>
</g>
<!-- Node10&#45;&gt;Node11 -->
<g id="edge10" class="edge"><title>Node10&#45;&gt;Node11</title>
<path fill="none" stroke="midnightblue" d="M1033.81,-190C1048.48,-190 1063.27,-190 1076.81,-190"/>
<polygon fill="midnightblue" stroke="midnightblue" points="1033.69,-186.5 1023.69,-190 1033.69,-193.5 1033.69,-186.5"/>
</g>
<!-- Node13 -->
<g id="node13" class="node"><title>Node13</title>
<g id="a_node13"><a xlink:href="../../da/d64/classview_1_1_workspace.html#a4abde41a3048fa8f64ddfec40c8ffdb7" target="_top" xlink:title="view.Workspace.addTurtle">
<polygon fill="white" stroke="black" points="465.5,-107.5 465.5,-126.5 602.5,-126.5 602.5,-107.5 465.5,-107.5"/>
<text text-anchor="middle" x="534" y="-114.5" font-family="Helvetica,sans-Serif" font-size="10.00">view.Workspace.addTurtle</text>
</a>
</g>
</g>
<!-- Node12&#45;&gt;Node13 -->
<g id="edge12" class="edge"><title>Node12&#45;&gt;Node13</title>
<path fill="none" stroke="midnightblue" d="M421.369,-114.874C436.197,-115.156 451.202,-115.442 465.195,-115.708"/>
<polygon fill="midnightblue" stroke="midnightblue" points="421.211,-111.37 411.146,-114.679 421.078,-118.369 421.211,-111.37"/>
</g>
<!-- Node23 -->
<g id="node23" class="node"><title>Node23</title>
<g id="a_node23"><a xlink:href="../../dc/dbe/classmodel_1_1instructions_1_1_multiple_turtles_instruction.html#a592a35330637d1bd6edfe4476163e0a1" target="_top" xlink:title="model.instructions.Multiple\lTurtlesInstruction.execute">
<polygon fill="white" stroke="black" points="461.5,-53 461.5,-83 606.5,-83 606.5,-53 461.5,-53"/>
<text text-anchor="start" x="469.5" y="-71" font-family="Helvetica,sans-Serif" font-size="10.00">model.instructions.Multiple</text>
<text text-anchor="middle" x="534" y="-60" font-family="Helvetica,sans-Serif" font-size="10.00">TurtlesInstruction.execute</text>
</a>
</g>
</g>
<!-- Node12&#45;&gt;Node23 -->
<g id="edge23" class="edge"><title>Node12&#45;&gt;Node23</title>
<path fill="none" stroke="midnightblue" d="M403.073,-95.8414C422.754,-91.6241 443.675,-87.1411 462.847,-83.0327"/>
<polygon fill="midnightblue" stroke="midnightblue" points="402.264,-92.4354 393.219,-97.9531 403.73,-99.28 402.264,-92.4354"/>
</g>
<!-- Node14 -->
<g id="node14" class="node"><title>Node14</title>
<g id="a_node14"><a xlink:href="../../d6/de7/classview_1_1_s_logo_view.html#acf432f20e1a7dda7bef97f0619fb0fa5" target="_top" xlink:title="view.SLogoView.configure\lAddTurtlesButton">
<polygon fill="white" stroke="black" points="668.5,-107 668.5,-137 805.5,-137 805.5,-107 668.5,-107"/>
<text text-anchor="start" x="676.5" y="-125" font-family="Helvetica,sans-Serif" font-size="10.00">view.SLogoView.configure</text>
<text text-anchor="middle" x="737" y="-114" font-family="Helvetica,sans-Serif" font-size="10.00">AddTurtlesButton</text>
</a>
</g>
</g>
<!-- Node13&#45;&gt;Node14 -->
<g id="edge13" class="edge"><title>Node13&#45;&gt;Node14</title>
<path fill="none" stroke="midnightblue" d="M612.794,-118.935C631.064,-119.39 650.391,-119.87 668.183,-120.313"/>
<polygon fill="midnightblue" stroke="midnightblue" points="612.853,-115.436 602.769,-118.686 612.679,-122.433 612.853,-115.436"/>
</g>
<!-- Node22 -->
<g id="node22" class="node"><title>Node22</title>
<g id="a_node22"><a xlink:href="../../da/d64/classview_1_1_workspace.html#abbd85b844575ebab6643ba4ddc5a1612" target="_top" xlink:title="view.Workspace.Workspace">
<polygon fill="white" stroke="black" points="665,-68.5 665,-87.5 809,-87.5 809,-68.5 665,-68.5"/>
<text text-anchor="middle" x="737" y="-75.5" font-family="Helvetica,sans-Serif" font-size="10.00">view.Workspace.Workspace</text>
</a>
</g>
</g>
<!-- Node13&#45;&gt;Node22 -->
<g id="edge22" class="edge"><title>Node13&#45;&gt;Node22</title>
<path fill="none" stroke="midnightblue" d="M594.343,-105.486C623.838,-99.7627 659.051,-92.9304 686.99,-87.5095"/>
<polygon fill="midnightblue" stroke="midnightblue" points="593.32,-102.119 584.17,-107.46 594.654,-108.991 593.32,-102.119"/>
</g>
<!-- Node15 -->
<g id="node15" class="node"><title>Node15</title>
<g id="a_node15"><a xlink:href="../../d6/de7/classview_1_1_s_logo_view.html#ae0050481c9168dd8eeb434d9aa79b047" target="_top" xlink:title="view.SLogoView.configureUI">
<polygon fill="white" stroke="black" points="866.5,-112.5 866.5,-131.5 1013.5,-131.5 1013.5,-112.5 866.5,-112.5"/>
<text text-anchor="middle" x="940" y="-119.5" font-family="Helvetica,sans-Serif" font-size="10.00">view.SLogoView.configureUI</text>
</a>
</g>
</g>
<!-- Node14&#45;&gt;Node15 -->
<g id="edge14" class="edge"><title>Node14&#45;&gt;Node15</title>
<path fill="none" stroke="midnightblue" d="M815.964,-122C832.545,-122 849.988,-122 866.361,-122"/>
<polygon fill="midnightblue" stroke="midnightblue" points="815.769,-118.5 805.769,-122 815.769,-125.5 815.769,-118.5"/>
</g>
<!-- Node16 -->
<g id="node16" class="node"><title>Node16</title>
<g id="a_node16"><a xlink:href="../../d1/d75/classview_1_1_main_view.html#ade3718ede33fa2086649c8b3cf75d2f9" target="_top" xlink:title="view.MainView.initTabs">
<polygon fill="white" stroke="black" points="1479.5,-134.5 1479.5,-153.5 1600.5,-153.5 1600.5,-134.5 1479.5,-134.5"/>
<text text-anchor="middle" x="1540" y="-141.5" font-family="Helvetica,sans-Serif" font-size="10.00">view.MainView.initTabs</text>
</a>
</g>
</g>
<!-- Node15&#45;&gt;Node16 -->
<g id="edge15" class="edge"><title>Node15&#45;&gt;Node16</title>
<path fill="none" stroke="midnightblue" d="M1023.79,-125.046C1146.05,-129.544 1371.98,-137.855 1479.34,-141.805"/>
<polygon fill="midnightblue" stroke="midnightblue" points="1023.85,-121.546 1013.73,-124.676 1023.59,-128.541 1023.85,-121.546"/>
</g>
<!-- Node18 -->
<g id="node18" class="node"><title>Node18</title>
<g id="a_node18"><a xlink:href="../../d1/d75/classview_1_1_main_view.html#a39a2b399924a553ccd89dd2a2e6ea208" target="_top" xlink:title="view.MainView.newTab">
<polygon fill="white" stroke="black" points="1075,-96.5 1075,-115.5 1195,-115.5 1195,-96.5 1075,-96.5"/>
<text text-anchor="middle" x="1135" y="-103.5" font-family="Helvetica,sans-Serif" font-size="10.00">view.MainView.newTab</text>
</a>
</g>
</g>
<!-- Node15&#45;&gt;Node18 -->
<g id="edge17" class="edge"><title>Node15&#45;&gt;Node18</title>
<path fill="none" stroke="midnightblue" d="M1023.73,-115.141C1040.94,-113.715 1058.73,-112.24 1074.88,-110.901"/>
<polygon fill="midnightblue" stroke="midnightblue" points="1023.37,-111.66 1013.69,-115.974 1023.95,-118.636 1023.37,-111.66"/>
</g>
<!-- Node17 -->
<g id="node17" class="node"><title>Node17</title>
<g id="a_node17"><a xlink:href="../../d1/d75/classview_1_1_main_view.html#a9e27015c007bed90f32c79fc1187083f" target="_top" xlink:title="view.MainView.MainView">
<polygon fill="white" stroke="black" points="1872,-115.5 1872,-134.5 2002,-134.5 2002,-115.5 1872,-115.5"/>
<text text-anchor="middle" x="1937" y="-122.5" font-family="Helvetica,sans-Serif" font-size="10.00">view.MainView.MainView</text>
</a>
</g>
</g>
<!-- Node16&#45;&gt;Node17 -->
<g id="edge16" class="edge"><title>Node16&#45;&gt;Node17</title>
<path fill="none" stroke="midnightblue" d="M1610.69,-140.648C1684.48,-137.098 1800,-131.542 1871.68,-128.094"/>
<polygon fill="midnightblue" stroke="midnightblue" points="1610.38,-137.158 1600.56,-141.135 1610.72,-144.15 1610.38,-137.158"/>
</g>
<!-- Node19 -->
<g id="node19" class="node"><title>Node19</title>
<g id="a_node19"><a xlink:href="../../d1/d75/classview_1_1_main_view.html#a0424800b5057be73f94e16ef2e1e2b33" target="_top" xlink:title="view.MainView.configureFileMenu">
<polygon fill="white" stroke="black" points="1246.5,-96.5 1246.5,-115.5 1417.5,-115.5 1417.5,-96.5 1246.5,-96.5"/>
<text text-anchor="middle" x="1332" y="-103.5" font-family="Helvetica,sans-Serif" font-size="10.00">view.MainView.configureFileMenu</text>
</a>
</g>
</g>
<!-- Node18&#45;&gt;Node19 -->
<g id="edge18" class="edge"><title>Node18&#45;&gt;Node19</title>
<path fill="none" stroke="midnightblue" d="M1205.06,-106C1218.39,-106 1232.5,-106 1246.27,-106"/>
<polygon fill="midnightblue" stroke="midnightblue" points="1205.04,-102.5 1195.04,-106 1205.04,-109.5 1205.04,-102.5"/>
</g>
<!-- Node20 -->
<g id="node20" class="node"><title>Node20</title>
<g id="a_node20"><a xlink:href="../../d1/d75/classview_1_1_main_view.html#a200c2c8e08e038e2ea86acc40c17d8d2" target="_top" xlink:title="view.MainView.configureTopMenu">
<polygon fill="white" stroke="black" points="1454,-96.5 1454,-115.5 1626,-115.5 1626,-96.5 1454,-96.5"/>
<text text-anchor="middle" x="1540" y="-103.5" font-family="Helvetica,sans-Serif" font-size="10.00">view.MainView.configureTopMenu</text>
</a>
</g>
</g>
<!-- Node19&#45;&gt;Node20 -->
<g id="edge19" class="edge"><title>Node19&#45;&gt;Node20</title>
<path fill="none" stroke="midnightblue" d="M1427.86,-106C1436.57,-106 1445.36,-106 1453.98,-106"/>
<polygon fill="midnightblue" stroke="midnightblue" points="1427.68,-102.5 1417.68,-106 1427.68,-109.5 1427.68,-102.5"/>
</g>
<!-- Node21 -->
<g id="node21" class="node"><title>Node21</title>
<g id="a_node21"><a xlink:href="../../d1/d75/classview_1_1_main_view.html#aff9e267e9368512a16e425f08d7b3ea0" target="_top" xlink:title="view.MainView.initRowConstraints">
<polygon fill="white" stroke="black" points="1662.5,-96.5 1662.5,-115.5 1835.5,-115.5 1835.5,-96.5 1662.5,-96.5"/>
<text text-anchor="middle" x="1749" y="-103.5" font-family="Helvetica,sans-Serif" font-size="10.00">view.MainView.initRowConstraints</text>
</a>
</g>
</g>
<!-- Node20&#45;&gt;Node21 -->
<g id="edge20" class="edge"><title>Node20&#45;&gt;Node21</title>
<path fill="none" stroke="midnightblue" d="M1636.22,-106C1644.9,-106 1653.65,-106 1662.24,-106"/>
<polygon fill="midnightblue" stroke="midnightblue" points="1636.09,-102.5 1626.09,-106 1636.09,-109.5 1636.09,-102.5"/>
</g>
<!-- Node21&#45;&gt;Node17 -->
<g id="edge21" class="edge"><title>Node21&#45;&gt;Node17</title>
<path fill="none" stroke="midnightblue" d="M1845.68,-115.774C1854.57,-116.682 1863.43,-117.587 1871.92,-118.455"/>
<polygon fill="midnightblue" stroke="midnightblue" points="1845.95,-112.284 1835.65,-114.749 1845.24,-119.247 1845.95,-112.284"/>
</g>
<!-- Node24&#45;&gt;Node23 -->
<g id="edge25" class="edge"><title>Node24&#45;&gt;Node23</title>
<path fill="none" stroke="midnightblue" d="M421.395,-65.8742C434.854,-66.1306 448.459,-66.3897 461.319,-66.6346"/>
<polygon fill="midnightblue" stroke="midnightblue" points="421.211,-62.3701 411.146,-65.679 421.078,-69.3689 421.211,-62.3701"/>
</g>
<!-- Node26 -->
<g id="node26" class="node"><title>Node26</title>
<g id="a_node26"><a xlink:href="../../d9/dd3/classview_1_1_variables_view.html#a77a0efc0b8fdb1f12526b9146ce58473" target="_top" xlink:title="view.VariablesView.create\lColumns">
<polygon fill="white" stroke="black" points="465.5,-265 465.5,-295 602.5,-295 602.5,-265 465.5,-265"/>
<text text-anchor="start" x="473.5" y="-283" font-family="Helvetica,sans-Serif" font-size="10.00">view.VariablesView.create</text>
<text text-anchor="middle" x="534" y="-272" font-family="Helvetica,sans-Serif" font-size="10.00">Columns</text>
</a>
</g>
</g>
<!-- Node25&#45;&gt;Node26 -->
<g id="edge27" class="edge"><title>Node25&#45;&gt;Node26</title>
<path fill="none" stroke="midnightblue" d="M421.369,-292.758C436.197,-291.063 451.202,-289.348 465.195,-287.749"/>
<polygon fill="midnightblue" stroke="midnightblue" points="420.684,-289.313 411.146,-293.926 421.479,-296.268 420.684,-289.313"/>
</g>
<!-- Node27 -->
<g id="node27" class="node"><title>Node27</title>
<g id="a_node27"><a xlink:href="../../d9/d13/classmodel_1_1instructions_1_1_user_running_instruction.html#aa0e048b0bbca8aaddd3ea84bd0cf7bf7" target="_top" xlink:title="model.instructions.UserRunning\lInstruction.execute">
<polygon fill="white" stroke="black" points="450,-363 450,-393 618,-393 618,-363 450,-363"/>
<text text-anchor="start" x="458" y="-381" font-family="Helvetica,sans-Serif" font-size="10.00">model.instructions.UserRunning</text>
<text text-anchor="middle" x="534" y="-370" font-family="Helvetica,sans-Serif" font-size="10.00">Instruction.execute</text>
</a>
</g>
</g>
<!-- Node25&#45;&gt;Node27 -->
<g id="edge28" class="edge"><title>Node25&#45;&gt;Node27</title>
<path fill="none" stroke="midnightblue" d="M369.227,-322.804C393.174,-332.297 422.985,-343.735 450,-353 459.965,-356.418 470.686,-359.835 481.004,-362.998"/>
<polygon fill="midnightblue" stroke="midnightblue" points="370.271,-319.452 359.685,-319.001 367.679,-325.955 370.271,-319.452"/>
</g>
<!-- Node28 -->
<g id="node28" class="node"><title>Node28</title>
<g id="a_node28"><a xlink:href="../../d5/dbb/classmodel_1_1instructions_1_1_control_instruction.html#a738157283e6cd27e99b991d1e70258f6" target="_top" xlink:title="model.instructions.Control\lInstruction.makeVariable">
<polygon fill="white" stroke="black" points="462.5,-314 462.5,-344 605.5,-344 605.5,-314 462.5,-314"/>
<text text-anchor="start" x="470.5" y="-332" font-family="Helvetica,sans-Serif" font-size="10.00">model.instructions.Control</text>
<text text-anchor="middle" x="534" y="-321" font-family="Helvetica,sans-Serif" font-size="10.00">Instruction.makeVariable</text>
</a>
</g>
</g>
<!-- Node25&#45;&gt;Node28 -->
<g id="edge29" class="edge"><title>Node25&#45;&gt;Node28</title>
<path fill="none" stroke="midnightblue" d="M421.199,-315.69C435.062,-317.341 449.084,-319.01 462.292,-320.582"/>
<polygon fill="midnightblue" stroke="midnightblue" points="421.49,-312.2 411.146,-314.494 420.662,-319.151 421.49,-312.2"/>
</g>
<!-- Node28&#45;&gt;Node4 -->
<g id="edge30" class="edge"><title>Node28&#45;&gt;Node4</title>
<path fill="none" stroke="midnightblue" d="M615.603,-326.117C672.833,-323.394 751.374,-318.289 820,-309 837.021,-306.696 855.266,-303.427 872.23,-300.04"/>
<polygon fill="midnightblue" stroke="midnightblue" points="615.36,-322.624 605.532,-326.582 615.683,-329.617 615.36,-322.624"/>
</g>
<!-- Node29 -->
<g id="node29" class="node"><title>Node29</title>
<g id="a_node29"><a xlink:href="../../d5/dbb/classmodel_1_1instructions_1_1_control_instruction.html#afdbf98dbab1ed6b6ace9a1773299eb30" target="_top" xlink:title="model.instructions.Control\lInstruction.forLoop">
<polygon fill="white" stroke="black" points="665.5,-270 665.5,-300 808.5,-300 808.5,-270 665.5,-270"/>
<text text-anchor="start" x="673.5" y="-288" font-family="Helvetica,sans-Serif" font-size="10.00">model.instructions.Control</text>
<text text-anchor="middle" x="737" y="-277" font-family="Helvetica,sans-Serif" font-size="10.00">Instruction.forLoop</text>
</a>
</g>
</g>
<!-- Node28&#45;&gt;Node29 -->
<g id="edge31" class="edge"><title>Node28&#45;&gt;Node29</title>
<path fill="none" stroke="midnightblue" d="M613.39,-311.84C631.202,-307.941 649.988,-303.829 667.358,-300.026"/>
<polygon fill="midnightblue" stroke="midnightblue" points="612.631,-308.423 603.611,-313.981 614.128,-315.261 612.631,-308.423"/>
</g>
<!-- Node29&#45;&gt;Node4 -->
<g id="edge32" class="edge"><title>Node29&#45;&gt;Node4</title>
<path fill="none" stroke="midnightblue" d="M818.684,-285C835.086,-285 852.222,-285 868.248,-285"/>
<polygon fill="midnightblue" stroke="midnightblue" points="818.582,-281.5 808.582,-285 818.582,-288.5 818.582,-281.5"/>
</g>
<!-- Node30&#45;&gt;Node23 -->
<g id="edge34" class="edge"><title>Node30&#45;&gt;Node23</title>
<path fill="none" stroke="midnightblue" d="M392.454,-32.5288C418.59,-39.1251 448.058,-46.5622 473.235,-52.9165"/>
<polygon fill="midnightblue" stroke="midnightblue" points="393.168,-29.0995 382.616,-30.0459 391.455,-35.8866 393.168,-29.0995"/>
</g>
<!-- Node31&#45;&gt;Node6 -->
<g id="edge38" class="edge"><title>Node31&#45;&gt;Node6</title>
<path fill="none" stroke="midnightblue" d="M419.744,-166.506C477.363,-169.456 551.909,-173.738 618,-179 629.598,-179.923 641.824,-181.024 653.836,-182.178"/>
<polygon fill="midnightblue" stroke="midnightblue" points="419.718,-163 409.554,-165.989 419.363,-169.991 419.718,-163"/>
</g>
<!-- Node31&#45;&gt;Node13 -->
<g id="edge36" class="edge"><title>Node31&#45;&gt;Node13</title>
<path fill="none" stroke="midnightblue" d="M403.32,-144.789C432.234,-138.593 463.795,-131.83 488.541,-126.527"/>
<polygon fill="midnightblue" stroke="midnightblue" points="402.264,-141.435 393.219,-146.953 403.73,-148.28 402.264,-141.435"/>
</g>
<!-- Node31&#45;&gt;Node23 -->
<g id="edge37" class="edge"><title>Node31&#45;&gt;Node23</title>
<path fill="none" stroke="midnightblue" d="M403.197,-142.786C406.933,-141.021 410.556,-139.096 414,-137 434.15,-124.736 430.348,-111.048 450,-98 458.935,-92.0675 469.19,-87.1363 479.374,-83.1024"/>
<polygon fill="midnightblue" stroke="midnightblue" points="401.525,-139.696 393.718,-146.858 404.287,-146.127 401.525,-139.696"/>
</g>
</g>
</svg>
        <g id="navigator" transform="translate(0 0)" fill="#404254">
                <rect fill="#f2f5e9" fill-opacity="0.5" stroke="#606060" stroke-width=".5" x="0" y="0" width="60" height="60"/>
                <use id="zoomplus" xlink:href="#zoomPlus" x="17" y="9" onmousedown="handleZoom(evt,'in')"/>
                <use id="zoomminus" xlink:href="#zoomMin" x="42" y="9" onmousedown="handleZoom(evt,'out')"/>
                <use id="reset" xlink:href="#resetDef" x="30" y="36" onmousedown="handleReset()"/>
                <g id="arrowUp" xlink:href="#dirArrow" transform="translate(30 24)" onmousedown="handlePan(0,-1)">
                  <use xlink:href="#rim" fill="#404040">
                        <set attributeName="fill" to="#808080" begin="arrowUp.mouseover" end="arrowUp.mouseout"/>
                  </use>
                  <path fill="none" stroke="white" stroke-width="1.5" d="M0,-3.0v7 M-2.5,-0.5L0,-3.0L2.5,-0.5"/>
                </g>
                <g id="arrowRight" xlink:href="#dirArrow" transform="rotate(90) translate(36 -43)" onmousedown="handlePan(1,0)">
                  <use xlink:href="#rim" fill="#404040">
                        <set attributeName="fill" to="#808080" begin="arrowRight.mouseover" end="arrowRight.mouseout"/>
                  </use>
                  <path fill="none" stroke="white" stroke-width="1.5" d="M0,-3.0v7 M-2.5,-0.5L0,-3.0L2.5,-0.5"/>
                </g>
                <g id="arrowDown" xlink:href="#dirArrow" transform="rotate(180) translate(-30 -48)" onmousedown="handlePan(0,1)">
                  <use xlink:href="#rim" fill="#404040">
                        <set attributeName="fill" to="#808080" begin="arrowDown.mouseover" end="arrowDown.mouseout"/>
                  </use>
                  <path fill="none" stroke="white" stroke-width="1.5" d="M0,-3.0v7 M-2.5,-0.5L0,-3.0L2.5,-0.5"/>
                </g>
                <g id="arrowLeft" xlink:href="#dirArrow" transform="rotate(270) translate(-36 17)" onmousedown="handlePan(-1,0)">
                  <use xlink:href="#rim" fill="#404040">
                        <set attributeName="fill" to="#808080" begin="arrowLeft.mouseover" end="arrowLeft.mouseout"/>
                  </use>
                  <path fill="none" stroke="white" stroke-width="1.5" d="M0,-3.0v7 M-2.5,-0.5L0,-3.0L2.5,-0.5"/>
                </g>
        </g>
        <svg viewBox="0 0 15 15" width="100%" height="30px" preserveAspectRatio="xMaxYMin meet">
         <g id="arrow_out" transform="scale(0.3 0.3)">
          <a xlink:href="classmodel_1_1_execution_environment_a93fd01341f06dfa81727344b120aef66_icgraph_org.svg" target="_base">
           <rect id="button" ry="5" rx="5" y="6" x="6" height="38" width="38"
                fill="#f2f5e9" fill-opacity="0.5" stroke="#606060" stroke-width="1.0"/>
           <path id="arrow"
             d="M 11.500037,31.436501 C 11.940474,20.09759 22.043105,11.32322 32.158766,21.979434 L 37.068811,17.246167 C 37.068811,17.246167 37.088388,32 37.088388,32 L 22.160133,31.978069 C 22.160133,31.978069 26.997745,27.140456 26.997745,27.140456 C 18.528582,18.264221 13.291696,25.230495 11.500037,31.436501 z"
             style="fill:#404040;"/>
          </a>
         </g>
        </svg>
</svg>
