<?xml version="1.0" encoding="UTF-8" standalone="no"?>
<!DOCTYPE svg PUBLIC "-//W3C//DTD SVG 1.1//EN"
 "http://www.w3.org/Graphics/SVG/1.1/DTD/svg11.dtd">
<!-- Generated by graphviz version 2.36.0 (20140111.2315)
 -->
<!-- Title: model.ExecutionEnvironment.getActiveTurtle Pages: 1 -->
<svg width="576pt" height="224pt"
 viewBox="0.00 0.00 576.00 224.00" xmlns="http://www.w3.org/2000/svg" xmlns:xlink="http://www.w3.org/1999/xlink">
<g id="graph0" class="graph" transform="scale(1 1) rotate(0) translate(4 220)">
<title>model.ExecutionEnvironment.getActiveTurtle</title>
<polygon fill="white" stroke="none" points="-4,4 -4,-220 572,-220 572,4 -4,4"/>
<!-- Node1 -->
<g id="node1" class="node"><title>Node1</title>
<polygon fill="#bfbfbf" stroke="black" points="0,-88 0,-118 176,-118 176,-88 0,-88"/>
<text text-anchor="start" x="8" y="-106" font-family="Helvetica,sans-Serif" font-size="10.00">model.ExecutionEnvironment.get</text>
<text text-anchor="middle" x="88" y="-95" font-family="Helvetica,sans-Serif" font-size="10.00">ActiveTurtle</text>
</g>
<!-- Node2 -->
<g id="node2" class="node"><title>Node2</title>
<g id="a_node2"><a xlink:href="../../da/d93/classmodel_1_1instructions_1_1_turtle_request_instruction.html#ae36ffe88cf02c9a5b136317a2fff5b3e" target="_top" xlink:title="model.instructions.Turtle\lRequestInstruction.execute">
<polygon fill="white" stroke="black" points="219,-186 219,-216 365,-216 365,-186 219,-186"/>
<text text-anchor="start" x="227" y="-204" font-family="Helvetica,sans-Serif" font-size="10.00">model.instructions.Turtle</text>
<text text-anchor="middle" x="292" y="-193" font-family="Helvetica,sans-Serif" font-size="10.00">RequestInstruction.execute</text>
</a>
</g>
</g>
<!-- Node1&#45;&gt;Node2 -->
<g id="edge1" class="edge"><title>Node1&#45;&gt;Node2</title>
<path fill="none" stroke="midnightblue" d="M119.254,-123.624C143.528,-139.503 178.898,-161.176 212,-176 220.14,-179.645 228.971,-182.991 237.681,-185.969"/>
<polygon fill="midnightblue" stroke="midnightblue" points="121.11,-120.655 110.838,-118.058 117.249,-126.494 121.11,-120.655"/>
</g>
<!-- Node3 -->
<g id="node3" class="node"><title>Node3</title>
<g id="a_node3"><a xlink:href="../../dc/dbe/classmodel_1_1instructions_1_1_multiple_turtles_instruction.html#a592a35330637d1bd6edfe4476163e0a1" target="_top" xlink:title="model.instructions.Multiple\lTurtlesInstruction.execute">
<polygon fill="white" stroke="black" points="219.5,-137 219.5,-167 364.5,-167 364.5,-137 219.5,-137"/>
<text text-anchor="start" x="227.5" y="-155" font-family="Helvetica,sans-Serif" font-size="10.00">model.instructions.Multiple</text>
<text text-anchor="middle" x="292" y="-144" font-family="Helvetica,sans-Serif" font-size="10.00">TurtlesInstruction.execute</text>
</a>
</g>
</g>
<!-- Node1&#45;&gt;Node3 -->
<g id="edge2" class="edge"><title>Node1&#45;&gt;Node3</title>
<path fill="none" stroke="midnightblue" d="M160.746,-120.404C183.092,-125.824 207.529,-131.752 229.138,-136.994"/>
<polygon fill="midnightblue" stroke="midnightblue" points="161.523,-116.991 150.979,-118.035 159.872,-123.793 161.523,-116.991"/>
</g>
<!-- Node4 -->
<g id="node4" class="node"><title>Node4</title>
<g id="a_node4"><a xlink:href="../../d2/d2b/classmodel_1_1instructions_1_1_front_end_instruction.html#ad73f35e44bf151648463df17e10152ac" target="_top" xlink:title="model.instructions.Front\lEndInstruction.execute">
<polygon fill="white" stroke="black" points="226,-88 226,-118 358,-118 358,-88 226,-88"/>
<text text-anchor="start" x="234" y="-106" font-family="Helvetica,sans-Serif" font-size="10.00">model.instructions.Front</text>
<text text-anchor="middle" x="292" y="-95" font-family="Helvetica,sans-Serif" font-size="10.00">EndInstruction.execute</text>
</a>
</g>
</g>
<!-- Node1&#45;&gt;Node4 -->
<g id="edge3" class="edge"><title>Node1&#45;&gt;Node4</title>
<path fill="none" stroke="midnightblue" d="M186.33,-103C199.709,-103 213.174,-103 225.785,-103"/>
<polygon fill="midnightblue" stroke="midnightblue" points="186.132,-99.5001 176.132,-103 186.132,-106.5 186.132,-99.5001"/>
</g>
<!-- Node5 -->
<g id="node5" class="node"><title>Node5</title>
<g id="a_node5"><a xlink:href="../../d1/dd3/classmodel_1_1instructions_1_1_movement_instruction.html#a33e802cec8283d190a8daac6e485e3b4" target="_top" xlink:title="model.instructions.Movement\lInstruction.execute">
<polygon fill="white" stroke="black" points="408.5,-22 408.5,-52 567.5,-52 567.5,-22 408.5,-22"/>
<text text-anchor="start" x="416.5" y="-40" font-family="Helvetica,sans-Serif" font-size="10.00">model.instructions.Movement</text>
<text text-anchor="middle" x="488" y="-29" font-family="Helvetica,sans-Serif" font-size="10.00">Instruction.execute</text>
</a>
</g>
</g>
<!-- Node1&#45;&gt;Node5 -->
<g id="edge4" class="edge"><title>Node1&#45;&gt;Node5</title>
<path fill="none" stroke="midnightblue" d="M173.229,-86.0884C186.197,-83.6228 199.445,-81.1826 212,-79 278.021,-67.5223 353.259,-56.1485 408.329,-48.1376"/>
<polygon fill="midnightblue" stroke="midnightblue" points="172.547,-82.6555 163.384,-87.975 173.864,-89.5304 172.547,-82.6555"/>
</g>
<!-- Node6 -->
<g id="node6" class="node"><title>Node6</title>
<g id="a_node6"><a xlink:href="../../d1/dd3/classmodel_1_1instructions_1_1_movement_instruction.html#a51c776093aeb820937b12e2b89eb2f89" target="_top" xlink:title="model.instructions.Movement\lInstruction.updateView">
<polygon fill="white" stroke="black" points="212.5,-0 212.5,-30 371.5,-30 371.5,-0 212.5,-0"/>
<text text-anchor="start" x="220.5" y="-18" font-family="Helvetica,sans-Serif" font-size="10.00">model.instructions.Movement</text>
<text text-anchor="middle" x="292" y="-7" font-family="Helvetica,sans-Serif" font-size="10.00">Instruction.updateView</text>
</a>
</g>
</g>
<!-- Node1&#45;&gt;Node6 -->
<g id="edge5" class="edge"><title>Node1&#45;&gt;Node6</title>
<path fill="none" stroke="midnightblue" d="M128.411,-83.4598C152.372,-71.8201 183.705,-57.022 212,-45 224.017,-39.894 237.227,-34.7123 249.348,-30.1247"/>
<polygon fill="midnightblue" stroke="midnightblue" points="126.735,-80.383 119.283,-87.9142 129.805,-86.6739 126.735,-80.383"/>
</g>
<!-- Node6&#45;&gt;Node5 -->
<g id="edge6" class="edge"><title>Node6&#45;&gt;Node5</title>
<path fill="none" stroke="midnightblue" d="M381.608,-25.0484C390.498,-26.0565 399.483,-27.0754 408.26,-28.0708"/>
<polygon fill="midnightblue" stroke="midnightblue" points="381.958,-21.5657 371.628,-23.9165 381.169,-28.5211 381.958,-21.5657"/>
</g>
</g>
</svg>
