<?xml version="1.0" encoding="UTF-8" standalone="no"?>
<!DOCTYPE svg PUBLIC "-//W3C//DTD SVG 1.1//EN"
 "http://www.w3.org/Graphics/SVG/1.1/DTD/svg11.dtd">
<!-- Generated by graphviz version 2.36.0 (20140111.2315)
 -->
<!-- Title: model.ExecutionEnvironment.clearActiveList Pages: 1 -->
<svg width="374pt" height="38pt"
 viewBox="0.00 0.00 374.00 38.00" xmlns="http://www.w3.org/2000/svg" xmlns:xlink="http://www.w3.org/1999/xlink">
<g id="graph0" class="graph" transform="scale(1 1) rotate(0) translate(4 34)">
<title>model.ExecutionEnvironment.clearActiveList</title>
<polygon fill="white" stroke="none" points="-4,4 -4,-34 370,-34 370,4 -4,4"/>
<!-- Node1 -->
<g id="node1" class="node"><title>Node1</title>
<polygon fill="#bfbfbf" stroke="black" points="0.5,-0 0.5,-30 183.5,-30 183.5,-0 0.5,-0"/>
<text text-anchor="start" x="8.5" y="-18" font-family="Helvetica,sans-Serif" font-size="10.00">model.ExecutionEnvironment.clear</text>
<text text-anchor="middle" x="92" y="-7" font-family="Helvetica,sans-Serif" font-size="10.00">ActiveList</text>
</g>
<!-- Node2 -->
<g id="node2" class="node"><title>Node2</title>
<g id="a_node2"><a xlink:href="../../dc/dbe/classmodel_1_1instructions_1_1_multiple_turtles_instruction.html#a592a35330637d1bd6edfe4476163e0a1" target="_top" xlink:title="model.instructions.Multiple\lTurtlesInstruction.execute">
<polygon fill="white" stroke="black" points="220.5,-0 220.5,-30 365.5,-30 365.5,-0 220.5,-0"/>
<text text-anchor="start" x="228.5" y="-18" font-family="Helvetica,sans-Serif" font-size="10.00">model.instructions.Multiple</text>
<text text-anchor="middle" x="293" y="-7" font-family="Helvetica,sans-Serif" font-size="10.00">TurtlesInstruction.execute</text>
</a>
</g>
</g>
<!-- Node1&#45;&gt;Node2 -->
<g id="edge1" class="edge"><title>Node1&#45;&gt;Node2</title>
<path fill="none" stroke="midnightblue" d="M193.88,-15C202.848,-15 211.8,-15 220.446,-15"/>
<polygon fill="midnightblue" stroke="midnightblue" points="193.765,-11.5001 183.765,-15 193.765,-18.5001 193.765,-11.5001"/>
</g>
</g>
</svg>
