<?xml version="1.0" encoding="UTF-8" standalone="no"?>
<!DOCTYPE svg PUBLIC "-//W3C//DTD SVG 1.1//EN"
 "http://www.w3.org/Graphics/SVG/1.1/DTD/svg11.dtd">
<!-- Generated by graphviz version 2.36.0 (20140111.2315)
 -->
<!-- Title: model.ExecutionEnvironment.addVariable Pages: 1 -->
<svg width="750pt" height="158pt"
 viewBox="0.00 0.00 750.00 158.00" xmlns="http://www.w3.org/2000/svg" xmlns:xlink="http://www.w3.org/1999/xlink">
<g id="graph0" class="graph" transform="scale(1 1) rotate(0) translate(4 154)">
<title>model.ExecutionEnvironment.addVariable</title>
<polygon fill="white" stroke="none" points="-4,4 -4,-154 746,-154 746,4 -4,4"/>
<!-- Node1 -->
<g id="node1" class="node"><title>Node1</title>
<polygon fill="#bfbfbf" stroke="black" points="0,-71 0,-101 178,-101 178,-71 0,-71"/>
<text text-anchor="start" x="8" y="-89" font-family="Helvetica,sans-Serif" font-size="10.00">model.ExecutionEnvironment.add</text>
<text text-anchor="middle" x="89" y="-78" font-family="Helvetica,sans-Serif" font-size="10.00">Variable</text>
</g>
<!-- Node2 -->
<g id="node2" class="node"><title>Node2</title>
<g id="a_node2"><a xlink:href="../../d9/dd3/classview_1_1_variables_view.html#a77a0efc0b8fdb1f12526b9146ce58473" target="_top" xlink:title="view.VariablesView.create\lColumns">
<polygon fill="white" stroke="black" points="229.5,-120 229.5,-150 366.5,-150 366.5,-120 229.5,-120"/>
<text text-anchor="start" x="237.5" y="-138" font-family="Helvetica,sans-Serif" font-size="10.00">view.VariablesView.create</text>
<text text-anchor="middle" x="298" y="-127" font-family="Helvetica,sans-Serif" font-size="10.00">Columns</text>
</a>
</g>
</g>
<!-- Node1&#45;&gt;Node2 -->
<g id="edge1" class="edge"><title>Node1&#45;&gt;Node2</title>
<path fill="none" stroke="midnightblue" d="M163.522,-103.404C186.421,-108.824 211.463,-114.752 233.607,-119.994"/>
<polygon fill="midnightblue" stroke="midnightblue" points="164.051,-99.9323 153.514,-101.035 162.438,-106.744 164.051,-99.9323"/>
</g>
<!-- Node3 -->
<g id="node3" class="node"><title>Node3</title>
<g id="a_node3"><a xlink:href="../../d9/d13/classmodel_1_1instructions_1_1_user_running_instruction.html#aa0e048b0bbca8aaddd3ea84bd0cf7bf7" target="_top" xlink:title="model.instructions.UserRunning\lInstruction.execute">
<polygon fill="white" stroke="black" points="214,-71 214,-101 382,-101 382,-71 214,-71"/>
<text text-anchor="start" x="222" y="-89" font-family="Helvetica,sans-Serif" font-size="10.00">model.instructions.UserRunning</text>
<text text-anchor="middle" x="298" y="-78" font-family="Helvetica,sans-Serif" font-size="10.00">Instruction.execute</text>
</a>
</g>
</g>
<!-- Node1&#45;&gt;Node3 -->
<g id="edge2" class="edge"><title>Node1&#45;&gt;Node3</title>
<path fill="none" stroke="midnightblue" d="M188.166,-86C196.783,-86 205.449,-86 213.926,-86"/>
<polygon fill="midnightblue" stroke="midnightblue" points="188.087,-82.5001 178.087,-86 188.087,-89.5001 188.087,-82.5001"/>
</g>
<!-- Node4 -->
<g id="node4" class="node"><title>Node4</title>
<g id="a_node4"><a xlink:href="../../d5/dbb/classmodel_1_1instructions_1_1_control_instruction.html#a738157283e6cd27e99b991d1e70258f6" target="_top" xlink:title="model.instructions.Control\lInstruction.makeVariable">
<polygon fill="white" stroke="black" points="226.5,-22 226.5,-52 369.5,-52 369.5,-22 226.5,-22"/>
<text text-anchor="start" x="234.5" y="-40" font-family="Helvetica,sans-Serif" font-size="10.00">model.instructions.Control</text>
<text text-anchor="middle" x="298" y="-29" font-family="Helvetica,sans-Serif" font-size="10.00">Instruction.makeVariable</text>
</a>
</g>
</g>
<!-- Node1&#45;&gt;Node4 -->
<g id="edge3" class="edge"><title>Node1&#45;&gt;Node4</title>
<path fill="none" stroke="midnightblue" d="M163.522,-68.5962C186.421,-63.1757 211.463,-57.248 233.607,-52.0062"/>
<polygon fill="midnightblue" stroke="midnightblue" points="162.438,-65.2559 153.514,-70.9654 164.051,-72.0677 162.438,-65.2559"/>
</g>
<!-- Node5 -->
<g id="node5" class="node"><title>Node5</title>
<g id="a_node5"><a xlink:href="../../d5/dbb/classmodel_1_1instructions_1_1_control_instruction.html#a5ec77a176debc7a35ce9026c808d021e" target="_top" xlink:title="model.instructions.Control\lInstruction.execute">
<polygon fill="white" stroke="black" points="598.5,-22 598.5,-52 741.5,-52 741.5,-22 598.5,-22"/>
<text text-anchor="start" x="606.5" y="-40" font-family="Helvetica,sans-Serif" font-size="10.00">model.instructions.Control</text>
<text text-anchor="middle" x="670" y="-29" font-family="Helvetica,sans-Serif" font-size="10.00">Instruction.execute</text>
</a>
</g>
</g>
<!-- Node4&#45;&gt;Node5 -->
<g id="edge4" class="edge"><title>Node4&#45;&gt;Node5</title>
<path fill="none" stroke="midnightblue" d="M379.926,-38.5428C392.666,-38.733 405.691,-38.8966 418,-39 481.998,-39.5378 498.003,-39.5981 562,-39 573.798,-38.8898 586.326,-38.7111 598.496,-38.5049"/>
<polygon fill="midnightblue" stroke="midnightblue" points="379.841,-35.0412 369.788,-38.3852 379.733,-42.0403 379.841,-35.0412"/>
</g>
<!-- Node6 -->
<g id="node6" class="node"><title>Node6</title>
<g id="a_node6"><a xlink:href="../../d5/dbb/classmodel_1_1instructions_1_1_control_instruction.html#afdbf98dbab1ed6b6ace9a1773299eb30" target="_top" xlink:title="model.instructions.Control\lInstruction.forLoop">
<polygon fill="white" stroke="black" points="418.5,-0 418.5,-30 561.5,-30 561.5,-0 418.5,-0"/>
<text text-anchor="start" x="426.5" y="-18" font-family="Helvetica,sans-Serif" font-size="10.00">model.instructions.Control</text>
<text text-anchor="middle" x="490" y="-7" font-family="Helvetica,sans-Serif" font-size="10.00">Instruction.forLoop</text>
</a>
</g>
</g>
<!-- Node4&#45;&gt;Node6 -->
<g id="edge5" class="edge"><title>Node4&#45;&gt;Node6</title>
<path fill="none" stroke="midnightblue" d="M379.874,-27.6356C392.615,-26.1604 405.702,-24.645 418.192,-23.1988"/>
<polygon fill="midnightblue" stroke="midnightblue" points="379.28,-24.1809 369.749,-28.808 380.085,-31.1345 379.28,-24.1809"/>
</g>
<!-- Node6&#45;&gt;Node5 -->
<g id="edge6" class="edge"><title>Node6&#45;&gt;Node5</title>
<path fill="none" stroke="midnightblue" d="M571.646,-24.9675C580.599,-26.074 589.666,-27.1946 598.479,-28.284"/>
<polygon fill="midnightblue" stroke="midnightblue" points="571.96,-21.4797 561.606,-23.7266 571.101,-28.4269 571.96,-21.4797"/>
</g>
</g>
</svg>
