<?xml version="1.0" encoding="UTF-8" standalone="no"?>
<!DOCTYPE svg PUBLIC "-//W3C//DTD SVG 1.1//EN"
 "http://www.w3.org/Graphics/SVG/1.1/DTD/svg11.dtd">
<!-- Generated by graphviz version 2.36.0 (20140111.2315)
 -->
<!-- Title: model.XMLParser Pages: 1 -->
<svg width="311pt" height="96pt"
 viewBox="0.00 0.00 311.00 96.00" xmlns="http://www.w3.org/2000/svg" xmlns:xlink="http://www.w3.org/1999/xlink">
<g id="graph0" class="graph" transform="scale(1 1) rotate(0) translate(4 92)">
<title>model.XMLParser</title>
<polygon fill="white" stroke="none" points="-4,4 -4,-92 307,-92 307,4 -4,4"/>
<!-- Node1 -->
<g id="node1" class="node"><title>Node1</title>
<polygon fill="#bfbfbf" stroke="black" points="108.5,-0.5 108.5,-19.5 207.5,-19.5 207.5,-0.5 108.5,-0.5"/>
<text text-anchor="middle" x="158" y="-7.5" font-family="Helvetica,sans-Serif" font-size="10.00">model.XMLParser</text>
</g>
<!-- Node2 -->
<g id="node2" class="node"><title>Node2</title>
<polygon fill="white" stroke="#bfbfbf" points="-1,-68.5 -1,-87.5 157,-87.5 157,-68.5 -1,-68.5"/>
<text text-anchor="middle" x="78" y="-75.5" font-family="Helvetica,sans-Serif" font-size="10.00">List&lt; model.XMLInstruction &gt;</text>
</g>
<!-- Node2&#45;&gt;Node1 -->
<g id="edge1" class="edge"><title>Node2&#45;&gt;Node1</title>
<path fill="none" stroke="#9a32cd" stroke-dasharray="5,2" d="M94.1978,-61.0294C101.819,-53.7608 111.158,-45.1951 120,-38 128.035,-31.4617 137.535,-24.7117 145.026,-19.5963"/>
<polygon fill="#9a32cd" stroke="#9a32cd" points="91.4576,-58.8109 86.7078,-68.2814 96.3267,-63.8399 91.4576,-58.8109"/>
<text text-anchor="middle" x="168.5" y="-41.5" font-family="Helvetica,sans-Serif" font-size="10.00"> myUserInstructions</text>
</g>
<!-- Node3 -->
<g id="node3" class="node"><title>Node3</title>
<polygon fill="white" stroke="#bfbfbf" points="175,-68.5 175,-87.5 303,-87.5 303,-68.5 175,-68.5"/>
<text text-anchor="middle" x="239" y="-75.5" font-family="Helvetica,sans-Serif" font-size="10.00">Map&lt; String, Double &gt;</text>
</g>
<!-- Node3&#45;&gt;Node1 -->
<g id="edge2" class="edge"><title>Node3&#45;&gt;Node1</title>
<path fill="none" stroke="#9a32cd" stroke-dasharray="5,2" d="M231.839,-59.0597C228.244,-51.8003 223.296,-43.7861 217,-38 208.125,-29.8444 196.362,-23.7895 185.675,-19.504"/>
<polygon fill="#9a32cd" stroke="#9a32cd" points="228.645,-60.492 235.903,-68.2107 235.043,-57.6508 228.645,-60.492"/>
<text text-anchor="middle" x="264.5" y="-41.5" font-family="Helvetica,sans-Serif" font-size="10.00"> myVariableMap</text>
</g>
</g>
</svg>
