<?xml version="1.0" encoding="UTF-8" standalone="no"?>
<!DOCTYPE svg PUBLIC "-//W3C//DTD SVG 1.1//EN"
 "http://www.w3.org/Graphics/SVG/1.1/DTD/svg11.dtd">
<!-- Generated by graphviz version 2.36.0 (20140111.2315)
 -->
<!-- Title: view.Drawer Pages: 1 -->
<svg width="1754pt" height="928pt"
 viewBox="0.00 0.00 1754.00 927.89" xmlns="http://www.w3.org/2000/svg" xmlns:xlink="http://www.w3.org/1999/xlink">
<g id="graph0" class="graph" transform="scale(1 1) rotate(0) translate(4 923.887)">
<title>view.Drawer</title>
<polygon fill="white" stroke="none" points="-4,4 -4,-923.887 1750,-923.887 1750,4 -4,4"/>
<!-- Node1 -->
<g id="node1" class="node"><title>Node1</title>
<polygon fill="#bfbfbf" stroke="black" points="280.5,-860.387 280.5,-879.387 353.5,-879.387 353.5,-860.387 280.5,-860.387"/>
<text text-anchor="middle" x="317" y="-867.387" font-family="Helvetica,sans-Serif" font-size="10.00">view.Drawer</text>
</g>
<!-- Node27 -->
<g id="node27" class="node"><title>Node27</title>
<g id="a_node27"><a xlink:href="../../d4/d64/classview_1_1_view_updater.html" target="_top" xlink:title="view.ViewUpdater">
<polygon fill="white" stroke="black" points="589,-555.387 589,-574.387 689,-574.387 689,-555.387 589,-555.387"/>
<text text-anchor="middle" x="639" y="-562.387" font-family="Helvetica,sans-Serif" font-size="10.00">view.ViewUpdater</text>
</a>
</g>
</g>
<!-- Node1&#45;&gt;Node27 -->
<g id="edge36" class="edge"><title>Node1&#45;&gt;Node27</title>
<path fill="none" stroke="#9a32cd" stroke-dasharray="5,2" d="M335.699,-853.018C394.506,-796.967 582.241,-618.032 627.913,-574.501"/>
<polygon fill="#9a32cd" stroke="#9a32cd" points="333.108,-850.652 328.285,-860.085 337.938,-855.719 333.108,-850.652"/>
<text text-anchor="middle" x="478" y="-765.887" font-family="Helvetica,sans-Serif" font-size="10.00"> myDrawer</text>
</g>
<!-- Node29 -->
<g id="node29" class="node"><title>Node29</title>
<g id="a_node29"><a xlink:href="../../d6/de7/classview_1_1_s_logo_view.html" target="_top" xlink:title="view.SLogoView">
<polygon fill="white" stroke="black" points="1654.5,-277.387 1654.5,-296.387 1745.5,-296.387 1745.5,-277.387 1654.5,-277.387"/>
<text text-anchor="middle" x="1700" y="-284.387" font-family="Helvetica,sans-Serif" font-size="10.00">view.SLogoView</text>
</a>
</g>
</g>
<!-- Node1&#45;&gt;Node29 -->
<g id="edge53" class="edge"><title>Node1&#45;&gt;Node29</title>
<path fill="none" stroke="#9a32cd" stroke-dasharray="5,2" d="M363.659,-878.988C425.553,-890.513 539.657,-908.887 638,-908.887 638,-908.887 638,-908.887 1483,-908.887 1618.46,-908.887 1688.23,-375.789 1697.85,-296.658"/>
<polygon fill="#9a32cd" stroke="#9a32cd" points="364.294,-875.547 353.819,-877.132 362.997,-882.425 364.294,-875.547"/>
<text text-anchor="middle" x="1098" y="-911.887" font-family="Helvetica,sans-Serif" font-size="10.00"> drawer</text>
</g>
<!-- Node2 -->
<g id="node2" class="node"><title>Node2</title>
<g id="a_node2"><a xlink:href="../../da/d64/classview_1_1_workspace.html" target="_top" xlink:title="view.Workspace">
<polygon fill="white" stroke="black" points="1437,-623.387 1437,-642.387 1527,-642.387 1527,-623.387 1437,-623.387"/>
<text text-anchor="middle" x="1482" y="-630.387" font-family="Helvetica,sans-Serif" font-size="10.00">view.Workspace</text>
</a>
</g>
</g>
<!-- Node2&#45;&gt;Node1 -->
<g id="edge1" class="edge"><title>Node2&#45;&gt;Node1</title>
<path fill="none" stroke="#9a32cd" stroke-dasharray="5,2" d="M1478.89,-652.694C1473.64,-691.778 1456.41,-779.083 1404,-825.887 1348.67,-875.299 1317.18,-869.887 1243,-869.887 638,-869.887 638,-869.887 638,-869.887 534.667,-869.887 412.564,-869.887 353.515,-869.887"/>
<polygon fill="#9a32cd" stroke="#9a32cd" points="1482.38,-652.964 1480.11,-642.615 1475.43,-652.12 1482.38,-652.964"/>
<text text-anchor="middle" x="953" y="-872.887" font-family="Helvetica,sans-Serif" font-size="10.00"> myWorkspace</text>
</g>
<!-- Node2&#45;&gt;Node27 -->
<g id="edge35" class="edge"><title>Node2&#45;&gt;Node27</title>
<path fill="none" stroke="#9a32cd" stroke-dasharray="5,2" d="M1460.39,-617.278C1445.33,-606.371 1424.12,-592.006 1404,-581.887 1364.31,-561.925 1353.76,-555.558 1310,-547.887 1250.46,-537.451 1232.51,-532.725 1174,-547.887 1165.14,-550.183 1164.63,-554.848 1156,-557.887 1099,-577.956 1082.21,-575.758 1022,-580.887 898.89,-591.376 867.196,-590.309 744,-580.887 725.967,-579.508 706.328,-576.803 689.023,-574.004"/>
<polygon fill="#9a32cd" stroke="#9a32cd" points="1458.36,-620.13 1468.49,-623.242 1462.51,-614.494 1458.36,-620.13"/>
<text text-anchor="middle" x="1098" y="-582.887" font-family="Helvetica,sans-Serif" font-size="10.00"> myWorkspace</text>
</g>
<!-- Node2&#45;&gt;Node29 -->
<g id="edge40" class="edge"><title>Node2&#45;&gt;Node29</title>
<path fill="none" stroke="#9a32cd" stroke-dasharray="5,2" d="M1498.06,-615.39C1527.22,-580.956 1592.34,-501.263 1636,-426.887 1663.39,-380.227 1686.96,-319.535 1695.54,-296.405"/>
<polygon fill="#9a32cd" stroke="#9a32cd" points="1495.28,-613.257 1491.46,-623.139 1500.61,-617.797 1495.28,-613.257"/>
<text text-anchor="middle" x="1598" y="-539.887" font-family="Helvetica,sans-Serif" font-size="10.00"> myWorkspace</text>
</g>
<!-- Node3 -->
<g id="node3" class="node"><title>Node3</title>
<polygon fill="white" stroke="#bfbfbf" points="1208.5,-645.387 1208.5,-664.387 1275.5,-664.387 1275.5,-645.387 1208.5,-645.387"/>
<text text-anchor="middle" x="1242" y="-652.387" font-family="Helvetica,sans-Serif" font-size="10.00">StackPane</text>
</g>
<!-- Node3&#45;&gt;Node2 -->
<g id="edge2" class="edge"><title>Node3&#45;&gt;Node2</title>
<path fill="none" stroke="midnightblue" d="M1285.65,-650.945C1328.25,-647.007 1393.47,-640.979 1436.66,-636.986"/>
<polygon fill="midnightblue" stroke="midnightblue" points="1285.23,-647.469 1275.59,-651.875 1285.87,-654.439 1285.23,-647.469"/>
</g>
<!-- Node4 -->
<g id="node4" class="node"><title>Node4</title>
<polygon fill="white" stroke="#bfbfbf" points="906.5,-691.387 906.5,-710.387 999.5,-710.387 999.5,-691.387 906.5,-691.387"/>
<text text-anchor="middle" x="953" y="-698.387" font-family="Helvetica,sans-Serif" font-size="10.00">ResourceBundle</text>
</g>
<!-- Node4&#45;&gt;Node2 -->
<g id="edge3" class="edge"><title>Node4&#45;&gt;Node2</title>
<path fill="none" stroke="#9a32cd" stroke-dasharray="5,2" d="M1009.82,-700.748C1095.74,-699.378 1265.04,-692.079 1404,-657.887 1421.2,-653.656 1440.12,-647.534 1454.9,-642.407"/>
<polygon fill="#9a32cd" stroke="#9a32cd" points="1009.71,-697.249 999.76,-700.887 1009.81,-704.249 1009.71,-697.249"/>
<text text-anchor="middle" x="1242" y="-695.887" font-family="Helvetica,sans-Serif" font-size="10.00"> myResources</text>
</g>
<!-- Node9 -->
<g id="node9" class="node"><title>Node9</title>
<g id="a_node9"><a xlink:href="../../d1/dc7/classview_1_1_side_bar.html" target="_top" xlink:title="view.SideBar">
<polygon fill="white" stroke="black" points="1203.5,-430.387 1203.5,-449.387 1280.5,-449.387 1280.5,-430.387 1203.5,-430.387"/>
<text text-anchor="middle" x="1242" y="-437.387" font-family="Helvetica,sans-Serif" font-size="10.00">view.SideBar</text>
</a>
</g>
</g>
<!-- Node4&#45;&gt;Node9 -->
<g id="edge12" class="edge"><title>Node4&#45;&gt;Node9</title>
<path fill="none" stroke="#9a32cd" stroke-dasharray="5,2" d="M994.084,-688.449C1008.49,-684.188 1024.9,-679.571 1040,-675.887 1091.06,-663.429 1119.32,-690.532 1156,-652.887 1189.04,-618.976 1157.21,-592.158 1174,-547.887 1188.95,-508.482 1218.89,-467.758 1233.13,-449.618"/>
<polygon fill="#9a32cd" stroke="#9a32cd" points="993.05,-685.105 984.474,-691.326 995.057,-691.811 993.05,-685.105"/>
<text text-anchor="middle" x="1098" y="-678.887" font-family="Helvetica,sans-Serif" font-size="10.00"> myResources</text>
</g>
<!-- Node4&#45;&gt;Node29 -->
<g id="edge42" class="edge"><title>Node4&#45;&gt;Node29</title>
<path fill="none" stroke="#9a32cd" stroke-dasharray="5,2" d="M1009.8,-711.118C1120,-728.301 1369.81,-751.986 1542,-651.887 1594.73,-621.231 1607.08,-605.594 1636,-551.887 1684.88,-461.119 1696.19,-332.774 1698.48,-296.671"/>
<polygon fill="#9a32cd" stroke="#9a32cd" points="1010.32,-707.657 999.89,-709.532 1009.21,-714.569 1010.32,-707.657"/>
<text text-anchor="middle" x="1366" y="-721.887" font-family="Helvetica,sans-Serif" font-size="10.00"> myResources</text>
</g>
<!-- Node5 -->
<g id="node5" class="node"><title>Node5</title>
<g id="a_node5"><a xlink:href="../../d8/df7/classview_1_1_turtle_view.html" target="_top" xlink:title="view.TurtleView">
<polygon fill="white" stroke="black" points="1199,-815.387 1199,-834.387 1285,-834.387 1285,-815.387 1199,-815.387"/>
<text text-anchor="middle" x="1242" y="-822.387" font-family="Helvetica,sans-Serif" font-size="10.00">view.TurtleView</text>
</a>
</g>
</g>
<!-- Node5&#45;&gt;Node2 -->
<g id="edge4" class="edge"><title>Node5&#45;&gt;Node2</title>
<path fill="none" stroke="#9a32cd" stroke-dasharray="5,2" d="M1295.38,-818.539C1329.45,-812.117 1373.13,-799.307 1404,-773.887 1448.35,-737.365 1471.19,-668.32 1478.41,-642.743"/>
<polygon fill="#9a32cd" stroke="#9a32cd" points="1294.38,-815.16 1285.14,-820.333 1295.59,-822.055 1294.38,-815.16"/>
<text text-anchor="middle" x="1366" y="-813.887" font-family="Helvetica,sans-Serif" font-size="10.00"> myActiveTurtle</text>
</g>
<!-- Node6 -->
<g id="node6" class="node"><title>Node6</title>
<polygon fill="white" stroke="#bfbfbf" points="919,-814.387 919,-833.387 987,-833.387 987,-814.387 919,-814.387"/>
<text text-anchor="middle" x="953" y="-821.387" font-family="Helvetica,sans-Serif" font-size="10.00">ImageView</text>
</g>
<!-- Node6&#45;&gt;Node5 -->
<g id="edge5" class="edge"><title>Node6&#45;&gt;Node5</title>
<path fill="none" stroke="midnightblue" d="M997.164,-828.091C1010.85,-829.238 1026.05,-830.32 1040,-830.887 1091.51,-832.98 1104.48,-832.704 1156,-830.887 1169.9,-830.398 1185.05,-829.458 1198.66,-828.466"/>
<polygon fill="midnightblue" stroke="midnightblue" points="997.307,-824.59 987.041,-827.208 996.699,-831.563 997.307,-824.59"/>
</g>
<!-- Node7 -->
<g id="node7" class="node"><title>Node7</title>
<polygon fill="white" stroke="#bfbfbf" points="930,-776.387 930,-795.387 976,-795.387 976,-776.387 930,-776.387"/>
<text text-anchor="middle" x="953" y="-783.387" font-family="Helvetica,sans-Serif" font-size="10.00">Group</text>
</g>
<!-- Node7&#45;&gt;Node2 -->
<g id="edge8" class="edge"><title>Node7&#45;&gt;Node2</title>
<path fill="none" stroke="#9a32cd" stroke-dasharray="5,2" d="M986.314,-782.474C1062.13,-773.584 1256.18,-745.68 1404,-679.887 1427.61,-669.379 1452.77,-652.892 1467.68,-642.498"/>
<polygon fill="#9a32cd" stroke="#9a32cd" points="985.545,-779.039 976.006,-783.65 986.338,-785.994 985.545,-779.039"/>
<text text-anchor="middle" x="1242" y="-753.887" font-family="Helvetica,sans-Serif" font-size="10.00"> myLines</text>
</g>
<!-- Node7&#45;&gt;Node5 -->
<g id="edge6" class="edge"><title>Node7&#45;&gt;Node5</title>
<path fill="none" stroke="#9a32cd" stroke-dasharray="5,2" d="M986.043,-790.242C1038.08,-797.313 1140.95,-811.291 1198.85,-819.16"/>
<polygon fill="#9a32cd" stroke="#9a32cd" points="986.424,-786.761 976.044,-788.883 985.481,-793.698 986.424,-786.761"/>
<text text-anchor="middle" x="1098" y="-815.887" font-family="Helvetica,sans-Serif" font-size="10.00"> myStamps</text>
</g>
<!-- Node8 -->
<g id="node8" class="node"><title>Node8</title>
<polygon fill="white" stroke="#bfbfbf" points="1174,-595.887 1174,-625.887 1310,-625.887 1310,-595.887 1174,-595.887"/>
<text text-anchor="start" x="1182" y="-613.887" font-family="Helvetica,sans-Serif" font-size="10.00">Map&lt; Integer, view.Turtle</text>
<text text-anchor="middle" x="1242" y="-602.887" font-family="Helvetica,sans-Serif" font-size="10.00">View &gt;</text>
</g>
<!-- Node8&#45;&gt;Node2 -->
<g id="edge7" class="edge"><title>Node8&#45;&gt;Node2</title>
<path fill="none" stroke="#9a32cd" stroke-dasharray="5,2" d="M1320.41,-618.043C1358.98,-621.609 1404.22,-625.79 1436.83,-628.805"/>
<polygon fill="#9a32cd" stroke="#9a32cd" points="1320.53,-614.539 1310.25,-617.104 1319.88,-621.509 1320.53,-614.539"/>
<text text-anchor="middle" x="1366" y="-628.887" font-family="Helvetica,sans-Serif" font-size="10.00"> myTurtles</text>
</g>
<!-- Node9&#45;&gt;Node2 -->
<g id="edge9" class="edge"><title>Node9&#45;&gt;Node2</title>
<path fill="none" stroke="#9a32cd" stroke-dasharray="5,2" d="M1290.68,-450.096C1325.22,-459.427 1371.38,-476.106 1404,-503.887 1444.51,-538.388 1469.35,-599.82 1477.77,-623.353"/>
<polygon fill="#9a32cd" stroke="#9a32cd" points="1291.38,-446.66 1280.82,-447.543 1289.62,-453.437 1291.38,-446.66"/>
<text text-anchor="middle" x="1366" y="-506.887" font-family="Helvetica,sans-Serif" font-size="10.00"> mySidebar</text>
</g>
<!-- Node9&#45;&gt;Node27 -->
<g id="edge37" class="edge"><title>Node9&#45;&gt;Node27</title>
<path fill="none" stroke="#9a32cd" stroke-dasharray="5,2" d="M1225.84,-457.461C1203.88,-482.708 1164.86,-526.686 1156,-530.887 1074.27,-569.63 801.516,-568.448 689.089,-566.188"/>
<polygon fill="#9a32cd" stroke="#9a32cd" points="1228.66,-459.551 1232.57,-449.702 1223.37,-454.966 1228.66,-459.551"/>
<text text-anchor="middle" x="953" y="-568.887" font-family="Helvetica,sans-Serif" font-size="10.00"> mySidebar</text>
</g>
<!-- Node9&#45;&gt;Node29 -->
<g id="edge54" class="edge"><title>Node9&#45;&gt;Node29</title>
<path fill="none" stroke="#9a32cd" stroke-dasharray="5,2" d="M1290.96,-434.442C1367.47,-424.281 1520.32,-397.876 1636,-338.887 1657.73,-327.806 1678.7,-308.142 1690.12,-296.43"/>
<polygon fill="#9a32cd" stroke="#9a32cd" points="1290.15,-431.017 1280.68,-435.769 1291.05,-437.959 1290.15,-431.017"/>
<text text-anchor="middle" x="1482" y="-414.887" font-family="Helvetica,sans-Serif" font-size="10.00"> mySidebar</text>
</g>
<!-- Node31 -->
<g id="node31" class="node"><title>Node31</title>
<g id="a_node31"><a xlink:href="../../da/dc8/classview_1_1_editor.html" target="_top" xlink:title="view.Editor">
<polygon fill="white" stroke="black" points="1448.5,-238.387 1448.5,-257.387 1515.5,-257.387 1515.5,-238.387 1448.5,-238.387"/>
<text text-anchor="middle" x="1482" y="-245.387" font-family="Helvetica,sans-Serif" font-size="10.00">view.Editor</text>
</a>
</g>
</g>
<!-- Node9&#45;&gt;Node31 -->
<g id="edge48" class="edge"><title>Node9&#45;&gt;Node31</title>
<path fill="none" stroke="#9a32cd" stroke-dasharray="5,2" d="M1267.46,-424.978C1311.01,-398.383 1398.06,-345.047 1404,-339.887 1434.04,-313.81 1462.12,-275.433 1474.44,-257.625"/>
<polygon fill="#9a32cd" stroke="#9a32cd" points="1265.58,-422.024 1258.87,-430.22 1269.22,-427.999 1265.58,-422.024"/>
<text text-anchor="middle" x="1366" y="-389.887" font-family="Helvetica,sans-Serif" font-size="10.00"> mySidebar</text>
</g>
<!-- Node10 -->
<g id="node10" class="node"><title>Node10</title>
<polygon fill="white" stroke="#bfbfbf" points="932.5,-395.387 932.5,-414.387 973.5,-414.387 973.5,-395.387 932.5,-395.387"/>
<text text-anchor="middle" x="953" y="-402.387" font-family="Helvetica,sans-Serif" font-size="10.00">VBox</text>
</g>
<!-- Node10&#45;&gt;Node9 -->
<g id="edge10" class="edge"><title>Node10&#45;&gt;Node9</title>
<path fill="none" stroke="midnightblue" d="M983.735,-408.514C1036.22,-414.915 1145.21,-428.206 1203.04,-435.259"/>
<polygon fill="midnightblue" stroke="midnightblue" points="984.077,-405.029 973.727,-407.293 983.229,-411.978 984.077,-405.029"/>
</g>
<!-- Node11 -->
<g id="node11" class="node"><title>Node11</title>
<polygon fill="white" stroke="#bfbfbf" points="552.5,-426.387 552.5,-445.387 725.5,-445.387 725.5,-426.387 552.5,-426.387"/>
<text text-anchor="middle" x="639" y="-433.387" font-family="Helvetica,sans-Serif" font-size="10.00">ObservableList&lt; view.Property &gt;</text>
</g>
<!-- Node11&#45;&gt;Node9 -->
<g id="edge11" class="edge"><title>Node11&#45;&gt;Node9</title>
<path fill="none" stroke="#9a32cd" stroke-dasharray="5,2" d="M702.018,-424.484C763.683,-412.906 851.183,-395.737 866,-388.887 875.199,-384.634 874.414,-378.177 884,-374.887 942.014,-354.983 961.251,-366.44 1022,-374.887 1095.26,-385.074 1178.01,-414.916 1217.54,-430.369"/>
<polygon fill="#9a32cd" stroke="#9a32cd" points="701.163,-421.083 691.977,-426.363 702.45,-427.964 701.163,-421.083"/>
<text text-anchor="middle" x="953" y="-377.887" font-family="Helvetica,sans-Serif" font-size="10.00"> myVariablesList</text>
</g>
<!-- Node18 -->
<g id="node18" class="node"><title>Node18</title>
<g id="a_node18"><a xlink:href="../../d9/dd3/classview_1_1_variables_view.html" target="_top" xlink:title="view.VariablesView">
<polygon fill="white" stroke="black" points="901,-471.387 901,-490.387 1005,-490.387 1005,-471.387 901,-471.387"/>
<text text-anchor="middle" x="953" y="-478.387" font-family="Helvetica,sans-Serif" font-size="10.00">view.VariablesView</text>
</a>
</g>
</g>
<!-- Node11&#45;&gt;Node18 -->
<g id="edge25" class="edge"><title>Node11&#45;&gt;Node18</title>
<path fill="none" stroke="#9a32cd" stroke-dasharray="5,2" d="M716.278,-446.889C773.651,-455.164 850.696,-466.276 900.84,-473.509"/>
<polygon fill="#9a32cd" stroke="#9a32cd" points="716.564,-443.394 706.167,-445.431 715.565,-450.323 716.564,-443.394"/>
<text text-anchor="middle" x="805" y="-470.887" font-family="Helvetica,sans-Serif" font-size="10.00"> myVariablesList</text>
</g>
<!-- Node12 -->
<g id="node12" class="node"><title>Node12</title>
<g id="a_node12"><a xlink:href="../../d1/dca/classmodel_1_1_execution_environment.html" target="_top" xlink:title="model.ExecutionEnvironment">
<polygon fill="white" stroke="black" points="560.5,-263.387 560.5,-282.387 717.5,-282.387 717.5,-263.387 560.5,-263.387"/>
<text text-anchor="middle" x="639" y="-270.387" font-family="Helvetica,sans-Serif" font-size="10.00">model.ExecutionEnvironment</text>
</a>
</g>
</g>
<!-- Node12&#45;&gt;Node9 -->
<g id="edge13" class="edge"><title>Node12&#45;&gt;Node9</title>
<path fill="none" stroke="#9a32cd" stroke-dasharray="5,2" d="M706.106,-284.224C835.968,-306.745 1115.33,-356.53 1156,-374.887 1186.82,-388.797 1216.78,-415.782 1231.52,-430.221"/>
<polygon fill="#9a32cd" stroke="#9a32cd" points="706.343,-280.713 695.892,-282.455 705.148,-287.61 706.343,-280.713"/>
<text text-anchor="middle" x="953" y="-345.887" font-family="Helvetica,sans-Serif" font-size="10.00"> myEnvironment</text>
</g>
<!-- Node12&#45;&gt;Node18 -->
<g id="edge26" class="edge"><title>Node12&#45;&gt;Node18</title>
<path fill="none" stroke="#9a32cd" stroke-dasharray="5,2" d="M665.227,-287.464C686.282,-299.624 717.087,-317.403 744,-332.887 798.185,-364.063 827.033,-354.005 866,-402.887 883.089,-424.325 864.386,-442.732 884,-461.887 888.823,-466.598 894.713,-470.161 900.988,-472.853"/>
<polygon fill="#9a32cd" stroke="#9a32cd" points="666.974,-284.431 656.564,-282.46 663.473,-290.492 666.974,-284.431"/>
<text text-anchor="middle" x="805" y="-405.887" font-family="Helvetica,sans-Serif" font-size="10.00"> myEnvironment</text>
</g>
<!-- Node24 -->
<g id="node24" class="node"><title>Node24</title>
<g id="a_node24"><a xlink:href="../../dc/df5/classmodel_1_1_parser.html" target="_top" xlink:title="model.Parser">
<polygon fill="white" stroke="black" points="913,-263.387 913,-282.387 993,-282.387 993,-263.387 913,-263.387"/>
<text text-anchor="middle" x="953" y="-270.387" font-family="Helvetica,sans-Serif" font-size="10.00">model.Parser</text>
</a>
</g>
</g>
<!-- Node12&#45;&gt;Node24 -->
<g id="edge32" class="edge"><title>Node12&#45;&gt;Node24</title>
<path fill="none" stroke="#9a32cd" stroke-dasharray="5,2" d="M727.525,-272.887C788.421,-272.887 866.684,-272.887 912.885,-272.887"/>
<polygon fill="#9a32cd" stroke="#9a32cd" points="727.525,-269.388 717.524,-272.887 727.524,-276.388 727.525,-269.388"/>
<text text-anchor="middle" x="805" y="-275.887" font-family="Helvetica,sans-Serif" font-size="10.00"> myExecutionParameters</text>
</g>
<!-- Node12&#45;&gt;Node29 -->
<g id="edge50" class="edge"><title>Node12&#45;&gt;Node29</title>
<path fill="none" stroke="#9a32cd" stroke-dasharray="5,2" d="M655.213,-255.443C697.344,-209.181 821.096,-86.8874 952,-86.8874 952,-86.8874 952,-86.8874 1483,-86.8874 1596.46,-86.8874 1675.57,-237.29 1694.59,-277.241"/>
<polygon fill="#9a32cd" stroke="#9a32cd" points="652.376,-253.364 648.313,-263.149 657.591,-258.034 652.376,-253.364"/>
<text text-anchor="middle" x="1242" y="-89.8874" font-family="Helvetica,sans-Serif" font-size="10.00"> myEnvironment</text>
</g>
<!-- Node13 -->
<g id="node13" class="node"><title>Node13</title>
<polygon fill="white" stroke="#bfbfbf" points="281.5,-181.387 281.5,-200.387 352.5,-200.387 352.5,-181.387 281.5,-181.387"/>
<text text-anchor="middle" x="317" y="-188.387" font-family="Helvetica,sans-Serif" font-size="10.00">Observable</text>
</g>
<!-- Node13&#45;&gt;Node12 -->
<g id="edge14" class="edge"><title>Node13&#45;&gt;Node12</title>
<path fill="none" stroke="midnightblue" d="M362.619,-200.727C375.933,-203.668 390.559,-206.903 404,-209.887 461.791,-222.717 476.911,-223.227 534,-238.887 560.563,-246.174 590.4,-256.114 611.28,-263.364"/>
<polygon fill="midnightblue" stroke="midnightblue" points="363.254,-197.283 352.734,-198.544 361.745,-204.118 363.254,-197.283"/>
</g>
<!-- Node14 -->
<g id="node14" class="node"><title>Node14</title>
<polygon fill="white" stroke="#bfbfbf" points="272.5,-307.387 272.5,-326.387 361.5,-326.387 361.5,-307.387 272.5,-307.387"/>
<text text-anchor="middle" x="317" y="-314.387" font-family="Helvetica,sans-Serif" font-size="10.00">Set&lt; Integer &gt;</text>
</g>
<!-- Node14&#45;&gt;Node12 -->
<g id="edge15" class="edge"><title>Node14&#45;&gt;Node12</title>
<path fill="none" stroke="#9a32cd" stroke-dasharray="5,2" d="M371.905,-309.475C426.021,-302.035 509.615,-290.54 568.644,-282.424"/>
<polygon fill="#9a32cd" stroke="#9a32cd" points="371.254,-306.032 361.824,-310.862 372.207,-312.967 371.254,-306.032"/>
<text text-anchor="middle" x="478" y="-315.887" font-family="Helvetica,sans-Serif" font-size="10.00"> myTurtleList</text>
<text text-anchor="middle" x="478" y="-304.887" font-family="Helvetica,sans-Serif" font-size="10.00">activeTurtleList</text>
</g>
<!-- Node15 -->
<g id="node15" class="node"><title>Node15</title>
<polygon fill="white" stroke="#bfbfbf" points="230,-257.887 230,-287.887 404,-287.887 404,-257.887 230,-257.887"/>
<text text-anchor="start" x="238" y="-275.887" font-family="Helvetica,sans-Serif" font-size="10.00">Map&lt; String, model.instructions.</text>
<text text-anchor="middle" x="317" y="-264.887" font-family="Helvetica,sans-Serif" font-size="10.00">Instruction &gt;</text>
</g>
<!-- Node15&#45;&gt;Node12 -->
<g id="edge16" class="edge"><title>Node15&#45;&gt;Node12</title>
<path fill="none" stroke="#9a32cd" stroke-dasharray="5,2" d="M414.315,-272.887C461.052,-272.887 516.453,-272.887 560.426,-272.887"/>
<polygon fill="#9a32cd" stroke="#9a32cd" points="414.175,-269.388 404.175,-272.887 414.175,-276.388 414.175,-269.388"/>
<text text-anchor="middle" x="478" y="-275.887" font-family="Helvetica,sans-Serif" font-size="10.00"> myUserInstructionMap</text>
</g>
<!-- Node16 -->
<g id="node16" class="node"><title>Node16</title>
<polygon fill="white" stroke="#bfbfbf" points="253,-219.387 253,-238.387 381,-238.387 381,-219.387 253,-219.387"/>
<text text-anchor="middle" x="317" y="-226.387" font-family="Helvetica,sans-Serif" font-size="10.00">Map&lt; String, Double &gt;</text>
</g>
<!-- Node16&#45;&gt;Node12 -->
<g id="edge17" class="edge"><title>Node16&#45;&gt;Node12</title>
<path fill="none" stroke="#9a32cd" stroke-dasharray="5,2" d="M391.442,-238.566C433.243,-244.121 486.57,-251.283 534,-257.887 546.467,-259.623 559.769,-261.513 572.55,-263.348"/>
<polygon fill="#9a32cd" stroke="#9a32cd" points="391.721,-235.073 381.347,-237.227 390.8,-242.012 391.721,-235.073"/>
<text text-anchor="middle" x="478" y="-260.887" font-family="Helvetica,sans-Serif" font-size="10.00"> myVariableMap</text>
</g>
<!-- Node17 -->
<g id="node17" class="node"><title>Node17</title>
<polygon fill="white" stroke="#bfbfbf" points="243,-596.387 243,-615.387 391,-615.387 391,-596.387 243,-596.387"/>
<text text-anchor="middle" x="317" y="-603.387" font-family="Helvetica,sans-Serif" font-size="10.00">TableView&lt; view.Property &gt;</text>
</g>
<!-- Node17&#45;&gt;Node9 -->
<g id="edge18" class="edge"><title>Node17&#45;&gt;Node9</title>
<path fill="none" stroke="#9a32cd" stroke-dasharray="5,2" d="M363.759,-617.718C381.776,-621.809 402.731,-625.872 422,-627.887 471.508,-633.067 484.24,-629.207 534,-627.887 672.368,-624.219 1044.08,-676.326 1156,-594.887 1174.09,-581.727 1164.06,-567.926 1174,-547.887 1192.83,-509.936 1221.1,-468.162 1234.06,-449.646"/>
<polygon fill="#9a32cd" stroke="#9a32cd" points="364.338,-614.259 353.804,-615.389 362.743,-621.075 364.338,-614.259"/>
<text text-anchor="middle" x="805" y="-654.887" font-family="Helvetica,sans-Serif" font-size="10.00"> myTurtlePropertiesTable</text>
<text text-anchor="middle" x="805" y="-643.887" font-family="Helvetica,sans-Serif" font-size="10.00">myVariablesTable</text>
</g>
<!-- Node19 -->
<g id="node19" class="node"><title>Node19</title>
<g id="a_node19"><a xlink:href="../../d5/dea/classview_1_1_side_table_view.html" target="_top" xlink:title="view.SideTableView">
<polygon fill="white" stroke="black" points="586,-511.387 586,-530.387 692,-530.387 692,-511.387 586,-511.387"/>
<text text-anchor="middle" x="639" y="-518.387" font-family="Helvetica,sans-Serif" font-size="10.00">view.SideTableView</text>
</a>
</g>
</g>
<!-- Node17&#45;&gt;Node19 -->
<g id="edge23" class="edge"><title>Node17&#45;&gt;Node19</title>
<path fill="none" stroke="#9a32cd" stroke-dasharray="5,2" d="M363.619,-593.77C427.798,-576.722 543.432,-546.007 601.964,-530.459"/>
<polygon fill="#9a32cd" stroke="#9a32cd" points="362.543,-590.434 353.777,-596.384 364.34,-597.2 362.543,-590.434"/>
<text text-anchor="middle" x="478" y="-579.887" font-family="Helvetica,sans-Serif" font-size="10.00"> myTable</text>
</g>
<!-- Node18&#45;&gt;Node9 -->
<g id="edge19" class="edge"><title>Node18&#45;&gt;Node9</title>
<path fill="none" stroke="#9a32cd" stroke-dasharray="5,2" d="M1015.57,-478.208C1055.78,-475.77 1109.29,-471.222 1156,-462.887 1174.36,-459.611 1194.53,-454.234 1210.61,-449.503"/>
<polygon fill="#9a32cd" stroke="#9a32cd" points="1015.17,-474.725 1005.39,-478.798 1015.57,-481.714 1015.17,-474.725"/>
<text text-anchor="middle" x="1098" y="-479.887" font-family="Helvetica,sans-Serif" font-size="10.00"> myVariablesPane</text>
</g>
<!-- Node19&#45;&gt;Node18 -->
<g id="edge20" class="edge"><title>Node19&#45;&gt;Node18</title>
<path fill="none" stroke="midnightblue" d="M702.406,-512.887C760.68,-505.416 846.597,-494.401 900.905,-487.438"/>
<polygon fill="midnightblue" stroke="midnightblue" points="701.695,-509.449 692.222,-514.192 702.586,-516.392 701.695,-509.449"/>
</g>
<!-- Node23 -->
<g id="node23" class="node"><title>Node23</title>
<g id="a_node23"><a xlink:href="../../d9/d3a/classview_1_1_turtle_properties_view.html" target="_top" xlink:title="view.TurtlePropertiesView">
<polygon fill="white" stroke="black" points="885.5,-509.387 885.5,-528.387 1020.5,-528.387 1020.5,-509.387 885.5,-509.387"/>
<text text-anchor="middle" x="953" y="-516.387" font-family="Helvetica,sans-Serif" font-size="10.00">view.TurtlePropertiesView</text>
</a>
</g>
</g>
<!-- Node19&#45;&gt;Node23 -->
<g id="edge28" class="edge"><title>Node19&#45;&gt;Node23</title>
<path fill="none" stroke="midnightblue" d="M702.506,-520.487C755.511,-520.147 831.336,-519.661 885.46,-519.314"/>
<polygon fill="midnightblue" stroke="midnightblue" points="702.199,-516.989 692.222,-520.553 702.244,-523.988 702.199,-516.989"/>
</g>
<!-- Node20 -->
<g id="node20" class="node"><title>Node20</title>
<g id="a_node20"><a xlink:href="../../d2/d38/classview_1_1_side_properties_view.html" target="_top" xlink:title="view.SidePropertiesView">
<polygon fill="white" stroke="black" points="251.5,-431.387 251.5,-450.387 382.5,-450.387 382.5,-431.387 251.5,-431.387"/>
<text text-anchor="middle" x="317" y="-438.387" font-family="Helvetica,sans-Serif" font-size="10.00">view.SidePropertiesView</text>
</a>
</g>
</g>
<!-- Node20&#45;&gt;Node19 -->
<g id="edge21" class="edge"><title>Node20&#45;&gt;Node19</title>
<path fill="none" stroke="midnightblue" d="M393.097,-445.567C435.205,-449.611 488.293,-457.095 534,-470.887 566.797,-480.784 602.182,-499.769 622.065,-511.284"/>
<polygon fill="midnightblue" stroke="midnightblue" points="393.193,-442.062 382.916,-444.636 392.556,-449.033 393.193,-442.062"/>
</g>
<!-- Node21 -->
<g id="node21" class="node"><title>Node21</title>
<polygon fill="white" stroke="#bfbfbf" points="0.5,-431.387 0.5,-450.387 135.5,-450.387 135.5,-431.387 0.5,-431.387"/>
<text text-anchor="middle" x="68" y="-438.387" font-family="Helvetica,sans-Serif" font-size="10.00">ObservableList&lt; Node &gt;</text>
</g>
<!-- Node21&#45;&gt;Node20 -->
<g id="edge22" class="edge"><title>Node21&#45;&gt;Node20</title>
<path fill="none" stroke="#9a32cd" stroke-dasharray="5,2" d="M145.848,-440.887C179.752,-440.887 219.154,-440.887 251.499,-440.887"/>
<polygon fill="#9a32cd" stroke="#9a32cd" points="145.516,-437.388 135.516,-440.887 145.516,-444.388 145.516,-437.388"/>
<text text-anchor="middle" x="183" y="-443.887" font-family="Helvetica,sans-Serif" font-size="10.00"> myChildren</text>
</g>
<!-- Node22 -->
<g id="node22" class="node"><title>Node22</title>
<polygon fill="white" stroke="#bfbfbf" points="239.5,-507.887 239.5,-537.887 394.5,-537.887 394.5,-507.887 239.5,-507.887"/>
<text text-anchor="start" x="247.5" y="-525.887" font-family="Helvetica,sans-Serif" font-size="10.00">TableColumn&lt; view.Property,</text>
<text text-anchor="middle" x="317" y="-514.887" font-family="Helvetica,sans-Serif" font-size="10.00"> String &gt;</text>
</g>
<!-- Node22&#45;&gt;Node19 -->
<g id="edge24" class="edge"><title>Node22&#45;&gt;Node19</title>
<path fill="none" stroke="#9a32cd" stroke-dasharray="5,2" d="M404.896,-522.344C462.818,-521.982 537.022,-521.519 585.963,-521.213"/>
<polygon fill="#9a32cd" stroke="#9a32cd" points="404.626,-518.846 394.648,-522.408 404.67,-525.846 404.626,-518.846"/>
<text text-anchor="middle" x="478" y="-536.887" font-family="Helvetica,sans-Serif" font-size="10.00"> rightTableCol</text>
<text text-anchor="middle" x="478" y="-525.887" font-family="Helvetica,sans-Serif" font-size="10.00">leftTableCol</text>
</g>
<!-- Node23&#45;&gt;Node9 -->
<g id="edge27" class="edge"><title>Node23&#45;&gt;Node9</title>
<path fill="none" stroke="#9a32cd" stroke-dasharray="5,2" d="M1030.78,-516.127C1069.26,-512.881 1116.05,-506.06 1156,-491.887 1184.21,-481.88 1213.11,-461.651 1228.88,-449.585"/>
<polygon fill="#9a32cd" stroke="#9a32cd" points="1030.37,-512.648 1020.67,-516.914 1030.91,-519.627 1030.37,-512.648"/>
<text text-anchor="middle" x="1098" y="-518.887" font-family="Helvetica,sans-Serif" font-size="10.00"> myTurtlePropertiesPane</text>
</g>
<!-- Node24&#45;&gt;Node9 -->
<g id="edge29" class="edge"><title>Node24&#45;&gt;Node9</title>
<path fill="none" stroke="#9a32cd" stroke-dasharray="5,2" d="M995.613,-285.726C1004.49,-288.974 1013.69,-292.735 1022,-296.887 1030.6,-301.187 1031.11,-305.215 1040,-308.887 1088.58,-328.961 1111.19,-304.421 1156,-331.887 1196.69,-356.826 1225.68,-408.716 1236.42,-430.224"/>
<polygon fill="#9a32cd" stroke="#9a32cd" points="996.755,-282.417 986.16,-282.409 994.437,-289.023 996.755,-282.417"/>
<text text-anchor="middle" x="1098" y="-334.887" font-family="Helvetica,sans-Serif" font-size="10.00"> myParser</text>
</g>
<!-- Node24&#45;&gt;Node29 -->
<g id="edge51" class="edge"><title>Node24&#45;&gt;Node29</title>
<path fill="none" stroke="#9a32cd" stroke-dasharray="5,2" d="M1003.18,-273.812C1139.94,-276.382 1523.28,-283.585 1654.38,-286.049"/>
<polygon fill="#9a32cd" stroke="#9a32cd" points="1003.07,-270.309 993.006,-273.62 1002.94,-277.308 1003.07,-270.309"/>
<text text-anchor="middle" x="1366" y="-284.887" font-family="Helvetica,sans-Serif" font-size="10.00"> myParser</text>
</g>
<!-- Node24&#45;&gt;Node31 -->
<g id="edge46" class="edge"><title>Node24&#45;&gt;Node31</title>
<path fill="none" stroke="#9a32cd" stroke-dasharray="5,2" d="M1003.54,-265.731C1015.45,-264.237 1028.16,-262.83 1040,-261.887 1192.34,-249.755 1375.06,-248.03 1448.3,-247.859"/>
<polygon fill="#9a32cd" stroke="#9a32cd" points="1002.77,-262.301 993.306,-267.058 1003.67,-269.243 1002.77,-262.301"/>
<text text-anchor="middle" x="1242" y="-256.887" font-family="Helvetica,sans-Serif" font-size="10.00"> myParser</text>
</g>
<!-- Node25 -->
<g id="node25" class="node"><title>Node25</title>
<polygon fill="white" stroke="#bfbfbf" points="287,-469.387 287,-488.387 347,-488.387 347,-469.387 287,-469.387"/>
<text text-anchor="middle" x="317" y="-476.387" font-family="Helvetica,sans-Serif" font-size="10.00">Observer</text>
</g>
<!-- Node25&#45;&gt;Node24 -->
<g id="edge30" class="edge"><title>Node25&#45;&gt;Node24</title>
<path fill="none" stroke="midnightblue" d="M357.106,-471.209C371.889,-468.056 388.807,-464.144 404,-459.887 609.214,-402.398 850.356,-311.882 927.186,-282.466"/>
<polygon fill="midnightblue" stroke="midnightblue" points="356.332,-467.795 347.26,-473.267 357.764,-474.647 356.332,-467.795"/>
</g>
<!-- Node25&#45;&gt;Node27 -->
<g id="edge34" class="edge"><title>Node25&#45;&gt;Node27</title>
<path fill="none" stroke="midnightblue" d="M357.152,-478.031C402.697,-478.741 478.698,-485.348 534,-517.887 544.888,-524.294 541.46,-532.922 552,-539.887 563.026,-547.174 576.211,-552.378 588.906,-556.079"/>
<polygon fill="midnightblue" stroke="midnightblue" points="357.111,-474.53 347.087,-477.962 357.063,-481.53 357.111,-474.53"/>
</g>
<!-- Node26 -->
<g id="node26" class="node"><title>Node26</title>
<polygon fill="white" stroke="#bfbfbf" points="583,-45.8874 583,-75.8874 695,-75.8874 695,-45.8874 583,-45.8874"/>
<text text-anchor="start" x="591" y="-63.8874" font-family="Helvetica,sans-Serif" font-size="10.00">List&lt; Entry&lt; String,</text>
<text text-anchor="middle" x="639" y="-52.8874" font-family="Helvetica,sans-Serif" font-size="10.00"> Pattern &gt; &gt;</text>
</g>
<!-- Node26&#45;&gt;Node24 -->
<g id="edge31" class="edge"><title>Node26&#45;&gt;Node24</title>
<path fill="none" stroke="#9a32cd" stroke-dasharray="5,2" d="M670.8,-81.8156C736.928,-126.749 890.336,-230.988 937.767,-263.216"/>
<polygon fill="#9a32cd" stroke="#9a32cd" points="672.677,-78.8592 662.438,-76.1339 668.742,-84.6491 672.677,-78.8592"/>
<text text-anchor="middle" x="805" y="-213.887" font-family="Helvetica,sans-Serif" font-size="10.00"> myPatterns</text>
</g>
<!-- Node27&#45;&gt;Node24 -->
<g id="edge33" class="edge"><title>Node27&#45;&gt;Node24</title>
<path fill="none" stroke="#9a32cd" stroke-dasharray="5,2" d="M699.184,-557.143C709.306,-553.372 718.846,-547.874 726,-539.887 757.006,-505.272 711.359,-469.966 744,-436.887 782.755,-397.612 827.646,-453.555 866,-413.887 902.57,-376.064 850.426,-337.394 884,-296.887 891.27,-288.116 901.964,-282.548 912.729,-279.014"/>
<polygon fill="#9a32cd" stroke="#9a32cd" points="697.837,-553.898 689.36,-560.253 699.95,-560.571 697.837,-553.898"/>
<text text-anchor="middle" x="805" y="-439.887" font-family="Helvetica,sans-Serif" font-size="10.00"> myViewUpdater</text>
</g>
<!-- Node28 -->
<g id="node28" class="node"><title>Node28</title>
<polygon fill="white" stroke="#bfbfbf" points="578,-7.38742 578,-26.3874 700,-26.3874 700,-7.38742 578,-7.38742"/>
<text text-anchor="middle" x="639" y="-14.3874" font-family="Helvetica,sans-Serif" font-size="10.00">Map&lt; String, String &gt;</text>
</g>
<!-- Node28&#45;&gt;Node24 -->
<g id="edge38" class="edge"><title>Node28&#45;&gt;Node24</title>
<path fill="none" stroke="#9a32cd" stroke-dasharray="5,2" d="M705.94,-29.109C712.811,-31.0753 719.612,-33.3244 726,-35.8874 793.558,-62.9922 815.326,-68.6295 866,-120.887 909.692,-165.944 938.955,-237.517 948.556,-263.265"/>
<polygon fill="#9a32cd" stroke="#9a32cd" points="706.428,-25.6169 695.864,-26.4267 704.627,-32.3813 706.428,-25.6169"/>
<text text-anchor="middle" x="805" y="-123.887" font-family="Helvetica,sans-Serif" font-size="10.00"> myCommandMap</text>
</g>
<!-- Node29&#45;&gt;Node24 -->
<g id="edge39" class="edge"><title>Node29&#45;&gt;Node24</title>
<path fill="none" stroke="#9a32cd" stroke-dasharray="5,2" d="M1652.03,-298.478C1646.65,-299.462 1641.22,-300.303 1636,-300.887 1431.94,-323.733 1378.88,-314.5 1174,-300.887 1110.42,-296.663 1037.1,-286.198 993.205,-279.327"/>
<polygon fill="#9a32cd" stroke="#9a32cd" points="1653.12,-301.829 1662.25,-296.442 1651.75,-294.964 1653.12,-301.829"/>
<text text-anchor="middle" x="1366" y="-317.887" font-family="Helvetica,sans-Serif" font-size="10.00"> mySLogoView</text>
</g>
<!-- Node30 -->
<g id="node30" class="node"><title>Node30</title>
<polygon fill="white" stroke="#bfbfbf" points="1459.5,-200.387 1459.5,-219.387 1504.5,-219.387 1504.5,-200.387 1459.5,-200.387"/>
<text text-anchor="middle" x="1482" y="-207.387" font-family="Helvetica,sans-Serif" font-size="10.00">Stage</text>
</g>
<!-- Node30&#45;&gt;Node29 -->
<g id="edge41" class="edge"><title>Node30&#45;&gt;Node29</title>
<path fill="none" stroke="#9a32cd" stroke-dasharray="5,2" d="M1514.62,-210.612C1546.54,-212.391 1596.62,-218.094 1636,-235.887 1658.06,-245.855 1678.91,-265.451 1690.23,-277.237"/>
<polygon fill="#9a32cd" stroke="#9a32cd" points="1514.68,-207.112 1504.53,-210.148 1514.36,-214.104 1514.68,-207.112"/>
<text text-anchor="middle" x="1598" y="-238.887" font-family="Helvetica,sans-Serif" font-size="10.00"> myStage</text>
</g>
<!-- Node31&#45;&gt;Node29 -->
<g id="edge43" class="edge"><title>Node31&#45;&gt;Node29</title>
<path fill="none" stroke="#9a32cd" stroke-dasharray="5,2" d="M1525.7,-248.533C1556.69,-249.786 1599.41,-253.145 1636,-261.887 1650.88,-265.442 1666.89,-271.833 1679.05,-277.264"/>
<polygon fill="#9a32cd" stroke="#9a32cd" points="1525.79,-245.034 1515.67,-248.183 1525.54,-252.029 1525.79,-245.034"/>
<text text-anchor="middle" x="1598" y="-264.887" font-family="Helvetica,sans-Serif" font-size="10.00"> myEditor</text>
</g>
<!-- Node32 -->
<g id="node32" class="node"><title>Node32</title>
<polygon fill="white" stroke="#bfbfbf" points="1221,-154.387 1221,-173.387 1263,-173.387 1263,-154.387 1221,-154.387"/>
<text text-anchor="middle" x="1242" y="-161.387" font-family="Helvetica,sans-Serif" font-size="10.00">HBox</text>
</g>
<!-- Node32&#45;&gt;Node31 -->
<g id="edge44" class="edge"><title>Node32&#45;&gt;Node31</title>
<path fill="none" stroke="midnightblue" d="M1273.45,-166.404C1307.61,-170.439 1363.53,-180.773 1404,-206.887 1414.62,-213.737 1411.56,-221.772 1422,-228.887 1429.82,-234.221 1439.24,-238.133 1448.23,-240.97"/>
<polygon fill="midnightblue" stroke="midnightblue" points="1273.48,-162.888 1263.17,-165.304 1272.74,-169.849 1273.48,-162.888"/>
</g>
<!-- Node33 -->
<g id="node33" class="node"><title>Node33</title>
<polygon fill="white" stroke="#bfbfbf" points="1217.5,-116.387 1217.5,-135.387 1266.5,-135.387 1266.5,-116.387 1217.5,-116.387"/>
<text text-anchor="middle" x="1242" y="-123.387" font-family="Helvetica,sans-Serif" font-size="10.00">Button</text>
</g>
<!-- Node33&#45;&gt;Node31 -->
<g id="edge45" class="edge"><title>Node33&#45;&gt;Node31</title>
<path fill="none" stroke="#9a32cd" stroke-dasharray="5,2" d="M1276.81,-123.903C1313.04,-123.702 1369.94,-129.24 1404,-161.887 1426.26,-183.222 1400.74,-206.556 1422,-228.887 1428.97,-236.213 1438.78,-240.721 1448.4,-243.492"/>
<polygon fill="#9a32cd" stroke="#9a32cd" points="1276.65,-120.406 1266.72,-124.11 1276.79,-127.404 1276.65,-120.406"/>
<text text-anchor="middle" x="1366" y="-164.887" font-family="Helvetica,sans-Serif" font-size="10.00"> runButton</text>
</g>
<!-- Node34 -->
<g id="node34" class="node"><title>Node34</title>
<polygon fill="white" stroke="#bfbfbf" points="1213,-192.387 1213,-211.387 1271,-211.387 1271,-192.387 1213,-192.387"/>
<text text-anchor="middle" x="1242" y="-199.387" font-family="Helvetica,sans-Serif" font-size="10.00">TextArea</text>
</g>
<!-- Node34&#45;&gt;Node31 -->
<g id="edge47" class="edge"><title>Node34&#45;&gt;Node31</title>
<path fill="none" stroke="#9a32cd" stroke-dasharray="5,2" d="M1281.3,-204.798C1314.15,-207.789 1362.6,-213.38 1404,-222.887 1412.22,-224.775 1413.99,-226.262 1422,-228.887 1431.51,-232.004 1441.9,-235.363 1451.27,-238.378"/>
<polygon fill="#9a32cd" stroke="#9a32cd" points="1281.48,-201.301 1271.21,-203.917 1280.87,-208.274 1281.48,-201.301"/>
<text text-anchor="middle" x="1366" y="-225.887" font-family="Helvetica,sans-Serif" font-size="10.00"> textEditor</text>
</g>
<!-- Node35 -->
<g id="node35" class="node"><title>Node35</title>
<polygon fill="white" stroke="#bfbfbf" points="1422.5,-39.3874 1422.5,-58.3874 1541.5,-58.3874 1541.5,-39.3874 1422.5,-39.3874"/>
<text text-anchor="middle" x="1482" y="-46.3874" font-family="Helvetica,sans-Serif" font-size="10.00">Map&lt; String, Node &gt;</text>
</g>
<!-- Node35&#45;&gt;Node29 -->
<g id="edge49" class="edge"><title>Node35&#45;&gt;Node29</title>
<path fill="none" stroke="#9a32cd" stroke-dasharray="5,2" d="M1545.84,-38.7267C1576.23,-37.3662 1611.37,-41.5032 1636,-61.8874 1670.61,-90.5284 1692.49,-238.049 1697.76,-277.29"/>
<polygon fill="#9a32cd" stroke="#9a32cd" points="1545.49,-35.2419 1535.74,-39.3833 1545.94,-42.2272 1545.49,-35.2419"/>
<text text-anchor="middle" x="1598" y="-64.8874" font-family="Helvetica,sans-Serif" font-size="10.00"> variables</text>
</g>
<!-- Node36 -->
<g id="node36" class="node"><title>Node36</title>
<polygon fill="white" stroke="#bfbfbf" points="1441.5,-1.38742 1441.5,-20.3874 1522.5,-20.3874 1522.5,-1.38742 1441.5,-1.38742"/>
<text text-anchor="middle" x="1482" y="-8.38742" font-family="Helvetica,sans-Serif" font-size="10.00">Dimension2D</text>
</g>
<!-- Node36&#45;&gt;Node29 -->
<g id="edge52" class="edge"><title>Node36&#45;&gt;Node29</title>
<path fill="none" stroke="#9a32cd" stroke-dasharray="5,2" d="M1532.63,-1.35354C1565.7,2.00797 1608.07,0.133987 1636,-23.8874 1675.87,-58.1734 1694.2,-233.818 1698.16,-277.194"/>
<polygon fill="#9a32cd" stroke="#9a32cd" points="1532.2,2.12036 1522.69,-2.54612 1533.03,-4.82979 1532.2,2.12036"/>
<text text-anchor="middle" x="1598" y="-26.8874" font-family="Helvetica,sans-Serif" font-size="10.00"> myDimensions</text>
</g>
<!-- Node37 -->
<g id="node37" class="node"><title>Node37</title>
<polygon fill="white" stroke="#bfbfbf" points="884,-433.387 884,-452.387 1022,-452.387 1022,-433.387 884,-433.387"/>
<text text-anchor="middle" x="953" y="-440.387" font-family="Helvetica,sans-Serif" font-size="10.00">ObservableList&lt; String &gt;</text>
</g>
<!-- Node37&#45;&gt;Node9 -->
<g id="edge55" class="edge"><title>Node37&#45;&gt;Node9</title>
<path fill="none" stroke="#9a32cd" stroke-dasharray="5,2" d="M1032.25,-441.007C1034.86,-440.963 1037.45,-440.923 1040,-440.887 1096.88,-440.085 1162.81,-439.899 1203.21,-439.87"/>
<polygon fill="#9a32cd" stroke="#9a32cd" points="1032,-437.511 1022.07,-441.19 1032.13,-444.509 1032,-437.511"/>
<text text-anchor="middle" x="1098" y="-454.887" font-family="Helvetica,sans-Serif" font-size="10.00"> myCommandItems</text>
<text text-anchor="middle" x="1098" y="-443.887" font-family="Helvetica,sans-Serif" font-size="10.00">myHistoryItems</text>
</g>
<!-- Node38 -->
<g id="node38" class="node"><title>Node38</title>
<polygon fill="white" stroke="#bfbfbf" points="1210.5,-557.387 1210.5,-576.387 1273.5,-576.387 1273.5,-557.387 1210.5,-557.387"/>
<text text-anchor="middle" x="1242" y="-564.387" font-family="Helvetica,sans-Serif" font-size="10.00">Rectangle</text>
</g>
<!-- Node38&#45;&gt;Node2 -->
<g id="edge56" class="edge"><title>Node38&#45;&gt;Node2</title>
<path fill="none" stroke="#9a32cd" stroke-dasharray="5,2" d="M1283.65,-575.105C1316.41,-582.056 1363.53,-592.797 1404,-604.887 1421.99,-610.262 1441.9,-617.538 1456.97,-623.326"/>
<polygon fill="#9a32cd" stroke="#9a32cd" points="1284.05,-571.612 1273.55,-572.984 1282.61,-578.463 1284.05,-571.612"/>
<text text-anchor="middle" x="1366" y="-607.887" font-family="Helvetica,sans-Serif" font-size="10.00"> myBackground</text>
</g>
<!-- Node39 -->
<g id="node39" class="node"><title>Node39</title>
<polygon fill="white" stroke="#bfbfbf" points="47.5,-860.387 47.5,-879.387 88.5,-879.387 88.5,-860.387 47.5,-860.387"/>
<text text-anchor="middle" x="68" y="-867.387" font-family="Helvetica,sans-Serif" font-size="10.00">Color</text>
</g>
<!-- Node39&#45;&gt;Node1 -->
<g id="edge57" class="edge"><title>Node39&#45;&gt;Node1</title>
<path fill="none" stroke="#9a32cd" stroke-dasharray="5,2" d="M98.9512,-869.887C144.657,-869.887 231.637,-869.887 280.467,-869.887"/>
<polygon fill="#9a32cd" stroke="#9a32cd" points="98.7956,-866.388 88.7955,-869.887 98.7955,-873.388 98.7956,-866.388"/>
<text text-anchor="middle" x="183" y="-872.887" font-family="Helvetica,sans-Serif" font-size="10.00"> myColor</text>
</g>
</g>
</svg>
