<?xml version="1.0" encoding="UTF-8" standalone="no"?>
<!DOCTYPE svg PUBLIC "-//W3C//DTD SVG 1.1//EN"
 "http://www.w3.org/Graphics/SVG/1.1/DTD/svg11.dtd">
<!-- Generated by graphviz version 2.36.0 (20140111.2315)
 -->
<!-- Title: view.Drawer Pages: 1 -->
<svg width="1668pt" height="773pt"
 viewBox="0.00 0.00 1668.00 773.00" xmlns="http://www.w3.org/2000/svg" xmlns:xlink="http://www.w3.org/1999/xlink">
<g id="graph0" class="graph" transform="scale(1 1) rotate(0) translate(4 769)">
<title>view.Drawer</title>
<polygon fill="white" stroke="none" points="-4,4 -4,-769 1664,-769 1664,4 -4,4"/>
<!-- Node1 -->
<g id="node1" class="node"><title>Node1</title>
<polygon fill="#bfbfbf" stroke="black" points="172.5,-705.5 172.5,-724.5 245.5,-724.5 245.5,-705.5 172.5,-705.5"/>
<text text-anchor="middle" x="209" y="-712.5" font-family="Helvetica,sans-Serif" font-size="10.00">view.Drawer</text>
</g>
<!-- Node21 -->
<g id="node21" class="node"><title>Node21</title>
<g id="a_node21"><a xlink:href="../../d4/d64/classview_1_1_view_updater.html" target="_top" xlink:title="view.ViewUpdater">
<polygon fill="white" stroke="black" points="473,-470.5 473,-489.5 573,-489.5 573,-470.5 473,-470.5"/>
<text text-anchor="middle" x="523" y="-477.5" font-family="Helvetica,sans-Serif" font-size="10.00">view.ViewUpdater</text>
</a>
</g>
</g>
<!-- Node1&#45;&gt;Node21 -->
<g id="edge26" class="edge"><title>Node1&#45;&gt;Node21</title>
<path fill="none" stroke="#9a32cd" stroke-dasharray="5,2" d="M230.919,-699.243C290.713,-654.207 461.137,-525.842 509.226,-489.622"/>
<polygon fill="#9a32cd" stroke="#9a32cd" points="228.499,-696.685 222.617,-705.497 232.711,-702.276 228.499,-696.685"/>
<text text-anchor="middle" x="370" y="-636" font-family="Helvetica,sans-Serif" font-size="10.00"> myDrawer</text>
</g>
<!-- Node23 -->
<g id="node23" class="node"><title>Node23</title>
<g id="a_node23"><a xlink:href="../../d6/de7/classview_1_1_s_logo_view.html" target="_top" xlink:title="view.SLogoView">
<polygon fill="white" stroke="black" points="1568.5,-199.5 1568.5,-218.5 1659.5,-218.5 1659.5,-199.5 1568.5,-199.5"/>
<text text-anchor="middle" x="1614" y="-206.5" font-family="Helvetica,sans-Serif" font-size="10.00">view.SLogoView</text>
</a>
</g>
</g>
<!-- Node1&#45;&gt;Node23 -->
<g id="edge43" class="edge"><title>Node1&#45;&gt;Node23</title>
<path fill="none" stroke="#9a32cd" stroke-dasharray="5,2" d="M255.862,-724.359C316.496,-735.898 426.793,-754 522,-754 522,-754 522,-754 1397,-754 1516.84,-754 1598.99,-292.79 1611.37,-218.925"/>
<polygon fill="#9a32cd" stroke="#9a32cd" points="256.332,-720.885 245.85,-722.427 255.006,-727.759 256.332,-720.885"/>
<text text-anchor="middle" x="1011" y="-757" font-family="Helvetica,sans-Serif" font-size="10.00"> drawer</text>
</g>
<!-- Node2 -->
<g id="node2" class="node"><title>Node2</title>
<g id="a_node2"><a xlink:href="../../da/d64/classview_1_1_workspace.html" target="_top" xlink:title="view.Workspace">
<polygon fill="white" stroke="black" points="1351,-519.5 1351,-538.5 1441,-538.5 1441,-519.5 1351,-519.5"/>
<text text-anchor="middle" x="1396" y="-526.5" font-family="Helvetica,sans-Serif" font-size="10.00">view.Workspace</text>
</a>
</g>
</g>
<!-- Node2&#45;&gt;Node1 -->
<g id="edge1" class="edge"><title>Node2&#45;&gt;Node1</title>
<path fill="none" stroke="#9a32cd" stroke-dasharray="5,2" d="M1387.88,-548.141C1376.86,-575.29 1353.22,-624.909 1318,-654 1259.01,-702.733 1233.52,-715 1157,-715 522,-715 522,-715 522,-715 421.792,-715 303.479,-715 245.561,-715"/>
<polygon fill="#9a32cd" stroke="#9a32cd" points="1391.22,-549.206 1391.59,-538.618 1384.7,-546.661 1391.22,-549.206"/>
<text text-anchor="middle" x="847" y="-718" font-family="Helvetica,sans-Serif" font-size="10.00"> myWorkspace</text>
</g>
<!-- Node2&#45;&gt;Node21 -->
<g id="edge25" class="edge"><title>Node2&#45;&gt;Node21</title>
<path fill="none" stroke="#9a32cd" stroke-dasharray="5,2" d="M1384.28,-547.493C1371.14,-568.682 1347.01,-603.159 1318,-624 1281.8,-650.013 1267.87,-651.097 1224,-659 1020.92,-695.58 955.438,-709.199 760,-643 660.015,-609.133 563.783,-519.574 533.658,-489.789"/>
<polygon fill="#9a32cd" stroke="#9a32cd" points="1387.36,-549.161 1389.52,-538.789 1381.37,-545.55 1387.36,-549.161"/>
<text text-anchor="middle" x="1011" y="-693" font-family="Helvetica,sans-Serif" font-size="10.00"> myWorkspace</text>
</g>
<!-- Node2&#45;&gt;Node23 -->
<g id="edge30" class="edge"><title>Node2&#45;&gt;Node23</title>
<path fill="none" stroke="#9a32cd" stroke-dasharray="5,2" d="M1421.04,-513.415C1454.48,-490.579 1514.85,-444.948 1550,-392 1589.21,-332.932 1606.58,-246.915 1611.48,-218.5"/>
<polygon fill="#9a32cd" stroke="#9a32cd" points="1418.72,-510.758 1412.37,-519.238 1422.62,-516.569 1418.72,-510.758"/>
<text text-anchor="middle" x="1512" y="-477" font-family="Helvetica,sans-Serif" font-size="10.00"> myWorkspace</text>
</g>
<!-- Node3 -->
<g id="node3" class="node"><title>Node3</title>
<polygon fill="white" stroke="#bfbfbf" points="1122.5,-495.5 1122.5,-514.5 1189.5,-514.5 1189.5,-495.5 1122.5,-495.5"/>
<text text-anchor="middle" x="1156" y="-502.5" font-family="Helvetica,sans-Serif" font-size="10.00">StackPane</text>
</g>
<!-- Node3&#45;&gt;Node2 -->
<g id="edge2" class="edge"><title>Node3&#45;&gt;Node2</title>
<path fill="none" stroke="midnightblue" d="M1199.65,-509.301C1242.25,-513.597 1307.47,-520.173 1350.66,-524.529"/>
<polygon fill="midnightblue" stroke="midnightblue" points="1199.89,-505.808 1189.59,-508.287 1199.19,-512.773 1199.89,-505.808"/>
</g>
<!-- Node4 -->
<g id="node4" class="node"><title>Node4</title>
<polygon fill="white" stroke="#bfbfbf" points="800.5,-516.5 800.5,-535.5 893.5,-535.5 893.5,-516.5 800.5,-516.5"/>
<text text-anchor="middle" x="847" y="-523.5" font-family="Helvetica,sans-Serif" font-size="10.00">ResourceBundle</text>
</g>
<!-- Node4&#45;&gt;Node2 -->
<g id="edge3" class="edge"><title>Node4&#45;&gt;Node2</title>
<path fill="none" stroke="#9a32cd" stroke-dasharray="5,2" d="M903.753,-532.991C919.341,-534.647 936.309,-536.172 952,-537 1097.95,-544.697 1271.28,-536.562 1350.95,-531.856"/>
<polygon fill="#9a32cd" stroke="#9a32cd" points="904.059,-529.503 893.737,-531.889 903.294,-536.462 904.059,-529.503"/>
<text text-anchor="middle" x="1156" y="-544" font-family="Helvetica,sans-Serif" font-size="10.00"> myResources</text>
</g>
<!-- Node9 -->
<g id="node9" class="node"><title>Node9</title>
<g id="a_node9"><a xlink:href="../../d1/dc7/classview_1_1_side_bar.html" target="_top" xlink:title="view.SideBar">
<polygon fill="white" stroke="black" points="1117.5,-331.5 1117.5,-350.5 1194.5,-350.5 1194.5,-331.5 1117.5,-331.5"/>
<text text-anchor="middle" x="1156" y="-338.5" font-family="Helvetica,sans-Serif" font-size="10.00">view.SideBar</text>
</a>
</g>
</g>
<!-- Node4&#45;&gt;Node9 -->
<g id="edge12" class="edge"><title>Node4&#45;&gt;Node9</title>
<path fill="none" stroke="#9a32cd" stroke-dasharray="5,2" d="M895.976,-514.007C913.56,-509.733 933.646,-504.993 952,-501 1004.21,-489.642 1032.88,-516.428 1070,-478 1105.33,-441.424 1055.53,-404.144 1088,-365 1095.41,-356.06 1106.42,-350.45 1117.37,-346.929"/>
<polygon fill="#9a32cd" stroke="#9a32cd" points="894.826,-510.685 885.944,-516.46 896.489,-517.485 894.826,-510.685"/>
<text text-anchor="middle" x="1011" y="-504" font-family="Helvetica,sans-Serif" font-size="10.00"> myResources</text>
</g>
<!-- Node4&#45;&gt;Node23 -->
<g id="edge32" class="edge"><title>Node4&#45;&gt;Node23</title>
<path fill="none" stroke="#9a32cd" stroke-dasharray="5,2" d="M903.685,-530.102C961.425,-533.067 1046.5,-533.4 1070,-512 1107.93,-477.466 1051.35,-433.886 1088,-398 1137.36,-349.672 1173.39,-385.041 1242,-377 1336.92,-365.875 1363.73,-380.885 1456,-356 1500.36,-344.037 1515.69,-343.554 1550,-313 1581.06,-285.342 1601.62,-238.665 1609.45,-218.619"/>
<polygon fill="#9a32cd" stroke="#9a32cd" points="903.777,-526.602 893.599,-529.544 903.39,-533.592 903.777,-526.602"/>
<text text-anchor="middle" x="1280" y="-380" font-family="Helvetica,sans-Serif" font-size="10.00"> myResources</text>
</g>
<!-- Node5 -->
<g id="node5" class="node"><title>Node5</title>
<g id="a_node5"><a xlink:href="../../d8/df7/classview_1_1_turtle_view.html" target="_top" xlink:title="view.TurtleView">
<polygon fill="white" stroke="black" points="1113,-580.5 1113,-599.5 1199,-599.5 1199,-580.5 1113,-580.5"/>
<text text-anchor="middle" x="1156" y="-587.5" font-family="Helvetica,sans-Serif" font-size="10.00">view.TurtleView</text>
</a>
</g>
</g>
<!-- Node5&#45;&gt;Node2 -->
<g id="edge4" class="edge"><title>Node5&#45;&gt;Node2</title>
<path fill="none" stroke="#9a32cd" stroke-dasharray="5,2" d="M1209.1,-585.686C1241.04,-582.119 1282.47,-575.822 1318,-565 1339.6,-558.421 1362.88,-546.847 1378.12,-538.598"/>
<polygon fill="#9a32cd" stroke="#9a32cd" points="1208.66,-582.214 1199.09,-586.751 1209.4,-589.174 1208.66,-582.214"/>
<text text-anchor="middle" x="1280" y="-585" font-family="Helvetica,sans-Serif" font-size="10.00"> myActiveTurtle</text>
</g>
<!-- Node6 -->
<g id="node6" class="node"><title>Node6</title>
<polygon fill="white" stroke="#bfbfbf" points="813,-567.5 813,-586.5 881,-586.5 881,-567.5 813,-567.5"/>
<text text-anchor="middle" x="847" y="-574.5" font-family="Helvetica,sans-Serif" font-size="10.00">ImageView</text>
</g>
<!-- Node6&#45;&gt;Node5 -->
<g id="edge5" class="edge"><title>Node6&#45;&gt;Node5</title>
<path fill="none" stroke="midnightblue" d="M891.232,-578.831C950.085,-581.323 1054.74,-585.754 1112.97,-588.22"/>
<polygon fill="midnightblue" stroke="midnightblue" points="891.285,-575.33 881.146,-578.404 890.989,-582.324 891.285,-575.33"/>
</g>
<!-- Node7 -->
<g id="node7" class="node"><title>Node7</title>
<polygon fill="white" stroke="#bfbfbf" points="824,-614.5 824,-633.5 870,-633.5 870,-614.5 824,-614.5"/>
<text text-anchor="middle" x="847" y="-621.5" font-family="Helvetica,sans-Serif" font-size="10.00">Group</text>
</g>
<!-- Node7&#45;&gt;Node2 -->
<g id="edge8" class="edge"><title>Node7&#45;&gt;Node2</title>
<path fill="none" stroke="#9a32cd" stroke-dasharray="5,2" d="M880.713,-629.816C959.975,-642.326 1166.89,-665.424 1318,-597 1347.89,-583.464 1374.59,-554.257 1387.25,-538.899"/>
<polygon fill="#9a32cd" stroke="#9a32cd" points="880.828,-626.289 870.395,-628.132 879.7,-633.197 880.828,-626.289"/>
<text text-anchor="middle" x="1156" y="-647" font-family="Helvetica,sans-Serif" font-size="10.00"> myLines</text>
</g>
<!-- Node7&#45;&gt;Node5 -->
<g id="edge6" class="edge"><title>Node7&#45;&gt;Node5</title>
<path fill="none" stroke="#9a32cd" stroke-dasharray="5,2" d="M880.375,-619.773C900.888,-617.14 927.984,-613.743 952,-611 1007.62,-604.648 1071.91,-598.137 1112.98,-594.083"/>
<polygon fill="#9a32cd" stroke="#9a32cd" points="879.769,-616.322 870.3,-621.073 880.665,-623.265 879.769,-616.322"/>
<text text-anchor="middle" x="1011" y="-614" font-family="Helvetica,sans-Serif" font-size="10.00"> myStamps</text>
</g>
<!-- Node8 -->
<g id="node8" class="node"><title>Node8</title>
<polygon fill="white" stroke="#bfbfbf" points="1088,-446 1088,-476 1224,-476 1224,-446 1088,-446"/>
<text text-anchor="start" x="1096" y="-464" font-family="Helvetica,sans-Serif" font-size="10.00">Map&lt; Integer, view.Turtle</text>
<text text-anchor="middle" x="1156" y="-453" font-family="Helvetica,sans-Serif" font-size="10.00">View &gt;</text>
</g>
<!-- Node8&#45;&gt;Node2 -->
<g id="edge7" class="edge"><title>Node8&#45;&gt;Node2</title>
<path fill="none" stroke="#9a32cd" stroke-dasharray="5,2" d="M1234.16,-477.663C1260.9,-483.973 1290.95,-491.664 1318,-500 1336.43,-505.679 1356.83,-513.433 1372.01,-519.494"/>
<polygon fill="#9a32cd" stroke="#9a32cd" points="1234.61,-474.176 1224.08,-475.314 1233.02,-480.993 1234.61,-474.176"/>
<text text-anchor="middle" x="1280" y="-503" font-family="Helvetica,sans-Serif" font-size="10.00"> myTurtles</text>
</g>
<!-- Node9&#45;&gt;Node2 -->
<g id="edge9" class="edge"><title>Node9&#45;&gt;Node2</title>
<path fill="none" stroke="#9a32cd" stroke-dasharray="5,2" d="M1180.97,-355.891C1197.76,-366.054 1220.89,-379.521 1242,-390 1274.83,-406.295 1289.34,-399.161 1318,-422 1353.44,-450.238 1380.12,-498.803 1390.39,-519.36"/>
<polygon fill="#9a32cd" stroke="#9a32cd" points="1182.71,-352.849 1172.35,-350.625 1179.06,-358.823 1182.71,-352.849"/>
<text text-anchor="middle" x="1280" y="-425" font-family="Helvetica,sans-Serif" font-size="10.00"> mySidebar</text>
</g>
<!-- Node9&#45;&gt;Node21 -->
<g id="edge27" class="edge"><title>Node9&#45;&gt;Node21</title>
<path fill="none" stroke="#9a32cd" stroke-dasharray="5,2" d="M1107.68,-350.95C1100.25,-354.344 1093.29,-358.896 1088,-365 1061.85,-395.162 1100.29,-427.002 1070,-453 1032.82,-484.908 700.356,-482.908 573.176,-480.941"/>
<polygon fill="#9a32cd" stroke="#9a32cd" points="1109.2,-354.117 1117.26,-347.24 1106.67,-347.59 1109.2,-354.117"/>
<text text-anchor="middle" x="847" y="-485" font-family="Helvetica,sans-Serif" font-size="10.00"> mySidebar</text>
</g>
<!-- Node9&#45;&gt;Node23 -->
<g id="edge44" class="edge"><title>Node9&#45;&gt;Node23</title>
<path fill="none" stroke="#9a32cd" stroke-dasharray="5,2" d="M1205.11,-344.359C1282.78,-347.595 1438.37,-344.859 1550,-283 1577.75,-267.625 1598.72,-234.923 1607.9,-218.635"/>
<polygon fill="#9a32cd" stroke="#9a32cd" points="1204.83,-340.842 1194.68,-343.869 1204.5,-347.835 1204.83,-340.842"/>
<text text-anchor="middle" x="1396" y="-344" font-family="Helvetica,sans-Serif" font-size="10.00"> mySidebar</text>
</g>
<!-- Node25 -->
<g id="node25" class="node"><title>Node25</title>
<g id="a_node25"><a xlink:href="../../da/dc8/classview_1_1_editor.html" target="_top" xlink:title="view.Editor">
<polygon fill="white" stroke="black" points="1362.5,-85.5 1362.5,-104.5 1429.5,-104.5 1429.5,-85.5 1362.5,-85.5"/>
<text text-anchor="middle" x="1396" y="-92.5" font-family="Helvetica,sans-Serif" font-size="10.00">view.Editor</text>
</a>
</g>
</g>
<!-- Node9&#45;&gt;Node25 -->
<g id="edge38" class="edge"><title>Node9&#45;&gt;Node25</title>
<path fill="none" stroke="#9a32cd" stroke-dasharray="5,2" d="M1188.35,-326.837C1225.71,-308.212 1286.97,-271.792 1318,-221 1343.14,-179.85 1304.46,-150.478 1336,-114 1342.69,-106.267 1352.54,-101.657 1362.28,-98.9167"/>
<polygon fill="#9a32cd" stroke="#9a32cd" points="1186.41,-323.886 1178.95,-331.401 1189.47,-330.183 1186.41,-323.886"/>
<text text-anchor="middle" x="1280" y="-297" font-family="Helvetica,sans-Serif" font-size="10.00"> mySidebar</text>
</g>
<!-- Node10 -->
<g id="node10" class="node"><title>Node10</title>
<polygon fill="white" stroke="#bfbfbf" points="826.5,-262.5 826.5,-281.5 867.5,-281.5 867.5,-262.5 826.5,-262.5"/>
<text text-anchor="middle" x="847" y="-269.5" font-family="Helvetica,sans-Serif" font-size="10.00">VBox</text>
</g>
<!-- Node10&#45;&gt;Node9 -->
<g id="edge10" class="edge"><title>Node10&#45;&gt;Node9</title>
<path fill="none" stroke="midnightblue" d="M877.674,-274.546C920.675,-278.712 1002.54,-288.445 1070,-307 1092.83,-313.281 1117.88,-323.768 1134.83,-331.438"/>
<polygon fill="midnightblue" stroke="midnightblue" points="877.894,-271.051 867.612,-273.604 877.242,-278.021 877.894,-271.051"/>
</g>
<!-- Node11 -->
<g id="node11" class="node"><title>Node11</title>
<polygon fill="white" stroke="#bfbfbf" points="760.5,-424.5 760.5,-443.5 933.5,-443.5 933.5,-424.5 760.5,-424.5"/>
<text text-anchor="middle" x="847" y="-431.5" font-family="Helvetica,sans-Serif" font-size="10.00">ObservableList&lt; view.Property &gt;</text>
</g>
<!-- Node11&#45;&gt;Node9 -->
<g id="edge11" class="edge"><title>Node11&#45;&gt;Node9</title>
<path fill="none" stroke="#9a32cd" stroke-dasharray="5,2" d="M943.813,-437.843C994.563,-437.899 1050.38,-434.176 1070,-419 1090.01,-403.524 1070.31,-383.086 1088,-365 1095.86,-356.962 1106.6,-351.606 1117.18,-348.04"/>
<polygon fill="#9a32cd" stroke="#9a32cd" points="943.764,-434.342 933.743,-437.783 943.722,-441.342 943.764,-434.342"/>
<text text-anchor="middle" x="1011" y="-441" font-family="Helvetica,sans-Serif" font-size="10.00"> myVariablesList</text>
</g>
<!-- Node12 -->
<g id="node12" class="node"><title>Node12</title>
<g id="a_node12"><a xlink:href="../../d1/dca/classmodel_1_1_execution_environment.html" target="_top" xlink:title="model.ExecutionEnvironment">
<polygon fill="white" stroke="black" points="444.5,-224.5 444.5,-243.5 601.5,-243.5 601.5,-224.5 444.5,-224.5"/>
<text text-anchor="middle" x="523" y="-231.5" font-family="Helvetica,sans-Serif" font-size="10.00">model.ExecutionEnvironment</text>
</a>
</g>
</g>
<!-- Node12&#45;&gt;Node9 -->
<g id="edge13" class="edge"><title>Node12&#45;&gt;Node9</title>
<path fill="none" stroke="#9a32cd" stroke-dasharray="5,2" d="M540.572,-250.703C558.44,-267.514 588.573,-292.545 620,-304 625.857,-306.135 996.638,-330.612 1117.42,-338.539"/>
<polygon fill="#9a32cd" stroke="#9a32cd" points="542.886,-248.072 533.265,-243.636 538.02,-253.104 542.886,-248.072"/>
<text text-anchor="middle" x="847" y="-329" font-family="Helvetica,sans-Serif" font-size="10.00"> myEnvironment</text>
</g>
<!-- Node18 -->
<g id="node18" class="node"><title>Node18</title>
<g id="a_node18"><a xlink:href="../../dc/df5/classmodel_1_1_parser.html" target="_top" xlink:title="model.Parser">
<polygon fill="white" stroke="black" points="807,-164.5 807,-183.5 887,-183.5 887,-164.5 807,-164.5"/>
<text text-anchor="middle" x="847" y="-171.5" font-family="Helvetica,sans-Serif" font-size="10.00">model.Parser</text>
</a>
</g>
</g>
<!-- Node12&#45;&gt;Node18 -->
<g id="edge22" class="edge"><title>Node12&#45;&gt;Node18</title>
<path fill="none" stroke="#9a32cd" stroke-dasharray="5,2" d="M567.023,-221.805C583.507,-217.394 602.542,-212.615 620,-209 685.122,-195.514 761.777,-184.692 806.995,-178.821"/>
<polygon fill="#9a32cd" stroke="#9a32cd" points="565.861,-218.494 557.127,-224.49 567.694,-225.25 565.861,-218.494"/>
<text text-anchor="middle" x="681" y="-212" font-family="Helvetica,sans-Serif" font-size="10.00"> myExecutionParameters</text>
</g>
<!-- Node12&#45;&gt;Node23 -->
<g id="edge40" class="edge"><title>Node12&#45;&gt;Node23</title>
<path fill="none" stroke="#9a32cd" stroke-dasharray="5,2" d="M611.958,-235.848C719.874,-238.21 908.416,-242.641 1070,-248 1146.47,-250.536 1165.51,-253.444 1242,-255 1275.77,-255.687 1284.31,-257.455 1318,-255 1407.44,-248.481 1510.71,-229.766 1568.28,-218.315"/>
<polygon fill="#9a32cd" stroke="#9a32cd" points="611.844,-232.345 601.77,-235.626 611.691,-239.343 611.844,-232.345"/>
<text text-anchor="middle" x="1156" y="-258" font-family="Helvetica,sans-Serif" font-size="10.00"> myEnvironment</text>
</g>
<!-- Node13 -->
<g id="node13" class="node"><title>Node13</title>
<polygon fill="white" stroke="#bfbfbf" points="173.5,-205.5 173.5,-224.5 244.5,-224.5 244.5,-205.5 173.5,-205.5"/>
<text text-anchor="middle" x="209" y="-212.5" font-family="Helvetica,sans-Serif" font-size="10.00">Observable</text>
</g>
<!-- Node13&#45;&gt;Node12 -->
<g id="edge14" class="edge"><title>Node13&#45;&gt;Node12</title>
<path fill="none" stroke="midnightblue" d="M254.637,-217.718C304.066,-220.728 384.658,-225.636 444.457,-229.278"/>
<polygon fill="midnightblue" stroke="midnightblue" points="254.776,-214.22 244.582,-217.106 254.35,-221.207 254.776,-214.22"/>
</g>
<!-- Node14 -->
<g id="node14" class="node"><title>Node14</title>
<polygon fill="white" stroke="#bfbfbf" points="164.5,-167.5 164.5,-186.5 253.5,-186.5 253.5,-167.5 164.5,-167.5"/>
<text text-anchor="middle" x="209" y="-174.5" font-family="Helvetica,sans-Serif" font-size="10.00">Set&lt; Integer &gt;</text>
</g>
<!-- Node14&#45;&gt;Node12 -->
<g id="edge15" class="edge"><title>Node14&#45;&gt;Node12</title>
<path fill="none" stroke="#9a32cd" stroke-dasharray="5,2" d="M263.833,-177.439C307.953,-178.819 371.737,-183.162 426,-196 426.938,-196.222 469.951,-213.299 498.078,-224.483"/>
<polygon fill="#9a32cd" stroke="#9a32cd" points="263.708,-173.934 253.616,-177.161 263.517,-180.932 263.708,-173.934"/>
<text text-anchor="middle" x="370" y="-210" font-family="Helvetica,sans-Serif" font-size="10.00"> myTurtleList</text>
<text text-anchor="middle" x="370" y="-199" font-family="Helvetica,sans-Serif" font-size="10.00">activeTurtleList</text>
</g>
<!-- Node15 -->
<g id="node15" class="node"><title>Node15</title>
<polygon fill="white" stroke="#bfbfbf" points="122,-320 122,-350 296,-350 296,-320 122,-320"/>
<text text-anchor="start" x="130" y="-338" font-family="Helvetica,sans-Serif" font-size="10.00">Map&lt; String, model.instructions.</text>
<text text-anchor="middle" x="209" y="-327" font-family="Helvetica,sans-Serif" font-size="10.00">Instruction &gt;</text>
</g>
<!-- Node15&#45;&gt;Node12 -->
<g id="edge16" class="edge"><title>Node15&#45;&gt;Node12</title>
<path fill="none" stroke="#9a32cd" stroke-dasharray="5,2" d="M273.065,-316.993C280.804,-314.687 288.593,-312.321 296,-310 368.09,-287.411 452.252,-258.405 494.636,-243.611"/>
<polygon fill="#9a32cd" stroke="#9a32cd" points="271.917,-313.683 263.32,-319.874 273.902,-320.396 271.917,-313.683"/>
<text text-anchor="middle" x="370" y="-308" font-family="Helvetica,sans-Serif" font-size="10.00"> myUserInstructionMap</text>
</g>
<!-- Node16 -->
<g id="node16" class="node"><title>Node16</title>
<polygon fill="white" stroke="#bfbfbf" points="145,-243.5 145,-262.5 273,-262.5 273,-243.5 145,-243.5"/>
<text text-anchor="middle" x="209" y="-250.5" font-family="Helvetica,sans-Serif" font-size="10.00">Map&lt; String, Double &gt;</text>
</g>
<!-- Node16&#45;&gt;Node12 -->
<g id="edge17" class="edge"><title>Node16&#45;&gt;Node12</title>
<path fill="none" stroke="#9a32cd" stroke-dasharray="5,2" d="M283.23,-248.54C331.637,-245.593 395.011,-241.733 444.303,-238.732"/>
<polygon fill="#9a32cd" stroke="#9a32cd" points="282.907,-245.054 273.138,-249.155 283.332,-252.041 282.907,-245.054"/>
<text text-anchor="middle" x="370" y="-250" font-family="Helvetica,sans-Serif" font-size="10.00"> myVariableMap</text>
</g>
<!-- Node17 -->
<g id="node17" class="node"><title>Node17</title>
<polygon fill="white" stroke="#bfbfbf" points="773,-386.5 773,-405.5 921,-405.5 921,-386.5 773,-386.5"/>
<text text-anchor="middle" x="847" y="-393.5" font-family="Helvetica,sans-Serif" font-size="10.00">TableView&lt; view.Property &gt;</text>
</g>
<!-- Node17&#45;&gt;Node9 -->
<g id="edge18" class="edge"><title>Node17&#45;&gt;Node9</title>
<path fill="none" stroke="#9a32cd" stroke-dasharray="5,2" d="M931.485,-394.896C973.695,-392.547 1025.31,-386.909 1070,-374 1078.59,-371.518 1079.78,-368.514 1088,-365 1100.27,-359.757 1114.11,-354.666 1126.02,-350.532"/>
<polygon fill="#9a32cd" stroke="#9a32cd" points="931.056,-391.414 921.245,-395.413 931.408,-398.405 931.056,-391.414"/>
<text text-anchor="middle" x="1011" y="-408" font-family="Helvetica,sans-Serif" font-size="10.00"> myTurtlePropertiesTable</text>
<text text-anchor="middle" x="1011" y="-397" font-family="Helvetica,sans-Serif" font-size="10.00">myVariablesTable</text>
</g>
<!-- Node18&#45;&gt;Node9 -->
<g id="edge19" class="edge"><title>Node18&#45;&gt;Node9</title>
<path fill="none" stroke="#9a32cd" stroke-dasharray="5,2" d="M876.604,-188.055C897.376,-198.12 926.238,-211.813 952,-223 1003.78,-245.485 1021.51,-241.099 1070,-270 1100.06,-287.916 1130.34,-316.243 1145.33,-331.123"/>
<polygon fill="#9a32cd" stroke="#9a32cd" points="877.912,-184.8 867.389,-183.571 874.849,-191.094 877.912,-184.8"/>
<text text-anchor="middle" x="1011" y="-273" font-family="Helvetica,sans-Serif" font-size="10.00"> myParser</text>
</g>
<!-- Node18&#45;&gt;Node23 -->
<g id="edge41" class="edge"><title>Node18&#45;&gt;Node23</title>
<path fill="none" stroke="#9a32cd" stroke-dasharray="5,2" d="M897.838,-178.792C914.991,-180.314 934.325,-181.888 952,-183 1183.82,-197.582 1461.92,-205.351 1568.48,-207.971"/>
<polygon fill="#9a32cd" stroke="#9a32cd" points="897.75,-175.27 887.475,-177.856 897.12,-182.241 897.75,-175.27"/>
<text text-anchor="middle" x="1280" y="-204" font-family="Helvetica,sans-Serif" font-size="10.00"> myParser</text>
</g>
<!-- Node18&#45;&gt;Node25 -->
<g id="edge36" class="edge"><title>Node18&#45;&gt;Node25</title>
<path fill="none" stroke="#9a32cd" stroke-dasharray="5,2" d="M881.836,-160.92C927.725,-143.897 1012.63,-114.919 1088,-103 1187.01,-87.3433 1306.16,-90.3679 1362.48,-93.0794"/>
<polygon fill="#9a32cd" stroke="#9a32cd" points="880.52,-157.676 872.384,-164.463 882.976,-164.231 880.52,-157.676"/>
<text text-anchor="middle" x="1156" y="-106" font-family="Helvetica,sans-Serif" font-size="10.00"> myParser</text>
</g>
<!-- Node19 -->
<g id="node19" class="node"><title>Node19</title>
<polygon fill="white" stroke="#bfbfbf" points="179,-281.5 179,-300.5 239,-300.5 239,-281.5 179,-281.5"/>
<text text-anchor="middle" x="209" y="-288.5" font-family="Helvetica,sans-Serif" font-size="10.00">Observer</text>
</g>
<!-- Node19&#45;&gt;Node18 -->
<g id="edge20" class="edge"><title>Node19&#45;&gt;Node18</title>
<path fill="none" stroke="midnightblue" d="M249.062,-291.468C265.656,-289.597 283.92,-284.45 296,-272 325.925,-241.158 287.771,-211.04 314,-177 353.071,-126.294 381.566,-129.126 444,-115 585.729,-82.9333 759.667,-140.678 822.205,-164.457"/>
<polygon fill="midnightblue" stroke="midnightblue" points="248.716,-287.985 239.016,-292.246 249.257,-294.964 248.716,-287.985"/>
</g>
<!-- Node19&#45;&gt;Node21 -->
<g id="edge24" class="edge"><title>Node19&#45;&gt;Node21</title>
<path fill="none" stroke="midnightblue" d="M249.322,-296.045C264.387,-298.904 281.44,-303.302 296,-310 320.253,-321.158 466.43,-436.068 509.849,-470.379"/>
<polygon fill="midnightblue" stroke="midnightblue" points="249.716,-292.561 239.266,-294.302 248.521,-299.458 249.716,-292.561"/>
</g>
<!-- Node20 -->
<g id="node20" class="node"><title>Node20</title>
<polygon fill="white" stroke="#bfbfbf" points="467,-125 467,-155 579,-155 579,-125 467,-125"/>
<text text-anchor="start" x="475" y="-143" font-family="Helvetica,sans-Serif" font-size="10.00">List&lt; Entry&lt; String,</text>
<text text-anchor="middle" x="523" y="-132" font-family="Helvetica,sans-Serif" font-size="10.00"> Pattern &gt; &gt;</text>
</g>
<!-- Node20&#45;&gt;Node18 -->
<g id="edge21" class="edge"><title>Node20&#45;&gt;Node18</title>
<path fill="none" stroke="#9a32cd" stroke-dasharray="5,2" d="M589.342,-144.191C632.709,-147.269 690.85,-151.961 742,-158 763.408,-160.527 787.176,-164.124 806.581,-167.268"/>
<polygon fill="#9a32cd" stroke="#9a32cd" points="589.428,-140.689 579.208,-143.482 588.939,-147.672 589.428,-140.689"/>
<text text-anchor="middle" x="681" y="-161" font-family="Helvetica,sans-Serif" font-size="10.00"> myPatterns</text>
</g>
<!-- Node21&#45;&gt;Node18 -->
<g id="edge23" class="edge"><title>Node21&#45;&gt;Node18</title>
<path fill="none" stroke="#9a32cd" stroke-dasharray="5,2" d="M541.168,-463.225C579.918,-425.42 677.243,-330.791 760,-253 786.885,-227.728 819.01,-198.46 835.336,-183.652"/>
<polygon fill="#9a32cd" stroke="#9a32cd" points="538.526,-460.913 533.815,-470.403 543.415,-465.922 538.526,-460.913"/>
<text text-anchor="middle" x="681" y="-385" font-family="Helvetica,sans-Serif" font-size="10.00"> myViewUpdater</text>
</g>
<!-- Node22 -->
<g id="node22" class="node"><title>Node22</title>
<polygon fill="white" stroke="#bfbfbf" points="462,-174.5 462,-193.5 584,-193.5 584,-174.5 462,-174.5"/>
<text text-anchor="middle" x="523" y="-181.5" font-family="Helvetica,sans-Serif" font-size="10.00">Map&lt; String, String &gt;</text>
</g>
<!-- Node22&#45;&gt;Node18 -->
<g id="edge28" class="edge"><title>Node22&#45;&gt;Node18</title>
<path fill="none" stroke="#9a32cd" stroke-dasharray="5,2" d="M594.229,-176.689C602.9,-176.001 611.648,-175.409 620,-175 685.446,-171.794 761.681,-172.345 806.777,-173.116"/>
<polygon fill="#9a32cd" stroke="#9a32cd" points="593.787,-173.214 584.113,-177.536 594.371,-180.19 593.787,-173.214"/>
<text text-anchor="middle" x="681" y="-178" font-family="Helvetica,sans-Serif" font-size="10.00"> myCommandMap</text>
</g>
<!-- Node23&#45;&gt;Node18 -->
<g id="edge29" class="edge"><title>Node23&#45;&gt;Node18</title>
<path fill="none" stroke="#9a32cd" stroke-dasharray="5,2" d="M1564.34,-197.493C1559.51,-196.56 1554.67,-195.707 1550,-195 1299.84,-157.144 994.01,-166.859 887.106,-171.899"/>
<polygon fill="#9a32cd" stroke="#9a32cd" points="1563.68,-200.93 1574.17,-199.498 1565.07,-194.071 1563.68,-200.93"/>
<text text-anchor="middle" x="1280" y="-176" font-family="Helvetica,sans-Serif" font-size="10.00"> mySLogoView</text>
</g>
<!-- Node24 -->
<g id="node24" class="node"><title>Node24</title>
<polygon fill="white" stroke="#bfbfbf" points="1373.5,-123.5 1373.5,-142.5 1418.5,-142.5 1418.5,-123.5 1373.5,-123.5"/>
<text text-anchor="middle" x="1396" y="-130.5" font-family="Helvetica,sans-Serif" font-size="10.00">Stage</text>
</g>
<!-- Node24&#45;&gt;Node23 -->
<g id="edge31" class="edge"><title>Node24&#45;&gt;Node23</title>
<path fill="none" stroke="#9a32cd" stroke-dasharray="5,2" d="M1428.87,-129.544C1460.99,-127.436 1511.23,-127.981 1550,-146 1575.53,-157.865 1596.6,-184.702 1606.65,-199.225"/>
<polygon fill="#9a32cd" stroke="#9a32cd" points="1428.41,-126.069 1418.71,-130.339 1428.95,-133.047 1428.41,-126.069"/>
<text text-anchor="middle" x="1512" y="-149" font-family="Helvetica,sans-Serif" font-size="10.00"> myStage</text>
</g>
<!-- Node25&#45;&gt;Node23 -->
<g id="edge33" class="edge"><title>Node25&#45;&gt;Node23</title>
<path fill="none" stroke="#9a32cd" stroke-dasharray="5,2" d="M1439.85,-91.4699C1472.4,-90.8381 1517.03,-94.551 1550,-115 1582.72,-135.296 1602.27,-179.615 1609.63,-199.274"/>
<polygon fill="#9a32cd" stroke="#9a32cd" points="1439.61,-87.9758 1429.74,-91.812 1439.85,-94.9718 1439.61,-87.9758"/>
<text text-anchor="middle" x="1512" y="-118" font-family="Helvetica,sans-Serif" font-size="10.00"> myEditor</text>
</g>
<!-- Node26 -->
<g id="node26" class="node"><title>Node26</title>
<polygon fill="white" stroke="#bfbfbf" points="1135,-123.5 1135,-142.5 1177,-142.5 1177,-123.5 1135,-123.5"/>
<text text-anchor="middle" x="1156" y="-130.5" font-family="Helvetica,sans-Serif" font-size="10.00">HBox</text>
</g>
<!-- Node26&#45;&gt;Node25 -->
<g id="edge34" class="edge"><title>Node26&#45;&gt;Node25</title>
<path fill="none" stroke="midnightblue" d="M1187.25,-128.425C1219.62,-123.501 1272.47,-115.378 1318,-108 1332.59,-105.636 1348.71,-102.929 1362.42,-100.598"/>
<polygon fill="midnightblue" stroke="midnightblue" points="1186.45,-125.005 1177.09,-129.967 1187.51,-131.926 1186.45,-125.005"/>
</g>
<!-- Node27 -->
<g id="node27" class="node"><title>Node27</title>
<polygon fill="white" stroke="#bfbfbf" points="1131.5,-38.5 1131.5,-57.5 1180.5,-57.5 1180.5,-38.5 1131.5,-38.5"/>
<text text-anchor="middle" x="1156" y="-45.5" font-family="Helvetica,sans-Serif" font-size="10.00">Button</text>
</g>
<!-- Node27&#45;&gt;Node25 -->
<g id="edge35" class="edge"><title>Node27&#45;&gt;Node25</title>
<path fill="none" stroke="#9a32cd" stroke-dasharray="5,2" d="M1190.52,-50.009C1223.4,-52.5299 1274.75,-57.9433 1318,-69 1326.32,-71.1261 1327.91,-73.1276 1336,-76 1345.13,-79.2409 1355.13,-82.5514 1364.26,-85.482"/>
<polygon fill="#9a32cd" stroke="#9a32cd" points="1190.76,-46.5169 1180.53,-49.2887 1190.25,-53.4988 1190.76,-46.5169"/>
<text text-anchor="middle" x="1280" y="-72" font-family="Helvetica,sans-Serif" font-size="10.00"> runButton</text>
</g>
<!-- Node28 -->
<g id="node28" class="node"><title>Node28</title>
<polygon fill="white" stroke="#bfbfbf" points="1127,-0.5 1127,-19.5 1185,-19.5 1185,-0.5 1127,-0.5"/>
<text text-anchor="middle" x="1156" y="-7.5" font-family="Helvetica,sans-Serif" font-size="10.00">TextArea</text>
</g>
<!-- Node28&#45;&gt;Node25 -->
<g id="edge37" class="edge"><title>Node28&#45;&gt;Node25</title>
<path fill="none" stroke="#9a32cd" stroke-dasharray="5,2" d="M1195.63,-8.31152C1230.84,-8.72992 1282.59,-14.4733 1318,-41 1332,-51.4883 1322.66,-64.6823 1336,-76 1343.47,-82.336 1353.08,-86.5683 1362.37,-89.3919"/>
<polygon fill="#9a32cd" stroke="#9a32cd" points="1195.27,-4.81227 1185.27,-8.33552 1195.28,-11.8122 1195.27,-4.81227"/>
<text text-anchor="middle" x="1280" y="-44" font-family="Helvetica,sans-Serif" font-size="10.00"> textEditor</text>
</g>
<!-- Node29 -->
<g id="node29" class="node"><title>Node29</title>
<polygon fill="white" stroke="#bfbfbf" points="1336.5,-47.5 1336.5,-66.5 1455.5,-66.5 1455.5,-47.5 1336.5,-47.5"/>
<text text-anchor="middle" x="1396" y="-54.5" font-family="Helvetica,sans-Serif" font-size="10.00">Map&lt; String, Node &gt;</text>
</g>
<!-- Node29&#45;&gt;Node23 -->
<g id="edge39" class="edge"><title>Node29&#45;&gt;Node23</title>
<path fill="none" stroke="#9a32cd" stroke-dasharray="5,2" d="M1465.93,-52.7398C1494.31,-54.2682 1526.07,-60.5682 1550,-78 1592.02,-108.605 1607.21,-174.781 1611.54,-199.463"/>
<polygon fill="#9a32cd" stroke="#9a32cd" points="1465.77,-49.232 1455.65,-52.3808 1465.52,-56.2277 1465.77,-49.232"/>
<text text-anchor="middle" x="1512" y="-81" font-family="Helvetica,sans-Serif" font-size="10.00"> variables</text>
</g>
<!-- Node30 -->
<g id="node30" class="node"><title>Node30</title>
<polygon fill="white" stroke="#bfbfbf" points="1355.5,-9.5 1355.5,-28.5 1436.5,-28.5 1436.5,-9.5 1355.5,-9.5"/>
<text text-anchor="middle" x="1396" y="-16.5" font-family="Helvetica,sans-Serif" font-size="10.00">Dimension2D</text>
</g>
<!-- Node30&#45;&gt;Node23 -->
<g id="edge42" class="edge"><title>Node30&#45;&gt;Node23</title>
<path fill="none" stroke="#9a32cd" stroke-dasharray="5,2" d="M1447.05,-13.1116C1479.68,-12.0236 1521.36,-16.1744 1550,-39 1602.18,-80.5906 1611.14,-169.881 1612.68,-199.346"/>
<polygon fill="#9a32cd" stroke="#9a32cd" points="1446.61,-9.62922 1436.8,-13.6319 1446.97,-16.6202 1446.61,-9.62922"/>
<text text-anchor="middle" x="1512" y="-42" font-family="Helvetica,sans-Serif" font-size="10.00"> myDimensions</text>
</g>
<!-- Node31 -->
<g id="node31" class="node"><title>Node31</title>
<polygon fill="white" stroke="#bfbfbf" points="778,-347.5 778,-366.5 916,-366.5 916,-347.5 778,-347.5"/>
<text text-anchor="middle" x="847" y="-354.5" font-family="Helvetica,sans-Serif" font-size="10.00">ObservableList&lt; String &gt;</text>
</g>
<!-- Node31&#45;&gt;Node9 -->
<g id="edge45" class="edge"><title>Node31&#45;&gt;Node9</title>
<path fill="none" stroke="#9a32cd" stroke-dasharray="5,2" d="M926.16,-352.927C987.441,-349.733 1070.03,-345.429 1117.39,-342.96"/>
<polygon fill="#9a32cd" stroke="#9a32cd" points="925.938,-349.433 916.133,-353.449 926.302,-356.424 925.938,-349.433"/>
<text text-anchor="middle" x="1011" y="-366" font-family="Helvetica,sans-Serif" font-size="10.00"> myCommandItems</text>
<text text-anchor="middle" x="1011" y="-355" font-family="Helvetica,sans-Serif" font-size="10.00">myHistoryItems</text>
</g>
<!-- Node32 -->
<g id="node32" class="node"><title>Node32</title>
<polygon fill="white" stroke="#bfbfbf" points="1124.5,-407.5 1124.5,-426.5 1187.5,-426.5 1187.5,-407.5 1124.5,-407.5"/>
<text text-anchor="middle" x="1156" y="-414.5" font-family="Helvetica,sans-Serif" font-size="10.00">Rectangle</text>
</g>
<!-- Node32&#45;&gt;Node2 -->
<g id="edge46" class="edge"><title>Node32&#45;&gt;Node2</title>
<path fill="none" stroke="#9a32cd" stroke-dasharray="5,2" d="M1197.48,-424.224C1231.17,-431.347 1279.65,-444.23 1318,-465 1345.51,-479.901 1372.4,-505.488 1385.94,-519.367"/>
<polygon fill="#9a32cd" stroke="#9a32cd" points="1198.02,-420.763 1187.53,-422.196 1196.63,-427.622 1198.02,-420.763"/>
<text text-anchor="middle" x="1280" y="-468" font-family="Helvetica,sans-Serif" font-size="10.00"> myBackground</text>
</g>
<!-- Node33 -->
<g id="node33" class="node"><title>Node33</title>
<polygon fill="white" stroke="#bfbfbf" points="0.5,-705.5 0.5,-724.5 41.5,-724.5 41.5,-705.5 0.5,-705.5"/>
<text text-anchor="middle" x="21" y="-712.5" font-family="Helvetica,sans-Serif" font-size="10.00">Color</text>
</g>
<!-- Node33&#45;&gt;Node1 -->
<g id="edge47" class="edge"><title>Node33&#45;&gt;Node1</title>
<path fill="none" stroke="#9a32cd" stroke-dasharray="5,2" d="M51.8575,-715C84.6426,-715 137.265,-715 172.23,-715"/>
<polygon fill="#9a32cd" stroke="#9a32cd" points="51.5537,-711.5 41.5537,-715 51.5537,-718.5 51.5537,-711.5"/>
<text text-anchor="middle" x="82" y="-718" font-family="Helvetica,sans-Serif" font-size="10.00"> myColor</text>
</g>
</g>
</svg>
