<?xml version="1.0" encoding="UTF-8" standalone="no"?>
<!DOCTYPE svg PUBLIC "-//W3C//DTD SVG 1.1//EN"
 "http://www.w3.org/Graphics/SVG/1.1/DTD/svg11.dtd">
<!-- Generated by graphviz version 2.36.0 (20140111.2315)
 -->
<!-- Title: view.SideListView Pages: 1 -->
<svg width="213pt" height="164pt"
 viewBox="0.00 0.00 213.00 164.00" xmlns="http://www.w3.org/2000/svg" xmlns:xlink="http://www.w3.org/1999/xlink">
<g id="graph0" class="graph" transform="scale(1 1) rotate(0) translate(4 160)">
<title>view.SideListView</title>
<polygon fill="white" stroke="none" points="-4,4 -4,-160 209,-160 209,4 -4,4"/>
<!-- Node1 -->
<g id="node1" class="node"><title>Node1</title>
<polygon fill="#bfbfbf" stroke="black" points="101,-0.5 101,-19.5 199,-19.5 199,-0.5 101,-0.5"/>
<text text-anchor="middle" x="150" y="-7.5" font-family="Helvetica,sans-Serif" font-size="10.00">view.SideListView</text>
</g>
<!-- Node2 -->
<g id="node2" class="node"><title>Node2</title>
<g id="a_node2"><a xlink:href="../../d2/d38/classview_1_1_side_properties_view.html" target="_top" xlink:title="view.SidePropertiesView">
<polygon fill="white" stroke="black" points="1.5,-68.5 1.5,-87.5 132.5,-87.5 132.5,-68.5 1.5,-68.5"/>
<text text-anchor="middle" x="67" y="-75.5" font-family="Helvetica,sans-Serif" font-size="10.00">view.SidePropertiesView</text>
</a>
</g>
</g>
<!-- Node2&#45;&gt;Node1 -->
<g id="edge1" class="edge"><title>Node2&#45;&gt;Node1</title>
<path fill="none" stroke="midnightblue" d="M85.7428,-62.0961C102.211,-49.0012 125.6,-30.4028 139.147,-19.6305"/>
<polygon fill="midnightblue" stroke="midnightblue" points="83.4995,-59.4082 77.8508,-68.3717 87.8563,-64.8872 83.4995,-59.4082"/>
</g>
<!-- Node3 -->
<g id="node3" class="node"><title>Node3</title>
<polygon fill="white" stroke="#bfbfbf" points="-0.5,-136.5 -0.5,-155.5 134.5,-155.5 134.5,-136.5 -0.5,-136.5"/>
<text text-anchor="middle" x="67" y="-143.5" font-family="Helvetica,sans-Serif" font-size="10.00">ObservableList&lt; Node &gt;</text>
</g>
<!-- Node3&#45;&gt;Node2 -->
<g id="edge2" class="edge"><title>Node3&#45;&gt;Node2</title>
<path fill="none" stroke="#9a32cd" stroke-dasharray="5,2" d="M67,-126.041C67,-113.472 67,-97.5631 67,-87.8411"/>
<polygon fill="#9a32cd" stroke="#9a32cd" points="63.5001,-126.372 67,-136.372 70.5001,-126.372 63.5001,-126.372"/>
<text text-anchor="middle" x="96" y="-109.5" font-family="Helvetica,sans-Serif" font-size="10.00"> myChildren</text>
</g>
<!-- Node4 -->
<g id="node4" class="node"><title>Node4</title>
<polygon fill="white" stroke="#bfbfbf" points="150.5,-68.5 150.5,-87.5 205.5,-87.5 205.5,-68.5 150.5,-68.5"/>
<text text-anchor="middle" x="178" y="-75.5" font-family="Helvetica,sans-Serif" font-size="10.00">ListView</text>
</g>
<!-- Node4&#45;&gt;Node1 -->
<g id="edge3" class="edge"><title>Node4&#45;&gt;Node1</title>
<path fill="none" stroke="#9a32cd" stroke-dasharray="5,2" d="M170.282,-58.8066C164.901,-46.1244 157.959,-29.7615 153.751,-19.8411"/>
<polygon fill="#9a32cd" stroke="#9a32cd" points="167.212,-60.5328 174.339,-68.3717 173.656,-57.7989 167.212,-60.5328"/>
<text text-anchor="middle" x="183.5" y="-41.5" font-family="Helvetica,sans-Serif" font-size="10.00"> myList</text>
</g>
</g>
</svg>
