<?xml version="1.0" encoding="UTF-8" standalone="no"?>
<!DOCTYPE svg PUBLIC "-//W3C//DTD SVG 1.1//EN"
 "http://www.w3.org/Graphics/SVG/1.1/DTD/svg11.dtd">
<!-- Generated by graphviz version 2.36.0 (20140111.2315)
 -->
<!-- Title: model.instructions.BooleanInstruction Pages: 1 -->
<svg width="1758pt" height="853pt"
 viewBox="0.00 0.00 1758.00 853.20" xmlns="http://www.w3.org/2000/svg" xmlns:xlink="http://www.w3.org/1999/xlink">
<g id="graph0" class="graph" transform="scale(1 1) rotate(0) translate(4 849.201)">
<title>model.instructions.BooleanInstruction</title>
<polygon fill="white" stroke="none" points="-4,4 -4,-849.201 1754,-849.201 1754,4 -4,4"/>
<!-- Node1 -->
<g id="node1" class="node"><title>Node1</title>
<polygon fill="#bfbfbf" stroke="black" points="966.5,-708.201 966.5,-738.201 1113.5,-738.201 1113.5,-708.201 966.5,-708.201"/>
<text text-anchor="start" x="974.5" y="-726.201" font-family="Helvetica,sans-Serif" font-size="10.00">model.instructions.Boolean</text>
<text text-anchor="middle" x="1040" y="-715.201" font-family="Helvetica,sans-Serif" font-size="10.00">Instruction</text>
</g>
<!-- Node2 -->
<g id="node2" class="node"><title>Node2</title>
<g id="a_node2"><a xlink:href="../../d1/dea/classmodel_1_1instructions_1_1_instruction.html" target="_top" xlink:title="model.instructions.Instruction">
<polygon fill="white" stroke="black" points="646,-713.701 646,-732.701 804,-732.701 804,-713.701 646,-713.701"/>
<text text-anchor="middle" x="725" y="-720.701" font-family="Helvetica,sans-Serif" font-size="10.00">model.instructions.Instruction</text>
</a>
</g>
</g>
<!-- Node2&#45;&gt;Node1 -->
<g id="edge1" class="edge"><title>Node2&#45;&gt;Node1</title>
<path fill="none" stroke="midnightblue" d="M814.257,-723.201C862.3,-723.201 921.012,-723.201 966.378,-723.201"/>
<polygon fill="midnightblue" stroke="midnightblue" points="814.176,-719.701 804.176,-723.201 814.176,-726.701 814.176,-719.701"/>
</g>
<!-- Node3 -->
<g id="node3" class="node"><title>Node3</title>
<polygon fill="white" stroke="#bfbfbf" points="57,-491.701 57,-510.701 117,-510.701 117,-491.701 57,-491.701"/>
<text text-anchor="middle" x="87" y="-498.701" font-family="Helvetica,sans-Serif" font-size="10.00">Observer</text>
</g>
<!-- Node3&#45;&gt;Node2 -->
<g id="edge2" class="edge"><title>Node3&#45;&gt;Node2</title>
<path fill="none" stroke="midnightblue" d="M112.207,-515.948C153.775,-540.73 241.991,-590.978 322,-621.201 443.244,-667 592.731,-698.821 670.804,-713.679"/>
<polygon fill="midnightblue" stroke="midnightblue" points="113.975,-512.927 103.599,-510.781 110.372,-518.929 113.975,-512.927"/>
</g>
<!-- Node9 -->
<g id="node9" class="node"><title>Node9</title>
<g id="a_node9"><a xlink:href="../../d4/d64/classview_1_1_view_updater.html" target="_top" xlink:title="view.ViewUpdater">
<polygon fill="white" stroke="black" points="351,-443.701 351,-462.701 451,-462.701 451,-443.701 351,-443.701"/>
<text text-anchor="middle" x="401" y="-450.701" font-family="Helvetica,sans-Serif" font-size="10.00">view.ViewUpdater</text>
</a>
</g>
</g>
<!-- Node3&#45;&gt;Node9 -->
<g id="edge9" class="edge"><title>Node3&#45;&gt;Node9</title>
<path fill="none" stroke="midnightblue" d="M127.079,-495.189C183.8,-486.463 288.905,-470.293 350.82,-460.767"/>
<polygon fill="midnightblue" stroke="midnightblue" points="126.424,-491.748 117.072,-496.728 127.488,-498.667 126.424,-491.748"/>
</g>
<!-- Node21 -->
<g id="node21" class="node"><title>Node21</title>
<g id="a_node21"><a xlink:href="../../dc/df5/classmodel_1_1_parser.html" target="_top" xlink:title="model.Parser">
<polygon fill="white" stroke="black" points="685,-581.701 685,-600.701 765,-600.701 765,-581.701 685,-581.701"/>
<text text-anchor="middle" x="725" y="-588.701" font-family="Helvetica,sans-Serif" font-size="10.00">model.Parser</text>
</a>
</g>
</g>
<!-- Node3&#45;&gt;Node21 -->
<g id="edge25" class="edge"><title>Node3&#45;&gt;Node21</title>
<path fill="none" stroke="midnightblue" d="M127.209,-499.452C234.48,-495.196 530.729,-487.132 620,-523.201 629.924,-527.211 629.384,-532.85 638,-539.201 660.33,-555.662 688.097,-571.735 705.934,-581.552"/>
<polygon fill="midnightblue" stroke="midnightblue" points="126.985,-495.958 117.136,-499.863 127.271,-502.952 126.985,-495.958"/>
</g>
<!-- Node4 -->
<g id="node4" class="node"><title>Node4</title>
<g id="a_node4"><a xlink:href="../../d1/dca/classmodel_1_1_execution_environment.html" target="_top" xlink:title="model.ExecutionEnvironment">
<polygon fill="white" stroke="black" points="322.5,-725.701 322.5,-744.701 479.5,-744.701 479.5,-725.701 322.5,-725.701"/>
<text text-anchor="middle" x="401" y="-732.701" font-family="Helvetica,sans-Serif" font-size="10.00">model.ExecutionEnvironment</text>
</a>
</g>
</g>
<!-- Node4&#45;&gt;Node2 -->
<g id="edge3" class="edge"><title>Node4&#45;&gt;Node2</title>
<path fill="none" stroke="#9a32cd" stroke-dasharray="5,2" d="M489.755,-731.931C538.493,-730.114 598.611,-727.874 645.74,-726.118"/>
<polygon fill="#9a32cd" stroke="#9a32cd" points="489.399,-728.441 479.537,-732.311 489.66,-735.437 489.399,-728.441"/>
<text text-anchor="middle" x="559" y="-735.201" font-family="Helvetica,sans-Serif" font-size="10.00"> myEnvironment</text>
</g>
<!-- Node17 -->
<g id="node17" class="node"><title>Node17</title>
<g id="a_node17"><a xlink:href="../../d1/dc7/classview_1_1_side_bar.html" target="_top" xlink:title="view.SideBar">
<polygon fill="white" stroke="black" points="1001.5,-432.701 1001.5,-451.701 1078.5,-451.701 1078.5,-432.701 1001.5,-432.701"/>
<text text-anchor="middle" x="1040" y="-439.701" font-family="Helvetica,sans-Serif" font-size="10.00">view.SideBar</text>
</a>
</g>
</g>
<!-- Node4&#45;&gt;Node17 -->
<g id="edge22" class="edge"><title>Node4&#45;&gt;Node17</title>
<path fill="none" stroke="#9a32cd" stroke-dasharray="5,2" d="M455.931,-723.425C587.078,-694.315 914.426,-618.621 948,-581.201 980.205,-545.307 936.351,-512.233 966,-474.201 974.763,-462.96 988.292,-455.585 1001.33,-450.784"/>
<polygon fill="#9a32cd" stroke="#9a32cd" points="455.096,-720.025 446.089,-725.604 456.609,-726.86 455.096,-720.025"/>
<text text-anchor="middle" x="725" y="-683.201" font-family="Helvetica,sans-Serif" font-size="10.00"> myEnvironment</text>
</g>
<!-- Node4&#45;&gt;Node21 -->
<g id="edge27" class="edge"><title>Node4&#45;&gt;Node21</title>
<path fill="none" stroke="#9a32cd" stroke-dasharray="5,2" d="M414.231,-717.16C430.546,-694.617 461.634,-656.646 498,-637.201 546.658,-611.183 565.944,-625.271 620,-614.201 641.377,-609.823 665.143,-604.595 684.554,-600.23"/>
<polygon fill="#9a32cd" stroke="#9a32cd" points="411.247,-715.318 408.354,-725.51 416.972,-719.347 411.247,-715.318"/>
<text text-anchor="middle" x="559" y="-640.201" font-family="Helvetica,sans-Serif" font-size="10.00"> myExecutionParameters</text>
</g>
<!-- Node24 -->
<g id="node24" class="node"><title>Node24</title>
<g id="a_node24"><a xlink:href="../../d6/de7/classview_1_1_s_logo_view.html" target="_top" xlink:title="view.SLogoView">
<polygon fill="white" stroke="black" points="1658.5,-257.701 1658.5,-276.701 1749.5,-276.701 1749.5,-257.701 1658.5,-257.701"/>
<text text-anchor="middle" x="1704" y="-264.701" font-family="Helvetica,sans-Serif" font-size="10.00">view.SLogoView</text>
</a>
</g>
</g>
<!-- Node4&#45;&gt;Node24 -->
<g id="edge41" class="edge"><title>Node4&#45;&gt;Node24</title>
<path fill="none" stroke="#9a32cd" stroke-dasharray="5,2" d="M471.904,-746.178C536.995,-755.44 636.813,-767.201 724,-767.201 724,-767.201 724,-767.201 1487,-767.201 1565.67,-767.201 1595.71,-743.216 1640,-678.201 1686.74,-609.593 1700.35,-332.51 1702.63,-276.935"/>
<polygon fill="#9a32cd" stroke="#9a32cd" points="472.16,-742.679 461.763,-744.715 471.161,-749.607 472.16,-742.679"/>
<text text-anchor="middle" x="1172" y="-770.201" font-family="Helvetica,sans-Serif" font-size="10.00"> myEnvironment</text>
</g>
<!-- Node5 -->
<g id="node5" class="node"><title>Node5</title>
<polygon fill="white" stroke="#bfbfbf" points="51.5,-697.701 51.5,-716.701 122.5,-716.701 122.5,-697.701 51.5,-697.701"/>
<text text-anchor="middle" x="87" y="-704.701" font-family="Helvetica,sans-Serif" font-size="10.00">Observable</text>
</g>
<!-- Node5&#45;&gt;Node4 -->
<g id="edge4" class="edge"><title>Node5&#45;&gt;Node4</title>
<path fill="none" stroke="midnightblue" d="M132.637,-711.207C182.066,-715.643 262.658,-722.875 322.457,-728.242"/>
<polygon fill="midnightblue" stroke="midnightblue" points="132.854,-707.712 122.582,-710.304 132.229,-714.684 132.854,-707.712"/>
</g>
<!-- Node6 -->
<g id="node6" class="node"><title>Node6</title>
<polygon fill="white" stroke="#bfbfbf" points="42.5,-823.701 42.5,-842.701 131.5,-842.701 131.5,-823.701 42.5,-823.701"/>
<text text-anchor="middle" x="87" y="-830.701" font-family="Helvetica,sans-Serif" font-size="10.00">Set&lt; Integer &gt;</text>
</g>
<!-- Node6&#45;&gt;Node4 -->
<g id="edge5" class="edge"><title>Node6&#45;&gt;Node4</title>
<path fill="none" stroke="#9a32cd" stroke-dasharray="5,2" d="M141.747,-830.652C187.052,-826.699 252.536,-816.657 304,-791.201 313.594,-786.455 313.167,-781.247 322,-775.201 339.707,-763.081 361.571,-752.177 377.641,-744.827"/>
<polygon fill="#9a32cd" stroke="#9a32cd" points="141.232,-827.182 131.543,-831.47 141.791,-834.16 141.232,-827.182"/>
<text text-anchor="middle" x="248" y="-837.201" font-family="Helvetica,sans-Serif" font-size="10.00"> myTurtleList</text>
<text text-anchor="middle" x="248" y="-826.201" font-family="Helvetica,sans-Serif" font-size="10.00">activeTurtleList</text>
</g>
<!-- Node7 -->
<g id="node7" class="node"><title>Node7</title>
<polygon fill="white" stroke="#bfbfbf" points="0,-774.201 0,-804.201 174,-804.201 174,-774.201 0,-774.201"/>
<text text-anchor="start" x="8" y="-792.201" font-family="Helvetica,sans-Serif" font-size="10.00">Map&lt; String, model.instructions.</text>
<text text-anchor="middle" x="87" y="-781.201" font-family="Helvetica,sans-Serif" font-size="10.00">Instruction &gt;</text>
</g>
<!-- Node7&#45;&gt;Node4 -->
<g id="edge6" class="edge"><title>Node7&#45;&gt;Node4</title>
<path fill="none" stroke="#9a32cd" stroke-dasharray="5,2" d="M184.099,-776.607C221.618,-771.261 264.929,-764.56 304,-757.201 322.988,-753.625 343.917,-748.919 361.375,-744.778"/>
<polygon fill="#9a32cd" stroke="#9a32cd" points="183.599,-773.142 174.187,-778.007 184.578,-780.074 183.599,-773.142"/>
<text text-anchor="middle" x="248" y="-779.201" font-family="Helvetica,sans-Serif" font-size="10.00"> myUserInstructionMap</text>
</g>
<!-- Node8 -->
<g id="node8" class="node"><title>Node8</title>
<polygon fill="white" stroke="#bfbfbf" points="23,-735.701 23,-754.701 151,-754.701 151,-735.701 23,-735.701"/>
<text text-anchor="middle" x="87" y="-742.701" font-family="Helvetica,sans-Serif" font-size="10.00">Map&lt; String, Double &gt;</text>
</g>
<!-- Node8&#45;&gt;Node4 -->
<g id="edge7" class="edge"><title>Node8&#45;&gt;Node4</title>
<path fill="none" stroke="#9a32cd" stroke-dasharray="5,2" d="M161.23,-742.854C209.637,-741.302 273.011,-739.271 322.303,-737.691"/>
<polygon fill="#9a32cd" stroke="#9a32cd" points="161.021,-739.359 151.138,-743.177 161.245,-746.355 161.021,-739.359"/>
<text text-anchor="middle" x="248" y="-745.201" font-family="Helvetica,sans-Serif" font-size="10.00"> myVariableMap</text>
</g>
<!-- Node9&#45;&gt;Node2 -->
<g id="edge8" class="edge"><title>Node9&#45;&gt;Node2</title>
<path fill="none" stroke="#9a32cd" stroke-dasharray="5,2" d="M423.006,-468.833C439.491,-481.646 462.499,-500.775 480,-520.201 489.407,-530.643 486.549,-538.052 498,-546.201 543.86,-578.839 581.424,-539.21 620,-580.201 646.166,-608.006 616.748,-632.481 638,-664.201 653.52,-687.366 681.489,-704.012 701.313,-713.598"/>
<polygon fill="#9a32cd" stroke="#9a32cd" points="425.113,-466.037 415.044,-462.74 420.859,-471.596 425.113,-466.037"/>
<text text-anchor="middle" x="559" y="-583.201" font-family="Helvetica,sans-Serif" font-size="10.00"> myViewUpdater</text>
</g>
<!-- Node9&#45;&gt;Node21 -->
<g id="edge28" class="edge"><title>Node9&#45;&gt;Node21</title>
<path fill="none" stroke="#9a32cd" stroke-dasharray="5,2" d="M461.326,-456.073C521.686,-459.527 608.036,-466.148 620,-476.201 642.295,-494.934 620.316,-516.065 638,-539.201 653.364,-559.301 678.913,-573.314 698.181,-581.687"/>
<polygon fill="#9a32cd" stroke="#9a32cd" points="461.31,-452.566 451.131,-455.505 460.92,-459.555 461.31,-452.566"/>
<text text-anchor="middle" x="559" y="-479.201" font-family="Helvetica,sans-Serif" font-size="10.00"> myViewUpdater</text>
</g>
<!-- Node10 -->
<g id="node10" class="node"><title>Node10</title>
<g id="a_node10"><a xlink:href="../../da/d64/classview_1_1_workspace.html" target="_top" xlink:title="view.Workspace">
<polygon fill="white" stroke="black" points="1230,-246.701 1230,-265.701 1320,-265.701 1320,-246.701 1230,-246.701"/>
<text text-anchor="middle" x="1275" y="-253.701" font-family="Helvetica,sans-Serif" font-size="10.00">view.Workspace</text>
</a>
</g>
</g>
<!-- Node10&#45;&gt;Node9 -->
<g id="edge10" class="edge"><title>Node10&#45;&gt;Node9</title>
<path fill="none" stroke="#9a32cd" stroke-dasharray="5,2" d="M1219.79,-260.827C1217.16,-260.972 1214.55,-261.098 1212,-261.201 1176.47,-262.631 1167.55,-261.736 1132,-261.201 1058.2,-260.09 1033.76,-285.471 966,-256.201 955.614,-251.715 958.453,-242.531 948,-238.201 820.297,-185.305 765.116,-208.908 638,-263.201 533.998,-307.621 438.227,-411.444 410.218,-443.56"/>
<polygon fill="#9a32cd" stroke="#9a32cd" points="1220.23,-264.307 1230,-260.189 1219.8,-257.32 1220.23,-264.307"/>
<text text-anchor="middle" x="889" y="-241.201" font-family="Helvetica,sans-Serif" font-size="10.00"> myWorkspace</text>
</g>
<!-- Node10&#45;&gt;Node24 -->
<g id="edge31" class="edge"><title>Node10&#45;&gt;Node24</title>
<path fill="none" stroke="#9a32cd" stroke-dasharray="5,2" d="M1330.34,-257.601C1415.6,-259.797 1579.23,-264.012 1658.19,-266.047"/>
<polygon fill="#9a32cd" stroke="#9a32cd" points="1330.18,-254.096 1320.09,-257.337 1329.99,-261.093 1330.18,-254.096"/>
<text text-anchor="middle" x="1486" y="-266.201" font-family="Helvetica,sans-Serif" font-size="10.00"> myWorkspace</text>
</g>
<!-- Node32 -->
<g id="node32" class="node"><title>Node32</title>
<g id="a_node32"><a xlink:href="../../de/d0a/classview_1_1_drawer.html" target="_top" xlink:title="view.Drawer">
<polygon fill="white" stroke="black" points="1449.5,-204.701 1449.5,-223.701 1522.5,-223.701 1522.5,-204.701 1449.5,-204.701"/>
<text text-anchor="middle" x="1486" y="-211.701" font-family="Helvetica,sans-Serif" font-size="10.00">view.Drawer</text>
</a>
</g>
</g>
<!-- Node10&#45;&gt;Node32 -->
<g id="edge45" class="edge"><title>Node10&#45;&gt;Node32</title>
<path fill="none" stroke="#9a32cd" stroke-dasharray="5,2" d="M1327.08,-244.523C1330.77,-243.723 1334.44,-242.941 1338,-242.201 1375.9,-234.315 1419.48,-226.124 1449.29,-220.654"/>
<polygon fill="#9a32cd" stroke="#9a32cd" points="1326.33,-241.105 1317.31,-246.668 1327.83,-247.942 1326.33,-241.105"/>
<text text-anchor="middle" x="1373" y="-245.201" font-family="Helvetica,sans-Serif" font-size="10.00"> myWorkspace</text>
</g>
<!-- Node11 -->
<g id="node11" class="node"><title>Node11</title>
<polygon fill="white" stroke="#bfbfbf" points="1006.5,-139.701 1006.5,-158.701 1073.5,-158.701 1073.5,-139.701 1006.5,-139.701"/>
<text text-anchor="middle" x="1040" y="-146.701" font-family="Helvetica,sans-Serif" font-size="10.00">StackPane</text>
</g>
<!-- Node11&#45;&gt;Node10 -->
<g id="edge11" class="edge"><title>Node11&#45;&gt;Node10</title>
<path fill="none" stroke="midnightblue" d="M1083.68,-155.959C1120.31,-163.359 1173.19,-177.985 1212,-205.201 1222.06,-212.259 1220.84,-218.001 1230,-226.201 1238.54,-233.849 1249.13,-241.126 1257.78,-246.598"/>
<polygon fill="midnightblue" stroke="midnightblue" points="1084.28,-152.511 1073.8,-154.059 1082.96,-159.385 1084.28,-152.511"/>
</g>
<!-- Node12 -->
<g id="node12" class="node"><title>Node12</title>
<polygon fill="white" stroke="#bfbfbf" points="678.5,-100.701 678.5,-119.701 771.5,-119.701 771.5,-100.701 678.5,-100.701"/>
<text text-anchor="middle" x="725" y="-107.701" font-family="Helvetica,sans-Serif" font-size="10.00">ResourceBundle</text>
</g>
<!-- Node12&#45;&gt;Node10 -->
<g id="edge12" class="edge"><title>Node12&#45;&gt;Node10</title>
<path fill="none" stroke="#9a32cd" stroke-dasharray="5,2" d="M781.896,-104.356C858.124,-97.9904 998.424,-92.0147 1114,-119.201 1160.84,-130.218 1180.66,-128.695 1212,-165.201 1230.41,-186.648 1213.35,-203.355 1230,-226.201 1236.21,-234.72 1245.61,-241.6 1254.13,-246.613"/>
<polygon fill="#9a32cd" stroke="#9a32cd" points="781.233,-100.901 771.574,-105.254 781.839,-107.874 781.233,-100.901"/>
<text text-anchor="middle" x="1040" y="-122.201" font-family="Helvetica,sans-Serif" font-size="10.00"> myResources</text>
</g>
<!-- Node12&#45;&gt;Node17 -->
<g id="edge21" class="edge"><title>Node12&#45;&gt;Node17</title>
<path fill="none" stroke="#9a32cd" stroke-dasharray="5,2" d="M735.555,-129.028C751.456,-158.687 785.997,-216.48 830,-251.201 874.714,-286.484 911.051,-257.853 948,-301.201 969.677,-326.632 949.07,-345.391 966,-374.201 980.743,-399.288 1007.57,-420.733 1024.28,-432.513"/>
<polygon fill="#9a32cd" stroke="#9a32cd" points="738.46,-127.031 730.723,-119.794 732.258,-130.277 738.46,-127.031"/>
<text text-anchor="middle" x="889" y="-304.201" font-family="Helvetica,sans-Serif" font-size="10.00"> myResources</text>
</g>
<!-- Node12&#45;&gt;Node24 -->
<g id="edge33" class="edge"><title>Node12&#45;&gt;Node24</title>
<path fill="none" stroke="#9a32cd" stroke-dasharray="5,2" d="M781.68,-100.67C797.267,-98.4109 814.253,-96.3308 830,-95.201 882.31,-91.4481 895.557,-94.8851 948,-95.201 1021.78,-95.6455 1040.73,-88.5469 1114,-97.201 1309.52,-120.293 1355.31,-146.227 1546,-195.201 1588.1,-206.013 1600.86,-203.295 1640,-222.201 1659.85,-231.789 1680.12,-247.56 1692.13,-257.658"/>
<polygon fill="#9a32cd" stroke="#9a32cd" points="781.036,-97.2271 771.666,-102.172 782.075,-104.15 781.036,-97.2271"/>
<text text-anchor="middle" x="1275" y="-137.201" font-family="Helvetica,sans-Serif" font-size="10.00"> myResources</text>
</g>
<!-- Node13 -->
<g id="node13" class="node"><title>Node13</title>
<g id="a_node13"><a xlink:href="../../d8/df7/classview_1_1_turtle_view.html" target="_top" xlink:title="view.TurtleView">
<polygon fill="white" stroke="black" points="997,-303.701 997,-322.701 1083,-322.701 1083,-303.701 997,-303.701"/>
<text text-anchor="middle" x="1040" y="-310.701" font-family="Helvetica,sans-Serif" font-size="10.00">view.TurtleView</text>
</a>
</g>
</g>
<!-- Node13&#45;&gt;Node10 -->
<g id="edge13" class="edge"><title>Node13&#45;&gt;Node10</title>
<path fill="none" stroke="#9a32cd" stroke-dasharray="5,2" d="M1093.33,-310.6C1127.74,-307.745 1173.37,-301.757 1212,-289.201 1229.16,-283.622 1247.2,-273.464 1259.37,-265.887"/>
<polygon fill="#9a32cd" stroke="#9a32cd" points="1092.73,-307.135 1083.03,-311.389 1093.27,-314.115 1092.73,-307.135"/>
<text text-anchor="middle" x="1172" y="-309.201" font-family="Helvetica,sans-Serif" font-size="10.00"> myActiveTurtle</text>
</g>
<!-- Node14 -->
<g id="node14" class="node"><title>Node14</title>
<polygon fill="white" stroke="#bfbfbf" points="691,-272.701 691,-291.701 759,-291.701 759,-272.701 691,-272.701"/>
<text text-anchor="middle" x="725" y="-279.701" font-family="Helvetica,sans-Serif" font-size="10.00">ImageView</text>
</g>
<!-- Node14&#45;&gt;Node13 -->
<g id="edge14" class="edge"><title>Node14&#45;&gt;Node13</title>
<path fill="none" stroke="midnightblue" d="M769.503,-286.51C829.684,-292.47 937.616,-303.16 996.993,-309.041"/>
<polygon fill="midnightblue" stroke="midnightblue" points="769.496,-282.992 759.2,-285.489 768.806,-289.958 769.496,-282.992"/>
</g>
<!-- Node15 -->
<g id="node15" class="node"><title>Node15</title>
<polygon fill="white" stroke="#bfbfbf" points="702,-310.701 702,-329.701 748,-329.701 748,-310.701 702,-310.701"/>
<text text-anchor="middle" x="725" y="-317.701" font-family="Helvetica,sans-Serif" font-size="10.00">Group</text>
</g>
<!-- Node15&#45;&gt;Node10 -->
<g id="edge17" class="edge"><title>Node15&#45;&gt;Node10</title>
<path fill="none" stroke="#9a32cd" stroke-dasharray="5,2" d="M758.299,-325.289C778.782,-328.255 805.874,-331.699 830,-333.201 999.533,-343.756 1059.83,-396.671 1212,-321.201 1237.71,-308.452 1258.49,-280.45 1268.15,-265.708"/>
<polygon fill="#9a32cd" stroke="#9a32cd" points="758.647,-321.803 748.241,-323.795 757.618,-328.727 758.647,-321.803"/>
<text text-anchor="middle" x="1040" y="-364.201" font-family="Helvetica,sans-Serif" font-size="10.00"> myLines</text>
</g>
<!-- Node15&#45;&gt;Node13 -->
<g id="edge15" class="edge"><title>Node15&#45;&gt;Node13</title>
<path fill="none" stroke="#9a32cd" stroke-dasharray="5,2" d="M758.228,-319.48C815.202,-318.206 933.66,-315.557 996.967,-314.141"/>
<polygon fill="#9a32cd" stroke="#9a32cd" points="757.929,-315.986 748.01,-319.709 758.085,-322.984 757.929,-315.986"/>
<text text-anchor="middle" x="889" y="-321.201" font-family="Helvetica,sans-Serif" font-size="10.00"> myStamps</text>
</g>
<!-- Node16 -->
<g id="node16" class="node"><title>Node16</title>
<polygon fill="white" stroke="#bfbfbf" points="972,-178.201 972,-208.201 1108,-208.201 1108,-178.201 972,-178.201"/>
<text text-anchor="start" x="980" y="-196.201" font-family="Helvetica,sans-Serif" font-size="10.00">Map&lt; Integer, view.Turtle</text>
<text text-anchor="middle" x="1040" y="-185.201" font-family="Helvetica,sans-Serif" font-size="10.00">View &gt;</text>
</g>
<!-- Node16&#45;&gt;Node10 -->
<g id="edge16" class="edge"><title>Node16&#45;&gt;Node10</title>
<path fill="none" stroke="#9a32cd" stroke-dasharray="5,2" d="M1118.29,-206.016C1147.94,-211.829 1181.88,-219.583 1212,-229.201 1226.76,-233.915 1242.79,-240.947 1254.84,-246.652"/>
<polygon fill="#9a32cd" stroke="#9a32cd" points="1118.89,-202.568 1108.41,-204.119 1117.57,-209.442 1118.89,-202.568"/>
<text text-anchor="middle" x="1172" y="-232.201" font-family="Helvetica,sans-Serif" font-size="10.00"> myTurtles</text>
</g>
<!-- Node17&#45;&gt;Node9 -->
<g id="edge51" class="edge"><title>Node17&#45;&gt;Node9</title>
<path fill="none" stroke="#9a32cd" stroke-dasharray="5,2" d="M990.988,-443.03C873.093,-445.066 570.307,-450.295 451.19,-452.352"/>
<polygon fill="#9a32cd" stroke="#9a32cd" points="991.21,-446.527 1001.15,-442.855 991.089,-439.528 991.21,-446.527"/>
<text text-anchor="middle" x="725" y="-452.201" font-family="Helvetica,sans-Serif" font-size="10.00"> mySidebar</text>
</g>
<!-- Node17&#45;&gt;Node10 -->
<g id="edge18" class="edge"><title>Node17&#45;&gt;Node10</title>
<path fill="none" stroke="#9a32cd" stroke-dasharray="5,2" d="M1071.02,-428.407C1088.66,-420.453 1111.45,-410.43 1132,-402.201 1167.11,-388.14 1183.46,-398.014 1212,-373.201 1246.87,-342.885 1265.2,-288.048 1271.47,-265.884"/>
<polygon fill="#9a32cd" stroke="#9a32cd" points="1069.46,-425.271 1061.8,-432.589 1072.35,-431.646 1069.46,-425.271"/>
<text text-anchor="middle" x="1172" y="-405.201" font-family="Helvetica,sans-Serif" font-size="10.00"> mySidebar</text>
</g>
<!-- Node17&#45;&gt;Node24 -->
<g id="edge47" class="edge"><title>Node17&#45;&gt;Node24</title>
<path fill="none" stroke="#9a32cd" stroke-dasharray="5,2" d="M1088.87,-435.667C1123.33,-430.58 1170.8,-422.782 1212,-413.201 1391.09,-371.551 1601.16,-301.948 1675.36,-276.708"/>
<polygon fill="#9a32cd" stroke="#9a32cd" points="1088.01,-432.256 1078.62,-437.158 1089.02,-439.183 1088.01,-432.256"/>
<text text-anchor="middle" x="1373" y="-383.201" font-family="Helvetica,sans-Serif" font-size="10.00"> mySidebar</text>
</g>
<!-- Node26 -->
<g id="node26" class="node"><title>Node26</title>
<g id="a_node26"><a xlink:href="../../da/dc8/classview_1_1_editor.html" target="_top" xlink:title="view.Editor">
<polygon fill="white" stroke="black" points="1241.5,-504.701 1241.5,-523.701 1308.5,-523.701 1308.5,-504.701 1241.5,-504.701"/>
<text text-anchor="middle" x="1275" y="-511.701" font-family="Helvetica,sans-Serif" font-size="10.00">view.Editor</text>
</a>
</g>
</g>
<!-- Node17&#45;&gt;Node26 -->
<g id="edge39" class="edge"><title>Node17&#45;&gt;Node26</title>
<path fill="none" stroke="#9a32cd" stroke-dasharray="5,2" d="M1088.64,-441.008C1124.01,-441.768 1172.72,-446.35 1212,-463.201 1234.03,-472.653 1254.45,-492.426 1265.47,-504.384"/>
<polygon fill="#9a32cd" stroke="#9a32cd" points="1088.62,-437.508 1078.58,-440.887 1088.54,-444.507 1088.62,-437.508"/>
<text text-anchor="middle" x="1172" y="-466.201" font-family="Helvetica,sans-Serif" font-size="10.00"> mySidebar</text>
</g>
<!-- Node18 -->
<g id="node18" class="node"><title>Node18</title>
<polygon fill="white" stroke="#bfbfbf" points="704.5,-386.701 704.5,-405.701 745.5,-405.701 745.5,-386.701 704.5,-386.701"/>
<text text-anchor="middle" x="725" y="-393.701" font-family="Helvetica,sans-Serif" font-size="10.00">VBox</text>
</g>
<!-- Node18&#45;&gt;Node17 -->
<g id="edge19" class="edge"><title>Node18&#45;&gt;Node17</title>
<path fill="none" stroke="midnightblue" d="M755.774,-400.577C813.074,-408.998 938.569,-427.441 1001.48,-436.687"/>
<polygon fill="midnightblue" stroke="midnightblue" points="755.982,-397.07 745.58,-399.079 754.964,-403.995 755.982,-397.07"/>
</g>
<!-- Node19 -->
<g id="node19" class="node"><title>Node19</title>
<polygon fill="white" stroke="#bfbfbf" points="638.5,-348.701 638.5,-367.701 811.5,-367.701 811.5,-348.701 638.5,-348.701"/>
<text text-anchor="middle" x="725" y="-355.701" font-family="Helvetica,sans-Serif" font-size="10.00">ObservableList&lt; view.Property &gt;</text>
</g>
<!-- Node19&#45;&gt;Node17 -->
<g id="edge20" class="edge"><title>Node19&#45;&gt;Node17</title>
<path fill="none" stroke="#9a32cd" stroke-dasharray="5,2" d="M819.352,-369.251C859.555,-375.48 906.713,-384.779 948,-398.201 975.369,-407.099 1005.02,-422.654 1022.79,-432.685"/>
<polygon fill="#9a32cd" stroke="#9a32cd" points="819.699,-365.764 809.289,-367.733 818.655,-372.686 819.699,-365.764"/>
<text text-anchor="middle" x="889" y="-401.201" font-family="Helvetica,sans-Serif" font-size="10.00"> myVariablesList</text>
</g>
<!-- Node20 -->
<g id="node20" class="node"><title>Node20</title>
<polygon fill="white" stroke="#bfbfbf" points="651,-510.701 651,-529.701 799,-529.701 799,-510.701 651,-510.701"/>
<text text-anchor="middle" x="725" y="-517.701" font-family="Helvetica,sans-Serif" font-size="10.00">TableView&lt; view.Property &gt;</text>
</g>
<!-- Node20&#45;&gt;Node17 -->
<g id="edge23" class="edge"><title>Node20&#45;&gt;Node17</title>
<path fill="none" stroke="#9a32cd" stroke-dasharray="5,2" d="M809.156,-517.779C862.246,-514.858 925.231,-508.413 948,-494.201 960.55,-486.367 954.3,-475.255 966,-466.201 976.235,-458.282 989.194,-452.918 1001.34,-449.31"/>
<polygon fill="#9a32cd" stroke="#9a32cd" points="808.834,-514.291 799.028,-518.302 809.195,-521.282 808.834,-514.291"/>
<text text-anchor="middle" x="889" y="-531.201" font-family="Helvetica,sans-Serif" font-size="10.00"> myTurtlePropertiesTable</text>
<text text-anchor="middle" x="889" y="-520.201" font-family="Helvetica,sans-Serif" font-size="10.00">myVariablesTable</text>
</g>
<!-- Node21&#45;&gt;Node17 -->
<g id="edge24" class="edge"><title>Node21&#45;&gt;Node17</title>
<path fill="none" stroke="#9a32cd" stroke-dasharray="5,2" d="M773.976,-579.208C791.56,-574.934 811.646,-570.194 830,-566.201 882.21,-554.843 909.523,-580.275 948,-543.201 973.308,-518.816 942.266,-492.121 966,-466.201 975.1,-456.263 988.382,-450.431 1001.13,-447.012"/>
<polygon fill="#9a32cd" stroke="#9a32cd" points="772.826,-575.886 763.944,-581.661 774.489,-582.686 772.826,-575.886"/>
<text text-anchor="middle" x="889" y="-569.201" font-family="Helvetica,sans-Serif" font-size="10.00"> myParser</text>
</g>
<!-- Node21&#45;&gt;Node24 -->
<g id="edge42" class="edge"><title>Node21&#45;&gt;Node24</title>
<path fill="none" stroke="#9a32cd" stroke-dasharray="5,2" d="M775.3,-599.876C792.567,-602.75 812.111,-605.82 830,-608.201 890.233,-616.217 905.316,-619.086 966,-622.201 1226.52,-635.575 1302.17,-624.929 1546,-532.201 1591.03,-515.074 1610.09,-515.973 1640,-478.201 1691.03,-413.763 1700.78,-308.734 1702.6,-276.745"/>
<polygon fill="#9a32cd" stroke="#9a32cd" points="775.868,-596.422 765.426,-598.212 774.706,-603.325 775.868,-596.422"/>
<text text-anchor="middle" x="1275" y="-625.201" font-family="Helvetica,sans-Serif" font-size="10.00"> myParser</text>
</g>
<!-- Node21&#45;&gt;Node26 -->
<g id="edge37" class="edge"><title>Node21&#45;&gt;Node26</title>
<path fill="none" stroke="#9a32cd" stroke-dasharray="5,2" d="M771.723,-602.806C821.193,-612.407 899.484,-618.585 948,-577.201 975.727,-553.55 937.542,-519.968 966,-497.201 1017.36,-456.11 1048.31,-493.721 1114,-497.201 1158.21,-499.543 1209.01,-505.502 1241.29,-509.701"/>
<polygon fill="#9a32cd" stroke="#9a32cd" points="772.429,-599.378 761.928,-600.787 771.016,-606.234 772.429,-599.378"/>
<text text-anchor="middle" x="1040" y="-500.201" font-family="Helvetica,sans-Serif" font-size="10.00"> myParser</text>
</g>
<!-- Node22 -->
<g id="node22" class="node"><title>Node22</title>
<polygon fill="white" stroke="#bfbfbf" points="345,-530.201 345,-560.201 457,-560.201 457,-530.201 345,-530.201"/>
<text text-anchor="start" x="353" y="-548.201" font-family="Helvetica,sans-Serif" font-size="10.00">List&lt; Entry&lt; String,</text>
<text text-anchor="middle" x="401" y="-537.201" font-family="Helvetica,sans-Serif" font-size="10.00"> Pattern &gt; &gt;</text>
</g>
<!-- Node22&#45;&gt;Node21 -->
<g id="edge26" class="edge"><title>Node22&#45;&gt;Node21</title>
<path fill="none" stroke="#9a32cd" stroke-dasharray="5,2" d="M467.05,-532.48C510.912,-526.259 569.728,-522.527 620,-535.201 655.593,-544.175 692.258,-567.978 711.094,-581.485"/>
<polygon fill="#9a32cd" stroke="#9a32cd" points="466.455,-529.03 457.083,-533.973 467.491,-535.953 466.455,-529.03"/>
<text text-anchor="middle" x="559" y="-538.201" font-family="Helvetica,sans-Serif" font-size="10.00"> myPatterns</text>
</g>
<!-- Node23 -->
<g id="node23" class="node"><title>Node23</title>
<polygon fill="white" stroke="#bfbfbf" points="340,-592.701 340,-611.701 462,-611.701 462,-592.701 340,-592.701"/>
<text text-anchor="middle" x="401" y="-599.701" font-family="Helvetica,sans-Serif" font-size="10.00">Map&lt; String, String &gt;</text>
</g>
<!-- Node23&#45;&gt;Node21 -->
<g id="edge29" class="edge"><title>Node23&#45;&gt;Node21</title>
<path fill="none" stroke="#9a32cd" stroke-dasharray="5,2" d="M472.39,-599.796C537.597,-597.569 632.209,-594.337 684.877,-592.538"/>
<polygon fill="#9a32cd" stroke="#9a32cd" points="472.063,-596.305 462.188,-600.145 472.302,-603.301 472.063,-596.305"/>
<text text-anchor="middle" x="559" y="-602.201" font-family="Helvetica,sans-Serif" font-size="10.00"> myCommandMap</text>
</g>
<!-- Node24&#45;&gt;Node21 -->
<g id="edge30" class="edge"><title>Node24&#45;&gt;Node21</title>
<path fill="none" stroke="#9a32cd" stroke-dasharray="5,2" d="M1702.55,-286.876C1700.52,-357.057 1690.03,-593.725 1640,-646.201 1592,-696.549 1556.56,-679.201 1487,-679.201 1039,-679.201 1039,-679.201 1039,-679.201 945.501,-679.201 911.103,-701.725 830,-655.201 818.434,-648.567 822.357,-639.599 812,-631.201 795.245,-617.615 773.118,-607.459 755.504,-600.781"/>
<polygon fill="#9a32cd" stroke="#9a32cd" points="1706.05,-286.851 1702.81,-276.763 1699.05,-286.668 1706.05,-286.851"/>
<text text-anchor="middle" x="1275" y="-682.201" font-family="Helvetica,sans-Serif" font-size="10.00"> mySLogoView</text>
</g>
<!-- Node25 -->
<g id="node25" class="node"><title>Node25</title>
<polygon fill="white" stroke="#bfbfbf" points="1463.5,-76.701 1463.5,-95.701 1508.5,-95.701 1508.5,-76.701 1463.5,-76.701"/>
<text text-anchor="middle" x="1486" y="-83.701" font-family="Helvetica,sans-Serif" font-size="10.00">Stage</text>
</g>
<!-- Node25&#45;&gt;Node24 -->
<g id="edge32" class="edge"><title>Node25&#45;&gt;Node24</title>
<path fill="none" stroke="#9a32cd" stroke-dasharray="5,2" d="M1518.71,-79.7813C1552.31,-74.8833 1605.2,-72.8347 1640,-99.201 1692.64,-139.082 1701.3,-228.123 1702.72,-257.553"/>
<polygon fill="#9a32cd" stroke="#9a32cd" points="1517.84,-76.3774 1508.53,-81.4392 1518.97,-83.2864 1517.84,-76.3774"/>
<text text-anchor="middle" x="1602" y="-102.201" font-family="Helvetica,sans-Serif" font-size="10.00"> myStage</text>
</g>
<!-- Node26&#45;&gt;Node24 -->
<g id="edge34" class="edge"><title>Node26&#45;&gt;Node24</title>
<path fill="none" stroke="#9a32cd" stroke-dasharray="5,2" d="M1319.11,-518.167C1393.73,-522.58 1547.81,-520.548 1640,-441.201 1691.62,-396.77 1700.95,-306.6 1702.63,-276.917"/>
<polygon fill="#9a32cd" stroke="#9a32cd" points="1318.9,-514.645 1308.69,-517.477 1318.44,-521.63 1318.9,-514.645"/>
<text text-anchor="middle" x="1486" y="-520.201" font-family="Helvetica,sans-Serif" font-size="10.00"> myEditor</text>
</g>
<!-- Node27 -->
<g id="node27" class="node"><title>Node27</title>
<polygon fill="white" stroke="#bfbfbf" points="1019,-593.701 1019,-612.701 1061,-612.701 1061,-593.701 1019,-593.701"/>
<text text-anchor="middle" x="1040" y="-600.701" font-family="Helvetica,sans-Serif" font-size="10.00">HBox</text>
</g>
<!-- Node27&#45;&gt;Node26 -->
<g id="edge35" class="edge"><title>Node27&#45;&gt;Node26</title>
<path fill="none" stroke="midnightblue" d="M1071.23,-601.954C1106.65,-599.445 1166.3,-591.896 1212,-569.201 1234.42,-558.065 1255.01,-536.658 1265.89,-524.087"/>
<polygon fill="midnightblue" stroke="midnightblue" points="1070.82,-598.472 1061.05,-602.582 1071.25,-605.459 1070.82,-598.472"/>
</g>
<!-- Node28 -->
<g id="node28" class="node"><title>Node28</title>
<polygon fill="white" stroke="#bfbfbf" points="1015.5,-555.701 1015.5,-574.701 1064.5,-574.701 1064.5,-555.701 1015.5,-555.701"/>
<text text-anchor="middle" x="1040" y="-562.701" font-family="Helvetica,sans-Serif" font-size="10.00">Button</text>
</g>
<!-- Node28&#45;&gt;Node26 -->
<g id="edge36" class="edge"><title>Node28&#45;&gt;Node26</title>
<path fill="none" stroke="#9a32cd" stroke-dasharray="5,2" d="M1074.62,-561.639C1109.4,-557.505 1165.09,-549.619 1212,-537.201 1225.32,-533.676 1239.77,-528.402 1251.37,-523.793"/>
<polygon fill="#9a32cd" stroke="#9a32cd" points="1074.07,-558.18 1064.53,-562.803 1074.87,-565.134 1074.07,-558.18"/>
<text text-anchor="middle" x="1172" y="-557.201" font-family="Helvetica,sans-Serif" font-size="10.00"> runButton</text>
</g>
<!-- Node29 -->
<g id="node29" class="node"><title>Node29</title>
<polygon fill="white" stroke="#bfbfbf" points="1011,-517.701 1011,-536.701 1069,-536.701 1069,-517.701 1011,-517.701"/>
<text text-anchor="middle" x="1040" y="-524.701" font-family="Helvetica,sans-Serif" font-size="10.00">TextArea</text>
</g>
<!-- Node29&#45;&gt;Node26 -->
<g id="edge38" class="edge"><title>Node29&#45;&gt;Node26</title>
<path fill="none" stroke="#9a32cd" stroke-dasharray="5,2" d="M1079.09,-525.076C1124.23,-522.557 1198.67,-518.404 1241.3,-516.025"/>
<polygon fill="#9a32cd" stroke="#9a32cd" points="1078.89,-521.581 1069.11,-525.633 1079.28,-528.57 1078.89,-521.581"/>
<text text-anchor="middle" x="1172" y="-525.201" font-family="Helvetica,sans-Serif" font-size="10.00"> textEditor</text>
</g>
<!-- Node30 -->
<g id="node30" class="node"><title>Node30</title>
<polygon fill="white" stroke="#bfbfbf" points="1426.5,-38.701 1426.5,-57.701 1545.5,-57.701 1545.5,-38.701 1426.5,-38.701"/>
<text text-anchor="middle" x="1486" y="-45.701" font-family="Helvetica,sans-Serif" font-size="10.00">Map&lt; String, Node &gt;</text>
</g>
<!-- Node30&#45;&gt;Node24 -->
<g id="edge40" class="edge"><title>Node30&#45;&gt;Node24</title>
<path fill="none" stroke="#9a32cd" stroke-dasharray="5,2" d="M1555.9,-38.6316C1584.73,-38.3543 1616.85,-43.402 1640,-62.201 1702.44,-112.892 1704.36,-223.984 1703.44,-257.463"/>
<polygon fill="#9a32cd" stroke="#9a32cd" points="1555.74,-35.1345 1545.85,-38.938 1555.96,-42.1313 1555.74,-35.1345"/>
<text text-anchor="middle" x="1602" y="-65.201" font-family="Helvetica,sans-Serif" font-size="10.00"> variables</text>
</g>
<!-- Node31 -->
<g id="node31" class="node"><title>Node31</title>
<polygon fill="white" stroke="#bfbfbf" points="1445.5,-0.701017 1445.5,-19.701 1526.5,-19.701 1526.5,-0.701017 1445.5,-0.701017"/>
<text text-anchor="middle" x="1486" y="-7.70102" font-family="Helvetica,sans-Serif" font-size="10.00">Dimension2D</text>
</g>
<!-- Node31&#45;&gt;Node24 -->
<g id="edge43" class="edge"><title>Node31&#45;&gt;Node24</title>
<path fill="none" stroke="#9a32cd" stroke-dasharray="5,2" d="M1536.95,-1.16707C1569.92,1.8236 1612.03,-0.437917 1640,-24.201 1677.04,-55.6616 1697.35,-216.701 1701.98,-257.697"/>
<polygon fill="#9a32cd" stroke="#9a32cd" points="1536.16,2.26706 1526.6,-2.30202 1536.92,-4.69125 1536.16,2.26706"/>
<text text-anchor="middle" x="1602" y="-27.201" font-family="Helvetica,sans-Serif" font-size="10.00"> myDimensions</text>
</g>
<!-- Node32&#45;&gt;Node9 -->
<g id="edge50" class="edge"><title>Node32&#45;&gt;Node9</title>
<path fill="none" stroke="#9a32cd" stroke-dasharray="5,2" d="M1448.51,-201.245C1358.37,-169.292 1131.2,-89.0855 1114,-86.201 905.345,-51.2184 827.595,2.68345 638,-91.201 485.047,-166.941 417.566,-393.95 404.437,-443.556"/>
<polygon fill="#9a32cd" stroke="#9a32cd" points="1447.46,-204.585 1458.05,-204.629 1449.8,-197.988 1447.46,-204.585"/>
<text text-anchor="middle" x="1040" y="-89.201" font-family="Helvetica,sans-Serif" font-size="10.00"> myDrawer</text>
</g>
<!-- Node32&#45;&gt;Node24 -->
<g id="edge44" class="edge"><title>Node32&#45;&gt;Node24</title>
<path fill="none" stroke="#9a32cd" stroke-dasharray="5,2" d="M1532.69,-220.158C1563.39,-224.744 1604.55,-232.032 1640,-242.201 1654.36,-246.322 1669.98,-252.507 1682.07,-257.694"/>
<polygon fill="#9a32cd" stroke="#9a32cd" points="1533.1,-216.681 1522.7,-218.705 1532.09,-223.608 1533.1,-216.681"/>
<text text-anchor="middle" x="1602" y="-245.201" font-family="Helvetica,sans-Serif" font-size="10.00"> drawer</text>
</g>
<!-- Node33 -->
<g id="node33" class="node"><title>Node33</title>
<polygon fill="white" stroke="#bfbfbf" points="1254.5,-197.701 1254.5,-216.701 1295.5,-216.701 1295.5,-197.701 1254.5,-197.701"/>
<text text-anchor="middle" x="1275" y="-204.701" font-family="Helvetica,sans-Serif" font-size="10.00">Color</text>
</g>
<!-- Node33&#45;&gt;Node32 -->
<g id="edge46" class="edge"><title>Node33&#45;&gt;Node32</title>
<path fill="none" stroke="#9a32cd" stroke-dasharray="5,2" d="M1305.93,-206.83C1332.7,-206.64 1372.98,-206.706 1408,-208.201 1421.53,-208.779 1436.37,-209.834 1449.38,-210.901"/>
<polygon fill="#9a32cd" stroke="#9a32cd" points="1305.66,-203.332 1295.69,-206.92 1305.72,-210.332 1305.66,-203.332"/>
<text text-anchor="middle" x="1373" y="-211.201" font-family="Helvetica,sans-Serif" font-size="10.00"> myColor</text>
</g>
<!-- Node34 -->
<g id="node34" class="node"><title>Node34</title>
<polygon fill="white" stroke="#bfbfbf" points="656,-471.701 656,-490.701 794,-490.701 794,-471.701 656,-471.701"/>
<text text-anchor="middle" x="725" y="-478.701" font-family="Helvetica,sans-Serif" font-size="10.00">ObservableList&lt; String &gt;</text>
</g>
<!-- Node34&#45;&gt;Node17 -->
<g id="edge48" class="edge"><title>Node34&#45;&gt;Node17</title>
<path fill="none" stroke="#9a32cd" stroke-dasharray="5,2" d="M804.577,-471.41C867.415,-463.581 952.754,-452.947 1001.23,-446.907"/>
<polygon fill="#9a32cd" stroke="#9a32cd" points="803.793,-467.981 794.302,-472.69 804.658,-474.927 803.793,-467.981"/>
<text text-anchor="middle" x="889" y="-482.201" font-family="Helvetica,sans-Serif" font-size="10.00"> myCommandItems</text>
<text text-anchor="middle" x="889" y="-471.201" font-family="Helvetica,sans-Serif" font-size="10.00">myHistoryItems</text>
</g>
<!-- Node35 -->
<g id="node35" class="node"><title>Node35</title>
<polygon fill="white" stroke="#bfbfbf" points="1008.5,-227.701 1008.5,-246.701 1071.5,-246.701 1071.5,-227.701 1008.5,-227.701"/>
<text text-anchor="middle" x="1040" y="-234.701" font-family="Helvetica,sans-Serif" font-size="10.00">Rectangle</text>
</g>
<!-- Node35&#45;&gt;Node10 -->
<g id="edge49" class="edge"><title>Node35&#45;&gt;Node10</title>
<path fill="none" stroke="#9a32cd" stroke-dasharray="5,2" d="M1081.8,-240.065C1116.46,-242.555 1167.51,-246.358 1212,-250.201 1217.82,-250.704 1223.94,-251.261 1229.98,-251.828"/>
<polygon fill="#9a32cd" stroke="#9a32cd" points="1081.82,-236.558 1071.6,-239.336 1081.32,-243.54 1081.82,-236.558"/>
<text text-anchor="middle" x="1172" y="-253.201" font-family="Helvetica,sans-Serif" font-size="10.00"> myBackground</text>
</g>
<!-- Node36 -->
<g id="node36" class="node"><title>Node36</title>
<polygon fill="white" stroke="#bfbfbf" points="333,-785.201 333,-815.201 469,-815.201 469,-785.201 333,-785.201"/>
<text text-anchor="start" x="341" y="-803.201" font-family="Helvetica,sans-Serif" font-size="10.00">List&lt; model.instructions.</text>
<text text-anchor="middle" x="401" y="-792.201" font-family="Helvetica,sans-Serif" font-size="10.00">Instruction &gt;</text>
</g>
<!-- Node36&#45;&gt;Node2 -->
<g id="edge52" class="edge"><title>Node36&#45;&gt;Node2</title>
<path fill="none" stroke="#9a32cd" stroke-dasharray="5,2" d="M474.604,-782.839C539.429,-767.338 631.962,-745.21 684.17,-732.726"/>
<polygon fill="#9a32cd" stroke="#9a32cd" points="473.761,-779.442 464.849,-785.172 475.389,-786.25 473.761,-779.442"/>
<text text-anchor="middle" x="559" y="-779.201" font-family="Helvetica,sans-Serif" font-size="10.00"> myDependencies</text>
</g>
</g>
</svg>
