<?xml version="1.0" encoding="UTF-8" standalone="no"?>
<!DOCTYPE svg PUBLIC "-//W3C//DTD SVG 1.1//EN"
 "http://www.w3.org/Graphics/SVG/1.1/DTD/svg11.dtd">
<!-- Generated by graphviz version 2.36.0 (20140111.2315)
 -->
<!-- Title: model.instructions.BooleanInstruction Pages: 1 -->
<svg width="1986pt" height="962pt"
 viewBox="0.00 0.00 1986.00 962.08" xmlns="http://www.w3.org/2000/svg" xmlns:xlink="http://www.w3.org/1999/xlink">
<g id="graph0" class="graph" transform="scale(1 1) rotate(0) translate(4 958.083)">
<title>model.instructions.BooleanInstruction</title>
<polygon fill="white" stroke="none" points="-4,4 -4,-958.083 1982,-958.083 1982,4 -4,4"/>
<!-- Node1 -->
<g id="node1" class="node"><title>Node1</title>
<polygon fill="#bfbfbf" stroke="black" points="1194.5,-295.083 1194.5,-325.083 1341.5,-325.083 1341.5,-295.083 1194.5,-295.083"/>
<text text-anchor="start" x="1202.5" y="-313.083" font-family="Helvetica,sans-Serif" font-size="10.00">model.instructions.Boolean</text>
<text text-anchor="middle" x="1268" y="-302.083" font-family="Helvetica,sans-Serif" font-size="10.00">Instruction</text>
</g>
<!-- Node2 -->
<g id="node2" class="node"><title>Node2</title>
<g id="a_node2"><a xlink:href="../../d1/dea/classmodel_1_1instructions_1_1_instruction.html" target="_top" xlink:title="model.instructions.Instruction">
<polygon fill="white" stroke="black" points="884,-368.583 884,-387.583 1042,-387.583 1042,-368.583 884,-368.583"/>
<text text-anchor="middle" x="963" y="-375.583" font-family="Helvetica,sans-Serif" font-size="10.00">model.instructions.Instruction</text>
</a>
</g>
</g>
<!-- Node2&#45;&gt;Node1 -->
<g id="edge1" class="edge"><title>Node2&#45;&gt;Node1</title>
<path fill="none" stroke="midnightblue" d="M1052.18,-377.426C1091.46,-374.4 1137.45,-366.978 1176,-350.083 1185.54,-345.903 1184.92,-340.188 1194,-335.083 1200.66,-331.339 1207.97,-328.024 1215.31,-325.131"/>
<polygon fill="midnightblue" stroke="midnightblue" points="1051.83,-373.942 1042.09,-378.119 1052.31,-380.926 1051.83,-373.942"/>
</g>
<!-- Node3 -->
<g id="node3" class="node"><title>Node3</title>
<polygon fill="white" stroke="#bfbfbf" points="287,-640.583 287,-659.583 347,-659.583 347,-640.583 287,-640.583"/>
<text text-anchor="middle" x="317" y="-647.583" font-family="Helvetica,sans-Serif" font-size="10.00">Observer</text>
</g>
<!-- Node3&#45;&gt;Node2 -->
<g id="edge2" class="edge"><title>Node3&#45;&gt;Node2</title>
<path fill="none" stroke="midnightblue" d="M342.567,-634.935C406.485,-596.107 584.126,-491.878 744,-432.083 798.78,-411.594 864.209,-396.576 909.001,-387.652"/>
<polygon fill="midnightblue" stroke="midnightblue" points="340.353,-632.186 333.64,-640.383 344,-638.161 340.353,-632.186"/>
</g>
<!-- Node9 -->
<g id="node9" class="node"><title>Node9</title>
<g id="a_node9"><a xlink:href="../../d4/d64/classview_1_1_view_updater.html" target="_top" xlink:title="view.ViewUpdater">
<polygon fill="white" stroke="black" points="589,-640.583 589,-659.583 689,-659.583 689,-640.583 589,-640.583"/>
<text text-anchor="middle" x="639" y="-647.583" font-family="Helvetica,sans-Serif" font-size="10.00">view.ViewUpdater</text>
</a>
</g>
</g>
<!-- Node3&#45;&gt;Node9 -->
<g id="edge9" class="edge"><title>Node3&#45;&gt;Node9</title>
<path fill="none" stroke="midnightblue" d="M357.539,-650.083C415.954,-650.083 525.239,-650.083 588.77,-650.083"/>
<polygon fill="midnightblue" stroke="midnightblue" points="357.246,-646.583 347.246,-650.083 357.246,-653.583 357.246,-646.583"/>
</g>
<!-- Node27 -->
<g id="node27" class="node"><title>Node27</title>
<g id="a_node27"><a xlink:href="../../dc/df5/classmodel_1_1_parser.html" target="_top" xlink:title="model.Parser">
<polygon fill="white" stroke="black" points="923,-771.583 923,-790.583 1003,-790.583 1003,-771.583 923,-771.583"/>
<text text-anchor="middle" x="963" y="-778.583" font-family="Helvetica,sans-Serif" font-size="10.00">model.Parser</text>
</a>
</g>
</g>
<!-- Node3&#45;&gt;Node27 -->
<g id="edge35" class="edge"><title>Node3&#45;&gt;Node27</title>
<path fill="none" stroke="midnightblue" d="M333.504,-667.144C368.257,-703.957 456.836,-790.017 552,-821.083 691.375,-866.581 870.445,-813.561 936.262,-790.63"/>
<polygon fill="midnightblue" stroke="midnightblue" points="335.937,-664.621 326.563,-659.682 330.811,-669.388 335.937,-664.621"/>
</g>
<!-- Node4 -->
<g id="node4" class="node"><title>Node4</title>
<g id="a_node4"><a xlink:href="../../d1/dca/classmodel_1_1_execution_environment.html" target="_top" xlink:title="model.ExecutionEnvironment">
<polygon fill="white" stroke="black" points="560.5,-315.583 560.5,-334.583 717.5,-334.583 717.5,-315.583 560.5,-315.583"/>
<text text-anchor="middle" x="639" y="-322.583" font-family="Helvetica,sans-Serif" font-size="10.00">model.ExecutionEnvironment</text>
</a>
</g>
</g>
<!-- Node4&#45;&gt;Node2 -->
<g id="edge3" class="edge"><title>Node4&#45;&gt;Node2</title>
<path fill="none" stroke="#9a32cd" stroke-dasharray="5,2" d="M712.038,-336.232C756.454,-343.188 814.566,-352.433 866,-361.083 880.021,-363.441 895.177,-366.081 909.213,-368.566"/>
<polygon fill="#9a32cd" stroke="#9a32cd" points="712.338,-332.737 701.917,-334.65 711.257,-339.653 712.338,-332.737"/>
<text text-anchor="middle" x="805" y="-364.083" font-family="Helvetica,sans-Serif" font-size="10.00"> myEnvironment</text>
</g>
<!-- Node17 -->
<g id="node17" class="node"><title>Node17</title>
<g id="a_node17"><a xlink:href="../../d1/dc7/classview_1_1_side_bar.html" target="_top" xlink:title="view.SideBar">
<polygon fill="white" stroke="black" points="1229.5,-256.583 1229.5,-275.583 1306.5,-275.583 1306.5,-256.583 1229.5,-256.583"/>
<text text-anchor="middle" x="1268" y="-263.583" font-family="Helvetica,sans-Serif" font-size="10.00">view.SideBar</text>
</a>
</g>
</g>
<!-- Node4&#45;&gt;Node17 -->
<g id="edge22" class="edge"><title>Node4&#45;&gt;Node17</title>
<path fill="none" stroke="#9a32cd" stroke-dasharray="5,2" d="M727.584,-330.791C858.958,-337.913 1099.76,-344.966 1176,-307.083 1187.31,-301.461 1183.36,-291.898 1194,-285.083 1204.48,-278.371 1217.23,-274.024 1229.13,-271.211"/>
<polygon fill="#9a32cd" stroke="#9a32cd" points="727.723,-327.293 717.544,-330.235 727.336,-334.283 727.723,-327.293"/>
<text text-anchor="middle" x="963" y="-340.083" font-family="Helvetica,sans-Serif" font-size="10.00"> myEnvironment</text>
</g>
<!-- Node21 -->
<g id="node21" class="node"><title>Node21</title>
<g id="a_node21"><a xlink:href="../../d9/dd3/classview_1_1_variables_view.html" target="_top" xlink:title="view.VariablesView">
<polygon fill="white" stroke="black" points="911,-169.583 911,-188.583 1015,-188.583 1015,-169.583 911,-169.583"/>
<text text-anchor="middle" x="963" y="-176.583" font-family="Helvetica,sans-Serif" font-size="10.00">view.VariablesView</text>
</a>
</g>
</g>
<!-- Node4&#45;&gt;Node21 -->
<g id="edge31" class="edge"><title>Node4&#45;&gt;Node21</title>
<path fill="none" stroke="#9a32cd" stroke-dasharray="5,2" d="M651.511,-306.882C668.46,-281.758 702.638,-237.067 744,-215.083 772.114,-200.139 855.43,-189.439 910.537,-183.762"/>
<polygon fill="#9a32cd" stroke="#9a32cd" points="648.439,-305.184 645.879,-315.465 654.291,-309.024 648.439,-305.184"/>
<text text-anchor="middle" x="805" y="-218.083" font-family="Helvetica,sans-Serif" font-size="10.00"> myEnvironment</text>
</g>
<!-- Node4&#45;&gt;Node27 -->
<g id="edge37" class="edge"><title>Node4&#45;&gt;Node27</title>
<path fill="none" stroke="#9a32cd" stroke-dasharray="5,2" d="M714.703,-339.528C718.868,-342.213 722.694,-345.371 726,-349.083 760.116,-387.387 725.032,-415.424 744,-463.083 798.083,-598.97 918.655,-734.553 952.819,-771.358"/>
<polygon fill="#9a32cd" stroke="#9a32cd" points="716.193,-336.354 705.736,-334.654 712.851,-342.505 716.193,-336.354"/>
<text text-anchor="middle" x="805" y="-671.083" font-family="Helvetica,sans-Serif" font-size="10.00"> myExecutionParameters</text>
</g>
<!-- Node30 -->
<g id="node30" class="node"><title>Node30</title>
<g id="a_node30"><a xlink:href="../../d6/de7/classview_1_1_s_logo_view.html" target="_top" xlink:title="view.SLogoView">
<polygon fill="white" stroke="black" points="1886.5,-445.583 1886.5,-464.583 1977.5,-464.583 1977.5,-445.583 1886.5,-445.583"/>
<text text-anchor="middle" x="1932" y="-452.583" font-family="Helvetica,sans-Serif" font-size="10.00">view.SLogoView</text>
</a>
</g>
</g>
<!-- Node4&#45;&gt;Node30 -->
<g id="edge51" class="edge"><title>Node4&#45;&gt;Node30</title>
<path fill="none" stroke="#9a32cd" stroke-dasharray="5,2" d="M673.16,-311.621C719.725,-293.032 807.381,-259.188 884,-236.083 953.149,-215.23 973.605,-221.29 1042,-198.083 1050.29,-195.27 1051.44,-191.9 1060,-190.083 1305.45,-137.994 1638.44,-296.475 1774,-349.083 1817.92,-366.128 1829.33,-371.171 1868,-398.083 1888.82,-412.574 1910.1,-433.323 1921.83,-445.38"/>
<polygon fill="#9a32cd" stroke="#9a32cd" points="671.574,-308.486 663.594,-315.456 674.179,-314.983 671.574,-308.486"/>
<text text-anchor="middle" x="1400" y="-228.083" font-family="Helvetica,sans-Serif" font-size="10.00"> myEnvironment</text>
</g>
<!-- Node5 -->
<g id="node5" class="node"><title>Node5</title>
<polygon fill="white" stroke="#bfbfbf" points="281.5,-330.583 281.5,-349.583 352.5,-349.583 352.5,-330.583 281.5,-330.583"/>
<text text-anchor="middle" x="317" y="-337.583" font-family="Helvetica,sans-Serif" font-size="10.00">Observable</text>
</g>
<!-- Node5&#45;&gt;Node4 -->
<g id="edge4" class="edge"><title>Node5&#45;&gt;Node4</title>
<path fill="none" stroke="midnightblue" d="M362.61,-337.991C413.684,-335.597 498.273,-331.632 560.249,-328.727"/>
<polygon fill="midnightblue" stroke="midnightblue" points="362.375,-334.499 352.55,-338.463 362.703,-341.491 362.375,-334.499"/>
</g>
<!-- Node6 -->
<g id="node6" class="node"><title>Node6</title>
<polygon fill="white" stroke="#bfbfbf" points="272.5,-292.583 272.5,-311.583 361.5,-311.583 361.5,-292.583 272.5,-292.583"/>
<text text-anchor="middle" x="317" y="-299.583" font-family="Helvetica,sans-Serif" font-size="10.00">Set&lt; Integer &gt;</text>
</g>
<!-- Node6&#45;&gt;Node4 -->
<g id="edge5" class="edge"><title>Node6&#45;&gt;Node4</title>
<path fill="none" stroke="#9a32cd" stroke-dasharray="5,2" d="M371.711,-300.212C415.507,-299.315 478.909,-299.447 534,-305.083 555.035,-307.234 578.158,-311.489 597.249,-315.523"/>
<polygon fill="#9a32cd" stroke="#9a32cd" points="371.487,-296.716 361.571,-300.445 371.649,-303.714 371.487,-296.716"/>
<text text-anchor="middle" x="478" y="-319.083" font-family="Helvetica,sans-Serif" font-size="10.00"> myTurtleList</text>
<text text-anchor="middle" x="478" y="-308.083" font-family="Helvetica,sans-Serif" font-size="10.00">activeTurtleList</text>
</g>
<!-- Node7 -->
<g id="node7" class="node"><title>Node7</title>
<polygon fill="white" stroke="#bfbfbf" points="230,-243.083 230,-273.083 404,-273.083 404,-243.083 230,-243.083"/>
<text text-anchor="start" x="238" y="-261.083" font-family="Helvetica,sans-Serif" font-size="10.00">Map&lt; String, model.instructions.</text>
<text text-anchor="middle" x="317" y="-250.083" font-family="Helvetica,sans-Serif" font-size="10.00">Instruction &gt;</text>
</g>
<!-- Node7&#45;&gt;Node4 -->
<g id="edge6" class="edge"><title>Node7&#45;&gt;Node4</title>
<path fill="none" stroke="#9a32cd" stroke-dasharray="5,2" d="M414.015,-265.04C451.791,-269.084 495.303,-275.376 534,-285.083 563.834,-292.566 596.728,-306.184 617.371,-315.429"/>
<polygon fill="#9a32cd" stroke="#9a32cd" points="414.339,-261.555 404.032,-264.009 413.62,-268.518 414.339,-261.555"/>
<text text-anchor="middle" x="478" y="-288.083" font-family="Helvetica,sans-Serif" font-size="10.00"> myUserInstructionMap</text>
</g>
<!-- Node8 -->
<g id="node8" class="node"><title>Node8</title>
<polygon fill="white" stroke="#bfbfbf" points="253,-368.583 253,-387.583 381,-387.583 381,-368.583 253,-368.583"/>
<text text-anchor="middle" x="317" y="-375.583" font-family="Helvetica,sans-Serif" font-size="10.00">Map&lt; String, Double &gt;</text>
</g>
<!-- Node8&#45;&gt;Node4 -->
<g id="edge7" class="edge"><title>Node8&#45;&gt;Node4</title>
<path fill="none" stroke="#9a32cd" stroke-dasharray="5,2" d="M391.152,-368.804C433.074,-363.182 486.616,-355.485 534,-347.083 554.534,-343.441 577.204,-338.728 596.123,-334.599"/>
<polygon fill="#9a32cd" stroke="#9a32cd" points="390.48,-365.362 381.029,-370.151 391.403,-372.301 390.48,-365.362"/>
<text text-anchor="middle" x="478" y="-368.083" font-family="Helvetica,sans-Serif" font-size="10.00"> myVariableMap</text>
</g>
<!-- Node9&#45;&gt;Node2 -->
<g id="edge8" class="edge"><title>Node9&#45;&gt;Node2</title>
<path fill="none" stroke="#9a32cd" stroke-dasharray="5,2" d="M644.297,-630.333C654.203,-589.849 682.647,-497.453 744,-452.083 788.365,-419.275 819.985,-459.531 866,-429.083 878.027,-421.124 872.438,-410.703 884,-402.083 892.519,-395.731 902.741,-391.041 912.938,-387.585"/>
<polygon fill="#9a32cd" stroke="#9a32cd" points="640.837,-629.76 641.983,-640.293 647.656,-631.344 640.837,-629.76"/>
<text text-anchor="middle" x="805" y="-455.083" font-family="Helvetica,sans-Serif" font-size="10.00"> myViewUpdater</text>
</g>
<!-- Node9&#45;&gt;Node27 -->
<g id="edge38" class="edge"><title>Node9&#45;&gt;Node27</title>
<path fill="none" stroke="#9a32cd" stroke-dasharray="5,2" d="M664.142,-664.983C684.819,-677.334 715.66,-694.795 744,-707.083 796.354,-729.781 811.991,-728.667 866,-747.083 889.596,-755.128 916.322,-764.625 935.572,-771.534"/>
<polygon fill="#9a32cd" stroke="#9a32cd" points="665.771,-661.878 655.402,-659.704 662.152,-667.87 665.771,-661.878"/>
<text text-anchor="middle" x="805" y="-750.083" font-family="Helvetica,sans-Serif" font-size="10.00"> myViewUpdater</text>
</g>
<!-- Node10 -->
<g id="node10" class="node"><title>Node10</title>
<g id="a_node10"><a xlink:href="../../da/d64/classview_1_1_workspace.html" target="_top" xlink:title="view.Workspace">
<polygon fill="white" stroke="black" points="1458,-460.583 1458,-479.583 1548,-479.583 1548,-460.583 1458,-460.583"/>
<text text-anchor="middle" x="1503" y="-467.583" font-family="Helvetica,sans-Serif" font-size="10.00">view.Workspace</text>
</a>
</g>
</g>
<!-- Node10&#45;&gt;Node9 -->
<g id="edge10" class="edge"><title>Node10&#45;&gt;Node9</title>
<path fill="none" stroke="#9a32cd" stroke-dasharray="5,2" d="M1474.26,-485.649C1467.98,-490.447 1461.99,-496.289 1458,-503.083 1427.8,-554.522 1484.57,-596.442 1440,-636.083 1384.05,-685.845 854.795,-661.711 689.245,-652.861"/>
<polygon fill="#9a32cd" stroke="#9a32cd" points="1476.58,-488.301 1482.85,-479.761 1472.62,-482.527 1476.58,-488.301"/>
<text text-anchor="middle" x="1118" y="-670.083" font-family="Helvetica,sans-Serif" font-size="10.00"> myWorkspace</text>
</g>
<!-- Node10&#45;&gt;Node30 -->
<g id="edge41" class="edge"><title>Node10&#45;&gt;Node30</title>
<path fill="none" stroke="#9a32cd" stroke-dasharray="5,2" d="M1558.34,-468.174C1643.6,-465.179 1807.23,-459.431 1886.19,-456.657"/>
<polygon fill="#9a32cd" stroke="#9a32cd" points="1557.96,-464.685 1548.09,-468.534 1558.2,-471.68 1557.96,-464.685"/>
<text text-anchor="middle" x="1714" y="-468.083" font-family="Helvetica,sans-Serif" font-size="10.00"> myWorkspace</text>
</g>
<!-- Node38 -->
<g id="node38" class="node"><title>Node38</title>
<g id="a_node38"><a xlink:href="../../de/d0a/classview_1_1_drawer.html" target="_top" xlink:title="view.Drawer">
<polygon fill="white" stroke="black" points="1677.5,-498.583 1677.5,-517.583 1750.5,-517.583 1750.5,-498.583 1677.5,-498.583"/>
<text text-anchor="middle" x="1714" y="-505.583" font-family="Helvetica,sans-Serif" font-size="10.00">view.Drawer</text>
</a>
</g>
</g>
<!-- Node10&#45;&gt;Node38 -->
<g id="edge55" class="edge"><title>Node10&#45;&gt;Node38</title>
<path fill="none" stroke="#9a32cd" stroke-dasharray="5,2" d="M1558.32,-479.96C1595.83,-486.78 1644.65,-495.656 1677.32,-501.595"/>
<polygon fill="#9a32cd" stroke="#9a32cd" points="1558.53,-476.44 1548.07,-478.095 1557.28,-483.327 1558.53,-476.44"/>
<text text-anchor="middle" x="1601" y="-497.083" font-family="Helvetica,sans-Serif" font-size="10.00"> myWorkspace</text>
</g>
<!-- Node11 -->
<g id="node11" class="node"><title>Node11</title>
<polygon fill="white" stroke="#bfbfbf" points="1234.5,-564.583 1234.5,-583.583 1301.5,-583.583 1301.5,-564.583 1234.5,-564.583"/>
<text text-anchor="middle" x="1268" y="-571.583" font-family="Helvetica,sans-Serif" font-size="10.00">StackPane</text>
</g>
<!-- Node11&#45;&gt;Node10 -->
<g id="edge11" class="edge"><title>Node11&#45;&gt;Node10</title>
<path fill="none" stroke="midnightblue" d="M1311.99,-571.748C1356.01,-568.549 1420.66,-561.356 1440,-546.083 1456.26,-533.244 1445.27,-519.426 1458,-503.083 1465.39,-493.592 1476.17,-485.449 1485.2,-479.627"/>
<polygon fill="midnightblue" stroke="midnightblue" points="1311.57,-568.268 1301.83,-572.442 1312.05,-575.252 1311.57,-568.268"/>
</g>
<!-- Node12 -->
<g id="node12" class="node"><title>Node12</title>
<polygon fill="white" stroke="#bfbfbf" points="916.5,-529.583 916.5,-548.583 1009.5,-548.583 1009.5,-529.583 916.5,-529.583"/>
<text text-anchor="middle" x="963" y="-536.583" font-family="Helvetica,sans-Serif" font-size="10.00">ResourceBundle</text>
</g>
<!-- Node12&#45;&gt;Node10 -->
<g id="edge12" class="edge"><title>Node12&#45;&gt;Node10</title>
<path fill="none" stroke="#9a32cd" stroke-dasharray="5,2" d="M1019.51,-536.309C1093.33,-532.281 1227.78,-523.763 1342,-510.083 1385.82,-504.834 1397.42,-505.666 1440,-494.083 1453.81,-490.326 1468.79,-484.578 1480.56,-479.649"/>
<polygon fill="#9a32cd" stroke="#9a32cd" points="1019.3,-532.815 1009.51,-536.847 1019.68,-539.805 1019.3,-532.815"/>
<text text-anchor="middle" x="1268" y="-528.083" font-family="Helvetica,sans-Serif" font-size="10.00"> myResources</text>
</g>
<!-- Node12&#45;&gt;Node17 -->
<g id="edge21" class="edge"><title>Node12&#45;&gt;Node17</title>
<path fill="none" stroke="#9a32cd" stroke-dasharray="5,2" d="M1019.32,-527.567C1027.04,-525.395 1034.79,-522.904 1042,-520.083 1050.52,-516.747 1051.76,-514.061 1060,-510.083 1110.25,-485.828 1142.68,-506.839 1176,-462.083 1223.22,-398.654 1142.53,-345.112 1194,-285.083 1202.78,-274.842 1216.31,-269.767 1229.35,-267.357"/>
<polygon fill="#9a32cd" stroke="#9a32cd" points="1018.36,-524.199 1009.6,-530.149 1020.16,-530.965 1018.36,-524.199"/>
<text text-anchor="middle" x="1118" y="-513.083" font-family="Helvetica,sans-Serif" font-size="10.00"> myResources</text>
</g>
<!-- Node12&#45;&gt;Node30 -->
<g id="edge43" class="edge"><title>Node12&#45;&gt;Node30</title>
<path fill="none" stroke="#9a32cd" stroke-dasharray="5,2" d="M1007.1,-551.363C1053.02,-563.936 1128.03,-583.019 1194,-593.083 1267.12,-604.238 1286.08,-602.414 1360,-605.083 1395.53,-606.365 1404.68,-609.152 1440,-605.083 1591.44,-587.635 1625.92,-563.273 1774,-527.083 1815.89,-516.846 1829.18,-521.858 1868,-503.083 1888.8,-493.024 1909.43,-475.495 1921.16,-464.633"/>
<polygon fill="#9a32cd" stroke="#9a32cd" points="1007.77,-547.917 997.195,-548.629 1005.9,-554.664 1007.77,-547.917"/>
<text text-anchor="middle" x="1503" y="-606.083" font-family="Helvetica,sans-Serif" font-size="10.00"> myResources</text>
</g>
<!-- Node13 -->
<g id="node13" class="node"><title>Node13</title>
<g id="a_node13"><a xlink:href="../../d8/df7/classview_1_1_turtle_view.html" target="_top" xlink:title="view.TurtleView">
<polygon fill="white" stroke="black" points="1225,-432.583 1225,-451.583 1311,-451.583 1311,-432.583 1225,-432.583"/>
<text text-anchor="middle" x="1268" y="-439.583" font-family="Helvetica,sans-Serif" font-size="10.00">view.TurtleView</text>
</a>
</g>
</g>
<!-- Node13&#45;&gt;Node10 -->
<g id="edge13" class="edge"><title>Node13&#45;&gt;Node10</title>
<path fill="none" stroke="#9a32cd" stroke-dasharray="5,2" d="M1321.28,-448.365C1362.35,-453.3 1418.9,-460.096 1457.74,-464.764"/>
<polygon fill="#9a32cd" stroke="#9a32cd" points="1321.54,-444.871 1311.19,-447.153 1320.71,-451.821 1321.54,-444.871"/>
<text text-anchor="middle" x="1400" y="-466.083" font-family="Helvetica,sans-Serif" font-size="10.00"> myActiveTurtle</text>
</g>
<!-- Node14 -->
<g id="node14" class="node"><title>Node14</title>
<polygon fill="white" stroke="#bfbfbf" points="929,-453.583 929,-472.583 997,-472.583 997,-453.583 929,-453.583"/>
<text text-anchor="middle" x="963" y="-460.583" font-family="Helvetica,sans-Serif" font-size="10.00">ImageView</text>
</g>
<!-- Node14&#45;&gt;Node13 -->
<g id="edge14" class="edge"><title>Node14&#45;&gt;Node13</title>
<path fill="none" stroke="midnightblue" d="M1007.1,-450.83C1018.54,-447.305 1030.81,-443.272 1042,-439.083 1050.2,-436.012 1051.44,-432.9 1060,-431.083 1116.15,-419.167 1182.69,-426.369 1224.87,-433.492"/>
<polygon fill="midnightblue" stroke="midnightblue" points="1005.87,-447.544 997.314,-453.788 1007.9,-454.245 1005.87,-447.544"/>
</g>
<!-- Node15 -->
<g id="node15" class="node"><title>Node15</title>
<polygon fill="white" stroke="#bfbfbf" points="940,-491.583 940,-510.583 986,-510.583 986,-491.583 940,-491.583"/>
<text text-anchor="middle" x="963" y="-498.583" font-family="Helvetica,sans-Serif" font-size="10.00">Group</text>
</g>
<!-- Node15&#45;&gt;Node10 -->
<g id="edge17" class="edge"><title>Node15&#45;&gt;Node10</title>
<path fill="none" stroke="#9a32cd" stroke-dasharray="5,2" d="M996.385,-500.882C1037.99,-500.495 1112.41,-499.365 1176,-496.083 1276.93,-490.872 1395.11,-480.337 1457.76,-474.402"/>
<polygon fill="#9a32cd" stroke="#9a32cd" points="996.267,-497.383 986.297,-500.967 996.326,-504.382 996.267,-497.383"/>
<text text-anchor="middle" x="1268" y="-498.083" font-family="Helvetica,sans-Serif" font-size="10.00"> myLines</text>
</g>
<!-- Node15&#45;&gt;Node13 -->
<g id="edge15" class="edge"><title>Node15&#45;&gt;Node13</title>
<path fill="none" stroke="#9a32cd" stroke-dasharray="5,2" d="M996.149,-499.044C1011.28,-496.719 1028.85,-491.913 1042,-482.083 1054.76,-472.545 1046.37,-459.33 1060,-451.083 1086.7,-434.929 1172.29,-436.537 1224.68,-439.251"/>
<polygon fill="#9a32cd" stroke="#9a32cd" points="995.638,-495.58 986.146,-500.288 996.502,-502.527 995.638,-495.58"/>
<text text-anchor="middle" x="1118" y="-454.083" font-family="Helvetica,sans-Serif" font-size="10.00"> myStamps</text>
</g>
<!-- Node16 -->
<g id="node16" class="node"><title>Node16</title>
<polygon fill="white" stroke="#bfbfbf" points="1200,-383.083 1200,-413.083 1336,-413.083 1336,-383.083 1200,-383.083"/>
<text text-anchor="start" x="1208" y="-401.083" font-family="Helvetica,sans-Serif" font-size="10.00">Map&lt; Integer, view.Turtle</text>
<text text-anchor="middle" x="1268" y="-390.083" font-family="Helvetica,sans-Serif" font-size="10.00">View &gt;</text>
</g>
<!-- Node16&#45;&gt;Node10 -->
<g id="edge16" class="edge"><title>Node16&#45;&gt;Node10</title>
<path fill="none" stroke="#9a32cd" stroke-dasharray="5,2" d="M1346.15,-412.655C1375.92,-419.293 1409.98,-428.141 1440,-439.083 1455.94,-444.893 1473.13,-453.707 1485.36,-460.453"/>
<polygon fill="#9a32cd" stroke="#9a32cd" points="1346.74,-409.203 1336.22,-410.489 1345.25,-416.042 1346.74,-409.203"/>
<text text-anchor="middle" x="1400" y="-442.083" font-family="Helvetica,sans-Serif" font-size="10.00"> myTurtles</text>
</g>
<!-- Node17&#45;&gt;Node9 -->
<g id="edge61" class="edge"><title>Node17&#45;&gt;Node9</title>
<path fill="none" stroke="#9a32cd" stroke-dasharray="5,2" d="M1219.49,-271.463C1210.21,-274.333 1201.15,-278.642 1194,-285.083 1177.07,-300.333 1191.4,-316.288 1176,-333.083 1131.4,-381.732 1104.34,-375.396 1042,-397.083 973.977,-420.748 936.188,-383.448 884,-433.083 862.589,-453.446 883.287,-473.119 866,-497.083 812.362,-571.439 710.69,-620.802 664.243,-640.473"/>
<polygon fill="#9a32cd" stroke="#9a32cd" points="1220.37,-274.852 1229.18,-268.964 1218.62,-268.074 1220.37,-274.852"/>
<text text-anchor="middle" x="963" y="-436.083" font-family="Helvetica,sans-Serif" font-size="10.00"> mySidebar</text>
</g>
<!-- Node17&#45;&gt;Node10 -->
<g id="edge18" class="edge"><title>Node17&#45;&gt;Node10</title>
<path fill="none" stroke="#9a32cd" stroke-dasharray="5,2" d="M1316.42,-275.674C1325.13,-278.201 1334,-281.307 1342,-285.083 1390.64,-308.031 1404.5,-315.681 1440,-356.083 1469.45,-389.591 1490.43,-439.461 1498.43,-460.339"/>
<polygon fill="#9a32cd" stroke="#9a32cd" points="1317.27,-272.277 1306.7,-273.062 1315.45,-279.037 1317.27,-272.277"/>
<text text-anchor="middle" x="1400" y="-359.083" font-family="Helvetica,sans-Serif" font-size="10.00"> mySidebar</text>
</g>
<!-- Node17&#45;&gt;Node30 -->
<g id="edge57" class="edge"><title>Node17&#45;&gt;Node30</title>
<path fill="none" stroke="#9a32cd" stroke-dasharray="5,2" d="M1317.01,-270.423C1351.52,-274.124 1399.02,-280.408 1440,-290.083 1624.23,-333.573 1837.46,-417.102 1907.44,-445.42"/>
<polygon fill="#9a32cd" stroke="#9a32cd" points="1317.04,-266.908 1306.73,-269.357 1316.32,-273.871 1317.04,-266.908"/>
<text text-anchor="middle" x="1601" y="-349.083" font-family="Helvetica,sans-Serif" font-size="10.00"> mySidebar</text>
</g>
<!-- Node32 -->
<g id="node32" class="node"><title>Node32</title>
<g id="a_node32"><a xlink:href="../../da/dc8/classview_1_1_editor.html" target="_top" xlink:title="view.Editor">
<polygon fill="white" stroke="black" points="1469.5,-748.583 1469.5,-767.583 1536.5,-767.583 1536.5,-748.583 1469.5,-748.583"/>
<text text-anchor="middle" x="1503" y="-755.583" font-family="Helvetica,sans-Serif" font-size="10.00">view.Editor</text>
</a>
</g>
</g>
<!-- Node17&#45;&gt;Node32 -->
<g id="edge49" class="edge"><title>Node17&#45;&gt;Node32</title>
<path fill="none" stroke="#9a32cd" stroke-dasharray="5,2" d="M1316.49,-269.663C1326.2,-272.589 1335.45,-277.375 1342,-285.083 1369.9,-317.901 1348.05,-436.699 1360,-478.083 1392.82,-591.714 1472.03,-713.891 1495.4,-748.479"/>
<polygon fill="#9a32cd" stroke="#9a32cd" points="1317.24,-266.244 1306.7,-267.318 1315.6,-273.051 1317.24,-266.244"/>
<text text-anchor="middle" x="1400" y="-659.083" font-family="Helvetica,sans-Serif" font-size="10.00"> mySidebar</text>
</g>
<!-- Node18 -->
<g id="node18" class="node"><title>Node18</title>
<polygon fill="white" stroke="#bfbfbf" points="942.5,-283.583 942.5,-302.583 983.5,-302.583 983.5,-283.583 942.5,-283.583"/>
<text text-anchor="middle" x="963" y="-290.583" font-family="Helvetica,sans-Serif" font-size="10.00">VBox</text>
</g>
<!-- Node18&#45;&gt;Node17 -->
<g id="edge19" class="edge"><title>Node18&#45;&gt;Node17</title>
<path fill="none" stroke="midnightblue" d="M993.859,-294.656C1035.05,-296.341 1111.53,-297.723 1176,-289.083 1181.61,-288.33 1207.96,-281.614 1230.87,-275.632"/>
<polygon fill="midnightblue" stroke="midnightblue" points="993.842,-291.151 983.696,-294.204 993.531,-298.145 993.842,-291.151"/>
</g>
<!-- Node19 -->
<g id="node19" class="node"><title>Node19</title>
<polygon fill="white" stroke="#bfbfbf" points="552.5,-87.5825 552.5,-106.583 725.5,-106.583 725.5,-87.5825 552.5,-87.5825"/>
<text text-anchor="middle" x="639" y="-94.5825" font-family="Helvetica,sans-Serif" font-size="10.00">ObservableList&lt; view.Property &gt;</text>
</g>
<!-- Node19&#45;&gt;Node17 -->
<g id="edge20" class="edge"><title>Node19&#45;&gt;Node17</title>
<path fill="none" stroke="#9a32cd" stroke-dasharray="5,2" d="M735.795,-90.5556C817.947,-87.1792 939.002,-87.5103 1042,-109.083 1104.85,-122.245 1123.56,-126.03 1176,-163.083 1214.39,-190.208 1247.58,-236.58 1260.84,-256.514"/>
<polygon fill="#9a32cd" stroke="#9a32cd" points="735.56,-87.0625 725.722,-90.9962 735.866,-94.0558 735.56,-87.0625"/>
<text text-anchor="middle" x="963" y="-112.083" font-family="Helvetica,sans-Serif" font-size="10.00"> myVariablesList</text>
</g>
<!-- Node19&#45;&gt;Node21 -->
<g id="edge30" class="edge"><title>Node19&#45;&gt;Node21</title>
<path fill="none" stroke="#9a32cd" stroke-dasharray="5,2" d="M694.931,-108.845C705.271,-111.165 715.981,-113.64 726,-116.083 745.519,-120.842 865.456,-153.076 926.45,-169.501"/>
<polygon fill="#9a32cd" stroke="#9a32cd" points="695.686,-105.428 685.165,-106.675 694.167,-112.261 695.686,-105.428"/>
<text text-anchor="middle" x="805" y="-155.083" font-family="Helvetica,sans-Serif" font-size="10.00"> myVariablesList</text>
</g>
<!-- Node20 -->
<g id="node20" class="node"><title>Node20</title>
<polygon fill="white" stroke="#bfbfbf" points="243,-55.5825 243,-74.5825 391,-74.5825 391,-55.5825 243,-55.5825"/>
<text text-anchor="middle" x="317" y="-62.5825" font-family="Helvetica,sans-Serif" font-size="10.00">TableView&lt; view.Property &gt;</text>
</g>
<!-- Node20&#45;&gt;Node17 -->
<g id="edge23" class="edge"><title>Node20&#45;&gt;Node17</title>
<path fill="none" stroke="#9a32cd" stroke-dasharray="5,2" d="M361.407,-52.8748C496.434,-17.6596 915.578,70.5217 1176,-110.083 1230.11,-147.606 1256.68,-228.542 1264.48,-256.417"/>
<polygon fill="#9a32cd" stroke="#9a32cd" points="360.211,-49.5707 351.44,-55.5136 362.002,-56.3376 360.211,-49.5707"/>
<text text-anchor="middle" x="805" y="-20.0825" font-family="Helvetica,sans-Serif" font-size="10.00"> myTurtlePropertiesTable</text>
<text text-anchor="middle" x="805" y="-9.08254" font-family="Helvetica,sans-Serif" font-size="10.00">myVariablesTable</text>
</g>
<!-- Node22 -->
<g id="node22" class="node"><title>Node22</title>
<g id="a_node22"><a xlink:href="../../d5/dea/classview_1_1_side_table_view.html" target="_top" xlink:title="view.SideTableView">
<polygon fill="white" stroke="black" points="586,-125.583 586,-144.583 692,-144.583 692,-125.583 586,-125.583"/>
<text text-anchor="middle" x="639" y="-132.583" font-family="Helvetica,sans-Serif" font-size="10.00">view.SideTableView</text>
</a>
</g>
</g>
<!-- Node20&#45;&gt;Node22 -->
<g id="edge28" class="edge"><title>Node20&#45;&gt;Node22</title>
<path fill="none" stroke="#9a32cd" stroke-dasharray="5,2" d="M371.553,-76.7973C434.108,-90.4811 536.396,-112.857 594.349,-125.534"/>
<polygon fill="#9a32cd" stroke="#9a32cd" points="372.007,-73.3138 361.49,-74.5959 370.511,-80.1521 372.007,-73.3138"/>
<text text-anchor="middle" x="478" y="-114.083" font-family="Helvetica,sans-Serif" font-size="10.00"> myTable</text>
</g>
<!-- Node21&#45;&gt;Node17 -->
<g id="edge24" class="edge"><title>Node21&#45;&gt;Node17</title>
<path fill="none" stroke="#9a32cd" stroke-dasharray="5,2" d="M991.841,-193.183C1010.68,-202.242 1036.35,-213.661 1060,-221.083 1110.15,-236.819 1124.67,-232.794 1176,-244.083 1193.62,-247.958 1213.07,-252.608 1229.45,-256.634"/>
<polygon fill="#9a32cd" stroke="#9a32cd" points="993.18,-189.942 982.659,-188.695 990.106,-196.231 993.18,-189.942"/>
<text text-anchor="middle" x="1118" y="-247.083" font-family="Helvetica,sans-Serif" font-size="10.00"> myVariablesPane</text>
</g>
<!-- Node22&#45;&gt;Node21 -->
<g id="edge25" class="edge"><title>Node22&#45;&gt;Node21</title>
<path fill="none" stroke="midnightblue" d="M674.399,-147.981C694.414,-154.898 720.296,-162.849 744,-167.083 800.531,-177.179 866.501,-179.528 910.939,-179.764"/>
<polygon fill="midnightblue" stroke="midnightblue" points="675.391,-144.619 664.796,-144.587 673.058,-151.219 675.391,-144.619"/>
</g>
<!-- Node26 -->
<g id="node26" class="node"><title>Node26</title>
<g id="a_node26"><a xlink:href="../../d9/d3a/classview_1_1_turtle_properties_view.html" target="_top" xlink:title="view.TurtlePropertiesView">
<polygon fill="white" stroke="black" points="895.5,-129.583 895.5,-148.583 1030.5,-148.583 1030.5,-129.583 895.5,-129.583"/>
<text text-anchor="middle" x="963" y="-136.583" font-family="Helvetica,sans-Serif" font-size="10.00">view.TurtlePropertiesView</text>
</a>
</g>
</g>
<!-- Node22&#45;&gt;Node26 -->
<g id="edge33" class="edge"><title>Node22&#45;&gt;Node26</title>
<path fill="none" stroke="midnightblue" d="M702.342,-134.909C747.73,-134.893 810.679,-135.096 866,-136.083 875.503,-136.252 885.534,-136.495 895.386,-136.77"/>
<polygon fill="midnightblue" stroke="midnightblue" points="702.065,-131.41 692.067,-134.917 702.07,-138.41 702.065,-131.41"/>
</g>
<!-- Node23 -->
<g id="node23" class="node"><title>Node23</title>
<g id="a_node23"><a xlink:href="../../d2/d38/classview_1_1_side_properties_view.html" target="_top" xlink:title="view.SidePropertiesView">
<polygon fill="white" stroke="black" points="251.5,-163.583 251.5,-182.583 382.5,-182.583 382.5,-163.583 251.5,-163.583"/>
<text text-anchor="middle" x="317" y="-170.583" font-family="Helvetica,sans-Serif" font-size="10.00">view.SidePropertiesView</text>
</a>
</g>
</g>
<!-- Node23&#45;&gt;Node22 -->
<g id="edge26" class="edge"><title>Node23&#45;&gt;Node22</title>
<path fill="none" stroke="midnightblue" d="M393.036,-169.409C434.693,-166.81 487.366,-162.602 534,-156.083 554.797,-153.175 577.695,-148.693 596.699,-144.615"/>
<polygon fill="midnightblue" stroke="midnightblue" points="392.736,-165.92 382.966,-170.019 393.16,-172.908 392.736,-165.92"/>
</g>
<!-- Node24 -->
<g id="node24" class="node"><title>Node24</title>
<polygon fill="white" stroke="#bfbfbf" points="0.5,-163.583 0.5,-182.583 135.5,-182.583 135.5,-163.583 0.5,-163.583"/>
<text text-anchor="middle" x="68" y="-170.583" font-family="Helvetica,sans-Serif" font-size="10.00">ObservableList&lt; Node &gt;</text>
</g>
<!-- Node24&#45;&gt;Node23 -->
<g id="edge27" class="edge"><title>Node24&#45;&gt;Node23</title>
<path fill="none" stroke="#9a32cd" stroke-dasharray="5,2" d="M145.848,-173.083C179.752,-173.083 219.154,-173.083 251.499,-173.083"/>
<polygon fill="#9a32cd" stroke="#9a32cd" points="145.516,-169.583 135.516,-173.083 145.516,-176.583 145.516,-169.583"/>
<text text-anchor="middle" x="183" y="-176.083" font-family="Helvetica,sans-Serif" font-size="10.00"> myChildren</text>
</g>
<!-- Node25 -->
<g id="node25" class="node"><title>Node25</title>
<polygon fill="white" stroke="#bfbfbf" points="239.5,-114.083 239.5,-144.083 394.5,-144.083 394.5,-114.083 239.5,-114.083"/>
<text text-anchor="start" x="247.5" y="-132.083" font-family="Helvetica,sans-Serif" font-size="10.00">TableColumn&lt; view.Property,</text>
<text text-anchor="middle" x="317" y="-121.083" font-family="Helvetica,sans-Serif" font-size="10.00"> String &gt;</text>
</g>
<!-- Node25&#45;&gt;Node22 -->
<g id="edge29" class="edge"><title>Node25&#45;&gt;Node22</title>
<path fill="none" stroke="#9a32cd" stroke-dasharray="5,2" d="M404.896,-130.712C462.818,-131.798 537.022,-133.189 585.963,-134.107"/>
<polygon fill="#9a32cd" stroke="#9a32cd" points="404.712,-127.208 394.648,-130.52 404.581,-134.207 404.712,-127.208"/>
<text text-anchor="middle" x="478" y="-147.083" font-family="Helvetica,sans-Serif" font-size="10.00"> rightTableCol</text>
<text text-anchor="middle" x="478" y="-136.083" font-family="Helvetica,sans-Serif" font-size="10.00">leftTableCol</text>
</g>
<!-- Node26&#45;&gt;Node17 -->
<g id="edge32" class="edge"><title>Node26&#45;&gt;Node17</title>
<path fill="none" stroke="#9a32cd" stroke-dasharray="5,2" d="M1011.72,-151.272C1021.76,-154.022 1032.26,-157.034 1042,-160.083 1102.37,-178.988 1119.19,-180.242 1176,-208.083 1205.27,-222.429 1236.79,-244.068 1253.98,-256.458"/>
<polygon fill="#9a32cd" stroke="#9a32cd" points="1012.43,-147.84 1001.87,-148.618 1010.61,-154.599 1012.43,-147.84"/>
<text text-anchor="middle" x="1118" y="-211.083" font-family="Helvetica,sans-Serif" font-size="10.00"> myTurtlePropertiesPane</text>
</g>
<!-- Node27&#45;&gt;Node17 -->
<g id="edge34" class="edge"><title>Node27&#45;&gt;Node17</title>
<path fill="none" stroke="#9a32cd" stroke-dasharray="5,2" d="M972.188,-762.27C986.734,-730.19 1019.41,-663.841 1060,-617.083 1103.14,-567.393 1145.17,-583.217 1176,-525.083 1201.06,-477.832 1159.73,-326.143 1194,-285.083 1202.64,-274.727 1216.15,-269.629 1229.2,-267.234"/>
<polygon fill="#9a32cd" stroke="#9a32cd" points="968.987,-760.854 968.115,-771.413 975.381,-763.703 968.987,-760.854"/>
<text text-anchor="middle" x="1118" y="-620.083" font-family="Helvetica,sans-Serif" font-size="10.00"> myParser</text>
</g>
<!-- Node27&#45;&gt;Node30 -->
<g id="edge52" class="edge"><title>Node27&#45;&gt;Node30</title>
<path fill="none" stroke="#9a32cd" stroke-dasharray="5,2" d="M977.882,-798.678C995.102,-819.418 1026.33,-853.64 1060,-874.083 1142.9,-924.41 1170.02,-943.083 1267,-943.083 1267,-943.083 1267,-943.083 1715,-943.083 1745.62,-943.083 1860.59,-855.912 1868,-844.083 1909.67,-777.551 1927.26,-517.675 1930.45,-464.586"/>
<polygon fill="#9a32cd" stroke="#9a32cd" points="980.417,-796.247 971.394,-790.694 974.985,-800.662 980.417,-796.247"/>
<text text-anchor="middle" x="1503" y="-946.083" font-family="Helvetica,sans-Serif" font-size="10.00"> myParser</text>
</g>
<!-- Node27&#45;&gt;Node32 -->
<g id="edge47" class="edge"><title>Node27&#45;&gt;Node32</title>
<path fill="none" stroke="#9a32cd" stroke-dasharray="5,2" d="M1013.26,-779.913C1099.7,-777.705 1284.32,-772.299 1440,-763.083 1449.49,-762.521 1459.78,-761.755 1469.2,-760.991"/>
<polygon fill="#9a32cd" stroke="#9a32cd" points="1013.12,-776.415 1003.21,-780.166 1013.29,-783.413 1013.12,-776.415"/>
<text text-anchor="middle" x="1268" y="-778.083" font-family="Helvetica,sans-Serif" font-size="10.00"> myParser</text>
</g>
<!-- Node28 -->
<g id="node28" class="node"><title>Node28</title>
<polygon fill="white" stroke="#bfbfbf" points="583,-782.083 583,-812.083 695,-812.083 695,-782.083 583,-782.083"/>
<text text-anchor="start" x="591" y="-800.083" font-family="Helvetica,sans-Serif" font-size="10.00">List&lt; Entry&lt; String,</text>
<text text-anchor="middle" x="639" y="-789.083" font-family="Helvetica,sans-Serif" font-size="10.00"> Pattern &gt; &gt;</text>
</g>
<!-- Node28&#45;&gt;Node27 -->
<g id="edge36" class="edge"><title>Node28&#45;&gt;Node27</title>
<path fill="none" stroke="#9a32cd" stroke-dasharray="5,2" d="M705.519,-793.827C770.679,-790.589 868.507,-785.728 922.567,-783.042"/>
<polygon fill="#9a32cd" stroke="#9a32cd" points="705.168,-790.34 695.354,-794.332 705.515,-797.331 705.168,-790.34"/>
<text text-anchor="middle" x="805" y="-795.083" font-family="Helvetica,sans-Serif" font-size="10.00"> myPatterns</text>
</g>
<!-- Node29 -->
<g id="node29" class="node"><title>Node29</title>
<polygon fill="white" stroke="#bfbfbf" points="578,-743.583 578,-762.583 700,-762.583 700,-743.583 578,-743.583"/>
<text text-anchor="middle" x="639" y="-750.583" font-family="Helvetica,sans-Serif" font-size="10.00">Map&lt; String, String &gt;</text>
</g>
<!-- Node29&#45;&gt;Node27 -->
<g id="edge39" class="edge"><title>Node29&#45;&gt;Node27</title>
<path fill="none" stroke="#9a32cd" stroke-dasharray="5,2" d="M710.594,-758.842C755.171,-762.523 813.969,-767.457 866,-772.083 884.675,-773.743 905.384,-775.673 922.773,-777.319"/>
<polygon fill="#9a32cd" stroke="#9a32cd" points="710.699,-755.339 700.445,-758.006 710.124,-762.315 710.699,-755.339"/>
<text text-anchor="middle" x="805" y="-775.083" font-family="Helvetica,sans-Serif" font-size="10.00"> myCommandMap</text>
</g>
<!-- Node30&#45;&gt;Node27 -->
<g id="edge40" class="edge"><title>Node30&#45;&gt;Node27</title>
<path fill="none" stroke="#9a32cd" stroke-dasharray="5,2" d="M1930.64,-474.901C1927.96,-560.733 1905.32,-896.083 1715,-896.083 1267,-896.083 1267,-896.083 1267,-896.083 1148.56,-896.083 1020.03,-818.329 978.088,-790.69"/>
<polygon fill="#9a32cd" stroke="#9a32cd" points="1934.15,-474.789 1930.9,-464.704 1927.15,-474.612 1934.15,-474.789"/>
<text text-anchor="middle" x="1503" y="-899.083" font-family="Helvetica,sans-Serif" font-size="10.00"> mySLogoView</text>
</g>
<!-- Node31 -->
<g id="node31" class="node"><title>Node31</title>
<polygon fill="white" stroke="#bfbfbf" points="1691.5,-184.583 1691.5,-203.583 1736.5,-203.583 1736.5,-184.583 1691.5,-184.583"/>
<text text-anchor="middle" x="1714" y="-191.583" font-family="Helvetica,sans-Serif" font-size="10.00">Stage</text>
</g>
<!-- Node31&#45;&gt;Node30 -->
<g id="edge42" class="edge"><title>Node31&#45;&gt;Node30</title>
<path fill="none" stroke="#9a32cd" stroke-dasharray="5,2" d="M1746.58,-187.051C1780.63,-181.453 1834.47,-178.643 1868,-207.083 1905.78,-239.12 1925.54,-403.526 1930.01,-445.379"/>
<polygon fill="#9a32cd" stroke="#9a32cd" points="1745.9,-183.617 1736.69,-188.847 1747.15,-190.504 1745.9,-183.617"/>
<text text-anchor="middle" x="1830" y="-210.083" font-family="Helvetica,sans-Serif" font-size="10.00"> myStage</text>
</g>
<!-- Node32&#45;&gt;Node30 -->
<g id="edge44" class="edge"><title>Node32&#45;&gt;Node30</title>
<path fill="none" stroke="#9a32cd" stroke-dasharray="5,2" d="M1546.62,-755.209C1621.68,-747.894 1778.01,-722.233 1868,-633.083 1917.37,-584.172 1928.18,-494.199 1930.43,-464.715"/>
<polygon fill="#9a32cd" stroke="#9a32cd" points="1546.22,-751.731 1536.58,-756.124 1546.86,-758.702 1546.22,-751.731"/>
<text text-anchor="middle" x="1714" y="-741.083" font-family="Helvetica,sans-Serif" font-size="10.00"> myEditor</text>
</g>
<!-- Node33 -->
<g id="node33" class="node"><title>Node33</title>
<polygon fill="white" stroke="#bfbfbf" points="1247,-725.583 1247,-744.583 1289,-744.583 1289,-725.583 1247,-725.583"/>
<text text-anchor="middle" x="1268" y="-732.583" font-family="Helvetica,sans-Serif" font-size="10.00">HBox</text>
</g>
<!-- Node33&#45;&gt;Node32 -->
<g id="edge45" class="edge"><title>Node33&#45;&gt;Node32</title>
<path fill="none" stroke="midnightblue" d="M1299.34,-738.078C1343.29,-742.416 1424.31,-750.414 1469.46,-754.87"/>
<polygon fill="midnightblue" stroke="midnightblue" points="1299.57,-734.583 1289.27,-737.083 1298.88,-741.549 1299.57,-734.583"/>
</g>
<!-- Node34 -->
<g id="node34" class="node"><title>Node34</title>
<polygon fill="white" stroke="#bfbfbf" points="1243.5,-848.583 1243.5,-867.583 1292.5,-867.583 1292.5,-848.583 1243.5,-848.583"/>
<text text-anchor="middle" x="1268" y="-855.583" font-family="Helvetica,sans-Serif" font-size="10.00">Button</text>
</g>
<!-- Node34&#45;&gt;Node32 -->
<g id="edge46" class="edge"><title>Node34&#45;&gt;Node32</title>
<path fill="none" stroke="#9a32cd" stroke-dasharray="5,2" d="M1302.8,-858.885C1338.97,-858.315 1396.96,-853.185 1440,-829.083 1466.56,-814.211 1487.25,-783.469 1496.59,-767.769"/>
<polygon fill="#9a32cd" stroke="#9a32cd" points="1302.74,-855.385 1292.76,-858.934 1302.78,-862.385 1302.74,-855.385"/>
<text text-anchor="middle" x="1400" y="-856.083" font-family="Helvetica,sans-Serif" font-size="10.00"> runButton</text>
</g>
<!-- Node35 -->
<g id="node35" class="node"><title>Node35</title>
<polygon fill="white" stroke="#bfbfbf" points="1239,-810.583 1239,-829.583 1297,-829.583 1297,-810.583 1239,-810.583"/>
<text text-anchor="middle" x="1268" y="-817.583" font-family="Helvetica,sans-Serif" font-size="10.00">TextArea</text>
</g>
<!-- Node35&#45;&gt;Node32 -->
<g id="edge48" class="edge"><title>Node35&#45;&gt;Node32</title>
<path fill="none" stroke="#9a32cd" stroke-dasharray="5,2" d="M1307.41,-818.753C1342.76,-816.538 1396.19,-810.659 1440,-795.083 1458.42,-788.532 1477.42,-776.225 1489.44,-767.61"/>
<polygon fill="#9a32cd" stroke="#9a32cd" points="1306.84,-815.279 1297.05,-819.329 1307.23,-822.268 1306.84,-815.279"/>
<text text-anchor="middle" x="1400" y="-817.083" font-family="Helvetica,sans-Serif" font-size="10.00"> textEditor</text>
</g>
<!-- Node36 -->
<g id="node36" class="node"><title>Node36</title>
<polygon fill="white" stroke="#bfbfbf" points="1654.5,-146.583 1654.5,-165.583 1773.5,-165.583 1773.5,-146.583 1654.5,-146.583"/>
<text text-anchor="middle" x="1714" y="-153.583" font-family="Helvetica,sans-Serif" font-size="10.00">Map&lt; String, Node &gt;</text>
</g>
<!-- Node36&#45;&gt;Node30 -->
<g id="edge50" class="edge"><title>Node36&#45;&gt;Node30</title>
<path fill="none" stroke="#9a32cd" stroke-dasharray="5,2" d="M1773.16,-145.653C1804.81,-143.413 1842.58,-146.813 1868,-169.083 1911.12,-206.855 1927.16,-399.994 1930.37,-445.479"/>
<polygon fill="#9a32cd" stroke="#9a32cd" points="1772.77,-142.175 1763.12,-146.562 1773.4,-149.146 1772.77,-142.175"/>
<text text-anchor="middle" x="1830" y="-172.083" font-family="Helvetica,sans-Serif" font-size="10.00"> variables</text>
</g>
<!-- Node37 -->
<g id="node37" class="node"><title>Node37</title>
<polygon fill="white" stroke="#bfbfbf" points="1673.5,-108.583 1673.5,-127.583 1754.5,-127.583 1754.5,-108.583 1673.5,-108.583"/>
<text text-anchor="middle" x="1714" y="-115.583" font-family="Helvetica,sans-Serif" font-size="10.00">Dimension2D</text>
</g>
<!-- Node37&#45;&gt;Node30 -->
<g id="edge53" class="edge"><title>Node37&#45;&gt;Node30</title>
<path fill="none" stroke="#9a32cd" stroke-dasharray="5,2" d="M1764.63,-108.205C1797.9,-104.627 1840.5,-106.385 1868,-131.083 1916.5,-174.636 1928.55,-396.655 1930.63,-445.549"/>
<polygon fill="#9a32cd" stroke="#9a32cd" points="1764.12,-104.742 1754.64,-109.467 1765,-111.687 1764.12,-104.742"/>
<text text-anchor="middle" x="1830" y="-134.083" font-family="Helvetica,sans-Serif" font-size="10.00"> myDimensions</text>
</g>
<!-- Node38&#45;&gt;Node9 -->
<g id="edge60" class="edge"><title>Node38&#45;&gt;Node9</title>
<path fill="none" stroke="#9a32cd" stroke-dasharray="5,2" d="M1692.62,-523.714C1662.29,-546.496 1602.93,-589.242 1548,-618.083 1502.26,-642.098 1489.99,-648.031 1440,-661.083 1200.79,-723.539 1131.12,-685.303 884,-678.083 821.765,-676.264 805.763,-680.948 744,-673.083 721.07,-670.162 695.737,-664.61 675.815,-659.693"/>
<polygon fill="#9a32cd" stroke="#9a32cd" points="1694.86,-526.409 1700.72,-517.584 1690.64,-520.827 1694.86,-526.409"/>
<text text-anchor="middle" x="1268" y="-700.083" font-family="Helvetica,sans-Serif" font-size="10.00"> myDrawer</text>
</g>
<!-- Node38&#45;&gt;Node30 -->
<g id="edge54" class="edge"><title>Node38&#45;&gt;Node30</title>
<path fill="none" stroke="#9a32cd" stroke-dasharray="5,2" d="M1760.7,-496.87C1799.66,-487.309 1855.07,-473.713 1891.99,-464.655"/>
<polygon fill="#9a32cd" stroke="#9a32cd" points="1759.55,-493.548 1750.67,-499.331 1761.21,-500.347 1759.55,-493.548"/>
<text text-anchor="middle" x="1830" y="-491.083" font-family="Helvetica,sans-Serif" font-size="10.00"> drawer</text>
</g>
<!-- Node39 -->
<g id="node39" class="node"><title>Node39</title>
<polygon fill="white" stroke="#bfbfbf" points="1482.5,-512.583 1482.5,-531.583 1523.5,-531.583 1523.5,-512.583 1482.5,-512.583"/>
<text text-anchor="middle" x="1503" y="-519.583" font-family="Helvetica,sans-Serif" font-size="10.00">Color</text>
</g>
<!-- Node39&#45;&gt;Node38 -->
<g id="edge56" class="edge"><title>Node39&#45;&gt;Node38</title>
<path fill="none" stroke="#9a32cd" stroke-dasharray="5,2" d="M1534.03,-520.071C1571.9,-517.534 1636.91,-513.179 1677.29,-510.475"/>
<polygon fill="#9a32cd" stroke="#9a32cd" points="1533.41,-516.605 1523.66,-520.765 1533.87,-523.589 1533.41,-516.605"/>
<text text-anchor="middle" x="1601" y="-521.083" font-family="Helvetica,sans-Serif" font-size="10.00"> myColor</text>
</g>
<!-- Node40 -->
<g id="node40" class="node"><title>Node40</title>
<polygon fill="white" stroke="#bfbfbf" points="894,-245.583 894,-264.583 1032,-264.583 1032,-245.583 894,-245.583"/>
<text text-anchor="middle" x="963" y="-252.583" font-family="Helvetica,sans-Serif" font-size="10.00">ObservableList&lt; String &gt;</text>
</g>
<!-- Node40&#45;&gt;Node17 -->
<g id="edge58" class="edge"><title>Node40&#45;&gt;Node17</title>
<path fill="none" stroke="#9a32cd" stroke-dasharray="5,2" d="M1042.59,-257.936C1102.68,-260.117 1182.86,-263.028 1229.32,-264.715"/>
<polygon fill="#9a32cd" stroke="#9a32cd" points="1042.5,-254.43 1032.38,-257.565 1042.24,-261.425 1042.5,-254.43"/>
<text text-anchor="middle" x="1118" y="-277.083" font-family="Helvetica,sans-Serif" font-size="10.00"> myCommandItems</text>
<text text-anchor="middle" x="1118" y="-266.083" font-family="Helvetica,sans-Serif" font-size="10.00">myHistoryItems</text>
</g>
<!-- Node41 -->
<g id="node41" class="node"><title>Node41</title>
<polygon fill="white" stroke="#bfbfbf" points="1236.5,-344.583 1236.5,-363.583 1299.5,-363.583 1299.5,-344.583 1236.5,-344.583"/>
<text text-anchor="middle" x="1268" y="-351.583" font-family="Helvetica,sans-Serif" font-size="10.00">Rectangle</text>
</g>
<!-- Node41&#45;&gt;Node10 -->
<g id="edge59" class="edge"><title>Node41&#45;&gt;Node10</title>
<path fill="none" stroke="#9a32cd" stroke-dasharray="5,2" d="M1309.77,-358.886C1346.18,-364.654 1399.81,-376.904 1440,-402.083 1464.64,-417.518 1485.58,-445.376 1495.63,-460.191"/>
<polygon fill="#9a32cd" stroke="#9a32cd" points="1309.93,-355.371 1299.52,-357.361 1308.9,-362.294 1309.93,-355.371"/>
<text text-anchor="middle" x="1400" y="-405.083" font-family="Helvetica,sans-Serif" font-size="10.00"> myBackground</text>
</g>
<!-- Node42 -->
<g id="node42" class="node"><title>Node42</title>
<polygon fill="white" stroke="#bfbfbf" points="571,-359.083 571,-389.083 707,-389.083 707,-359.083 571,-359.083"/>
<text text-anchor="start" x="579" y="-377.083" font-family="Helvetica,sans-Serif" font-size="10.00">List&lt; model.instructions.</text>
<text text-anchor="middle" x="639" y="-366.083" font-family="Helvetica,sans-Serif" font-size="10.00">Instruction &gt;</text>
</g>
<!-- Node42&#45;&gt;Node2 -->
<g id="edge62" class="edge"><title>Node42&#45;&gt;Node2</title>
<path fill="none" stroke="#9a32cd" stroke-dasharray="5,2" d="M717.307,-375.043C767.736,-375.669 833.34,-376.484 883.923,-377.113"/>
<polygon fill="#9a32cd" stroke="#9a32cd" points="717.153,-371.541 707.11,-374.916 717.066,-378.54 717.153,-371.541"/>
<text text-anchor="middle" x="805" y="-380.083" font-family="Helvetica,sans-Serif" font-size="10.00"> myDependencies</text>
</g>
</g>
</svg>
