<?xml version="1.0" encoding="UTF-8" standalone="no"?>
<!DOCTYPE svg PUBLIC "-//W3C//DTD SVG 1.1//EN"
 "http://www.w3.org/Graphics/SVG/1.1/DTD/svg11.dtd">
<!-- Generated by graphviz version 2.36.0 (20140111.2315)
 -->
<!-- Title: view.MainView.configureFileMenu Pages: 1 -->
<svg width="764pt" height="28pt"
 viewBox="0.00 0.00 764.00 28.00" xmlns="http://www.w3.org/2000/svg" xmlns:xlink="http://www.w3.org/1999/xlink">
<g id="graph0" class="graph" transform="scale(1 1) rotate(0) translate(4 24)">
<title>view.MainView.configureFileMenu</title>
<polygon fill="white" stroke="none" points="-4,4 -4,-24 760,-24 760,4 -4,4"/>
<!-- Node1 -->
<g id="node1" class="node"><title>Node1</title>
<polygon fill="#bfbfbf" stroke="black" points="0.5,-0.5 0.5,-19.5 171.5,-19.5 171.5,-0.5 0.5,-0.5"/>
<text text-anchor="middle" x="86" y="-7.5" font-family="Helvetica,sans-Serif" font-size="10.00">view.MainView.configureFileMenu</text>
</g>
<!-- Node2 -->
<g id="node2" class="node"><title>Node2</title>
<g id="a_node2"><a xlink:href="../../d1/d75/classview_1_1_main_view.html#a200c2c8e08e038e2ea86acc40c17d8d2" target="_top" xlink:title="view.MainView.configureTopMenu">
<polygon fill="white" stroke="black" points="208,-0.5 208,-19.5 380,-19.5 380,-0.5 208,-0.5"/>
<text text-anchor="middle" x="294" y="-7.5" font-family="Helvetica,sans-Serif" font-size="10.00">view.MainView.configureTopMenu</text>
</a>
</g>
</g>
<!-- Node1&#45;&gt;Node2 -->
<g id="edge1" class="edge"><title>Node1&#45;&gt;Node2</title>
<path fill="none" stroke="midnightblue" d="M181.858,-10C190.572,-10 199.364,-10 207.983,-10"/>
<polygon fill="midnightblue" stroke="midnightblue" points="181.68,-6.5001 171.68,-10 181.68,-13.5001 181.68,-6.5001"/>
</g>
<!-- Node3 -->
<g id="node3" class="node"><title>Node3</title>
<g id="a_node3"><a xlink:href="../../d1/d75/classview_1_1_main_view.html#aff9e267e9368512a16e425f08d7b3ea0" target="_top" xlink:title="view.MainView.initRowConstraints">
<polygon fill="white" stroke="black" points="416.5,-0.5 416.5,-19.5 589.5,-19.5 589.5,-0.5 416.5,-0.5"/>
<text text-anchor="middle" x="503" y="-7.5" font-family="Helvetica,sans-Serif" font-size="10.00">view.MainView.initRowConstraints</text>
</a>
</g>
</g>
<!-- Node2&#45;&gt;Node3 -->
<g id="edge2" class="edge"><title>Node2&#45;&gt;Node3</title>
<path fill="none" stroke="midnightblue" d="M390.224,-10C398.898,-10 407.651,-10 416.236,-10"/>
<polygon fill="midnightblue" stroke="midnightblue" points="390.091,-6.5001 380.091,-10 390.091,-13.5001 390.091,-6.5001"/>
</g>
<!-- Node4 -->
<g id="node4" class="node"><title>Node4</title>
<g id="a_node4"><a xlink:href="../../d1/d75/classview_1_1_main_view.html#a9e27015c007bed90f32c79fc1187083f" target="_top" xlink:title="view.MainView.MainView">
<polygon fill="white" stroke="black" points="626,-0.5 626,-19.5 756,-19.5 756,-0.5 626,-0.5"/>
<text text-anchor="middle" x="691" y="-7.5" font-family="Helvetica,sans-Serif" font-size="10.00">view.MainView.MainView</text>
</a>
</g>
</g>
<!-- Node3&#45;&gt;Node4 -->
<g id="edge3" class="edge"><title>Node3&#45;&gt;Node4</title>
<path fill="none" stroke="midnightblue" d="M599.682,-10C608.571,-10 617.426,-10 625.924,-10"/>
<polygon fill="midnightblue" stroke="midnightblue" points="599.65,-6.5001 589.65,-10 599.65,-13.5001 599.65,-6.5001"/>
</g>
</g>
</svg>
