<?xml version="1.0" encoding="UTF-8" standalone="no"?>
<!DOCTYPE svg PUBLIC "-//W3C//DTD SVG 1.1//EN"
 "http://www.w3.org/Graphics/SVG/1.1/DTD/svg11.dtd">
<!-- Generated by graphviz version 2.36.0 (20140111.2315)
 -->
<!-- Title: view.MainView.configureFileMenu Pages: 1 -->
<!--zoomable 219 -->
<svg id="main" version="1.1" xmlns="http://www.w3.org/2000/svg" xmlns:xlink="http://www.w3.org/1999/xlink" xml:space="preserve" onload="init(evt)">
<style type="text/css"><![CDATA[
.edge:hover path { stroke: red; }
.edge:hover polygon { stroke: red; fill: red; }
]]></style>
<script type="text/javascript"><![CDATA[
var edges = document.getElementsByTagName('g');
if (edges && edges.length) {
  for (var i=0;i<edges.length;i++) {
    if (edges[i].id.substr(0,4)=='edge') {
      edges[i].setAttribute('class','edge');
    }
  }
}
]]></script>
        <defs>
                <circle id="rim" cx="0" cy="0" r="7"/>
                <circle id="rim2" cx="0" cy="0" r="3.5"/>
                <g id="zoomPlus">
                        <use xlink:href="#rim" fill="#404040">
                                <set attributeName="fill" to="#808080" begin="zoomplus.mouseover" end="zoomplus.mouseout"/>
                        </use>
                        <path d="M-4,0h8M0,-4v8" fill="none" stroke="white" stroke-width="1.5" pointer-events="none"/>
                </g>
                <g id="zoomMin">
                        <use xlink:href="#rim" fill="#404040">
                                <set attributeName="fill" to="#808080" begin="zoomminus.mouseover" end="zoomminus.mouseout"/>
                        </use>
                        <path d="M-4,0h8" fill="none" stroke="white" stroke-width="1.5" pointer-events="none"/>
                </g>
                <g id="dirArrow">
                        <path fill="none" stroke="white" stroke-width="1.5" d="M0,-3.0v7 M-2.5,-0.5L0,-3.0L2.5,-0.5"/>
                </g>
               <g id="resetDef">
                       <use xlink:href="#rim2" fill="#404040">
                               <set attributeName="fill" to="#808080" begin="reset.mouseover" end="reset.mouseout"/>
                       </use>
               </g>
        </defs>

<script type="text/javascript">
var viewWidth = 1696;
var viewHeight = 219;
var sectionId = 'dynsection-2';
</script>
<script xlink:href="../../svgpan.js"/>
<svg id="graph" class="graph">
<g id="viewport">
<title>view.MainView.configureFileMenu</title>
<polygon fill="white" stroke="none" points="-4,4 -4,-215 1692,-215 1692,4 -4,4"/>
<!-- Node1 -->
<g id="node1" class="node"><title>Node1</title>
<polygon fill="#bfbfbf" stroke="black" points="0.5,-79.5 0.5,-98.5 171.5,-98.5 171.5,-79.5 0.5,-79.5"/>
<text text-anchor="middle" x="86" y="-86.5" font-family="Helvetica,sans-Serif" font-size="10.00">view.MainView.configureFileMenu</text>
</g>
<!-- Node2 -->
<g id="node2" class="node"><title>Node2</title>
<g id="a_node2"><a xlink:href="../../d1/d75/classview_1_1_main_view.html#a39a2b399924a553ccd89dd2a2e6ea208" target="_top" xlink:title="view.MainView.newTab">
<polygon fill="white" stroke="black" points="208,-79.5 208,-98.5 328,-98.5 328,-79.5 208,-79.5"/>
<text text-anchor="middle" x="268" y="-86.5" font-family="Helvetica,sans-Serif" font-size="10.00">view.MainView.newTab</text>
</a>
</g>
</g>
<!-- Node1&#45;&gt;Node2 -->
<g id="edge1" class="edge"><title>Node1&#45;&gt;Node2</title>
<path fill="none" stroke="midnightblue" d="M171.729,-89C180.416,-89 189.168,-89 197.661,-89"/>
<polygon fill="midnightblue" stroke="midnightblue" points="197.87,-92.5001 207.87,-89 197.87,-85.5001 197.87,-92.5001"/>
</g>
<!-- Node3 -->
<g id="node3" class="node"><title>Node3</title>
<g id="a_node3"><a xlink:href="../../d6/de7/classview_1_1_s_logo_view.html#ae0050481c9168dd8eeb434d9aa79b047" target="_top" xlink:title="view.SLogoView.configureUI">
<polygon fill="white" stroke="black" points="364.5,-79.5 364.5,-98.5 511.5,-98.5 511.5,-79.5 364.5,-79.5"/>
<text text-anchor="middle" x="438" y="-86.5" font-family="Helvetica,sans-Serif" font-size="10.00">view.SLogoView.configureUI</text>
</a>
</g>
</g>
<!-- Node2&#45;&gt;Node3 -->
<g id="edge2" class="edge"><title>Node2&#45;&gt;Node3</title>
<path fill="none" stroke="midnightblue" d="M328.231,-89C336.65,-89 345.434,-89 354.201,-89"/>
<polygon fill="midnightblue" stroke="midnightblue" points="354.462,-92.5001 364.461,-89 354.461,-85.5001 354.462,-92.5001"/>
</g>
<!-- Node4 -->
<g id="node4" class="node"><title>Node4</title>
<g id="a_node4"><a xlink:href="../../d6/de7/classview_1_1_s_logo_view.html#acaf3f13ffb1cb6bbab33a6560cc80757" target="_top" xlink:title="view.SLogoView.setGridPane\lConstraints">
<polygon fill="white" stroke="black" points="548.5,-148 548.5,-178 699.5,-178 699.5,-148 548.5,-148"/>
<text text-anchor="start" x="556.5" y="-166" font-family="Helvetica,sans-Serif" font-size="10.00">view.SLogoView.setGridPane</text>
<text text-anchor="middle" x="624" y="-155" font-family="Helvetica,sans-Serif" font-size="10.00">Constraints</text>
</a>
</g>
</g>
<!-- Node3&#45;&gt;Node4 -->
<g id="edge3" class="edge"><title>Node3&#45;&gt;Node4</title>
<path fill="none" stroke="midnightblue" d="M458.833,-98.6433C480.484,-108.998 516.302,-125.629 548,-138 553.79,-140.26 559.878,-142.502 565.977,-144.663"/>
<polygon fill="midnightblue" stroke="midnightblue" points="564.936,-148.006 575.531,-147.981 567.233,-141.394 564.936,-148.006"/>
</g>
<!-- Node5 -->
<g id="node5" class="node"><title>Node5</title>
<g id="a_node5"><a xlink:href="../../d6/de7/classview_1_1_s_logo_view.html#acf432f20e1a7dda7bef97f0619fb0fa5" target="_top" xlink:title="view.SLogoView.configure\lAddTurtlesButton">
<polygon fill="white" stroke="black" points="555.5,-99 555.5,-129 692.5,-129 692.5,-99 555.5,-99"/>
<text text-anchor="start" x="563.5" y="-117" font-family="Helvetica,sans-Serif" font-size="10.00">view.SLogoView.configure</text>
<text text-anchor="middle" x="624" y="-106" font-family="Helvetica,sans-Serif" font-size="10.00">AddTurtlesButton</text>
</a>
</g>
</g>
<!-- Node3&#45;&gt;Node5 -->
<g id="edge4" class="edge"><title>Node3&#45;&gt;Node5</title>
<path fill="none" stroke="midnightblue" d="M509.087,-98.5227C520.91,-100.129 533.244,-101.805 545.247,-103.436"/>
<polygon fill="midnightblue" stroke="midnightblue" points="544.853,-106.914 555.233,-104.793 545.796,-99.978 544.853,-106.914"/>
</g>
<!-- Node19 -->
<g id="node19" class="node"><title>Node19</title>
<g id="a_node19"><a xlink:href="../../d6/de7/classview_1_1_s_logo_view.html#a31631c7a3cc6121d871884bc396cf934" target="_top" xlink:title="view.SLogoView.createNew\lParser">
<polygon fill="white" stroke="black" points="552,-50 552,-80 696,-80 696,-50 552,-50"/>
<text text-anchor="start" x="560" y="-68" font-family="Helvetica,sans-Serif" font-size="10.00">view.SLogoView.createNew</text>
<text text-anchor="middle" x="624" y="-57" font-family="Helvetica,sans-Serif" font-size="10.00">Parser</text>
</a>
</g>
</g>
<!-- Node3&#45;&gt;Node19 -->
<g id="edge20" class="edge"><title>Node3&#45;&gt;Node19</title>
<path fill="none" stroke="midnightblue" d="M511.722,-79.5146C521.591,-78.2273 531.77,-76.8995 541.777,-75.5943"/>
<polygon fill="midnightblue" stroke="midnightblue" points="542.245,-79.063 551.709,-74.2989 541.34,-72.1218 542.245,-79.063"/>
</g>
<!-- Node20 -->
<g id="node20" class="node"><title>Node20</title>
<g id="a_node20"><a xlink:href="../../dc/d3c/classview_1_1_customization_bar.html#a65f9fa71a815439e9030659d6647887f" target="_top" xlink:title="view.CustomizationBar.set\lParser">
<polygon fill="white" stroke="black" points="553,-1 553,-31 695,-31 695,-1 553,-1"/>
<text text-anchor="start" x="561" y="-19" font-family="Helvetica,sans-Serif" font-size="10.00">view.CustomizationBar.set</text>
<text text-anchor="middle" x="624" y="-8" font-family="Helvetica,sans-Serif" font-size="10.00">Parser</text>
</a>
</g>
</g>
<!-- Node3&#45;&gt;Node20 -->
<g id="edge21" class="edge"><title>Node3&#45;&gt;Node20</title>
<path fill="none" stroke="midnightblue" d="M459.254,-79.4024C480.964,-69.2757 516.556,-53.1339 548,-41 553.798,-38.7625 559.892,-36.5344 565.995,-34.3824"/>
<polygon fill="midnightblue" stroke="midnightblue" points="567.248,-37.6525 575.552,-31.0728 564.957,-31.0379 567.248,-37.6525"/>
</g>
<!-- Node6 -->
<g id="node6" class="node"><title>Node6</title>
<g id="a_node6"><a xlink:href="../../da/d64/classview_1_1_workspace.html#a4abde41a3048fa8f64ddfec40c8ffdb7" target="_top" xlink:title="view.Workspace.addTurtle">
<polygon fill="white" stroke="black" points="736.5,-104.5 736.5,-123.5 873.5,-123.5 873.5,-104.5 736.5,-104.5"/>
<text text-anchor="middle" x="805" y="-111.5" font-family="Helvetica,sans-Serif" font-size="10.00">view.Workspace.addTurtle</text>
</a>
</g>
</g>
<!-- Node5&#45;&gt;Node6 -->
<g id="edge5" class="edge"><title>Node5&#45;&gt;Node6</title>
<path fill="none" stroke="midnightblue" d="M692.672,-114C703.587,-114 714.964,-114 726.097,-114"/>
<polygon fill="midnightblue" stroke="midnightblue" points="726.232,-117.5 736.232,-114 726.232,-110.5 726.232,-117.5"/>
</g>
<!-- Node7 -->
<g id="node7" class="node"><title>Node7</title>
<g id="a_node7"><a xlink:href="../../da/d64/classview_1_1_workspace.html#a9eea72f983d5e7ad5af85056d927e380" target="_top" xlink:title="view.Workspace.configure\lTurtleEventHandler">
<polygon fill="white" stroke="black" points="930.5,-148 930.5,-178 1067.5,-178 1067.5,-148 930.5,-148"/>
<text text-anchor="start" x="938.5" y="-166" font-family="Helvetica,sans-Serif" font-size="10.00">view.Workspace.configure</text>
<text text-anchor="middle" x="999" y="-155" font-family="Helvetica,sans-Serif" font-size="10.00">TurtleEventHandler</text>
</a>
</g>
</g>
<!-- Node6&#45;&gt;Node7 -->
<g id="edge6" class="edge"><title>Node6&#45;&gt;Node7</title>
<path fill="none" stroke="midnightblue" d="M843.475,-123.564C867.783,-129.768 900.186,-138.037 929.041,-145.401"/>
<polygon fill="midnightblue" stroke="midnightblue" points="928.525,-148.881 939.08,-147.963 930.256,-142.099 928.525,-148.881"/>
</g>
<!-- Node16 -->
<g id="node16" class="node"><title>Node16</title>
<g id="a_node16"><a xlink:href="../../d1/dca/classmodel_1_1_execution_environment.html#a96986e0e8de018fd9b1b2bf79de862e1" target="_top" xlink:title="model.ExecutionEnvironment.add\lTurtle">
<polygon fill="white" stroke="black" points="910,-99 910,-129 1088,-129 1088,-99 910,-99"/>
<text text-anchor="start" x="918" y="-117" font-family="Helvetica,sans-Serif" font-size="10.00">model.ExecutionEnvironment.add</text>
<text text-anchor="middle" x="999" y="-106" font-family="Helvetica,sans-Serif" font-size="10.00">Turtle</text>
</a>
</g>
</g>
<!-- Node6&#45;&gt;Node16 -->
<g id="edge16" class="edge"><title>Node6&#45;&gt;Node16</title>
<path fill="none" stroke="midnightblue" d="M873.692,-114C882.073,-114 890.77,-114 899.494,-114"/>
<polygon fill="midnightblue" stroke="midnightblue" points="899.731,-117.5 909.731,-114 899.731,-110.5 899.731,-117.5"/>
</g>
<!-- Node18 -->
<g id="node18" class="node"><title>Node18</title>
<g id="a_node18"><a xlink:href="../../d1/dca/classmodel_1_1_execution_environment.html#a472ef4da5205b0e95ec51fdbf52f654a" target="_top" xlink:title="model.ExecutionEnvironment.set\lActiveTurtle">
<polygon fill="white" stroke="black" points="911.5,-50 911.5,-80 1086.5,-80 1086.5,-50 911.5,-50"/>
<text text-anchor="start" x="919.5" y="-68" font-family="Helvetica,sans-Serif" font-size="10.00">model.ExecutionEnvironment.set</text>
<text text-anchor="middle" x="999" y="-57" font-family="Helvetica,sans-Serif" font-size="10.00">ActiveTurtle</text>
</a>
</g>
</g>
<!-- Node6&#45;&gt;Node18 -->
<g id="edge18" class="edge"><title>Node6&#45;&gt;Node18</title>
<path fill="none" stroke="midnightblue" d="M843.475,-104.436C867.783,-98.2324 900.186,-89.9629 929.041,-82.599"/>
<polygon fill="midnightblue" stroke="midnightblue" points="930.256,-85.9012 939.08,-80.037 928.525,-79.1186 930.256,-85.9012"/>
</g>
<!-- Node8 -->
<g id="node8" class="node"><title>Node8</title>
<g id="a_node8"><a xlink:href="../../da/d64/classview_1_1_workspace.html#a16bda9a6a7fe7f8d3d7b09108675f9c4" target="_top" xlink:title="view.Workspace.setActive\lTurtle">
<polygon fill="white" stroke="black" points="1152.5,-126 1152.5,-156 1289.5,-156 1289.5,-126 1152.5,-126"/>
<text text-anchor="start" x="1160.5" y="-144" font-family="Helvetica,sans-Serif" font-size="10.00">view.Workspace.setActive</text>
<text text-anchor="middle" x="1221" y="-133" font-family="Helvetica,sans-Serif" font-size="10.00">Turtle</text>
</a>
</g>
</g>
<!-- Node7&#45;&gt;Node8 -->
<g id="edge7" class="edge"><title>Node7&#45;&gt;Node8</title>
<path fill="none" stroke="midnightblue" d="M1067.5,-156.25C1091.04,-153.896 1117.65,-151.235 1141.98,-148.802"/>
<polygon fill="midnightblue" stroke="midnightblue" points="1142.64,-152.253 1152.25,-147.775 1141.95,-145.288 1142.64,-152.253"/>
</g>
<!-- Node11 -->
<g id="node11" class="node"><title>Node11</title>
<g id="a_node11"><a xlink:href="../../d8/df7/classview_1_1_turtle_view.html#ab5fdc3775e06339f4a68d1b795a81643" target="_top" xlink:title="view.TurtleView.getID">
<polygon fill="white" stroke="black" points="1551,-191.5 1551,-210.5 1665,-210.5 1665,-191.5 1551,-191.5"/>
<text text-anchor="middle" x="1608" y="-198.5" font-family="Helvetica,sans-Serif" font-size="10.00">view.TurtleView.getID</text>
</a>
</g>
</g>
<!-- Node7&#45;&gt;Node11 -->
<g id="edge15" class="edge"><title>Node7&#45;&gt;Node11</title>
<path fill="none" stroke="midnightblue" d="M1067.57,-167.23C1184.71,-174.563 1424.07,-189.548 1540.48,-196.835"/>
<polygon fill="midnightblue" stroke="midnightblue" points="1540.47,-200.342 1550.67,-197.474 1540.91,-193.356 1540.47,-200.342"/>
</g>
<!-- Node9 -->
<g id="node9" class="node"><title>Node9</title>
<g id="a_node9"><a xlink:href="../../d1/dc7/classview_1_1_side_bar.html#a7d73038dbba05f96990b60664afa2670" target="_top" xlink:title="view.SideBar.updateTurtle\lProperties">
<polygon fill="white" stroke="black" points="1354,-110 1354,-140 1492,-140 1492,-110 1354,-110"/>
<text text-anchor="start" x="1362" y="-128" font-family="Helvetica,sans-Serif" font-size="10.00">view.SideBar.updateTurtle</text>
<text text-anchor="middle" x="1423" y="-117" font-family="Helvetica,sans-Serif" font-size="10.00">Properties</text>
</a>
</g>
</g>
<!-- Node8&#45;&gt;Node9 -->
<g id="edge8" class="edge"><title>Node8&#45;&gt;Node9</title>
<path fill="none" stroke="midnightblue" d="M1289.71,-135.583C1306.95,-134.204 1325.63,-132.71 1343.36,-131.291"/>
<polygon fill="midnightblue" stroke="midnightblue" points="1343.99,-134.752 1353.68,-130.466 1343.43,-127.774 1343.99,-134.752"/>
</g>
<!-- Node10 -->
<g id="node10" class="node"><title>Node10</title>
<g id="a_node10"><a xlink:href="../../da/d64/classview_1_1_workspace.html#ad460da1164f039e5ea9a265d446d13fe" target="_top" xlink:title="view.Workspace.getTurtleMap">
<polygon fill="white" stroke="black" points="1530.5,-153.5 1530.5,-172.5 1685.5,-172.5 1685.5,-153.5 1530.5,-153.5"/>
<text text-anchor="middle" x="1608" y="-160.5" font-family="Helvetica,sans-Serif" font-size="10.00">view.Workspace.getTurtleMap</text>
</a>
</g>
</g>
<!-- Node9&#45;&gt;Node10 -->
<g id="edge9" class="edge"><title>Node9&#45;&gt;Node10</title>
<path fill="none" stroke="midnightblue" d="M1492.14,-139.15C1511.61,-143.192 1532.59,-147.549 1551.22,-151.418"/>
<polygon fill="midnightblue" stroke="midnightblue" points="1550.52,-154.846 1561.02,-153.452 1551.94,-147.992 1550.52,-154.846"/>
</g>
<!-- Node9&#45;&gt;Node11 -->
<g id="edge10" class="edge"><title>Node9&#45;&gt;Node11</title>
<path fill="none" stroke="midnightblue" d="M1447.5,-140.246C1468.03,-152.977 1499,-170.795 1528,-182 1534.45,-184.493 1541.33,-186.729 1548.24,-188.714"/>
<polygon fill="midnightblue" stroke="midnightblue" points="1547.77,-192.211 1558.33,-191.443 1549.59,-185.454 1547.77,-192.211"/>
</g>
<!-- Node12 -->
<g id="node12" class="node"><title>Node12</title>
<g id="a_node12"><a xlink:href="../../d8/df7/classview_1_1_turtle_view.html#afddbc74313a99bb100c8c50efa88f330" target="_top" xlink:title="view.TurtleView.getYCoord">
<polygon fill="white" stroke="black" points="1539.5,-115.5 1539.5,-134.5 1676.5,-134.5 1676.5,-115.5 1539.5,-115.5"/>
<text text-anchor="middle" x="1608" y="-122.5" font-family="Helvetica,sans-Serif" font-size="10.00">view.TurtleView.getYCoord</text>
</a>
</g>
</g>
<!-- Node9&#45;&gt;Node12 -->
<g id="edge11" class="edge"><title>Node9&#45;&gt;Node12</title>
<path fill="none" stroke="midnightblue" d="M1492.14,-125C1504.21,-125 1516.86,-125 1529.17,-125"/>
<polygon fill="midnightblue" stroke="midnightblue" points="1529.41,-128.5 1539.41,-125 1529.41,-121.5 1529.41,-128.5"/>
</g>
<!-- Node13 -->
<g id="node13" class="node"><title>Node13</title>
<g id="a_node13"><a xlink:href="../../d8/df7/classview_1_1_turtle_view.html#a5da3d4c9dafb77af0db0c589a72eadc8" target="_top" xlink:title="view.TurtleView.getHeading">
<polygon fill="white" stroke="black" points="1536,-77.5 1536,-96.5 1680,-96.5 1680,-77.5 1536,-77.5"/>
<text text-anchor="middle" x="1608" y="-84.5" font-family="Helvetica,sans-Serif" font-size="10.00">view.TurtleView.getHeading</text>
</a>
</g>
</g>
<!-- Node9&#45;&gt;Node13 -->
<g id="edge12" class="edge"><title>Node9&#45;&gt;Node13</title>
<path fill="none" stroke="midnightblue" d="M1492.14,-110.85C1511.61,-106.808 1532.59,-102.451 1551.22,-98.5821"/>
<polygon fill="midnightblue" stroke="midnightblue" points="1551.94,-102.008 1561.02,-96.5476 1550.52,-95.1539 1551.94,-102.008"/>
</g>
<!-- Node14 -->
<g id="node14" class="node"><title>Node14</title>
<g id="a_node14"><a xlink:href="../../d8/df7/classview_1_1_turtle_view.html#a85b9acc922cc69f27c79bf13e3356e09" target="_top" xlink:title="view.TurtleView.getPenPosition">
<polygon fill="white" stroke="black" points="1528,-39.5 1528,-58.5 1688,-58.5 1688,-39.5 1528,-39.5"/>
<text text-anchor="middle" x="1608" y="-46.5" font-family="Helvetica,sans-Serif" font-size="10.00">view.TurtleView.getPenPosition</text>
</a>
</g>
</g>
<!-- Node9&#45;&gt;Node14 -->
<g id="edge13" class="edge"><title>Node9&#45;&gt;Node14</title>
<path fill="none" stroke="midnightblue" d="M1447.5,-109.754C1468.03,-97.0227 1499,-79.2049 1528,-68 1534.45,-65.5065 1541.33,-63.271 1548.24,-61.2863"/>
<polygon fill="midnightblue" stroke="midnightblue" points="1549.59,-64.5463 1558.33,-58.5568 1547.77,-57.7891 1549.59,-64.5463"/>
</g>
<!-- Node15 -->
<g id="node15" class="node"><title>Node15</title>
<g id="a_node15"><a xlink:href="../../d8/df7/classview_1_1_turtle_view.html#a5f7b22cd8ab69258535b18920a488b63" target="_top" xlink:title="view.TurtleView.isShowing">
<polygon fill="white" stroke="black" points="1540,-1.5 1540,-20.5 1676,-20.5 1676,-1.5 1540,-1.5"/>
<text text-anchor="middle" x="1608" y="-8.5" font-family="Helvetica,sans-Serif" font-size="10.00">view.TurtleView.isShowing</text>
</a>
</g>
</g>
<!-- Node9&#45;&gt;Node15 -->
<g id="edge14" class="edge"><title>Node9&#45;&gt;Node15</title>
<path fill="none" stroke="midnightblue" d="M1436.07,-109.958C1453.9,-88.7951 1489.34,-50.5281 1528,-30 1532.48,-27.6216 1537.26,-25.5365 1542.17,-23.7092"/>
<polygon fill="midnightblue" stroke="midnightblue" points="1543.35,-27.0045 1551.71,-20.5037 1541.12,-20.3685 1543.35,-27.0045"/>
</g>
<!-- Node17 -->
<g id="node17" class="node"><title>Node17</title>
<g id="a_node17"><a xlink:href="../../d1/dca/classmodel_1_1_execution_environment.html#a93fd01341f06dfa81727344b120aef66" target="_top" xlink:title="model.ExecutionEnvironment.update\lObserver">
<polygon fill="white" stroke="black" points="1124,-75 1124,-105 1318,-105 1318,-75 1124,-75"/>
<text text-anchor="start" x="1132" y="-93" font-family="Helvetica,sans-Serif" font-size="10.00">model.ExecutionEnvironment.update</text>
<text text-anchor="middle" x="1221" y="-82" font-family="Helvetica,sans-Serif" font-size="10.00">Observer</text>
</a>
</g>
</g>
<!-- Node16&#45;&gt;Node17 -->
<g id="edge17" class="edge"><title>Node16&#45;&gt;Node17</title>
<path fill="none" stroke="midnightblue" d="M1088.21,-104.377C1096.64,-103.458 1105.23,-102.52 1113.8,-101.585"/>
<polygon fill="midnightblue" stroke="midnightblue" points="1114.27,-105.055 1123.83,-100.491 1113.51,-98.0965 1114.27,-105.055"/>
</g>
<!-- Node18&#45;&gt;Node17 -->
<g id="edge19" class="edge"><title>Node18&#45;&gt;Node17</title>
<path fill="none" stroke="midnightblue" d="M1086.63,-74.8448C1095.64,-75.8683 1104.87,-76.9167 1114.06,-77.9608"/>
<polygon fill="midnightblue" stroke="midnightblue" points="1113.67,-81.4392 1124,-79.0907 1114.46,-74.4839 1113.67,-81.4392"/>
</g>
</g>
</svg>
        <g id="navigator" transform="translate(0 0)" fill="#404254">
                <rect fill="#f2f5e9" fill-opacity="0.5" stroke="#606060" stroke-width=".5" x="0" y="0" width="60" height="60"/>
                <use id="zoomplus" xlink:href="#zoomPlus" x="17" y="9" onmousedown="handleZoom(evt,'in')"/>
                <use id="zoomminus" xlink:href="#zoomMin" x="42" y="9" onmousedown="handleZoom(evt,'out')"/>
                <use id="reset" xlink:href="#resetDef" x="30" y="36" onmousedown="handleReset()"/>
                <g id="arrowUp" xlink:href="#dirArrow" transform="translate(30 24)" onmousedown="handlePan(0,-1)">
                  <use xlink:href="#rim" fill="#404040">
                        <set attributeName="fill" to="#808080" begin="arrowUp.mouseover" end="arrowUp.mouseout"/>
                  </use>
                  <path fill="none" stroke="white" stroke-width="1.5" d="M0,-3.0v7 M-2.5,-0.5L0,-3.0L2.5,-0.5"/>
                </g>
                <g id="arrowRight" xlink:href="#dirArrow" transform="rotate(90) translate(36 -43)" onmousedown="handlePan(1,0)">
                  <use xlink:href="#rim" fill="#404040">
                        <set attributeName="fill" to="#808080" begin="arrowRight.mouseover" end="arrowRight.mouseout"/>
                  </use>
                  <path fill="none" stroke="white" stroke-width="1.5" d="M0,-3.0v7 M-2.5,-0.5L0,-3.0L2.5,-0.5"/>
                </g>
                <g id="arrowDown" xlink:href="#dirArrow" transform="rotate(180) translate(-30 -48)" onmousedown="handlePan(0,1)">
                  <use xlink:href="#rim" fill="#404040">
                        <set attributeName="fill" to="#808080" begin="arrowDown.mouseover" end="arrowDown.mouseout"/>
                  </use>
                  <path fill="none" stroke="white" stroke-width="1.5" d="M0,-3.0v7 M-2.5,-0.5L0,-3.0L2.5,-0.5"/>
                </g>
                <g id="arrowLeft" xlink:href="#dirArrow" transform="rotate(270) translate(-36 17)" onmousedown="handlePan(-1,0)">
                  <use xlink:href="#rim" fill="#404040">
                        <set attributeName="fill" to="#808080" begin="arrowLeft.mouseover" end="arrowLeft.mouseout"/>
                  </use>
                  <path fill="none" stroke="white" stroke-width="1.5" d="M0,-3.0v7 M-2.5,-0.5L0,-3.0L2.5,-0.5"/>
                </g>
        </g>
        <svg viewBox="0 0 15 15" width="100%" height="30px" preserveAspectRatio="xMaxYMin meet">
         <g id="arrow_out" transform="scale(0.3 0.3)">
          <a xlink:href="classview_1_1_main_view_a0424800b5057be73f94e16ef2e1e2b33_cgraph_org.svg" target="_base">
           <rect id="button" ry="5" rx="5" y="6" x="6" height="38" width="38"
                fill="#f2f5e9" fill-opacity="0.5" stroke="#606060" stroke-width="1.0"/>
           <path id="arrow"
             d="M 11.500037,31.436501 C 11.940474,20.09759 22.043105,11.32322 32.158766,21.979434 L 37.068811,17.246167 C 37.068811,17.246167 37.088388,32 37.088388,32 L 22.160133,31.978069 C 22.160133,31.978069 26.997745,27.140456 26.997745,27.140456 C 18.528582,18.264221 13.291696,25.230495 11.500037,31.436501 z"
             style="fill:#404040;"/>
          </a>
         </g>
        </svg>
</svg>
