<?xml version="1.0" encoding="UTF-8" standalone="no"?>
<!DOCTYPE svg PUBLIC "-//W3C//DTD SVG 1.1//EN"
 "http://www.w3.org/Graphics/SVG/1.1/DTD/svg11.dtd">
<!-- Generated by graphviz version 2.36.0 (20140111.2315)
 -->
<!-- Title: view.MainView.configureTopMenu Pages: 1 -->
<svg width="556pt" height="28pt"
 viewBox="0.00 0.00 556.00 28.00" xmlns="http://www.w3.org/2000/svg" xmlns:xlink="http://www.w3.org/1999/xlink">
<g id="graph0" class="graph" transform="scale(1 1) rotate(0) translate(4 24)">
<title>view.MainView.configureTopMenu</title>
<polygon fill="white" stroke="none" points="-4,4 -4,-24 552,-24 552,4 -4,4"/>
<!-- Node1 -->
<g id="node1" class="node"><title>Node1</title>
<polygon fill="#bfbfbf" stroke="black" points="0,-0.5 0,-19.5 172,-19.5 172,-0.5 0,-0.5"/>
<text text-anchor="middle" x="86" y="-7.5" font-family="Helvetica,sans-Serif" font-size="10.00">view.MainView.configureTopMenu</text>
</g>
<!-- Node2 -->
<g id="node2" class="node"><title>Node2</title>
<g id="a_node2"><a xlink:href="../../d1/d75/classview_1_1_main_view.html#aff9e267e9368512a16e425f08d7b3ea0" target="_top" xlink:title="view.MainView.initRowConstraints">
<polygon fill="white" stroke="black" points="208.5,-0.5 208.5,-19.5 381.5,-19.5 381.5,-0.5 208.5,-0.5"/>
<text text-anchor="middle" x="295" y="-7.5" font-family="Helvetica,sans-Serif" font-size="10.00">view.MainView.initRowConstraints</text>
</a>
</g>
</g>
<!-- Node1&#45;&gt;Node2 -->
<g id="edge1" class="edge"><title>Node1&#45;&gt;Node2</title>
<path fill="none" stroke="midnightblue" d="M182.224,-10C190.898,-10 199.651,-10 208.236,-10"/>
<polygon fill="midnightblue" stroke="midnightblue" points="182.091,-6.5001 172.091,-10 182.091,-13.5001 182.091,-6.5001"/>
</g>
<!-- Node3 -->
<g id="node3" class="node"><title>Node3</title>
<g id="a_node3"><a xlink:href="../../d1/d75/classview_1_1_main_view.html#a9e27015c007bed90f32c79fc1187083f" target="_top" xlink:title="view.MainView.MainView">
<polygon fill="white" stroke="black" points="418,-0.5 418,-19.5 548,-19.5 548,-0.5 418,-0.5"/>
<text text-anchor="middle" x="483" y="-7.5" font-family="Helvetica,sans-Serif" font-size="10.00">view.MainView.MainView</text>
</a>
</g>
</g>
<!-- Node2&#45;&gt;Node3 -->
<g id="edge2" class="edge"><title>Node2&#45;&gt;Node3</title>
<path fill="none" stroke="midnightblue" d="M391.682,-10C400.571,-10 409.426,-10 417.924,-10"/>
<polygon fill="midnightblue" stroke="midnightblue" points="391.65,-6.5001 381.65,-10 391.65,-13.5001 391.65,-6.5001"/>
</g>
</g>
</svg>
