<?xml version="1.0" encoding="UTF-8" standalone="no"?>
<!DOCTYPE svg PUBLIC "-//W3C//DTD SVG 1.1//EN"
 "http://www.w3.org/Graphics/SVG/1.1/DTD/svg11.dtd">
<!-- Generated by graphviz version 2.36.0 (20140111.2315)
 -->
<!-- Title: view.MainView.newTab Pages: 1 -->
<svg width="1692pt" height="207pt"
 viewBox="0.00 0.00 1692.00 207.00" xmlns="http://www.w3.org/2000/svg" xmlns:xlink="http://www.w3.org/1999/xlink">
<g id="graph0" class="graph" transform="scale(1 1) rotate(0) translate(4 203)">
<title>view.MainView.newTab</title>
<polygon fill="white" stroke="none" points="-4,4 -4,-203 1688,-203 1688,4 -4,4"/>
<!-- Node1 -->
<g id="node1" class="node"><title>Node1</title>
<polygon fill="#bfbfbf" stroke="black" points="0,-79.5 0,-98.5 120,-98.5 120,-79.5 0,-79.5"/>
<text text-anchor="middle" x="60" y="-86.5" font-family="Helvetica,sans-Serif" font-size="10.00">view.MainView.newTab</text>
</g>
<!-- Node2 -->
<g id="node2" class="node"><title>Node2</title>
<g id="a_node2"><a xlink:href="../../d6/de7/classview_1_1_s_logo_view.html#ae0050481c9168dd8eeb434d9aa79b047" target="_top" xlink:title="view.SLogoView.configureUI">
<polygon fill="white" stroke="black" points="156.5,-79.5 156.5,-98.5 303.5,-98.5 303.5,-79.5 156.5,-79.5"/>
<text text-anchor="middle" x="230" y="-86.5" font-family="Helvetica,sans-Serif" font-size="10.00">view.SLogoView.configureUI</text>
</a>
</g>
</g>
<!-- Node1&#45;&gt;Node2 -->
<g id="edge1" class="edge"><title>Node1&#45;&gt;Node2</title>
<path fill="none" stroke="midnightblue" d="M120.231,-89C128.65,-89 137.434,-89 146.201,-89"/>
<polygon fill="midnightblue" stroke="midnightblue" points="146.462,-92.5001 156.461,-89 146.461,-85.5001 146.462,-92.5001"/>
</g>
<!-- Node3 -->
<g id="node3" class="node"><title>Node3</title>
<g id="a_node3"><a xlink:href="../../d6/de7/classview_1_1_s_logo_view.html#acaf3f13ffb1cb6bbab33a6560cc80757" target="_top" xlink:title="view.SLogoView.setGridPane\lConstraints">
<polygon fill="white" stroke="black" points="340.5,-148 340.5,-178 491.5,-178 491.5,-148 340.5,-148"/>
<text text-anchor="start" x="348.5" y="-166" font-family="Helvetica,sans-Serif" font-size="10.00">view.SLogoView.setGridPane</text>
<text text-anchor="middle" x="416" y="-155" font-family="Helvetica,sans-Serif" font-size="10.00">Constraints</text>
</a>
</g>
</g>
<!-- Node2&#45;&gt;Node3 -->
<g id="edge2" class="edge"><title>Node2&#45;&gt;Node3</title>
<path fill="none" stroke="midnightblue" d="M250.833,-98.6433C272.484,-108.998 308.302,-125.629 340,-138 345.79,-140.26 351.878,-142.502 357.977,-144.663"/>
<polygon fill="midnightblue" stroke="midnightblue" points="356.936,-148.006 367.531,-147.981 359.233,-141.394 356.936,-148.006"/>
</g>
<!-- Node4 -->
<g id="node4" class="node"><title>Node4</title>
<g id="a_node4"><a xlink:href="../../d6/de7/classview_1_1_s_logo_view.html#acf432f20e1a7dda7bef97f0619fb0fa5" target="_top" xlink:title="view.SLogoView.configure\lAddTurtlesButton">
<polygon fill="white" stroke="black" points="347.5,-99 347.5,-129 484.5,-129 484.5,-99 347.5,-99"/>
<text text-anchor="start" x="355.5" y="-117" font-family="Helvetica,sans-Serif" font-size="10.00">view.SLogoView.configure</text>
<text text-anchor="middle" x="416" y="-106" font-family="Helvetica,sans-Serif" font-size="10.00">AddTurtlesButton</text>
</a>
</g>
</g>
<!-- Node2&#45;&gt;Node4 -->
<g id="edge3" class="edge"><title>Node2&#45;&gt;Node4</title>
<path fill="none" stroke="midnightblue" d="M301.087,-98.5227C312.91,-100.129 325.244,-101.805 337.247,-103.436"/>
<polygon fill="midnightblue" stroke="midnightblue" points="336.853,-106.914 347.233,-104.793 337.796,-99.978 336.853,-106.914"/>
</g>
<!-- Node18 -->
<g id="node18" class="node"><title>Node18</title>
<g id="a_node18"><a xlink:href="../../d6/de7/classview_1_1_s_logo_view.html#a31631c7a3cc6121d871884bc396cf934" target="_top" xlink:title="view.SLogoView.createNew\lParser">
<polygon fill="white" stroke="black" points="344,-50 344,-80 488,-80 488,-50 344,-50"/>
<text text-anchor="start" x="352" y="-68" font-family="Helvetica,sans-Serif" font-size="10.00">view.SLogoView.createNew</text>
<text text-anchor="middle" x="416" y="-57" font-family="Helvetica,sans-Serif" font-size="10.00">Parser</text>
</a>
</g>
</g>
<!-- Node2&#45;&gt;Node18 -->
<g id="edge19" class="edge"><title>Node2&#45;&gt;Node18</title>
<path fill="none" stroke="midnightblue" d="M303.722,-79.5146C313.591,-78.2273 323.77,-76.8995 333.777,-75.5943"/>
<polygon fill="midnightblue" stroke="midnightblue" points="334.245,-79.063 343.709,-74.2989 333.34,-72.1218 334.245,-79.063"/>
</g>
<!-- Node19 -->
<g id="node19" class="node"><title>Node19</title>
<g id="a_node19"><a xlink:href="../../dc/d3c/classview_1_1_customization_bar.html#a65f9fa71a815439e9030659d6647887f" target="_top" xlink:title="view.CustomizationBar.set\lParser">
<polygon fill="white" stroke="black" points="345,-1 345,-31 487,-31 487,-1 345,-1"/>
<text text-anchor="start" x="353" y="-19" font-family="Helvetica,sans-Serif" font-size="10.00">view.CustomizationBar.set</text>
<text text-anchor="middle" x="416" y="-8" font-family="Helvetica,sans-Serif" font-size="10.00">Parser</text>
</a>
</g>
</g>
<!-- Node2&#45;&gt;Node19 -->
<g id="edge20" class="edge"><title>Node2&#45;&gt;Node19</title>
<path fill="none" stroke="midnightblue" d="M251.254,-79.4024C272.964,-69.2757 308.556,-53.1339 340,-41 345.798,-38.7625 351.892,-36.5344 357.995,-34.3824"/>
<polygon fill="midnightblue" stroke="midnightblue" points="359.248,-37.6525 367.552,-31.0728 356.957,-31.0379 359.248,-37.6525"/>
</g>
<!-- Node5 -->
<g id="node5" class="node"><title>Node5</title>
<g id="a_node5"><a xlink:href="../../da/d64/classview_1_1_workspace.html#a4abde41a3048fa8f64ddfec40c8ffdb7" target="_top" xlink:title="view.Workspace.addTurtle">
<polygon fill="white" stroke="black" points="528.5,-104.5 528.5,-123.5 665.5,-123.5 665.5,-104.5 528.5,-104.5"/>
<text text-anchor="middle" x="597" y="-111.5" font-family="Helvetica,sans-Serif" font-size="10.00">view.Workspace.addTurtle</text>
</a>
</g>
</g>
<!-- Node4&#45;&gt;Node5 -->
<g id="edge4" class="edge"><title>Node4&#45;&gt;Node5</title>
<path fill="none" stroke="midnightblue" d="M484.672,-114C495.587,-114 506.964,-114 518.097,-114"/>
<polygon fill="midnightblue" stroke="midnightblue" points="518.232,-117.5 528.232,-114 518.232,-110.5 518.232,-117.5"/>
</g>
<!-- Node6 -->
<g id="node6" class="node"><title>Node6</title>
<g id="a_node6"><a xlink:href="../../da/d64/classview_1_1_workspace.html#a9eea72f983d5e7ad5af85056d927e380" target="_top" xlink:title="view.Workspace.configure\lTurtleEventHandler">
<polygon fill="white" stroke="black" points="722.5,-148 722.5,-178 859.5,-178 859.5,-148 722.5,-148"/>
<text text-anchor="start" x="730.5" y="-166" font-family="Helvetica,sans-Serif" font-size="10.00">view.Workspace.configure</text>
<text text-anchor="middle" x="791" y="-155" font-family="Helvetica,sans-Serif" font-size="10.00">TurtleEventHandler</text>
</a>
</g>
</g>
<!-- Node5&#45;&gt;Node6 -->
<g id="edge5" class="edge"><title>Node5&#45;&gt;Node6</title>
<path fill="none" stroke="midnightblue" d="M635.475,-123.564C659.783,-129.768 692.186,-138.037 721.041,-145.401"/>
<polygon fill="midnightblue" stroke="midnightblue" points="720.525,-148.881 731.08,-147.963 722.256,-142.099 720.525,-148.881"/>
</g>
<!-- Node15 -->
<g id="node15" class="node"><title>Node15</title>
<g id="a_node15"><a xlink:href="../../d1/dca/classmodel_1_1_execution_environment.html#a96986e0e8de018fd9b1b2bf79de862e1" target="_top" xlink:title="model.ExecutionEnvironment.add\lTurtle">
<polygon fill="white" stroke="black" points="702,-99 702,-129 880,-129 880,-99 702,-99"/>
<text text-anchor="start" x="710" y="-117" font-family="Helvetica,sans-Serif" font-size="10.00">model.ExecutionEnvironment.add</text>
<text text-anchor="middle" x="791" y="-106" font-family="Helvetica,sans-Serif" font-size="10.00">Turtle</text>
</a>
</g>
</g>
<!-- Node5&#45;&gt;Node15 -->
<g id="edge15" class="edge"><title>Node5&#45;&gt;Node15</title>
<path fill="none" stroke="midnightblue" d="M665.692,-114C674.073,-114 682.77,-114 691.494,-114"/>
<polygon fill="midnightblue" stroke="midnightblue" points="691.731,-117.5 701.731,-114 691.731,-110.5 691.731,-117.5"/>
</g>
<!-- Node17 -->
<g id="node17" class="node"><title>Node17</title>
<g id="a_node17"><a xlink:href="../../d1/dca/classmodel_1_1_execution_environment.html#a472ef4da5205b0e95ec51fdbf52f654a" target="_top" xlink:title="model.ExecutionEnvironment.set\lActiveTurtle">
<polygon fill="white" stroke="black" points="703.5,-50 703.5,-80 878.5,-80 878.5,-50 703.5,-50"/>
<text text-anchor="start" x="711.5" y="-68" font-family="Helvetica,sans-Serif" font-size="10.00">model.ExecutionEnvironment.set</text>
<text text-anchor="middle" x="791" y="-57" font-family="Helvetica,sans-Serif" font-size="10.00">ActiveTurtle</text>
</a>
</g>
</g>
<!-- Node5&#45;&gt;Node17 -->
<g id="edge17" class="edge"><title>Node5&#45;&gt;Node17</title>
<path fill="none" stroke="midnightblue" d="M635.475,-104.436C659.783,-98.2324 692.186,-89.9629 721.041,-82.599"/>
<polygon fill="midnightblue" stroke="midnightblue" points="722.256,-85.9012 731.08,-80.037 720.525,-79.1186 722.256,-85.9012"/>
</g>
<!-- Node7 -->
<g id="node7" class="node"><title>Node7</title>
<g id="a_node7"><a xlink:href="../../da/d64/classview_1_1_workspace.html#a16bda9a6a7fe7f8d3d7b09108675f9c4" target="_top" xlink:title="view.Workspace.setActive\lTurtle">
<polygon fill="white" stroke="black" points="944.5,-126 944.5,-156 1081.5,-156 1081.5,-126 944.5,-126"/>
<text text-anchor="start" x="952.5" y="-144" font-family="Helvetica,sans-Serif" font-size="10.00">view.Workspace.setActive</text>
<text text-anchor="middle" x="1013" y="-133" font-family="Helvetica,sans-Serif" font-size="10.00">Turtle</text>
</a>
</g>
</g>
<!-- Node6&#45;&gt;Node7 -->
<g id="edge6" class="edge"><title>Node6&#45;&gt;Node7</title>
<path fill="none" stroke="midnightblue" d="M859.502,-156.25C883.043,-153.896 909.652,-151.235 933.977,-148.802"/>
<polygon fill="midnightblue" stroke="midnightblue" points="934.644,-152.253 944.246,-147.775 933.948,-145.288 934.644,-152.253"/>
</g>
<!-- Node11 -->
<g id="node11" class="node"><title>Node11</title>
<g id="a_node11"><a xlink:href="../../d8/df7/classview_1_1_turtle_view.html#ab5fdc3775e06339f4a68d1b795a81643" target="_top" xlink:title="view.TurtleView.getID">
<polygon fill="white" stroke="black" points="1549,-179.5 1549,-198.5 1663,-198.5 1663,-179.5 1549,-179.5"/>
<text text-anchor="middle" x="1606" y="-186.5" font-family="Helvetica,sans-Serif" font-size="10.00">view.TurtleView.getID</text>
</a>
</g>
</g>
<!-- Node6&#45;&gt;Node11 -->
<g id="edge14" class="edge"><title>Node6&#45;&gt;Node11</title>
<path fill="none" stroke="midnightblue" d="M859.57,-165.161C1013.03,-170.069 1386.31,-182.006 1538.62,-186.877"/>
<polygon fill="midnightblue" stroke="midnightblue" points="1538.66,-190.38 1548.77,-187.202 1538.88,-183.384 1538.66,-190.38"/>
</g>
<!-- Node8 -->
<g id="node8" class="node"><title>Node8</title>
<g id="a_node8"><a xlink:href="../../d1/dc7/classview_1_1_side_bar.html#a7d73038dbba05f96990b60664afa2670" target="_top" xlink:title="view.SideBar.updateTurtle\lProperties">
<polygon fill="white" stroke="black" points="1146,-110 1146,-140 1284,-140 1284,-110 1146,-110"/>
<text text-anchor="start" x="1154" y="-128" font-family="Helvetica,sans-Serif" font-size="10.00">view.SideBar.updateTurtle</text>
<text text-anchor="middle" x="1215" y="-117" font-family="Helvetica,sans-Serif" font-size="10.00">Properties</text>
</a>
</g>
</g>
<!-- Node7&#45;&gt;Node8 -->
<g id="edge7" class="edge"><title>Node7&#45;&gt;Node8</title>
<path fill="none" stroke="midnightblue" d="M1081.71,-135.583C1098.95,-134.204 1117.63,-132.71 1135.36,-131.291"/>
<polygon fill="midnightblue" stroke="midnightblue" points="1135.99,-134.752 1145.68,-130.466 1135.43,-127.774 1135.99,-134.752"/>
</g>
<!-- Node9 -->
<g id="node9" class="node"><title>Node9</title>
<g id="a_node9"><a xlink:href="../../d9/d3a/classview_1_1_turtle_properties_view.html#af07bce3cf2bed2814a0fb3812d00b69e" target="_top" xlink:title="view.TurtlePropertiesView.update">
<polygon fill="white" stroke="black" points="1320.5,-107.5 1320.5,-126.5 1491.5,-126.5 1491.5,-107.5 1320.5,-107.5"/>
<text text-anchor="middle" x="1406" y="-114.5" font-family="Helvetica,sans-Serif" font-size="10.00">view.TurtlePropertiesView.update</text>
</a>
</g>
</g>
<!-- Node8&#45;&gt;Node9 -->
<g id="edge8" class="edge"><title>Node8&#45;&gt;Node9</title>
<path fill="none" stroke="midnightblue" d="M1284.23,-122.112C1292.67,-121.755 1301.41,-121.385 1310.15,-121.015"/>
<polygon fill="midnightblue" stroke="midnightblue" points="1310.56,-124.501 1320.4,-120.581 1310.26,-117.507 1310.56,-124.501"/>
</g>
<!-- Node10 -->
<g id="node10" class="node"><title>Node10</title>
<g id="a_node10"><a xlink:href="../../da/d64/classview_1_1_workspace.html#ad460da1164f039e5ea9a265d446d13fe" target="_top" xlink:title="view.Workspace.getTurtleMap">
<polygon fill="white" stroke="black" points="1528.5,-103.5 1528.5,-122.5 1683.5,-122.5 1683.5,-103.5 1528.5,-103.5"/>
<text text-anchor="middle" x="1606" y="-110.5" font-family="Helvetica,sans-Serif" font-size="10.00">view.Workspace.getTurtleMap</text>
</a>
</g>
</g>
<!-- Node9&#45;&gt;Node10 -->
<g id="edge9" class="edge"><title>Node9&#45;&gt;Node10</title>
<path fill="none" stroke="midnightblue" d="M1491.54,-115.292C1500.31,-115.115 1509.23,-114.935 1518.02,-114.757"/>
<polygon fill="midnightblue" stroke="midnightblue" points="1518.33,-118.252 1528.26,-114.55 1518.19,-111.253 1518.33,-118.252"/>
</g>
<!-- Node9&#45;&gt;Node11 -->
<g id="edge10" class="edge"><title>Node9&#45;&gt;Node11</title>
<path fill="none" stroke="midnightblue" d="M1426.29,-126.681C1449.84,-138.205 1491.08,-157.463 1528,-170 1535.33,-172.491 1543.16,-174.804 1550.91,-176.898"/>
<polygon fill="midnightblue" stroke="midnightblue" points="1550.09,-180.3 1560.65,-179.429 1551.85,-173.525 1550.09,-180.3"/>
</g>
<!-- Node12 -->
<g id="node12" class="node"><title>Node12</title>
<g id="a_node12"><a xlink:href="../../d8/df7/classview_1_1_turtle_view.html#afddbc74313a99bb100c8c50efa88f330" target="_top" xlink:title="view.TurtleView.getYCoord">
<polygon fill="white" stroke="black" points="1537.5,-65.5 1537.5,-84.5 1674.5,-84.5 1674.5,-65.5 1537.5,-65.5"/>
<text text-anchor="middle" x="1606" y="-72.5" font-family="Helvetica,sans-Serif" font-size="10.00">view.TurtleView.getYCoord</text>
</a>
</g>
</g>
<!-- Node9&#45;&gt;Node12 -->
<g id="edge11" class="edge"><title>Node9&#45;&gt;Node12</title>
<path fill="none" stroke="midnightblue" d="M1451.93,-107.47C1480.94,-101.316 1518.89,-93.2667 1549.74,-86.7222"/>
<polygon fill="midnightblue" stroke="midnightblue" points="1550.85,-90.0643 1559.91,-84.5653 1549.4,-83.2166 1550.85,-90.0643"/>
</g>
<!-- Node13 -->
<g id="node13" class="node"><title>Node13</title>
<g id="a_node13"><a xlink:href="../../d8/df7/classview_1_1_turtle_view.html#a5da3d4c9dafb77af0db0c589a72eadc8" target="_top" xlink:title="view.TurtleView.getHeading">
<polygon fill="white" stroke="black" points="1534,-27.5 1534,-46.5 1678,-46.5 1678,-27.5 1534,-27.5"/>
<text text-anchor="middle" x="1606" y="-34.5" font-family="Helvetica,sans-Serif" font-size="10.00">view.TurtleView.getHeading</text>
</a>
</g>
</g>
<!-- Node9&#45;&gt;Node13 -->
<g id="edge12" class="edge"><title>Node9&#45;&gt;Node13</title>
<path fill="none" stroke="midnightblue" d="M1423.3,-107.287C1446.05,-94.0799 1488.95,-70.4516 1528,-56 1534.75,-53.5031 1541.95,-51.234 1549.14,-49.2037"/>
<polygon fill="midnightblue" stroke="midnightblue" points="1550.14,-52.5591 1558.89,-46.5841 1548.32,-45.7988 1550.14,-52.5591"/>
</g>
<!-- Node14 -->
<g id="node14" class="node"><title>Node14</title>
<g id="a_node14"><a xlink:href="../../d5/dea/classview_1_1_side_table_view.html#adbdf2bf0ebf7fc8ab04db2087baea03a" target="_top" xlink:title="view.SideTableView.getTable">
<polygon fill="white" stroke="black" points="1532,-141.5 1532,-160.5 1680,-160.5 1680,-141.5 1532,-141.5"/>
<text text-anchor="middle" x="1606" y="-148.5" font-family="Helvetica,sans-Serif" font-size="10.00">view.SideTableView.getTable</text>
</a>
</g>
</g>
<!-- Node9&#45;&gt;Node14 -->
<g id="edge13" class="edge"><title>Node9&#45;&gt;Node14</title>
<path fill="none" stroke="midnightblue" d="M1462.42,-126.516C1486.35,-130.626 1514.52,-135.464 1539.48,-139.75"/>
<polygon fill="midnightblue" stroke="midnightblue" points="1539.15,-143.243 1549.6,-141.486 1540.33,-136.344 1539.15,-143.243"/>
</g>
<!-- Node16 -->
<g id="node16" class="node"><title>Node16</title>
<g id="a_node16"><a xlink:href="../../d1/dca/classmodel_1_1_execution_environment.html#a93fd01341f06dfa81727344b120aef66" target="_top" xlink:title="model.ExecutionEnvironment.update\lObserver">
<polygon fill="white" stroke="black" points="916,-75 916,-105 1110,-105 1110,-75 916,-75"/>
<text text-anchor="start" x="924" y="-93" font-family="Helvetica,sans-Serif" font-size="10.00">model.ExecutionEnvironment.update</text>
<text text-anchor="middle" x="1013" y="-82" font-family="Helvetica,sans-Serif" font-size="10.00">Observer</text>
</a>
</g>
</g>
<!-- Node15&#45;&gt;Node16 -->
<g id="edge16" class="edge"><title>Node15&#45;&gt;Node16</title>
<path fill="none" stroke="midnightblue" d="M880.215,-104.377C888.635,-103.458 897.233,-102.52 905.8,-101.585"/>
<polygon fill="midnightblue" stroke="midnightblue" points="906.268,-105.055 915.83,-100.491 905.509,-98.0965 906.268,-105.055"/>
</g>
<!-- Node17&#45;&gt;Node16 -->
<g id="edge18" class="edge"><title>Node17&#45;&gt;Node16</title>
<path fill="none" stroke="midnightblue" d="M878.634,-74.8448C887.641,-75.8683 896.867,-76.9167 906.055,-77.9608"/>
<polygon fill="midnightblue" stroke="midnightblue" points="905.667,-81.4392 915.999,-79.0907 906.458,-74.4839 905.667,-81.4392"/>
</g>
</g>
</svg>
