<?xml version="1.0" encoding="UTF-8" standalone="no"?>
<!DOCTYPE svg PUBLIC "-//W3C//DTD SVG 1.1//EN"
 "http://www.w3.org/Graphics/SVG/1.1/DTD/svg11.dtd">
<!-- Generated by graphviz version 2.36.0 (20140111.2315)
 -->
<!-- Title: view.MainView.initTabs Pages: 1 -->
<svg width="1694pt" height="207pt"
 viewBox="0.00 0.00 1694.00 207.00" xmlns="http://www.w3.org/2000/svg" xmlns:xlink="http://www.w3.org/1999/xlink">
<g id="graph0" class="graph" transform="scale(1 1) rotate(0) translate(4 203)">
<title>view.MainView.initTabs</title>
<polygon fill="white" stroke="none" points="-4,4 -4,-203 1690,-203 1690,4 -4,4"/>
<!-- Node1 -->
<g id="node1" class="node"><title>Node1</title>
<polygon fill="#bfbfbf" stroke="black" points="0.5,-79.5 0.5,-98.5 121.5,-98.5 121.5,-79.5 0.5,-79.5"/>
<text text-anchor="middle" x="61" y="-86.5" font-family="Helvetica,sans-Serif" font-size="10.00">view.MainView.initTabs</text>
</g>
<!-- Node2 -->
<g id="node2" class="node"><title>Node2</title>
<g id="a_node2"><a xlink:href="../../d6/de7/classview_1_1_s_logo_view.html#ae0050481c9168dd8eeb434d9aa79b047" target="_top" xlink:title="view.SLogoView.configureUI">
<polygon fill="white" stroke="black" points="158.5,-79.5 158.5,-98.5 305.5,-98.5 305.5,-79.5 158.5,-79.5"/>
<text text-anchor="middle" x="232" y="-86.5" font-family="Helvetica,sans-Serif" font-size="10.00">view.SLogoView.configureUI</text>
</a>
</g>
</g>
<!-- Node1&#45;&gt;Node2 -->
<g id="edge1" class="edge"><title>Node1&#45;&gt;Node2</title>
<path fill="none" stroke="midnightblue" d="M121.583,-89C130.214,-89 139.226,-89 148.211,-89"/>
<polygon fill="midnightblue" stroke="midnightblue" points="148.324,-92.5001 158.324,-89 148.324,-85.5001 148.324,-92.5001"/>
</g>
<!-- Node3 -->
<g id="node3" class="node"><title>Node3</title>
<g id="a_node3"><a xlink:href="../../d6/de7/classview_1_1_s_logo_view.html#acaf3f13ffb1cb6bbab33a6560cc80757" target="_top" xlink:title="view.SLogoView.setGridPane\lConstraints">
<polygon fill="white" stroke="black" points="342.5,-148 342.5,-178 493.5,-178 493.5,-148 342.5,-148"/>
<text text-anchor="start" x="350.5" y="-166" font-family="Helvetica,sans-Serif" font-size="10.00">view.SLogoView.setGridPane</text>
<text text-anchor="middle" x="418" y="-155" font-family="Helvetica,sans-Serif" font-size="10.00">Constraints</text>
</a>
</g>
</g>
<!-- Node2&#45;&gt;Node3 -->
<g id="edge2" class="edge"><title>Node2&#45;&gt;Node3</title>
<path fill="none" stroke="midnightblue" d="M252.833,-98.6433C274.484,-108.998 310.302,-125.629 342,-138 347.79,-140.26 353.878,-142.502 359.977,-144.663"/>
<polygon fill="midnightblue" stroke="midnightblue" points="358.936,-148.006 369.531,-147.981 361.233,-141.394 358.936,-148.006"/>
</g>
<!-- Node4 -->
<g id="node4" class="node"><title>Node4</title>
<g id="a_node4"><a xlink:href="../../d6/de7/classview_1_1_s_logo_view.html#acf432f20e1a7dda7bef97f0619fb0fa5" target="_top" xlink:title="view.SLogoView.configure\lAddTurtlesButton">
<polygon fill="white" stroke="black" points="349.5,-99 349.5,-129 486.5,-129 486.5,-99 349.5,-99"/>
<text text-anchor="start" x="357.5" y="-117" font-family="Helvetica,sans-Serif" font-size="10.00">view.SLogoView.configure</text>
<text text-anchor="middle" x="418" y="-106" font-family="Helvetica,sans-Serif" font-size="10.00">AddTurtlesButton</text>
</a>
</g>
</g>
<!-- Node2&#45;&gt;Node4 -->
<g id="edge3" class="edge"><title>Node2&#45;&gt;Node4</title>
<path fill="none" stroke="midnightblue" d="M303.087,-98.5227C314.91,-100.129 327.244,-101.805 339.247,-103.436"/>
<polygon fill="midnightblue" stroke="midnightblue" points="338.853,-106.914 349.233,-104.793 339.796,-99.978 338.853,-106.914"/>
</g>
<!-- Node18 -->
<g id="node18" class="node"><title>Node18</title>
<g id="a_node18"><a xlink:href="../../d6/de7/classview_1_1_s_logo_view.html#a31631c7a3cc6121d871884bc396cf934" target="_top" xlink:title="view.SLogoView.createNew\lParser">
<polygon fill="white" stroke="black" points="346,-50 346,-80 490,-80 490,-50 346,-50"/>
<text text-anchor="start" x="354" y="-68" font-family="Helvetica,sans-Serif" font-size="10.00">view.SLogoView.createNew</text>
<text text-anchor="middle" x="418" y="-57" font-family="Helvetica,sans-Serif" font-size="10.00">Parser</text>
</a>
</g>
</g>
<!-- Node2&#45;&gt;Node18 -->
<g id="edge19" class="edge"><title>Node2&#45;&gt;Node18</title>
<path fill="none" stroke="midnightblue" d="M305.722,-79.5146C315.591,-78.2273 325.77,-76.8995 335.777,-75.5943"/>
<polygon fill="midnightblue" stroke="midnightblue" points="336.245,-79.063 345.709,-74.2989 335.34,-72.1218 336.245,-79.063"/>
</g>
<!-- Node19 -->
<g id="node19" class="node"><title>Node19</title>
<g id="a_node19"><a xlink:href="../../dc/d3c/classview_1_1_customization_bar.html#a65f9fa71a815439e9030659d6647887f" target="_top" xlink:title="view.CustomizationBar.set\lParser">
<polygon fill="white" stroke="black" points="347,-1 347,-31 489,-31 489,-1 347,-1"/>
<text text-anchor="start" x="355" y="-19" font-family="Helvetica,sans-Serif" font-size="10.00">view.CustomizationBar.set</text>
<text text-anchor="middle" x="418" y="-8" font-family="Helvetica,sans-Serif" font-size="10.00">Parser</text>
</a>
</g>
</g>
<!-- Node2&#45;&gt;Node19 -->
<g id="edge20" class="edge"><title>Node2&#45;&gt;Node19</title>
<path fill="none" stroke="midnightblue" d="M253.254,-79.4024C274.964,-69.2757 310.556,-53.1339 342,-41 347.798,-38.7625 353.892,-36.5344 359.995,-34.3824"/>
<polygon fill="midnightblue" stroke="midnightblue" points="361.248,-37.6525 369.552,-31.0728 358.957,-31.0379 361.248,-37.6525"/>
</g>
<!-- Node5 -->
<g id="node5" class="node"><title>Node5</title>
<g id="a_node5"><a xlink:href="../../da/d64/classview_1_1_workspace.html#a4abde41a3048fa8f64ddfec40c8ffdb7" target="_top" xlink:title="view.Workspace.addTurtle">
<polygon fill="white" stroke="black" points="530.5,-104.5 530.5,-123.5 667.5,-123.5 667.5,-104.5 530.5,-104.5"/>
<text text-anchor="middle" x="599" y="-111.5" font-family="Helvetica,sans-Serif" font-size="10.00">view.Workspace.addTurtle</text>
</a>
</g>
</g>
<!-- Node4&#45;&gt;Node5 -->
<g id="edge4" class="edge"><title>Node4&#45;&gt;Node5</title>
<path fill="none" stroke="midnightblue" d="M486.672,-114C497.587,-114 508.964,-114 520.097,-114"/>
<polygon fill="midnightblue" stroke="midnightblue" points="520.232,-117.5 530.232,-114 520.232,-110.5 520.232,-117.5"/>
</g>
<!-- Node6 -->
<g id="node6" class="node"><title>Node6</title>
<g id="a_node6"><a xlink:href="../../da/d64/classview_1_1_workspace.html#a9eea72f983d5e7ad5af85056d927e380" target="_top" xlink:title="view.Workspace.configure\lTurtleEventHandler">
<polygon fill="white" stroke="black" points="724.5,-148 724.5,-178 861.5,-178 861.5,-148 724.5,-148"/>
<text text-anchor="start" x="732.5" y="-166" font-family="Helvetica,sans-Serif" font-size="10.00">view.Workspace.configure</text>
<text text-anchor="middle" x="793" y="-155" font-family="Helvetica,sans-Serif" font-size="10.00">TurtleEventHandler</text>
</a>
</g>
</g>
<!-- Node5&#45;&gt;Node6 -->
<g id="edge5" class="edge"><title>Node5&#45;&gt;Node6</title>
<path fill="none" stroke="midnightblue" d="M637.475,-123.564C661.783,-129.768 694.186,-138.037 723.041,-145.401"/>
<polygon fill="midnightblue" stroke="midnightblue" points="722.525,-148.881 733.08,-147.963 724.256,-142.099 722.525,-148.881"/>
</g>
<!-- Node15 -->
<g id="node15" class="node"><title>Node15</title>
<g id="a_node15"><a xlink:href="../../d1/dca/classmodel_1_1_execution_environment.html#a96986e0e8de018fd9b1b2bf79de862e1" target="_top" xlink:title="model.ExecutionEnvironment.add\lTurtle">
<polygon fill="white" stroke="black" points="704,-99 704,-129 882,-129 882,-99 704,-99"/>
<text text-anchor="start" x="712" y="-117" font-family="Helvetica,sans-Serif" font-size="10.00">model.ExecutionEnvironment.add</text>
<text text-anchor="middle" x="793" y="-106" font-family="Helvetica,sans-Serif" font-size="10.00">Turtle</text>
</a>
</g>
</g>
<!-- Node5&#45;&gt;Node15 -->
<g id="edge15" class="edge"><title>Node5&#45;&gt;Node15</title>
<path fill="none" stroke="midnightblue" d="M667.692,-114C676.073,-114 684.77,-114 693.494,-114"/>
<polygon fill="midnightblue" stroke="midnightblue" points="693.731,-117.5 703.731,-114 693.731,-110.5 693.731,-117.5"/>
</g>
<!-- Node17 -->
<g id="node17" class="node"><title>Node17</title>
<g id="a_node17"><a xlink:href="../../d1/dca/classmodel_1_1_execution_environment.html#a472ef4da5205b0e95ec51fdbf52f654a" target="_top" xlink:title="model.ExecutionEnvironment.set\lActiveTurtle">
<polygon fill="white" stroke="black" points="705.5,-50 705.5,-80 880.5,-80 880.5,-50 705.5,-50"/>
<text text-anchor="start" x="713.5" y="-68" font-family="Helvetica,sans-Serif" font-size="10.00">model.ExecutionEnvironment.set</text>
<text text-anchor="middle" x="793" y="-57" font-family="Helvetica,sans-Serif" font-size="10.00">ActiveTurtle</text>
</a>
</g>
</g>
<!-- Node5&#45;&gt;Node17 -->
<g id="edge17" class="edge"><title>Node5&#45;&gt;Node17</title>
<path fill="none" stroke="midnightblue" d="M637.475,-104.436C661.783,-98.2324 694.186,-89.9629 723.041,-82.599"/>
<polygon fill="midnightblue" stroke="midnightblue" points="724.256,-85.9012 733.08,-80.037 722.525,-79.1186 724.256,-85.9012"/>
</g>
<!-- Node7 -->
<g id="node7" class="node"><title>Node7</title>
<g id="a_node7"><a xlink:href="../../da/d64/classview_1_1_workspace.html#a16bda9a6a7fe7f8d3d7b09108675f9c4" target="_top" xlink:title="view.Workspace.setActive\lTurtle">
<polygon fill="white" stroke="black" points="946.5,-126 946.5,-156 1083.5,-156 1083.5,-126 946.5,-126"/>
<text text-anchor="start" x="954.5" y="-144" font-family="Helvetica,sans-Serif" font-size="10.00">view.Workspace.setActive</text>
<text text-anchor="middle" x="1015" y="-133" font-family="Helvetica,sans-Serif" font-size="10.00">Turtle</text>
</a>
</g>
</g>
<!-- Node6&#45;&gt;Node7 -->
<g id="edge6" class="edge"><title>Node6&#45;&gt;Node7</title>
<path fill="none" stroke="midnightblue" d="M861.502,-156.25C885.043,-153.896 911.652,-151.235 935.977,-148.802"/>
<polygon fill="midnightblue" stroke="midnightblue" points="936.644,-152.253 946.246,-147.775 935.948,-145.288 936.644,-152.253"/>
</g>
<!-- Node11 -->
<g id="node11" class="node"><title>Node11</title>
<g id="a_node11"><a xlink:href="../../d8/df7/classview_1_1_turtle_view.html#ab5fdc3775e06339f4a68d1b795a81643" target="_top" xlink:title="view.TurtleView.getID">
<polygon fill="white" stroke="black" points="1551,-179.5 1551,-198.5 1665,-198.5 1665,-179.5 1551,-179.5"/>
<text text-anchor="middle" x="1608" y="-186.5" font-family="Helvetica,sans-Serif" font-size="10.00">view.TurtleView.getID</text>
</a>
</g>
</g>
<!-- Node6&#45;&gt;Node11 -->
<g id="edge14" class="edge"><title>Node6&#45;&gt;Node11</title>
<path fill="none" stroke="midnightblue" d="M861.57,-165.161C1015.03,-170.069 1388.31,-182.006 1540.62,-186.877"/>
<polygon fill="midnightblue" stroke="midnightblue" points="1540.66,-190.38 1550.77,-187.202 1540.88,-183.384 1540.66,-190.38"/>
</g>
<!-- Node8 -->
<g id="node8" class="node"><title>Node8</title>
<g id="a_node8"><a xlink:href="../../d1/dc7/classview_1_1_side_bar.html#a7d73038dbba05f96990b60664afa2670" target="_top" xlink:title="view.SideBar.updateTurtle\lProperties">
<polygon fill="white" stroke="black" points="1148,-110 1148,-140 1286,-140 1286,-110 1148,-110"/>
<text text-anchor="start" x="1156" y="-128" font-family="Helvetica,sans-Serif" font-size="10.00">view.SideBar.updateTurtle</text>
<text text-anchor="middle" x="1217" y="-117" font-family="Helvetica,sans-Serif" font-size="10.00">Properties</text>
</a>
</g>
</g>
<!-- Node7&#45;&gt;Node8 -->
<g id="edge7" class="edge"><title>Node7&#45;&gt;Node8</title>
<path fill="none" stroke="midnightblue" d="M1083.71,-135.583C1100.95,-134.204 1119.63,-132.71 1137.36,-131.291"/>
<polygon fill="midnightblue" stroke="midnightblue" points="1137.99,-134.752 1147.68,-130.466 1137.43,-127.774 1137.99,-134.752"/>
</g>
<!-- Node9 -->
<g id="node9" class="node"><title>Node9</title>
<g id="a_node9"><a xlink:href="../../d9/d3a/classview_1_1_turtle_properties_view.html#af07bce3cf2bed2814a0fb3812d00b69e" target="_top" xlink:title="view.TurtlePropertiesView.update">
<polygon fill="white" stroke="black" points="1322.5,-107.5 1322.5,-126.5 1493.5,-126.5 1493.5,-107.5 1322.5,-107.5"/>
<text text-anchor="middle" x="1408" y="-114.5" font-family="Helvetica,sans-Serif" font-size="10.00">view.TurtlePropertiesView.update</text>
</a>
</g>
</g>
<!-- Node8&#45;&gt;Node9 -->
<g id="edge8" class="edge"><title>Node8&#45;&gt;Node9</title>
<path fill="none" stroke="midnightblue" d="M1286.23,-122.112C1294.67,-121.755 1303.41,-121.385 1312.15,-121.015"/>
<polygon fill="midnightblue" stroke="midnightblue" points="1312.56,-124.501 1322.4,-120.581 1312.26,-117.507 1312.56,-124.501"/>
</g>
<!-- Node10 -->
<g id="node10" class="node"><title>Node10</title>
<g id="a_node10"><a xlink:href="../../da/d64/classview_1_1_workspace.html#ad460da1164f039e5ea9a265d446d13fe" target="_top" xlink:title="view.Workspace.getTurtleMap">
<polygon fill="white" stroke="black" points="1530.5,-103.5 1530.5,-122.5 1685.5,-122.5 1685.5,-103.5 1530.5,-103.5"/>
<text text-anchor="middle" x="1608" y="-110.5" font-family="Helvetica,sans-Serif" font-size="10.00">view.Workspace.getTurtleMap</text>
</a>
</g>
</g>
<!-- Node9&#45;&gt;Node10 -->
<g id="edge9" class="edge"><title>Node9&#45;&gt;Node10</title>
<path fill="none" stroke="midnightblue" d="M1493.54,-115.292C1502.31,-115.115 1511.23,-114.935 1520.02,-114.757"/>
<polygon fill="midnightblue" stroke="midnightblue" points="1520.33,-118.252 1530.26,-114.55 1520.19,-111.253 1520.33,-118.252"/>
</g>
<!-- Node9&#45;&gt;Node11 -->
<g id="edge10" class="edge"><title>Node9&#45;&gt;Node11</title>
<path fill="none" stroke="midnightblue" d="M1428.29,-126.681C1451.84,-138.205 1493.08,-157.463 1530,-170 1537.33,-172.491 1545.16,-174.804 1552.91,-176.898"/>
<polygon fill="midnightblue" stroke="midnightblue" points="1552.09,-180.3 1562.65,-179.429 1553.85,-173.525 1552.09,-180.3"/>
</g>
<!-- Node12 -->
<g id="node12" class="node"><title>Node12</title>
<g id="a_node12"><a xlink:href="../../d8/df7/classview_1_1_turtle_view.html#afddbc74313a99bb100c8c50efa88f330" target="_top" xlink:title="view.TurtleView.getYCoord">
<polygon fill="white" stroke="black" points="1539.5,-65.5 1539.5,-84.5 1676.5,-84.5 1676.5,-65.5 1539.5,-65.5"/>
<text text-anchor="middle" x="1608" y="-72.5" font-family="Helvetica,sans-Serif" font-size="10.00">view.TurtleView.getYCoord</text>
</a>
</g>
</g>
<!-- Node9&#45;&gt;Node12 -->
<g id="edge11" class="edge"><title>Node9&#45;&gt;Node12</title>
<path fill="none" stroke="midnightblue" d="M1453.93,-107.47C1482.94,-101.316 1520.89,-93.2667 1551.74,-86.7222"/>
<polygon fill="midnightblue" stroke="midnightblue" points="1552.85,-90.0643 1561.91,-84.5653 1551.4,-83.2166 1552.85,-90.0643"/>
</g>
<!-- Node13 -->
<g id="node13" class="node"><title>Node13</title>
<g id="a_node13"><a xlink:href="../../d8/df7/classview_1_1_turtle_view.html#a5da3d4c9dafb77af0db0c589a72eadc8" target="_top" xlink:title="view.TurtleView.getHeading">
<polygon fill="white" stroke="black" points="1536,-27.5 1536,-46.5 1680,-46.5 1680,-27.5 1536,-27.5"/>
<text text-anchor="middle" x="1608" y="-34.5" font-family="Helvetica,sans-Serif" font-size="10.00">view.TurtleView.getHeading</text>
</a>
</g>
</g>
<!-- Node9&#45;&gt;Node13 -->
<g id="edge12" class="edge"><title>Node9&#45;&gt;Node13</title>
<path fill="none" stroke="midnightblue" d="M1425.3,-107.287C1448.05,-94.0799 1490.95,-70.4516 1530,-56 1536.75,-53.5031 1543.95,-51.234 1551.14,-49.2037"/>
<polygon fill="midnightblue" stroke="midnightblue" points="1552.14,-52.5591 1560.89,-46.5841 1550.32,-45.7988 1552.14,-52.5591"/>
</g>
<!-- Node14 -->
<g id="node14" class="node"><title>Node14</title>
<g id="a_node14"><a xlink:href="../../d5/dea/classview_1_1_side_table_view.html#adbdf2bf0ebf7fc8ab04db2087baea03a" target="_top" xlink:title="view.SideTableView.getTable">
<polygon fill="white" stroke="black" points="1534,-141.5 1534,-160.5 1682,-160.5 1682,-141.5 1534,-141.5"/>
<text text-anchor="middle" x="1608" y="-148.5" font-family="Helvetica,sans-Serif" font-size="10.00">view.SideTableView.getTable</text>
</a>
</g>
</g>
<!-- Node9&#45;&gt;Node14 -->
<g id="edge13" class="edge"><title>Node9&#45;&gt;Node14</title>
<path fill="none" stroke="midnightblue" d="M1464.42,-126.516C1488.35,-130.626 1516.52,-135.464 1541.48,-139.75"/>
<polygon fill="midnightblue" stroke="midnightblue" points="1541.15,-143.243 1551.6,-141.486 1542.33,-136.344 1541.15,-143.243"/>
</g>
<!-- Node16 -->
<g id="node16" class="node"><title>Node16</title>
<g id="a_node16"><a xlink:href="../../d1/dca/classmodel_1_1_execution_environment.html#a93fd01341f06dfa81727344b120aef66" target="_top" xlink:title="model.ExecutionEnvironment.update\lObserver">
<polygon fill="white" stroke="black" points="918,-75 918,-105 1112,-105 1112,-75 918,-75"/>
<text text-anchor="start" x="926" y="-93" font-family="Helvetica,sans-Serif" font-size="10.00">model.ExecutionEnvironment.update</text>
<text text-anchor="middle" x="1015" y="-82" font-family="Helvetica,sans-Serif" font-size="10.00">Observer</text>
</a>
</g>
</g>
<!-- Node15&#45;&gt;Node16 -->
<g id="edge16" class="edge"><title>Node15&#45;&gt;Node16</title>
<path fill="none" stroke="midnightblue" d="M882.215,-104.377C890.635,-103.458 899.233,-102.52 907.8,-101.585"/>
<polygon fill="midnightblue" stroke="midnightblue" points="908.268,-105.055 917.83,-100.491 907.509,-98.0965 908.268,-105.055"/>
</g>
<!-- Node17&#45;&gt;Node16 -->
<g id="edge18" class="edge"><title>Node17&#45;&gt;Node16</title>
<path fill="none" stroke="midnightblue" d="M880.634,-74.8448C889.641,-75.8683 898.867,-76.9167 908.055,-77.9608"/>
<polygon fill="midnightblue" stroke="midnightblue" points="907.667,-81.4392 917.999,-79.0907 908.458,-74.4839 907.667,-81.4392"/>
</g>
</g>
</svg>
