<?xml version="1.0" encoding="UTF-8" standalone="no"?>
<!DOCTYPE svg PUBLIC "-//W3C//DTD SVG 1.1//EN"
 "http://www.w3.org/Graphics/SVG/1.1/DTD/svg11.dtd">
<!-- Generated by graphviz version 2.36.0 (20140111.2315)
 -->
<!-- Title: view.MainView.MainView Pages: 1 -->
<!--zoomable 397 -->
<svg id="main" version="1.1" xmlns="http://www.w3.org/2000/svg" xmlns:xlink="http://www.w3.org/1999/xlink" xml:space="preserve" onload="init(evt)">
<style type="text/css"><![CDATA[
.edge:hover path { stroke: red; }
.edge:hover polygon { stroke: red; fill: red; }
]]></style>
<script type="text/javascript"><![CDATA[
var edges = document.getElementsByTagName('g');
if (edges && edges.length) {
  for (var i=0;i<edges.length;i++) {
    if (edges[i].id.substr(0,4)=='edge') {
      edges[i].setAttribute('class','edge');
    }
  }
}
]]></script>
        <defs>
                <circle id="rim" cx="0" cy="0" r="7"/>
                <circle id="rim2" cx="0" cy="0" r="3.5"/>
                <g id="zoomPlus">
                        <use xlink:href="#rim" fill="#404040">
                                <set attributeName="fill" to="#808080" begin="zoomplus.mouseover" end="zoomplus.mouseout"/>
                        </use>
                        <path d="M-4,0h8M0,-4v8" fill="none" stroke="white" stroke-width="1.5" pointer-events="none"/>
                </g>
                <g id="zoomMin">
                        <use xlink:href="#rim" fill="#404040">
                                <set attributeName="fill" to="#808080" begin="zoomminus.mouseover" end="zoomminus.mouseout"/>
                        </use>
                        <path d="M-4,0h8" fill="none" stroke="white" stroke-width="1.5" pointer-events="none"/>
                </g>
                <g id="dirArrow">
                        <path fill="none" stroke="white" stroke-width="1.5" d="M0,-3.0v7 M-2.5,-0.5L0,-3.0L2.5,-0.5"/>
                </g>
               <g id="resetDef">
                       <use xlink:href="#rim2" fill="#404040">
                               <set attributeName="fill" to="#808080" begin="reset.mouseover" end="reset.mouseout"/>
                       </use>
               </g>
        </defs>

<script type="text/javascript">
var viewWidth = 2314;
var viewHeight = 397;
var sectionId = 'dynsection-1';
</script>
<script xlink:href="../../svgpan.js"/>
<svg id="graph" class="graph">
<g id="viewport">
<title>view.MainView.MainView</title>
<polygon fill="white" stroke="none" points="-4,4 -4,-392.662 2310,-392.662 2310,4 -4,4"/>
<!-- Node1 -->
<g id="node1" class="node"><title>Node1</title>
<polygon fill="#bfbfbf" stroke="black" points="0,-71.1623 0,-90.1623 130,-90.1623 130,-71.1623 0,-71.1623"/>
<text text-anchor="middle" x="65" y="-78.1623" font-family="Helvetica,sans-Serif" font-size="10.00">view.MainView.MainView</text>
</g>
<!-- Node2 -->
<g id="node2" class="node"><title>Node2</title>
<g id="a_node2"><a xlink:href="../../d1/d75/classview_1_1_main_view.html#aff9e267e9368512a16e425f08d7b3ea0" target="_top" xlink:title="view.MainView.initRowConstraints">
<polygon fill="white" stroke="black" points="166.5,-109.162 166.5,-128.162 339.5,-128.162 339.5,-109.162 166.5,-109.162"/>
<text text-anchor="middle" x="253" y="-116.162" font-family="Helvetica,sans-Serif" font-size="10.00">view.MainView.initRowConstraints</text>
</a>
</g>
</g>
<!-- Node1&#45;&gt;Node2 -->
<g id="edge1" class="edge"><title>Node1&#45;&gt;Node2</title>
<path fill="none" stroke="midnightblue" d="M112.936,-90.2513C138.033,-95.3788 169.119,-101.73 195.53,-107.126"/>
<polygon fill="midnightblue" stroke="midnightblue" points="194.904,-110.57 205.402,-109.142 196.305,-103.711 194.904,-110.57"/>
</g>
<!-- Node26 -->
<g id="node26" class="node"><title>Node26</title>
<g id="a_node26"><a xlink:href="../../d4/de2/classview_1_1_scene_setter.html#a475ae9393b2e2aec0f59ce044b08978c" target="_top" xlink:title="view.SceneSetter.setupScene">
<polygon fill="white" stroke="black" points="972,-24.1623 972,-43.1623 1130,-43.1623 1130,-24.1623 972,-24.1623"/>
<text text-anchor="middle" x="1051" y="-31.1623" font-family="Helvetica,sans-Serif" font-size="10.00">view.SceneSetter.setupScene</text>
</a>
</g>
</g>
<!-- Node1&#45;&gt;Node26 -->
<g id="edge32" class="edge"><title>Node1&#45;&gt;Node26</title>
<path fill="none" stroke="midnightblue" d="M78.3989,-71.0814C96.4971,-57.7077 131.736,-33.9318 166,-23.6623 291.852,14.0571 329.617,-4.66231 461,-4.66231 461,-4.66231 461,-4.66231 672,-4.66231 771.524,-4.66231 885.356,-14.7801 961.872,-23.0631"/>
<polygon fill="midnightblue" stroke="midnightblue" points="961.626,-26.557 971.947,-24.1666 962.388,-19.5987 961.626,-26.557"/>
</g>
<!-- Node27 -->
<g id="node27" class="node"><title>Node27</title>
<g id="a_node27"><a xlink:href="../../d1/d75/classview_1_1_main_view.html#a0b440263d66c93841924e4da63e36935" target="_top" xlink:title="view.MainView.initScreen">
<polygon fill="white" stroke="black" points="186,-71.1623 186,-90.1623 320,-90.1623 320,-71.1623 186,-71.1623"/>
<text text-anchor="middle" x="253" y="-78.1623" font-family="Helvetica,sans-Serif" font-size="10.00">view.MainView.initScreen</text>
</a>
</g>
</g>
<!-- Node1&#45;&gt;Node27 -->
<g id="edge28" class="edge"><title>Node1&#45;&gt;Node27</title>
<path fill="none" stroke="midnightblue" d="M130.011,-80.6623C144.696,-80.6623 160.453,-80.6623 175.603,-80.6623"/>
<polygon fill="midnightblue" stroke="midnightblue" points="175.973,-84.1624 185.973,-80.6623 175.973,-77.1624 175.973,-84.1624"/>
</g>
<!-- Node28 -->
<g id="node28" class="node"><title>Node28</title>
<g id="a_node28"><a xlink:href="../../d1/d75/classview_1_1_main_view.html#a916c1e434b749f68967099cdb7959e63" target="_top" xlink:title="view.MainView.initStage">
<polygon fill="white" stroke="black" points="189,-33.1623 189,-52.1623 317,-52.1623 317,-33.1623 189,-33.1623"/>
<text text-anchor="middle" x="253" y="-40.1623" font-family="Helvetica,sans-Serif" font-size="10.00">view.MainView.initStage</text>
</a>
</g>
</g>
<!-- Node1&#45;&gt;Node28 -->
<g id="edge29" class="edge"><title>Node1&#45;&gt;Node28</title>
<path fill="none" stroke="midnightblue" d="M112.936,-71.0733C138.033,-65.9459 169.119,-59.5951 195.53,-54.1991"/>
<polygon fill="midnightblue" stroke="midnightblue" points="196.305,-57.6133 205.402,-52.1824 194.904,-50.7549 196.305,-57.6133"/>
</g>
<!-- Node29 -->
<g id="node29" class="node"><title>Node29</title>
<g id="a_node29"><a xlink:href="../../d1/d75/classview_1_1_main_view.html#ade3718ede33fa2086649c8b3cf75d2f9" target="_top" xlink:title="view.MainView.initTabs">
<polygon fill="white" stroke="black" points="401.5,-147.162 401.5,-166.162 522.5,-166.162 522.5,-147.162 401.5,-147.162"/>
<text text-anchor="middle" x="462" y="-154.162" font-family="Helvetica,sans-Serif" font-size="10.00">view.MainView.initTabs</text>
</a>
</g>
</g>
<!-- Node1&#45;&gt;Node29 -->
<g id="edge30" class="edge"><title>Node1&#45;&gt;Node29</title>
<path fill="none" stroke="midnightblue" d="M78.3989,-90.2432C96.4971,-103.617 131.736,-127.393 166,-137.662 240.588,-160.017 330.384,-162.548 391.163,-160.901"/>
<polygon fill="midnightblue" stroke="midnightblue" points="391.527,-164.391 401.411,-160.576 391.305,-157.394 391.527,-164.391"/>
</g>
<!-- Node3 -->
<g id="node3" class="node"><title>Node3</title>
<g id="a_node3"><a xlink:href="../../d1/d75/classview_1_1_main_view.html#a200c2c8e08e038e2ea86acc40c17d8d2" target="_top" xlink:title="view.MainView.configureTopMenu">
<polygon fill="white" stroke="black" points="376,-109.162 376,-128.162 548,-128.162 548,-109.162 376,-109.162"/>
<text text-anchor="middle" x="462" y="-116.162" font-family="Helvetica,sans-Serif" font-size="10.00">view.MainView.configureTopMenu</text>
</a>
</g>
</g>
<!-- Node2&#45;&gt;Node3 -->
<g id="edge2" class="edge"><title>Node2&#45;&gt;Node3</title>
<path fill="none" stroke="midnightblue" d="M339.689,-118.662C348.243,-118.662 356.964,-118.662 365.609,-118.662"/>
<polygon fill="midnightblue" stroke="midnightblue" points="365.709,-122.162 375.709,-118.662 365.709,-115.162 365.709,-122.162"/>
</g>
<!-- Node4 -->
<g id="node4" class="node"><title>Node4</title>
<g id="a_node4"><a xlink:href="../../d1/d75/classview_1_1_main_view.html#a0424800b5057be73f94e16ef2e1e2b33" target="_top" xlink:title="view.MainView.configureFileMenu">
<polygon fill="white" stroke="black" points="585.5,-109.162 585.5,-128.162 756.5,-128.162 756.5,-109.162 585.5,-109.162"/>
<text text-anchor="middle" x="671" y="-116.162" font-family="Helvetica,sans-Serif" font-size="10.00">view.MainView.configureFileMenu</text>
</a>
</g>
</g>
<!-- Node3&#45;&gt;Node4 -->
<g id="edge3" class="edge"><title>Node3&#45;&gt;Node4</title>
<path fill="none" stroke="midnightblue" d="M548.091,-118.662C557.003,-118.662 566.103,-118.662 575.116,-118.662"/>
<polygon fill="midnightblue" stroke="midnightblue" points="575.239,-122.162 585.239,-118.662 575.239,-115.162 575.239,-122.162"/>
</g>
<!-- Node24 -->
<g id="node24" class="node"><title>Node24</title>
<g id="a_node24"><a xlink:href="../../d1/d75/classview_1_1_main_view.html#a832cf4e9dcfd7b29cf57405cca488493" target="_top" xlink:title="view.MainView.configureInfoMenu">
<polygon fill="white" stroke="black" points="584.5,-52.1623 584.5,-71.1623 757.5,-71.1623 757.5,-52.1623 584.5,-52.1623"/>
<text text-anchor="middle" x="671" y="-59.1623" font-family="Helvetica,sans-Serif" font-size="10.00">view.MainView.configureInfoMenu</text>
</a>
</g>
</g>
<!-- Node3&#45;&gt;Node24 -->
<g id="edge25" class="edge"><title>Node3&#45;&gt;Node24</title>
<path fill="none" stroke="midnightblue" d="M497.647,-109.122C532.724,-99.463 587.109,-84.4872 625.389,-73.9465"/>
<polygon fill="midnightblue" stroke="midnightblue" points="626.528,-77.2632 635.24,-71.234 624.669,-70.5144 626.528,-77.2632"/>
</g>
<!-- Node5 -->
<g id="node5" class="node"><title>Node5</title>
<g id="a_node5"><a xlink:href="../../d1/d75/classview_1_1_main_view.html#a39a2b399924a553ccd89dd2a2e6ea208" target="_top" xlink:title="view.MainView.newTab">
<polygon fill="white" stroke="black" points="805,-109.162 805,-128.162 925,-128.162 925,-109.162 805,-109.162"/>
<text text-anchor="middle" x="865" y="-116.162" font-family="Helvetica,sans-Serif" font-size="10.00">view.MainView.newTab</text>
</a>
</g>
</g>
<!-- Node4&#45;&gt;Node5 -->
<g id="edge4" class="edge"><title>Node4&#45;&gt;Node5</title>
<path fill="none" stroke="midnightblue" d="M756.773,-118.662C769.487,-118.662 782.467,-118.662 794.806,-118.662"/>
<polygon fill="midnightblue" stroke="midnightblue" points="794.999,-122.162 804.999,-118.662 794.999,-115.162 794.999,-122.162"/>
</g>
<!-- Node6 -->
<g id="node6" class="node"><title>Node6</title>
<g id="a_node6"><a xlink:href="../../d6/de7/classview_1_1_s_logo_view.html#ae0050481c9168dd8eeb434d9aa79b047" target="_top" xlink:title="view.SLogoView.configureUI">
<polygon fill="white" stroke="black" points="977.5,-128.162 977.5,-147.162 1124.5,-147.162 1124.5,-128.162 977.5,-128.162"/>
<text text-anchor="middle" x="1051" y="-135.162" font-family="Helvetica,sans-Serif" font-size="10.00">view.SLogoView.configureUI</text>
</a>
</g>
</g>
<!-- Node5&#45;&gt;Node6 -->
<g id="edge5" class="edge"><title>Node5&#45;&gt;Node6</title>
<path fill="none" stroke="midnightblue" d="M925.232,-124.779C938.589,-126.158 953.006,-127.647 967.132,-129.105"/>
<polygon fill="midnightblue" stroke="midnightblue" points="967.042,-132.615 977.349,-130.16 967.761,-125.652 967.042,-132.615"/>
</g>
<!-- Node7 -->
<g id="node7" class="node"><title>Node7</title>
<g id="a_node7"><a xlink:href="../../d6/de7/classview_1_1_s_logo_view.html#acaf3f13ffb1cb6bbab33a6560cc80757" target="_top" xlink:title="view.SLogoView.setGridPane\lConstraints">
<polygon fill="white" stroke="black" points="1166.5,-196.662 1166.5,-226.662 1317.5,-226.662 1317.5,-196.662 1166.5,-196.662"/>
<text text-anchor="start" x="1174.5" y="-214.662" font-family="Helvetica,sans-Serif" font-size="10.00">view.SLogoView.setGridPane</text>
<text text-anchor="middle" x="1242" y="-203.662" font-family="Helvetica,sans-Serif" font-size="10.00">Constraints</text>
</a>
</g>
</g>
<!-- Node6&#45;&gt;Node7 -->
<g id="edge6" class="edge"><title>Node6&#45;&gt;Node7</title>
<path fill="none" stroke="midnightblue" d="M1072.79,-147.228C1095.48,-157.516 1132.98,-174.089 1166,-186.662 1171.81,-188.874 1177.91,-191.086 1184.01,-193.228"/>
<polygon fill="midnightblue" stroke="midnightblue" points="1182.98,-196.573 1193.58,-196.527 1185.26,-189.956 1182.98,-196.573"/>
</g>
<!-- Node8 -->
<g id="node8" class="node"><title>Node8</title>
<g id="a_node8"><a xlink:href="../../d6/de7/classview_1_1_s_logo_view.html#acf432f20e1a7dda7bef97f0619fb0fa5" target="_top" xlink:title="view.SLogoView.configure\lAddTurtlesButton">
<polygon fill="white" stroke="black" points="1173.5,-147.662 1173.5,-177.662 1310.5,-177.662 1310.5,-147.662 1173.5,-147.662"/>
<text text-anchor="start" x="1181.5" y="-165.662" font-family="Helvetica,sans-Serif" font-size="10.00">view.SLogoView.configure</text>
<text text-anchor="middle" x="1242" y="-154.662" font-family="Helvetica,sans-Serif" font-size="10.00">AddTurtlesButton</text>
</a>
</g>
</g>
<!-- Node6&#45;&gt;Node8 -->
<g id="edge7" class="edge"><title>Node6&#45;&gt;Node8</title>
<path fill="none" stroke="midnightblue" d="M1123.99,-147.185C1136.75,-148.873 1150.09,-150.637 1163.01,-152.346"/>
<polygon fill="midnightblue" stroke="midnightblue" points="1162.88,-155.86 1173.25,-153.701 1163.8,-148.92 1162.88,-155.86"/>
</g>
<!-- Node22 -->
<g id="node22" class="node"><title>Node22</title>
<g id="a_node22"><a xlink:href="../../d6/de7/classview_1_1_s_logo_view.html#a31631c7a3cc6121d871884bc396cf934" target="_top" xlink:title="view.SLogoView.createNew\lParser">
<polygon fill="white" stroke="black" points="1170,-98.6623 1170,-128.662 1314,-128.662 1314,-98.6623 1170,-98.6623"/>
<text text-anchor="start" x="1178" y="-116.662" font-family="Helvetica,sans-Serif" font-size="10.00">view.SLogoView.createNew</text>
<text text-anchor="middle" x="1242" y="-105.662" font-family="Helvetica,sans-Serif" font-size="10.00">Parser</text>
</a>
</g>
</g>
<!-- Node6&#45;&gt;Node22 -->
<g id="edge23" class="edge"><title>Node6&#45;&gt;Node22</title>
<path fill="none" stroke="midnightblue" d="M1124.53,-128.452C1136.05,-126.99 1148.02,-125.469 1159.72,-123.984"/>
<polygon fill="midnightblue" stroke="midnightblue" points="1160.43,-127.422 1169.91,-122.69 1159.55,-120.477 1160.43,-127.422"/>
</g>
<!-- Node23 -->
<g id="node23" class="node"><title>Node23</title>
<g id="a_node23"><a xlink:href="../../dc/d3c/classview_1_1_customization_bar.html#a65f9fa71a815439e9030659d6647887f" target="_top" xlink:title="view.CustomizationBar.set\lParser">
<polygon fill="white" stroke="black" points="1171,-49.6623 1171,-79.6623 1313,-79.6623 1313,-49.6623 1171,-49.6623"/>
<text text-anchor="start" x="1179" y="-67.6623" font-family="Helvetica,sans-Serif" font-size="10.00">view.CustomizationBar.set</text>
<text text-anchor="middle" x="1242" y="-56.6623" font-family="Helvetica,sans-Serif" font-size="10.00">Parser</text>
</a>
</g>
</g>
<!-- Node6&#45;&gt;Node23 -->
<g id="edge24" class="edge"><title>Node6&#45;&gt;Node23</title>
<path fill="none" stroke="midnightblue" d="M1072.77,-128.02C1095.43,-117.666 1132.91,-101.036 1166,-88.6623 1171.12,-86.747 1176.47,-84.8443 1181.86,-82.9971"/>
<polygon fill="midnightblue" stroke="midnightblue" points="1183.18,-86.2445 1191.55,-79.741 1180.95,-79.6092 1183.18,-86.2445"/>
</g>
<!-- Node9 -->
<g id="node9" class="node"><title>Node9</title>
<g id="a_node9"><a xlink:href="../../da/d64/classview_1_1_workspace.html#a4abde41a3048fa8f64ddfec40c8ffdb7" target="_top" xlink:title="view.Workspace.addTurtle">
<polygon fill="white" stroke="black" points="1354.5,-153.162 1354.5,-172.162 1491.5,-172.162 1491.5,-153.162 1354.5,-153.162"/>
<text text-anchor="middle" x="1423" y="-160.162" font-family="Helvetica,sans-Serif" font-size="10.00">view.Workspace.addTurtle</text>
</a>
</g>
</g>
<!-- Node8&#45;&gt;Node9 -->
<g id="edge8" class="edge"><title>Node8&#45;&gt;Node9</title>
<path fill="none" stroke="midnightblue" d="M1310.67,-162.662C1321.59,-162.662 1332.96,-162.662 1344.1,-162.662"/>
<polygon fill="midnightblue" stroke="midnightblue" points="1344.23,-166.162 1354.23,-162.662 1344.23,-159.162 1344.23,-166.162"/>
</g>
<!-- Node10 -->
<g id="node10" class="node"><title>Node10</title>
<g id="a_node10"><a xlink:href="../../da/d64/classview_1_1_workspace.html#a9eea72f983d5e7ad5af85056d927e380" target="_top" xlink:title="view.Workspace.configure\lTurtleEventHandler">
<polygon fill="white" stroke="black" points="1548.5,-196.662 1548.5,-226.662 1685.5,-226.662 1685.5,-196.662 1548.5,-196.662"/>
<text text-anchor="start" x="1556.5" y="-214.662" font-family="Helvetica,sans-Serif" font-size="10.00">view.Workspace.configure</text>
<text text-anchor="middle" x="1617" y="-203.662" font-family="Helvetica,sans-Serif" font-size="10.00">TurtleEventHandler</text>
</a>
</g>
</g>
<!-- Node9&#45;&gt;Node10 -->
<g id="edge9" class="edge"><title>Node9&#45;&gt;Node10</title>
<path fill="none" stroke="midnightblue" d="M1461.48,-172.226C1485.78,-178.43 1518.19,-186.699 1547.04,-194.063"/>
<polygon fill="midnightblue" stroke="midnightblue" points="1546.52,-197.544 1557.08,-196.625 1548.26,-190.761 1546.52,-197.544"/>
</g>
<!-- Node19 -->
<g id="node19" class="node"><title>Node19</title>
<g id="a_node19"><a xlink:href="../../d1/dca/classmodel_1_1_execution_environment.html#a96986e0e8de018fd9b1b2bf79de862e1" target="_top" xlink:title="model.ExecutionEnvironment.add\lTurtle">
<polygon fill="white" stroke="black" points="1528,-98.6623 1528,-128.662 1706,-128.662 1706,-98.6623 1528,-98.6623"/>
<text text-anchor="start" x="1536" y="-116.662" font-family="Helvetica,sans-Serif" font-size="10.00">model.ExecutionEnvironment.add</text>
<text text-anchor="middle" x="1617" y="-105.662" font-family="Helvetica,sans-Serif" font-size="10.00">Turtle</text>
</a>
</g>
</g>
<!-- Node9&#45;&gt;Node19 -->
<g id="edge19" class="edge"><title>Node9&#45;&gt;Node19</title>
<path fill="none" stroke="midnightblue" d="M1461.48,-153.098C1485.78,-146.895 1518.19,-138.625 1547.04,-131.261"/>
<polygon fill="midnightblue" stroke="midnightblue" points="1548.26,-134.563 1557.08,-128.699 1546.52,-127.781 1548.26,-134.563"/>
</g>
<!-- Node21 -->
<g id="node21" class="node"><title>Node21</title>
<g id="a_node21"><a xlink:href="../../d1/dca/classmodel_1_1_execution_environment.html#a472ef4da5205b0e95ec51fdbf52f654a" target="_top" xlink:title="model.ExecutionEnvironment.set\lActiveTurtle">
<polygon fill="white" stroke="black" points="1529.5,-147.662 1529.5,-177.662 1704.5,-177.662 1704.5,-147.662 1529.5,-147.662"/>
<text text-anchor="start" x="1537.5" y="-165.662" font-family="Helvetica,sans-Serif" font-size="10.00">model.ExecutionEnvironment.set</text>
<text text-anchor="middle" x="1617" y="-154.662" font-family="Helvetica,sans-Serif" font-size="10.00">ActiveTurtle</text>
</a>
</g>
</g>
<!-- Node9&#45;&gt;Node21 -->
<g id="edge21" class="edge"><title>Node9&#45;&gt;Node21</title>
<path fill="none" stroke="midnightblue" d="M1491.69,-162.662C1500.65,-162.662 1509.97,-162.662 1519.3,-162.662"/>
<polygon fill="midnightblue" stroke="midnightblue" points="1519.41,-166.162 1529.41,-162.662 1519.41,-159.162 1519.41,-166.162"/>
</g>
<!-- Node11 -->
<g id="node11" class="node"><title>Node11</title>
<g id="a_node11"><a xlink:href="../../da/d64/classview_1_1_workspace.html#a16bda9a6a7fe7f8d3d7b09108675f9c4" target="_top" xlink:title="view.Workspace.setActive\lTurtle">
<polygon fill="white" stroke="black" points="1770.5,-233.662 1770.5,-263.662 1907.5,-263.662 1907.5,-233.662 1770.5,-233.662"/>
<text text-anchor="start" x="1778.5" y="-251.662" font-family="Helvetica,sans-Serif" font-size="10.00">view.Workspace.setActive</text>
<text text-anchor="middle" x="1839" y="-240.662" font-family="Helvetica,sans-Serif" font-size="10.00">Turtle</text>
</a>
</g>
</g>
<!-- Node10&#45;&gt;Node11 -->
<g id="edge10" class="edge"><title>Node10&#45;&gt;Node11</title>
<path fill="none" stroke="midnightblue" d="M1685.5,-223.015C1709.15,-226.992 1735.89,-231.489 1760.3,-235.595"/>
<polygon fill="midnightblue" stroke="midnightblue" points="1759.8,-239.06 1770.25,-237.267 1760.97,-232.157 1759.8,-239.06"/>
</g>
<!-- Node14 -->
<g id="node14" class="node"><title>Node14</title>
<g id="a_node14"><a xlink:href="../../d8/df7/classview_1_1_turtle_view.html#ab5fdc3775e06339f4a68d1b795a81643" target="_top" xlink:title="view.TurtleView.getID">
<polygon fill="white" stroke="black" points="2169,-179.162 2169,-198.162 2283,-198.162 2283,-179.162 2169,-179.162"/>
<text text-anchor="middle" x="2226" y="-186.162" font-family="Helvetica,sans-Serif" font-size="10.00">view.TurtleView.getID</text>
</a>
</g>
</g>
<!-- Node10&#45;&gt;Node14 -->
<g id="edge18" class="edge"><title>Node10&#45;&gt;Node14</title>
<path fill="none" stroke="midnightblue" d="M1685.57,-209.102C1802.71,-204.664 2042.07,-195.594 2158.48,-191.183"/>
<polygon fill="midnightblue" stroke="midnightblue" points="2158.81,-194.673 2168.67,-190.797 2158.55,-187.678 2158.81,-194.673"/>
</g>
<!-- Node12 -->
<g id="node12" class="node"><title>Node12</title>
<g id="a_node12"><a xlink:href="../../d1/dc7/classview_1_1_side_bar.html#a7d73038dbba05f96990b60664afa2670" target="_top" xlink:title="view.SideBar.updateTurtle\lProperties">
<polygon fill="white" stroke="black" points="1972,-249.662 1972,-279.662 2110,-279.662 2110,-249.662 1972,-249.662"/>
<text text-anchor="start" x="1980" y="-267.662" font-family="Helvetica,sans-Serif" font-size="10.00">view.SideBar.updateTurtle</text>
<text text-anchor="middle" x="2041" y="-256.662" font-family="Helvetica,sans-Serif" font-size="10.00">Properties</text>
</a>
</g>
</g>
<!-- Node11&#45;&gt;Node12 -->
<g id="edge11" class="edge"><title>Node11&#45;&gt;Node12</title>
<path fill="none" stroke="midnightblue" d="M1907.71,-254.079C1924.95,-255.458 1943.63,-256.953 1961.36,-258.371"/>
<polygon fill="midnightblue" stroke="midnightblue" points="1961.43,-261.888 1971.68,-259.197 1961.99,-254.91 1961.43,-261.888"/>
</g>
<!-- Node13 -->
<g id="node13" class="node"><title>Node13</title>
<g id="a_node13"><a xlink:href="../../da/d64/classview_1_1_workspace.html#ad460da1164f039e5ea9a265d446d13fe" target="_top" xlink:title="view.Workspace.getTurtleMap">
<polygon fill="white" stroke="black" points="2148.5,-331.162 2148.5,-350.162 2303.5,-350.162 2303.5,-331.162 2148.5,-331.162"/>
<text text-anchor="middle" x="2226" y="-338.162" font-family="Helvetica,sans-Serif" font-size="10.00">view.Workspace.getTurtleMap</text>
</a>
</g>
</g>
<!-- Node12&#45;&gt;Node13 -->
<g id="edge12" class="edge"><title>Node12&#45;&gt;Node13</title>
<path fill="none" stroke="midnightblue" d="M2065.5,-279.908C2086.03,-292.64 2117,-310.457 2146,-321.662 2152.45,-324.156 2159.33,-326.391 2166.24,-328.376"/>
<polygon fill="midnightblue" stroke="midnightblue" points="2165.77,-331.873 2176.33,-331.105 2167.59,-325.116 2165.77,-331.873"/>
</g>
<!-- Node12&#45;&gt;Node14 -->
<g id="edge13" class="edge"><title>Node12&#45;&gt;Node14</title>
<path fill="none" stroke="midnightblue" d="M2065.5,-249.416C2086.03,-236.685 2117,-218.867 2146,-207.662 2152.45,-205.169 2159.33,-202.933 2166.24,-200.949"/>
<polygon fill="midnightblue" stroke="midnightblue" points="2167.59,-204.209 2176.33,-198.219 2165.77,-197.451 2167.59,-204.209"/>
</g>
<!-- Node15 -->
<g id="node15" class="node"><title>Node15</title>
<g id="a_node15"><a xlink:href="../../d8/df7/classview_1_1_turtle_view.html#afddbc74313a99bb100c8c50efa88f330" target="_top" xlink:title="view.TurtleView.getYCoord">
<polygon fill="white" stroke="black" points="2157.5,-293.162 2157.5,-312.162 2294.5,-312.162 2294.5,-293.162 2157.5,-293.162"/>
<text text-anchor="middle" x="2226" y="-300.162" font-family="Helvetica,sans-Serif" font-size="10.00">view.TurtleView.getYCoord</text>
</a>
</g>
</g>
<!-- Node12&#45;&gt;Node15 -->
<g id="edge14" class="edge"><title>Node12&#45;&gt;Node15</title>
<path fill="none" stroke="midnightblue" d="M2110.14,-278.812C2129.61,-282.855 2150.59,-287.211 2169.22,-291.08"/>
<polygon fill="midnightblue" stroke="midnightblue" points="2168.52,-294.508 2179.02,-293.115 2169.94,-287.655 2168.52,-294.508"/>
</g>
<!-- Node16 -->
<g id="node16" class="node"><title>Node16</title>
<g id="a_node16"><a xlink:href="../../d8/df7/classview_1_1_turtle_view.html#a5da3d4c9dafb77af0db0c589a72eadc8" target="_top" xlink:title="view.TurtleView.getHeading">
<polygon fill="white" stroke="black" points="2154,-255.162 2154,-274.162 2298,-274.162 2298,-255.162 2154,-255.162"/>
<text text-anchor="middle" x="2226" y="-262.162" font-family="Helvetica,sans-Serif" font-size="10.00">view.TurtleView.getHeading</text>
</a>
</g>
</g>
<!-- Node12&#45;&gt;Node16 -->
<g id="edge15" class="edge"><title>Node12&#45;&gt;Node16</title>
<path fill="none" stroke="midnightblue" d="M2110.14,-264.662C2121.03,-264.662 2132.4,-264.662 2143.56,-264.662"/>
<polygon fill="midnightblue" stroke="midnightblue" points="2143.74,-268.162 2153.74,-264.662 2143.74,-261.162 2143.74,-268.162"/>
</g>
<!-- Node17 -->
<g id="node17" class="node"><title>Node17</title>
<g id="a_node17"><a xlink:href="../../d8/df7/classview_1_1_turtle_view.html#a85b9acc922cc69f27c79bf13e3356e09" target="_top" xlink:title="view.TurtleView.getPenPosition">
<polygon fill="white" stroke="black" points="2146,-217.162 2146,-236.162 2306,-236.162 2306,-217.162 2146,-217.162"/>
<text text-anchor="middle" x="2226" y="-224.162" font-family="Helvetica,sans-Serif" font-size="10.00">view.TurtleView.getPenPosition</text>
</a>
</g>
</g>
<!-- Node12&#45;&gt;Node17 -->
<g id="edge16" class="edge"><title>Node12&#45;&gt;Node17</title>
<path fill="none" stroke="midnightblue" d="M2110.14,-250.513C2129.61,-246.47 2150.59,-242.114 2169.22,-238.244"/>
<polygon fill="midnightblue" stroke="midnightblue" points="2169.94,-241.67 2179.02,-236.21 2168.52,-234.816 2169.94,-241.67"/>
</g>
<!-- Node18 -->
<g id="node18" class="node"><title>Node18</title>
<g id="a_node18"><a xlink:href="../../d8/df7/classview_1_1_turtle_view.html#a5f7b22cd8ab69258535b18920a488b63" target="_top" xlink:title="view.TurtleView.isShowing">
<polygon fill="white" stroke="black" points="2158,-369.162 2158,-388.162 2294,-388.162 2294,-369.162 2158,-369.162"/>
<text text-anchor="middle" x="2226" y="-376.162" font-family="Helvetica,sans-Serif" font-size="10.00">view.TurtleView.isShowing</text>
</a>
</g>
</g>
<!-- Node12&#45;&gt;Node18 -->
<g id="edge17" class="edge"><title>Node12&#45;&gt;Node18</title>
<path fill="none" stroke="midnightblue" d="M2054.07,-279.704C2071.9,-300.867 2107.34,-339.134 2146,-359.662 2150.48,-362.041 2155.26,-364.126 2160.17,-365.953"/>
<polygon fill="midnightblue" stroke="midnightblue" points="2159.12,-369.294 2169.71,-369.159 2161.35,-362.658 2159.12,-369.294"/>
</g>
<!-- Node20 -->
<g id="node20" class="node"><title>Node20</title>
<g id="a_node20"><a xlink:href="../../d1/dca/classmodel_1_1_execution_environment.html#a93fd01341f06dfa81727344b120aef66" target="_top" xlink:title="model.ExecutionEnvironment.update\lObserver">
<polygon fill="white" stroke="black" points="1742,-122.662 1742,-152.662 1936,-152.662 1936,-122.662 1742,-122.662"/>
<text text-anchor="start" x="1750" y="-140.662" font-family="Helvetica,sans-Serif" font-size="10.00">model.ExecutionEnvironment.update</text>
<text text-anchor="middle" x="1839" y="-129.662" font-family="Helvetica,sans-Serif" font-size="10.00">Observer</text>
</a>
</g>
</g>
<!-- Node19&#45;&gt;Node20 -->
<g id="edge20" class="edge"><title>Node19&#45;&gt;Node20</title>
<path fill="none" stroke="midnightblue" d="M1706.21,-123.286C1714.64,-124.204 1723.23,-125.142 1731.8,-126.077"/>
<polygon fill="midnightblue" stroke="midnightblue" points="1731.51,-129.566 1741.83,-127.171 1732.27,-122.607 1731.51,-129.566"/>
</g>
<!-- Node21&#45;&gt;Node20 -->
<g id="edge22" class="edge"><title>Node21&#45;&gt;Node20</title>
<path fill="none" stroke="midnightblue" d="M1704.63,-152.818C1713.64,-151.794 1722.87,-150.746 1732.06,-149.701"/>
<polygon fill="midnightblue" stroke="midnightblue" points="1732.46,-153.178 1742,-148.572 1731.67,-146.223 1732.46,-153.178"/>
</g>
<!-- Node25 -->
<g id="node25" class="node"><title>Node25</title>
<g id="a_node25"><a xlink:href="../../d1/d75/classview_1_1_main_view.html#aa4922565e9617cd3337f4bee8fab92c1" target="_top" xlink:title="view.MainView.displayPage">
<polygon fill="white" stroke="black" points="794,-43.1623 794,-62.1623 936,-62.1623 936,-43.1623 794,-43.1623"/>
<text text-anchor="middle" x="865" y="-50.1623" font-family="Helvetica,sans-Serif" font-size="10.00">view.MainView.displayPage</text>
</a>
</g>
</g>
<!-- Node24&#45;&gt;Node25 -->
<g id="edge26" class="edge"><title>Node24&#45;&gt;Node25</title>
<path fill="none" stroke="midnightblue" d="M757.612,-57.6493C766.309,-57.2416 775.121,-56.8285 783.758,-56.4237"/>
<polygon fill="midnightblue" stroke="midnightblue" points="783.974,-59.9175 793.799,-55.953 783.646,-52.9252 783.974,-59.9175"/>
</g>
<!-- Node25&#45;&gt;Node26 -->
<g id="edge27" class="edge"><title>Node25&#45;&gt;Node26</title>
<path fill="none" stroke="midnightblue" d="M936.087,-45.425C944.482,-44.5582 953.135,-43.6647 961.744,-42.7757"/>
<polygon fill="midnightblue" stroke="midnightblue" points="962.225,-46.2448 971.812,-41.7361 961.506,-39.2818 962.225,-46.2448"/>
</g>
<!-- Node29&#45;&gt;Node6 -->
<g id="edge31" class="edge"><title>Node29&#45;&gt;Node6</title>
<path fill="none" stroke="midnightblue" d="M522.515,-154.736C627.729,-151.33 846.785,-144.24 966.857,-140.353"/>
<polygon fill="midnightblue" stroke="midnightblue" points="967.217,-143.844 977.098,-140.022 966.99,-136.847 967.217,-143.844"/>
</g>
</g>
</svg>
        <g id="navigator" transform="translate(0 0)" fill="#404254">
                <rect fill="#f2f5e9" fill-opacity="0.5" stroke="#606060" stroke-width=".5" x="0" y="0" width="60" height="60"/>
                <use id="zoomplus" xlink:href="#zoomPlus" x="17" y="9" onmousedown="handleZoom(evt,'in')"/>
                <use id="zoomminus" xlink:href="#zoomMin" x="42" y="9" onmousedown="handleZoom(evt,'out')"/>
                <use id="reset" xlink:href="#resetDef" x="30" y="36" onmousedown="handleReset()"/>
                <g id="arrowUp" xlink:href="#dirArrow" transform="translate(30 24)" onmousedown="handlePan(0,-1)">
                  <use xlink:href="#rim" fill="#404040">
                        <set attributeName="fill" to="#808080" begin="arrowUp.mouseover" end="arrowUp.mouseout"/>
                  </use>
                  <path fill="none" stroke="white" stroke-width="1.5" d="M0,-3.0v7 M-2.5,-0.5L0,-3.0L2.5,-0.5"/>
                </g>
                <g id="arrowRight" xlink:href="#dirArrow" transform="rotate(90) translate(36 -43)" onmousedown="handlePan(1,0)">
                  <use xlink:href="#rim" fill="#404040">
                        <set attributeName="fill" to="#808080" begin="arrowRight.mouseover" end="arrowRight.mouseout"/>
                  </use>
                  <path fill="none" stroke="white" stroke-width="1.5" d="M0,-3.0v7 M-2.5,-0.5L0,-3.0L2.5,-0.5"/>
                </g>
                <g id="arrowDown" xlink:href="#dirArrow" transform="rotate(180) translate(-30 -48)" onmousedown="handlePan(0,1)">
                  <use xlink:href="#rim" fill="#404040">
                        <set attributeName="fill" to="#808080" begin="arrowDown.mouseover" end="arrowDown.mouseout"/>
                  </use>
                  <path fill="none" stroke="white" stroke-width="1.5" d="M0,-3.0v7 M-2.5,-0.5L0,-3.0L2.5,-0.5"/>
                </g>
                <g id="arrowLeft" xlink:href="#dirArrow" transform="rotate(270) translate(-36 17)" onmousedown="handlePan(-1,0)">
                  <use xlink:href="#rim" fill="#404040">
                        <set attributeName="fill" to="#808080" begin="arrowLeft.mouseover" end="arrowLeft.mouseout"/>
                  </use>
                  <path fill="none" stroke="white" stroke-width="1.5" d="M0,-3.0v7 M-2.5,-0.5L0,-3.0L2.5,-0.5"/>
                </g>
        </g>
        <svg viewBox="0 0 15 15" width="100%" height="30px" preserveAspectRatio="xMaxYMin meet">
         <g id="arrow_out" transform="scale(0.3 0.3)">
          <a xlink:href="classview_1_1_main_view_a9e27015c007bed90f32c79fc1187083f_cgraph_org.svg" target="_base">
           <rect id="button" ry="5" rx="5" y="6" x="6" height="38" width="38"
                fill="#f2f5e9" fill-opacity="0.5" stroke="#606060" stroke-width="1.0"/>
           <path id="arrow"
             d="M 11.500037,31.436501 C 11.940474,20.09759 22.043105,11.32322 32.158766,21.979434 L 37.068811,17.246167 C 37.068811,17.246167 37.088388,32 37.088388,32 L 22.160133,31.978069 C 22.160133,31.978069 26.997745,27.140456 26.997745,27.140456 C 18.528582,18.264221 13.291696,25.230495 11.500037,31.436501 z"
             style="fill:#404040;"/>
          </a>
         </g>
        </svg>
</svg>
