<?xml version="1.0" encoding="UTF-8" standalone="no"?>
<!DOCTYPE svg PUBLIC "-//W3C//DTD SVG 1.1//EN"
 "http://www.w3.org/Graphics/SVG/1.1/DTD/svg11.dtd">
<!-- Generated by graphviz version 2.36.0 (20140111.2315)
 -->
<!-- Title: model.instructions.Instruction Pages: 1 -->
<!--zoomable 536 -->
<svg id="main" version="1.1" xmlns="http://www.w3.org/2000/svg" xmlns:xlink="http://www.w3.org/1999/xlink" xml:space="preserve" onload="init(evt)">
<style type="text/css"><![CDATA[
.edge:hover path { stroke: red; }
.edge:hover polygon { stroke: red; fill: red; }
]]></style>
<script type="text/javascript"><![CDATA[
var edges = document.getElementsByTagName('g');
if (edges && edges.length) {
  for (var i=0;i<edges.length;i++) {
    if (edges[i].id.substr(0,4)=='edge') {
      edges[i].setAttribute('class','edge');
    }
  }
}
]]></script>
        <defs>
                <circle id="rim" cx="0" cy="0" r="7"/>
                <circle id="rim2" cx="0" cy="0" r="3.5"/>
                <g id="zoomPlus">
                        <use xlink:href="#rim" fill="#404040">
                                <set attributeName="fill" to="#808080" begin="zoomplus.mouseover" end="zoomplus.mouseout"/>
                        </use>
                        <path d="M-4,0h8M0,-4v8" fill="none" stroke="white" stroke-width="1.5" pointer-events="none"/>
                </g>
                <g id="zoomMin">
                        <use xlink:href="#rim" fill="#404040">
                                <set attributeName="fill" to="#808080" begin="zoomminus.mouseover" end="zoomminus.mouseout"/>
                        </use>
                        <path d="M-4,0h8" fill="none" stroke="white" stroke-width="1.5" pointer-events="none"/>
                </g>
                <g id="dirArrow">
                        <path fill="none" stroke="white" stroke-width="1.5" d="M0,-3.0v7 M-2.5,-0.5L0,-3.0L2.5,-0.5"/>
                </g>
               <g id="resetDef">
                       <use xlink:href="#rim2" fill="#404040">
                               <set attributeName="fill" to="#808080" begin="reset.mouseover" end="reset.mouseout"/>
                       </use>
               </g>
        </defs>

<script type="text/javascript">
var viewWidth = 480;
var viewHeight = 536;
var sectionId = 'dynsection-0';
</script>
<script xlink:href="../../svgpan.js"/>
<svg id="graph" class="graph">
<g id="viewport">
<title>model.instructions.Instruction</title>
<polygon fill="white" stroke="none" points="-4,4 -4,-532 476,-532 476,4 -4,4"/>
<!-- Node1 -->
<g id="node1" class="node"><title>Node1</title>
<polygon fill="#bfbfbf" stroke="black" points="96,-262.5 96,-281.5 254,-281.5 254,-262.5 96,-262.5"/>
<text text-anchor="middle" x="175" y="-269.5" font-family="Helvetica,sans-Serif" font-size="10.00">model.instructions.Instruction</text>
</g>
<!-- Node3 -->
<g id="node3" class="node"><title>Node3</title>
<g id="a_node3"><a xlink:href="../../db/d32/classmodel_1_1instructions_1_1_boolean_instruction.html" target="_top" xlink:title="model.instructions.Boolean\lInstruction">
<polygon fill="white" stroke="black" points="307.5,-498 307.5,-528 454.5,-528 454.5,-498 307.5,-498"/>
<text text-anchor="start" x="315.5" y="-516" font-family="Helvetica,sans-Serif" font-size="10.00">model.instructions.Boolean</text>
<text text-anchor="middle" x="381" y="-505" font-family="Helvetica,sans-Serif" font-size="10.00">Instruction</text>
</a>
</g>
</g>
<!-- Node1&#45;&gt;Node3 -->
<g id="edge2" class="edge"><title>Node1&#45;&gt;Node3</title>
<path fill="none" stroke="midnightblue" d="M180.715,-291.675C191.947,-334.21 224.383,-435.148 290,-488 295.178,-492.171 301.006,-495.647 307.143,-498.544"/>
<polygon fill="midnightblue" stroke="midnightblue" points="184.104,-290.799 178.256,-281.964 177.318,-292.518 184.104,-290.799"/>
</g>
<!-- Node4 -->
<g id="node4" class="node"><title>Node4</title>
<g id="a_node4"><a xlink:href="../../d2/d44/classmodel_1_1instructions_1_1_constant.html" target="_top" xlink:title="model.instructions.Constant">
<polygon fill="white" stroke="black" points="305,-459.5 305,-478.5 457,-478.5 457,-459.5 305,-459.5"/>
<text text-anchor="middle" x="381" y="-466.5" font-family="Helvetica,sans-Serif" font-size="10.00">model.instructions.Constant</text>
</a>
</g>
</g>
<!-- Node1&#45;&gt;Node4 -->
<g id="edge3" class="edge"><title>Node1&#45;&gt;Node4</title>
<path fill="none" stroke="midnightblue" d="M182.613,-291.061C196.403,-327.829 231.865,-408.486 290,-449 296.172,-453.301 303.111,-456.697 310.328,-459.375"/>
<polygon fill="midnightblue" stroke="midnightblue" points="185.86,-289.746 179.162,-281.536 179.278,-292.13 185.86,-289.746"/>
</g>
<!-- Node5 -->
<g id="node5" class="node"><title>Node5</title>
<g id="a_node5"><a xlink:href="../../d5/dbb/classmodel_1_1instructions_1_1_control_instruction.html" target="_top" xlink:title="model.instructions.Control\lInstruction">
<polygon fill="white" stroke="black" points="309.5,-410 309.5,-440 452.5,-440 452.5,-410 309.5,-410"/>
<text text-anchor="start" x="317.5" y="-428" font-family="Helvetica,sans-Serif" font-size="10.00">model.instructions.Control</text>
<text text-anchor="middle" x="381" y="-417" font-family="Helvetica,sans-Serif" font-size="10.00">Instruction</text>
</a>
</g>
</g>
<!-- Node1&#45;&gt;Node5 -->
<g id="edge4" class="edge"><title>Node1&#45;&gt;Node5</title>
<path fill="none" stroke="midnightblue" d="M187.401,-290.502C205.6,-318.47 243.907,-371.29 290,-400 296.194,-403.858 302.992,-407.132 309.989,-409.909"/>
<polygon fill="midnightblue" stroke="midnightblue" points="190.14,-288.287 181.822,-281.726 184.233,-292.042 190.14,-288.287"/>
</g>
<!-- Node6 -->
<g id="node6" class="node"><title>Node6</title>
<g id="a_node6"><a xlink:href="../../d2/d2b/classmodel_1_1instructions_1_1_front_end_instruction.html" target="_top" xlink:title="model.instructions.Front\lEndInstruction">
<polygon fill="white" stroke="black" points="315,-361 315,-391 447,-391 447,-361 315,-361"/>
<text text-anchor="start" x="323" y="-379" font-family="Helvetica,sans-Serif" font-size="10.00">model.instructions.Front</text>
<text text-anchor="middle" x="381" y="-368" font-family="Helvetica,sans-Serif" font-size="10.00">EndInstruction</text>
</a>
</g>
</g>
<!-- Node1&#45;&gt;Node6 -->
<g id="edge5" class="edge"><title>Node1&#45;&gt;Node6</title>
<path fill="none" stroke="midnightblue" d="M194.956,-288.145C216.634,-305.861 253.816,-334.033 290,-351 298.075,-354.787 306.835,-358.1 315.612,-360.969"/>
<polygon fill="midnightblue" stroke="midnightblue" points="197.112,-285.385 187.182,-281.693 192.642,-290.772 197.112,-285.385"/>
</g>
<!-- Node7 -->
<g id="node7" class="node"><title>Node7</title>
<g id="a_node7"><a xlink:href="../../de/dc5/classmodel_1_1instructions_1_1_list_instruction.html" target="_top" xlink:title="model.instructions.ListInstruction">
<polygon fill="white" stroke="black" points="293.5,-322.5 293.5,-341.5 468.5,-341.5 468.5,-322.5 293.5,-322.5"/>
<text text-anchor="middle" x="381" y="-329.5" font-family="Helvetica,sans-Serif" font-size="10.00">model.instructions.ListInstruction</text>
</a>
</g>
</g>
<!-- Node1&#45;&gt;Node7 -->
<g id="edge6" class="edge"><title>Node1&#45;&gt;Node7</title>
<path fill="none" stroke="midnightblue" d="M209.147,-285.285C231.688,-293.98 262.329,-305.143 290,-313 302.443,-316.533 316.023,-319.732 328.773,-322.456"/>
<polygon fill="midnightblue" stroke="midnightblue" points="210.297,-281.977 199.708,-281.606 207.755,-288.499 210.297,-281.977"/>
</g>
<!-- Node8 -->
<g id="node8" class="node"><title>Node8</title>
<g id="a_node8"><a xlink:href="../../d3/d24/classmodel_1_1instructions_1_1_math_instruction.html" target="_top" xlink:title="model.instructions.MathInstruction">
<polygon fill="white" stroke="black" points="290,-284.5 290,-303.5 472,-303.5 472,-284.5 290,-284.5"/>
<text text-anchor="middle" x="381" y="-291.5" font-family="Helvetica,sans-Serif" font-size="10.00">model.instructions.MathInstruction</text>
</a>
</g>
</g>
<!-- Node1&#45;&gt;Node8 -->
<g id="edge7" class="edge"><title>Node1&#45;&gt;Node8</title>
<path fill="none" stroke="midnightblue" d="M264.428,-281.536C273.477,-282.512 282.671,-283.504 291.718,-284.479"/>
<polygon fill="midnightblue" stroke="midnightblue" points="264.606,-278.035 254.288,-280.443 263.855,-284.995 264.606,-278.035"/>
</g>
<!-- Node9 -->
<g id="node9" class="node"><title>Node9</title>
<g id="a_node9"><a xlink:href="../../d1/dd3/classmodel_1_1instructions_1_1_movement_instruction.html" target="_top" xlink:title="model.instructions.Movement\lInstruction">
<polygon fill="white" stroke="black" points="301.5,-235 301.5,-265 460.5,-265 460.5,-235 301.5,-235"/>
<text text-anchor="start" x="309.5" y="-253" font-family="Helvetica,sans-Serif" font-size="10.00">model.instructions.Movement</text>
<text text-anchor="middle" x="381" y="-242" font-family="Helvetica,sans-Serif" font-size="10.00">Instruction</text>
</a>
</g>
</g>
<!-- Node1&#45;&gt;Node9 -->
<g id="edge8" class="edge"><title>Node1&#45;&gt;Node9</title>
<path fill="none" stroke="midnightblue" d="M264.484,-262.458C276.714,-261.139 289.209,-259.791 301.247,-258.493"/>
<polygon fill="midnightblue" stroke="midnightblue" points="263.855,-259.005 254.288,-263.557 264.606,-265.965 263.855,-259.005"/>
</g>
<!-- Node10 -->
<g id="node10" class="node"><title>Node10</title>
<g id="a_node10"><a xlink:href="../../dc/dbe/classmodel_1_1instructions_1_1_multiple_turtles_instruction.html" target="_top" xlink:title="model.instructions.Multiple\lTurtlesInstruction">
<polygon fill="white" stroke="black" points="308.5,-186 308.5,-216 453.5,-216 453.5,-186 308.5,-186"/>
<text text-anchor="start" x="316.5" y="-204" font-family="Helvetica,sans-Serif" font-size="10.00">model.instructions.Multiple</text>
<text text-anchor="middle" x="381" y="-193" font-family="Helvetica,sans-Serif" font-size="10.00">TurtlesInstruction</text>
</a>
</g>
</g>
<!-- Node1&#45;&gt;Node10 -->
<g id="edge9" class="edge"><title>Node1&#45;&gt;Node10</title>
<path fill="none" stroke="midnightblue" d="M206.558,-258.126C229.28,-248.125 261.203,-234.73 290,-225 299.345,-221.843 309.347,-218.827 319.162,-216.065"/>
<polygon fill="midnightblue" stroke="midnightblue" points="204.833,-255.063 197.115,-262.321 207.675,-261.46 204.833,-255.063"/>
</g>
<!-- Node11 -->
<g id="node11" class="node"><title>Node11</title>
<g id="a_node11"><a xlink:href="../../d6/d1d/classmodel_1_1instructions_1_1_string_instruction.html" target="_top" xlink:title="model.instructions.String\lInstruction">
<polygon fill="white" stroke="black" points="312.5,-137 312.5,-167 449.5,-167 449.5,-137 312.5,-137"/>
<text text-anchor="start" x="320.5" y="-155" font-family="Helvetica,sans-Serif" font-size="10.00">model.instructions.String</text>
<text text-anchor="middle" x="381" y="-144" font-family="Helvetica,sans-Serif" font-size="10.00">Instruction</text>
</a>
</g>
</g>
<!-- Node1&#45;&gt;Node11 -->
<g id="edge10" class="edge"><title>Node1&#45;&gt;Node11</title>
<path fill="none" stroke="midnightblue" d="M191.692,-254.758C212.236,-233.213 250.321,-196.67 290,-176 297.027,-172.339 304.662,-169.201 312.414,-166.518"/>
<polygon fill="midnightblue" stroke="midnightblue" points="188.99,-252.523 184.711,-262.216 194.1,-257.307 188.99,-252.523"/>
</g>
<!-- Node12 -->
<g id="node12" class="node"><title>Node12</title>
<g id="a_node12"><a xlink:href="../../da/d93/classmodel_1_1instructions_1_1_turtle_request_instruction.html" target="_top" xlink:title="model.instructions.Turtle\lRequestInstruction">
<polygon fill="white" stroke="black" points="314,-88 314,-118 448,-118 448,-88 314,-88"/>
<text text-anchor="start" x="322" y="-106" font-family="Helvetica,sans-Serif" font-size="10.00">model.instructions.Turtle</text>
<text text-anchor="middle" x="381" y="-95" font-family="Helvetica,sans-Serif" font-size="10.00">RequestInstruction</text>
</a>
</g>
</g>
<!-- Node1&#45;&gt;Node12 -->
<g id="edge11" class="edge"><title>Node1&#45;&gt;Node12</title>
<path fill="none" stroke="midnightblue" d="M185.299,-253.599C201.938,-222.587 239.812,-160.066 290,-127 297.292,-122.196 305.512,-118.35 313.945,-115.273"/>
<polygon fill="midnightblue" stroke="midnightblue" points="182.186,-252 180.654,-262.483 188.389,-255.243 182.186,-252"/>
</g>
<!-- Node13 -->
<g id="node13" class="node"><title>Node13</title>
<g id="a_node13"><a xlink:href="../../d9/d13/classmodel_1_1instructions_1_1_user_running_instruction.html" target="_top" xlink:title="model.instructions.UserRunning\lInstruction">
<polygon fill="white" stroke="black" points="297,-39 297,-69 465,-69 465,-39 297,-39"/>
<text text-anchor="start" x="305" y="-57" font-family="Helvetica,sans-Serif" font-size="10.00">model.instructions.UserRunning</text>
<text text-anchor="middle" x="381" y="-46" font-family="Helvetica,sans-Serif" font-size="10.00">Instruction</text>
</a>
</g>
</g>
<!-- Node1&#45;&gt;Node13 -->
<g id="edge12" class="edge"><title>Node1&#45;&gt;Node13</title>
<path fill="none" stroke="midnightblue" d="M181.883,-252.427C194.742,-213.087 229.17,-124.249 290,-78 294.506,-74.5745 299.461,-71.637 304.66,-69.1181"/>
<polygon fill="midnightblue" stroke="midnightblue" points="178.492,-251.544 178.825,-262.134 185.168,-253.648 178.492,-251.544"/>
</g>
<!-- Node14 -->
<g id="node14" class="node"><title>Node14</title>
<g id="a_node14"><a xlink:href="../../d4/d62/classmodel_1_1instructions_1_1_variable.html" target="_top" xlink:title="model.instructions.Variable">
<polygon fill="white" stroke="black" points="308,-0.5 308,-19.5 454,-19.5 454,-0.5 308,-0.5"/>
<text text-anchor="middle" x="381" y="-7.5" font-family="Helvetica,sans-Serif" font-size="10.00">model.instructions.Variable</text>
</a>
</g>
</g>
<!-- Node1&#45;&gt;Node14 -->
<g id="edge13" class="edge"><title>Node1&#45;&gt;Node14</title>
<path fill="none" stroke="midnightblue" d="M179.13,-252.47C187.679,-205.868 215.939,-87.687 290,-29 295.382,-24.7353 301.495,-21.3671 307.942,-18.7148"/>
<polygon fill="midnightblue" stroke="midnightblue" points="175.657,-252.013 177.402,-262.463 182.555,-253.206 175.657,-252.013"/>
</g>
<!-- Node2 -->
<g id="node2" class="node"><title>Node2</title>
<polygon fill="white" stroke="#bfbfbf" points="0,-262.5 0,-281.5 60,-281.5 60,-262.5 0,-262.5"/>
<text text-anchor="middle" x="30" y="-269.5" font-family="Helvetica,sans-Serif" font-size="10.00">Observer</text>
</g>
<!-- Node2&#45;&gt;Node1 -->
<g id="edge1" class="edge"><title>Node2&#45;&gt;Node1</title>
<path fill="none" stroke="midnightblue" d="M70.4033,-272C78.4353,-272 87.1493,-272 95.9972,-272"/>
<polygon fill="midnightblue" stroke="midnightblue" points="70.2833,-268.5 60.2833,-272 70.2832,-275.5 70.2833,-268.5"/>
</g>
</g>
</svg>
        <g id="navigator" transform="translate(0 0)" fill="#404254">
                <rect fill="#f2f5e9" fill-opacity="0.5" stroke="#606060" stroke-width=".5" x="0" y="0" width="60" height="60"/>
                <use id="zoomplus" xlink:href="#zoomPlus" x="17" y="9" onmousedown="handleZoom(evt,'in')"/>
                <use id="zoomminus" xlink:href="#zoomMin" x="42" y="9" onmousedown="handleZoom(evt,'out')"/>
                <use id="reset" xlink:href="#resetDef" x="30" y="36" onmousedown="handleReset()"/>
                <g id="arrowUp" xlink:href="#dirArrow" transform="translate(30 24)" onmousedown="handlePan(0,-1)">
                  <use xlink:href="#rim" fill="#404040">
                        <set attributeName="fill" to="#808080" begin="arrowUp.mouseover" end="arrowUp.mouseout"/>
                  </use>
                  <path fill="none" stroke="white" stroke-width="1.5" d="M0,-3.0v7 M-2.5,-0.5L0,-3.0L2.5,-0.5"/>
                </g>
                <g id="arrowRight" xlink:href="#dirArrow" transform="rotate(90) translate(36 -43)" onmousedown="handlePan(1,0)">
                  <use xlink:href="#rim" fill="#404040">
                        <set attributeName="fill" to="#808080" begin="arrowRight.mouseover" end="arrowRight.mouseout"/>
                  </use>
                  <path fill="none" stroke="white" stroke-width="1.5" d="M0,-3.0v7 M-2.5,-0.5L0,-3.0L2.5,-0.5"/>
                </g>
                <g id="arrowDown" xlink:href="#dirArrow" transform="rotate(180) translate(-30 -48)" onmousedown="handlePan(0,1)">
                  <use xlink:href="#rim" fill="#404040">
                        <set attributeName="fill" to="#808080" begin="arrowDown.mouseover" end="arrowDown.mouseout"/>
                  </use>
                  <path fill="none" stroke="white" stroke-width="1.5" d="M0,-3.0v7 M-2.5,-0.5L0,-3.0L2.5,-0.5"/>
                </g>
                <g id="arrowLeft" xlink:href="#dirArrow" transform="rotate(270) translate(-36 17)" onmousedown="handlePan(-1,0)">
                  <use xlink:href="#rim" fill="#404040">
                        <set attributeName="fill" to="#808080" begin="arrowLeft.mouseover" end="arrowLeft.mouseout"/>
                  </use>
                  <path fill="none" stroke="white" stroke-width="1.5" d="M0,-3.0v7 M-2.5,-0.5L0,-3.0L2.5,-0.5"/>
                </g>
        </g>
        <svg viewBox="0 0 15 15" width="100%" height="30px" preserveAspectRatio="xMaxYMin meet">
         <g id="arrow_out" transform="scale(0.3 0.3)">
          <a xlink:href="classmodel_1_1instructions_1_1_instruction__inherit__graph_org.svg" target="_base">
           <rect id="button" ry="5" rx="5" y="6" x="6" height="38" width="38"
                fill="#f2f5e9" fill-opacity="0.5" stroke="#606060" stroke-width="1.0"/>
           <path id="arrow"
             d="M 11.500037,31.436501 C 11.940474,20.09759 22.043105,11.32322 32.158766,21.979434 L 37.068811,17.246167 C 37.068811,17.246167 37.088388,32 37.088388,32 L 22.160133,31.978069 C 22.160133,31.978069 26.997745,27.140456 26.997745,27.140456 C 18.528582,18.264221 13.291696,25.230495 11.500037,31.436501 z"
             style="fill:#404040;"/>
          </a>
         </g>
        </svg>
</svg>
