<?xml version="1.0" encoding="UTF-8" standalone="no"?>
<!DOCTYPE svg PUBLIC "-//W3C//DTD SVG 1.1//EN"
 "http://www.w3.org/Graphics/SVG/1.1/DTD/svg11.dtd">
<!-- Generated by graphviz version 2.36.0 (20140111.2315)
 -->
<!-- Title: view.SideBar.updateTurtleProperties Pages: 1 -->
<svg width="546pt" height="180pt"
 viewBox="0.00 0.00 546.00 180.00" xmlns="http://www.w3.org/2000/svg" xmlns:xlink="http://www.w3.org/1999/xlink">
<g id="graph0" class="graph" transform="scale(1 1) rotate(0) translate(4 176)">
<title>view.SideBar.updateTurtleProperties</title>
<polygon fill="white" stroke="none" points="-4,4 -4,-176 542,-176 542,4 -4,4"/>
<!-- Node1 -->
<g id="node1" class="node"><title>Node1</title>
<polygon fill="#bfbfbf" stroke="black" points="0,-71 0,-101 138,-101 138,-71 0,-71"/>
<text text-anchor="start" x="8" y="-89" font-family="Helvetica,sans-Serif" font-size="10.00">view.SideBar.updateTurtle</text>
<text text-anchor="middle" x="69" y="-78" font-family="Helvetica,sans-Serif" font-size="10.00">Properties</text>
</g>
<!-- Node2 -->
<g id="node2" class="node"><title>Node2</title>
<g id="a_node2"><a xlink:href="../../d9/d3a/classview_1_1_turtle_properties_view.html#af07bce3cf2bed2814a0fb3812d00b69e" target="_top" xlink:title="view.TurtlePropertiesView.update">
<polygon fill="white" stroke="black" points="174.5,-76.5 174.5,-95.5 345.5,-95.5 345.5,-76.5 174.5,-76.5"/>
<text text-anchor="middle" x="260" y="-83.5" font-family="Helvetica,sans-Serif" font-size="10.00">view.TurtlePropertiesView.update</text>
</a>
</g>
</g>
<!-- Node1&#45;&gt;Node2 -->
<g id="edge1" class="edge"><title>Node1&#45;&gt;Node2</title>
<path fill="none" stroke="midnightblue" d="M138.233,-86C146.669,-86 155.408,-86 164.151,-86"/>
<polygon fill="midnightblue" stroke="midnightblue" points="164.399,-89.5001 174.399,-86 164.399,-82.5001 164.399,-89.5001"/>
</g>
<!-- Node3 -->
<g id="node3" class="node"><title>Node3</title>
<g id="a_node3"><a xlink:href="../../da/d64/classview_1_1_workspace.html#ad460da1164f039e5ea9a265d446d13fe" target="_top" xlink:title="view.Workspace.getTurtleMap">
<polygon fill="white" stroke="black" points="382.5,-152.5 382.5,-171.5 537.5,-171.5 537.5,-152.5 382.5,-152.5"/>
<text text-anchor="middle" x="460" y="-159.5" font-family="Helvetica,sans-Serif" font-size="10.00">view.Workspace.getTurtleMap</text>
</a>
</g>
</g>
<!-- Node2&#45;&gt;Node3 -->
<g id="edge2" class="edge"><title>Node2&#45;&gt;Node3</title>
<path fill="none" stroke="midnightblue" d="M278.571,-95.638C301.708,-108.009 343.923,-129.484 382,-143 389.037,-145.498 396.549,-147.79 404.018,-149.852"/>
<polygon fill="midnightblue" stroke="midnightblue" points="403.206,-153.257 413.768,-152.427 404.994,-146.49 403.206,-153.257"/>
</g>
<!-- Node4 -->
<g id="node4" class="node"><title>Node4</title>
<g id="a_node4"><a xlink:href="../../d8/df7/classview_1_1_turtle_view.html#ab5fdc3775e06339f4a68d1b795a81643" target="_top" xlink:title="view.TurtleView.getID">
<polygon fill="white" stroke="black" points="403,-114.5 403,-133.5 517,-133.5 517,-114.5 403,-114.5"/>
<text text-anchor="middle" x="460" y="-121.5" font-family="Helvetica,sans-Serif" font-size="10.00">view.TurtleView.getID</text>
</a>
</g>
</g>
<!-- Node2&#45;&gt;Node4 -->
<g id="edge3" class="edge"><title>Node2&#45;&gt;Node4</title>
<path fill="none" stroke="midnightblue" d="M310.708,-95.54C337.541,-100.69 370.859,-107.084 399.113,-112.506"/>
<polygon fill="midnightblue" stroke="midnightblue" points="398.791,-116.009 409.271,-114.456 400.11,-109.134 398.791,-116.009"/>
</g>
<!-- Node5 -->
<g id="node5" class="node"><title>Node5</title>
<g id="a_node5"><a xlink:href="../../d8/df7/classview_1_1_turtle_view.html#afddbc74313a99bb100c8c50efa88f330" target="_top" xlink:title="view.TurtleView.getYCoord">
<polygon fill="white" stroke="black" points="391.5,-76.5 391.5,-95.5 528.5,-95.5 528.5,-76.5 391.5,-76.5"/>
<text text-anchor="middle" x="460" y="-83.5" font-family="Helvetica,sans-Serif" font-size="10.00">view.TurtleView.getYCoord</text>
</a>
</g>
</g>
<!-- Node2&#45;&gt;Node5 -->
<g id="edge4" class="edge"><title>Node2&#45;&gt;Node5</title>
<path fill="none" stroke="midnightblue" d="M345.544,-86C357.413,-86 369.566,-86 381.299,-86"/>
<polygon fill="midnightblue" stroke="midnightblue" points="381.485,-89.5001 391.485,-86 381.485,-82.5001 381.485,-89.5001"/>
</g>
<!-- Node6 -->
<g id="node6" class="node"><title>Node6</title>
<g id="a_node6"><a xlink:href="../../d8/df7/classview_1_1_turtle_view.html#a5da3d4c9dafb77af0db0c589a72eadc8" target="_top" xlink:title="view.TurtleView.getHeading">
<polygon fill="white" stroke="black" points="388,-38.5 388,-57.5 532,-57.5 532,-38.5 388,-38.5"/>
<text text-anchor="middle" x="460" y="-45.5" font-family="Helvetica,sans-Serif" font-size="10.00">view.TurtleView.getHeading</text>
</a>
</g>
</g>
<!-- Node2&#45;&gt;Node6 -->
<g id="edge5" class="edge"><title>Node2&#45;&gt;Node6</title>
<path fill="none" stroke="midnightblue" d="M310.708,-76.46C337.541,-71.3104 370.859,-64.916 399.113,-59.4935"/>
<polygon fill="midnightblue" stroke="midnightblue" points="400.11,-62.866 409.271,-57.5439 398.791,-55.9915 400.11,-62.866"/>
</g>
<!-- Node7 -->
<g id="node7" class="node"><title>Node7</title>
<g id="a_node7"><a xlink:href="../../d5/dea/classview_1_1_side_table_view.html#adbdf2bf0ebf7fc8ab04db2087baea03a" target="_top" xlink:title="view.SideTableView.getTable">
<polygon fill="white" stroke="black" points="386,-0.5 386,-19.5 534,-19.5 534,-0.5 386,-0.5"/>
<text text-anchor="middle" x="460" y="-7.5" font-family="Helvetica,sans-Serif" font-size="10.00">view.SideTableView.getTable</text>
</a>
</g>
</g>
<!-- Node2&#45;&gt;Node7 -->
<g id="edge6" class="edge"><title>Node2&#45;&gt;Node7</title>
<path fill="none" stroke="midnightblue" d="M278.571,-76.362C301.708,-63.991 343.923,-42.5156 382,-29 389.037,-26.5021 396.549,-24.2098 404.018,-22.1481"/>
<polygon fill="midnightblue" stroke="midnightblue" points="404.994,-25.5104 413.768,-19.5728 403.206,-18.7425 404.994,-25.5104"/>
</g>
</g>
</svg>
