<?xml version="1.0" encoding="UTF-8" standalone="no"?>
<!DOCTYPE svg PUBLIC "-//W3C//DTD SVG 1.1//EN"
 "http://www.w3.org/Graphics/SVG/1.1/DTD/svg11.dtd">
<!-- Generated by graphviz version 2.36.0 (20140111.2315)
 -->
<!-- Title: view.SideBar.updateTurtleProperties Pages: 1 -->
<svg width="2078pt" height="471pt"
 viewBox="0.00 0.00 2078.00 471.00" xmlns="http://www.w3.org/2000/svg" xmlns:xlink="http://www.w3.org/1999/xlink">
<g id="graph0" class="graph" transform="scale(1 1) rotate(0) translate(4 467)">
<title>view.SideBar.updateTurtleProperties</title>
<polygon fill="white" stroke="none" points="-4,4 -4,-467 2074,-467 2074,4 -4,4"/>
<!-- Node1 -->
<g id="node1" class="node"><title>Node1</title>
<polygon fill="#bfbfbf" stroke="black" points="0,-185 0,-215 138,-215 138,-185 0,-185"/>
<text text-anchor="start" x="8" y="-203" font-family="Helvetica,sans-Serif" font-size="10.00">view.SideBar.updateTurtle</text>
<text text-anchor="middle" x="69" y="-192" font-family="Helvetica,sans-Serif" font-size="10.00">Properties</text>
</g>
<!-- Node2 -->
<g id="node2" class="node"><title>Node2</title>
<g id="a_node2"><a xlink:href="../../d4/d64/classview_1_1_view_updater.html#ace7ce28317856b4b454a798d1af23b38" target="_top" xlink:title="view.ViewUpdater.clearScreen">
<polygon fill="white" stroke="black" points="582.5,-301.5 582.5,-320.5 741.5,-320.5 741.5,-301.5 582.5,-301.5"/>
<text text-anchor="middle" x="662" y="-308.5" font-family="Helvetica,sans-Serif" font-size="10.00">view.ViewUpdater.clearScreen</text>
</a>
</g>
</g>
<!-- Node1&#45;&gt;Node2 -->
<g id="edge1" class="edge"><title>Node1&#45;&gt;Node2</title>
<path fill="none" stroke="midnightblue" d="M86.8946,-222.939C105.369,-245.95 137.285,-280.057 174,-295 322.48,-355.431 517.99,-335.163 609.545,-320.555"/>
<polygon fill="midnightblue" stroke="midnightblue" points="89.6246,-220.748 80.7123,-215.019 84.1067,-225.055 89.6246,-220.748"/>
</g>
<!-- Node4 -->
<g id="node4" class="node"><title>Node4</title>
<g id="a_node4"><a xlink:href="../../de/d0a/classview_1_1_drawer.html#a6b9f362b8bc763689630b1fe7b5c1887" target="_top" xlink:title="view.Drawer.draw">
<polygon fill="white" stroke="black" points="199,-266.5 199,-285.5 297,-285.5 297,-266.5 199,-266.5"/>
<text text-anchor="middle" x="248" y="-273.5" font-family="Helvetica,sans-Serif" font-size="10.00">view.Drawer.draw</text>
</a>
</g>
</g>
<!-- Node1&#45;&gt;Node4 -->
<g id="edge3" class="edge"><title>Node1&#45;&gt;Node4</title>
<path fill="none" stroke="midnightblue" d="M102.267,-220.393C122.308,-232.365 148.942,-247.05 174,-257 183.25,-260.673 193.442,-263.84 203.201,-266.477"/>
<polygon fill="midnightblue" stroke="midnightblue" points="103.918,-217.301 93.5521,-215.11 100.289,-223.287 103.918,-217.301"/>
</g>
<!-- Node7 -->
<g id="node7" class="node"><title>Node7</title>
<g id="a_node7"><a xlink:href="../../da/d64/classview_1_1_workspace.html#a16bda9a6a7fe7f8d3d7b09108675f9c4" target="_top" xlink:title="view.Workspace.setActive\lTurtle">
<polygon fill="white" stroke="black" points="179.5,-381 179.5,-411 316.5,-411 316.5,-381 179.5,-381"/>
<text text-anchor="start" x="187.5" y="-399" font-family="Helvetica,sans-Serif" font-size="10.00">view.Workspace.setActive</text>
<text text-anchor="middle" x="248" y="-388" font-family="Helvetica,sans-Serif" font-size="10.00">Turtle</text>
</a>
</g>
</g>
<!-- Node1&#45;&gt;Node7 -->
<g id="edge7" class="edge"><title>Node1&#45;&gt;Node7</title>
<path fill="none" stroke="midnightblue" d="M79.6287,-224.645C94.7209,-260.348 127.146,-326.494 174,-366 181.123,-372.006 189.613,-376.938 198.24,-380.943"/>
<polygon fill="midnightblue" stroke="midnightblue" points="82.7095,-222.934 75.6688,-215.017 76.2357,-225.597 82.7095,-222.934"/>
</g>
<!-- Node19 -->
<g id="node19" class="node"><title>Node19</title>
<g id="a_node19"><a xlink:href="../../d4/d64/classview_1_1_view_updater.html#ab8c47e1d6b8bc5c076184e3e0af5e4b2" target="_top" xlink:title="view.ViewUpdater.setHeading">
<polygon fill="white" stroke="black" points="373.5,-133.5 373.5,-152.5 530.5,-152.5 530.5,-133.5 373.5,-133.5"/>
<text text-anchor="middle" x="452" y="-140.5" font-family="Helvetica,sans-Serif" font-size="10.00">view.ViewUpdater.setHeading</text>
</a>
</g>
</g>
<!-- Node1&#45;&gt;Node19 -->
<g id="edge21" class="edge"><title>Node1&#45;&gt;Node19</title>
<path fill="none" stroke="midnightblue" d="M98.5342,-179.22C118.553,-165.976 146.548,-150.03 174,-143 242.6,-125.434 323.928,-128.076 380.646,-133.49"/>
<polygon fill="midnightblue" stroke="midnightblue" points="96.5025,-176.369 90.1985,-184.884 100.437,-182.158 96.5025,-176.369"/>
</g>
<!-- Node21 -->
<g id="node21" class="node"><title>Node21</title>
<g id="a_node21"><a xlink:href="../../d6/de7/classview_1_1_s_logo_view.html#ae7ad67f4b629b134cb805842a20f4050" target="_top" xlink:title="view.SLogoView.setHeading">
<polygon fill="white" stroke="black" points="174,-228.5 174,-247.5 322,-247.5 322,-228.5 174,-228.5"/>
<text text-anchor="middle" x="248" y="-235.5" font-family="Helvetica,sans-Serif" font-size="10.00">view.SLogoView.setHeading</text>
</a>
</g>
</g>
<!-- Node1&#45;&gt;Node21 -->
<g id="edge24" class="edge"><title>Node1&#45;&gt;Node21</title>
<path fill="none" stroke="midnightblue" d="M148.16,-216.78C166.819,-220.786 186.099,-224.925 202.622,-228.472"/>
<polygon fill="midnightblue" stroke="midnightblue" points="148.692,-213.315 138.18,-214.637 147.222,-220.159 148.692,-213.315"/>
</g>
<!-- Node23 -->
<g id="node23" class="node"><title>Node23</title>
<g id="a_node23"><a xlink:href="../../d4/d64/classview_1_1_view_updater.html#ad79c00c54aabbeca7b8a0461fea36c29" target="_top" xlink:title="view.ViewUpdater.setPenUp">
<polygon fill="white" stroke="black" points="377.5,-67.5 377.5,-86.5 526.5,-86.5 526.5,-67.5 377.5,-67.5"/>
<text text-anchor="middle" x="452" y="-74.5" font-family="Helvetica,sans-Serif" font-size="10.00">view.ViewUpdater.setPenUp</text>
</a>
</g>
</g>
<!-- Node1&#45;&gt;Node23 -->
<g id="edge26" class="edge"><title>Node1&#45;&gt;Node23</title>
<path fill="none" stroke="midnightblue" d="M80.5846,-175.674C95.929,-143.876 127.678,-89.5811 174,-67 256.402,-26.8309 369.554,-51.9822 422.062,-67.4822"/>
<polygon fill="midnightblue" stroke="midnightblue" points="77.402,-174.217 76.3512,-184.76 83.7471,-177.174 77.402,-174.217"/>
</g>
<!-- Node24 -->
<g id="node24" class="node"><title>Node24</title>
<g id="a_node24"><a xlink:href="../../d6/de7/classview_1_1_s_logo_view.html#a978a65a0b82bac25044f7e2816a680cc" target="_top" xlink:title="view.SLogoView.setPenUp">
<polygon fill="white" stroke="black" points="178,-152.5 178,-171.5 318,-171.5 318,-152.5 178,-152.5"/>
<text text-anchor="middle" x="248" y="-159.5" font-family="Helvetica,sans-Serif" font-size="10.00">view.SLogoView.setPenUp</text>
</a>
</g>
</g>
<!-- Node1&#45;&gt;Node24 -->
<g id="edge28" class="edge"><title>Node1&#45;&gt;Node24</title>
<path fill="none" stroke="midnightblue" d="M148.16,-183.22C166.819,-179.214 186.099,-175.075 202.622,-171.528"/>
<polygon fill="midnightblue" stroke="midnightblue" points="147.222,-179.841 138.18,-185.363 148.692,-186.685 147.222,-179.841"/>
</g>
<!-- Node25 -->
<g id="node25" class="node"><title>Node25</title>
<g id="a_node25"><a xlink:href="../../d4/d64/classview_1_1_view_updater.html#a497cc83cdcb6fdb430bdb78431c5cd20" target="_top" xlink:title="view.ViewUpdater.setXY">
<polygon fill="white" stroke="black" points="598,-341.5 598,-360.5 726,-360.5 726,-341.5 598,-341.5"/>
<text text-anchor="middle" x="662" y="-348.5" font-family="Helvetica,sans-Serif" font-size="10.00">view.ViewUpdater.setXY</text>
</a>
</g>
</g>
<!-- Node1&#45;&gt;Node25 -->
<g id="edge29" class="edge"><title>Node1&#45;&gt;Node25</title>
<path fill="none" stroke="midnightblue" d="M81.7916,-224.191C97.9415,-254.316 130.029,-304.544 174,-327 246.185,-363.865 482.887,-359.006 597.58,-354.218"/>
<polygon fill="midnightblue" stroke="midnightblue" points="84.8265,-222.441 77.1132,-215.178 78.6134,-225.666 84.8265,-222.441"/>
</g>
<!-- Node26 -->
<g id="node26" class="node"><title>Node26</title>
<g id="a_node26"><a xlink:href="../../d6/de7/classview_1_1_s_logo_view.html#a0948ea67bfc088f941e2af79727231ad" target="_top" xlink:title="view.SLogoView.setXY">
<polygon fill="white" stroke="black" points="188.5,-76.5 188.5,-95.5 307.5,-95.5 307.5,-76.5 188.5,-76.5"/>
<text text-anchor="middle" x="248" y="-83.5" font-family="Helvetica,sans-Serif" font-size="10.00">view.SLogoView.setXY</text>
</a>
</g>
</g>
<!-- Node1&#45;&gt;Node26 -->
<g id="edge31" class="edge"><title>Node1&#45;&gt;Node26</title>
<path fill="none" stroke="midnightblue" d="M90.6872,-177.615C110.395,-157.456 141.763,-128.266 174,-110 184.563,-104.015 196.84,-99.2527 208.278,-95.5996"/>
<polygon fill="midnightblue" stroke="midnightblue" points="88.1327,-175.222 83.7275,-184.858 93.1801,-180.073 88.1327,-175.222"/>
</g>
<!-- Node27 -->
<g id="node27" class="node"><title>Node27</title>
<g id="a_node27"><a xlink:href="../../d4/d64/classview_1_1_view_updater.html#a9797c2f411ad272a0feb84c26836bfd4" target="_top" xlink:title="view.ViewUpdater.showTurtle">
<polygon fill="white" stroke="black" points="376,-190.5 376,-209.5 528,-209.5 528,-190.5 376,-190.5"/>
<text text-anchor="middle" x="452" y="-197.5" font-family="Helvetica,sans-Serif" font-size="10.00">view.ViewUpdater.showTurtle</text>
</a>
</g>
</g>
<!-- Node1&#45;&gt;Node27 -->
<g id="edge32" class="edge"><title>Node1&#45;&gt;Node27</title>
<path fill="none" stroke="midnightblue" d="M148.155,-200C214.866,-200 310.177,-200 375.974,-200"/>
<polygon fill="midnightblue" stroke="midnightblue" points="148.115,-196.5 138.115,-200 148.115,-203.5 148.115,-196.5"/>
</g>
<!-- Node28 -->
<g id="node28" class="node"><title>Node28</title>
<g id="a_node28"><a xlink:href="../../d6/de7/classview_1_1_s_logo_view.html#a00710838e28dcb10fe6da3c0ec0c4e20" target="_top" xlink:title="view.SLogoView.showTurtle">
<polygon fill="white" stroke="black" points="176.5,-0.5 176.5,-19.5 319.5,-19.5 319.5,-0.5 176.5,-0.5"/>
<text text-anchor="middle" x="248" y="-7.5" font-family="Helvetica,sans-Serif" font-size="10.00">view.SLogoView.showTurtle</text>
</a>
</g>
</g>
<!-- Node1&#45;&gt;Node28 -->
<g id="edge34" class="edge"><title>Node1&#45;&gt;Node28</title>
<path fill="none" stroke="midnightblue" d="M79.074,-175.368C93.6207,-139.209 125.542,-71.9495 174,-34 182.088,-27.6663 191.914,-22.9714 201.702,-19.5026"/>
<polygon fill="midnightblue" stroke="midnightblue" points="75.8103,-174.104 75.4325,-184.692 82.3307,-176.65 75.8103,-174.104"/>
</g>
<!-- Node3 -->
<g id="node3" class="node"><title>Node3</title>
<g id="a_node3"><a xlink:href="../../d1/dd3/classmodel_1_1instructions_1_1_movement_instruction.html#a33e802cec8283d190a8daac6e485e3b4" target="_top" xlink:title="model.instructions.Movement\lInstruction.execute">
<polygon fill="white" stroke="black" points="778.5,-220 778.5,-250 937.5,-250 937.5,-220 778.5,-220"/>
<text text-anchor="start" x="786.5" y="-238" font-family="Helvetica,sans-Serif" font-size="10.00">model.instructions.Movement</text>
<text text-anchor="middle" x="858" y="-227" font-family="Helvetica,sans-Serif" font-size="10.00">Instruction.execute</text>
</a>
</g>
</g>
<!-- Node2&#45;&gt;Node3 -->
<g id="edge2" class="edge"><title>Node2&#45;&gt;Node3</title>
<path fill="none" stroke="midnightblue" d="M705.642,-298.457C717.505,-294.711 730.333,-290.417 742,-286 770.8,-275.095 802.761,-260.732 825.665,-250.027"/>
<polygon fill="midnightblue" stroke="midnightblue" points="704.463,-295.159 695.95,-301.466 706.538,-301.844 704.463,-295.159"/>
</g>
<!-- Node5 -->
<g id="node5" class="node"><title>Node5</title>
<g id="a_node5"><a xlink:href="../../d4/d64/classview_1_1_view_updater.html#adc0790ceed057768bd5a29a470e626d1" target="_top" xlink:title="view.ViewUpdater.updateWorkspace">
<polygon fill="white" stroke="black" points="358.5,-266.5 358.5,-285.5 545.5,-285.5 545.5,-266.5 358.5,-266.5"/>
<text text-anchor="middle" x="452" y="-273.5" font-family="Helvetica,sans-Serif" font-size="10.00">view.ViewUpdater.updateWorkspace</text>
</a>
</g>
</g>
<!-- Node4&#45;&gt;Node5 -->
<g id="edge4" class="edge"><title>Node4&#45;&gt;Node5</title>
<path fill="none" stroke="midnightblue" d="M307.362,-276C323.351,-276 341.088,-276 358.485,-276"/>
<polygon fill="midnightblue" stroke="midnightblue" points="307.127,-272.5 297.127,-276 307.127,-279.5 307.127,-272.5"/>
</g>
<!-- Node6 -->
<g id="node6" class="node"><title>Node6</title>
<g id="a_node6"><a xlink:href="../../d1/dd3/classmodel_1_1instructions_1_1_movement_instruction.html#a51c776093aeb820937b12e2b89eb2f89" target="_top" xlink:title="model.instructions.Movement\lInstruction.updateView">
<polygon fill="white" stroke="black" points="582.5,-247 582.5,-277 741.5,-277 741.5,-247 582.5,-247"/>
<text text-anchor="start" x="590.5" y="-265" font-family="Helvetica,sans-Serif" font-size="10.00">model.instructions.Movement</text>
<text text-anchor="middle" x="662" y="-254" font-family="Helvetica,sans-Serif" font-size="10.00">Instruction.updateView</text>
</a>
</g>
</g>
<!-- Node5&#45;&gt;Node6 -->
<g id="edge5" class="edge"><title>Node5&#45;&gt;Node6</title>
<path fill="none" stroke="midnightblue" d="M555.821,-269.079C564.762,-268.478 573.714,-267.875 582.413,-267.289"/>
<polygon fill="midnightblue" stroke="midnightblue" points="555.489,-265.594 545.746,-269.757 555.959,-272.578 555.489,-265.594"/>
</g>
<!-- Node6&#45;&gt;Node3 -->
<g id="edge6" class="edge"><title>Node6&#45;&gt;Node3</title>
<path fill="none" stroke="midnightblue" d="M751.608,-249.668C760.498,-248.431 769.483,-247.18 778.26,-245.959"/>
<polygon fill="midnightblue" stroke="midnightblue" points="751.05,-246.212 741.628,-251.057 752.015,-253.145 751.05,-246.212"/>
</g>
<!-- Node8 -->
<g id="node8" class="node"><title>Node8</title>
<g id="a_node8"><a xlink:href="../../da/d64/classview_1_1_workspace.html#abbd85b844575ebab6643ba4ddc5a1612" target="_top" xlink:title="view.Workspace.Workspace">
<polygon fill="white" stroke="black" points="786,-380.5 786,-399.5 930,-399.5 930,-380.5 786,-380.5"/>
<text text-anchor="middle" x="858" y="-387.5" font-family="Helvetica,sans-Serif" font-size="10.00">view.Workspace.Workspace</text>
</a>
</g>
</g>
<!-- Node7&#45;&gt;Node8 -->
<g id="edge8" class="edge"><title>Node7&#45;&gt;Node8</title>
<path fill="none" stroke="midnightblue" d="M326.799,-395.232C445.66,-394.059 670.74,-391.838 785.632,-390.704"/>
<polygon fill="midnightblue" stroke="midnightblue" points="326.647,-391.733 316.682,-395.332 326.716,-398.733 326.647,-391.733"/>
</g>
<!-- Node9 -->
<g id="node9" class="node"><title>Node9</title>
<g id="a_node9"><a xlink:href="../../da/d64/classview_1_1_workspace.html#a9eea72f983d5e7ad5af85056d927e380" target="_top" xlink:title="view.Workspace.configure\lTurtleEventHandler">
<polygon fill="white" stroke="black" points="383.5,-419 383.5,-449 520.5,-449 520.5,-419 383.5,-419"/>
<text text-anchor="start" x="391.5" y="-437" font-family="Helvetica,sans-Serif" font-size="10.00">view.Workspace.configure</text>
<text text-anchor="middle" x="452" y="-426" font-family="Helvetica,sans-Serif" font-size="10.00">TurtleEventHandler</text>
</a>
</g>
</g>
<!-- Node7&#45;&gt;Node9 -->
<g id="edge9" class="edge"><title>Node7&#45;&gt;Node9</title>
<path fill="none" stroke="midnightblue" d="M326.488,-410.577C345.165,-414.091 364.979,-417.818 383.176,-421.241"/>
<polygon fill="midnightblue" stroke="midnightblue" points="327.019,-407.115 316.544,-408.706 325.724,-413.995 327.019,-407.115"/>
</g>
<!-- Node10 -->
<g id="node10" class="node"><title>Node10</title>
<g id="a_node10"><a xlink:href="../../da/d64/classview_1_1_workspace.html#a4abde41a3048fa8f64ddfec40c8ffdb7" target="_top" xlink:title="view.Workspace.addTurtle">
<polygon fill="white" stroke="black" points="593.5,-424.5 593.5,-443.5 730.5,-443.5 730.5,-424.5 593.5,-424.5"/>
<text text-anchor="middle" x="662" y="-431.5" font-family="Helvetica,sans-Serif" font-size="10.00">view.Workspace.addTurtle</text>
</a>
</g>
</g>
<!-- Node9&#45;&gt;Node10 -->
<g id="edge10" class="edge"><title>Node9&#45;&gt;Node10</title>
<path fill="none" stroke="midnightblue" d="M530.541,-434C551.208,-434 573.368,-434 593.452,-434"/>
<polygon fill="midnightblue" stroke="midnightblue" points="530.532,-430.5 520.532,-434 530.532,-437.5 530.532,-430.5"/>
</g>
<!-- Node10&#45;&gt;Node8 -->
<g id="edge20" class="edge"><title>Node10&#45;&gt;Node8</title>
<path fill="none" stroke="midnightblue" d="M714.957,-422.216C746.274,-415.113 785.643,-406.184 814.987,-399.529"/>
<polygon fill="midnightblue" stroke="midnightblue" points="714.073,-418.827 705.095,-424.453 715.622,-425.654 714.073,-418.827"/>
</g>
<!-- Node11 -->
<g id="node11" class="node"><title>Node11</title>
<g id="a_node11"><a xlink:href="../../d6/de7/classview_1_1_s_logo_view.html#acf432f20e1a7dda7bef97f0619fb0fa5" target="_top" xlink:title="view.SLogoView.configure\lAddTurtlesButton">
<polygon fill="white" stroke="black" points="789.5,-419 789.5,-449 926.5,-449 926.5,-419 789.5,-419"/>
<text text-anchor="start" x="797.5" y="-437" font-family="Helvetica,sans-Serif" font-size="10.00">view.SLogoView.configure</text>
<text text-anchor="middle" x="858" y="-426" font-family="Helvetica,sans-Serif" font-size="10.00">AddTurtlesButton</text>
</a>
</g>
</g>
<!-- Node10&#45;&gt;Node11 -->
<g id="edge11" class="edge"><title>Node10&#45;&gt;Node11</title>
<path fill="none" stroke="midnightblue" d="M740.979,-434C756.99,-434 773.722,-434 789.334,-434"/>
<polygon fill="midnightblue" stroke="midnightblue" points="740.579,-430.5 730.579,-434 740.579,-437.5 740.579,-430.5"/>
</g>
<!-- Node12 -->
<g id="node12" class="node"><title>Node12</title>
<g id="a_node12"><a xlink:href="../../d6/de7/classview_1_1_s_logo_view.html#ae0050481c9168dd8eeb434d9aa79b047" target="_top" xlink:title="view.SLogoView.configureUI">
<polygon fill="white" stroke="black" points="974.5,-424.5 974.5,-443.5 1121.5,-443.5 1121.5,-424.5 974.5,-424.5"/>
<text text-anchor="middle" x="1048" y="-431.5" font-family="Helvetica,sans-Serif" font-size="10.00">view.SLogoView.configureUI</text>
</a>
</g>
</g>
<!-- Node11&#45;&gt;Node12 -->
<g id="edge12" class="edge"><title>Node11&#45;&gt;Node12</title>
<path fill="none" stroke="midnightblue" d="M936.891,-434C949.266,-434 962.024,-434 974.274,-434"/>
<polygon fill="midnightblue" stroke="midnightblue" points="936.607,-430.5 926.607,-434 936.607,-437.5 936.607,-430.5"/>
</g>
<!-- Node13 -->
<g id="node13" class="node"><title>Node13</title>
<g id="a_node13"><a xlink:href="../../d1/d75/classview_1_1_main_view.html#ade3718ede33fa2086649c8b3cf75d2f9" target="_top" xlink:title="view.MainView.initTabs">
<polygon fill="white" stroke="black" points="1339.5,-443.5 1339.5,-462.5 1460.5,-462.5 1460.5,-443.5 1339.5,-443.5"/>
<text text-anchor="middle" x="1400" y="-450.5" font-family="Helvetica,sans-Serif" font-size="10.00">view.MainView.initTabs</text>
</a>
</g>
</g>
<!-- Node12&#45;&gt;Node13 -->
<g id="edge13" class="edge"><title>Node12&#45;&gt;Node13</title>
<path fill="none" stroke="midnightblue" d="M1131.56,-438.482C1195.37,-441.946 1282.18,-446.658 1339.36,-449.762"/>
<polygon fill="midnightblue" stroke="midnightblue" points="1131.7,-434.984 1121.52,-437.937 1131.32,-441.974 1131.7,-434.984"/>
</g>
<!-- Node15 -->
<g id="node15" class="node"><title>Node15</title>
<g id="a_node15"><a xlink:href="../../d1/d75/classview_1_1_main_view.html#a39a2b399924a553ccd89dd2a2e6ea208" target="_top" xlink:title="view.MainView.newTab">
<polygon fill="white" stroke="black" points="1158,-405.5 1158,-424.5 1278,-424.5 1278,-405.5 1158,-405.5"/>
<text text-anchor="middle" x="1218" y="-412.5" font-family="Helvetica,sans-Serif" font-size="10.00">view.MainView.newTab</text>
</a>
</g>
</g>
<!-- Node12&#45;&gt;Node15 -->
<g id="edge15" class="edge"><title>Node12&#45;&gt;Node15</title>
<path fill="none" stroke="midnightblue" d="M1131.65,-424.652C1140.49,-423.653 1149.34,-422.652 1157.82,-421.693"/>
<polygon fill="midnightblue" stroke="midnightblue" points="1131.25,-421.175 1121.71,-425.777 1132.04,-428.131 1131.25,-421.175"/>
</g>
<!-- Node14 -->
<g id="node14" class="node"><title>Node14</title>
<g id="a_node14"><a xlink:href="../../d1/d75/classview_1_1_main_view.html#a9e27015c007bed90f32c79fc1187083f" target="_top" xlink:title="view.MainView.MainView">
<polygon fill="white" stroke="black" points="1940,-424.5 1940,-443.5 2070,-443.5 2070,-424.5 1940,-424.5"/>
<text text-anchor="middle" x="2005" y="-431.5" font-family="Helvetica,sans-Serif" font-size="10.00">view.MainView.MainView</text>
</a>
</g>
</g>
<!-- Node13&#45;&gt;Node14 -->
<g id="edge14" class="edge"><title>Node13&#45;&gt;Node14</title>
<path fill="none" stroke="midnightblue" d="M1470.74,-450.803C1588.6,-447.089 1825.48,-439.625 1939.62,-436.029"/>
<polygon fill="midnightblue" stroke="midnightblue" points="1470.63,-447.304 1460.75,-451.117 1470.85,-454.301 1470.63,-447.304"/>
</g>
<!-- Node16 -->
<g id="node16" class="node"><title>Node16</title>
<g id="a_node16"><a xlink:href="../../d1/d75/classview_1_1_main_view.html#a0424800b5057be73f94e16ef2e1e2b33" target="_top" xlink:title="view.MainView.configureFileMenu">
<polygon fill="white" stroke="black" points="1314.5,-405.5 1314.5,-424.5 1485.5,-424.5 1485.5,-405.5 1314.5,-405.5"/>
<text text-anchor="middle" x="1400" y="-412.5" font-family="Helvetica,sans-Serif" font-size="10.00">view.MainView.configureFileMenu</text>
</a>
</g>
</g>
<!-- Node15&#45;&gt;Node16 -->
<g id="edge16" class="edge"><title>Node15&#45;&gt;Node16</title>
<path fill="none" stroke="midnightblue" d="M1288.55,-415C1296.96,-415 1305.62,-415 1314.22,-415"/>
<polygon fill="midnightblue" stroke="midnightblue" points="1288.44,-411.5 1278.44,-415 1288.44,-418.5 1288.44,-411.5"/>
</g>
<!-- Node17 -->
<g id="node17" class="node"><title>Node17</title>
<g id="a_node17"><a xlink:href="../../d1/d75/classview_1_1_main_view.html#a200c2c8e08e038e2ea86acc40c17d8d2" target="_top" xlink:title="view.MainView.configureTopMenu">
<polygon fill="white" stroke="black" points="1522,-405.5 1522,-424.5 1694,-424.5 1694,-405.5 1522,-405.5"/>
<text text-anchor="middle" x="1608" y="-412.5" font-family="Helvetica,sans-Serif" font-size="10.00">view.MainView.configureTopMenu</text>
</a>
</g>
</g>
<!-- Node16&#45;&gt;Node17 -->
<g id="edge17" class="edge"><title>Node16&#45;&gt;Node17</title>
<path fill="none" stroke="midnightblue" d="M1495.86,-415C1504.57,-415 1513.36,-415 1521.98,-415"/>
<polygon fill="midnightblue" stroke="midnightblue" points="1495.68,-411.5 1485.68,-415 1495.68,-418.5 1495.68,-411.5"/>
</g>
<!-- Node18 -->
<g id="node18" class="node"><title>Node18</title>
<g id="a_node18"><a xlink:href="../../d1/d75/classview_1_1_main_view.html#aff9e267e9368512a16e425f08d7b3ea0" target="_top" xlink:title="view.MainView.initRowConstraints">
<polygon fill="white" stroke="black" points="1730.5,-405.5 1730.5,-424.5 1903.5,-424.5 1903.5,-405.5 1730.5,-405.5"/>
<text text-anchor="middle" x="1817" y="-412.5" font-family="Helvetica,sans-Serif" font-size="10.00">view.MainView.initRowConstraints</text>
</a>
</g>
</g>
<!-- Node17&#45;&gt;Node18 -->
<g id="edge18" class="edge"><title>Node17&#45;&gt;Node18</title>
<path fill="none" stroke="midnightblue" d="M1704.22,-415C1712.9,-415 1721.65,-415 1730.24,-415"/>
<polygon fill="midnightblue" stroke="midnightblue" points="1704.09,-411.5 1694.09,-415 1704.09,-418.5 1704.09,-411.5"/>
</g>
<!-- Node18&#45;&gt;Node14 -->
<g id="edge19" class="edge"><title>Node18&#45;&gt;Node14</title>
<path fill="none" stroke="midnightblue" d="M1913.68,-424.774C1922.57,-425.682 1931.43,-426.587 1939.92,-427.455"/>
<polygon fill="midnightblue" stroke="midnightblue" points="1913.95,-421.284 1903.65,-423.749 1913.24,-428.247 1913.95,-421.284"/>
</g>
<!-- Node20 -->
<g id="node20" class="node"><title>Node20</title>
<g id="a_node20"><a xlink:href="../../d4/d64/classview_1_1_view_updater.html#ad29dfbb2499161b985c26e01f73ea5ac" target="_top" xlink:title="view.ViewUpdater.towards">
<polygon fill="white" stroke="black" points="592,-143.5 592,-162.5 732,-162.5 732,-143.5 592,-143.5"/>
<text text-anchor="middle" x="662" y="-150.5" font-family="Helvetica,sans-Serif" font-size="10.00">view.ViewUpdater.towards</text>
</a>
</g>
</g>
<!-- Node19&#45;&gt;Node20 -->
<g id="edge22" class="edge"><title>Node19&#45;&gt;Node20</title>
<path fill="none" stroke="midnightblue" d="M541.207,-147.241C558.152,-148.055 575.669,-148.898 591.903,-149.678"/>
<polygon fill="midnightblue" stroke="midnightblue" points="540.904,-143.722 530.747,-146.738 540.568,-150.714 540.904,-143.722"/>
</g>
<!-- Node20&#45;&gt;Node3 -->
<g id="edge23" class="edge"><title>Node20&#45;&gt;Node3</title>
<path fill="none" stroke="midnightblue" d="M694.858,-166.466C729.632,-181.164 785.174,-204.641 821.37,-219.94"/>
<polygon fill="midnightblue" stroke="midnightblue" points="696.208,-163.236 685.634,-162.567 693.482,-169.684 696.208,-163.236"/>
</g>
<!-- Node22 -->
<g id="node22" class="node"><title>Node22</title>
<g id="a_node22"><a xlink:href="../../d6/de7/classview_1_1_s_logo_view.html#afa2b659c4d080b5f927978b453633ab2" target="_top" xlink:title="view.SLogoView.towards">
<polygon fill="white" stroke="black" points="386.5,-228.5 386.5,-247.5 517.5,-247.5 517.5,-228.5 386.5,-228.5"/>
<text text-anchor="middle" x="452" y="-235.5" font-family="Helvetica,sans-Serif" font-size="10.00">view.SLogoView.towards</text>
</a>
</g>
</g>
<!-- Node21&#45;&gt;Node22 -->
<g id="edge25" class="edge"><title>Node21&#45;&gt;Node22</title>
<path fill="none" stroke="midnightblue" d="M332.42,-238C350.438,-238 369.226,-238 386.395,-238"/>
<polygon fill="midnightblue" stroke="midnightblue" points="332.212,-234.5 322.212,-238 332.212,-241.5 332.212,-234.5"/>
</g>
<!-- Node23&#45;&gt;Node3 -->
<g id="edge27" class="edge"><title>Node23&#45;&gt;Node3</title>
<path fill="none" stroke="midnightblue" d="M536.892,-81.9341C596.655,-88.1579 677.491,-102.223 742,-134 785.383,-155.37 825.206,-197.403 844.603,-219.918"/>
<polygon fill="midnightblue" stroke="midnightblue" points="537.034,-78.4312 526.739,-80.9307 536.346,-85.3973 537.034,-78.4312"/>
</g>
<!-- Node25&#45;&gt;Node3 -->
<g id="edge30" class="edge"><title>Node25&#45;&gt;Node3</title>
<path fill="none" stroke="midnightblue" d="M722.277,-338.26C729.093,-335.919 735.81,-333.184 742,-330 782.99,-308.913 822.576,-271.222 842.894,-250.211"/>
<polygon fill="midnightblue" stroke="midnightblue" points="720.755,-335.07 712.27,-341.414 722.859,-341.746 720.755,-335.07"/>
</g>
<!-- Node27&#45;&gt;Node3 -->
<g id="edge33" class="edge"><title>Node27&#45;&gt;Node3</title>
<path fill="none" stroke="midnightblue" d="M538.28,-207.388C609.155,-213.528 709.212,-222.197 778.221,-228.175"/>
<polygon fill="midnightblue" stroke="midnightblue" points="538.307,-203.877 528.042,-206.501 537.703,-210.851 538.307,-203.877"/>
</g>
</g>
</svg>
