<?xml version="1.0" encoding="UTF-8" standalone="no"?>
<!DOCTYPE svg PUBLIC "-//W3C//DTD SVG 1.1//EN"
 "http://www.w3.org/Graphics/SVG/1.1/DTD/svg11.dtd">
<!-- Generated by graphviz version 2.36.0 (20140111.2315)
 -->
<!-- Title: view.SideBar.updateVariable Pages: 1 -->
<svg width="322pt" height="66pt"
 viewBox="0.00 0.00 322.00 66.00" xmlns="http://www.w3.org/2000/svg" xmlns:xlink="http://www.w3.org/1999/xlink">
<g id="graph0" class="graph" transform="scale(1 1) rotate(0) translate(4 62)">
<title>view.SideBar.updateVariable</title>
<polygon fill="white" stroke="none" points="-4,4 -4,-62 318,-62 318,4 -4,4"/>
<!-- Node1 -->
<g id="node1" class="node"><title>Node1</title>
<polygon fill="#bfbfbf" stroke="black" points="0.5,-19.5 0.5,-38.5 151.5,-38.5 151.5,-19.5 0.5,-19.5"/>
<text text-anchor="middle" x="76" y="-26.5" font-family="Helvetica,sans-Serif" font-size="10.00">view.SideBar.updateVariable</text>
</g>
<!-- Node2 -->
<g id="node2" class="node"><title>Node2</title>
<g id="a_node2"><a xlink:href="../../d6/d58/classview_1_1_property.html#a51a9b0be72a7421596996f752b75ad93" target="_top" xlink:title="view.Property.getName">
<polygon fill="white" stroke="black" points="188,-38.5 188,-57.5 314,-57.5 314,-38.5 188,-38.5"/>
<text text-anchor="middle" x="251" y="-45.5" font-family="Helvetica,sans-Serif" font-size="10.00">view.Property.getName</text>
</a>
</g>
</g>
<!-- Node1&#45;&gt;Node2 -->
<g id="edge1" class="edge"><title>Node1&#45;&gt;Node2</title>
<path fill="none" stroke="midnightblue" d="M151.623,-37.1956C160.299,-38.1485 169.138,-39.1192 177.781,-40.0684"/>
<polygon fill="midnightblue" stroke="midnightblue" points="177.494,-43.5578 187.816,-41.1706 178.258,-36.5997 177.494,-43.5578"/>
</g>
<!-- Node3 -->
<g id="node3" class="node"><title>Node3</title>
<g id="a_node3"><a xlink:href="../../d6/d58/classview_1_1_property.html#ac169f9069f86f72b224cf0b1ccdd1c3c" target="_top" xlink:title="view.Property.getValue">
<polygon fill="white" stroke="black" points="189.5,-0.5 189.5,-19.5 312.5,-19.5 312.5,-0.5 189.5,-0.5"/>
<text text-anchor="middle" x="251" y="-7.5" font-family="Helvetica,sans-Serif" font-size="10.00">view.Property.getValue</text>
</a>
</g>
</g>
<!-- Node1&#45;&gt;Node3 -->
<g id="edge2" class="edge"><title>Node1&#45;&gt;Node3</title>
<path fill="none" stroke="midnightblue" d="M151.623,-20.8044C160.792,-19.7974 170.143,-18.7704 179.252,-17.77"/>
<polygon fill="midnightblue" stroke="midnightblue" points="179.854,-21.225 189.412,-16.6541 179.09,-14.2668 179.854,-21.225"/>
</g>
</g>
</svg>
