<?xml version="1.0" encoding="UTF-8" standalone="no"?>
<!DOCTYPE svg PUBLIC "-//W3C//DTD SVG 1.1//EN"
 "http://www.w3.org/Graphics/SVG/1.1/DTD/svg11.dtd">
<!-- Generated by graphviz version 2.36.0 (20140111.2315)
 -->
<!-- Title: view.SideBar.SideBar Pages: 1 -->
<svg width="1230pt" height="406pt"
 viewBox="0.00 0.00 1230.00 405.63" xmlns="http://www.w3.org/2000/svg" xmlns:xlink="http://www.w3.org/1999/xlink">
<g id="graph0" class="graph" transform="scale(1 1) rotate(0) translate(4 401.627)">
<title>view.SideBar.SideBar</title>
<polygon fill="white" stroke="none" points="-4,4 -4,-401.627 1226,-401.627 1226,4 -4,4"/>
<!-- Node1 -->
<g id="node1" class="node"><title>Node1</title>
<polygon fill="#bfbfbf" stroke="black" points="0,-144.564 0,-163.564 116,-163.564 116,-144.564 0,-144.564"/>
<text text-anchor="middle" x="58" y="-151.564" font-family="Helvetica,sans-Serif" font-size="10.00">view.SideBar.SideBar</text>
</g>
<!-- Node2 -->
<g id="node2" class="node"><title>Node2</title>
<g id="a_node2"><a xlink:href="../../d1/dc7/classview_1_1_side_bar.html#ac97dbdf731a291e46ba643c78b4c5a93" target="_top" xlink:title="view.SideBar.createHistoryPane">
<polygon fill="white" stroke="black" points="174.5,-144.564 174.5,-163.564 341.5,-163.564 341.5,-144.564 174.5,-144.564"/>
<text text-anchor="middle" x="258" y="-151.564" font-family="Helvetica,sans-Serif" font-size="10.00">view.SideBar.createHistoryPane</text>
</a>
</g>
</g>
<!-- Node1&#45;&gt;Node2 -->
<g id="edge1" class="edge"><title>Node1&#45;&gt;Node2</title>
<path fill="none" stroke="midnightblue" d="M116.004,-154.064C131.047,-154.064 147.678,-154.064 164.085,-154.064"/>
<polygon fill="midnightblue" stroke="midnightblue" points="164.255,-157.565 174.255,-154.064 164.255,-150.565 164.255,-157.565"/>
</g>
<!-- Node18 -->
<g id="node18" class="node"><title>Node18</title>
<g id="a_node18"><a xlink:href="../../d1/dc7/classview_1_1_side_bar.html#a6be10f43bbc797153c5424f344886f43" target="_top" xlink:title="view.SideBar.createUserCommandsPane">
<polygon fill="white" stroke="black" points="152.5,-182.564 152.5,-201.564 363.5,-201.564 363.5,-182.564 152.5,-182.564"/>
<text text-anchor="middle" x="258" y="-189.564" font-family="Helvetica,sans-Serif" font-size="10.00">view.SideBar.createUserCommandsPane</text>
</a>
</g>
</g>
<!-- Node1&#45;&gt;Node18 -->
<g id="edge20" class="edge"><title>Node1&#45;&gt;Node18</title>
<path fill="none" stroke="midnightblue" d="M104.843,-163.644C119.857,-166.724 136.627,-170.104 152,-173.064 165.191,-175.605 179.334,-178.231 192.832,-180.69"/>
<polygon fill="midnightblue" stroke="midnightblue" points="192.537,-184.193 203.001,-182.533 193.785,-177.306 192.537,-184.193"/>
</g>
<!-- Node19 -->
<g id="node19" class="node"><title>Node19</title>
<g id="a_node19"><a xlink:href="../../d1/dc7/classview_1_1_side_bar.html#a3280622f8ee5f57ff2109da71b606d79" target="_top" xlink:title="view.SideBar.setDimension\lRestrictions">
<polygon fill="white" stroke="black" points="185.5,-95.0645 185.5,-125.064 330.5,-125.064 330.5,-95.0645 185.5,-95.0645"/>
<text text-anchor="start" x="193.5" y="-113.064" font-family="Helvetica,sans-Serif" font-size="10.00">view.SideBar.setDimension</text>
<text text-anchor="middle" x="258" y="-102.064" font-family="Helvetica,sans-Serif" font-size="10.00">Restrictions</text>
</a>
</g>
</g>
<!-- Node1&#45;&gt;Node19 -->
<g id="edge22" class="edge"><title>Node1&#45;&gt;Node19</title>
<path fill="none" stroke="midnightblue" d="M101.963,-144.517C124.554,-139.497 152.95,-133.187 179.247,-127.343"/>
<polygon fill="midnightblue" stroke="midnightblue" points="180.203,-130.716 189.206,-125.13 178.685,-123.883 180.203,-130.716"/>
</g>
<!-- Node3 -->
<g id="node3" class="node"><title>Node3</title>
<g id="a_node3"><a xlink:href="../../d1/dc7/classview_1_1_side_bar.html#aa62b207767b2b8222e64120f928f61e3" target="_top" xlink:title="view.SideBar.createListView">
<polygon fill="white" stroke="black" points="409,-182.564 409,-201.564 557,-201.564 557,-182.564 409,-182.564"/>
<text text-anchor="middle" x="483" y="-189.564" font-family="Helvetica,sans-Serif" font-size="10.00">view.SideBar.createListView</text>
</a>
</g>
</g>
<!-- Node2&#45;&gt;Node3 -->
<g id="edge2" class="edge"><title>Node2&#45;&gt;Node3</title>
<path fill="none" stroke="midnightblue" d="M314.984,-163.604C345.602,-168.822 383.719,-175.317 415.804,-180.784"/>
<polygon fill="midnightblue" stroke="midnightblue" points="415.547,-184.291 425.992,-182.521 416.723,-177.39 415.547,-184.291"/>
</g>
<!-- Node4 -->
<g id="node4" class="node"><title>Node4</title>
<g id="a_node4"><a xlink:href="../../dc/df5/classmodel_1_1_parser.html#ab83c099e5a13c82b1a12d7eedda6fbf9" target="_top" xlink:title="model.Parser.parseAndExecute">
<polygon fill="white" stroke="black" points="400,-144.564 400,-163.564 566,-163.564 566,-144.564 400,-144.564"/>
<text text-anchor="middle" x="483" y="-151.564" font-family="Helvetica,sans-Serif" font-size="10.00">model.Parser.parseAndExecute</text>
</a>
</g>
</g>
<!-- Node2&#45;&gt;Node4 -->
<g id="edge3" class="edge"><title>Node2&#45;&gt;Node4</title>
<path fill="none" stroke="midnightblue" d="M341.72,-154.064C357.277,-154.064 373.636,-154.064 389.47,-154.064"/>
<polygon fill="midnightblue" stroke="midnightblue" points="389.785,-157.565 399.785,-154.064 389.785,-150.565 389.785,-157.565"/>
</g>
<!-- Node5 -->
<g id="node5" class="node"><title>Node5</title>
<g id="a_node5"><a xlink:href="../../d1/dca/classmodel_1_1_execution_environment.html#abf8338dc619905fbc175bb52b246843e" target="_top" xlink:title="model.ExecutionEnvironment.get\lActiveList">
<polygon fill="white" stroke="black" points="602,-205.064 602,-235.064 778,-235.064 778,-205.064 602,-205.064"/>
<text text-anchor="start" x="610" y="-223.064" font-family="Helvetica,sans-Serif" font-size="10.00">model.ExecutionEnvironment.get</text>
<text text-anchor="middle" x="690" y="-212.064" font-family="Helvetica,sans-Serif" font-size="10.00">ActiveList</text>
</a>
</g>
</g>
<!-- Node4&#45;&gt;Node5 -->
<g id="edge4" class="edge"><title>Node4&#45;&gt;Node5</title>
<path fill="none" stroke="midnightblue" d="M536.835,-163.671C546.705,-166.2 556.802,-169.304 566,-173.064 583.356,-180.161 584.834,-187.518 602,-195.064 607.346,-197.414 612.972,-199.609 618.685,-201.644"/>
<polygon fill="midnightblue" stroke="midnightblue" points="617.754,-205.023 628.348,-204.916 619.999,-198.393 617.754,-205.023"/>
</g>
<!-- Node6 -->
<g id="node6" class="node"><title>Node6</title>
<g id="a_node6"><a xlink:href="../../dc/df5/classmodel_1_1_parser.html#ae83c95a5190fc22b9b70b1a40b76661c" target="_top" xlink:title="model.Parser.makeTree">
<polygon fill="white" stroke="black" points="626,-166.564 626,-185.564 754,-185.564 754,-166.564 626,-166.564"/>
<text text-anchor="middle" x="690" y="-173.564" font-family="Helvetica,sans-Serif" font-size="10.00">model.Parser.makeTree</text>
</a>
</g>
</g>
<!-- Node4&#45;&gt;Node6 -->
<g id="edge5" class="edge"><title>Node4&#45;&gt;Node6</title>
<path fill="none" stroke="midnightblue" d="M566.2,-162.886C582.465,-164.631 599.44,-166.453 615.398,-168.166"/>
<polygon fill="midnightblue" stroke="midnightblue" points="615.404,-171.686 625.72,-169.273 616.151,-164.726 615.404,-171.686"/>
</g>
<!-- Node15 -->
<g id="node15" class="node"><title>Node15</title>
<g id="a_node15"><a xlink:href="../../d6/de7/classview_1_1_s_logo_view.html#acf8498d7311bed1575638cca1c3f8777" target="_top" xlink:title="view.SLogoView.openDialog">
<polygon fill="white" stroke="black" points="829.5,-29.5645 829.5,-48.5645 976.5,-48.5645 976.5,-29.5645 829.5,-29.5645"/>
<text text-anchor="middle" x="903" y="-36.5645" font-family="Helvetica,sans-Serif" font-size="10.00">view.SLogoView.openDialog</text>
</a>
</g>
</g>
<!-- Node4&#45;&gt;Node15 -->
<g id="edge17" class="edge"><title>Node4&#45;&gt;Node15</title>
<path fill="none" stroke="midnightblue" d="M515.233,-144.43C573.625,-126.563 703.434,-87.5192 814,-59.0645 824.804,-56.2841 836.405,-53.5032 847.525,-50.9371"/>
<polygon fill="midnightblue" stroke="midnightblue" points="848.594,-54.2833 857.565,-48.6471 847.037,-47.4586 848.594,-54.2833"/>
</g>
<!-- Node17 -->
<g id="node17" class="node"><title>Node17</title>
<g id="a_node17"><a xlink:href="../../d1/dca/classmodel_1_1_execution_environment.html#a472ef4da5205b0e95ec51fdbf52f654a" target="_top" xlink:title="model.ExecutionEnvironment.set\lActiveTurtle">
<polygon fill="white" stroke="black" points="602.5,-7.06448 602.5,-37.0645 777.5,-37.0645 777.5,-7.06448 602.5,-7.06448"/>
<text text-anchor="start" x="610.5" y="-25.0645" font-family="Helvetica,sans-Serif" font-size="10.00">model.ExecutionEnvironment.set</text>
<text text-anchor="middle" x="690" y="-14.0645" font-family="Helvetica,sans-Serif" font-size="10.00">ActiveTurtle</text>
</a>
</g>
</g>
<!-- Node4&#45;&gt;Node17 -->
<g id="edge18" class="edge"><title>Node4&#45;&gt;Node17</title>
<path fill="none" stroke="midnightblue" d="M499.074,-144.358C532.275,-122.98 612.317,-71.441 657.172,-42.5584"/>
<polygon fill="midnightblue" stroke="midnightblue" points="659.137,-45.4562 665.65,-37.0996 655.347,-39.5707 659.137,-45.4562"/>
</g>
<!-- Node7 -->
<g id="node7" class="node"><title>Node7</title>
<g id="a_node7"><a xlink:href="../../d2/d19/classmodel_1_1_node.html#a59dd0ae47774a51a1590d7fd205b14d5" target="_top" xlink:title="model.Node.addChild">
<polygon fill="white" stroke="black" points="843.5,-292.564 843.5,-311.564 962.5,-311.564 962.5,-292.564 843.5,-292.564"/>
<text text-anchor="middle" x="903" y="-299.564" font-family="Helvetica,sans-Serif" font-size="10.00">model.Node.addChild</text>
</a>
</g>
</g>
<!-- Node6&#45;&gt;Node7 -->
<g id="edge6" class="edge"><title>Node6&#45;&gt;Node7</title>
<path fill="none" stroke="midnightblue" d="M754.29,-183.056C762.901,-186.079 771.126,-190.273 778,-196.064 809.688,-222.763 782.279,-255.405 814,-282.064 819.772,-286.916 826.484,-290.65 833.578,-293.515"/>
<polygon fill="midnightblue" stroke="midnightblue" points="832.842,-296.963 843.437,-296.907 835.12,-290.344 832.842,-296.963"/>
</g>
<!-- Node8 -->
<g id="node8" class="node"><title>Node8</title>
<g id="a_node8"><a xlink:href="../../d1/dca/classmodel_1_1_execution_environment.html#a83ef2b9eaef50b67c0b978f2abb8200c" target="_top" xlink:title="model.ExecutionEnvironment.add\lCommand">
<polygon fill="white" stroke="black" points="814,-243.064 814,-273.064 992,-273.064 992,-243.064 814,-243.064"/>
<text text-anchor="start" x="822" y="-261.064" font-family="Helvetica,sans-Serif" font-size="10.00">model.ExecutionEnvironment.add</text>
<text text-anchor="middle" x="903" y="-250.064" font-family="Helvetica,sans-Serif" font-size="10.00">Command</text>
</a>
</g>
</g>
<!-- Node6&#45;&gt;Node8 -->
<g id="edge7" class="edge"><title>Node6&#45;&gt;Node8</title>
<path fill="none" stroke="midnightblue" d="M753.025,-185.678C761.718,-188.338 770.301,-191.732 778,-196.064 797.996,-207.316 794.297,-221.309 814,-233.064 817.606,-235.216 821.405,-237.19 825.32,-238.999"/>
<polygon fill="midnightblue" stroke="midnightblue" points="824.054,-242.264 834.627,-242.931 826.778,-235.815 824.054,-242.264"/>
</g>
<!-- Node10 -->
<g id="node10" class="node"><title>Node10</title>
<g id="a_node10"><a xlink:href="../../d2/d19/classmodel_1_1_node.html#a30a55e40eef5514f8201573584ca9aea" target="_top" xlink:title="model.Node.getChildren">
<polygon fill="white" stroke="black" points="836.5,-204.564 836.5,-223.564 969.5,-223.564 969.5,-204.564 836.5,-204.564"/>
<text text-anchor="middle" x="903" y="-211.564" font-family="Helvetica,sans-Serif" font-size="10.00">model.Node.getChildren</text>
</a>
</g>
</g>
<!-- Node6&#45;&gt;Node10 -->
<g id="edge9" class="edge"><title>Node6&#45;&gt;Node10</title>
<path fill="none" stroke="midnightblue" d="M743.972,-185.604C772.817,-190.799 808.695,-197.261 838.972,-202.713"/>
<polygon fill="midnightblue" stroke="midnightblue" points="838.544,-206.193 849.006,-204.521 839.785,-199.304 838.544,-206.193"/>
</g>
<!-- Node11 -->
<g id="node11" class="node"><title>Node11</title>
<g id="a_node11"><a xlink:href="../../d2/d19/classmodel_1_1_node.html#a3036121af674a3a8ff49e82bd77ab5a4" target="_top" xlink:title="model.Node.getInstruction">
<polygon fill="white" stroke="black" points="831,-166.564 831,-185.564 975,-185.564 975,-166.564 831,-166.564"/>
<text text-anchor="middle" x="903" y="-173.564" font-family="Helvetica,sans-Serif" font-size="10.00">model.Node.getInstruction</text>
</a>
</g>
</g>
<!-- Node6&#45;&gt;Node11 -->
<g id="edge10" class="edge"><title>Node6&#45;&gt;Node11</title>
<path fill="none" stroke="midnightblue" d="M754.021,-176.064C774.977,-176.064 798.618,-176.064 820.752,-176.064"/>
<polygon fill="midnightblue" stroke="midnightblue" points="820.801,-179.565 830.801,-176.064 820.801,-172.565 820.801,-179.565"/>
</g>
<!-- Node12 -->
<g id="node12" class="node"><title>Node12</title>
<g id="a_node12"><a xlink:href="../../d1/dea/classmodel_1_1instructions_1_1_instruction.html#afd4726dcbdbf559356c38970061d9b79" target="_top" xlink:title="model.instructions.Instruction.get\lNumberOfArguments">
<polygon fill="white" stroke="black" points="814.5,-117.064 814.5,-147.064 991.5,-147.064 991.5,-117.064 814.5,-117.064"/>
<text text-anchor="start" x="822.5" y="-135.064" font-family="Helvetica,sans-Serif" font-size="10.00">model.instructions.Instruction.get</text>
<text text-anchor="middle" x="903" y="-124.064" font-family="Helvetica,sans-Serif" font-size="10.00">NumberOfArguments</text>
</a>
</g>
</g>
<!-- Node6&#45;&gt;Node12 -->
<g id="edge11" class="edge"><title>Node6&#45;&gt;Node12</title>
<path fill="none" stroke="midnightblue" d="M736.784,-166.517C761.07,-161.453 791.652,-155.075 819.882,-149.189"/>
<polygon fill="midnightblue" stroke="midnightblue" points="820.68,-152.598 829.755,-147.13 819.251,-145.745 820.68,-152.598"/>
</g>
<!-- Node13 -->
<g id="node13" class="node"><title>Node13</title>
<g id="a_node13"><a xlink:href="../../d1/dca/classmodel_1_1_execution_environment.html#a7eac9bbab890abbeb7db1a095fca5fc8" target="_top" xlink:title="model.ExecutionEnvironment.get\lUserCommandMap">
<polygon fill="white" stroke="black" points="815,-68.0645 815,-98.0645 991,-98.0645 991,-68.0645 815,-68.0645"/>
<text text-anchor="start" x="823" y="-86.0645" font-family="Helvetica,sans-Serif" font-size="10.00">model.ExecutionEnvironment.get</text>
<text text-anchor="middle" x="903" y="-75.0645" font-family="Helvetica,sans-Serif" font-size="10.00">UserCommandMap</text>
</a>
</g>
</g>
<!-- Node6&#45;&gt;Node13 -->
<g id="edge12" class="edge"><title>Node6&#45;&gt;Node13</title>
<path fill="none" stroke="midnightblue" d="M707.484,-166.335C735.799,-149.727 792.681,-116.85 814,-108.064 819.782,-105.682 825.867,-103.44 832.025,-101.353"/>
<polygon fill="midnightblue" stroke="midnightblue" points="833.299,-104.62 841.73,-98.2031 831.138,-97.9619 833.299,-104.62"/>
</g>
<!-- Node14 -->
<g id="node14" class="node"><title>Node14</title>
<g id="a_node14"><a xlink:href="../../dc/df5/classmodel_1_1_parser.html#ae24603572f6f919b363a7cef0cbe45c0" target="_top" xlink:title="model.Parser.match">
<polygon fill="white" stroke="black" points="1068.5,-349.564 1068.5,-368.564 1181.5,-368.564 1181.5,-349.564 1068.5,-349.564"/>
<text text-anchor="middle" x="1125" y="-356.564" font-family="Helvetica,sans-Serif" font-size="10.00">model.Parser.match</text>
</a>
</g>
</g>
<!-- Node6&#45;&gt;Node14 -->
<g id="edge13" class="edge"><title>Node6&#45;&gt;Node14</title>
<path fill="none" stroke="midnightblue" d="M754.39,-181.671C763.196,-184.854 771.453,-189.461 778,-196.064 830.235,-248.75 756.159,-312.604 814,-359.064 893.692,-423.077 1025.77,-392.107 1088.63,-371.857"/>
<polygon fill="midnightblue" stroke="midnightblue" points="1090.08,-375.065 1098.47,-368.593 1087.88,-368.421 1090.08,-375.065"/>
</g>
<!-- Node6&#45;&gt;Node15 -->
<g id="edge14" class="edge"><title>Node6&#45;&gt;Node15</title>
<path fill="none" stroke="midnightblue" d="M715.566,-166.406C734.469,-158.002 760.274,-144.304 778,-126.064 801.559,-101.822 787.102,-79.5387 814,-59.0645 816.98,-56.7959 820.171,-54.7767 823.508,-52.9799"/>
<polygon fill="midnightblue" stroke="midnightblue" points="825.05,-56.1227 832.635,-48.7251 822.092,-49.7783 825.05,-56.1227"/>
</g>
<!-- Node16 -->
<g id="node16" class="node"><title>Node16</title>
<g id="a_node16"><a xlink:href="../../dc/df5/classmodel_1_1_parser.html#a367f66d63cda3e0b2733b078c20a1f73" target="_top" xlink:title="model.Parser.testMatches">
<polygon fill="white" stroke="black" points="832.5,-330.564 832.5,-349.564 973.5,-349.564 973.5,-330.564 832.5,-330.564"/>
<text text-anchor="middle" x="903" y="-337.564" font-family="Helvetica,sans-Serif" font-size="10.00">model.Parser.testMatches</text>
</a>
</g>
</g>
<!-- Node6&#45;&gt;Node16 -->
<g id="edge15" class="edge"><title>Node6&#45;&gt;Node16</title>
<path fill="none" stroke="midnightblue" d="M754.03,-182.04C762.882,-185.175 771.248,-189.671 778,-196.064 819.978,-235.817 771.758,-281.592 814,-321.064 816.791,-323.672 819.851,-325.955 823.103,-327.952"/>
<polygon fill="midnightblue" stroke="midnightblue" points="821.615,-331.123 832.108,-332.594 824.823,-324.901 821.615,-331.123"/>
</g>
<!-- Node9 -->
<g id="node9" class="node"><title>Node9</title>
<g id="a_node9"><a xlink:href="../../d1/dca/classmodel_1_1_execution_environment.html#a93fd01341f06dfa81727344b120aef66" target="_top" xlink:title="model.ExecutionEnvironment.update\lObserver">
<polygon fill="white" stroke="black" points="1028,-115.064 1028,-145.064 1222,-145.064 1222,-115.064 1028,-115.064"/>
<text text-anchor="start" x="1036" y="-133.064" font-family="Helvetica,sans-Serif" font-size="10.00">model.ExecutionEnvironment.update</text>
<text text-anchor="middle" x="1125" y="-122.064" font-family="Helvetica,sans-Serif" font-size="10.00">Observer</text>
</a>
</g>
</g>
<!-- Node8&#45;&gt;Node9 -->
<g id="edge8" class="edge"><title>Node8&#45;&gt;Node9</title>
<path fill="none" stroke="midnightblue" d="M968.087,-243.023C976.324,-240.178 984.494,-236.875 992,-233.064 1034.33,-211.576 1076.38,-175.583 1101.27,-152.339"/>
<polygon fill="midnightblue" stroke="midnightblue" points="1103.88,-154.692 1108.73,-145.274 1099.06,-149.61 1103.88,-154.692"/>
</g>
<!-- Node16&#45;&gt;Node14 -->
<g id="edge16" class="edge"><title>Node16&#45;&gt;Node14</title>
<path fill="none" stroke="midnightblue" d="M973.609,-346.076C1000.73,-348.419 1031.66,-351.09 1058.39,-353.398"/>
<polygon fill="midnightblue" stroke="midnightblue" points="1058.15,-356.89 1068.41,-354.264 1058.75,-349.916 1058.15,-356.89"/>
</g>
<!-- Node17&#45;&gt;Node9 -->
<g id="edge19" class="edge"><title>Node17&#45;&gt;Node9</title>
<path fill="none" stroke="midnightblue" d="M768.952,-7.06264C831.243,1.5455 919.769,6.08678 992,-20.0645 1039.79,-37.3663 1082.43,-80.3604 1105.62,-107.186"/>
<polygon fill="midnightblue" stroke="midnightblue" points="1103.04,-109.564 1112.17,-114.945 1108.39,-105.047 1103.04,-109.564"/>
</g>
<!-- Node18&#45;&gt;Node3 -->
<g id="edge21" class="edge"><title>Node18&#45;&gt;Node3</title>
<path fill="none" stroke="midnightblue" d="M363.644,-192.064C375.34,-192.064 387.138,-192.064 398.519,-192.064"/>
<polygon fill="midnightblue" stroke="midnightblue" points="398.839,-195.565 408.839,-192.064 398.838,-188.565 398.839,-195.565"/>
</g>
</g>
</svg>
