<?xml version="1.0" encoding="UTF-8" standalone="no"?>
<!DOCTYPE svg PUBLIC "-//W3C//DTD SVG 1.1//EN"
 "http://www.w3.org/Graphics/SVG/1.1/DTD/svg11.dtd">
<!-- Generated by graphviz version 2.36.0 (20140111.2315)
 -->
<!-- Title: view.SideBar.createTurtlePropertiesTable Pages: 1 -->
<svg width="332pt" height="66pt"
 viewBox="0.00 0.00 332.00 66.00" xmlns="http://www.w3.org/2000/svg" xmlns:xlink="http://www.w3.org/1999/xlink">
<g id="graph0" class="graph" transform="scale(1 1) rotate(0) translate(4 62)">
<title>view.SideBar.createTurtlePropertiesTable</title>
<polygon fill="white" stroke="none" points="-4,4 -4,-62 328,-62 328,4 -4,4"/>
<!-- Node1 -->
<g id="node1" class="node"><title>Node1</title>
<polygon fill="#bfbfbf" stroke="black" points="0.5,-14 0.5,-44 135.5,-44 135.5,-14 0.5,-14"/>
<text text-anchor="start" x="8.5" y="-32" font-family="Helvetica,sans-Serif" font-size="10.00">view.SideBar.createTurtle</text>
<text text-anchor="middle" x="68" y="-21" font-family="Helvetica,sans-Serif" font-size="10.00">PropertiesTable</text>
</g>
<!-- Node2 -->
<g id="node2" class="node"><title>Node2</title>
<g id="a_node2"><a xlink:href="../../d1/dc7/classview_1_1_side_bar.html#affd18657fe704cc93d984d74e0b6e348" target="_top" xlink:title="view.SideBar.createColumns">
<polygon fill="white" stroke="black" points="172,-38.5 172,-57.5 324,-57.5 324,-38.5 172,-38.5"/>
<text text-anchor="middle" x="248" y="-45.5" font-family="Helvetica,sans-Serif" font-size="10.00">view.SideBar.createColumns</text>
</a>
</g>
</g>
<!-- Node1&#45;&gt;Node2 -->
<g id="edge1" class="edge"><title>Node1&#45;&gt;Node2</title>
<path fill="none" stroke="midnightblue" d="M135.534,-36.1019C144.143,-37.0209 153.053,-37.9719 161.911,-38.9174"/>
<polygon fill="midnightblue" stroke="midnightblue" points="161.556,-42.3993 171.871,-39.9806 162.299,-35.4389 161.556,-42.3993"/>
</g>
<!-- Node3 -->
<g id="node3" class="node"><title>Node3</title>
<g id="a_node3"><a xlink:href="../../d1/dc7/classview_1_1_side_bar.html#a9e70a3dcc846be90d42957e25220b3b3" target="_top" xlink:title="view.SideBar.createTitleText">
<polygon fill="white" stroke="black" points="174,-0.5 174,-19.5 322,-19.5 322,-0.5 174,-0.5"/>
<text text-anchor="middle" x="248" y="-7.5" font-family="Helvetica,sans-Serif" font-size="10.00">view.SideBar.createTitleText</text>
</a>
</g>
</g>
<!-- Node1&#45;&gt;Node3 -->
<g id="edge2" class="edge"><title>Node1&#45;&gt;Node3</title>
<path fill="none" stroke="midnightblue" d="M135.534,-21.8981C144.743,-20.915 154.297,-19.8953 163.762,-18.8849"/>
<polygon fill="midnightblue" stroke="midnightblue" points="164.407,-22.3361 173.979,-17.7944 163.664,-15.3756 164.407,-22.3361"/>
</g>
</g>
</svg>
