<?xml version="1.0" encoding="UTF-8" standalone="no"?>
<!DOCTYPE svg PUBLIC "-//W3C//DTD SVG 1.1//EN"
 "http://www.w3.org/Graphics/SVG/1.1/DTD/svg11.dtd">
<!-- Generated by graphviz version 2.36.0 (20140111.2315)
 -->
<!-- Title: view.SideBar.createColumns Pages: 1 -->
<svg width="484pt" height="38pt"
 viewBox="0.00 0.00 484.00 38.00" xmlns="http://www.w3.org/2000/svg" xmlns:xlink="http://www.w3.org/1999/xlink">
<g id="graph0" class="graph" transform="scale(1 1) rotate(0) translate(4 34)">
<title>view.SideBar.createColumns</title>
<polygon fill="white" stroke="none" points="-4,4 -4,-34 480,-34 480,4 -4,4"/>
<!-- Node1 -->
<g id="node1" class="node"><title>Node1</title>
<polygon fill="#bfbfbf" stroke="black" points="0,-5.5 0,-24.5 152,-24.5 152,-5.5 0,-5.5"/>
<text text-anchor="middle" x="76" y="-12.5" font-family="Helvetica,sans-Serif" font-size="10.00">view.SideBar.createColumns</text>
</g>
<!-- Node2 -->
<g id="node2" class="node"><title>Node2</title>
<g id="a_node2"><a xlink:href="../../d1/dc7/classview_1_1_side_bar.html#ac9876e2d91b1407105ca9e7869ef4057" target="_top" xlink:title="view.SideBar.createTurtle\lPropertiesTable">
<polygon fill="white" stroke="black" points="188.5,-0 188.5,-30 323.5,-30 323.5,-0 188.5,-0"/>
<text text-anchor="start" x="196.5" y="-18" font-family="Helvetica,sans-Serif" font-size="10.00">view.SideBar.createTurtle</text>
<text text-anchor="middle" x="256" y="-7" font-family="Helvetica,sans-Serif" font-size="10.00">PropertiesTable</text>
</a>
</g>
</g>
<!-- Node1&#45;&gt;Node2 -->
<g id="edge1" class="edge"><title>Node1&#45;&gt;Node2</title>
<path fill="none" stroke="midnightblue" d="M162.378,-15C171.058,-15 179.783,-15 188.224,-15"/>
<polygon fill="midnightblue" stroke="midnightblue" points="162.23,-11.5001 152.23,-15 162.23,-18.5001 162.23,-11.5001"/>
</g>
<!-- Node3 -->
<g id="node3" class="node"><title>Node3</title>
<g id="a_node3"><a xlink:href="../../d1/dc7/classview_1_1_side_bar.html#aaa1459e91d727b5bd46e51f5b4a596f2" target="_top" xlink:title="view.SideBar.SideBar">
<polygon fill="white" stroke="black" points="360,-5.5 360,-24.5 476,-24.5 476,-5.5 360,-5.5"/>
<text text-anchor="middle" x="418" y="-12.5" font-family="Helvetica,sans-Serif" font-size="10.00">view.SideBar.SideBar</text>
</a>
</g>
</g>
<!-- Node2&#45;&gt;Node3 -->
<g id="edge2" class="edge"><title>Node2&#45;&gt;Node3</title>
<path fill="none" stroke="midnightblue" d="M334.113,-15C342.83,-15 351.591,-15 359.984,-15"/>
<polygon fill="midnightblue" stroke="midnightblue" points="333.927,-11.5001 323.927,-15 333.927,-18.5001 333.927,-11.5001"/>
</g>
</g>
</svg>
