<?xml version="1.0" encoding="UTF-8" standalone="no"?>
<!DOCTYPE svg PUBLIC "-//W3C//DTD SVG 1.1//EN"
 "http://www.w3.org/Graphics/SVG/1.1/DTD/svg11.dtd">
<!-- Generated by graphviz version 2.36.0 (20140111.2315)
 -->
<!-- Title: view.SideBar.createTitleText Pages: 1 -->
<svg width="556pt" height="154pt"
 viewBox="0.00 0.00 556.00 154.00" xmlns="http://www.w3.org/2000/svg" xmlns:xlink="http://www.w3.org/1999/xlink">
<g id="graph0" class="graph" transform="scale(1 1) rotate(0) translate(4 150)">
<title>view.SideBar.createTitleText</title>
<polygon fill="white" stroke="none" points="-4,4 -4,-150 552,-150 552,4 -4,4"/>
<!-- Node1 -->
<g id="node1" class="node"><title>Node1</title>
<polygon fill="#bfbfbf" stroke="black" points="0,-60.5 0,-79.5 148,-79.5 148,-60.5 0,-60.5"/>
<text text-anchor="middle" x="74" y="-67.5" font-family="Helvetica,sans-Serif" font-size="10.00">view.SideBar.createTitleText</text>
</g>
<!-- Node2 -->
<g id="node2" class="node"><title>Node2</title>
<g id="a_node2"><a xlink:href="../../d1/dc7/classview_1_1_side_bar.html#ac97dbdf731a291e46ba643c78b4c5a93" target="_top" xlink:title="view.SideBar.createHistoryPane">
<polygon fill="white" stroke="black" points="206.5,-126.5 206.5,-145.5 373.5,-145.5 373.5,-126.5 206.5,-126.5"/>
<text text-anchor="middle" x="290" y="-133.5" font-family="Helvetica,sans-Serif" font-size="10.00">view.SideBar.createHistoryPane</text>
</a>
</g>
</g>
<!-- Node1&#45;&gt;Node2 -->
<g id="edge1" class="edge"><title>Node1&#45;&gt;Node2</title>
<path fill="none" stroke="midnightblue" d="M103.492,-83.9858C125.133,-94.1221 155.87,-107.49 184,-116 197.765,-120.165 212.819,-123.641 227.12,-126.463"/>
<polygon fill="midnightblue" stroke="midnightblue" points="104.765,-80.7157 94.2307,-79.5849 101.761,-87.0382 104.765,-80.7157"/>
</g>
<!-- Node4 -->
<g id="node4" class="node"><title>Node4</title>
<g id="a_node4"><a xlink:href="../../d1/dc7/classview_1_1_side_bar.html#ac9876e2d91b1407105ca9e7869ef4057" target="_top" xlink:title="view.SideBar.createTurtle\lPropertiesTable">
<polygon fill="white" stroke="black" points="222.5,-77 222.5,-107 357.5,-107 357.5,-77 222.5,-77"/>
<text text-anchor="start" x="230.5" y="-95" font-family="Helvetica,sans-Serif" font-size="10.00">view.SideBar.createTurtle</text>
<text text-anchor="middle" x="290" y="-84" font-family="Helvetica,sans-Serif" font-size="10.00">PropertiesTable</text>
</a>
</g>
</g>
<!-- Node1&#45;&gt;Node4 -->
<g id="edge3" class="edge"><title>Node1&#45;&gt;Node4</title>
<path fill="none" stroke="midnightblue" d="M158.06,-78.5389C179.375,-80.7302 202.027,-83.0588 222.39,-85.1523"/>
<polygon fill="midnightblue" stroke="midnightblue" points="158.354,-75.0507 148.048,-77.5096 157.638,-82.014 158.354,-75.0507"/>
</g>
<!-- Node5 -->
<g id="node5" class="node"><title>Node5</title>
<g id="a_node5"><a xlink:href="../../d1/dc7/classview_1_1_side_bar.html#a6be10f43bbc797153c5424f344886f43" target="_top" xlink:title="view.SideBar.createUserCommandsPane">
<polygon fill="white" stroke="black" points="184.5,-38.5 184.5,-57.5 395.5,-57.5 395.5,-38.5 184.5,-38.5"/>
<text text-anchor="middle" x="290" y="-45.5" font-family="Helvetica,sans-Serif" font-size="10.00">view.SideBar.createUserCommandsPane</text>
</a>
</g>
</g>
<!-- Node1&#45;&gt;Node5 -->
<g id="edge5" class="edge"><title>Node1&#45;&gt;Node5</title>
<path fill="none" stroke="midnightblue" d="M158.356,-61.4307C170.77,-60.1545 183.632,-58.8323 196.226,-57.5376"/>
<polygon fill="midnightblue" stroke="midnightblue" points="157.638,-57.986 148.048,-62.4904 158.354,-64.9493 157.638,-57.986"/>
</g>
<!-- Node6 -->
<g id="node6" class="node"><title>Node6</title>
<g id="a_node6"><a xlink:href="../../d1/dc7/classview_1_1_side_bar.html#a4d3c67d26a035d35d92c0234f89f6796" target="_top" xlink:title="view.SideBar.createVariablesPane">
<polygon fill="white" stroke="black" points="202,-0.5 202,-19.5 378,-19.5 378,-0.5 202,-0.5"/>
<text text-anchor="middle" x="290" y="-7.5" font-family="Helvetica,sans-Serif" font-size="10.00">view.SideBar.createVariablesPane</text>
</a>
</g>
</g>
<!-- Node1&#45;&gt;Node6 -->
<g id="edge7" class="edge"><title>Node1&#45;&gt;Node6</title>
<path fill="none" stroke="midnightblue" d="M106.039,-56.608C127.583,-47.7405 157.128,-36.4195 184,-29 197.393,-25.3022 211.95,-22.1402 225.841,-19.5176"/>
<polygon fill="midnightblue" stroke="midnightblue" points="104.623,-53.4062 96.7418,-60.4867 107.318,-59.8665 104.623,-53.4062"/>
</g>
<!-- Node3 -->
<g id="node3" class="node"><title>Node3</title>
<g id="a_node3"><a xlink:href="../../d1/dc7/classview_1_1_side_bar.html#aaa1459e91d727b5bd46e51f5b4a596f2" target="_top" xlink:title="view.SideBar.SideBar">
<polygon fill="white" stroke="black" points="432,-60.5 432,-79.5 548,-79.5 548,-60.5 432,-60.5"/>
<text text-anchor="middle" x="490" y="-67.5" font-family="Helvetica,sans-Serif" font-size="10.00">view.SideBar.SideBar</text>
</a>
</g>
</g>
<!-- Node2&#45;&gt;Node3 -->
<g id="edge2" class="edge"><title>Node2&#45;&gt;Node3</title>
<path fill="none" stroke="midnightblue" d="M366.21,-124.249C376.336,-121.921 386.5,-119.188 396,-116 424.348,-106.487 455.036,-89.9693 473.11,-79.5313"/>
<polygon fill="midnightblue" stroke="midnightblue" points="365.151,-120.898 356.124,-126.444 366.64,-127.738 365.151,-120.898"/>
</g>
<!-- Node4&#45;&gt;Node3 -->
<g id="edge4" class="edge"><title>Node4&#45;&gt;Node3</title>
<path fill="none" stroke="midnightblue" d="M367.755,-83.4717C389.061,-81.1044 411.816,-78.576 431.791,-76.3565"/>
<polygon fill="midnightblue" stroke="midnightblue" points="367.31,-79.9995 357.758,-84.5825 368.083,-86.9567 367.31,-79.9995"/>
</g>
<!-- Node5&#45;&gt;Node3 -->
<g id="edge6" class="edge"><title>Node5&#45;&gt;Node3</title>
<path fill="none" stroke="midnightblue" d="M386.769,-58.641C402.147,-60.3496 417.628,-62.0698 431.728,-63.6365"/>
<polygon fill="midnightblue" stroke="midnightblue" points="387.019,-55.1474 376.694,-57.5216 386.246,-62.1046 387.019,-55.1474"/>
</g>
<!-- Node6&#45;&gt;Node3 -->
<g id="edge8" class="edge"><title>Node6&#45;&gt;Node3</title>
<path fill="none" stroke="midnightblue" d="M366.934,-21.5327C376.799,-23.674 386.7,-26.1526 396,-29 422.827,-37.2139 452.205,-51.0407 470.617,-60.3395"/>
<polygon fill="midnightblue" stroke="midnightblue" points="367.606,-18.0977 357.105,-19.5026 366.19,-24.953 367.606,-18.0977"/>
</g>
</g>
</svg>
