<?xml version="1.0" encoding="UTF-8" standalone="no"?>
<!DOCTYPE svg PUBLIC "-//W3C//DTD SVG 1.1//EN"
 "http://www.w3.org/Graphics/SVG/1.1/DTD/svg11.dtd">
<!-- Generated by graphviz version 2.36.0 (20140111.2315)
 -->
<!-- Title: view.SideBar.createVariableColumns Pages: 1 -->
<svg width="600pt" height="115pt"
 viewBox="0.00 0.00 600.00 115.00" xmlns="http://www.w3.org/2000/svg" xmlns:xlink="http://www.w3.org/1999/xlink">
<g id="graph0" class="graph" transform="scale(1 1) rotate(0) translate(4 111)">
<title>view.SideBar.createVariableColumns</title>
<polygon fill="white" stroke="none" points="-4,4 -4,-111 596,-111 596,4 -4,4"/>
<!-- Node1 -->
<g id="node1" class="node"><title>Node1</title>
<polygon fill="#bfbfbf" stroke="black" points="0,-33 0,-63 148,-63 148,-33 0,-33"/>
<text text-anchor="start" x="8" y="-51" font-family="Helvetica,sans-Serif" font-size="10.00">view.SideBar.createVariable</text>
<text text-anchor="middle" x="74" y="-40" font-family="Helvetica,sans-Serif" font-size="10.00">Columns</text>
</g>
<!-- Node2 -->
<g id="node2" class="node"><title>Node2</title>
<g id="a_node2"><a xlink:href="../../d1/dca/classmodel_1_1_execution_environment.html#a3afb09ec1e342a734f59161beca05b0e" target="_top" xlink:title="model.ExecutionEnvironment.add\lVariable">
<polygon fill="white" stroke="black" points="184,-77 184,-107 362,-107 362,-77 184,-77"/>
<text text-anchor="start" x="192" y="-95" font-family="Helvetica,sans-Serif" font-size="10.00">model.ExecutionEnvironment.add</text>
<text text-anchor="middle" x="273" y="-84" font-family="Helvetica,sans-Serif" font-size="10.00">Variable</text>
</a>
</g>
</g>
<!-- Node1&#45;&gt;Node2 -->
<g id="edge1" class="edge"><title>Node1&#45;&gt;Node2</title>
<path fill="none" stroke="midnightblue" d="M142.245,-63.0192C159.11,-66.786 177.339,-70.8574 194.653,-74.7244"/>
<polygon fill="midnightblue" stroke="midnightblue" points="194.201,-78.2098 204.724,-76.9738 195.727,-71.3781 194.201,-78.2098"/>
</g>
<!-- Node4 -->
<g id="node4" class="node"><title>Node4</title>
<g id="a_node4"><a xlink:href="../../d6/d58/classview_1_1_property.html#a51a9b0be72a7421596996f752b75ad93" target="_top" xlink:title="view.Property.getName">
<polygon fill="white" stroke="black" points="210,-38.5 210,-57.5 336,-57.5 336,-38.5 210,-38.5"/>
<text text-anchor="middle" x="273" y="-45.5" font-family="Helvetica,sans-Serif" font-size="10.00">view.Property.getName</text>
</a>
</g>
</g>
<!-- Node1&#45;&gt;Node4 -->
<g id="edge3" class="edge"><title>Node1&#45;&gt;Node4</title>
<path fill="none" stroke="midnightblue" d="M148.076,-48C164.851,-48 182.683,-48 199.437,-48"/>
<polygon fill="midnightblue" stroke="midnightblue" points="199.711,-51.5001 209.711,-48 199.711,-44.5001 199.711,-51.5001"/>
</g>
<!-- Node5 -->
<g id="node5" class="node"><title>Node5</title>
<g id="a_node5"><a xlink:href="../../d6/d58/classview_1_1_property.html#af57f40e26c8ed8fd7c55dfcda6215c6b" target="_top" xlink:title="view.Property.setValue">
<polygon fill="white" stroke="black" points="212,-0.5 212,-19.5 334,-19.5 334,-0.5 212,-0.5"/>
<text text-anchor="middle" x="273" y="-7.5" font-family="Helvetica,sans-Serif" font-size="10.00">view.Property.setValue</text>
</a>
</g>
</g>
<!-- Node1&#45;&gt;Node5 -->
<g id="edge4" class="edge"><title>Node1&#45;&gt;Node5</title>
<path fill="none" stroke="midnightblue" d="M148.076,-33.9042C169.34,-29.8025 192.301,-25.3735 212.612,-21.4555"/>
<polygon fill="midnightblue" stroke="midnightblue" points="213.503,-24.8482 222.659,-19.5175 212.178,-17.9749 213.503,-24.8482"/>
</g>
<!-- Node3 -->
<g id="node3" class="node"><title>Node3</title>
<g id="a_node3"><a xlink:href="../../d1/dca/classmodel_1_1_execution_environment.html#a93fd01341f06dfa81727344b120aef66" target="_top" xlink:title="model.ExecutionEnvironment.update\lObserver">
<polygon fill="white" stroke="black" points="398,-77 398,-107 592,-107 592,-77 398,-77"/>
<text text-anchor="start" x="406" y="-95" font-family="Helvetica,sans-Serif" font-size="10.00">model.ExecutionEnvironment.update</text>
<text text-anchor="middle" x="495" y="-84" font-family="Helvetica,sans-Serif" font-size="10.00">Observer</text>
</a>
</g>
</g>
<!-- Node2&#45;&gt;Node3 -->
<g id="edge2" class="edge"><title>Node2&#45;&gt;Node3</title>
<path fill="none" stroke="midnightblue" d="M362.215,-92C370.635,-92 379.233,-92 387.8,-92"/>
<polygon fill="midnightblue" stroke="midnightblue" points="387.83,-95.5001 397.83,-92 387.83,-88.5001 387.83,-95.5001"/>
</g>
</g>
</svg>
