<?xml version="1.0" encoding="UTF-8" standalone="no"?>
<!DOCTYPE svg PUBLIC "-//W3C//DTD SVG 1.1//EN"
 "http://www.w3.org/Graphics/SVG/1.1/DTD/svg11.dtd">
<!-- Generated by graphviz version 2.36.0 (20140111.2315)
 -->
<!-- Title: view.SideBar.createListView Pages: 1 -->
<svg width="556pt" height="66pt"
 viewBox="0.00 0.00 556.00 66.00" xmlns="http://www.w3.org/2000/svg" xmlns:xlink="http://www.w3.org/1999/xlink">
<g id="graph0" class="graph" transform="scale(1 1) rotate(0) translate(4 62)">
<title>view.SideBar.createListView</title>
<polygon fill="white" stroke="none" points="-4,4 -4,-62 552,-62 552,4 -4,4"/>
<!-- Node1 -->
<g id="node1" class="node"><title>Node1</title>
<polygon fill="#bfbfbf" stroke="black" points="0,-19.5 0,-38.5 148,-38.5 148,-19.5 0,-19.5"/>
<text text-anchor="middle" x="74" y="-26.5" font-family="Helvetica,sans-Serif" font-size="10.00">view.SideBar.createListView</text>
</g>
<!-- Node2 -->
<g id="node2" class="node"><title>Node2</title>
<g id="a_node2"><a xlink:href="../../d1/dc7/classview_1_1_side_bar.html#ac97dbdf731a291e46ba643c78b4c5a93" target="_top" xlink:title="view.SideBar.createHistoryPane">
<polygon fill="white" stroke="black" points="206.5,-38.5 206.5,-57.5 373.5,-57.5 373.5,-38.5 206.5,-38.5"/>
<text text-anchor="middle" x="290" y="-45.5" font-family="Helvetica,sans-Serif" font-size="10.00">view.SideBar.createHistoryPane</text>
</a>
</g>
</g>
<!-- Node1&#45;&gt;Node2 -->
<g id="edge1" class="edge"><title>Node1&#45;&gt;Node2</title>
<path fill="none" stroke="midnightblue" d="M158.3,-36.3958C174.084,-37.7971 190.591,-39.2628 206.354,-40.6623"/>
<polygon fill="midnightblue" stroke="midnightblue" points="158.319,-32.8838 148.048,-35.4856 157.699,-39.8563 158.319,-32.8838"/>
</g>
<!-- Node4 -->
<g id="node4" class="node"><title>Node4</title>
<g id="a_node4"><a xlink:href="../../d1/dc7/classview_1_1_side_bar.html#a6be10f43bbc797153c5424f344886f43" target="_top" xlink:title="view.SideBar.createUserCommandsPane">
<polygon fill="white" stroke="black" points="184.5,-0.5 184.5,-19.5 395.5,-19.5 395.5,-0.5 184.5,-0.5"/>
<text text-anchor="middle" x="290" y="-7.5" font-family="Helvetica,sans-Serif" font-size="10.00">view.SideBar.createUserCommandsPane</text>
</a>
</g>
</g>
<!-- Node1&#45;&gt;Node4 -->
<g id="edge3" class="edge"><title>Node1&#45;&gt;Node4</title>
<path fill="none" stroke="midnightblue" d="M158.088,-21.623C166.739,-20.855 175.609,-20.0674 184.457,-19.2818"/>
<polygon fill="midnightblue" stroke="midnightblue" points="157.699,-18.1437 148.048,-22.5144 158.319,-25.1162 157.699,-18.1437"/>
</g>
<!-- Node3 -->
<g id="node3" class="node"><title>Node3</title>
<g id="a_node3"><a xlink:href="../../d1/dc7/classview_1_1_side_bar.html#aaa1459e91d727b5bd46e51f5b4a596f2" target="_top" xlink:title="view.SideBar.SideBar">
<polygon fill="white" stroke="black" points="432,-19.5 432,-38.5 548,-38.5 548,-19.5 432,-19.5"/>
<text text-anchor="middle" x="490" y="-26.5" font-family="Helvetica,sans-Serif" font-size="10.00">view.SideBar.SideBar</text>
</a>
</g>
</g>
<!-- Node2&#45;&gt;Node3 -->
<g id="edge2" class="edge"><title>Node2&#45;&gt;Node3</title>
<path fill="none" stroke="midnightblue" d="M383.721,-39.1026C400.152,-37.5258 416.814,-35.9269 431.888,-34.4804"/>
<polygon fill="midnightblue" stroke="midnightblue" points="383.156,-35.6406 373.536,-40.0799 383.825,-42.6086 383.156,-35.6406"/>
</g>
<!-- Node4&#45;&gt;Node3 -->
<g id="edge4" class="edge"><title>Node4&#45;&gt;Node3</title>
<path fill="none" stroke="midnightblue" d="M400.314,-20.4898C411.195,-21.5339 421.908,-22.5619 431.919,-23.5225"/>
<polygon fill="midnightblue" stroke="midnightblue" points="400.579,-16.9991 390.29,-19.5278 399.91,-23.9671 400.579,-16.9991"/>
</g>
</g>
</svg>
