<?xml version="1.0" encoding="UTF-8" standalone="no"?>
<!DOCTYPE svg PUBLIC "-//W3C//DTD SVG 1.1//EN"
 "http://www.w3.org/Graphics/SVG/1.1/DTD/svg11.dtd">
<!-- Generated by graphviz version 2.36.0 (20140111.2315)
 -->
<!-- Title: view.SideBar.updateCommand Pages: 1 -->
<svg width="566pt" height="28pt"
 viewBox="0.00 0.00 566.00 28.00" xmlns="http://www.w3.org/2000/svg" xmlns:xlink="http://www.w3.org/1999/xlink">
<g id="graph0" class="graph" transform="scale(1 1) rotate(0) translate(4 24)">
<title>view.SideBar.updateCommand</title>
<polygon fill="white" stroke="none" points="-4,4 -4,-24 562,-24 562,4 -4,4"/>
<!-- Node1 -->
<g id="node1" class="node"><title>Node1</title>
<polygon fill="#bfbfbf" stroke="black" points="0.5,-0.5 0.5,-19.5 163.5,-19.5 163.5,-0.5 0.5,-0.5"/>
<text text-anchor="middle" x="82" y="-7.5" font-family="Helvetica,sans-Serif" font-size="10.00">view.SideBar.updateCommand</text>
</g>
<!-- Node2 -->
<g id="node2" class="node"><title>Node2</title>
<g id="a_node2"><a xlink:href="../../d4/d64/classview_1_1_view_updater.html#af96f8276592f10c4abcd04246bb7e8fd" target="_top" xlink:title="view.ViewUpdater.updateCommand">
<polygon fill="white" stroke="black" points="200,-0.5 200,-19.5 386,-19.5 386,-0.5 200,-0.5"/>
<text text-anchor="middle" x="293" y="-7.5" font-family="Helvetica,sans-Serif" font-size="10.00">view.ViewUpdater.updateCommand</text>
</a>
</g>
</g>
<!-- Node1&#45;&gt;Node2 -->
<g id="edge1" class="edge"><title>Node1&#45;&gt;Node2</title>
<path fill="none" stroke="midnightblue" d="M173.588,-10C182.24,-10 191.021,-10 199.688,-10"/>
<polygon fill="midnightblue" stroke="midnightblue" points="173.506,-6.5001 163.506,-10 173.506,-13.5001 173.506,-6.5001"/>
</g>
<!-- Node3 -->
<g id="node3" class="node"><title>Node3</title>
<g id="a_node3"><a xlink:href="../../d4/d64/classview_1_1_view_updater.html#aa4cfbf2ecad29abda8cd3aaff891539a" target="_top" xlink:title="view.ViewUpdater.update">
<polygon fill="white" stroke="black" points="422,-0.5 422,-19.5 558,-19.5 558,-0.5 422,-0.5"/>
<text text-anchor="middle" x="490" y="-7.5" font-family="Helvetica,sans-Serif" font-size="10.00">view.ViewUpdater.update</text>
</a>
</g>
</g>
<!-- Node2&#45;&gt;Node3 -->
<g id="edge2" class="edge"><title>Node2&#45;&gt;Node3</title>
<path fill="none" stroke="midnightblue" d="M396.236,-10C404.886,-10 413.486,-10 421.763,-10"/>
<polygon fill="midnightblue" stroke="midnightblue" points="396.075,-6.5001 386.075,-10 396.075,-13.5001 396.075,-6.5001"/>
</g>
</g>
</svg>
