<?xml version="1.0" encoding="UTF-8" standalone="no"?>
<!DOCTYPE svg PUBLIC "-//W3C//DTD SVG 1.1//EN"
 "http://www.w3.org/Graphics/SVG/1.1/DTD/svg11.dtd">
<!-- Generated by graphviz version 2.36.0 (20140111.2315)
 -->
<!-- Title: view.SideBar.createHistoryPane Pages: 1 -->
<!--zoomable 406 -->
<svg id="main" version="1.1" xmlns="http://www.w3.org/2000/svg" xmlns:xlink="http://www.w3.org/1999/xlink" xml:space="preserve" onload="init(evt)">
<style type="text/css"><![CDATA[
.edge:hover path { stroke: red; }
.edge:hover polygon { stroke: red; fill: red; }
]]></style>
<script type="text/javascript"><![CDATA[
var edges = document.getElementsByTagName('g');
if (edges && edges.length) {
  for (var i=0;i<edges.length;i++) {
    if (edges[i].id.substr(0,4)=='edge') {
      edges[i].setAttribute('class','edge');
    }
  }
}
]]></script>
        <defs>
                <circle id="rim" cx="0" cy="0" r="7"/>
                <circle id="rim2" cx="0" cy="0" r="3.5"/>
                <g id="zoomPlus">
                        <use xlink:href="#rim" fill="#404040">
                                <set attributeName="fill" to="#808080" begin="zoomplus.mouseover" end="zoomplus.mouseout"/>
                        </use>
                        <path d="M-4,0h8M0,-4v8" fill="none" stroke="white" stroke-width="1.5" pointer-events="none"/>
                </g>
                <g id="zoomMin">
                        <use xlink:href="#rim" fill="#404040">
                                <set attributeName="fill" to="#808080" begin="zoomminus.mouseover" end="zoomminus.mouseout"/>
                        </use>
                        <path d="M-4,0h8" fill="none" stroke="white" stroke-width="1.5" pointer-events="none"/>
                </g>
                <g id="dirArrow">
                        <path fill="none" stroke="white" stroke-width="1.5" d="M0,-3.0v7 M-2.5,-0.5L0,-3.0L2.5,-0.5"/>
                </g>
               <g id="resetDef">
                       <use xlink:href="#rim2" fill="#404040">
                               <set attributeName="fill" to="#808080" begin="reset.mouseover" end="reset.mouseout"/>
                       </use>
               </g>
        </defs>

<script type="text/javascript">
var viewWidth = 1034;
var viewHeight = 406;
var sectionId = 'dynsection-4';
</script>
<script xlink:href="../../svgpan.js"/>
<svg id="graph" class="graph">
<g id="viewport">
<title>view.SideBar.createHistoryPane</title>
<polygon fill="white" stroke="none" points="-4,4 -4,-401.627 1030,-401.627 1030,4 -4,4"/>
<!-- Node1 -->
<g id="node1" class="node"><title>Node1</title>
<polygon fill="#bfbfbf" stroke="black" points="0.5,-182.564 0.5,-201.564 167.5,-201.564 167.5,-182.564 0.5,-182.564"/>
<text text-anchor="middle" x="84" y="-189.564" font-family="Helvetica,sans-Serif" font-size="10.00">view.SideBar.createHistoryPane</text>
</g>
<!-- Node2 -->
<g id="node2" class="node"><title>Node2</title>
<g id="a_node2"><a xlink:href="../../d1/dc7/classview_1_1_side_bar.html#aa62b207767b2b8222e64120f928f61e3" target="_top" xlink:title="view.SideBar.createListView">
<polygon fill="white" stroke="black" points="213,-220.564 213,-239.564 361,-239.564 361,-220.564 213,-220.564"/>
<text text-anchor="middle" x="287" y="-227.564" font-family="Helvetica,sans-Serif" font-size="10.00">view.SideBar.createListView</text>
</a>
</g>
</g>
<!-- Node1&#45;&gt;Node2 -->
<g id="edge1" class="edge"><title>Node1&#45;&gt;Node2</title>
<path fill="none" stroke="midnightblue" d="M135.461,-201.604C162.82,-206.777 196.82,-213.205 225.582,-218.642"/>
<polygon fill="midnightblue" stroke="midnightblue" points="225.042,-222.102 235.518,-220.521 226.342,-215.224 225.042,-222.102"/>
</g>
<!-- Node3 -->
<g id="node3" class="node"><title>Node3</title>
<g id="a_node3"><a xlink:href="../../d1/dc7/classview_1_1_side_bar.html#a9e70a3dcc846be90d42957e25220b3b3" target="_top" xlink:title="view.SideBar.createTitleText">
<polygon fill="white" stroke="black" points="213,-182.564 213,-201.564 361,-201.564 361,-182.564 213,-182.564"/>
<text text-anchor="middle" x="287" y="-189.564" font-family="Helvetica,sans-Serif" font-size="10.00">view.SideBar.createTitleText</text>
</a>
</g>
</g>
<!-- Node1&#45;&gt;Node3 -->
<g id="edge2" class="edge"><title>Node1&#45;&gt;Node3</title>
<path fill="none" stroke="midnightblue" d="M167.625,-192.064C179.182,-192.064 191.064,-192.064 202.635,-192.064"/>
<polygon fill="midnightblue" stroke="midnightblue" points="202.707,-195.565 212.707,-192.064 202.707,-188.565 202.707,-195.565"/>
</g>
<!-- Node4 -->
<g id="node4" class="node"><title>Node4</title>
<g id="a_node4"><a xlink:href="../../dc/df5/classmodel_1_1_parser.html#ab83c099e5a13c82b1a12d7eedda6fbf9" target="_top" xlink:title="model.Parser.parseAndExecute">
<polygon fill="white" stroke="black" points="204,-144.564 204,-163.564 370,-163.564 370,-144.564 204,-144.564"/>
<text text-anchor="middle" x="287" y="-151.564" font-family="Helvetica,sans-Serif" font-size="10.00">model.Parser.parseAndExecute</text>
</a>
</g>
</g>
<!-- Node1&#45;&gt;Node4 -->
<g id="edge3" class="edge"><title>Node1&#45;&gt;Node4</title>
<path fill="none" stroke="midnightblue" d="M135.461,-182.525C162.82,-177.352 196.82,-170.924 225.582,-165.487"/>
<polygon fill="midnightblue" stroke="midnightblue" points="226.342,-168.905 235.518,-163.608 225.042,-162.027 226.342,-168.905"/>
</g>
<!-- Node5 -->
<g id="node5" class="node"><title>Node5</title>
<g id="a_node5"><a xlink:href="../../d1/dca/classmodel_1_1_execution_environment.html#abf8338dc619905fbc175bb52b246843e" target="_top" xlink:title="model.ExecutionEnvironment.get\lActiveList">
<polygon fill="white" stroke="black" points="406,-205.064 406,-235.064 582,-235.064 582,-205.064 406,-205.064"/>
<text text-anchor="start" x="414" y="-223.064" font-family="Helvetica,sans-Serif" font-size="10.00">model.ExecutionEnvironment.get</text>
<text text-anchor="middle" x="494" y="-212.064" font-family="Helvetica,sans-Serif" font-size="10.00">ActiveList</text>
</a>
</g>
</g>
<!-- Node4&#45;&gt;Node5 -->
<g id="edge4" class="edge"><title>Node4&#45;&gt;Node5</title>
<path fill="none" stroke="midnightblue" d="M340.835,-163.671C350.705,-166.2 360.802,-169.304 370,-173.064 387.356,-180.161 388.834,-187.518 406,-195.064 411.346,-197.414 416.972,-199.609 422.685,-201.644"/>
<polygon fill="midnightblue" stroke="midnightblue" points="421.754,-205.023 432.348,-204.916 423.999,-198.393 421.754,-205.023"/>
</g>
<!-- Node6 -->
<g id="node6" class="node"><title>Node6</title>
<g id="a_node6"><a xlink:href="../../dc/df5/classmodel_1_1_parser.html#ae83c95a5190fc22b9b70b1a40b76661c" target="_top" xlink:title="model.Parser.makeTree">
<polygon fill="white" stroke="black" points="430,-166.564 430,-185.564 558,-185.564 558,-166.564 430,-166.564"/>
<text text-anchor="middle" x="494" y="-173.564" font-family="Helvetica,sans-Serif" font-size="10.00">model.Parser.makeTree</text>
</a>
</g>
</g>
<!-- Node4&#45;&gt;Node6 -->
<g id="edge5" class="edge"><title>Node4&#45;&gt;Node6</title>
<path fill="none" stroke="midnightblue" d="M370.2,-162.886C386.465,-164.631 403.44,-166.453 419.398,-168.166"/>
<polygon fill="midnightblue" stroke="midnightblue" points="419.404,-171.686 429.72,-169.273 420.151,-164.726 419.404,-171.686"/>
</g>
<!-- Node15 -->
<g id="node15" class="node"><title>Node15</title>
<g id="a_node15"><a xlink:href="../../d6/de7/classview_1_1_s_logo_view.html#acf8498d7311bed1575638cca1c3f8777" target="_top" xlink:title="view.SLogoView.openDialog">
<polygon fill="white" stroke="black" points="633.5,-29.5645 633.5,-48.5645 780.5,-48.5645 780.5,-29.5645 633.5,-29.5645"/>
<text text-anchor="middle" x="707" y="-36.5645" font-family="Helvetica,sans-Serif" font-size="10.00">view.SLogoView.openDialog</text>
</a>
</g>
</g>
<!-- Node4&#45;&gt;Node15 -->
<g id="edge17" class="edge"><title>Node4&#45;&gt;Node15</title>
<path fill="none" stroke="midnightblue" d="M318.286,-144.476C376.168,-126.326 506.652,-86.2438 618,-58.0645 627.99,-55.5363 638.671,-53.0502 649.024,-50.7521"/>
<polygon fill="midnightblue" stroke="midnightblue" points="649.796,-54.1662 658.817,-48.6111 648.3,-47.3277 649.796,-54.1662"/>
</g>
<!-- Node17 -->
<g id="node17" class="node"><title>Node17</title>
<g id="a_node17"><a xlink:href="../../d1/dca/classmodel_1_1_execution_environment.html#a472ef4da5205b0e95ec51fdbf52f654a" target="_top" xlink:title="model.ExecutionEnvironment.set\lActiveTurtle">
<polygon fill="white" stroke="black" points="406.5,-7.06448 406.5,-37.0645 581.5,-37.0645 581.5,-7.06448 406.5,-7.06448"/>
<text text-anchor="start" x="414.5" y="-25.0645" font-family="Helvetica,sans-Serif" font-size="10.00">model.ExecutionEnvironment.set</text>
<text text-anchor="middle" x="494" y="-14.0645" font-family="Helvetica,sans-Serif" font-size="10.00">ActiveTurtle</text>
</a>
</g>
</g>
<!-- Node4&#45;&gt;Node17 -->
<g id="edge18" class="edge"><title>Node4&#45;&gt;Node17</title>
<path fill="none" stroke="midnightblue" d="M303.074,-144.358C336.275,-122.98 416.317,-71.441 461.172,-42.5584"/>
<polygon fill="midnightblue" stroke="midnightblue" points="463.137,-45.4562 469.65,-37.0996 459.347,-39.5707 463.137,-45.4562"/>
</g>
<!-- Node7 -->
<g id="node7" class="node"><title>Node7</title>
<g id="a_node7"><a xlink:href="../../d2/d19/classmodel_1_1_node.html#a59dd0ae47774a51a1590d7fd205b14d5" target="_top" xlink:title="model.Node.addChild">
<polygon fill="white" stroke="black" points="647.5,-292.564 647.5,-311.564 766.5,-311.564 766.5,-292.564 647.5,-292.564"/>
<text text-anchor="middle" x="707" y="-299.564" font-family="Helvetica,sans-Serif" font-size="10.00">model.Node.addChild</text>
</a>
</g>
</g>
<!-- Node6&#45;&gt;Node7 -->
<g id="edge6" class="edge"><title>Node6&#45;&gt;Node7</title>
<path fill="none" stroke="midnightblue" d="M558.29,-183.056C566.901,-186.079 575.126,-190.273 582,-196.064 613.688,-222.763 586.279,-255.405 618,-282.064 623.772,-286.916 630.484,-290.65 637.578,-293.515"/>
<polygon fill="midnightblue" stroke="midnightblue" points="636.842,-296.963 647.437,-296.907 639.12,-290.344 636.842,-296.963"/>
</g>
<!-- Node8 -->
<g id="node8" class="node"><title>Node8</title>
<g id="a_node8"><a xlink:href="../../d1/dca/classmodel_1_1_execution_environment.html#a83ef2b9eaef50b67c0b978f2abb8200c" target="_top" xlink:title="model.ExecutionEnvironment.add\lCommand">
<polygon fill="white" stroke="black" points="618,-243.064 618,-273.064 796,-273.064 796,-243.064 618,-243.064"/>
<text text-anchor="start" x="626" y="-261.064" font-family="Helvetica,sans-Serif" font-size="10.00">model.ExecutionEnvironment.add</text>
<text text-anchor="middle" x="707" y="-250.064" font-family="Helvetica,sans-Serif" font-size="10.00">Command</text>
</a>
</g>
</g>
<!-- Node6&#45;&gt;Node8 -->
<g id="edge7" class="edge"><title>Node6&#45;&gt;Node8</title>
<path fill="none" stroke="midnightblue" d="M557.025,-185.678C565.718,-188.338 574.301,-191.732 582,-196.064 601.996,-207.316 598.297,-221.309 618,-233.064 621.606,-235.216 625.405,-237.19 629.32,-238.999"/>
<polygon fill="midnightblue" stroke="midnightblue" points="628.054,-242.264 638.627,-242.931 630.778,-235.815 628.054,-242.264"/>
</g>
<!-- Node10 -->
<g id="node10" class="node"><title>Node10</title>
<g id="a_node10"><a xlink:href="../../d2/d19/classmodel_1_1_node.html#a30a55e40eef5514f8201573584ca9aea" target="_top" xlink:title="model.Node.getChildren">
<polygon fill="white" stroke="black" points="640.5,-204.564 640.5,-223.564 773.5,-223.564 773.5,-204.564 640.5,-204.564"/>
<text text-anchor="middle" x="707" y="-211.564" font-family="Helvetica,sans-Serif" font-size="10.00">model.Node.getChildren</text>
</a>
</g>
</g>
<!-- Node6&#45;&gt;Node10 -->
<g id="edge9" class="edge"><title>Node6&#45;&gt;Node10</title>
<path fill="none" stroke="midnightblue" d="M547.972,-185.604C576.817,-190.799 612.695,-197.261 642.972,-202.713"/>
<polygon fill="midnightblue" stroke="midnightblue" points="642.544,-206.193 653.006,-204.521 643.785,-199.304 642.544,-206.193"/>
</g>
<!-- Node11 -->
<g id="node11" class="node"><title>Node11</title>
<g id="a_node11"><a xlink:href="../../d2/d19/classmodel_1_1_node.html#a3036121af674a3a8ff49e82bd77ab5a4" target="_top" xlink:title="model.Node.getInstruction">
<polygon fill="white" stroke="black" points="635,-166.564 635,-185.564 779,-185.564 779,-166.564 635,-166.564"/>
<text text-anchor="middle" x="707" y="-173.564" font-family="Helvetica,sans-Serif" font-size="10.00">model.Node.getInstruction</text>
</a>
</g>
</g>
<!-- Node6&#45;&gt;Node11 -->
<g id="edge10" class="edge"><title>Node6&#45;&gt;Node11</title>
<path fill="none" stroke="midnightblue" d="M558.021,-176.064C578.977,-176.064 602.618,-176.064 624.752,-176.064"/>
<polygon fill="midnightblue" stroke="midnightblue" points="624.801,-179.565 634.801,-176.064 624.801,-172.565 624.801,-179.565"/>
</g>
<!-- Node12 -->
<g id="node12" class="node"><title>Node12</title>
<g id="a_node12"><a xlink:href="../../d1/dea/classmodel_1_1instructions_1_1_instruction.html#afd4726dcbdbf559356c38970061d9b79" target="_top" xlink:title="model.instructions.Instruction.get\lNumberOfArguments">
<polygon fill="white" stroke="black" points="618.5,-117.064 618.5,-147.064 795.5,-147.064 795.5,-117.064 618.5,-117.064"/>
<text text-anchor="start" x="626.5" y="-135.064" font-family="Helvetica,sans-Serif" font-size="10.00">model.instructions.Instruction.get</text>
<text text-anchor="middle" x="707" y="-124.064" font-family="Helvetica,sans-Serif" font-size="10.00">NumberOfArguments</text>
</a>
</g>
</g>
<!-- Node6&#45;&gt;Node12 -->
<g id="edge11" class="edge"><title>Node6&#45;&gt;Node12</title>
<path fill="none" stroke="midnightblue" d="M540.784,-166.517C565.07,-161.453 595.652,-155.075 623.882,-149.189"/>
<polygon fill="midnightblue" stroke="midnightblue" points="624.68,-152.598 633.755,-147.13 623.251,-145.745 624.68,-152.598"/>
</g>
<!-- Node13 -->
<g id="node13" class="node"><title>Node13</title>
<g id="a_node13"><a xlink:href="../../d1/dca/classmodel_1_1_execution_environment.html#a7eac9bbab890abbeb7db1a095fca5fc8" target="_top" xlink:title="model.ExecutionEnvironment.get\lUserCommandMap">
<polygon fill="white" stroke="black" points="619,-68.0645 619,-98.0645 795,-98.0645 795,-68.0645 619,-68.0645"/>
<text text-anchor="start" x="627" y="-86.0645" font-family="Helvetica,sans-Serif" font-size="10.00">model.ExecutionEnvironment.get</text>
<text text-anchor="middle" x="707" y="-75.0645" font-family="Helvetica,sans-Serif" font-size="10.00">UserCommandMap</text>
</a>
</g>
</g>
<!-- Node6&#45;&gt;Node13 -->
<g id="edge12" class="edge"><title>Node6&#45;&gt;Node13</title>
<path fill="none" stroke="midnightblue" d="M511.484,-166.335C539.799,-149.727 596.681,-116.85 618,-108.064 623.782,-105.682 629.867,-103.44 636.025,-101.353"/>
<polygon fill="midnightblue" stroke="midnightblue" points="637.299,-104.62 645.73,-98.2031 635.138,-97.9619 637.299,-104.62"/>
</g>
<!-- Node14 -->
<g id="node14" class="node"><title>Node14</title>
<g id="a_node14"><a xlink:href="../../dc/df5/classmodel_1_1_parser.html#ae24603572f6f919b363a7cef0cbe45c0" target="_top" xlink:title="model.Parser.match">
<polygon fill="white" stroke="black" points="872.5,-349.564 872.5,-368.564 985.5,-368.564 985.5,-349.564 872.5,-349.564"/>
<text text-anchor="middle" x="929" y="-356.564" font-family="Helvetica,sans-Serif" font-size="10.00">model.Parser.match</text>
</a>
</g>
</g>
<!-- Node6&#45;&gt;Node14 -->
<g id="edge13" class="edge"><title>Node6&#45;&gt;Node14</title>
<path fill="none" stroke="midnightblue" d="M558.39,-181.671C567.196,-184.854 575.453,-189.461 582,-196.064 634.235,-248.75 560.159,-312.604 618,-359.064 697.692,-423.077 829.766,-392.107 892.634,-371.857"/>
<polygon fill="midnightblue" stroke="midnightblue" points="894.081,-375.065 902.469,-368.593 891.876,-368.421 894.081,-375.065"/>
</g>
<!-- Node6&#45;&gt;Node15 -->
<g id="edge14" class="edge"><title>Node6&#45;&gt;Node15</title>
<path fill="none" stroke="midnightblue" d="M519.597,-166.436C538.518,-158.049 564.33,-144.359 582,-126.064 605.757,-101.468 590.741,-78.7125 618,-58.0645 620.474,-56.1903 623.094,-54.4925 625.822,-52.9551"/>
<polygon fill="midnightblue" stroke="midnightblue" points="627.389,-56.0854 634.858,-48.571 624.333,-49.7876 627.389,-56.0854"/>
</g>
<!-- Node16 -->
<g id="node16" class="node"><title>Node16</title>
<g id="a_node16"><a xlink:href="../../dc/df5/classmodel_1_1_parser.html#a367f66d63cda3e0b2733b078c20a1f73" target="_top" xlink:title="model.Parser.testMatches">
<polygon fill="white" stroke="black" points="636.5,-330.564 636.5,-349.564 777.5,-349.564 777.5,-330.564 636.5,-330.564"/>
<text text-anchor="middle" x="707" y="-337.564" font-family="Helvetica,sans-Serif" font-size="10.00">model.Parser.testMatches</text>
</a>
</g>
</g>
<!-- Node6&#45;&gt;Node16 -->
<g id="edge15" class="edge"><title>Node6&#45;&gt;Node16</title>
<path fill="none" stroke="midnightblue" d="M558.03,-182.04C566.882,-185.175 575.248,-189.671 582,-196.064 623.978,-235.817 575.758,-281.592 618,-321.064 620.791,-323.672 623.851,-325.955 627.103,-327.952"/>
<polygon fill="midnightblue" stroke="midnightblue" points="625.615,-331.123 636.108,-332.594 628.823,-324.901 625.615,-331.123"/>
</g>
<!-- Node9 -->
<g id="node9" class="node"><title>Node9</title>
<g id="a_node9"><a xlink:href="../../d1/dca/classmodel_1_1_execution_environment.html#a93fd01341f06dfa81727344b120aef66" target="_top" xlink:title="model.ExecutionEnvironment.update\lObserver">
<polygon fill="white" stroke="black" points="832,-115.064 832,-145.064 1026,-145.064 1026,-115.064 832,-115.064"/>
<text text-anchor="start" x="840" y="-133.064" font-family="Helvetica,sans-Serif" font-size="10.00">model.ExecutionEnvironment.update</text>
<text text-anchor="middle" x="929" y="-122.064" font-family="Helvetica,sans-Serif" font-size="10.00">Observer</text>
</a>
</g>
</g>
<!-- Node8&#45;&gt;Node9 -->
<g id="edge8" class="edge"><title>Node8&#45;&gt;Node9</title>
<path fill="none" stroke="midnightblue" d="M772.087,-243.023C780.324,-240.178 788.494,-236.875 796,-233.064 838.333,-211.576 880.378,-175.583 905.271,-152.339"/>
<polygon fill="midnightblue" stroke="midnightblue" points="907.876,-154.692 912.73,-145.274 903.063,-149.61 907.876,-154.692"/>
</g>
<!-- Node16&#45;&gt;Node14 -->
<g id="edge16" class="edge"><title>Node16&#45;&gt;Node14</title>
<path fill="none" stroke="midnightblue" d="M777.609,-346.076C804.734,-348.419 835.664,-351.09 862.392,-353.398"/>
<polygon fill="midnightblue" stroke="midnightblue" points="862.15,-356.89 872.414,-354.264 862.752,-349.916 862.15,-356.89"/>
</g>
<!-- Node17&#45;&gt;Node9 -->
<g id="edge19" class="edge"><title>Node17&#45;&gt;Node9</title>
<path fill="none" stroke="midnightblue" d="M572.952,-7.06264C635.243,1.5455 723.769,6.08678 796,-20.0645 843.789,-37.3663 886.434,-80.3604 909.616,-107.186"/>
<polygon fill="midnightblue" stroke="midnightblue" points="907.043,-109.564 916.169,-114.945 912.391,-105.047 907.043,-109.564"/>
</g>
</g>
</svg>
        <g id="navigator" transform="translate(0 0)" fill="#404254">
                <rect fill="#f2f5e9" fill-opacity="0.5" stroke="#606060" stroke-width=".5" x="0" y="0" width="60" height="60"/>
                <use id="zoomplus" xlink:href="#zoomPlus" x="17" y="9" onmousedown="handleZoom(evt,'in')"/>
                <use id="zoomminus" xlink:href="#zoomMin" x="42" y="9" onmousedown="handleZoom(evt,'out')"/>
                <use id="reset" xlink:href="#resetDef" x="30" y="36" onmousedown="handleReset()"/>
                <g id="arrowUp" xlink:href="#dirArrow" transform="translate(30 24)" onmousedown="handlePan(0,-1)">
                  <use xlink:href="#rim" fill="#404040">
                        <set attributeName="fill" to="#808080" begin="arrowUp.mouseover" end="arrowUp.mouseout"/>
                  </use>
                  <path fill="none" stroke="white" stroke-width="1.5" d="M0,-3.0v7 M-2.5,-0.5L0,-3.0L2.5,-0.5"/>
                </g>
                <g id="arrowRight" xlink:href="#dirArrow" transform="rotate(90) translate(36 -43)" onmousedown="handlePan(1,0)">
                  <use xlink:href="#rim" fill="#404040">
                        <set attributeName="fill" to="#808080" begin="arrowRight.mouseover" end="arrowRight.mouseout"/>
                  </use>
                  <path fill="none" stroke="white" stroke-width="1.5" d="M0,-3.0v7 M-2.5,-0.5L0,-3.0L2.5,-0.5"/>
                </g>
                <g id="arrowDown" xlink:href="#dirArrow" transform="rotate(180) translate(-30 -48)" onmousedown="handlePan(0,1)">
                  <use xlink:href="#rim" fill="#404040">
                        <set attributeName="fill" to="#808080" begin="arrowDown.mouseover" end="arrowDown.mouseout"/>
                  </use>
                  <path fill="none" stroke="white" stroke-width="1.5" d="M0,-3.0v7 M-2.5,-0.5L0,-3.0L2.5,-0.5"/>
                </g>
                <g id="arrowLeft" xlink:href="#dirArrow" transform="rotate(270) translate(-36 17)" onmousedown="handlePan(-1,0)">
                  <use xlink:href="#rim" fill="#404040">
                        <set attributeName="fill" to="#808080" begin="arrowLeft.mouseover" end="arrowLeft.mouseout"/>
                  </use>
                  <path fill="none" stroke="white" stroke-width="1.5" d="M0,-3.0v7 M-2.5,-0.5L0,-3.0L2.5,-0.5"/>
                </g>
        </g>
        <svg viewBox="0 0 15 15" width="100%" height="30px" preserveAspectRatio="xMaxYMin meet">
         <g id="arrow_out" transform="scale(0.3 0.3)">
          <a xlink:href="classview_1_1_side_bar_ac97dbdf731a291e46ba643c78b4c5a93_cgraph_org.svg" target="_base">
           <rect id="button" ry="5" rx="5" y="6" x="6" height="38" width="38"
                fill="#f2f5e9" fill-opacity="0.5" stroke="#606060" stroke-width="1.0"/>
           <path id="arrow"
             d="M 11.500037,31.436501 C 11.940474,20.09759 22.043105,11.32322 32.158766,21.979434 L 37.068811,17.246167 C 37.068811,17.246167 37.088388,32 37.088388,32 L 22.160133,31.978069 C 22.160133,31.978069 26.997745,27.140456 26.997745,27.140456 C 18.528582,18.264221 13.291696,25.230495 11.500037,31.436501 z"
             style="fill:#404040;"/>
          </a>
         </g>
        </svg>
</svg>
