<?xml version="1.0" encoding="UTF-8" standalone="no"?>
<!DOCTYPE svg PUBLIC "-//W3C//DTD SVG 1.1//EN"
 "http://www.w3.org/Graphics/SVG/1.1/DTD/svg11.dtd">
<!-- Generated by graphviz version 2.36.0 (20140111.2315)
 -->
<!-- Title: view.SideBar.createVariablesPane Pages: 1 -->
<svg width="812pt" height="115pt"
 viewBox="0.00 0.00 812.00 115.00" xmlns="http://www.w3.org/2000/svg" xmlns:xlink="http://www.w3.org/1999/xlink">
<g id="graph0" class="graph" transform="scale(1 1) rotate(0) translate(4 111)">
<title>view.SideBar.createVariablesPane</title>
<polygon fill="white" stroke="none" points="-4,4 -4,-111 808,-111 808,4 -4,4"/>
<!-- Node1 -->
<g id="node1" class="node"><title>Node1</title>
<polygon fill="#bfbfbf" stroke="black" points="0,-60.5 0,-79.5 176,-79.5 176,-60.5 0,-60.5"/>
<text text-anchor="middle" x="88" y="-67.5" font-family="Helvetica,sans-Serif" font-size="10.00">view.SideBar.createVariablesPane</text>
</g>
<!-- Node2 -->
<g id="node2" class="node"><title>Node2</title>
<g id="a_node2"><a xlink:href="../../d1/dc7/classview_1_1_side_bar.html#a9e70a3dcc846be90d42957e25220b3b3" target="_top" xlink:title="view.SideBar.createTitleText">
<polygon fill="white" stroke="black" points="212,-82.5 212,-101.5 360,-101.5 360,-82.5 212,-82.5"/>
<text text-anchor="middle" x="286" y="-89.5" font-family="Helvetica,sans-Serif" font-size="10.00">view.SideBar.createTitleText</text>
</a>
</g>
</g>
<!-- Node1&#45;&gt;Node2 -->
<g id="edge1" class="edge"><title>Node1&#45;&gt;Node2</title>
<path fill="none" stroke="midnightblue" d="M173.829,-79.5216C183.098,-80.562 192.527,-81.6204 201.777,-82.6586"/>
<polygon fill="midnightblue" stroke="midnightblue" points="201.399,-86.1381 211.727,-83.7755 202.18,-79.1818 201.399,-86.1381"/>
</g>
<!-- Node3 -->
<g id="node3" class="node"><title>Node3</title>
<g id="a_node3"><a xlink:href="../../d1/dc7/classview_1_1_side_bar.html#aa92fe508daefb3ce28e76bf9e0314409" target="_top" xlink:title="view.SideBar.createVariable\lColumns">
<polygon fill="white" stroke="black" points="212,-33 212,-63 360,-63 360,-33 212,-33"/>
<text text-anchor="start" x="220" y="-51" font-family="Helvetica,sans-Serif" font-size="10.00">view.SideBar.createVariable</text>
<text text-anchor="middle" x="286" y="-40" font-family="Helvetica,sans-Serif" font-size="10.00">Columns</text>
</a>
</g>
</g>
<!-- Node1&#45;&gt;Node3 -->
<g id="edge2" class="edge"><title>Node1&#45;&gt;Node3</title>
<path fill="none" stroke="midnightblue" d="M173.829,-60.4784C183.098,-59.438 192.527,-58.3796 201.777,-57.3414"/>
<polygon fill="midnightblue" stroke="midnightblue" points="202.18,-60.8182 211.727,-56.2245 201.399,-53.8619 202.18,-60.8182"/>
</g>
<!-- Node4 -->
<g id="node4" class="node"><title>Node4</title>
<g id="a_node4"><a xlink:href="../../d1/dca/classmodel_1_1_execution_environment.html#a3afb09ec1e342a734f59161beca05b0e" target="_top" xlink:title="model.ExecutionEnvironment.add\lVariable">
<polygon fill="white" stroke="black" points="396,-77 396,-107 574,-107 574,-77 396,-77"/>
<text text-anchor="start" x="404" y="-95" font-family="Helvetica,sans-Serif" font-size="10.00">model.ExecutionEnvironment.add</text>
<text text-anchor="middle" x="485" y="-84" font-family="Helvetica,sans-Serif" font-size="10.00">Variable</text>
</a>
</g>
</g>
<!-- Node3&#45;&gt;Node4 -->
<g id="edge3" class="edge"><title>Node3&#45;&gt;Node4</title>
<path fill="none" stroke="midnightblue" d="M354.245,-63.0192C371.11,-66.786 389.339,-70.8574 406.653,-74.7244"/>
<polygon fill="midnightblue" stroke="midnightblue" points="406.201,-78.2098 416.724,-76.9738 407.727,-71.3781 406.201,-78.2098"/>
</g>
<!-- Node6 -->
<g id="node6" class="node"><title>Node6</title>
<g id="a_node6"><a xlink:href="../../d6/d58/classview_1_1_property.html#a51a9b0be72a7421596996f752b75ad93" target="_top" xlink:title="view.Property.getName">
<polygon fill="white" stroke="black" points="422,-38.5 422,-57.5 548,-57.5 548,-38.5 422,-38.5"/>
<text text-anchor="middle" x="485" y="-45.5" font-family="Helvetica,sans-Serif" font-size="10.00">view.Property.getName</text>
</a>
</g>
</g>
<!-- Node3&#45;&gt;Node6 -->
<g id="edge5" class="edge"><title>Node3&#45;&gt;Node6</title>
<path fill="none" stroke="midnightblue" d="M360.076,-48C376.851,-48 394.683,-48 411.437,-48"/>
<polygon fill="midnightblue" stroke="midnightblue" points="411.711,-51.5001 421.711,-48 411.711,-44.5001 411.711,-51.5001"/>
</g>
<!-- Node7 -->
<g id="node7" class="node"><title>Node7</title>
<g id="a_node7"><a xlink:href="../../d6/d58/classview_1_1_property.html#af57f40e26c8ed8fd7c55dfcda6215c6b" target="_top" xlink:title="view.Property.setValue">
<polygon fill="white" stroke="black" points="424,-0.5 424,-19.5 546,-19.5 546,-0.5 424,-0.5"/>
<text text-anchor="middle" x="485" y="-7.5" font-family="Helvetica,sans-Serif" font-size="10.00">view.Property.setValue</text>
</a>
</g>
</g>
<!-- Node3&#45;&gt;Node7 -->
<g id="edge6" class="edge"><title>Node3&#45;&gt;Node7</title>
<path fill="none" stroke="midnightblue" d="M360.076,-33.9042C381.34,-29.8025 404.301,-25.3735 424.612,-21.4555"/>
<polygon fill="midnightblue" stroke="midnightblue" points="425.503,-24.8482 434.659,-19.5175 424.178,-17.9749 425.503,-24.8482"/>
</g>
<!-- Node5 -->
<g id="node5" class="node"><title>Node5</title>
<g id="a_node5"><a xlink:href="../../d1/dca/classmodel_1_1_execution_environment.html#a93fd01341f06dfa81727344b120aef66" target="_top" xlink:title="model.ExecutionEnvironment.update\lObserver">
<polygon fill="white" stroke="black" points="610,-77 610,-107 804,-107 804,-77 610,-77"/>
<text text-anchor="start" x="618" y="-95" font-family="Helvetica,sans-Serif" font-size="10.00">model.ExecutionEnvironment.update</text>
<text text-anchor="middle" x="707" y="-84" font-family="Helvetica,sans-Serif" font-size="10.00">Observer</text>
</a>
</g>
</g>
<!-- Node4&#45;&gt;Node5 -->
<g id="edge4" class="edge"><title>Node4&#45;&gt;Node5</title>
<path fill="none" stroke="midnightblue" d="M574.215,-92C582.635,-92 591.233,-92 599.8,-92"/>
<polygon fill="midnightblue" stroke="midnightblue" points="599.83,-95.5001 609.83,-92 599.83,-88.5001 599.83,-95.5001"/>
</g>
</g>
</svg>
