<?xml version="1.0" encoding="UTF-8" standalone="no"?>
<!DOCTYPE svg PUBLIC "-//W3C//DTD SVG 1.1//EN"
 "http://www.w3.org/Graphics/SVG/1.1/DTD/svg11.dtd">
<!-- Generated by graphviz version 2.36.0 (20140111.2315)
 -->
<!-- Title: view.SideTableView.getTable Pages: 1 -->
<svg width="2506pt" height="501pt"
 viewBox="0.00 0.00 2506.00 501.25" xmlns="http://www.w3.org/2000/svg" xmlns:xlink="http://www.w3.org/1999/xlink">
<g id="graph0" class="graph" transform="scale(1 1) rotate(0) translate(4 497.249)">
<title>view.SideTableView.getTable</title>
<polygon fill="white" stroke="none" points="-4,4 -4,-497.249 2502,-497.249 2502,4 -4,4"/>
<!-- Node1 -->
<g id="node1" class="node"><title>Node1</title>
<polygon fill="#bfbfbf" stroke="black" points="0,-148.5 0,-167.5 148,-167.5 148,-148.5 0,-148.5"/>
<text text-anchor="middle" x="74" y="-155.5" font-family="Helvetica,sans-Serif" font-size="10.00">view.SideTableView.getTable</text>
</g>
<!-- Node2 -->
<g id="node2" class="node"><title>Node2</title>
<g id="a_node2"><a xlink:href="../../d9/dd3/classview_1_1_variables_view.html#a77a0efc0b8fdb1f12526b9146ce58473" target="_top" xlink:title="view.VariablesView.create\lColumns">
<polygon fill="white" stroke="black" points="201.5,-206 201.5,-236 338.5,-236 338.5,-206 201.5,-206"/>
<text text-anchor="start" x="209.5" y="-224" font-family="Helvetica,sans-Serif" font-size="10.00">view.VariablesView.create</text>
<text text-anchor="middle" x="270" y="-213" font-family="Helvetica,sans-Serif" font-size="10.00">Columns</text>
</a>
</g>
</g>
<!-- Node1&#45;&gt;Node2 -->
<g id="edge1" class="edge"><title>Node1&#45;&gt;Node2</title>
<path fill="none" stroke="midnightblue" d="M110.871,-171.006C132.059,-178.563 159.457,-188.118 184,-196 194.398,-199.339 205.567,-202.749 216.279,-205.934"/>
<polygon fill="midnightblue" stroke="midnightblue" points="111.903,-167.658 101.308,-167.581 109.542,-174.248 111.903,-167.658"/>
</g>
<!-- Node3 -->
<g id="node3" class="node"><title>Node3</title>
<g id="a_node3"><a xlink:href="../../d9/d3a/classview_1_1_turtle_properties_view.html#af07bce3cf2bed2814a0fb3812d00b69e" target="_top" xlink:title="view.TurtlePropertiesView.update">
<polygon fill="white" stroke="black" points="184.5,-167.5 184.5,-186.5 355.5,-186.5 355.5,-167.5 184.5,-167.5"/>
<text text-anchor="middle" x="270" y="-174.5" font-family="Helvetica,sans-Serif" font-size="10.00">view.TurtlePropertiesView.update</text>
</a>
</g>
</g>
<!-- Node1&#45;&gt;Node3 -->
<g id="edge2" class="edge"><title>Node1&#45;&gt;Node3</title>
<path fill="none" stroke="midnightblue" d="M158.138,-166.142C166.791,-166.99 175.595,-167.852 184.265,-168.701"/>
<polygon fill="midnightblue" stroke="midnightblue" points="158.36,-162.647 148.067,-165.156 157.678,-169.614 158.36,-162.647"/>
</g>
<!-- Node32 -->
<g id="node32" class="node"><title>Node32</title>
<g id="a_node32"><a xlink:href="../../d9/dd3/classview_1_1_variables_view.html#aebedf2b729065ddab04f33f4e217d785" target="_top" xlink:title="view.VariablesView.update">
<polygon fill="white" stroke="black" points="200,-129.5 200,-148.5 340,-148.5 340,-129.5 200,-129.5"/>
<text text-anchor="middle" x="270" y="-136.5" font-family="Helvetica,sans-Serif" font-size="10.00">view.VariablesView.update</text>
</a>
</g>
</g>
<!-- Node1&#45;&gt;Node32 -->
<g id="edge38" class="edge"><title>Node1&#45;&gt;Node32</title>
<path fill="none" stroke="midnightblue" d="M158.113,-149.86C172.027,-148.497 186.331,-147.096 199.846,-145.773"/>
<polygon fill="midnightblue" stroke="midnightblue" points="157.678,-146.386 148.067,-150.844 158.36,-153.353 157.678,-146.386"/>
</g>
<!-- Node36 -->
<g id="node36" class="node"><title>Node36</title>
<g id="a_node36"><a xlink:href="../../d9/dd3/classview_1_1_variables_view.html#a034be7aaf5651ef32a1826d97528cffe" target="_top" xlink:title="view.VariablesView.VariablesView">
<polygon fill="white" stroke="black" points="184,-91.5 184,-110.5 356,-110.5 356,-91.5 184,-91.5"/>
<text text-anchor="middle" x="270" y="-98.5" font-family="Helvetica,sans-Serif" font-size="10.00">view.VariablesView.VariablesView</text>
</a>
</g>
</g>
<!-- Node1&#45;&gt;Node36 -->
<g id="edge42" class="edge"><title>Node1&#45;&gt;Node36</title>
<path fill="none" stroke="midnightblue" d="M109.419,-144.855C130.709,-137.011 158.71,-127.209 184,-120 196.07,-116.56 209.248,-113.353 221.547,-110.59"/>
<polygon fill="midnightblue" stroke="midnightblue" points="107.999,-141.648 99.8471,-148.416 110.44,-148.209 107.999,-141.648"/>
</g>
<!-- Node4 -->
<g id="node4" class="node"><title>Node4</title>
<g id="a_node4"><a xlink:href="../../d1/dc7/classview_1_1_side_bar.html#a7d73038dbba05f96990b60664afa2670" target="_top" xlink:title="view.SideBar.updateTurtle\lProperties">
<polygon fill="white" stroke="black" points="399,-254 399,-284 537,-284 537,-254 399,-254"/>
<text text-anchor="start" x="407" y="-272" font-family="Helvetica,sans-Serif" font-size="10.00">view.SideBar.updateTurtle</text>
<text text-anchor="middle" x="468" y="-261" font-family="Helvetica,sans-Serif" font-size="10.00">Properties</text>
</a>
</g>
</g>
<!-- Node3&#45;&gt;Node4 -->
<g id="edge3" class="edge"><title>Node3&#45;&gt;Node4</title>
<path fill="none" stroke="midnightblue" d="M336.875,-189.212C343.44,-191.173 349.92,-193.423 356,-196 391.253,-210.939 427.459,-237.198 448.56,-253.816"/>
<polygon fill="midnightblue" stroke="midnightblue" points="337.802,-185.837 327.231,-186.543 335.935,-192.584 337.802,-185.837"/>
</g>
<!-- Node5 -->
<g id="node5" class="node"><title>Node5</title>
<g id="a_node5"><a xlink:href="../../d4/d64/classview_1_1_view_updater.html#ace7ce28317856b4b454a798d1af23b38" target="_top" xlink:title="view.ViewUpdater.clearScreen">
<polygon fill="white" stroke="black" points="1010.5,-319.5 1010.5,-338.5 1169.5,-338.5 1169.5,-319.5 1010.5,-319.5"/>
<text text-anchor="middle" x="1090" y="-326.5" font-family="Helvetica,sans-Serif" font-size="10.00">view.ViewUpdater.clearScreen</text>
</a>
</g>
</g>
<!-- Node4&#45;&gt;Node5 -->
<g id="edge4" class="edge"><title>Node4&#45;&gt;Node5</title>
<path fill="none" stroke="midnightblue" d="M514.184,-287.756C534.024,-295.126 557.811,-302.813 580,-307 730.148,-335.334 909.434,-335.446 1010.16,-332.523"/>
<polygon fill="midnightblue" stroke="midnightblue" points="515.377,-284.465 504.786,-284.18 512.888,-291.007 515.377,-284.465"/>
</g>
<!-- Node7 -->
<g id="node7" class="node"><title>Node7</title>
<g id="a_node7"><a xlink:href="../../de/d0a/classview_1_1_drawer.html#a6b9f362b8bc763689630b1fe7b5c1887" target="_top" xlink:title="view.Drawer.draw">
<polygon fill="white" stroke="black" points="616,-278.5 616,-297.5 714,-297.5 714,-278.5 616,-278.5"/>
<text text-anchor="middle" x="665" y="-285.5" font-family="Helvetica,sans-Serif" font-size="10.00">view.Drawer.draw</text>
</a>
</g>
</g>
<!-- Node4&#45;&gt;Node7 -->
<g id="edge6" class="edge"><title>Node4&#45;&gt;Node7</title>
<path fill="none" stroke="midnightblue" d="M547.359,-276.635C570.501,-278.89 595.141,-281.291 615.782,-283.302"/>
<polygon fill="midnightblue" stroke="midnightblue" points="547.494,-273.132 537.202,-275.645 546.815,-280.099 547.494,-273.132"/>
</g>
<!-- Node10 -->
<g id="node10" class="node"><title>Node10</title>
<g id="a_node10"><a xlink:href="../../da/d64/classview_1_1_workspace.html#a16bda9a6a7fe7f8d3d7b09108675f9c4" target="_top" xlink:title="view.Workspace.setActive\lTurtle">
<polygon fill="white" stroke="black" points="596.5,-115 596.5,-145 733.5,-145 733.5,-115 596.5,-115"/>
<text text-anchor="start" x="604.5" y="-133" font-family="Helvetica,sans-Serif" font-size="10.00">view.Workspace.setActive</text>
<text text-anchor="middle" x="665" y="-122" font-family="Helvetica,sans-Serif" font-size="10.00">Turtle</text>
</a>
</g>
</g>
<!-- Node4&#45;&gt;Node10 -->
<g id="edge10" class="edge"><title>Node4&#45;&gt;Node10</title>
<path fill="none" stroke="midnightblue" d="M485.888,-245.535C505.651,-219.725 540.714,-178.763 580,-155 586.379,-151.141 593.394,-147.844 600.567,-145.034"/>
<polygon fill="midnightblue" stroke="midnightblue" points="482.992,-243.562 479.788,-253.661 488.591,-247.765 482.992,-243.562"/>
</g>
<!-- Node22 -->
<g id="node22" class="node"><title>Node22</title>
<g id="a_node22"><a xlink:href="../../d4/d64/classview_1_1_view_updater.html#ab8c47e1d6b8bc5c076184e3e0af5e4b2" target="_top" xlink:title="view.ViewUpdater.setHeading">
<polygon fill="white" stroke="black" points="801.5,-240.5 801.5,-259.5 958.5,-259.5 958.5,-240.5 801.5,-240.5"/>
<text text-anchor="middle" x="880" y="-247.5" font-family="Helvetica,sans-Serif" font-size="10.00">view.ViewUpdater.setHeading</text>
</a>
</g>
</g>
<!-- Node4&#45;&gt;Node22 -->
<g id="edge24" class="edge"><title>Node4&#45;&gt;Node22</title>
<path fill="none" stroke="midnightblue" d="M547.217,-265.375C620.175,-261.994 728.407,-256.979 801.223,-253.604"/>
<polygon fill="midnightblue" stroke="midnightblue" points="546.991,-261.882 537.163,-265.841 547.315,-268.874 546.991,-261.882"/>
</g>
<!-- Node24 -->
<g id="node24" class="node"><title>Node24</title>
<g id="a_node24"><a xlink:href="../../d6/de7/classview_1_1_s_logo_view.html#ae7ad67f4b629b134cb805842a20f4050" target="_top" xlink:title="view.SLogoView.setHeading">
<polygon fill="white" stroke="black" points="591,-202.5 591,-221.5 739,-221.5 739,-202.5 591,-202.5"/>
<text text-anchor="middle" x="665" y="-209.5" font-family="Helvetica,sans-Serif" font-size="10.00">view.SLogoView.setHeading</text>
</a>
</g>
</g>
<!-- Node4&#45;&gt;Node24 -->
<g id="edge27" class="edge"><title>Node4&#45;&gt;Node24</title>
<path fill="none" stroke="midnightblue" d="M529.283,-250.951C545.721,-246.064 563.537,-240.799 580,-236 596.454,-231.204 614.748,-225.966 630.053,-221.61"/>
<polygon fill="midnightblue" stroke="midnightblue" points="527.836,-247.73 519.25,-253.937 529.833,-254.439 527.836,-247.73"/>
</g>
<!-- Node26 -->
<g id="node26" class="node"><title>Node26</title>
<g id="a_node26"><a xlink:href="../../d4/d64/classview_1_1_view_updater.html#ad79c00c54aabbeca7b8a0461fea36c29" target="_top" xlink:title="view.ViewUpdater.setPenUp">
<polygon fill="white" stroke="black" points="805.5,-461.5 805.5,-480.5 954.5,-480.5 954.5,-461.5 805.5,-461.5"/>
<text text-anchor="middle" x="880" y="-468.5" font-family="Helvetica,sans-Serif" font-size="10.00">view.ViewUpdater.setPenUp</text>
</a>
</g>
</g>
<!-- Node4&#45;&gt;Node26 -->
<g id="edge29" class="edge"><title>Node4&#45;&gt;Node26</title>
<path fill="none" stroke="midnightblue" d="M475.203,-293.91C487.26,-336.405 518.267,-421.904 580,-459 661.49,-507.968 779.264,-493.059 839.806,-480.575"/>
<polygon fill="midnightblue" stroke="midnightblue" points="478.535,-292.824 472.539,-284.089 471.779,-294.656 478.535,-292.824"/>
</g>
<!-- Node27 -->
<g id="node27" class="node"><title>Node27</title>
<g id="a_node27"><a xlink:href="../../d6/de7/classview_1_1_s_logo_view.html#a978a65a0b82bac25044f7e2816a680cc" target="_top" xlink:title="view.SLogoView.setPenUp">
<polygon fill="white" stroke="black" points="595,-164.5 595,-183.5 735,-183.5 735,-164.5 595,-164.5"/>
<text text-anchor="middle" x="665" y="-171.5" font-family="Helvetica,sans-Serif" font-size="10.00">view.SLogoView.setPenUp</text>
</a>
</g>
</g>
<!-- Node4&#45;&gt;Node27 -->
<g id="edge31" class="edge"><title>Node4&#45;&gt;Node27</title>
<path fill="none" stroke="midnightblue" d="M494.546,-247.323C516.034,-230.163 548.252,-206.852 580,-193 588.771,-189.173 598.406,-186.072 607.925,-183.574"/>
<polygon fill="midnightblue" stroke="midnightblue" points="492.136,-244.772 486.583,-253.795 496.551,-250.204 492.136,-244.772"/>
</g>
<!-- Node28 -->
<g id="node28" class="node"><title>Node28</title>
<g id="a_node28"><a xlink:href="../../d4/d64/classview_1_1_view_updater.html#a497cc83cdcb6fdb430bdb78431c5cd20" target="_top" xlink:title="view.ViewUpdater.setXY">
<polygon fill="white" stroke="black" points="1026,-395.5 1026,-414.5 1154,-414.5 1154,-395.5 1026,-395.5"/>
<text text-anchor="middle" x="1090" y="-402.5" font-family="Helvetica,sans-Serif" font-size="10.00">view.ViewUpdater.setXY</text>
</a>
</g>
</g>
<!-- Node4&#45;&gt;Node28 -->
<g id="edge32" class="edge"><title>Node4&#45;&gt;Node28</title>
<path fill="none" stroke="midnightblue" d="M486.703,-291.901C506.543,-315.635 541.075,-351.52 580,-368 729.717,-431.388 926.324,-422.914 1025.68,-413.03"/>
<polygon fill="midnightblue" stroke="midnightblue" points="489.346,-289.604 480.315,-284.065 483.921,-294.027 489.346,-289.604"/>
</g>
<!-- Node29 -->
<g id="node29" class="node"><title>Node29</title>
<g id="a_node29"><a xlink:href="../../d6/de7/classview_1_1_s_logo_view.html#a0948ea67bfc088f941e2af79727231ad" target="_top" xlink:title="view.SLogoView.setXY">
<polygon fill="white" stroke="black" points="605.5,-76.5 605.5,-95.5 724.5,-95.5 724.5,-76.5 605.5,-76.5"/>
<text text-anchor="middle" x="665" y="-83.5" font-family="Helvetica,sans-Serif" font-size="10.00">view.SLogoView.setXY</text>
</a>
</g>
</g>
<!-- Node4&#45;&gt;Node29 -->
<g id="edge34" class="edge"><title>Node4&#45;&gt;Node29</title>
<path fill="none" stroke="midnightblue" d="M478.535,-244.596C494.061,-208.215 528.354,-140.266 580,-105 587.532,-99.8568 596.244,-96.0858 605.146,-93.3252"/>
<polygon fill="midnightblue" stroke="midnightblue" points="475.247,-243.389 474.655,-253.967 481.714,-246.067 475.247,-243.389"/>
</g>
<!-- Node30 -->
<g id="node30" class="node"><title>Node30</title>
<g id="a_node30"><a xlink:href="../../d4/d64/classview_1_1_view_updater.html#a9797c2f411ad272a0feb84c26836bfd4" target="_top" xlink:title="view.ViewUpdater.showTurtle">
<polygon fill="white" stroke="black" points="804,-354.5 804,-373.5 956,-373.5 956,-354.5 804,-354.5"/>
<text text-anchor="middle" x="880" y="-361.5" font-family="Helvetica,sans-Serif" font-size="10.00">view.ViewUpdater.showTurtle</text>
</a>
</g>
</g>
<!-- Node4&#45;&gt;Node30 -->
<g id="edge35" class="edge"><title>Node4&#45;&gt;Node30</title>
<path fill="none" stroke="midnightblue" d="M494.33,-290.377C515.69,-307.067 547.844,-329.18 580,-340 653.296,-364.662 742.168,-368.788 803.882,-367.905"/>
<polygon fill="midnightblue" stroke="midnightblue" points="496.416,-287.564 486.419,-284.056 492.047,-293.033 496.416,-287.564"/>
</g>
<!-- Node31 -->
<g id="node31" class="node"><title>Node31</title>
<g id="a_node31"><a xlink:href="../../d6/de7/classview_1_1_s_logo_view.html#a00710838e28dcb10fe6da3c0ec0c4e20" target="_top" xlink:title="view.SLogoView.showTurtle">
<polygon fill="white" stroke="black" points="593.5,-430.5 593.5,-449.5 736.5,-449.5 736.5,-430.5 593.5,-430.5"/>
<text text-anchor="middle" x="665" y="-437.5" font-family="Helvetica,sans-Serif" font-size="10.00">view.SLogoView.showTurtle</text>
</a>
</g>
</g>
<!-- Node4&#45;&gt;Node31 -->
<g id="edge37" class="edge"><title>Node4&#45;&gt;Node31</title>
<path fill="none" stroke="midnightblue" d="M480.934,-293.366C498.239,-326.153 533.395,-384.036 580,-416 589.256,-422.348 600.179,-427.032 611.033,-430.482"/>
<polygon fill="midnightblue" stroke="midnightblue" points="483.831,-291.345 476.144,-284.054 477.606,-294.547 483.831,-291.345"/>
</g>
<!-- Node6 -->
<g id="node6" class="node"><title>Node6</title>
<g id="a_node6"><a xlink:href="../../d1/dd3/classmodel_1_1instructions_1_1_movement_instruction.html#a33e802cec8283d190a8daac6e485e3b4" target="_top" xlink:title="model.instructions.Movement\lInstruction.execute">
<polygon fill="white" stroke="black" points="1206.5,-333 1206.5,-363 1365.5,-363 1365.5,-333 1206.5,-333"/>
<text text-anchor="start" x="1214.5" y="-351" font-family="Helvetica,sans-Serif" font-size="10.00">model.instructions.Movement</text>
<text text-anchor="middle" x="1286" y="-340" font-family="Helvetica,sans-Serif" font-size="10.00">Instruction.execute</text>
</a>
</g>
</g>
<!-- Node5&#45;&gt;Node6 -->
<g id="edge5" class="edge"><title>Node5&#45;&gt;Node6</title>
<path fill="none" stroke="midnightblue" d="M1179.61,-337.678C1188.5,-338.549 1197.48,-339.429 1206.26,-340.288"/>
<polygon fill="midnightblue" stroke="midnightblue" points="1179.92,-334.192 1169.63,-336.701 1179.24,-341.159 1179.92,-334.192"/>
</g>
<!-- Node8 -->
<g id="node8" class="node"><title>Node8</title>
<g id="a_node8"><a xlink:href="../../d4/d64/classview_1_1_view_updater.html#adc0790ceed057768bd5a29a470e626d1" target="_top" xlink:title="view.ViewUpdater.updateWorkspace">
<polygon fill="white" stroke="black" points="786.5,-278.5 786.5,-297.5 973.5,-297.5 973.5,-278.5 786.5,-278.5"/>
<text text-anchor="middle" x="880" y="-285.5" font-family="Helvetica,sans-Serif" font-size="10.00">view.ViewUpdater.updateWorkspace</text>
</a>
</g>
</g>
<!-- Node7&#45;&gt;Node8 -->
<g id="edge7" class="edge"><title>Node7&#45;&gt;Node8</title>
<path fill="none" stroke="midnightblue" d="M724.121,-288C743.281,-288 765.094,-288 786.179,-288"/>
<polygon fill="midnightblue" stroke="midnightblue" points="724.067,-284.5 714.067,-288 724.067,-291.5 724.067,-284.5"/>
</g>
<!-- Node9 -->
<g id="node9" class="node"><title>Node9</title>
<g id="a_node9"><a xlink:href="../../d1/dd3/classmodel_1_1instructions_1_1_movement_instruction.html#a51c776093aeb820937b12e2b89eb2f89" target="_top" xlink:title="model.instructions.Movement\lInstruction.updateView">
<polygon fill="white" stroke="black" points="1010.5,-270 1010.5,-300 1169.5,-300 1169.5,-270 1010.5,-270"/>
<text text-anchor="start" x="1018.5" y="-288" font-family="Helvetica,sans-Serif" font-size="10.00">model.instructions.Movement</text>
<text text-anchor="middle" x="1090" y="-277" font-family="Helvetica,sans-Serif" font-size="10.00">Instruction.updateView</text>
</a>
</g>
</g>
<!-- Node8&#45;&gt;Node9 -->
<g id="edge8" class="edge"><title>Node8&#45;&gt;Node9</title>
<path fill="none" stroke="midnightblue" d="M983.821,-286.517C992.762,-286.388 1001.71,-286.259 1010.41,-286.133"/>
<polygon fill="midnightblue" stroke="midnightblue" points="983.695,-283.018 973.746,-286.662 983.796,-290.018 983.695,-283.018"/>
</g>
<!-- Node9&#45;&gt;Node6 -->
<g id="edge9" class="edge"><title>Node9&#45;&gt;Node6</title>
<path fill="none" stroke="midnightblue" d="M1148.76,-303.186C1155.92,-305.467 1163.13,-307.778 1170,-310 1193.11,-317.474 1218.77,-325.939 1239.98,-332.979"/>
<polygon fill="midnightblue" stroke="midnightblue" points="1149.66,-299.801 1139.07,-300.107 1147.54,-306.472 1149.66,-299.801"/>
</g>
<!-- Node11 -->
<g id="node11" class="node"><title>Node11</title>
<g id="a_node11"><a xlink:href="../../da/d64/classview_1_1_workspace.html#abbd85b844575ebab6643ba4ddc5a1612" target="_top" xlink:title="view.Workspace.Workspace">
<polygon fill="white" stroke="black" points="1214,-142.5 1214,-161.5 1358,-161.5 1358,-142.5 1214,-142.5"/>
<text text-anchor="middle" x="1286" y="-149.5" font-family="Helvetica,sans-Serif" font-size="10.00">view.Workspace.Workspace</text>
</a>
</g>
</g>
<!-- Node10&#45;&gt;Node11 -->
<g id="edge11" class="edge"><title>Node10&#45;&gt;Node11</title>
<path fill="none" stroke="midnightblue" d="M744.032,-132.773C865.281,-137.083 1097.1,-145.322 1213.94,-149.474"/>
<polygon fill="midnightblue" stroke="midnightblue" points="743.836,-129.264 733.718,-132.407 743.587,-136.26 743.836,-129.264"/>
</g>
<!-- Node12 -->
<g id="node12" class="node"><title>Node12</title>
<g id="a_node12"><a xlink:href="../../da/d64/classview_1_1_workspace.html#a9eea72f983d5e7ad5af85056d927e380" target="_top" xlink:title="view.Workspace.configure\lTurtleEventHandler">
<polygon fill="white" stroke="black" points="811.5,-93 811.5,-123 948.5,-123 948.5,-93 811.5,-93"/>
<text text-anchor="start" x="819.5" y="-111" font-family="Helvetica,sans-Serif" font-size="10.00">view.Workspace.configure</text>
<text text-anchor="middle" x="880" y="-100" font-family="Helvetica,sans-Serif" font-size="10.00">TurtleEventHandler</text>
</a>
</g>
</g>
<!-- Node10&#45;&gt;Node12 -->
<g id="edge12" class="edge"><title>Node10&#45;&gt;Node12</title>
<path fill="none" stroke="midnightblue" d="M743.746,-121.97C765.948,-119.677 789.952,-117.197 811.489,-114.973"/>
<polygon fill="midnightblue" stroke="midnightblue" points="743.275,-118.5 733.687,-123.009 743.994,-125.463 743.275,-118.5"/>
</g>
<!-- Node13 -->
<g id="node13" class="node"><title>Node13</title>
<g id="a_node13"><a xlink:href="../../da/d64/classview_1_1_workspace.html#a4abde41a3048fa8f64ddfec40c8ffdb7" target="_top" xlink:title="view.Workspace.addTurtle">
<polygon fill="white" stroke="black" points="1021.5,-98.5 1021.5,-117.5 1158.5,-117.5 1158.5,-98.5 1021.5,-98.5"/>
<text text-anchor="middle" x="1090" y="-105.5" font-family="Helvetica,sans-Serif" font-size="10.00">view.Workspace.addTurtle</text>
</a>
</g>
</g>
<!-- Node12&#45;&gt;Node13 -->
<g id="edge13" class="edge"><title>Node12&#45;&gt;Node13</title>
<path fill="none" stroke="midnightblue" d="M958.541,-108C979.208,-108 1001.37,-108 1021.45,-108"/>
<polygon fill="midnightblue" stroke="midnightblue" points="958.532,-104.5 948.532,-108 958.532,-111.5 958.532,-104.5"/>
</g>
<!-- Node13&#45;&gt;Node11 -->
<g id="edge23" class="edge"><title>Node13&#45;&gt;Node11</title>
<path fill="none" stroke="midnightblue" d="M1142.96,-119.784C1174.27,-126.887 1213.64,-135.816 1242.99,-142.471"/>
<polygon fill="midnightblue" stroke="midnightblue" points="1143.62,-116.346 1133.1,-117.547 1142.07,-123.173 1143.62,-116.346"/>
</g>
<!-- Node14 -->
<g id="node14" class="node"><title>Node14</title>
<g id="a_node14"><a xlink:href="../../d6/de7/classview_1_1_s_logo_view.html#acf432f20e1a7dda7bef97f0619fb0fa5" target="_top" xlink:title="view.SLogoView.configure\lAddTurtlesButton">
<polygon fill="white" stroke="black" points="1217.5,-93 1217.5,-123 1354.5,-123 1354.5,-93 1217.5,-93"/>
<text text-anchor="start" x="1225.5" y="-111" font-family="Helvetica,sans-Serif" font-size="10.00">view.SLogoView.configure</text>
<text text-anchor="middle" x="1286" y="-100" font-family="Helvetica,sans-Serif" font-size="10.00">AddTurtlesButton</text>
</a>
</g>
</g>
<!-- Node13&#45;&gt;Node14 -->
<g id="edge14" class="edge"><title>Node13&#45;&gt;Node14</title>
<path fill="none" stroke="midnightblue" d="M1168.98,-108C1184.99,-108 1201.72,-108 1217.33,-108"/>
<polygon fill="midnightblue" stroke="midnightblue" points="1168.58,-104.5 1158.58,-108 1168.58,-111.5 1168.58,-104.5"/>
</g>
<!-- Node15 -->
<g id="node15" class="node"><title>Node15</title>
<g id="a_node15"><a xlink:href="../../d6/de7/classview_1_1_s_logo_view.html#ae0050481c9168dd8eeb434d9aa79b047" target="_top" xlink:title="view.SLogoView.configureUI">
<polygon fill="white" stroke="black" points="1402.5,-98.5 1402.5,-117.5 1549.5,-117.5 1549.5,-98.5 1402.5,-98.5"/>
<text text-anchor="middle" x="1476" y="-105.5" font-family="Helvetica,sans-Serif" font-size="10.00">view.SLogoView.configureUI</text>
</a>
</g>
</g>
<!-- Node14&#45;&gt;Node15 -->
<g id="edge15" class="edge"><title>Node14&#45;&gt;Node15</title>
<path fill="none" stroke="midnightblue" d="M1364.89,-108C1377.27,-108 1390.02,-108 1402.27,-108"/>
<polygon fill="midnightblue" stroke="midnightblue" points="1364.61,-104.5 1354.61,-108 1364.61,-111.5 1364.61,-104.5"/>
</g>
<!-- Node16 -->
<g id="node16" class="node"><title>Node16</title>
<g id="a_node16"><a xlink:href="../../d1/d75/classview_1_1_main_view.html#ade3718ede33fa2086649c8b3cf75d2f9" target="_top" xlink:title="view.MainView.initTabs">
<polygon fill="white" stroke="black" points="1767.5,-117.5 1767.5,-136.5 1888.5,-136.5 1888.5,-117.5 1767.5,-117.5"/>
<text text-anchor="middle" x="1828" y="-124.5" font-family="Helvetica,sans-Serif" font-size="10.00">view.MainView.initTabs</text>
</a>
</g>
</g>
<!-- Node15&#45;&gt;Node16 -->
<g id="edge16" class="edge"><title>Node15&#45;&gt;Node16</title>
<path fill="none" stroke="midnightblue" d="M1559.56,-112.482C1623.37,-115.946 1710.18,-120.658 1767.36,-123.762"/>
<polygon fill="midnightblue" stroke="midnightblue" points="1559.7,-108.984 1549.52,-111.937 1559.32,-115.974 1559.7,-108.984"/>
</g>
<!-- Node18 -->
<g id="node18" class="node"><title>Node18</title>
<g id="a_node18"><a xlink:href="../../d1/d75/classview_1_1_main_view.html#a39a2b399924a553ccd89dd2a2e6ea208" target="_top" xlink:title="view.MainView.newTab">
<polygon fill="white" stroke="black" points="1586,-79.5 1586,-98.5 1706,-98.5 1706,-79.5 1586,-79.5"/>
<text text-anchor="middle" x="1646" y="-86.5" font-family="Helvetica,sans-Serif" font-size="10.00">view.MainView.newTab</text>
</a>
</g>
</g>
<!-- Node15&#45;&gt;Node18 -->
<g id="edge18" class="edge"><title>Node15&#45;&gt;Node18</title>
<path fill="none" stroke="midnightblue" d="M1559.65,-98.6523C1568.49,-97.6533 1577.34,-96.6521 1585.82,-95.6928"/>
<polygon fill="midnightblue" stroke="midnightblue" points="1559.25,-95.1751 1549.71,-99.7768 1560.04,-102.131 1559.25,-95.1751"/>
</g>
<!-- Node17 -->
<g id="node17" class="node"><title>Node17</title>
<g id="a_node17"><a xlink:href="../../d1/d75/classview_1_1_main_view.html#a9e27015c007bed90f32c79fc1187083f" target="_top" xlink:title="view.MainView.MainView">
<polygon fill="white" stroke="black" points="2368,-98.5 2368,-117.5 2498,-117.5 2498,-98.5 2368,-98.5"/>
<text text-anchor="middle" x="2433" y="-105.5" font-family="Helvetica,sans-Serif" font-size="10.00">view.MainView.MainView</text>
</a>
</g>
</g>
<!-- Node16&#45;&gt;Node17 -->
<g id="edge17" class="edge"><title>Node16&#45;&gt;Node17</title>
<path fill="none" stroke="midnightblue" d="M1898.74,-124.803C2016.6,-121.089 2253.48,-113.625 2367.62,-110.029"/>
<polygon fill="midnightblue" stroke="midnightblue" points="1898.63,-121.304 1888.75,-125.117 1898.85,-128.301 1898.63,-121.304"/>
</g>
<!-- Node19 -->
<g id="node19" class="node"><title>Node19</title>
<g id="a_node19"><a xlink:href="../../d1/d75/classview_1_1_main_view.html#a0424800b5057be73f94e16ef2e1e2b33" target="_top" xlink:title="view.MainView.configureFileMenu">
<polygon fill="white" stroke="black" points="1742.5,-79.5 1742.5,-98.5 1913.5,-98.5 1913.5,-79.5 1742.5,-79.5"/>
<text text-anchor="middle" x="1828" y="-86.5" font-family="Helvetica,sans-Serif" font-size="10.00">view.MainView.configureFileMenu</text>
</a>
</g>
</g>
<!-- Node18&#45;&gt;Node19 -->
<g id="edge19" class="edge"><title>Node18&#45;&gt;Node19</title>
<path fill="none" stroke="midnightblue" d="M1716.55,-89C1724.96,-89 1733.62,-89 1742.22,-89"/>
<polygon fill="midnightblue" stroke="midnightblue" points="1716.44,-85.5001 1706.44,-89 1716.44,-92.5001 1716.44,-85.5001"/>
</g>
<!-- Node20 -->
<g id="node20" class="node"><title>Node20</title>
<g id="a_node20"><a xlink:href="../../d1/d75/classview_1_1_main_view.html#a200c2c8e08e038e2ea86acc40c17d8d2" target="_top" xlink:title="view.MainView.configureTopMenu">
<polygon fill="white" stroke="black" points="1950,-79.5 1950,-98.5 2122,-98.5 2122,-79.5 1950,-79.5"/>
<text text-anchor="middle" x="2036" y="-86.5" font-family="Helvetica,sans-Serif" font-size="10.00">view.MainView.configureTopMenu</text>
</a>
</g>
</g>
<!-- Node19&#45;&gt;Node20 -->
<g id="edge20" class="edge"><title>Node19&#45;&gt;Node20</title>
<path fill="none" stroke="midnightblue" d="M1923.86,-89C1932.57,-89 1941.36,-89 1949.98,-89"/>
<polygon fill="midnightblue" stroke="midnightblue" points="1923.68,-85.5001 1913.68,-89 1923.68,-92.5001 1923.68,-85.5001"/>
</g>
<!-- Node21 -->
<g id="node21" class="node"><title>Node21</title>
<g id="a_node21"><a xlink:href="../../d1/d75/classview_1_1_main_view.html#aff9e267e9368512a16e425f08d7b3ea0" target="_top" xlink:title="view.MainView.initRowConstraints">
<polygon fill="white" stroke="black" points="2158.5,-79.5 2158.5,-98.5 2331.5,-98.5 2331.5,-79.5 2158.5,-79.5"/>
<text text-anchor="middle" x="2245" y="-86.5" font-family="Helvetica,sans-Serif" font-size="10.00">view.MainView.initRowConstraints</text>
</a>
</g>
</g>
<!-- Node20&#45;&gt;Node21 -->
<g id="edge21" class="edge"><title>Node20&#45;&gt;Node21</title>
<path fill="none" stroke="midnightblue" d="M2132.22,-89C2140.9,-89 2149.65,-89 2158.24,-89"/>
<polygon fill="midnightblue" stroke="midnightblue" points="2132.09,-85.5001 2122.09,-89 2132.09,-92.5001 2132.09,-85.5001"/>
</g>
<!-- Node21&#45;&gt;Node17 -->
<g id="edge22" class="edge"><title>Node21&#45;&gt;Node17</title>
<path fill="none" stroke="midnightblue" d="M2341.68,-98.774C2350.57,-99.6819 2359.43,-100.587 2367.92,-101.455"/>
<polygon fill="midnightblue" stroke="midnightblue" points="2341.95,-95.2837 2331.65,-97.7492 2341.24,-102.247 2341.95,-95.2837"/>
</g>
<!-- Node23 -->
<g id="node23" class="node"><title>Node23</title>
<g id="a_node23"><a xlink:href="../../d4/d64/classview_1_1_view_updater.html#ad29dfbb2499161b985c26e01f73ea5ac" target="_top" xlink:title="view.ViewUpdater.towards">
<polygon fill="white" stroke="black" points="1020,-231.5 1020,-250.5 1160,-250.5 1160,-231.5 1020,-231.5"/>
<text text-anchor="middle" x="1090" y="-238.5" font-family="Helvetica,sans-Serif" font-size="10.00">view.ViewUpdater.towards</text>
</a>
</g>
</g>
<!-- Node22&#45;&gt;Node23 -->
<g id="edge25" class="edge"><title>Node22&#45;&gt;Node23</title>
<path fill="none" stroke="midnightblue" d="M969.207,-246.183C986.152,-245.45 1003.67,-244.692 1019.9,-243.99"/>
<polygon fill="midnightblue" stroke="midnightblue" points="968.587,-242.707 958.747,-246.636 968.889,-249.7 968.587,-242.707"/>
</g>
<!-- Node23&#45;&gt;Node6 -->
<g id="edge26" class="edge"><title>Node23&#45;&gt;Node6</title>
<path fill="none" stroke="midnightblue" d="M1154.2,-253.658C1159.64,-255.508 1164.99,-257.611 1170,-260 1209.72,-278.922 1248.87,-313.097 1269.68,-332.828"/>
<polygon fill="midnightblue" stroke="midnightblue" points="1154.91,-250.215 1144.32,-250.597 1152.84,-256.901 1154.91,-250.215"/>
</g>
<!-- Node25 -->
<g id="node25" class="node"><title>Node25</title>
<g id="a_node25"><a xlink:href="../../d6/de7/classview_1_1_s_logo_view.html#afa2b659c4d080b5f927978b453633ab2" target="_top" xlink:title="view.SLogoView.towards">
<polygon fill="white" stroke="black" points="814.5,-202.5 814.5,-221.5 945.5,-221.5 945.5,-202.5 814.5,-202.5"/>
<text text-anchor="middle" x="880" y="-209.5" font-family="Helvetica,sans-Serif" font-size="10.00">view.SLogoView.towards</text>
</a>
</g>
</g>
<!-- Node24&#45;&gt;Node25 -->
<g id="edge28" class="edge"><title>Node24&#45;&gt;Node25</title>
<path fill="none" stroke="midnightblue" d="M749.163,-212C770.791,-212 793.77,-212 814.288,-212"/>
<polygon fill="midnightblue" stroke="midnightblue" points="749.005,-208.5 739.005,-212 749.004,-215.5 749.005,-208.5"/>
</g>
<!-- Node26&#45;&gt;Node6 -->
<g id="edge30" class="edge"><title>Node26&#45;&gt;Node6</title>
<path fill="none" stroke="midnightblue" d="M964.829,-466.716C1023.88,-461.48 1103.87,-449.846 1170,-424 1207.67,-409.277 1245.72,-380.872 1267.23,-363.265"/>
<polygon fill="midnightblue" stroke="midnightblue" points="964.469,-463.234 954.799,-467.562 965.057,-470.209 964.469,-463.234"/>
</g>
<!-- Node28&#45;&gt;Node6 -->
<g id="edge33" class="edge"><title>Node28&#45;&gt;Node6</title>
<path fill="none" stroke="midnightblue" d="M1133.08,-392.635C1162.65,-383.947 1202.38,-372.276 1233.79,-363.047"/>
<polygon fill="midnightblue" stroke="midnightblue" points="1132.08,-389.282 1123.47,-395.459 1134.05,-395.998 1132.08,-389.282"/>
</g>
<!-- Node30&#45;&gt;Node6 -->
<g id="edge36" class="edge"><title>Node30&#45;&gt;Node6</title>
<path fill="none" stroke="midnightblue" d="M966.28,-360.623C1037.15,-357.816 1137.21,-353.853 1206.22,-351.12"/>
<polygon fill="midnightblue" stroke="midnightblue" points="965.896,-357.135 956.042,-361.028 966.173,-364.129 965.896,-357.135"/>
</g>
<!-- Node33 -->
<g id="node33" class="node"><title>Node33</title>
<g id="a_node33"><a xlink:href="../../d1/dc7/classview_1_1_side_bar.html#a9ee7c3d1f9e3f461361703420eb09b26" target="_top" xlink:title="view.SideBar.updateVariable">
<polygon fill="white" stroke="black" points="392.5,-38.5 392.5,-57.5 543.5,-57.5 543.5,-38.5 392.5,-38.5"/>
<text text-anchor="middle" x="468" y="-45.5" font-family="Helvetica,sans-Serif" font-size="10.00">view.SideBar.updateVariable</text>
</a>
</g>
</g>
<!-- Node32&#45;&gt;Node33 -->
<g id="edge39" class="edge"><title>Node32&#45;&gt;Node33</title>
<path fill="none" stroke="midnightblue" d="M336.858,-126.748C343.427,-124.795 349.912,-122.557 356,-120 395.178,-103.543 435.699,-73.2709 455.162,-57.7451"/>
<polygon fill="midnightblue" stroke="midnightblue" points="335.92,-123.376 327.21,-129.409 337.781,-130.124 335.92,-123.376"/>
</g>
<!-- Node34 -->
<g id="node34" class="node"><title>Node34</title>
<g id="a_node34"><a xlink:href="../../d4/d64/classview_1_1_view_updater.html#aa4cfbf2ecad29abda8cd3aaff891539a" target="_top" xlink:title="view.ViewUpdater.update">
<polygon fill="white" stroke="black" points="597,-0.5 597,-19.5 733,-19.5 733,-0.5 597,-0.5"/>
<text text-anchor="middle" x="665" y="-7.5" font-family="Helvetica,sans-Serif" font-size="10.00">view.ViewUpdater.update</text>
</a>
</g>
</g>
<!-- Node33&#45;&gt;Node34 -->
<g id="edge40" class="edge"><title>Node33&#45;&gt;Node34</title>
<path fill="none" stroke="midnightblue" d="M527.959,-36.5106C555.782,-31.0886 588.596,-24.6942 615.025,-19.5439"/>
<polygon fill="midnightblue" stroke="midnightblue" points="527.101,-33.1118 517.955,-38.46 528.44,-39.9826 527.101,-33.1118"/>
</g>
<!-- Node35 -->
<g id="node35" class="node"><title>Node35</title>
<g id="a_node35"><a xlink:href="../../d6/de7/classview_1_1_s_logo_view.html#aba44200de8094d8957a326b999b1168a" target="_top" xlink:title="view.SLogoView.updateVariables">
<polygon fill="white" stroke="black" points="580,-38.5 580,-57.5 750,-57.5 750,-38.5 580,-38.5"/>
<text text-anchor="middle" x="665" y="-45.5" font-family="Helvetica,sans-Serif" font-size="10.00">view.SLogoView.updateVariables</text>
</a>
</g>
</g>
<!-- Node33&#45;&gt;Node35 -->
<g id="edge41" class="edge"><title>Node33&#45;&gt;Node35</title>
<path fill="none" stroke="midnightblue" d="M553.631,-48C562.282,-48 571.071,-48 579.718,-48"/>
<polygon fill="midnightblue" stroke="midnightblue" points="553.556,-44.5001 543.556,-48 553.556,-51.5001 553.556,-44.5001"/>
</g>
</g>
</svg>
