<?xml version="1.0" encoding="UTF-8" standalone="no"?>
<!DOCTYPE svg PUBLIC "-//W3C//DTD SVG 1.1//EN"
 "http://www.w3.org/Graphics/SVG/1.1/DTD/svg11.dtd">
<!-- Generated by graphviz version 2.36.0 (20140111.2315)
 -->
<!-- Title: view.SideTableView.createView Pages: 1 -->
<svg width="356pt" height="87pt"
 viewBox="0.00 0.00 356.00 87.00" xmlns="http://www.w3.org/2000/svg" xmlns:xlink="http://www.w3.org/1999/xlink">
<g id="graph0" class="graph" transform="scale(1 1) rotate(0) translate(4 83)">
<title>view.SideTableView.createView</title>
<polygon fill="white" stroke="none" points="-4,4 -4,-83 352,-83 352,4 -4,4"/>
<!-- Node1 -->
<g id="node1" class="node"><title>Node1</title>
<polygon fill="#bfbfbf" stroke="black" points="0.5,-29.5 0.5,-48.5 161.5,-48.5 161.5,-29.5 0.5,-29.5"/>
<text text-anchor="middle" x="81" y="-36.5" font-family="Helvetica,sans-Serif" font-size="10.00">view.SideTableView.createView</text>
</g>
<!-- Node2 -->
<g id="node2" class="node"><title>Node2</title>
<g id="a_node2"><a xlink:href="../../d5/dea/classview_1_1_side_table_view.html#a7a1ef9c84f4eeae8ae42e89276f17db1" target="_top" xlink:title="view.SideTableView.create\lColumns">
<polygon fill="white" stroke="black" points="203.5,-49 203.5,-79 342.5,-79 342.5,-49 203.5,-49"/>
<text text-anchor="start" x="211.5" y="-67" font-family="Helvetica,sans-Serif" font-size="10.00">view.SideTableView.create</text>
<text text-anchor="middle" x="273" y="-56" font-family="Helvetica,sans-Serif" font-size="10.00">Columns</text>
</a>
</g>
</g>
<!-- Node1&#45;&gt;Node2 -->
<g id="edge1" class="edge"><title>Node1&#45;&gt;Node2</title>
<path fill="none" stroke="midnightblue" d="M154.373,-48.5227C167.034,-50.1886 180.264,-51.9294 193.09,-53.6172"/>
<polygon fill="midnightblue" stroke="midnightblue" points="192.901,-57.1224 203.272,-54.9569 193.814,-50.1822 192.901,-57.1224"/>
</g>
<!-- Node3 -->
<g id="node3" class="node"><title>Node3</title>
<g id="a_node3"><a xlink:href="../../d2/d38/classview_1_1_side_properties_view.html#a816d97432f2aa1d0be7ed1c3144e74c7" target="_top" xlink:title="view.SidePropertiesView.get\lChildren">
<polygon fill="white" stroke="black" points="198.5,-0 198.5,-30 347.5,-30 347.5,-0 198.5,-0"/>
<text text-anchor="start" x="206.5" y="-18" font-family="Helvetica,sans-Serif" font-size="10.00">view.SidePropertiesView.get</text>
<text text-anchor="middle" x="273" y="-7" font-family="Helvetica,sans-Serif" font-size="10.00">Children</text>
</a>
</g>
</g>
<!-- Node1&#45;&gt;Node3 -->
<g id="edge2" class="edge"><title>Node1&#45;&gt;Node3</title>
<path fill="none" stroke="midnightblue" d="M157.366,-29.4801C167.468,-28.2041 177.879,-26.889 188.116,-25.5959"/>
<polygon fill="midnightblue" stroke="midnightblue" points="188.794,-29.0381 198.277,-24.3124 187.917,-22.0933 188.794,-29.0381"/>
</g>
</g>
</svg>
