<?xml version="1.0" encoding="UTF-8" standalone="no"?>
<!DOCTYPE svg PUBLIC "-//W3C//DTD SVG 1.1//EN"
 "http://www.w3.org/Graphics/SVG/1.1/DTD/svg11.dtd">
<!-- Generated by graphviz version 2.36.0 (20140111.2315)
 -->
<!-- Title: model.Node Pages: 1 -->
<svg width="1746pt" height="745pt"
 viewBox="0.00 0.00 1746.00 745.00" xmlns="http://www.w3.org/2000/svg" xmlns:xlink="http://www.w3.org/1999/xlink">
<g id="graph0" class="graph" transform="scale(1 1) rotate(0) translate(4 741)">
<title>model.Node</title>
<polygon fill="white" stroke="none" points="-4,4 -4,-741 1742,-741 1742,4 -4,4"/>
<!-- Node1 -->
<g id="node1" class="node"><title>Node1</title>
<polygon fill="#bfbfbf" stroke="black" points="996.5,-678.5 996.5,-697.5 1071.5,-697.5 1071.5,-678.5 996.5,-678.5"/>
<text text-anchor="middle" x="1034" y="-685.5" font-family="Helvetica,sans-Serif" font-size="10.00">model.Node</text>
</g>
<!-- Node2 -->
<g id="node2" class="node"><title>Node2</title>
<polygon fill="white" stroke="#bfbfbf" points="668,-678.5 668,-697.5 782,-697.5 782,-678.5 668,-678.5"/>
<text text-anchor="middle" x="725" y="-685.5" font-family="Helvetica,sans-Serif" font-size="10.00">List&lt; model.Node &gt;</text>
</g>
<!-- Node2&#45;&gt;Node1 -->
<g id="edge1" class="edge"><title>Node2&#45;&gt;Node1</title>
<path fill="none" stroke="#9a32cd" stroke-dasharray="5,2" d="M792.458,-688C854.9,-688 946.045,-688 996.312,-688"/>
<polygon fill="#9a32cd" stroke="#9a32cd" points="792.309,-684.5 782.309,-688 792.308,-691.5 792.309,-684.5"/>
<text text-anchor="middle" x="889" y="-691" font-family="Helvetica,sans-Serif" font-size="10.00"> myChildren</text>
</g>
<!-- Node3 -->
<g id="node3" class="node"><title>Node3</title>
<g id="a_node3"><a xlink:href="../../d1/dea/classmodel_1_1instructions_1_1_instruction.html" target="_top" xlink:title="model.instructions.Instruction">
<polygon fill="white" stroke="black" points="646,-637.5 646,-656.5 804,-656.5 804,-637.5 646,-637.5"/>
<text text-anchor="middle" x="725" y="-644.5" font-family="Helvetica,sans-Serif" font-size="10.00">model.instructions.Instruction</text>
</a>
</g>
</g>
<!-- Node3&#45;&gt;Node1 -->
<g id="edge2" class="edge"><title>Node3&#45;&gt;Node1</title>
<path fill="none" stroke="#9a32cd" stroke-dasharray="5,2" d="M814.403,-656.162C855.152,-660.69 904.11,-666.563 948,-673 963.864,-675.327 981.316,-678.329 996.257,-681.035"/>
<polygon fill="#9a32cd" stroke="#9a32cd" points="814.552,-652.657 804.228,-655.04 813.784,-659.615 814.552,-652.657"/>
<text text-anchor="middle" x="889" y="-676" font-family="Helvetica,sans-Serif" font-size="10.00"> myInstruction</text>
</g>
<!-- Node4 -->
<g id="node4" class="node"><title>Node4</title>
<polygon fill="white" stroke="#bfbfbf" points="57,-332.5 57,-351.5 117,-351.5 117,-332.5 57,-332.5"/>
<text text-anchor="middle" x="87" y="-339.5" font-family="Helvetica,sans-Serif" font-size="10.00">Observer</text>
</g>
<!-- Node4&#45;&gt;Node3 -->
<g id="edge3" class="edge"><title>Node4&#45;&gt;Node3</title>
<path fill="none" stroke="midnightblue" d="M123.284,-355.192C211.854,-389.244 448.721,-486.158 620,-610 629.168,-616.629 628.079,-622.562 638,-628 645.106,-631.895 652.956,-634.992 660.938,-637.454"/>
<polygon fill="midnightblue" stroke="midnightblue" points="124.307,-351.837 113.717,-351.537 121.809,-358.376 124.307,-351.837"/>
</g>
<!-- Node10 -->
<g id="node10" class="node"><title>Node10</title>
<g id="a_node10"><a xlink:href="../../d4/d64/classview_1_1_view_updater.html" target="_top" xlink:title="view.ViewUpdater">
<polygon fill="white" stroke="black" points="351,-332.5 351,-351.5 451,-351.5 451,-332.5 351,-332.5"/>
<text text-anchor="middle" x="401" y="-339.5" font-family="Helvetica,sans-Serif" font-size="10.00">view.ViewUpdater</text>
</a>
</g>
</g>
<!-- Node4&#45;&gt;Node10 -->
<g id="edge10" class="edge"><title>Node4&#45;&gt;Node10</title>
<path fill="none" stroke="midnightblue" d="M127.079,-342C183.8,-342 288.905,-342 350.82,-342"/>
<polygon fill="midnightblue" stroke="midnightblue" points="127.072,-338.5 117.072,-342 127.072,-345.5 127.072,-338.5"/>
</g>
<!-- Node22 -->
<g id="node22" class="node"><title>Node22</title>
<g id="a_node22"><a xlink:href="../../dc/df5/classmodel_1_1_parser.html" target="_top" xlink:title="model.Parser">
<polygon fill="white" stroke="black" points="685,-82.5 685,-101.5 765,-101.5 765,-82.5 685,-82.5"/>
<text text-anchor="middle" x="725" y="-89.5" font-family="Helvetica,sans-Serif" font-size="10.00">model.Parser</text>
</a>
</g>
</g>
<!-- Node4&#45;&gt;Node22 -->
<g id="edge26" class="edge"><title>Node4&#45;&gt;Node22</title>
<path fill="none" stroke="midnightblue" d="M97.2809,-323.267C123.832,-272.099 205.736,-130.309 322,-78 450.166,-20.3361 625.259,-61.9872 694.29,-82.4403"/>
<polygon fill="midnightblue" stroke="midnightblue" points="94.0021,-321.993 92.5882,-332.493 100.241,-325.167 94.0021,-321.993"/>
</g>
<!-- Node5 -->
<g id="node5" class="node"><title>Node5</title>
<g id="a_node5"><a xlink:href="../../d1/dca/classmodel_1_1_execution_environment.html" target="_top" xlink:title="model.ExecutionEnvironment">
<polygon fill="white" stroke="black" points="322.5,-588.5 322.5,-607.5 479.5,-607.5 479.5,-588.5 322.5,-588.5"/>
<text text-anchor="middle" x="401" y="-595.5" font-family="Helvetica,sans-Serif" font-size="10.00">model.ExecutionEnvironment</text>
</a>
</g>
</g>
<!-- Node5&#45;&gt;Node3 -->
<g id="edge4" class="edge"><title>Node5&#45;&gt;Node3</title>
<path fill="none" stroke="#9a32cd" stroke-dasharray="5,2" d="M474.362,-609.012C530.612,-617.571 607.833,-629.322 661.433,-637.479"/>
<polygon fill="#9a32cd" stroke="#9a32cd" points="474.879,-605.55 464.467,-607.506 473.826,-612.47 474.879,-605.55"/>
<text text-anchor="middle" x="559" y="-635" font-family="Helvetica,sans-Serif" font-size="10.00"> myEnvironment</text>
</g>
<!-- Node18 -->
<g id="node18" class="node"><title>Node18</title>
<g id="a_node18"><a xlink:href="../../d1/dc7/classview_1_1_side_bar.html" target="_top" xlink:title="view.SideBar">
<polygon fill="white" stroke="black" points="995.5,-259.5 995.5,-278.5 1072.5,-278.5 1072.5,-259.5 995.5,-259.5"/>
<text text-anchor="middle" x="1034" y="-266.5" font-family="Helvetica,sans-Serif" font-size="10.00">view.SideBar</text>
</a>
</g>
</g>
<!-- Node5&#45;&gt;Node18 -->
<g id="edge23" class="edge"><title>Node5&#45;&gt;Node18</title>
<path fill="none" stroke="#9a32cd" stroke-dasharray="5,2" d="M430.177,-583.887C473.835,-561.188 559.126,-513.451 620,-458 629.596,-449.259 627.681,-442.875 638,-435 756.763,-344.356 816.357,-375.647 948,-305 956.472,-300.453 957.41,-297.32 966,-293 977.149,-287.393 989.929,-282.475 1001.32,-278.574"/>
<polygon fill="#9a32cd" stroke="#9a32cd" points="428.556,-580.785 421.266,-588.473 431.759,-587.01 428.556,-580.785"/>
<text text-anchor="middle" x="725" y="-438" font-family="Helvetica,sans-Serif" font-size="10.00"> myEnvironment</text>
</g>
<!-- Node5&#45;&gt;Node22 -->
<g id="edge28" class="edge"><title>Node5&#45;&gt;Node22</title>
<path fill="none" stroke="#9a32cd" stroke-dasharray="5,2" d="M408.531,-578.512C420.61,-545.677 449.707,-479.715 498,-447 543.682,-416.054 583.505,-465.384 620,-424 663.44,-374.74 600.229,-182.73 638,-129 648.843,-113.576 667.517,-104.533 684.699,-99.2548"/>
<polygon fill="#9a32cd" stroke="#9a32cd" points="405.111,-577.687 405.084,-588.282 411.712,-580.016 405.111,-577.687"/>
<text text-anchor="middle" x="559" y="-450" font-family="Helvetica,sans-Serif" font-size="10.00"> myExecutionParameters</text>
</g>
<!-- Node25 -->
<g id="node25" class="node"><title>Node25</title>
<g id="a_node25"><a xlink:href="../../d6/de7/classview_1_1_s_logo_view.html" target="_top" xlink:title="view.SLogoView">
<polygon fill="white" stroke="black" points="1646.5,-227.5 1646.5,-246.5 1737.5,-246.5 1737.5,-227.5 1646.5,-227.5"/>
<text text-anchor="middle" x="1692" y="-234.5" font-family="Helvetica,sans-Serif" font-size="10.00">view.SLogoView</text>
</a>
</g>
</g>
<!-- Node5&#45;&gt;Node25 -->
<g id="edge42" class="edge"><title>Node5&#45;&gt;Node25</title>
<path fill="none" stroke="#9a32cd" stroke-dasharray="5,2" d="M464.022,-611.508C469.803,-614.361 475.26,-617.816 480,-622 494.615,-634.902 483.466,-649.007 498,-662 575.829,-731.576 619.606,-726 724,-726 724,-726 724,-726 1475,-726 1692.64,-726 1692.8,-315.688 1691.29,-246.768"/>
<polygon fill="#9a32cd" stroke="#9a32cd" points="465.296,-608.247 454.728,-607.504 462.526,-614.675 465.296,-608.247"/>
<text text-anchor="middle" x="1160" y="-729" font-family="Helvetica,sans-Serif" font-size="10.00"> myEnvironment</text>
</g>
<!-- Node6 -->
<g id="node6" class="node"><title>Node6</title>
<polygon fill="white" stroke="#bfbfbf" points="51.5,-569.5 51.5,-588.5 122.5,-588.5 122.5,-569.5 51.5,-569.5"/>
<text text-anchor="middle" x="87" y="-576.5" font-family="Helvetica,sans-Serif" font-size="10.00">Observable</text>
</g>
<!-- Node6&#45;&gt;Node5 -->
<g id="edge5" class="edge"><title>Node6&#45;&gt;Node5</title>
<path fill="none" stroke="midnightblue" d="M132.637,-581.718C182.066,-584.728 262.658,-589.636 322.457,-593.278"/>
<polygon fill="midnightblue" stroke="midnightblue" points="132.776,-578.22 122.582,-581.106 132.35,-585.207 132.776,-578.22"/>
</g>
<!-- Node7 -->
<g id="node7" class="node"><title>Node7</title>
<polygon fill="white" stroke="#bfbfbf" points="42.5,-531.5 42.5,-550.5 131.5,-550.5 131.5,-531.5 42.5,-531.5"/>
<text text-anchor="middle" x="87" y="-538.5" font-family="Helvetica,sans-Serif" font-size="10.00">Set&lt; Integer &gt;</text>
</g>
<!-- Node7&#45;&gt;Node5 -->
<g id="edge6" class="edge"><title>Node7&#45;&gt;Node5</title>
<path fill="none" stroke="#9a32cd" stroke-dasharray="5,2" d="M141.833,-541.439C185.953,-542.819 249.737,-547.162 304,-560 331.56,-566.521 361.669,-579.467 380.683,-588.424"/>
<polygon fill="#9a32cd" stroke="#9a32cd" points="141.708,-537.934 131.616,-541.161 141.517,-544.932 141.708,-537.934"/>
<text text-anchor="middle" x="248" y="-574" font-family="Helvetica,sans-Serif" font-size="10.00"> myTurtleList</text>
<text text-anchor="middle" x="248" y="-563" font-family="Helvetica,sans-Serif" font-size="10.00">activeTurtleList</text>
</g>
<!-- Node8 -->
<g id="node8" class="node"><title>Node8</title>
<polygon fill="white" stroke="#bfbfbf" points="0,-646 0,-676 174,-676 174,-646 0,-646"/>
<text text-anchor="start" x="8" y="-664" font-family="Helvetica,sans-Serif" font-size="10.00">Map&lt; String, model.instructions.</text>
<text text-anchor="middle" x="87" y="-653" font-family="Helvetica,sans-Serif" font-size="10.00">Instruction &gt;</text>
</g>
<!-- Node8&#45;&gt;Node5 -->
<g id="edge7" class="edge"><title>Node8&#45;&gt;Node5</title>
<path fill="none" stroke="#9a32cd" stroke-dasharray="5,2" d="M184.071,-648.027C221.675,-642.274 265.052,-634.8 304,-626 326.692,-620.873 351.931,-613.442 370.833,-607.523"/>
<polygon fill="#9a32cd" stroke="#9a32cd" points="183.5,-644.574 174.135,-649.528 184.546,-651.495 183.5,-644.574"/>
<text text-anchor="middle" x="248" y="-650" font-family="Helvetica,sans-Serif" font-size="10.00"> myUserInstructionMap</text>
</g>
<!-- Node9 -->
<g id="node9" class="node"><title>Node9</title>
<polygon fill="white" stroke="#bfbfbf" points="23,-607.5 23,-626.5 151,-626.5 151,-607.5 23,-607.5"/>
<text text-anchor="middle" x="87" y="-614.5" font-family="Helvetica,sans-Serif" font-size="10.00">Map&lt; String, Double &gt;</text>
</g>
<!-- Node9&#45;&gt;Node5 -->
<g id="edge8" class="edge"><title>Node9&#45;&gt;Node5</title>
<path fill="none" stroke="#9a32cd" stroke-dasharray="5,2" d="M161.23,-612.54C209.637,-609.593 273.011,-605.733 322.303,-602.732"/>
<polygon fill="#9a32cd" stroke="#9a32cd" points="160.907,-609.054 151.138,-613.155 161.332,-616.041 160.907,-609.054"/>
<text text-anchor="middle" x="248" y="-614" font-family="Helvetica,sans-Serif" font-size="10.00"> myVariableMap</text>
</g>
<!-- Node10&#45;&gt;Node3 -->
<g id="edge9" class="edge"><title>Node10&#45;&gt;Node3</title>
<path fill="none" stroke="#9a32cd" stroke-dasharray="5,2" d="M426.557,-356.666C445.482,-367.371 472.621,-381.449 498,-390 550.289,-407.618 583.04,-372.03 620,-413 652.115,-448.599 606.442,-591.906 638,-628 641.221,-631.684 644.98,-634.743 649.093,-637.277"/>
<polygon fill="#9a32cd" stroke="#9a32cd" points="428.128,-353.533 417.716,-351.573 424.633,-359.598 428.128,-353.533"/>
<text text-anchor="middle" x="559" y="-416" font-family="Helvetica,sans-Serif" font-size="10.00"> myViewUpdater</text>
</g>
<!-- Node10&#45;&gt;Node22 -->
<g id="edge29" class="edge"><title>Node10&#45;&gt;Node22</title>
<path fill="none" stroke="#9a32cd" stroke-dasharray="5,2" d="M404.523,-322.243C411.157,-279.11 433.286,-176.425 498,-127 505.366,-121.374 622.253,-105.331 684.952,-97.0628"/>
<polygon fill="#9a32cd" stroke="#9a32cd" points="401.036,-321.907 403.097,-332.3 407.967,-322.89 401.036,-321.907"/>
<text text-anchor="middle" x="559" y="-130" font-family="Helvetica,sans-Serif" font-size="10.00"> myViewUpdater</text>
</g>
<!-- Node11 -->
<g id="node11" class="node"><title>Node11</title>
<g id="a_node11"><a xlink:href="../../da/d64/classview_1_1_workspace.html" target="_top" xlink:title="view.Workspace">
<polygon fill="white" stroke="black" points="1218,-435.5 1218,-454.5 1308,-454.5 1308,-435.5 1218,-435.5"/>
<text text-anchor="middle" x="1263" y="-442.5" font-family="Helvetica,sans-Serif" font-size="10.00">view.Workspace</text>
</a>
</g>
</g>
<!-- Node11&#45;&gt;Node10 -->
<g id="edge11" class="edge"><title>Node11&#45;&gt;Node10</title>
<path fill="none" stroke="#9a32cd" stroke-dasharray="5,2" d="M1207.98,-435.549C1145.59,-425.153 1039.75,-409.109 948,-403 895.671,-399.516 880.768,-389.845 830,-403 821.141,-405.296 820.859,-410.704 812,-413 737.139,-432.398 708.644,-444.462 638,-413 627.076,-408.135 630.294,-399.086 620,-393 591.81,-376.335 506.285,-359.513 451.114,-349.961"/>
<polygon fill="#9a32cd" stroke="#9a32cd" points="1207.54,-439.025 1217.99,-437.23 1208.7,-432.122 1207.54,-439.025"/>
<text text-anchor="middle" x="889" y="-406" font-family="Helvetica,sans-Serif" font-size="10.00"> myWorkspace</text>
</g>
<!-- Node11&#45;&gt;Node25 -->
<g id="edge32" class="edge"><title>Node11&#45;&gt;Node25</title>
<path fill="none" stroke="#9a32cd" stroke-dasharray="5,2" d="M1318.6,-440.934C1395.48,-432.622 1536.46,-407.599 1628,-333 1658.13,-308.442 1678.91,-265.596 1687.11,-246.571"/>
<polygon fill="#9a32cd" stroke="#9a32cd" points="1317.78,-437.5 1308.19,-442 1318.49,-444.463 1317.78,-437.5"/>
<text text-anchor="middle" x="1474" y="-428" font-family="Helvetica,sans-Serif" font-size="10.00"> myWorkspace</text>
</g>
<!-- Node33 -->
<g id="node33" class="node"><title>Node33</title>
<g id="a_node33"><a xlink:href="../../de/d0a/classview_1_1_drawer.html" target="_top" xlink:title="view.Drawer">
<polygon fill="white" stroke="black" points="1437.5,-324.5 1437.5,-343.5 1510.5,-343.5 1510.5,-324.5 1437.5,-324.5"/>
<text text-anchor="middle" x="1474" y="-331.5" font-family="Helvetica,sans-Serif" font-size="10.00">view.Drawer</text>
</a>
</g>
</g>
<!-- Node11&#45;&gt;Node33 -->
<g id="edge46" class="edge"><title>Node11&#45;&gt;Node33</title>
<path fill="none" stroke="#9a32cd" stroke-dasharray="5,2" d="M1291.03,-430.643C1334.37,-407.626 1418.25,-363.075 1455.01,-343.555"/>
<polygon fill="#9a32cd" stroke="#9a32cd" points="1289.37,-427.562 1282.18,-435.344 1292.66,-433.744 1289.37,-427.562"/>
<text text-anchor="middle" x="1361" y="-413" font-family="Helvetica,sans-Serif" font-size="10.00"> myWorkspace</text>
</g>
<!-- Node12 -->
<g id="node12" class="node"><title>Node12</title>
<polygon fill="white" stroke="#bfbfbf" points="1000.5,-479.5 1000.5,-498.5 1067.5,-498.5 1067.5,-479.5 1000.5,-479.5"/>
<text text-anchor="middle" x="1034" y="-486.5" font-family="Helvetica,sans-Serif" font-size="10.00">StackPane</text>
</g>
<!-- Node12&#45;&gt;Node11 -->
<g id="edge12" class="edge"><title>Node12&#45;&gt;Node11</title>
<path fill="none" stroke="midnightblue" d="M1077.87,-484.259C1111.36,-480.134 1158.96,-473.344 1200,-464 1211.2,-461.451 1223.31,-457.917 1233.84,-454.587"/>
<polygon fill="midnightblue" stroke="midnightblue" points="1077.02,-480.836 1067.51,-485.505 1077.86,-487.785 1077.02,-480.836"/>
</g>
<!-- Node13 -->
<g id="node13" class="node"><title>Node13</title>
<polygon fill="white" stroke="#bfbfbf" points="678.5,-455.5 678.5,-474.5 771.5,-474.5 771.5,-455.5 678.5,-455.5"/>
<text text-anchor="middle" x="725" y="-462.5" font-family="Helvetica,sans-Serif" font-size="10.00">ResourceBundle</text>
</g>
<!-- Node13&#45;&gt;Node11 -->
<g id="edge13" class="edge"><title>Node13&#45;&gt;Node11</title>
<path fill="none" stroke="#9a32cd" stroke-dasharray="5,2" d="M781.973,-462.911C889.062,-458.916 1120.92,-450.264 1217.92,-446.645"/>
<polygon fill="#9a32cd" stroke="#9a32cd" points="781.562,-459.424 771.699,-463.295 781.823,-466.419 781.562,-459.424"/>
<text text-anchor="middle" x="1034" y="-459" font-family="Helvetica,sans-Serif" font-size="10.00"> myResources</text>
</g>
<!-- Node13&#45;&gt;Node18 -->
<g id="edge22" class="edge"><title>Node13&#45;&gt;Node18</title>
<path fill="none" stroke="#9a32cd" stroke-dasharray="5,2" d="M772.398,-452.847C790.343,-448.292 811.08,-443.206 830,-439 882.158,-427.405 911.12,-454.663 948,-416 986.134,-376.022 931,-335.748 966,-293 973.358,-284.013 984.345,-278.391 995.305,-274.873"/>
<polygon fill="#9a32cd" stroke="#9a32cd" points="771.29,-449.518 762.468,-455.385 773.023,-456.3 771.29,-449.518"/>
<text text-anchor="middle" x="889" y="-442" font-family="Helvetica,sans-Serif" font-size="10.00"> myResources</text>
</g>
<!-- Node13&#45;&gt;Node25 -->
<g id="edge34" class="edge"><title>Node13&#45;&gt;Node25</title>
<path fill="none" stroke="#9a32cd" stroke-dasharray="5,2" d="M759.936,-478.28C805.015,-496.722 886.149,-532.749 948,-576 957.018,-582.306 955.986,-588.438 966,-593 1044.44,-628.734 1072.81,-612 1159,-612 1159,-612 1159,-612 1475,-612 1648.93,-612 1684.93,-305.343 1690.22,-246.647"/>
<polygon fill="#9a32cd" stroke="#9a32cd" points="761.2,-475.015 750.617,-474.508 758.573,-481.504 761.2,-475.015"/>
<text text-anchor="middle" x="1263" y="-615" font-family="Helvetica,sans-Serif" font-size="10.00"> myResources</text>
</g>
<!-- Node14 -->
<g id="node14" class="node"><title>Node14</title>
<g id="a_node14"><a xlink:href="../../d8/df7/classview_1_1_turtle_view.html" target="_top" xlink:title="view.TurtleView">
<polygon fill="white" stroke="black" points="991,-640.5 991,-659.5 1077,-659.5 1077,-640.5 991,-640.5"/>
<text text-anchor="middle" x="1034" y="-647.5" font-family="Helvetica,sans-Serif" font-size="10.00">view.TurtleView</text>
</a>
</g>
</g>
<!-- Node14&#45;&gt;Node11 -->
<g id="edge14" class="edge"><title>Node14&#45;&gt;Node11</title>
<path fill="none" stroke="#9a32cd" stroke-dasharray="5,2" d="M1087.41,-642.148C1123.06,-634.361 1169.17,-619.173 1200,-590 1241.17,-551.049 1256.3,-480.285 1260.58,-454.622"/>
<polygon fill="#9a32cd" stroke="#9a32cd" points="1086.28,-638.807 1077.19,-644.243 1087.69,-645.664 1086.28,-638.807"/>
<text text-anchor="middle" x="1160" y="-636" font-family="Helvetica,sans-Serif" font-size="10.00"> myActiveTurtle</text>
</g>
<!-- Node15 -->
<g id="node15" class="node"><title>Node15</title>
<polygon fill="white" stroke="#bfbfbf" points="691,-599.5 691,-618.5 759,-618.5 759,-599.5 691,-599.5"/>
<text text-anchor="middle" x="725" y="-606.5" font-family="Helvetica,sans-Serif" font-size="10.00">ImageView</text>
</g>
<!-- Node15&#45;&gt;Node14 -->
<g id="edge15" class="edge"><title>Node15&#45;&gt;Node14</title>
<path fill="none" stroke="midnightblue" d="M769.232,-614.774C828.085,-622.633 932.74,-636.61 990.965,-644.386"/>
<polygon fill="midnightblue" stroke="midnightblue" points="769.521,-611.281 759.146,-613.427 768.595,-618.22 769.521,-611.281"/>
</g>
<!-- Node16 -->
<g id="node16" class="node"><title>Node16</title>
<polygon fill="white" stroke="#bfbfbf" points="702,-543.5 702,-562.5 748,-562.5 748,-543.5 702,-543.5"/>
<text text-anchor="middle" x="725" y="-550.5" font-family="Helvetica,sans-Serif" font-size="10.00">Group</text>
</g>
<!-- Node16&#45;&gt;Node11 -->
<g id="edge18" class="edge"><title>Node16&#45;&gt;Node11</title>
<path fill="none" stroke="#9a32cd" stroke-dasharray="5,2" d="M758.631,-554.074C837.769,-555.496 1044.81,-552.081 1200,-486 1219,-477.911 1238.47,-463.918 1250.4,-454.56"/>
<polygon fill="#9a32cd" stroke="#9a32cd" points="758.407,-550.568 748.332,-553.847 758.252,-557.566 758.407,-550.568"/>
<text text-anchor="middle" x="1034" y="-547" font-family="Helvetica,sans-Serif" font-size="10.00"> myLines</text>
</g>
<!-- Node16&#45;&gt;Node14 -->
<g id="edge16" class="edge"><title>Node16&#45;&gt;Node14</title>
<path fill="none" stroke="#9a32cd" stroke-dasharray="5,2" d="M758.161,-559.032C811.428,-569.364 915.332,-591.07 948,-609 957.646,-614.295 956.621,-620.245 966,-626 975.688,-631.945 987.066,-636.717 997.668,-640.391"/>
<polygon fill="#9a32cd" stroke="#9a32cd" points="758.7,-555.571 748.219,-557.121 757.379,-562.445 758.7,-555.571"/>
<text text-anchor="middle" x="889" y="-612" font-family="Helvetica,sans-Serif" font-size="10.00"> myStamps</text>
</g>
<!-- Node17 -->
<g id="node17" class="node"><title>Node17</title>
<polygon fill="white" stroke="#bfbfbf" points="966,-345 966,-375 1102,-375 1102,-345 966,-345"/>
<text text-anchor="start" x="974" y="-363" font-family="Helvetica,sans-Serif" font-size="10.00">Map&lt; Integer, view.Turtle</text>
<text text-anchor="middle" x="1034" y="-352" font-family="Helvetica,sans-Serif" font-size="10.00">View &gt;</text>
</g>
<!-- Node17&#45;&gt;Node11 -->
<g id="edge17" class="edge"><title>Node17&#45;&gt;Node11</title>
<path fill="none" stroke="#9a32cd" stroke-dasharray="5,2" d="M1112.15,-360.536C1140.94,-363.313 1173.13,-369.624 1200,-383 1224.53,-395.212 1245.22,-420.903 1255.34,-435.08"/>
<polygon fill="#9a32cd" stroke="#9a32cd" points="1112.38,-357.044 1102.12,-359.696 1111.79,-364.019 1112.38,-357.044"/>
<text text-anchor="middle" x="1160" y="-386" font-family="Helvetica,sans-Serif" font-size="10.00"> myTurtles</text>
</g>
<!-- Node18&#45;&gt;Node10 -->
<g id="edge52" class="edge"><title>Node18&#45;&gt;Node10</title>
<path fill="none" stroke="#9a32cd" stroke-dasharray="5,2" d="M987.371,-255.208C979.367,-251.069 971.768,-245.764 966,-239 945.992,-215.539 971.619,-191.82 948,-172 895.19,-127.684 703.255,-137.761 638,-160 532.704,-195.885 437.813,-299.866 410.119,-332.252"/>
<polygon fill="#9a32cd" stroke="#9a32cd" points="985.955,-258.409 996.503,-259.402 988.876,-252.048 985.955,-258.409"/>
<text text-anchor="middle" x="725" y="-163" font-family="Helvetica,sans-Serif" font-size="10.00"> mySidebar</text>
</g>
<!-- Node18&#45;&gt;Node11 -->
<g id="edge19" class="edge"><title>Node18&#45;&gt;Node11</title>
<path fill="none" stroke="#9a32cd" stroke-dasharray="5,2" d="M1080.03,-281.753C1115.99,-293.788 1165.84,-314.841 1200,-347 1207.48,-354.038 1242.41,-412.09 1256.29,-435.383"/>
<polygon fill="#9a32cd" stroke="#9a32cd" points="1080.88,-278.347 1070.28,-278.596 1078.72,-285.007 1080.88,-278.347"/>
<text text-anchor="middle" x="1160" y="-350" font-family="Helvetica,sans-Serif" font-size="10.00"> mySidebar</text>
</g>
<!-- Node18&#45;&gt;Node25 -->
<g id="edge48" class="edge"><title>Node18&#45;&gt;Node25</title>
<path fill="none" stroke="#9a32cd" stroke-dasharray="5,2" d="M1082.85,-270.587C1183.97,-273.273 1426.64,-276.202 1628,-251 1636.34,-249.956 1645.2,-248.323 1653.56,-246.534"/>
<polygon fill="#9a32cd" stroke="#9a32cd" points="1082.75,-267.082 1072.65,-270.304 1082.55,-274.08 1082.75,-267.082"/>
<text text-anchor="middle" x="1361" y="-274" font-family="Helvetica,sans-Serif" font-size="10.00"> mySidebar</text>
</g>
<!-- Node27 -->
<g id="node27" class="node"><title>Node27</title>
<g id="a_node27"><a xlink:href="../../da/dc8/classview_1_1_editor.html" target="_top" xlink:title="view.Editor">
<polygon fill="white" stroke="black" points="1229.5,-142.5 1229.5,-161.5 1296.5,-161.5 1296.5,-142.5 1229.5,-142.5"/>
<text text-anchor="middle" x="1263" y="-149.5" font-family="Helvetica,sans-Serif" font-size="10.00">view.Editor</text>
</a>
</g>
</g>
<!-- Node18&#45;&gt;Node27 -->
<g id="edge40" class="edge"><title>Node18&#45;&gt;Node27</title>
<path fill="none" stroke="#9a32cd" stroke-dasharray="5,2" d="M1063.77,-254.916C1096.81,-238.646 1152.59,-210.912 1200,-186 1215.32,-177.948 1232.57,-168.452 1244.98,-161.544"/>
<polygon fill="#9a32cd" stroke="#9a32cd" points="1062.1,-251.833 1054.67,-259.386 1065.19,-258.115 1062.1,-251.833"/>
<text text-anchor="middle" x="1160" y="-229" font-family="Helvetica,sans-Serif" font-size="10.00"> mySidebar</text>
</g>
<!-- Node19 -->
<g id="node19" class="node"><title>Node19</title>
<polygon fill="white" stroke="#bfbfbf" points="704.5,-294.5 704.5,-313.5 745.5,-313.5 745.5,-294.5 704.5,-294.5"/>
<text text-anchor="middle" x="725" y="-301.5" font-family="Helvetica,sans-Serif" font-size="10.00">VBox</text>
</g>
<!-- Node19&#45;&gt;Node18 -->
<g id="edge20" class="edge"><title>Node19&#45;&gt;Node18</title>
<path fill="none" stroke="midnightblue" d="M755.646,-302.132C798.299,-299.263 879.396,-293.127 948,-284 963.597,-281.925 980.699,-279.029 995.447,-276.334"/>
<polygon fill="midnightblue" stroke="midnightblue" points="755.41,-298.64 745.662,-302.791 755.871,-305.625 755.41,-298.64"/>
</g>
<!-- Node20 -->
<g id="node20" class="node"><title>Node20</title>
<polygon fill="white" stroke="#bfbfbf" points="638.5,-256.5 638.5,-275.5 811.5,-275.5 811.5,-256.5 638.5,-256.5"/>
<text text-anchor="middle" x="725" y="-263.5" font-family="Helvetica,sans-Serif" font-size="10.00">ObservableList&lt; view.Property &gt;</text>
</g>
<!-- Node20&#45;&gt;Node18 -->
<g id="edge21" class="edge"><title>Node20&#45;&gt;Node18</title>
<path fill="none" stroke="#9a32cd" stroke-dasharray="5,2" d="M821.563,-266.934C880.26,-267.507 952.205,-268.21 995.231,-268.631"/>
<polygon fill="#9a32cd" stroke="#9a32cd" points="821.55,-263.434 811.517,-266.836 821.482,-270.433 821.55,-263.434"/>
<text text-anchor="middle" x="889" y="-272" font-family="Helvetica,sans-Serif" font-size="10.00"> myVariablesList</text>
</g>
<!-- Node21 -->
<g id="node21" class="node"><title>Node21</title>
<polygon fill="white" stroke="#bfbfbf" points="651,-218.5 651,-237.5 799,-237.5 799,-218.5 651,-218.5"/>
<text text-anchor="middle" x="725" y="-225.5" font-family="Helvetica,sans-Serif" font-size="10.00">TableView&lt; view.Property &gt;</text>
</g>
<!-- Node21&#45;&gt;Node18 -->
<g id="edge24" class="edge"><title>Node21&#45;&gt;Node18</title>
<path fill="none" stroke="#9a32cd" stroke-dasharray="5,2" d="M809.21,-228.44C851.138,-229.875 902.589,-233.489 948,-242 968.849,-245.908 991.727,-253.365 1008.49,-259.455"/>
<polygon fill="#9a32cd" stroke="#9a32cd" points="809.145,-224.937 799.042,-228.128 808.93,-231.934 809.145,-224.937"/>
<text text-anchor="middle" x="889" y="-256" font-family="Helvetica,sans-Serif" font-size="10.00"> myTurtlePropertiesTable</text>
<text text-anchor="middle" x="889" y="-245" font-family="Helvetica,sans-Serif" font-size="10.00">myVariablesTable</text>
</g>
<!-- Node22&#45;&gt;Node18 -->
<g id="edge25" class="edge"><title>Node22&#45;&gt;Node18</title>
<path fill="none" stroke="#9a32cd" stroke-dasharray="5,2" d="M775.5,-98.0878C839.045,-106.12 941.91,-119.946 948,-126 984.068,-161.852 935.066,-198.635 966,-239 973.287,-248.509 984.256,-255.08 995.221,-259.588"/>
<polygon fill="#9a32cd" stroke="#9a32cd" points="775.635,-94.5773 765.276,-96.8026 774.761,-101.523 775.635,-94.5773"/>
<text text-anchor="middle" x="889" y="-129" font-family="Helvetica,sans-Serif" font-size="10.00"> myParser</text>
</g>
<!-- Node22&#45;&gt;Node25 -->
<g id="edge43" class="edge"><title>Node22&#45;&gt;Node25</title>
<path fill="none" stroke="#9a32cd" stroke-dasharray="5,2" d="M775.239,-88.364C832.778,-85.2387 923.284,-84.1794 948,-106 980.215,-134.441 934.932,-171.31 966,-201 1015.11,-247.935 1495.84,-241.345 1646.25,-238.098"/>
<polygon fill="#9a32cd" stroke="#9a32cd" points="775.032,-84.87 765.252,-88.9448 775.439,-91.8582 775.032,-84.87"/>
<text text-anchor="middle" x="1263" y="-243" font-family="Helvetica,sans-Serif" font-size="10.00"> myParser</text>
</g>
<!-- Node22&#45;&gt;Node27 -->
<g id="edge38" class="edge"><title>Node22&#45;&gt;Node27</title>
<path fill="none" stroke="#9a32cd" stroke-dasharray="5,2" d="M775.318,-82.7338C847.682,-70.747 986.559,-53.8734 1102,-76 1160.29,-87.1726 1221.63,-124.695 1248.29,-142.487"/>
<polygon fill="#9a32cd" stroke="#9a32cd" points="774.408,-79.338 765.135,-84.4616 775.579,-86.2394 774.408,-79.338"/>
<text text-anchor="middle" x="1034" y="-79" font-family="Helvetica,sans-Serif" font-size="10.00"> myParser</text>
</g>
<!-- Node23 -->
<g id="node23" class="node"><title>Node23</title>
<polygon fill="white" stroke="#bfbfbf" points="345,-0 345,-30 457,-30 457,-0 345,-0"/>
<text text-anchor="start" x="353" y="-18" font-family="Helvetica,sans-Serif" font-size="10.00">List&lt; Entry&lt; String,</text>
<text text-anchor="middle" x="401" y="-7" font-family="Helvetica,sans-Serif" font-size="10.00"> Pattern &gt; &gt;</text>
</g>
<!-- Node23&#45;&gt;Node22 -->
<g id="edge27" class="edge"><title>Node23&#45;&gt;Node22</title>
<path fill="none" stroke="#9a32cd" stroke-dasharray="5,2" d="M467.423,-13.6017C511.446,-14.3694 570.302,-18.7445 620,-34 655.377,-44.8593 692.127,-68.8891 711.035,-82.3622"/>
<polygon fill="#9a32cd" stroke="#9a32cd" points="467.457,-10.1019 457.417,-13.4845 467.375,-17.1014 467.457,-10.1019"/>
<text text-anchor="middle" x="559" y="-37" font-family="Helvetica,sans-Serif" font-size="10.00"> myPatterns</text>
</g>
<!-- Node24 -->
<g id="node24" class="node"><title>Node24</title>
<polygon fill="white" stroke="#bfbfbf" points="340,-87.5 340,-106.5 462,-106.5 462,-87.5 340,-87.5"/>
<text text-anchor="middle" x="401" y="-94.5" font-family="Helvetica,sans-Serif" font-size="10.00">Map&lt; String, String &gt;</text>
</g>
<!-- Node24&#45;&gt;Node22 -->
<g id="edge30" class="edge"><title>Node24&#45;&gt;Node22</title>
<path fill="none" stroke="#9a32cd" stroke-dasharray="5,2" d="M472.271,-93.7704C480.935,-93.4612 489.669,-93.1919 498,-93 563.508,-91.4909 639.723,-91.5251 684.799,-91.7313"/>
<polygon fill="#9a32cd" stroke="#9a32cd" points="472.023,-90.2772 462.161,-94.1495 472.285,-97.2723 472.023,-90.2772"/>
<text text-anchor="middle" x="559" y="-96" font-family="Helvetica,sans-Serif" font-size="10.00"> myCommandMap</text>
</g>
<!-- Node25&#45;&gt;Node22 -->
<g id="edge31" class="edge"><title>Node25&#45;&gt;Node22</title>
<path fill="none" stroke="#9a32cd" stroke-dasharray="5,2" d="M1689.14,-217.135C1684.8,-182.192 1670.88,-109.597 1628,-69 1576.25,-20.0048 1546.27,-21 1475,-21 1033,-21 1033,-21 1033,-21 925.23,-21 801.526,-63.0447 750.231,-82.4246"/>
<polygon fill="#9a32cd" stroke="#9a32cd" points="1685.7,-217.882 1690.27,-227.44 1692.66,-217.118 1685.7,-217.882"/>
<text text-anchor="middle" x="1263" y="-24" font-family="Helvetica,sans-Serif" font-size="10.00"> mySLogoView</text>
</g>
<!-- Node26 -->
<g id="node26" class="node"><title>Node26</title>
<polygon fill="white" stroke="#bfbfbf" points="1451.5,-189.5 1451.5,-208.5 1496.5,-208.5 1496.5,-189.5 1451.5,-189.5"/>
<text text-anchor="middle" x="1474" y="-196.5" font-family="Helvetica,sans-Serif" font-size="10.00">Stage</text>
</g>
<!-- Node26&#45;&gt;Node25 -->
<g id="edge33" class="edge"><title>Node26&#45;&gt;Node25</title>
<path fill="none" stroke="#9a32cd" stroke-dasharray="5,2" d="M1506.88,-199.008C1538.13,-199.645 1586.92,-202.325 1628,-212 1643,-215.533 1659.15,-221.997 1671.34,-227.467"/>
<polygon fill="#9a32cd" stroke="#9a32cd" points="1506.65,-195.505 1496.6,-198.86 1506.55,-202.504 1506.65,-195.505"/>
<text text-anchor="middle" x="1590" y="-215" font-family="Helvetica,sans-Serif" font-size="10.00"> myStage</text>
</g>
<!-- Node27&#45;&gt;Node25 -->
<g id="edge35" class="edge"><title>Node27&#45;&gt;Node25</title>
<path fill="none" stroke="#9a32cd" stroke-dasharray="5,2" d="M1306.89,-149.425C1377.3,-146.903 1520.31,-149.033 1628,-198 1646.03,-206.2 1665.17,-218.648 1677.55,-227.265"/>
<polygon fill="#9a32cd" stroke="#9a32cd" points="1306.49,-145.939 1296.64,-149.845 1306.77,-152.933 1306.49,-145.939"/>
<text text-anchor="middle" x="1474" y="-171" font-family="Helvetica,sans-Serif" font-size="10.00"> myEditor</text>
</g>
<!-- Node28 -->
<g id="node28" class="node"><title>Node28</title>
<polygon fill="white" stroke="#bfbfbf" points="1013,-134.5 1013,-153.5 1055,-153.5 1055,-134.5 1013,-134.5"/>
<text text-anchor="middle" x="1034" y="-141.5" font-family="Helvetica,sans-Serif" font-size="10.00">HBox</text>
</g>
<!-- Node28&#45;&gt;Node27 -->
<g id="edge36" class="edge"><title>Node28&#45;&gt;Node27</title>
<path fill="none" stroke="midnightblue" d="M1065.19,-145.064C1107.8,-146.566 1185.29,-149.297 1229.25,-150.846"/>
<polygon fill="midnightblue" stroke="midnightblue" points="1065.26,-141.564 1055.14,-144.71 1065.02,-148.56 1065.26,-141.564"/>
</g>
<!-- Node29 -->
<g id="node29" class="node"><title>Node29</title>
<polygon fill="white" stroke="#bfbfbf" points="1009.5,-96.5 1009.5,-115.5 1058.5,-115.5 1058.5,-96.5 1009.5,-96.5"/>
<text text-anchor="middle" x="1034" y="-103.5" font-family="Helvetica,sans-Serif" font-size="10.00">Button</text>
</g>
<!-- Node29&#45;&gt;Node27 -->
<g id="edge37" class="edge"><title>Node29&#45;&gt;Node27</title>
<path fill="none" stroke="#9a32cd" stroke-dasharray="5,2" d="M1068.88,-110.18C1102.42,-114.637 1155.11,-122.5 1200,-133 1211.18,-135.615 1223.3,-139.163 1233.82,-142.485"/>
<polygon fill="#9a32cd" stroke="#9a32cd" points="1069.06,-106.674 1058.7,-108.853 1068.16,-113.616 1069.06,-106.674"/>
<text text-anchor="middle" x="1160" y="-136" font-family="Helvetica,sans-Serif" font-size="10.00"> runButton</text>
</g>
<!-- Node30 -->
<g id="node30" class="node"><title>Node30</title>
<polygon fill="white" stroke="#bfbfbf" points="1005,-172.5 1005,-191.5 1063,-191.5 1063,-172.5 1005,-172.5"/>
<text text-anchor="middle" x="1034" y="-179.5" font-family="Helvetica,sans-Serif" font-size="10.00">TextArea</text>
</g>
<!-- Node30&#45;&gt;Node27 -->
<g id="edge39" class="edge"><title>Node30&#45;&gt;Node27</title>
<path fill="none" stroke="#9a32cd" stroke-dasharray="5,2" d="M1073.27,-176.943C1117.05,-171.156 1188.01,-161.779 1229.31,-156.321"/>
<polygon fill="#9a32cd" stroke="#9a32cd" points="1072.75,-173.481 1063.29,-178.261 1073.66,-180.421 1072.75,-173.481"/>
<text text-anchor="middle" x="1160" y="-174" font-family="Helvetica,sans-Serif" font-size="10.00"> textEditor</text>
</g>
<!-- Node31 -->
<g id="node31" class="node"><title>Node31</title>
<polygon fill="white" stroke="#bfbfbf" points="1414.5,-104.5 1414.5,-123.5 1533.5,-123.5 1533.5,-104.5 1414.5,-104.5"/>
<text text-anchor="middle" x="1474" y="-111.5" font-family="Helvetica,sans-Serif" font-size="10.00">Map&lt; String, Node &gt;</text>
</g>
<!-- Node31&#45;&gt;Node25 -->
<g id="edge41" class="edge"><title>Node31&#45;&gt;Node25</title>
<path fill="none" stroke="#9a32cd" stroke-dasharray="5,2" d="M1543.76,-111.025C1571.82,-112.824 1603.38,-118.979 1628,-135 1662.71,-157.593 1681.53,-206.696 1688.18,-227.442"/>
<polygon fill="#9a32cd" stroke="#9a32cd" points="1543.75,-107.521 1533.6,-110.549 1543.42,-114.513 1543.75,-107.521"/>
<text text-anchor="middle" x="1590" y="-138" font-family="Helvetica,sans-Serif" font-size="10.00"> variables</text>
</g>
<!-- Node32 -->
<g id="node32" class="node"><title>Node32</title>
<polygon fill="white" stroke="#bfbfbf" points="1433.5,-66.5 1433.5,-85.5 1514.5,-85.5 1514.5,-66.5 1433.5,-66.5"/>
<text text-anchor="middle" x="1474" y="-73.5" font-family="Helvetica,sans-Serif" font-size="10.00">Dimension2D</text>
</g>
<!-- Node32&#45;&gt;Node25 -->
<g id="edge44" class="edge"><title>Node32&#45;&gt;Node25</title>
<path fill="none" stroke="#9a32cd" stroke-dasharray="5,2" d="M1524.91,-71.1238C1557.29,-70.5818 1598.75,-75.1198 1628,-97 1672.18,-130.045 1686.1,-201.185 1689.82,-227.208"/>
<polygon fill="#9a32cd" stroke="#9a32cd" points="1524.62,-67.6314 1514.74,-71.4627 1524.85,-74.6275 1524.62,-67.6314"/>
<text text-anchor="middle" x="1590" y="-100" font-family="Helvetica,sans-Serif" font-size="10.00"> myDimensions</text>
</g>
<!-- Node33&#45;&gt;Node10 -->
<g id="edge51" class="edge"><title>Node33&#45;&gt;Node10</title>
<path fill="none" stroke="#9a32cd" stroke-dasharray="5,2" d="M1427.21,-332.369C1357.17,-329.964 1219.2,-325.579 1102,-324 857.671,-320.708 565.485,-333.682 451.215,-339.409"/>
<polygon fill="#9a32cd" stroke="#9a32cd" points="1427.34,-335.875 1437.45,-332.723 1427.58,-328.879 1427.34,-335.875"/>
<text text-anchor="middle" x="1034" y="-327" font-family="Helvetica,sans-Serif" font-size="10.00"> myDrawer</text>
</g>
<!-- Node33&#45;&gt;Node25 -->
<g id="edge45" class="edge"><title>Node33&#45;&gt;Node25</title>
<path fill="none" stroke="#9a32cd" stroke-dasharray="5,2" d="M1520.44,-326.147C1551.93,-319.483 1594.11,-308.066 1628,-290 1649.69,-278.436 1670.68,-258.486 1682.11,-246.639"/>
<polygon fill="#9a32cd" stroke="#9a32cd" points="1519.72,-322.722 1510.62,-328.146 1521.12,-329.581 1519.72,-322.722"/>
<text text-anchor="middle" x="1590" y="-321" font-family="Helvetica,sans-Serif" font-size="10.00"> drawer</text>
</g>
<!-- Node34 -->
<g id="node34" class="node"><title>Node34</title>
<polygon fill="white" stroke="#bfbfbf" points="1242.5,-343.5 1242.5,-362.5 1283.5,-362.5 1283.5,-343.5 1242.5,-343.5"/>
<text text-anchor="middle" x="1263" y="-350.5" font-family="Helvetica,sans-Serif" font-size="10.00">Color</text>
</g>
<!-- Node34&#45;&gt;Node33 -->
<g id="edge47" class="edge"><title>Node34&#45;&gt;Node33</title>
<path fill="none" stroke="#9a32cd" stroke-dasharray="5,2" d="M1294.03,-350.27C1331.9,-346.828 1396.91,-340.917 1437.29,-337.247"/>
<polygon fill="#9a32cd" stroke="#9a32cd" points="1293.3,-346.821 1283.66,-351.213 1293.94,-353.793 1293.3,-346.821"/>
<text text-anchor="middle" x="1361" y="-350" font-family="Helvetica,sans-Serif" font-size="10.00"> myColor</text>
</g>
<!-- Node35 -->
<g id="node35" class="node"><title>Node35</title>
<polygon fill="white" stroke="#bfbfbf" points="656,-180.5 656,-199.5 794,-199.5 794,-180.5 656,-180.5"/>
<text text-anchor="middle" x="725" y="-187.5" font-family="Helvetica,sans-Serif" font-size="10.00">ObservableList&lt; String &gt;</text>
</g>
<!-- Node35&#45;&gt;Node18 -->
<g id="edge49" class="edge"><title>Node35&#45;&gt;Node18</title>
<path fill="none" stroke="#9a32cd" stroke-dasharray="5,2" d="M782.103,-179.106C830.091,-172.948 898.974,-171.923 948,-204 962.637,-213.577 953.302,-226.97 966,-239 975.622,-248.116 988.484,-254.776 1000.37,-259.472"/>
<polygon fill="#9a32cd" stroke="#9a32cd" points="781.615,-175.641 772.195,-180.489 782.582,-182.573 781.615,-175.641"/>
<text text-anchor="middle" x="889" y="-218" font-family="Helvetica,sans-Serif" font-size="10.00"> myCommandItems</text>
<text text-anchor="middle" x="889" y="-207" font-family="Helvetica,sans-Serif" font-size="10.00">myHistoryItems</text>
</g>
<!-- Node36 -->
<g id="node36" class="node"><title>Node36</title>
<polygon fill="white" stroke="#bfbfbf" points="1002.5,-564.5 1002.5,-583.5 1065.5,-583.5 1065.5,-564.5 1002.5,-564.5"/>
<text text-anchor="middle" x="1034" y="-571.5" font-family="Helvetica,sans-Serif" font-size="10.00">Rectangle</text>
</g>
<!-- Node36&#45;&gt;Node11 -->
<g id="edge50" class="edge"><title>Node36&#45;&gt;Node11</title>
<path fill="none" stroke="#9a32cd" stroke-dasharray="5,2" d="M1075.84,-577.126C1111.52,-577.823 1163.23,-573.713 1200,-549 1234.72,-525.665 1252.92,-475.765 1259.31,-454.701"/>
<polygon fill="#9a32cd" stroke="#9a32cd" points="1075.88,-573.626 1065.77,-576.794 1075.65,-580.622 1075.88,-573.626"/>
<text text-anchor="middle" x="1160" y="-578" font-family="Helvetica,sans-Serif" font-size="10.00"> myBackground</text>
</g>
<!-- Node37 -->
<g id="node37" class="node"><title>Node37</title>
<polygon fill="white" stroke="#bfbfbf" points="333,-632 333,-662 469,-662 469,-632 333,-632"/>
<text text-anchor="start" x="341" y="-650" font-family="Helvetica,sans-Serif" font-size="10.00">List&lt; model.instructions.</text>
<text text-anchor="middle" x="401" y="-639" font-family="Helvetica,sans-Serif" font-size="10.00">Instruction &gt;</text>
</g>
<!-- Node37&#45;&gt;Node3 -->
<g id="edge53" class="edge"><title>Node37&#45;&gt;Node3</title>
<path fill="none" stroke="#9a32cd" stroke-dasharray="5,2" d="M479.307,-647C529.736,-647 595.34,-647 645.923,-647"/>
<polygon fill="#9a32cd" stroke="#9a32cd" points="479.11,-643.5 469.11,-647 479.11,-650.5 479.11,-643.5"/>
<text text-anchor="middle" x="559" y="-650" font-family="Helvetica,sans-Serif" font-size="10.00"> myDependencies</text>
</g>
</g>
</svg>
