<?xml version="1.0" encoding="UTF-8" standalone="no"?>
<!DOCTYPE svg PUBLIC "-//W3C//DTD SVG 1.1//EN"
 "http://www.w3.org/Graphics/SVG/1.1/DTD/svg11.dtd">
<!-- Generated by graphviz version 2.36.0 (20140111.2315)
 -->
<!-- Title: model.instructions.ControlInstruction.makeVariable Pages: 1 -->
<svg width="512pt" height="60pt"
 viewBox="0.00 0.00 512.00 60.00" xmlns="http://www.w3.org/2000/svg" xmlns:xlink="http://www.w3.org/1999/xlink">
<g id="graph0" class="graph" transform="scale(1 1) rotate(0) translate(4 56)">
<title>model.instructions.ControlInstruction.makeVariable</title>
<polygon fill="white" stroke="none" points="-4,4 -4,-56 508,-56 508,4 -4,4"/>
<!-- Node1 -->
<g id="node1" class="node"><title>Node1</title>
<polygon fill="#bfbfbf" stroke="black" points="0.5,-22 0.5,-52 143.5,-52 143.5,-22 0.5,-22"/>
<text text-anchor="start" x="8.5" y="-40" font-family="Helvetica,sans-Serif" font-size="10.00">model.instructions.Control</text>
<text text-anchor="middle" x="72" y="-29" font-family="Helvetica,sans-Serif" font-size="10.00">Instruction.makeVariable</text>
</g>
<!-- Node2 -->
<g id="node2" class="node"><title>Node2</title>
<g id="a_node2"><a xlink:href="../../d5/dbb/classmodel_1_1instructions_1_1_control_instruction.html#a5ec77a176debc7a35ce9026c808d021e" target="_top" xlink:title="model.instructions.Control\lInstruction.execute">
<polygon fill="white" stroke="black" points="360.5,-22 360.5,-52 503.5,-52 503.5,-22 360.5,-22"/>
<text text-anchor="start" x="368.5" y="-40" font-family="Helvetica,sans-Serif" font-size="10.00">model.instructions.Control</text>
<text text-anchor="middle" x="432" y="-29" font-family="Helvetica,sans-Serif" font-size="10.00">Instruction.execute</text>
</a>
</g>
</g>
<!-- Node1&#45;&gt;Node2 -->
<g id="edge1" class="edge"><title>Node1&#45;&gt;Node2</title>
<path fill="none" stroke="midnightblue" d="M153.545,-38.667C162.471,-38.8037 171.428,-38.9199 180,-39 243.997,-39.5981 260.003,-39.5981 324,-39 335.798,-38.8898 348.326,-38.7111 360.496,-38.5049"/>
<polygon fill="midnightblue" stroke="midnightblue" points="153.559,-35.1669 143.504,-38.5049 153.446,-42.166 153.559,-35.1669"/>
</g>
<!-- Node3 -->
<g id="node3" class="node"><title>Node3</title>
<g id="a_node3"><a xlink:href="../../d5/dbb/classmodel_1_1instructions_1_1_control_instruction.html#afdbf98dbab1ed6b6ace9a1773299eb30" target="_top" xlink:title="model.instructions.Control\lInstruction.forLoop">
<polygon fill="white" stroke="black" points="180.5,-0 180.5,-30 323.5,-30 323.5,-0 180.5,-0"/>
<text text-anchor="start" x="188.5" y="-18" font-family="Helvetica,sans-Serif" font-size="10.00">model.instructions.Control</text>
<text text-anchor="middle" x="252" y="-7" font-family="Helvetica,sans-Serif" font-size="10.00">Instruction.forLoop</text>
</a>
</g>
</g>
<!-- Node1&#45;&gt;Node3 -->
<g id="edge2" class="edge"><title>Node1&#45;&gt;Node3</title>
<path fill="none" stroke="midnightblue" d="M153.646,-27.0325C162.599,-25.926 171.666,-24.8054 180.479,-23.716"/>
<polygon fill="midnightblue" stroke="midnightblue" points="153.101,-23.5731 143.606,-28.2734 153.96,-30.5203 153.101,-23.5731"/>
</g>
<!-- Node3&#45;&gt;Node2 -->
<g id="edge3" class="edge"><title>Node3&#45;&gt;Node2</title>
<path fill="none" stroke="midnightblue" d="M333.646,-24.9675C342.599,-26.074 351.666,-27.1946 360.479,-28.284"/>
<polygon fill="midnightblue" stroke="midnightblue" points="333.96,-21.4797 323.606,-23.7266 333.101,-28.4269 333.96,-21.4797"/>
</g>
</g>
</svg>
