<?xml version="1.0" encoding="UTF-8" standalone="no"?>
<!DOCTYPE svg PUBLIC "-//W3C//DTD SVG 1.1//EN"
 "http://www.w3.org/Graphics/SVG/1.1/DTD/svg11.dtd">
<!-- Generated by graphviz version 2.36.0 (20140111.2315)
 -->
<!-- Title: model.instructions.ControlInstruction.execute Pages: 1 -->
<svg width="1018pt" height="192pt"
 viewBox="0.00 0.00 1018.00 192.00" xmlns="http://www.w3.org/2000/svg" xmlns:xlink="http://www.w3.org/1999/xlink">
<g id="graph0" class="graph" transform="scale(1 1) rotate(0) translate(4 188)">
<title>model.instructions.ControlInstruction.execute</title>
<polygon fill="white" stroke="none" points="-4,4 -4,-188 1014,-188 1014,4 -4,4"/>
<!-- Node1 -->
<g id="node1" class="node"><title>Node1</title>
<polygon fill="#bfbfbf" stroke="black" points="0.5,-83 0.5,-113 143.5,-113 143.5,-83 0.5,-83"/>
<text text-anchor="start" x="8.5" y="-101" font-family="Helvetica,sans-Serif" font-size="10.00">model.instructions.Control</text>
<text text-anchor="middle" x="72" y="-90" font-family="Helvetica,sans-Serif" font-size="10.00">Instruction.execute</text>
</g>
<!-- Node2 -->
<g id="node2" class="node"><title>Node2</title>
<g id="a_node2"><a xlink:href="../../d5/dbb/classmodel_1_1instructions_1_1_control_instruction.html#a3fb86527d4ea267d661780b12d33344e" target="_top" xlink:title="model.instructions.Control\lInstruction.addToMap">
<polygon fill="white" stroke="black" points="180.5,-151 180.5,-181 323.5,-181 323.5,-151 180.5,-151"/>
<text text-anchor="start" x="188.5" y="-169" font-family="Helvetica,sans-Serif" font-size="10.00">model.instructions.Control</text>
<text text-anchor="middle" x="252" y="-158" font-family="Helvetica,sans-Serif" font-size="10.00">Instruction.addToMap</text>
</a>
</g>
</g>
<!-- Node1&#45;&gt;Node2 -->
<g id="edge1" class="edge"><title>Node1&#45;&gt;Node2</title>
<path fill="none" stroke="midnightblue" d="M112.504,-113.091C138.891,-123.172 173.788,-136.503 201.951,-147.262"/>
<polygon fill="midnightblue" stroke="midnightblue" points="201.016,-150.652 211.606,-150.951 203.514,-144.112 201.016,-150.652"/>
</g>
<!-- Node5 -->
<g id="node5" class="node"><title>Node5</title>
<g id="a_node5"><a xlink:href="../../d5/dbb/classmodel_1_1instructions_1_1_control_instruction.html#a1c4a55cb8aa53805da8193f686964ca7" target="_top" xlink:title="model.instructions.Control\lInstruction.executeList">
<polygon fill="white" stroke="black" points="377.5,-105 377.5,-135 520.5,-135 520.5,-105 377.5,-105"/>
<text text-anchor="start" x="385.5" y="-123" font-family="Helvetica,sans-Serif" font-size="10.00">model.instructions.Control</text>
<text text-anchor="middle" x="449" y="-112" font-family="Helvetica,sans-Serif" font-size="10.00">Instruction.executeList</text>
</a>
</g>
</g>
<!-- Node1&#45;&gt;Node5 -->
<g id="edge4" class="edge"><title>Node1&#45;&gt;Node5</title>
<path fill="none" stroke="midnightblue" d="M143.535,-102.138C207.204,-105.873 300.833,-111.366 367.429,-115.273"/>
<polygon fill="midnightblue" stroke="midnightblue" points="367.276,-118.77 377.464,-115.862 367.686,-111.782 367.276,-118.77"/>
</g>
<!-- Node7 -->
<g id="node7" class="node"><title>Node7</title>
<g id="a_node7"><a xlink:href="../../d5/dbb/classmodel_1_1instructions_1_1_control_instruction.html#afdbf98dbab1ed6b6ace9a1773299eb30" target="_top" xlink:title="model.instructions.Control\lInstruction.forLoop">
<polygon fill="white" stroke="black" points="180.5,-61 180.5,-91 323.5,-91 323.5,-61 180.5,-61"/>
<text text-anchor="start" x="188.5" y="-79" font-family="Helvetica,sans-Serif" font-size="10.00">model.instructions.Control</text>
<text text-anchor="middle" x="252" y="-68" font-family="Helvetica,sans-Serif" font-size="10.00">Instruction.forLoop</text>
</a>
</g>
</g>
<!-- Node1&#45;&gt;Node7 -->
<g id="edge6" class="edge"><title>Node1&#45;&gt;Node7</title>
<path fill="none" stroke="midnightblue" d="M143.606,-89.2734C152.421,-88.1839 161.488,-87.0632 170.441,-85.9568"/>
<polygon fill="midnightblue" stroke="midnightblue" points="170.984,-89.4163 180.479,-84.716 170.126,-82.4692 170.984,-89.4163"/>
</g>
<!-- Node8 -->
<g id="node8" class="node"><title>Node8</title>
<g id="a_node8"><a xlink:href="../../d5/dbb/classmodel_1_1instructions_1_1_control_instruction.html#a738157283e6cd27e99b991d1e70258f6" target="_top" xlink:title="model.instructions.Control\lInstruction.makeVariable">
<polygon fill="white" stroke="black" points="377.5,-17 377.5,-47 520.5,-47 520.5,-17 377.5,-17"/>
<text text-anchor="start" x="385.5" y="-35" font-family="Helvetica,sans-Serif" font-size="10.00">model.instructions.Control</text>
<text text-anchor="middle" x="449" y="-24" font-family="Helvetica,sans-Serif" font-size="10.00">Instruction.makeVariable</text>
</a>
</g>
</g>
<!-- Node1&#45;&gt;Node8 -->
<g id="edge13" class="edge"><title>Node1&#45;&gt;Node8</title>
<path fill="none" stroke="midnightblue" d="M100.234,-82.9091C121.327,-72.0057 151.637,-58.011 180,-51 241.577,-35.7791 313.356,-31.3675 367.124,-30.5764"/>
<polygon fill="midnightblue" stroke="midnightblue" points="367.326,-34.0745 377.288,-30.4667 367.25,-27.0749 367.326,-34.0745"/>
</g>
<!-- Node3 -->
<g id="node3" class="node"><title>Node3</title>
<g id="a_node3"><a xlink:href="../../d1/dca/classmodel_1_1_execution_environment.html#a83ef2b9eaef50b67c0b978f2abb8200c" target="_top" xlink:title="model.ExecutionEnvironment.add\lCommand">
<polygon fill="white" stroke="black" points="360,-154 360,-184 538,-184 538,-154 360,-154"/>
<text text-anchor="start" x="368" y="-172" font-family="Helvetica,sans-Serif" font-size="10.00">model.ExecutionEnvironment.add</text>
<text text-anchor="middle" x="449" y="-161" font-family="Helvetica,sans-Serif" font-size="10.00">Command</text>
</a>
</g>
</g>
<!-- Node2&#45;&gt;Node3 -->
<g id="edge2" class="edge"><title>Node2&#45;&gt;Node3</title>
<path fill="none" stroke="midnightblue" d="M323.675,-167.087C332.136,-167.217 340.889,-167.352 349.651,-167.487"/>
<polygon fill="midnightblue" stroke="midnightblue" points="349.872,-170.991 359.924,-167.645 349.979,-163.991 349.872,-170.991"/>
</g>
<!-- Node4 -->
<g id="node4" class="node"><title>Node4</title>
<g id="a_node4"><a xlink:href="../../d1/dca/classmodel_1_1_execution_environment.html#a93fd01341f06dfa81727344b120aef66" target="_top" xlink:title="model.ExecutionEnvironment.update\lObserver">
<polygon fill="white" stroke="black" points="816,-88 816,-118 1010,-118 1010,-88 816,-88"/>
<text text-anchor="start" x="824" y="-106" font-family="Helvetica,sans-Serif" font-size="10.00">model.ExecutionEnvironment.update</text>
<text text-anchor="middle" x="913" y="-95" font-family="Helvetica,sans-Serif" font-size="10.00">Observer</text>
</a>
</g>
</g>
<!-- Node3&#45;&gt;Node4 -->
<g id="edge3" class="edge"><title>Node3&#45;&gt;Node4</title>
<path fill="none" stroke="midnightblue" d="M538.259,-156.392C614.362,-145.52 724.461,-129.791 805.456,-118.221"/>
<polygon fill="midnightblue" stroke="midnightblue" points="806.28,-121.639 815.684,-116.759 805.29,-114.709 806.28,-121.639"/>
</g>
<!-- Node6 -->
<g id="node6" class="node"><title>Node6</title>
<g id="a_node6"><a xlink:href="../../d1/dea/classmodel_1_1instructions_1_1_instruction.html#a652dd9af931f204857449f586c290801" target="_top" xlink:title="model.instructions.Instruction.execute">
<polygon fill="white" stroke="black" points="577,-88.5 577,-107.5 777,-107.5 777,-88.5 577,-88.5"/>
<text text-anchor="middle" x="677" y="-95.5" font-family="Helvetica,sans-Serif" font-size="10.00">model.instructions.Instruction.execute</text>
</a>
</g>
</g>
<!-- Node5&#45;&gt;Node6 -->
<g id="edge5" class="edge"><title>Node5&#45;&gt;Node6</title>
<path fill="none" stroke="midnightblue" d="M520.578,-113.13C535.701,-111.657 552.009,-110.07 568.176,-108.496"/>
<polygon fill="midnightblue" stroke="midnightblue" points="568.599,-111.972 578.213,-107.519 567.92,-105.005 568.599,-111.972"/>
</g>
<!-- Node7&#45;&gt;Node6 -->
<g id="edge12" class="edge"><title>Node7&#45;&gt;Node6</title>
<path fill="none" stroke="midnightblue" d="M323.801,-79.6823C390.088,-83.1299 490.122,-88.3326 566.662,-92.3134"/>
<polygon fill="midnightblue" stroke="midnightblue" points="566.656,-95.8177 576.824,-92.8419 567.02,-88.8272 566.656,-95.8177"/>
</g>
<!-- Node7&#45;&gt;Node8 -->
<g id="edge7" class="edge"><title>Node7&#45;&gt;Node8</title>
<path fill="none" stroke="midnightblue" d="M319.563,-60.9808C336.256,-57.214 354.3,-53.1426 371.438,-49.2756"/>
<polygon fill="midnightblue" stroke="midnightblue" points="372.422,-52.6415 381.407,-47.0262 370.881,-45.8132 372.422,-52.6415"/>
</g>
<!-- Node8&#45;&gt;Node6 -->
<g id="edge11" class="edge"><title>Node8&#45;&gt;Node6</title>
<path fill="none" stroke="midnightblue" d="M496.866,-47.1081C510.243,-51.6546 524.774,-56.8187 538,-62 554.303,-68.3868 557.304,-72.7267 574,-78 584.144,-81.204 595.026,-83.993 605.767,-86.3881"/>
<polygon fill="midnightblue" stroke="midnightblue" points="605.056,-89.8152 615.566,-88.4777 606.516,-82.9691 605.056,-89.8152"/>
</g>
<!-- Node9 -->
<g id="node9" class="node"><title>Node9</title>
<g id="a_node9"><a xlink:href="../../d1/dca/classmodel_1_1_execution_environment.html#a3afb09ec1e342a734f59161beca05b0e" target="_top" xlink:title="model.ExecutionEnvironment.add\lVariable">
<polygon fill="white" stroke="black" points="588,-39 588,-69 766,-69 766,-39 588,-39"/>
<text text-anchor="start" x="596" y="-57" font-family="Helvetica,sans-Serif" font-size="10.00">model.ExecutionEnvironment.add</text>
<text text-anchor="middle" x="677" y="-46" font-family="Helvetica,sans-Serif" font-size="10.00">Variable</text>
</a>
</g>
</g>
<!-- Node8&#45;&gt;Node9 -->
<g id="edge8" class="edge"><title>Node8&#45;&gt;Node9</title>
<path fill="none" stroke="midnightblue" d="M520.578,-38.8704C538.666,-40.6312 558.449,-42.557 577.658,-44.4269"/>
<polygon fill="midnightblue" stroke="midnightblue" points="577.347,-47.913 587.639,-45.3985 578.025,-40.946 577.347,-47.913"/>
</g>
<!-- Node10 -->
<g id="node10" class="node"><title>Node10</title>
<g id="a_node10"><a xlink:href="../../d1/dea/classmodel_1_1instructions_1_1_instruction.html#ae23102878cf36ded543d99d5dc4471a4" target="_top" xlink:title="model.instructions.Instruction.getName">
<polygon fill="white" stroke="black" points="574,-0.5 574,-19.5 780,-19.5 780,-0.5 574,-0.5"/>
<text text-anchor="middle" x="677" y="-7.5" font-family="Helvetica,sans-Serif" font-size="10.00">model.instructions.Instruction.getName</text>
</a>
</g>
</g>
<!-- Node8&#45;&gt;Node10 -->
<g id="edge10" class="edge"><title>Node8&#45;&gt;Node10</title>
<path fill="none" stroke="midnightblue" d="M520.578,-25.1296C535.701,-23.6574 552.009,-22.0699 568.176,-20.4961"/>
<polygon fill="midnightblue" stroke="midnightblue" points="568.599,-23.9716 578.213,-19.5191 567.92,-17.0046 568.599,-23.9716"/>
</g>
<!-- Node9&#45;&gt;Node4 -->
<g id="edge9" class="edge"><title>Node9&#45;&gt;Node4</title>
<path fill="none" stroke="midnightblue" d="M749.798,-69.0346C775.291,-74.373 804.168,-80.4198 830.418,-85.9166"/>
<polygon fill="midnightblue" stroke="midnightblue" points="829.833,-89.3699 840.338,-87.9938 831.267,-82.5185 829.833,-89.3699"/>
</g>
</g>
</svg>
