<?xml version="1.0" encoding="UTF-8" standalone="no"?>
<!DOCTYPE svg PUBLIC "-//W3C//DTD SVG 1.1//EN"
 "http://www.w3.org/Graphics/SVG/1.1/DTD/svg11.dtd">
<!-- Generated by graphviz version 2.36.0 (20140111.2315)
 -->
<!-- Title: model.instructions.ControlInstruction.makeVariable Pages: 1 -->
<svg width="624pt" height="115pt"
 viewBox="0.00 0.00 624.00 115.00" xmlns="http://www.w3.org/2000/svg" xmlns:xlink="http://www.w3.org/1999/xlink">
<g id="graph0" class="graph" transform="scale(1 1) rotate(0) translate(4 111)">
<title>model.instructions.ControlInstruction.makeVariable</title>
<polygon fill="white" stroke="none" points="-4,4 -4,-111 620,-111 620,4 -4,4"/>
<!-- Node1 -->
<g id="node1" class="node"><title>Node1</title>
<polygon fill="#bfbfbf" stroke="black" points="0.5,-33 0.5,-63 143.5,-63 143.5,-33 0.5,-33"/>
<text text-anchor="start" x="8.5" y="-51" font-family="Helvetica,sans-Serif" font-size="10.00">model.instructions.Control</text>
<text text-anchor="middle" x="72" y="-40" font-family="Helvetica,sans-Serif" font-size="10.00">Instruction.makeVariable</text>
</g>
<!-- Node2 -->
<g id="node2" class="node"><title>Node2</title>
<g id="a_node2"><a xlink:href="../../d1/dca/classmodel_1_1_execution_environment.html#a3afb09ec1e342a734f59161beca05b0e" target="_top" xlink:title="model.ExecutionEnvironment.add\lVariable">
<polygon fill="white" stroke="black" points="194,-77 194,-107 372,-107 372,-77 194,-77"/>
<text text-anchor="start" x="202" y="-95" font-family="Helvetica,sans-Serif" font-size="10.00">model.ExecutionEnvironment.add</text>
<text text-anchor="middle" x="283" y="-84" font-family="Helvetica,sans-Serif" font-size="10.00">Variable</text>
</a>
</g>
</g>
<!-- Node1&#45;&gt;Node2 -->
<g id="edge1" class="edge"><title>Node1&#45;&gt;Node2</title>
<path fill="none" stroke="midnightblue" d="M143.758,-62.8964C162.027,-66.7426 181.838,-70.9133 200.603,-74.8638"/>
<polygon fill="midnightblue" stroke="midnightblue" points="200.097,-78.334 210.604,-76.9692 201.539,-71.4841 200.097,-78.334"/>
</g>
<!-- Node4 -->
<g id="node4" class="node"><title>Node4</title>
<g id="a_node4"><a xlink:href="../../d1/dea/classmodel_1_1instructions_1_1_instruction.html#a652dd9af931f204857449f586c290801" target="_top" xlink:title="model.instructions.Instruction.execute">
<polygon fill="white" stroke="black" points="183,-38.5 183,-57.5 383,-57.5 383,-38.5 183,-38.5"/>
<text text-anchor="middle" x="283" y="-45.5" font-family="Helvetica,sans-Serif" font-size="10.00">model.instructions.Instruction.execute</text>
</a>
</g>
</g>
<!-- Node1&#45;&gt;Node4 -->
<g id="edge3" class="edge"><title>Node1&#45;&gt;Node4</title>
<path fill="none" stroke="midnightblue" d="M143.758,-48C153.074,-48 162.792,-48 172.567,-48"/>
<polygon fill="midnightblue" stroke="midnightblue" points="172.76,-51.5001 182.76,-48 172.76,-44.5001 172.76,-51.5001"/>
</g>
<!-- Node5 -->
<g id="node5" class="node"><title>Node5</title>
<g id="a_node5"><a xlink:href="../../d1/dea/classmodel_1_1instructions_1_1_instruction.html#ae23102878cf36ded543d99d5dc4471a4" target="_top" xlink:title="model.instructions.Instruction.getName">
<polygon fill="white" stroke="black" points="180,-0.5 180,-19.5 386,-19.5 386,-0.5 180,-0.5"/>
<text text-anchor="middle" x="283" y="-7.5" font-family="Helvetica,sans-Serif" font-size="10.00">model.instructions.Instruction.getName</text>
</a>
</g>
</g>
<!-- Node1&#45;&gt;Node5 -->
<g id="edge4" class="edge"><title>Node1&#45;&gt;Node5</title>
<path fill="none" stroke="midnightblue" d="M143.758,-35.1349C168.316,-30.6699 195.659,-25.6984 219.502,-21.3632"/>
<polygon fill="midnightblue" stroke="midnightblue" points="220.276,-24.7801 229.488,-19.5476 219.023,-17.893 220.276,-24.7801"/>
</g>
<!-- Node3 -->
<g id="node3" class="node"><title>Node3</title>
<g id="a_node3"><a xlink:href="../../d1/dca/classmodel_1_1_execution_environment.html#a93fd01341f06dfa81727344b120aef66" target="_top" xlink:title="model.ExecutionEnvironment.update\lObserver">
<polygon fill="white" stroke="black" points="422,-77 422,-107 616,-107 616,-77 422,-77"/>
<text text-anchor="start" x="430" y="-95" font-family="Helvetica,sans-Serif" font-size="10.00">model.ExecutionEnvironment.update</text>
<text text-anchor="middle" x="519" y="-84" font-family="Helvetica,sans-Serif" font-size="10.00">Observer</text>
</a>
</g>
</g>
<!-- Node2&#45;&gt;Node3 -->
<g id="edge2" class="edge"><title>Node2&#45;&gt;Node3</title>
<path fill="none" stroke="midnightblue" d="M372.132,-92C385.037,-92 398.441,-92 411.663,-92"/>
<polygon fill="midnightblue" stroke="midnightblue" points="411.726,-95.5001 421.726,-92 411.726,-88.5001 411.726,-95.5001"/>
</g>
</g>
</svg>
