<?xml version="1.0" encoding="UTF-8" standalone="no"?>
<!DOCTYPE svg PUBLIC "-//W3C//DTD SVG 1.1//EN"
 "http://www.w3.org/Graphics/SVG/1.1/DTD/svg11.dtd">
<!-- Generated by graphviz version 2.36.0 (20140111.2315)
 -->
<!-- Title: model.instructions.ControlInstruction.forLoop Pages: 1 -->
<svg width="804pt" height="116pt"
 viewBox="0.00 0.00 804.00 116.00" xmlns="http://www.w3.org/2000/svg" xmlns:xlink="http://www.w3.org/1999/xlink">
<g id="graph0" class="graph" transform="scale(1 1) rotate(0) translate(4 112)">
<title>model.instructions.ControlInstruction.forLoop</title>
<polygon fill="white" stroke="none" points="-4,4 -4,-112 800,-112 800,4 -4,4"/>
<!-- Node1 -->
<g id="node1" class="node"><title>Node1</title>
<polygon fill="#bfbfbf" stroke="black" points="0.5,-61 0.5,-91 143.5,-91 143.5,-61 0.5,-61"/>
<text text-anchor="start" x="8.5" y="-79" font-family="Helvetica,sans-Serif" font-size="10.00">model.instructions.Control</text>
<text text-anchor="middle" x="72" y="-68" font-family="Helvetica,sans-Serif" font-size="10.00">Instruction.forLoop</text>
</g>
<!-- Node2 -->
<g id="node2" class="node"><title>Node2</title>
<g id="a_node2"><a xlink:href="../../d1/dea/classmodel_1_1instructions_1_1_instruction.html#a652dd9af931f204857449f586c290801" target="_top" xlink:title="model.instructions.Instruction.execute">
<polygon fill="white" stroke="black" points="363,-88.5 363,-107.5 563,-107.5 563,-88.5 363,-88.5"/>
<text text-anchor="middle" x="463" y="-95.5" font-family="Helvetica,sans-Serif" font-size="10.00">model.instructions.Instruction.execute</text>
</a>
</g>
</g>
<!-- Node1&#45;&gt;Node2 -->
<g id="edge1" class="edge"><title>Node1&#45;&gt;Node2</title>
<path fill="none" stroke="midnightblue" d="M143.896,-80.0096C202.156,-83.3044 285.679,-88.0281 352.522,-91.8084"/>
<polygon fill="midnightblue" stroke="midnightblue" points="352.497,-95.3125 362.678,-92.3828 352.892,-88.3237 352.497,-95.3125"/>
</g>
<!-- Node3 -->
<g id="node3" class="node"><title>Node3</title>
<g id="a_node3"><a xlink:href="../../d5/dbb/classmodel_1_1instructions_1_1_control_instruction.html#a738157283e6cd27e99b991d1e70258f6" target="_top" xlink:title="model.instructions.Control\lInstruction.makeVariable">
<polygon fill="white" stroke="black" points="180.5,-39 180.5,-69 323.5,-69 323.5,-39 180.5,-39"/>
<text text-anchor="start" x="188.5" y="-57" font-family="Helvetica,sans-Serif" font-size="10.00">model.instructions.Control</text>
<text text-anchor="middle" x="252" y="-46" font-family="Helvetica,sans-Serif" font-size="10.00">Instruction.makeVariable</text>
</a>
</g>
</g>
<!-- Node1&#45;&gt;Node3 -->
<g id="edge2" class="edge"><title>Node1&#45;&gt;Node3</title>
<path fill="none" stroke="midnightblue" d="M143.606,-67.2734C152.421,-66.1839 161.488,-65.0632 170.441,-63.9568"/>
<polygon fill="midnightblue" stroke="midnightblue" points="170.984,-67.4163 180.479,-62.716 170.126,-60.4692 170.984,-67.4163"/>
</g>
<!-- Node3&#45;&gt;Node2 -->
<g id="edge6" class="edge"><title>Node3&#45;&gt;Node2</title>
<path fill="none" stroke="midnightblue" d="M318.58,-69.0037C332.253,-72.0492 346.586,-75.181 360,-78 373.571,-80.852 388.186,-83.7939 401.995,-86.5148"/>
<polygon fill="midnightblue" stroke="midnightblue" points="401.395,-89.9637 411.881,-88.4526 402.741,-83.0944 401.395,-89.9637"/>
</g>
<!-- Node4 -->
<g id="node4" class="node"><title>Node4</title>
<g id="a_node4"><a xlink:href="../../d1/dca/classmodel_1_1_execution_environment.html#a3afb09ec1e342a734f59161beca05b0e" target="_top" xlink:title="model.ExecutionEnvironment.add\lVariable">
<polygon fill="white" stroke="black" points="374,-39 374,-69 552,-69 552,-39 374,-39"/>
<text text-anchor="start" x="382" y="-57" font-family="Helvetica,sans-Serif" font-size="10.00">model.ExecutionEnvironment.add</text>
<text text-anchor="middle" x="463" y="-46" font-family="Helvetica,sans-Serif" font-size="10.00">Variable</text>
</a>
</g>
</g>
<!-- Node3&#45;&gt;Node4 -->
<g id="edge3" class="edge"><title>Node3&#45;&gt;Node4</title>
<path fill="none" stroke="midnightblue" d="M323.758,-54C336.592,-54 350.187,-54 363.645,-54"/>
<polygon fill="midnightblue" stroke="midnightblue" points="363.895,-57.5001 373.895,-54 363.895,-50.5001 363.895,-57.5001"/>
</g>
<!-- Node6 -->
<g id="node6" class="node"><title>Node6</title>
<g id="a_node6"><a xlink:href="../../d1/dea/classmodel_1_1instructions_1_1_instruction.html#ae23102878cf36ded543d99d5dc4471a4" target="_top" xlink:title="model.instructions.Instruction.getName">
<polygon fill="white" stroke="black" points="360,-0.5 360,-19.5 566,-19.5 566,-0.5 360,-0.5"/>
<text text-anchor="middle" x="463" y="-7.5" font-family="Helvetica,sans-Serif" font-size="10.00">model.instructions.Instruction.getName</text>
</a>
</g>
</g>
<!-- Node3&#45;&gt;Node6 -->
<g id="edge5" class="edge"><title>Node3&#45;&gt;Node6</title>
<path fill="none" stroke="midnightblue" d="M315.132,-38.9806C329.816,-35.5705 345.437,-32.0559 360,-29 372.38,-26.402 385.644,-23.7996 398.375,-21.3907"/>
<polygon fill="midnightblue" stroke="midnightblue" points="399.259,-24.7861 408.443,-19.5041 397.97,-17.9058 399.259,-24.7861"/>
</g>
<!-- Node5 -->
<g id="node5" class="node"><title>Node5</title>
<g id="a_node5"><a xlink:href="../../d1/dca/classmodel_1_1_execution_environment.html#a93fd01341f06dfa81727344b120aef66" target="_top" xlink:title="model.ExecutionEnvironment.update\lObserver">
<polygon fill="white" stroke="black" points="602,-39 602,-69 796,-69 796,-39 602,-39"/>
<text text-anchor="start" x="610" y="-57" font-family="Helvetica,sans-Serif" font-size="10.00">model.ExecutionEnvironment.update</text>
<text text-anchor="middle" x="699" y="-46" font-family="Helvetica,sans-Serif" font-size="10.00">Observer</text>
</a>
</g>
</g>
<!-- Node4&#45;&gt;Node5 -->
<g id="edge4" class="edge"><title>Node4&#45;&gt;Node5</title>
<path fill="none" stroke="midnightblue" d="M552.132,-54C565.037,-54 578.441,-54 591.663,-54"/>
<polygon fill="midnightblue" stroke="midnightblue" points="591.726,-57.5001 601.726,-54 591.726,-50.5001 591.726,-57.5001"/>
</g>
</g>
</svg>
