<?xml version="1.0" encoding="UTF-8" standalone="no"?>
<!DOCTYPE svg PUBLIC "-//W3C//DTD SVG 1.1//EN"
 "http://www.w3.org/Graphics/SVG/1.1/DTD/svg11.dtd">
<!-- Generated by graphviz version 2.36.0 (20140111.2315)
 -->
<!-- Title: model.Parser.setLanguage Pages: 1 -->
<svg width="608pt" height="38pt"
 viewBox="0.00 0.00 608.00 38.00" xmlns="http://www.w3.org/2000/svg" xmlns:xlink="http://www.w3.org/1999/xlink">
<g id="graph0" class="graph" transform="scale(1 1) rotate(0) translate(4 34)">
<title>model.Parser.setLanguage</title>
<polygon fill="white" stroke="none" points="-4,4 -4,-34 604,-34 604,4 -4,4"/>
<!-- Node1 -->
<g id="node1" class="node"><title>Node1</title>
<polygon fill="#bfbfbf" stroke="black" points="0,-5.5 0,-24.5 144,-24.5 144,-5.5 0,-5.5"/>
<text text-anchor="middle" x="72" y="-12.5" font-family="Helvetica,sans-Serif" font-size="10.00">model.Parser.setLanguage</text>
</g>
<!-- Node2 -->
<g id="node2" class="node"><title>Node2</title>
<g id="a_node2"><a xlink:href="../../dc/d3c/classview_1_1_customization_bar.html#a7af574ca79d4f78ad3afbb8fb199ef9c" target="_top" xlink:title="view.CustomizationBar.configure\lLanguageOptions">
<polygon fill="white" stroke="black" points="180.5,-0 180.5,-30 351.5,-30 351.5,-0 180.5,-0"/>
<text text-anchor="start" x="188.5" y="-18" font-family="Helvetica,sans-Serif" font-size="10.00">view.CustomizationBar.configure</text>
<text text-anchor="middle" x="266" y="-7" font-family="Helvetica,sans-Serif" font-size="10.00">LanguageOptions</text>
</a>
</g>
</g>
<!-- Node1&#45;&gt;Node2 -->
<g id="edge1" class="edge"><title>Node1&#45;&gt;Node2</title>
<path fill="none" stroke="midnightblue" d="M154.235,-15C162.843,-15 171.614,-15 180.261,-15"/>
<polygon fill="midnightblue" stroke="midnightblue" points="154.221,-11.5001 144.221,-15 154.221,-18.5001 154.221,-11.5001"/>
</g>
<!-- Node3 -->
<g id="node3" class="node"><title>Node3</title>
<g id="a_node3"><a xlink:href="../../dc/d3c/classview_1_1_customization_bar.html#a51c9304001bd726b1bc57009a08c0f5f" target="_top" xlink:title="view.CustomizationBar.CustomizationBar">
<polygon fill="white" stroke="black" points="388,-5.5 388,-24.5 600,-24.5 600,-5.5 388,-5.5"/>
<text text-anchor="middle" x="494" y="-12.5" font-family="Helvetica,sans-Serif" font-size="10.00">view.CustomizationBar.CustomizationBar</text>
</a>
</g>
</g>
<!-- Node2&#45;&gt;Node3 -->
<g id="edge2" class="edge"><title>Node2&#45;&gt;Node3</title>
<path fill="none" stroke="midnightblue" d="M361.822,-15C370.429,-15 379.181,-15 387.87,-15"/>
<polygon fill="midnightblue" stroke="midnightblue" points="361.797,-11.5001 351.797,-15 361.797,-18.5001 361.797,-11.5001"/>
</g>
</g>
</svg>
