<?xml version="1.0" encoding="UTF-8" standalone="no"?>
<!DOCTYPE svg PUBLIC "-//W3C//DTD SVG 1.1//EN"
 "http://www.w3.org/Graphics/SVG/1.1/DTD/svg11.dtd">
<!-- Generated by graphviz version 2.36.0 (20140111.2315)
 -->
<!-- Title: model.Parser.makeTree Pages: 1 -->
<!--zoomable 367 -->
<svg id="main" version="1.1" xmlns="http://www.w3.org/2000/svg" xmlns:xlink="http://www.w3.org/1999/xlink" xml:space="preserve" onload="init(evt)">
<style type="text/css"><![CDATA[
.edge:hover path { stroke: red; }
.edge:hover polygon { stroke: red; fill: red; }
]]></style>
<script type="text/javascript"><![CDATA[
var edges = document.getElementsByTagName('g');
if (edges && edges.length) {
  for (var i=0;i<edges.length;i++) {
    if (edges[i].id.substr(0,4)=='edge') {
      edges[i].setAttribute('class','edge');
    }
  }
}
]]></script>
        <defs>
                <circle id="rim" cx="0" cy="0" r="7"/>
                <circle id="rim2" cx="0" cy="0" r="3.5"/>
                <g id="zoomPlus">
                        <use xlink:href="#rim" fill="#404040">
                                <set attributeName="fill" to="#808080" begin="zoomplus.mouseover" end="zoomplus.mouseout"/>
                        </use>
                        <path d="M-4,0h8M0,-4v8" fill="none" stroke="white" stroke-width="1.5" pointer-events="none"/>
                </g>
                <g id="zoomMin">
                        <use xlink:href="#rim" fill="#404040">
                                <set attributeName="fill" to="#808080" begin="zoomminus.mouseover" end="zoomminus.mouseout"/>
                        </use>
                        <path d="M-4,0h8" fill="none" stroke="white" stroke-width="1.5" pointer-events="none"/>
                </g>
                <g id="dirArrow">
                        <path fill="none" stroke="white" stroke-width="1.5" d="M0,-3.0v7 M-2.5,-0.5L0,-3.0L2.5,-0.5"/>
                </g>
               <g id="resetDef">
                       <use xlink:href="#rim2" fill="#404040">
                               <set attributeName="fill" to="#808080" begin="reset.mouseover" end="reset.mouseout"/>
                       </use>
               </g>
        </defs>

<script type="text/javascript">
var viewWidth = 580;
var viewHeight = 367;
var sectionId = 'dynsection-7';
</script>
<script xlink:href="../../svgpan.js"/>
<svg id="graph" class="graph">
<g id="viewport">
<title>model.Parser.makeTree</title>
<polygon fill="white" stroke="none" points="-4,4 -4,-363 576,-363 576,4 -4,4"/>
<!-- Node1 -->
<g id="node1" class="node"><title>Node1</title>
<polygon fill="#bfbfbf" stroke="black" points="0,-169.5 0,-188.5 128,-188.5 128,-169.5 0,-169.5"/>
<text text-anchor="middle" x="64" y="-176.5" font-family="Helvetica,sans-Serif" font-size="10.00">model.Parser.makeTree</text>
</g>
<!-- Node2 -->
<g id="node2" class="node"><title>Node2</title>
<g id="a_node2"><a xlink:href="../../d2/d19/classmodel_1_1_node.html#a59dd0ae47774a51a1590d7fd205b14d5" target="_top" xlink:title="model.Node.addChild">
<polygon fill="white" stroke="black" points="193.5,-339.5 193.5,-358.5 312.5,-358.5 312.5,-339.5 193.5,-339.5"/>
<text text-anchor="middle" x="253" y="-346.5" font-family="Helvetica,sans-Serif" font-size="10.00">model.Node.addChild</text>
</a>
</g>
</g>
<!-- Node1&#45;&gt;Node2 -->
<g id="edge1" class="edge"><title>Node1&#45;&gt;Node2</title>
<path fill="none" stroke="midnightblue" d="M68.3635,-188.558C78.3257,-215.394 110.379,-291.885 164,-329 169.934,-333.107 176.582,-336.384 183.494,-338.996"/>
<polygon fill="midnightblue" stroke="midnightblue" points="182.448,-342.337 193.042,-342.162 184.651,-335.692 182.448,-342.337"/>
</g>
<!-- Node3 -->
<g id="node3" class="node"><title>Node3</title>
<g id="a_node3"><a xlink:href="../../d1/dca/classmodel_1_1_execution_environment.html#a83ef2b9eaef50b67c0b978f2abb8200c" target="_top" xlink:title="model.ExecutionEnvironment.add\lCommand">
<polygon fill="white" stroke="black" points="164,-290 164,-320 342,-320 342,-290 164,-290"/>
<text text-anchor="start" x="172" y="-308" font-family="Helvetica,sans-Serif" font-size="10.00">model.ExecutionEnvironment.add</text>
<text text-anchor="middle" x="253" y="-297" font-family="Helvetica,sans-Serif" font-size="10.00">Command</text>
</a>
</g>
</g>
<!-- Node1&#45;&gt;Node3 -->
<g id="edge2" class="edge"><title>Node1&#45;&gt;Node3</title>
<path fill="none" stroke="midnightblue" d="M71.7252,-188.684C86.2065,-208.802 122.415,-255.293 164,-280 167.61,-282.145 171.413,-284.113 175.33,-285.919"/>
<polygon fill="midnightblue" stroke="midnightblue" points="174.067,-289.185 184.641,-289.843 176.785,-282.734 174.067,-289.185"/>
</g>
<!-- Node5 -->
<g id="node5" class="node"><title>Node5</title>
<g id="a_node5"><a xlink:href="../../d2/d19/classmodel_1_1_node.html#a30a55e40eef5514f8201573584ca9aea" target="_top" xlink:title="model.Node.getChildren">
<polygon fill="white" stroke="black" points="186.5,-251.5 186.5,-270.5 319.5,-270.5 319.5,-251.5 186.5,-251.5"/>
<text text-anchor="middle" x="253" y="-258.5" font-family="Helvetica,sans-Serif" font-size="10.00">model.Node.getChildren</text>
</a>
</g>
</g>
<!-- Node1&#45;&gt;Node5 -->
<g id="edge4" class="edge"><title>Node1&#45;&gt;Node5</title>
<path fill="none" stroke="midnightblue" d="M77.0264,-188.677C94.9152,-202.582 130.079,-228.069 164,-242 170.314,-244.593 177.035,-246.854 183.84,-248.822"/>
<polygon fill="midnightblue" stroke="midnightblue" points="183.268,-252.292 193.833,-251.498 185.079,-245.53 183.268,-252.292"/>
</g>
<!-- Node6 -->
<g id="node6" class="node"><title>Node6</title>
<g id="a_node6"><a xlink:href="../../d2/d19/classmodel_1_1_node.html#a3036121af674a3a8ff49e82bd77ab5a4" target="_top" xlink:title="model.Node.getInstruction">
<polygon fill="white" stroke="black" points="181,-213.5 181,-232.5 325,-232.5 325,-213.5 181,-213.5"/>
<text text-anchor="middle" x="253" y="-220.5" font-family="Helvetica,sans-Serif" font-size="10.00">model.Node.getInstruction</text>
</a>
</g>
</g>
<!-- Node1&#45;&gt;Node6 -->
<g id="edge5" class="edge"><title>Node1&#45;&gt;Node6</title>
<path fill="none" stroke="midnightblue" d="M103.996,-188.59C122.212,-193.035 144.2,-198.35 164,-203 175.443,-205.687 187.737,-208.517 199.4,-211.175"/>
<polygon fill="midnightblue" stroke="midnightblue" points="198.923,-214.656 209.45,-213.459 200.474,-207.83 198.923,-214.656"/>
</g>
<!-- Node7 -->
<g id="node7" class="node"><title>Node7</title>
<g id="a_node7"><a xlink:href="../../d1/dea/classmodel_1_1instructions_1_1_instruction.html#afd4726dcbdbf559356c38970061d9b79" target="_top" xlink:title="model.instructions.Instruction.get\lNumberOfArguments">
<polygon fill="white" stroke="black" points="164.5,-164 164.5,-194 341.5,-194 341.5,-164 164.5,-164"/>
<text text-anchor="start" x="172.5" y="-182" font-family="Helvetica,sans-Serif" font-size="10.00">model.instructions.Instruction.get</text>
<text text-anchor="middle" x="253" y="-171" font-family="Helvetica,sans-Serif" font-size="10.00">NumberOfArguments</text>
</a>
</g>
</g>
<!-- Node1&#45;&gt;Node7 -->
<g id="edge6" class="edge"><title>Node1&#45;&gt;Node7</title>
<path fill="none" stroke="midnightblue" d="M128.049,-179C136.523,-179 145.372,-179 154.272,-179"/>
<polygon fill="midnightblue" stroke="midnightblue" points="154.325,-182.5 164.325,-179 154.325,-175.5 154.325,-182.5"/>
</g>
<!-- Node8 -->
<g id="node8" class="node"><title>Node8</title>
<g id="a_node8"><a xlink:href="../../d1/dca/classmodel_1_1_execution_environment.html#a7eac9bbab890abbeb7db1a095fca5fc8" target="_top" xlink:title="model.ExecutionEnvironment.get\lUserCommandMap">
<polygon fill="white" stroke="black" points="165,-115 165,-145 341,-145 341,-115 165,-115"/>
<text text-anchor="start" x="173" y="-133" font-family="Helvetica,sans-Serif" font-size="10.00">model.ExecutionEnvironment.get</text>
<text text-anchor="middle" x="253" y="-122" font-family="Helvetica,sans-Serif" font-size="10.00">UserCommandMap</text>
</a>
</g>
</g>
<!-- Node1&#45;&gt;Node8 -->
<g id="edge7" class="edge"><title>Node1&#45;&gt;Node8</title>
<path fill="none" stroke="midnightblue" d="M101.499,-169.436C125.174,-163.232 156.733,-154.963 184.836,-147.599"/>
<polygon fill="midnightblue" stroke="midnightblue" points="185.828,-150.957 194.614,-145.037 184.053,-144.186 185.828,-150.957"/>
</g>
<!-- Node9 -->
<g id="node9" class="node"><title>Node9</title>
<g id="a_node9"><a xlink:href="../../dc/df5/classmodel_1_1_parser.html#ae24603572f6f919b363a7cef0cbe45c0" target="_top" xlink:title="model.Parser.match">
<polygon fill="white" stroke="black" points="418.5,-38.5 418.5,-57.5 531.5,-57.5 531.5,-38.5 418.5,-38.5"/>
<text text-anchor="middle" x="475" y="-45.5" font-family="Helvetica,sans-Serif" font-size="10.00">model.Parser.match</text>
</a>
</g>
</g>
<!-- Node1&#45;&gt;Node9 -->
<g id="edge8" class="edge"><title>Node1&#45;&gt;Node9</title>
<path fill="none" stroke="midnightblue" d="M74.7179,-169.42C91.4339,-153.536 127.379,-121.924 164,-106 186.075,-96.4014 324.099,-72.6219 408.36,-58.673"/>
<polygon fill="midnightblue" stroke="midnightblue" points="409.062,-62.1046 418.358,-57.0222 407.921,-55.1981 409.062,-62.1046"/>
</g>
<!-- Node10 -->
<g id="node10" class="node"><title>Node10</title>
<g id="a_node10"><a xlink:href="../../d6/de7/classview_1_1_s_logo_view.html#acf8498d7311bed1575638cca1c3f8777" target="_top" xlink:title="view.SLogoView.openDialog">
<polygon fill="white" stroke="black" points="179.5,-38.5 179.5,-57.5 326.5,-57.5 326.5,-38.5 179.5,-38.5"/>
<text text-anchor="middle" x="253" y="-45.5" font-family="Helvetica,sans-Serif" font-size="10.00">view.SLogoView.openDialog</text>
</a>
</g>
</g>
<!-- Node1&#45;&gt;Node10 -->
<g id="edge9" class="edge"><title>Node1&#45;&gt;Node10</title>
<path fill="none" stroke="midnightblue" d="M71.1341,-169.333C85.0025,-148.287 120.939,-98.119 164,-72 171.575,-67.4054 180.042,-63.6727 188.649,-60.6448"/>
<polygon fill="midnightblue" stroke="midnightblue" points="189.936,-63.9077 198.386,-57.5171 187.795,-57.243 189.936,-63.9077"/>
</g>
<!-- Node11 -->
<g id="node11" class="node"><title>Node11</title>
<g id="a_node11"><a xlink:href="../../dc/df5/classmodel_1_1_parser.html#a367f66d63cda3e0b2733b078c20a1f73" target="_top" xlink:title="model.Parser.testMatches">
<polygon fill="white" stroke="black" points="182.5,-0.5 182.5,-19.5 323.5,-19.5 323.5,-0.5 182.5,-0.5"/>
<text text-anchor="middle" x="253" y="-7.5" font-family="Helvetica,sans-Serif" font-size="10.00">model.Parser.testMatches</text>
</a>
</g>
</g>
<!-- Node1&#45;&gt;Node11 -->
<g id="edge10" class="edge"><title>Node1&#45;&gt;Node11</title>
<path fill="none" stroke="midnightblue" d="M68.3432,-169.412C78.2522,-142.499 110.179,-65.8237 164,-29 166.927,-26.9977 170.026,-25.201 173.243,-23.5893"/>
<polygon fill="midnightblue" stroke="midnightblue" points="174.813,-26.7232 182.582,-19.5197 172.017,-20.306 174.813,-26.7232"/>
</g>
<!-- Node4 -->
<g id="node4" class="node"><title>Node4</title>
<g id="a_node4"><a xlink:href="../../d1/dca/classmodel_1_1_execution_environment.html#a93fd01341f06dfa81727344b120aef66" target="_top" xlink:title="model.ExecutionEnvironment.update\lObserver">
<polygon fill="white" stroke="black" points="378,-290 378,-320 572,-320 572,-290 378,-290"/>
<text text-anchor="start" x="386" y="-308" font-family="Helvetica,sans-Serif" font-size="10.00">model.ExecutionEnvironment.update</text>
<text text-anchor="middle" x="475" y="-297" font-family="Helvetica,sans-Serif" font-size="10.00">Observer</text>
</a>
</g>
</g>
<!-- Node3&#45;&gt;Node4 -->
<g id="edge3" class="edge"><title>Node3&#45;&gt;Node4</title>
<path fill="none" stroke="midnightblue" d="M342.215,-305C350.635,-305 359.233,-305 367.8,-305"/>
<polygon fill="midnightblue" stroke="midnightblue" points="367.83,-308.5 377.83,-305 367.83,-301.5 367.83,-308.5"/>
</g>
<!-- Node11&#45;&gt;Node9 -->
<g id="edge11" class="edge"><title>Node11&#45;&gt;Node9</title>
<path fill="none" stroke="midnightblue" d="M309.231,-19.54C339.437,-24.7574 377.041,-31.2525 408.695,-36.72"/>
<polygon fill="midnightblue" stroke="midnightblue" points="408.296,-40.2029 418.746,-38.4561 409.488,-33.305 408.296,-40.2029"/>
</g>
</g>
</svg>
        <g id="navigator" transform="translate(0 0)" fill="#404254">
                <rect fill="#f2f5e9" fill-opacity="0.5" stroke="#606060" stroke-width=".5" x="0" y="0" width="60" height="60"/>
                <use id="zoomplus" xlink:href="#zoomPlus" x="17" y="9" onmousedown="handleZoom(evt,'in')"/>
                <use id="zoomminus" xlink:href="#zoomMin" x="42" y="9" onmousedown="handleZoom(evt,'out')"/>
                <use id="reset" xlink:href="#resetDef" x="30" y="36" onmousedown="handleReset()"/>
                <g id="arrowUp" xlink:href="#dirArrow" transform="translate(30 24)" onmousedown="handlePan(0,-1)">
                  <use xlink:href="#rim" fill="#404040">
                        <set attributeName="fill" to="#808080" begin="arrowUp.mouseover" end="arrowUp.mouseout"/>
                  </use>
                  <path fill="none" stroke="white" stroke-width="1.5" d="M0,-3.0v7 M-2.5,-0.5L0,-3.0L2.5,-0.5"/>
                </g>
                <g id="arrowRight" xlink:href="#dirArrow" transform="rotate(90) translate(36 -43)" onmousedown="handlePan(1,0)">
                  <use xlink:href="#rim" fill="#404040">
                        <set attributeName="fill" to="#808080" begin="arrowRight.mouseover" end="arrowRight.mouseout"/>
                  </use>
                  <path fill="none" stroke="white" stroke-width="1.5" d="M0,-3.0v7 M-2.5,-0.5L0,-3.0L2.5,-0.5"/>
                </g>
                <g id="arrowDown" xlink:href="#dirArrow" transform="rotate(180) translate(-30 -48)" onmousedown="handlePan(0,1)">
                  <use xlink:href="#rim" fill="#404040">
                        <set attributeName="fill" to="#808080" begin="arrowDown.mouseover" end="arrowDown.mouseout"/>
                  </use>
                  <path fill="none" stroke="white" stroke-width="1.5" d="M0,-3.0v7 M-2.5,-0.5L0,-3.0L2.5,-0.5"/>
                </g>
                <g id="arrowLeft" xlink:href="#dirArrow" transform="rotate(270) translate(-36 17)" onmousedown="handlePan(-1,0)">
                  <use xlink:href="#rim" fill="#404040">
                        <set attributeName="fill" to="#808080" begin="arrowLeft.mouseover" end="arrowLeft.mouseout"/>
                  </use>
                  <path fill="none" stroke="white" stroke-width="1.5" d="M0,-3.0v7 M-2.5,-0.5L0,-3.0L2.5,-0.5"/>
                </g>
        </g>
        <svg viewBox="0 0 15 15" width="100%" height="30px" preserveAspectRatio="xMaxYMin meet">
         <g id="arrow_out" transform="scale(0.3 0.3)">
          <a xlink:href="classmodel_1_1_parser_ae83c95a5190fc22b9b70b1a40b76661c_cgraph_org.svg" target="_base">
           <rect id="button" ry="5" rx="5" y="6" x="6" height="38" width="38"
                fill="#f2f5e9" fill-opacity="0.5" stroke="#606060" stroke-width="1.0"/>
           <path id="arrow"
             d="M 11.500037,31.436501 C 11.940474,20.09759 22.043105,11.32322 32.158766,21.979434 L 37.068811,17.246167 C 37.068811,17.246167 37.088388,32 37.088388,32 L 22.160133,31.978069 C 22.160133,31.978069 26.997745,27.140456 26.997745,27.140456 C 18.528582,18.264221 13.291696,25.230495 11.500037,31.436501 z"
             style="fill:#404040;"/>
          </a>
         </g>
        </svg>
</svg>
