<?xml version="1.0" encoding="UTF-8" standalone="no"?>
<!DOCTYPE svg PUBLIC "-//W3C//DTD SVG 1.1//EN"
 "http://www.w3.org/Graphics/SVG/1.1/DTD/svg11.dtd">
<!-- Generated by graphviz version 2.36.0 (20140111.2315)
 -->
<!-- Title: model.Parser.match Pages: 1 -->
<!--zoomable 66 -->
<svg id="main" version="1.1" xmlns="http://www.w3.org/2000/svg" xmlns:xlink="http://www.w3.org/1999/xlink" xml:space="preserve" onload="init(evt)">
<style type="text/css"><![CDATA[
.edge:hover path { stroke: red; }
.edge:hover polygon { stroke: red; fill: red; }
]]></style>
<script type="text/javascript"><![CDATA[
var edges = document.getElementsByTagName('g');
if (edges && edges.length) {
  for (var i=0;i<edges.length;i++) {
    if (edges[i].id.substr(0,4)=='edge') {
      edges[i].setAttribute('class','edge');
    }
  }
}
]]></script>
        <defs>
                <circle id="rim" cx="0" cy="0" r="7"/>
                <circle id="rim2" cx="0" cy="0" r="3.5"/>
                <g id="zoomPlus">
                        <use xlink:href="#rim" fill="#404040">
                                <set attributeName="fill" to="#808080" begin="zoomplus.mouseover" end="zoomplus.mouseout"/>
                        </use>
                        <path d="M-4,0h8M0,-4v8" fill="none" stroke="white" stroke-width="1.5" pointer-events="none"/>
                </g>
                <g id="zoomMin">
                        <use xlink:href="#rim" fill="#404040">
                                <set attributeName="fill" to="#808080" begin="zoomminus.mouseover" end="zoomminus.mouseout"/>
                        </use>
                        <path d="M-4,0h8" fill="none" stroke="white" stroke-width="1.5" pointer-events="none"/>
                </g>
                <g id="dirArrow">
                        <path fill="none" stroke="white" stroke-width="1.5" d="M0,-3.0v7 M-2.5,-0.5L0,-3.0L2.5,-0.5"/>
                </g>
               <g id="resetDef">
                       <use xlink:href="#rim2" fill="#404040">
                               <set attributeName="fill" to="#808080" begin="reset.mouseover" end="reset.mouseout"/>
                       </use>
               </g>
        </defs>

<script type="text/javascript">
var viewWidth = 1190;
var viewHeight = 66;
var sectionId = 'dynsection-9';
</script>
<script xlink:href="../../svgpan.js"/>
<svg id="graph" class="graph">
<g id="viewport">
<title>model.Parser.match</title>
<polygon fill="white" stroke="none" points="-4,4 -4,-62 1186,-62 1186,4 -4,4"/>
<!-- Node1 -->
<g id="node1" class="node"><title>Node1</title>
<polygon fill="#bfbfbf" stroke="black" points="0.5,-19.5 0.5,-38.5 113.5,-38.5 113.5,-19.5 0.5,-19.5"/>
<text text-anchor="middle" x="57" y="-26.5" font-family="Helvetica,sans-Serif" font-size="10.00">model.Parser.match</text>
</g>
<!-- Node2 -->
<g id="node2" class="node"><title>Node2</title>
<g id="a_node2"><a xlink:href="../../dc/df5/classmodel_1_1_parser.html#ae83c95a5190fc22b9b70b1a40b76661c" target="_top" xlink:title="model.Parser.makeTree">
<polygon fill="white" stroke="black" points="328,-19.5 328,-38.5 456,-38.5 456,-19.5 328,-19.5"/>
<text text-anchor="middle" x="392" y="-26.5" font-family="Helvetica,sans-Serif" font-size="10.00">model.Parser.makeTree</text>
</a>
</g>
</g>
<!-- Node1&#45;&gt;Node2 -->
<g id="edge1" class="edge"><title>Node1&#45;&gt;Node2</title>
<path fill="none" stroke="midnightblue" d="M123.737,-29C183.002,-29 269.566,-29 327.978,-29"/>
<polygon fill="midnightblue" stroke="midnightblue" points="123.737,-25.5001 113.737,-29 123.737,-32.5001 123.737,-25.5001"/>
</g>
<!-- Node9 -->
<g id="node9" class="node"><title>Node9</title>
<g id="a_node9"><a xlink:href="../../dc/df5/classmodel_1_1_parser.html#a367f66d63cda3e0b2733b078c20a1f73" target="_top" xlink:title="model.Parser.testMatches">
<polygon fill="white" stroke="black" points="150.5,-0.5 150.5,-19.5 291.5,-19.5 291.5,-0.5 150.5,-0.5"/>
<text text-anchor="middle" x="221" y="-7.5" font-family="Helvetica,sans-Serif" font-size="10.00">model.Parser.testMatches</text>
</a>
</g>
</g>
<!-- Node1&#45;&gt;Node9 -->
<g id="edge8" class="edge"><title>Node1&#45;&gt;Node9</title>
<path fill="none" stroke="midnightblue" d="M123.876,-21.2738C132.618,-20.2485 141.604,-19.1946 150.407,-18.1622"/>
<polygon fill="midnightblue" stroke="midnightblue" points="123.275,-17.8202 113.751,-22.4613 124.091,-24.7725 123.275,-17.8202"/>
</g>
<!-- Node3 -->
<g id="node3" class="node"><title>Node3</title>
<g id="a_node3"><a xlink:href="../../dc/df5/classmodel_1_1_parser.html#ab83c099e5a13c82b1a12d7eedda6fbf9" target="_top" xlink:title="model.Parser.parseAndExecute">
<polygon fill="white" stroke="black" points="492,-19.5 492,-38.5 658,-38.5 658,-19.5 492,-19.5"/>
<text text-anchor="middle" x="575" y="-26.5" font-family="Helvetica,sans-Serif" font-size="10.00">model.Parser.parseAndExecute</text>
</a>
</g>
</g>
<!-- Node2&#45;&gt;Node3 -->
<g id="edge2" class="edge"><title>Node2&#45;&gt;Node3</title>
<path fill="none" stroke="midnightblue" d="M466.192,-29C474.608,-29 483.231,-29 491.755,-29"/>
<polygon fill="midnightblue" stroke="midnightblue" points="466.051,-25.5001 456.051,-29 466.051,-32.5001 466.051,-25.5001"/>
</g>
<!-- Node4 -->
<g id="node4" class="node"><title>Node4</title>
<g id="a_node4"><a xlink:href="../../da/dc8/classview_1_1_editor.html#a149e24d4e5e4464f3fb1601f2717663b" target="_top" xlink:title="view.Editor.parse">
<polygon fill="white" stroke="black" points="730,-38.5 730,-57.5 826,-57.5 826,-38.5 730,-38.5"/>
<text text-anchor="middle" x="778" y="-45.5" font-family="Helvetica,sans-Serif" font-size="10.00">view.Editor.parse</text>
</a>
</g>
</g>
<!-- Node3&#45;&gt;Node4 -->
<g id="edge3" class="edge"><title>Node3&#45;&gt;Node4</title>
<path fill="none" stroke="midnightblue" d="M668.131,-37.7089C689.474,-39.7264 711.324,-41.7918 729.795,-43.5378"/>
<polygon fill="midnightblue" stroke="midnightblue" points="668.329,-34.2121 658.044,-36.7554 667.671,-41.1811 668.329,-34.2121"/>
</g>
<!-- Node7 -->
<g id="node7" class="node"><title>Node7</title>
<g id="a_node7"><a xlink:href="../../d1/dc7/classview_1_1_side_bar.html#ac97dbdf731a291e46ba643c78b4c5a93" target="_top" xlink:title="view.SideBar.createHistoryPane">
<polygon fill="white" stroke="black" points="694.5,-0.5 694.5,-19.5 861.5,-19.5 861.5,-0.5 694.5,-0.5"/>
<text text-anchor="middle" x="778" y="-7.5" font-family="Helvetica,sans-Serif" font-size="10.00">view.SideBar.createHistoryPane</text>
</a>
</g>
</g>
<!-- Node3&#45;&gt;Node7 -->
<g id="edge6" class="edge"><title>Node3&#45;&gt;Node7</title>
<path fill="none" stroke="midnightblue" d="M668.189,-20.2856C676.877,-19.4644 685.648,-18.6353 694.241,-17.823"/>
<polygon fill="midnightblue" stroke="midnightblue" points="667.671,-16.8189 658.044,-21.2446 668.329,-23.7879 667.671,-16.8189"/>
</g>
<!-- Node5 -->
<g id="node5" class="node"><title>Node5</title>
<g id="a_node5"><a xlink:href="../../da/dc8/classview_1_1_editor.html#abd790752cfd8c9f01fb5b27a3680a982" target="_top" xlink:title="view.Editor.createRunButton">
<polygon fill="white" stroke="black" points="898.5,-38.5 898.5,-57.5 1047.5,-57.5 1047.5,-38.5 898.5,-38.5"/>
<text text-anchor="middle" x="973" y="-45.5" font-family="Helvetica,sans-Serif" font-size="10.00">view.Editor.createRunButton</text>
</a>
</g>
</g>
<!-- Node4&#45;&gt;Node5 -->
<g id="edge4" class="edge"><title>Node4&#45;&gt;Node5</title>
<path fill="none" stroke="midnightblue" d="M836.4,-48C855.791,-48 877.718,-48 898.198,-48"/>
<polygon fill="midnightblue" stroke="midnightblue" points="836.213,-44.5001 826.213,-48 836.213,-51.5001 836.213,-44.5001"/>
</g>
<!-- Node6 -->
<g id="node6" class="node"><title>Node6</title>
<g id="a_node6"><a xlink:href="../../da/dc8/classview_1_1_editor.html#a5b88172770caabfc64e9b7adaee1a2c5" target="_top" xlink:title="view.Editor.Editor">
<polygon fill="white" stroke="black" points="1084.5,-38.5 1084.5,-57.5 1181.5,-57.5 1181.5,-38.5 1084.5,-38.5"/>
<text text-anchor="middle" x="1133" y="-45.5" font-family="Helvetica,sans-Serif" font-size="10.00">view.Editor.Editor</text>
</a>
</g>
</g>
<!-- Node5&#45;&gt;Node6 -->
<g id="edge5" class="edge"><title>Node5&#45;&gt;Node6</title>
<path fill="none" stroke="midnightblue" d="M1058.07,-48C1067.06,-48 1075.96,-48 1084.3,-48"/>
<polygon fill="midnightblue" stroke="midnightblue" points="1057.91,-44.5001 1047.91,-48 1057.91,-51.5001 1057.91,-44.5001"/>
</g>
<!-- Node8 -->
<g id="node8" class="node"><title>Node8</title>
<g id="a_node8"><a xlink:href="../../d1/dc7/classview_1_1_side_bar.html#aaa1459e91d727b5bd46e51f5b4a596f2" target="_top" xlink:title="view.SideBar.SideBar">
<polygon fill="white" stroke="black" points="915,-0.5 915,-19.5 1031,-19.5 1031,-0.5 915,-0.5"/>
<text text-anchor="middle" x="973" y="-7.5" font-family="Helvetica,sans-Serif" font-size="10.00">view.SideBar.SideBar</text>
</a>
</g>
</g>
<!-- Node7&#45;&gt;Node8 -->
<g id="edge7" class="edge"><title>Node7&#45;&gt;Node8</title>
<path fill="none" stroke="midnightblue" d="M871.812,-10C886.484,-10 901.271,-10 914.811,-10"/>
<polygon fill="midnightblue" stroke="midnightblue" points="871.689,-6.5001 861.689,-10 871.689,-13.5001 871.689,-6.5001"/>
</g>
<!-- Node9&#45;&gt;Node2 -->
<g id="edge9" class="edge"><title>Node9&#45;&gt;Node2</title>
<path fill="none" stroke="midnightblue" d="M301.916,-18.9847C310.651,-19.9667 319.452,-20.9561 327.943,-21.9107"/>
<polygon fill="midnightblue" stroke="midnightblue" points="302.043,-15.4769 291.714,-17.8377 301.261,-22.4331 302.043,-15.4769"/>
</g>
</g>
</svg>
        <g id="navigator" transform="translate(0 0)" fill="#404254">
                <rect fill="#f2f5e9" fill-opacity="0.5" stroke="#606060" stroke-width=".5" x="0" y="0" width="60" height="60"/>
                <use id="zoomplus" xlink:href="#zoomPlus" x="17" y="9" onmousedown="handleZoom(evt,'in')"/>
                <use id="zoomminus" xlink:href="#zoomMin" x="42" y="9" onmousedown="handleZoom(evt,'out')"/>
                <use id="reset" xlink:href="#resetDef" x="30" y="36" onmousedown="handleReset()"/>
                <g id="arrowUp" xlink:href="#dirArrow" transform="translate(30 24)" onmousedown="handlePan(0,-1)">
                  <use xlink:href="#rim" fill="#404040">
                        <set attributeName="fill" to="#808080" begin="arrowUp.mouseover" end="arrowUp.mouseout"/>
                  </use>
                  <path fill="none" stroke="white" stroke-width="1.5" d="M0,-3.0v7 M-2.5,-0.5L0,-3.0L2.5,-0.5"/>
                </g>
                <g id="arrowRight" xlink:href="#dirArrow" transform="rotate(90) translate(36 -43)" onmousedown="handlePan(1,0)">
                  <use xlink:href="#rim" fill="#404040">
                        <set attributeName="fill" to="#808080" begin="arrowRight.mouseover" end="arrowRight.mouseout"/>
                  </use>
                  <path fill="none" stroke="white" stroke-width="1.5" d="M0,-3.0v7 M-2.5,-0.5L0,-3.0L2.5,-0.5"/>
                </g>
                <g id="arrowDown" xlink:href="#dirArrow" transform="rotate(180) translate(-30 -48)" onmousedown="handlePan(0,1)">
                  <use xlink:href="#rim" fill="#404040">
                        <set attributeName="fill" to="#808080" begin="arrowDown.mouseover" end="arrowDown.mouseout"/>
                  </use>
                  <path fill="none" stroke="white" stroke-width="1.5" d="M0,-3.0v7 M-2.5,-0.5L0,-3.0L2.5,-0.5"/>
                </g>
                <g id="arrowLeft" xlink:href="#dirArrow" transform="rotate(270) translate(-36 17)" onmousedown="handlePan(-1,0)">
                  <use xlink:href="#rim" fill="#404040">
                        <set attributeName="fill" to="#808080" begin="arrowLeft.mouseover" end="arrowLeft.mouseout"/>
                  </use>
                  <path fill="none" stroke="white" stroke-width="1.5" d="M0,-3.0v7 M-2.5,-0.5L0,-3.0L2.5,-0.5"/>
                </g>
        </g>
        <svg viewBox="0 0 15 15" width="100%" height="30px" preserveAspectRatio="xMaxYMin meet">
         <g id="arrow_out" transform="scale(0.3 0.3)">
          <a xlink:href="classmodel_1_1_parser_ae24603572f6f919b363a7cef0cbe45c0_icgraph_org.svg" target="_base">
           <rect id="button" ry="5" rx="5" y="6" x="6" height="38" width="38"
                fill="#f2f5e9" fill-opacity="0.5" stroke="#606060" stroke-width="1.0"/>
           <path id="arrow"
             d="M 11.500037,31.436501 C 11.940474,20.09759 22.043105,11.32322 32.158766,21.979434 L 37.068811,17.246167 C 37.068811,17.246167 37.088388,32 37.088388,32 L 22.160133,31.978069 C 22.160133,31.978069 26.997745,27.140456 26.997745,27.140456 C 18.528582,18.264221 13.291696,25.230495 11.500037,31.436501 z"
             style="fill:#404040;"/>
          </a>
         </g>
        </svg>
</svg>
