<?xml version="1.0" encoding="UTF-8" standalone="no"?>
<!DOCTYPE svg PUBLIC "-//W3C//DTD SVG 1.1//EN"
 "http://www.w3.org/Graphics/SVG/1.1/DTD/svg11.dtd">
<!-- Generated by graphviz version 2.36.0 (20140111.2315)
 -->
<!-- Title: model.Parser.parseAndExecute Pages: 1 -->
<svg width="830pt" height="406pt"
 viewBox="0.00 0.00 830.00 405.63" xmlns="http://www.w3.org/2000/svg" xmlns:xlink="http://www.w3.org/1999/xlink">
<g id="graph0" class="graph" transform="scale(1 1) rotate(0) translate(4 401.627)">
<title>model.Parser.parseAndExecute</title>
<polygon fill="white" stroke="none" points="-4,4 -4,-401.627 826,-401.627 826,4 -4,4"/>
<!-- Node1 -->
<g id="node1" class="node"><title>Node1</title>
<polygon fill="#bfbfbf" stroke="black" points="0,-144.564 0,-163.564 166,-163.564 166,-144.564 0,-144.564"/>
<text text-anchor="middle" x="83" y="-151.564" font-family="Helvetica,sans-Serif" font-size="10.00">model.Parser.parseAndExecute</text>
</g>
<!-- Node2 -->
<g id="node2" class="node"><title>Node2</title>
<g id="a_node2"><a xlink:href="../../d1/dca/classmodel_1_1_execution_environment.html#abf8338dc619905fbc175bb52b246843e" target="_top" xlink:title="model.ExecutionEnvironment.get\lActiveList">
<polygon fill="white" stroke="black" points="202,-205.064 202,-235.064 378,-235.064 378,-205.064 202,-205.064"/>
<text text-anchor="start" x="210" y="-223.064" font-family="Helvetica,sans-Serif" font-size="10.00">model.ExecutionEnvironment.get</text>
<text text-anchor="middle" x="290" y="-212.064" font-family="Helvetica,sans-Serif" font-size="10.00">ActiveList</text>
</a>
</g>
</g>
<!-- Node1&#45;&gt;Node2 -->
<g id="edge1" class="edge"><title>Node1&#45;&gt;Node2</title>
<path fill="none" stroke="midnightblue" d="M110.109,-163.596C133.929,-172.182 170.164,-184.968 202,-195.064 209.478,-197.436 217.348,-199.834 225.173,-202.157"/>
<polygon fill="midnightblue" stroke="midnightblue" points="224.446,-205.591 235.027,-205.051 226.419,-198.875 224.446,-205.591"/>
</g>
<!-- Node3 -->
<g id="node3" class="node"><title>Node3</title>
<g id="a_node3"><a xlink:href="../../dc/df5/classmodel_1_1_parser.html#ae83c95a5190fc22b9b70b1a40b76661c" target="_top" xlink:title="model.Parser.makeTree">
<polygon fill="white" stroke="black" points="226,-166.564 226,-185.564 354,-185.564 354,-166.564 226,-166.564"/>
<text text-anchor="middle" x="290" y="-173.564" font-family="Helvetica,sans-Serif" font-size="10.00">model.Parser.makeTree</text>
</a>
</g>
</g>
<!-- Node1&#45;&gt;Node3 -->
<g id="edge2" class="edge"><title>Node1&#45;&gt;Node3</title>
<path fill="none" stroke="midnightblue" d="M166.2,-162.886C182.465,-164.631 199.44,-166.453 215.398,-168.166"/>
<polygon fill="midnightblue" stroke="midnightblue" points="215.404,-171.686 225.72,-169.273 216.151,-164.726 215.404,-171.686"/>
</g>
<!-- Node12 -->
<g id="node12" class="node"><title>Node12</title>
<g id="a_node12"><a xlink:href="../../d6/de7/classview_1_1_s_logo_view.html#acf8498d7311bed1575638cca1c3f8777" target="_top" xlink:title="view.SLogoView.openDialog">
<polygon fill="white" stroke="black" points="429.5,-29.5645 429.5,-48.5645 576.5,-48.5645 576.5,-29.5645 429.5,-29.5645"/>
<text text-anchor="middle" x="503" y="-36.5645" font-family="Helvetica,sans-Serif" font-size="10.00">view.SLogoView.openDialog</text>
</a>
</g>
</g>
<!-- Node1&#45;&gt;Node12 -->
<g id="edge14" class="edge"><title>Node1&#45;&gt;Node12</title>
<path fill="none" stroke="midnightblue" d="M114.286,-144.476C172.168,-126.326 302.652,-86.2438 414,-58.0645 423.99,-55.5363 434.671,-53.0502 445.024,-50.7521"/>
<polygon fill="midnightblue" stroke="midnightblue" points="445.796,-54.1662 454.817,-48.6111 444.3,-47.3277 445.796,-54.1662"/>
</g>
<!-- Node14 -->
<g id="node14" class="node"><title>Node14</title>
<g id="a_node14"><a xlink:href="../../d1/dca/classmodel_1_1_execution_environment.html#a472ef4da5205b0e95ec51fdbf52f654a" target="_top" xlink:title="model.ExecutionEnvironment.set\lActiveTurtle">
<polygon fill="white" stroke="black" points="202.5,-7.06448 202.5,-37.0645 377.5,-37.0645 377.5,-7.06448 202.5,-7.06448"/>
<text text-anchor="start" x="210.5" y="-25.0645" font-family="Helvetica,sans-Serif" font-size="10.00">model.ExecutionEnvironment.set</text>
<text text-anchor="middle" x="290" y="-14.0645" font-family="Helvetica,sans-Serif" font-size="10.00">ActiveTurtle</text>
</a>
</g>
</g>
<!-- Node1&#45;&gt;Node14 -->
<g id="edge15" class="edge"><title>Node1&#45;&gt;Node14</title>
<path fill="none" stroke="midnightblue" d="M99.0741,-144.358C132.275,-122.98 212.317,-71.441 257.172,-42.5584"/>
<polygon fill="midnightblue" stroke="midnightblue" points="259.137,-45.4562 265.65,-37.0996 255.347,-39.5707 259.137,-45.4562"/>
</g>
<!-- Node4 -->
<g id="node4" class="node"><title>Node4</title>
<g id="a_node4"><a xlink:href="../../d2/d19/classmodel_1_1_node.html#a59dd0ae47774a51a1590d7fd205b14d5" target="_top" xlink:title="model.Node.addChild">
<polygon fill="white" stroke="black" points="443.5,-292.564 443.5,-311.564 562.5,-311.564 562.5,-292.564 443.5,-292.564"/>
<text text-anchor="middle" x="503" y="-299.564" font-family="Helvetica,sans-Serif" font-size="10.00">model.Node.addChild</text>
</a>
</g>
</g>
<!-- Node3&#45;&gt;Node4 -->
<g id="edge3" class="edge"><title>Node3&#45;&gt;Node4</title>
<path fill="none" stroke="midnightblue" d="M354.29,-183.056C362.901,-186.079 371.126,-190.273 378,-196.064 409.688,-222.763 382.279,-255.405 414,-282.064 419.772,-286.916 426.484,-290.65 433.578,-293.515"/>
<polygon fill="midnightblue" stroke="midnightblue" points="432.842,-296.963 443.437,-296.907 435.12,-290.344 432.842,-296.963"/>
</g>
<!-- Node5 -->
<g id="node5" class="node"><title>Node5</title>
<g id="a_node5"><a xlink:href="../../d1/dca/classmodel_1_1_execution_environment.html#a83ef2b9eaef50b67c0b978f2abb8200c" target="_top" xlink:title="model.ExecutionEnvironment.add\lCommand">
<polygon fill="white" stroke="black" points="414,-243.064 414,-273.064 592,-273.064 592,-243.064 414,-243.064"/>
<text text-anchor="start" x="422" y="-261.064" font-family="Helvetica,sans-Serif" font-size="10.00">model.ExecutionEnvironment.add</text>
<text text-anchor="middle" x="503" y="-250.064" font-family="Helvetica,sans-Serif" font-size="10.00">Command</text>
</a>
</g>
</g>
<!-- Node3&#45;&gt;Node5 -->
<g id="edge4" class="edge"><title>Node3&#45;&gt;Node5</title>
<path fill="none" stroke="midnightblue" d="M353.025,-185.678C361.718,-188.338 370.301,-191.732 378,-196.064 397.996,-207.316 394.297,-221.309 414,-233.064 417.606,-235.216 421.405,-237.19 425.32,-238.999"/>
<polygon fill="midnightblue" stroke="midnightblue" points="424.054,-242.264 434.627,-242.931 426.778,-235.815 424.054,-242.264"/>
</g>
<!-- Node7 -->
<g id="node7" class="node"><title>Node7</title>
<g id="a_node7"><a xlink:href="../../d2/d19/classmodel_1_1_node.html#a30a55e40eef5514f8201573584ca9aea" target="_top" xlink:title="model.Node.getChildren">
<polygon fill="white" stroke="black" points="436.5,-204.564 436.5,-223.564 569.5,-223.564 569.5,-204.564 436.5,-204.564"/>
<text text-anchor="middle" x="503" y="-211.564" font-family="Helvetica,sans-Serif" font-size="10.00">model.Node.getChildren</text>
</a>
</g>
</g>
<!-- Node3&#45;&gt;Node7 -->
<g id="edge6" class="edge"><title>Node3&#45;&gt;Node7</title>
<path fill="none" stroke="midnightblue" d="M343.972,-185.604C372.817,-190.799 408.695,-197.261 438.972,-202.713"/>
<polygon fill="midnightblue" stroke="midnightblue" points="438.544,-206.193 449.006,-204.521 439.785,-199.304 438.544,-206.193"/>
</g>
<!-- Node8 -->
<g id="node8" class="node"><title>Node8</title>
<g id="a_node8"><a xlink:href="../../d2/d19/classmodel_1_1_node.html#a3036121af674a3a8ff49e82bd77ab5a4" target="_top" xlink:title="model.Node.getInstruction">
<polygon fill="white" stroke="black" points="431,-166.564 431,-185.564 575,-185.564 575,-166.564 431,-166.564"/>
<text text-anchor="middle" x="503" y="-173.564" font-family="Helvetica,sans-Serif" font-size="10.00">model.Node.getInstruction</text>
</a>
</g>
</g>
<!-- Node3&#45;&gt;Node8 -->
<g id="edge7" class="edge"><title>Node3&#45;&gt;Node8</title>
<path fill="none" stroke="midnightblue" d="M354.021,-176.064C374.977,-176.064 398.618,-176.064 420.752,-176.064"/>
<polygon fill="midnightblue" stroke="midnightblue" points="420.801,-179.565 430.801,-176.064 420.801,-172.565 420.801,-179.565"/>
</g>
<!-- Node9 -->
<g id="node9" class="node"><title>Node9</title>
<g id="a_node9"><a xlink:href="../../d1/dea/classmodel_1_1instructions_1_1_instruction.html#afd4726dcbdbf559356c38970061d9b79" target="_top" xlink:title="model.instructions.Instruction.get\lNumberOfArguments">
<polygon fill="white" stroke="black" points="414.5,-117.064 414.5,-147.064 591.5,-147.064 591.5,-117.064 414.5,-117.064"/>
<text text-anchor="start" x="422.5" y="-135.064" font-family="Helvetica,sans-Serif" font-size="10.00">model.instructions.Instruction.get</text>
<text text-anchor="middle" x="503" y="-124.064" font-family="Helvetica,sans-Serif" font-size="10.00">NumberOfArguments</text>
</a>
</g>
</g>
<!-- Node3&#45;&gt;Node9 -->
<g id="edge8" class="edge"><title>Node3&#45;&gt;Node9</title>
<path fill="none" stroke="midnightblue" d="M336.784,-166.517C361.07,-161.453 391.652,-155.075 419.882,-149.189"/>
<polygon fill="midnightblue" stroke="midnightblue" points="420.68,-152.598 429.755,-147.13 419.251,-145.745 420.68,-152.598"/>
</g>
<!-- Node10 -->
<g id="node10" class="node"><title>Node10</title>
<g id="a_node10"><a xlink:href="../../d1/dca/classmodel_1_1_execution_environment.html#a7eac9bbab890abbeb7db1a095fca5fc8" target="_top" xlink:title="model.ExecutionEnvironment.get\lUserCommandMap">
<polygon fill="white" stroke="black" points="415,-68.0645 415,-98.0645 591,-98.0645 591,-68.0645 415,-68.0645"/>
<text text-anchor="start" x="423" y="-86.0645" font-family="Helvetica,sans-Serif" font-size="10.00">model.ExecutionEnvironment.get</text>
<text text-anchor="middle" x="503" y="-75.0645" font-family="Helvetica,sans-Serif" font-size="10.00">UserCommandMap</text>
</a>
</g>
</g>
<!-- Node3&#45;&gt;Node10 -->
<g id="edge9" class="edge"><title>Node3&#45;&gt;Node10</title>
<path fill="none" stroke="midnightblue" d="M307.484,-166.335C335.799,-149.727 392.681,-116.85 414,-108.064 419.782,-105.682 425.867,-103.44 432.025,-101.353"/>
<polygon fill="midnightblue" stroke="midnightblue" points="433.299,-104.62 441.73,-98.2031 431.138,-97.9619 433.299,-104.62"/>
</g>
<!-- Node11 -->
<g id="node11" class="node"><title>Node11</title>
<g id="a_node11"><a xlink:href="../../dc/df5/classmodel_1_1_parser.html#ae24603572f6f919b363a7cef0cbe45c0" target="_top" xlink:title="model.Parser.match">
<polygon fill="white" stroke="black" points="668.5,-349.564 668.5,-368.564 781.5,-368.564 781.5,-349.564 668.5,-349.564"/>
<text text-anchor="middle" x="725" y="-356.564" font-family="Helvetica,sans-Serif" font-size="10.00">model.Parser.match</text>
</a>
</g>
</g>
<!-- Node3&#45;&gt;Node11 -->
<g id="edge10" class="edge"><title>Node3&#45;&gt;Node11</title>
<path fill="none" stroke="midnightblue" d="M354.39,-181.671C363.196,-184.854 371.453,-189.461 378,-196.064 430.235,-248.75 356.159,-312.604 414,-359.064 493.692,-423.077 625.766,-392.107 688.634,-371.857"/>
<polygon fill="midnightblue" stroke="midnightblue" points="690.081,-375.065 698.469,-368.593 687.876,-368.421 690.081,-375.065"/>
</g>
<!-- Node3&#45;&gt;Node12 -->
<g id="edge11" class="edge"><title>Node3&#45;&gt;Node12</title>
<path fill="none" stroke="midnightblue" d="M315.597,-166.436C334.518,-158.049 360.33,-144.359 378,-126.064 401.757,-101.468 386.741,-78.7125 414,-58.0645 416.474,-56.1903 419.094,-54.4925 421.822,-52.9551"/>
<polygon fill="midnightblue" stroke="midnightblue" points="423.389,-56.0854 430.858,-48.571 420.333,-49.7876 423.389,-56.0854"/>
</g>
<!-- Node13 -->
<g id="node13" class="node"><title>Node13</title>
<g id="a_node13"><a xlink:href="../../dc/df5/classmodel_1_1_parser.html#a367f66d63cda3e0b2733b078c20a1f73" target="_top" xlink:title="model.Parser.testMatches">
<polygon fill="white" stroke="black" points="432.5,-330.564 432.5,-349.564 573.5,-349.564 573.5,-330.564 432.5,-330.564"/>
<text text-anchor="middle" x="503" y="-337.564" font-family="Helvetica,sans-Serif" font-size="10.00">model.Parser.testMatches</text>
</a>
</g>
</g>
<!-- Node3&#45;&gt;Node13 -->
<g id="edge12" class="edge"><title>Node3&#45;&gt;Node13</title>
<path fill="none" stroke="midnightblue" d="M354.03,-182.04C362.882,-185.175 371.248,-189.671 378,-196.064 419.978,-235.817 371.758,-281.592 414,-321.064 416.791,-323.672 419.851,-325.955 423.103,-327.952"/>
<polygon fill="midnightblue" stroke="midnightblue" points="421.615,-331.123 432.108,-332.594 424.823,-324.901 421.615,-331.123"/>
</g>
<!-- Node6 -->
<g id="node6" class="node"><title>Node6</title>
<g id="a_node6"><a xlink:href="../../d1/dca/classmodel_1_1_execution_environment.html#a93fd01341f06dfa81727344b120aef66" target="_top" xlink:title="model.ExecutionEnvironment.update\lObserver">
<polygon fill="white" stroke="black" points="628,-115.064 628,-145.064 822,-145.064 822,-115.064 628,-115.064"/>
<text text-anchor="start" x="636" y="-133.064" font-family="Helvetica,sans-Serif" font-size="10.00">model.ExecutionEnvironment.update</text>
<text text-anchor="middle" x="725" y="-122.064" font-family="Helvetica,sans-Serif" font-size="10.00">Observer</text>
</a>
</g>
</g>
<!-- Node5&#45;&gt;Node6 -->
<g id="edge5" class="edge"><title>Node5&#45;&gt;Node6</title>
<path fill="none" stroke="midnightblue" d="M568.087,-243.023C576.324,-240.178 584.494,-236.875 592,-233.064 634.333,-211.576 676.378,-175.583 701.271,-152.339"/>
<polygon fill="midnightblue" stroke="midnightblue" points="703.876,-154.692 708.73,-145.274 699.063,-149.61 703.876,-154.692"/>
</g>
<!-- Node13&#45;&gt;Node11 -->
<g id="edge13" class="edge"><title>Node13&#45;&gt;Node11</title>
<path fill="none" stroke="midnightblue" d="M573.609,-346.076C600.734,-348.419 631.664,-351.09 658.392,-353.398"/>
<polygon fill="midnightblue" stroke="midnightblue" points="658.15,-356.89 668.414,-354.264 658.752,-349.916 658.15,-356.89"/>
</g>
<!-- Node14&#45;&gt;Node6 -->
<g id="edge16" class="edge"><title>Node14&#45;&gt;Node6</title>
<path fill="none" stroke="midnightblue" d="M368.952,-7.06264C431.243,1.5455 519.769,6.08678 592,-20.0645 639.789,-37.3663 682.434,-80.3604 705.616,-107.186"/>
<polygon fill="midnightblue" stroke="midnightblue" points="703.043,-109.564 712.169,-114.945 708.391,-105.047 703.043,-109.564"/>
</g>
</g>
</svg>
