<?xml version="1.0" encoding="UTF-8" standalone="no"?>
<!DOCTYPE svg PUBLIC "-//W3C//DTD SVG 1.1//EN"
 "http://www.w3.org/Graphics/SVG/1.1/DTD/svg11.dtd">
<!-- Generated by graphviz version 2.36.0 (20140111.2315)
 -->
<!-- Title: model.Parser.setLanguage Pages: 1 -->
<svg width="526pt" height="28pt"
 viewBox="0.00 0.00 526.00 28.00" xmlns="http://www.w3.org/2000/svg" xmlns:xlink="http://www.w3.org/1999/xlink">
<g id="graph0" class="graph" transform="scale(1 1) rotate(0) translate(4 24)">
<title>model.Parser.setLanguage</title>
<polygon fill="white" stroke="none" points="-4,4 -4,-24 522,-24 522,4 -4,4"/>
<!-- Node1 -->
<g id="node1" class="node"><title>Node1</title>
<polygon fill="#bfbfbf" stroke="black" points="0,-0.5 0,-19.5 144,-19.5 144,-0.5 0,-0.5"/>
<text text-anchor="middle" x="72" y="-7.5" font-family="Helvetica,sans-Serif" font-size="10.00">model.Parser.setLanguage</text>
</g>
<!-- Node2 -->
<g id="node2" class="node"><title>Node2</title>
<g id="a_node2"><a xlink:href="../../dc/df5/classmodel_1_1_parser.html#aa777d197a541c6ca6be224c0ce6754a5" target="_top" xlink:title="model.Parser.addAllPatterns">
<polygon fill="white" stroke="black" points="180.5,-0.5 180.5,-19.5 331.5,-19.5 331.5,-0.5 180.5,-0.5"/>
<text text-anchor="middle" x="256" y="-7.5" font-family="Helvetica,sans-Serif" font-size="10.00">model.Parser.addAllPatterns</text>
</a>
</g>
</g>
<!-- Node1&#45;&gt;Node2 -->
<g id="edge1" class="edge"><title>Node1&#45;&gt;Node2</title>
<path fill="none" stroke="midnightblue" d="M144.148,-10C152.675,-10 161.447,-10 170.144,-10"/>
<polygon fill="midnightblue" stroke="midnightblue" points="170.299,-13.5001 180.299,-10 170.299,-6.5001 170.299,-13.5001"/>
</g>
<!-- Node3 -->
<g id="node3" class="node"><title>Node3</title>
<g id="a_node3"><a xlink:href="../../dc/df5/classmodel_1_1_parser.html#ab8b41b81d9a6ea903b050ca5a5235004" target="_top" xlink:title="model.Parser.makePatterns">
<polygon fill="white" stroke="black" points="368.5,-0.5 368.5,-19.5 517.5,-19.5 517.5,-0.5 368.5,-0.5"/>
<text text-anchor="middle" x="443" y="-7.5" font-family="Helvetica,sans-Serif" font-size="10.00">model.Parser.makePatterns</text>
</a>
</g>
</g>
<!-- Node2&#45;&gt;Node3 -->
<g id="edge2" class="edge"><title>Node2&#45;&gt;Node3</title>
<path fill="none" stroke="midnightblue" d="M331.713,-10C340.363,-10 349.228,-10 357.99,-10"/>
<polygon fill="midnightblue" stroke="midnightblue" points="358.21,-13.5001 368.21,-10 358.21,-6.5001 358.21,-13.5001"/>
</g>
</g>
</svg>
