<?xml version="1.0" encoding="UTF-8" standalone="no"?>
<!DOCTYPE svg PUBLIC "-//W3C//DTD SVG 1.1//EN"
 "http://www.w3.org/Graphics/SVG/1.1/DTD/svg11.dtd">
<!-- Generated by graphviz version 2.36.0 (20140111.2315)
 -->
<!-- Title: model.Parser.addAllPatterns Pages: 1 -->
<svg width="796pt" height="71pt"
 viewBox="0.00 0.00 796.00 71.00" xmlns="http://www.w3.org/2000/svg" xmlns:xlink="http://www.w3.org/1999/xlink">
<g id="graph0" class="graph" transform="scale(1 1) rotate(0) translate(4 67)">
<title>model.Parser.addAllPatterns</title>
<polygon fill="white" stroke="none" points="-4,4 -4,-67 792,-67 792,4 -4,4"/>
<!-- Node1 -->
<g id="node1" class="node"><title>Node1</title>
<polygon fill="#bfbfbf" stroke="black" points="0.5,-24.5 0.5,-43.5 151.5,-43.5 151.5,-24.5 0.5,-24.5"/>
<text text-anchor="middle" x="76" y="-31.5" font-family="Helvetica,sans-Serif" font-size="10.00">model.Parser.addAllPatterns</text>
</g>
<!-- Node2 -->
<g id="node2" class="node"><title>Node2</title>
<g id="a_node2"><a xlink:href="../../dc/df5/classmodel_1_1_parser.html#a303d64f26ab1dccf9842d2825751ecdb" target="_top" xlink:title="model.Parser.Parser">
<polygon fill="white" stroke="black" points="204,-43.5 204,-62.5 316,-62.5 316,-43.5 204,-43.5"/>
<text text-anchor="middle" x="260" y="-50.5" font-family="Helvetica,sans-Serif" font-size="10.00">model.Parser.Parser</text>
</a>
</g>
</g>
<!-- Node1&#45;&gt;Node2 -->
<g id="edge1" class="edge"><title>Node1&#45;&gt;Node2</title>
<path fill="none" stroke="midnightblue" d="M161.866,-42.8596C176.107,-44.3463 190.55,-45.8541 203.79,-47.2363"/>
<polygon fill="midnightblue" stroke="midnightblue" points="161.861,-39.3402 151.551,-41.7828 161.134,-46.3023 161.861,-39.3402"/>
</g>
<!-- Node3 -->
<g id="node3" class="node"><title>Node3</title>
<g id="a_node3"><a xlink:href="../../dc/df5/classmodel_1_1_parser.html#a25efafa72b39ed9bf714d0f0f161aa28" target="_top" xlink:title="model.Parser.setLanguage">
<polygon fill="white" stroke="black" points="188,-5.5 188,-24.5 332,-24.5 332,-5.5 188,-5.5"/>
<text text-anchor="middle" x="260" y="-12.5" font-family="Helvetica,sans-Serif" font-size="10.00">model.Parser.setLanguage</text>
</a>
</g>
</g>
<!-- Node1&#45;&gt;Node3 -->
<g id="edge2" class="edge"><title>Node1&#45;&gt;Node3</title>
<path fill="none" stroke="midnightblue" d="M161.731,-25.1545C170.448,-24.2444 179.243,-23.3263 187.793,-22.4337"/>
<polygon fill="midnightblue" stroke="midnightblue" points="161.134,-21.6977 151.551,-26.2172 161.861,-28.6598 161.134,-21.6977"/>
</g>
<!-- Node4 -->
<g id="node4" class="node"><title>Node4</title>
<g id="a_node4"><a xlink:href="../../dc/d3c/classview_1_1_customization_bar.html#a7af574ca79d4f78ad3afbb8fb199ef9c" target="_top" xlink:title="view.CustomizationBar.configure\lLanguageOptions">
<polygon fill="white" stroke="black" points="368.5,-0 368.5,-30 539.5,-30 539.5,-0 368.5,-0"/>
<text text-anchor="start" x="376.5" y="-18" font-family="Helvetica,sans-Serif" font-size="10.00">view.CustomizationBar.configure</text>
<text text-anchor="middle" x="454" y="-7" font-family="Helvetica,sans-Serif" font-size="10.00">LanguageOptions</text>
</a>
</g>
</g>
<!-- Node3&#45;&gt;Node4 -->
<g id="edge3" class="edge"><title>Node3&#45;&gt;Node4</title>
<path fill="none" stroke="midnightblue" d="M342.235,-15C350.843,-15 359.614,-15 368.261,-15"/>
<polygon fill="midnightblue" stroke="midnightblue" points="342.221,-11.5001 332.221,-15 342.221,-18.5001 342.221,-11.5001"/>
</g>
<!-- Node5 -->
<g id="node5" class="node"><title>Node5</title>
<g id="a_node5"><a xlink:href="../../dc/d3c/classview_1_1_customization_bar.html#a51c9304001bd726b1bc57009a08c0f5f" target="_top" xlink:title="view.CustomizationBar.CustomizationBar">
<polygon fill="white" stroke="black" points="576,-5.5 576,-24.5 788,-24.5 788,-5.5 576,-5.5"/>
<text text-anchor="middle" x="682" y="-12.5" font-family="Helvetica,sans-Serif" font-size="10.00">view.CustomizationBar.CustomizationBar</text>
</a>
</g>
</g>
<!-- Node4&#45;&gt;Node5 -->
<g id="edge4" class="edge"><title>Node4&#45;&gt;Node5</title>
<path fill="none" stroke="midnightblue" d="M549.822,-15C558.429,-15 567.181,-15 575.87,-15"/>
<polygon fill="midnightblue" stroke="midnightblue" points="549.797,-11.5001 539.797,-15 549.797,-18.5001 549.797,-11.5001"/>
</g>
</g>
</svg>
