<?xml version="1.0" encoding="UTF-8" standalone="no"?>
<!DOCTYPE svg PUBLIC "-//W3C//DTD SVG 1.1//EN"
 "http://www.w3.org/Graphics/SVG/1.1/DTD/svg11.dtd">
<!-- Generated by graphviz version 2.36.0 (20140111.2315)
 -->
<!-- Title: model.Parser.makePatterns Pages: 1 -->
<svg width="982pt" height="71pt"
 viewBox="0.00 0.00 982.00 71.00" xmlns="http://www.w3.org/2000/svg" xmlns:xlink="http://www.w3.org/1999/xlink">
<g id="graph0" class="graph" transform="scale(1 1) rotate(0) translate(4 67)">
<title>model.Parser.makePatterns</title>
<polygon fill="white" stroke="none" points="-4,4 -4,-67 978,-67 978,4 -4,4"/>
<!-- Node1 -->
<g id="node1" class="node"><title>Node1</title>
<polygon fill="#bfbfbf" stroke="black" points="0.5,-24.5 0.5,-43.5 149.5,-43.5 149.5,-24.5 0.5,-24.5"/>
<text text-anchor="middle" x="75" y="-31.5" font-family="Helvetica,sans-Serif" font-size="10.00">model.Parser.makePatterns</text>
</g>
<!-- Node2 -->
<g id="node2" class="node"><title>Node2</title>
<g id="a_node2"><a xlink:href="../../dc/df5/classmodel_1_1_parser.html#aa777d197a541c6ca6be224c0ce6754a5" target="_top" xlink:title="model.Parser.addAllPatterns">
<polygon fill="white" stroke="black" points="186.5,-24.5 186.5,-43.5 337.5,-43.5 337.5,-24.5 186.5,-24.5"/>
<text text-anchor="middle" x="262" y="-31.5" font-family="Helvetica,sans-Serif" font-size="10.00">model.Parser.addAllPatterns</text>
</a>
</g>
</g>
<!-- Node1&#45;&gt;Node2 -->
<g id="edge1" class="edge"><title>Node1&#45;&gt;Node2</title>
<path fill="none" stroke="midnightblue" d="M159.65,-34C168.566,-34 177.593,-34 186.395,-34"/>
<polygon fill="midnightblue" stroke="midnightblue" points="159.649,-30.5001 149.648,-34 159.648,-37.5001 159.649,-30.5001"/>
</g>
<!-- Node3 -->
<g id="node3" class="node"><title>Node3</title>
<g id="a_node3"><a xlink:href="../../dc/df5/classmodel_1_1_parser.html#a303d64f26ab1dccf9842d2825751ecdb" target="_top" xlink:title="model.Parser.Parser">
<polygon fill="white" stroke="black" points="390,-43.5 390,-62.5 502,-62.5 502,-43.5 390,-43.5"/>
<text text-anchor="middle" x="446" y="-50.5" font-family="Helvetica,sans-Serif" font-size="10.00">model.Parser.Parser</text>
</a>
</g>
</g>
<!-- Node2&#45;&gt;Node3 -->
<g id="edge2" class="edge"><title>Node2&#45;&gt;Node3</title>
<path fill="none" stroke="midnightblue" d="M347.866,-42.8596C362.107,-44.3463 376.55,-45.8541 389.79,-47.2363"/>
<polygon fill="midnightblue" stroke="midnightblue" points="347.861,-39.3402 337.551,-41.7828 347.134,-46.3023 347.861,-39.3402"/>
</g>
<!-- Node4 -->
<g id="node4" class="node"><title>Node4</title>
<g id="a_node4"><a xlink:href="../../dc/df5/classmodel_1_1_parser.html#a25efafa72b39ed9bf714d0f0f161aa28" target="_top" xlink:title="model.Parser.setLanguage">
<polygon fill="white" stroke="black" points="374,-5.5 374,-24.5 518,-24.5 518,-5.5 374,-5.5"/>
<text text-anchor="middle" x="446" y="-12.5" font-family="Helvetica,sans-Serif" font-size="10.00">model.Parser.setLanguage</text>
</a>
</g>
</g>
<!-- Node2&#45;&gt;Node4 -->
<g id="edge3" class="edge"><title>Node2&#45;&gt;Node4</title>
<path fill="none" stroke="midnightblue" d="M347.731,-25.1545C356.448,-24.2444 365.243,-23.3263 373.793,-22.4337"/>
<polygon fill="midnightblue" stroke="midnightblue" points="347.134,-21.6977 337.551,-26.2172 347.861,-28.6598 347.134,-21.6977"/>
</g>
<!-- Node5 -->
<g id="node5" class="node"><title>Node5</title>
<g id="a_node5"><a xlink:href="../../dc/d3c/classview_1_1_customization_bar.html#a7af574ca79d4f78ad3afbb8fb199ef9c" target="_top" xlink:title="view.CustomizationBar.configure\lLanguageOptions">
<polygon fill="white" stroke="black" points="554.5,-0 554.5,-30 725.5,-30 725.5,-0 554.5,-0"/>
<text text-anchor="start" x="562.5" y="-18" font-family="Helvetica,sans-Serif" font-size="10.00">view.CustomizationBar.configure</text>
<text text-anchor="middle" x="640" y="-7" font-family="Helvetica,sans-Serif" font-size="10.00">LanguageOptions</text>
</a>
</g>
</g>
<!-- Node4&#45;&gt;Node5 -->
<g id="edge4" class="edge"><title>Node4&#45;&gt;Node5</title>
<path fill="none" stroke="midnightblue" d="M528.235,-15C536.843,-15 545.614,-15 554.261,-15"/>
<polygon fill="midnightblue" stroke="midnightblue" points="528.221,-11.5001 518.221,-15 528.221,-18.5001 528.221,-11.5001"/>
</g>
<!-- Node6 -->
<g id="node6" class="node"><title>Node6</title>
<g id="a_node6"><a xlink:href="../../dc/d3c/classview_1_1_customization_bar.html#a51c9304001bd726b1bc57009a08c0f5f" target="_top" xlink:title="view.CustomizationBar.CustomizationBar">
<polygon fill="white" stroke="black" points="762,-5.5 762,-24.5 974,-24.5 974,-5.5 762,-5.5"/>
<text text-anchor="middle" x="868" y="-12.5" font-family="Helvetica,sans-Serif" font-size="10.00">view.CustomizationBar.CustomizationBar</text>
</a>
</g>
</g>
<!-- Node5&#45;&gt;Node6 -->
<g id="edge5" class="edge"><title>Node5&#45;&gt;Node6</title>
<path fill="none" stroke="midnightblue" d="M735.822,-15C744.429,-15 753.181,-15 761.87,-15"/>
<polygon fill="midnightblue" stroke="midnightblue" points="735.797,-11.5001 725.797,-15 735.797,-18.5001 735.797,-11.5001"/>
</g>
</g>
</svg>
