<?xml version="1.0" encoding="UTF-8" standalone="no"?>
<!DOCTYPE svg PUBLIC "-//W3C//DTD SVG 1.1//EN"
 "http://www.w3.org/Graphics/SVG/1.1/DTD/svg11.dtd">
<!-- Generated by graphviz version 2.36.0 (20140111.2315)
 -->
<!-- Title: model.Parser.parseAndExecute Pages: 1 -->
<svg width="698pt" height="66pt"
 viewBox="0.00 0.00 698.00 66.00" xmlns="http://www.w3.org/2000/svg" xmlns:xlink="http://www.w3.org/1999/xlink">
<g id="graph0" class="graph" transform="scale(1 1) rotate(0) translate(4 62)">
<title>model.Parser.parseAndExecute</title>
<polygon fill="white" stroke="none" points="-4,4 -4,-62 694,-62 694,4 -4,4"/>
<!-- Node1 -->
<g id="node1" class="node"><title>Node1</title>
<polygon fill="#bfbfbf" stroke="black" points="0,-19.5 0,-38.5 166,-38.5 166,-19.5 0,-19.5"/>
<text text-anchor="middle" x="83" y="-26.5" font-family="Helvetica,sans-Serif" font-size="10.00">model.Parser.parseAndExecute</text>
</g>
<!-- Node2 -->
<g id="node2" class="node"><title>Node2</title>
<g id="a_node2"><a xlink:href="../../d1/dc7/classview_1_1_side_bar.html#ac97dbdf731a291e46ba643c78b4c5a93" target="_top" xlink:title="view.SideBar.createHistoryPane">
<polygon fill="white" stroke="black" points="202.5,-38.5 202.5,-57.5 369.5,-57.5 369.5,-38.5 202.5,-38.5"/>
<text text-anchor="middle" x="286" y="-45.5" font-family="Helvetica,sans-Serif" font-size="10.00">view.SideBar.createHistoryPane</text>
</a>
</g>
</g>
<!-- Node1&#45;&gt;Node2 -->
<g id="edge1" class="edge"><title>Node1&#45;&gt;Node2</title>
<path fill="none" stroke="midnightblue" d="M176.189,-37.7144C184.877,-38.5356 193.648,-39.3647 202.241,-40.177"/>
<polygon fill="midnightblue" stroke="midnightblue" points="176.329,-34.2121 166.044,-36.7554 175.671,-41.1811 176.329,-34.2121"/>
</g>
<!-- Node4 -->
<g id="node4" class="node"><title>Node4</title>
<g id="a_node4"><a xlink:href="../../da/dc8/classview_1_1_editor.html#a149e24d4e5e4464f3fb1601f2717663b" target="_top" xlink:title="view.Editor.parse">
<polygon fill="white" stroke="black" points="238,-0.5 238,-19.5 334,-19.5 334,-0.5 238,-0.5"/>
<text text-anchor="middle" x="286" y="-7.5" font-family="Helvetica,sans-Serif" font-size="10.00">view.Editor.parse</text>
</a>
</g>
</g>
<!-- Node1&#45;&gt;Node4 -->
<g id="edge3" class="edge"><title>Node1&#45;&gt;Node4</title>
<path fill="none" stroke="midnightblue" d="M176.131,-20.2911C197.474,-18.2736 219.324,-16.2082 237.795,-14.4622"/>
<polygon fill="midnightblue" stroke="midnightblue" points="175.671,-16.8189 166.044,-21.2446 176.329,-23.7879 175.671,-16.8189"/>
</g>
<!-- Node3 -->
<g id="node3" class="node"><title>Node3</title>
<g id="a_node3"><a xlink:href="../../d1/dc7/classview_1_1_side_bar.html#aaa1459e91d727b5bd46e51f5b4a596f2" target="_top" xlink:title="view.SideBar.SideBar">
<polygon fill="white" stroke="black" points="423,-38.5 423,-57.5 539,-57.5 539,-38.5 423,-38.5"/>
<text text-anchor="middle" x="481" y="-45.5" font-family="Helvetica,sans-Serif" font-size="10.00">view.SideBar.SideBar</text>
</a>
</g>
</g>
<!-- Node2&#45;&gt;Node3 -->
<g id="edge2" class="edge"><title>Node2&#45;&gt;Node3</title>
<path fill="none" stroke="midnightblue" d="M379.812,-48C394.484,-48 409.271,-48 422.811,-48"/>
<polygon fill="midnightblue" stroke="midnightblue" points="379.689,-44.5001 369.689,-48 379.689,-51.5001 379.689,-44.5001"/>
</g>
<!-- Node5 -->
<g id="node5" class="node"><title>Node5</title>
<g id="a_node5"><a xlink:href="../../da/dc8/classview_1_1_editor.html#abd790752cfd8c9f01fb5b27a3680a982" target="_top" xlink:title="view.Editor.createRunButton">
<polygon fill="white" stroke="black" points="406.5,-0.5 406.5,-19.5 555.5,-19.5 555.5,-0.5 406.5,-0.5"/>
<text text-anchor="middle" x="481" y="-7.5" font-family="Helvetica,sans-Serif" font-size="10.00">view.Editor.createRunButton</text>
</a>
</g>
</g>
<!-- Node4&#45;&gt;Node5 -->
<g id="edge4" class="edge"><title>Node4&#45;&gt;Node5</title>
<path fill="none" stroke="midnightblue" d="M344.4,-10C363.791,-10 385.718,-10 406.198,-10"/>
<polygon fill="midnightblue" stroke="midnightblue" points="344.213,-6.5001 334.213,-10 344.213,-13.5001 344.213,-6.5001"/>
</g>
<!-- Node6 -->
<g id="node6" class="node"><title>Node6</title>
<g id="a_node6"><a xlink:href="../../da/dc8/classview_1_1_editor.html#a5b88172770caabfc64e9b7adaee1a2c5" target="_top" xlink:title="view.Editor.Editor">
<polygon fill="white" stroke="black" points="592.5,-0.5 592.5,-19.5 689.5,-19.5 689.5,-0.5 592.5,-0.5"/>
<text text-anchor="middle" x="641" y="-7.5" font-family="Helvetica,sans-Serif" font-size="10.00">view.Editor.Editor</text>
</a>
</g>
</g>
<!-- Node5&#45;&gt;Node6 -->
<g id="edge5" class="edge"><title>Node5&#45;&gt;Node6</title>
<path fill="none" stroke="midnightblue" d="M566.07,-10C575.056,-10 583.955,-10 592.298,-10"/>
<polygon fill="midnightblue" stroke="midnightblue" points="565.911,-6.5001 555.911,-10 565.911,-13.5001 565.911,-6.5001"/>
</g>
</g>
</svg>
