<?xml version="1.0" encoding="UTF-8" standalone="no"?>
<!DOCTYPE svg PUBLIC "-//W3C//DTD SVG 1.1//EN"
 "http://www.w3.org/Graphics/SVG/1.1/DTD/svg11.dtd">
<!-- Generated by graphviz version 2.36.0 (20140111.2315)
 -->
<!-- Title: model.Parser.Parser Pages: 1 -->
<svg width="522pt" height="104pt"
 viewBox="0.00 0.00 522.00 104.00" xmlns="http://www.w3.org/2000/svg" xmlns:xlink="http://www.w3.org/1999/xlink">
<g id="graph0" class="graph" transform="scale(1 1) rotate(0) translate(4 100)">
<title>model.Parser.Parser</title>
<polygon fill="white" stroke="none" points="-4,4 -4,-100 518,-100 518,4 -4,4"/>
<!-- Node1 -->
<g id="node1" class="node"><title>Node1</title>
<polygon fill="#bfbfbf" stroke="black" points="0,-38.5 0,-57.5 112,-57.5 112,-38.5 0,-38.5"/>
<text text-anchor="middle" x="56" y="-45.5" font-family="Helvetica,sans-Serif" font-size="10.00">model.Parser.Parser</text>
</g>
<!-- Node2 -->
<g id="node2" class="node"><title>Node2</title>
<g id="a_node2"><a xlink:href="../../dc/df5/classmodel_1_1_parser.html#aa777d197a541c6ca6be224c0ce6754a5" target="_top" xlink:title="model.Parser.addAllPatterns">
<polygon fill="white" stroke="black" points="162.5,-76.5 162.5,-95.5 313.5,-95.5 313.5,-76.5 162.5,-76.5"/>
<text text-anchor="middle" x="238" y="-83.5" font-family="Helvetica,sans-Serif" font-size="10.00">model.Parser.addAllPatterns</text>
</a>
</g>
</g>
<!-- Node1&#45;&gt;Node2 -->
<g id="edge1" class="edge"><title>Node1&#45;&gt;Node2</title>
<path fill="none" stroke="midnightblue" d="M102.422,-57.589C126.603,-62.6939 156.527,-69.0113 182.014,-74.3918"/>
<polygon fill="midnightblue" stroke="midnightblue" points="181.398,-77.8388 191.905,-76.4799 182.844,-70.9898 181.398,-77.8388"/>
</g>
<!-- Node4 -->
<g id="node4" class="node"><title>Node4</title>
<g id="a_node4"><a xlink:href="../../dc/df5/classmodel_1_1_parser.html#a4f0eb5c01337f3a9498e46fe5c22b22a" target="_top" xlink:title="model.Parser.makeCommandMap">
<polygon fill="white" stroke="black" points="148.5,-38.5 148.5,-57.5 327.5,-57.5 327.5,-38.5 148.5,-38.5"/>
<text text-anchor="middle" x="238" y="-45.5" font-family="Helvetica,sans-Serif" font-size="10.00">model.Parser.makeCommandMap</text>
</a>
</g>
</g>
<!-- Node1&#45;&gt;Node4 -->
<g id="edge3" class="edge"><title>Node1&#45;&gt;Node4</title>
<path fill="none" stroke="midnightblue" d="M112.475,-48C120.642,-48 129.256,-48 137.984,-48"/>
<polygon fill="midnightblue" stroke="midnightblue" points="138.263,-51.5001 148.263,-48 138.263,-44.5001 138.263,-51.5001"/>
</g>
<!-- Node5 -->
<g id="node5" class="node"><title>Node5</title>
<g id="a_node5"><a xlink:href="../../d6/de7/classview_1_1_s_logo_view.html#a34dd4e39a24cbfe1238b21f296972b14" target="_top" xlink:title="view.SLogoView.setEnvironment">
<polygon fill="white" stroke="black" points="153.5,-0.5 153.5,-19.5 322.5,-19.5 322.5,-0.5 153.5,-0.5"/>
<text text-anchor="middle" x="238" y="-7.5" font-family="Helvetica,sans-Serif" font-size="10.00">view.SLogoView.setEnvironment</text>
</a>
</g>
</g>
<!-- Node1&#45;&gt;Node5 -->
<g id="edge4" class="edge"><title>Node1&#45;&gt;Node5</title>
<path fill="none" stroke="midnightblue" d="M102.422,-38.411C126.603,-33.3061 156.527,-26.9887 182.014,-21.6082"/>
<polygon fill="midnightblue" stroke="midnightblue" points="182.844,-25.0102 191.905,-19.5201 181.398,-18.1612 182.844,-25.0102"/>
</g>
<!-- Node3 -->
<g id="node3" class="node"><title>Node3</title>
<g id="a_node3"><a xlink:href="../../dc/df5/classmodel_1_1_parser.html#ab8b41b81d9a6ea903b050ca5a5235004" target="_top" xlink:title="model.Parser.makePatterns">
<polygon fill="white" stroke="black" points="364.5,-76.5 364.5,-95.5 513.5,-95.5 513.5,-76.5 364.5,-76.5"/>
<text text-anchor="middle" x="439" y="-83.5" font-family="Helvetica,sans-Serif" font-size="10.00">model.Parser.makePatterns</text>
</a>
</g>
</g>
<!-- Node2&#45;&gt;Node3 -->
<g id="edge2" class="edge"><title>Node2&#45;&gt;Node3</title>
<path fill="none" stroke="midnightblue" d="M313.666,-86C326.849,-86 340.653,-86 354.07,-86"/>
<polygon fill="midnightblue" stroke="midnightblue" points="354.238,-89.5001 364.238,-86 354.238,-82.5001 354.238,-89.5001"/>
</g>
</g>
</svg>
