<?xml version="1.0" encoding="UTF-8" standalone="no"?>
<!DOCTYPE svg PUBLIC "-//W3C//DTD SVG 1.1//EN"
 "http://www.w3.org/Graphics/SVG/1.1/DTD/svg11.dtd">
<!-- Generated by graphviz version 2.36.0 (20140111.2315)
 -->
<!-- Title: model.instructions.ControlInstruction Pages: 1 -->
<!--zoomable 853 -->
<svg id="main" version="1.1" xmlns="http://www.w3.org/2000/svg" xmlns:xlink="http://www.w3.org/1999/xlink" xml:space="preserve" onload="init(evt)">
<style type="text/css"><![CDATA[
.edge:hover path { stroke: red; }
.edge:hover polygon { stroke: red; fill: red; }
]]></style>
<script type="text/javascript"><![CDATA[
var edges = document.getElementsByTagName('g');
if (edges && edges.length) {
  for (var i=0;i<edges.length;i++) {
    if (edges[i].id.substr(0,4)=='edge') {
      edges[i].setAttribute('class','edge');
    }
  }
}
]]></script>
        <defs>
                <circle id="rim" cx="0" cy="0" r="7"/>
                <circle id="rim2" cx="0" cy="0" r="3.5"/>
                <g id="zoomPlus">
                        <use xlink:href="#rim" fill="#404040">
                                <set attributeName="fill" to="#808080" begin="zoomplus.mouseover" end="zoomplus.mouseout"/>
                        </use>
                        <path d="M-4,0h8M0,-4v8" fill="none" stroke="white" stroke-width="1.5" pointer-events="none"/>
                </g>
                <g id="zoomMin">
                        <use xlink:href="#rim" fill="#404040">
                                <set attributeName="fill" to="#808080" begin="zoomminus.mouseover" end="zoomminus.mouseout"/>
                        </use>
                        <path d="M-4,0h8" fill="none" stroke="white" stroke-width="1.5" pointer-events="none"/>
                </g>
                <g id="dirArrow">
                        <path fill="none" stroke="white" stroke-width="1.5" d="M0,-3.0v7 M-2.5,-0.5L0,-3.0L2.5,-0.5"/>
                </g>
               <g id="resetDef">
                       <use xlink:href="#rim2" fill="#404040">
                               <set attributeName="fill" to="#808080" begin="reset.mouseover" end="reset.mouseout"/>
                       </use>
               </g>
        </defs>

<script type="text/javascript">
var viewWidth = 1754;
var viewHeight = 853;
var sectionId = 'dynsection-1';
</script>
<script xlink:href="../../svgpan.js"/>
<svg id="graph" class="graph">
<g id="viewport">
<title>model.instructions.ControlInstruction</title>
<polygon fill="white" stroke="none" points="-4,4 -4,-849.201 1750,-849.201 1750,4 -4,4"/>
<!-- Node1 -->
<g id="node1" class="node"><title>Node1</title>
<polygon fill="#bfbfbf" stroke="black" points="966.5,-708.201 966.5,-738.201 1109.5,-738.201 1109.5,-708.201 966.5,-708.201"/>
<text text-anchor="start" x="974.5" y="-726.201" font-family="Helvetica,sans-Serif" font-size="10.00">model.instructions.Control</text>
<text text-anchor="middle" x="1038" y="-715.201" font-family="Helvetica,sans-Serif" font-size="10.00">Instruction</text>
</g>
<!-- Node2 -->
<g id="node2" class="node"><title>Node2</title>
<g id="a_node2"><a xlink:href="../../d1/dea/classmodel_1_1instructions_1_1_instruction.html" target="_top" xlink:title="model.instructions.Instruction">
<polygon fill="white" stroke="black" points="646,-713.701 646,-732.701 804,-732.701 804,-713.701 646,-713.701"/>
<text text-anchor="middle" x="725" y="-720.701" font-family="Helvetica,sans-Serif" font-size="10.00">model.instructions.Instruction</text>
</a>
</g>
</g>
<!-- Node2&#45;&gt;Node1 -->
<g id="edge1" class="edge"><title>Node2&#45;&gt;Node1</title>
<path fill="none" stroke="midnightblue" d="M814.186,-723.201C862.36,-723.201 921.215,-723.201 966.336,-723.201"/>
<polygon fill="midnightblue" stroke="midnightblue" points="814.077,-719.701 804.077,-723.201 814.077,-726.701 814.077,-719.701"/>
</g>
<!-- Node3 -->
<g id="node3" class="node"><title>Node3</title>
<polygon fill="white" stroke="#bfbfbf" points="57,-491.701 57,-510.701 117,-510.701 117,-491.701 57,-491.701"/>
<text text-anchor="middle" x="87" y="-498.701" font-family="Helvetica,sans-Serif" font-size="10.00">Observer</text>
</g>
<!-- Node3&#45;&gt;Node2 -->
<g id="edge2" class="edge"><title>Node3&#45;&gt;Node2</title>
<path fill="none" stroke="midnightblue" d="M112.207,-515.948C153.775,-540.73 241.991,-590.978 322,-621.201 443.244,-667 592.731,-698.821 670.804,-713.679"/>
<polygon fill="midnightblue" stroke="midnightblue" points="113.975,-512.927 103.599,-510.781 110.372,-518.929 113.975,-512.927"/>
</g>
<!-- Node9 -->
<g id="node9" class="node"><title>Node9</title>
<g id="a_node9"><a xlink:href="../../d4/d64/classview_1_1_view_updater.html" target="_top" xlink:title="view.ViewUpdater">
<polygon fill="white" stroke="black" points="351,-443.701 351,-462.701 451,-462.701 451,-443.701 351,-443.701"/>
<text text-anchor="middle" x="401" y="-450.701" font-family="Helvetica,sans-Serif" font-size="10.00">view.ViewUpdater</text>
</a>
</g>
</g>
<!-- Node3&#45;&gt;Node9 -->
<g id="edge9" class="edge"><title>Node3&#45;&gt;Node9</title>
<path fill="none" stroke="midnightblue" d="M127.079,-495.189C183.8,-486.463 288.905,-470.293 350.82,-460.767"/>
<polygon fill="midnightblue" stroke="midnightblue" points="126.424,-491.748 117.072,-496.728 127.488,-498.667 126.424,-491.748"/>
</g>
<!-- Node21 -->
<g id="node21" class="node"><title>Node21</title>
<g id="a_node21"><a xlink:href="../../dc/df5/classmodel_1_1_parser.html" target="_top" xlink:title="model.Parser">
<polygon fill="white" stroke="black" points="685,-581.701 685,-600.701 765,-600.701 765,-581.701 685,-581.701"/>
<text text-anchor="middle" x="725" y="-588.701" font-family="Helvetica,sans-Serif" font-size="10.00">model.Parser</text>
</a>
</g>
</g>
<!-- Node3&#45;&gt;Node21 -->
<g id="edge25" class="edge"><title>Node3&#45;&gt;Node21</title>
<path fill="none" stroke="midnightblue" d="M127.209,-499.452C234.48,-495.196 530.729,-487.132 620,-523.201 629.924,-527.211 629.384,-532.85 638,-539.201 660.33,-555.662 688.097,-571.735 705.934,-581.552"/>
<polygon fill="midnightblue" stroke="midnightblue" points="126.985,-495.958 117.136,-499.863 127.271,-502.952 126.985,-495.958"/>
</g>
<!-- Node4 -->
<g id="node4" class="node"><title>Node4</title>
<g id="a_node4"><a xlink:href="../../d1/dca/classmodel_1_1_execution_environment.html" target="_top" xlink:title="model.ExecutionEnvironment">
<polygon fill="white" stroke="black" points="322.5,-725.701 322.5,-744.701 479.5,-744.701 479.5,-725.701 322.5,-725.701"/>
<text text-anchor="middle" x="401" y="-732.701" font-family="Helvetica,sans-Serif" font-size="10.00">model.ExecutionEnvironment</text>
</a>
</g>
</g>
<!-- Node4&#45;&gt;Node2 -->
<g id="edge3" class="edge"><title>Node4&#45;&gt;Node2</title>
<path fill="none" stroke="#9a32cd" stroke-dasharray="5,2" d="M489.755,-731.931C538.493,-730.114 598.611,-727.874 645.74,-726.118"/>
<polygon fill="#9a32cd" stroke="#9a32cd" points="489.399,-728.441 479.537,-732.311 489.66,-735.437 489.399,-728.441"/>
<text text-anchor="middle" x="559" y="-735.201" font-family="Helvetica,sans-Serif" font-size="10.00"> myEnvironment</text>
</g>
<!-- Node17 -->
<g id="node17" class="node"><title>Node17</title>
<g id="a_node17"><a xlink:href="../../d1/dc7/classview_1_1_side_bar.html" target="_top" xlink:title="view.SideBar">
<polygon fill="white" stroke="black" points="999.5,-432.701 999.5,-451.701 1076.5,-451.701 1076.5,-432.701 999.5,-432.701"/>
<text text-anchor="middle" x="1038" y="-439.701" font-family="Helvetica,sans-Serif" font-size="10.00">view.SideBar</text>
</a>
</g>
</g>
<!-- Node4&#45;&gt;Node17 -->
<g id="edge22" class="edge"><title>Node4&#45;&gt;Node17</title>
<path fill="none" stroke="#9a32cd" stroke-dasharray="5,2" d="M455.459,-723.526C586.285,-694.485 914.357,-618.64 948,-581.201 979.94,-545.658 937.006,-513.186 966,-475.201 974.33,-464.288 987.138,-456.85 999.595,-451.843"/>
<polygon fill="#9a32cd" stroke="#9a32cd" points="454.651,-720.12 445.644,-725.699 456.164,-726.955 454.651,-720.12"/>
<text text-anchor="middle" x="725" y="-683.201" font-family="Helvetica,sans-Serif" font-size="10.00"> myEnvironment</text>
</g>
<!-- Node4&#45;&gt;Node21 -->
<g id="edge27" class="edge"><title>Node4&#45;&gt;Node21</title>
<path fill="none" stroke="#9a32cd" stroke-dasharray="5,2" d="M414.231,-717.16C430.546,-694.617 461.634,-656.646 498,-637.201 546.658,-611.183 565.944,-625.271 620,-614.201 641.377,-609.823 665.143,-604.595 684.554,-600.23"/>
<polygon fill="#9a32cd" stroke="#9a32cd" points="411.247,-715.318 408.354,-725.51 416.972,-719.347 411.247,-715.318"/>
<text text-anchor="middle" x="559" y="-640.201" font-family="Helvetica,sans-Serif" font-size="10.00"> myExecutionParameters</text>
</g>
<!-- Node24 -->
<g id="node24" class="node"><title>Node24</title>
<g id="a_node24"><a xlink:href="../../d6/de7/classview_1_1_s_logo_view.html" target="_top" xlink:title="view.SLogoView">
<polygon fill="white" stroke="black" points="1654.5,-257.701 1654.5,-276.701 1745.5,-276.701 1745.5,-257.701 1654.5,-257.701"/>
<text text-anchor="middle" x="1700" y="-264.701" font-family="Helvetica,sans-Serif" font-size="10.00">view.SLogoView</text>
</a>
</g>
</g>
<!-- Node4&#45;&gt;Node24 -->
<g id="edge41" class="edge"><title>Node4&#45;&gt;Node24</title>
<path fill="none" stroke="#9a32cd" stroke-dasharray="5,2" d="M471.904,-746.178C536.995,-755.44 636.813,-767.201 724,-767.201 724,-767.201 724,-767.201 1483,-767.201 1561.67,-767.201 1591.71,-743.216 1636,-678.201 1682.74,-609.593 1696.35,-332.51 1698.63,-276.935"/>
<polygon fill="#9a32cd" stroke="#9a32cd" points="472.16,-742.679 461.763,-744.715 471.161,-749.607 472.16,-742.679"/>
<text text-anchor="middle" x="1168" y="-770.201" font-family="Helvetica,sans-Serif" font-size="10.00"> myEnvironment</text>
</g>
<!-- Node5 -->
<g id="node5" class="node"><title>Node5</title>
<polygon fill="white" stroke="#bfbfbf" points="51.5,-697.701 51.5,-716.701 122.5,-716.701 122.5,-697.701 51.5,-697.701"/>
<text text-anchor="middle" x="87" y="-704.701" font-family="Helvetica,sans-Serif" font-size="10.00">Observable</text>
</g>
<!-- Node5&#45;&gt;Node4 -->
<g id="edge4" class="edge"><title>Node5&#45;&gt;Node4</title>
<path fill="none" stroke="midnightblue" d="M132.637,-711.207C182.066,-715.643 262.658,-722.875 322.457,-728.242"/>
<polygon fill="midnightblue" stroke="midnightblue" points="132.854,-707.712 122.582,-710.304 132.229,-714.684 132.854,-707.712"/>
</g>
<!-- Node6 -->
<g id="node6" class="node"><title>Node6</title>
<polygon fill="white" stroke="#bfbfbf" points="42.5,-823.701 42.5,-842.701 131.5,-842.701 131.5,-823.701 42.5,-823.701"/>
<text text-anchor="middle" x="87" y="-830.701" font-family="Helvetica,sans-Serif" font-size="10.00">Set&lt; Integer &gt;</text>
</g>
<!-- Node6&#45;&gt;Node4 -->
<g id="edge5" class="edge"><title>Node6&#45;&gt;Node4</title>
<path fill="none" stroke="#9a32cd" stroke-dasharray="5,2" d="M141.747,-830.652C187.052,-826.699 252.536,-816.657 304,-791.201 313.594,-786.455 313.167,-781.247 322,-775.201 339.707,-763.081 361.571,-752.177 377.641,-744.827"/>
<polygon fill="#9a32cd" stroke="#9a32cd" points="141.232,-827.182 131.543,-831.47 141.791,-834.16 141.232,-827.182"/>
<text text-anchor="middle" x="248" y="-837.201" font-family="Helvetica,sans-Serif" font-size="10.00"> myTurtleList</text>
<text text-anchor="middle" x="248" y="-826.201" font-family="Helvetica,sans-Serif" font-size="10.00">activeTurtleList</text>
</g>
<!-- Node7 -->
<g id="node7" class="node"><title>Node7</title>
<polygon fill="white" stroke="#bfbfbf" points="0,-774.201 0,-804.201 174,-804.201 174,-774.201 0,-774.201"/>
<text text-anchor="start" x="8" y="-792.201" font-family="Helvetica,sans-Serif" font-size="10.00">Map&lt; String, model.instructions.</text>
<text text-anchor="middle" x="87" y="-781.201" font-family="Helvetica,sans-Serif" font-size="10.00">Instruction &gt;</text>
</g>
<!-- Node7&#45;&gt;Node4 -->
<g id="edge6" class="edge"><title>Node7&#45;&gt;Node4</title>
<path fill="none" stroke="#9a32cd" stroke-dasharray="5,2" d="M184.099,-776.607C221.618,-771.261 264.929,-764.56 304,-757.201 322.988,-753.625 343.917,-748.919 361.375,-744.778"/>
<polygon fill="#9a32cd" stroke="#9a32cd" points="183.599,-773.142 174.187,-778.007 184.578,-780.074 183.599,-773.142"/>
<text text-anchor="middle" x="248" y="-779.201" font-family="Helvetica,sans-Serif" font-size="10.00"> myUserInstructionMap</text>
</g>
<!-- Node8 -->
<g id="node8" class="node"><title>Node8</title>
<polygon fill="white" stroke="#bfbfbf" points="23,-735.701 23,-754.701 151,-754.701 151,-735.701 23,-735.701"/>
<text text-anchor="middle" x="87" y="-742.701" font-family="Helvetica,sans-Serif" font-size="10.00">Map&lt; String, Double &gt;</text>
</g>
<!-- Node8&#45;&gt;Node4 -->
<g id="edge7" class="edge"><title>Node8&#45;&gt;Node4</title>
<path fill="none" stroke="#9a32cd" stroke-dasharray="5,2" d="M161.23,-742.854C209.637,-741.302 273.011,-739.271 322.303,-737.691"/>
<polygon fill="#9a32cd" stroke="#9a32cd" points="161.021,-739.359 151.138,-743.177 161.245,-746.355 161.021,-739.359"/>
<text text-anchor="middle" x="248" y="-745.201" font-family="Helvetica,sans-Serif" font-size="10.00"> myVariableMap</text>
</g>
<!-- Node9&#45;&gt;Node2 -->
<g id="edge8" class="edge"><title>Node9&#45;&gt;Node2</title>
<path fill="none" stroke="#9a32cd" stroke-dasharray="5,2" d="M423.006,-468.833C439.491,-481.646 462.499,-500.775 480,-520.201 489.407,-530.643 486.549,-538.052 498,-546.201 543.86,-578.839 581.424,-539.21 620,-580.201 646.166,-608.006 616.748,-632.481 638,-664.201 653.52,-687.366 681.489,-704.012 701.313,-713.598"/>
<polygon fill="#9a32cd" stroke="#9a32cd" points="425.113,-466.037 415.044,-462.74 420.859,-471.596 425.113,-466.037"/>
<text text-anchor="middle" x="559" y="-583.201" font-family="Helvetica,sans-Serif" font-size="10.00"> myViewUpdater</text>
</g>
<!-- Node9&#45;&gt;Node21 -->
<g id="edge28" class="edge"><title>Node9&#45;&gt;Node21</title>
<path fill="none" stroke="#9a32cd" stroke-dasharray="5,2" d="M461.326,-456.073C521.686,-459.527 608.036,-466.148 620,-476.201 642.295,-494.934 620.316,-516.065 638,-539.201 653.364,-559.301 678.913,-573.314 698.181,-581.687"/>
<polygon fill="#9a32cd" stroke="#9a32cd" points="461.31,-452.566 451.131,-455.505 460.92,-459.555 461.31,-452.566"/>
<text text-anchor="middle" x="559" y="-479.201" font-family="Helvetica,sans-Serif" font-size="10.00"> myViewUpdater</text>
</g>
<!-- Node10 -->
<g id="node10" class="node"><title>Node10</title>
<g id="a_node10"><a xlink:href="../../da/d64/classview_1_1_workspace.html" target="_top" xlink:title="view.Workspace">
<polygon fill="white" stroke="black" points="1226,-246.701 1226,-265.701 1316,-265.701 1316,-246.701 1226,-246.701"/>
<text text-anchor="middle" x="1271" y="-253.701" font-family="Helvetica,sans-Serif" font-size="10.00">view.Workspace</text>
</a>
</g>
</g>
<!-- Node10&#45;&gt;Node9 -->
<g id="edge10" class="edge"><title>Node10&#45;&gt;Node9</title>
<path fill="none" stroke="#9a32cd" stroke-dasharray="5,2" d="M1215.79,-260.827C1213.16,-260.972 1210.55,-261.098 1208,-261.201 1172.47,-262.631 1163.55,-261.75 1128,-261.201 1055.97,-260.09 1032.12,-284.791 966,-256.201 955.616,-251.711 958.453,-242.531 948,-238.201 820.297,-185.305 765.116,-208.908 638,-263.201 533.998,-307.621 438.227,-411.444 410.218,-443.56"/>
<polygon fill="#9a32cd" stroke="#9a32cd" points="1216.23,-264.307 1226,-260.189 1215.8,-257.32 1216.23,-264.307"/>
<text text-anchor="middle" x="889" y="-241.201" font-family="Helvetica,sans-Serif" font-size="10.00"> myWorkspace</text>
</g>
<!-- Node10&#45;&gt;Node24 -->
<g id="edge31" class="edge"><title>Node10&#45;&gt;Node24</title>
<path fill="none" stroke="#9a32cd" stroke-dasharray="5,2" d="M1326.34,-257.601C1411.6,-259.797 1575.23,-264.012 1654.19,-266.047"/>
<polygon fill="#9a32cd" stroke="#9a32cd" points="1326.18,-254.096 1316.09,-257.337 1325.99,-261.093 1326.18,-254.096"/>
<text text-anchor="middle" x="1482" y="-266.201" font-family="Helvetica,sans-Serif" font-size="10.00"> myWorkspace</text>
</g>
<!-- Node32 -->
<g id="node32" class="node"><title>Node32</title>
<g id="a_node32"><a xlink:href="../../de/d0a/classview_1_1_drawer.html" target="_top" xlink:title="view.Drawer">
<polygon fill="white" stroke="black" points="1445.5,-204.701 1445.5,-223.701 1518.5,-223.701 1518.5,-204.701 1445.5,-204.701"/>
<text text-anchor="middle" x="1482" y="-211.701" font-family="Helvetica,sans-Serif" font-size="10.00">view.Drawer</text>
</a>
</g>
</g>
<!-- Node10&#45;&gt;Node32 -->
<g id="edge45" class="edge"><title>Node10&#45;&gt;Node32</title>
<path fill="none" stroke="#9a32cd" stroke-dasharray="5,2" d="M1323.08,-244.523C1326.77,-243.723 1330.44,-242.941 1334,-242.201 1371.9,-234.315 1415.48,-226.124 1445.29,-220.654"/>
<polygon fill="#9a32cd" stroke="#9a32cd" points="1322.33,-241.105 1313.31,-246.668 1323.83,-247.942 1322.33,-241.105"/>
<text text-anchor="middle" x="1369" y="-245.201" font-family="Helvetica,sans-Serif" font-size="10.00"> myWorkspace</text>
</g>
<!-- Node11 -->
<g id="node11" class="node"><title>Node11</title>
<polygon fill="white" stroke="#bfbfbf" points="1004.5,-139.701 1004.5,-158.701 1071.5,-158.701 1071.5,-139.701 1004.5,-139.701"/>
<text text-anchor="middle" x="1038" y="-146.701" font-family="Helvetica,sans-Serif" font-size="10.00">StackPane</text>
</g>
<!-- Node11&#45;&gt;Node10 -->
<g id="edge11" class="edge"><title>Node11&#45;&gt;Node10</title>
<path fill="none" stroke="midnightblue" d="M1081.95,-156.266C1118.11,-163.807 1169.88,-178.469 1208,-205.201 1218.06,-212.259 1216.84,-218.001 1226,-226.201 1234.54,-233.849 1245.13,-241.126 1253.78,-246.598"/>
<polygon fill="midnightblue" stroke="midnightblue" points="1082.22,-152.751 1071.73,-154.236 1080.85,-159.617 1082.22,-152.751"/>
</g>
<!-- Node12 -->
<g id="node12" class="node"><title>Node12</title>
<polygon fill="white" stroke="#bfbfbf" points="678.5,-100.701 678.5,-119.701 771.5,-119.701 771.5,-100.701 678.5,-100.701"/>
<text text-anchor="middle" x="725" y="-107.701" font-family="Helvetica,sans-Serif" font-size="10.00">ResourceBundle</text>
</g>
<!-- Node12&#45;&gt;Node10 -->
<g id="edge12" class="edge"><title>Node12&#45;&gt;Node10</title>
<path fill="none" stroke="#9a32cd" stroke-dasharray="5,2" d="M781.935,-104.383C857.516,-98.1248 995.928,-92.3539 1110,-119.201 1156.84,-130.224 1176.66,-128.695 1208,-165.201 1226.41,-186.648 1209.35,-203.355 1226,-226.201 1232.21,-234.72 1241.61,-241.6 1250.13,-246.613"/>
<polygon fill="#9a32cd" stroke="#9a32cd" points="781.358,-100.919 771.696,-105.266 781.96,-107.894 781.358,-100.919"/>
<text text-anchor="middle" x="1038" y="-122.201" font-family="Helvetica,sans-Serif" font-size="10.00"> myResources</text>
</g>
<!-- Node12&#45;&gt;Node17 -->
<g id="edge21" class="edge"><title>Node12&#45;&gt;Node17</title>
<path fill="none" stroke="#9a32cd" stroke-dasharray="5,2" d="M735.555,-129.028C751.456,-158.687 785.997,-216.48 830,-251.201 874.714,-286.484 911.051,-257.853 948,-301.201 969.677,-326.632 949.27,-345.275 966,-374.201 980.441,-399.17 1006.76,-420.807 1022.98,-432.63"/>
<polygon fill="#9a32cd" stroke="#9a32cd" points="738.46,-127.031 730.723,-119.794 732.258,-130.277 738.46,-127.031"/>
<text text-anchor="middle" x="889" y="-304.201" font-family="Helvetica,sans-Serif" font-size="10.00"> myResources</text>
</g>
<!-- Node12&#45;&gt;Node24 -->
<g id="edge33" class="edge"><title>Node12&#45;&gt;Node24</title>
<path fill="none" stroke="#9a32cd" stroke-dasharray="5,2" d="M781.68,-100.67C797.267,-98.4109 814.253,-96.3308 830,-95.201 882.31,-91.4481 895.557,-94.8773 948,-95.201 1020,-95.6455 1038.49,-88.7448 1110,-97.201 1305.52,-120.322 1351.31,-146.227 1542,-195.201 1584.1,-206.013 1596.86,-203.295 1636,-222.201 1655.85,-231.789 1676.12,-247.56 1688.13,-257.658"/>
<polygon fill="#9a32cd" stroke="#9a32cd" points="781.036,-97.2271 771.666,-102.172 782.075,-104.15 781.036,-97.2271"/>
<text text-anchor="middle" x="1271" y="-137.201" font-family="Helvetica,sans-Serif" font-size="10.00"> myResources</text>
</g>
<!-- Node13 -->
<g id="node13" class="node"><title>Node13</title>
<g id="a_node13"><a xlink:href="../../d8/df7/classview_1_1_turtle_view.html" target="_top" xlink:title="view.TurtleView">
<polygon fill="white" stroke="black" points="995,-303.701 995,-322.701 1081,-322.701 1081,-303.701 995,-303.701"/>
<text text-anchor="middle" x="1038" y="-310.701" font-family="Helvetica,sans-Serif" font-size="10.00">view.TurtleView</text>
</a>
</g>
</g>
<!-- Node13&#45;&gt;Node10 -->
<g id="edge13" class="edge"><title>Node13&#45;&gt;Node10</title>
<path fill="none" stroke="#9a32cd" stroke-dasharray="5,2" d="M1091.4,-310.467C1125.33,-307.558 1170.08,-301.561 1208,-289.201 1225.16,-283.608 1243.2,-273.453 1255.37,-265.879"/>
<polygon fill="#9a32cd" stroke="#9a32cd" points="1090.93,-306.993 1081.24,-311.274 1091.49,-313.971 1090.93,-306.993"/>
<text text-anchor="middle" x="1168" y="-309.201" font-family="Helvetica,sans-Serif" font-size="10.00"> myActiveTurtle</text>
</g>
<!-- Node14 -->
<g id="node14" class="node"><title>Node14</title>
<polygon fill="white" stroke="#bfbfbf" points="691,-272.701 691,-291.701 759,-291.701 759,-272.701 691,-272.701"/>
<text text-anchor="middle" x="725" y="-279.701" font-family="Helvetica,sans-Serif" font-size="10.00">ImageView</text>
</g>
<!-- Node14&#45;&gt;Node13 -->
<g id="edge14" class="edge"><title>Node14&#45;&gt;Node13</title>
<path fill="none" stroke="midnightblue" d="M769.51,-286.538C829.218,-292.49 935.848,-303.118 994.84,-308.999"/>
<polygon fill="midnightblue" stroke="midnightblue" points="769.58,-283.028 759.282,-285.519 768.886,-289.993 769.58,-283.028"/>
</g>
<!-- Node15 -->
<g id="node15" class="node"><title>Node15</title>
<polygon fill="white" stroke="#bfbfbf" points="702,-310.701 702,-329.701 748,-329.701 748,-310.701 702,-310.701"/>
<text text-anchor="middle" x="725" y="-317.701" font-family="Helvetica,sans-Serif" font-size="10.00">Group</text>
</g>
<!-- Node15&#45;&gt;Node10 -->
<g id="edge17" class="edge"><title>Node15&#45;&gt;Node10</title>
<path fill="none" stroke="#9a32cd" stroke-dasharray="5,2" d="M758.299,-325.289C778.782,-328.255 805.874,-331.699 830,-333.201 997.76,-343.645 1057.42,-395.882 1208,-321.201 1233.71,-308.452 1254.49,-280.45 1264.15,-265.708"/>
<polygon fill="#9a32cd" stroke="#9a32cd" points="758.647,-321.803 748.241,-323.795 757.618,-328.727 758.647,-321.803"/>
<text text-anchor="middle" x="1038" y="-364.201" font-family="Helvetica,sans-Serif" font-size="10.00"> myLines</text>
</g>
<!-- Node15&#45;&gt;Node13 -->
<g id="edge15" class="edge"><title>Node15&#45;&gt;Node13</title>
<path fill="none" stroke="#9a32cd" stroke-dasharray="5,2" d="M758.55,-319.468C815.251,-318.192 932.077,-315.563 994.873,-314.149"/>
<polygon fill="#9a32cd" stroke="#9a32cd" points="758.285,-315.973 748.366,-319.698 758.443,-322.972 758.285,-315.973"/>
<text text-anchor="middle" x="889" y="-321.201" font-family="Helvetica,sans-Serif" font-size="10.00"> myStamps</text>
</g>
<!-- Node16 -->
<g id="node16" class="node"><title>Node16</title>
<polygon fill="white" stroke="#bfbfbf" points="970,-178.201 970,-208.201 1106,-208.201 1106,-178.201 970,-178.201"/>
<text text-anchor="start" x="978" y="-196.201" font-family="Helvetica,sans-Serif" font-size="10.00">Map&lt; Integer, view.Turtle</text>
<text text-anchor="middle" x="1038" y="-185.201" font-family="Helvetica,sans-Serif" font-size="10.00">View &gt;</text>
</g>
<!-- Node16&#45;&gt;Node10 -->
<g id="edge16" class="edge"><title>Node16&#45;&gt;Node10</title>
<path fill="none" stroke="#9a32cd" stroke-dasharray="5,2" d="M1116.14,-206.244C1145.27,-212.049 1178.49,-219.737 1208,-229.201 1222.76,-233.933 1238.78,-240.964 1250.84,-246.664"/>
<polygon fill="#9a32cd" stroke="#9a32cd" points="1116.51,-202.749 1106.02,-204.269 1115.17,-209.62 1116.51,-202.749"/>
<text text-anchor="middle" x="1168" y="-232.201" font-family="Helvetica,sans-Serif" font-size="10.00"> myTurtles</text>
</g>
<!-- Node17&#45;&gt;Node9 -->
<g id="edge51" class="edge"><title>Node17&#45;&gt;Node9</title>
<path fill="none" stroke="#9a32cd" stroke-dasharray="5,2" d="M989.139,-443.03C871.614,-445.066 569.779,-450.295 451.036,-452.352"/>
<polygon fill="#9a32cd" stroke="#9a32cd" points="989.329,-446.527 999.267,-442.855 989.207,-439.528 989.329,-446.527"/>
<text text-anchor="middle" x="725" y="-452.201" font-family="Helvetica,sans-Serif" font-size="10.00"> mySidebar</text>
</g>
<!-- Node17&#45;&gt;Node10 -->
<g id="edge18" class="edge"><title>Node17&#45;&gt;Node10</title>
<path fill="none" stroke="#9a32cd" stroke-dasharray="5,2" d="M1068.81,-428.134C1085.98,-420.2 1108.05,-410.286 1128,-402.201 1163.05,-387.995 1179.46,-398.014 1208,-373.201 1242.87,-342.885 1261.2,-288.048 1267.47,-265.884"/>
<polygon fill="#9a32cd" stroke="#9a32cd" points="1066.91,-425.158 1059.32,-432.549 1069.86,-431.505 1066.91,-425.158"/>
<text text-anchor="middle" x="1168" y="-405.201" font-family="Helvetica,sans-Serif" font-size="10.00"> mySidebar</text>
</g>
<!-- Node17&#45;&gt;Node24 -->
<g id="edge47" class="edge"><title>Node17&#45;&gt;Node24</title>
<path fill="none" stroke="#9a32cd" stroke-dasharray="5,2" d="M1086.64,-435.575C1120.67,-430.467 1167.41,-422.683 1208,-413.201 1386.83,-371.427 1596.64,-302.048 1671.09,-276.78"/>
<polygon fill="#9a32cd" stroke="#9a32cd" points="1085.89,-432.148 1076.51,-437.074 1086.92,-439.073 1085.89,-432.148"/>
<text text-anchor="middle" x="1369" y="-383.201" font-family="Helvetica,sans-Serif" font-size="10.00"> mySidebar</text>
</g>
<!-- Node26 -->
<g id="node26" class="node"><title>Node26</title>
<g id="a_node26"><a xlink:href="../../da/dc8/classview_1_1_editor.html" target="_top" xlink:title="view.Editor">
<polygon fill="white" stroke="black" points="1237.5,-504.701 1237.5,-523.701 1304.5,-523.701 1304.5,-504.701 1237.5,-504.701"/>
<text text-anchor="middle" x="1271" y="-511.701" font-family="Helvetica,sans-Serif" font-size="10.00">view.Editor</text>
</a>
</g>
</g>
<!-- Node17&#45;&gt;Node26 -->
<g id="edge39" class="edge"><title>Node17&#45;&gt;Node26</title>
<path fill="none" stroke="#9a32cd" stroke-dasharray="5,2" d="M1087.21,-441.133C1122.07,-442.014 1169.6,-446.693 1208,-463.201 1230.02,-472.669 1250.44,-492.436 1261.47,-504.39"/>
<polygon fill="#9a32cd" stroke="#9a32cd" points="1086.87,-437.627 1076.82,-440.972 1086.76,-444.626 1086.87,-437.627"/>
<text text-anchor="middle" x="1168" y="-466.201" font-family="Helvetica,sans-Serif" font-size="10.00"> mySidebar</text>
</g>
<!-- Node18 -->
<g id="node18" class="node"><title>Node18</title>
<polygon fill="white" stroke="#bfbfbf" points="704.5,-386.701 704.5,-405.701 745.5,-405.701 745.5,-386.701 704.5,-386.701"/>
<text text-anchor="middle" x="725" y="-393.701" font-family="Helvetica,sans-Serif" font-size="10.00">VBox</text>
</g>
<!-- Node18&#45;&gt;Node17 -->
<g id="edge19" class="edge"><title>Node18&#45;&gt;Node17</title>
<path fill="none" stroke="midnightblue" d="M756.093,-400.652C813.147,-409.091 936.912,-427.397 999.356,-436.633"/>
<polygon fill="midnightblue" stroke="midnightblue" points="756.332,-397.149 745.928,-399.148 755.308,-404.074 756.332,-397.149"/>
</g>
<!-- Node19 -->
<g id="node19" class="node"><title>Node19</title>
<polygon fill="white" stroke="#bfbfbf" points="638.5,-348.701 638.5,-367.701 811.5,-367.701 811.5,-348.701 638.5,-348.701"/>
<text text-anchor="middle" x="725" y="-355.701" font-family="Helvetica,sans-Serif" font-size="10.00">ObservableList&lt; view.Property &gt;</text>
</g>
<!-- Node19&#45;&gt;Node17 -->
<g id="edge20" class="edge"><title>Node19&#45;&gt;Node17</title>
<path fill="none" stroke="#9a32cd" stroke-dasharray="5,2" d="M820.414,-369.232C860.406,-375.431 907.116,-384.711 948,-398.201 974.844,-407.058 1003.82,-422.625 1021.18,-432.669"/>
<polygon fill="#9a32cd" stroke="#9a32cd" points="820.809,-365.752 810.399,-367.722 819.766,-372.674 820.809,-365.752"/>
<text text-anchor="middle" x="889" y="-401.201" font-family="Helvetica,sans-Serif" font-size="10.00"> myVariablesList</text>
</g>
<!-- Node20 -->
<g id="node20" class="node"><title>Node20</title>
<polygon fill="white" stroke="#bfbfbf" points="651,-510.701 651,-529.701 799,-529.701 799,-510.701 651,-510.701"/>
<text text-anchor="middle" x="725" y="-517.701" font-family="Helvetica,sans-Serif" font-size="10.00">TableView&lt; view.Property &gt;</text>
</g>
<!-- Node20&#45;&gt;Node17 -->
<g id="edge23" class="edge"><title>Node20&#45;&gt;Node17</title>
<path fill="none" stroke="#9a32cd" stroke-dasharray="5,2" d="M809.156,-517.779C862.246,-514.858 925.231,-508.413 948,-494.201 960.55,-486.367 954.337,-475.303 966,-466.201 975.642,-458.676 987.776,-453.441 999.271,-449.829"/>
<polygon fill="#9a32cd" stroke="#9a32cd" points="808.834,-514.291 799.028,-518.302 809.195,-521.282 808.834,-514.291"/>
<text text-anchor="middle" x="889" y="-531.201" font-family="Helvetica,sans-Serif" font-size="10.00"> myTurtlePropertiesTable</text>
<text text-anchor="middle" x="889" y="-520.201" font-family="Helvetica,sans-Serif" font-size="10.00">myVariablesTable</text>
</g>
<!-- Node21&#45;&gt;Node17 -->
<g id="edge24" class="edge"><title>Node21&#45;&gt;Node17</title>
<path fill="none" stroke="#9a32cd" stroke-dasharray="5,2" d="M773.976,-579.208C791.56,-574.934 811.646,-570.194 830,-566.201 882.21,-554.843 909.523,-580.275 948,-543.201 973.308,-518.816 942.374,-492.22 966,-466.201 974.659,-456.664 987.24,-450.915 999.413,-447.449"/>
<polygon fill="#9a32cd" stroke="#9a32cd" points="772.826,-575.886 763.944,-581.661 774.489,-582.686 772.826,-575.886"/>
<text text-anchor="middle" x="889" y="-569.201" font-family="Helvetica,sans-Serif" font-size="10.00"> myParser</text>
</g>
<!-- Node21&#45;&gt;Node24 -->
<g id="edge42" class="edge"><title>Node21&#45;&gt;Node24</title>
<path fill="none" stroke="#9a32cd" stroke-dasharray="5,2" d="M775.3,-599.876C792.567,-602.75 812.111,-605.82 830,-608.201 890.233,-616.217 905.316,-619.086 966,-622.201 1224.77,-635.485 1299.82,-624.305 1542,-532.201 1587.03,-515.074 1606.09,-515.973 1636,-478.201 1687.03,-413.763 1696.78,-308.734 1698.6,-276.745"/>
<polygon fill="#9a32cd" stroke="#9a32cd" points="775.868,-596.422 765.426,-598.212 774.706,-603.325 775.868,-596.422"/>
<text text-anchor="middle" x="1271" y="-624.201" font-family="Helvetica,sans-Serif" font-size="10.00"> myParser</text>
</g>
<!-- Node21&#45;&gt;Node26 -->
<g id="edge37" class="edge"><title>Node21&#45;&gt;Node26</title>
<path fill="none" stroke="#9a32cd" stroke-dasharray="5,2" d="M771.723,-602.806C821.193,-612.407 899.484,-618.585 948,-577.201 975.727,-553.55 937.542,-519.968 966,-497.201 1015.98,-457.221 1046.09,-493.815 1110,-497.201 1154.21,-499.543 1205.01,-505.502 1237.29,-509.701"/>
<polygon fill="#9a32cd" stroke="#9a32cd" points="772.429,-599.378 761.928,-600.787 771.016,-606.234 772.429,-599.378"/>
<text text-anchor="middle" x="1038" y="-500.201" font-family="Helvetica,sans-Serif" font-size="10.00"> myParser</text>
</g>
<!-- Node22 -->
<g id="node22" class="node"><title>Node22</title>
<polygon fill="white" stroke="#bfbfbf" points="345,-530.201 345,-560.201 457,-560.201 457,-530.201 345,-530.201"/>
<text text-anchor="start" x="353" y="-548.201" font-family="Helvetica,sans-Serif" font-size="10.00">List&lt; Entry&lt; String,</text>
<text text-anchor="middle" x="401" y="-537.201" font-family="Helvetica,sans-Serif" font-size="10.00"> Pattern &gt; &gt;</text>
</g>
<!-- Node22&#45;&gt;Node21 -->
<g id="edge26" class="edge"><title>Node22&#45;&gt;Node21</title>
<path fill="none" stroke="#9a32cd" stroke-dasharray="5,2" d="M467.05,-532.48C510.912,-526.259 569.728,-522.527 620,-535.201 655.593,-544.175 692.258,-567.978 711.094,-581.485"/>
<polygon fill="#9a32cd" stroke="#9a32cd" points="466.455,-529.03 457.083,-533.973 467.491,-535.953 466.455,-529.03"/>
<text text-anchor="middle" x="559" y="-538.201" font-family="Helvetica,sans-Serif" font-size="10.00"> myPatterns</text>
</g>
<!-- Node23 -->
<g id="node23" class="node"><title>Node23</title>
<polygon fill="white" stroke="#bfbfbf" points="340,-592.701 340,-611.701 462,-611.701 462,-592.701 340,-592.701"/>
<text text-anchor="middle" x="401" y="-599.701" font-family="Helvetica,sans-Serif" font-size="10.00">Map&lt; String, String &gt;</text>
</g>
<!-- Node23&#45;&gt;Node21 -->
<g id="edge29" class="edge"><title>Node23&#45;&gt;Node21</title>
<path fill="none" stroke="#9a32cd" stroke-dasharray="5,2" d="M472.39,-599.796C537.597,-597.569 632.209,-594.337 684.877,-592.538"/>
<polygon fill="#9a32cd" stroke="#9a32cd" points="472.063,-596.305 462.188,-600.145 472.302,-603.301 472.063,-596.305"/>
<text text-anchor="middle" x="559" y="-602.201" font-family="Helvetica,sans-Serif" font-size="10.00"> myCommandMap</text>
</g>
<!-- Node24&#45;&gt;Node21 -->
<g id="edge30" class="edge"><title>Node24&#45;&gt;Node21</title>
<path fill="none" stroke="#9a32cd" stroke-dasharray="5,2" d="M1698.55,-286.876C1696.52,-357.057 1686.03,-593.725 1636,-646.201 1588,-696.549 1552.56,-679.201 1483,-679.201 1037,-679.201 1037,-679.201 1037,-679.201 944.384,-679.201 910.311,-701.33 830,-655.201 818.438,-648.56 822.357,-639.599 812,-631.201 795.245,-617.615 773.118,-607.459 755.504,-600.781"/>
<polygon fill="#9a32cd" stroke="#9a32cd" points="1702.05,-286.851 1698.81,-276.763 1695.05,-286.668 1702.05,-286.851"/>
<text text-anchor="middle" x="1271" y="-682.201" font-family="Helvetica,sans-Serif" font-size="10.00"> mySLogoView</text>
</g>
<!-- Node25 -->
<g id="node25" class="node"><title>Node25</title>
<polygon fill="white" stroke="#bfbfbf" points="1459.5,-76.701 1459.5,-95.701 1504.5,-95.701 1504.5,-76.701 1459.5,-76.701"/>
<text text-anchor="middle" x="1482" y="-83.701" font-family="Helvetica,sans-Serif" font-size="10.00">Stage</text>
</g>
<!-- Node25&#45;&gt;Node24 -->
<g id="edge32" class="edge"><title>Node25&#45;&gt;Node24</title>
<path fill="none" stroke="#9a32cd" stroke-dasharray="5,2" d="M1514.71,-79.7813C1548.31,-74.8833 1601.2,-72.8347 1636,-99.201 1688.64,-139.082 1697.3,-228.123 1698.72,-257.553"/>
<polygon fill="#9a32cd" stroke="#9a32cd" points="1513.84,-76.3774 1504.53,-81.4392 1514.97,-83.2864 1513.84,-76.3774"/>
<text text-anchor="middle" x="1598" y="-102.201" font-family="Helvetica,sans-Serif" font-size="10.00"> myStage</text>
</g>
<!-- Node26&#45;&gt;Node24 -->
<g id="edge34" class="edge"><title>Node26&#45;&gt;Node24</title>
<path fill="none" stroke="#9a32cd" stroke-dasharray="5,2" d="M1315.11,-518.167C1389.73,-522.58 1543.81,-520.548 1636,-441.201 1687.62,-396.77 1696.95,-306.6 1698.63,-276.917"/>
<polygon fill="#9a32cd" stroke="#9a32cd" points="1314.9,-514.645 1304.69,-517.477 1314.44,-521.63 1314.9,-514.645"/>
<text text-anchor="middle" x="1482" y="-520.201" font-family="Helvetica,sans-Serif" font-size="10.00"> myEditor</text>
</g>
<!-- Node27 -->
<g id="node27" class="node"><title>Node27</title>
<polygon fill="white" stroke="#bfbfbf" points="1017,-593.701 1017,-612.701 1059,-612.701 1059,-593.701 1017,-593.701"/>
<text text-anchor="middle" x="1038" y="-600.701" font-family="Helvetica,sans-Serif" font-size="10.00">HBox</text>
</g>
<!-- Node27&#45;&gt;Node26 -->
<g id="edge35" class="edge"><title>Node27&#45;&gt;Node26</title>
<path fill="none" stroke="midnightblue" d="M1069.16,-601.862C1104.2,-599.264 1162.96,-591.631 1208,-569.201 1230.41,-558.039 1251,-536.642 1261.89,-524.079"/>
<polygon fill="midnightblue" stroke="midnightblue" points="1068.84,-598.375 1059.09,-602.517 1069.29,-605.36 1068.84,-598.375"/>
</g>
<!-- Node28 -->
<g id="node28" class="node"><title>Node28</title>
<polygon fill="white" stroke="#bfbfbf" points="1013.5,-555.701 1013.5,-574.701 1062.5,-574.701 1062.5,-555.701 1013.5,-555.701"/>
<text text-anchor="middle" x="1038" y="-562.701" font-family="Helvetica,sans-Serif" font-size="10.00">Button</text>
</g>
<!-- Node28&#45;&gt;Node26 -->
<g id="edge36" class="edge"><title>Node28&#45;&gt;Node26</title>
<path fill="none" stroke="#9a32cd" stroke-dasharray="5,2" d="M1072.52,-561.564C1106.91,-557.388 1161.76,-549.486 1208,-537.201 1221.31,-533.663 1235.77,-528.388 1247.37,-523.782"/>
<polygon fill="#9a32cd" stroke="#9a32cd" points="1072.06,-558.094 1062.54,-562.741 1072.88,-565.046 1072.06,-558.094"/>
<text text-anchor="middle" x="1168" y="-557.201" font-family="Helvetica,sans-Serif" font-size="10.00"> runButton</text>
</g>
<!-- Node29 -->
<g id="node29" class="node"><title>Node29</title>
<polygon fill="white" stroke="#bfbfbf" points="1009,-517.701 1009,-536.701 1067,-536.701 1067,-517.701 1009,-517.701"/>
<text text-anchor="middle" x="1038" y="-524.701" font-family="Helvetica,sans-Serif" font-size="10.00">TextArea</text>
</g>
<!-- Node29&#45;&gt;Node26 -->
<g id="edge38" class="edge"><title>Node29&#45;&gt;Node26</title>
<path fill="none" stroke="#9a32cd" stroke-dasharray="5,2" d="M1077.51,-525.034C1122.24,-522.516 1195.28,-518.406 1237.35,-516.039"/>
<polygon fill="#9a32cd" stroke="#9a32cd" points="1077.11,-521.551 1067.33,-525.607 1077.51,-528.539 1077.11,-521.551"/>
<text text-anchor="middle" x="1168" y="-525.201" font-family="Helvetica,sans-Serif" font-size="10.00"> textEditor</text>
</g>
<!-- Node30 -->
<g id="node30" class="node"><title>Node30</title>
<polygon fill="white" stroke="#bfbfbf" points="1422.5,-38.701 1422.5,-57.701 1541.5,-57.701 1541.5,-38.701 1422.5,-38.701"/>
<text text-anchor="middle" x="1482" y="-45.701" font-family="Helvetica,sans-Serif" font-size="10.00">Map&lt; String, Node &gt;</text>
</g>
<!-- Node30&#45;&gt;Node24 -->
<g id="edge40" class="edge"><title>Node30&#45;&gt;Node24</title>
<path fill="none" stroke="#9a32cd" stroke-dasharray="5,2" d="M1551.9,-38.6316C1580.73,-38.3543 1612.85,-43.402 1636,-62.201 1698.44,-112.892 1700.36,-223.984 1699.44,-257.463"/>
<polygon fill="#9a32cd" stroke="#9a32cd" points="1551.74,-35.1345 1541.85,-38.938 1551.96,-42.1313 1551.74,-35.1345"/>
<text text-anchor="middle" x="1598" y="-65.201" font-family="Helvetica,sans-Serif" font-size="10.00"> variables</text>
</g>
<!-- Node31 -->
<g id="node31" class="node"><title>Node31</title>
<polygon fill="white" stroke="#bfbfbf" points="1441.5,-0.701017 1441.5,-19.701 1522.5,-19.701 1522.5,-0.701017 1441.5,-0.701017"/>
<text text-anchor="middle" x="1482" y="-7.70102" font-family="Helvetica,sans-Serif" font-size="10.00">Dimension2D</text>
</g>
<!-- Node31&#45;&gt;Node24 -->
<g id="edge43" class="edge"><title>Node31&#45;&gt;Node24</title>
<path fill="none" stroke="#9a32cd" stroke-dasharray="5,2" d="M1532.95,-1.16707C1565.92,1.8236 1608.03,-0.437917 1636,-24.201 1673.04,-55.6616 1693.35,-216.701 1697.98,-257.697"/>
<polygon fill="#9a32cd" stroke="#9a32cd" points="1532.16,2.26706 1522.6,-2.30202 1532.92,-4.69125 1532.16,2.26706"/>
<text text-anchor="middle" x="1598" y="-27.201" font-family="Helvetica,sans-Serif" font-size="10.00"> myDimensions</text>
</g>
<!-- Node32&#45;&gt;Node9 -->
<g id="edge50" class="edge"><title>Node32&#45;&gt;Node9</title>
<path fill="none" stroke="#9a32cd" stroke-dasharray="5,2" d="M1444.51,-201.245C1354.37,-169.292 1127.2,-89.0855 1110,-86.201 903.098,-51.5123 826.002,1.89459 638,-91.201 485.047,-166.941 417.566,-393.95 404.437,-443.556"/>
<polygon fill="#9a32cd" stroke="#9a32cd" points="1443.46,-204.585 1454.05,-204.629 1445.8,-197.988 1443.46,-204.585"/>
<text text-anchor="middle" x="1038" y="-89.201" font-family="Helvetica,sans-Serif" font-size="10.00"> myDrawer</text>
</g>
<!-- Node32&#45;&gt;Node24 -->
<g id="edge44" class="edge"><title>Node32&#45;&gt;Node24</title>
<path fill="none" stroke="#9a32cd" stroke-dasharray="5,2" d="M1528.69,-220.158C1559.39,-224.744 1600.55,-232.032 1636,-242.201 1650.36,-246.322 1665.98,-252.507 1678.07,-257.694"/>
<polygon fill="#9a32cd" stroke="#9a32cd" points="1529.1,-216.681 1518.7,-218.705 1528.09,-223.608 1529.1,-216.681"/>
<text text-anchor="middle" x="1598" y="-245.201" font-family="Helvetica,sans-Serif" font-size="10.00"> drawer</text>
</g>
<!-- Node33 -->
<g id="node33" class="node"><title>Node33</title>
<polygon fill="white" stroke="#bfbfbf" points="1250.5,-197.701 1250.5,-216.701 1291.5,-216.701 1291.5,-197.701 1250.5,-197.701"/>
<text text-anchor="middle" x="1271" y="-204.701" font-family="Helvetica,sans-Serif" font-size="10.00">Color</text>
</g>
<!-- Node33&#45;&gt;Node32 -->
<g id="edge46" class="edge"><title>Node33&#45;&gt;Node32</title>
<path fill="none" stroke="#9a32cd" stroke-dasharray="5,2" d="M1301.93,-206.83C1328.7,-206.64 1368.98,-206.706 1404,-208.201 1417.53,-208.779 1432.37,-209.834 1445.38,-210.901"/>
<polygon fill="#9a32cd" stroke="#9a32cd" points="1301.66,-203.332 1291.69,-206.92 1301.72,-210.332 1301.66,-203.332"/>
<text text-anchor="middle" x="1369" y="-211.201" font-family="Helvetica,sans-Serif" font-size="10.00"> myColor</text>
</g>
<!-- Node34 -->
<g id="node34" class="node"><title>Node34</title>
<polygon fill="white" stroke="#bfbfbf" points="656,-471.701 656,-490.701 794,-490.701 794,-471.701 656,-471.701"/>
<text text-anchor="middle" x="725" y="-478.701" font-family="Helvetica,sans-Serif" font-size="10.00">ObservableList&lt; String &gt;</text>
</g>
<!-- Node34&#45;&gt;Node17 -->
<g id="edge48" class="edge"><title>Node34&#45;&gt;Node17</title>
<path fill="none" stroke="#9a32cd" stroke-dasharray="5,2" d="M804.433,-471.365C866.689,-463.558 951.004,-452.985 999.137,-446.949"/>
<polygon fill="#9a32cd" stroke="#9a32cd" points="803.737,-467.925 794.25,-472.642 804.608,-474.871 803.737,-467.925"/>
<text text-anchor="middle" x="889" y="-482.201" font-family="Helvetica,sans-Serif" font-size="10.00"> myCommandItems</text>
<text text-anchor="middle" x="889" y="-471.201" font-family="Helvetica,sans-Serif" font-size="10.00">myHistoryItems</text>
</g>
<!-- Node35 -->
<g id="node35" class="node"><title>Node35</title>
<polygon fill="white" stroke="#bfbfbf" points="1006.5,-227.701 1006.5,-246.701 1069.5,-246.701 1069.5,-227.701 1006.5,-227.701"/>
<text text-anchor="middle" x="1038" y="-234.701" font-family="Helvetica,sans-Serif" font-size="10.00">Rectangle</text>
</g>
<!-- Node35&#45;&gt;Node10 -->
<g id="edge49" class="edge"><title>Node35&#45;&gt;Node10</title>
<path fill="none" stroke="#9a32cd" stroke-dasharray="5,2" d="M1079.63,-240.101C1113.88,-242.599 1164.16,-246.394 1208,-250.201 1213.82,-250.706 1219.94,-251.265 1225.98,-251.833"/>
<polygon fill="#9a32cd" stroke="#9a32cd" points="1079.77,-236.602 1069.55,-239.369 1079.27,-243.584 1079.77,-236.602"/>
<text text-anchor="middle" x="1168" y="-253.201" font-family="Helvetica,sans-Serif" font-size="10.00"> myBackground</text>
</g>
<!-- Node36 -->
<g id="node36" class="node"><title>Node36</title>
<polygon fill="white" stroke="#bfbfbf" points="333,-785.201 333,-815.201 469,-815.201 469,-785.201 333,-785.201"/>
<text text-anchor="start" x="341" y="-803.201" font-family="Helvetica,sans-Serif" font-size="10.00">List&lt; model.instructions.</text>
<text text-anchor="middle" x="401" y="-792.201" font-family="Helvetica,sans-Serif" font-size="10.00">Instruction &gt;</text>
</g>
<!-- Node36&#45;&gt;Node2 -->
<g id="edge52" class="edge"><title>Node36&#45;&gt;Node2</title>
<path fill="none" stroke="#9a32cd" stroke-dasharray="5,2" d="M474.604,-782.839C539.429,-767.338 631.962,-745.21 684.17,-732.726"/>
<polygon fill="#9a32cd" stroke="#9a32cd" points="473.761,-779.442 464.849,-785.172 475.389,-786.25 473.761,-779.442"/>
<text text-anchor="middle" x="559" y="-779.201" font-family="Helvetica,sans-Serif" font-size="10.00"> myDependencies</text>
</g>
</g>
</svg>
        <g id="navigator" transform="translate(0 0)" fill="#404254">
                <rect fill="#f2f5e9" fill-opacity="0.5" stroke="#606060" stroke-width=".5" x="0" y="0" width="60" height="60"/>
                <use id="zoomplus" xlink:href="#zoomPlus" x="17" y="9" onmousedown="handleZoom(evt,'in')"/>
                <use id="zoomminus" xlink:href="#zoomMin" x="42" y="9" onmousedown="handleZoom(evt,'out')"/>
                <use id="reset" xlink:href="#resetDef" x="30" y="36" onmousedown="handleReset()"/>
                <g id="arrowUp" xlink:href="#dirArrow" transform="translate(30 24)" onmousedown="handlePan(0,-1)">
                  <use xlink:href="#rim" fill="#404040">
                        <set attributeName="fill" to="#808080" begin="arrowUp.mouseover" end="arrowUp.mouseout"/>
                  </use>
                  <path fill="none" stroke="white" stroke-width="1.5" d="M0,-3.0v7 M-2.5,-0.5L0,-3.0L2.5,-0.5"/>
                </g>
                <g id="arrowRight" xlink:href="#dirArrow" transform="rotate(90) translate(36 -43)" onmousedown="handlePan(1,0)">
                  <use xlink:href="#rim" fill="#404040">
                        <set attributeName="fill" to="#808080" begin="arrowRight.mouseover" end="arrowRight.mouseout"/>
                  </use>
                  <path fill="none" stroke="white" stroke-width="1.5" d="M0,-3.0v7 M-2.5,-0.5L0,-3.0L2.5,-0.5"/>
                </g>
                <g id="arrowDown" xlink:href="#dirArrow" transform="rotate(180) translate(-30 -48)" onmousedown="handlePan(0,1)">
                  <use xlink:href="#rim" fill="#404040">
                        <set attributeName="fill" to="#808080" begin="arrowDown.mouseover" end="arrowDown.mouseout"/>
                  </use>
                  <path fill="none" stroke="white" stroke-width="1.5" d="M0,-3.0v7 M-2.5,-0.5L0,-3.0L2.5,-0.5"/>
                </g>
                <g id="arrowLeft" xlink:href="#dirArrow" transform="rotate(270) translate(-36 17)" onmousedown="handlePan(-1,0)">
                  <use xlink:href="#rim" fill="#404040">
                        <set attributeName="fill" to="#808080" begin="arrowLeft.mouseover" end="arrowLeft.mouseout"/>
                  </use>
                  <path fill="none" stroke="white" stroke-width="1.5" d="M0,-3.0v7 M-2.5,-0.5L0,-3.0L2.5,-0.5"/>
                </g>
        </g>
        <svg viewBox="0 0 15 15" width="100%" height="30px" preserveAspectRatio="xMaxYMin meet">
         <g id="arrow_out" transform="scale(0.3 0.3)">
          <a xlink:href="classmodel_1_1instructions_1_1_control_instruction__coll__graph_org.svg" target="_base">
           <rect id="button" ry="5" rx="5" y="6" x="6" height="38" width="38"
                fill="#f2f5e9" fill-opacity="0.5" stroke="#606060" stroke-width="1.0"/>
           <path id="arrow"
             d="M 11.500037,31.436501 C 11.940474,20.09759 22.043105,11.32322 32.158766,21.979434 L 37.068811,17.246167 C 37.068811,17.246167 37.088388,32 37.088388,32 L 22.160133,31.978069 C 22.160133,31.978069 26.997745,27.140456 26.997745,27.140456 C 18.528582,18.264221 13.291696,25.230495 11.500037,31.436501 z"
             style="fill:#404040;"/>
          </a>
         </g>
        </svg>
</svg>
