<?xml version="1.0" encoding="UTF-8" standalone="no"?>
<!DOCTYPE svg PUBLIC "-//W3C//DTD SVG 1.1//EN"
 "http://www.w3.org/Graphics/SVG/1.1/DTD/svg11.dtd">
<!-- Generated by graphviz version 2.36.0 (20140111.2315)
 -->
<!-- Title: view.SceneSetter.setupScene Pages: 1 -->
<svg width="1138pt" height="56pt"
 viewBox="0.00 0.00 1138.00 56.00" xmlns="http://www.w3.org/2000/svg" xmlns:xlink="http://www.w3.org/1999/xlink">
<g id="graph0" class="graph" transform="scale(1 1) rotate(0) translate(4 52)">
<title>view.SceneSetter.setupScene</title>
<polygon fill="white" stroke="none" points="-4,4 -4,-52 1134,-52 1134,4 -4,4"/>
<!-- Node1 -->
<g id="node1" class="node"><title>Node1</title>
<polygon fill="#bfbfbf" stroke="black" points="0,-9.5 0,-28.5 158,-28.5 158,-9.5 0,-9.5"/>
<text text-anchor="middle" x="79" y="-16.5" font-family="Helvetica,sans-Serif" font-size="10.00">view.SceneSetter.setupScene</text>
</g>
<!-- Node2 -->
<g id="node2" class="node"><title>Node2</title>
<g id="a_node2"><a xlink:href="../../d1/d75/classview_1_1_main_view.html#aa4922565e9617cd3337f4bee8fab92c1" target="_top" xlink:title="view.MainView.displayPage">
<polygon fill="white" stroke="black" points="194,-28.5 194,-47.5 336,-47.5 336,-28.5 194,-28.5"/>
<text text-anchor="middle" x="265" y="-35.5" font-family="Helvetica,sans-Serif" font-size="10.00">view.MainView.displayPage</text>
</a>
</g>
</g>
<!-- Node1&#45;&gt;Node2 -->
<g id="edge1" class="edge"><title>Node1&#45;&gt;Node2</title>
<path fill="none" stroke="midnightblue" d="M168.089,-28.0962C176.69,-28.9843 185.336,-29.877 193.726,-30.7434"/>
<polygon fill="midnightblue" stroke="midnightblue" points="168.339,-24.6035 158.033,-27.0577 167.62,-31.5664 168.339,-24.6035"/>
</g>
<!-- Node6 -->
<g id="node6" class="node"><title>Node6</title>
<g id="a_node6"><a xlink:href="../../d1/d75/classview_1_1_main_view.html#a9e27015c007bed90f32c79fc1187083f" target="_top" xlink:title="view.MainView.MainView">
<polygon fill="white" stroke="black" points="1000,-9.5 1000,-28.5 1130,-28.5 1130,-9.5 1000,-9.5"/>
<text text-anchor="middle" x="1065" y="-16.5" font-family="Helvetica,sans-Serif" font-size="10.00">view.MainView.MainView</text>
</a>
</g>
</g>
<!-- Node1&#45;&gt;Node6 -->
<g id="edge6" class="edge"><title>Node1&#45;&gt;Node6</title>
<path fill="none" stroke="midnightblue" d="M168.212,-12.0557C244.78,-6.62888 358.643,-6.80012e-15 458,-0 458,-0 458,-0 669,-0 785.715,-7.10543e-15 921.604,-8.3786 999.734,-14.008"/>
<polygon fill="midnightblue" stroke="midnightblue" points="167.853,-8.57236 158.129,-12.7787 168.354,-15.5544 167.853,-8.57236"/>
</g>
<!-- Node3 -->
<g id="node3" class="node"><title>Node3</title>
<g id="a_node3"><a xlink:href="../../d1/d75/classview_1_1_main_view.html#a832cf4e9dcfd7b29cf57405cca488493" target="_top" xlink:title="view.MainView.configureInfoMenu">
<polygon fill="white" stroke="black" points="372.5,-28.5 372.5,-47.5 545.5,-47.5 545.5,-28.5 372.5,-28.5"/>
<text text-anchor="middle" x="459" y="-35.5" font-family="Helvetica,sans-Serif" font-size="10.00">view.MainView.configureInfoMenu</text>
</a>
</g>
</g>
<!-- Node2&#45;&gt;Node3 -->
<g id="edge2" class="edge"><title>Node2&#45;&gt;Node3</title>
<path fill="none" stroke="midnightblue" d="M346.19,-38C354.842,-38 363.67,-38 372.383,-38"/>
<polygon fill="midnightblue" stroke="midnightblue" points="346.131,-34.5001 336.131,-38 346.131,-41.5001 346.131,-34.5001"/>
</g>
<!-- Node4 -->
<g id="node4" class="node"><title>Node4</title>
<g id="a_node4"><a xlink:href="../../d1/d75/classview_1_1_main_view.html#a200c2c8e08e038e2ea86acc40c17d8d2" target="_top" xlink:title="view.MainView.configureTopMenu">
<polygon fill="white" stroke="black" points="582,-28.5 582,-47.5 754,-47.5 754,-28.5 582,-28.5"/>
<text text-anchor="middle" x="668" y="-35.5" font-family="Helvetica,sans-Serif" font-size="10.00">view.MainView.configureTopMenu</text>
</a>
</g>
</g>
<!-- Node3&#45;&gt;Node4 -->
<g id="edge3" class="edge"><title>Node3&#45;&gt;Node4</title>
<path fill="none" stroke="midnightblue" d="M555.793,-38C564.44,-38 573.16,-38 581.709,-38"/>
<polygon fill="midnightblue" stroke="midnightblue" points="555.689,-34.5001 545.689,-38 555.689,-41.5001 555.689,-34.5001"/>
</g>
<!-- Node5 -->
<g id="node5" class="node"><title>Node5</title>
<g id="a_node5"><a xlink:href="../../d1/d75/classview_1_1_main_view.html#aff9e267e9368512a16e425f08d7b3ea0" target="_top" xlink:title="view.MainView.initRowConstraints">
<polygon fill="white" stroke="black" points="790.5,-28.5 790.5,-47.5 963.5,-47.5 963.5,-28.5 790.5,-28.5"/>
<text text-anchor="middle" x="877" y="-35.5" font-family="Helvetica,sans-Serif" font-size="10.00">view.MainView.initRowConstraints</text>
</a>
</g>
</g>
<!-- Node4&#45;&gt;Node5 -->
<g id="edge4" class="edge"><title>Node4&#45;&gt;Node5</title>
<path fill="none" stroke="midnightblue" d="M764.224,-38C772.898,-38 781.651,-38 790.236,-38"/>
<polygon fill="midnightblue" stroke="midnightblue" points="764.091,-34.5001 754.091,-38 764.091,-41.5001 764.091,-34.5001"/>
</g>
<!-- Node5&#45;&gt;Node6 -->
<g id="edge5" class="edge"><title>Node5&#45;&gt;Node6</title>
<path fill="none" stroke="midnightblue" d="M973.682,-28.226C982.571,-27.3181 991.426,-26.4134 999.924,-25.5454"/>
<polygon fill="midnightblue" stroke="midnightblue" points="973.243,-24.7526 963.65,-29.2508 973.954,-31.7163 973.243,-24.7526"/>
</g>
</g>
</svg>
