<?xml version="1.0" encoding="UTF-8" standalone="no"?>
<!DOCTYPE svg PUBLIC "-//W3C//DTD SVG 1.1//EN"
 "http://www.w3.org/Graphics/SVG/1.1/DTD/svg11.dtd">
<!-- Generated by graphviz version 2.36.0 (20140111.2315)
 -->
<!-- Title: view.Workspace Pages: 1 -->
<svg width="2112pt" height="792pt"
 viewBox="0.00 0.00 2112.00 792.30" xmlns="http://www.w3.org/2000/svg" xmlns:xlink="http://www.w3.org/1999/xlink">
<g id="graph0" class="graph" transform="scale(1 1) rotate(0) translate(4 788.303)">
<title>view.Workspace</title>
<polygon fill="white" stroke="none" points="-4,4 -4,-788.303 2108,-788.303 2108,4 -4,4"/>
<!-- Node1 -->
<g id="node1" class="node"><title>Node1</title>
<polygon fill="#bfbfbf" stroke="black" points="431,-472.803 431,-491.803 521,-491.803 521,-472.803 431,-472.803"/>
<text text-anchor="middle" x="476" y="-479.803" font-family="Helvetica,sans-Serif" font-size="10.00">view.Workspace</text>
</g>
<!-- Node26 -->
<g id="node26" class="node"><title>Node26</title>
<g id="a_node26"><a xlink:href="../../d4/d64/classview_1_1_view_updater.html" target="_top" xlink:title="view.ViewUpdater">
<polygon fill="white" stroke="black" points="1009,-561.803 1009,-580.803 1109,-580.803 1109,-561.803 1009,-561.803"/>
<text text-anchor="middle" x="1059" y="-568.803" font-family="Helvetica,sans-Serif" font-size="10.00">view.ViewUpdater</text>
</a>
</g>
</g>
<!-- Node1&#45;&gt;Node26 -->
<g id="edge34" class="edge"><title>Node1&#45;&gt;Node26</title>
<path fill="none" stroke="#9a32cd" stroke-dasharray="5,2" d="M531.075,-492.252C602.225,-505.167 731.238,-527.981 842,-544.303 899.017,-552.705 964.754,-560.678 1008.59,-565.752"/>
<polygon fill="#9a32cd" stroke="#9a32cd" points="531.471,-488.767 521.006,-490.42 530.218,-495.654 531.471,-488.767"/>
<text text-anchor="middle" x="737" y="-544.303" font-family="Helvetica,sans-Serif" font-size="10.00"> myWorkspace</text>
</g>
<!-- Node27 -->
<g id="node27" class="node"><title>Node27</title>
<g id="a_node27"><a xlink:href="../../de/d0a/classview_1_1_drawer.html" target="_top" xlink:title="view.Drawer">
<polygon fill="white" stroke="black" points="700.5,-632.803 700.5,-651.803 773.5,-651.803 773.5,-632.803 700.5,-632.803"/>
<text text-anchor="middle" x="737" y="-639.803" font-family="Helvetica,sans-Serif" font-size="10.00">view.Drawer</text>
</a>
</g>
</g>
<!-- Node1&#45;&gt;Node27 -->
<g id="edge36" class="edge"><title>Node1&#45;&gt;Node27</title>
<path fill="none" stroke="#9a32cd" stroke-dasharray="5,2" d="M493.311,-499.389C522.15,-528.591 585.237,-588.064 650,-620.303 665.728,-628.132 684.502,-633.351 700.491,-636.732"/>
<polygon fill="#9a32cd" stroke="#9a32cd" points="495.598,-496.722 486.112,-492.003 490.585,-501.607 495.598,-496.722"/>
<text text-anchor="middle" x="597" y="-612.303" font-family="Helvetica,sans-Serif" font-size="10.00"> myWorkspace</text>
</g>
<!-- Node30 -->
<g id="node30" class="node"><title>Node30</title>
<g id="a_node30"><a xlink:href="../../d6/de7/classview_1_1_s_logo_view.html" target="_top" xlink:title="view.SLogoView">
<polygon fill="white" stroke="black" points="2012.5,-421.803 2012.5,-440.803 2103.5,-440.803 2103.5,-421.803 2012.5,-421.803"/>
<text text-anchor="middle" x="2058" y="-428.803" font-family="Helvetica,sans-Serif" font-size="10.00">view.SLogoView</text>
</a>
</g>
</g>
<!-- Node1&#45;&gt;Node30 -->
<g id="edge41" class="edge"><title>Node1&#45;&gt;Node30</title>
<path fill="none" stroke="#9a32cd" stroke-dasharray="5,2" d="M531.192,-482.608C599.966,-483.921 721.931,-489.353 824,-510.303 832.261,-511.999 833.699,-514.82 842,-516.303 1171.18,-575.125 1259.65,-534.969 1594,-540.303 1629.55,-540.87 1638.79,-545.216 1674,-540.303 1812.99,-520.91 1972.38,-463.734 2032.42,-440.891"/>
<polygon fill="#9a32cd" stroke="#9a32cd" points="531.088,-479.106 521.031,-482.437 530.97,-486.105 531.088,-479.106"/>
<text text-anchor="middle" x="1373" y="-549.303" font-family="Helvetica,sans-Serif" font-size="10.00"> myWorkspace</text>
</g>
<!-- Node2 -->
<g id="node2" class="node"><title>Node2</title>
<polygon fill="white" stroke="#bfbfbf" points="194.5,-442.803 194.5,-461.803 261.5,-461.803 261.5,-442.803 194.5,-442.803"/>
<text text-anchor="middle" x="228" y="-449.803" font-family="Helvetica,sans-Serif" font-size="10.00">StackPane</text>
</g>
<!-- Node2&#45;&gt;Node1 -->
<g id="edge1" class="edge"><title>Node2&#45;&gt;Node1</title>
<path fill="none" stroke="midnightblue" d="M271.606,-457.499C316.191,-462.936 385.854,-471.432 430.966,-476.933"/>
<polygon fill="midnightblue" stroke="midnightblue" points="272.017,-454.023 261.667,-456.287 271.17,-460.972 272.017,-454.023"/>
</g>
<!-- Node3 -->
<g id="node3" class="node"><title>Node3</title>
<polygon fill="white" stroke="#bfbfbf" points="181.5,-579.803 181.5,-598.803 274.5,-598.803 274.5,-579.803 181.5,-579.803"/>
<text text-anchor="middle" x="228" y="-586.803" font-family="Helvetica,sans-Serif" font-size="10.00">ResourceBundle</text>
</g>
<!-- Node3&#45;&gt;Node1 -->
<g id="edge2" class="edge"><title>Node3&#45;&gt;Node1</title>
<path fill="none" stroke="#9a32cd" stroke-dasharray="5,2" d="M273.88,-576.869C306.762,-567.07 352.082,-552.113 390,-534.303 416.462,-521.874 445.03,-503.193 461.39,-491.932"/>
<polygon fill="#9a32cd" stroke="#9a32cd" points="272.705,-573.566 264.096,-579.742 274.678,-580.283 272.705,-573.566"/>
<text text-anchor="middle" x="352" y="-567.303" font-family="Helvetica,sans-Serif" font-size="10.00"> myResources</text>
</g>
<!-- Node8 -->
<g id="node8" class="node"><title>Node8</title>
<g id="a_node8"><a xlink:href="../../d1/dc7/classview_1_1_side_bar.html" target="_top" xlink:title="view.SideBar">
<polygon fill="white" stroke="black" points="1595.5,-328.803 1595.5,-347.803 1672.5,-347.803 1672.5,-328.803 1595.5,-328.803"/>
<text text-anchor="middle" x="1634" y="-335.803" font-family="Helvetica,sans-Serif" font-size="10.00">view.SideBar</text>
</a>
</g>
</g>
<!-- Node3&#45;&gt;Node8 -->
<g id="edge11" class="edge"><title>Node3&#45;&gt;Node8</title>
<path fill="none" stroke="#9a32cd" stroke-dasharray="5,2" d="M285.037,-594.755C382.512,-603.054 578.05,-614.094 632,-575.303 650.499,-562.002 631.652,-540.811 650,-527.303 732.993,-466.205 1498.86,-542.639 1576,-474.303 1609.8,-444.359 1572.28,-413.896 1594,-374.303 1599.85,-363.639 1610.04,-354.401 1618.53,-347.954"/>
<polygon fill="#9a32cd" stroke="#9a32cd" points="285.05,-591.243 274.784,-593.861 284.442,-598.217 285.05,-591.243"/>
<text text-anchor="middle" x="898" y="-505.303" font-family="Helvetica,sans-Serif" font-size="10.00"> myResources</text>
</g>
<!-- Node3&#45;&gt;Node30 -->
<g id="edge43" class="edge"><title>Node3&#45;&gt;Node30</title>
<path fill="none" stroke="#9a32cd" stroke-dasharray="5,2" d="M240.78,-607.424C272.535,-653.826 364.98,-773.303 475,-773.303 475,-773.303 475,-773.303 1841,-773.303 1917.53,-773.303 1948.4,-755.767 1994,-694.303 2055.26,-611.722 2057.81,-477.961 2057.27,-441.021"/>
<polygon fill="#9a32cd" stroke="#9a32cd" points="243.569,-605.297 235.095,-598.937 237.753,-609.193 243.569,-605.297"/>
<text text-anchor="middle" x="1225" y="-776.303" font-family="Helvetica,sans-Serif" font-size="10.00"> myResources</text>
</g>
<!-- Node4 -->
<g id="node4" class="node"><title>Node4</title>
<g id="a_node4"><a xlink:href="../../d8/df7/classview_1_1_turtle_view.html" target="_top" xlink:title="view.TurtleView">
<polygon fill="white" stroke="black" points="185,-404.803 185,-423.803 271,-423.803 271,-404.803 185,-404.803"/>
<text text-anchor="middle" x="228" y="-411.803" font-family="Helvetica,sans-Serif" font-size="10.00">view.TurtleView</text>
</a>
</g>
</g>
<!-- Node4&#45;&gt;Node1 -->
<g id="edge3" class="edge"><title>Node4&#45;&gt;Node1</title>
<path fill="none" stroke="#9a32cd" stroke-dasharray="5,2" d="M281.17,-422.962C312.967,-428.82 354.229,-437.46 390,-448.303 412.359,-455.081 437.067,-465.285 454.054,-472.746"/>
<polygon fill="#9a32cd" stroke="#9a32cd" points="281.662,-419.494 271.199,-421.159 280.416,-426.383 281.662,-419.494"/>
<text text-anchor="middle" x="352" y="-451.303" font-family="Helvetica,sans-Serif" font-size="10.00"> myActiveTurtle</text>
</g>
<!-- Node5 -->
<g id="node5" class="node"><title>Node5</title>
<polygon fill="white" stroke="#bfbfbf" points="0,-424.803 0,-443.803 68,-443.803 68,-424.803 0,-424.803"/>
<text text-anchor="middle" x="34" y="-431.803" font-family="Helvetica,sans-Serif" font-size="10.00">ImageView</text>
</g>
<!-- Node5&#45;&gt;Node4 -->
<g id="edge4" class="edge"><title>Node5&#45;&gt;Node4</title>
<path fill="none" stroke="midnightblue" d="M78.3326,-429.789C110.142,-426.476 153.125,-421.998 184.691,-418.71"/>
<polygon fill="midnightblue" stroke="midnightblue" points="77.5895,-426.348 68.006,-430.865 78.3148,-433.31 77.5895,-426.348"/>
</g>
<!-- Node6 -->
<g id="node6" class="node"><title>Node6</title>
<polygon fill="white" stroke="#bfbfbf" points="11,-376.803 11,-395.803 57,-395.803 57,-376.803 11,-376.803"/>
<text text-anchor="middle" x="34" y="-383.803" font-family="Helvetica,sans-Serif" font-size="10.00">Group</text>
</g>
<!-- Node6&#45;&gt;Node1 -->
<g id="edge7" class="edge"><title>Node6&#45;&gt;Node1</title>
<path fill="none" stroke="#9a32cd" stroke-dasharray="5,2" d="M67.4872,-381.601C117.306,-375.383 215.282,-367.09 296,-384.303 365.646,-399.155 436.274,-451.099 463.408,-472.733"/>
<polygon fill="#9a32cd" stroke="#9a32cd" points="66.7883,-378.162 57.3245,-382.925 67.693,-385.103 66.7883,-378.162"/>
<text text-anchor="middle" x="228" y="-387.303" font-family="Helvetica,sans-Serif" font-size="10.00"> myLines</text>
</g>
<!-- Node6&#45;&gt;Node4 -->
<g id="edge5" class="edge"><title>Node6&#45;&gt;Node4</title>
<path fill="none" stroke="#9a32cd" stroke-dasharray="5,2" d="M67.242,-391.005C99.4852,-395.707 149.242,-402.963 184.653,-408.128"/>
<polygon fill="#9a32cd" stroke="#9a32cd" points="67.4253,-387.495 57.0248,-389.515 66.4151,-394.422 67.4253,-387.495"/>
<text text-anchor="middle" x="114" y="-404.303" font-family="Helvetica,sans-Serif" font-size="10.00"> myStamps</text>
</g>
<!-- Node7 -->
<g id="node7" class="node"><title>Node7</title>
<polygon fill="white" stroke="#bfbfbf" points="160,-519.303 160,-549.303 296,-549.303 296,-519.303 160,-519.303"/>
<text text-anchor="start" x="168" y="-537.303" font-family="Helvetica,sans-Serif" font-size="10.00">Map&lt; Integer, view.Turtle</text>
<text text-anchor="middle" x="228" y="-526.303" font-family="Helvetica,sans-Serif" font-size="10.00">View &gt;</text>
</g>
<!-- Node7&#45;&gt;Node1 -->
<g id="edge6" class="edge"><title>Node7&#45;&gt;Node1</title>
<path fill="none" stroke="#9a32cd" stroke-dasharray="5,2" d="M306.161,-520.29C332.785,-515.231 362.759,-509.287 390,-503.303 405.886,-499.814 423.342,-495.573 438.279,-491.818"/>
<polygon fill="#9a32cd" stroke="#9a32cd" points="305.311,-516.888 296.134,-522.184 306.61,-523.767 305.311,-516.888"/>
<text text-anchor="middle" x="352" y="-522.303" font-family="Helvetica,sans-Serif" font-size="10.00"> myTurtles</text>
</g>
<!-- Node8&#45;&gt;Node1 -->
<g id="edge8" class="edge"><title>Node8&#45;&gt;Node1</title>
<path fill="none" stroke="#9a32cd" stroke-dasharray="5,2" d="M1585.34,-348.778C1582.19,-349.335 1579.05,-349.85 1576,-350.303 1394.18,-377.285 1346.79,-366.938 1164,-386.303 895.877,-414.71 827.118,-412.216 562,-461.303 545.26,-464.403 526.898,-468.81 511.537,-472.787"/>
<polygon fill="#9a32cd" stroke="#9a32cd" points="1586.22,-352.174 1595.4,-346.886 1584.93,-345.294 1586.22,-352.174"/>
<text text-anchor="middle" x="1059" y="-408.303" font-family="Helvetica,sans-Serif" font-size="10.00"> mySidebar</text>
</g>
<!-- Node8&#45;&gt;Node26 -->
<g id="edge38" class="edge"><title>Node8&#45;&gt;Node26</title>
<path fill="none" stroke="#9a32cd" stroke-dasharray="5,2" d="M1615.17,-355.181C1601.88,-367.398 1584.59,-382.418 1576,-386.303 1464.61,-436.683 1419.2,-386.374 1304,-427.303 1207.59,-461.556 1106.77,-535.21 1072.35,-561.627"/>
<polygon fill="#9a32cd" stroke="#9a32cd" points="1617.88,-357.437 1622.82,-348.061 1613.11,-352.313 1617.88,-357.437"/>
<text text-anchor="middle" x="1373" y="-430.303" font-family="Helvetica,sans-Serif" font-size="10.00"> mySidebar</text>
</g>
<!-- Node8&#45;&gt;Node30 -->
<g id="edge55" class="edge"><title>Node8&#45;&gt;Node30</title>
<path fill="none" stroke="#9a32cd" stroke-dasharray="5,2" d="M1682.91,-343.849C1706.78,-346.928 1736.02,-351.176 1762,-356.303 1858.17,-375.286 1969.86,-406.138 2024.08,-421.691"/>
<polygon fill="#9a32cd" stroke="#9a32cd" points="1683.05,-340.339 1672.69,-342.56 1682.17,-347.284 1683.05,-340.339"/>
<text text-anchor="middle" x="1840" y="-391.303" font-family="Helvetica,sans-Serif" font-size="10.00"> mySidebar</text>
</g>
<!-- Node32 -->
<g id="node32" class="node"><title>Node32</title>
<g id="a_node32"><a xlink:href="../../da/dc8/classview_1_1_editor.html" target="_top" xlink:title="view.Editor">
<polygon fill="white" stroke="black" points="1806.5,-421.803 1806.5,-440.803 1873.5,-440.803 1873.5,-421.803 1806.5,-421.803"/>
<text text-anchor="middle" x="1840" y="-428.803" font-family="Helvetica,sans-Serif" font-size="10.00">view.Editor</text>
</a>
</g>
</g>
<!-- Node8&#45;&gt;Node32 -->
<g id="edge49" class="edge"><title>Node8&#45;&gt;Node32</title>
<path fill="none" stroke="#9a32cd" stroke-dasharray="5,2" d="M1671.35,-351.597C1697.01,-361.296 1732.02,-375.169 1762,-389.303 1783.49,-399.434 1807.38,-412.814 1822.77,-421.721"/>
<polygon fill="#9a32cd" stroke="#9a32cd" points="1672.25,-348.196 1661.66,-347.964 1669.79,-354.751 1672.25,-348.196"/>
<text text-anchor="middle" x="1727" y="-392.303" font-family="Helvetica,sans-Serif" font-size="10.00"> mySidebar</text>
</g>
<!-- Node9 -->
<g id="node9" class="node"><title>Node9</title>
<polygon fill="white" stroke="#bfbfbf" points="1352.5,-286.803 1352.5,-305.803 1393.5,-305.803 1393.5,-286.803 1352.5,-286.803"/>
<text text-anchor="middle" x="1373" y="-293.803" font-family="Helvetica,sans-Serif" font-size="10.00">VBox</text>
</g>
<!-- Node9&#45;&gt;Node8 -->
<g id="edge9" class="edge"><title>Node9&#45;&gt;Node8</title>
<path fill="none" stroke="midnightblue" d="M1403.75,-298.086C1443.41,-300.859 1515.6,-307.298 1576,-320.303 1586.04,-322.466 1596.84,-325.647 1606.31,-328.737"/>
<polygon fill="midnightblue" stroke="midnightblue" points="1403.91,-294.589 1393.7,-297.413 1403.45,-301.573 1403.91,-294.589"/>
</g>
<!-- Node10 -->
<g id="node10" class="node"><title>Node10</title>
<polygon fill="white" stroke="#bfbfbf" points="972.5,-191.803 972.5,-210.803 1145.5,-210.803 1145.5,-191.803 972.5,-191.803"/>
<text text-anchor="middle" x="1059" y="-198.803" font-family="Helvetica,sans-Serif" font-size="10.00">ObservableList&lt; view.Property &gt;</text>
</g>
<!-- Node10&#45;&gt;Node8 -->
<g id="edge10" class="edge"><title>Node10&#45;&gt;Node8</title>
<path fill="none" stroke="#9a32cd" stroke-dasharray="5,2" d="M1151.33,-190.776C1281.51,-177.811 1511.82,-163.071 1576,-212.303 1614.86,-242.114 1627.98,-304.425 1631.71,-328.509"/>
<polygon fill="#9a32cd" stroke="#9a32cd" points="1150.96,-187.295 1141.36,-191.785 1151.66,-194.26 1150.96,-187.295"/>
<text text-anchor="middle" x="1373" y="-183.303" font-family="Helvetica,sans-Serif" font-size="10.00"> myVariablesList</text>
</g>
<!-- Node17 -->
<g id="node17" class="node"><title>Node17</title>
<g id="a_node17"><a xlink:href="../../d9/dd3/classview_1_1_variables_view.html" target="_top" xlink:title="view.VariablesView">
<polygon fill="white" stroke="black" points="1321,-210.803 1321,-229.803 1425,-229.803 1425,-210.803 1321,-210.803"/>
<text text-anchor="middle" x="1373" y="-217.803" font-family="Helvetica,sans-Serif" font-size="10.00">view.VariablesView</text>
</a>
</g>
</g>
<!-- Node10&#45;&gt;Node17 -->
<g id="edge24" class="edge"><title>Node10&#45;&gt;Node17</title>
<path fill="none" stroke="#9a32cd" stroke-dasharray="5,2" d="M1155.68,-207.13C1210.06,-210.442 1276.01,-214.457 1320.68,-217.178"/>
<polygon fill="#9a32cd" stroke="#9a32cd" points="1155.86,-203.634 1145.67,-206.52 1155.44,-210.622 1155.86,-203.634"/>
<text text-anchor="middle" x="1225" y="-218.303" font-family="Helvetica,sans-Serif" font-size="10.00"> myVariablesList</text>
</g>
<!-- Node11 -->
<g id="node11" class="node"><title>Node11</title>
<g id="a_node11"><a xlink:href="../../d1/dca/classmodel_1_1_execution_environment.html" target="_top" xlink:title="model.ExecutionEnvironment">
<polygon fill="white" stroke="black" points="980.5,-120.803 980.5,-139.803 1137.5,-139.803 1137.5,-120.803 980.5,-120.803"/>
<text text-anchor="middle" x="1059" y="-127.803" font-family="Helvetica,sans-Serif" font-size="10.00">model.ExecutionEnvironment</text>
</a>
</g>
</g>
<!-- Node11&#45;&gt;Node8 -->
<g id="edge12" class="edge"><title>Node11&#45;&gt;Node8</title>
<path fill="none" stroke="#9a32cd" stroke-dasharray="5,2" d="M1147.93,-127.28C1277.61,-124.643 1511.76,-127.407 1576,-178.303 1624.77,-216.941 1631.87,-300.581 1632.86,-328.791"/>
<polygon fill="#9a32cd" stroke="#9a32cd" points="1147.55,-123.787 1137.63,-127.505 1147.7,-130.786 1147.55,-123.787"/>
<text text-anchor="middle" x="1373" y="-141.303" font-family="Helvetica,sans-Serif" font-size="10.00"> myEnvironment</text>
</g>
<!-- Node11&#45;&gt;Node17 -->
<g id="edge25" class="edge"><title>Node11&#45;&gt;Node17</title>
<path fill="none" stroke="#9a32cd" stroke-dasharray="5,2" d="M1105.63,-142.556C1151.36,-154.948 1223.73,-174.855 1286,-193.303 1304.76,-198.86 1325.7,-205.427 1342.22,-210.694"/>
<polygon fill="#9a32cd" stroke="#9a32cd" points="1106.29,-139.11 1095.72,-139.878 1104.46,-145.867 1106.29,-139.11"/>
<text text-anchor="middle" x="1225" y="-196.303" font-family="Helvetica,sans-Serif" font-size="10.00"> myEnvironment</text>
</g>
<!-- Node23 -->
<g id="node23" class="node"><title>Node23</title>
<g id="a_node23"><a xlink:href="../../dc/df5/classmodel_1_1_parser.html" target="_top" xlink:title="model.Parser">
<polygon fill="white" stroke="black" points="1333,-587.803 1333,-606.803 1413,-606.803 1413,-587.803 1333,-587.803"/>
<text text-anchor="middle" x="1373" y="-594.803" font-family="Helvetica,sans-Serif" font-size="10.00">model.Parser</text>
</a>
</g>
</g>
<!-- Node11&#45;&gt;Node23 -->
<g id="edge31" class="edge"><title>Node11&#45;&gt;Node23</title>
<path fill="none" stroke="#9a32cd" stroke-dasharray="5,2" d="M1098.38,-144.148C1115.82,-152.468 1134.98,-164.884 1146,-182.303 1188.5,-249.508 1136.22,-285.8 1164,-360.303 1201.78,-461.626 1223.68,-486.895 1304,-559.303 1317.36,-571.347 1335.19,-581.133 1349.24,-587.757"/>
<polygon fill="#9a32cd" stroke="#9a32cd" points="1099.49,-140.81 1088.93,-139.941 1096.64,-147.205 1099.49,-140.81"/>
<text text-anchor="middle" x="1225" y="-546.303" font-family="Helvetica,sans-Serif" font-size="10.00"> myExecutionParameters</text>
</g>
<!-- Node11&#45;&gt;Node30 -->
<g id="edge51" class="edge"><title>Node11&#45;&gt;Node30</title>
<path fill="none" stroke="#9a32cd" stroke-dasharray="5,2" d="M1113.07,-118.752C1174.93,-106.319 1280.36,-88.3031 1372,-88.3031 1372,-88.3031 1372,-88.3031 1841,-88.3031 2003.21,-88.3031 2048.43,-366.374 2055.83,-421.771"/>
<polygon fill="#9a32cd" stroke="#9a32cd" points="1112.26,-115.346 1103.16,-120.773 1113.66,-122.205 1112.26,-115.346"/>
<text text-anchor="middle" x="1634" y="-91.3031" font-family="Helvetica,sans-Serif" font-size="10.00"> myEnvironment</text>
</g>
<!-- Node12 -->
<g id="node12" class="node"><title>Node12</title>
<polygon fill="white" stroke="#bfbfbf" points="701.5,-123.803 701.5,-142.803 772.5,-142.803 772.5,-123.803 701.5,-123.803"/>
<text text-anchor="middle" x="737" y="-130.803" font-family="Helvetica,sans-Serif" font-size="10.00">Observable</text>
</g>
<!-- Node12&#45;&gt;Node11 -->
<g id="edge13" class="edge"><title>Node12&#45;&gt;Node11</title>
<path fill="none" stroke="midnightblue" d="M782.61,-132.885C833.684,-132.406 918.273,-131.613 980.249,-131.032"/>
<polygon fill="midnightblue" stroke="midnightblue" points="782.516,-129.386 772.55,-132.979 782.582,-136.385 782.516,-129.386"/>
</g>
<!-- Node13 -->
<g id="node13" class="node"><title>Node13</title>
<polygon fill="white" stroke="#bfbfbf" points="692.5,-85.8031 692.5,-104.803 781.5,-104.803 781.5,-85.8031 692.5,-85.8031"/>
<text text-anchor="middle" x="737" y="-92.8031" font-family="Helvetica,sans-Serif" font-size="10.00">Set&lt; Integer &gt;</text>
</g>
<!-- Node13&#45;&gt;Node11 -->
<g id="edge14" class="edge"><title>Node13&#45;&gt;Node11</title>
<path fill="none" stroke="#9a32cd" stroke-dasharray="5,2" d="M791.808,-95.4231C835.659,-96.1487 899.088,-98.6298 954,-106.303 977.49,-109.586 1003.49,-115.586 1023.62,-120.765"/>
<polygon fill="#9a32cd" stroke="#9a32cd" points="791.701,-91.9213 781.653,-95.2806 791.603,-98.9206 791.701,-91.9213"/>
<text text-anchor="middle" x="898" y="-120.303" font-family="Helvetica,sans-Serif" font-size="10.00"> myTurtleList</text>
<text text-anchor="middle" x="898" y="-109.303" font-family="Helvetica,sans-Serif" font-size="10.00">activeTurtleList</text>
</g>
<!-- Node14 -->
<g id="node14" class="node"><title>Node14</title>
<polygon fill="white" stroke="#bfbfbf" points="650,-36.3031 650,-66.3031 824,-66.3031 824,-36.3031 650,-36.3031"/>
<text text-anchor="start" x="658" y="-54.3031" font-family="Helvetica,sans-Serif" font-size="10.00">Map&lt; String, model.instructions.</text>
<text text-anchor="middle" x="737" y="-43.3031" font-family="Helvetica,sans-Serif" font-size="10.00">Instruction &gt;</text>
</g>
<!-- Node14&#45;&gt;Node11 -->
<g id="edge15" class="edge"><title>Node14&#45;&gt;Node11</title>
<path fill="none" stroke="#9a32cd" stroke-dasharray="5,2" d="M834.125,-59.0594C872.007,-63.6734 915.565,-70.9391 954,-82.3031 986.228,-91.8318 1021.23,-109.698 1041.3,-120.742"/>
<polygon fill="#9a32cd" stroke="#9a32cd" points="834.453,-55.5739 824.113,-57.8849 833.638,-62.5262 834.453,-55.5739"/>
<text text-anchor="middle" x="898" y="-85.3031" font-family="Helvetica,sans-Serif" font-size="10.00"> myUserInstructionMap</text>
</g>
<!-- Node15 -->
<g id="node15" class="node"><title>Node15</title>
<polygon fill="white" stroke="#bfbfbf" points="673,-161.803 673,-180.803 801,-180.803 801,-161.803 673,-161.803"/>
<text text-anchor="middle" x="737" y="-168.803" font-family="Helvetica,sans-Serif" font-size="10.00">Map&lt; String, Double &gt;</text>
</g>
<!-- Node15&#45;&gt;Node11 -->
<g id="edge16" class="edge"><title>Node15&#45;&gt;Node11</title>
<path fill="none" stroke="#9a32cd" stroke-dasharray="5,2" d="M811.503,-163.486C853.323,-158.866 906.649,-152.683 954,-146.303 968.483,-144.352 984.071,-142.057 998.658,-139.825"/>
<polygon fill="#9a32cd" stroke="#9a32cd" points="810.96,-160.024 801.403,-164.596 811.725,-166.982 810.96,-160.024"/>
<text text-anchor="middle" x="898" y="-163.303" font-family="Helvetica,sans-Serif" font-size="10.00"> myVariableMap</text>
</g>
<!-- Node16 -->
<g id="node16" class="node"><title>Node16</title>
<polygon fill="white" stroke="#bfbfbf" points="663,-311.803 663,-330.803 811,-330.803 811,-311.803 663,-311.803"/>
<text text-anchor="middle" x="737" y="-318.803" font-family="Helvetica,sans-Serif" font-size="10.00">TableView&lt; view.Property &gt;</text>
</g>
<!-- Node16&#45;&gt;Node8 -->
<g id="edge17" class="edge"><title>Node16&#45;&gt;Node8</title>
<path fill="none" stroke="#9a32cd" stroke-dasharray="5,2" d="M821.36,-322.886C1009.58,-326.462 1461.5,-335.046 1595.15,-337.584"/>
<polygon fill="#9a32cd" stroke="#9a32cd" points="821.306,-319.385 811.242,-322.694 821.173,-326.384 821.306,-319.385"/>
<text text-anchor="middle" x="1225" y="-346.303" font-family="Helvetica,sans-Serif" font-size="10.00"> myTurtlePropertiesTable</text>
<text text-anchor="middle" x="1225" y="-335.303" font-family="Helvetica,sans-Serif" font-size="10.00">myVariablesTable</text>
</g>
<!-- Node18 -->
<g id="node18" class="node"><title>Node18</title>
<g id="a_node18"><a xlink:href="../../d5/dea/classview_1_1_side_table_view.html" target="_top" xlink:title="view.SideTableView">
<polygon fill="white" stroke="black" points="1006,-253.803 1006,-272.803 1112,-272.803 1112,-253.803 1006,-253.803"/>
<text text-anchor="middle" x="1059" y="-260.803" font-family="Helvetica,sans-Serif" font-size="10.00">view.SideTableView</text>
</a>
</g>
</g>
<!-- Node16&#45;&gt;Node18 -->
<g id="edge22" class="edge"><title>Node16&#45;&gt;Node18</title>
<path fill="none" stroke="#9a32cd" stroke-dasharray="5,2" d="M812.979,-310.229C854.619,-303.81 907.294,-295.244 954,-286.303 974.886,-282.305 997.995,-277.257 1017.11,-272.91"/>
<polygon fill="#9a32cd" stroke="#9a32cd" points="812.268,-306.797 802.914,-311.772 813.329,-313.717 812.268,-306.797"/>
<text text-anchor="middle" x="898" y="-309.303" font-family="Helvetica,sans-Serif" font-size="10.00"> myTable</text>
</g>
<!-- Node17&#45;&gt;Node8 -->
<g id="edge18" class="edge"><title>Node17&#45;&gt;Node8</title>
<path fill="none" stroke="#9a32cd" stroke-dasharray="5,2" d="M1435.66,-214.965C1478.27,-214.279 1534.53,-219.6 1576,-246.303 1606.96,-266.24 1623.93,-309.577 1630.18,-328.796"/>
<polygon fill="#9a32cd" stroke="#9a32cd" points="1435.31,-211.474 1425.41,-215.249 1435.51,-218.471 1435.31,-211.474"/>
<text text-anchor="middle" x="1518" y="-249.303" font-family="Helvetica,sans-Serif" font-size="10.00"> myVariablesPane</text>
</g>
<!-- Node18&#45;&gt;Node17 -->
<g id="edge19" class="edge"><title>Node18&#45;&gt;Node17</title>
<path fill="none" stroke="midnightblue" d="M1122.41,-254.702C1180.68,-246.671 1266.6,-234.83 1320.9,-227.345"/>
<polygon fill="midnightblue" stroke="midnightblue" points="1121.65,-251.273 1112.22,-256.106 1122.61,-258.208 1121.65,-251.273"/>
</g>
<!-- Node22 -->
<g id="node22" class="node"><title>Node22</title>
<g id="a_node22"><a xlink:href="../../d9/d3a/classview_1_1_turtle_properties_view.html" target="_top" xlink:title="view.TurtlePropertiesView">
<polygon fill="white" stroke="black" points="1305.5,-248.803 1305.5,-267.803 1440.5,-267.803 1440.5,-248.803 1305.5,-248.803"/>
<text text-anchor="middle" x="1373" y="-255.803" font-family="Helvetica,sans-Serif" font-size="10.00">view.TurtlePropertiesView</text>
</a>
</g>
</g>
<!-- Node18&#45;&gt;Node22 -->
<g id="edge27" class="edge"><title>Node18&#45;&gt;Node22</title>
<path fill="none" stroke="midnightblue" d="M1122.51,-262.301C1175.51,-261.452 1251.34,-260.237 1305.46,-259.369"/>
<polygon fill="midnightblue" stroke="midnightblue" points="1122.16,-258.806 1112.22,-262.466 1122.28,-265.805 1122.16,-258.806"/>
</g>
<!-- Node19 -->
<g id="node19" class="node"><title>Node19</title>
<g id="a_node19"><a xlink:href="../../d2/d38/classview_1_1_side_properties_view.html" target="_top" xlink:title="view.SidePropertiesView">
<polygon fill="white" stroke="black" points="671.5,-209.803 671.5,-228.803 802.5,-228.803 802.5,-209.803 671.5,-209.803"/>
<text text-anchor="middle" x="737" y="-216.803" font-family="Helvetica,sans-Serif" font-size="10.00">view.SidePropertiesView</text>
</a>
</g>
</g>
<!-- Node19&#45;&gt;Node18 -->
<g id="edge20" class="edge"><title>Node19&#45;&gt;Node18</title>
<path fill="none" stroke="midnightblue" d="M812.81,-229.589C872.066,-237.737 953.328,-248.911 1005.75,-256.119"/>
<polygon fill="midnightblue" stroke="midnightblue" points="813.14,-226.102 802.757,-228.207 812.187,-233.037 813.14,-226.102"/>
</g>
<!-- Node20 -->
<g id="node20" class="node"><title>Node20</title>
<polygon fill="white" stroke="#bfbfbf" points="408.5,-209.803 408.5,-228.803 543.5,-228.803 543.5,-209.803 408.5,-209.803"/>
<text text-anchor="middle" x="476" y="-216.803" font-family="Helvetica,sans-Serif" font-size="10.00">ObservableList&lt; Node &gt;</text>
</g>
<!-- Node20&#45;&gt;Node19 -->
<g id="edge21" class="edge"><title>Node20&#45;&gt;Node19</title>
<path fill="none" stroke="#9a32cd" stroke-dasharray="5,2" d="M554.035,-219.303C591.387,-219.303 635.747,-219.303 671.317,-219.303"/>
<polygon fill="#9a32cd" stroke="#9a32cd" points="553.699,-215.803 543.699,-219.303 553.699,-222.803 553.699,-215.803"/>
<text text-anchor="middle" x="597" y="-222.303" font-family="Helvetica,sans-Serif" font-size="10.00"> myChildren</text>
</g>
<!-- Node21 -->
<g id="node21" class="node"><title>Node21</title>
<polygon fill="white" stroke="#bfbfbf" points="659.5,-248.303 659.5,-278.303 814.5,-278.303 814.5,-248.303 659.5,-248.303"/>
<text text-anchor="start" x="667.5" y="-266.303" font-family="Helvetica,sans-Serif" font-size="10.00">TableColumn&lt; view.Property,</text>
<text text-anchor="middle" x="737" y="-255.303" font-family="Helvetica,sans-Serif" font-size="10.00"> String &gt;</text>
</g>
<!-- Node21&#45;&gt;Node18 -->
<g id="edge23" class="edge"><title>Node21&#45;&gt;Node18</title>
<path fill="none" stroke="#9a32cd" stroke-dasharray="5,2" d="M824.896,-263.303C882.818,-263.303 957.022,-263.303 1005.96,-263.303"/>
<polygon fill="#9a32cd" stroke="#9a32cd" points="824.648,-259.803 814.648,-263.303 824.648,-266.803 824.648,-259.803"/>
<text text-anchor="middle" x="898" y="-277.303" font-family="Helvetica,sans-Serif" font-size="10.00"> rightTableCol</text>
<text text-anchor="middle" x="898" y="-266.303" font-family="Helvetica,sans-Serif" font-size="10.00">leftTableCol</text>
</g>
<!-- Node22&#45;&gt;Node8 -->
<g id="edge26" class="edge"><title>Node22&#45;&gt;Node8</title>
<path fill="none" stroke="#9a32cd" stroke-dasharray="5,2" d="M1451.08,-259.513C1490.04,-262.622 1537.17,-270.316 1576,-288.303 1596.54,-297.819 1615.21,-317.119 1625.25,-328.76"/>
<polygon fill="#9a32cd" stroke="#9a32cd" points="1451.06,-256.003 1440.84,-258.785 1450.57,-262.985 1451.06,-256.003"/>
<text text-anchor="middle" x="1518" y="-291.303" font-family="Helvetica,sans-Serif" font-size="10.00"> myTurtlePropertiesPane</text>
</g>
<!-- Node23&#45;&gt;Node8 -->
<g id="edge28" class="edge"><title>Node23&#45;&gt;Node8</title>
<path fill="none" stroke="#9a32cd" stroke-dasharray="5,2" d="M1401.17,-582.757C1413.73,-575.872 1428.76,-567.399 1442,-559.303 1450.2,-554.287 1451.52,-551.83 1460,-547.303 1509.23,-521.036 1541.76,-543.356 1576,-499.303 1610.45,-454.987 1567.87,-423.98 1594,-374.303 1599.66,-363.538 1609.85,-354.303 1618.4,-347.883"/>
<polygon fill="#9a32cd" stroke="#9a32cd" points="1399.23,-579.827 1392.12,-587.681 1402.57,-585.976 1399.23,-579.827"/>
<text text-anchor="middle" x="1518" y="-550.303" font-family="Helvetica,sans-Serif" font-size="10.00"> myParser</text>
</g>
<!-- Node23&#45;&gt;Node30 -->
<g id="edge52" class="edge"><title>Node23&#45;&gt;Node30</title>
<path fill="none" stroke="#9a32cd" stroke-dasharray="5,2" d="M1423.48,-601.39C1553.58,-611.152 1901.58,-630.624 1994,-568.303 2038.93,-538.007 2052.39,-467.131 2055.9,-441.109"/>
<polygon fill="#9a32cd" stroke="#9a32cd" points="1423.64,-597.892 1413.4,-600.62 1423.1,-604.872 1423.64,-597.892"/>
<text text-anchor="middle" x="1727" y="-615.303" font-family="Helvetica,sans-Serif" font-size="10.00"> myParser</text>
</g>
<!-- Node23&#45;&gt;Node32 -->
<g id="edge47" class="edge"><title>Node23&#45;&gt;Node32</title>
<path fill="none" stroke="#9a32cd" stroke-dasharray="5,2" d="M1423.13,-591.156C1464.55,-585.187 1525.04,-574.61 1576,-558.303 1662.57,-530.604 1680.72,-513.979 1762,-473.303 1783.11,-462.74 1806.88,-449.572 1822.36,-440.825"/>
<polygon fill="#9a32cd" stroke="#9a32cd" points="1422.45,-587.717 1413.03,-592.575 1423.42,-594.649 1422.45,-587.717"/>
<text text-anchor="middle" x="1634" y="-555.303" font-family="Helvetica,sans-Serif" font-size="10.00"> myParser</text>
</g>
<!-- Node24 -->
<g id="node24" class="node"><title>Node24</title>
<polygon fill="white" stroke="#bfbfbf" points="707,-591.803 707,-610.803 767,-610.803 767,-591.803 707,-591.803"/>
<text text-anchor="middle" x="737" y="-598.803" font-family="Helvetica,sans-Serif" font-size="10.00">Observer</text>
</g>
<!-- Node24&#45;&gt;Node23 -->
<g id="edge29" class="edge"><title>Node24&#45;&gt;Node23</title>
<path fill="none" stroke="midnightblue" d="M777.317,-601.055C891.034,-600.338 1219.4,-598.266 1332.88,-597.55"/>
<polygon fill="midnightblue" stroke="midnightblue" points="777.285,-597.555 767.308,-601.118 777.33,-604.555 777.285,-597.555"/>
</g>
<!-- Node24&#45;&gt;Node26 -->
<g id="edge33" class="edge"><title>Node24&#45;&gt;Node26</title>
<path fill="none" stroke="midnightblue" d="M777.539,-597.596C835.954,-592.12 945.239,-581.874 1008.77,-575.918"/>
<polygon fill="midnightblue" stroke="midnightblue" points="776.876,-594.143 767.246,-598.561 777.529,-601.112 776.876,-594.143"/>
</g>
<!-- Node25 -->
<g id="node25" class="node"><title>Node25</title>
<polygon fill="white" stroke="#bfbfbf" points="1003,-638.303 1003,-668.303 1115,-668.303 1115,-638.303 1003,-638.303"/>
<text text-anchor="start" x="1011" y="-656.303" font-family="Helvetica,sans-Serif" font-size="10.00">List&lt; Entry&lt; String,</text>
<text text-anchor="middle" x="1059" y="-645.303" font-family="Helvetica,sans-Serif" font-size="10.00"> Pattern &gt; &gt;</text>
</g>
<!-- Node25&#45;&gt;Node23 -->
<g id="edge30" class="edge"><title>Node25&#45;&gt;Node23</title>
<path fill="none" stroke="#9a32cd" stroke-dasharray="5,2" d="M1125.24,-647.463C1170.64,-642.714 1232.41,-634.882 1286,-623.303 1305.82,-619.021 1327.69,-612.383 1344.41,-606.886"/>
<polygon fill="#9a32cd" stroke="#9a32cd" points="1124.82,-643.988 1115.23,-648.489 1125.53,-650.951 1124.82,-643.988"/>
<text text-anchor="middle" x="1225" y="-645.303" font-family="Helvetica,sans-Serif" font-size="10.00"> myPatterns</text>
</g>
<!-- Node26&#45;&gt;Node23 -->
<g id="edge32" class="edge"><title>Node26&#45;&gt;Node23</title>
<path fill="none" stroke="#9a32cd" stroke-dasharray="5,2" d="M1119.06,-573.204C1164.73,-575.035 1229.49,-578.419 1286,-584.303 1301.32,-585.898 1318.08,-588.286 1332.71,-590.581"/>
<polygon fill="#9a32cd" stroke="#9a32cd" points="1119.17,-569.705 1109.04,-572.815 1118.9,-576.7 1119.17,-569.705"/>
<text text-anchor="middle" x="1225" y="-587.303" font-family="Helvetica,sans-Serif" font-size="10.00"> myViewUpdater</text>
</g>
<!-- Node27&#45;&gt;Node26 -->
<g id="edge35" class="edge"><title>Node27&#45;&gt;Node26</title>
<path fill="none" stroke="#9a32cd" stroke-dasharray="5,2" d="M783.804,-634.493C827.683,-626.753 895.659,-614.086 954,-600.303 978.445,-594.528 1005.79,-586.853 1026.31,-580.85"/>
<polygon fill="#9a32cd" stroke="#9a32cd" points="782.978,-631.084 773.733,-636.257 784.187,-637.979 782.978,-631.084"/>
<text text-anchor="middle" x="898" y="-626.303" font-family="Helvetica,sans-Serif" font-size="10.00"> myDrawer</text>
</g>
<!-- Node27&#45;&gt;Node30 -->
<g id="edge54" class="edge"><title>Node27&#45;&gt;Node30</title>
<path fill="none" stroke="#9a32cd" stroke-dasharray="5,2" d="M765.984,-656.271C820.659,-682.231 946.117,-735.303 1058,-735.303 1058,-735.303 1058,-735.303 1841,-735.303 1920.12,-735.303 1945.43,-706.762 1994,-644.303 2044.89,-578.851 2054.74,-473.101 2056.59,-440.907"/>
<polygon fill="#9a32cd" stroke="#9a32cd" points="767.447,-653.091 756.919,-651.905 764.41,-659.398 767.447,-653.091"/>
<text text-anchor="middle" x="1518" y="-738.303" font-family="Helvetica,sans-Serif" font-size="10.00"> drawer</text>
</g>
<!-- Node28 -->
<g id="node28" class="node"><title>Node28</title>
<polygon fill="white" stroke="#bfbfbf" points="455.5,-632.803 455.5,-651.803 496.5,-651.803 496.5,-632.803 455.5,-632.803"/>
<text text-anchor="middle" x="476" y="-639.803" font-family="Helvetica,sans-Serif" font-size="10.00">Color</text>
</g>
<!-- Node28&#45;&gt;Node27 -->
<g id="edge37" class="edge"><title>Node28&#45;&gt;Node27</title>
<path fill="none" stroke="#9a32cd" stroke-dasharray="5,2" d="M506.953,-642.303C554.93,-642.303 648.825,-642.303 700.242,-642.303"/>
<polygon fill="#9a32cd" stroke="#9a32cd" points="506.893,-638.803 496.893,-642.303 506.893,-645.803 506.893,-638.803"/>
<text text-anchor="middle" x="597" y="-645.303" font-family="Helvetica,sans-Serif" font-size="10.00"> myColor</text>
</g>
<!-- Node29 -->
<g id="node29" class="node"><title>Node29</title>
<polygon fill="white" stroke="#bfbfbf" points="998,-687.803 998,-706.803 1120,-706.803 1120,-687.803 998,-687.803"/>
<text text-anchor="middle" x="1059" y="-694.803" font-family="Helvetica,sans-Serif" font-size="10.00">Map&lt; String, String &gt;</text>
</g>
<!-- Node29&#45;&gt;Node23 -->
<g id="edge39" class="edge"><title>Node29&#45;&gt;Node23</title>
<path fill="none" stroke="#9a32cd" stroke-dasharray="5,2" d="M1130.15,-692.75C1175.92,-687.901 1236.19,-677.903 1286,-657.303 1316.11,-644.848 1346.16,-620.476 1361.51,-606.942"/>
<polygon fill="#9a32cd" stroke="#9a32cd" points="1129.63,-689.285 1120.03,-693.764 1130.32,-696.25 1129.63,-689.285"/>
<text text-anchor="middle" x="1225" y="-690.303" font-family="Helvetica,sans-Serif" font-size="10.00"> myCommandMap</text>
</g>
<!-- Node30&#45;&gt;Node23 -->
<g id="edge40" class="edge"><title>Node30&#45;&gt;Node23</title>
<path fill="none" stroke="#9a32cd" stroke-dasharray="5,2" d="M2056.91,-451.34C2055.51,-489.93 2046.29,-574.036 1994,-611.303 1802.43,-747.842 1486.21,-641.106 1397.68,-606.906"/>
<polygon fill="#9a32cd" stroke="#9a32cd" points="2060.41,-451 2057.13,-440.928 2053.42,-450.851 2060.41,-451"/>
<text text-anchor="middle" x="1727" y="-681.303" font-family="Helvetica,sans-Serif" font-size="10.00"> mySLogoView</text>
</g>
<!-- Node31 -->
<g id="node31" class="node"><title>Node31</title>
<polygon fill="white" stroke="#bfbfbf" points="1817.5,-282.803 1817.5,-301.803 1862.5,-301.803 1862.5,-282.803 1817.5,-282.803"/>
<text text-anchor="middle" x="1840" y="-289.803" font-family="Helvetica,sans-Serif" font-size="10.00">Stage</text>
</g>
<!-- Node31&#45;&gt;Node30 -->
<g id="edge42" class="edge"><title>Node31&#45;&gt;Node30</title>
<path fill="none" stroke="#9a32cd" stroke-dasharray="5,2" d="M1872.78,-288.709C1906,-286.644 1958.17,-288.344 1994,-313.303 2032.68,-340.248 2049.63,-398.658 2054.99,-421.689"/>
<polygon fill="#9a32cd" stroke="#9a32cd" points="1872.41,-285.228 1862.71,-289.488 1872.95,-292.207 1872.41,-285.228"/>
<text text-anchor="middle" x="1956" y="-316.303" font-family="Helvetica,sans-Serif" font-size="10.00"> myStage</text>
</g>
<!-- Node32&#45;&gt;Node30 -->
<g id="edge44" class="edge"><title>Node32&#45;&gt;Node30</title>
<path fill="none" stroke="#9a32cd" stroke-dasharray="5,2" d="M1883.82,-431.303C1920.96,-431.303 1974.53,-431.303 2012.23,-431.303"/>
<polygon fill="#9a32cd" stroke="#9a32cd" points="1883.81,-427.803 1873.81,-431.303 1883.81,-434.803 1883.81,-427.803"/>
<text text-anchor="middle" x="1956" y="-434.303" font-family="Helvetica,sans-Serif" font-size="10.00"> myEditor</text>
</g>
<!-- Node33 -->
<g id="node33" class="node"><title>Node33</title>
<polygon fill="white" stroke="#bfbfbf" points="1613,-421.803 1613,-440.803 1655,-440.803 1655,-421.803 1613,-421.803"/>
<text text-anchor="middle" x="1634" y="-428.803" font-family="Helvetica,sans-Serif" font-size="10.00">HBox</text>
</g>
<!-- Node33&#45;&gt;Node32 -->
<g id="edge45" class="edge"><title>Node33&#45;&gt;Node32</title>
<path fill="none" stroke="midnightblue" d="M1665.71,-431.303C1703.59,-431.303 1767.71,-431.303 1806.43,-431.303"/>
<polygon fill="midnightblue" stroke="midnightblue" points="1665.31,-427.803 1655.31,-431.303 1665.31,-434.803 1665.31,-427.803"/>
</g>
<!-- Node34 -->
<g id="node34" class="node"><title>Node34</title>
<polygon fill="white" stroke="#bfbfbf" points="1609.5,-383.803 1609.5,-402.803 1658.5,-402.803 1658.5,-383.803 1609.5,-383.803"/>
<text text-anchor="middle" x="1634" y="-390.803" font-family="Helvetica,sans-Serif" font-size="10.00">Button</text>
</g>
<!-- Node34&#45;&gt;Node32 -->
<g id="edge46" class="edge"><title>Node34&#45;&gt;Node32</title>
<path fill="none" stroke="#9a32cd" stroke-dasharray="5,2" d="M1668.84,-399.306C1694.44,-403.878 1730.45,-410.374 1762,-416.303 1776.59,-419.045 1792.71,-422.172 1806.42,-424.858"/>
<polygon fill="#9a32cd" stroke="#9a32cd" points="1669.35,-395.842 1658.89,-397.533 1668.12,-402.733 1669.35,-395.842"/>
<text text-anchor="middle" x="1727" y="-419.303" font-family="Helvetica,sans-Serif" font-size="10.00"> runButton</text>
</g>
<!-- Node35 -->
<g id="node35" class="node"><title>Node35</title>
<polygon fill="white" stroke="#bfbfbf" points="1605,-459.803 1605,-478.803 1663,-478.803 1663,-459.803 1605,-459.803"/>
<text text-anchor="middle" x="1634" y="-466.803" font-family="Helvetica,sans-Serif" font-size="10.00">TextArea</text>
</g>
<!-- Node35&#45;&gt;Node32 -->
<g id="edge48" class="edge"><title>Node35&#45;&gt;Node32</title>
<path fill="none" stroke="#9a32cd" stroke-dasharray="5,2" d="M1673.64,-462.105C1712.08,-454.946 1770.38,-444.086 1806.5,-437.357"/>
<polygon fill="#9a32cd" stroke="#9a32cd" points="1672.56,-458.747 1663.37,-464.019 1673.84,-465.629 1672.56,-458.747"/>
<text text-anchor="middle" x="1727" y="-461.303" font-family="Helvetica,sans-Serif" font-size="10.00"> textEditor</text>
</g>
<!-- Node36 -->
<g id="node36" class="node"><title>Node36</title>
<polygon fill="white" stroke="#bfbfbf" points="1780.5,-40.8031 1780.5,-59.8031 1899.5,-59.8031 1899.5,-40.8031 1780.5,-40.8031"/>
<text text-anchor="middle" x="1840" y="-47.8031" font-family="Helvetica,sans-Serif" font-size="10.00">Map&lt; String, Node &gt;</text>
</g>
<!-- Node36&#45;&gt;Node30 -->
<g id="edge50" class="edge"><title>Node36&#45;&gt;Node30</title>
<path fill="none" stroke="#9a32cd" stroke-dasharray="5,2" d="M1896.53,-39.6663C1928.92,-36.8347 1968.31,-39.707 1994,-63.3031 2048.66,-113.511 2055.94,-368.362 2056.87,-421.562"/>
<polygon fill="#9a32cd" stroke="#9a32cd" points="1895.86,-36.2183 1886.29,-40.767 1896.61,-43.1782 1895.86,-36.2183"/>
<text text-anchor="middle" x="1956" y="-66.3031" font-family="Helvetica,sans-Serif" font-size="10.00"> variables</text>
</g>
<!-- Node37 -->
<g id="node37" class="node"><title>Node37</title>
<polygon fill="white" stroke="#bfbfbf" points="1799.5,-2.8031 1799.5,-21.8031 1880.5,-21.8031 1880.5,-2.8031 1799.5,-2.8031"/>
<text text-anchor="middle" x="1840" y="-9.8031" font-family="Helvetica,sans-Serif" font-size="10.00">Dimension2D</text>
</g>
<!-- Node37&#45;&gt;Node30 -->
<g id="edge53" class="edge"><title>Node37&#45;&gt;Node30</title>
<path fill="none" stroke="#9a32cd" stroke-dasharray="5,2" d="M1890.57,-1.76018C1924,2.25618 1966.82,0.900285 1994,-24.3031 2054.42,-80.3377 2057.11,-365.422 2057.05,-421.661"/>
<polygon fill="#9a32cd" stroke="#9a32cd" points="1889.94,1.68652 1880.52,-3.15866 1890.91,-5.24665 1889.94,1.68652"/>
<text text-anchor="middle" x="1956" y="-27.3031" font-family="Helvetica,sans-Serif" font-size="10.00"> myDimensions</text>
</g>
<!-- Node38 -->
<g id="node38" class="node"><title>Node38</title>
<polygon fill="white" stroke="#bfbfbf" points="1304,-447.803 1304,-466.803 1442,-466.803 1442,-447.803 1304,-447.803"/>
<text text-anchor="middle" x="1373" y="-454.803" font-family="Helvetica,sans-Serif" font-size="10.00">ObservableList&lt; String &gt;</text>
</g>
<!-- Node38&#45;&gt;Node8 -->
<g id="edge56" class="edge"><title>Node38&#45;&gt;Node8</title>
<path fill="none" stroke="#9a32cd" stroke-dasharray="5,2" d="M1452.14,-450.448C1504.78,-445.157 1566.32,-437.395 1576,-429.303 1595.74,-412.81 1580.1,-395.945 1594,-374.303 1600.67,-363.913 1611.04,-354.537 1619.42,-347.959"/>
<polygon fill="#9a32cd" stroke="#9a32cd" points="1451.69,-446.975 1442.08,-451.44 1452.38,-453.941 1451.69,-446.975"/>
<text text-anchor="middle" x="1518" y="-464.303" font-family="Helvetica,sans-Serif" font-size="10.00"> myCommandItems</text>
<text text-anchor="middle" x="1518" y="-453.303" font-family="Helvetica,sans-Serif" font-size="10.00">myHistoryItems</text>
</g>
<!-- Node39 -->
<g id="node39" class="node"><title>Node39</title>
<polygon fill="white" stroke="#bfbfbf" points="196.5,-480.803 196.5,-499.803 259.5,-499.803 259.5,-480.803 196.5,-480.803"/>
<text text-anchor="middle" x="228" y="-487.803" font-family="Helvetica,sans-Serif" font-size="10.00">Rectangle</text>
</g>
<!-- Node39&#45;&gt;Node1 -->
<g id="edge57" class="edge"><title>Node39&#45;&gt;Node1</title>
<path fill="none" stroke="#9a32cd" stroke-dasharray="5,2" d="M269.797,-488.976C314.174,-487.533 384.876,-485.234 430.614,-483.747"/>
<polygon fill="#9a32cd" stroke="#9a32cd" points="269.54,-485.483 259.659,-489.306 269.767,-492.479 269.54,-485.483"/>
<text text-anchor="middle" x="352" y="-491.303" font-family="Helvetica,sans-Serif" font-size="10.00"> myBackground</text>
</g>
</g>
</svg>
