<?xml version="1.0" encoding="UTF-8" standalone="no"?>
<!DOCTYPE svg PUBLIC "-//W3C//DTD SVG 1.1//EN"
 "http://www.w3.org/Graphics/SVG/1.1/DTD/svg11.dtd">
<!-- Generated by graphviz version 2.36.0 (20140111.2315)
 -->
<!-- Title: view.Workspace Pages: 1 -->
<!--zoomable 650 -->
<svg id="main" version="1.1" xmlns="http://www.w3.org/2000/svg" xmlns:xlink="http://www.w3.org/1999/xlink" xml:space="preserve" onload="init(evt)">
<style type="text/css"><![CDATA[
.edge:hover path { stroke: red; }
.edge:hover polygon { stroke: red; fill: red; }
]]></style>
<script type="text/javascript"><![CDATA[
var edges = document.getElementsByTagName('g');
if (edges && edges.length) {
  for (var i=0;i<edges.length;i++) {
    if (edges[i].id.substr(0,4)=='edge') {
      edges[i].setAttribute('class','edge');
    }
  }
}
]]></script>
        <defs>
                <circle id="rim" cx="0" cy="0" r="7"/>
                <circle id="rim2" cx="0" cy="0" r="3.5"/>
                <g id="zoomPlus">
                        <use xlink:href="#rim" fill="#404040">
                                <set attributeName="fill" to="#808080" begin="zoomplus.mouseover" end="zoomplus.mouseout"/>
                        </use>
                        <path d="M-4,0h8M0,-4v8" fill="none" stroke="white" stroke-width="1.5" pointer-events="none"/>
                </g>
                <g id="zoomMin">
                        <use xlink:href="#rim" fill="#404040">
                                <set attributeName="fill" to="#808080" begin="zoomminus.mouseover" end="zoomminus.mouseout"/>
                        </use>
                        <path d="M-4,0h8" fill="none" stroke="white" stroke-width="1.5" pointer-events="none"/>
                </g>
                <g id="dirArrow">
                        <path fill="none" stroke="white" stroke-width="1.5" d="M0,-3.0v7 M-2.5,-0.5L0,-3.0L2.5,-0.5"/>
                </g>
               <g id="resetDef">
                       <use xlink:href="#rim2" fill="#404040">
                               <set attributeName="fill" to="#808080" begin="reset.mouseover" end="reset.mouseout"/>
                       </use>
               </g>
        </defs>

<script type="text/javascript">
var viewWidth = 2088;
var viewHeight = 650;
var sectionId = 'dynsection-1';
</script>
<script xlink:href="../../svgpan.js"/>
<svg id="graph" class="graph">
<g id="viewport">
<title>view.Workspace</title>
<polygon fill="white" stroke="none" points="-4,4 -4,-645.993 2084,-645.993 2084,4 -4,4"/>
<!-- Node1 -->
<g id="node1" class="node"><title>Node1</title>
<polygon fill="#bfbfbf" stroke="black" points="408,-318.493 408,-337.493 498,-337.493 498,-318.493 408,-318.493"/>
<text text-anchor="middle" x="453" y="-325.493" font-family="Helvetica,sans-Serif" font-size="10.00">view.Workspace</text>
</g>
<!-- Node20 -->
<g id="node20" class="node"><title>Node20</title>
<g id="a_node20"><a xlink:href="../../d4/d64/classview_1_1_view_updater.html" target="_top" xlink:title="view.ViewUpdater">
<polygon fill="white" stroke="black" points="955,-416.493 955,-435.493 1055,-435.493 1055,-416.493 955,-416.493"/>
<text text-anchor="middle" x="1005" y="-423.493" font-family="Helvetica,sans-Serif" font-size="10.00">view.ViewUpdater</text>
</a>
</g>
</g>
<!-- Node1&#45;&gt;Node20 -->
<g id="edge24" class="edge"><title>Node1&#45;&gt;Node20</title>
<path fill="none" stroke="#9a32cd" stroke-dasharray="5,2" d="M508.347,-337.799C510.933,-338.214 513.494,-338.614 516,-338.993 689.607,-365.227 737.908,-344.447 908,-387.993 935.263,-394.973 965.193,-407.684 984.265,-416.471"/>
<polygon fill="#9a32cd" stroke="#9a32cd" points="508.758,-334.319 498.321,-336.141 507.616,-341.226 508.758,-334.319"/>
<text text-anchor="middle" x="691" y="-365.993" font-family="Helvetica,sans-Serif" font-size="10.00"> myWorkspace</text>
</g>
<!-- Node21 -->
<g id="node21" class="node"><title>Node21</title>
<g id="a_node21"><a xlink:href="../../de/d0a/classview_1_1_drawer.html" target="_top" xlink:title="view.Drawer">
<polygon fill="white" stroke="black" points="654.5,-557.493 654.5,-576.493 727.5,-576.493 727.5,-557.493 654.5,-557.493"/>
<text text-anchor="middle" x="691" y="-564.493" font-family="Helvetica,sans-Serif" font-size="10.00">view.Drawer</text>
</a>
</g>
</g>
<!-- Node1&#45;&gt;Node21 -->
<g id="edge26" class="edge"><title>Node1&#45;&gt;Node21</title>
<path fill="none" stroke="#9a32cd" stroke-dasharray="5,2" d="M462.431,-346.876C481.616,-387.745 532.48,-484.978 604,-537.993 618.683,-548.877 637.718,-555.852 654.145,-560.226"/>
<polygon fill="#9a32cd" stroke="#9a32cd" points="465.502,-345.177 458.148,-337.551 459.141,-348.099 465.502,-345.177"/>
<text text-anchor="middle" x="551" y="-522.993" font-family="Helvetica,sans-Serif" font-size="10.00"> myWorkspace</text>
</g>
<!-- Node24 -->
<g id="node24" class="node"><title>Node24</title>
<g id="a_node24"><a xlink:href="../../d6/de7/classview_1_1_s_logo_view.html" target="_top" xlink:title="view.SLogoView">
<polygon fill="white" stroke="black" points="1988.5,-289.493 1988.5,-308.493 2079.5,-308.493 2079.5,-289.493 1988.5,-289.493"/>
<text text-anchor="middle" x="2034" y="-296.493" font-family="Helvetica,sans-Serif" font-size="10.00">view.SLogoView</text>
</a>
</g>
</g>
<!-- Node1&#45;&gt;Node24 -->
<g id="edge31" class="edge"><title>Node1&#45;&gt;Node24</title>
<path fill="none" stroke="#9a32cd" stroke-dasharray="5,2" d="M461.671,-309.044C479.787,-266.741 529.384,-164.156 604,-110.993 636.319,-87.9664 650.317,-86.9931 690,-86.9931 690,-86.9931 690,-86.9931 1817,-86.9931 1885.9,-86.9931 1917.47,-67.3999 1970,-111.993 2025.89,-159.441 2032.36,-258.236 2032.98,-289.376"/>
<polygon fill="#9a32cd" stroke="#9a32cd" points="458.374,-307.858 457.748,-318.434 464.833,-310.557 458.374,-307.858"/>
<text text-anchor="middle" x="1329" y="-89.9931" font-family="Helvetica,sans-Serif" font-size="10.00"> myWorkspace</text>
</g>
<!-- Node2 -->
<g id="node2" class="node"><title>Node2</title>
<polygon fill="white" stroke="#bfbfbf" points="194.5,-188.493 194.5,-207.493 261.5,-207.493 261.5,-188.493 194.5,-188.493"/>
<text text-anchor="middle" x="228" y="-195.493" font-family="Helvetica,sans-Serif" font-size="10.00">StackPane</text>
</g>
<!-- Node2&#45;&gt;Node1 -->
<g id="edge1" class="edge"><title>Node2&#45;&gt;Node1</title>
<path fill="none" stroke="midnightblue" d="M271.776,-203.815C306.225,-210.164 354.579,-222.971 390,-247.993 417.125,-267.155 437.992,-301.628 447.056,-318.36"/>
<polygon fill="midnightblue" stroke="midnightblue" points="272.012,-200.303 261.561,-202.045 270.817,-207.201 272.012,-200.303"/>
</g>
<!-- Node3 -->
<g id="node3" class="node"><title>Node3</title>
<polygon fill="white" stroke="#bfbfbf" points="181.5,-415.493 181.5,-434.493 274.5,-434.493 274.5,-415.493 181.5,-415.493"/>
<text text-anchor="middle" x="228" y="-422.493" font-family="Helvetica,sans-Serif" font-size="10.00">ResourceBundle</text>
</g>
<!-- Node3&#45;&gt;Node1 -->
<g id="edge2" class="edge"><title>Node3&#45;&gt;Node1</title>
<path fill="none" stroke="#9a32cd" stroke-dasharray="5,2" d="M269.979,-412.493C313.979,-398.955 379.075,-378.544 390,-372.993 409.209,-363.233 428.935,-347.805 440.831,-337.791"/>
<polygon fill="#9a32cd" stroke="#9a32cd" points="268.922,-409.156 260.39,-415.437 270.977,-415.848 268.922,-409.156"/>
<text text-anchor="middle" x="352" y="-400.993" font-family="Helvetica,sans-Serif" font-size="10.00"> myResources</text>
</g>
<!-- Node8 -->
<g id="node8" class="node"><title>Node8</title>
<g id="a_node8"><a xlink:href="../../d1/dc7/classview_1_1_side_bar.html" target="_top" xlink:title="view.SideBar">
<polygon fill="white" stroke="black" points="1571.5,-308.493 1571.5,-327.493 1648.5,-327.493 1648.5,-308.493 1571.5,-308.493"/>
<text text-anchor="middle" x="1610" y="-315.493" font-family="Helvetica,sans-Serif" font-size="10.00">view.SideBar</text>
</a>
</g>
</g>
<!-- Node3&#45;&gt;Node8 -->
<g id="edge11" class="edge"><title>Node3&#45;&gt;Node8</title>
<path fill="none" stroke="#9a32cd" stroke-dasharray="5,2" d="M285.069,-423.44C355.403,-421.344 479.686,-417.148 586,-410.993 639.734,-407.882 1499.24,-347.639 1552,-336.993 1562.94,-334.785 1574.69,-331.104 1584.67,-327.566"/>
<polygon fill="#9a32cd" stroke="#9a32cd" points="284.566,-419.954 274.674,-423.747 284.772,-426.95 284.566,-419.954"/>
<text text-anchor="middle" x="852" y="-399.993" font-family="Helvetica,sans-Serif" font-size="10.00"> myResources</text>
</g>
<!-- Node3&#45;&gt;Node24 -->
<g id="edge33" class="edge"><title>Node3&#45;&gt;Node24</title>
<path fill="none" stroke="#9a32cd" stroke-dasharray="5,2" d="M237.958,-443.887C263.554,-494.793 342.288,-630.993 452,-630.993 452,-630.993 452,-630.993 1817,-630.993 1887.4,-630.993 1921.44,-640.968 1970,-589.993 2010.2,-547.792 2028.46,-354.147 2032.24,-308.604"/>
<polygon fill="#9a32cd" stroke="#9a32cd" points="240.976,-442.091 233.432,-434.653 234.691,-445.172 240.976,-442.091"/>
<text text-anchor="middle" x="1163" y="-633.993" font-family="Helvetica,sans-Serif" font-size="10.00"> myResources</text>
</g>
<!-- Node4 -->
<g id="node4" class="node"><title>Node4</title>
<g id="a_node4"><a xlink:href="../../d8/df7/classview_1_1_turtle_view.html" target="_top" xlink:title="view.TurtleView">
<polygon fill="white" stroke="black" points="185,-361.493 185,-380.493 271,-380.493 271,-361.493 185,-361.493"/>
<text text-anchor="middle" x="228" y="-368.493" font-family="Helvetica,sans-Serif" font-size="10.00">view.TurtleView</text>
</a>
</g>
</g>
<!-- Node4&#45;&gt;Node1 -->
<g id="edge3" class="edge"><title>Node4&#45;&gt;Node1</title>
<path fill="none" stroke="#9a32cd" stroke-dasharray="5,2" d="M281.087,-362.818C312.69,-357.639 353.78,-350.516 390,-342.993 397.915,-341.349 406.358,-339.423 414.384,-337.509"/>
<polygon fill="#9a32cd" stroke="#9a32cd" points="280.486,-359.37 271.177,-364.43 281.609,-366.279 280.486,-359.37"/>
<text text-anchor="middle" x="352" y="-360.993" font-family="Helvetica,sans-Serif" font-size="10.00"> myActiveTurtle</text>
</g>
<!-- Node5 -->
<g id="node5" class="node"><title>Node5</title>
<polygon fill="white" stroke="#bfbfbf" points="0,-381.493 0,-400.493 68,-400.493 68,-381.493 0,-381.493"/>
<text text-anchor="middle" x="34" y="-388.493" font-family="Helvetica,sans-Serif" font-size="10.00">ImageView</text>
</g>
<!-- Node5&#45;&gt;Node4 -->
<g id="edge4" class="edge"><title>Node5&#45;&gt;Node4</title>
<path fill="none" stroke="midnightblue" d="M78.3326,-386.479C110.142,-383.166 153.125,-378.688 184.691,-375.4"/>
<polygon fill="midnightblue" stroke="midnightblue" points="77.5895,-383.038 68.006,-387.555 78.3148,-390 77.5895,-383.038"/>
</g>
<!-- Node6 -->
<g id="node6" class="node"><title>Node6</title>
<polygon fill="white" stroke="#bfbfbf" points="11,-333.493 11,-352.493 57,-352.493 57,-333.493 11,-333.493"/>
<text text-anchor="middle" x="34" y="-340.493" font-family="Helvetica,sans-Serif" font-size="10.00">Group</text>
</g>
<!-- Node6&#45;&gt;Node1 -->
<g id="edge7" class="edge"><title>Node6&#45;&gt;Node1</title>
<path fill="none" stroke="#9a32cd" stroke-dasharray="5,2" d="M67.2421,-341.833C141.305,-339.169 323.679,-332.609 407.971,-329.577"/>
<polygon fill="#9a32cd" stroke="#9a32cd" points="66.993,-338.34 57.1253,-342.197 67.2447,-345.335 66.993,-338.34"/>
<text text-anchor="middle" x="228" y="-341.993" font-family="Helvetica,sans-Serif" font-size="10.00"> myLines</text>
</g>
<!-- Node6&#45;&gt;Node4 -->
<g id="edge5" class="edge"><title>Node6&#45;&gt;Node4</title>
<path fill="none" stroke="#9a32cd" stroke-dasharray="5,2" d="M67.242,-347.695C99.4852,-352.397 149.242,-359.653 184.653,-364.817"/>
<polygon fill="#9a32cd" stroke="#9a32cd" points="67.4253,-344.185 57.0248,-346.205 66.4151,-351.112 67.4253,-344.185"/>
<text text-anchor="middle" x="114" y="-360.993" font-family="Helvetica,sans-Serif" font-size="10.00"> myStamps</text>
</g>
<!-- Node7 -->
<g id="node7" class="node"><title>Node7</title>
<polygon fill="white" stroke="#bfbfbf" points="160,-264.993 160,-294.993 296,-294.993 296,-264.993 160,-264.993"/>
<text text-anchor="start" x="168" y="-282.993" font-family="Helvetica,sans-Serif" font-size="10.00">Map&lt; Integer, view.Turtle</text>
<text text-anchor="middle" x="228" y="-271.993" font-family="Helvetica,sans-Serif" font-size="10.00">View &gt;</text>
</g>
<!-- Node7&#45;&gt;Node1 -->
<g id="edge6" class="edge"><title>Node7&#45;&gt;Node1</title>
<path fill="none" stroke="#9a32cd" stroke-dasharray="5,2" d="M306.154,-290.356C332.897,-294.627 362.947,-300.19 390,-306.993 402.344,-310.097 415.754,-314.505 426.935,-318.481"/>
<polygon fill="#9a32cd" stroke="#9a32cd" points="306.499,-286.868 296.079,-288.782 305.419,-293.784 306.499,-286.868"/>
<text text-anchor="middle" x="352" y="-309.993" font-family="Helvetica,sans-Serif" font-size="10.00"> myTurtles</text>
</g>
<!-- Node8&#45;&gt;Node1 -->
<g id="edge8" class="edge"><title>Node8&#45;&gt;Node1</title>
<path fill="none" stroke="#9a32cd" stroke-dasharray="5,2" d="M1560.84,-319.935C1505.24,-322.006 1411.02,-324.993 1330,-324.993 690,-324.993 690,-324.993 690,-324.993 623.21,-324.993 545.796,-326.209 498.364,-327.093"/>
<polygon fill="#9a32cd" stroke="#9a32cd" points="1561.24,-323.422 1571.1,-319.547 1560.98,-316.427 1561.24,-323.422"/>
<text text-anchor="middle" x="1005" y="-327.993" font-family="Helvetica,sans-Serif" font-size="10.00"> mySidebar</text>
</g>
<!-- Node8&#45;&gt;Node20 -->
<g id="edge28" class="edge"><title>Node8&#45;&gt;Node20</title>
<path fill="none" stroke="#9a32cd" stroke-dasharray="5,2" d="M1574.52,-333.056C1572.92,-334.283 1571.4,-335.595 1570,-336.993 1557.07,-349.928 1566.98,-363.507 1552,-373.993 1511.78,-402.146 1181.96,-418.688 1055.29,-424.055"/>
<polygon fill="#9a32cd" stroke="#9a32cd" points="1576.51,-335.937 1583.06,-327.603 1572.74,-330.039 1576.51,-335.937"/>
<text text-anchor="middle" x="1329" y="-417.993" font-family="Helvetica,sans-Serif" font-size="10.00"> mySidebar</text>
</g>
<!-- Node8&#45;&gt;Node24 -->
<g id="edge45" class="edge"><title>Node8&#45;&gt;Node24</title>
<path fill="none" stroke="#9a32cd" stroke-dasharray="5,2" d="M1658.9,-315.837C1741.15,-312.133 1908.11,-304.616 1988.19,-301.011"/>
<polygon fill="#9a32cd" stroke="#9a32cd" points="1658.65,-312.344 1648.82,-316.29 1658.97,-319.337 1658.65,-312.344"/>
<text text-anchor="middle" x="1816" y="-314.993" font-family="Helvetica,sans-Serif" font-size="10.00"> mySidebar</text>
</g>
<!-- Node26 -->
<g id="node26" class="node"><title>Node26</title>
<g id="a_node26"><a xlink:href="../../da/dc8/classview_1_1_editor.html" target="_top" xlink:title="view.Editor">
<polygon fill="white" stroke="black" points="1782.5,-369.493 1782.5,-388.493 1849.5,-388.493 1849.5,-369.493 1782.5,-369.493"/>
<text text-anchor="middle" x="1816" y="-376.493" font-family="Helvetica,sans-Serif" font-size="10.00">view.Editor</text>
</a>
</g>
</g>
<!-- Node8&#45;&gt;Node26 -->
<g id="edge39" class="edge"><title>Node8&#45;&gt;Node26</title>
<path fill="none" stroke="#9a32cd" stroke-dasharray="5,2" d="M1658.58,-327.45C1682.62,-332.677 1712.11,-339.777 1738,-347.993 1757.23,-354.097 1778.46,-362.796 1793.74,-369.426"/>
<polygon fill="#9a32cd" stroke="#9a32cd" points="1659.15,-323.992 1648.64,-325.327 1657.69,-330.838 1659.15,-323.992"/>
<text text-anchor="middle" x="1703" y="-350.993" font-family="Helvetica,sans-Serif" font-size="10.00"> mySidebar</text>
</g>
<!-- Node9 -->
<g id="node9" class="node"><title>Node9</title>
<polygon fill="white" stroke="#bfbfbf" points="1308.5,-239.493 1308.5,-258.493 1349.5,-258.493 1349.5,-239.493 1308.5,-239.493"/>
<text text-anchor="middle" x="1329" y="-246.493" font-family="Helvetica,sans-Serif" font-size="10.00">VBox</text>
</g>
<!-- Node9&#45;&gt;Node8 -->
<g id="edge9" class="edge"><title>Node9&#45;&gt;Node8</title>
<path fill="none" stroke="midnightblue" d="M1359.77,-247.635C1403.54,-246.695 1487.09,-248.958 1552,-274.993 1570.87,-282.561 1588.95,-298.08 1599.52,-308.256"/>
<polygon fill="midnightblue" stroke="midnightblue" points="1359.43,-244.144 1349.54,-247.931 1359.64,-251.141 1359.43,-244.144"/>
</g>
<!-- Node10 -->
<g id="node10" class="node"><title>Node10</title>
<polygon fill="white" stroke="#bfbfbf" points="1242.5,-201.493 1242.5,-220.493 1415.5,-220.493 1415.5,-201.493 1242.5,-201.493"/>
<text text-anchor="middle" x="1329" y="-208.493" font-family="Helvetica,sans-Serif" font-size="10.00">ObservableList&lt; view.Property &gt;</text>
</g>
<!-- Node10&#45;&gt;Node8 -->
<g id="edge10" class="edge"><title>Node10&#45;&gt;Node8</title>
<path fill="none" stroke="#9a32cd" stroke-dasharray="5,2" d="M1425.79,-204.085C1467.17,-205.293 1514.56,-212.637 1552,-234.993 1580.82,-252.201 1598.47,-290.285 1605.5,-308.251"/>
<polygon fill="#9a32cd" stroke="#9a32cd" points="1425.75,-200.583 1415.69,-203.906 1425.63,-207.582 1425.75,-200.583"/>
<text text-anchor="middle" x="1493" y="-237.993" font-family="Helvetica,sans-Serif" font-size="10.00"> myVariablesList</text>
</g>
<!-- Node11 -->
<g id="node11" class="node"><title>Node11</title>
<g id="a_node11"><a xlink:href="../../d1/dca/classmodel_1_1_execution_environment.html" target="_top" xlink:title="model.ExecutionEnvironment">
<polygon fill="white" stroke="black" points="926.5,-162.493 926.5,-181.493 1083.5,-181.493 1083.5,-162.493 926.5,-162.493"/>
<text text-anchor="middle" x="1005" y="-169.493" font-family="Helvetica,sans-Serif" font-size="10.00">model.ExecutionEnvironment</text>
</a>
</g>
</g>
<!-- Node11&#45;&gt;Node8 -->
<g id="edge12" class="edge"><title>Node11&#45;&gt;Node8</title>
<path fill="none" stroke="#9a32cd" stroke-dasharray="5,2" d="M1094.11,-165.373C1229.74,-157.018 1481.45,-149.364 1552,-200.993 1588.83,-227.946 1603.03,-285.211 1607.38,-308.17"/>
<polygon fill="#9a32cd" stroke="#9a32cd" points="1093.51,-161.904 1083.75,-166.027 1093.95,-168.89 1093.51,-161.904"/>
<text text-anchor="middle" x="1329" y="-168.993" font-family="Helvetica,sans-Serif" font-size="10.00"> myEnvironment</text>
</g>
<!-- Node17 -->
<g id="node17" class="node"><title>Node17</title>
<g id="a_node17"><a xlink:href="../../dc/df5/classmodel_1_1_parser.html" target="_top" xlink:title="model.Parser">
<polygon fill="white" stroke="black" points="1289,-482.493 1289,-501.493 1369,-501.493 1369,-482.493 1289,-482.493"/>
<text text-anchor="middle" x="1329" y="-489.493" font-family="Helvetica,sans-Serif" font-size="10.00">model.Parser</text>
</a>
</g>
</g>
<!-- Node11&#45;&gt;Node17 -->
<g id="edge21" class="edge"><title>Node11&#45;&gt;Node17</title>
<path fill="none" stroke="#9a32cd" stroke-dasharray="5,2" d="M1024.67,-188.726C1065.73,-226.393 1164.93,-322.216 1224,-419.993 1235.57,-439.139 1225.54,-451.845 1242,-466.993 1254.7,-478.681 1272.55,-484.934 1288.71,-488.267"/>
<polygon fill="#9a32cd" stroke="#9a32cd" points="1026.79,-185.928 1017.04,-181.787 1022.08,-191.106 1026.79,-185.928"/>
<text text-anchor="middle" x="1163" y="-422.993" font-family="Helvetica,sans-Serif" font-size="10.00"> myExecutionParameters</text>
</g>
<!-- Node11&#45;&gt;Node24 -->
<g id="edge41" class="edge"><title>Node11&#45;&gt;Node24</title>
<path fill="none" stroke="#9a32cd" stroke-dasharray="5,2" d="M1067.54,-160.998C1078.96,-159.351 1090.82,-157.902 1102,-156.993 1164.02,-151.954 1179.78,-156.215 1242,-155.993 1319.33,-155.717 1338.7,-153.721 1416,-155.993 1476.52,-157.772 1492.29,-153.977 1552,-163.993 1729.28,-193.729 1934.77,-263.798 2006.6,-289.406"/>
<polygon fill="#9a32cd" stroke="#9a32cd" points="1067.02,-157.538 1057.65,-162.488 1068.06,-164.46 1067.02,-157.538"/>
<text text-anchor="middle" x="1610" y="-185.993" font-family="Helvetica,sans-Serif" font-size="10.00"> myEnvironment</text>
</g>
<!-- Node12 -->
<g id="node12" class="node"><title>Node12</title>
<polygon fill="white" stroke="#bfbfbf" points="655.5,-158.493 655.5,-177.493 726.5,-177.493 726.5,-158.493 655.5,-158.493"/>
<text text-anchor="middle" x="691" y="-165.493" font-family="Helvetica,sans-Serif" font-size="10.00">Observable</text>
</g>
<!-- Node12&#45;&gt;Node11 -->
<g id="edge13" class="edge"><title>Node12&#45;&gt;Node11</title>
<path fill="none" stroke="midnightblue" d="M736.637,-168.565C786.066,-169.199 866.658,-170.232 926.457,-170.999"/>
<polygon fill="midnightblue" stroke="midnightblue" points="736.626,-165.065 726.582,-168.436 736.536,-172.064 736.626,-165.065"/>
</g>
<!-- Node13 -->
<g id="node13" class="node"><title>Node13</title>
<polygon fill="white" stroke="#bfbfbf" points="646.5,-120.493 646.5,-139.493 735.5,-139.493 735.5,-120.493 646.5,-120.493"/>
<text text-anchor="middle" x="691" y="-127.493" font-family="Helvetica,sans-Serif" font-size="10.00">Set&lt; Integer &gt;</text>
</g>
<!-- Node13&#45;&gt;Node11 -->
<g id="edge14" class="edge"><title>Node13&#45;&gt;Node11</title>
<path fill="none" stroke="#9a32cd" stroke-dasharray="5,2" d="M745.949,-130.224C789.881,-131.192 853.351,-134.372 908,-143.993 931.766,-148.177 958.026,-156.072 977.065,-162.415"/>
<polygon fill="#9a32cd" stroke="#9a32cd" points="745.839,-126.721 735.774,-130.031 745.706,-133.72 745.839,-126.721"/>
<text text-anchor="middle" x="852" y="-157.993" font-family="Helvetica,sans-Serif" font-size="10.00"> myTurtleList</text>
<text text-anchor="middle" x="852" y="-146.993" font-family="Helvetica,sans-Serif" font-size="10.00">activeTurtleList</text>
</g>
<!-- Node14 -->
<g id="node14" class="node"><title>Node14</title>
<polygon fill="white" stroke="#bfbfbf" points="604,-234.993 604,-264.993 778,-264.993 778,-234.993 604,-234.993"/>
<text text-anchor="start" x="612" y="-252.993" font-family="Helvetica,sans-Serif" font-size="10.00">Map&lt; String, model.instructions.</text>
<text text-anchor="middle" x="691" y="-241.993" font-family="Helvetica,sans-Serif" font-size="10.00">Instruction &gt;</text>
</g>
<!-- Node14&#45;&gt;Node11 -->
<g id="edge15" class="edge"><title>Node14&#45;&gt;Node11</title>
<path fill="none" stroke="#9a32cd" stroke-dasharray="5,2" d="M788.078,-237.026C825.863,-230.793 869.364,-222.197 908,-210.993 934.953,-203.177 964.706,-190.404 983.837,-181.619"/>
<polygon fill="#9a32cd" stroke="#9a32cd" points="787.406,-233.589 778.093,-238.641 788.523,-240.499 787.406,-233.589"/>
<text text-anchor="middle" x="852" y="-238.993" font-family="Helvetica,sans-Serif" font-size="10.00"> myUserInstructionMap</text>
</g>
<!-- Node15 -->
<g id="node15" class="node"><title>Node15</title>
<polygon fill="white" stroke="#bfbfbf" points="627,-196.493 627,-215.493 755,-215.493 755,-196.493 627,-196.493"/>
<text text-anchor="middle" x="691" y="-203.493" font-family="Helvetica,sans-Serif" font-size="10.00">Map&lt; String, Double &gt;</text>
</g>
<!-- Node15&#45;&gt;Node11 -->
<g id="edge16" class="edge"><title>Node15&#45;&gt;Node11</title>
<path fill="none" stroke="#9a32cd" stroke-dasharray="5,2" d="M765.462,-198.931C807.269,-194.807 860.597,-189.369 908,-183.993 914.926,-183.208 922.129,-182.361 929.338,-181.495"/>
<polygon fill="#9a32cd" stroke="#9a32cd" points="764.975,-195.462 755.366,-199.924 765.66,-202.428 764.975,-195.462"/>
<text text-anchor="middle" x="852" y="-198.993" font-family="Helvetica,sans-Serif" font-size="10.00"> myVariableMap</text>
</g>
<!-- Node16 -->
<g id="node16" class="node"><title>Node16</title>
<polygon fill="white" stroke="#bfbfbf" points="1255,-438.493 1255,-457.493 1403,-457.493 1403,-438.493 1255,-438.493"/>
<text text-anchor="middle" x="1329" y="-445.493" font-family="Helvetica,sans-Serif" font-size="10.00">TableView&lt; view.Property &gt;</text>
</g>
<!-- Node16&#45;&gt;Node8 -->
<g id="edge17" class="edge"><title>Node16&#45;&gt;Node8</title>
<path fill="none" stroke="#9a32cd" stroke-dasharray="5,2" d="M1376.4,-435.84C1394.34,-431.286 1415.08,-426.199 1434,-421.993 1486.16,-410.398 1512.56,-435.036 1552,-398.993 1573.18,-379.638 1551.52,-358.939 1570,-336.993 1573.2,-333.191 1577.35,-330.087 1581.73,-327.573"/>
<polygon fill="#9a32cd" stroke="#9a32cd" points="1375.29,-432.511 1366.47,-438.378 1377.02,-439.293 1375.29,-432.511"/>
<text text-anchor="middle" x="1493" y="-435.993" font-family="Helvetica,sans-Serif" font-size="10.00"> myTurtlePropertiesTable</text>
<text text-anchor="middle" x="1493" y="-424.993" font-family="Helvetica,sans-Serif" font-size="10.00">myVariablesTable</text>
</g>
<!-- Node17&#45;&gt;Node8 -->
<g id="edge18" class="edge"><title>Node17&#45;&gt;Node8</title>
<path fill="none" stroke="#9a32cd" stroke-dasharray="5,2" d="M1377.98,-480C1395.56,-475.726 1415.65,-470.986 1434,-466.993 1486.21,-455.635 1514.71,-482.26 1552,-443.993 1585.66,-409.456 1541.12,-375.614 1570,-336.993 1572.89,-333.133 1576.77,-330.015 1580.96,-327.51"/>
<polygon fill="#9a32cd" stroke="#9a32cd" points="1376.83,-476.678 1367.94,-482.453 1378.49,-483.478 1376.83,-476.678"/>
<text text-anchor="middle" x="1493" y="-469.993" font-family="Helvetica,sans-Serif" font-size="10.00"> myParser</text>
</g>
<!-- Node17&#45;&gt;Node24 -->
<g id="edge42" class="edge"><title>Node17&#45;&gt;Node24</title>
<path fill="none" stroke="#9a32cd" stroke-dasharray="5,2" d="M1379.62,-499.955C1443.12,-508.551 1556.15,-518.465 1650,-497.993 1714.14,-484.003 1898.91,-412.855 1970,-363.993 1993.31,-347.97 2014.99,-322.344 2025.8,-308.541"/>
<polygon fill="#9a32cd" stroke="#9a32cd" points="1379.87,-496.457 1369.49,-498.537 1378.9,-503.389 1379.87,-496.457"/>
<text text-anchor="middle" x="1703" y="-495.993" font-family="Helvetica,sans-Serif" font-size="10.00"> myParser</text>
</g>
<!-- Node17&#45;&gt;Node26 -->
<g id="edge37" class="edge"><title>Node17&#45;&gt;Node26</title>
<path fill="none" stroke="#9a32cd" stroke-dasharray="5,2" d="M1379.4,-494.412C1458.81,-496.362 1618.07,-492.179 1738,-436.993 1764.76,-424.68 1791.12,-401.883 1804.98,-388.838"/>
<polygon fill="#9a32cd" stroke="#9a32cd" points="1379.3,-490.908 1369.2,-494.117 1379.09,-497.905 1379.3,-490.908"/>
<text text-anchor="middle" x="1610" y="-485.993" font-family="Helvetica,sans-Serif" font-size="10.00"> myParser</text>
</g>
<!-- Node18 -->
<g id="node18" class="node"><title>Node18</title>
<polygon fill="white" stroke="#bfbfbf" points="661,-509.493 661,-528.493 721,-528.493 721,-509.493 661,-509.493"/>
<text text-anchor="middle" x="691" y="-516.493" font-family="Helvetica,sans-Serif" font-size="10.00">Observer</text>
</g>
<!-- Node18&#45;&gt;Node17 -->
<g id="edge19" class="edge"><title>Node18&#45;&gt;Node17</title>
<path fill="none" stroke="midnightblue" d="M731.284,-523.731C819.979,-533.417 1042.19,-551.998 1224,-519.993 1249.41,-515.519 1277.65,-507.732 1298.28,-501.504"/>
<polygon fill="midnightblue" stroke="midnightblue" points="731.468,-520.23 721.141,-522.598 730.69,-527.187 731.468,-520.23"/>
</g>
<!-- Node18&#45;&gt;Node20 -->
<g id="edge23" class="edge"><title>Node18&#45;&gt;Node20</title>
<path fill="none" stroke="midnightblue" d="M729.843,-506.16C775.919,-490.736 856.231,-464.498 926,-444.993 937.812,-441.691 950.72,-438.414 962.575,-435.535"/>
<polygon fill="midnightblue" stroke="midnightblue" points="728.638,-502.873 720.272,-509.373 730.866,-509.509 728.638,-502.873"/>
</g>
<!-- Node19 -->
<g id="node19" class="node"><title>Node19</title>
<polygon fill="white" stroke="#bfbfbf" points="949,-492.993 949,-522.993 1061,-522.993 1061,-492.993 949,-492.993"/>
<text text-anchor="start" x="957" y="-510.993" font-family="Helvetica,sans-Serif" font-size="10.00">List&lt; Entry&lt; String,</text>
<text text-anchor="middle" x="1005" y="-499.993" font-family="Helvetica,sans-Serif" font-size="10.00"> Pattern &gt; &gt;</text>
</g>
<!-- Node19&#45;&gt;Node17 -->
<g id="edge20" class="edge"><title>Node19&#45;&gt;Node17</title>
<path fill="none" stroke="#9a32cd" stroke-dasharray="5,2" d="M1071.26,-506.821C1114.6,-505.816 1172.73,-504.032 1224,-500.993 1245.35,-499.728 1269.11,-497.717 1288.53,-495.916"/>
<polygon fill="#9a32cd" stroke="#9a32cd" points="1071.06,-503.325 1061.14,-507.048 1071.21,-510.323 1071.06,-503.325"/>
<text text-anchor="middle" x="1163" y="-507.993" font-family="Helvetica,sans-Serif" font-size="10.00"> myPatterns</text>
</g>
<!-- Node20&#45;&gt;Node17 -->
<g id="edge22" class="edge"><title>Node20&#45;&gt;Node17</title>
<path fill="none" stroke="#9a32cd" stroke-dasharray="5,2" d="M1065.11,-429.574C1109.62,-433.483 1171.7,-441.544 1224,-457.993 1232.53,-460.676 1233.67,-463.731 1242,-466.993 1257.35,-473.003 1274.73,-478.323 1289.83,-482.493"/>
<polygon fill="#9a32cd" stroke="#9a32cd" points="1065.3,-426.077 1055.05,-428.734 1064.72,-433.053 1065.3,-426.077"/>
<text text-anchor="middle" x="1163" y="-460.993" font-family="Helvetica,sans-Serif" font-size="10.00"> myViewUpdater</text>
</g>
<!-- Node21&#45;&gt;Node20 -->
<g id="edge25" class="edge"><title>Node21&#45;&gt;Node20</title>
<path fill="none" stroke="#9a32cd" stroke-dasharray="5,2" d="M732.189,-554.254C746.723,-549.434 763.195,-543.722 778,-537.993 836.836,-515.225 862.28,-524.464 908,-480.993 920.964,-468.667 912.012,-456.144 926,-444.993 934.283,-438.39 944.522,-434.033 954.826,-431.17"/>
<polygon fill="#9a32cd" stroke="#9a32cd" points="730.893,-550.995 722.481,-557.438 733.074,-557.647 730.893,-550.995"/>
<text text-anchor="middle" x="852" y="-533.993" font-family="Helvetica,sans-Serif" font-size="10.00"> myDrawer</text>
</g>
<!-- Node21&#45;&gt;Node24 -->
<g id="edge44" class="edge"><title>Node21&#45;&gt;Node24</title>
<path fill="none" stroke="#9a32cd" stroke-dasharray="5,2" d="M737.986,-573.233C798.756,-580.925 909.2,-592.993 1004,-592.993 1004,-592.993 1004,-592.993 1817,-592.993 1886.66,-592.993 1920.28,-607.778 1970,-558.993 2007.05,-522.644 2027.43,-351.589 2032,-308.743"/>
<polygon fill="#9a32cd" stroke="#9a32cd" points="738.315,-569.746 727.951,-571.945 737.424,-576.689 738.315,-569.746"/>
<text text-anchor="middle" x="1493" y="-595.993" font-family="Helvetica,sans-Serif" font-size="10.00"> drawer</text>
</g>
<!-- Node22 -->
<g id="node22" class="node"><title>Node22</title>
<polygon fill="white" stroke="#bfbfbf" points="432.5,-557.493 432.5,-576.493 473.5,-576.493 473.5,-557.493 432.5,-557.493"/>
<text text-anchor="middle" x="453" y="-564.493" font-family="Helvetica,sans-Serif" font-size="10.00">Color</text>
</g>
<!-- Node22&#45;&gt;Node21 -->
<g id="edge27" class="edge"><title>Node22&#45;&gt;Node21</title>
<path fill="none" stroke="#9a32cd" stroke-dasharray="5,2" d="M483.919,-566.993C527.357,-566.993 607.759,-566.993 654.256,-566.993"/>
<polygon fill="#9a32cd" stroke="#9a32cd" points="483.715,-563.493 473.715,-566.993 483.715,-570.493 483.715,-563.493"/>
<text text-anchor="middle" x="551" y="-569.993" font-family="Helvetica,sans-Serif" font-size="10.00"> myColor</text>
</g>
<!-- Node23 -->
<g id="node23" class="node"><title>Node23</title>
<polygon fill="white" stroke="#bfbfbf" points="944,-454.493 944,-473.493 1066,-473.493 1066,-454.493 944,-454.493"/>
<text text-anchor="middle" x="1005" y="-461.493" font-family="Helvetica,sans-Serif" font-size="10.00">Map&lt; String, String &gt;</text>
</g>
<!-- Node23&#45;&gt;Node17 -->
<g id="edge29" class="edge"><title>Node23&#45;&gt;Node17</title>
<path fill="none" stroke="#9a32cd" stroke-dasharray="5,2" d="M1076.39,-470.114C1141.6,-475.784 1236.21,-484.011 1288.88,-488.591"/>
<polygon fill="#9a32cd" stroke="#9a32cd" points="1076.45,-466.606 1066.19,-469.227 1075.85,-473.58 1076.45,-466.606"/>
<text text-anchor="middle" x="1163" y="-484.993" font-family="Helvetica,sans-Serif" font-size="10.00"> myCommandMap</text>
</g>
<!-- Node24&#45;&gt;Node17 -->
<g id="edge30" class="edge"><title>Node24&#45;&gt;Node17</title>
<path fill="none" stroke="#9a32cd" stroke-dasharray="5,2" d="M2030.67,-318.798C2024.19,-370.029 2004.16,-504.757 1970,-530.993 1875.54,-603.548 1551.15,-552.496 1434,-530.993 1403.27,-525.354 1369.79,-511.234 1349.34,-501.625"/>
<polygon fill="#9a32cd" stroke="#9a32cd" points="2034.16,-319.041 2031.91,-308.69 2027.22,-318.19 2034.16,-319.041"/>
<text text-anchor="middle" x="1703" y="-569.993" font-family="Helvetica,sans-Serif" font-size="10.00"> mySLogoView</text>
</g>
<!-- Node25 -->
<g id="node25" class="node"><title>Node25</title>
<polygon fill="white" stroke="#bfbfbf" points="1793.5,-115.493 1793.5,-134.493 1838.5,-134.493 1838.5,-115.493 1793.5,-115.493"/>
<text text-anchor="middle" x="1816" y="-122.493" font-family="Helvetica,sans-Serif" font-size="10.00">Stage</text>
</g>
<!-- Node25&#45;&gt;Node24 -->
<g id="edge32" class="edge"><title>Node25&#45;&gt;Node24</title>
<path fill="none" stroke="#9a32cd" stroke-dasharray="5,2" d="M1848.92,-118.63C1882.46,-113.843 1935.11,-111.947 1970,-137.993 2020.75,-175.88 2030.64,-260.686 2032.55,-289.33"/>
<polygon fill="#9a32cd" stroke="#9a32cd" points="1848.07,-115.221 1838.75,-120.254 1849.17,-122.134 1848.07,-115.221"/>
<text text-anchor="middle" x="1932" y="-140.993" font-family="Helvetica,sans-Serif" font-size="10.00"> myStage</text>
</g>
<!-- Node26&#45;&gt;Node24 -->
<g id="edge34" class="edge"><title>Node26&#45;&gt;Node24</title>
<path fill="none" stroke="#9a32cd" stroke-dasharray="5,2" d="M1852.67,-365.783C1896.19,-349.664 1968.71,-322.803 2007.19,-308.553"/>
<polygon fill="#9a32cd" stroke="#9a32cd" points="1851.22,-362.588 1843.05,-369.343 1853.65,-369.152 1851.22,-362.588"/>
<text text-anchor="middle" x="1932" y="-351.993" font-family="Helvetica,sans-Serif" font-size="10.00"> myEditor</text>
</g>
<!-- Node27 -->
<g id="node27" class="node"><title>Node27</title>
<polygon fill="white" stroke="#bfbfbf" points="1589,-346.493 1589,-365.493 1631,-365.493 1631,-346.493 1589,-346.493"/>
<text text-anchor="middle" x="1610" y="-353.493" font-family="Helvetica,sans-Serif" font-size="10.00">HBox</text>
</g>
<!-- Node27&#45;&gt;Node26 -->
<g id="edge35" class="edge"><title>Node27&#45;&gt;Node26</title>
<path fill="none" stroke="midnightblue" d="M1641.71,-359.455C1679.59,-363.726 1743.71,-370.955 1782.43,-375.32"/>
<polygon fill="midnightblue" stroke="midnightblue" points="1641.64,-355.925 1631.31,-358.282 1640.85,-362.881 1641.64,-355.925"/>
</g>
<!-- Node28 -->
<g id="node28" class="node"><title>Node28</title>
<polygon fill="white" stroke="#bfbfbf" points="1585.5,-422.493 1585.5,-441.493 1634.5,-441.493 1634.5,-422.493 1585.5,-422.493"/>
<text text-anchor="middle" x="1610" y="-429.493" font-family="Helvetica,sans-Serif" font-size="10.00">Button</text>
</g>
<!-- Node28&#45;&gt;Node26 -->
<g id="edge36" class="edge"><title>Node28&#45;&gt;Node26</title>
<path fill="none" stroke="#9a32cd" stroke-dasharray="5,2" d="M1644.6,-425.953C1670.35,-421.06 1706.66,-413.583 1738,-404.993 1755.28,-400.256 1774.37,-393.82 1789.21,-388.537"/>
<polygon fill="#9a32cd" stroke="#9a32cd" points="1643.79,-422.545 1634.6,-427.825 1645.08,-429.426 1643.79,-422.545"/>
<text text-anchor="middle" x="1703" y="-424.993" font-family="Helvetica,sans-Serif" font-size="10.00"> runButton</text>
</g>
<!-- Node29 -->
<g id="node29" class="node"><title>Node29</title>
<polygon fill="white" stroke="#bfbfbf" points="1581,-384.493 1581,-403.493 1639,-403.493 1639,-384.493 1581,-384.493"/>
<text text-anchor="middle" x="1610" y="-391.493" font-family="Helvetica,sans-Serif" font-size="10.00">TextArea</text>
</g>
<!-- Node29&#45;&gt;Node26 -->
<g id="edge38" class="edge"><title>Node29&#45;&gt;Node26</title>
<path fill="none" stroke="#9a32cd" stroke-dasharray="5,2" d="M1649.64,-391.152C1688.08,-388.326 1746.38,-384.039 1782.5,-381.383"/>
<polygon fill="#9a32cd" stroke="#9a32cd" points="1649.08,-387.683 1639.37,-391.907 1649.6,-394.665 1649.08,-387.683"/>
<text text-anchor="middle" x="1703" y="-392.993" font-family="Helvetica,sans-Serif" font-size="10.00"> textEditor</text>
</g>
<!-- Node30 -->
<g id="node30" class="node"><title>Node30</title>
<polygon fill="white" stroke="#bfbfbf" points="1756.5,-39.4931 1756.5,-58.4931 1875.5,-58.4931 1875.5,-39.4931 1756.5,-39.4931"/>
<text text-anchor="middle" x="1816" y="-46.4931" font-family="Helvetica,sans-Serif" font-size="10.00">Map&lt; String, Node &gt;</text>
</g>
<!-- Node30&#45;&gt;Node24 -->
<g id="edge40" class="edge"><title>Node30&#45;&gt;Node24</title>
<path fill="none" stroke="#9a32cd" stroke-dasharray="5,2" d="M1878.93,-38.7441C1909.58,-37.2084 1945.23,-41.2159 1970,-61.9931 2006.29,-92.4289 2027.09,-248.99 2031.91,-289.444"/>
<polygon fill="#9a32cd" stroke="#9a32cd" points="1878.48,-35.2671 1868.75,-39.4612 1878.97,-42.2498 1878.48,-35.2671"/>
<text text-anchor="middle" x="1932" y="-64.9931" font-family="Helvetica,sans-Serif" font-size="10.00"> variables</text>
</g>
<!-- Node31 -->
<g id="node31" class="node"><title>Node31</title>
<polygon fill="white" stroke="#bfbfbf" points="1775.5,-1.49306 1775.5,-20.4931 1856.5,-20.4931 1856.5,-1.49306 1775.5,-1.49306"/>
<text text-anchor="middle" x="1816" y="-8.49306" font-family="Helvetica,sans-Serif" font-size="10.00">Dimension2D</text>
</g>
<!-- Node31&#45;&gt;Node24 -->
<g id="edge43" class="edge"><title>Node31&#45;&gt;Node24</title>
<path fill="none" stroke="#9a32cd" stroke-dasharray="5,2" d="M1866.7,-1.37145C1899.81,2.02943 1942.18,0.166454 1970,-23.9931 2011.6,-60.1265 2028.74,-245.175 2032.28,-289.462"/>
<polygon fill="#9a32cd" stroke="#9a32cd" points="1866.26,2.10042 1856.75,-2.57703 1867.1,-4.84876 1866.26,2.10042"/>
<text text-anchor="middle" x="1932" y="-26.9931" font-family="Helvetica,sans-Serif" font-size="10.00"> myDimensions</text>
</g>
<!-- Node32 -->
<g id="node32" class="node"><title>Node32</title>
<polygon fill="white" stroke="#bfbfbf" points="1260,-277.493 1260,-296.493 1398,-296.493 1398,-277.493 1260,-277.493"/>
<text text-anchor="middle" x="1329" y="-284.493" font-family="Helvetica,sans-Serif" font-size="10.00">ObservableList&lt; String &gt;</text>
</g>
<!-- Node32&#45;&gt;Node8 -->
<g id="edge46" class="edge"><title>Node32&#45;&gt;Node8</title>
<path fill="none" stroke="#9a32cd" stroke-dasharray="5,2" d="M1408.16,-279.037C1451.19,-276.804 1505.21,-277.551 1552,-288.993 1567.53,-292.791 1583.62,-301.492 1594.73,-308.378"/>
<polygon fill="#9a32cd" stroke="#9a32cd" points="1407.81,-275.551 1398.03,-279.628 1408.22,-282.54 1407.81,-275.551"/>
<text text-anchor="middle" x="1493" y="-302.993" font-family="Helvetica,sans-Serif" font-size="10.00"> myCommandItems</text>
<text text-anchor="middle" x="1493" y="-291.993" font-family="Helvetica,sans-Serif" font-size="10.00">myHistoryItems</text>
</g>
<!-- Node33 -->
<g id="node33" class="node"><title>Node33</title>
<polygon fill="white" stroke="#bfbfbf" points="196.5,-226.493 196.5,-245.493 259.5,-245.493 259.5,-226.493 196.5,-226.493"/>
<text text-anchor="middle" x="228" y="-233.493" font-family="Helvetica,sans-Serif" font-size="10.00">Rectangle</text>
</g>
<!-- Node33&#45;&gt;Node1 -->
<g id="edge47" class="edge"><title>Node33&#45;&gt;Node1</title>
<path fill="none" stroke="#9a32cd" stroke-dasharray="5,2" d="M269.721,-241.307C303.36,-246.859 351.641,-257.563 390,-276.993 411.137,-287.7 431.542,-306.676 442.866,-318.218"/>
<polygon fill="#9a32cd" stroke="#9a32cd" points="270.201,-237.839 259.779,-239.745 269.115,-244.755 270.201,-237.839"/>
<text text-anchor="middle" x="352" y="-279.993" font-family="Helvetica,sans-Serif" font-size="10.00"> myBackground</text>
</g>
</g>
</svg>
        <g id="navigator" transform="translate(0 0)" fill="#404254">
                <rect fill="#f2f5e9" fill-opacity="0.5" stroke="#606060" stroke-width=".5" x="0" y="0" width="60" height="60"/>
                <use id="zoomplus" xlink:href="#zoomPlus" x="17" y="9" onmousedown="handleZoom(evt,'in')"/>
                <use id="zoomminus" xlink:href="#zoomMin" x="42" y="9" onmousedown="handleZoom(evt,'out')"/>
                <use id="reset" xlink:href="#resetDef" x="30" y="36" onmousedown="handleReset()"/>
                <g id="arrowUp" xlink:href="#dirArrow" transform="translate(30 24)" onmousedown="handlePan(0,-1)">
                  <use xlink:href="#rim" fill="#404040">
                        <set attributeName="fill" to="#808080" begin="arrowUp.mouseover" end="arrowUp.mouseout"/>
                  </use>
                  <path fill="none" stroke="white" stroke-width="1.5" d="M0,-3.0v7 M-2.5,-0.5L0,-3.0L2.5,-0.5"/>
                </g>
                <g id="arrowRight" xlink:href="#dirArrow" transform="rotate(90) translate(36 -43)" onmousedown="handlePan(1,0)">
                  <use xlink:href="#rim" fill="#404040">
                        <set attributeName="fill" to="#808080" begin="arrowRight.mouseover" end="arrowRight.mouseout"/>
                  </use>
                  <path fill="none" stroke="white" stroke-width="1.5" d="M0,-3.0v7 M-2.5,-0.5L0,-3.0L2.5,-0.5"/>
                </g>
                <g id="arrowDown" xlink:href="#dirArrow" transform="rotate(180) translate(-30 -48)" onmousedown="handlePan(0,1)">
                  <use xlink:href="#rim" fill="#404040">
                        <set attributeName="fill" to="#808080" begin="arrowDown.mouseover" end="arrowDown.mouseout"/>
                  </use>
                  <path fill="none" stroke="white" stroke-width="1.5" d="M0,-3.0v7 M-2.5,-0.5L0,-3.0L2.5,-0.5"/>
                </g>
                <g id="arrowLeft" xlink:href="#dirArrow" transform="rotate(270) translate(-36 17)" onmousedown="handlePan(-1,0)">
                  <use xlink:href="#rim" fill="#404040">
                        <set attributeName="fill" to="#808080" begin="arrowLeft.mouseover" end="arrowLeft.mouseout"/>
                  </use>
                  <path fill="none" stroke="white" stroke-width="1.5" d="M0,-3.0v7 M-2.5,-0.5L0,-3.0L2.5,-0.5"/>
                </g>
        </g>
        <svg viewBox="0 0 15 15" width="100%" height="30px" preserveAspectRatio="xMaxYMin meet">
         <g id="arrow_out" transform="scale(0.3 0.3)">
          <a xlink:href="classview_1_1_workspace__coll__graph_org.svg" target="_base">
           <rect id="button" ry="5" rx="5" y="6" x="6" height="38" width="38"
                fill="#f2f5e9" fill-opacity="0.5" stroke="#606060" stroke-width="1.0"/>
           <path id="arrow"
             d="M 11.500037,31.436501 C 11.940474,20.09759 22.043105,11.32322 32.158766,21.979434 L 37.068811,17.246167 C 37.068811,17.246167 37.088388,32 37.088388,32 L 22.160133,31.978069 C 22.160133,31.978069 26.997745,27.140456 26.997745,27.140456 C 18.528582,18.264221 13.291696,25.230495 11.500037,31.436501 z"
             style="fill:#404040;"/>
          </a>
         </g>
        </svg>
</svg>
