<?xml version="1.0" encoding="UTF-8" standalone="no"?>
<!DOCTYPE svg PUBLIC "-//W3C//DTD SVG 1.1//EN"
 "http://www.w3.org/Graphics/SVG/1.1/DTD/svg11.dtd">
<!-- Generated by graphviz version 2.36.0 (20140111.2315)
 -->
<!-- Title: model.ExecutionEnvironment Pages: 1 -->
<svg width="488pt" height="154pt"
 viewBox="0.00 0.00 488.00 154.00" xmlns="http://www.w3.org/2000/svg" xmlns:xlink="http://www.w3.org/1999/xlink">
<g id="graph0" class="graph" transform="scale(1 1) rotate(0) translate(4 150)">
<title>model.ExecutionEnvironment</title>
<polygon fill="white" stroke="none" points="-4,4 -4,-150 484,-150 484,4 -4,4"/>
<!-- Node1 -->
<g id="node1" class="node"><title>Node1</title>
<polygon fill="#bfbfbf" stroke="black" points="322.5,-66.5 322.5,-85.5 479.5,-85.5 479.5,-66.5 322.5,-66.5"/>
<text text-anchor="middle" x="401" y="-73.5" font-family="Helvetica,sans-Serif" font-size="10.00">model.ExecutionEnvironment</text>
</g>
<!-- Node2 -->
<g id="node2" class="node"><title>Node2</title>
<polygon fill="white" stroke="#bfbfbf" points="51.5,-126.5 51.5,-145.5 122.5,-145.5 122.5,-126.5 51.5,-126.5"/>
<text text-anchor="middle" x="87" y="-133.5" font-family="Helvetica,sans-Serif" font-size="10.00">Observable</text>
</g>
<!-- Node2&#45;&gt;Node1 -->
<g id="edge1" class="edge"><title>Node2&#45;&gt;Node1</title>
<path fill="none" stroke="midnightblue" d="M132.717,-136.151C176.879,-135.351 246.026,-131.537 304,-117 332.478,-109.859 363.357,-95.3374 382.194,-85.6358"/>
<polygon fill="midnightblue" stroke="midnightblue" points="132.548,-132.652 122.596,-136.289 132.643,-139.652 132.548,-132.652"/>
</g>
<!-- Node3 -->
<g id="node3" class="node"><title>Node3</title>
<polygon fill="white" stroke="#bfbfbf" points="42.5,-88.5 42.5,-107.5 131.5,-107.5 131.5,-88.5 42.5,-88.5"/>
<text text-anchor="middle" x="87" y="-95.5" font-family="Helvetica,sans-Serif" font-size="10.00">Set&lt; Integer &gt;</text>
</g>
<!-- Node3&#45;&gt;Node1 -->
<g id="edge2" class="edge"><title>Node3&#45;&gt;Node1</title>
<path fill="none" stroke="#9a32cd" stroke-dasharray="5,2" d="M141.939,-94.1966C191.701,-90.6877 266.155,-85.4378 322.32,-81.4774"/>
<polygon fill="#9a32cd" stroke="#9a32cd" points="141.44,-90.723 131.711,-94.9178 141.932,-97.7057 141.44,-90.723"/>
<text text-anchor="middle" x="248" y="-105" font-family="Helvetica,sans-Serif" font-size="10.00"> myTurtleList</text>
<text text-anchor="middle" x="248" y="-94" font-family="Helvetica,sans-Serif" font-size="10.00">activeTurtleList</text>
</g>
<!-- Node4 -->
<g id="node4" class="node"><title>Node4</title>
<polygon fill="white" stroke="#bfbfbf" points="0,-39 0,-69 174,-69 174,-39 0,-39"/>
<text text-anchor="start" x="8" y="-57" font-family="Helvetica,sans-Serif" font-size="10.00">Map&lt; String, model.instructions.</text>
<text text-anchor="middle" x="87" y="-46" font-family="Helvetica,sans-Serif" font-size="10.00">Instruction &gt;</text>
</g>
<!-- Node4&#45;&gt;Node1 -->
<g id="edge3" class="edge"><title>Node4&#45;&gt;Node1</title>
<path fill="none" stroke="#9a32cd" stroke-dasharray="5,2" d="M184.559,-60.6339C221.877,-63.2166 264.929,-66.2189 304,-69 310.001,-69.4271 316.212,-69.8726 322.456,-70.3227"/>
<polygon fill="#9a32cd" stroke="#9a32cd" points="184.411,-57.1154 174.193,-59.9171 183.928,-64.0988 184.411,-57.1154"/>
<text text-anchor="middle" x="248" y="-72" font-family="Helvetica,sans-Serif" font-size="10.00"> myUserInstructionMap</text>
</g>
<!-- Node5 -->
<g id="node5" class="node"><title>Node5</title>
<polygon fill="white" stroke="#bfbfbf" points="23,-0.5 23,-19.5 151,-19.5 151,-0.5 23,-0.5"/>
<text text-anchor="middle" x="87" y="-7.5" font-family="Helvetica,sans-Serif" font-size="10.00">Map&lt; String, Double &gt;</text>
</g>
<!-- Node5&#45;&gt;Node1 -->
<g id="edge4" class="edge"><title>Node5&#45;&gt;Node1</title>
<path fill="none" stroke="#9a32cd" stroke-dasharray="5,2" d="M161.414,-20.2675C203.421,-26.717 256.961,-35.9112 304,-47 327.047,-52.4329 352.7,-60.2779 371.686,-66.4389"/>
<polygon fill="#9a32cd" stroke="#9a32cd" points="161.68,-16.7679 151.268,-18.7286 160.63,-23.6887 161.68,-16.7679"/>
<text text-anchor="middle" x="248" y="-50" font-family="Helvetica,sans-Serif" font-size="10.00"> myVariableMap</text>
</g>
</g>
</svg>
