<?xml version="1.0" encoding="UTF-8" standalone="no"?>
<!DOCTYPE svg PUBLIC "-//W3C//DTD SVG 1.1//EN"
 "http://www.w3.org/Graphics/SVG/1.1/DTD/svg11.dtd">
<!-- Generated by graphviz version 2.36.0 (20140111.2315)
 -->
<!-- Title: model.Parser Pages: 1 -->
<!--zoomable 761 -->
<svg id="main" version="1.1" xmlns="http://www.w3.org/2000/svg" xmlns:xlink="http://www.w3.org/1999/xlink" xml:space="preserve" onload="init(evt)">
<style type="text/css"><![CDATA[
.edge:hover path { stroke: red; }
.edge:hover polygon { stroke: red; fill: red; }
]]></style>
<script type="text/javascript"><![CDATA[
var edges = document.getElementsByTagName('g');
if (edges && edges.length) {
  for (var i=0;i<edges.length;i++) {
    if (edges[i].id.substr(0,4)=='edge') {
      edges[i].setAttribute('class','edge');
    }
  }
}
]]></script>
        <defs>
                <circle id="rim" cx="0" cy="0" r="7"/>
                <circle id="rim2" cx="0" cy="0" r="3.5"/>
                <g id="zoomPlus">
                        <use xlink:href="#rim" fill="#404040">
                                <set attributeName="fill" to="#808080" begin="zoomplus.mouseover" end="zoomplus.mouseout"/>
                        </use>
                        <path d="M-4,0h8M0,-4v8" fill="none" stroke="white" stroke-width="1.5" pointer-events="none"/>
                </g>
                <g id="zoomMin">
                        <use xlink:href="#rim" fill="#404040">
                                <set attributeName="fill" to="#808080" begin="zoomminus.mouseover" end="zoomminus.mouseout"/>
                        </use>
                        <path d="M-4,0h8" fill="none" stroke="white" stroke-width="1.5" pointer-events="none"/>
                </g>
                <g id="dirArrow">
                        <path fill="none" stroke="white" stroke-width="1.5" d="M0,-3.0v7 M-2.5,-0.5L0,-3.0L2.5,-0.5"/>
                </g>
               <g id="resetDef">
                       <use xlink:href="#rim2" fill="#404040">
                               <set attributeName="fill" to="#808080" begin="reset.mouseover" end="reset.mouseout"/>
                       </use>
               </g>
        </defs>

<script type="text/javascript">
var viewWidth = 1962;
var viewHeight = 761;
var sectionId = 'dynsection-1';
</script>
<script xlink:href="../../svgpan.js"/>
<svg id="graph" class="graph">
<g id="viewport">
<title>model.Parser</title>
<polygon fill="white" stroke="none" points="-4,4 -4,-757.069 1958,-757.069 1958,4 -4,4"/>
<!-- Node1 -->
<g id="node1" class="node"><title>Node1</title>
<polygon fill="#bfbfbf" stroke="black" points="913,-121.569 913,-140.569 993,-140.569 993,-121.569 913,-121.569"/>
<text text-anchor="middle" x="953" y="-128.569" font-family="Helvetica,sans-Serif" font-size="10.00">model.Parser</text>
</g>
<!-- Node17 -->
<g id="node17" class="node"><title>Node17</title>
<g id="a_node17"><a xlink:href="../../d1/dc7/classview_1_1_side_bar.html" target="_top" xlink:title="view.SideBar">
<polygon fill="white" stroke="black" points="1203.5,-404.569 1203.5,-423.569 1280.5,-423.569 1280.5,-404.569 1203.5,-404.569"/>
<text text-anchor="middle" x="1242" y="-411.569" font-family="Helvetica,sans-Serif" font-size="10.00">view.SideBar</text>
</a>
</g>
</g>
<!-- Node1&#45;&gt;Node17 -->
<g id="edge34" class="edge"><title>Node1&#45;&gt;Node17</title>
<path fill="none" stroke="#9a32cd" stroke-dasharray="5,2" d="M974.633,-147.485C1012.31,-177.862 1094.08,-245.633 1156,-310.069 1187.34,-342.689 1220,-385.595 1233.97,-404.463"/>
<polygon fill="#9a32cd" stroke="#9a32cd" points="976.443,-144.45 966.453,-140.921 972.062,-149.91 976.443,-144.45"/>
<text text-anchor="middle" x="1098" y="-313.069" font-family="Helvetica,sans-Serif" font-size="10.00"> myParser</text>
</g>
<!-- Node32 -->
<g id="node32" class="node"><title>Node32</title>
<g id="a_node32"><a xlink:href="../../d6/de7/classview_1_1_s_logo_view.html" target="_top" xlink:title="view.SLogoView">
<polygon fill="white" stroke="black" points="1858.5,-197.569 1858.5,-216.569 1949.5,-216.569 1949.5,-197.569 1858.5,-197.569"/>
<text text-anchor="middle" x="1904" y="-204.569" font-family="Helvetica,sans-Serif" font-size="10.00">view.SLogoView</text>
</a>
</g>
</g>
<!-- Node1&#45;&gt;Node32 -->
<g id="edge54" class="edge"><title>Node1&#45;&gt;Node32</title>
<path fill="none" stroke="#9a32cd" stroke-dasharray="5,2" d="M966.529,-112.935C981.561,-92.6345 1008.69,-60.3296 1040,-43.069 1120,1.03493 1149.65,-0.0689952 1241,-0.0689952 1241,-0.0689952 1241,-0.0689952 1683,-0.0689952 1754.14,-0.0689952 1783.28,0.693854 1836,-47.069 1882.87,-89.531 1897.93,-169.995 1901.83,-197.54"/>
<polygon fill="#9a32cd" stroke="#9a32cd" points="963.496,-111.157 960.502,-121.32 969.18,-115.243 963.496,-111.157"/>
<text text-anchor="middle" x="1471" y="-3.069" font-family="Helvetica,sans-Serif" font-size="10.00"> myParser</text>
</g>
<!-- Node34 -->
<g id="node34" class="node"><title>Node34</title>
<g id="a_node34"><a xlink:href="../../da/dc8/classview_1_1_editor.html" target="_top" xlink:title="view.Editor">
<polygon fill="white" stroke="black" points="1437.5,-188.569 1437.5,-207.569 1504.5,-207.569 1504.5,-188.569 1437.5,-188.569"/>
<text text-anchor="middle" x="1471" y="-195.569" font-family="Helvetica,sans-Serif" font-size="10.00">view.Editor</text>
</a>
</g>
</g>
<!-- Node1&#45;&gt;Node34 -->
<g id="edge49" class="edge"><title>Node1&#45;&gt;Node34</title>
<path fill="none" stroke="#9a32cd" stroke-dasharray="5,2" d="M1003.28,-127.567C1072.44,-123.724 1201.95,-120.45 1310,-140.069 1362.62,-149.623 1420.81,-174.661 1450.4,-188.511"/>
<polygon fill="#9a32cd" stroke="#9a32cd" points="1002.9,-124.083 993.119,-128.16 1003.31,-131.072 1002.9,-124.083"/>
<text text-anchor="middle" x="1242" y="-143.069" font-family="Helvetica,sans-Serif" font-size="10.00"> myParser</text>
</g>
<!-- Node2 -->
<g id="node2" class="node"><title>Node2</title>
<polygon fill="white" stroke="#bfbfbf" points="609,-279.569 609,-298.569 669,-298.569 669,-279.569 609,-279.569"/>
<text text-anchor="middle" x="639" y="-286.569" font-family="Helvetica,sans-Serif" font-size="10.00">Observer</text>
</g>
<!-- Node2&#45;&gt;Node1 -->
<g id="edge1" class="edge"><title>Node2&#45;&gt;Node1</title>
<path fill="none" stroke="midnightblue" d="M679.182,-283.372C726.353,-275.158 806.627,-256.76 866,-220.069 901.277,-198.269 932.243,-158.754 945.348,-140.625"/>
<polygon fill="midnightblue" stroke="midnightblue" points="678.356,-279.961 669.071,-285.064 679.512,-286.865 678.356,-279.961"/>
</g>
<!-- Node9 -->
<g id="node9" class="node"><title>Node9</title>
<g id="a_node9"><a xlink:href="../../d4/d64/classview_1_1_view_updater.html" target="_top" xlink:title="view.ViewUpdater">
<polygon fill="white" stroke="black" points="1854,-444.569 1854,-463.569 1954,-463.569 1954,-444.569 1854,-444.569"/>
<text text-anchor="middle" x="1904" y="-451.569" font-family="Helvetica,sans-Serif" font-size="10.00">view.ViewUpdater</text>
</a>
</g>
</g>
<!-- Node2&#45;&gt;Node9 -->
<g id="edge9" class="edge"><title>Node2&#45;&gt;Node9</title>
<path fill="none" stroke="midnightblue" d="M679.358,-288.973C748.739,-289.146 897.277,-291.053 1022,-303.069 1347.54,-334.431 1734.16,-416.493 1860.67,-444.523"/>
<polygon fill="midnightblue" stroke="midnightblue" points="679.317,-285.473 669.312,-288.959 679.307,-292.473 679.317,-285.473"/>
</g>
<!-- Node3 -->
<g id="node3" class="node"><title>Node3</title>
<polygon fill="white" stroke="#bfbfbf" points="583,-138.069 583,-168.069 695,-168.069 695,-138.069 583,-138.069"/>
<text text-anchor="start" x="591" y="-156.069" font-family="Helvetica,sans-Serif" font-size="10.00">List&lt; Entry&lt; String,</text>
<text text-anchor="middle" x="639" y="-145.069" font-family="Helvetica,sans-Serif" font-size="10.00"> Pattern &gt; &gt;</text>
</g>
<!-- Node3&#45;&gt;Node1 -->
<g id="edge2" class="edge"><title>Node3&#45;&gt;Node1</title>
<path fill="none" stroke="#9a32cd" stroke-dasharray="5,2" d="M705.245,-148.468C767.965,-144.046 860.693,-137.507 912.785,-133.834"/>
<polygon fill="#9a32cd" stroke="#9a32cd" points="704.79,-144.992 695.061,-149.186 705.283,-151.974 704.79,-144.992"/>
<text text-anchor="middle" x="805" y="-149.069" font-family="Helvetica,sans-Serif" font-size="10.00"> myPatterns</text>
</g>
<!-- Node4 -->
<g id="node4" class="node"><title>Node4</title>
<g id="a_node4"><a xlink:href="../../d1/dca/classmodel_1_1_execution_environment.html" target="_top" xlink:title="model.ExecutionEnvironment">
<polygon fill="white" stroke="black" points="560.5,-235.569 560.5,-254.569 717.5,-254.569 717.5,-235.569 560.5,-235.569"/>
<text text-anchor="middle" x="639" y="-242.569" font-family="Helvetica,sans-Serif" font-size="10.00">model.ExecutionEnvironment</text>
</a>
</g>
</g>
<!-- Node4&#45;&gt;Node1 -->
<g id="edge3" class="edge"><title>Node4&#45;&gt;Node1</title>
<path fill="none" stroke="#9a32cd" stroke-dasharray="5,2" d="M675.635,-232.049C739.014,-208.891 869.913,-161.062 925.79,-140.646"/>
<polygon fill="#9a32cd" stroke="#9a32cd" points="674.256,-228.826 666.064,-235.545 676.658,-235.401 674.256,-228.826"/>
<text text-anchor="middle" x="805" y="-208.069" font-family="Helvetica,sans-Serif" font-size="10.00"> myExecutionParameters</text>
</g>
<!-- Node4&#45;&gt;Node17 -->
<g id="edge22" class="edge"><title>Node4&#45;&gt;Node17</title>
<path fill="none" stroke="#9a32cd" stroke-dasharray="5,2" d="M703.727,-256.419C822.76,-278.087 1074.22,-326.202 1156,-360.069 1183.94,-371.641 1212.94,-392.234 1228.8,-404.37"/>
<polygon fill="#9a32cd" stroke="#9a32cd" points="704.128,-252.935 693.664,-254.593 702.878,-259.822 704.128,-252.935"/>
<text text-anchor="middle" x="953" y="-324.069" font-family="Helvetica,sans-Serif" font-size="10.00"> myEnvironment</text>
</g>
<!-- Node21 -->
<g id="node21" class="node"><title>Node21</title>
<g id="a_node21"><a xlink:href="../../d9/dd3/classview_1_1_variables_view.html" target="_top" xlink:title="view.VariablesView">
<polygon fill="white" stroke="black" points="901,-525.569 901,-544.569 1005,-544.569 1005,-525.569 901,-525.569"/>
<text text-anchor="middle" x="953" y="-532.569" font-family="Helvetica,sans-Serif" font-size="10.00">view.VariablesView</text>
</a>
</g>
</g>
<!-- Node4&#45;&gt;Node21 -->
<g id="edge31" class="edge"><title>Node4&#45;&gt;Node21</title>
<path fill="none" stroke="#9a32cd" stroke-dasharray="5,2" d="M713.765,-259.656C718.312,-262.545 722.468,-265.983 726,-270.069 764.142,-314.199 715.068,-349.421 744,-400.069 783.387,-469.019 814.499,-472.663 884,-511.069 894.519,-516.882 906.712,-521.71 917.843,-525.475"/>
<polygon fill="#9a32cd" stroke="#9a32cd" points="715.07,-256.384 704.602,-254.747 711.764,-262.555 715.07,-256.384"/>
<text text-anchor="middle" x="805" y="-504.069" font-family="Helvetica,sans-Serif" font-size="10.00"> myEnvironment</text>
</g>
<!-- Node4&#45;&gt;Node32 -->
<g id="edge53" class="edge"><title>Node4&#45;&gt;Node32</title>
<path fill="none" stroke="#9a32cd" stroke-dasharray="5,2" d="M727.75,-252.905C870.467,-264.504 1161.71,-283.406 1408,-269.069 1599.19,-257.939 1646.54,-247.075 1836,-219.069 1843.25,-217.998 1850.91,-216.741 1858.37,-215.453"/>
<polygon fill="#9a32cd" stroke="#9a32cd" points="727.986,-249.412 717.733,-252.083 727.414,-256.389 727.986,-249.412"/>
<text text-anchor="middle" x="1368" y="-276.069" font-family="Helvetica,sans-Serif" font-size="10.00"> myEnvironment</text>
</g>
<!-- Node5 -->
<g id="node5" class="node"><title>Node5</title>
<polygon fill="white" stroke="#bfbfbf" points="281.5,-216.569 281.5,-235.569 352.5,-235.569 352.5,-216.569 281.5,-216.569"/>
<text text-anchor="middle" x="317" y="-223.569" font-family="Helvetica,sans-Serif" font-size="10.00">Observable</text>
</g>
<!-- Node5&#45;&gt;Node4 -->
<g id="edge4" class="edge"><title>Node5&#45;&gt;Node4</title>
<path fill="none" stroke="midnightblue" d="M362.61,-228.718C413.684,-231.75 498.273,-236.773 560.249,-240.453"/>
<polygon fill="midnightblue" stroke="midnightblue" points="362.74,-225.219 352.55,-228.12 362.325,-232.207 362.74,-225.219"/>
</g>
<!-- Node6 -->
<g id="node6" class="node"><title>Node6</title>
<polygon fill="white" stroke="#bfbfbf" points="272.5,-178.569 272.5,-197.569 361.5,-197.569 361.5,-178.569 272.5,-178.569"/>
<text text-anchor="middle" x="317" y="-185.569" font-family="Helvetica,sans-Serif" font-size="10.00">Set&lt; Integer &gt;</text>
</g>
<!-- Node6&#45;&gt;Node4 -->
<g id="edge5" class="edge"><title>Node6&#45;&gt;Node4</title>
<path fill="none" stroke="#9a32cd" stroke-dasharray="5,2" d="M371.745,-188.893C415.813,-190.497 479.571,-194.953 534,-207.069 563.647,-213.668 596.314,-226.597 616.98,-235.528"/>
<polygon fill="#9a32cd" stroke="#9a32cd" points="371.65,-185.388 361.541,-188.56 371.421,-192.384 371.65,-185.388"/>
<text text-anchor="middle" x="478" y="-221.069" font-family="Helvetica,sans-Serif" font-size="10.00"> myTurtleList</text>
<text text-anchor="middle" x="478" y="-210.069" font-family="Helvetica,sans-Serif" font-size="10.00">activeTurtleList</text>
</g>
<!-- Node7 -->
<g id="node7" class="node"><title>Node7</title>
<polygon fill="white" stroke="#bfbfbf" points="230,-293.069 230,-323.069 404,-323.069 404,-293.069 230,-293.069"/>
<text text-anchor="start" x="238" y="-311.069" font-family="Helvetica,sans-Serif" font-size="10.00">Map&lt; String, model.instructions.</text>
<text text-anchor="middle" x="317" y="-300.069" font-family="Helvetica,sans-Serif" font-size="10.00">Instruction &gt;</text>
</g>
<!-- Node7&#45;&gt;Node4 -->
<g id="edge6" class="edge"><title>Node7&#45;&gt;Node4</title>
<path fill="none" stroke="#9a32cd" stroke-dasharray="5,2" d="M413.978,-294.674C451.57,-288.865 494.963,-281.464 534,-273.069 558.313,-267.841 585.434,-260.487 605.883,-254.628"/>
<polygon fill="#9a32cd" stroke="#9a32cd" points="413.402,-291.221 404.046,-296.192 414.46,-298.141 413.402,-291.221"/>
<text text-anchor="middle" x="478" y="-297.069" font-family="Helvetica,sans-Serif" font-size="10.00"> myUserInstructionMap</text>
</g>
<!-- Node8 -->
<g id="node8" class="node"><title>Node8</title>
<polygon fill="white" stroke="#bfbfbf" points="253,-254.569 253,-273.569 381,-273.569 381,-254.569 253,-254.569"/>
<text text-anchor="middle" x="317" y="-261.569" font-family="Helvetica,sans-Serif" font-size="10.00">Map&lt; String, Double &gt;</text>
</g>
<!-- Node8&#45;&gt;Node4 -->
<g id="edge7" class="edge"><title>Node8&#45;&gt;Node4</title>
<path fill="none" stroke="#9a32cd" stroke-dasharray="5,2" d="M391.427,-259.709C441.993,-256.707 509.066,-252.724 560.491,-249.671"/>
<polygon fill="#9a32cd" stroke="#9a32cd" points="390.997,-256.229 381.222,-260.315 391.412,-263.216 390.997,-256.229"/>
<text text-anchor="middle" x="478" y="-261.069" font-family="Helvetica,sans-Serif" font-size="10.00"> myVariableMap</text>
</g>
<!-- Node9&#45;&gt;Node1 -->
<g id="edge8" class="edge"><title>Node9&#45;&gt;Node1</title>
<path fill="none" stroke="#9a32cd" stroke-dasharray="5,2" d="M1894.09,-435.283C1882.94,-413.256 1862.07,-376.64 1836,-352.069 1806.15,-323.941 1554.04,-183.412 1516,-168.069 1332.37,-93.9986 1087.6,-113.959 993.316,-125.536"/>
<polygon fill="#9a32cd" stroke="#9a32cd" points="1890.97,-436.854 1898.52,-444.281 1897.25,-433.763 1890.97,-436.854"/>
<text text-anchor="middle" x="1471" y="-171.069" font-family="Helvetica,sans-Serif" font-size="10.00"> myViewUpdater</text>
</g>
<!-- Node10 -->
<g id="node10" class="node"><title>Node10</title>
<g id="a_node10"><a xlink:href="../../da/d64/classview_1_1_workspace.html" target="_top" xlink:title="view.Workspace">
<polygon fill="white" stroke="black" points="1426,-554.569 1426,-573.569 1516,-573.569 1516,-554.569 1426,-554.569"/>
<text text-anchor="middle" x="1471" y="-561.569" font-family="Helvetica,sans-Serif" font-size="10.00">view.Workspace</text>
</a>
</g>
</g>
<!-- Node10&#45;&gt;Node9 -->
<g id="edge10" class="edge"><title>Node10&#45;&gt;Node9</title>
<path fill="none" stroke="#9a32cd" stroke-dasharray="5,2" d="M1526.72,-563.893C1582.07,-562.401 1669.56,-556.414 1742,-535.069 1799.33,-518.177 1860.73,-481.402 1888.22,-463.816"/>
<polygon fill="#9a32cd" stroke="#9a32cd" points="1526.35,-560.401 1516.43,-564.128 1526.51,-567.399 1526.35,-560.401"/>
<text text-anchor="middle" x="1682" y="-561.069" font-family="Helvetica,sans-Serif" font-size="10.00"> myWorkspace</text>
</g>
<!-- Node29 -->
<g id="node29" class="node"><title>Node29</title>
<g id="a_node29"><a xlink:href="../../de/d0a/classview_1_1_drawer.html" target="_top" xlink:title="view.Drawer">
<polygon fill="white" stroke="black" points="1645.5,-464.569 1645.5,-483.569 1718.5,-483.569 1718.5,-464.569 1645.5,-464.569"/>
<text text-anchor="middle" x="1682" y="-471.569" font-family="Helvetica,sans-Serif" font-size="10.00">view.Drawer</text>
</a>
</g>
</g>
<!-- Node10&#45;&gt;Node29 -->
<g id="edge38" class="edge"><title>Node10&#45;&gt;Node29</title>
<path fill="none" stroke="#9a32cd" stroke-dasharray="5,2" d="M1486.97,-546.863C1498.6,-534.554 1515.78,-518.547 1534,-509.069 1553.14,-499.111 1608.38,-487.499 1645.42,-480.47"/>
<polygon fill="#9a32cd" stroke="#9a32cd" points="1484.33,-544.566 1480.17,-554.312 1489.5,-549.285 1484.33,-544.566"/>
<text text-anchor="middle" x="1569" y="-512.069" font-family="Helvetica,sans-Serif" font-size="10.00"> myWorkspace</text>
</g>
<!-- Node10&#45;&gt;Node32 -->
<g id="edge43" class="edge"><title>Node10&#45;&gt;Node32</title>
<path fill="none" stroke="#9a32cd" stroke-dasharray="5,2" d="M1512.01,-551.575C1542.12,-542.359 1584.47,-529.785 1622,-520.069 1674.92,-506.368 1698.15,-525.71 1742,-493.069 1755.09,-483.326 1749.92,-473.901 1760,-461.069 1788.56,-424.72 1810.47,-428.602 1836,-390.069 1875.24,-330.841 1895.19,-245.641 1901.09,-216.934"/>
<polygon fill="#9a32cd" stroke="#9a32cd" points="1510.82,-548.278 1502.29,-554.563 1512.88,-554.969 1510.82,-548.278"/>
<text text-anchor="middle" x="1682" y="-523.069" font-family="Helvetica,sans-Serif" font-size="10.00"> myWorkspace</text>
</g>
<!-- Node11 -->
<g id="node11" class="node"><title>Node11</title>
<polygon fill="white" stroke="#bfbfbf" points="1208.5,-578.569 1208.5,-597.569 1275.5,-597.569 1275.5,-578.569 1208.5,-578.569"/>
<text text-anchor="middle" x="1242" y="-585.569" font-family="Helvetica,sans-Serif" font-size="10.00">StackPane</text>
</g>
<!-- Node11&#45;&gt;Node10 -->
<g id="edge11" class="edge"><title>Node11&#45;&gt;Node10</title>
<path fill="none" stroke="midnightblue" d="M1285.95,-585.315C1319.3,-582.961 1366.68,-579.148 1408,-574.069 1413.74,-573.364 1419.75,-572.523 1425.69,-571.631"/>
<polygon fill="midnightblue" stroke="midnightblue" points="1285.37,-581.846 1275.63,-586.027 1285.85,-588.829 1285.37,-581.846"/>
</g>
<!-- Node12 -->
<g id="node12" class="node"><title>Node12</title>
<polygon fill="white" stroke="#bfbfbf" points="906.5,-601.569 906.5,-620.569 999.5,-620.569 999.5,-601.569 906.5,-601.569"/>
<text text-anchor="middle" x="953" y="-608.569" font-family="Helvetica,sans-Serif" font-size="10.00">ResourceBundle</text>
</g>
<!-- Node12&#45;&gt;Node10 -->
<g id="edge12" class="edge"><title>Node12&#45;&gt;Node10</title>
<path fill="none" stroke="#9a32cd" stroke-dasharray="5,2" d="M1010.11,-617.793C1020.05,-618.741 1030.32,-619.564 1040,-620.069 1203.81,-628.617 1250.73,-638.665 1408,-592.069 1423.51,-587.473 1440.18,-579.777 1452.32,-573.615"/>
<polygon fill="#9a32cd" stroke="#9a32cd" points="1010.2,-614.285 999.901,-616.767 1009.5,-621.25 1010.2,-614.285"/>
<text text-anchor="middle" x="1242" y="-631.069" font-family="Helvetica,sans-Serif" font-size="10.00"> myResources</text>
</g>
<!-- Node12&#45;&gt;Node17 -->
<g id="edge21" class="edge"><title>Node12&#45;&gt;Node17</title>
<path fill="none" stroke="#9a32cd" stroke-dasharray="5,2" d="M1001.92,-598.628C1008.71,-596.59 1015.57,-594.383 1022,-592.069 1030.24,-589.105 1031.65,-586.714 1040,-584.069 1090.1,-568.187 1119.57,-598.954 1156,-561.069 1191.55,-524.096 1143.58,-488.369 1174,-447.069 1182,-436.212 1194.55,-428.73 1206.65,-423.672"/>
<polygon fill="#9a32cd" stroke="#9a32cd" points="1000.7,-595.336 992.075,-601.484 1002.65,-602.059 1000.7,-595.336"/>
<text text-anchor="middle" x="1098" y="-587.069" font-family="Helvetica,sans-Serif" font-size="10.00"> myResources</text>
</g>
<!-- Node12&#45;&gt;Node32 -->
<g id="edge45" class="edge"><title>Node12&#45;&gt;Node32</title>
<path fill="none" stroke="#9a32cd" stroke-dasharray="5,2" d="M1009.81,-614.089C1062.18,-615.643 1135.42,-614.108 1156,-595.069 1193.65,-560.232 1137.2,-516.803 1174,-481.069 1243.11,-413.959 1511.94,-454.433 1604,-426.069 1659.28,-409.038 1792.81,-346.547 1836,-308.069 1866.79,-280.633 1889.71,-236.004 1898.76,-216.591"/>
<polygon fill="#9a32cd" stroke="#9a32cd" points="1009.76,-610.585 999.642,-613.741 1009.52,-617.581 1009.76,-610.585"/>
<text text-anchor="middle" x="1471" y="-442.069" font-family="Helvetica,sans-Serif" font-size="10.00"> myResources</text>
</g>
<!-- Node13 -->
<g id="node13" class="node"><title>Node13</title>
<g id="a_node13"><a xlink:href="../../d8/df7/classview_1_1_turtle_view.html" target="_top" xlink:title="view.TurtleView">
<polygon fill="white" stroke="black" points="1199,-663.569 1199,-682.569 1285,-682.569 1285,-663.569 1199,-663.569"/>
<text text-anchor="middle" x="1242" y="-670.569" font-family="Helvetica,sans-Serif" font-size="10.00">view.TurtleView</text>
</a>
</g>
</g>
<!-- Node13&#45;&gt;Node10 -->
<g id="edge13" class="edge"><title>Node13&#45;&gt;Node10</title>
<path fill="none" stroke="#9a32cd" stroke-dasharray="5,2" d="M1295.58,-675.151C1329.84,-674.196 1374.27,-668.408 1408,-648.069 1437.8,-630.097 1457.78,-591.833 1465.9,-573.824"/>
<polygon fill="#9a32cd" stroke="#9a32cd" points="1295.25,-671.656 1285.3,-675.303 1295.35,-678.655 1295.25,-671.656"/>
<text text-anchor="middle" x="1368" y="-675.069" font-family="Helvetica,sans-Serif" font-size="10.00"> myActiveTurtle</text>
</g>
<!-- Node14 -->
<g id="node14" class="node"><title>Node14</title>
<polygon fill="white" stroke="#bfbfbf" points="919,-650.569 919,-669.569 987,-669.569 987,-650.569 919,-650.569"/>
<text text-anchor="middle" x="953" y="-657.569" font-family="Helvetica,sans-Serif" font-size="10.00">ImageView</text>
</g>
<!-- Node14&#45;&gt;Node13 -->
<g id="edge14" class="edge"><title>Node14&#45;&gt;Node13</title>
<path fill="none" stroke="midnightblue" d="M997.24,-662.028C1051.74,-664.496 1144.82,-668.712 1198.82,-671.158"/>
<polygon fill="midnightblue" stroke="midnightblue" points="997.351,-658.529 987.203,-661.573 997.034,-665.522 997.351,-658.529"/>
</g>
<!-- Node15 -->
<g id="node15" class="node"><title>Node15</title>
<polygon fill="white" stroke="#bfbfbf" points="930,-698.569 930,-717.569 976,-717.569 976,-698.569 930,-698.569"/>
<text text-anchor="middle" x="953" y="-705.569" font-family="Helvetica,sans-Serif" font-size="10.00">Group</text>
</g>
<!-- Node15&#45;&gt;Node10 -->
<g id="edge17" class="edge"><title>Node15&#45;&gt;Node10</title>
<path fill="none" stroke="#9a32cd" stroke-dasharray="5,2" d="M986.182,-716.911C1065.59,-736.714 1274.13,-776.236 1408,-687.069 1448.6,-660.025 1463.86,-597.976 1468.39,-573.885"/>
<polygon fill="#9a32cd" stroke="#9a32cd" points="986.84,-713.467 976.285,-714.377 985.104,-720.248 986.84,-713.467"/>
<text text-anchor="middle" x="1242" y="-745.069" font-family="Helvetica,sans-Serif" font-size="10.00"> myLines</text>
</g>
<!-- Node15&#45;&gt;Node13 -->
<g id="edge15" class="edge"><title>Node15&#45;&gt;Node13</title>
<path fill="none" stroke="#9a32cd" stroke-dasharray="5,2" d="M986.22,-702.375C1002.34,-699.641 1022.17,-696.45 1040,-694.069 1094.77,-686.755 1158.23,-680.492 1198.96,-676.755"/>
<polygon fill="#9a32cd" stroke="#9a32cd" points="985.485,-698.95 976.222,-704.093 986.67,-705.849 985.485,-698.95"/>
<text text-anchor="middle" x="1098" y="-697.069" font-family="Helvetica,sans-Serif" font-size="10.00"> myStamps</text>
</g>
<!-- Node16 -->
<g id="node16" class="node"><title>Node16</title>
<polygon fill="white" stroke="#bfbfbf" points="1174,-529.069 1174,-559.069 1310,-559.069 1310,-529.069 1174,-529.069"/>
<text text-anchor="start" x="1182" y="-547.069" font-family="Helvetica,sans-Serif" font-size="10.00">Map&lt; Integer, view.Turtle</text>
<text text-anchor="middle" x="1242" y="-536.069" font-family="Helvetica,sans-Serif" font-size="10.00">View &gt;</text>
</g>
<!-- Node16&#45;&gt;Node10 -->
<g id="edge16" class="edge"><title>Node16&#45;&gt;Node10</title>
<path fill="none" stroke="#9a32cd" stroke-dasharray="5,2" d="M1320.45,-550.892C1355.65,-553.994 1396.01,-557.55 1425.93,-560.186"/>
<polygon fill="#9a32cd" stroke="#9a32cd" points="1320.45,-547.38 1310.19,-549.988 1319.84,-554.353 1320.45,-547.38"/>
<text text-anchor="middle" x="1368" y="-562.069" font-family="Helvetica,sans-Serif" font-size="10.00"> myTurtles</text>
</g>
<!-- Node17&#45;&gt;Node9 -->
<g id="edge40" class="edge"><title>Node17&#45;&gt;Node9</title>
<path fill="none" stroke="#9a32cd" stroke-dasharray="5,2" d="M1290.97,-416.976C1412.46,-424.339 1731.36,-443.667 1853.99,-451.098"/>
<polygon fill="#9a32cd" stroke="#9a32cd" points="1291.05,-413.475 1280.85,-416.363 1290.62,-420.462 1291.05,-413.475"/>
<text text-anchor="middle" x="1569" y="-439.069" font-family="Helvetica,sans-Serif" font-size="10.00"> mySidebar</text>
</g>
<!-- Node17&#45;&gt;Node10 -->
<g id="edge18" class="edge"><title>Node17&#45;&gt;Node10</title>
<path fill="none" stroke="#9a32cd" stroke-dasharray="5,2" d="M1275.43,-427.893C1309.96,-443.379 1365.38,-470.493 1408,-502.069 1419.25,-510.406 1446.36,-538.788 1460.72,-554.093"/>
<polygon fill="#9a32cd" stroke="#9a32cd" points="1276.41,-424.499 1265.85,-423.653 1273.58,-430.9 1276.41,-424.499"/>
<text text-anchor="middle" x="1368" y="-505.069" font-family="Helvetica,sans-Serif" font-size="10.00"> mySidebar</text>
</g>
<!-- Node17&#45;&gt;Node32 -->
<g id="edge57" class="edge"><title>Node17&#45;&gt;Node32</title>
<path fill="none" stroke="#9a32cd" stroke-dasharray="5,2" d="M1290.71,-405.093C1423.08,-379.948 1788.36,-308.842 1836,-281.069 1864,-264.747 1886.84,-232.785 1897.12,-216.741"/>
<polygon fill="#9a32cd" stroke="#9a32cd" points="1290.02,-401.661 1280.85,-406.963 1291.32,-408.539 1290.02,-401.661"/>
<text text-anchor="middle" x="1569" y="-360.069" font-family="Helvetica,sans-Serif" font-size="10.00"> mySidebar</text>
</g>
<!-- Node17&#45;&gt;Node34 -->
<g id="edge51" class="edge"><title>Node17&#45;&gt;Node34</title>
<path fill="none" stroke="#9a32cd" stroke-dasharray="5,2" d="M1248.27,-394.455C1258.19,-361.311 1282.82,-294.301 1328,-258.069 1356.86,-234.924 1374.06,-249.782 1408,-235.069 1425.48,-227.492 1444.06,-215.869 1456.27,-207.675"/>
<polygon fill="#9a32cd" stroke="#9a32cd" points="1244.83,-393.727 1245.46,-404.303 1251.57,-395.646 1244.83,-393.727"/>
<text text-anchor="middle" x="1368" y="-261.069" font-family="Helvetica,sans-Serif" font-size="10.00"> mySidebar</text>
</g>
<!-- Node18 -->
<g id="node18" class="node"><title>Node18</title>
<polygon fill="white" stroke="#bfbfbf" points="932.5,-402.569 932.5,-421.569 973.5,-421.569 973.5,-402.569 932.5,-402.569"/>
<text text-anchor="middle" x="953" y="-409.569" font-family="Helvetica,sans-Serif" font-size="10.00">VBox</text>
</g>
<!-- Node18&#45;&gt;Node17 -->
<g id="edge19" class="edge"><title>Node18&#45;&gt;Node17</title>
<path fill="none" stroke="midnightblue" d="M983.735,-412.276C1036.22,-412.642 1145.21,-413.401 1203.04,-413.804"/>
<polygon fill="midnightblue" stroke="midnightblue" points="983.751,-408.776 973.727,-412.206 983.702,-415.776 983.751,-408.776"/>
</g>
<!-- Node19 -->
<g id="node19" class="node"><title>Node19</title>
<polygon fill="white" stroke="#bfbfbf" points="552.5,-496.569 552.5,-515.569 725.5,-515.569 725.5,-496.569 552.5,-496.569"/>
<text text-anchor="middle" x="639" y="-503.569" font-family="Helvetica,sans-Serif" font-size="10.00">ObservableList&lt; view.Property &gt;</text>
</g>
<!-- Node19&#45;&gt;Node17 -->
<g id="edge20" class="edge"><title>Node19&#45;&gt;Node17</title>
<path fill="none" stroke="#9a32cd" stroke-dasharray="5,2" d="M735.757,-506.291C863.961,-505.261 1083.66,-498.453 1156,-465.069 1166.27,-460.329 1164.8,-453.657 1174,-447.069 1187.28,-437.556 1203.72,-429.413 1216.99,-423.596"/>
<polygon fill="#9a32cd" stroke="#9a32cd" points="735.522,-502.793 725.547,-506.363 735.571,-509.793 735.522,-502.793"/>
<text text-anchor="middle" x="953" y="-506.069" font-family="Helvetica,sans-Serif" font-size="10.00"> myVariablesList</text>
</g>
<!-- Node19&#45;&gt;Node21 -->
<g id="edge30" class="edge"><title>Node19&#45;&gt;Node21</title>
<path fill="none" stroke="#9a32cd" stroke-dasharray="5,2" d="M735.68,-514.962C790.063,-520.017 856.007,-526.147 900.682,-530.299"/>
<polygon fill="#9a32cd" stroke="#9a32cd" points="735.949,-511.472 725.668,-514.032 735.301,-518.442 735.949,-511.472"/>
<text text-anchor="middle" x="805" y="-530.069" font-family="Helvetica,sans-Serif" font-size="10.00"> myVariablesList</text>
</g>
<!-- Node20 -->
<g id="node20" class="node"><title>Node20</title>
<polygon fill="white" stroke="#bfbfbf" points="243,-422.569 243,-441.569 391,-441.569 391,-422.569 243,-422.569"/>
<text text-anchor="middle" x="317" y="-429.569" font-family="Helvetica,sans-Serif" font-size="10.00">TableView&lt; view.Property &gt;</text>
</g>
<!-- Node20&#45;&gt;Node17 -->
<g id="edge23" class="edge"><title>Node20&#45;&gt;Node17</title>
<path fill="none" stroke="#9a32cd" stroke-dasharray="5,2" d="M372.632,-420.5C471.031,-400.957 684.69,-364.426 866,-374.069 989.897,-380.658 1135.85,-399.41 1203.31,-408.708"/>
<polygon fill="#9a32cd" stroke="#9a32cd" points="371.741,-417.109 362.625,-422.508 373.118,-423.972 371.741,-417.109"/>
<text text-anchor="middle" x="805" y="-388.069" font-family="Helvetica,sans-Serif" font-size="10.00"> myTurtlePropertiesTable</text>
<text text-anchor="middle" x="805" y="-377.069" font-family="Helvetica,sans-Serif" font-size="10.00">myVariablesTable</text>
</g>
<!-- Node22 -->
<g id="node22" class="node"><title>Node22</title>
<g id="a_node22"><a xlink:href="../../d5/dea/classview_1_1_side_table_view.html" target="_top" xlink:title="view.SideTableView">
<polygon fill="white" stroke="black" points="586,-545.569 586,-564.569 692,-564.569 692,-545.569 586,-545.569"/>
<text text-anchor="middle" x="639" y="-552.569" font-family="Helvetica,sans-Serif" font-size="10.00">view.SideTableView</text>
</a>
</g>
</g>
<!-- Node20&#45;&gt;Node22 -->
<g id="edge28" class="edge"><title>Node20&#45;&gt;Node22</title>
<path fill="none" stroke="#9a32cd" stroke-dasharray="5,2" d="M350.377,-445.444C395.381,-463.919 479.496,-498.029 552,-525.069 571.113,-532.197 592.801,-539.759 609.615,-545.508"/>
<polygon fill="#9a32cd" stroke="#9a32cd" points="351.702,-442.204 341.122,-441.639 349.04,-448.679 351.702,-442.204"/>
<text text-anchor="middle" x="478" y="-521.069" font-family="Helvetica,sans-Serif" font-size="10.00"> myTable</text>
</g>
<!-- Node21&#45;&gt;Node17 -->
<g id="edge24" class="edge"><title>Node21&#45;&gt;Node17</title>
<path fill="none" stroke="#9a32cd" stroke-dasharray="5,2" d="M1006.38,-523.306C1017.47,-520.869 1029.11,-518.35 1040,-516.069 1091.44,-505.288 1115.69,-526.799 1156,-493.069 1172.84,-478.98 1159.15,-463.236 1174,-447.069 1183.74,-436.47 1197.63,-428.859 1210.24,-423.636"/>
<polygon fill="#9a32cd" stroke="#9a32cd" points="1005.4,-519.938 996.391,-525.512 1006.91,-526.774 1005.4,-519.938"/>
<text text-anchor="middle" x="1098" y="-519.069" font-family="Helvetica,sans-Serif" font-size="10.00"> myVariablesPane</text>
</g>
<!-- Node22&#45;&gt;Node21 -->
<g id="edge25" class="edge"><title>Node22&#45;&gt;Node21</title>
<path fill="none" stroke="midnightblue" d="M702.059,-551.355C747.47,-548.606 810.568,-544.72 866,-541.069 877.201,-540.331 889.22,-539.511 900.617,-538.72"/>
<polygon fill="midnightblue" stroke="midnightblue" points="701.841,-547.862 692.07,-551.959 702.263,-554.849 701.841,-547.862"/>
</g>
<!-- Node26 -->
<g id="node26" class="node"><title>Node26</title>
<g id="a_node26"><a xlink:href="../../d9/d3a/classview_1_1_turtle_properties_view.html" target="_top" xlink:title="view.TurtlePropertiesView">
<polygon fill="white" stroke="black" points="885.5,-563.569 885.5,-582.569 1020.5,-582.569 1020.5,-563.569 885.5,-563.569"/>
<text text-anchor="middle" x="953" y="-570.569" font-family="Helvetica,sans-Serif" font-size="10.00">view.TurtlePropertiesView</text>
</a>
</g>
</g>
<!-- Node22&#45;&gt;Node26 -->
<g id="edge33" class="edge"><title>Node22&#45;&gt;Node26</title>
<path fill="none" stroke="midnightblue" d="M702.351,-562.399C716.055,-563.805 730.505,-565.129 744,-566.069 791.218,-569.356 844.577,-571.112 885.429,-572.043"/>
<polygon fill="midnightblue" stroke="midnightblue" points="702.355,-558.881 692.043,-561.314 701.622,-565.842 702.355,-558.881"/>
</g>
<!-- Node23 -->
<g id="node23" class="node"><title>Node23</title>
<g id="a_node23"><a xlink:href="../../d2/d38/classview_1_1_side_properties_view.html" target="_top" xlink:title="view.SidePropertiesView">
<polygon fill="white" stroke="black" points="251.5,-517.569 251.5,-536.569 382.5,-536.569 382.5,-517.569 251.5,-517.569"/>
<text text-anchor="middle" x="317" y="-524.569" font-family="Helvetica,sans-Serif" font-size="10.00">view.SidePropertiesView</text>
</a>
</g>
</g>
<!-- Node23&#45;&gt;Node22 -->
<g id="edge26" class="edge"><title>Node23&#45;&gt;Node22</title>
<path fill="none" stroke="midnightblue" d="M392.81,-533.615C452.066,-538.8 533.328,-545.91 585.754,-550.497"/>
<polygon fill="midnightblue" stroke="midnightblue" points="393.024,-530.12 382.757,-532.735 392.414,-537.094 393.024,-530.12"/>
</g>
<!-- Node24 -->
<g id="node24" class="node"><title>Node24</title>
<polygon fill="white" stroke="#bfbfbf" points="0.5,-517.569 0.5,-536.569 135.5,-536.569 135.5,-517.569 0.5,-517.569"/>
<text text-anchor="middle" x="68" y="-524.569" font-family="Helvetica,sans-Serif" font-size="10.00">ObservableList&lt; Node &gt;</text>
</g>
<!-- Node24&#45;&gt;Node23 -->
<g id="edge27" class="edge"><title>Node24&#45;&gt;Node23</title>
<path fill="none" stroke="#9a32cd" stroke-dasharray="5,2" d="M145.848,-527.069C179.752,-527.069 219.154,-527.069 251.499,-527.069"/>
<polygon fill="#9a32cd" stroke="#9a32cd" points="145.516,-523.569 135.516,-527.069 145.516,-530.569 145.516,-523.569"/>
<text text-anchor="middle" x="183" y="-530.069" font-family="Helvetica,sans-Serif" font-size="10.00"> myChildren</text>
</g>
<!-- Node25 -->
<g id="node25" class="node"><title>Node25</title>
<polygon fill="white" stroke="#bfbfbf" points="239.5,-556.069 239.5,-586.069 394.5,-586.069 394.5,-556.069 239.5,-556.069"/>
<text text-anchor="start" x="247.5" y="-574.069" font-family="Helvetica,sans-Serif" font-size="10.00">TableColumn&lt; view.Property,</text>
<text text-anchor="middle" x="317" y="-563.069" font-family="Helvetica,sans-Serif" font-size="10.00"> String &gt;</text>
</g>
<!-- Node25&#45;&gt;Node22 -->
<g id="edge29" class="edge"><title>Node25&#45;&gt;Node22</title>
<path fill="none" stroke="#9a32cd" stroke-dasharray="5,2" d="M404.896,-566.724C462.818,-563.828 537.022,-560.118 585.963,-557.671"/>
<polygon fill="#9a32cd" stroke="#9a32cd" points="404.461,-563.241 394.648,-567.237 404.81,-570.233 404.461,-563.241"/>
<text text-anchor="middle" x="478" y="-580.069" font-family="Helvetica,sans-Serif" font-size="10.00"> rightTableCol</text>
<text text-anchor="middle" x="478" y="-569.069" font-family="Helvetica,sans-Serif" font-size="10.00">leftTableCol</text>
</g>
<!-- Node26&#45;&gt;Node17 -->
<g id="edge32" class="edge"><title>Node26&#45;&gt;Node17</title>
<path fill="none" stroke="#9a32cd" stroke-dasharray="5,2" d="M997.77,-560.769C1011.27,-557.136 1026.2,-553.278 1040,-550.069 1091.19,-538.162 1118.36,-563.756 1156,-527.069 1182.1,-501.631 1151.45,-475.698 1174,-447.069 1182.51,-436.272 1195.45,-428.759 1207.71,-423.661"/>
<polygon fill="#9a32cd" stroke="#9a32cd" points="996.504,-557.486 987.773,-563.488 998.341,-564.24 996.504,-557.486"/>
<text text-anchor="middle" x="1098" y="-553.069" font-family="Helvetica,sans-Serif" font-size="10.00"> myTurtlePropertiesPane</text>
</g>
<!-- Node27 -->
<g id="node27" class="node"><title>Node27</title>
<polygon fill="white" stroke="#bfbfbf" points="884,-440.569 884,-459.569 1022,-459.569 1022,-440.569 884,-440.569"/>
<text text-anchor="middle" x="953" y="-447.569" font-family="Helvetica,sans-Serif" font-size="10.00">ObservableList&lt; String &gt;</text>
</g>
<!-- Node27&#45;&gt;Node17 -->
<g id="edge35" class="edge"><title>Node27&#45;&gt;Node17</title>
<path fill="none" stroke="#9a32cd" stroke-dasharray="5,2" d="M1032.2,-440.261C1087.81,-433.284 1160.06,-424.221 1203.36,-418.791"/>
<polygon fill="#9a32cd" stroke="#9a32cd" points="1031.5,-436.82 1022.01,-441.537 1032.37,-443.766 1031.5,-436.82"/>
<text text-anchor="middle" x="1098" y="-453.069" font-family="Helvetica,sans-Serif" font-size="10.00"> myCommandItems</text>
<text text-anchor="middle" x="1098" y="-442.069" font-family="Helvetica,sans-Serif" font-size="10.00">myHistoryItems</text>
</g>
<!-- Node28 -->
<g id="node28" class="node"><title>Node28</title>
<polygon fill="white" stroke="#bfbfbf" points="1210.5,-490.569 1210.5,-509.569 1273.5,-509.569 1273.5,-490.569 1210.5,-490.569"/>
<text text-anchor="middle" x="1242" y="-497.569" font-family="Helvetica,sans-Serif" font-size="10.00">Rectangle</text>
</g>
<!-- Node28&#45;&gt;Node10 -->
<g id="edge36" class="edge"><title>Node28&#45;&gt;Node10</title>
<path fill="none" stroke="#9a32cd" stroke-dasharray="5,2" d="M1283.53,-506.93C1317.29,-513.173 1366.4,-523.483 1408,-537.069 1422.62,-541.843 1438.51,-548.802 1450.55,-554.458"/>
<polygon fill="#9a32cd" stroke="#9a32cd" points="1284.04,-503.465 1273.57,-505.125 1282.79,-510.353 1284.04,-503.465"/>
<text text-anchor="middle" x="1368" y="-540.069" font-family="Helvetica,sans-Serif" font-size="10.00"> myBackground</text>
</g>
<!-- Node29&#45;&gt;Node9 -->
<g id="edge37" class="edge"><title>Node29&#45;&gt;Node9</title>
<path fill="none" stroke="#9a32cd" stroke-dasharray="5,2" d="M1728.95,-472.613C1759.39,-471.342 1800.16,-469.054 1836,-465.069 1841.74,-464.431 1847.74,-463.634 1853.68,-462.762"/>
<polygon fill="#9a32cd" stroke="#9a32cd" points="1728.5,-469.128 1718.64,-473.021 1728.77,-476.123 1728.5,-469.128"/>
<text text-anchor="middle" x="1798" y="-474.069" font-family="Helvetica,sans-Serif" font-size="10.00"> myDrawer</text>
</g>
<!-- Node29&#45;&gt;Node32 -->
<g id="edge56" class="edge"><title>Node29&#45;&gt;Node32</title>
<path fill="none" stroke="#9a32cd" stroke-dasharray="5,2" d="M1693.29,-455.584C1706.17,-434.116 1730.2,-399.096 1760,-379.069 1789.29,-359.383 1809.49,-379.367 1836,-356.069 1880.31,-317.122 1896.85,-243.101 1901.49,-216.712"/>
<polygon fill="#9a32cd" stroke="#9a32cd" points="1690.17,-453.986 1688.18,-464.391 1696.23,-457.501 1690.17,-453.986"/>
<text text-anchor="middle" x="1798" y="-382.069" font-family="Helvetica,sans-Serif" font-size="10.00"> drawer</text>
</g>
<!-- Node30 -->
<g id="node30" class="node"><title>Node30</title>
<polygon fill="white" stroke="#bfbfbf" points="1450.5,-489.569 1450.5,-508.569 1491.5,-508.569 1491.5,-489.569 1450.5,-489.569"/>
<text text-anchor="middle" x="1471" y="-496.569" font-family="Helvetica,sans-Serif" font-size="10.00">Color</text>
</g>
<!-- Node30&#45;&gt;Node29 -->
<g id="edge39" class="edge"><title>Node30&#45;&gt;Node29</title>
<path fill="none" stroke="#9a32cd" stroke-dasharray="5,2" d="M1500.6,-485.506C1510.89,-481.301 1522.74,-477.211 1534,-475.069 1571.48,-467.936 1615.32,-468.793 1645.31,-470.74"/>
<polygon fill="#9a32cd" stroke="#9a32cd" points="1499.09,-482.347 1491.29,-489.513 1501.86,-488.778 1499.09,-482.347"/>
<text text-anchor="middle" x="1569" y="-478.069" font-family="Helvetica,sans-Serif" font-size="10.00"> myColor</text>
</g>
<!-- Node31 -->
<g id="node31" class="node"><title>Node31</title>
<polygon fill="white" stroke="#bfbfbf" points="578,-99.569 578,-118.569 700,-118.569 700,-99.569 578,-99.569"/>
<text text-anchor="middle" x="639" y="-106.569" font-family="Helvetica,sans-Serif" font-size="10.00">Map&lt; String, String &gt;</text>
</g>
<!-- Node31&#45;&gt;Node1 -->
<g id="edge41" class="edge"><title>Node31&#45;&gt;Node1</title>
<path fill="none" stroke="#9a32cd" stroke-dasharray="5,2" d="M710.618,-112.882C755.204,-115.428 814.003,-119.041 866,-123.069 881.249,-124.25 897.999,-125.76 912.634,-127.149"/>
<polygon fill="#9a32cd" stroke="#9a32cd" points="710.649,-109.378 700.467,-112.306 710.253,-116.367 710.649,-109.378"/>
<text text-anchor="middle" x="805" y="-126.069" font-family="Helvetica,sans-Serif" font-size="10.00"> myCommandMap</text>
</g>
<!-- Node32&#45;&gt;Node1 -->
<g id="edge42" class="edge"><title>Node32&#45;&gt;Node1</title>
<path fill="none" stroke="#9a32cd" stroke-dasharray="5,2" d="M1897.42,-187.468C1888.76,-160.677 1869.5,-112.996 1836,-87.069 1780.42,-44.051 1753.29,-47.069 1683,-47.069 1241,-47.069 1241,-47.069 1241,-47.069 1151.03,-47.069 1124.07,-39.0389 1040,-71.069 1009.38,-82.7354 979.301,-107.659 964.142,-121.429"/>
<polygon fill="#9a32cd" stroke="#9a32cd" points="1894.13,-188.7 1900.4,-197.241 1900.83,-186.655 1894.13,-188.7"/>
<text text-anchor="middle" x="1471" y="-50.069" font-family="Helvetica,sans-Serif" font-size="10.00"> mySLogoView</text>
</g>
<!-- Node33 -->
<g id="node33" class="node"><title>Node33</title>
<polygon fill="white" stroke="#bfbfbf" points="1659.5,-113.569 1659.5,-132.569 1704.5,-132.569 1704.5,-113.569 1659.5,-113.569"/>
<text text-anchor="middle" x="1682" y="-120.569" font-family="Helvetica,sans-Serif" font-size="10.00">Stage</text>
</g>
<!-- Node33&#45;&gt;Node32 -->
<g id="edge44" class="edge"><title>Node33&#45;&gt;Node32</title>
<path fill="none" stroke="#9a32cd" stroke-dasharray="5,2" d="M1714.59,-125.154C1746.5,-128.232 1796.58,-135.769 1836,-154.069 1859.14,-164.809 1881.43,-185.042 1893.57,-197.164"/>
<polygon fill="#9a32cd" stroke="#9a32cd" points="1714.78,-121.657 1704.51,-124.272 1714.17,-128.63 1714.78,-121.657"/>
<text text-anchor="middle" x="1798" y="-157.069" font-family="Helvetica,sans-Serif" font-size="10.00"> myStage</text>
</g>
<!-- Node34&#45;&gt;Node32 -->
<g id="edge46" class="edge"><title>Node34&#45;&gt;Node32</title>
<path fill="none" stroke="#9a32cd" stroke-dasharray="5,2" d="M1514.96,-198.966C1596.96,-200.678 1775.01,-204.396 1858.32,-206.136"/>
<polygon fill="#9a32cd" stroke="#9a32cd" points="1514.82,-195.462 1504.75,-198.753 1514.67,-202.461 1514.82,-195.462"/>
<text text-anchor="middle" x="1682" y="-207.069" font-family="Helvetica,sans-Serif" font-size="10.00"> myEditor</text>
</g>
<!-- Node35 -->
<g id="node35" class="node"><title>Node35</title>
<polygon fill="white" stroke="#bfbfbf" points="1221,-198.569 1221,-217.569 1263,-217.569 1263,-198.569 1221,-198.569"/>
<text text-anchor="middle" x="1242" y="-205.569" font-family="Helvetica,sans-Serif" font-size="10.00">HBox</text>
</g>
<!-- Node35&#45;&gt;Node34 -->
<g id="edge47" class="edge"><title>Node35&#45;&gt;Node34</title>
<path fill="none" stroke="midnightblue" d="M1273.27,-206.609C1289.5,-205.835 1309.84,-204.88 1328,-204.069 1365.47,-202.396 1408.5,-200.594 1437.29,-199.407"/>
<polygon fill="midnightblue" stroke="midnightblue" points="1273.09,-203.114 1263.26,-207.088 1273.42,-210.106 1273.09,-203.114"/>
</g>
<!-- Node36 -->
<g id="node36" class="node"><title>Node36</title>
<polygon fill="white" stroke="#bfbfbf" points="1217.5,-160.569 1217.5,-179.569 1266.5,-179.569 1266.5,-160.569 1217.5,-160.569"/>
<text text-anchor="middle" x="1242" y="-167.569" font-family="Helvetica,sans-Serif" font-size="10.00">Button</text>
</g>
<!-- Node36&#45;&gt;Node34 -->
<g id="edge48" class="edge"><title>Node36&#45;&gt;Node34</title>
<path fill="none" stroke="#9a32cd" stroke-dasharray="5,2" d="M1276.73,-172.402C1310.15,-174.934 1362.77,-179.513 1408,-186.069 1417.55,-187.453 1427.86,-189.303 1437.28,-191.136"/>
<polygon fill="#9a32cd" stroke="#9a32cd" points="1276.81,-168.898 1266.58,-171.651 1276.3,-175.879 1276.81,-168.898"/>
<text text-anchor="middle" x="1368" y="-189.069" font-family="Helvetica,sans-Serif" font-size="10.00"> runButton</text>
</g>
<!-- Node37 -->
<g id="node37" class="node"><title>Node37</title>
<polygon fill="white" stroke="#bfbfbf" points="1213,-236.569 1213,-255.569 1271,-255.569 1271,-236.569 1213,-236.569"/>
<text text-anchor="middle" x="1242" y="-243.569" font-family="Helvetica,sans-Serif" font-size="10.00">TextArea</text>
</g>
<!-- Node37&#45;&gt;Node34 -->
<g id="edge50" class="edge"><title>Node37&#45;&gt;Node34</title>
<path fill="none" stroke="#9a32cd" stroke-dasharray="5,2" d="M1280.94,-235.624C1295.59,-231.756 1312.52,-227.485 1328,-224.069 1365.32,-215.833 1408.57,-208.183 1437.44,-203.344"/>
<polygon fill="#9a32cd" stroke="#9a32cd" points="1279.97,-232.261 1271.21,-238.222 1281.77,-239.024 1279.97,-232.261"/>
<text text-anchor="middle" x="1368" y="-227.069" font-family="Helvetica,sans-Serif" font-size="10.00"> textEditor</text>
</g>
<!-- Node38 -->
<g id="node38" class="node"><title>Node38</title>
<polygon fill="white" stroke="#bfbfbf" points="1622.5,-75.569 1622.5,-94.569 1741.5,-94.569 1741.5,-75.569 1622.5,-75.569"/>
<text text-anchor="middle" x="1682" y="-82.569" font-family="Helvetica,sans-Serif" font-size="10.00">Map&lt; String, Node &gt;</text>
</g>
<!-- Node38&#45;&gt;Node32 -->
<g id="edge52" class="edge"><title>Node38&#45;&gt;Node32</title>
<path fill="none" stroke="#9a32cd" stroke-dasharray="5,2" d="M1751.67,-88.8409C1779.58,-92.9634 1811.05,-101.129 1836,-117.069 1867.85,-137.414 1889.9,-178.609 1898.72,-197.369"/>
<polygon fill="#9a32cd" stroke="#9a32cd" points="1751.95,-85.3466 1741.57,-87.4981 1751.02,-92.2855 1751.95,-85.3466"/>
<text text-anchor="middle" x="1798" y="-120.069" font-family="Helvetica,sans-Serif" font-size="10.00"> variables</text>
</g>
<!-- Node39 -->
<g id="node39" class="node"><title>Node39</title>
<polygon fill="white" stroke="#bfbfbf" points="1641.5,-151.569 1641.5,-170.569 1722.5,-170.569 1722.5,-151.569 1641.5,-151.569"/>
<text text-anchor="middle" x="1682" y="-158.569" font-family="Helvetica,sans-Serif" font-size="10.00">Dimension2D</text>
</g>
<!-- Node39&#45;&gt;Node32 -->
<g id="edge55" class="edge"><title>Node39&#45;&gt;Node32</title>
<path fill="none" stroke="#9a32cd" stroke-dasharray="5,2" d="M1733.04,-165.124C1763.18,-168.26 1802.16,-173.545 1836,-182.069 1851.41,-185.951 1868.16,-192.201 1881.06,-197.48"/>
<polygon fill="#9a32cd" stroke="#9a32cd" points="1733.06,-161.61 1722.77,-164.103 1732.37,-168.575 1733.06,-161.61"/>
<text text-anchor="middle" x="1798" y="-185.069" font-family="Helvetica,sans-Serif" font-size="10.00"> myDimensions</text>
</g>
</g>
</svg>
        <g id="navigator" transform="translate(0 0)" fill="#404254">
                <rect fill="#f2f5e9" fill-opacity="0.5" stroke="#606060" stroke-width=".5" x="0" y="0" width="60" height="60"/>
                <use id="zoomplus" xlink:href="#zoomPlus" x="17" y="9" onmousedown="handleZoom(evt,'in')"/>
                <use id="zoomminus" xlink:href="#zoomMin" x="42" y="9" onmousedown="handleZoom(evt,'out')"/>
                <use id="reset" xlink:href="#resetDef" x="30" y="36" onmousedown="handleReset()"/>
                <g id="arrowUp" xlink:href="#dirArrow" transform="translate(30 24)" onmousedown="handlePan(0,-1)">
                  <use xlink:href="#rim" fill="#404040">
                        <set attributeName="fill" to="#808080" begin="arrowUp.mouseover" end="arrowUp.mouseout"/>
                  </use>
                  <path fill="none" stroke="white" stroke-width="1.5" d="M0,-3.0v7 M-2.5,-0.5L0,-3.0L2.5,-0.5"/>
                </g>
                <g id="arrowRight" xlink:href="#dirArrow" transform="rotate(90) translate(36 -43)" onmousedown="handlePan(1,0)">
                  <use xlink:href="#rim" fill="#404040">
                        <set attributeName="fill" to="#808080" begin="arrowRight.mouseover" end="arrowRight.mouseout"/>
                  </use>
                  <path fill="none" stroke="white" stroke-width="1.5" d="M0,-3.0v7 M-2.5,-0.5L0,-3.0L2.5,-0.5"/>
                </g>
                <g id="arrowDown" xlink:href="#dirArrow" transform="rotate(180) translate(-30 -48)" onmousedown="handlePan(0,1)">
                  <use xlink:href="#rim" fill="#404040">
                        <set attributeName="fill" to="#808080" begin="arrowDown.mouseover" end="arrowDown.mouseout"/>
                  </use>
                  <path fill="none" stroke="white" stroke-width="1.5" d="M0,-3.0v7 M-2.5,-0.5L0,-3.0L2.5,-0.5"/>
                </g>
                <g id="arrowLeft" xlink:href="#dirArrow" transform="rotate(270) translate(-36 17)" onmousedown="handlePan(-1,0)">
                  <use xlink:href="#rim" fill="#404040">
                        <set attributeName="fill" to="#808080" begin="arrowLeft.mouseover" end="arrowLeft.mouseout"/>
                  </use>
                  <path fill="none" stroke="white" stroke-width="1.5" d="M0,-3.0v7 M-2.5,-0.5L0,-3.0L2.5,-0.5"/>
                </g>
        </g>
        <svg viewBox="0 0 15 15" width="100%" height="30px" preserveAspectRatio="xMaxYMin meet">
         <g id="arrow_out" transform="scale(0.3 0.3)">
          <a xlink:href="classmodel_1_1_parser__coll__graph_org.svg" target="_base">
           <rect id="button" ry="5" rx="5" y="6" x="6" height="38" width="38"
                fill="#f2f5e9" fill-opacity="0.5" stroke="#606060" stroke-width="1.0"/>
           <path id="arrow"
             d="M 11.500037,31.436501 C 11.940474,20.09759 22.043105,11.32322 32.158766,21.979434 L 37.068811,17.246167 C 37.068811,17.246167 37.088388,32 37.088388,32 L 22.160133,31.978069 C 22.160133,31.978069 26.997745,27.140456 26.997745,27.140456 C 18.528582,18.264221 13.291696,25.230495 11.500037,31.436501 z"
             style="fill:#404040;"/>
          </a>
         </g>
        </svg>
</svg>
