<?xml version="1.0" encoding="UTF-8" standalone="no"?>
<!DOCTYPE svg PUBLIC "-//W3C//DTD SVG 1.1//EN"
 "http://www.w3.org/Graphics/SVG/1.1/DTD/svg11.dtd">
<!-- Generated by graphviz version 2.36.0 (20140111.2315)
 -->
<!-- Title: model.Parser Pages: 1 -->
<!--zoomable 730 -->
<svg id="main" version="1.1" xmlns="http://www.w3.org/2000/svg" xmlns:xlink="http://www.w3.org/1999/xlink" xml:space="preserve" onload="init(evt)">
<style type="text/css"><![CDATA[
.edge:hover path { stroke: red; }
.edge:hover polygon { stroke: red; fill: red; }
]]></style>
<script type="text/javascript"><![CDATA[
var edges = document.getElementsByTagName('g');
if (edges && edges.length) {
  for (var i=0;i<edges.length;i++) {
    if (edges[i].id.substr(0,4)=='edge') {
      edges[i].setAttribute('class','edge');
    }
  }
}
]]></script>
        <defs>
                <circle id="rim" cx="0" cy="0" r="7"/>
                <circle id="rim2" cx="0" cy="0" r="3.5"/>
                <g id="zoomPlus">
                        <use xlink:href="#rim" fill="#404040">
                                <set attributeName="fill" to="#808080" begin="zoomplus.mouseover" end="zoomplus.mouseout"/>
                        </use>
                        <path d="M-4,0h8M0,-4v8" fill="none" stroke="white" stroke-width="1.5" pointer-events="none"/>
                </g>
                <g id="zoomMin">
                        <use xlink:href="#rim" fill="#404040">
                                <set attributeName="fill" to="#808080" begin="zoomminus.mouseover" end="zoomminus.mouseout"/>
                        </use>
                        <path d="M-4,0h8" fill="none" stroke="white" stroke-width="1.5" pointer-events="none"/>
                </g>
                <g id="dirArrow">
                        <path fill="none" stroke="white" stroke-width="1.5" d="M0,-3.0v7 M-2.5,-0.5L0,-3.0L2.5,-0.5"/>
                </g>
               <g id="resetDef">
                       <use xlink:href="#rim2" fill="#404040">
                               <set attributeName="fill" to="#808080" begin="reset.mouseover" end="reset.mouseout"/>
                       </use>
               </g>
        </defs>

<script type="text/javascript">
var viewWidth = 1754;
var viewHeight = 730;
var sectionId = 'dynsection-1';
</script>
<script xlink:href="../../svgpan.js"/>
<svg id="graph" class="graph">
<g id="viewport">
<title>model.Parser</title>
<polygon fill="white" stroke="none" points="-4,4 -4,-725.924 1750,-725.924 1750,4 -4,4"/>
<!-- Node1 -->
<g id="node1" class="node"><title>Node1</title>
<polygon fill="#bfbfbf" stroke="black" points="685,-179.5 685,-198.5 765,-198.5 765,-179.5 685,-179.5"/>
<text text-anchor="middle" x="725" y="-186.5" font-family="Helvetica,sans-Serif" font-size="10.00">model.Parser</text>
</g>
<!-- Node17 -->
<g id="node17" class="node"><title>Node17</title>
<g id="a_node17"><a xlink:href="../../d1/dc7/classview_1_1_side_bar.html" target="_top" xlink:title="view.SideBar">
<polygon fill="white" stroke="black" points="995.5,-330.5 995.5,-349.5 1072.5,-349.5 1072.5,-330.5 995.5,-330.5"/>
<text text-anchor="middle" x="1034" y="-337.5" font-family="Helvetica,sans-Serif" font-size="10.00">view.SideBar</text>
</a>
</g>
</g>
<!-- Node1&#45;&gt;Node17 -->
<g id="edge24" class="edge"><title>Node1&#45;&gt;Node17</title>
<path fill="none" stroke="#9a32cd" stroke-dasharray="5,2" d="M759.862,-202.076C780.015,-209.517 806.216,-218.6 830,-225 881.596,-238.884 907.758,-212.851 948,-248 966.736,-264.365 950.251,-281.743 966,-301 976.821,-314.231 993.395,-323.933 1007.35,-330.351"/>
<polygon fill="#9a32cd" stroke="#9a32cd" points="761.084,-198.797 750.491,-198.575 758.633,-205.354 761.084,-198.797"/>
<text text-anchor="middle" x="889" y="-251" font-family="Helvetica,sans-Serif" font-size="10.00"> myParser</text>
</g>
<!-- Node26 -->
<g id="node26" class="node"><title>Node26</title>
<g id="a_node26"><a xlink:href="../../d6/de7/classview_1_1_s_logo_view.html" target="_top" xlink:title="view.SLogoView">
<polygon fill="white" stroke="black" points="1650.5,-201.5 1650.5,-220.5 1741.5,-220.5 1741.5,-201.5 1650.5,-201.5"/>
<text text-anchor="middle" x="1696" y="-208.5" font-family="Helvetica,sans-Serif" font-size="10.00">view.SLogoView</text>
</a>
</g>
</g>
<!-- Node1&#45;&gt;Node26 -->
<g id="edge44" class="edge"><title>Node1&#45;&gt;Node26</title>
<path fill="none" stroke="#9a32cd" stroke-dasharray="5,2" d="M775.208,-190.117C942.818,-193.923 1489.94,-206.344 1650.39,-209.987"/>
<polygon fill="#9a32cd" stroke="#9a32cd" points="775.263,-186.618 765.186,-189.89 775.104,-193.616 775.263,-186.618"/>
<text text-anchor="middle" x="1263" y="-206" font-family="Helvetica,sans-Serif" font-size="10.00"> myParser</text>
</g>
<!-- Node28 -->
<g id="node28" class="node"><title>Node28</title>
<g id="a_node28"><a xlink:href="../../da/dc8/classview_1_1_editor.html" target="_top" xlink:title="view.Editor">
<polygon fill="white" stroke="black" points="1229.5,-80.5 1229.5,-99.5 1296.5,-99.5 1296.5,-80.5 1229.5,-80.5"/>
<text text-anchor="middle" x="1263" y="-87.5" font-family="Helvetica,sans-Serif" font-size="10.00">view.Editor</text>
</a>
</g>
</g>
<!-- Node1&#45;&gt;Node28 -->
<g id="edge39" class="edge"><title>Node1&#45;&gt;Node28</title>
<path fill="none" stroke="#9a32cd" stroke-dasharray="5,2" d="M742.55,-171.611C778.822,-134.923 869.797,-50.4729 966,-20 1066.44,11.8163 1103.93,-14.731 1200,-58 1215.35,-64.9145 1232.31,-73.7543 1244.61,-80.3903"/>
<polygon fill="#9a32cd" stroke="#9a32cd" points="739.753,-169.467 735.281,-179.072 744.766,-174.352 739.753,-169.467"/>
<text text-anchor="middle" x="1034" y="-23" font-family="Helvetica,sans-Serif" font-size="10.00"> myParser</text>
</g>
<!-- Node2 -->
<g id="node2" class="node"><title>Node2</title>
<polygon fill="white" stroke="#bfbfbf" points="371,-485.5 371,-504.5 431,-504.5 431,-485.5 371,-485.5"/>
<text text-anchor="middle" x="401" y="-492.5" font-family="Helvetica,sans-Serif" font-size="10.00">Observer</text>
</g>
<!-- Node2&#45;&gt;Node1 -->
<g id="edge1" class="edge"><title>Node2&#45;&gt;Node1</title>
<path fill="none" stroke="midnightblue" d="M417.014,-477.457C453.011,-435.866 547.946,-328.93 638,-251 661.522,-230.645 691.467,-210.145 709.103,-198.562"/>
<polygon fill="midnightblue" stroke="midnightblue" points="414.312,-475.232 410.434,-485.092 419.614,-479.801 414.312,-475.232"/>
</g>
<!-- Node9 -->
<g id="node9" class="node"><title>Node9</title>
<g id="a_node9"><a xlink:href="../../d4/d64/classview_1_1_view_updater.html" target="_top" xlink:title="view.ViewUpdater">
<polygon fill="white" stroke="black" points="1646,-471.5 1646,-490.5 1746,-490.5 1746,-471.5 1646,-471.5"/>
<text text-anchor="middle" x="1696" y="-478.5" font-family="Helvetica,sans-Serif" font-size="10.00">view.ViewUpdater</text>
</a>
</g>
</g>
<!-- Node2&#45;&gt;Node9 -->
<g id="edge9" class="edge"><title>Node2&#45;&gt;Node9</title>
<path fill="none" stroke="midnightblue" d="M405.359,-514.614C413.367,-554.755 437.614,-646.018 498,-688 580.936,-745.659 622.991,-712 724,-712 724,-712 724,-712 1475,-712 1599.33,-712 1674.79,-534.35 1691.47,-490.632"/>
<polygon fill="midnightblue" stroke="midnightblue" points="408.79,-513.92 403.515,-504.731 401.909,-515.204 408.79,-513.92"/>
</g>
<!-- Node3 -->
<g id="node3" class="node"><title>Node3</title>
<polygon fill="white" stroke="#bfbfbf" points="345,-173 345,-203 457,-203 457,-173 345,-173"/>
<text text-anchor="start" x="353" y="-191" font-family="Helvetica,sans-Serif" font-size="10.00">List&lt; Entry&lt; String,</text>
<text text-anchor="middle" x="401" y="-180" font-family="Helvetica,sans-Serif" font-size="10.00"> Pattern &gt; &gt;</text>
</g>
<!-- Node3&#45;&gt;Node1 -->
<g id="edge2" class="edge"><title>Node3&#45;&gt;Node1</title>
<path fill="none" stroke="#9a32cd" stroke-dasharray="5,2" d="M467.519,-188.203C532.679,-188.406 630.507,-188.71 684.567,-188.878"/>
<polygon fill="#9a32cd" stroke="#9a32cd" points="467.365,-184.703 457.354,-188.172 467.343,-191.703 467.365,-184.703"/>
<text text-anchor="middle" x="559" y="-192" font-family="Helvetica,sans-Serif" font-size="10.00"> myPatterns</text>
</g>
<!-- Node4 -->
<g id="node4" class="node"><title>Node4</title>
<g id="a_node4"><a xlink:href="../../d1/dca/classmodel_1_1_execution_environment.html" target="_top" xlink:title="model.ExecutionEnvironment">
<polygon fill="white" stroke="black" points="322.5,-263.5 322.5,-282.5 479.5,-282.5 479.5,-263.5 322.5,-263.5"/>
<text text-anchor="middle" x="401" y="-270.5" font-family="Helvetica,sans-Serif" font-size="10.00">model.ExecutionEnvironment</text>
</a>
</g>
</g>
<!-- Node4&#45;&gt;Node1 -->
<g id="edge3" class="edge"><title>Node4&#45;&gt;Node1</title>
<path fill="none" stroke="#9a32cd" stroke-dasharray="5,2" d="M425.381,-258.01C444.248,-246.621 471.861,-231.51 498,-223 531.861,-211.976 629.348,-199.695 684.589,-193.341"/>
<polygon fill="#9a32cd" stroke="#9a32cd" points="423.292,-255.186 416.617,-263.414 426.966,-261.145 423.292,-255.186"/>
<text text-anchor="middle" x="559" y="-226" font-family="Helvetica,sans-Serif" font-size="10.00"> myExecutionParameters</text>
</g>
<!-- Node4&#45;&gt;Node17 -->
<g id="edge22" class="edge"><title>Node4&#45;&gt;Node17</title>
<path fill="none" stroke="#9a32cd" stroke-dasharray="5,2" d="M489.725,-266.837C599.241,-261.727 791.241,-261.332 948,-306 970.622,-312.446 995.497,-322.803 1012.46,-330.394"/>
<polygon fill="#9a32cd" stroke="#9a32cd" points="489.53,-263.343 479.713,-267.329 489.873,-270.334 489.53,-263.343"/>
<text text-anchor="middle" x="725" y="-282" font-family="Helvetica,sans-Serif" font-size="10.00"> myEnvironment</text>
</g>
<!-- Node4&#45;&gt;Node26 -->
<g id="edge43" class="edge"><title>Node4&#45;&gt;Node26</title>
<path fill="none" stroke="#9a32cd" stroke-dasharray="5,2" d="M410.594,-291.814C443.499,-362.925 563.373,-613.385 638,-655 728.055,-705.219 998.997,-659.72 1102,-655 1345.09,-643.861 1480.01,-696.168 1628,-503 1645.91,-479.621 1684.58,-269.031 1693.25,-220.807"/>
<polygon fill="#9a32cd" stroke="#9a32cd" points="413.746,-290.29 406.386,-282.669 407.387,-293.217 413.746,-290.29"/>
<text text-anchor="middle" x="1160" y="-657" font-family="Helvetica,sans-Serif" font-size="10.00"> myEnvironment</text>
</g>
<!-- Node5 -->
<g id="node5" class="node"><title>Node5</title>
<polygon fill="white" stroke="#bfbfbf" points="51.5,-323.5 51.5,-342.5 122.5,-342.5 122.5,-323.5 51.5,-323.5"/>
<text text-anchor="middle" x="87" y="-330.5" font-family="Helvetica,sans-Serif" font-size="10.00">Observable</text>
</g>
<!-- Node5&#45;&gt;Node4 -->
<g id="edge4" class="edge"><title>Node5&#45;&gt;Node4</title>
<path fill="none" stroke="midnightblue" d="M132.717,-333.151C176.879,-332.351 246.026,-328.537 304,-314 332.478,-306.859 363.357,-292.337 382.194,-282.636"/>
<polygon fill="midnightblue" stroke="midnightblue" points="132.548,-329.652 122.596,-333.289 132.643,-336.652 132.548,-329.652"/>
</g>
<!-- Node6 -->
<g id="node6" class="node"><title>Node6</title>
<polygon fill="white" stroke="#bfbfbf" points="42.5,-285.5 42.5,-304.5 131.5,-304.5 131.5,-285.5 42.5,-285.5"/>
<text text-anchor="middle" x="87" y="-292.5" font-family="Helvetica,sans-Serif" font-size="10.00">Set&lt; Integer &gt;</text>
</g>
<!-- Node6&#45;&gt;Node4 -->
<g id="edge5" class="edge"><title>Node6&#45;&gt;Node4</title>
<path fill="none" stroke="#9a32cd" stroke-dasharray="5,2" d="M141.939,-291.197C191.701,-287.688 266.155,-282.438 322.32,-278.477"/>
<polygon fill="#9a32cd" stroke="#9a32cd" points="141.44,-287.723 131.711,-291.918 141.932,-294.706 141.44,-287.723"/>
<text text-anchor="middle" x="248" y="-302" font-family="Helvetica,sans-Serif" font-size="10.00"> myTurtleList</text>
<text text-anchor="middle" x="248" y="-291" font-family="Helvetica,sans-Serif" font-size="10.00">activeTurtleList</text>
</g>
<!-- Node7 -->
<g id="node7" class="node"><title>Node7</title>
<polygon fill="white" stroke="#bfbfbf" points="0,-236 0,-266 174,-266 174,-236 0,-236"/>
<text text-anchor="start" x="8" y="-254" font-family="Helvetica,sans-Serif" font-size="10.00">Map&lt; String, model.instructions.</text>
<text text-anchor="middle" x="87" y="-243" font-family="Helvetica,sans-Serif" font-size="10.00">Instruction &gt;</text>
</g>
<!-- Node7&#45;&gt;Node4 -->
<g id="edge6" class="edge"><title>Node7&#45;&gt;Node4</title>
<path fill="none" stroke="#9a32cd" stroke-dasharray="5,2" d="M184.559,-257.634C221.877,-260.217 264.929,-263.219 304,-266 310.001,-266.427 316.212,-266.873 322.456,-267.323"/>
<polygon fill="#9a32cd" stroke="#9a32cd" points="184.411,-254.115 174.193,-256.917 183.928,-261.099 184.411,-254.115"/>
<text text-anchor="middle" x="248" y="-269" font-family="Helvetica,sans-Serif" font-size="10.00"> myUserInstructionMap</text>
</g>
<!-- Node8 -->
<g id="node8" class="node"><title>Node8</title>
<polygon fill="white" stroke="#bfbfbf" points="23,-197.5 23,-216.5 151,-216.5 151,-197.5 23,-197.5"/>
<text text-anchor="middle" x="87" y="-204.5" font-family="Helvetica,sans-Serif" font-size="10.00">Map&lt; String, Double &gt;</text>
</g>
<!-- Node8&#45;&gt;Node4 -->
<g id="edge7" class="edge"><title>Node8&#45;&gt;Node4</title>
<path fill="none" stroke="#9a32cd" stroke-dasharray="5,2" d="M161.414,-217.267C203.421,-223.717 256.961,-232.911 304,-244 327.047,-249.433 352.7,-257.278 371.686,-263.439"/>
<polygon fill="#9a32cd" stroke="#9a32cd" points="161.68,-213.768 151.268,-215.729 160.63,-220.689 161.68,-213.768"/>
<text text-anchor="middle" x="248" y="-247" font-family="Helvetica,sans-Serif" font-size="10.00"> myVariableMap</text>
</g>
<!-- Node9&#45;&gt;Node1 -->
<g id="edge8" class="edge"><title>Node9&#45;&gt;Node1</title>
<path fill="none" stroke="#9a32cd" stroke-dasharray="5,2" d="M1683.45,-462.807C1671.53,-445.401 1651.41,-419.56 1628,-404 1591.36,-379.648 1576.8,-383.162 1534,-373 1395.85,-340.201 1355.65,-360.842 1218,-326 1094.24,-294.674 1071.34,-260.947 948,-228 885.053,-211.185 810.078,-199.745 765.349,-193.802"/>
<polygon fill="#9a32cd" stroke="#9a32cd" points="1680.76,-465.084 1689.2,-471.491 1686.6,-461.221 1680.76,-465.084"/>
<text text-anchor="middle" x="1263" y="-347" font-family="Helvetica,sans-Serif" font-size="10.00"> myViewUpdater</text>
</g>
<!-- Node10 -->
<g id="node10" class="node"><title>Node10</title>
<g id="a_node10"><a xlink:href="../../da/d64/classview_1_1_workspace.html" target="_top" xlink:title="view.Workspace">
<polygon fill="white" stroke="black" points="1218,-485.5 1218,-504.5 1308,-504.5 1308,-485.5 1218,-485.5"/>
<text text-anchor="middle" x="1263" y="-492.5" font-family="Helvetica,sans-Serif" font-size="10.00">view.Workspace</text>
</a>
</g>
</g>
<!-- Node10&#45;&gt;Node9 -->
<g id="edge10" class="edge"><title>Node10&#45;&gt;Node9</title>
<path fill="none" stroke="#9a32cd" stroke-dasharray="5,2" d="M1318.25,-493.238C1402.71,-490.494 1564.37,-485.243 1645.7,-482.602"/>
<polygon fill="#9a32cd" stroke="#9a32cd" points="1317.98,-489.745 1308.1,-493.568 1318.21,-496.741 1317.98,-489.745"/>
<text text-anchor="middle" x="1474" y="-493" font-family="Helvetica,sans-Serif" font-size="10.00"> myWorkspace</text>
</g>
<!-- Node23 -->
<g id="node23" class="node"><title>Node23</title>
<g id="a_node23"><a xlink:href="../../de/d0a/classview_1_1_drawer.html" target="_top" xlink:title="view.Drawer">
<polygon fill="white" stroke="black" points="1437.5,-524.5 1437.5,-543.5 1510.5,-543.5 1510.5,-524.5 1437.5,-524.5"/>
<text text-anchor="middle" x="1474" y="-531.5" font-family="Helvetica,sans-Serif" font-size="10.00">view.Drawer</text>
</a>
</g>
</g>
<!-- Node10&#45;&gt;Node23 -->
<g id="edge28" class="edge"><title>Node10&#45;&gt;Node23</title>
<path fill="none" stroke="#9a32cd" stroke-dasharray="5,2" d="M1318.32,-505.137C1355.83,-512.136 1404.65,-521.246 1437.32,-527.341"/>
<polygon fill="#9a32cd" stroke="#9a32cd" points="1318.54,-501.617 1308.07,-503.223 1317.26,-508.498 1318.54,-501.617"/>
<text text-anchor="middle" x="1361" y="-522" font-family="Helvetica,sans-Serif" font-size="10.00"> myWorkspace</text>
</g>
<!-- Node10&#45;&gt;Node26 -->
<g id="edge33" class="edge"><title>Node10&#45;&gt;Node26</title>
<path fill="none" stroke="#9a32cd" stroke-dasharray="5,2" d="M1306.3,-482.387C1378.93,-459.06 1529.06,-403.344 1628,-315 1659.56,-286.819 1682.22,-240.424 1690.99,-220.535"/>
<polygon fill="#9a32cd" stroke="#9a32cd" points="1305.06,-479.109 1296.58,-485.464 1307.17,-485.783 1305.06,-479.109"/>
<text text-anchor="middle" x="1474" y="-445" font-family="Helvetica,sans-Serif" font-size="10.00"> myWorkspace</text>
</g>
<!-- Node11 -->
<g id="node11" class="node"><title>Node11</title>
<polygon fill="white" stroke="#bfbfbf" points="1000.5,-541.5 1000.5,-560.5 1067.5,-560.5 1067.5,-541.5 1000.5,-541.5"/>
<text text-anchor="middle" x="1034" y="-548.5" font-family="Helvetica,sans-Serif" font-size="10.00">StackPane</text>
</g>
<!-- Node11&#45;&gt;Node10 -->
<g id="edge11" class="edge"><title>Node11&#45;&gt;Node10</title>
<path fill="none" stroke="midnightblue" d="M1077.5,-543.907C1111.05,-537.909 1158.9,-528.469 1200,-517 1212.54,-513.501 1226.21,-508.755 1237.51,-504.568"/>
<polygon fill="midnightblue" stroke="midnightblue" points="1076.81,-540.475 1067.56,-545.657 1078.02,-547.369 1076.81,-540.475"/>
</g>
<!-- Node12 -->
<g id="node12" class="node"><title>Node12</title>
<polygon fill="white" stroke="#bfbfbf" points="678.5,-471.5 678.5,-490.5 771.5,-490.5 771.5,-471.5 678.5,-471.5"/>
<text text-anchor="middle" x="725" y="-478.5" font-family="Helvetica,sans-Serif" font-size="10.00">ResourceBundle</text>
</g>
<!-- Node12&#45;&gt;Node10 -->
<g id="edge12" class="edge"><title>Node12&#45;&gt;Node10</title>
<path fill="none" stroke="#9a32cd" stroke-dasharray="5,2" d="M781.753,-487.991C797.341,-489.647 814.309,-491.172 830,-492 882.372,-494.762 905.851,-523.208 948,-492 970.033,-475.686 943.967,-449.314 966,-433 1014.58,-397.032 1042.44,-422.684 1102,-433 1156.01,-442.355 1215.04,-470.292 1243.97,-485.266"/>
<polygon fill="#9a32cd" stroke="#9a32cd" points="782.059,-484.503 771.737,-486.889 781.294,-491.462 782.059,-484.503"/>
<text text-anchor="middle" x="1034" y="-436" font-family="Helvetica,sans-Serif" font-size="10.00"> myResources</text>
</g>
<!-- Node12&#45;&gt;Node17 -->
<g id="edge21" class="edge"><title>Node12&#45;&gt;Node17</title>
<path fill="none" stroke="#9a32cd" stroke-dasharray="5,2" d="M773.976,-469.007C791.56,-464.733 811.646,-459.993 830,-456 882.21,-444.642 909.053,-469.579 948,-433 971.102,-411.303 944.606,-387.383 966,-364 973.673,-355.613 984.484,-350.155 995.187,-346.603"/>
<polygon fill="#9a32cd" stroke="#9a32cd" points="772.826,-465.685 763.944,-471.46 774.489,-472.485 772.826,-465.685"/>
<text text-anchor="middle" x="889" y="-459" font-family="Helvetica,sans-Serif" font-size="10.00"> myResources</text>
</g>
<!-- Node12&#45;&gt;Node26 -->
<g id="edge35" class="edge"><title>Node12&#45;&gt;Node26</title>
<path fill="none" stroke="#9a32cd" stroke-dasharray="5,2" d="M781.573,-484.405C838.782,-486.726 922.988,-486.467 948,-467 968.63,-450.943 948.01,-429.969 966,-411 966.644,-410.321 1217.1,-315.247 1218,-315 1396.33,-266.309 1452.49,-303.036 1628,-245 1646.58,-238.857 1666.39,-228.24 1679.61,-220.501"/>
<polygon fill="#9a32cd" stroke="#9a32cd" points="781.724,-480.909 771.579,-483.963 781.415,-487.902 781.724,-480.909"/>
<text text-anchor="middle" x="1263" y="-318" font-family="Helvetica,sans-Serif" font-size="10.00"> myResources</text>
</g>
<!-- Node13 -->
<g id="node13" class="node"><title>Node13</title>
<g id="a_node13"><a xlink:href="../../d8/df7/classview_1_1_turtle_view.html" target="_top" xlink:title="view.TurtleView">
<polygon fill="white" stroke="black" points="991,-626.5 991,-645.5 1077,-645.5 1077,-626.5 991,-626.5"/>
<text text-anchor="middle" x="1034" y="-633.5" font-family="Helvetica,sans-Serif" font-size="10.00">view.TurtleView</text>
</a>
</g>
</g>
<!-- Node13&#45;&gt;Node10 -->
<g id="edge13" class="edge"><title>Node13&#45;&gt;Node10</title>
<path fill="none" stroke="#9a32cd" stroke-dasharray="5,2" d="M1087.41,-634.381C1129.46,-631.966 1184.03,-625.956 1200,-611 1227.24,-585.497 1198.04,-560.523 1218,-529 1224.4,-518.886 1234.93,-510.593 1244.08,-504.73"/>
<polygon fill="#9a32cd" stroke="#9a32cd" points="1087.09,-630.892 1077.29,-634.908 1087.46,-637.883 1087.09,-630.892"/>
<text text-anchor="middle" x="1160" y="-634" font-family="Helvetica,sans-Serif" font-size="10.00"> myActiveTurtle</text>
</g>
<!-- Node14 -->
<g id="node14" class="node"><title>Node14</title>
<polygon fill="white" stroke="#bfbfbf" points="691,-626.5 691,-645.5 759,-645.5 759,-626.5 691,-626.5"/>
<text text-anchor="middle" x="725" y="-633.5" font-family="Helvetica,sans-Serif" font-size="10.00">ImageView</text>
</g>
<!-- Node14&#45;&gt;Node13 -->
<g id="edge14" class="edge"><title>Node14&#45;&gt;Node13</title>
<path fill="none" stroke="midnightblue" d="M769.232,-636C828.085,-636 932.74,-636 990.965,-636"/>
<polygon fill="midnightblue" stroke="midnightblue" points="769.146,-632.5 759.146,-636 769.146,-639.5 769.146,-632.5"/>
</g>
<!-- Node15 -->
<g id="node15" class="node"><title>Node15</title>
<polygon fill="white" stroke="#bfbfbf" points="702,-584.5 702,-603.5 748,-603.5 748,-584.5 702,-584.5"/>
<text text-anchor="middle" x="725" y="-591.5" font-family="Helvetica,sans-Serif" font-size="10.00">Group</text>
</g>
<!-- Node15&#45;&gt;Node10 -->
<g id="edge17" class="edge"><title>Node15&#45;&gt;Node10</title>
<path fill="none" stroke="#9a32cd" stroke-dasharray="5,2" d="M758.36,-594.459C823.826,-594.835 976.431,-592.902 1102,-570 1146.81,-561.827 1159.23,-560.322 1200,-540 1210.3,-534.867 1234.99,-516.121 1249.92,-504.505"/>
<polygon fill="#9a32cd" stroke="#9a32cd" points="758.285,-590.958 748.257,-594.378 758.228,-597.958 758.285,-590.958"/>
<text text-anchor="middle" x="1034" y="-589" font-family="Helvetica,sans-Serif" font-size="10.00"> myLines</text>
</g>
<!-- Node15&#45;&gt;Node13 -->
<g id="edge15" class="edge"><title>Node15&#45;&gt;Node13</title>
<path fill="none" stroke="#9a32cd" stroke-dasharray="5,2" d="M758.29,-597.685C801.546,-602.71 880.665,-612.212 948,-622 961.912,-624.022 977.068,-626.447 990.678,-628.706"/>
<polygon fill="#9a32cd" stroke="#9a32cd" points="758.43,-594.178 748.094,-596.506 757.626,-601.132 758.43,-594.178"/>
<text text-anchor="middle" x="889" y="-625" font-family="Helvetica,sans-Serif" font-size="10.00"> myStamps</text>
</g>
<!-- Node16 -->
<g id="node16" class="node"><title>Node16</title>
<polygon fill="white" stroke="#bfbfbf" points="966,-492 966,-522 1102,-522 1102,-492 966,-492"/>
<text text-anchor="start" x="974" y="-510" font-family="Helvetica,sans-Serif" font-size="10.00">Map&lt; Integer, view.Turtle</text>
<text text-anchor="middle" x="1034" y="-499" font-family="Helvetica,sans-Serif" font-size="10.00">View &gt;</text>
</g>
<!-- Node16&#45;&gt;Node10 -->
<g id="edge16" class="edge"><title>Node16&#45;&gt;Node10</title>
<path fill="none" stroke="#9a32cd" stroke-dasharray="5,2" d="M1112.45,-502.906C1147.65,-501.045 1188.01,-498.911 1217.93,-497.33"/>
<polygon fill="#9a32cd" stroke="#9a32cd" points="1111.99,-499.425 1102.19,-503.448 1112.36,-506.415 1111.99,-499.425"/>
<text text-anchor="middle" x="1160" y="-505" font-family="Helvetica,sans-Serif" font-size="10.00"> myTurtles</text>
</g>
<!-- Node17&#45;&gt;Node9 -->
<g id="edge30" class="edge"><title>Node17&#45;&gt;Node9</title>
<path fill="none" stroke="#9a32cd" stroke-dasharray="5,2" d="M1083.01,-345.248C1115.97,-348.991 1160.7,-354.346 1200,-360 1208.03,-361.155 1209.97,-361.849 1218,-363 1358.02,-383.077 1398.47,-360.493 1534,-401 1591.12,-418.071 1652.63,-454.201 1680.18,-471.448"/>
<polygon fill="#9a32cd" stroke="#9a32cd" points="1083.07,-341.733 1072.74,-344.091 1082.29,-348.689 1083.07,-341.733"/>
<text text-anchor="middle" x="1361" y="-379" font-family="Helvetica,sans-Serif" font-size="10.00"> mySidebar</text>
</g>
<!-- Node17&#45;&gt;Node10 -->
<g id="edge18" class="edge"><title>Node17&#45;&gt;Node10</title>
<path fill="none" stroke="#9a32cd" stroke-dasharray="5,2" d="M1082.7,-350.356C1117.91,-359.82 1165.51,-376.602 1200,-404 1228.89,-426.951 1249.46,-467.018 1257.83,-485.349"/>
<polygon fill="#9a32cd" stroke="#9a32cd" points="1083.21,-346.874 1072.66,-347.764 1081.46,-353.652 1083.21,-346.874"/>
<text text-anchor="middle" x="1160" y="-407" font-family="Helvetica,sans-Serif" font-size="10.00"> mySidebar</text>
</g>
<!-- Node17&#45;&gt;Node26 -->
<g id="edge47" class="edge"><title>Node17&#45;&gt;Node26</title>
<path fill="none" stroke="#9a32cd" stroke-dasharray="5,2" d="M1068.43,-326.706C1104.71,-312.793 1164.6,-291.297 1218,-279 1397.11,-237.752 1446.81,-255.818 1628,-225 1635.73,-223.685 1643.93,-222.117 1651.84,-220.515"/>
<polygon fill="#9a32cd" stroke="#9a32cd" points="1066.92,-323.541 1058.85,-330.415 1069.44,-330.068 1066.92,-323.541"/>
<text text-anchor="middle" x="1361" y="-262" font-family="Helvetica,sans-Serif" font-size="10.00"> mySidebar</text>
</g>
<!-- Node17&#45;&gt;Node28 -->
<g id="edge41" class="edge"><title>Node17&#45;&gt;Node28</title>
<path fill="none" stroke="#9a32cd" stroke-dasharray="5,2" d="M1048.73,-322.273C1065.17,-301.26 1093.79,-265.388 1120,-236 1167.54,-182.698 1228.47,-122.611 1252.06,-99.6331"/>
<polygon fill="#9a32cd" stroke="#9a32cd" points="1045.85,-320.267 1042.47,-330.307 1051.37,-324.569 1045.85,-320.267"/>
<text text-anchor="middle" x="1160" y="-239" font-family="Helvetica,sans-Serif" font-size="10.00"> mySidebar</text>
</g>
<!-- Node18 -->
<g id="node18" class="node"><title>Node18</title>
<polygon fill="white" stroke="#bfbfbf" points="704.5,-378.5 704.5,-397.5 745.5,-397.5 745.5,-378.5 704.5,-378.5"/>
<text text-anchor="middle" x="725" y="-385.5" font-family="Helvetica,sans-Serif" font-size="10.00">VBox</text>
</g>
<!-- Node18&#45;&gt;Node17 -->
<g id="edge19" class="edge"><title>Node18&#45;&gt;Node17</title>
<path fill="none" stroke="midnightblue" d="M755.752,-385.816C798.532,-382.381 879.783,-374.761 948,-362 965.53,-358.721 984.792,-353.844 1000.54,-349.514"/>
<polygon fill="midnightblue" stroke="midnightblue" points="755.432,-382.33 745.736,-386.599 755.978,-389.309 755.432,-382.33"/>
</g>
<!-- Node19 -->
<g id="node19" class="node"><title>Node19</title>
<polygon fill="white" stroke="#bfbfbf" points="638.5,-340.5 638.5,-359.5 811.5,-359.5 811.5,-340.5 638.5,-340.5"/>
<text text-anchor="middle" x="725" y="-347.5" font-family="Helvetica,sans-Serif" font-size="10.00">ObservableList&lt; view.Property &gt;</text>
</g>
<!-- Node19&#45;&gt;Node17 -->
<g id="edge20" class="edge"><title>Node19&#45;&gt;Node17</title>
<path fill="none" stroke="#9a32cd" stroke-dasharray="5,2" d="M821.563,-346.887C880.26,-344.975 952.205,-342.632 995.231,-341.23"/>
<polygon fill="#9a32cd" stroke="#9a32cd" points="821.397,-343.391 811.517,-347.214 821.625,-350.387 821.397,-343.391"/>
<text text-anchor="middle" x="889" y="-350" font-family="Helvetica,sans-Serif" font-size="10.00"> myVariablesList</text>
</g>
<!-- Node20 -->
<g id="node20" class="node"><title>Node20</title>
<polygon fill="white" stroke="#bfbfbf" points="651,-302.5 651,-321.5 799,-321.5 799,-302.5 651,-302.5"/>
<text text-anchor="middle" x="725" y="-309.5" font-family="Helvetica,sans-Serif" font-size="10.00">TableView&lt; view.Property &gt;</text>
</g>
<!-- Node20&#45;&gt;Node17 -->
<g id="edge23" class="edge"><title>Node20&#45;&gt;Node17</title>
<path fill="none" stroke="#9a32cd" stroke-dasharray="5,2" d="M809.251,-309.133C851.084,-308.893 902.44,-310.422 948,-317 967.216,-319.774 988.285,-325.457 1004.64,-330.479"/>
<polygon fill="#9a32cd" stroke="#9a32cd" points="809.073,-305.635 799.106,-309.227 809.138,-312.634 809.073,-305.635"/>
<text text-anchor="middle" x="889" y="-331" font-family="Helvetica,sans-Serif" font-size="10.00"> myTurtlePropertiesTable</text>
<text text-anchor="middle" x="889" y="-320" font-family="Helvetica,sans-Serif" font-size="10.00">myVariablesTable</text>
</g>
<!-- Node21 -->
<g id="node21" class="node"><title>Node21</title>
<polygon fill="white" stroke="#bfbfbf" points="656,-416.5 656,-435.5 794,-435.5 794,-416.5 656,-416.5"/>
<text text-anchor="middle" x="725" y="-423.5" font-family="Helvetica,sans-Serif" font-size="10.00">ObservableList&lt; String &gt;</text>
</g>
<!-- Node21&#45;&gt;Node17 -->
<g id="edge25" class="edge"><title>Node21&#45;&gt;Node17</title>
<path fill="none" stroke="#9a32cd" stroke-dasharray="5,2" d="M799.805,-414.87C859.29,-405.485 935.096,-392.429 948,-385 958.653,-378.866 955.876,-370.972 966,-364 974.853,-357.903 985.427,-353.178 995.53,-349.597"/>
<polygon fill="#9a32cd" stroke="#9a32cd" points="798.997,-411.454 789.66,-416.46 800.081,-418.369 798.997,-411.454"/>
<text text-anchor="middle" x="889" y="-424" font-family="Helvetica,sans-Serif" font-size="10.00"> myCommandItems</text>
<text text-anchor="middle" x="889" y="-413" font-family="Helvetica,sans-Serif" font-size="10.00">myHistoryItems</text>
</g>
<!-- Node22 -->
<g id="node22" class="node"><title>Node22</title>
<polygon fill="white" stroke="#bfbfbf" points="1002.5,-453.5 1002.5,-472.5 1065.5,-472.5 1065.5,-453.5 1002.5,-453.5"/>
<text text-anchor="middle" x="1034" y="-460.5" font-family="Helvetica,sans-Serif" font-size="10.00">Rectangle</text>
</g>
<!-- Node22&#45;&gt;Node10 -->
<g id="edge26" class="edge"><title>Node22&#45;&gt;Node10</title>
<path fill="none" stroke="#9a32cd" stroke-dasharray="5,2" d="M1075.81,-467.136C1109.27,-470.722 1157.82,-476.37 1200,-483 1205.74,-483.902 1211.76,-484.945 1217.7,-486.032"/>
<polygon fill="#9a32cd" stroke="#9a32cd" points="1075.81,-463.617 1065.5,-466.045 1075.08,-470.578 1075.81,-463.617"/>
<text text-anchor="middle" x="1160" y="-486" font-family="Helvetica,sans-Serif" font-size="10.00"> myBackground</text>
</g>
<!-- Node23&#45;&gt;Node9 -->
<g id="edge27" class="edge"><title>Node23&#45;&gt;Node9</title>
<path fill="none" stroke="#9a32cd" stroke-dasharray="5,2" d="M1520.71,-544.381C1551.91,-549.358 1593.66,-551.8 1628,-539 1653.95,-529.329 1676.53,-504.583 1687.65,-490.743"/>
<polygon fill="#9a32cd" stroke="#9a32cd" points="1521.01,-540.881 1510.56,-542.615 1519.81,-547.778 1521.01,-540.881"/>
<text text-anchor="middle" x="1590" y="-551" font-family="Helvetica,sans-Serif" font-size="10.00"> myDrawer</text>
</g>
<!-- Node23&#45;&gt;Node26 -->
<g id="edge46" class="edge"><title>Node23&#45;&gt;Node26</title>
<path fill="none" stroke="#9a32cd" stroke-dasharray="5,2" d="M1503.6,-519.497C1538.26,-500.45 1595.98,-463.747 1628,-416 1672.42,-349.765 1689.31,-251.832 1693.72,-220.802"/>
<polygon fill="#9a32cd" stroke="#9a32cd" points="1501.63,-516.581 1494.48,-524.395 1504.94,-522.749 1501.63,-516.581"/>
<text text-anchor="middle" x="1590" y="-491" font-family="Helvetica,sans-Serif" font-size="10.00"> drawer</text>
</g>
<!-- Node24 -->
<g id="node24" class="node"><title>Node24</title>
<polygon fill="white" stroke="#bfbfbf" points="1242.5,-538.5 1242.5,-557.5 1283.5,-557.5 1283.5,-538.5 1242.5,-538.5"/>
<text text-anchor="middle" x="1263" y="-545.5" font-family="Helvetica,sans-Serif" font-size="10.00">Color</text>
</g>
<!-- Node24&#45;&gt;Node23 -->
<g id="edge29" class="edge"><title>Node24&#45;&gt;Node23</title>
<path fill="none" stroke="#9a32cd" stroke-dasharray="5,2" d="M1294.03,-545.988C1331.9,-543.452 1396.91,-539.097 1437.29,-536.392"/>
<polygon fill="#9a32cd" stroke="#9a32cd" points="1293.41,-542.522 1283.66,-546.683 1293.87,-549.507 1293.41,-542.522"/>
<text text-anchor="middle" x="1361" y="-546" font-family="Helvetica,sans-Serif" font-size="10.00"> myColor</text>
</g>
<!-- Node25 -->
<g id="node25" class="node"><title>Node25</title>
<polygon fill="white" stroke="#bfbfbf" points="340,-134.5 340,-153.5 462,-153.5 462,-134.5 340,-134.5"/>
<text text-anchor="middle" x="401" y="-141.5" font-family="Helvetica,sans-Serif" font-size="10.00">Map&lt; String, String &gt;</text>
</g>
<!-- Node25&#45;&gt;Node1 -->
<g id="edge31" class="edge"><title>Node25&#45;&gt;Node1</title>
<path fill="none" stroke="#9a32cd" stroke-dasharray="5,2" d="M472.178,-153.54C514.916,-159.379 570.618,-167.041 620,-174 641.496,-177.029 665.48,-180.483 684.994,-183.313"/>
<polygon fill="#9a32cd" stroke="#9a32cd" points="472.541,-150.057 462.16,-152.172 471.594,-156.993 472.541,-150.057"/>
<text text-anchor="middle" x="559" y="-177" font-family="Helvetica,sans-Serif" font-size="10.00"> myCommandMap</text>
</g>
<!-- Node26&#45;&gt;Node1 -->
<g id="edge32" class="edge"><title>Node26&#45;&gt;Node1</title>
<path fill="none" stroke="#9a32cd" stroke-dasharray="5,2" d="M1643.87,-199.513C1638.53,-198.554 1633.17,-197.69 1628,-197 1486.78,-178.157 1450.41,-182.224 1308,-178 1095.65,-171.701 1042.15,-166.812 830,-178 808.605,-179.128 784.838,-181.554 765.43,-183.84"/>
<polygon fill="#9a32cd" stroke="#9a32cd" points="1643.58,-203.021 1654.06,-201.453 1644.89,-196.144 1643.58,-203.021"/>
<text text-anchor="middle" x="1263" y="-181" font-family="Helvetica,sans-Serif" font-size="10.00"> mySLogoView</text>
</g>
<!-- Node27 -->
<g id="node27" class="node"><title>Node27</title>
<polygon fill="white" stroke="#bfbfbf" points="1451.5,-123.5 1451.5,-142.5 1496.5,-142.5 1496.5,-123.5 1451.5,-123.5"/>
<text text-anchor="middle" x="1474" y="-130.5" font-family="Helvetica,sans-Serif" font-size="10.00">Stage</text>
</g>
<!-- Node27&#45;&gt;Node26 -->
<g id="edge34" class="edge"><title>Node27&#45;&gt;Node26</title>
<path fill="none" stroke="#9a32cd" stroke-dasharray="5,2" d="M1506.81,-129.667C1538.89,-127.656 1589.1,-128.275 1628,-146 1655.14,-158.363 1677.88,-186.533 1688.52,-201.401"/>
<polygon fill="#9a32cd" stroke="#9a32cd" points="1506.38,-126.189 1496.67,-130.429 1506.9,-133.17 1506.38,-126.189"/>
<text text-anchor="middle" x="1590" y="-149" font-family="Helvetica,sans-Serif" font-size="10.00"> myStage</text>
</g>
<!-- Node28&#45;&gt;Node26 -->
<g id="edge36" class="edge"><title>Node28&#45;&gt;Node26</title>
<path fill="none" stroke="#9a32cd" stroke-dasharray="5,2" d="M1306.7,-82.5218C1379.1,-72.2192 1527.85,-61.5757 1628,-126 1658.34,-145.517 1680.86,-183.571 1690.22,-201.378"/>
<polygon fill="#9a32cd" stroke="#9a32cd" points="1305.96,-79.0933 1296.58,-84.0304 1306.99,-86.0167 1305.96,-79.0933"/>
<text text-anchor="middle" x="1474" y="-91" font-family="Helvetica,sans-Serif" font-size="10.00"> myEditor</text>
</g>
<!-- Node29 -->
<g id="node29" class="node"><title>Node29</title>
<polygon fill="white" stroke="#bfbfbf" points="1013,-116.5 1013,-135.5 1055,-135.5 1055,-116.5 1013,-116.5"/>
<text text-anchor="middle" x="1034" y="-123.5" font-family="Helvetica,sans-Serif" font-size="10.00">HBox</text>
</g>
<!-- Node29&#45;&gt;Node28 -->
<g id="edge37" class="edge"><title>Node29&#45;&gt;Node28</title>
<path fill="none" stroke="midnightblue" d="M1065.16,-123.175C1098.36,-119.83 1153.23,-113.606 1200,-105 1209.58,-103.236 1219.91,-100.913 1229.32,-98.6224"/>
<polygon fill="midnightblue" stroke="midnightblue" points="1064.78,-119.695 1055.18,-124.159 1065.47,-126.661 1064.78,-119.695"/>
</g>
<!-- Node30 -->
<g id="node30" class="node"><title>Node30</title>
<polygon fill="white" stroke="#bfbfbf" points="1009.5,-78.5 1009.5,-97.5 1058.5,-97.5 1058.5,-78.5 1009.5,-78.5"/>
<text text-anchor="middle" x="1034" y="-85.5" font-family="Helvetica,sans-Serif" font-size="10.00">Button</text>
</g>
<!-- Node30&#45;&gt;Node28 -->
<g id="edge38" class="edge"><title>Node30&#45;&gt;Node28</title>
<path fill="none" stroke="#9a32cd" stroke-dasharray="5,2" d="M1068.91,-88.2987C1112.22,-88.6804 1186.68,-89.3364 1229.37,-89.7125"/>
<polygon fill="#9a32cd" stroke="#9a32cd" points="1068.89,-84.7986 1058.86,-88.2103 1068.83,-91.7983 1068.89,-84.7986"/>
<text text-anchor="middle" x="1160" y="-93" font-family="Helvetica,sans-Serif" font-size="10.00"> runButton</text>
</g>
<!-- Node31 -->
<g id="node31" class="node"><title>Node31</title>
<polygon fill="white" stroke="#bfbfbf" points="1005,-40.5 1005,-59.5 1063,-59.5 1063,-40.5 1005,-40.5"/>
<text text-anchor="middle" x="1034" y="-47.5" font-family="Helvetica,sans-Serif" font-size="10.00">TextArea</text>
</g>
<!-- Node31&#45;&gt;Node28 -->
<g id="edge40" class="edge"><title>Node31&#45;&gt;Node28</title>
<path fill="none" stroke="#9a32cd" stroke-dasharray="5,2" d="M1073.48,-54.4017C1107.05,-58.5258 1156.98,-65.3466 1200,-74 1209.59,-75.9291 1219.91,-78.4226 1229.33,-80.8644"/>
<polygon fill="#9a32cd" stroke="#9a32cd" points="1073.53,-50.8827 1063.19,-53.1585 1072.69,-57.8322 1073.53,-50.8827"/>
<text text-anchor="middle" x="1160" y="-77" font-family="Helvetica,sans-Serif" font-size="10.00"> textEditor</text>
</g>
<!-- Node32 -->
<g id="node32" class="node"><title>Node32</title>
<polygon fill="white" stroke="#bfbfbf" points="1414.5,-38.5 1414.5,-57.5 1533.5,-57.5 1533.5,-38.5 1414.5,-38.5"/>
<text text-anchor="middle" x="1474" y="-45.5" font-family="Helvetica,sans-Serif" font-size="10.00">Map&lt; String, Node &gt;</text>
</g>
<!-- Node32&#45;&gt;Node26 -->
<g id="edge42" class="edge"><title>Node32&#45;&gt;Node26</title>
<path fill="none" stroke="#9a32cd" stroke-dasharray="5,2" d="M1543.99,-43.654C1572.38,-45.1676 1604.13,-51.4797 1628,-69 1673.71,-102.549 1689.37,-175.323 1693.64,-201.434"/>
<polygon fill="#9a32cd" stroke="#9a32cd" points="1543.82,-40.1461 1533.71,-43.3015 1543.58,-47.142 1543.82,-40.1461"/>
<text text-anchor="middle" x="1590" y="-72" font-family="Helvetica,sans-Serif" font-size="10.00"> variables</text>
</g>
<!-- Node33 -->
<g id="node33" class="node"><title>Node33</title>
<polygon fill="white" stroke="#bfbfbf" points="1433.5,-0.5 1433.5,-19.5 1514.5,-19.5 1514.5,-0.5 1433.5,-0.5"/>
<text text-anchor="middle" x="1474" y="-7.5" font-family="Helvetica,sans-Serif" font-size="10.00">Dimension2D</text>
</g>
<!-- Node33&#45;&gt;Node26 -->
<g id="edge45" class="edge"><title>Node33&#45;&gt;Node26</title>
<path fill="none" stroke="#9a32cd" stroke-dasharray="5,2" d="M1525.05,-4.10812C1557.68,-3.01859 1599.37,-7.16911 1628,-30 1683.8,-74.4949 1693.13,-170.249 1694.69,-201.162"/>
<polygon fill="#9a32cd" stroke="#9a32cd" points="1524.62,-0.625799 1514.81,-4.62895 1524.97,-7.61678 1524.62,-0.625799"/>
<text text-anchor="middle" x="1590" y="-33" font-family="Helvetica,sans-Serif" font-size="10.00"> myDimensions</text>
</g>
</g>
</svg>
        <g id="navigator" transform="translate(0 0)" fill="#404254">
                <rect fill="#f2f5e9" fill-opacity="0.5" stroke="#606060" stroke-width=".5" x="0" y="0" width="60" height="60"/>
                <use id="zoomplus" xlink:href="#zoomPlus" x="17" y="9" onmousedown="handleZoom(evt,'in')"/>
                <use id="zoomminus" xlink:href="#zoomMin" x="42" y="9" onmousedown="handleZoom(evt,'out')"/>
                <use id="reset" xlink:href="#resetDef" x="30" y="36" onmousedown="handleReset()"/>
                <g id="arrowUp" xlink:href="#dirArrow" transform="translate(30 24)" onmousedown="handlePan(0,-1)">
                  <use xlink:href="#rim" fill="#404040">
                        <set attributeName="fill" to="#808080" begin="arrowUp.mouseover" end="arrowUp.mouseout"/>
                  </use>
                  <path fill="none" stroke="white" stroke-width="1.5" d="M0,-3.0v7 M-2.5,-0.5L0,-3.0L2.5,-0.5"/>
                </g>
                <g id="arrowRight" xlink:href="#dirArrow" transform="rotate(90) translate(36 -43)" onmousedown="handlePan(1,0)">
                  <use xlink:href="#rim" fill="#404040">
                        <set attributeName="fill" to="#808080" begin="arrowRight.mouseover" end="arrowRight.mouseout"/>
                  </use>
                  <path fill="none" stroke="white" stroke-width="1.5" d="M0,-3.0v7 M-2.5,-0.5L0,-3.0L2.5,-0.5"/>
                </g>
                <g id="arrowDown" xlink:href="#dirArrow" transform="rotate(180) translate(-30 -48)" onmousedown="handlePan(0,1)">
                  <use xlink:href="#rim" fill="#404040">
                        <set attributeName="fill" to="#808080" begin="arrowDown.mouseover" end="arrowDown.mouseout"/>
                  </use>
                  <path fill="none" stroke="white" stroke-width="1.5" d="M0,-3.0v7 M-2.5,-0.5L0,-3.0L2.5,-0.5"/>
                </g>
                <g id="arrowLeft" xlink:href="#dirArrow" transform="rotate(270) translate(-36 17)" onmousedown="handlePan(-1,0)">
                  <use xlink:href="#rim" fill="#404040">
                        <set attributeName="fill" to="#808080" begin="arrowLeft.mouseover" end="arrowLeft.mouseout"/>
                  </use>
                  <path fill="none" stroke="white" stroke-width="1.5" d="M0,-3.0v7 M-2.5,-0.5L0,-3.0L2.5,-0.5"/>
                </g>
        </g>
        <svg viewBox="0 0 15 15" width="100%" height="30px" preserveAspectRatio="xMaxYMin meet">
         <g id="arrow_out" transform="scale(0.3 0.3)">
          <a xlink:href="classmodel_1_1_parser__coll__graph_org.svg" target="_base">
           <rect id="button" ry="5" rx="5" y="6" x="6" height="38" width="38"
                fill="#f2f5e9" fill-opacity="0.5" stroke="#606060" stroke-width="1.0"/>
           <path id="arrow"
             d="M 11.500037,31.436501 C 11.940474,20.09759 22.043105,11.32322 32.158766,21.979434 L 37.068811,17.246167 C 37.068811,17.246167 37.088388,32 37.088388,32 L 22.160133,31.978069 C 22.160133,31.978069 26.997745,27.140456 26.997745,27.140456 C 18.528582,18.264221 13.291696,25.230495 11.500037,31.436501 z"
             style="fill:#404040;"/>
          </a>
         </g>
        </svg>
</svg>
