<?xml version="1.0" encoding="UTF-8" standalone="no"?>
<!DOCTYPE svg PUBLIC "-//W3C//DTD SVG 1.1//EN"
 "http://www.w3.org/Graphics/SVG/1.1/DTD/svg11.dtd">
<!-- Generated by graphviz version 2.36.0 (20140111.2315)
 -->
<!-- Title: model.XMLParser.readFile Pages: 1 -->
<svg width="362pt" height="115pt"
 viewBox="0.00 0.00 362.00 115.00" xmlns="http://www.w3.org/2000/svg" xmlns:xlink="http://www.w3.org/1999/xlink">
<g id="graph0" class="graph" transform="scale(1 1) rotate(0) translate(4 111)">
<title>model.XMLParser.readFile</title>
<polygon fill="white" stroke="none" points="-4,4 -4,-111 358,-111 358,4 -4,4"/>
<!-- Node1 -->
<g id="node1" class="node"><title>Node1</title>
<polygon fill="#bfbfbf" stroke="black" points="0,-38.5 0,-57.5 138,-57.5 138,-38.5 0,-38.5"/>
<text text-anchor="middle" x="69" y="-45.5" font-family="Helvetica,sans-Serif" font-size="10.00">model.XMLParser.readFile</text>
</g>
<!-- Node2 -->
<g id="node2" class="node"><title>Node2</title>
<g id="a_node2"><a xlink:href="../../da/d2a/classmodel_1_1_x_m_l_parser.html#ac8efef6d13b09d0eab0fb7fffb5882d2" target="_top" xlink:title="model.XMLParser.initialize\lNodeList">
<polygon fill="white" stroke="black" points="194,-77 194,-107 334,-107 334,-77 194,-77"/>
<text text-anchor="start" x="202" y="-95" font-family="Helvetica,sans-Serif" font-size="10.00">model.XMLParser.initialize</text>
<text text-anchor="middle" x="264" y="-84" font-family="Helvetica,sans-Serif" font-size="10.00">NodeList</text>
</a>
</g>
</g>
<!-- Node1&#45;&gt;Node2 -->
<g id="edge1" class="edge"><title>Node1&#45;&gt;Node2</title>
<path fill="none" stroke="midnightblue" d="M111.878,-57.5473C133.802,-62.5455 161.334,-68.8222 186.871,-74.6442"/>
<polygon fill="midnightblue" stroke="midnightblue" points="186.39,-78.1242 196.918,-76.9346 187.946,-71.2994 186.39,-78.1242"/>
</g>
<!-- Node3 -->
<g id="node3" class="node"><title>Node3</title>
<g id="a_node3"><a xlink:href="../../da/d2a/classmodel_1_1_x_m_l_parser.html#a0b0b110aab0ef3baf1219a88ce9a898d" target="_top" xlink:title="model.XMLParser.readInstructions">
<polygon fill="white" stroke="black" points="174.5,-38.5 174.5,-57.5 353.5,-57.5 353.5,-38.5 174.5,-38.5"/>
<text text-anchor="middle" x="264" y="-45.5" font-family="Helvetica,sans-Serif" font-size="10.00">model.XMLParser.readInstructions</text>
</a>
</g>
</g>
<!-- Node1&#45;&gt;Node3 -->
<g id="edge2" class="edge"><title>Node1&#45;&gt;Node3</title>
<path fill="none" stroke="midnightblue" d="M138.045,-48C146.561,-48 155.401,-48 164.267,-48"/>
<polygon fill="midnightblue" stroke="midnightblue" points="164.272,-51.5001 174.272,-48 164.272,-44.5001 164.272,-51.5001"/>
</g>
<!-- Node4 -->
<g id="node4" class="node"><title>Node4</title>
<g id="a_node4"><a xlink:href="../../da/d2a/classmodel_1_1_x_m_l_parser.html#a2226b7b737449faddccb9ffdeb3a9ac1" target="_top" xlink:title="model.XMLParser.readVariables">
<polygon fill="white" stroke="black" points="180.5,-0.5 180.5,-19.5 347.5,-19.5 347.5,-0.5 180.5,-0.5"/>
<text text-anchor="middle" x="264" y="-7.5" font-family="Helvetica,sans-Serif" font-size="10.00">model.XMLParser.readVariables</text>
</a>
</g>
</g>
<!-- Node1&#45;&gt;Node4 -->
<g id="edge3" class="edge"><title>Node1&#45;&gt;Node4</title>
<path fill="none" stroke="midnightblue" d="M118.702,-38.411C144.859,-33.261 177.284,-26.8768 204.767,-21.4656"/>
<polygon fill="midnightblue" stroke="midnightblue" points="205.513,-24.886 214.648,-19.5201 204.16,-18.0179 205.513,-24.886"/>
</g>
</g>
</svg>
