<?xml version="1.0" encoding="UTF-8" standalone="no"?>
<!DOCTYPE svg PUBLIC "-//W3C//DTD SVG 1.1//EN"
 "http://www.w3.org/Graphics/SVG/1.1/DTD/svg11.dtd">
<!-- Generated by graphviz version 2.36.0 (20140111.2315)
 -->
<!-- Title: model.XMLParser.initializeNodeList Pages: 1 -->
<svg width="510pt" height="38pt"
 viewBox="0.00 0.00 510.00 38.00" xmlns="http://www.w3.org/2000/svg" xmlns:xlink="http://www.w3.org/1999/xlink">
<g id="graph0" class="graph" transform="scale(1 1) rotate(0) translate(4 34)">
<title>model.XMLParser.initializeNodeList</title>
<polygon fill="white" stroke="none" points="-4,4 -4,-34 506,-34 506,4 -4,4"/>
<!-- Node1 -->
<g id="node1" class="node"><title>Node1</title>
<polygon fill="#bfbfbf" stroke="black" points="0,-0 0,-30 140,-30 140,-0 0,-0"/>
<text text-anchor="start" x="8" y="-18" font-family="Helvetica,sans-Serif" font-size="10.00">model.XMLParser.initialize</text>
<text text-anchor="middle" x="70" y="-7" font-family="Helvetica,sans-Serif" font-size="10.00">NodeList</text>
</g>
<!-- Node2 -->
<g id="node2" class="node"><title>Node2</title>
<g id="a_node2"><a xlink:href="../../da/d2a/classmodel_1_1_x_m_l_parser.html#ad77fe33eb14deaf1b3809772af85be81" target="_top" xlink:title="model.XMLParser.readFile">
<polygon fill="white" stroke="black" points="176,-5.5 176,-24.5 314,-24.5 314,-5.5 176,-5.5"/>
<text text-anchor="middle" x="245" y="-12.5" font-family="Helvetica,sans-Serif" font-size="10.00">model.XMLParser.readFile</text>
</a>
</g>
</g>
<!-- Node1&#45;&gt;Node2 -->
<g id="edge1" class="edge"><title>Node1&#45;&gt;Node2</title>
<path fill="none" stroke="midnightblue" d="M150.564,-15C158.976,-15 167.475,-15 175.742,-15"/>
<polygon fill="midnightblue" stroke="midnightblue" points="150.369,-11.5001 140.369,-15 150.369,-18.5001 150.369,-11.5001"/>
</g>
<!-- Node3 -->
<g id="node3" class="node"><title>Node3</title>
<g id="a_node3"><a xlink:href="../../da/d2a/classmodel_1_1_x_m_l_parser.html#ab035a677986a8d18c321c4f8c134aa94" target="_top" xlink:title="model.XMLParser.XMLParser">
<polygon fill="white" stroke="black" points="350.5,-5.5 350.5,-24.5 501.5,-24.5 501.5,-5.5 350.5,-5.5"/>
<text text-anchor="middle" x="426" y="-12.5" font-family="Helvetica,sans-Serif" font-size="10.00">model.XMLParser.XMLParser</text>
</a>
</g>
</g>
<!-- Node2&#45;&gt;Node3 -->
<g id="edge2" class="edge"><title>Node2&#45;&gt;Node3</title>
<path fill="none" stroke="midnightblue" d="M324.292,-15C332.977,-15 341.804,-15 350.441,-15"/>
<polygon fill="midnightblue" stroke="midnightblue" points="324.183,-11.5001 314.183,-15 324.183,-18.5001 324.183,-11.5001"/>
</g>
</g>
</svg>
