<?xml version="1.0" encoding="UTF-8" standalone="no"?>
<!DOCTYPE svg PUBLIC "-//W3C//DTD SVG 1.1//EN"
 "http://www.w3.org/Graphics/SVG/1.1/DTD/svg11.dtd">
<!-- Generated by graphviz version 2.36.0 (20140111.2315)
 -->
<!-- Title: model.XMLParser.readInstructions Pages: 1 -->
<svg width="550pt" height="28pt"
 viewBox="0.00 0.00 550.00 28.00" xmlns="http://www.w3.org/2000/svg" xmlns:xlink="http://www.w3.org/1999/xlink">
<g id="graph0" class="graph" transform="scale(1 1) rotate(0) translate(4 24)">
<title>model.XMLParser.readInstructions</title>
<polygon fill="white" stroke="none" points="-4,4 -4,-24 546,-24 546,4 -4,4"/>
<!-- Node1 -->
<g id="node1" class="node"><title>Node1</title>
<polygon fill="#bfbfbf" stroke="black" points="0.5,-0.5 0.5,-19.5 179.5,-19.5 179.5,-0.5 0.5,-0.5"/>
<text text-anchor="middle" x="90" y="-7.5" font-family="Helvetica,sans-Serif" font-size="10.00">model.XMLParser.readInstructions</text>
</g>
<!-- Node2 -->
<g id="node2" class="node"><title>Node2</title>
<g id="a_node2"><a xlink:href="../../da/d2a/classmodel_1_1_x_m_l_parser.html#ad77fe33eb14deaf1b3809772af85be81" target="_top" xlink:title="model.XMLParser.readFile">
<polygon fill="white" stroke="black" points="216,-0.5 216,-19.5 354,-19.5 354,-0.5 216,-0.5"/>
<text text-anchor="middle" x="285" y="-7.5" font-family="Helvetica,sans-Serif" font-size="10.00">model.XMLParser.readFile</text>
</a>
</g>
</g>
<!-- Node1&#45;&gt;Node2 -->
<g id="edge1" class="edge"><title>Node1&#45;&gt;Node2</title>
<path fill="none" stroke="midnightblue" d="M189.612,-10C198.493,-10 207.349,-10 215.881,-10"/>
<polygon fill="midnightblue" stroke="midnightblue" points="189.592,-6.5001 179.592,-10 189.592,-13.5001 189.592,-6.5001"/>
</g>
<!-- Node3 -->
<g id="node3" class="node"><title>Node3</title>
<g id="a_node3"><a xlink:href="../../da/d2a/classmodel_1_1_x_m_l_parser.html#ab035a677986a8d18c321c4f8c134aa94" target="_top" xlink:title="model.XMLParser.XMLParser">
<polygon fill="white" stroke="black" points="390.5,-0.5 390.5,-19.5 541.5,-19.5 541.5,-0.5 390.5,-0.5"/>
<text text-anchor="middle" x="466" y="-7.5" font-family="Helvetica,sans-Serif" font-size="10.00">model.XMLParser.XMLParser</text>
</a>
</g>
</g>
<!-- Node2&#45;&gt;Node3 -->
<g id="edge2" class="edge"><title>Node2&#45;&gt;Node3</title>
<path fill="none" stroke="midnightblue" d="M364.292,-10C372.977,-10 381.804,-10 390.441,-10"/>
<polygon fill="midnightblue" stroke="midnightblue" points="364.183,-6.5001 354.183,-10 364.183,-13.5001 364.183,-6.5001"/>
</g>
</g>
</svg>
