<?xml version="1.0" encoding="UTF-8" standalone="no"?>
<!DOCTYPE svg PUBLIC "-//W3C//DTD SVG 1.1//EN"
 "http://www.w3.org/Graphics/SVG/1.1/DTD/svg11.dtd">
<!-- Generated by graphviz version 2.36.0 (20140111.2315)
 -->
<!-- Title: model.XMLParser.XMLParser Pages: 1 -->
<svg width="570pt" height="142pt"
 viewBox="0.00 0.00 570.00 142.00" xmlns="http://www.w3.org/2000/svg" xmlns:xlink="http://www.w3.org/1999/xlink">
<g id="graph0" class="graph" transform="scale(1 1) rotate(0) translate(4 138)">
<title>model.XMLParser.XMLParser</title>
<polygon fill="white" stroke="none" points="-4,4 -4,-138 566,-138 566,4 -4,4"/>
<!-- Node1 -->
<g id="node1" class="node"><title>Node1</title>
<polygon fill="#bfbfbf" stroke="black" points="0.5,-76.5 0.5,-95.5 151.5,-95.5 151.5,-76.5 0.5,-76.5"/>
<text text-anchor="middle" x="76" y="-83.5" font-family="Helvetica,sans-Serif" font-size="10.00">model.XMLParser.XMLParser</text>
</g>
<!-- Node2 -->
<g id="node2" class="node"><title>Node2</title>
<g id="a_node2"><a xlink:href="../../da/d2a/classmodel_1_1_x_m_l_parser.html#a6e4fa03b704750e117152537c05b8b59" target="_top" xlink:title="model.XMLParser.clean">
<polygon fill="white" stroke="black" points="203.5,-114.5 203.5,-133.5 330.5,-133.5 330.5,-114.5 203.5,-114.5"/>
<text text-anchor="middle" x="267" y="-121.5" font-family="Helvetica,sans-Serif" font-size="10.00">model.XMLParser.clean</text>
</a>
</g>
</g>
<!-- Node1&#45;&gt;Node2 -->
<g id="edge1" class="edge"><title>Node1&#45;&gt;Node2</title>
<path fill="none" stroke="midnightblue" d="M124.693,-95.589C150.195,-100.716 181.782,-107.067 208.62,-112.463"/>
<polygon fill="midnightblue" stroke="midnightblue" points="208.157,-115.94 218.65,-114.48 209.536,-109.077 208.157,-115.94"/>
</g>
<!-- Node3 -->
<g id="node3" class="node"><title>Node3</title>
<g id="a_node3"><a xlink:href="../../da/d2a/classmodel_1_1_x_m_l_parser.html#a44c60e76dd98715c47b9fe2ac6bebb48" target="_top" xlink:title="model.XMLParser.initializeDoc">
<polygon fill="white" stroke="black" points="188,-76.5 188,-95.5 346,-95.5 346,-76.5 188,-76.5"/>
<text text-anchor="middle" x="267" y="-83.5" font-family="Helvetica,sans-Serif" font-size="10.00">model.XMLParser.initializeDoc</text>
</a>
</g>
</g>
<!-- Node1&#45;&gt;Node3 -->
<g id="edge2" class="edge"><title>Node1&#45;&gt;Node3</title>
<path fill="none" stroke="midnightblue" d="M151.698,-86C160.226,-86 168.98,-86 177.664,-86"/>
<polygon fill="midnightblue" stroke="midnightblue" points="177.809,-89.5001 187.809,-86 177.809,-82.5001 177.809,-89.5001"/>
</g>
<!-- Node4 -->
<g id="node4" class="node"><title>Node4</title>
<g id="a_node4"><a xlink:href="../../da/d2a/classmodel_1_1_x_m_l_parser.html#ad77fe33eb14deaf1b3809772af85be81" target="_top" xlink:title="model.XMLParser.readFile">
<polygon fill="white" stroke="black" points="198,-38.5 198,-57.5 336,-57.5 336,-38.5 198,-38.5"/>
<text text-anchor="middle" x="267" y="-45.5" font-family="Helvetica,sans-Serif" font-size="10.00">model.XMLParser.readFile</text>
</a>
</g>
</g>
<!-- Node1&#45;&gt;Node4 -->
<g id="edge3" class="edge"><title>Node1&#45;&gt;Node4</title>
<path fill="none" stroke="midnightblue" d="M124.693,-76.411C150.195,-71.2835 181.782,-64.9328 208.62,-59.5368"/>
<polygon fill="midnightblue" stroke="midnightblue" points="209.536,-62.9226 218.65,-57.5201 208.157,-56.0599 209.536,-62.9226"/>
</g>
<!-- Node5 -->
<g id="node5" class="node"><title>Node5</title>
<g id="a_node5"><a xlink:href="../../da/d2a/classmodel_1_1_x_m_l_parser.html#ac8efef6d13b09d0eab0fb7fffb5882d2" target="_top" xlink:title="model.XMLParser.initialize\lNodeList">
<polygon fill="white" stroke="black" points="402,-77 402,-107 542,-107 542,-77 402,-77"/>
<text text-anchor="start" x="410" y="-95" font-family="Helvetica,sans-Serif" font-size="10.00">model.XMLParser.initialize</text>
<text text-anchor="middle" x="472" y="-84" font-family="Helvetica,sans-Serif" font-size="10.00">NodeList</text>
</a>
</g>
</g>
<!-- Node4&#45;&gt;Node5 -->
<g id="edge4" class="edge"><title>Node4&#45;&gt;Node5</title>
<path fill="none" stroke="midnightblue" d="M312.048,-57.5473C335.415,-62.6122 364.84,-68.99 392.002,-74.8772"/>
<polygon fill="midnightblue" stroke="midnightblue" points="391.376,-78.3228 401.891,-77.0206 392.859,-71.4817 391.376,-78.3228"/>
</g>
<!-- Node6 -->
<g id="node6" class="node"><title>Node6</title>
<g id="a_node6"><a xlink:href="../../da/d2a/classmodel_1_1_x_m_l_parser.html#a2226b7b737449faddccb9ffdeb3a9ac1" target="_top" xlink:title="model.XMLParser.readVariables">
<polygon fill="white" stroke="black" points="388.5,-38.5 388.5,-57.5 555.5,-57.5 555.5,-38.5 388.5,-38.5"/>
<text text-anchor="middle" x="472" y="-45.5" font-family="Helvetica,sans-Serif" font-size="10.00">model.XMLParser.readVariables</text>
</a>
</g>
</g>
<!-- Node4&#45;&gt;Node6 -->
<g id="edge5" class="edge"><title>Node4&#45;&gt;Node6</title>
<path fill="none" stroke="midnightblue" d="M336.161,-48C349.6,-48 363.917,-48 378.013,-48"/>
<polygon fill="midnightblue" stroke="midnightblue" points="378.223,-51.5001 388.223,-48 378.223,-44.5001 378.223,-51.5001"/>
</g>
<!-- Node7 -->
<g id="node7" class="node"><title>Node7</title>
<g id="a_node7"><a xlink:href="../../da/d2a/classmodel_1_1_x_m_l_parser.html#a0b0b110aab0ef3baf1219a88ce9a898d" target="_top" xlink:title="model.XMLParser.readInstructions">
<polygon fill="white" stroke="black" points="382.5,-0.5 382.5,-19.5 561.5,-19.5 561.5,-0.5 382.5,-0.5"/>
<text text-anchor="middle" x="472" y="-7.5" font-family="Helvetica,sans-Serif" font-size="10.00">model.XMLParser.readInstructions</text>
</a>
</g>
</g>
<!-- Node4&#45;&gt;Node7 -->
<g id="edge6" class="edge"><title>Node4&#45;&gt;Node7</title>
<path fill="none" stroke="midnightblue" d="M318.963,-38.46C346.594,-33.2878 380.933,-26.8599 409.981,-21.4222"/>
<polygon fill="midnightblue" stroke="midnightblue" points="410.83,-24.8242 420.016,-19.5439 409.542,-17.9437 410.83,-24.8242"/>
</g>
</g>
</svg>
