<?xml version="1.0" encoding="UTF-8" standalone="no"?>
<!DOCTYPE svg PUBLIC "-//W3C//DTD SVG 1.1//EN"
 "http://www.w3.org/Graphics/SVG/1.1/DTD/svg11.dtd">
<!-- Generated by graphviz version 2.36.0 (20140111.2315)
 -->
<!-- Title: view.TurtlePropertiesView.update Pages: 1 -->
<!--zoomable 471 -->
<svg id="main" version="1.1" xmlns="http://www.w3.org/2000/svg" xmlns:xlink="http://www.w3.org/1999/xlink" xml:space="preserve" onload="init(evt)">
<style type="text/css"><![CDATA[
.edge:hover path { stroke: red; }
.edge:hover polygon { stroke: red; fill: red; }
]]></style>
<script type="text/javascript"><![CDATA[
var edges = document.getElementsByTagName('g');
if (edges && edges.length) {
  for (var i=0;i<edges.length;i++) {
    if (edges[i].id.substr(0,4)=='edge') {
      edges[i].setAttribute('class','edge');
    }
  }
}
]]></script>
        <defs>
                <circle id="rim" cx="0" cy="0" r="7"/>
                <circle id="rim2" cx="0" cy="0" r="3.5"/>
                <g id="zoomPlus">
                        <use xlink:href="#rim" fill="#404040">
                                <set attributeName="fill" to="#808080" begin="zoomplus.mouseover" end="zoomplus.mouseout"/>
                        </use>
                        <path d="M-4,0h8M0,-4v8" fill="none" stroke="white" stroke-width="1.5" pointer-events="none"/>
                </g>
                <g id="zoomMin">
                        <use xlink:href="#rim" fill="#404040">
                                <set attributeName="fill" to="#808080" begin="zoomminus.mouseover" end="zoomminus.mouseout"/>
                        </use>
                        <path d="M-4,0h8" fill="none" stroke="white" stroke-width="1.5" pointer-events="none"/>
                </g>
                <g id="dirArrow">
                        <path fill="none" stroke="white" stroke-width="1.5" d="M0,-3.0v7 M-2.5,-0.5L0,-3.0L2.5,-0.5"/>
                </g>
               <g id="resetDef">
                       <use xlink:href="#rim2" fill="#404040">
                               <set attributeName="fill" to="#808080" begin="reset.mouseover" end="reset.mouseout"/>
                       </use>
               </g>
        </defs>

<script type="text/javascript">
var viewWidth = 2286;
var viewHeight = 471;
var sectionId = 'dynsection-3';
</script>
<script xlink:href="../../svgpan.js"/>
<svg id="graph" class="graph">
<g id="viewport">
<title>view.TurtlePropertiesView.update</title>
<polygon fill="white" stroke="none" points="-4,4 -4,-467 2282,-467 2282,4 -4,4"/>
<!-- Node1 -->
<g id="node1" class="node"><title>Node1</title>
<polygon fill="#bfbfbf" stroke="black" points="0.5,-190.5 0.5,-209.5 171.5,-209.5 171.5,-190.5 0.5,-190.5"/>
<text text-anchor="middle" x="86" y="-197.5" font-family="Helvetica,sans-Serif" font-size="10.00">view.TurtlePropertiesView.update</text>
</g>
<!-- Node2 -->
<g id="node2" class="node"><title>Node2</title>
<g id="a_node2"><a xlink:href="../../d1/dc7/classview_1_1_side_bar.html#a7d73038dbba05f96990b60664afa2670" target="_top" xlink:title="view.SideBar.updateTurtle\lProperties">
<polygon fill="white" stroke="black" points="208,-185 208,-215 346,-215 346,-185 208,-185"/>
<text text-anchor="start" x="216" y="-203" font-family="Helvetica,sans-Serif" font-size="10.00">view.SideBar.updateTurtle</text>
<text text-anchor="middle" x="277" y="-192" font-family="Helvetica,sans-Serif" font-size="10.00">Properties</text>
</a>
</g>
</g>
<!-- Node1&#45;&gt;Node2 -->
<g id="edge1" class="edge"><title>Node1&#45;&gt;Node2</title>
<path fill="none" stroke="midnightblue" d="M181.58,-200C190.479,-200 199.377,-200 207.959,-200"/>
<polygon fill="midnightblue" stroke="midnightblue" points="181.55,-196.5 171.55,-200 181.55,-203.5 181.55,-196.5"/>
</g>
<!-- Node3 -->
<g id="node3" class="node"><title>Node3</title>
<g id="a_node3"><a xlink:href="../../d4/d64/classview_1_1_view_updater.html#ace7ce28317856b4b454a798d1af23b38" target="_top" xlink:title="view.ViewUpdater.clearScreen">
<polygon fill="white" stroke="black" points="790.5,-301.5 790.5,-320.5 949.5,-320.5 949.5,-301.5 790.5,-301.5"/>
<text text-anchor="middle" x="870" y="-308.5" font-family="Helvetica,sans-Serif" font-size="10.00">view.ViewUpdater.clearScreen</text>
</a>
</g>
</g>
<!-- Node2&#45;&gt;Node3 -->
<g id="edge2" class="edge"><title>Node2&#45;&gt;Node3</title>
<path fill="none" stroke="midnightblue" d="M294.895,-222.939C313.369,-245.95 345.285,-280.057 382,-295 530.48,-355.431 725.99,-335.163 817.545,-320.555"/>
<polygon fill="midnightblue" stroke="midnightblue" points="297.625,-220.748 288.712,-215.019 292.107,-225.055 297.625,-220.748"/>
</g>
<!-- Node5 -->
<g id="node5" class="node"><title>Node5</title>
<g id="a_node5"><a xlink:href="../../de/d0a/classview_1_1_drawer.html#a6b9f362b8bc763689630b1fe7b5c1887" target="_top" xlink:title="view.Drawer.draw">
<polygon fill="white" stroke="black" points="407,-266.5 407,-285.5 505,-285.5 505,-266.5 407,-266.5"/>
<text text-anchor="middle" x="456" y="-273.5" font-family="Helvetica,sans-Serif" font-size="10.00">view.Drawer.draw</text>
</a>
</g>
</g>
<!-- Node2&#45;&gt;Node5 -->
<g id="edge4" class="edge"><title>Node2&#45;&gt;Node5</title>
<path fill="none" stroke="midnightblue" d="M310.267,-220.393C330.308,-232.365 356.942,-247.05 382,-257 391.25,-260.673 401.442,-263.84 411.201,-266.477"/>
<polygon fill="midnightblue" stroke="midnightblue" points="311.918,-217.301 301.552,-215.11 308.289,-223.287 311.918,-217.301"/>
</g>
<!-- Node8 -->
<g id="node8" class="node"><title>Node8</title>
<g id="a_node8"><a xlink:href="../../da/d64/classview_1_1_workspace.html#a16bda9a6a7fe7f8d3d7b09108675f9c4" target="_top" xlink:title="view.Workspace.setActive\lTurtle">
<polygon fill="white" stroke="black" points="387.5,-381 387.5,-411 524.5,-411 524.5,-381 387.5,-381"/>
<text text-anchor="start" x="395.5" y="-399" font-family="Helvetica,sans-Serif" font-size="10.00">view.Workspace.setActive</text>
<text text-anchor="middle" x="456" y="-388" font-family="Helvetica,sans-Serif" font-size="10.00">Turtle</text>
</a>
</g>
</g>
<!-- Node2&#45;&gt;Node8 -->
<g id="edge8" class="edge"><title>Node2&#45;&gt;Node8</title>
<path fill="none" stroke="midnightblue" d="M287.629,-224.645C302.721,-260.348 335.146,-326.494 382,-366 389.123,-372.006 397.613,-376.938 406.24,-380.943"/>
<polygon fill="midnightblue" stroke="midnightblue" points="290.71,-222.934 283.669,-215.017 284.236,-225.597 290.71,-222.934"/>
</g>
<!-- Node20 -->
<g id="node20" class="node"><title>Node20</title>
<g id="a_node20"><a xlink:href="../../d4/d64/classview_1_1_view_updater.html#ab8c47e1d6b8bc5c076184e3e0af5e4b2" target="_top" xlink:title="view.ViewUpdater.setHeading">
<polygon fill="white" stroke="black" points="581.5,-133.5 581.5,-152.5 738.5,-152.5 738.5,-133.5 581.5,-133.5"/>
<text text-anchor="middle" x="660" y="-140.5" font-family="Helvetica,sans-Serif" font-size="10.00">view.ViewUpdater.setHeading</text>
</a>
</g>
</g>
<!-- Node2&#45;&gt;Node20 -->
<g id="edge22" class="edge"><title>Node2&#45;&gt;Node20</title>
<path fill="none" stroke="midnightblue" d="M306.534,-179.22C326.553,-165.976 354.548,-150.03 382,-143 450.6,-125.434 531.928,-128.076 588.646,-133.49"/>
<polygon fill="midnightblue" stroke="midnightblue" points="304.503,-176.369 298.198,-184.884 308.437,-182.158 304.503,-176.369"/>
</g>
<!-- Node22 -->
<g id="node22" class="node"><title>Node22</title>
<g id="a_node22"><a xlink:href="../../d6/de7/classview_1_1_s_logo_view.html#ae7ad67f4b629b134cb805842a20f4050" target="_top" xlink:title="view.SLogoView.setHeading">
<polygon fill="white" stroke="black" points="382,-228.5 382,-247.5 530,-247.5 530,-228.5 382,-228.5"/>
<text text-anchor="middle" x="456" y="-235.5" font-family="Helvetica,sans-Serif" font-size="10.00">view.SLogoView.setHeading</text>
</a>
</g>
</g>
<!-- Node2&#45;&gt;Node22 -->
<g id="edge25" class="edge"><title>Node2&#45;&gt;Node22</title>
<path fill="none" stroke="midnightblue" d="M356.16,-216.78C374.819,-220.786 394.099,-224.925 410.622,-228.472"/>
<polygon fill="midnightblue" stroke="midnightblue" points="356.692,-213.315 346.18,-214.637 355.222,-220.159 356.692,-213.315"/>
</g>
<!-- Node24 -->
<g id="node24" class="node"><title>Node24</title>
<g id="a_node24"><a xlink:href="../../d4/d64/classview_1_1_view_updater.html#ad79c00c54aabbeca7b8a0461fea36c29" target="_top" xlink:title="view.ViewUpdater.setPenUp">
<polygon fill="white" stroke="black" points="585.5,-67.5 585.5,-86.5 734.5,-86.5 734.5,-67.5 585.5,-67.5"/>
<text text-anchor="middle" x="660" y="-74.5" font-family="Helvetica,sans-Serif" font-size="10.00">view.ViewUpdater.setPenUp</text>
</a>
</g>
</g>
<!-- Node2&#45;&gt;Node24 -->
<g id="edge27" class="edge"><title>Node2&#45;&gt;Node24</title>
<path fill="none" stroke="midnightblue" d="M288.585,-175.674C303.929,-143.876 335.678,-89.5811 382,-67 464.402,-26.8309 577.554,-51.9822 630.062,-67.4822"/>
<polygon fill="midnightblue" stroke="midnightblue" points="285.402,-174.217 284.351,-184.76 291.747,-177.174 285.402,-174.217"/>
</g>
<!-- Node25 -->
<g id="node25" class="node"><title>Node25</title>
<g id="a_node25"><a xlink:href="../../d6/de7/classview_1_1_s_logo_view.html#a978a65a0b82bac25044f7e2816a680cc" target="_top" xlink:title="view.SLogoView.setPenUp">
<polygon fill="white" stroke="black" points="386,-152.5 386,-171.5 526,-171.5 526,-152.5 386,-152.5"/>
<text text-anchor="middle" x="456" y="-159.5" font-family="Helvetica,sans-Serif" font-size="10.00">view.SLogoView.setPenUp</text>
</a>
</g>
</g>
<!-- Node2&#45;&gt;Node25 -->
<g id="edge29" class="edge"><title>Node2&#45;&gt;Node25</title>
<path fill="none" stroke="midnightblue" d="M356.16,-183.22C374.819,-179.214 394.099,-175.075 410.622,-171.528"/>
<polygon fill="midnightblue" stroke="midnightblue" points="355.222,-179.841 346.18,-185.363 356.692,-186.685 355.222,-179.841"/>
</g>
<!-- Node26 -->
<g id="node26" class="node"><title>Node26</title>
<g id="a_node26"><a xlink:href="../../d4/d64/classview_1_1_view_updater.html#a497cc83cdcb6fdb430bdb78431c5cd20" target="_top" xlink:title="view.ViewUpdater.setXY">
<polygon fill="white" stroke="black" points="806,-341.5 806,-360.5 934,-360.5 934,-341.5 806,-341.5"/>
<text text-anchor="middle" x="870" y="-348.5" font-family="Helvetica,sans-Serif" font-size="10.00">view.ViewUpdater.setXY</text>
</a>
</g>
</g>
<!-- Node2&#45;&gt;Node26 -->
<g id="edge30" class="edge"><title>Node2&#45;&gt;Node26</title>
<path fill="none" stroke="midnightblue" d="M289.792,-224.191C305.942,-254.316 338.029,-304.544 382,-327 454.185,-363.865 690.887,-359.006 805.58,-354.218"/>
<polygon fill="midnightblue" stroke="midnightblue" points="292.826,-222.441 285.113,-215.178 286.613,-225.666 292.826,-222.441"/>
</g>
<!-- Node27 -->
<g id="node27" class="node"><title>Node27</title>
<g id="a_node27"><a xlink:href="../../d6/de7/classview_1_1_s_logo_view.html#a0948ea67bfc088f941e2af79727231ad" target="_top" xlink:title="view.SLogoView.setXY">
<polygon fill="white" stroke="black" points="396.5,-76.5 396.5,-95.5 515.5,-95.5 515.5,-76.5 396.5,-76.5"/>
<text text-anchor="middle" x="456" y="-83.5" font-family="Helvetica,sans-Serif" font-size="10.00">view.SLogoView.setXY</text>
</a>
</g>
</g>
<!-- Node2&#45;&gt;Node27 -->
<g id="edge32" class="edge"><title>Node2&#45;&gt;Node27</title>
<path fill="none" stroke="midnightblue" d="M298.687,-177.615C318.395,-157.456 349.763,-128.266 382,-110 392.563,-104.015 404.84,-99.2527 416.278,-95.5996"/>
<polygon fill="midnightblue" stroke="midnightblue" points="296.133,-175.222 291.728,-184.858 301.18,-180.073 296.133,-175.222"/>
</g>
<!-- Node28 -->
<g id="node28" class="node"><title>Node28</title>
<g id="a_node28"><a xlink:href="../../d4/d64/classview_1_1_view_updater.html#a9797c2f411ad272a0feb84c26836bfd4" target="_top" xlink:title="view.ViewUpdater.showTurtle">
<polygon fill="white" stroke="black" points="584,-190.5 584,-209.5 736,-209.5 736,-190.5 584,-190.5"/>
<text text-anchor="middle" x="660" y="-197.5" font-family="Helvetica,sans-Serif" font-size="10.00">view.ViewUpdater.showTurtle</text>
</a>
</g>
</g>
<!-- Node2&#45;&gt;Node28 -->
<g id="edge33" class="edge"><title>Node2&#45;&gt;Node28</title>
<path fill="none" stroke="midnightblue" d="M356.155,-200C422.866,-200 518.177,-200 583.974,-200"/>
<polygon fill="midnightblue" stroke="midnightblue" points="356.115,-196.5 346.115,-200 356.115,-203.5 356.115,-196.5"/>
</g>
<!-- Node29 -->
<g id="node29" class="node"><title>Node29</title>
<g id="a_node29"><a xlink:href="../../d6/de7/classview_1_1_s_logo_view.html#a00710838e28dcb10fe6da3c0ec0c4e20" target="_top" xlink:title="view.SLogoView.showTurtle">
<polygon fill="white" stroke="black" points="384.5,-0.5 384.5,-19.5 527.5,-19.5 527.5,-0.5 384.5,-0.5"/>
<text text-anchor="middle" x="456" y="-7.5" font-family="Helvetica,sans-Serif" font-size="10.00">view.SLogoView.showTurtle</text>
</a>
</g>
</g>
<!-- Node2&#45;&gt;Node29 -->
<g id="edge35" class="edge"><title>Node2&#45;&gt;Node29</title>
<path fill="none" stroke="midnightblue" d="M287.074,-175.368C301.621,-139.209 333.542,-71.9495 382,-34 390.088,-27.6663 399.914,-22.9714 409.702,-19.5026"/>
<polygon fill="midnightblue" stroke="midnightblue" points="283.81,-174.104 283.432,-184.692 290.331,-176.65 283.81,-174.104"/>
</g>
<!-- Node4 -->
<g id="node4" class="node"><title>Node4</title>
<g id="a_node4"><a xlink:href="../../d1/dd3/classmodel_1_1instructions_1_1_movement_instruction.html#a33e802cec8283d190a8daac6e485e3b4" target="_top" xlink:title="model.instructions.Movement\lInstruction.execute">
<polygon fill="white" stroke="black" points="986.5,-220 986.5,-250 1145.5,-250 1145.5,-220 986.5,-220"/>
<text text-anchor="start" x="994.5" y="-238" font-family="Helvetica,sans-Serif" font-size="10.00">model.instructions.Movement</text>
<text text-anchor="middle" x="1066" y="-227" font-family="Helvetica,sans-Serif" font-size="10.00">Instruction.execute</text>
</a>
</g>
</g>
<!-- Node3&#45;&gt;Node4 -->
<g id="edge3" class="edge"><title>Node3&#45;&gt;Node4</title>
<path fill="none" stroke="midnightblue" d="M913.642,-298.457C925.505,-294.711 938.333,-290.417 950,-286 978.8,-275.095 1010.76,-260.732 1033.66,-250.027"/>
<polygon fill="midnightblue" stroke="midnightblue" points="912.463,-295.159 903.95,-301.466 914.538,-301.844 912.463,-295.159"/>
</g>
<!-- Node6 -->
<g id="node6" class="node"><title>Node6</title>
<g id="a_node6"><a xlink:href="../../d4/d64/classview_1_1_view_updater.html#adc0790ceed057768bd5a29a470e626d1" target="_top" xlink:title="view.ViewUpdater.updateWorkspace">
<polygon fill="white" stroke="black" points="566.5,-266.5 566.5,-285.5 753.5,-285.5 753.5,-266.5 566.5,-266.5"/>
<text text-anchor="middle" x="660" y="-273.5" font-family="Helvetica,sans-Serif" font-size="10.00">view.ViewUpdater.updateWorkspace</text>
</a>
</g>
</g>
<!-- Node5&#45;&gt;Node6 -->
<g id="edge5" class="edge"><title>Node5&#45;&gt;Node6</title>
<path fill="none" stroke="midnightblue" d="M515.362,-276C531.351,-276 549.088,-276 566.485,-276"/>
<polygon fill="midnightblue" stroke="midnightblue" points="515.127,-272.5 505.127,-276 515.127,-279.5 515.127,-272.5"/>
</g>
<!-- Node7 -->
<g id="node7" class="node"><title>Node7</title>
<g id="a_node7"><a xlink:href="../../d1/dd3/classmodel_1_1instructions_1_1_movement_instruction.html#a51c776093aeb820937b12e2b89eb2f89" target="_top" xlink:title="model.instructions.Movement\lInstruction.updateView">
<polygon fill="white" stroke="black" points="790.5,-247 790.5,-277 949.5,-277 949.5,-247 790.5,-247"/>
<text text-anchor="start" x="798.5" y="-265" font-family="Helvetica,sans-Serif" font-size="10.00">model.instructions.Movement</text>
<text text-anchor="middle" x="870" y="-254" font-family="Helvetica,sans-Serif" font-size="10.00">Instruction.updateView</text>
</a>
</g>
</g>
<!-- Node6&#45;&gt;Node7 -->
<g id="edge6" class="edge"><title>Node6&#45;&gt;Node7</title>
<path fill="none" stroke="midnightblue" d="M763.821,-269.079C772.762,-268.478 781.714,-267.875 790.413,-267.289"/>
<polygon fill="midnightblue" stroke="midnightblue" points="763.489,-265.594 753.746,-269.757 763.959,-272.578 763.489,-265.594"/>
</g>
<!-- Node7&#45;&gt;Node4 -->
<g id="edge7" class="edge"><title>Node7&#45;&gt;Node4</title>
<path fill="none" stroke="midnightblue" d="M959.608,-249.668C968.498,-248.431 977.483,-247.18 986.26,-245.959"/>
<polygon fill="midnightblue" stroke="midnightblue" points="959.05,-246.212 949.628,-251.057 960.015,-253.145 959.05,-246.212"/>
</g>
<!-- Node9 -->
<g id="node9" class="node"><title>Node9</title>
<g id="a_node9"><a xlink:href="../../da/d64/classview_1_1_workspace.html#abbd85b844575ebab6643ba4ddc5a1612" target="_top" xlink:title="view.Workspace.Workspace">
<polygon fill="white" stroke="black" points="994,-380.5 994,-399.5 1138,-399.5 1138,-380.5 994,-380.5"/>
<text text-anchor="middle" x="1066" y="-387.5" font-family="Helvetica,sans-Serif" font-size="10.00">view.Workspace.Workspace</text>
</a>
</g>
</g>
<!-- Node8&#45;&gt;Node9 -->
<g id="edge9" class="edge"><title>Node8&#45;&gt;Node9</title>
<path fill="none" stroke="midnightblue" d="M534.799,-395.232C653.66,-394.059 878.74,-391.838 993.632,-390.704"/>
<polygon fill="midnightblue" stroke="midnightblue" points="534.647,-391.733 524.682,-395.332 534.716,-398.733 534.647,-391.733"/>
</g>
<!-- Node10 -->
<g id="node10" class="node"><title>Node10</title>
<g id="a_node10"><a xlink:href="../../da/d64/classview_1_1_workspace.html#a9eea72f983d5e7ad5af85056d927e380" target="_top" xlink:title="view.Workspace.configure\lTurtleEventHandler">
<polygon fill="white" stroke="black" points="591.5,-419 591.5,-449 728.5,-449 728.5,-419 591.5,-419"/>
<text text-anchor="start" x="599.5" y="-437" font-family="Helvetica,sans-Serif" font-size="10.00">view.Workspace.configure</text>
<text text-anchor="middle" x="660" y="-426" font-family="Helvetica,sans-Serif" font-size="10.00">TurtleEventHandler</text>
</a>
</g>
</g>
<!-- Node8&#45;&gt;Node10 -->
<g id="edge10" class="edge"><title>Node8&#45;&gt;Node10</title>
<path fill="none" stroke="midnightblue" d="M534.488,-410.577C553.165,-414.091 572.979,-417.818 591.176,-421.241"/>
<polygon fill="midnightblue" stroke="midnightblue" points="535.019,-407.115 524.544,-408.706 533.724,-413.995 535.019,-407.115"/>
</g>
<!-- Node11 -->
<g id="node11" class="node"><title>Node11</title>
<g id="a_node11"><a xlink:href="../../da/d64/classview_1_1_workspace.html#a4abde41a3048fa8f64ddfec40c8ffdb7" target="_top" xlink:title="view.Workspace.addTurtle">
<polygon fill="white" stroke="black" points="801.5,-424.5 801.5,-443.5 938.5,-443.5 938.5,-424.5 801.5,-424.5"/>
<text text-anchor="middle" x="870" y="-431.5" font-family="Helvetica,sans-Serif" font-size="10.00">view.Workspace.addTurtle</text>
</a>
</g>
</g>
<!-- Node10&#45;&gt;Node11 -->
<g id="edge11" class="edge"><title>Node10&#45;&gt;Node11</title>
<path fill="none" stroke="midnightblue" d="M738.541,-434C759.208,-434 781.368,-434 801.452,-434"/>
<polygon fill="midnightblue" stroke="midnightblue" points="738.532,-430.5 728.532,-434 738.532,-437.5 738.532,-430.5"/>
</g>
<!-- Node11&#45;&gt;Node9 -->
<g id="edge21" class="edge"><title>Node11&#45;&gt;Node9</title>
<path fill="none" stroke="midnightblue" d="M922.957,-422.216C954.274,-415.113 993.643,-406.184 1022.99,-399.529"/>
<polygon fill="midnightblue" stroke="midnightblue" points="922.073,-418.827 913.095,-424.453 923.622,-425.654 922.073,-418.827"/>
</g>
<!-- Node12 -->
<g id="node12" class="node"><title>Node12</title>
<g id="a_node12"><a xlink:href="../../d6/de7/classview_1_1_s_logo_view.html#acf432f20e1a7dda7bef97f0619fb0fa5" target="_top" xlink:title="view.SLogoView.configure\lAddTurtlesButton">
<polygon fill="white" stroke="black" points="997.5,-419 997.5,-449 1134.5,-449 1134.5,-419 997.5,-419"/>
<text text-anchor="start" x="1005.5" y="-437" font-family="Helvetica,sans-Serif" font-size="10.00">view.SLogoView.configure</text>
<text text-anchor="middle" x="1066" y="-426" font-family="Helvetica,sans-Serif" font-size="10.00">AddTurtlesButton</text>
</a>
</g>
</g>
<!-- Node11&#45;&gt;Node12 -->
<g id="edge12" class="edge"><title>Node11&#45;&gt;Node12</title>
<path fill="none" stroke="midnightblue" d="M948.979,-434C964.99,-434 981.722,-434 997.334,-434"/>
<polygon fill="midnightblue" stroke="midnightblue" points="948.579,-430.5 938.579,-434 948.579,-437.5 948.579,-430.5"/>
</g>
<!-- Node13 -->
<g id="node13" class="node"><title>Node13</title>
<g id="a_node13"><a xlink:href="../../d6/de7/classview_1_1_s_logo_view.html#ae0050481c9168dd8eeb434d9aa79b047" target="_top" xlink:title="view.SLogoView.configureUI">
<polygon fill="white" stroke="black" points="1182.5,-424.5 1182.5,-443.5 1329.5,-443.5 1329.5,-424.5 1182.5,-424.5"/>
<text text-anchor="middle" x="1256" y="-431.5" font-family="Helvetica,sans-Serif" font-size="10.00">view.SLogoView.configureUI</text>
</a>
</g>
</g>
<!-- Node12&#45;&gt;Node13 -->
<g id="edge13" class="edge"><title>Node12&#45;&gt;Node13</title>
<path fill="none" stroke="midnightblue" d="M1144.89,-434C1157.27,-434 1170.02,-434 1182.27,-434"/>
<polygon fill="midnightblue" stroke="midnightblue" points="1144.61,-430.5 1134.61,-434 1144.61,-437.5 1144.61,-430.5"/>
</g>
<!-- Node14 -->
<g id="node14" class="node"><title>Node14</title>
<g id="a_node14"><a xlink:href="../../d1/d75/classview_1_1_main_view.html#ade3718ede33fa2086649c8b3cf75d2f9" target="_top" xlink:title="view.MainView.initTabs">
<polygon fill="white" stroke="black" points="1547.5,-443.5 1547.5,-462.5 1668.5,-462.5 1668.5,-443.5 1547.5,-443.5"/>
<text text-anchor="middle" x="1608" y="-450.5" font-family="Helvetica,sans-Serif" font-size="10.00">view.MainView.initTabs</text>
</a>
</g>
</g>
<!-- Node13&#45;&gt;Node14 -->
<g id="edge14" class="edge"><title>Node13&#45;&gt;Node14</title>
<path fill="none" stroke="midnightblue" d="M1339.56,-438.482C1403.37,-441.946 1490.18,-446.658 1547.36,-449.762"/>
<polygon fill="midnightblue" stroke="midnightblue" points="1339.7,-434.984 1329.52,-437.937 1339.32,-441.974 1339.7,-434.984"/>
</g>
<!-- Node16 -->
<g id="node16" class="node"><title>Node16</title>
<g id="a_node16"><a xlink:href="../../d1/d75/classview_1_1_main_view.html#a39a2b399924a553ccd89dd2a2e6ea208" target="_top" xlink:title="view.MainView.newTab">
<polygon fill="white" stroke="black" points="1366,-405.5 1366,-424.5 1486,-424.5 1486,-405.5 1366,-405.5"/>
<text text-anchor="middle" x="1426" y="-412.5" font-family="Helvetica,sans-Serif" font-size="10.00">view.MainView.newTab</text>
</a>
</g>
</g>
<!-- Node13&#45;&gt;Node16 -->
<g id="edge16" class="edge"><title>Node13&#45;&gt;Node16</title>
<path fill="none" stroke="midnightblue" d="M1339.65,-424.652C1348.49,-423.653 1357.34,-422.652 1365.82,-421.693"/>
<polygon fill="midnightblue" stroke="midnightblue" points="1339.25,-421.175 1329.71,-425.777 1340.04,-428.131 1339.25,-421.175"/>
</g>
<!-- Node15 -->
<g id="node15" class="node"><title>Node15</title>
<g id="a_node15"><a xlink:href="../../d1/d75/classview_1_1_main_view.html#a9e27015c007bed90f32c79fc1187083f" target="_top" xlink:title="view.MainView.MainView">
<polygon fill="white" stroke="black" points="2148,-424.5 2148,-443.5 2278,-443.5 2278,-424.5 2148,-424.5"/>
<text text-anchor="middle" x="2213" y="-431.5" font-family="Helvetica,sans-Serif" font-size="10.00">view.MainView.MainView</text>
</a>
</g>
</g>
<!-- Node14&#45;&gt;Node15 -->
<g id="edge15" class="edge"><title>Node14&#45;&gt;Node15</title>
<path fill="none" stroke="midnightblue" d="M1678.74,-450.803C1796.6,-447.089 2033.48,-439.625 2147.62,-436.029"/>
<polygon fill="midnightblue" stroke="midnightblue" points="1678.63,-447.304 1668.75,-451.117 1678.85,-454.301 1678.63,-447.304"/>
</g>
<!-- Node17 -->
<g id="node17" class="node"><title>Node17</title>
<g id="a_node17"><a xlink:href="../../d1/d75/classview_1_1_main_view.html#a0424800b5057be73f94e16ef2e1e2b33" target="_top" xlink:title="view.MainView.configureFileMenu">
<polygon fill="white" stroke="black" points="1522.5,-405.5 1522.5,-424.5 1693.5,-424.5 1693.5,-405.5 1522.5,-405.5"/>
<text text-anchor="middle" x="1608" y="-412.5" font-family="Helvetica,sans-Serif" font-size="10.00">view.MainView.configureFileMenu</text>
</a>
</g>
</g>
<!-- Node16&#45;&gt;Node17 -->
<g id="edge17" class="edge"><title>Node16&#45;&gt;Node17</title>
<path fill="none" stroke="midnightblue" d="M1496.55,-415C1504.96,-415 1513.62,-415 1522.22,-415"/>
<polygon fill="midnightblue" stroke="midnightblue" points="1496.44,-411.5 1486.44,-415 1496.44,-418.5 1496.44,-411.5"/>
</g>
<!-- Node18 -->
<g id="node18" class="node"><title>Node18</title>
<g id="a_node18"><a xlink:href="../../d1/d75/classview_1_1_main_view.html#a200c2c8e08e038e2ea86acc40c17d8d2" target="_top" xlink:title="view.MainView.configureTopMenu">
<polygon fill="white" stroke="black" points="1730,-405.5 1730,-424.5 1902,-424.5 1902,-405.5 1730,-405.5"/>
<text text-anchor="middle" x="1816" y="-412.5" font-family="Helvetica,sans-Serif" font-size="10.00">view.MainView.configureTopMenu</text>
</a>
</g>
</g>
<!-- Node17&#45;&gt;Node18 -->
<g id="edge18" class="edge"><title>Node17&#45;&gt;Node18</title>
<path fill="none" stroke="midnightblue" d="M1703.86,-415C1712.57,-415 1721.36,-415 1729.98,-415"/>
<polygon fill="midnightblue" stroke="midnightblue" points="1703.68,-411.5 1693.68,-415 1703.68,-418.5 1703.68,-411.5"/>
</g>
<!-- Node19 -->
<g id="node19" class="node"><title>Node19</title>
<g id="a_node19"><a xlink:href="../../d1/d75/classview_1_1_main_view.html#aff9e267e9368512a16e425f08d7b3ea0" target="_top" xlink:title="view.MainView.initRowConstraints">
<polygon fill="white" stroke="black" points="1938.5,-405.5 1938.5,-424.5 2111.5,-424.5 2111.5,-405.5 1938.5,-405.5"/>
<text text-anchor="middle" x="2025" y="-412.5" font-family="Helvetica,sans-Serif" font-size="10.00">view.MainView.initRowConstraints</text>
</a>
</g>
</g>
<!-- Node18&#45;&gt;Node19 -->
<g id="edge19" class="edge"><title>Node18&#45;&gt;Node19</title>
<path fill="none" stroke="midnightblue" d="M1912.22,-415C1920.9,-415 1929.65,-415 1938.24,-415"/>
<polygon fill="midnightblue" stroke="midnightblue" points="1912.09,-411.5 1902.09,-415 1912.09,-418.5 1912.09,-411.5"/>
</g>
<!-- Node19&#45;&gt;Node15 -->
<g id="edge20" class="edge"><title>Node19&#45;&gt;Node15</title>
<path fill="none" stroke="midnightblue" d="M2121.68,-424.774C2130.57,-425.682 2139.43,-426.587 2147.92,-427.455"/>
<polygon fill="midnightblue" stroke="midnightblue" points="2121.95,-421.284 2111.65,-423.749 2121.24,-428.247 2121.95,-421.284"/>
</g>
<!-- Node21 -->
<g id="node21" class="node"><title>Node21</title>
<g id="a_node21"><a xlink:href="../../d4/d64/classview_1_1_view_updater.html#ad29dfbb2499161b985c26e01f73ea5ac" target="_top" xlink:title="view.ViewUpdater.towards">
<polygon fill="white" stroke="black" points="800,-143.5 800,-162.5 940,-162.5 940,-143.5 800,-143.5"/>
<text text-anchor="middle" x="870" y="-150.5" font-family="Helvetica,sans-Serif" font-size="10.00">view.ViewUpdater.towards</text>
</a>
</g>
</g>
<!-- Node20&#45;&gt;Node21 -->
<g id="edge23" class="edge"><title>Node20&#45;&gt;Node21</title>
<path fill="none" stroke="midnightblue" d="M749.207,-147.241C766.152,-148.055 783.669,-148.898 799.903,-149.678"/>
<polygon fill="midnightblue" stroke="midnightblue" points="748.904,-143.722 738.747,-146.738 748.568,-150.714 748.904,-143.722"/>
</g>
<!-- Node21&#45;&gt;Node4 -->
<g id="edge24" class="edge"><title>Node21&#45;&gt;Node4</title>
<path fill="none" stroke="midnightblue" d="M902.858,-166.466C937.632,-181.164 993.174,-204.641 1029.37,-219.94"/>
<polygon fill="midnightblue" stroke="midnightblue" points="904.208,-163.236 893.634,-162.567 901.482,-169.684 904.208,-163.236"/>
</g>
<!-- Node23 -->
<g id="node23" class="node"><title>Node23</title>
<g id="a_node23"><a xlink:href="../../d6/de7/classview_1_1_s_logo_view.html#afa2b659c4d080b5f927978b453633ab2" target="_top" xlink:title="view.SLogoView.towards">
<polygon fill="white" stroke="black" points="594.5,-228.5 594.5,-247.5 725.5,-247.5 725.5,-228.5 594.5,-228.5"/>
<text text-anchor="middle" x="660" y="-235.5" font-family="Helvetica,sans-Serif" font-size="10.00">view.SLogoView.towards</text>
</a>
</g>
</g>
<!-- Node22&#45;&gt;Node23 -->
<g id="edge26" class="edge"><title>Node22&#45;&gt;Node23</title>
<path fill="none" stroke="midnightblue" d="M540.42,-238C558.438,-238 577.226,-238 594.395,-238"/>
<polygon fill="midnightblue" stroke="midnightblue" points="540.212,-234.5 530.212,-238 540.212,-241.5 540.212,-234.5"/>
</g>
<!-- Node24&#45;&gt;Node4 -->
<g id="edge28" class="edge"><title>Node24&#45;&gt;Node4</title>
<path fill="none" stroke="midnightblue" d="M744.892,-81.9341C804.655,-88.1579 885.491,-102.223 950,-134 993.383,-155.37 1033.21,-197.403 1052.6,-219.918"/>
<polygon fill="midnightblue" stroke="midnightblue" points="745.034,-78.4312 734.739,-80.9307 744.346,-85.3973 745.034,-78.4312"/>
</g>
<!-- Node26&#45;&gt;Node4 -->
<g id="edge31" class="edge"><title>Node26&#45;&gt;Node4</title>
<path fill="none" stroke="midnightblue" d="M930.277,-338.26C937.093,-335.919 943.81,-333.184 950,-330 990.99,-308.913 1030.58,-271.222 1050.89,-250.211"/>
<polygon fill="midnightblue" stroke="midnightblue" points="928.755,-335.07 920.27,-341.414 930.859,-341.746 928.755,-335.07"/>
</g>
<!-- Node28&#45;&gt;Node4 -->
<g id="edge34" class="edge"><title>Node28&#45;&gt;Node4</title>
<path fill="none" stroke="midnightblue" d="M746.28,-207.388C817.155,-213.528 917.212,-222.197 986.221,-228.175"/>
<polygon fill="midnightblue" stroke="midnightblue" points="746.307,-203.877 736.042,-206.501 745.703,-210.851 746.307,-203.877"/>
</g>
</g>
</svg>
        <g id="navigator" transform="translate(0 0)" fill="#404254">
                <rect fill="#f2f5e9" fill-opacity="0.5" stroke="#606060" stroke-width=".5" x="0" y="0" width="60" height="60"/>
                <use id="zoomplus" xlink:href="#zoomPlus" x="17" y="9" onmousedown="handleZoom(evt,'in')"/>
                <use id="zoomminus" xlink:href="#zoomMin" x="42" y="9" onmousedown="handleZoom(evt,'out')"/>
                <use id="reset" xlink:href="#resetDef" x="30" y="36" onmousedown="handleReset()"/>
                <g id="arrowUp" xlink:href="#dirArrow" transform="translate(30 24)" onmousedown="handlePan(0,-1)">
                  <use xlink:href="#rim" fill="#404040">
                        <set attributeName="fill" to="#808080" begin="arrowUp.mouseover" end="arrowUp.mouseout"/>
                  </use>
                  <path fill="none" stroke="white" stroke-width="1.5" d="M0,-3.0v7 M-2.5,-0.5L0,-3.0L2.5,-0.5"/>
                </g>
                <g id="arrowRight" xlink:href="#dirArrow" transform="rotate(90) translate(36 -43)" onmousedown="handlePan(1,0)">
                  <use xlink:href="#rim" fill="#404040">
                        <set attributeName="fill" to="#808080" begin="arrowRight.mouseover" end="arrowRight.mouseout"/>
                  </use>
                  <path fill="none" stroke="white" stroke-width="1.5" d="M0,-3.0v7 M-2.5,-0.5L0,-3.0L2.5,-0.5"/>
                </g>
                <g id="arrowDown" xlink:href="#dirArrow" transform="rotate(180) translate(-30 -48)" onmousedown="handlePan(0,1)">
                  <use xlink:href="#rim" fill="#404040">
                        <set attributeName="fill" to="#808080" begin="arrowDown.mouseover" end="arrowDown.mouseout"/>
                  </use>
                  <path fill="none" stroke="white" stroke-width="1.5" d="M0,-3.0v7 M-2.5,-0.5L0,-3.0L2.5,-0.5"/>
                </g>
                <g id="arrowLeft" xlink:href="#dirArrow" transform="rotate(270) translate(-36 17)" onmousedown="handlePan(-1,0)">
                  <use xlink:href="#rim" fill="#404040">
                        <set attributeName="fill" to="#808080" begin="arrowLeft.mouseover" end="arrowLeft.mouseout"/>
                  </use>
                  <path fill="none" stroke="white" stroke-width="1.5" d="M0,-3.0v7 M-2.5,-0.5L0,-3.0L2.5,-0.5"/>
                </g>
        </g>
        <svg viewBox="0 0 15 15" width="100%" height="30px" preserveAspectRatio="xMaxYMin meet">
         <g id="arrow_out" transform="scale(0.3 0.3)">
          <a xlink:href="classview_1_1_turtle_properties_view_af07bce3cf2bed2814a0fb3812d00b69e_icgraph_org.svg" target="_base">
           <rect id="button" ry="5" rx="5" y="6" x="6" height="38" width="38"
                fill="#f2f5e9" fill-opacity="0.5" stroke="#606060" stroke-width="1.0"/>
           <path id="arrow"
             d="M 11.500037,31.436501 C 11.940474,20.09759 22.043105,11.32322 32.158766,21.979434 L 37.068811,17.246167 C 37.068811,17.246167 37.088388,32 37.088388,32 L 22.160133,31.978069 C 22.160133,31.978069 26.997745,27.140456 26.997745,27.140456 C 18.528582,18.264221 13.291696,25.230495 11.500037,31.436501 z"
             style="fill:#404040;"/>
          </a>
         </g>
        </svg>
</svg>
