<?xml version="1.0" encoding="UTF-8" standalone="no"?>
<!DOCTYPE svg PUBLIC "-//W3C//DTD SVG 1.1//EN"
 "http://www.w3.org/Graphics/SVG/1.1/DTD/svg11.dtd">
<!-- Generated by graphviz version 2.36.0 (20140111.2315)
 -->
<!-- Title: view.CustomizationBar.setParser Pages: 1 -->
<svg width="1282pt" height="66pt"
 viewBox="0.00 0.00 1282.00 66.00" xmlns="http://www.w3.org/2000/svg" xmlns:xlink="http://www.w3.org/1999/xlink">
<g id="graph0" class="graph" transform="scale(1 1) rotate(0) translate(4 62)">
<title>view.CustomizationBar.setParser</title>
<polygon fill="white" stroke="none" points="-4,4 -4,-62 1278,-62 1278,4 -4,4"/>
<!-- Node1 -->
<g id="node1" class="node"><title>Node1</title>
<polygon fill="#bfbfbf" stroke="black" points="0,-14 0,-44 142,-44 142,-14 0,-14"/>
<text text-anchor="start" x="8" y="-32" font-family="Helvetica,sans-Serif" font-size="10.00">view.CustomizationBar.set</text>
<text text-anchor="middle" x="71" y="-21" font-family="Helvetica,sans-Serif" font-size="10.00">Parser</text>
</g>
<!-- Node2 -->
<g id="node2" class="node"><title>Node2</title>
<g id="a_node2"><a xlink:href="../../d6/de7/classview_1_1_s_logo_view.html#ae0050481c9168dd8eeb434d9aa79b047" target="_top" xlink:title="view.SLogoView.configureUI">
<polygon fill="white" stroke="black" points="178.5,-19.5 178.5,-38.5 325.5,-38.5 325.5,-19.5 178.5,-19.5"/>
<text text-anchor="middle" x="252" y="-26.5" font-family="Helvetica,sans-Serif" font-size="10.00">view.SLogoView.configureUI</text>
</a>
</g>
</g>
<!-- Node1&#45;&gt;Node2 -->
<g id="edge1" class="edge"><title>Node1&#45;&gt;Node2</title>
<path fill="none" stroke="midnightblue" d="M152.324,-29C160.983,-29 169.758,-29 178.32,-29"/>
<polygon fill="midnightblue" stroke="midnightblue" points="152.232,-25.5001 142.232,-29 152.232,-32.5001 152.232,-25.5001"/>
</g>
<!-- Node3 -->
<g id="node3" class="node"><title>Node3</title>
<g id="a_node3"><a xlink:href="../../d1/d75/classview_1_1_main_view.html#ade3718ede33fa2086649c8b3cf75d2f9" target="_top" xlink:title="view.MainView.initTabs">
<polygon fill="white" stroke="black" points="543.5,-38.5 543.5,-57.5 664.5,-57.5 664.5,-38.5 543.5,-38.5"/>
<text text-anchor="middle" x="604" y="-45.5" font-family="Helvetica,sans-Serif" font-size="10.00">view.MainView.initTabs</text>
</a>
</g>
</g>
<!-- Node2&#45;&gt;Node3 -->
<g id="edge2" class="edge"><title>Node2&#45;&gt;Node3</title>
<path fill="none" stroke="midnightblue" d="M335.556,-33.4816C399.367,-36.9457 486.18,-41.6584 543.361,-44.7624"/>
<polygon fill="midnightblue" stroke="midnightblue" points="335.695,-29.9841 325.52,-32.9368 335.316,-36.9738 335.695,-29.9841"/>
</g>
<!-- Node5 -->
<g id="node5" class="node"><title>Node5</title>
<g id="a_node5"><a xlink:href="../../d1/d75/classview_1_1_main_view.html#a39a2b399924a553ccd89dd2a2e6ea208" target="_top" xlink:title="view.MainView.newTab">
<polygon fill="white" stroke="black" points="362,-0.5 362,-19.5 482,-19.5 482,-0.5 362,-0.5"/>
<text text-anchor="middle" x="422" y="-7.5" font-family="Helvetica,sans-Serif" font-size="10.00">view.MainView.newTab</text>
</a>
</g>
</g>
<!-- Node2&#45;&gt;Node5 -->
<g id="edge4" class="edge"><title>Node2&#45;&gt;Node5</title>
<path fill="none" stroke="midnightblue" d="M335.654,-19.6523C344.487,-18.6533 353.339,-17.6521 361.821,-16.6928"/>
<polygon fill="midnightblue" stroke="midnightblue" points="335.253,-16.1751 325.71,-20.7768 336.04,-23.1308 335.253,-16.1751"/>
</g>
<!-- Node4 -->
<g id="node4" class="node"><title>Node4</title>
<g id="a_node4"><a xlink:href="../../d1/d75/classview_1_1_main_view.html#a9e27015c007bed90f32c79fc1187083f" target="_top" xlink:title="view.MainView.MainView">
<polygon fill="white" stroke="black" points="1144,-19.5 1144,-38.5 1274,-38.5 1274,-19.5 1144,-19.5"/>
<text text-anchor="middle" x="1209" y="-26.5" font-family="Helvetica,sans-Serif" font-size="10.00">view.MainView.MainView</text>
</a>
</g>
</g>
<!-- Node3&#45;&gt;Node4 -->
<g id="edge3" class="edge"><title>Node3&#45;&gt;Node4</title>
<path fill="none" stroke="midnightblue" d="M674.741,-45.8025C792.604,-42.0888 1029.48,-34.625 1143.62,-31.0286"/>
<polygon fill="midnightblue" stroke="midnightblue" points="674.63,-42.3042 664.745,-46.1175 674.85,-49.3007 674.63,-42.3042"/>
</g>
<!-- Node6 -->
<g id="node6" class="node"><title>Node6</title>
<g id="a_node6"><a xlink:href="../../d1/d75/classview_1_1_main_view.html#a0424800b5057be73f94e16ef2e1e2b33" target="_top" xlink:title="view.MainView.configureFileMenu">
<polygon fill="white" stroke="black" points="518.5,-0.5 518.5,-19.5 689.5,-19.5 689.5,-0.5 518.5,-0.5"/>
<text text-anchor="middle" x="604" y="-7.5" font-family="Helvetica,sans-Serif" font-size="10.00">view.MainView.configureFileMenu</text>
</a>
</g>
</g>
<!-- Node5&#45;&gt;Node6 -->
<g id="edge5" class="edge"><title>Node5&#45;&gt;Node6</title>
<path fill="none" stroke="midnightblue" d="M492.551,-10C500.961,-10 509.623,-10 518.221,-10"/>
<polygon fill="midnightblue" stroke="midnightblue" points="492.438,-6.5001 482.438,-10 492.438,-13.5001 492.438,-6.5001"/>
</g>
<!-- Node7 -->
<g id="node7" class="node"><title>Node7</title>
<g id="a_node7"><a xlink:href="../../d1/d75/classview_1_1_main_view.html#a200c2c8e08e038e2ea86acc40c17d8d2" target="_top" xlink:title="view.MainView.configureTopMenu">
<polygon fill="white" stroke="black" points="726,-0.5 726,-19.5 898,-19.5 898,-0.5 726,-0.5"/>
<text text-anchor="middle" x="812" y="-7.5" font-family="Helvetica,sans-Serif" font-size="10.00">view.MainView.configureTopMenu</text>
</a>
</g>
</g>
<!-- Node6&#45;&gt;Node7 -->
<g id="edge6" class="edge"><title>Node6&#45;&gt;Node7</title>
<path fill="none" stroke="midnightblue" d="M699.858,-10C708.572,-10 717.364,-10 725.983,-10"/>
<polygon fill="midnightblue" stroke="midnightblue" points="699.68,-6.5001 689.68,-10 699.68,-13.5001 699.68,-6.5001"/>
</g>
<!-- Node8 -->
<g id="node8" class="node"><title>Node8</title>
<g id="a_node8"><a xlink:href="../../d1/d75/classview_1_1_main_view.html#aff9e267e9368512a16e425f08d7b3ea0" target="_top" xlink:title="view.MainView.initRowConstraints">
<polygon fill="white" stroke="black" points="934.5,-0.5 934.5,-19.5 1107.5,-19.5 1107.5,-0.5 934.5,-0.5"/>
<text text-anchor="middle" x="1021" y="-7.5" font-family="Helvetica,sans-Serif" font-size="10.00">view.MainView.initRowConstraints</text>
</a>
</g>
</g>
<!-- Node7&#45;&gt;Node8 -->
<g id="edge7" class="edge"><title>Node7&#45;&gt;Node8</title>
<path fill="none" stroke="midnightblue" d="M908.224,-10C916.898,-10 925.651,-10 934.236,-10"/>
<polygon fill="midnightblue" stroke="midnightblue" points="908.091,-6.5001 898.091,-10 908.091,-13.5001 908.091,-6.5001"/>
</g>
<!-- Node8&#45;&gt;Node4 -->
<g id="edge8" class="edge"><title>Node8&#45;&gt;Node4</title>
<path fill="none" stroke="midnightblue" d="M1117.68,-19.774C1126.57,-20.6819 1135.43,-21.5866 1143.92,-22.4546"/>
<polygon fill="midnightblue" stroke="midnightblue" points="1117.95,-16.2837 1107.65,-18.7492 1117.24,-23.2474 1117.95,-16.2837"/>
</g>
</g>
</svg>
