<?xml version="1.0" encoding="UTF-8" standalone="no"?>
<!DOCTYPE svg PUBLIC "-//W3C//DTD SVG 1.1//EN"
 "http://www.w3.org/Graphics/SVG/1.1/DTD/svg11.dtd">
<!-- Generated by graphviz version 2.36.0 (20140111.2315)
 -->
<!-- Title: view.CustomizationBar.selectTurtleImage Pages: 1 -->
<svg width="558pt" height="111pt"
 viewBox="0.00 0.00 558.00 111.00" xmlns="http://www.w3.org/2000/svg" xmlns:xlink="http://www.w3.org/1999/xlink">
<g id="graph0" class="graph" transform="scale(1 1) rotate(0) translate(4 107)">
<title>view.CustomizationBar.selectTurtleImage</title>
<polygon fill="white" stroke="none" points="-4,4 -4,-107 554,-107 554,4 -4,4"/>
<!-- Node1 -->
<g id="node1" class="node"><title>Node1</title>
<polygon fill="#bfbfbf" stroke="black" points="0.5,-48 0.5,-78 155.5,-78 155.5,-48 0.5,-48"/>
<text text-anchor="start" x="8.5" y="-66" font-family="Helvetica,sans-Serif" font-size="10.00">view.CustomizationBar.select</text>
<text text-anchor="middle" x="78" y="-55" font-family="Helvetica,sans-Serif" font-size="10.00">TurtleImage</text>
</g>
<!-- Node2 -->
<g id="node2" class="node"><title>Node2</title>
<g id="a_node2"><a xlink:href="../../da/d64/classview_1_1_workspace.html#a4fa39210415cbc1075098e1babd0cec7" target="_top" xlink:title="view.Workspace.getActive\lTurtle">
<polygon fill="white" stroke="black" points="203,-73 203,-103 341,-103 341,-73 203,-73"/>
<text text-anchor="start" x="211" y="-91" font-family="Helvetica,sans-Serif" font-size="10.00">view.Workspace.getActive</text>
<text text-anchor="middle" x="272" y="-80" font-family="Helvetica,sans-Serif" font-size="10.00">Turtle</text>
</a>
</g>
</g>
<!-- Node1&#45;&gt;Node2 -->
<g id="edge1" class="edge"><title>Node1&#45;&gt;Node2</title>
<path fill="none" stroke="midnightblue" d="M155.711,-72.9884C167.87,-74.5716 180.46,-76.2109 192.655,-77.7989"/>
<polygon fill="midnightblue" stroke="midnightblue" points="192.421,-81.2978 202.789,-79.1184 193.325,-74.3564 192.421,-81.2978"/>
</g>
<!-- Node3 -->
<g id="node3" class="node"><title>Node3</title>
<g id="a_node3"><a xlink:href="../../dc/d3c/classview_1_1_customization_bar.html#ad98fcd1097211e5f6ef464b20069a3cc" target="_top" xlink:title="view.CustomizationBar.upload\lTurtleFile">
<polygon fill="white" stroke="black" points="192.5,-24 192.5,-54 351.5,-54 351.5,-24 192.5,-24"/>
<text text-anchor="start" x="200.5" y="-42" font-family="Helvetica,sans-Serif" font-size="10.00">view.CustomizationBar.upload</text>
<text text-anchor="middle" x="272" y="-31" font-family="Helvetica,sans-Serif" font-size="10.00">TurtleFile</text>
</a>
</g>
</g>
<!-- Node1&#45;&gt;Node3 -->
<g id="edge2" class="edge"><title>Node1&#45;&gt;Node3</title>
<path fill="none" stroke="midnightblue" d="M155.711,-53.4111C164.439,-52.3202 173.388,-51.2015 182.254,-50.0932"/>
<polygon fill="midnightblue" stroke="midnightblue" points="182.725,-53.5618 192.213,-48.8484 181.856,-46.6158 182.725,-53.5618"/>
</g>
<!-- Node4 -->
<g id="node4" class="node"><title>Node4</title>
<g id="a_node4"><a xlink:href="../../dc/d3c/classview_1_1_customization_bar.html#a9d76f00becd679a5e4a69359e1d34fbe" target="_top" xlink:title="view.CustomizationBar.display\lFileChooser">
<polygon fill="white" stroke="black" points="389,-49 389,-79 549,-79 549,-49 389,-49"/>
<text text-anchor="start" x="397" y="-67" font-family="Helvetica,sans-Serif" font-size="10.00">view.CustomizationBar.display</text>
<text text-anchor="middle" x="469" y="-56" font-family="Helvetica,sans-Serif" font-size="10.00">FileChooser</text>
</a>
</g>
</g>
<!-- Node3&#45;&gt;Node4 -->
<g id="edge3" class="edge"><title>Node3&#45;&gt;Node4</title>
<path fill="none" stroke="midnightblue" d="M351.752,-49.0964C360.661,-50.2385 369.786,-51.4085 378.816,-52.5662"/>
<polygon fill="midnightblue" stroke="midnightblue" points="378.59,-56.0658 388.954,-53.8659 379.48,-49.1226 378.59,-56.0658"/>
</g>
<!-- Node5 -->
<g id="node5" class="node"><title>Node5</title>
<g id="a_node5"><a xlink:href="../../dc/d3c/classview_1_1_customization_bar.html#ae221c6a67bb7c267136c949d03f929fe" target="_top" xlink:title="view.CustomizationBar.change\lTurtleImage">
<polygon fill="white" stroke="black" points="388,-0 388,-30 550,-30 550,-0 388,-0"/>
<text text-anchor="start" x="396" y="-18" font-family="Helvetica,sans-Serif" font-size="10.00">view.CustomizationBar.change</text>
<text text-anchor="middle" x="469" y="-7" font-family="Helvetica,sans-Serif" font-size="10.00">TurtleImage</text>
</a>
</g>
</g>
<!-- Node3&#45;&gt;Node5 -->
<g id="edge4" class="edge"><title>Node3&#45;&gt;Node5</title>
<path fill="none" stroke="midnightblue" d="M351.752,-29.3075C360.261,-28.2602 368.968,-27.1886 377.6,-26.1261"/>
<polygon fill="midnightblue" stroke="midnightblue" points="378.186,-29.5805 387.683,-24.8851 377.331,-22.633 378.186,-29.5805"/>
</g>
</g>
</svg>
