<?xml version="1.0" encoding="UTF-8" standalone="no"?>
<!DOCTYPE svg PUBLIC "-//W3C//DTD SVG 1.1//EN"
 "http://www.w3.org/Graphics/SVG/1.1/DTD/svg11.dtd">
<!-- Generated by graphviz version 2.36.0 (20140111.2315)
 -->
<!-- Title: view.CustomizationBar.configureLanguageOptions Pages: 1 -->
<svg width="734pt" height="38pt"
 viewBox="0.00 0.00 734.00 38.00" xmlns="http://www.w3.org/2000/svg" xmlns:xlink="http://www.w3.org/1999/xlink">
<g id="graph0" class="graph" transform="scale(1 1) rotate(0) translate(4 34)">
<title>view.CustomizationBar.configureLanguageOptions</title>
<polygon fill="white" stroke="none" points="-4,4 -4,-34 730,-34 730,4 -4,4"/>
<!-- Node1 -->
<g id="node1" class="node"><title>Node1</title>
<polygon fill="#bfbfbf" stroke="black" points="0.5,-0 0.5,-30 171.5,-30 171.5,-0 0.5,-0"/>
<text text-anchor="start" x="8.5" y="-18" font-family="Helvetica,sans-Serif" font-size="10.00">view.CustomizationBar.configure</text>
<text text-anchor="middle" x="86" y="-7" font-family="Helvetica,sans-Serif" font-size="10.00">LanguageOptions</text>
</g>
<!-- Node2 -->
<g id="node2" class="node"><title>Node2</title>
<g id="a_node2"><a xlink:href="../../dc/df5/classmodel_1_1_parser.html#a25efafa72b39ed9bf714d0f0f161aa28" target="_top" xlink:title="model.Parser.setLanguage">
<polygon fill="white" stroke="black" points="208,-5.5 208,-24.5 352,-24.5 352,-5.5 208,-5.5"/>
<text text-anchor="middle" x="280" y="-12.5" font-family="Helvetica,sans-Serif" font-size="10.00">model.Parser.setLanguage</text>
</a>
</g>
</g>
<!-- Node1&#45;&gt;Node2 -->
<g id="edge1" class="edge"><title>Node1&#45;&gt;Node2</title>
<path fill="none" stroke="midnightblue" d="M171.773,-15C180.437,-15 189.225,-15 197.85,-15"/>
<polygon fill="midnightblue" stroke="midnightblue" points="197.881,-18.5001 207.881,-15 197.881,-11.5001 197.881,-18.5001"/>
</g>
<!-- Node3 -->
<g id="node3" class="node"><title>Node3</title>
<g id="a_node3"><a xlink:href="../../dc/df5/classmodel_1_1_parser.html#aa777d197a541c6ca6be224c0ce6754a5" target="_top" xlink:title="model.Parser.addAllPatterns">
<polygon fill="white" stroke="black" points="388.5,-5.5 388.5,-24.5 539.5,-24.5 539.5,-5.5 388.5,-5.5"/>
<text text-anchor="middle" x="464" y="-12.5" font-family="Helvetica,sans-Serif" font-size="10.00">model.Parser.addAllPatterns</text>
</a>
</g>
</g>
<!-- Node2&#45;&gt;Node3 -->
<g id="edge2" class="edge"><title>Node2&#45;&gt;Node3</title>
<path fill="none" stroke="midnightblue" d="M352.148,-15C360.675,-15 369.447,-15 378.144,-15"/>
<polygon fill="midnightblue" stroke="midnightblue" points="378.299,-18.5001 388.299,-15 378.299,-11.5001 378.299,-18.5001"/>
</g>
<!-- Node4 -->
<g id="node4" class="node"><title>Node4</title>
<g id="a_node4"><a xlink:href="../../dc/df5/classmodel_1_1_parser.html#ab8b41b81d9a6ea903b050ca5a5235004" target="_top" xlink:title="model.Parser.makePatterns">
<polygon fill="white" stroke="black" points="576.5,-5.5 576.5,-24.5 725.5,-24.5 725.5,-5.5 576.5,-5.5"/>
<text text-anchor="middle" x="651" y="-12.5" font-family="Helvetica,sans-Serif" font-size="10.00">model.Parser.makePatterns</text>
</a>
</g>
</g>
<!-- Node3&#45;&gt;Node4 -->
<g id="edge3" class="edge"><title>Node3&#45;&gt;Node4</title>
<path fill="none" stroke="midnightblue" d="M539.713,-15C548.363,-15 557.228,-15 565.99,-15"/>
<polygon fill="midnightblue" stroke="midnightblue" points="566.21,-18.5001 576.21,-15 566.21,-11.5001 566.21,-18.5001"/>
</g>
</g>
</svg>
