<?xml version="1.0" encoding="UTF-8" standalone="no"?>
<!DOCTYPE svg PUBLIC "-//W3C//DTD SVG 1.1//EN"
 "http://www.w3.org/Graphics/SVG/1.1/DTD/svg11.dtd">
<!-- Generated by graphviz version 2.36.0 (20140111.2315)
 -->
<!-- Title: view.CustomizationBar.displayFileChooser Pages: 1 -->
<svg width="804pt" height="38pt"
 viewBox="0.00 0.00 804.00 38.00" xmlns="http://www.w3.org/2000/svg" xmlns:xlink="http://www.w3.org/1999/xlink">
<g id="graph0" class="graph" transform="scale(1 1) rotate(0) translate(4 34)">
<title>view.CustomizationBar.displayFileChooser</title>
<polygon fill="white" stroke="none" points="-4,4 -4,-34 800,-34 800,4 -4,4"/>
<!-- Node1 -->
<g id="node1" class="node"><title>Node1</title>
<polygon fill="#bfbfbf" stroke="black" points="0,-0 0,-30 160,-30 160,-0 0,-0"/>
<text text-anchor="start" x="8" y="-18" font-family="Helvetica,sans-Serif" font-size="10.00">view.CustomizationBar.display</text>
<text text-anchor="middle" x="80" y="-7" font-family="Helvetica,sans-Serif" font-size="10.00">FileChooser</text>
</g>
<!-- Node2 -->
<g id="node2" class="node"><title>Node2</title>
<g id="a_node2"><a xlink:href="../../dc/d3c/classview_1_1_customization_bar.html#ad98fcd1097211e5f6ef464b20069a3cc" target="_top" xlink:title="view.CustomizationBar.upload\lTurtleFile">
<polygon fill="white" stroke="black" points="196.5,-0 196.5,-30 355.5,-30 355.5,-0 196.5,-0"/>
<text text-anchor="start" x="204.5" y="-18" font-family="Helvetica,sans-Serif" font-size="10.00">view.CustomizationBar.upload</text>
<text text-anchor="middle" x="276" y="-7" font-family="Helvetica,sans-Serif" font-size="10.00">TurtleFile</text>
</a>
</g>
</g>
<!-- Node1&#45;&gt;Node2 -->
<g id="edge1" class="edge"><title>Node1&#45;&gt;Node2</title>
<path fill="none" stroke="midnightblue" d="M170.336,-15C179.029,-15 187.804,-15 196.38,-15"/>
<polygon fill="midnightblue" stroke="midnightblue" points="170.187,-11.5001 160.187,-15 170.187,-18.5001 170.187,-11.5001"/>
</g>
<!-- Node3 -->
<g id="node3" class="node"><title>Node3</title>
<g id="a_node3"><a xlink:href="../../dc/d3c/classview_1_1_customization_bar.html#ae18b74e088e9b57a49249dfb7c920097" target="_top" xlink:title="view.CustomizationBar.select\lTurtleImage">
<polygon fill="white" stroke="black" points="392.5,-0 392.5,-30 547.5,-30 547.5,-0 392.5,-0"/>
<text text-anchor="start" x="400.5" y="-18" font-family="Helvetica,sans-Serif" font-size="10.00">view.CustomizationBar.select</text>
<text text-anchor="middle" x="470" y="-7" font-family="Helvetica,sans-Serif" font-size="10.00">TurtleImage</text>
</a>
</g>
</g>
<!-- Node2&#45;&gt;Node3 -->
<g id="edge2" class="edge"><title>Node2&#45;&gt;Node3</title>
<path fill="none" stroke="midnightblue" d="M365.656,-15C374.568,-15 383.564,-15 392.335,-15"/>
<polygon fill="midnightblue" stroke="midnightblue" points="365.648,-11.5001 355.648,-15 365.648,-18.5001 365.648,-11.5001"/>
</g>
<!-- Node4 -->
<g id="node4" class="node"><title>Node4</title>
<g id="a_node4"><a xlink:href="../../dc/d3c/classview_1_1_customization_bar.html#a51c9304001bd726b1bc57009a08c0f5f" target="_top" xlink:title="view.CustomizationBar.CustomizationBar">
<polygon fill="white" stroke="black" points="584,-5.5 584,-24.5 796,-24.5 796,-5.5 584,-5.5"/>
<text text-anchor="middle" x="690" y="-12.5" font-family="Helvetica,sans-Serif" font-size="10.00">view.CustomizationBar.CustomizationBar</text>
</a>
</g>
</g>
<!-- Node3&#45;&gt;Node4 -->
<g id="edge3" class="edge"><title>Node3&#45;&gt;Node4</title>
<path fill="none" stroke="midnightblue" d="M557.608,-15C566.262,-15 575.114,-15 583.931,-15"/>
<polygon fill="midnightblue" stroke="midnightblue" points="557.552,-11.5001 547.552,-15 557.552,-18.5001 557.552,-11.5001"/>
</g>
</g>
</svg>
