<?xml version="1.0" encoding="UTF-8" standalone="no"?>
<!DOCTYPE svg PUBLIC "-//W3C//DTD SVG 1.1//EN"
 "http://www.w3.org/Graphics/SVG/1.1/DTD/svg11.dtd">
<!-- Generated by graphviz version 2.36.0 (20140111.2315)
 -->
<!-- Title: view.CustomizationBar.CustomizationBar Pages: 1 -->
<svg width="1014pt" height="229pt"
 viewBox="0.00 0.00 1014.00 229.00" xmlns="http://www.w3.org/2000/svg" xmlns:xlink="http://www.w3.org/1999/xlink">
<g id="graph0" class="graph" transform="scale(1 1) rotate(0) translate(4 225)">
<title>view.CustomizationBar.CustomizationBar</title>
<polygon fill="white" stroke="none" points="-4,4 -4,-225 1010,-225 1010,4 -4,4"/>
<!-- Node1 -->
<g id="node1" class="node"><title>Node1</title>
<polygon fill="#bfbfbf" stroke="black" points="0,-122.5 0,-141.5 212,-141.5 212,-122.5 0,-122.5"/>
<text text-anchor="middle" x="106" y="-129.5" font-family="Helvetica,sans-Serif" font-size="10.00">view.CustomizationBar.CustomizationBar</text>
</g>
<!-- Node2 -->
<g id="node2" class="node"><title>Node2</title>
<g id="a_node2"><a xlink:href="../../dc/d3c/classview_1_1_customization_bar.html#a7af574ca79d4f78ad3afbb8fb199ef9c" target="_top" xlink:title="view.CustomizationBar.configure\lLanguageOptions">
<polygon fill="white" stroke="black" points="248.5,-191 248.5,-221 419.5,-221 419.5,-191 248.5,-191"/>
<text text-anchor="start" x="256.5" y="-209" font-family="Helvetica,sans-Serif" font-size="10.00">view.CustomizationBar.configure</text>
<text text-anchor="middle" x="334" y="-198" font-family="Helvetica,sans-Serif" font-size="10.00">LanguageOptions</text>
</a>
</g>
</g>
<!-- Node1&#45;&gt;Node2 -->
<g id="edge1" class="edge"><title>Node1&#45;&gt;Node2</title>
<path fill="none" stroke="midnightblue" d="M133.119,-141.502C161.328,-151.664 207.652,-168.064 248,-181 255.312,-183.344 263.005,-185.725 270.652,-188.039"/>
<polygon fill="midnightblue" stroke="midnightblue" points="269.697,-191.407 280.281,-190.926 271.708,-184.701 269.697,-191.407"/>
</g>
<!-- Node6 -->
<g id="node6" class="node"><title>Node6</title>
<g id="a_node6"><a xlink:href="../../dc/d3c/classview_1_1_customization_bar.html#ab0d07736db72531d01430e2474957435" target="_top" xlink:title="view.CustomizationBar.select\lBackgroundColor">
<polygon fill="white" stroke="black" points="256.5,-142 256.5,-172 411.5,-172 411.5,-142 256.5,-142"/>
<text text-anchor="start" x="264.5" y="-160" font-family="Helvetica,sans-Serif" font-size="10.00">view.CustomizationBar.select</text>
<text text-anchor="middle" x="334" y="-149" font-family="Helvetica,sans-Serif" font-size="10.00">BackgroundColor</text>
</a>
</g>
</g>
<!-- Node1&#45;&gt;Node6 -->
<g id="edge5" class="edge"><title>Node1&#45;&gt;Node6</title>
<path fill="none" stroke="midnightblue" d="M193.086,-141.523C210.5,-143.449 228.819,-145.476 246.256,-147.404"/>
<polygon fill="midnightblue" stroke="midnightblue" points="246.082,-150.906 256.407,-148.527 246.852,-143.949 246.082,-150.906"/>
</g>
<!-- Node9 -->
<g id="node9" class="node"><title>Node9</title>
<g id="a_node9"><a xlink:href="../../dc/d3c/classview_1_1_customization_bar.html#af90deb872fbe4cfb0850c42f5f87e74f" target="_top" xlink:title="view.CustomizationBar.select\lPenColor">
<polygon fill="white" stroke="black" points="256.5,-93 256.5,-123 411.5,-123 411.5,-93 256.5,-93"/>
<text text-anchor="start" x="264.5" y="-111" font-family="Helvetica,sans-Serif" font-size="10.00">view.CustomizationBar.select</text>
<text text-anchor="middle" x="334" y="-100" font-family="Helvetica,sans-Serif" font-size="10.00">PenColor</text>
</a>
</g>
</g>
<!-- Node1&#45;&gt;Node9 -->
<g id="edge8" class="edge"><title>Node1&#45;&gt;Node9</title>
<path fill="none" stroke="midnightblue" d="M196.646,-122.48C212.975,-120.746 229.984,-118.94 246.228,-117.215"/>
<polygon fill="midnightblue" stroke="midnightblue" points="246.656,-120.689 256.231,-116.153 245.917,-113.728 246.656,-120.689"/>
</g>
<!-- Node11 -->
<g id="node11" class="node"><title>Node11</title>
<g id="a_node11"><a xlink:href="../../dc/d3c/classview_1_1_customization_bar.html#ae18b74e088e9b57a49249dfb7c920097" target="_top" xlink:title="view.CustomizationBar.select\lTurtleImage">
<polygon fill="white" stroke="black" points="256.5,-44 256.5,-74 411.5,-74 411.5,-44 256.5,-44"/>
<text text-anchor="start" x="264.5" y="-62" font-family="Helvetica,sans-Serif" font-size="10.00">view.CustomizationBar.select</text>
<text text-anchor="middle" x="334" y="-51" font-family="Helvetica,sans-Serif" font-size="10.00">TurtleImage</text>
</a>
</g>
</g>
<!-- Node1&#45;&gt;Node11 -->
<g id="edge10" class="edge"><title>Node1&#45;&gt;Node11</title>
<path fill="none" stroke="midnightblue" d="M133.092,-122.412C161.278,-112.177 207.582,-95.7168 248,-83 254.486,-80.9593 261.276,-78.9054 268.069,-76.9042"/>
<polygon fill="midnightblue" stroke="midnightblue" points="269.365,-80.1721 277.989,-74.0175 267.41,-73.4509 269.365,-80.1721"/>
</g>
<!-- Node3 -->
<g id="node3" class="node"><title>Node3</title>
<g id="a_node3"><a xlink:href="../../dc/df5/classmodel_1_1_parser.html#a25efafa72b39ed9bf714d0f0f161aa28" target="_top" xlink:title="model.Parser.setLanguage">
<polygon fill="white" stroke="black" points="465,-196.5 465,-215.5 609,-215.5 609,-196.5 465,-196.5"/>
<text text-anchor="middle" x="537" y="-203.5" font-family="Helvetica,sans-Serif" font-size="10.00">model.Parser.setLanguage</text>
</a>
</g>
</g>
<!-- Node2&#45;&gt;Node3 -->
<g id="edge2" class="edge"><title>Node2&#45;&gt;Node3</title>
<path fill="none" stroke="midnightblue" d="M419.66,-206C431.277,-206 443.184,-206 454.739,-206"/>
<polygon fill="midnightblue" stroke="midnightblue" points="454.786,-209.5 464.786,-206 454.786,-202.5 454.786,-209.5"/>
</g>
<!-- Node4 -->
<g id="node4" class="node"><title>Node4</title>
<g id="a_node4"><a xlink:href="../../dc/df5/classmodel_1_1_parser.html#aa777d197a541c6ca6be224c0ce6754a5" target="_top" xlink:title="model.Parser.addAllPatterns">
<polygon fill="white" stroke="black" points="661.5,-196.5 661.5,-215.5 812.5,-215.5 812.5,-196.5 661.5,-196.5"/>
<text text-anchor="middle" x="737" y="-203.5" font-family="Helvetica,sans-Serif" font-size="10.00">model.Parser.addAllPatterns</text>
</a>
</g>
</g>
<!-- Node3&#45;&gt;Node4 -->
<g id="edge3" class="edge"><title>Node3&#45;&gt;Node4</title>
<path fill="none" stroke="midnightblue" d="M609.203,-206C622.853,-206 637.27,-206 651.296,-206"/>
<polygon fill="midnightblue" stroke="midnightblue" points="651.423,-209.5 661.423,-206 651.423,-202.5 651.423,-209.5"/>
</g>
<!-- Node5 -->
<g id="node5" class="node"><title>Node5</title>
<g id="a_node5"><a xlink:href="../../dc/df5/classmodel_1_1_parser.html#ab8b41b81d9a6ea903b050ca5a5235004" target="_top" xlink:title="model.Parser.makePatterns">
<polygon fill="white" stroke="black" points="856.5,-196.5 856.5,-215.5 1005.5,-215.5 1005.5,-196.5 856.5,-196.5"/>
<text text-anchor="middle" x="931" y="-203.5" font-family="Helvetica,sans-Serif" font-size="10.00">model.Parser.makePatterns</text>
</a>
</g>
</g>
<!-- Node4&#45;&gt;Node5 -->
<g id="edge4" class="edge"><title>Node4&#45;&gt;Node5</title>
<path fill="none" stroke="midnightblue" d="M812.507,-206C823.564,-206 835.021,-206 846.251,-206"/>
<polygon fill="midnightblue" stroke="midnightblue" points="846.482,-209.5 856.482,-206 846.482,-202.5 846.482,-209.5"/>
</g>
<!-- Node7 -->
<g id="node7" class="node"><title>Node7</title>
<g id="a_node7"><a xlink:href="../../dc/d3c/classview_1_1_customization_bar.html#a4edc7c993b5d2b9ee521e3078b833e31" target="_top" xlink:title="view.CustomizationBar.change\lBackgroundColor">
<polygon fill="white" stroke="black" points="456,-142 456,-172 618,-172 618,-142 456,-142"/>
<text text-anchor="start" x="464" y="-160" font-family="Helvetica,sans-Serif" font-size="10.00">view.CustomizationBar.change</text>
<text text-anchor="middle" x="537" y="-149" font-family="Helvetica,sans-Serif" font-size="10.00">BackgroundColor</text>
</a>
</g>
</g>
<!-- Node6&#45;&gt;Node7 -->
<g id="edge6" class="edge"><title>Node6&#45;&gt;Node7</title>
<path fill="none" stroke="midnightblue" d="M411.563,-157C422.804,-157 434.469,-157 445.95,-157"/>
<polygon fill="midnightblue" stroke="midnightblue" points="445.976,-160.5 455.976,-157 445.976,-153.5 445.976,-160.5"/>
</g>
<!-- Node8 -->
<g id="node8" class="node"><title>Node8</title>
<g id="a_node8"><a xlink:href="../../da/d64/classview_1_1_workspace.html#a34a11a992dfdc0b97aa805ece5c075fc" target="_top" xlink:title="view.Workspace.setBackground">
<polygon fill="white" stroke="black" points="654.5,-147.5 654.5,-166.5 819.5,-166.5 819.5,-147.5 654.5,-147.5"/>
<text text-anchor="middle" x="737" y="-154.5" font-family="Helvetica,sans-Serif" font-size="10.00">view.Workspace.setBackground</text>
</a>
</g>
</g>
<!-- Node7&#45;&gt;Node8 -->
<g id="edge7" class="edge"><title>Node7&#45;&gt;Node8</title>
<path fill="none" stroke="midnightblue" d="M618.249,-157C626.801,-157 635.547,-157 644.219,-157"/>
<polygon fill="midnightblue" stroke="midnightblue" points="644.349,-160.5 654.349,-157 644.349,-153.5 644.349,-160.5"/>
</g>
<!-- Node10 -->
<g id="node10" class="node"><title>Node10</title>
<g id="a_node10"><a xlink:href="../../de/d0a/classview_1_1_drawer.html#acb2c7fbc7b944742edfe3ce8b63beaff" target="_top" xlink:title="view.Drawer.changeColor">
<polygon fill="white" stroke="black" points="469.5,-98.5 469.5,-117.5 604.5,-117.5 604.5,-98.5 469.5,-98.5"/>
<text text-anchor="middle" x="537" y="-105.5" font-family="Helvetica,sans-Serif" font-size="10.00">view.Drawer.changeColor</text>
</a>
</g>
</g>
<!-- Node9&#45;&gt;Node10 -->
<g id="edge9" class="edge"><title>Node9&#45;&gt;Node10</title>
<path fill="none" stroke="midnightblue" d="M411.563,-108C427.125,-108 443.5,-108 459.075,-108"/>
<polygon fill="midnightblue" stroke="midnightblue" points="459.178,-111.5 469.178,-108 459.178,-104.5 459.178,-111.5"/>
</g>
<!-- Node12 -->
<g id="node12" class="node"><title>Node12</title>
<g id="a_node12"><a xlink:href="../../dc/d3c/classview_1_1_customization_bar.html#ad98fcd1097211e5f6ef464b20069a3cc" target="_top" xlink:title="view.CustomizationBar.upload\lTurtleFile">
<polygon fill="white" stroke="black" points="457.5,-49 457.5,-79 616.5,-79 616.5,-49 457.5,-49"/>
<text text-anchor="start" x="465.5" y="-67" font-family="Helvetica,sans-Serif" font-size="10.00">view.CustomizationBar.upload</text>
<text text-anchor="middle" x="537" y="-56" font-family="Helvetica,sans-Serif" font-size="10.00">TurtleFile</text>
</a>
</g>
</g>
<!-- Node11&#45;&gt;Node12 -->
<g id="edge11" class="edge"><title>Node11&#45;&gt;Node12</title>
<path fill="none" stroke="midnightblue" d="M411.563,-60.9045C423.147,-61.1927 435.181,-61.4921 447.001,-61.7861"/>
<polygon fill="midnightblue" stroke="midnightblue" points="447.231,-65.2928 457.315,-62.0427 447.406,-58.295 447.231,-65.2928"/>
</g>
<!-- Node15 -->
<g id="node15" class="node"><title>Node15</title>
<g id="a_node15"><a xlink:href="../../da/d64/classview_1_1_workspace.html#a4fa39210415cbc1075098e1babd0cec7" target="_top" xlink:title="view.Workspace.getActive\lTurtle">
<polygon fill="white" stroke="black" points="468,-0 468,-30 606,-30 606,-0 468,-0"/>
<text text-anchor="start" x="476" y="-18" font-family="Helvetica,sans-Serif" font-size="10.00">view.Workspace.getActive</text>
<text text-anchor="middle" x="537" y="-7" font-family="Helvetica,sans-Serif" font-size="10.00">Turtle</text>
</a>
</g>
</g>
<!-- Node11&#45;&gt;Node15 -->
<g id="edge14" class="edge"><title>Node11&#45;&gt;Node15</title>
<path fill="none" stroke="midnightblue" d="M403.611,-43.9808C421.075,-40.1578 439.972,-36.021 457.872,-32.1026"/>
<polygon fill="midnightblue" stroke="midnightblue" points="458.678,-35.5091 467.699,-29.9516 457.181,-28.671 458.678,-35.5091"/>
</g>
<!-- Node13 -->
<g id="node13" class="node"><title>Node13</title>
<g id="a_node13"><a xlink:href="../../dc/d3c/classview_1_1_customization_bar.html#a9d76f00becd679a5e4a69359e1d34fbe" target="_top" xlink:title="view.CustomizationBar.display\lFileChooser">
<polygon fill="white" stroke="black" points="657,-74 657,-104 817,-104 817,-74 657,-74"/>
<text text-anchor="start" x="665" y="-92" font-family="Helvetica,sans-Serif" font-size="10.00">view.CustomizationBar.display</text>
<text text-anchor="middle" x="737" y="-81" font-family="Helvetica,sans-Serif" font-size="10.00">FileChooser</text>
</a>
</g>
</g>
<!-- Node12&#45;&gt;Node13 -->
<g id="edge12" class="edge"><title>Node12&#45;&gt;Node13</title>
<path fill="none" stroke="midnightblue" d="M616.539,-73.9166C626.499,-75.1742 636.749,-76.4682 646.859,-77.7448"/>
<polygon fill="midnightblue" stroke="midnightblue" points="646.548,-81.2333 656.908,-79.0136 647.425,-74.2884 646.548,-81.2333"/>
</g>
<!-- Node14 -->
<g id="node14" class="node"><title>Node14</title>
<g id="a_node14"><a xlink:href="../../dc/d3c/classview_1_1_customization_bar.html#ae221c6a67bb7c267136c949d03f929fe" target="_top" xlink:title="view.CustomizationBar.change\lTurtleImage">
<polygon fill="white" stroke="black" points="656,-25 656,-55 818,-55 818,-25 656,-25"/>
<text text-anchor="start" x="664" y="-43" font-family="Helvetica,sans-Serif" font-size="10.00">view.CustomizationBar.change</text>
<text text-anchor="middle" x="737" y="-32" font-family="Helvetica,sans-Serif" font-size="10.00">TurtleImage</text>
</a>
</g>
</g>
<!-- Node12&#45;&gt;Node14 -->
<g id="edge13" class="edge"><title>Node12&#45;&gt;Node14</title>
<path fill="none" stroke="midnightblue" d="M616.539,-54.4801C626.155,-53.3145 636.041,-52.1163 645.811,-50.9321"/>
<polygon fill="midnightblue" stroke="midnightblue" points="646.428,-54.3829 655.934,-49.705 645.586,-47.4338 646.428,-54.3829"/>
</g>
</g>
</svg>
