<?xml version="1.0" encoding="UTF-8" standalone="no"?>
<!DOCTYPE svg PUBLIC "-//W3C//DTD SVG 1.1//EN"
 "http://www.w3.org/Graphics/SVG/1.1/DTD/svg11.dtd">
<!-- Generated by graphviz version 2.36.0 (20140111.2315)
 -->
<!-- Title: view.CustomizationBar.uploadTurtleFile Pages: 1 -->
<svg width="366pt" height="87pt"
 viewBox="0.00 0.00 366.00 87.00" xmlns="http://www.w3.org/2000/svg" xmlns:xlink="http://www.w3.org/1999/xlink">
<g id="graph0" class="graph" transform="scale(1 1) rotate(0) translate(4 83)">
<title>view.CustomizationBar.uploadTurtleFile</title>
<polygon fill="white" stroke="none" points="-4,4 -4,-83 362,-83 362,4 -4,4"/>
<!-- Node1 -->
<g id="node1" class="node"><title>Node1</title>
<polygon fill="#bfbfbf" stroke="black" points="0.5,-24 0.5,-54 159.5,-54 159.5,-24 0.5,-24"/>
<text text-anchor="start" x="8.5" y="-42" font-family="Helvetica,sans-Serif" font-size="10.00">view.CustomizationBar.upload</text>
<text text-anchor="middle" x="80" y="-31" font-family="Helvetica,sans-Serif" font-size="10.00">TurtleFile</text>
</g>
<!-- Node2 -->
<g id="node2" class="node"><title>Node2</title>
<g id="a_node2"><a xlink:href="../../dc/d3c/classview_1_1_customization_bar.html#ae221c6a67bb7c267136c949d03f929fe" target="_top" xlink:title="view.CustomizationBar.change\lTurtleImage">
<polygon fill="white" stroke="black" points="196,-49 196,-79 358,-79 358,-49 196,-49"/>
<text text-anchor="start" x="204" y="-67" font-family="Helvetica,sans-Serif" font-size="10.00">view.CustomizationBar.change</text>
<text text-anchor="middle" x="277" y="-56" font-family="Helvetica,sans-Serif" font-size="10.00">TurtleImage</text>
</a>
</g>
</g>
<!-- Node1&#45;&gt;Node2 -->
<g id="edge1" class="edge"><title>Node1&#45;&gt;Node2</title>
<path fill="none" stroke="midnightblue" d="M159.752,-49.0964C168.261,-50.1873 176.968,-51.3036 185.6,-52.4103"/>
<polygon fill="midnightblue" stroke="midnightblue" points="185.32,-55.9029 195.683,-53.703 186.21,-48.9597 185.32,-55.9029"/>
</g>
<!-- Node3 -->
<g id="node3" class="node"><title>Node3</title>
<g id="a_node3"><a xlink:href="../../dc/d3c/classview_1_1_customization_bar.html#a9d76f00becd679a5e4a69359e1d34fbe" target="_top" xlink:title="view.CustomizationBar.display\lFileChooser">
<polygon fill="white" stroke="black" points="197,-0 197,-30 357,-30 357,-0 197,-0"/>
<text text-anchor="start" x="205" y="-18" font-family="Helvetica,sans-Serif" font-size="10.00">view.CustomizationBar.display</text>
<text text-anchor="middle" x="277" y="-7" font-family="Helvetica,sans-Serif" font-size="10.00">FileChooser</text>
</a>
</g>
</g>
<!-- Node1&#45;&gt;Node3 -->
<g id="edge2" class="edge"><title>Node1&#45;&gt;Node3</title>
<path fill="none" stroke="midnightblue" d="M159.752,-29.3075C168.661,-28.211 177.786,-27.0878 186.816,-25.9765"/>
<polygon fill="midnightblue" stroke="midnightblue" points="187.456,-29.4242 196.954,-24.7287 186.601,-22.4766 187.456,-29.4242"/>
</g>
</g>
</svg>
