<?xml version="1.0" encoding="UTF-8" standalone="no"?>
<!DOCTYPE svg PUBLIC "-//W3C//DTD SVG 1.1//EN"
 "http://www.w3.org/Graphics/SVG/1.1/DTD/svg11.dtd">
<!-- Generated by graphviz version 2.36.0 (20140111.2315)
 -->
<!-- Title: model.instructions.MultipleTurtlesInstruction Pages: 1 -->
<svg width="1984pt" height="962pt"
 viewBox="0.00 0.00 1984.00 962.41" xmlns="http://www.w3.org/2000/svg" xmlns:xlink="http://www.w3.org/1999/xlink">
<g id="graph0" class="graph" transform="scale(1 1) rotate(0) translate(4 958.413)">
<title>model.instructions.MultipleTurtlesInstruction</title>
<polygon fill="white" stroke="none" points="-4,4 -4,-958.413 1980,-958.413 1980,4 -4,4"/>
<!-- Node1 -->
<g id="node1" class="node"><title>Node1</title>
<polygon fill="#bfbfbf" stroke="black" points="1194.5,-295.413 1194.5,-325.413 1339.5,-325.413 1339.5,-295.413 1194.5,-295.413"/>
<text text-anchor="start" x="1202.5" y="-313.413" font-family="Helvetica,sans-Serif" font-size="10.00">model.instructions.Multiple</text>
<text text-anchor="middle" x="1267" y="-302.413" font-family="Helvetica,sans-Serif" font-size="10.00">TurtlesInstruction</text>
</g>
<!-- Node2 -->
<g id="node2" class="node"><title>Node2</title>
<g id="a_node2"><a xlink:href="../../d1/dea/classmodel_1_1instructions_1_1_instruction.html" target="_top" xlink:title="model.instructions.Instruction">
<polygon fill="white" stroke="black" points="884,-368.913 884,-387.913 1042,-387.913 1042,-368.913 884,-368.913"/>
<text text-anchor="middle" x="963" y="-375.913" font-family="Helvetica,sans-Serif" font-size="10.00">model.instructions.Instruction</text>
</a>
</g>
</g>
<!-- Node2&#45;&gt;Node1 -->
<g id="edge1" class="edge"><title>Node2&#45;&gt;Node1</title>
<path fill="none" stroke="midnightblue" d="M1052.18,-377.756C1091.46,-374.73 1137.45,-367.308 1176,-350.413 1185.54,-346.233 1184.93,-340.537 1194,-335.413 1200.57,-331.701 1207.78,-328.403 1215.02,-325.518"/>
<polygon fill="midnightblue" stroke="midnightblue" points="1051.83,-374.272 1042.09,-378.449 1052.31,-381.256 1051.83,-374.272"/>
</g>
<!-- Node3 -->
<g id="node3" class="node"><title>Node3</title>
<polygon fill="white" stroke="#bfbfbf" points="287,-640.913 287,-659.913 347,-659.913 347,-640.913 287,-640.913"/>
<text text-anchor="middle" x="317" y="-647.913" font-family="Helvetica,sans-Serif" font-size="10.00">Observer</text>
</g>
<!-- Node3&#45;&gt;Node2 -->
<g id="edge2" class="edge"><title>Node3&#45;&gt;Node2</title>
<path fill="none" stroke="midnightblue" d="M342.567,-635.265C406.485,-596.437 584.126,-492.208 744,-432.413 798.78,-411.924 864.209,-396.906 909.001,-387.982"/>
<polygon fill="midnightblue" stroke="midnightblue" points="340.353,-632.516 333.64,-640.713 344,-638.491 340.353,-632.516"/>
</g>
<!-- Node9 -->
<g id="node9" class="node"><title>Node9</title>
<g id="a_node9"><a xlink:href="../../d4/d64/classview_1_1_view_updater.html" target="_top" xlink:title="view.ViewUpdater">
<polygon fill="white" stroke="black" points="589,-640.913 589,-659.913 689,-659.913 689,-640.913 589,-640.913"/>
<text text-anchor="middle" x="639" y="-647.913" font-family="Helvetica,sans-Serif" font-size="10.00">view.ViewUpdater</text>
</a>
</g>
</g>
<!-- Node3&#45;&gt;Node9 -->
<g id="edge9" class="edge"><title>Node3&#45;&gt;Node9</title>
<path fill="none" stroke="midnightblue" d="M357.539,-650.413C415.954,-650.413 525.239,-650.413 588.77,-650.413"/>
<polygon fill="midnightblue" stroke="midnightblue" points="357.246,-646.913 347.246,-650.413 357.246,-653.913 357.246,-646.913"/>
</g>
<!-- Node27 -->
<g id="node27" class="node"><title>Node27</title>
<g id="a_node27"><a xlink:href="../../dc/df5/classmodel_1_1_parser.html" target="_top" xlink:title="model.Parser">
<polygon fill="white" stroke="black" points="923,-771.913 923,-790.913 1003,-790.913 1003,-771.913 923,-771.913"/>
<text text-anchor="middle" x="963" y="-778.913" font-family="Helvetica,sans-Serif" font-size="10.00">model.Parser</text>
</a>
</g>
</g>
<!-- Node3&#45;&gt;Node27 -->
<g id="edge35" class="edge"><title>Node3&#45;&gt;Node27</title>
<path fill="none" stroke="midnightblue" d="M333.504,-667.474C368.257,-704.287 456.836,-790.347 552,-821.413 691.375,-866.911 870.445,-813.891 936.262,-790.96"/>
<polygon fill="midnightblue" stroke="midnightblue" points="335.937,-664.951 326.563,-660.012 330.811,-669.718 335.937,-664.951"/>
</g>
<!-- Node4 -->
<g id="node4" class="node"><title>Node4</title>
<g id="a_node4"><a xlink:href="../../d1/dca/classmodel_1_1_execution_environment.html" target="_top" xlink:title="model.ExecutionEnvironment">
<polygon fill="white" stroke="black" points="560.5,-315.913 560.5,-334.913 717.5,-334.913 717.5,-315.913 560.5,-315.913"/>
<text text-anchor="middle" x="639" y="-322.913" font-family="Helvetica,sans-Serif" font-size="10.00">model.ExecutionEnvironment</text>
</a>
</g>
</g>
<!-- Node4&#45;&gt;Node2 -->
<g id="edge3" class="edge"><title>Node4&#45;&gt;Node2</title>
<path fill="none" stroke="#9a32cd" stroke-dasharray="5,2" d="M712.038,-336.562C756.454,-343.518 814.566,-352.763 866,-361.413 880.021,-363.771 895.177,-366.411 909.213,-368.896"/>
<polygon fill="#9a32cd" stroke="#9a32cd" points="712.338,-333.067 701.917,-334.98 711.257,-339.983 712.338,-333.067"/>
<text text-anchor="middle" x="805" y="-364.413" font-family="Helvetica,sans-Serif" font-size="10.00"> myEnvironment</text>
</g>
<!-- Node17 -->
<g id="node17" class="node"><title>Node17</title>
<g id="a_node17"><a xlink:href="../../d1/dc7/classview_1_1_side_bar.html" target="_top" xlink:title="view.SideBar">
<polygon fill="white" stroke="black" points="1228.5,-256.913 1228.5,-275.913 1305.5,-275.913 1305.5,-256.913 1228.5,-256.913"/>
<text text-anchor="middle" x="1267" y="-263.913" font-family="Helvetica,sans-Serif" font-size="10.00">view.SideBar</text>
</a>
</g>
</g>
<!-- Node4&#45;&gt;Node17 -->
<g id="edge22" class="edge"><title>Node4&#45;&gt;Node17</title>
<path fill="none" stroke="#9a32cd" stroke-dasharray="5,2" d="M727.584,-331.121C858.958,-338.243 1099.76,-345.296 1176,-307.413 1187.31,-301.791 1183.37,-292.246 1194,-285.413 1204.22,-278.839 1216.64,-274.531 1228.27,-271.712"/>
<polygon fill="#9a32cd" stroke="#9a32cd" points="727.723,-327.623 717.544,-330.565 727.336,-334.613 727.723,-327.623"/>
<text text-anchor="middle" x="963" y="-340.413" font-family="Helvetica,sans-Serif" font-size="10.00"> myEnvironment</text>
</g>
<!-- Node21 -->
<g id="node21" class="node"><title>Node21</title>
<g id="a_node21"><a xlink:href="../../d9/dd3/classview_1_1_variables_view.html" target="_top" xlink:title="view.VariablesView">
<polygon fill="white" stroke="black" points="911,-169.913 911,-188.913 1015,-188.913 1015,-169.913 911,-169.913"/>
<text text-anchor="middle" x="963" y="-176.913" font-family="Helvetica,sans-Serif" font-size="10.00">view.VariablesView</text>
</a>
</g>
</g>
<!-- Node4&#45;&gt;Node21 -->
<g id="edge31" class="edge"><title>Node4&#45;&gt;Node21</title>
<path fill="none" stroke="#9a32cd" stroke-dasharray="5,2" d="M651.511,-307.212C668.46,-282.088 702.638,-237.397 744,-215.413 772.114,-200.469 855.43,-189.769 910.537,-184.092"/>
<polygon fill="#9a32cd" stroke="#9a32cd" points="648.439,-305.514 645.879,-315.795 654.291,-309.354 648.439,-305.514"/>
<text text-anchor="middle" x="805" y="-218.413" font-family="Helvetica,sans-Serif" font-size="10.00"> myEnvironment</text>
</g>
<!-- Node4&#45;&gt;Node27 -->
<g id="edge37" class="edge"><title>Node4&#45;&gt;Node27</title>
<path fill="none" stroke="#9a32cd" stroke-dasharray="5,2" d="M714.703,-339.858C718.868,-342.543 722.694,-345.701 726,-349.413 760.116,-387.717 725.032,-415.754 744,-463.413 798.083,-599.3 918.655,-734.883 952.819,-771.688"/>
<polygon fill="#9a32cd" stroke="#9a32cd" points="716.193,-336.684 705.736,-334.984 712.851,-342.835 716.193,-336.684"/>
<text text-anchor="middle" x="805" y="-671.413" font-family="Helvetica,sans-Serif" font-size="10.00"> myExecutionParameters</text>
</g>
<!-- Node30 -->
<g id="node30" class="node"><title>Node30</title>
<g id="a_node30"><a xlink:href="../../d6/de7/classview_1_1_s_logo_view.html" target="_top" xlink:title="view.SLogoView">
<polygon fill="white" stroke="black" points="1884.5,-445.913 1884.5,-464.913 1975.5,-464.913 1975.5,-445.913 1884.5,-445.913"/>
<text text-anchor="middle" x="1930" y="-452.913" font-family="Helvetica,sans-Serif" font-size="10.00">view.SLogoView</text>
</a>
</g>
</g>
<!-- Node4&#45;&gt;Node30 -->
<g id="edge51" class="edge"><title>Node4&#45;&gt;Node30</title>
<path fill="none" stroke="#9a32cd" stroke-dasharray="5,2" d="M673.16,-311.951C719.725,-293.362 807.381,-259.518 884,-236.413 953.149,-215.56 973.605,-221.62 1042,-198.413 1050.29,-195.6 1051.44,-192.23 1060,-190.413 1305.15,-138.387 1639.82,-298.05 1772,-349.413 1815.91,-366.476 1827.33,-371.501 1866,-398.413 1886.82,-412.904 1908.1,-433.653 1919.83,-445.71"/>
<polygon fill="#9a32cd" stroke="#9a32cd" points="671.574,-308.816 663.594,-315.786 674.179,-315.313 671.574,-308.816"/>
<text text-anchor="middle" x="1398" y="-228.413" font-family="Helvetica,sans-Serif" font-size="10.00"> myEnvironment</text>
</g>
<!-- Node5 -->
<g id="node5" class="node"><title>Node5</title>
<polygon fill="white" stroke="#bfbfbf" points="281.5,-330.913 281.5,-349.913 352.5,-349.913 352.5,-330.913 281.5,-330.913"/>
<text text-anchor="middle" x="317" y="-337.913" font-family="Helvetica,sans-Serif" font-size="10.00">Observable</text>
</g>
<!-- Node5&#45;&gt;Node4 -->
<g id="edge4" class="edge"><title>Node5&#45;&gt;Node4</title>
<path fill="none" stroke="midnightblue" d="M362.61,-338.321C413.684,-335.927 498.273,-331.962 560.249,-329.057"/>
<polygon fill="midnightblue" stroke="midnightblue" points="362.375,-334.829 352.55,-338.793 362.703,-341.821 362.375,-334.829"/>
</g>
<!-- Node6 -->
<g id="node6" class="node"><title>Node6</title>
<polygon fill="white" stroke="#bfbfbf" points="272.5,-292.913 272.5,-311.913 361.5,-311.913 361.5,-292.913 272.5,-292.913"/>
<text text-anchor="middle" x="317" y="-299.913" font-family="Helvetica,sans-Serif" font-size="10.00">Set&lt; Integer &gt;</text>
</g>
<!-- Node6&#45;&gt;Node4 -->
<g id="edge5" class="edge"><title>Node6&#45;&gt;Node4</title>
<path fill="none" stroke="#9a32cd" stroke-dasharray="5,2" d="M371.711,-300.542C415.507,-299.645 478.909,-299.777 534,-305.413 555.035,-307.564 578.158,-311.819 597.249,-315.853"/>
<polygon fill="#9a32cd" stroke="#9a32cd" points="371.487,-297.046 361.571,-300.775 371.649,-304.044 371.487,-297.046"/>
<text text-anchor="middle" x="478" y="-319.413" font-family="Helvetica,sans-Serif" font-size="10.00"> myTurtleList</text>
<text text-anchor="middle" x="478" y="-308.413" font-family="Helvetica,sans-Serif" font-size="10.00">activeTurtleList</text>
</g>
<!-- Node7 -->
<g id="node7" class="node"><title>Node7</title>
<polygon fill="white" stroke="#bfbfbf" points="230,-243.413 230,-273.413 404,-273.413 404,-243.413 230,-243.413"/>
<text text-anchor="start" x="238" y="-261.413" font-family="Helvetica,sans-Serif" font-size="10.00">Map&lt; String, model.instructions.</text>
<text text-anchor="middle" x="317" y="-250.413" font-family="Helvetica,sans-Serif" font-size="10.00">Instruction &gt;</text>
</g>
<!-- Node7&#45;&gt;Node4 -->
<g id="edge6" class="edge"><title>Node7&#45;&gt;Node4</title>
<path fill="none" stroke="#9a32cd" stroke-dasharray="5,2" d="M414.015,-265.37C451.791,-269.414 495.303,-275.706 534,-285.413 563.834,-292.896 596.728,-306.514 617.371,-315.759"/>
<polygon fill="#9a32cd" stroke="#9a32cd" points="414.339,-261.885 404.032,-264.339 413.62,-268.848 414.339,-261.885"/>
<text text-anchor="middle" x="478" y="-288.413" font-family="Helvetica,sans-Serif" font-size="10.00"> myUserInstructionMap</text>
</g>
<!-- Node8 -->
<g id="node8" class="node"><title>Node8</title>
<polygon fill="white" stroke="#bfbfbf" points="253,-368.913 253,-387.913 381,-387.913 381,-368.913 253,-368.913"/>
<text text-anchor="middle" x="317" y="-375.913" font-family="Helvetica,sans-Serif" font-size="10.00">Map&lt; String, Double &gt;</text>
</g>
<!-- Node8&#45;&gt;Node4 -->
<g id="edge7" class="edge"><title>Node8&#45;&gt;Node4</title>
<path fill="none" stroke="#9a32cd" stroke-dasharray="5,2" d="M391.152,-369.134C433.074,-363.512 486.616,-355.815 534,-347.413 554.534,-343.771 577.204,-339.058 596.123,-334.929"/>
<polygon fill="#9a32cd" stroke="#9a32cd" points="390.48,-365.692 381.029,-370.481 391.403,-372.631 390.48,-365.692"/>
<text text-anchor="middle" x="478" y="-368.413" font-family="Helvetica,sans-Serif" font-size="10.00"> myVariableMap</text>
</g>
<!-- Node9&#45;&gt;Node2 -->
<g id="edge8" class="edge"><title>Node9&#45;&gt;Node2</title>
<path fill="none" stroke="#9a32cd" stroke-dasharray="5,2" d="M644.297,-630.663C654.203,-590.179 682.647,-497.783 744,-452.413 788.365,-419.605 819.985,-459.861 866,-429.413 878.027,-421.454 872.438,-411.033 884,-402.413 892.519,-396.061 902.741,-391.371 912.938,-387.915"/>
<polygon fill="#9a32cd" stroke="#9a32cd" points="640.837,-630.09 641.983,-640.623 647.656,-631.674 640.837,-630.09"/>
<text text-anchor="middle" x="805" y="-455.413" font-family="Helvetica,sans-Serif" font-size="10.00"> myViewUpdater</text>
</g>
<!-- Node9&#45;&gt;Node27 -->
<g id="edge38" class="edge"><title>Node9&#45;&gt;Node27</title>
<path fill="none" stroke="#9a32cd" stroke-dasharray="5,2" d="M664.142,-665.313C684.819,-677.664 715.66,-695.125 744,-707.413 796.354,-730.111 811.991,-728.997 866,-747.413 889.596,-755.458 916.322,-764.955 935.572,-771.864"/>
<polygon fill="#9a32cd" stroke="#9a32cd" points="665.771,-662.208 655.402,-660.034 662.152,-668.2 665.771,-662.208"/>
<text text-anchor="middle" x="805" y="-750.413" font-family="Helvetica,sans-Serif" font-size="10.00"> myViewUpdater</text>
</g>
<!-- Node10 -->
<g id="node10" class="node"><title>Node10</title>
<g id="a_node10"><a xlink:href="../../da/d64/classview_1_1_workspace.html" target="_top" xlink:title="view.Workspace">
<polygon fill="white" stroke="black" points="1456,-460.913 1456,-479.913 1546,-479.913 1546,-460.913 1456,-460.913"/>
<text text-anchor="middle" x="1501" y="-467.913" font-family="Helvetica,sans-Serif" font-size="10.00">view.Workspace</text>
</a>
</g>
</g>
<!-- Node10&#45;&gt;Node9 -->
<g id="edge10" class="edge"><title>Node10&#45;&gt;Node9</title>
<path fill="none" stroke="#9a32cd" stroke-dasharray="5,2" d="M1472.26,-485.979C1465.98,-490.777 1459.99,-496.619 1456,-503.413 1425.8,-554.852 1482.57,-596.771 1438,-636.413 1382.19,-686.051 854.258,-662.002 689.122,-653.182"/>
<polygon fill="#9a32cd" stroke="#9a32cd" points="1474.58,-488.631 1480.85,-480.091 1470.62,-482.857 1474.58,-488.631"/>
<text text-anchor="middle" x="1118" y="-670.413" font-family="Helvetica,sans-Serif" font-size="10.00"> myWorkspace</text>
</g>
<!-- Node10&#45;&gt;Node30 -->
<g id="edge41" class="edge"><title>Node10&#45;&gt;Node30</title>
<path fill="none" stroke="#9a32cd" stroke-dasharray="5,2" d="M1556.34,-468.504C1641.6,-465.509 1805.23,-459.761 1884.19,-456.987"/>
<polygon fill="#9a32cd" stroke="#9a32cd" points="1555.96,-465.015 1546.09,-468.864 1556.2,-472.01 1555.96,-465.015"/>
<text text-anchor="middle" x="1712" y="-468.413" font-family="Helvetica,sans-Serif" font-size="10.00"> myWorkspace</text>
</g>
<!-- Node38 -->
<g id="node38" class="node"><title>Node38</title>
<g id="a_node38"><a xlink:href="../../de/d0a/classview_1_1_drawer.html" target="_top" xlink:title="view.Drawer">
<polygon fill="white" stroke="black" points="1675.5,-498.913 1675.5,-517.913 1748.5,-517.913 1748.5,-498.913 1675.5,-498.913"/>
<text text-anchor="middle" x="1712" y="-505.913" font-family="Helvetica,sans-Serif" font-size="10.00">view.Drawer</text>
</a>
</g>
</g>
<!-- Node10&#45;&gt;Node38 -->
<g id="edge55" class="edge"><title>Node10&#45;&gt;Node38</title>
<path fill="none" stroke="#9a32cd" stroke-dasharray="5,2" d="M1556.32,-480.29C1593.83,-487.11 1642.65,-495.986 1675.32,-501.925"/>
<polygon fill="#9a32cd" stroke="#9a32cd" points="1556.53,-476.77 1546.07,-478.425 1555.28,-483.657 1556.53,-476.77"/>
<text text-anchor="middle" x="1599" y="-497.413" font-family="Helvetica,sans-Serif" font-size="10.00"> myWorkspace</text>
</g>
<!-- Node11 -->
<g id="node11" class="node"><title>Node11</title>
<polygon fill="white" stroke="#bfbfbf" points="1233.5,-564.913 1233.5,-583.913 1300.5,-583.913 1300.5,-564.913 1233.5,-564.913"/>
<text text-anchor="middle" x="1267" y="-571.913" font-family="Helvetica,sans-Serif" font-size="10.00">StackPane</text>
</g>
<!-- Node11&#45;&gt;Node10 -->
<g id="edge11" class="edge"><title>Node11&#45;&gt;Node10</title>
<path fill="none" stroke="midnightblue" d="M1310.74,-572.047C1354.51,-568.823 1418.77,-561.608 1438,-546.413 1454.25,-533.567 1443.27,-519.756 1456,-503.413 1463.39,-493.922 1474.17,-485.779 1483.2,-479.957"/>
<polygon fill="midnightblue" stroke="midnightblue" points="1310.38,-568.564 1300.64,-572.748 1310.86,-575.547 1310.38,-568.564"/>
</g>
<!-- Node12 -->
<g id="node12" class="node"><title>Node12</title>
<polygon fill="white" stroke="#bfbfbf" points="916.5,-529.913 916.5,-548.913 1009.5,-548.913 1009.5,-529.913 916.5,-529.913"/>
<text text-anchor="middle" x="963" y="-536.913" font-family="Helvetica,sans-Serif" font-size="10.00">ResourceBundle</text>
</g>
<!-- Node12&#45;&gt;Node10 -->
<g id="edge12" class="edge"><title>Node12&#45;&gt;Node10</title>
<path fill="none" stroke="#9a32cd" stroke-dasharray="5,2" d="M1019.97,-536.582C1093.56,-532.521 1226.77,-523.997 1340,-510.413 1383.82,-505.155 1395.42,-505.996 1438,-494.413 1451.81,-490.656 1466.79,-484.908 1478.56,-479.979"/>
<polygon fill="#9a32cd" stroke="#9a32cd" points="1019.35,-533.111 1009.56,-537.149 1019.73,-540.1 1019.35,-533.111"/>
<text text-anchor="middle" x="1267" y="-528.413" font-family="Helvetica,sans-Serif" font-size="10.00"> myResources</text>
</g>
<!-- Node12&#45;&gt;Node17 -->
<g id="edge21" class="edge"><title>Node12&#45;&gt;Node17</title>
<path fill="none" stroke="#9a32cd" stroke-dasharray="5,2" d="M1019.32,-527.897C1027.04,-525.725 1034.79,-523.234 1042,-520.413 1050.52,-517.077 1051.76,-514.391 1060,-510.413 1110.25,-486.158 1142.68,-507.169 1176,-462.413 1223.22,-398.984 1142.63,-345.529 1194,-285.413 1202.57,-275.387 1215.74,-270.335 1228.48,-267.884"/>
<polygon fill="#9a32cd" stroke="#9a32cd" points="1018.36,-524.529 1009.6,-530.479 1020.16,-531.295 1018.36,-524.529"/>
<text text-anchor="middle" x="1118" y="-513.413" font-family="Helvetica,sans-Serif" font-size="10.00"> myResources</text>
</g>
<!-- Node12&#45;&gt;Node30 -->
<g id="edge43" class="edge"><title>Node12&#45;&gt;Node30</title>
<path fill="none" stroke="#9a32cd" stroke-dasharray="5,2" d="M1007.1,-551.682C1053.02,-564.245 1128.04,-583.32 1194,-593.413 1266.24,-604.466 1284.96,-602.744 1358,-605.413 1393.53,-606.711 1402.68,-609.482 1438,-605.413 1589.44,-587.965 1623.92,-563.603 1772,-527.413 1813.89,-517.176 1827.18,-522.188 1866,-503.413 1886.8,-493.354 1907.43,-475.825 1919.16,-464.963"/>
<polygon fill="#9a32cd" stroke="#9a32cd" points="1007.77,-548.235 997.197,-548.949 1005.91,-554.983 1007.77,-548.235"/>
<text text-anchor="middle" x="1501" y="-606.413" font-family="Helvetica,sans-Serif" font-size="10.00"> myResources</text>
</g>
<!-- Node13 -->
<g id="node13" class="node"><title>Node13</title>
<g id="a_node13"><a xlink:href="../../d8/df7/classview_1_1_turtle_view.html" target="_top" xlink:title="view.TurtleView">
<polygon fill="white" stroke="black" points="1224,-432.913 1224,-451.913 1310,-451.913 1310,-432.913 1224,-432.913"/>
<text text-anchor="middle" x="1267" y="-439.913" font-family="Helvetica,sans-Serif" font-size="10.00">view.TurtleView</text>
</a>
</g>
</g>
<!-- Node13&#45;&gt;Node10 -->
<g id="edge13" class="edge"><title>Node13&#45;&gt;Node10</title>
<path fill="none" stroke="#9a32cd" stroke-dasharray="5,2" d="M1320.06,-448.695C1360.95,-453.63 1417.25,-460.426 1455.93,-465.094"/>
<polygon fill="#9a32cd" stroke="#9a32cd" points="1320.36,-445.207 1310.01,-447.483 1319.52,-452.156 1320.36,-445.207"/>
<text text-anchor="middle" x="1398" y="-466.413" font-family="Helvetica,sans-Serif" font-size="10.00"> myActiveTurtle</text>
</g>
<!-- Node14 -->
<g id="node14" class="node"><title>Node14</title>
<polygon fill="white" stroke="#bfbfbf" points="929,-453.913 929,-472.913 997,-472.913 997,-453.913 929,-453.913"/>
<text text-anchor="middle" x="963" y="-460.913" font-family="Helvetica,sans-Serif" font-size="10.00">ImageView</text>
</g>
<!-- Node14&#45;&gt;Node13 -->
<g id="edge14" class="edge"><title>Node14&#45;&gt;Node13</title>
<path fill="none" stroke="midnightblue" d="M1007.1,-451.16C1018.54,-447.635 1030.81,-443.602 1042,-439.413 1050.2,-436.342 1051.44,-433.23 1060,-431.413 1115.71,-419.591 1181.68,-426.697 1223.68,-433.78"/>
<polygon fill="midnightblue" stroke="midnightblue" points="1005.87,-447.874 997.314,-454.118 1007.9,-454.575 1005.87,-447.874"/>
</g>
<!-- Node15 -->
<g id="node15" class="node"><title>Node15</title>
<polygon fill="white" stroke="#bfbfbf" points="940,-491.913 940,-510.913 986,-510.913 986,-491.913 940,-491.913"/>
<text text-anchor="middle" x="963" y="-498.913" font-family="Helvetica,sans-Serif" font-size="10.00">Group</text>
</g>
<!-- Node15&#45;&gt;Node10 -->
<g id="edge17" class="edge"><title>Node15&#45;&gt;Node10</title>
<path fill="none" stroke="#9a32cd" stroke-dasharray="5,2" d="M996.386,-501.217C1037.99,-500.835 1112.41,-499.711 1176,-496.413 1276.17,-491.216 1393.44,-480.701 1455.77,-474.759"/>
<polygon fill="#9a32cd" stroke="#9a32cd" points="996.267,-497.717 986.297,-501.301 996.326,-504.717 996.267,-497.717"/>
<text text-anchor="middle" x="1267" y="-498.413" font-family="Helvetica,sans-Serif" font-size="10.00"> myLines</text>
</g>
<!-- Node15&#45;&gt;Node13 -->
<g id="edge15" class="edge"><title>Node15&#45;&gt;Node13</title>
<path fill="none" stroke="#9a32cd" stroke-dasharray="5,2" d="M996.149,-499.374C1011.28,-497.049 1028.85,-492.243 1042,-482.413 1054.76,-472.875 1046.37,-459.661 1060,-451.413 1086.57,-435.335 1171.75,-436.916 1223.88,-439.605"/>
<polygon fill="#9a32cd" stroke="#9a32cd" points="995.638,-495.91 986.146,-500.618 996.502,-502.857 995.638,-495.91"/>
<text text-anchor="middle" x="1118" y="-454.413" font-family="Helvetica,sans-Serif" font-size="10.00"> myStamps</text>
</g>
<!-- Node16 -->
<g id="node16" class="node"><title>Node16</title>
<polygon fill="white" stroke="#bfbfbf" points="1199,-383.413 1199,-413.413 1335,-413.413 1335,-383.413 1199,-383.413"/>
<text text-anchor="start" x="1207" y="-401.413" font-family="Helvetica,sans-Serif" font-size="10.00">Map&lt; Integer, view.Turtle</text>
<text text-anchor="middle" x="1267" y="-390.413" font-family="Helvetica,sans-Serif" font-size="10.00">View &gt;</text>
</g>
<!-- Node16&#45;&gt;Node10 -->
<g id="edge16" class="edge"><title>Node16&#45;&gt;Node10</title>
<path fill="none" stroke="#9a32cd" stroke-dasharray="5,2" d="M1345.07,-413.113C1374.58,-419.747 1408.28,-428.558 1438,-439.413 1453.94,-445.233 1471.13,-454.046 1483.36,-460.79"/>
<polygon fill="#9a32cd" stroke="#9a32cd" points="1345.76,-409.68 1335.24,-410.948 1344.25,-416.516 1345.76,-409.68"/>
<text text-anchor="middle" x="1398" y="-442.413" font-family="Helvetica,sans-Serif" font-size="10.00"> myTurtles</text>
</g>
<!-- Node17&#45;&gt;Node9 -->
<g id="edge61" class="edge"><title>Node17&#45;&gt;Node9</title>
<path fill="none" stroke="#9a32cd" stroke-dasharray="5,2" d="M1218.57,-272.079C1209.61,-274.94 1200.9,-279.173 1194,-285.413 1177.1,-300.691 1191.4,-316.618 1176,-333.413 1131.4,-382.062 1104.34,-375.726 1042,-397.413 973.977,-421.078 936.188,-383.778 884,-433.413 862.589,-453.776 883.287,-473.449 866,-497.413 812.362,-571.769 710.69,-621.132 664.243,-640.803"/>
<polygon fill="#9a32cd" stroke="#9a32cd" points="1219.55,-275.439 1228.32,-269.482 1217.75,-268.676 1219.55,-275.439"/>
<text text-anchor="middle" x="963" y="-436.413" font-family="Helvetica,sans-Serif" font-size="10.00"> mySidebar</text>
</g>
<!-- Node17&#45;&gt;Node10 -->
<g id="edge18" class="edge"><title>Node17&#45;&gt;Node10</title>
<path fill="none" stroke="#9a32cd" stroke-dasharray="5,2" d="M1315.3,-276.266C1323.72,-278.754 1332.26,-281.778 1340,-285.413 1388.45,-308.169 1402.61,-315.26 1438,-355.413 1467.85,-389.272 1488.76,-439.981 1496.59,-460.884"/>
<polygon fill="#9a32cd" stroke="#9a32cd" points="1316.1,-272.857 1305.53,-273.589 1314.25,-279.608 1316.1,-272.857"/>
<text text-anchor="middle" x="1398" y="-358.413" font-family="Helvetica,sans-Serif" font-size="10.00"> mySidebar</text>
</g>
<!-- Node17&#45;&gt;Node30 -->
<g id="edge57" class="edge"><title>Node17&#45;&gt;Node30</title>
<path fill="none" stroke="#9a32cd" stroke-dasharray="5,2" d="M1315.72,-270.777C1350.04,-274.49 1397.25,-280.777 1438,-290.413 1622.22,-333.977 1835.46,-417.458 1905.44,-445.757"/>
<polygon fill="#9a32cd" stroke="#9a32cd" points="1315.82,-267.268 1305.51,-269.707 1315.09,-274.23 1315.82,-267.268"/>
<text text-anchor="middle" x="1599" y="-349.413" font-family="Helvetica,sans-Serif" font-size="10.00"> mySidebar</text>
</g>
<!-- Node32 -->
<g id="node32" class="node"><title>Node32</title>
<g id="a_node32"><a xlink:href="../../da/dc8/classview_1_1_editor.html" target="_top" xlink:title="view.Editor">
<polygon fill="white" stroke="black" points="1467.5,-748.913 1467.5,-767.913 1534.5,-767.913 1534.5,-748.913 1467.5,-748.913"/>
<text text-anchor="middle" x="1501" y="-755.913" font-family="Helvetica,sans-Serif" font-size="10.00">view.Editor</text>
</a>
</g>
</g>
<!-- Node17&#45;&gt;Node32 -->
<g id="edge49" class="edge"><title>Node17&#45;&gt;Node32</title>
<path fill="none" stroke="#9a32cd" stroke-dasharray="5,2" d="M1315.42,-270.299C1324.79,-273.233 1333.67,-277.945 1340,-285.413 1367.84,-318.278 1346.05,-437.029 1358,-478.413 1390.82,-592.044 1470.03,-714.221 1493.4,-748.809"/>
<polygon fill="#9a32cd" stroke="#9a32cd" points="1316.11,-266.865 1305.56,-267.845 1314.42,-273.657 1316.11,-266.865"/>
<text text-anchor="middle" x="1398" y="-659.413" font-family="Helvetica,sans-Serif" font-size="10.00"> mySidebar</text>
</g>
<!-- Node18 -->
<g id="node18" class="node"><title>Node18</title>
<polygon fill="white" stroke="#bfbfbf" points="942.5,-283.913 942.5,-302.913 983.5,-302.913 983.5,-283.913 942.5,-283.913"/>
<text text-anchor="middle" x="963" y="-290.913" font-family="Helvetica,sans-Serif" font-size="10.00">VBox</text>
</g>
<!-- Node18&#45;&gt;Node17 -->
<g id="edge19" class="edge"><title>Node18&#45;&gt;Node17</title>
<path fill="none" stroke="midnightblue" d="M993.863,-295.01C1035.06,-296.723 1111.54,-298.138 1176,-289.413 1181.55,-288.661 1207.61,-281.945 1230.27,-275.963"/>
<polygon fill="midnightblue" stroke="midnightblue" points="993.846,-291.506 983.699,-294.551 993.53,-298.499 993.846,-291.506"/>
</g>
<!-- Node19 -->
<g id="node19" class="node"><title>Node19</title>
<polygon fill="white" stroke="#bfbfbf" points="552.5,-87.9125 552.5,-106.913 725.5,-106.913 725.5,-87.9125 552.5,-87.9125"/>
<text text-anchor="middle" x="639" y="-94.9125" font-family="Helvetica,sans-Serif" font-size="10.00">ObservableList&lt; view.Property &gt;</text>
</g>
<!-- Node19&#45;&gt;Node17 -->
<g id="edge20" class="edge"><title>Node19&#45;&gt;Node17</title>
<path fill="none" stroke="#9a32cd" stroke-dasharray="5,2" d="M735.795,-90.8856C817.947,-87.5092 939.002,-87.8403 1042,-109.413 1104.85,-122.575 1123.66,-126.216 1176,-163.413 1214.13,-190.513 1246.87,-236.898 1259.94,-256.84"/>
<polygon fill="#9a32cd" stroke="#9a32cd" points="735.56,-87.3925 725.722,-91.3262 735.866,-94.3858 735.56,-87.3925"/>
<text text-anchor="middle" x="963" y="-112.413" font-family="Helvetica,sans-Serif" font-size="10.00"> myVariablesList</text>
</g>
<!-- Node19&#45;&gt;Node21 -->
<g id="edge30" class="edge"><title>Node19&#45;&gt;Node21</title>
<path fill="none" stroke="#9a32cd" stroke-dasharray="5,2" d="M694.931,-109.175C705.271,-111.495 715.981,-113.97 726,-116.413 745.519,-121.172 865.456,-153.406 926.45,-169.831"/>
<polygon fill="#9a32cd" stroke="#9a32cd" points="695.686,-105.758 685.165,-107.005 694.167,-112.591 695.686,-105.758"/>
<text text-anchor="middle" x="805" y="-155.413" font-family="Helvetica,sans-Serif" font-size="10.00"> myVariablesList</text>
</g>
<!-- Node20 -->
<g id="node20" class="node"><title>Node20</title>
<polygon fill="white" stroke="#bfbfbf" points="243,-55.9125 243,-74.9125 391,-74.9125 391,-55.9125 243,-55.9125"/>
<text text-anchor="middle" x="317" y="-62.9125" font-family="Helvetica,sans-Serif" font-size="10.00">TableView&lt; view.Property &gt;</text>
</g>
<!-- Node20&#45;&gt;Node17 -->
<g id="edge23" class="edge"><title>Node20&#45;&gt;Node17</title>
<path fill="none" stroke="#9a32cd" stroke-dasharray="5,2" d="M361.444,-53.1507C496.581,-17.7774 916.011,70.8157 1176,-110.413 1229.87,-147.961 1255.92,-228.881 1263.54,-256.749"/>
<polygon fill="#9a32cd" stroke="#9a32cd" points="360.235,-49.8505 351.469,-55.8013 362.033,-56.6157 360.235,-49.8505"/>
<text text-anchor="middle" x="805" y="-19.4125" font-family="Helvetica,sans-Serif" font-size="10.00"> myTurtlePropertiesTable</text>
<text text-anchor="middle" x="805" y="-8.41254" font-family="Helvetica,sans-Serif" font-size="10.00">myVariablesTable</text>
</g>
<!-- Node22 -->
<g id="node22" class="node"><title>Node22</title>
<g id="a_node22"><a xlink:href="../../d5/dea/classview_1_1_side_table_view.html" target="_top" xlink:title="view.SideTableView">
<polygon fill="white" stroke="black" points="586,-125.913 586,-144.913 692,-144.913 692,-125.913 586,-125.913"/>
<text text-anchor="middle" x="639" y="-132.913" font-family="Helvetica,sans-Serif" font-size="10.00">view.SideTableView</text>
</a>
</g>
</g>
<!-- Node20&#45;&gt;Node22 -->
<g id="edge28" class="edge"><title>Node20&#45;&gt;Node22</title>
<path fill="none" stroke="#9a32cd" stroke-dasharray="5,2" d="M371.553,-77.1273C434.108,-90.8111 536.396,-113.187 594.349,-125.864"/>
<polygon fill="#9a32cd" stroke="#9a32cd" points="372.007,-73.6438 361.49,-74.9259 370.511,-80.4821 372.007,-73.6438"/>
<text text-anchor="middle" x="478" y="-114.413" font-family="Helvetica,sans-Serif" font-size="10.00"> myTable</text>
</g>
<!-- Node21&#45;&gt;Node17 -->
<g id="edge24" class="edge"><title>Node21&#45;&gt;Node17</title>
<path fill="none" stroke="#9a32cd" stroke-dasharray="5,2" d="M991.841,-193.513C1010.68,-202.572 1036.35,-213.991 1060,-221.413 1110.15,-237.149 1124.68,-233.059 1176,-244.413 1193.28,-248.235 1212.32,-252.834 1228.43,-256.837"/>
<polygon fill="#9a32cd" stroke="#9a32cd" points="993.18,-190.272 982.659,-189.025 990.106,-196.561 993.18,-190.272"/>
<text text-anchor="middle" x="1118" y="-247.413" font-family="Helvetica,sans-Serif" font-size="10.00"> myVariablesPane</text>
</g>
<!-- Node22&#45;&gt;Node21 -->
<g id="edge25" class="edge"><title>Node22&#45;&gt;Node21</title>
<path fill="none" stroke="midnightblue" d="M674.399,-148.311C694.414,-155.228 720.296,-163.179 744,-167.413 800.531,-177.509 866.501,-179.858 910.939,-180.094"/>
<polygon fill="midnightblue" stroke="midnightblue" points="675.391,-144.949 664.796,-144.917 673.058,-151.549 675.391,-144.949"/>
</g>
<!-- Node26 -->
<g id="node26" class="node"><title>Node26</title>
<g id="a_node26"><a xlink:href="../../d9/d3a/classview_1_1_turtle_properties_view.html" target="_top" xlink:title="view.TurtlePropertiesView">
<polygon fill="white" stroke="black" points="895.5,-129.913 895.5,-148.913 1030.5,-148.913 1030.5,-129.913 895.5,-129.913"/>
<text text-anchor="middle" x="963" y="-136.913" font-family="Helvetica,sans-Serif" font-size="10.00">view.TurtlePropertiesView</text>
</a>
</g>
</g>
<!-- Node22&#45;&gt;Node26 -->
<g id="edge33" class="edge"><title>Node22&#45;&gt;Node26</title>
<path fill="none" stroke="midnightblue" d="M702.342,-135.239C747.73,-135.223 810.679,-135.426 866,-136.413 875.503,-136.582 885.534,-136.825 895.386,-137.1"/>
<polygon fill="midnightblue" stroke="midnightblue" points="702.065,-131.74 692.067,-135.247 702.07,-138.74 702.065,-131.74"/>
</g>
<!-- Node23 -->
<g id="node23" class="node"><title>Node23</title>
<g id="a_node23"><a xlink:href="../../d2/d38/classview_1_1_side_properties_view.html" target="_top" xlink:title="view.SidePropertiesView">
<polygon fill="white" stroke="black" points="251.5,-163.913 251.5,-182.913 382.5,-182.913 382.5,-163.913 251.5,-163.913"/>
<text text-anchor="middle" x="317" y="-170.913" font-family="Helvetica,sans-Serif" font-size="10.00">view.SidePropertiesView</text>
</a>
</g>
</g>
<!-- Node23&#45;&gt;Node22 -->
<g id="edge26" class="edge"><title>Node23&#45;&gt;Node22</title>
<path fill="none" stroke="midnightblue" d="M393.036,-169.739C434.693,-167.14 487.366,-162.932 534,-156.413 554.797,-153.505 577.695,-149.023 596.699,-144.945"/>
<polygon fill="midnightblue" stroke="midnightblue" points="392.736,-166.25 382.966,-170.349 393.16,-173.238 392.736,-166.25"/>
</g>
<!-- Node24 -->
<g id="node24" class="node"><title>Node24</title>
<polygon fill="white" stroke="#bfbfbf" points="0.5,-163.913 0.5,-182.913 135.5,-182.913 135.5,-163.913 0.5,-163.913"/>
<text text-anchor="middle" x="68" y="-170.913" font-family="Helvetica,sans-Serif" font-size="10.00">ObservableList&lt; Node &gt;</text>
</g>
<!-- Node24&#45;&gt;Node23 -->
<g id="edge27" class="edge"><title>Node24&#45;&gt;Node23</title>
<path fill="none" stroke="#9a32cd" stroke-dasharray="5,2" d="M145.848,-173.413C179.752,-173.413 219.154,-173.413 251.499,-173.413"/>
<polygon fill="#9a32cd" stroke="#9a32cd" points="145.516,-169.913 135.516,-173.413 145.516,-176.913 145.516,-169.913"/>
<text text-anchor="middle" x="183" y="-176.413" font-family="Helvetica,sans-Serif" font-size="10.00"> myChildren</text>
</g>
<!-- Node25 -->
<g id="node25" class="node"><title>Node25</title>
<polygon fill="white" stroke="#bfbfbf" points="239.5,-114.413 239.5,-144.413 394.5,-144.413 394.5,-114.413 239.5,-114.413"/>
<text text-anchor="start" x="247.5" y="-132.413" font-family="Helvetica,sans-Serif" font-size="10.00">TableColumn&lt; view.Property,</text>
<text text-anchor="middle" x="317" y="-121.413" font-family="Helvetica,sans-Serif" font-size="10.00"> String &gt;</text>
</g>
<!-- Node25&#45;&gt;Node22 -->
<g id="edge29" class="edge"><title>Node25&#45;&gt;Node22</title>
<path fill="none" stroke="#9a32cd" stroke-dasharray="5,2" d="M404.896,-131.042C462.818,-132.128 537.022,-133.519 585.963,-134.437"/>
<polygon fill="#9a32cd" stroke="#9a32cd" points="404.712,-127.538 394.648,-130.85 404.581,-134.537 404.712,-127.538"/>
<text text-anchor="middle" x="478" y="-147.413" font-family="Helvetica,sans-Serif" font-size="10.00"> rightTableCol</text>
<text text-anchor="middle" x="478" y="-136.413" font-family="Helvetica,sans-Serif" font-size="10.00">leftTableCol</text>
</g>
<!-- Node26&#45;&gt;Node17 -->
<g id="edge32" class="edge"><title>Node26&#45;&gt;Node17</title>
<path fill="none" stroke="#9a32cd" stroke-dasharray="5,2" d="M1011.72,-151.602C1021.76,-154.352 1032.26,-157.364 1042,-160.413 1102.37,-179.318 1119.26,-180.429 1176,-208.413 1205.01,-222.72 1236.16,-244.373 1253.14,-256.776"/>
<polygon fill="#9a32cd" stroke="#9a32cd" points="1012.43,-148.17 1001.87,-148.948 1010.61,-154.929 1012.43,-148.17"/>
<text text-anchor="middle" x="1118" y="-211.413" font-family="Helvetica,sans-Serif" font-size="10.00"> myTurtlePropertiesPane</text>
</g>
<!-- Node27&#45;&gt;Node17 -->
<g id="edge34" class="edge"><title>Node27&#45;&gt;Node17</title>
<path fill="none" stroke="#9a32cd" stroke-dasharray="5,2" d="M972.188,-762.6C986.734,-730.52 1019.41,-664.171 1060,-617.413 1103.14,-567.723 1145.17,-583.547 1176,-525.413 1201.06,-478.162 1159.8,-326.531 1194,-285.413 1202.43,-275.275 1215.58,-270.199 1228.34,-267.761"/>
<polygon fill="#9a32cd" stroke="#9a32cd" points="968.987,-761.184 968.115,-771.743 975.381,-764.033 968.987,-761.184"/>
<text text-anchor="middle" x="1118" y="-620.413" font-family="Helvetica,sans-Serif" font-size="10.00"> myParser</text>
</g>
<!-- Node27&#45;&gt;Node30 -->
<g id="edge52" class="edge"><title>Node27&#45;&gt;Node30</title>
<path fill="none" stroke="#9a32cd" stroke-dasharray="5,2" d="M977.888,-798.999C995.112,-819.731 1026.34,-853.946 1060,-874.413 1142.5,-924.581 1169.45,-943.413 1266,-943.413 1266,-943.413 1266,-943.413 1713,-943.413 1743.62,-943.413 1858.59,-856.242 1866,-844.413 1907.67,-777.881 1925.26,-518.005 1928.45,-464.916"/>
<polygon fill="#9a32cd" stroke="#9a32cd" points="980.422,-796.569 971.397,-791.019 974.992,-800.986 980.422,-796.569"/>
<text text-anchor="middle" x="1501" y="-946.413" font-family="Helvetica,sans-Serif" font-size="10.00"> myParser</text>
</g>
<!-- Node27&#45;&gt;Node32 -->
<g id="edge47" class="edge"><title>Node27&#45;&gt;Node32</title>
<path fill="none" stroke="#9a32cd" stroke-dasharray="5,2" d="M1013.05,-780.237C1099.13,-778.021 1282.97,-772.603 1438,-763.413 1447.49,-762.85 1457.78,-762.084 1467.2,-761.32"/>
<polygon fill="#9a32cd" stroke="#9a32cd" points="1012.95,-776.738 1003.04,-780.492 1013.13,-783.736 1012.95,-776.738"/>
<text text-anchor="middle" x="1267" y="-777.413" font-family="Helvetica,sans-Serif" font-size="10.00"> myParser</text>
</g>
<!-- Node28 -->
<g id="node28" class="node"><title>Node28</title>
<polygon fill="white" stroke="#bfbfbf" points="583,-782.413 583,-812.413 695,-812.413 695,-782.413 583,-782.413"/>
<text text-anchor="start" x="591" y="-800.413" font-family="Helvetica,sans-Serif" font-size="10.00">List&lt; Entry&lt; String,</text>
<text text-anchor="middle" x="639" y="-789.413" font-family="Helvetica,sans-Serif" font-size="10.00"> Pattern &gt; &gt;</text>
</g>
<!-- Node28&#45;&gt;Node27 -->
<g id="edge36" class="edge"><title>Node28&#45;&gt;Node27</title>
<path fill="none" stroke="#9a32cd" stroke-dasharray="5,2" d="M705.519,-794.157C770.679,-790.919 868.507,-786.058 922.567,-783.372"/>
<polygon fill="#9a32cd" stroke="#9a32cd" points="705.168,-790.67 695.354,-794.662 705.515,-797.661 705.168,-790.67"/>
<text text-anchor="middle" x="805" y="-795.413" font-family="Helvetica,sans-Serif" font-size="10.00"> myPatterns</text>
</g>
<!-- Node29 -->
<g id="node29" class="node"><title>Node29</title>
<polygon fill="white" stroke="#bfbfbf" points="578,-743.913 578,-762.913 700,-762.913 700,-743.913 578,-743.913"/>
<text text-anchor="middle" x="639" y="-750.913" font-family="Helvetica,sans-Serif" font-size="10.00">Map&lt; String, String &gt;</text>
</g>
<!-- Node29&#45;&gt;Node27 -->
<g id="edge39" class="edge"><title>Node29&#45;&gt;Node27</title>
<path fill="none" stroke="#9a32cd" stroke-dasharray="5,2" d="M710.594,-759.172C755.171,-762.853 813.969,-767.787 866,-772.413 884.675,-774.073 905.384,-776.003 922.773,-777.649"/>
<polygon fill="#9a32cd" stroke="#9a32cd" points="710.699,-755.669 700.445,-758.336 710.124,-762.645 710.699,-755.669"/>
<text text-anchor="middle" x="805" y="-775.413" font-family="Helvetica,sans-Serif" font-size="10.00"> myCommandMap</text>
</g>
<!-- Node30&#45;&gt;Node27 -->
<g id="edge40" class="edge"><title>Node30&#45;&gt;Node27</title>
<path fill="none" stroke="#9a32cd" stroke-dasharray="5,2" d="M1928.64,-475.231C1925.96,-561.063 1903.32,-896.413 1713,-896.413 1266,-896.413 1266,-896.413 1266,-896.413 1147.9,-896.413 1019.83,-818.659 978.037,-791.02"/>
<polygon fill="#9a32cd" stroke="#9a32cd" points="1932.15,-475.119 1928.9,-465.034 1925.15,-474.942 1932.15,-475.119"/>
<text text-anchor="middle" x="1501" y="-899.413" font-family="Helvetica,sans-Serif" font-size="10.00"> mySLogoView</text>
</g>
<!-- Node31 -->
<g id="node31" class="node"><title>Node31</title>
<polygon fill="white" stroke="#bfbfbf" points="1689.5,-184.913 1689.5,-203.913 1734.5,-203.913 1734.5,-184.913 1689.5,-184.913"/>
<text text-anchor="middle" x="1712" y="-191.913" font-family="Helvetica,sans-Serif" font-size="10.00">Stage</text>
</g>
<!-- Node31&#45;&gt;Node30 -->
<g id="edge42" class="edge"><title>Node31&#45;&gt;Node30</title>
<path fill="none" stroke="#9a32cd" stroke-dasharray="5,2" d="M1744.58,-187.381C1778.63,-181.783 1832.47,-178.973 1866,-207.413 1903.78,-239.45 1923.54,-403.856 1928.01,-445.709"/>
<polygon fill="#9a32cd" stroke="#9a32cd" points="1743.9,-183.947 1734.69,-189.177 1745.15,-190.834 1743.9,-183.947"/>
<text text-anchor="middle" x="1828" y="-210.413" font-family="Helvetica,sans-Serif" font-size="10.00"> myStage</text>
</g>
<!-- Node32&#45;&gt;Node30 -->
<g id="edge44" class="edge"><title>Node32&#45;&gt;Node30</title>
<path fill="none" stroke="#9a32cd" stroke-dasharray="5,2" d="M1544.62,-755.539C1619.68,-748.224 1776.01,-722.563 1866,-633.413 1915.37,-584.502 1926.18,-494.529 1928.43,-465.045"/>
<polygon fill="#9a32cd" stroke="#9a32cd" points="1544.22,-752.061 1534.58,-756.454 1544.86,-759.032 1544.22,-752.061"/>
<text text-anchor="middle" x="1712" y="-741.413" font-family="Helvetica,sans-Serif" font-size="10.00"> myEditor</text>
</g>
<!-- Node33 -->
<g id="node33" class="node"><title>Node33</title>
<polygon fill="white" stroke="#bfbfbf" points="1246,-725.913 1246,-744.913 1288,-744.913 1288,-725.913 1246,-725.913"/>
<text text-anchor="middle" x="1267" y="-732.913" font-family="Helvetica,sans-Serif" font-size="10.00">HBox</text>
</g>
<!-- Node33&#45;&gt;Node32 -->
<g id="edge45" class="edge"><title>Node33&#45;&gt;Node32</title>
<path fill="none" stroke="midnightblue" d="M1298.18,-738.405C1341.8,-742.729 1422.15,-750.695 1467.19,-755.16"/>
<polygon fill="midnightblue" stroke="midnightblue" points="1298.48,-734.917 1288.18,-737.413 1297.79,-741.883 1298.48,-734.917"/>
</g>
<!-- Node34 -->
<g id="node34" class="node"><title>Node34</title>
<polygon fill="white" stroke="#bfbfbf" points="1242.5,-848.913 1242.5,-867.913 1291.5,-867.913 1291.5,-848.913 1242.5,-848.913"/>
<text text-anchor="middle" x="1267" y="-855.913" font-family="Helvetica,sans-Serif" font-size="10.00">Button</text>
</g>
<!-- Node34&#45;&gt;Node32 -->
<g id="edge46" class="edge"><title>Node34&#45;&gt;Node32</title>
<path fill="none" stroke="#9a32cd" stroke-dasharray="5,2" d="M1302.07,-859.162C1338.06,-858.517 1395.4,-853.296 1438,-829.413 1464.55,-814.528 1485.25,-783.792 1494.58,-768.096"/>
<polygon fill="#9a32cd" stroke="#9a32cd" points="1301.6,-855.665 1291.62,-859.231 1301.65,-862.665 1301.6,-855.665"/>
<text text-anchor="middle" x="1398" y="-857.413" font-family="Helvetica,sans-Serif" font-size="10.00"> runButton</text>
</g>
<!-- Node35 -->
<g id="node35" class="node"><title>Node35</title>
<polygon fill="white" stroke="#bfbfbf" points="1238,-810.913 1238,-829.913 1296,-829.913 1296,-810.913 1238,-810.913"/>
<text text-anchor="middle" x="1267" y="-817.913" font-family="Helvetica,sans-Serif" font-size="10.00">TextArea</text>
</g>
<!-- Node35&#45;&gt;Node32 -->
<g id="edge48" class="edge"><title>Node35&#45;&gt;Node32</title>
<path fill="none" stroke="#9a32cd" stroke-dasharray="5,2" d="M1306.49,-819.03C1341.64,-816.777 1394.58,-810.872 1438,-795.413 1456.42,-788.854 1475.41,-776.549 1487.44,-767.937"/>
<polygon fill="#9a32cd" stroke="#9a32cd" points="1305.97,-815.554 1296.19,-819.618 1306.37,-822.542 1305.97,-815.554"/>
<text text-anchor="middle" x="1398" y="-817.413" font-family="Helvetica,sans-Serif" font-size="10.00"> textEditor</text>
</g>
<!-- Node36 -->
<g id="node36" class="node"><title>Node36</title>
<polygon fill="white" stroke="#bfbfbf" points="1652.5,-146.913 1652.5,-165.913 1771.5,-165.913 1771.5,-146.913 1652.5,-146.913"/>
<text text-anchor="middle" x="1712" y="-153.913" font-family="Helvetica,sans-Serif" font-size="10.00">Map&lt; String, Node &gt;</text>
</g>
<!-- Node36&#45;&gt;Node30 -->
<g id="edge50" class="edge"><title>Node36&#45;&gt;Node30</title>
<path fill="none" stroke="#9a32cd" stroke-dasharray="5,2" d="M1771.16,-145.983C1802.81,-143.743 1840.58,-147.143 1866,-169.413 1909.12,-207.185 1925.16,-400.324 1928.37,-445.809"/>
<polygon fill="#9a32cd" stroke="#9a32cd" points="1770.77,-142.505 1761.12,-146.892 1771.4,-149.476 1770.77,-142.505"/>
<text text-anchor="middle" x="1828" y="-172.413" font-family="Helvetica,sans-Serif" font-size="10.00"> variables</text>
</g>
<!-- Node37 -->
<g id="node37" class="node"><title>Node37</title>
<polygon fill="white" stroke="#bfbfbf" points="1671.5,-108.913 1671.5,-127.913 1752.5,-127.913 1752.5,-108.913 1671.5,-108.913"/>
<text text-anchor="middle" x="1712" y="-115.913" font-family="Helvetica,sans-Serif" font-size="10.00">Dimension2D</text>
</g>
<!-- Node37&#45;&gt;Node30 -->
<g id="edge53" class="edge"><title>Node37&#45;&gt;Node30</title>
<path fill="none" stroke="#9a32cd" stroke-dasharray="5,2" d="M1762.63,-108.535C1795.9,-104.957 1838.5,-106.715 1866,-131.413 1914.5,-174.966 1926.55,-396.985 1928.63,-445.879"/>
<polygon fill="#9a32cd" stroke="#9a32cd" points="1762.12,-105.072 1752.64,-109.797 1763,-112.017 1762.12,-105.072"/>
<text text-anchor="middle" x="1828" y="-134.413" font-family="Helvetica,sans-Serif" font-size="10.00"> myDimensions</text>
</g>
<!-- Node38&#45;&gt;Node9 -->
<g id="edge60" class="edge"><title>Node38&#45;&gt;Node9</title>
<path fill="none" stroke="#9a32cd" stroke-dasharray="5,2" d="M1690.62,-524.044C1660.29,-546.826 1600.93,-589.572 1546,-618.413 1500.26,-642.428 1487.99,-648.361 1438,-661.413 1199.65,-723.645 1130.23,-685.607 884,-678.413 821.765,-676.594 805.763,-681.278 744,-673.413 721.07,-670.492 695.737,-664.94 675.815,-660.023"/>
<polygon fill="#9a32cd" stroke="#9a32cd" points="1692.86,-526.739 1698.72,-517.914 1688.64,-521.157 1692.86,-526.739"/>
<text text-anchor="middle" x="1267" y="-700.413" font-family="Helvetica,sans-Serif" font-size="10.00"> myDrawer</text>
</g>
<!-- Node38&#45;&gt;Node30 -->
<g id="edge54" class="edge"><title>Node38&#45;&gt;Node30</title>
<path fill="none" stroke="#9a32cd" stroke-dasharray="5,2" d="M1758.7,-497.2C1797.66,-487.639 1853.07,-474.043 1889.99,-464.985"/>
<polygon fill="#9a32cd" stroke="#9a32cd" points="1757.55,-493.878 1748.67,-499.661 1759.21,-500.677 1757.55,-493.878"/>
<text text-anchor="middle" x="1828" y="-491.413" font-family="Helvetica,sans-Serif" font-size="10.00"> drawer</text>
</g>
<!-- Node39 -->
<g id="node39" class="node"><title>Node39</title>
<polygon fill="white" stroke="#bfbfbf" points="1480.5,-512.913 1480.5,-531.913 1521.5,-531.913 1521.5,-512.913 1480.5,-512.913"/>
<text text-anchor="middle" x="1501" y="-519.913" font-family="Helvetica,sans-Serif" font-size="10.00">Color</text>
</g>
<!-- Node39&#45;&gt;Node38 -->
<g id="edge56" class="edge"><title>Node39&#45;&gt;Node38</title>
<path fill="none" stroke="#9a32cd" stroke-dasharray="5,2" d="M1532.03,-520.401C1569.9,-517.864 1634.91,-513.509 1675.29,-510.805"/>
<polygon fill="#9a32cd" stroke="#9a32cd" points="1531.41,-516.935 1521.66,-521.095 1531.87,-523.919 1531.41,-516.935"/>
<text text-anchor="middle" x="1599" y="-521.413" font-family="Helvetica,sans-Serif" font-size="10.00"> myColor</text>
</g>
<!-- Node40 -->
<g id="node40" class="node"><title>Node40</title>
<polygon fill="white" stroke="#bfbfbf" points="894,-245.913 894,-264.913 1032,-264.913 1032,-245.913 894,-245.913"/>
<text text-anchor="middle" x="963" y="-252.913" font-family="Helvetica,sans-Serif" font-size="10.00">ObservableList&lt; String &gt;</text>
</g>
<!-- Node40&#45;&gt;Node17 -->
<g id="edge58" class="edge"><title>Node40&#45;&gt;Node17</title>
<path fill="none" stroke="#9a32cd" stroke-dasharray="5,2" d="M1042.33,-258.266C1102.23,-260.447 1182.14,-263.358 1228.45,-265.045"/>
<polygon fill="#9a32cd" stroke="#9a32cd" points="1042.27,-254.761 1032.15,-257.895 1042.02,-261.757 1042.27,-254.761"/>
<text text-anchor="middle" x="1118" y="-277.413" font-family="Helvetica,sans-Serif" font-size="10.00"> myCommandItems</text>
<text text-anchor="middle" x="1118" y="-266.413" font-family="Helvetica,sans-Serif" font-size="10.00">myHistoryItems</text>
</g>
<!-- Node41 -->
<g id="node41" class="node"><title>Node41</title>
<polygon fill="white" stroke="#bfbfbf" points="1235.5,-344.913 1235.5,-363.913 1298.5,-363.913 1298.5,-344.913 1235.5,-344.913"/>
<text text-anchor="middle" x="1267" y="-351.913" font-family="Helvetica,sans-Serif" font-size="10.00">Rectangle</text>
</g>
<!-- Node41&#45;&gt;Node10 -->
<g id="edge59" class="edge"><title>Node41&#45;&gt;Node10</title>
<path fill="none" stroke="#9a32cd" stroke-dasharray="5,2" d="M1308.85,-359.333C1345.03,-365.166 1398.14,-377.445 1438,-402.413 1462.64,-417.848 1483.58,-445.706 1493.63,-460.521"/>
<polygon fill="#9a32cd" stroke="#9a32cd" points="1309.07,-355.826 1298.66,-357.788 1308.02,-362.747 1309.07,-355.826"/>
<text text-anchor="middle" x="1398" y="-405.413" font-family="Helvetica,sans-Serif" font-size="10.00"> myBackground</text>
</g>
<!-- Node42 -->
<g id="node42" class="node"><title>Node42</title>
<polygon fill="white" stroke="#bfbfbf" points="571,-359.413 571,-389.413 707,-389.413 707,-359.413 571,-359.413"/>
<text text-anchor="start" x="579" y="-377.413" font-family="Helvetica,sans-Serif" font-size="10.00">List&lt; model.instructions.</text>
<text text-anchor="middle" x="639" y="-366.413" font-family="Helvetica,sans-Serif" font-size="10.00">Instruction &gt;</text>
</g>
<!-- Node42&#45;&gt;Node2 -->
<g id="edge62" class="edge"><title>Node42&#45;&gt;Node2</title>
<path fill="none" stroke="#9a32cd" stroke-dasharray="5,2" d="M717.307,-375.373C767.736,-375.999 833.34,-376.814 883.923,-377.443"/>
<polygon fill="#9a32cd" stroke="#9a32cd" points="717.153,-371.871 707.11,-375.246 717.066,-378.87 717.153,-371.871"/>
<text text-anchor="middle" x="805" y="-380.413" font-family="Helvetica,sans-Serif" font-size="10.00"> myDependencies</text>
</g>
</g>
</svg>
