<?xml version="1.0" encoding="UTF-8" standalone="no"?>
<!DOCTYPE svg PUBLIC "-//W3C//DTD SVG 1.1//EN"
 "http://www.w3.org/Graphics/SVG/1.1/DTD/svg11.dtd">
<!-- Generated by graphviz version 2.36.0 (20140111.2315)
 -->
<!-- Title: view.SidePropertiesView.SidePropertiesView Pages: 1 -->
<svg width="364pt" height="77pt"
 viewBox="0.00 0.00 364.00 77.00" xmlns="http://www.w3.org/2000/svg" xmlns:xlink="http://www.w3.org/1999/xlink">
<g id="graph0" class="graph" transform="scale(1 1) rotate(0) translate(4 73)">
<title>view.SidePropertiesView.SidePropertiesView</title>
<polygon fill="white" stroke="none" points="-4,4 -4,-73 360,-73 360,4 -4,4"/>
<!-- Node1 -->
<g id="node1" class="node"><title>Node1</title>
<polygon fill="#bfbfbf" stroke="black" points="0.5,-17 0.5,-47 133.5,-47 133.5,-17 0.5,-17"/>
<text text-anchor="start" x="8.5" y="-35" font-family="Helvetica,sans-Serif" font-size="10.00">view.SidePropertiesView.</text>
<text text-anchor="middle" x="67" y="-24" font-family="Helvetica,sans-Serif" font-size="10.00">SidePropertiesView</text>
</g>
<!-- Node2 -->
<g id="node2" class="node"><title>Node2</title>
<g id="a_node2"><a xlink:href="../../d2/d38/classview_1_1_side_properties_view.html#a744965d29d463c9cb8b8b89dbf752adf" target="_top" xlink:title="view.SidePropertiesView.create\lTitleText">
<polygon fill="white" stroke="black" points="181,-39 181,-69 345,-69 345,-39 181,-39"/>
<text text-anchor="start" x="189" y="-57" font-family="Helvetica,sans-Serif" font-size="10.00">view.SidePropertiesView.create</text>
<text text-anchor="middle" x="263" y="-46" font-family="Helvetica,sans-Serif" font-size="10.00">TitleText</text>
</a>
</g>
</g>
<!-- Node1&#45;&gt;Node2 -->
<g id="edge1" class="edge"><title>Node1&#45;&gt;Node2</title>
<path fill="none" stroke="midnightblue" d="M133.68,-39.4482C145.649,-40.8056 158.332,-42.2438 170.882,-43.6671"/>
<polygon fill="midnightblue" stroke="midnightblue" points="170.573,-47.1543 180.903,-44.8035 171.361,-40.1989 170.573,-47.1543"/>
</g>
<!-- Node3 -->
<g id="node3" class="node"><title>Node3</title>
<g id="a_node3"><a xlink:href="../../d2/d38/classview_1_1_side_properties_view.html#a463eee57bb6ac16fab2a0d1550f6d32f" target="_top" xlink:title="view.SidePropertiesView.createView">
<polygon fill="white" stroke="black" points="170.5,-0.5 170.5,-19.5 355.5,-19.5 355.5,-0.5 170.5,-0.5"/>
<text text-anchor="middle" x="263" y="-7.5" font-family="Helvetica,sans-Serif" font-size="10.00">view.SidePropertiesView.createView</text>
</a>
</g>
</g>
<!-- Node1&#45;&gt;Node3 -->
<g id="edge2" class="edge"><title>Node1&#45;&gt;Node3</title>
<path fill="none" stroke="midnightblue" d="M133.68,-24.5518C144.732,-23.2984 156.392,-21.9761 167.995,-20.6603"/>
<polygon fill="midnightblue" stroke="midnightblue" points="168.619,-24.1122 178.16,-19.5076 167.83,-17.1568 168.619,-24.1122"/>
</g>
</g>
</svg>
