<?xml version="1.0" encoding="UTF-8" standalone="no"?>
<!DOCTYPE svg PUBLIC "-//W3C//DTD SVG 1.1//EN"
 "http://www.w3.org/Graphics/SVG/1.1/DTD/svg11.dtd">
<!-- Generated by graphviz version 2.36.0 (20140111.2315)
 -->
<!-- Title: model.instructions.Instruction Pages: 1 -->
<svg width="1974pt" height="903pt"
 viewBox="0.00 0.00 1974.00 903.00" xmlns="http://www.w3.org/2000/svg" xmlns:xlink="http://www.w3.org/1999/xlink">
<g id="graph0" class="graph" transform="scale(1 1) rotate(0) translate(4 899)">
<title>model.instructions.Instruction</title>
<polygon fill="white" stroke="none" points="-4,4 -4,-899 1970,-899 1970,4 -4,4"/>
<!-- Node1 -->
<g id="node1" class="node"><title>Node1</title>
<polygon fill="#bfbfbf" stroke="black" points="884,-334.5 884,-353.5 1042,-353.5 1042,-334.5 884,-334.5"/>
<text text-anchor="middle" x="963" y="-341.5" font-family="Helvetica,sans-Serif" font-size="10.00">model.instructions.Instruction</text>
</g>
<!-- Node2 -->
<g id="node2" class="node"><title>Node2</title>
<polygon fill="white" stroke="#bfbfbf" points="287,-361.5 287,-380.5 347,-380.5 347,-361.5 287,-361.5"/>
<text text-anchor="middle" x="317" y="-368.5" font-family="Helvetica,sans-Serif" font-size="10.00">Observer</text>
</g>
<!-- Node2&#45;&gt;Node1 -->
<g id="edge1" class="edge"><title>Node2&#45;&gt;Node1</title>
<path fill="none" stroke="midnightblue" d="M357.164,-370.528C447.129,-369.267 675.468,-365.049 866,-353 871.847,-352.63 877.89,-352.193 883.966,-351.715"/>
<polygon fill="midnightblue" stroke="midnightblue" points="357.091,-367.029 347.14,-370.665 357.187,-374.028 357.091,-367.029"/>
</g>
<!-- Node8 -->
<g id="node8" class="node"><title>Node8</title>
<g id="a_node8"><a xlink:href="../../d4/d64/classview_1_1_view_updater.html" target="_top" xlink:title="view.ViewUpdater">
<polygon fill="white" stroke="black" points="589,-270.5 589,-289.5 689,-289.5 689,-270.5 589,-270.5"/>
<text text-anchor="middle" x="639" y="-277.5" font-family="Helvetica,sans-Serif" font-size="10.00">view.ViewUpdater</text>
</a>
</g>
</g>
<!-- Node2&#45;&gt;Node8 -->
<g id="edge8" class="edge"><title>Node2&#45;&gt;Node8</title>
<path fill="none" stroke="midnightblue" d="M356.77,-359.457C403.126,-345.719 483.096,-322.223 552,-303 568.227,-298.473 586.226,-293.631 601.547,-289.564"/>
<polygon fill="midnightblue" stroke="midnightblue" points="355.719,-356.118 347.127,-362.318 357.709,-362.829 355.719,-356.118"/>
</g>
<!-- Node26 -->
<g id="node26" class="node"><title>Node26</title>
<g id="a_node26"><a xlink:href="../../dc/df5/classmodel_1_1_parser.html" target="_top" xlink:title="model.Parser">
<polygon fill="white" stroke="black" points="923,-687.5 923,-706.5 1003,-706.5 1003,-687.5 923,-687.5"/>
<text text-anchor="middle" x="963" y="-694.5" font-family="Helvetica,sans-Serif" font-size="10.00">model.Parser</text>
</a>
</g>
</g>
<!-- Node2&#45;&gt;Node26 -->
<g id="edge34" class="edge"><title>Node2&#45;&gt;Node26</title>
<path fill="none" stroke="midnightblue" d="M336.016,-387.547C373.647,-421.401 464.385,-499.386 552,-547 681.696,-617.483 851.34,-667.536 925.093,-687.453"/>
<polygon fill="midnightblue" stroke="midnightblue" points="338.173,-384.778 328.413,-380.655 333.472,-389.965 338.173,-384.778"/>
</g>
<!-- Node3 -->
<g id="node3" class="node"><title>Node3</title>
<g id="a_node3"><a xlink:href="../../d1/dca/classmodel_1_1_execution_environment.html" target="_top" xlink:title="model.ExecutionEnvironment">
<polygon fill="white" stroke="black" points="560.5,-687.5 560.5,-706.5 717.5,-706.5 717.5,-687.5 560.5,-687.5"/>
<text text-anchor="middle" x="639" y="-694.5" font-family="Helvetica,sans-Serif" font-size="10.00">model.ExecutionEnvironment</text>
</a>
</g>
</g>
<!-- Node3&#45;&gt;Node1 -->
<g id="edge2" class="edge"><title>Node3&#45;&gt;Node1</title>
<path fill="none" stroke="#9a32cd" stroke-dasharray="5,2" d="M653.296,-678.988C672.614,-651.852 708.084,-598.197 726,-547 743.377,-497.341 711.152,-471.097 744,-430 780.38,-384.484 817.701,-414.594 866,-382 875.642,-375.493 873.938,-368.837 884,-363 890.631,-359.153 898.013,-356.083 905.517,-353.632"/>
<polygon fill="#9a32cd" stroke="#9a32cd" points="650.213,-677.278 647.192,-687.433 655.887,-681.379 650.213,-677.278"/>
<text text-anchor="middle" x="805" y="-433" font-family="Helvetica,sans-Serif" font-size="10.00"> myEnvironment</text>
</g>
<!-- Node16 -->
<g id="node16" class="node"><title>Node16</title>
<g id="a_node16"><a xlink:href="../../d1/dc7/classview_1_1_side_bar.html" target="_top" xlink:title="view.SideBar">
<polygon fill="white" stroke="black" points="1223.5,-430.5 1223.5,-449.5 1300.5,-449.5 1300.5,-430.5 1223.5,-430.5"/>
<text text-anchor="middle" x="1262" y="-437.5" font-family="Helvetica,sans-Serif" font-size="10.00">view.SideBar</text>
</a>
</g>
</g>
<!-- Node3&#45;&gt;Node16 -->
<g id="edge21" class="edge"><title>Node3&#45;&gt;Node16</title>
<path fill="none" stroke="#9a32cd" stroke-dasharray="5,2" d="M673.334,-683.829C720.035,-665.61 807.774,-632.227 884,-608 953.357,-585.956 972.341,-586.071 1042,-565 1050.07,-562.558 1051.89,-561.325 1060,-559 1110.98,-544.379 1137.95,-567.947 1176,-531 1197.81,-509.819 1173.5,-487.454 1194,-465 1201.7,-456.565 1212.52,-450.964 1223.22,-447.249"/>
<polygon fill="#9a32cd" stroke="#9a32cd" points="672.048,-680.574 664.011,-687.478 674.599,-687.093 672.048,-680.574"/>
<text text-anchor="middle" x="963" y="-611" font-family="Helvetica,sans-Serif" font-size="10.00"> myEnvironment</text>
</g>
<!-- Node20 -->
<g id="node20" class="node"><title>Node20</title>
<g id="a_node20"><a xlink:href="../../d9/dd3/classview_1_1_variables_view.html" target="_top" xlink:title="view.VariablesView">
<polygon fill="white" stroke="black" points="911,-536.5 911,-555.5 1015,-555.5 1015,-536.5 911,-536.5"/>
<text text-anchor="middle" x="963" y="-543.5" font-family="Helvetica,sans-Serif" font-size="10.00">view.VariablesView</text>
</a>
</g>
</g>
<!-- Node3&#45;&gt;Node20 -->
<g id="edge30" class="edge"><title>Node3&#45;&gt;Node20</title>
<path fill="none" stroke="#9a32cd" stroke-dasharray="5,2" d="M650.836,-678.708C667.367,-652.588 701.491,-605.202 744,-582 772.031,-566.7 855.816,-556.074 910.973,-550.514"/>
<polygon fill="#9a32cd" stroke="#9a32cd" points="647.818,-676.934 645.559,-687.285 653.78,-680.603 647.818,-676.934"/>
<text text-anchor="middle" x="805" y="-585" font-family="Helvetica,sans-Serif" font-size="10.00"> myEnvironment</text>
</g>
<!-- Node3&#45;&gt;Node26 -->
<g id="edge36" class="edge"><title>Node3&#45;&gt;Node26</title>
<path fill="none" stroke="#9a32cd" stroke-dasharray="5,2" d="M727.587,-697C791.303,-697 874.539,-697 922.756,-697"/>
<polygon fill="#9a32cd" stroke="#9a32cd" points="727.537,-693.5 717.537,-697 727.537,-700.5 727.537,-693.5"/>
<text text-anchor="middle" x="805" y="-700" font-family="Helvetica,sans-Serif" font-size="10.00"> myExecutionParameters</text>
</g>
<!-- Node29 -->
<g id="node29" class="node"><title>Node29</title>
<g id="a_node29"><a xlink:href="../../d6/de7/classview_1_1_s_logo_view.html" target="_top" xlink:title="view.SLogoView">
<polygon fill="white" stroke="black" points="1874.5,-430.5 1874.5,-449.5 1965.5,-449.5 1965.5,-430.5 1874.5,-430.5"/>
<text text-anchor="middle" x="1920" y="-437.5" font-family="Helvetica,sans-Serif" font-size="10.00">view.SLogoView</text>
</a>
</g>
</g>
<!-- Node3&#45;&gt;Node29 -->
<g id="edge50" class="edge"><title>Node3&#45;&gt;Node29</title>
<path fill="none" stroke="#9a32cd" stroke-dasharray="5,2" d="M665.532,-711.613C718.809,-740.685 846.48,-803 962,-803 962,-803 962,-803 1703,-803 1773.4,-803 1807.96,-813.458 1856,-762 1900.12,-714.743 1915.53,-498.114 1918.46,-449.641"/>
<polygon fill="#9a32cd" stroke="#9a32cd" points="666.913,-708.377 656.469,-706.594 663.522,-714.5 666.913,-708.377"/>
<text text-anchor="middle" x="1388" y="-806" font-family="Helvetica,sans-Serif" font-size="10.00"> myEnvironment</text>
</g>
<!-- Node4 -->
<g id="node4" class="node"><title>Node4</title>
<polygon fill="white" stroke="#bfbfbf" points="281.5,-668.5 281.5,-687.5 352.5,-687.5 352.5,-668.5 281.5,-668.5"/>
<text text-anchor="middle" x="317" y="-675.5" font-family="Helvetica,sans-Serif" font-size="10.00">Observable</text>
</g>
<!-- Node4&#45;&gt;Node3 -->
<g id="edge3" class="edge"><title>Node4&#45;&gt;Node3</title>
<path fill="none" stroke="midnightblue" d="M362.61,-680.649C413.684,-683.681 498.273,-688.704 560.249,-692.384"/>
<polygon fill="midnightblue" stroke="midnightblue" points="362.74,-677.15 352.55,-680.051 362.325,-684.138 362.74,-677.15"/>
</g>
<!-- Node5 -->
<g id="node5" class="node"><title>Node5</title>
<polygon fill="white" stroke="#bfbfbf" points="272.5,-794.5 272.5,-813.5 361.5,-813.5 361.5,-794.5 272.5,-794.5"/>
<text text-anchor="middle" x="317" y="-801.5" font-family="Helvetica,sans-Serif" font-size="10.00">Set&lt; Integer &gt;</text>
</g>
<!-- Node5&#45;&gt;Node3 -->
<g id="edge4" class="edge"><title>Node5&#45;&gt;Node3</title>
<path fill="none" stroke="#9a32cd" stroke-dasharray="5,2" d="M371.877,-797.833C416.457,-791.548 480.854,-779.705 534,-759 569.256,-745.265 606.349,-720.193 625.266,-706.517"/>
<polygon fill="#9a32cd" stroke="#9a32cd" points="371.27,-794.384 361.835,-799.203 372.216,-801.319 371.27,-794.384"/>
<text text-anchor="middle" x="478" y="-803" font-family="Helvetica,sans-Serif" font-size="10.00"> myTurtleList</text>
<text text-anchor="middle" x="478" y="-792" font-family="Helvetica,sans-Serif" font-size="10.00">activeTurtleList</text>
</g>
<!-- Node6 -->
<g id="node6" class="node"><title>Node6</title>
<polygon fill="white" stroke="#bfbfbf" points="230,-745 230,-775 404,-775 404,-745 230,-745"/>
<text text-anchor="start" x="238" y="-763" font-family="Helvetica,sans-Serif" font-size="10.00">Map&lt; String, model.instructions.</text>
<text text-anchor="middle" x="317" y="-752" font-family="Helvetica,sans-Serif" font-size="10.00">Instruction &gt;</text>
</g>
<!-- Node6&#45;&gt;Node3 -->
<g id="edge5" class="edge"><title>Node6&#45;&gt;Node3</title>
<path fill="none" stroke="#9a32cd" stroke-dasharray="5,2" d="M414.174,-745.848C451.703,-739.836 495.001,-732.295 534,-724 557.72,-718.955 584.168,-712.071 604.457,-706.517"/>
<polygon fill="#9a32cd" stroke="#9a32cd" points="413.586,-742.397 404.259,-747.422 414.684,-749.311 413.586,-742.397"/>
<text text-anchor="middle" x="478" y="-747" font-family="Helvetica,sans-Serif" font-size="10.00"> myUserInstructionMap</text>
</g>
<!-- Node7 -->
<g id="node7" class="node"><title>Node7</title>
<polygon fill="white" stroke="#bfbfbf" points="253,-706.5 253,-725.5 381,-725.5 381,-706.5 253,-706.5"/>
<text text-anchor="middle" x="317" y="-713.5" font-family="Helvetica,sans-Serif" font-size="10.00">Map&lt; String, Double &gt;</text>
</g>
<!-- Node7&#45;&gt;Node3 -->
<g id="edge6" class="edge"><title>Node7&#45;&gt;Node3</title>
<path fill="none" stroke="#9a32cd" stroke-dasharray="5,2" d="M391.427,-711.64C441.993,-708.638 509.066,-704.655 560.491,-701.602"/>
<polygon fill="#9a32cd" stroke="#9a32cd" points="390.997,-708.16 381.222,-712.246 391.412,-715.147 390.997,-708.16"/>
<text text-anchor="middle" x="478" y="-712" font-family="Helvetica,sans-Serif" font-size="10.00"> myVariableMap</text>
</g>
<!-- Node8&#45;&gt;Node1 -->
<g id="edge7" class="edge"><title>Node8&#45;&gt;Node1</title>
<path fill="none" stroke="#9a32cd" stroke-dasharray="5,2" d="M699.288,-287.855C745.077,-294.368 809.886,-304.556 866,-317 888.143,-321.91 912.762,-328.865 931.525,-334.487"/>
<polygon fill="#9a32cd" stroke="#9a32cd" points="699.628,-284.369 689.238,-286.441 698.652,-291.3 699.628,-284.369"/>
<text text-anchor="middle" x="805" y="-320" font-family="Helvetica,sans-Serif" font-size="10.00"> myViewUpdater</text>
</g>
<!-- Node8&#45;&gt;Node26 -->
<g id="edge37" class="edge"><title>Node8&#45;&gt;Node26</title>
<path fill="none" stroke="#9a32cd" stroke-dasharray="5,2" d="M698.741,-285.829C709.088,-289.389 718.825,-294.813 726,-303 766.766,-349.518 704.011,-393.813 744,-441 780.633,-484.226 830.008,-434.238 866,-478 916.789,-539.754 838.947,-590.945 884,-657 894.033,-671.71 911.188,-681.329 926.859,-687.438"/>
<polygon fill="#9a32cd" stroke="#9a32cd" points="699.703,-282.464 689.124,-283.058 697.764,-289.19 699.703,-282.464"/>
<text text-anchor="middle" x="805" y="-481" font-family="Helvetica,sans-Serif" font-size="10.00"> myViewUpdater</text>
</g>
<!-- Node9 -->
<g id="node9" class="node"><title>Node9</title>
<g id="a_node9"><a xlink:href="../../da/d64/classview_1_1_workspace.html" target="_top" xlink:title="view.Workspace">
<polygon fill="white" stroke="black" points="1446,-189.5 1446,-208.5 1536,-208.5 1536,-189.5 1446,-189.5"/>
<text text-anchor="middle" x="1491" y="-196.5" font-family="Helvetica,sans-Serif" font-size="10.00">view.Workspace</text>
</a>
</g>
</g>
<!-- Node9&#45;&gt;Node8 -->
<g id="edge9" class="edge"><title>Node9&#45;&gt;Node8</title>
<path fill="none" stroke="#9a32cd" stroke-dasharray="5,2" d="M1435.64,-194.21C1286.12,-181.768 871.431,-152.383 744,-197 701.702,-211.809 663.787,-251.839 647.903,-270.359"/>
<polygon fill="#9a32cd" stroke="#9a32cd" points="1435.68,-197.726 1445.93,-195.075 1436.26,-190.75 1435.68,-197.726"/>
<text text-anchor="middle" x="1118" y="-181" font-family="Helvetica,sans-Serif" font-size="10.00"> myWorkspace</text>
</g>
<!-- Node9&#45;&gt;Node29 -->
<g id="edge40" class="edge"><title>Node9&#45;&gt;Node29</title>
<path fill="none" stroke="#9a32cd" stroke-dasharray="5,2" d="M1546.4,-205.516C1602.85,-213.927 1692.43,-231.987 1762,-268 1838.48,-307.588 1896.38,-400.371 1913.67,-430.423"/>
<polygon fill="#9a32cd" stroke="#9a32cd" points="1546.66,-202.017 1536.26,-204.056 1545.66,-208.945 1546.66,-202.017"/>
<text text-anchor="middle" x="1702" y="-271" font-family="Helvetica,sans-Serif" font-size="10.00"> myWorkspace</text>
</g>
<!-- Node37 -->
<g id="node37" class="node"><title>Node37</title>
<g id="a_node37"><a xlink:href="../../de/d0a/classview_1_1_drawer.html" target="_top" xlink:title="view.Drawer">
<polygon fill="white" stroke="black" points="1665.5,-288.5 1665.5,-307.5 1738.5,-307.5 1738.5,-288.5 1665.5,-288.5"/>
<text text-anchor="middle" x="1702" y="-295.5" font-family="Helvetica,sans-Serif" font-size="10.00">view.Drawer</text>
</a>
</g>
</g>
<!-- Node9&#45;&gt;Node37 -->
<g id="edge54" class="edge"><title>Node9&#45;&gt;Node37</title>
<path fill="none" stroke="#9a32cd" stroke-dasharray="5,2" d="M1516.94,-213.537C1528.07,-219.689 1541.47,-226.654 1554,-232 1584.12,-244.852 1594.01,-241.845 1624,-255 1646.29,-264.78 1670.6,-278.999 1685.82,-288.37"/>
<polygon fill="#9a32cd" stroke="#9a32cd" points="1518.63,-210.471 1508.2,-208.613 1515.2,-216.57 1518.63,-210.471"/>
<text text-anchor="middle" x="1589" y="-258" font-family="Helvetica,sans-Serif" font-size="10.00"> myWorkspace</text>
</g>
<!-- Node10 -->
<g id="node10" class="node"><title>Node10</title>
<polygon fill="white" stroke="#bfbfbf" points="1228.5,-211.5 1228.5,-230.5 1295.5,-230.5 1295.5,-211.5 1228.5,-211.5"/>
<text text-anchor="middle" x="1262" y="-218.5" font-family="Helvetica,sans-Serif" font-size="10.00">StackPane</text>
</g>
<!-- Node10&#45;&gt;Node9 -->
<g id="edge10" class="edge"><title>Node10&#45;&gt;Node9</title>
<path fill="none" stroke="midnightblue" d="M1305.51,-216.881C1345.54,-213 1405.27,-207.211 1445.84,-203.28"/>
<polygon fill="midnightblue" stroke="midnightblue" points="1305.14,-213.4 1295.52,-217.848 1305.81,-220.367 1305.14,-213.4"/>
</g>
<!-- Node11 -->
<g id="node11" class="node"><title>Node11</title>
<polygon fill="white" stroke="#bfbfbf" points="916.5,-628.5 916.5,-647.5 1009.5,-647.5 1009.5,-628.5 916.5,-628.5"/>
<text text-anchor="middle" x="963" y="-635.5" font-family="Helvetica,sans-Serif" font-size="10.00">ResourceBundle</text>
</g>
<!-- Node11&#45;&gt;Node9 -->
<g id="edge11" class="edge"><title>Node11&#45;&gt;Node9</title>
<path fill="none" stroke="#9a32cd" stroke-dasharray="5,2" d="M1019.5,-641.924C1074.64,-644.531 1154.04,-644.37 1176,-624 1217.79,-585.225 1156.43,-539.876 1194,-497 1235.36,-449.799 1275.65,-490.389 1330,-459 1382.8,-428.505 1397.23,-415.635 1428,-363 1443.56,-336.382 1435.6,-325.026 1446,-296 1457.79,-263.1 1476.15,-225.908 1484.96,-208.694"/>
<polygon fill="#9a32cd" stroke="#9a32cd" points="1019.67,-638.429 1009.51,-641.41 1019.31,-645.419 1019.67,-638.429"/>
<text text-anchor="middle" x="1262" y="-500" font-family="Helvetica,sans-Serif" font-size="10.00"> myResources</text>
</g>
<!-- Node11&#45;&gt;Node16 -->
<g id="edge20" class="edge"><title>Node11&#45;&gt;Node16</title>
<path fill="none" stroke="#9a32cd" stroke-dasharray="5,2" d="M1018.84,-624.754C1027.15,-621.18 1035.21,-616.673 1042,-611 1054.52,-600.54 1046.79,-588.575 1060,-579 1102.56,-548.16 1138.84,-593.173 1176,-556 1205.15,-526.841 1167.3,-496.414 1194,-465 1201.48,-456.202 1212.36,-450.497 1223.2,-446.799"/>
<polygon fill="#9a32cd" stroke="#9a32cd" points="1017.46,-621.533 1009.4,-628.404 1019.99,-628.062 1017.46,-621.533"/>
<text text-anchor="middle" x="1118" y="-582" font-family="Helvetica,sans-Serif" font-size="10.00"> myResources</text>
</g>
<!-- Node11&#45;&gt;Node29 -->
<g id="edge42" class="edge"><title>Node11&#45;&gt;Node29</title>
<path fill="none" stroke="#9a32cd" stroke-dasharray="5,2" d="M1020.12,-644.149C1033.19,-645.335 1047.07,-646.395 1060,-647 1205.2,-653.791 1241.64,-641 1387,-641 1387,-641 1387,-641 1703,-641 1816.72,-641 1895.64,-489.845 1914.6,-449.695"/>
<polygon fill="#9a32cd" stroke="#9a32cd" points="1020.12,-640.634 1009.84,-643.177 1019.47,-647.603 1020.12,-640.634"/>
<text text-anchor="middle" x="1491" y="-644" font-family="Helvetica,sans-Serif" font-size="10.00"> myResources</text>
</g>
<!-- Node12 -->
<g id="node12" class="node"><title>Node12</title>
<g id="a_node12"><a xlink:href="../../d8/df7/classview_1_1_turtle_view.html" target="_top" xlink:title="view.TurtleView">
<polygon fill="white" stroke="black" points="1219,-88.5 1219,-107.5 1305,-107.5 1305,-88.5 1219,-88.5"/>
<text text-anchor="middle" x="1262" y="-95.5" font-family="Helvetica,sans-Serif" font-size="10.00">view.TurtleView</text>
</a>
</g>
</g>
<!-- Node12&#45;&gt;Node9 -->
<g id="edge12" class="edge"><title>Node12&#45;&gt;Node9</title>
<path fill="none" stroke="#9a32cd" stroke-dasharray="5,2" d="M1315.34,-94.6756C1349.5,-94.8141 1393.92,-99.5279 1428,-119 1457.14,-135.648 1477.31,-171.987 1485.67,-189.366"/>
<polygon fill="#9a32cd" stroke="#9a32cd" points="1315.06,-91.1779 1305.1,-94.7682 1315.13,-98.1776 1315.06,-91.1779"/>
<text text-anchor="middle" x="1388" y="-122" font-family="Helvetica,sans-Serif" font-size="10.00"> myActiveTurtle</text>
</g>
<!-- Node13 -->
<g id="node13" class="node"><title>Node13</title>
<polygon fill="white" stroke="#bfbfbf" points="929,-75.5 929,-94.5 997,-94.5 997,-75.5 929,-75.5"/>
<text text-anchor="middle" x="963" y="-82.5" font-family="Helvetica,sans-Serif" font-size="10.00">ImageView</text>
</g>
<!-- Node13&#45;&gt;Node12 -->
<g id="edge13" class="edge"><title>Node13&#45;&gt;Node12</title>
<path fill="none" stroke="midnightblue" d="M1007.29,-86.8948C1064.02,-89.3779 1162.87,-93.7046 1218.97,-96.1602"/>
<polygon fill="midnightblue" stroke="midnightblue" points="1007.35,-83.3942 997.205,-86.4534 1007.04,-90.3875 1007.35,-83.3942"/>
</g>
<!-- Node14 -->
<g id="node14" class="node"><title>Node14</title>
<polygon fill="white" stroke="#bfbfbf" points="940,-123.5 940,-142.5 986,-142.5 986,-123.5 940,-123.5"/>
<text text-anchor="middle" x="963" y="-130.5" font-family="Helvetica,sans-Serif" font-size="10.00">Group</text>
</g>
<!-- Node14&#45;&gt;Node9 -->
<g id="edge16" class="edge"><title>Node14&#45;&gt;Node9</title>
<path fill="none" stroke="#9a32cd" stroke-dasharray="5,2" d="M996.059,-133.8C1087.23,-136.34 1346.61,-145.489 1428,-169 1444.43,-173.746 1461.85,-182.55 1474.03,-189.399"/>
<polygon fill="#9a32cd" stroke="#9a32cd" points="996.134,-130.301 986.043,-133.529 995.945,-137.298 996.134,-130.301"/>
<text text-anchor="middle" x="1262" y="-156" font-family="Helvetica,sans-Serif" font-size="10.00"> myLines</text>
</g>
<!-- Node14&#45;&gt;Node12 -->
<g id="edge14" class="edge"><title>Node14&#45;&gt;Node12</title>
<path fill="none" stroke="#9a32cd" stroke-dasharray="5,2" d="M996.106,-127.984C1014.74,-125.157 1038.67,-121.669 1060,-119 1114.83,-112.14 1178.28,-105.772 1218.98,-101.888"/>
<polygon fill="#9a32cd" stroke="#9a32cd" points="995.436,-124.546 986.081,-129.519 996.495,-131.466 995.436,-124.546"/>
<text text-anchor="middle" x="1118" y="-122" font-family="Helvetica,sans-Serif" font-size="10.00"> myStamps</text>
</g>
<!-- Node15 -->
<g id="node15" class="node"><title>Node15</title>
<polygon fill="white" stroke="#bfbfbf" points="1194,-39 1194,-69 1330,-69 1330,-39 1194,-39"/>
<text text-anchor="start" x="1202" y="-57" font-family="Helvetica,sans-Serif" font-size="10.00">Map&lt; Integer, view.Turtle</text>
<text text-anchor="middle" x="1262" y="-46" font-family="Helvetica,sans-Serif" font-size="10.00">View &gt;</text>
</g>
<!-- Node15&#45;&gt;Node9 -->
<g id="edge15" class="edge"><title>Node15&#45;&gt;Node9</title>
<path fill="none" stroke="#9a32cd" stroke-dasharray="5,2" d="M1340.08,-52.9148C1369.9,-55.9231 1402.82,-63.8042 1428,-82 1465.64,-109.2 1482.48,-166.321 1487.91,-189.209"/>
<polygon fill="#9a32cd" stroke="#9a32cd" points="1340.37,-49.4264 1330.11,-52.0735 1339.78,-56.4016 1340.37,-49.4264"/>
<text text-anchor="middle" x="1388" y="-85" font-family="Helvetica,sans-Serif" font-size="10.00"> myTurtles</text>
</g>
<!-- Node16&#45;&gt;Node8 -->
<g id="edge60" class="edge"><title>Node16&#45;&gt;Node8</title>
<path fill="none" stroke="#9a32cd" stroke-dasharray="5,2" d="M1242.1,-423.92C1225.4,-410.169 1200.02,-390.381 1176,-376 1119.69,-342.297 1105.09,-332.063 1042,-314 918.608,-278.671 765.885,-276.499 689.048,-278.117"/>
<polygon fill="#9a32cd" stroke="#9a32cd" points="1240.07,-426.784 1249.99,-430.499 1244.55,-421.407 1240.07,-426.784"/>
<text text-anchor="middle" x="963" y="-317" font-family="Helvetica,sans-Serif" font-size="10.00"> mySidebar</text>
</g>
<!-- Node16&#45;&gt;Node9 -->
<g id="edge17" class="edge"><title>Node16&#45;&gt;Node9</title>
<path fill="none" stroke="#9a32cd" stroke-dasharray="5,2" d="M1279.05,-422.959C1323.39,-375.889 1446.53,-245.153 1480.95,-208.603"/>
<polygon fill="#9a32cd" stroke="#9a32cd" points="1276.49,-420.575 1272.18,-430.254 1281.58,-425.374 1276.49,-420.575"/>
<text text-anchor="middle" x="1388" y="-351" font-family="Helvetica,sans-Serif" font-size="10.00"> mySidebar</text>
</g>
<!-- Node16&#45;&gt;Node29 -->
<g id="edge56" class="edge"><title>Node16&#45;&gt;Node29</title>
<path fill="none" stroke="#9a32cd" stroke-dasharray="5,2" d="M1310.79,-440C1433,-440 1755.59,-440 1874.32,-440"/>
<polygon fill="#9a32cd" stroke="#9a32cd" points="1310.63,-436.5 1300.63,-440 1310.63,-443.5 1310.63,-436.5"/>
<text text-anchor="middle" x="1589" y="-443" font-family="Helvetica,sans-Serif" font-size="10.00"> mySidebar</text>
</g>
<!-- Node31 -->
<g id="node31" class="node"><title>Node31</title>
<g id="a_node31"><a xlink:href="../../da/dc8/classview_1_1_editor.html" target="_top" xlink:title="view.Editor">
<polygon fill="white" stroke="black" points="1457.5,-542.5 1457.5,-561.5 1524.5,-561.5 1524.5,-542.5 1457.5,-542.5"/>
<text text-anchor="middle" x="1491" y="-549.5" font-family="Helvetica,sans-Serif" font-size="10.00">view.Editor</text>
</a>
</g>
</g>
<!-- Node16&#45;&gt;Node31 -->
<g id="edge48" class="edge"><title>Node16&#45;&gt;Node31</title>
<path fill="none" stroke="#9a32cd" stroke-dasharray="5,2" d="M1300.47,-452.999C1310.19,-456.637 1320.57,-460.762 1330,-465 1384.5,-489.503 1445.74,-525.246 1474.06,-542.277"/>
<polygon fill="#9a32cd" stroke="#9a32cd" points="1301.63,-449.695 1291.04,-449.537 1299.22,-456.267 1301.63,-449.695"/>
<text text-anchor="middle" x="1388" y="-517" font-family="Helvetica,sans-Serif" font-size="10.00"> mySidebar</text>
</g>
<!-- Node17 -->
<g id="node17" class="node"><title>Node17</title>
<polygon fill="white" stroke="#bfbfbf" points="942.5,-372.5 942.5,-391.5 983.5,-391.5 983.5,-372.5 942.5,-372.5"/>
<text text-anchor="middle" x="963" y="-379.5" font-family="Helvetica,sans-Serif" font-size="10.00">VBox</text>
</g>
<!-- Node17&#45;&gt;Node16 -->
<g id="edge18" class="edge"><title>Node17&#45;&gt;Node16</title>
<path fill="none" stroke="midnightblue" d="M993.755,-380.185C1035.36,-378.49 1112.92,-378.418 1176,-396 1202.73,-403.45 1230.76,-419.904 1247.02,-430.445"/>
<polygon fill="midnightblue" stroke="midnightblue" points="993.564,-376.69 983.739,-380.654 993.892,-383.682 993.564,-376.69"/>
</g>
<!-- Node18 -->
<g id="node18" class="node"><title>Node18</title>
<polygon fill="white" stroke="#bfbfbf" points="552.5,-460.5 552.5,-479.5 725.5,-479.5 725.5,-460.5 552.5,-460.5"/>
<text text-anchor="middle" x="639" y="-467.5" font-family="Helvetica,sans-Serif" font-size="10.00">ObservableList&lt; view.Property &gt;</text>
</g>
<!-- Node18&#45;&gt;Node16 -->
<g id="edge19" class="edge"><title>Node18&#45;&gt;Node16</title>
<path fill="none" stroke="#9a32cd" stroke-dasharray="5,2" d="M681.333,-457.697C700.261,-452.574 723.09,-447.106 744,-444 934.002,-415.776 984.18,-420.873 1176,-431 1191.56,-431.821 1208.66,-433.483 1223.41,-435.158"/>
<polygon fill="#9a32cd" stroke="#9a32cd" points="680.242,-454.368 671.539,-460.41 682.11,-461.114 680.242,-454.368"/>
<text text-anchor="middle" x="963" y="-429" font-family="Helvetica,sans-Serif" font-size="10.00"> myVariablesList</text>
</g>
<!-- Node18&#45;&gt;Node20 -->
<g id="edge29" class="edge"><title>Node18&#45;&gt;Node20</title>
<path fill="none" stroke="#9a32cd" stroke-dasharray="5,2" d="M694.293,-481.728C740.146,-491.758 807.497,-506.785 866,-521 886.083,-525.88 908.432,-531.678 926.51,-536.461"/>
<polygon fill="#9a32cd" stroke="#9a32cd" points="694.788,-478.254 684.272,-479.541 693.295,-485.093 694.788,-478.254"/>
<text text-anchor="middle" x="805" y="-524" font-family="Helvetica,sans-Serif" font-size="10.00"> myVariablesList</text>
</g>
<!-- Node19 -->
<g id="node19" class="node"><title>Node19</title>
<polygon fill="white" stroke="#bfbfbf" points="243,-232.5 243,-251.5 391,-251.5 391,-232.5 243,-232.5"/>
<text text-anchor="middle" x="317" y="-239.5" font-family="Helvetica,sans-Serif" font-size="10.00">TableView&lt; view.Property &gt;</text>
</g>
<!-- Node19&#45;&gt;Node16 -->
<g id="edge22" class="edge"><title>Node19&#45;&gt;Node16</title>
<path fill="none" stroke="#9a32cd" stroke-dasharray="5,2" d="M401.466,-239.43C509.09,-237.019 701.938,-235.76 866,-251 945.01,-258.339 964.371,-264.563 1042,-281 1102.11,-293.728 1125.68,-279.748 1176,-315 1219.85,-345.716 1247.79,-406.854 1257.33,-430.425"/>
<polygon fill="#9a32cd" stroke="#9a32cd" points="401.236,-235.934 391.321,-239.666 401.399,-242.932 401.236,-235.934"/>
<text text-anchor="middle" x="805" y="-265" font-family="Helvetica,sans-Serif" font-size="10.00"> myTurtlePropertiesTable</text>
<text text-anchor="middle" x="805" y="-254" font-family="Helvetica,sans-Serif" font-size="10.00">myVariablesTable</text>
</g>
<!-- Node21 -->
<g id="node21" class="node"><title>Node21</title>
<g id="a_node21"><a xlink:href="../../d5/dea/classview_1_1_side_table_view.html" target="_top" xlink:title="view.SideTableView">
<polygon fill="white" stroke="black" points="586,-518.5 586,-537.5 692,-537.5 692,-518.5 586,-518.5"/>
<text text-anchor="middle" x="639" y="-525.5" font-family="Helvetica,sans-Serif" font-size="10.00">view.SideTableView</text>
</a>
</g>
</g>
<!-- Node19&#45;&gt;Node21 -->
<g id="edge27" class="edge"><title>Node19&#45;&gt;Node21</title>
<path fill="none" stroke="#9a32cd" stroke-dasharray="5,2" d="M331.124,-260.087C363.961,-304.284 454.091,-419.237 552,-489 569.757,-501.653 592.276,-511.685 609.816,-518.405"/>
<polygon fill="#9a32cd" stroke="#9a32cd" points="333.751,-257.751 325.005,-251.772 328.113,-261.9 333.751,-257.751"/>
<text text-anchor="middle" x="478" y="-475" font-family="Helvetica,sans-Serif" font-size="10.00"> myTable</text>
</g>
<!-- Node20&#45;&gt;Node16 -->
<g id="edge23" class="edge"><title>Node20&#45;&gt;Node16</title>
<path fill="none" stroke="#9a32cd" stroke-dasharray="5,2" d="M1007.08,-533.655C1023.57,-529.108 1042.6,-524.077 1060,-520 1111.17,-508.012 1133.44,-527.84 1176,-497 1189.21,-487.425 1181.6,-475.609 1194,-465 1202.4,-457.816 1213.05,-452.606 1223.38,-448.865"/>
<polygon fill="#9a32cd" stroke="#9a32cd" points="1005.87,-530.358 997.179,-536.41 1007.75,-537.101 1005.87,-530.358"/>
<text text-anchor="middle" x="1118" y="-523" font-family="Helvetica,sans-Serif" font-size="10.00"> myVariablesPane</text>
</g>
<!-- Node21&#45;&gt;Node20 -->
<g id="edge24" class="edge"><title>Node21&#45;&gt;Node20</title>
<path fill="none" stroke="midnightblue" d="M702.413,-531.628C716.114,-532.416 730.546,-533.242 744,-534 801.145,-537.221 866.722,-540.817 910.903,-543.225"/>
<polygon fill="midnightblue" stroke="midnightblue" points="702.291,-528.115 692.106,-531.033 701.888,-535.103 702.291,-528.115"/>
</g>
<!-- Node25 -->
<g id="node25" class="node"><title>Node25</title>
<g id="a_node25"><a xlink:href="../../d9/d3a/classview_1_1_turtle_properties_view.html" target="_top" xlink:title="view.TurtlePropertiesView">
<polygon fill="white" stroke="black" points="895.5,-495.5 895.5,-514.5 1030.5,-514.5 1030.5,-495.5 895.5,-495.5"/>
<text text-anchor="middle" x="963" y="-502.5" font-family="Helvetica,sans-Serif" font-size="10.00">view.TurtlePropertiesView</text>
</a>
</g>
</g>
<!-- Node21&#45;&gt;Node25 -->
<g id="edge32" class="edge"><title>Node21&#45;&gt;Node25</title>
<path fill="none" stroke="midnightblue" d="M681.299,-515.702C700.221,-510.683 723.054,-505.482 744,-503 794.553,-497.009 852.161,-497.866 895.457,-500.028"/>
<polygon fill="midnightblue" stroke="midnightblue" points="680.236,-512.364 671.51,-518.373 682.079,-519.117 680.236,-512.364"/>
</g>
<!-- Node22 -->
<g id="node22" class="node"><title>Node22</title>
<g id="a_node22"><a xlink:href="../../d2/d38/classview_1_1_side_properties_view.html" target="_top" xlink:title="view.SidePropertiesView">
<polygon fill="white" stroke="black" points="251.5,-518.5 251.5,-537.5 382.5,-537.5 382.5,-518.5 251.5,-518.5"/>
<text text-anchor="middle" x="317" y="-525.5" font-family="Helvetica,sans-Serif" font-size="10.00">view.SidePropertiesView</text>
</a>
</g>
</g>
<!-- Node22&#45;&gt;Node21 -->
<g id="edge25" class="edge"><title>Node22&#45;&gt;Node21</title>
<path fill="none" stroke="midnightblue" d="M392.81,-528C452.066,-528 533.328,-528 585.754,-528"/>
<polygon fill="midnightblue" stroke="midnightblue" points="392.757,-524.5 382.757,-528 392.757,-531.5 392.757,-524.5"/>
</g>
<!-- Node23 -->
<g id="node23" class="node"><title>Node23</title>
<polygon fill="white" stroke="#bfbfbf" points="0.5,-518.5 0.5,-537.5 135.5,-537.5 135.5,-518.5 0.5,-518.5"/>
<text text-anchor="middle" x="68" y="-525.5" font-family="Helvetica,sans-Serif" font-size="10.00">ObservableList&lt; Node &gt;</text>
</g>
<!-- Node23&#45;&gt;Node22 -->
<g id="edge26" class="edge"><title>Node23&#45;&gt;Node22</title>
<path fill="none" stroke="#9a32cd" stroke-dasharray="5,2" d="M145.848,-528C179.752,-528 219.154,-528 251.499,-528"/>
<polygon fill="#9a32cd" stroke="#9a32cd" points="145.516,-524.5 135.516,-528 145.516,-531.5 145.516,-524.5"/>
<text text-anchor="middle" x="183" y="-531" font-family="Helvetica,sans-Serif" font-size="10.00"> myChildren</text>
</g>
<!-- Node24 -->
<g id="node24" class="node"><title>Node24</title>
<polygon fill="white" stroke="#bfbfbf" points="239.5,-619 239.5,-649 394.5,-649 394.5,-619 239.5,-619"/>
<text text-anchor="start" x="247.5" y="-637" font-family="Helvetica,sans-Serif" font-size="10.00">TableColumn&lt; view.Property,</text>
<text text-anchor="middle" x="317" y="-626" font-family="Helvetica,sans-Serif" font-size="10.00"> String &gt;</text>
</g>
<!-- Node24&#45;&gt;Node21 -->
<g id="edge28" class="edge"><title>Node24&#45;&gt;Node21</title>
<path fill="none" stroke="#9a32cd" stroke-dasharray="5,2" d="M373.281,-615.688C441.852,-592.974 556.183,-555.102 609.279,-537.514"/>
<polygon fill="#9a32cd" stroke="#9a32cd" points="371.901,-612.458 363.508,-618.925 374.102,-619.103 371.901,-612.458"/>
<text text-anchor="middle" x="478" y="-610" font-family="Helvetica,sans-Serif" font-size="10.00"> rightTableCol</text>
<text text-anchor="middle" x="478" y="-599" font-family="Helvetica,sans-Serif" font-size="10.00">leftTableCol</text>
</g>
<!-- Node25&#45;&gt;Node16 -->
<g id="edge31" class="edge"><title>Node25&#45;&gt;Node16</title>
<path fill="none" stroke="#9a32cd" stroke-dasharray="5,2" d="M1022.23,-493.477C1084.66,-481.12 1175.04,-463.224 1176,-463 1193.12,-458.993 1212.01,-453.945 1227.63,-449.6"/>
<polygon fill="#9a32cd" stroke="#9a32cd" points="1021.21,-490.11 1012.08,-495.485 1022.57,-496.977 1021.21,-490.11"/>
<text text-anchor="middle" x="1118" y="-488" font-family="Helvetica,sans-Serif" font-size="10.00"> myTurtlePropertiesPane</text>
</g>
<!-- Node26&#45;&gt;Node16 -->
<g id="edge33" class="edge"><title>Node26&#45;&gt;Node16</title>
<path fill="none" stroke="#9a32cd" stroke-dasharray="5,2" d="M999.583,-683.694C1053.98,-662.621 1153.86,-620.807 1176,-590 1208.76,-544.423 1158.78,-508.703 1194,-465 1201.32,-455.913 1212.3,-450.129 1223.26,-446.447"/>
<polygon fill="#9a32cd" stroke="#9a32cd" points="998.065,-680.527 989.984,-687.38 1000.57,-687.062 998.065,-680.527"/>
<text text-anchor="middle" x="1118" y="-659" font-family="Helvetica,sans-Serif" font-size="10.00"> myParser</text>
</g>
<!-- Node26&#45;&gt;Node29 -->
<g id="edge51" class="edge"><title>Node26&#45;&gt;Node29</title>
<path fill="none" stroke="#9a32cd" stroke-dasharray="5,2" d="M1013.4,-703.322C1141.22,-717.808 1491.71,-745.569 1762,-655 1808.99,-639.253 1824.28,-633.087 1856,-595 1894.48,-548.794 1911.92,-475.969 1917.19,-449.784"/>
<polygon fill="#9a32cd" stroke="#9a32cd" points="1013.49,-699.809 1003.15,-702.134 1012.68,-706.762 1013.49,-699.809"/>
<text text-anchor="middle" x="1491" y="-716" font-family="Helvetica,sans-Serif" font-size="10.00"> myParser</text>
</g>
<!-- Node26&#45;&gt;Node31 -->
<g id="edge46" class="edge"><title>Node26&#45;&gt;Node31</title>
<path fill="none" stroke="#9a32cd" stroke-dasharray="5,2" d="M1013.26,-695.642C1101.33,-691.381 1289.47,-673.852 1428,-602 1448.62,-591.304 1468.88,-573.113 1480.37,-561.871"/>
<polygon fill="#9a32cd" stroke="#9a32cd" points="1012.87,-692.156 1003.03,-696.099 1013.18,-699.149 1012.87,-692.156"/>
<text text-anchor="middle" x="1262" y="-677" font-family="Helvetica,sans-Serif" font-size="10.00"> myParser</text>
</g>
<!-- Node27 -->
<g id="node27" class="node"><title>Node27</title>
<polygon fill="white" stroke="#bfbfbf" points="583,-865 583,-895 695,-895 695,-865 583,-865"/>
<text text-anchor="start" x="591" y="-883" font-family="Helvetica,sans-Serif" font-size="10.00">List&lt; Entry&lt; String,</text>
<text text-anchor="middle" x="639" y="-872" font-family="Helvetica,sans-Serif" font-size="10.00"> Pattern &gt; &gt;</text>
</g>
<!-- Node27&#45;&gt;Node26 -->
<g id="edge35" class="edge"><title>Node27&#45;&gt;Node26</title>
<path fill="none" stroke="#9a32cd" stroke-dasharray="5,2" d="M705.232,-868.612C752.819,-858.036 817.246,-838.835 866,-806 907.622,-777.969 942.544,-727.653 956.032,-706.636"/>
<polygon fill="#9a32cd" stroke="#9a32cd" points="704.385,-865.214 695.345,-870.74 705.857,-872.057 704.385,-865.214"/>
<text text-anchor="middle" x="805" y="-860" font-family="Helvetica,sans-Serif" font-size="10.00"> myPatterns</text>
</g>
<!-- Node28 -->
<g id="node28" class="node"><title>Node28</title>
<polygon fill="white" stroke="#bfbfbf" points="578,-826.5 578,-845.5 700,-845.5 700,-826.5 578,-826.5"/>
<text text-anchor="middle" x="639" y="-833.5" font-family="Helvetica,sans-Serif" font-size="10.00">Map&lt; String, String &gt;</text>
</g>
<!-- Node28&#45;&gt;Node26 -->
<g id="edge38" class="edge"><title>Node28&#45;&gt;Node26</title>
<path fill="none" stroke="#9a32cd" stroke-dasharray="5,2" d="M671.448,-822.425C736.318,-794.422 883.593,-730.847 939.713,-706.621"/>
<polygon fill="#9a32cd" stroke="#9a32cd" points="669.926,-819.269 662.132,-826.446 672.701,-825.696 669.926,-819.269"/>
<text text-anchor="middle" x="805" y="-794" font-family="Helvetica,sans-Serif" font-size="10.00"> myCommandMap</text>
</g>
<!-- Node29&#45;&gt;Node26 -->
<g id="edge39" class="edge"><title>Node29&#45;&gt;Node26</title>
<path fill="none" stroke="#9a32cd" stroke-dasharray="5,2" d="M1917.45,-459.898C1912.43,-519.096 1894.65,-692.379 1856,-731 1806.79,-780.17 1772.56,-764 1703,-764 1261,-764 1261,-764 1261,-764 1171.03,-764 1146.71,-763.996 1060,-740 1031.13,-732.012 999.855,-716.611 981.1,-706.574"/>
<polygon fill="#9a32cd" stroke="#9a32cd" points="1920.96,-459.905 1918.29,-449.653 1913.98,-459.335 1920.96,-459.905"/>
<text text-anchor="middle" x="1491" y="-767" font-family="Helvetica,sans-Serif" font-size="10.00"> mySLogoView</text>
</g>
<!-- Node30 -->
<g id="node30" class="node"><title>Node30</title>
<polygon fill="white" stroke="#bfbfbf" points="1679.5,-184.5 1679.5,-203.5 1724.5,-203.5 1724.5,-184.5 1679.5,-184.5"/>
<text text-anchor="middle" x="1702" y="-191.5" font-family="Helvetica,sans-Serif" font-size="10.00">Stage</text>
</g>
<!-- Node30&#45;&gt;Node29 -->
<g id="edge41" class="edge"><title>Node30&#45;&gt;Node29</title>
<path fill="none" stroke="#9a32cd" stroke-dasharray="5,2" d="M1735.1,-189.005C1769.24,-185.61 1822.81,-186.062 1856,-215 1889.86,-244.525 1912.29,-391.4 1917.72,-430.451"/>
<polygon fill="#9a32cd" stroke="#9a32cd" points="1734.27,-185.577 1724.74,-190.211 1735.08,-192.53 1734.27,-185.577"/>
<text text-anchor="middle" x="1818" y="-218" font-family="Helvetica,sans-Serif" font-size="10.00"> myStage</text>
</g>
<!-- Node31&#45;&gt;Node29 -->
<g id="edge43" class="edge"><title>Node31&#45;&gt;Node29</title>
<path fill="none" stroke="#9a32cd" stroke-dasharray="5,2" d="M1534.51,-540.851C1618.36,-518.857 1803.76,-470.227 1882.49,-449.576"/>
<polygon fill="#9a32cd" stroke="#9a32cd" points="1533.58,-537.475 1524.8,-543.398 1535.36,-544.246 1533.58,-537.475"/>
<text text-anchor="middle" x="1702" y="-515" font-family="Helvetica,sans-Serif" font-size="10.00"> myEditor</text>
</g>
<!-- Node32 -->
<g id="node32" class="node"><title>Node32</title>
<polygon fill="white" stroke="#bfbfbf" points="1241,-555.5 1241,-574.5 1283,-574.5 1283,-555.5 1241,-555.5"/>
<text text-anchor="middle" x="1262" y="-562.5" font-family="Helvetica,sans-Serif" font-size="10.00">HBox</text>
</g>
<!-- Node32&#45;&gt;Node31 -->
<g id="edge44" class="edge"><title>Node32&#45;&gt;Node31</title>
<path fill="none" stroke="midnightblue" d="M1293.19,-563.271C1335.8,-560.831 1413.29,-556.393 1457.25,-553.875"/>
<polygon fill="midnightblue" stroke="midnightblue" points="1292.93,-559.78 1283.14,-563.846 1293.33,-566.769 1292.93,-559.78"/>
</g>
<!-- Node33 -->
<g id="node33" class="node"><title>Node33</title>
<polygon fill="white" stroke="#bfbfbf" points="1237.5,-517.5 1237.5,-536.5 1286.5,-536.5 1286.5,-517.5 1237.5,-517.5"/>
<text text-anchor="middle" x="1262" y="-524.5" font-family="Helvetica,sans-Serif" font-size="10.00">Button</text>
</g>
<!-- Node33&#45;&gt;Node31 -->
<g id="edge45" class="edge"><title>Node33&#45;&gt;Node31</title>
<path fill="none" stroke="#9a32cd" stroke-dasharray="5,2" d="M1296.73,-528.545C1330.17,-530.337 1382.78,-533.862 1428,-540 1437.56,-541.298 1447.87,-543.121 1457.29,-544.956"/>
<polygon fill="#9a32cd" stroke="#9a32cd" points="1296.75,-525.041 1286.59,-528.022 1296.39,-532.032 1296.75,-525.041"/>
<text text-anchor="middle" x="1388" y="-543" font-family="Helvetica,sans-Serif" font-size="10.00"> runButton</text>
</g>
<!-- Node34 -->
<g id="node34" class="node"><title>Node34</title>
<polygon fill="white" stroke="#bfbfbf" points="1233,-593.5 1233,-612.5 1291,-612.5 1291,-593.5 1233,-593.5"/>
<text text-anchor="middle" x="1262" y="-600.5" font-family="Helvetica,sans-Serif" font-size="10.00">TextArea</text>
</g>
<!-- Node34&#45;&gt;Node31 -->
<g id="edge47" class="edge"><title>Node34&#45;&gt;Node31</title>
<path fill="none" stroke="#9a32cd" stroke-dasharray="5,2" d="M1301.1,-596.791C1334.7,-591.034 1384.89,-581.753 1428,-571 1438.92,-568.275 1450.77,-564.78 1461.16,-561.532"/>
<polygon fill="#9a32cd" stroke="#9a32cd" points="1300.5,-593.342 1291.23,-598.462 1301.67,-600.243 1300.5,-593.342"/>
<text text-anchor="middle" x="1388" y="-590" font-family="Helvetica,sans-Serif" font-size="10.00"> textEditor</text>
</g>
<!-- Node35 -->
<g id="node35" class="node"><title>Node35</title>
<polygon fill="white" stroke="#bfbfbf" points="1642.5,-146.5 1642.5,-165.5 1761.5,-165.5 1761.5,-146.5 1642.5,-146.5"/>
<text text-anchor="middle" x="1702" y="-153.5" font-family="Helvetica,sans-Serif" font-size="10.00">Map&lt; String, Node &gt;</text>
</g>
<!-- Node35&#45;&gt;Node29 -->
<g id="edge49" class="edge"><title>Node35&#45;&gt;Node29</title>
<path fill="none" stroke="#9a32cd" stroke-dasharray="5,2" d="M1771.98,-147.76C1801.14,-148.065 1833.49,-153.949 1856,-174 1895.69,-209.354 1914.16,-386.495 1918.15,-430.228"/>
<polygon fill="#9a32cd" stroke="#9a32cd" points="1771.79,-144.262 1761.83,-147.87 1771.86,-151.261 1771.79,-144.262"/>
<text text-anchor="middle" x="1818" y="-177" font-family="Helvetica,sans-Serif" font-size="10.00"> variables</text>
</g>
<!-- Node36 -->
<g id="node36" class="node"><title>Node36</title>
<polygon fill="white" stroke="#bfbfbf" points="1661.5,-108.5 1661.5,-127.5 1742.5,-127.5 1742.5,-108.5 1661.5,-108.5"/>
<text text-anchor="middle" x="1702" y="-115.5" font-family="Helvetica,sans-Serif" font-size="10.00">Dimension2D</text>
</g>
<!-- Node36&#45;&gt;Node29 -->
<g id="edge52" class="edge"><title>Node36&#45;&gt;Node29</title>
<path fill="none" stroke="#9a32cd" stroke-dasharray="5,2" d="M1752.63,-108.957C1785.9,-105.898 1828.5,-108.237 1856,-133 1901.79,-174.232 1915.87,-382.825 1918.51,-430.352"/>
<polygon fill="#9a32cd" stroke="#9a32cd" points="1752.19,-105.484 1742.64,-110.061 1752.96,-112.442 1752.19,-105.484"/>
<text text-anchor="middle" x="1818" y="-136" font-family="Helvetica,sans-Serif" font-size="10.00"> myDimensions</text>
</g>
<!-- Node37&#45;&gt;Node8 -->
<g id="edge59" class="edge"><title>Node37&#45;&gt;Node8</title>
<path fill="none" stroke="#9a32cd" stroke-dasharray="5,2" d="M1655.14,-296.145C1529.16,-291.152 1167.14,-277.507 866,-273 811.784,-272.189 798.192,-271.178 744,-273 726.095,-273.602 706.485,-274.785 689.166,-276.01"/>
<polygon fill="#9a32cd" stroke="#9a32cd" points="1655.07,-299.644 1665.2,-296.545 1655.35,-292.65 1655.07,-299.644"/>
<text text-anchor="middle" x="1262" y="-287" font-family="Helvetica,sans-Serif" font-size="10.00"> myDrawer</text>
</g>
<!-- Node37&#45;&gt;Node29 -->
<g id="edge53" class="edge"><title>Node37&#45;&gt;Node29</title>
<path fill="none" stroke="#9a32cd" stroke-dasharray="5,2" d="M1725.92,-313.066C1770.4,-342.309 1867.31,-406.016 1904.27,-430.317"/>
<polygon fill="#9a32cd" stroke="#9a32cd" points="1727.79,-310.106 1717.51,-307.538 1723.94,-315.956 1727.79,-310.106"/>
<text text-anchor="middle" x="1818" y="-401" font-family="Helvetica,sans-Serif" font-size="10.00"> drawer</text>
</g>
<!-- Node38 -->
<g id="node38" class="node"><title>Node38</title>
<polygon fill="white" stroke="#bfbfbf" points="1470.5,-305.5 1470.5,-324.5 1511.5,-324.5 1511.5,-305.5 1470.5,-305.5"/>
<text text-anchor="middle" x="1491" y="-312.5" font-family="Helvetica,sans-Serif" font-size="10.00">Color</text>
</g>
<!-- Node38&#45;&gt;Node37 -->
<g id="edge55" class="edge"><title>Node38&#45;&gt;Node37</title>
<path fill="none" stroke="#9a32cd" stroke-dasharray="5,2" d="M1522.03,-312.557C1559.9,-309.477 1624.91,-304.189 1665.29,-300.905"/>
<polygon fill="#9a32cd" stroke="#9a32cd" points="1521.35,-309.101 1511.66,-313.401 1521.91,-316.078 1521.35,-309.101"/>
<text text-anchor="middle" x="1589" y="-312" font-family="Helvetica,sans-Serif" font-size="10.00"> myColor</text>
</g>
<!-- Node39 -->
<g id="node39" class="node"><title>Node39</title>
<polygon fill="white" stroke="#bfbfbf" points="894,-457.5 894,-476.5 1032,-476.5 1032,-457.5 894,-457.5"/>
<text text-anchor="middle" x="963" y="-464.5" font-family="Helvetica,sans-Serif" font-size="10.00">ObservableList&lt; String &gt;</text>
</g>
<!-- Node39&#45;&gt;Node16 -->
<g id="edge57" class="edge"><title>Node39&#45;&gt;Node16</title>
<path fill="none" stroke="#9a32cd" stroke-dasharray="5,2" d="M1001.6,-454.388C1019.13,-449.139 1040.4,-443.656 1060,-441 1116.54,-433.336 1182.85,-435.054 1223.38,-437.296"/>
<polygon fill="#9a32cd" stroke="#9a32cd" points="1000.27,-451.134 991.75,-457.429 1002.34,-457.823 1000.27,-451.134"/>
<text text-anchor="middle" x="1118" y="-455" font-family="Helvetica,sans-Serif" font-size="10.00"> myCommandItems</text>
<text text-anchor="middle" x="1118" y="-444" font-family="Helvetica,sans-Serif" font-size="10.00">myHistoryItems</text>
</g>
<!-- Node40 -->
<g id="node40" class="node"><title>Node40</title>
<polygon fill="white" stroke="#bfbfbf" points="1230.5,-0.5 1230.5,-19.5 1293.5,-19.5 1293.5,-0.5 1230.5,-0.5"/>
<text text-anchor="middle" x="1262" y="-7.5" font-family="Helvetica,sans-Serif" font-size="10.00">Rectangle</text>
</g>
<!-- Node40&#45;&gt;Node9 -->
<g id="edge58" class="edge"><title>Node40&#45;&gt;Node9</title>
<path fill="none" stroke="#9a32cd" stroke-dasharray="5,2" d="M1304.03,-6.60866C1340.52,-5.8369 1393.32,-10.5237 1428,-39 1476.35,-78.7031 1487.1,-160.934 1489.4,-189.204"/>
<polygon fill="#9a32cd" stroke="#9a32cd" points="1303.6,-3.12172 1293.73,-6.97914 1303.85,-10.1172 1303.6,-3.12172"/>
<text text-anchor="middle" x="1388" y="-42" font-family="Helvetica,sans-Serif" font-size="10.00"> myBackground</text>
</g>
<!-- Node41 -->
<g id="node41" class="node"><title>Node41</title>
<polygon fill="white" stroke="#bfbfbf" points="571,-312 571,-342 707,-342 707,-312 571,-312"/>
<text text-anchor="start" x="579" y="-330" font-family="Helvetica,sans-Serif" font-size="10.00">List&lt; model.instructions.</text>
<text text-anchor="middle" x="639" y="-319" font-family="Helvetica,sans-Serif" font-size="10.00">Instruction &gt;</text>
</g>
<!-- Node41&#45;&gt;Node1 -->
<g id="edge61" class="edge"><title>Node41&#45;&gt;Node1</title>
<path fill="none" stroke="#9a32cd" stroke-dasharray="5,2" d="M717.307,-331.081C767.736,-333.744 833.34,-337.207 883.923,-339.878"/>
<polygon fill="#9a32cd" stroke="#9a32cd" points="717.28,-327.575 707.11,-330.543 716.911,-334.566 717.28,-327.575"/>
<text text-anchor="middle" x="805" y="-341" font-family="Helvetica,sans-Serif" font-size="10.00"> myDependencies</text>
</g>
</g>
</svg>
