<?xml version="1.0" encoding="UTF-8" standalone="no"?>
<!DOCTYPE svg PUBLIC "-//W3C//DTD SVG 1.1//EN"
 "http://www.w3.org/Graphics/SVG/1.1/DTD/svg11.dtd">
<!-- Generated by graphviz version 2.36.0 (20140111.2315)
 -->
<!-- Title: /tmp/git/duke&#45;compsci308&#45;spring2015/slogo_team12/repository/src Pages: 1 -->
<svg width="334pt" height="111pt"
 viewBox="0.00 0.00 334.00 111.00" xmlns="http://www.w3.org/2000/svg" xmlns:xlink="http://www.w3.org/1999/xlink">
<g id="graph0" class="graph" transform="scale(1 1) rotate(0) translate(4 107)">
<title>/tmp/git/duke&#45;compsci308&#45;spring2015/slogo_team12/repository/src</title>
<polygon fill="white" stroke="none" points="-4,4 -4,-107 330,-107 330,4 -4,4"/>
<g id="clust1" class="cluster"><title>clusterdir_18ffea2a1db9a69f814804657af853a6</title>
<g id="a_clust1"><a xlink:href="dir_18ffea2a1db9a69f814804657af853a6.html" target="_top" xlink:title="repository">
<polygon fill="#ddddee" stroke="black" points="8,-8 8,-95 318,-95 318,-8 8,-8"/>
<text text-anchor="middle" x="163" y="-83" font-family="Helvetica,sans-Serif" font-size="10.00">repository</text>
</a>
</g>
</g>
<g id="clust2" class="cluster"><title>clusterdir_08b87ba4a0ba95bc228e9611dbda1467</title>
<g id="a_clust2"><a xlink:href="dir_08b87ba4a0ba95bc228e9611dbda1467.html" target="_top">
<polygon fill="#eeeeff" stroke="black" points="16,-16 16,-68 310,-68 310,-16 16,-16"/>
</a>
</g>
</g>
<!-- dir_08b87ba4a0ba95bc228e9611dbda1467 -->
<g id="node1" class="node"><title>dir_08b87ba4a0ba95bc228e9611dbda1467</title>
<text text-anchor="middle" x="275" y="-39.5" font-family="Helvetica,sans-Serif" font-size="10.00">src</text>
</g>
<!-- dir_dcdd983852ed19c669257b41aa605beb -->
<g id="node2" class="node"><title>dir_dcdd983852ed19c669257b41aa605beb</title>
<g id="a_node2"><a xlink:href="dir_dcdd983852ed19c669257b41aa605beb.html" target="_top" xlink:title="controller">
<polygon fill="white" stroke="black" points="229.5,-60 168.5,-60 168.5,-24 229.5,-24 229.5,-60"/>
<text text-anchor="middle" x="199" y="-39.5" font-family="Helvetica,sans-Serif" font-size="10.00">controller</text>
</a>
</g>
</g>
<!-- dir_51ccdc393c3ef3e685c183a078fbf2e7 -->
<g id="node3" class="node"><title>dir_51ccdc393c3ef3e685c183a078fbf2e7</title>
<g id="a_node3"><a xlink:href="dir_51ccdc393c3ef3e685c183a078fbf2e7.html" target="_top" xlink:title="model">
<polygon fill="white" stroke="red" points="150,-60 96,-60 96,-24 150,-24 150,-60"/>
<text text-anchor="middle" x="123" y="-39.5" font-family="Helvetica,sans-Serif" font-size="10.00">model</text>
</a>
</g>
</g>
<!-- dir_c0e8ef52dd9f507bc800d39a484562fe -->
<g id="node4" class="node"><title>dir_c0e8ef52dd9f507bc800d39a484562fe</title>
<g id="a_node4"><a xlink:href="dir_c0e8ef52dd9f507bc800d39a484562fe.html" target="_top" xlink:title="view">
<polygon fill="white" stroke="black" points="78,-60 24,-60 24,-24 78,-24 78,-60"/>
<text text-anchor="middle" x="51" y="-39.5" font-family="Helvetica,sans-Serif" font-size="10.00">view</text>
</a>
</g>
</g>
</g>
</svg>
