<?xml version="1.0" encoding="UTF-8" standalone="no"?>
<!DOCTYPE svg PUBLIC "-//W3C//DTD SVG 1.1//EN"
 "http://www.w3.org/Graphics/SVG/1.1/DTD/svg11.dtd">
<!-- Generated by graphviz version 2.36.0 (20140111.2315)
 -->
<!-- Title: Graphical Class Hierarchy Pages: 1 -->
<svg width="480pt" height="536pt"
 viewBox="0.00 0.00 480.00 536.00" xmlns="http://www.w3.org/2000/svg" xmlns:xlink="http://www.w3.org/1999/xlink">
<g id="graph0" class="graph" transform="scale(1 1) rotate(0) translate(4 532)">
<title>Graphical Class Hierarchy</title>
<polygon fill="white" stroke="none" points="-4,4 -4,-532 476,-532 476,4 -4,4"/>
<!-- Node1 -->
<g id="node1" class="node"><title>Node1</title>
<polygon fill="white" stroke="#bfbfbf" points="0,-224.5 0,-243.5 60,-243.5 60,-224.5 0,-224.5"/>
<text text-anchor="middle" x="30" y="-231.5" font-family="Helvetica,sans-Serif" font-size="10.00">Observer</text>
</g>
<!-- Node2 -->
<g id="node2" class="node"><title>Node2</title>
<g id="a_node2"><a xlink:href="d1/dea/classmodel_1_1instructions_1_1_instruction.html" target="_top" xlink:title="model.instructions.Instruction">
<polygon fill="white" stroke="black" points="96,-262.5 96,-281.5 254,-281.5 254,-262.5 96,-262.5"/>
<text text-anchor="middle" x="175" y="-269.5" font-family="Helvetica,sans-Serif" font-size="10.00">model.instructions.Instruction</text>
</a>
</g>
</g>
<!-- Node1&#45;&gt;Node2 -->
<g id="edge1" class="edge"><title>Node1&#45;&gt;Node2</title>
<path fill="none" stroke="midnightblue" d="M69.8445,-245.667C78.4373,-248.161 87.5108,-250.727 96,-253 108.117,-256.245 121.355,-259.557 133.427,-262.487"/>
<polygon fill="midnightblue" stroke="midnightblue" points="70.6227,-242.248 60.042,-242.795 68.6544,-248.966 70.6227,-242.248"/>
</g>
<!-- Node15 -->
<g id="node15" class="node"><title>Node15</title>
<g id="a_node15"><a xlink:href="dc/df5/classmodel_1_1_parser.html" target="_top" xlink:title="model.Parser">
<polygon fill="white" stroke="black" points="135,-224.5 135,-243.5 215,-243.5 215,-224.5 135,-224.5"/>
<text text-anchor="middle" x="175" y="-231.5" font-family="Helvetica,sans-Serif" font-size="10.00">model.Parser</text>
</a>
</g>
</g>
<!-- Node1&#45;&gt;Node15 -->
<g id="edge14" class="edge"><title>Node1&#45;&gt;Node15</title>
<path fill="none" stroke="midnightblue" d="M70.3718,-234C90.4989,-234 114.914,-234 134.99,-234"/>
<polygon fill="midnightblue" stroke="midnightblue" points="70.2833,-230.5 60.2833,-234 70.2832,-237.5 70.2833,-230.5"/>
</g>
<!-- Node16 -->
<g id="node16" class="node"><title>Node16</title>
<g id="a_node16"><a xlink:href="d4/d64/classview_1_1_view_updater.html" target="_top" xlink:title="view.ViewUpdater">
<polygon fill="white" stroke="black" points="125,-186.5 125,-205.5 225,-205.5 225,-186.5 125,-186.5"/>
<text text-anchor="middle" x="175" y="-193.5" font-family="Helvetica,sans-Serif" font-size="10.00">view.ViewUpdater</text>
</a>
</g>
</g>
<!-- Node1&#45;&gt;Node16 -->
<g id="edge15" class="edge"><title>Node1&#45;&gt;Node16</title>
<path fill="none" stroke="midnightblue" d="M69.8445,-222.333C78.4373,-219.839 87.5108,-217.273 96,-215 108.117,-211.755 121.355,-208.443 133.427,-205.513"/>
<polygon fill="midnightblue" stroke="midnightblue" points="68.6544,-219.034 60.042,-225.205 70.6227,-225.752 68.6544,-219.034"/>
</g>
<!-- Node3 -->
<g id="node3" class="node"><title>Node3</title>
<g id="a_node3"><a xlink:href="db/d32/classmodel_1_1instructions_1_1_boolean_instruction.html" target="_top" xlink:title="model.instructions.Boolean\lInstruction">
<polygon fill="white" stroke="black" points="307.5,-498 307.5,-528 454.5,-528 454.5,-498 307.5,-498"/>
<text text-anchor="start" x="315.5" y="-516" font-family="Helvetica,sans-Serif" font-size="10.00">model.instructions.Boolean</text>
<text text-anchor="middle" x="381" y="-505" font-family="Helvetica,sans-Serif" font-size="10.00">Instruction</text>
</a>
</g>
</g>
<!-- Node2&#45;&gt;Node3 -->
<g id="edge2" class="edge"><title>Node2&#45;&gt;Node3</title>
<path fill="none" stroke="midnightblue" d="M180.715,-291.675C191.947,-334.21 224.383,-435.148 290,-488 295.178,-492.171 301.006,-495.647 307.143,-498.544"/>
<polygon fill="midnightblue" stroke="midnightblue" points="184.104,-290.799 178.256,-281.964 177.318,-292.518 184.104,-290.799"/>
</g>
<!-- Node4 -->
<g id="node4" class="node"><title>Node4</title>
<g id="a_node4"><a xlink:href="d2/d44/classmodel_1_1instructions_1_1_constant.html" target="_top" xlink:title="model.instructions.Constant">
<polygon fill="white" stroke="black" points="305,-459.5 305,-478.5 457,-478.5 457,-459.5 305,-459.5"/>
<text text-anchor="middle" x="381" y="-466.5" font-family="Helvetica,sans-Serif" font-size="10.00">model.instructions.Constant</text>
</a>
</g>
</g>
<!-- Node2&#45;&gt;Node4 -->
<g id="edge3" class="edge"><title>Node2&#45;&gt;Node4</title>
<path fill="none" stroke="midnightblue" d="M182.613,-291.061C196.403,-327.829 231.865,-408.486 290,-449 296.172,-453.301 303.111,-456.697 310.328,-459.375"/>
<polygon fill="midnightblue" stroke="midnightblue" points="185.86,-289.746 179.162,-281.536 179.278,-292.13 185.86,-289.746"/>
</g>
<!-- Node5 -->
<g id="node5" class="node"><title>Node5</title>
<g id="a_node5"><a xlink:href="d5/dbb/classmodel_1_1instructions_1_1_control_instruction.html" target="_top" xlink:title="model.instructions.Control\lInstruction">
<polygon fill="white" stroke="black" points="309.5,-410 309.5,-440 452.5,-440 452.5,-410 309.5,-410"/>
<text text-anchor="start" x="317.5" y="-428" font-family="Helvetica,sans-Serif" font-size="10.00">model.instructions.Control</text>
<text text-anchor="middle" x="381" y="-417" font-family="Helvetica,sans-Serif" font-size="10.00">Instruction</text>
</a>
</g>
</g>
<!-- Node2&#45;&gt;Node5 -->
<g id="edge4" class="edge"><title>Node2&#45;&gt;Node5</title>
<path fill="none" stroke="midnightblue" d="M187.401,-290.502C205.6,-318.47 243.907,-371.29 290,-400 296.194,-403.858 302.992,-407.132 309.989,-409.909"/>
<polygon fill="midnightblue" stroke="midnightblue" points="190.14,-288.287 181.822,-281.726 184.233,-292.042 190.14,-288.287"/>
</g>
<!-- Node6 -->
<g id="node6" class="node"><title>Node6</title>
<g id="a_node6"><a xlink:href="d2/d2b/classmodel_1_1instructions_1_1_front_end_instruction.html" target="_top" xlink:title="model.instructions.Front\lEndInstruction">
<polygon fill="white" stroke="black" points="315,-361 315,-391 447,-391 447,-361 315,-361"/>
<text text-anchor="start" x="323" y="-379" font-family="Helvetica,sans-Serif" font-size="10.00">model.instructions.Front</text>
<text text-anchor="middle" x="381" y="-368" font-family="Helvetica,sans-Serif" font-size="10.00">EndInstruction</text>
</a>
</g>
</g>
<!-- Node2&#45;&gt;Node6 -->
<g id="edge5" class="edge"><title>Node2&#45;&gt;Node6</title>
<path fill="none" stroke="midnightblue" d="M194.956,-288.145C216.634,-305.861 253.816,-334.033 290,-351 298.075,-354.787 306.835,-358.1 315.612,-360.969"/>
<polygon fill="midnightblue" stroke="midnightblue" points="197.112,-285.385 187.182,-281.693 192.642,-290.772 197.112,-285.385"/>
</g>
<!-- Node7 -->
<g id="node7" class="node"><title>Node7</title>
<g id="a_node7"><a xlink:href="de/dc5/classmodel_1_1instructions_1_1_list_instruction.html" target="_top" xlink:title="model.instructions.ListInstruction">
<polygon fill="white" stroke="black" points="293.5,-322.5 293.5,-341.5 468.5,-341.5 468.5,-322.5 293.5,-322.5"/>
<text text-anchor="middle" x="381" y="-329.5" font-family="Helvetica,sans-Serif" font-size="10.00">model.instructions.ListInstruction</text>
</a>
</g>
</g>
<!-- Node2&#45;&gt;Node7 -->
<g id="edge6" class="edge"><title>Node2&#45;&gt;Node7</title>
<path fill="none" stroke="midnightblue" d="M209.147,-285.285C231.688,-293.98 262.329,-305.143 290,-313 302.443,-316.533 316.023,-319.732 328.773,-322.456"/>
<polygon fill="midnightblue" stroke="midnightblue" points="210.297,-281.977 199.708,-281.606 207.755,-288.499 210.297,-281.977"/>
</g>
<!-- Node8 -->
<g id="node8" class="node"><title>Node8</title>
<g id="a_node8"><a xlink:href="d3/d24/classmodel_1_1instructions_1_1_math_instruction.html" target="_top" xlink:title="model.instructions.MathInstruction">
<polygon fill="white" stroke="black" points="290,-284.5 290,-303.5 472,-303.5 472,-284.5 290,-284.5"/>
<text text-anchor="middle" x="381" y="-291.5" font-family="Helvetica,sans-Serif" font-size="10.00">model.instructions.MathInstruction</text>
</a>
</g>
</g>
<!-- Node2&#45;&gt;Node8 -->
<g id="edge7" class="edge"><title>Node2&#45;&gt;Node8</title>
<path fill="none" stroke="midnightblue" d="M264.428,-281.536C273.477,-282.512 282.671,-283.504 291.718,-284.479"/>
<polygon fill="midnightblue" stroke="midnightblue" points="264.606,-278.035 254.288,-280.443 263.855,-284.995 264.606,-278.035"/>
</g>
<!-- Node9 -->
<g id="node9" class="node"><title>Node9</title>
<g id="a_node9"><a xlink:href="d1/dd3/classmodel_1_1instructions_1_1_movement_instruction.html" target="_top" xlink:title="model.instructions.Movement\lInstruction">
<polygon fill="white" stroke="black" points="301.5,-235 301.5,-265 460.5,-265 460.5,-235 301.5,-235"/>
<text text-anchor="start" x="309.5" y="-253" font-family="Helvetica,sans-Serif" font-size="10.00">model.instructions.Movement</text>
<text text-anchor="middle" x="381" y="-242" font-family="Helvetica,sans-Serif" font-size="10.00">Instruction</text>
</a>
</g>
</g>
<!-- Node2&#45;&gt;Node9 -->
<g id="edge8" class="edge"><title>Node2&#45;&gt;Node9</title>
<path fill="none" stroke="midnightblue" d="M264.484,-262.458C276.714,-261.139 289.209,-259.791 301.247,-258.493"/>
<polygon fill="midnightblue" stroke="midnightblue" points="263.855,-259.005 254.288,-263.557 264.606,-265.965 263.855,-259.005"/>
</g>
<!-- Node10 -->
<g id="node10" class="node"><title>Node10</title>
<g id="a_node10"><a xlink:href="dc/dbe/classmodel_1_1instructions_1_1_multiple_turtles_instruction.html" target="_top" xlink:title="model.instructions.Multiple\lTurtlesInstruction">
<polygon fill="white" stroke="black" points="308.5,-186 308.5,-216 453.5,-216 453.5,-186 308.5,-186"/>
<text text-anchor="start" x="316.5" y="-204" font-family="Helvetica,sans-Serif" font-size="10.00">model.instructions.Multiple</text>
<text text-anchor="middle" x="381" y="-193" font-family="Helvetica,sans-Serif" font-size="10.00">TurtlesInstruction</text>
</a>
</g>
</g>
<!-- Node2&#45;&gt;Node10 -->
<g id="edge9" class="edge"><title>Node2&#45;&gt;Node10</title>
<path fill="none" stroke="midnightblue" d="M238.417,-259.338C243.792,-257.489 249.058,-255.387 254,-253 272.252,-244.184 271.845,-234.014 290,-225 296.808,-221.62 304.149,-218.673 311.599,-216.112"/>
<polygon fill="midnightblue" stroke="midnightblue" points="237.164,-256.063 228.672,-262.398 239.261,-262.741 237.164,-256.063"/>
</g>
<!-- Node11 -->
<g id="node11" class="node"><title>Node11</title>
<g id="a_node11"><a xlink:href="d6/d1d/classmodel_1_1instructions_1_1_string_instruction.html" target="_top" xlink:title="model.instructions.String\lInstruction">
<polygon fill="white" stroke="black" points="312.5,-137 312.5,-167 449.5,-167 449.5,-137 312.5,-137"/>
<text text-anchor="start" x="320.5" y="-155" font-family="Helvetica,sans-Serif" font-size="10.00">model.instructions.String</text>
<text text-anchor="middle" x="381" y="-144" font-family="Helvetica,sans-Serif" font-size="10.00">Instruction</text>
</a>
</g>
</g>
<!-- Node2&#45;&gt;Node11 -->
<g id="edge10" class="edge"><title>Node2&#45;&gt;Node11</title>
<path fill="none" stroke="midnightblue" d="M247.417,-257.668C249.72,-256.252 251.924,-254.7 254,-253 283.227,-229.064 261.034,-200.251 290,-176 296.572,-170.498 304.28,-166.246 312.372,-162.961"/>
<polygon fill="midnightblue" stroke="midnightblue" points="245.388,-254.777 238.118,-262.485 248.607,-260.993 245.388,-254.777"/>
</g>
<!-- Node12 -->
<g id="node12" class="node"><title>Node12</title>
<g id="a_node12"><a xlink:href="da/d93/classmodel_1_1instructions_1_1_turtle_request_instruction.html" target="_top" xlink:title="model.instructions.Turtle\lRequestInstruction">
<polygon fill="white" stroke="black" points="314,-88 314,-118 448,-118 448,-88 314,-88"/>
<text text-anchor="start" x="322" y="-106" font-family="Helvetica,sans-Serif" font-size="10.00">model.instructions.Turtle</text>
<text text-anchor="middle" x="381" y="-95" font-family="Helvetica,sans-Serif" font-size="10.00">RequestInstruction</text>
</a>
</g>
</g>
<!-- Node2&#45;&gt;Node12 -->
<g id="edge11" class="edge"><title>Node2&#45;&gt;Node12</title>
<path fill="none" stroke="midnightblue" d="M249.221,-257.04C250.895,-255.793 252.493,-254.449 254,-253 295.985,-212.636 248.455,-167.817 290,-127 296.691,-120.427 304.969,-115.6 313.773,-112.066"/>
<polygon fill="midnightblue" stroke="midnightblue" points="247.003,-254.294 240.299,-262.499 250.656,-260.266 247.003,-254.294"/>
</g>
<!-- Node13 -->
<g id="node13" class="node"><title>Node13</title>
<g id="a_node13"><a xlink:href="d9/d13/classmodel_1_1instructions_1_1_user_running_instruction.html" target="_top" xlink:title="model.instructions.UserRunning\lInstruction">
<polygon fill="white" stroke="black" points="297,-39 297,-69 465,-69 465,-39 297,-39"/>
<text text-anchor="start" x="305" y="-57" font-family="Helvetica,sans-Serif" font-size="10.00">model.instructions.UserRunning</text>
<text text-anchor="middle" x="381" y="-46" font-family="Helvetica,sans-Serif" font-size="10.00">Instruction</text>
</a>
</g>
</g>
<!-- Node2&#45;&gt;Node13 -->
<g id="edge12" class="edge"><title>Node2&#45;&gt;Node13</title>
<path fill="none" stroke="midnightblue" d="M249.997,-256.683C251.398,-255.536 252.736,-254.31 254,-253 309.128,-195.848 235.495,-135.746 290,-78 293.219,-74.5897 296.864,-71.644 300.796,-69.1015"/>
<polygon fill="midnightblue" stroke="midnightblue" points="247.748,-253.975 241.355,-262.424 251.621,-259.806 247.748,-253.975"/>
</g>
<!-- Node14 -->
<g id="node14" class="node"><title>Node14</title>
<g id="a_node14"><a xlink:href="d4/d62/classmodel_1_1instructions_1_1_variable.html" target="_top" xlink:title="model.instructions.Variable">
<polygon fill="white" stroke="black" points="308,-0.5 308,-19.5 454,-19.5 454,-0.5 308,-0.5"/>
<text text-anchor="middle" x="381" y="-7.5" font-family="Helvetica,sans-Serif" font-size="10.00">model.instructions.Variable</text>
</a>
</g>
</g>
<!-- Node2&#45;&gt;Node14 -->
<g id="edge13" class="edge"><title>Node2&#45;&gt;Node14</title>
<path fill="none" stroke="midnightblue" d="M250.183,-256.665C251.522,-255.522 252.797,-254.302 254,-253 322.407,-178.92 220.458,-102.015 290,-29 295.066,-23.6807 301.218,-19.6596 307.901,-16.6418"/>
<polygon fill="midnightblue" stroke="midnightblue" points="248.134,-253.826 241.902,-262.394 252.117,-259.583 248.134,-253.826"/>
</g>
</g>
</svg>
