<?xml version="1.0" encoding="UTF-8" standalone="no"?>
<!DOCTYPE svg PUBLIC "-//W3C//DTD SVG 1.1//EN"
 "http://www.w3.org/Graphics/SVG/1.1/DTD/svg11.dtd">
<!-- Generated by graphviz version 2.36.0 (20140111.2315)
 -->
<!-- Title: Graphical Class Hierarchy Pages: 1 -->
<svg width="212pt" height="66pt"
 viewBox="0.00 0.00 212.00 66.00" xmlns="http://www.w3.org/2000/svg" xmlns:xlink="http://www.w3.org/1999/xlink">
<g id="graph0" class="graph" transform="scale(1 1) rotate(0) translate(4 62)">
<title>Graphical Class Hierarchy</title>
<polygon fill="white" stroke="none" points="-4,4 -4,-62 208,-62 208,4 -4,4"/>
<!-- Node1 -->
<g id="node1" class="node"><title>Node1</title>
<polygon fill="white" stroke="#bfbfbf" points="0,-19.5 0,-38.5 42,-38.5 42,-19.5 0,-19.5"/>
<text text-anchor="middle" x="21" y="-26.5" font-family="Helvetica,sans-Serif" font-size="10.00">HBox</text>
</g>
<!-- Node2 -->
<g id="node2" class="node"><title>Node2</title>
<g id="a_node2"><a xlink:href="dc/d3c/classview_1_1_customization_bar.html" target="_top" xlink:title="view.CustomizationBar">
<polygon fill="white" stroke="black" points="78.5,-38.5 78.5,-57.5 203.5,-57.5 203.5,-38.5 78.5,-38.5"/>
<text text-anchor="middle" x="141" y="-45.5" font-family="Helvetica,sans-Serif" font-size="10.00">view.CustomizationBar</text>
</a>
</g>
</g>
<!-- Node1&#45;&gt;Node2 -->
<g id="edge1" class="edge"><title>Node1&#45;&gt;Node2</title>
<path fill="none" stroke="midnightblue" d="M52.1467,-33.8541C60.9795,-35.2764 70.9568,-36.8829 80.9365,-38.4898"/>
<polygon fill="midnightblue" stroke="midnightblue" points="52.4463,-30.3574 42.0171,-32.2231 51.3335,-37.2684 52.4463,-30.3574"/>
</g>
<!-- Node3 -->
<g id="node3" class="node"><title>Node3</title>
<g id="a_node3"><a xlink:href="da/dc8/classview_1_1_editor.html" target="_top" xlink:title="view.Editor">
<polygon fill="white" stroke="black" points="107.5,-0.5 107.5,-19.5 174.5,-19.5 174.5,-0.5 107.5,-0.5"/>
<text text-anchor="middle" x="141" y="-7.5" font-family="Helvetica,sans-Serif" font-size="10.00">view.Editor</text>
</a>
</g>
</g>
<!-- Node1&#45;&gt;Node3 -->
<g id="edge2" class="edge"><title>Node1&#45;&gt;Node3</title>
<path fill="none" stroke="midnightblue" d="M51.9334,-24.1802C68.8586,-21.455 90.038,-18.0447 107.385,-15.2516"/>
<polygon fill="midnightblue" stroke="midnightblue" points="51.3335,-20.7316 42.0171,-25.7769 52.4464,-27.6426 51.3335,-20.7316"/>
</g>
</g>
</svg>
