<?xml version="1.0" encoding="UTF-8" standalone="no"?>
<!DOCTYPE svg PUBLIC "-//W3C//DTD SVG 1.1//EN"
 "http://www.w3.org/Graphics/SVG/1.1/DTD/svg11.dtd">
<!-- Generated by graphviz version 2.36.0 (20140111.2315)
 -->
<!-- Title: view.TurtlePropertiesView Pages: 1 -->
<svg width="774pt" height="117pt"
 viewBox="0.00 0.00 774.00 117.00" xmlns="http://www.w3.org/2000/svg" xmlns:xlink="http://www.w3.org/1999/xlink">
<g id="graph0" class="graph" transform="scale(1 1) rotate(0) translate(4 113)">
<title>view.TurtlePropertiesView</title>
<polygon fill="white" stroke="none" points="-4,4 -4,-113 770,-113 770,4 -4,4"/>
<!-- Node1 -->
<g id="node1" class="node"><title>Node1</title>
<polygon fill="#bfbfbf" stroke="black" points="630.5,-50.5 630.5,-69.5 765.5,-69.5 765.5,-50.5 630.5,-50.5"/>
<text text-anchor="middle" x="698" y="-57.5" font-family="Helvetica,sans-Serif" font-size="10.00">view.TurtlePropertiesView</text>
</g>
<!-- Node2 -->
<g id="node2" class="node"><title>Node2</title>
<g id="a_node2"><a xlink:href="../../d5/dea/classview_1_1_side_table_view.html" target="_top" xlink:title="view.SideTableView">
<polygon fill="white" stroke="black" points="486,-50.5 486,-69.5 592,-69.5 592,-50.5 486,-50.5"/>
<text text-anchor="middle" x="539" y="-57.5" font-family="Helvetica,sans-Serif" font-size="10.00">view.SideTableView</text>
</a>
</g>
</g>
<!-- Node2&#45;&gt;Node1 -->
<g id="edge1" class="edge"><title>Node2&#45;&gt;Node1</title>
<path fill="none" stroke="midnightblue" d="M602.49,-60C611.674,-60 621.164,-60 630.427,-60"/>
<polygon fill="midnightblue" stroke="midnightblue" points="602.279,-56.5001 592.279,-60 602.279,-63.5001 602.279,-56.5001"/>
</g>
<!-- Node3 -->
<g id="node3" class="node"><title>Node3</title>
<g id="a_node3"><a xlink:href="../../d2/d38/classview_1_1_side_properties_view.html" target="_top" xlink:title="view.SidePropertiesView">
<polygon fill="white" stroke="black" points="242.5,-88.5 242.5,-107.5 373.5,-107.5 373.5,-88.5 242.5,-88.5"/>
<text text-anchor="middle" x="308" y="-95.5" font-family="Helvetica,sans-Serif" font-size="10.00">view.SidePropertiesView</text>
</a>
</g>
</g>
<!-- Node3&#45;&gt;Node2 -->
<g id="edge2" class="edge"><title>Node3&#45;&gt;Node2</title>
<path fill="none" stroke="midnightblue" d="M383.781,-88.2416C410.427,-84.485 440.613,-79.9093 468,-75 477.053,-73.3772 486.721,-71.4392 495.892,-69.5039"/>
<polygon fill="midnightblue" stroke="midnightblue" points="383.176,-84.7921 373.756,-89.6403 384.144,-91.7249 383.176,-84.7921"/>
</g>
<!-- Node4 -->
<g id="node4" class="node"><title>Node4</title>
<polygon fill="white" stroke="#bfbfbf" points="0.5,-88.5 0.5,-107.5 135.5,-107.5 135.5,-88.5 0.5,-88.5"/>
<text text-anchor="middle" x="68" y="-95.5" font-family="Helvetica,sans-Serif" font-size="10.00">ObservableList&lt; Node &gt;</text>
</g>
<!-- Node4&#45;&gt;Node3 -->
<g id="edge3" class="edge"><title>Node4&#45;&gt;Node3</title>
<path fill="none" stroke="#9a32cd" stroke-dasharray="5,2" d="M145.993,-98C177.142,-98 212.696,-98 242.457,-98"/>
<polygon fill="#9a32cd" stroke="#9a32cd" points="145.613,-94.5001 135.613,-98 145.613,-101.5 145.613,-94.5001"/>
<text text-anchor="middle" x="183" y="-101" font-family="Helvetica,sans-Serif" font-size="10.00"> myChildren</text>
</g>
<!-- Node5 -->
<g id="node5" class="node"><title>Node5</title>
<polygon fill="white" stroke="#bfbfbf" points="234,-50.5 234,-69.5 382,-69.5 382,-50.5 234,-50.5"/>
<text text-anchor="middle" x="308" y="-57.5" font-family="Helvetica,sans-Serif" font-size="10.00">TableView&lt; view.Property &gt;</text>
</g>
<!-- Node5&#45;&gt;Node2 -->
<g id="edge4" class="edge"><title>Node5&#45;&gt;Node2</title>
<path fill="none" stroke="#9a32cd" stroke-dasharray="5,2" d="M392.126,-60C423.456,-60 458.182,-60 485.891,-60"/>
<polygon fill="#9a32cd" stroke="#9a32cd" points="392.087,-56.5001 382.087,-60 392.087,-63.5001 392.087,-56.5001"/>
<text text-anchor="middle" x="436" y="-63" font-family="Helvetica,sans-Serif" font-size="10.00"> myTable</text>
</g>
<!-- Node6 -->
<g id="node6" class="node"><title>Node6</title>
<polygon fill="white" stroke="#bfbfbf" points="230.5,-0 230.5,-30 385.5,-30 385.5,-0 230.5,-0"/>
<text text-anchor="start" x="238.5" y="-18" font-family="Helvetica,sans-Serif" font-size="10.00">TableColumn&lt; view.Property,</text>
<text text-anchor="middle" x="308" y="-7" font-family="Helvetica,sans-Serif" font-size="10.00"> String &gt;</text>
</g>
<!-- Node6&#45;&gt;Node2 -->
<g id="edge5" class="edge"><title>Node6&#45;&gt;Node2</title>
<path fill="none" stroke="#9a32cd" stroke-dasharray="5,2" d="M395.688,-21.5976C419.341,-24.4149 444.829,-28.3963 468,-34 484.633,-38.0225 502.724,-44.8094 516.347,-50.4405"/>
<polygon fill="#9a32cd" stroke="#9a32cd" points="396.007,-18.1114 385.676,-20.4602 395.217,-25.0667 396.007,-18.1114"/>
<text text-anchor="middle" x="436" y="-48" font-family="Helvetica,sans-Serif" font-size="10.00"> rightTableCol</text>
<text text-anchor="middle" x="436" y="-37" font-family="Helvetica,sans-Serif" font-size="10.00">leftTableCol</text>
</g>
</g>
</svg>
