<?xml version="1.0" encoding="UTF-8" standalone="no"?>
<!DOCTYPE svg PUBLIC "-//W3C//DTD SVG 1.1//EN"
 "http://www.w3.org/Graphics/SVG/1.1/DTD/svg11.dtd">
<!-- Generated by graphviz version 2.36.0 (20140111.2315)
 -->
<!-- Title: view.Drawer.changeColor Pages: 1 -->
<svg width="588pt" height="82pt"
 viewBox="0.00 0.00 588.00 82.00" xmlns="http://www.w3.org/2000/svg" xmlns:xlink="http://www.w3.org/1999/xlink">
<g id="graph0" class="graph" transform="scale(1 1) rotate(0) translate(4 78)">
<title>view.Drawer.changeColor</title>
<polygon fill="white" stroke="none" points="-4,4 -4,-78 584,-78 584,4 -4,4"/>
<!-- Node1 -->
<g id="node1" class="node"><title>Node1</title>
<polygon fill="#bfbfbf" stroke="black" points="0.5,-27.5 0.5,-46.5 135.5,-46.5 135.5,-27.5 0.5,-27.5"/>
<text text-anchor="middle" x="68" y="-34.5" font-family="Helvetica,sans-Serif" font-size="10.00">view.Drawer.changeColor</text>
</g>
<!-- Node2 -->
<g id="node2" class="node"><title>Node2</title>
<g id="a_node2"><a xlink:href="../../dc/d3c/classview_1_1_customization_bar.html#af90deb872fbe4cfb0850c42f5f87e74f" target="_top" xlink:title="view.CustomizationBar.select\lPenColor">
<polygon fill="white" stroke="black" points="174.5,-44 174.5,-74 329.5,-74 329.5,-44 174.5,-44"/>
<text text-anchor="start" x="182.5" y="-62" font-family="Helvetica,sans-Serif" font-size="10.00">view.CustomizationBar.select</text>
<text text-anchor="middle" x="252" y="-51" font-family="Helvetica,sans-Serif" font-size="10.00">PenColor</text>
</a>
</g>
</g>
<!-- Node1&#45;&gt;Node2 -->
<g id="edge1" class="edge"><title>Node1&#45;&gt;Node2</title>
<path fill="none" stroke="midnightblue" d="M145.883,-46.2935C155.326,-47.4351 164.978,-48.6017 174.417,-49.7427"/>
<polygon fill="midnightblue" stroke="midnightblue" points="146.084,-42.7925 135.737,-45.0671 145.244,-49.7419 146.084,-42.7925"/>
</g>
<!-- Node4 -->
<g id="node4" class="node"><title>Node4</title>
<g id="a_node4"><a xlink:href="../../d4/d64/classview_1_1_view_updater.html#a48eecfbf1c8a334845e1c1014d3eed4e" target="_top" xlink:title="view.ViewUpdater.setPenColor">
<polygon fill="white" stroke="black" points="172,-5.5 172,-24.5 332,-24.5 332,-5.5 172,-5.5"/>
<text text-anchor="middle" x="252" y="-12.5" font-family="Helvetica,sans-Serif" font-size="10.00">view.ViewUpdater.setPenColor</text>
</a>
</g>
</g>
<!-- Node1&#45;&gt;Node4 -->
<g id="edge3" class="edge"><title>Node1&#45;&gt;Node4</title>
<path fill="none" stroke="midnightblue" d="M145.873,-27.7077C154.594,-26.6535 163.492,-25.5779 172.237,-24.5208"/>
<polygon fill="midnightblue" stroke="midnightblue" points="145.244,-24.2581 135.737,-28.9329 146.084,-31.2075 145.244,-24.2581"/>
</g>
<!-- Node3 -->
<g id="node3" class="node"><title>Node3</title>
<g id="a_node3"><a xlink:href="../../dc/d3c/classview_1_1_customization_bar.html#a51c9304001bd726b1bc57009a08c0f5f" target="_top" xlink:title="view.CustomizationBar.CustomizationBar">
<polygon fill="white" stroke="black" points="368,-49.5 368,-68.5 580,-68.5 580,-49.5 368,-49.5"/>
<text text-anchor="middle" x="474" y="-56.5" font-family="Helvetica,sans-Serif" font-size="10.00">view.CustomizationBar.CustomizationBar</text>
</a>
</g>
</g>
<!-- Node2&#45;&gt;Node3 -->
<g id="edge2" class="edge"><title>Node2&#45;&gt;Node3</title>
<path fill="none" stroke="midnightblue" d="M339.637,-59C348.951,-59 358.498,-59 367.996,-59"/>
<polygon fill="midnightblue" stroke="midnightblue" points="339.637,-55.5001 329.636,-59 339.636,-62.5001 339.637,-55.5001"/>
</g>
<!-- Node5 -->
<g id="node5" class="node"><title>Node5</title>
<g id="a_node5"><a xlink:href="../../d2/d2b/classmodel_1_1instructions_1_1_front_end_instruction.html#ad73f35e44bf151648463df17e10152ac" target="_top" xlink:title="model.instructions.Front\lEndInstruction.execute">
<polygon fill="white" stroke="black" points="408,-0 408,-30 540,-30 540,-0 408,-0"/>
<text text-anchor="start" x="416" y="-18" font-family="Helvetica,sans-Serif" font-size="10.00">model.instructions.Front</text>
<text text-anchor="middle" x="474" y="-7" font-family="Helvetica,sans-Serif" font-size="10.00">EndInstruction.execute</text>
</a>
</g>
</g>
<!-- Node4&#45;&gt;Node5 -->
<g id="edge4" class="edge"><title>Node4&#45;&gt;Node5</title>
<path fill="none" stroke="midnightblue" d="M342.137,-15C364.158,-15 387.336,-15 407.966,-15"/>
<polygon fill="midnightblue" stroke="midnightblue" points="342.114,-11.5001 332.114,-15 342.114,-18.5001 342.114,-11.5001"/>
</g>
</g>
</svg>
