<?xml version="1.0" encoding="UTF-8" standalone="no"?>
<!DOCTYPE svg PUBLIC "-//W3C//DTD SVG 1.1//EN"
 "http://www.w3.org/Graphics/SVG/1.1/DTD/svg11.dtd">
<!-- Generated by graphviz version 2.36.0 (20140111.2315)
 -->
<!-- Title: view.Drawer.draw Pages: 1 -->
<!--zoomable 550 -->
<svg id="main" version="1.1" xmlns="http://www.w3.org/2000/svg" xmlns:xlink="http://www.w3.org/1999/xlink" xml:space="preserve" onload="init(evt)">
<style type="text/css"><![CDATA[
.edge:hover path { stroke: red; }
.edge:hover polygon { stroke: red; fill: red; }
]]></style>
<script type="text/javascript"><![CDATA[
var edges = document.getElementsByTagName('g');
if (edges && edges.length) {
  for (var i=0;i<edges.length;i++) {
    if (edges[i].id.substr(0,4)=='edge') {
      edges[i].setAttribute('class','edge');
    }
  }
}
]]></script>
        <defs>
                <circle id="rim" cx="0" cy="0" r="7"/>
                <circle id="rim2" cx="0" cy="0" r="3.5"/>
                <g id="zoomPlus">
                        <use xlink:href="#rim" fill="#404040">
                                <set attributeName="fill" to="#808080" begin="zoomplus.mouseover" end="zoomplus.mouseout"/>
                        </use>
                        <path d="M-4,0h8M0,-4v8" fill="none" stroke="white" stroke-width="1.5" pointer-events="none"/>
                </g>
                <g id="zoomMin">
                        <use xlink:href="#rim" fill="#404040">
                                <set attributeName="fill" to="#808080" begin="zoomminus.mouseover" end="zoomminus.mouseout"/>
                        </use>
                        <path d="M-4,0h8" fill="none" stroke="white" stroke-width="1.5" pointer-events="none"/>
                </g>
                <g id="dirArrow">
                        <path fill="none" stroke="white" stroke-width="1.5" d="M0,-3.0v7 M-2.5,-0.5L0,-3.0L2.5,-0.5"/>
                </g>
               <g id="resetDef">
                       <use xlink:href="#rim2" fill="#404040">
                               <set attributeName="fill" to="#808080" begin="reset.mouseover" end="reset.mouseout"/>
                       </use>
               </g>
        </defs>

<script type="text/javascript">
var viewWidth = 720;
var viewHeight = 550;
var sectionId = 'dynsection-3';
</script>
<script xlink:href="../../svgpan.js"/>
<svg id="graph" class="graph">
<g id="viewport">
<title>view.Drawer.draw</title>
<polygon fill="white" stroke="none" points="-4,4 -4,-546 716,-546 716,4 -4,4"/>
<!-- Node1 -->
<g id="node1" class="node"><title>Node1</title>
<polygon fill="#bfbfbf" stroke="black" points="0,-313.5 0,-332.5 98,-332.5 98,-313.5 0,-313.5"/>
<text text-anchor="middle" x="49" y="-320.5" font-family="Helvetica,sans-Serif" font-size="10.00">view.Drawer.draw</text>
</g>
<!-- Node2 -->
<g id="node2" class="node"><title>Node2</title>
<g id="a_node2"><a xlink:href="../../d1/d0b/classmodel_1_1_polar.html#adbd9afb75cf519b2dd9f1331e406b8c2" target="_top" xlink:title="model.Polar.getAngle">
<polygon fill="white" stroke="black" points="163.5,-522.5 163.5,-541.5 282.5,-541.5 282.5,-522.5 163.5,-522.5"/>
<text text-anchor="middle" x="223" y="-529.5" font-family="Helvetica,sans-Serif" font-size="10.00">model.Polar.getAngle</text>
</a>
</g>
</g>
<!-- Node1&#45;&gt;Node2 -->
<g id="edge1" class="edge"><title>Node1&#45;&gt;Node2</title>
<path fill="none" stroke="midnightblue" d="M51.2091,-332.728C55.6666,-364.235 74.1604,-464.254 134,-513 139.748,-517.683 146.388,-521.282 153.391,-524.04"/>
<polygon fill="midnightblue" stroke="midnightblue" points="152.523,-527.44 163.117,-527.3 154.748,-520.803 152.523,-527.44"/>
</g>
<!-- Node3 -->
<g id="node3" class="node"><title>Node3</title>
<g id="a_node3"><a xlink:href="../../d1/d0b/classmodel_1_1_polar.html#a8abcb5640caf12d2941533a6e1c04faa" target="_top" xlink:title="model.Polar.getDistance">
<polygon fill="white" stroke="black" points="156,-484.5 156,-503.5 290,-503.5 290,-484.5 156,-484.5"/>
<text text-anchor="middle" x="223" y="-491.5" font-family="Helvetica,sans-Serif" font-size="10.00">model.Polar.getDistance</text>
</a>
</g>
</g>
<!-- Node1&#45;&gt;Node3 -->
<g id="edge2" class="edge"><title>Node1&#45;&gt;Node3</title>
<path fill="none" stroke="midnightblue" d="M52.6538,-332.618C60.42,-358.919 85.6615,-432.565 134,-470 139.468,-474.234 145.631,-477.723 152.093,-480.596"/>
<polygon fill="midnightblue" stroke="midnightblue" points="151.142,-483.982 161.729,-484.381 153.701,-477.467 151.142,-483.982"/>
</g>
<!-- Node4 -->
<g id="node4" class="node"><title>Node4</title>
<g id="a_node4"><a xlink:href="../../d8/df7/classview_1_1_turtle_view.html#a68c8a2962e23e5794fcfbe7ef1968fad" target="_top" xlink:title="view.TurtleView.getPenUp">
<polygon fill="white" stroke="black" points="366,-427.5 366,-446.5 502,-446.5 502,-427.5 366,-427.5"/>
<text text-anchor="middle" x="434" y="-434.5" font-family="Helvetica,sans-Serif" font-size="10.00">view.TurtleView.getPenUp</text>
</a>
</g>
</g>
<!-- Node1&#45;&gt;Node4 -->
<g id="edge3" class="edge"><title>Node1&#45;&gt;Node4</title>
<path fill="none" stroke="midnightblue" d="M53.5829,-332.741C62.7376,-355.997 89.4577,-414.492 134,-437 215.9,-478.385 327.262,-462.615 388.346,-448.891"/>
<polygon fill="midnightblue" stroke="midnightblue" points="389.483,-452.22 398.427,-446.541 387.893,-445.403 389.483,-452.22"/>
</g>
<!-- Node5 -->
<g id="node5" class="node"><title>Node5</title>
<g id="a_node5"><a xlink:href="../../d6/d06/classmodel_1_1_turtle_command.html#ab94da8b47588273eb8db943096f12422" target="_top" xlink:title="model.TurtleCommand.getPolar">
<polygon fill="white" stroke="black" points="139,-294.5 139,-313.5 307,-313.5 307,-294.5 139,-294.5"/>
<text text-anchor="middle" x="223" y="-301.5" font-family="Helvetica,sans-Serif" font-size="10.00">model.TurtleCommand.getPolar</text>
</a>
</g>
</g>
<!-- Node1&#45;&gt;Node5 -->
<g id="edge4" class="edge"><title>Node1&#45;&gt;Node5</title>
<path fill="none" stroke="midnightblue" d="M98.3693,-317.657C107.932,-316.601 118.268,-315.459 128.749,-314.301"/>
<polygon fill="midnightblue" stroke="midnightblue" points="129.266,-317.765 138.821,-313.188 128.497,-310.808 129.266,-317.765"/>
</g>
<!-- Node6 -->
<g id="node6" class="node"><title>Node6</title>
<g id="a_node6"><a xlink:href="../../d6/d06/classmodel_1_1_turtle_command.html#ab30f5c95162492cb8fd19f1fd7350f9f" target="_top" xlink:title="model.TurtleCommand.getTurtleId">
<polygon fill="white" stroke="black" points="134,-256.5 134,-275.5 312,-275.5 312,-256.5 134,-256.5"/>
<text text-anchor="middle" x="223" y="-263.5" font-family="Helvetica,sans-Serif" font-size="10.00">model.TurtleCommand.getTurtleId</text>
</a>
</g>
</g>
<!-- Node1&#45;&gt;Node6 -->
<g id="edge5" class="edge"><title>Node1&#45;&gt;Node6</title>
<path fill="none" stroke="midnightblue" d="M68.2309,-313.388C84.9491,-304.907 110.592,-292.724 134,-285 142.001,-282.36 150.534,-279.989 159.021,-277.891"/>
<polygon fill="midnightblue" stroke="midnightblue" points="159.999,-281.257 168.928,-275.554 158.392,-274.444 159.999,-281.257"/>
</g>
<!-- Node7 -->
<g id="node7" class="node"><title>Node7</title>
<g id="a_node7"><a xlink:href="../../d6/d06/classmodel_1_1_turtle_command.html#abb952ce819f91c0f5970c2f2b1c43d73" target="_top" xlink:title="model.TurtleCommand.isRelative">
<polygon fill="white" stroke="black" points="136.5,-218.5 136.5,-237.5 309.5,-237.5 309.5,-218.5 136.5,-218.5"/>
<text text-anchor="middle" x="223" y="-225.5" font-family="Helvetica,sans-Serif" font-size="10.00">model.TurtleCommand.isRelative</text>
</a>
</g>
</g>
<!-- Node1&#45;&gt;Node7 -->
<g id="edge6" class="edge"><title>Node1&#45;&gt;Node7</title>
<path fill="none" stroke="midnightblue" d="M57.6686,-313.334C71.2223,-296.954 101.104,-263.878 134,-247 138.576,-244.652 143.43,-242.594 148.414,-240.79"/>
<polygon fill="midnightblue" stroke="midnightblue" points="149.699,-244.052 158.121,-237.624 147.529,-237.397 149.699,-244.052"/>
</g>
<!-- Node8 -->
<g id="node8" class="node"><title>Node8</title>
<g id="a_node8"><a xlink:href="../../d8/df7/classview_1_1_turtle_view.html#a5e7cf3c4f078acae07bcbeee264a5581" target="_top" xlink:title="view.TurtleView.move">
<polygon fill="white" stroke="black" points="376,-351.5 376,-370.5 492,-370.5 492,-351.5 376,-351.5"/>
<text text-anchor="middle" x="434" y="-358.5" font-family="Helvetica,sans-Serif" font-size="10.00">view.TurtleView.move</text>
</a>
</g>
</g>
<!-- Node1&#45;&gt;Node8 -->
<g id="edge7" class="edge"><title>Node1&#45;&gt;Node8</title>
<path fill="none" stroke="midnightblue" d="M98.1194,-327.774C165.705,-334.48 289.041,-346.717 365.694,-354.322"/>
<polygon fill="midnightblue" stroke="midnightblue" points="365.43,-357.813 375.727,-355.318 366.121,-350.847 365.43,-357.813"/>
</g>
<!-- Node9 -->
<g id="node9" class="node"><title>Node9</title>
<g id="a_node9"><a xlink:href="../../d8/df7/classview_1_1_turtle_view.html#a166c0ff50e234c0a2725aa1cbc38c933" target="_top" xlink:title="view.TurtleView.setAbsolute\lHeading">
<polygon fill="white" stroke="black" points="150,-169 150,-199 296,-199 296,-169 150,-169"/>
<text text-anchor="start" x="158" y="-187" font-family="Helvetica,sans-Serif" font-size="10.00">view.TurtleView.setAbsolute</text>
<text text-anchor="middle" x="223" y="-176" font-family="Helvetica,sans-Serif" font-size="10.00">Heading</text>
</a>
</g>
</g>
<!-- Node1&#45;&gt;Node9 -->
<g id="edge8" class="edge"><title>Node1&#45;&gt;Node9</title>
<path fill="none" stroke="midnightblue" d="M54.3427,-313.374C64.7681,-291.376 93.3928,-237.157 134,-209 136.894,-206.993 139.946,-205.147 143.109,-203.448"/>
<polygon fill="midnightblue" stroke="midnightblue" points="144.777,-206.529 152.27,-199.039 141.741,-200.222 144.777,-206.529"/>
</g>
<!-- Node11 -->
<g id="node11" class="node"><title>Node11</title>
<g id="a_node11"><a xlink:href="../../d8/df7/classview_1_1_turtle_view.html#a199407b3121d1bc310d7f75cdab2da94" target="_top" xlink:title="view.TurtleView.setRelative\lHeading">
<polygon fill="white" stroke="black" points="153,-120 153,-150 293,-150 293,-120 153,-120"/>
<text text-anchor="start" x="161" y="-138" font-family="Helvetica,sans-Serif" font-size="10.00">view.TurtleView.setRelative</text>
<text text-anchor="middle" x="223" y="-127" font-family="Helvetica,sans-Serif" font-size="10.00">Heading</text>
</a>
</g>
</g>
<!-- Node1&#45;&gt;Node11 -->
<g id="edge10" class="edge"><title>Node1&#45;&gt;Node11</title>
<path fill="none" stroke="midnightblue" d="M52.1505,-313.204C58.8827,-284.901 82.264,-202.342 134,-160 137.092,-157.47 140.426,-155.195 143.925,-153.15"/>
<polygon fill="midnightblue" stroke="midnightblue" points="145.623,-156.213 152.916,-148.527 142.422,-149.987 145.623,-156.213"/>
</g>
<!-- Node12 -->
<g id="node12" class="node"><title>Node12</title>
<g id="a_node12"><a xlink:href="../../d1/dc7/classview_1_1_side_bar.html#a7d73038dbba05f96990b60664afa2670" target="_top" xlink:title="view.SideBar.updateTurtle\lProperties">
<polygon fill="white" stroke="black" points="154,-71 154,-101 292,-101 292,-71 154,-71"/>
<text text-anchor="start" x="162" y="-89" font-family="Helvetica,sans-Serif" font-size="10.00">view.SideBar.updateTurtle</text>
<text text-anchor="middle" x="223" y="-78" font-family="Helvetica,sans-Serif" font-size="10.00">Properties</text>
</a>
</g>
</g>
<!-- Node1&#45;&gt;Node12 -->
<g id="edge12" class="edge"><title>Node1&#45;&gt;Node12</title>
<path fill="none" stroke="midnightblue" d="M50.8282,-313.222C54.2174,-279.545 70.0582,-167.304 134,-110 137.25,-107.087 140.821,-104.523 144.605,-102.267"/>
<polygon fill="midnightblue" stroke="midnightblue" points="146.488,-105.234 153.772,-97.541 143.28,-99.0122 146.488,-105.234"/>
</g>
<!-- Node19 -->
<g id="node19" class="node"><title>Node19</title>
<g id="a_node19"><a xlink:href="../../de/d0a/classview_1_1_drawer.html#a24eafc164d9d0ab08036dc5cf7d72dd4" target="_top" xlink:title="view.Drawer.wrapX">
<polygon fill="white" stroke="black" points="171,-408.5 171,-427.5 275,-427.5 275,-408.5 171,-408.5"/>
<text text-anchor="middle" x="223" y="-415.5" font-family="Helvetica,sans-Serif" font-size="10.00">view.Drawer.wrapX</text>
</a>
</g>
</g>
<!-- Node1&#45;&gt;Node19 -->
<g id="edge19" class="edge"><title>Node1&#45;&gt;Node19</title>
<path fill="none" stroke="midnightblue" d="M57.6686,-332.666C71.2223,-349.046 101.104,-382.122 134,-399 142.272,-403.244 151.451,-406.542 160.669,-409.104"/>
<polygon fill="midnightblue" stroke="midnightblue" points="160.095,-412.568 170.646,-411.605 161.797,-405.778 160.095,-412.568"/>
</g>
<!-- Node21 -->
<g id="node21" class="node"><title>Node21</title>
<g id="a_node21"><a xlink:href="../../de/d0a/classview_1_1_drawer.html#ad1636376006d26ed1ca9784e13f96a2a" target="_top" xlink:title="view.Drawer.wrapY">
<polygon fill="white" stroke="black" points="171.5,-370.5 171.5,-389.5 274.5,-389.5 274.5,-370.5 171.5,-370.5"/>
<text text-anchor="middle" x="223" y="-377.5" font-family="Helvetica,sans-Serif" font-size="10.00">view.Drawer.wrapY</text>
</a>
</g>
</g>
<!-- Node1&#45;&gt;Node21 -->
<g id="edge23" class="edge"><title>Node1&#45;&gt;Node21</title>
<path fill="none" stroke="midnightblue" d="M72.5738,-332.636C89.3472,-339.608 112.882,-348.995 134,-356 146.816,-360.251 160.857,-364.333 173.885,-367.886"/>
<polygon fill="midnightblue" stroke="midnightblue" points="173.048,-371.286 183.613,-370.495 174.861,-364.524 173.048,-371.286"/>
</g>
<!-- Node10 -->
<g id="node10" class="node"><title>Node10</title>
<g id="a_node10"><a xlink:href="../../d8/df7/classview_1_1_turtle_view.html#aea0727a510b53db67aa4100a6106eb5b" target="_top" xlink:title="view.TurtleView.adjustAngle">
<polygon fill="white" stroke="black" points="361.5,-149.5 361.5,-168.5 506.5,-168.5 506.5,-149.5 361.5,-149.5"/>
<text text-anchor="middle" x="434" y="-156.5" font-family="Helvetica,sans-Serif" font-size="10.00">view.TurtleView.adjustAngle</text>
</a>
</g>
</g>
<!-- Node9&#45;&gt;Node10 -->
<g id="edge9" class="edge"><title>Node9&#45;&gt;Node10</title>
<path fill="none" stroke="midnightblue" d="M296.219,-175.361C314.039,-173.23 333.248,-170.932 351.475,-168.752"/>
<polygon fill="midnightblue" stroke="midnightblue" points="351.972,-172.217 361.486,-167.554 351.141,-165.267 351.972,-172.217"/>
</g>
<!-- Node11&#45;&gt;Node10 -->
<g id="edge11" class="edge"><title>Node11&#45;&gt;Node10</title>
<path fill="none" stroke="midnightblue" d="M293.014,-142.925C311.644,-145.064 331.982,-147.4 351.237,-149.611"/>
<polygon fill="midnightblue" stroke="midnightblue" points="350.859,-153.09 361.193,-150.754 351.657,-146.136 350.859,-153.09"/>
</g>
<!-- Node13 -->
<g id="node13" class="node"><title>Node13</title>
<g id="a_node13"><a xlink:href="../../d9/d3a/classview_1_1_turtle_properties_view.html#af07bce3cf2bed2814a0fb3812d00b69e" target="_top" xlink:title="view.TurtlePropertiesView.update">
<polygon fill="white" stroke="black" points="348.5,-76.5 348.5,-95.5 519.5,-95.5 519.5,-76.5 348.5,-76.5"/>
<text text-anchor="middle" x="434" y="-83.5" font-family="Helvetica,sans-Serif" font-size="10.00">view.TurtlePropertiesView.update</text>
</a>
</g>
</g>
<!-- Node12&#45;&gt;Node13 -->
<g id="edge13" class="edge"><title>Node12&#45;&gt;Node13</title>
<path fill="none" stroke="midnightblue" d="M292.145,-86C306.9,-86 322.76,-86 338.327,-86"/>
<polygon fill="midnightblue" stroke="midnightblue" points="338.499,-89.5001 348.499,-86 338.499,-82.5001 338.499,-89.5001"/>
</g>
<!-- Node14 -->
<g id="node14" class="node"><title>Node14</title>
<g id="a_node14"><a xlink:href="../../da/d64/classview_1_1_workspace.html#ad460da1164f039e5ea9a265d446d13fe" target="_top" xlink:title="view.Workspace.getTurtleMap">
<polygon fill="white" stroke="black" points="556.5,-152.5 556.5,-171.5 711.5,-171.5 711.5,-152.5 556.5,-152.5"/>
<text text-anchor="middle" x="634" y="-159.5" font-family="Helvetica,sans-Serif" font-size="10.00">view.Workspace.getTurtleMap</text>
</a>
</g>
</g>
<!-- Node13&#45;&gt;Node14 -->
<g id="edge14" class="edge"><title>Node13&#45;&gt;Node14</title>
<path fill="none" stroke="midnightblue" d="M452.571,-95.638C475.708,-108.009 517.923,-129.484 556,-143 563.037,-145.498 570.549,-147.79 578.018,-149.852"/>
<polygon fill="midnightblue" stroke="midnightblue" points="577.206,-153.257 587.768,-152.427 578.994,-146.49 577.206,-153.257"/>
</g>
<!-- Node15 -->
<g id="node15" class="node"><title>Node15</title>
<g id="a_node15"><a xlink:href="../../d8/df7/classview_1_1_turtle_view.html#ab5fdc3775e06339f4a68d1b795a81643" target="_top" xlink:title="view.TurtleView.getID">
<polygon fill="white" stroke="black" points="577,-114.5 577,-133.5 691,-133.5 691,-114.5 577,-114.5"/>
<text text-anchor="middle" x="634" y="-121.5" font-family="Helvetica,sans-Serif" font-size="10.00">view.TurtleView.getID</text>
</a>
</g>
</g>
<!-- Node13&#45;&gt;Node15 -->
<g id="edge15" class="edge"><title>Node13&#45;&gt;Node15</title>
<path fill="none" stroke="midnightblue" d="M484.708,-95.54C511.541,-100.69 544.859,-107.084 573.113,-112.506"/>
<polygon fill="midnightblue" stroke="midnightblue" points="572.791,-116.009 583.271,-114.456 574.11,-109.134 572.791,-116.009"/>
</g>
<!-- Node16 -->
<g id="node16" class="node"><title>Node16</title>
<g id="a_node16"><a xlink:href="../../d8/df7/classview_1_1_turtle_view.html#afddbc74313a99bb100c8c50efa88f330" target="_top" xlink:title="view.TurtleView.getYCoord">
<polygon fill="white" stroke="black" points="565.5,-76.5 565.5,-95.5 702.5,-95.5 702.5,-76.5 565.5,-76.5"/>
<text text-anchor="middle" x="634" y="-83.5" font-family="Helvetica,sans-Serif" font-size="10.00">view.TurtleView.getYCoord</text>
</a>
</g>
</g>
<!-- Node13&#45;&gt;Node16 -->
<g id="edge16" class="edge"><title>Node13&#45;&gt;Node16</title>
<path fill="none" stroke="midnightblue" d="M519.544,-86C531.413,-86 543.566,-86 555.299,-86"/>
<polygon fill="midnightblue" stroke="midnightblue" points="555.485,-89.5001 565.485,-86 555.485,-82.5001 555.485,-89.5001"/>
</g>
<!-- Node17 -->
<g id="node17" class="node"><title>Node17</title>
<g id="a_node17"><a xlink:href="../../d8/df7/classview_1_1_turtle_view.html#a5da3d4c9dafb77af0db0c589a72eadc8" target="_top" xlink:title="view.TurtleView.getHeading">
<polygon fill="white" stroke="black" points="562,-38.5 562,-57.5 706,-57.5 706,-38.5 562,-38.5"/>
<text text-anchor="middle" x="634" y="-45.5" font-family="Helvetica,sans-Serif" font-size="10.00">view.TurtleView.getHeading</text>
</a>
</g>
</g>
<!-- Node13&#45;&gt;Node17 -->
<g id="edge17" class="edge"><title>Node13&#45;&gt;Node17</title>
<path fill="none" stroke="midnightblue" d="M484.708,-76.46C511.541,-71.3104 544.859,-64.916 573.113,-59.4935"/>
<polygon fill="midnightblue" stroke="midnightblue" points="574.11,-62.866 583.271,-57.5439 572.791,-55.9915 574.11,-62.866"/>
</g>
<!-- Node18 -->
<g id="node18" class="node"><title>Node18</title>
<g id="a_node18"><a xlink:href="../../d5/dea/classview_1_1_side_table_view.html#adbdf2bf0ebf7fc8ab04db2087baea03a" target="_top" xlink:title="view.SideTableView.getTable">
<polygon fill="white" stroke="black" points="560,-0.5 560,-19.5 708,-19.5 708,-0.5 560,-0.5"/>
<text text-anchor="middle" x="634" y="-7.5" font-family="Helvetica,sans-Serif" font-size="10.00">view.SideTableView.getTable</text>
</a>
</g>
</g>
<!-- Node13&#45;&gt;Node18 -->
<g id="edge18" class="edge"><title>Node13&#45;&gt;Node18</title>
<path fill="none" stroke="midnightblue" d="M452.571,-76.362C475.708,-63.991 517.923,-42.5156 556,-29 563.037,-26.5021 570.549,-24.2098 578.018,-22.1481"/>
<polygon fill="midnightblue" stroke="midnightblue" points="578.994,-25.5104 587.768,-19.5728 577.206,-18.7425 578.994,-25.5104"/>
</g>
<!-- Node19&#45;&gt;Node4 -->
<g id="edge21" class="edge"><title>Node19&#45;&gt;Node4</title>
<path fill="none" stroke="midnightblue" d="M275.127,-422.648C299.345,-424.85 328.79,-427.526 355.661,-429.969"/>
<polygon fill="midnightblue" stroke="midnightblue" points="355.542,-433.473 365.817,-430.892 356.175,-426.501 355.542,-433.473"/>
</g>
<!-- Node19&#45;&gt;Node8 -->
<g id="edge20" class="edge"><title>Node19&#45;&gt;Node8</title>
<path fill="none" stroke="midnightblue" d="M275.392,-409.369C287.575,-406.65 300.397,-403.224 312,-399 329,-392.811 331.022,-386.251 348,-380 355.184,-377.355 362.85,-375.013 370.528,-372.958"/>
<polygon fill="midnightblue" stroke="midnightblue" points="371.386,-376.351 380.223,-370.507 369.67,-369.565 371.386,-376.351"/>
</g>
<!-- Node20 -->
<g id="node20" class="node"><title>Node20</title>
<g id="a_node20"><a xlink:href="../../de/d0a/classview_1_1_drawer.html#a1489f58b0b2c2012d23d546013a47972" target="_top" xlink:title="view.Drawer.drawLine">
<polygon fill="white" stroke="black" points="375.5,-389.5 375.5,-408.5 492.5,-408.5 492.5,-389.5 375.5,-389.5"/>
<text text-anchor="middle" x="434" y="-396.5" font-family="Helvetica,sans-Serif" font-size="10.00">view.Drawer.drawLine</text>
</a>
</g>
</g>
<!-- Node19&#45;&gt;Node20 -->
<g id="edge22" class="edge"><title>Node19&#45;&gt;Node20</title>
<path fill="none" stroke="midnightblue" d="M275.127,-413.352C302.261,-410.885 335.957,-407.822 365.242,-405.16"/>
<polygon fill="midnightblue" stroke="midnightblue" points="365.756,-408.628 375.398,-404.237 365.122,-401.656 365.756,-408.628"/>
</g>
<!-- Node21&#45;&gt;Node4 -->
<g id="edge25" class="edge"><title>Node21&#45;&gt;Node4</title>
<path fill="none" stroke="midnightblue" d="M274.929,-388.528C287.251,-391.263 300.251,-394.723 312,-399 329,-405.189 331.022,-411.749 348,-418 355.184,-420.645 362.85,-422.987 370.528,-425.042"/>
<polygon fill="midnightblue" stroke="midnightblue" points="369.67,-428.435 380.223,-427.493 371.386,-421.649 369.67,-428.435"/>
</g>
<!-- Node21&#45;&gt;Node8 -->
<g id="edge24" class="edge"><title>Node21&#45;&gt;Node8</title>
<path fill="none" stroke="midnightblue" d="M274.593,-375.401C301.934,-372.915 336.055,-369.813 365.619,-367.126"/>
<polygon fill="midnightblue" stroke="midnightblue" points="366.226,-370.585 375.868,-366.194 365.592,-363.614 366.226,-370.585"/>
</g>
<!-- Node21&#45;&gt;Node20 -->
<g id="edge26" class="edge"><title>Node21&#45;&gt;Node20</title>
<path fill="none" stroke="midnightblue" d="M274.593,-384.599C301.826,-387.075 335.785,-390.162 365.269,-392.843"/>
<polygon fill="midnightblue" stroke="midnightblue" points="365.216,-396.352 375.492,-393.772 365.85,-389.381 365.216,-396.352"/>
</g>
</g>
</svg>
        <g id="navigator" transform="translate(0 0)" fill="#404254">
                <rect fill="#f2f5e9" fill-opacity="0.5" stroke="#606060" stroke-width=".5" x="0" y="0" width="60" height="60"/>
                <use id="zoomplus" xlink:href="#zoomPlus" x="17" y="9" onmousedown="handleZoom(evt,'in')"/>
                <use id="zoomminus" xlink:href="#zoomMin" x="42" y="9" onmousedown="handleZoom(evt,'out')"/>
                <use id="reset" xlink:href="#resetDef" x="30" y="36" onmousedown="handleReset()"/>
                <g id="arrowUp" xlink:href="#dirArrow" transform="translate(30 24)" onmousedown="handlePan(0,-1)">
                  <use xlink:href="#rim" fill="#404040">
                        <set attributeName="fill" to="#808080" begin="arrowUp.mouseover" end="arrowUp.mouseout"/>
                  </use>
                  <path fill="none" stroke="white" stroke-width="1.5" d="M0,-3.0v7 M-2.5,-0.5L0,-3.0L2.5,-0.5"/>
                </g>
                <g id="arrowRight" xlink:href="#dirArrow" transform="rotate(90) translate(36 -43)" onmousedown="handlePan(1,0)">
                  <use xlink:href="#rim" fill="#404040">
                        <set attributeName="fill" to="#808080" begin="arrowRight.mouseover" end="arrowRight.mouseout"/>
                  </use>
                  <path fill="none" stroke="white" stroke-width="1.5" d="M0,-3.0v7 M-2.5,-0.5L0,-3.0L2.5,-0.5"/>
                </g>
                <g id="arrowDown" xlink:href="#dirArrow" transform="rotate(180) translate(-30 -48)" onmousedown="handlePan(0,1)">
                  <use xlink:href="#rim" fill="#404040">
                        <set attributeName="fill" to="#808080" begin="arrowDown.mouseover" end="arrowDown.mouseout"/>
                  </use>
                  <path fill="none" stroke="white" stroke-width="1.5" d="M0,-3.0v7 M-2.5,-0.5L0,-3.0L2.5,-0.5"/>
                </g>
                <g id="arrowLeft" xlink:href="#dirArrow" transform="rotate(270) translate(-36 17)" onmousedown="handlePan(-1,0)">
                  <use xlink:href="#rim" fill="#404040">
                        <set attributeName="fill" to="#808080" begin="arrowLeft.mouseover" end="arrowLeft.mouseout"/>
                  </use>
                  <path fill="none" stroke="white" stroke-width="1.5" d="M0,-3.0v7 M-2.5,-0.5L0,-3.0L2.5,-0.5"/>
                </g>
        </g>
        <svg viewBox="0 0 15 15" width="100%" height="30px" preserveAspectRatio="xMaxYMin meet">
         <g id="arrow_out" transform="scale(0.3 0.3)">
          <a xlink:href="classview_1_1_drawer_a6b9f362b8bc763689630b1fe7b5c1887_cgraph_org.svg" target="_base">
           <rect id="button" ry="5" rx="5" y="6" x="6" height="38" width="38"
                fill="#f2f5e9" fill-opacity="0.5" stroke="#606060" stroke-width="1.0"/>
           <path id="arrow"
             d="M 11.500037,31.436501 C 11.940474,20.09759 22.043105,11.32322 32.158766,21.979434 L 37.068811,17.246167 C 37.068811,17.246167 37.088388,32 37.088388,32 L 22.160133,31.978069 C 22.160133,31.978069 26.997745,27.140456 26.997745,27.140456 C 18.528582,18.264221 13.291696,25.230495 11.500037,31.436501 z"
             style="fill:#404040;"/>
          </a>
         </g>
        </svg>
</svg>
