<?xml version="1.0" encoding="UTF-8" standalone="no"?>
<!DOCTYPE svg PUBLIC "-//W3C//DTD SVG 1.1//EN"
 "http://www.w3.org/Graphics/SVG/1.1/DTD/svg11.dtd">
<!-- Generated by graphviz version 2.36.0 (20140111.2315)
 -->
<!-- Title: view.Drawer.draw Pages: 1 -->
<svg width="516pt" height="604pt"
 viewBox="0.00 0.00 516.00 604.00" xmlns="http://www.w3.org/2000/svg" xmlns:xlink="http://www.w3.org/1999/xlink">
<g id="graph0" class="graph" transform="scale(1 1) rotate(0) translate(4 600)">
<title>view.Drawer.draw</title>
<polygon fill="white" stroke="none" points="-4,4 -4,-600 512,-600 512,4 -4,4"/>
<!-- Node1 -->
<g id="node1" class="node"><title>Node1</title>
<polygon fill="#bfbfbf" stroke="black" points="0,-367.5 0,-386.5 98,-386.5 98,-367.5 0,-367.5"/>
<text text-anchor="middle" x="49" y="-374.5" font-family="Helvetica,sans-Serif" font-size="10.00">view.Drawer.draw</text>
</g>
<!-- Node2 -->
<g id="node2" class="node"><title>Node2</title>
<g id="a_node2"><a xlink:href="../../d1/d0b/classmodel_1_1_polar.html#adbd9afb75cf519b2dd9f1331e406b8c2" target="_top" xlink:title="model.Polar.getAngle">
<polygon fill="white" stroke="black" points="163.5,-576.5 163.5,-595.5 282.5,-595.5 282.5,-576.5 163.5,-576.5"/>
<text text-anchor="middle" x="223" y="-583.5" font-family="Helvetica,sans-Serif" font-size="10.00">model.Polar.getAngle</text>
</a>
</g>
</g>
<!-- Node1&#45;&gt;Node2 -->
<g id="edge1" class="edge"><title>Node1&#45;&gt;Node2</title>
<path fill="none" stroke="midnightblue" d="M51.2091,-386.728C55.6666,-418.235 74.1604,-518.254 134,-567 139.748,-571.683 146.388,-575.282 153.391,-578.04"/>
<polygon fill="midnightblue" stroke="midnightblue" points="152.523,-581.44 163.117,-581.3 154.748,-574.803 152.523,-581.44"/>
</g>
<!-- Node3 -->
<g id="node3" class="node"><title>Node3</title>
<g id="a_node3"><a xlink:href="../../d1/d0b/classmodel_1_1_polar.html#a8abcb5640caf12d2941533a6e1c04faa" target="_top" xlink:title="model.Polar.getDistance">
<polygon fill="white" stroke="black" points="156,-538.5 156,-557.5 290,-557.5 290,-538.5 156,-538.5"/>
<text text-anchor="middle" x="223" y="-545.5" font-family="Helvetica,sans-Serif" font-size="10.00">model.Polar.getDistance</text>
</a>
</g>
</g>
<!-- Node1&#45;&gt;Node3 -->
<g id="edge2" class="edge"><title>Node1&#45;&gt;Node3</title>
<path fill="none" stroke="midnightblue" d="M52.6538,-386.618C60.42,-412.919 85.6615,-486.565 134,-524 139.468,-528.234 145.631,-531.723 152.093,-534.596"/>
<polygon fill="midnightblue" stroke="midnightblue" points="151.142,-537.982 161.729,-538.381 153.701,-531.467 151.142,-537.982"/>
</g>
<!-- Node4 -->
<g id="node4" class="node"><title>Node4</title>
<g id="a_node4"><a xlink:href="../../d8/df7/classview_1_1_turtle_view.html#a68c8a2962e23e5794fcfbe7ef1968fad" target="_top" xlink:title="view.TurtleView.getPenUp">
<polygon fill="white" stroke="black" points="360,-481.5 360,-500.5 496,-500.5 496,-481.5 360,-481.5"/>
<text text-anchor="middle" x="428" y="-488.5" font-family="Helvetica,sans-Serif" font-size="10.00">view.TurtleView.getPenUp</text>
</a>
</g>
</g>
<!-- Node1&#45;&gt;Node4 -->
<g id="edge3" class="edge"><title>Node1&#45;&gt;Node4</title>
<path fill="none" stroke="midnightblue" d="M53.5829,-386.741C62.7376,-409.997 89.4577,-468.492 134,-491 213.828,-531.338 322.217,-516.265 382.277,-502.868"/>
<polygon fill="midnightblue" stroke="midnightblue" points="383.248,-506.236 392.201,-500.571 381.669,-499.417 383.248,-506.236"/>
</g>
<!-- Node5 -->
<g id="node5" class="node"><title>Node5</title>
<g id="a_node5"><a xlink:href="../../d6/d06/classmodel_1_1_turtle_command.html#ab94da8b47588273eb8db943096f12422" target="_top" xlink:title="model.TurtleCommand.getPolar">
<polygon fill="white" stroke="black" points="139,-348.5 139,-367.5 307,-367.5 307,-348.5 139,-348.5"/>
<text text-anchor="middle" x="223" y="-355.5" font-family="Helvetica,sans-Serif" font-size="10.00">model.TurtleCommand.getPolar</text>
</a>
</g>
</g>
<!-- Node1&#45;&gt;Node5 -->
<g id="edge4" class="edge"><title>Node1&#45;&gt;Node5</title>
<path fill="none" stroke="midnightblue" d="M98.3693,-371.657C107.932,-370.601 118.268,-369.459 128.749,-368.301"/>
<polygon fill="midnightblue" stroke="midnightblue" points="129.266,-371.765 138.821,-367.188 128.497,-364.808 129.266,-371.765"/>
</g>
<!-- Node6 -->
<g id="node6" class="node"><title>Node6</title>
<g id="a_node6"><a xlink:href="../../d6/d06/classmodel_1_1_turtle_command.html#ab30f5c95162492cb8fd19f1fd7350f9f" target="_top" xlink:title="model.TurtleCommand.getTurtleId">
<polygon fill="white" stroke="black" points="134,-310.5 134,-329.5 312,-329.5 312,-310.5 134,-310.5"/>
<text text-anchor="middle" x="223" y="-317.5" font-family="Helvetica,sans-Serif" font-size="10.00">model.TurtleCommand.getTurtleId</text>
</a>
</g>
</g>
<!-- Node1&#45;&gt;Node6 -->
<g id="edge5" class="edge"><title>Node1&#45;&gt;Node6</title>
<path fill="none" stroke="midnightblue" d="M68.2309,-367.388C84.9491,-358.907 110.592,-346.724 134,-339 142.001,-336.36 150.534,-333.989 159.021,-331.891"/>
<polygon fill="midnightblue" stroke="midnightblue" points="159.999,-335.257 168.928,-329.554 158.392,-328.444 159.999,-335.257"/>
</g>
<!-- Node7 -->
<g id="node7" class="node"><title>Node7</title>
<g id="a_node7"><a xlink:href="../../d6/d06/classmodel_1_1_turtle_command.html#abb952ce819f91c0f5970c2f2b1c43d73" target="_top" xlink:title="model.TurtleCommand.isRelative">
<polygon fill="white" stroke="black" points="136.5,-272.5 136.5,-291.5 309.5,-291.5 309.5,-272.5 136.5,-272.5"/>
<text text-anchor="middle" x="223" y="-279.5" font-family="Helvetica,sans-Serif" font-size="10.00">model.TurtleCommand.isRelative</text>
</a>
</g>
</g>
<!-- Node1&#45;&gt;Node7 -->
<g id="edge6" class="edge"><title>Node1&#45;&gt;Node7</title>
<path fill="none" stroke="midnightblue" d="M57.6686,-367.334C71.2223,-350.954 101.104,-317.878 134,-301 138.576,-298.652 143.43,-296.594 148.414,-294.79"/>
<polygon fill="midnightblue" stroke="midnightblue" points="149.699,-298.052 158.121,-291.624 147.529,-291.397 149.699,-298.052"/>
</g>
<!-- Node8 -->
<g id="node8" class="node"><title>Node8</title>
<g id="a_node8"><a xlink:href="../../d8/df7/classview_1_1_turtle_view.html#a5e7cf3c4f078acae07bcbeee264a5581" target="_top" xlink:title="view.TurtleView.move">
<polygon fill="white" stroke="black" points="370,-405.5 370,-424.5 486,-424.5 486,-405.5 370,-405.5"/>
<text text-anchor="middle" x="428" y="-412.5" font-family="Helvetica,sans-Serif" font-size="10.00">view.TurtleView.move</text>
</a>
</g>
</g>
<!-- Node1&#45;&gt;Node8 -->
<g id="edge7" class="edge"><title>Node1&#45;&gt;Node8</title>
<path fill="none" stroke="midnightblue" d="M98.1302,-381.851C164.486,-388.54 284.38,-400.625 359.619,-408.208"/>
<polygon fill="midnightblue" stroke="midnightblue" points="359.628,-411.727 369.929,-409.247 360.33,-404.762 359.628,-411.727"/>
</g>
<!-- Node9 -->
<g id="node9" class="node"><title>Node9</title>
<g id="a_node9"><a xlink:href="../../d8/df7/classview_1_1_turtle_view.html#a166c0ff50e234c0a2725aa1cbc38c933" target="_top" xlink:title="view.TurtleView.setAbsolute\lHeading">
<polygon fill="white" stroke="black" points="150,-223 150,-253 296,-253 296,-223 150,-223"/>
<text text-anchor="start" x="158" y="-241" font-family="Helvetica,sans-Serif" font-size="10.00">view.TurtleView.setAbsolute</text>
<text text-anchor="middle" x="223" y="-230" font-family="Helvetica,sans-Serif" font-size="10.00">Heading</text>
</a>
</g>
</g>
<!-- Node1&#45;&gt;Node9 -->
<g id="edge8" class="edge"><title>Node1&#45;&gt;Node9</title>
<path fill="none" stroke="midnightblue" d="M54.3427,-367.374C64.7681,-345.376 93.3928,-291.157 134,-263 136.894,-260.993 139.946,-259.147 143.109,-257.448"/>
<polygon fill="midnightblue" stroke="midnightblue" points="144.777,-260.529 152.27,-253.039 141.741,-254.222 144.777,-260.529"/>
</g>
<!-- Node11 -->
<g id="node11" class="node"><title>Node11</title>
<g id="a_node11"><a xlink:href="../../d8/df7/classview_1_1_turtle_view.html#a199407b3121d1bc310d7f75cdab2da94" target="_top" xlink:title="view.TurtleView.setRelative\lHeading">
<polygon fill="white" stroke="black" points="153,-174 153,-204 293,-204 293,-174 153,-174"/>
<text text-anchor="start" x="161" y="-192" font-family="Helvetica,sans-Serif" font-size="10.00">view.TurtleView.setRelative</text>
<text text-anchor="middle" x="223" y="-181" font-family="Helvetica,sans-Serif" font-size="10.00">Heading</text>
</a>
</g>
</g>
<!-- Node1&#45;&gt;Node11 -->
<g id="edge10" class="edge"><title>Node1&#45;&gt;Node11</title>
<path fill="none" stroke="midnightblue" d="M52.1096,-367.118C58.7311,-338.573 81.842,-255.338 134,-213 137.093,-210.489 140.428,-208.24 143.927,-206.226"/>
<polygon fill="midnightblue" stroke="midnightblue" points="145.571,-209.317 152.92,-201.686 142.416,-203.068 145.571,-209.317"/>
</g>
<!-- Node12 -->
<g id="node12" class="node"><title>Node12</title>
<g id="a_node12"><a xlink:href="../../d1/dc7/classview_1_1_side_bar.html#a7d73038dbba05f96990b60664afa2670" target="_top" xlink:title="view.SideBar.updateTurtle\lProperties">
<polygon fill="white" stroke="black" points="154,-109 154,-139 292,-139 292,-109 154,-109"/>
<text text-anchor="start" x="162" y="-127" font-family="Helvetica,sans-Serif" font-size="10.00">view.SideBar.updateTurtle</text>
<text text-anchor="middle" x="223" y="-116" font-family="Helvetica,sans-Serif" font-size="10.00">Properties</text>
</a>
</g>
</g>
<!-- Node1&#45;&gt;Node12 -->
<g id="edge12" class="edge"><title>Node1&#45;&gt;Node12</title>
<path fill="none" stroke="midnightblue" d="M51.2434,-367.127C55.8941,-334.081 75.1277,-225.953 134,-164 141.958,-155.626 151.998,-148.863 162.427,-143.451"/>
<polygon fill="midnightblue" stroke="midnightblue" points="164.14,-146.511 171.648,-139.035 161.117,-140.197 164.14,-146.511"/>
</g>
<!-- Node19 -->
<g id="node19" class="node"><title>Node19</title>
<g id="a_node19"><a xlink:href="../../de/d0a/classview_1_1_drawer.html#a24eafc164d9d0ab08036dc5cf7d72dd4" target="_top" xlink:title="view.Drawer.wrapX">
<polygon fill="white" stroke="black" points="171,-462.5 171,-481.5 275,-481.5 275,-462.5 171,-462.5"/>
<text text-anchor="middle" x="223" y="-469.5" font-family="Helvetica,sans-Serif" font-size="10.00">view.Drawer.wrapX</text>
</a>
</g>
</g>
<!-- Node1&#45;&gt;Node19 -->
<g id="edge19" class="edge"><title>Node1&#45;&gt;Node19</title>
<path fill="none" stroke="midnightblue" d="M57.6686,-386.666C71.2223,-403.046 101.104,-436.122 134,-453 142.272,-457.244 151.451,-460.542 160.669,-463.104"/>
<polygon fill="midnightblue" stroke="midnightblue" points="160.095,-466.568 170.646,-465.605 161.797,-459.778 160.095,-466.568"/>
</g>
<!-- Node21 -->
<g id="node21" class="node"><title>Node21</title>
<g id="a_node21"><a xlink:href="../../de/d0a/classview_1_1_drawer.html#ad1636376006d26ed1ca9784e13f96a2a" target="_top" xlink:title="view.Drawer.wrapY">
<polygon fill="white" stroke="black" points="171.5,-424.5 171.5,-443.5 274.5,-443.5 274.5,-424.5 171.5,-424.5"/>
<text text-anchor="middle" x="223" y="-431.5" font-family="Helvetica,sans-Serif" font-size="10.00">view.Drawer.wrapY</text>
</a>
</g>
</g>
<!-- Node1&#45;&gt;Node21 -->
<g id="edge23" class="edge"><title>Node1&#45;&gt;Node21</title>
<path fill="none" stroke="midnightblue" d="M72.5738,-386.636C89.3472,-393.608 112.882,-402.995 134,-410 146.816,-414.251 160.857,-418.333 173.885,-421.886"/>
<polygon fill="midnightblue" stroke="midnightblue" points="173.048,-425.286 183.613,-424.495 174.861,-418.524 173.048,-425.286"/>
</g>
<!-- Node10 -->
<g id="node10" class="node"><title>Node10</title>
<g id="a_node10"><a xlink:href="../../d8/df7/classview_1_1_turtle_view.html#aea0727a510b53db67aa4100a6106eb5b" target="_top" xlink:title="view.TurtleView.adjustAngle">
<polygon fill="white" stroke="black" points="355.5,-228.5 355.5,-247.5 500.5,-247.5 500.5,-228.5 355.5,-228.5"/>
<text text-anchor="middle" x="428" y="-235.5" font-family="Helvetica,sans-Serif" font-size="10.00">view.TurtleView.adjustAngle</text>
</a>
</g>
</g>
<!-- Node9&#45;&gt;Node10 -->
<g id="edge9" class="edge"><title>Node9&#45;&gt;Node10</title>
<path fill="none" stroke="midnightblue" d="M296.142,-238C312.091,-238 329.098,-238 345.394,-238"/>
<polygon fill="midnightblue" stroke="midnightblue" points="345.432,-241.5 355.432,-238 345.432,-234.5 345.432,-241.5"/>
</g>
<!-- Node11&#45;&gt;Node10 -->
<g id="edge11" class="edge"><title>Node11&#45;&gt;Node10</title>
<path fill="none" stroke="midnightblue" d="M286.124,-204.048C305.901,-208.833 327.868,-214.144 348,-219 357.465,-221.283 367.569,-223.716 377.28,-226.053"/>
<polygon fill="midnightblue" stroke="midnightblue" points="376.672,-229.506 387.213,-228.442 378.309,-222.701 376.672,-229.506"/>
</g>
<!-- Node13 -->
<g id="node13" class="node"><title>Node13</title>
<g id="a_node13"><a xlink:href="../../da/d64/classview_1_1_workspace.html#ad460da1164f039e5ea9a265d446d13fe" target="_top" xlink:title="view.Workspace.getTurtleMap">
<polygon fill="white" stroke="black" points="350.5,-190.5 350.5,-209.5 505.5,-209.5 505.5,-190.5 350.5,-190.5"/>
<text text-anchor="middle" x="428" y="-197.5" font-family="Helvetica,sans-Serif" font-size="10.00">view.Workspace.getTurtleMap</text>
</a>
</g>
</g>
<!-- Node12&#45;&gt;Node13 -->
<g id="edge13" class="edge"><title>Node12&#45;&gt;Node13</title>
<path fill="none" stroke="midnightblue" d="M257.482,-139.081C273.932,-146.526 294.032,-155.675 312,-164 328.055,-171.439 331.31,-175.123 348,-181 355.124,-183.509 362.723,-185.799 370.287,-187.853"/>
<polygon fill="midnightblue" stroke="midnightblue" points="369.61,-191.293 380.169,-190.415 371.367,-184.517 369.61,-191.293"/>
</g>
<!-- Node14 -->
<g id="node14" class="node"><title>Node14</title>
<g id="a_node14"><a xlink:href="../../d8/df7/classview_1_1_turtle_view.html#ab5fdc3775e06339f4a68d1b795a81643" target="_top" xlink:title="view.TurtleView.getID">
<polygon fill="white" stroke="black" points="371,-152.5 371,-171.5 485,-171.5 485,-152.5 371,-152.5"/>
<text text-anchor="middle" x="428" y="-159.5" font-family="Helvetica,sans-Serif" font-size="10.00">view.TurtleView.getID</text>
</a>
</g>
</g>
<!-- Node12&#45;&gt;Node14 -->
<g id="edge14" class="edge"><title>Node12&#45;&gt;Node14</title>
<path fill="none" stroke="midnightblue" d="M292.161,-136.759C316.041,-141.229 342.69,-146.218 365.951,-150.572"/>
<polygon fill="midnightblue" stroke="midnightblue" points="365.561,-154.06 376.035,-152.46 366.849,-147.179 365.561,-154.06"/>
</g>
<!-- Node15 -->
<g id="node15" class="node"><title>Node15</title>
<g id="a_node15"><a xlink:href="../../d8/df7/classview_1_1_turtle_view.html#afddbc74313a99bb100c8c50efa88f330" target="_top" xlink:title="view.TurtleView.getYCoord">
<polygon fill="white" stroke="black" points="359.5,-114.5 359.5,-133.5 496.5,-133.5 496.5,-114.5 359.5,-114.5"/>
<text text-anchor="middle" x="428" y="-121.5" font-family="Helvetica,sans-Serif" font-size="10.00">view.TurtleView.getYCoord</text>
</a>
</g>
</g>
<!-- Node12&#45;&gt;Node15 -->
<g id="edge15" class="edge"><title>Node12&#45;&gt;Node15</title>
<path fill="none" stroke="midnightblue" d="M292.161,-124C310.516,-124 330.508,-124 349.34,-124"/>
<polygon fill="midnightblue" stroke="midnightblue" points="349.364,-127.5 359.364,-124 349.364,-120.5 349.364,-127.5"/>
</g>
<!-- Node16 -->
<g id="node16" class="node"><title>Node16</title>
<g id="a_node16"><a xlink:href="../../d8/df7/classview_1_1_turtle_view.html#a5da3d4c9dafb77af0db0c589a72eadc8" target="_top" xlink:title="view.TurtleView.getHeading">
<polygon fill="white" stroke="black" points="356,-76.5 356,-95.5 500,-95.5 500,-76.5 356,-76.5"/>
<text text-anchor="middle" x="428" y="-83.5" font-family="Helvetica,sans-Serif" font-size="10.00">view.TurtleView.getHeading</text>
</a>
</g>
</g>
<!-- Node12&#45;&gt;Node16 -->
<g id="edge16" class="edge"><title>Node12&#45;&gt;Node16</title>
<path fill="none" stroke="midnightblue" d="M292.161,-111.241C316.041,-106.771 342.69,-101.782 365.951,-97.428"/>
<polygon fill="midnightblue" stroke="midnightblue" points="366.849,-100.821 376.035,-95.5403 365.561,-93.9401 366.849,-100.821"/>
</g>
<!-- Node17 -->
<g id="node17" class="node"><title>Node17</title>
<g id="a_node17"><a xlink:href="../../d8/df7/classview_1_1_turtle_view.html#a85b9acc922cc69f27c79bf13e3356e09" target="_top" xlink:title="view.TurtleView.getPenPosition">
<polygon fill="white" stroke="black" points="348,-38.5 348,-57.5 508,-57.5 508,-38.5 348,-38.5"/>
<text text-anchor="middle" x="428" y="-45.5" font-family="Helvetica,sans-Serif" font-size="10.00">view.TurtleView.getPenPosition</text>
</a>
</g>
</g>
<!-- Node12&#45;&gt;Node17 -->
<g id="edge17" class="edge"><title>Node12&#45;&gt;Node17</title>
<path fill="none" stroke="midnightblue" d="M252.9,-108.758C277.618,-96.2024 314.418,-78.6323 348,-67 355.31,-64.4678 363.114,-62.1486 370.865,-60.0673"/>
<polygon fill="midnightblue" stroke="midnightblue" points="371.799,-63.4409 380.612,-57.56 370.055,-56.6615 371.799,-63.4409"/>
</g>
<!-- Node18 -->
<g id="node18" class="node"><title>Node18</title>
<g id="a_node18"><a xlink:href="../../d8/df7/classview_1_1_turtle_view.html#a5f7b22cd8ab69258535b18920a488b63" target="_top" xlink:title="view.TurtleView.isShowing">
<polygon fill="white" stroke="black" points="360,-0.5 360,-19.5 496,-19.5 496,-0.5 360,-0.5"/>
<text text-anchor="middle" x="428" y="-7.5" font-family="Helvetica,sans-Serif" font-size="10.00">view.TurtleView.isShowing</text>
</a>
</g>
</g>
<!-- Node12&#45;&gt;Node18 -->
<g id="edge18" class="edge"><title>Node12&#45;&gt;Node18</title>
<path fill="none" stroke="midnightblue" d="M239.384,-108.702C261.498,-87.588 304.426,-49.7743 348,-29 353.014,-26.6097 358.354,-24.5051 363.802,-22.6551"/>
<polygon fill="midnightblue" stroke="midnightblue" points="365.162,-25.8978 373.677,-19.593 363.089,-19.2118 365.162,-25.8978"/>
</g>
<!-- Node19&#45;&gt;Node4 -->
<g id="edge21" class="edge"><title>Node19&#45;&gt;Node4</title>
<path fill="none" stroke="midnightblue" d="M275.225,-476.795C297.73,-478.901 324.646,-481.42 349.52,-483.748"/>
<polygon fill="midnightblue" stroke="midnightblue" points="349.386,-487.251 359.668,-484.698 350.038,-480.281 349.386,-487.251"/>
</g>
<!-- Node19&#45;&gt;Node8 -->
<g id="edge20" class="edge"><title>Node19&#45;&gt;Node8</title>
<path fill="none" stroke="midnightblue" d="M275.392,-463.369C287.575,-460.65 300.397,-457.224 312,-453 329,-446.811 331.073,-440.387 348,-434 354.714,-431.466 361.88,-429.189 369.053,-427.167"/>
<polygon fill="midnightblue" stroke="midnightblue" points="370.036,-430.527 378.796,-424.567 368.231,-423.764 370.036,-430.527"/>
</g>
<!-- Node20 -->
<g id="node20" class="node"><title>Node20</title>
<g id="a_node20"><a xlink:href="../../de/d0a/classview_1_1_drawer.html#a1489f58b0b2c2012d23d546013a47972" target="_top" xlink:title="view.Drawer.drawLine">
<polygon fill="white" stroke="black" points="369.5,-443.5 369.5,-462.5 486.5,-462.5 486.5,-443.5 369.5,-443.5"/>
<text text-anchor="middle" x="428" y="-450.5" font-family="Helvetica,sans-Serif" font-size="10.00">view.Drawer.drawLine</text>
</a>
</g>
</g>
<!-- Node19&#45;&gt;Node20 -->
<g id="edge22" class="edge"><title>Node19&#45;&gt;Node20</title>
<path fill="none" stroke="midnightblue" d="M275.225,-467.205C300.638,-464.827 331.676,-461.922 359.046,-459.36"/>
<polygon fill="midnightblue" stroke="midnightblue" points="359.707,-462.814 369.337,-458.397 359.055,-455.844 359.707,-462.814"/>
</g>
<!-- Node21&#45;&gt;Node4 -->
<g id="edge25" class="edge"><title>Node21&#45;&gt;Node4</title>
<path fill="none" stroke="midnightblue" d="M274.929,-442.528C287.251,-445.263 300.251,-448.723 312,-453 329,-459.189 331.073,-465.613 348,-472 354.714,-474.534 361.88,-476.811 369.053,-478.833"/>
<polygon fill="midnightblue" stroke="midnightblue" points="368.231,-482.236 378.796,-481.433 370.036,-475.473 368.231,-482.236"/>
</g>
<!-- Node21&#45;&gt;Node8 -->
<g id="edge24" class="edge"><title>Node21&#45;&gt;Node8</title>
<path fill="none" stroke="midnightblue" d="M274.702,-429.255C300.431,-426.846 332.028,-423.889 359.76,-421.293"/>
<polygon fill="midnightblue" stroke="midnightblue" points="360.154,-424.772 369.784,-420.355 359.501,-417.802 360.154,-424.772"/>
</g>
<!-- Node21&#45;&gt;Node20 -->
<g id="edge26" class="edge"><title>Node21&#45;&gt;Node20</title>
<path fill="none" stroke="midnightblue" d="M274.702,-438.745C300.327,-441.144 331.772,-444.087 359.422,-446.675"/>
<polygon fill="midnightblue" stroke="midnightblue" points="359.136,-450.163 369.419,-447.611 359.789,-443.194 359.136,-450.163"/>
</g>
</g>
</svg>
