<?xml version="1.0" encoding="UTF-8" standalone="no"?>
<!DOCTYPE svg PUBLIC "-//W3C//DTD SVG 1.1//EN"
 "http://www.w3.org/Graphics/SVG/1.1/DTD/svg11.dtd">
<!-- Generated by graphviz version 2.36.0 (20140111.2315)
 -->
<!-- Title: view.Drawer.setStroke Pages: 1 -->
<svg width="490pt" height="38pt"
 viewBox="0.00 0.00 490.00 38.00" xmlns="http://www.w3.org/2000/svg" xmlns:xlink="http://www.w3.org/1999/xlink">
<g id="graph0" class="graph" transform="scale(1 1) rotate(0) translate(4 34)">
<title>view.Drawer.setStroke</title>
<polygon fill="white" stroke="none" points="-4,4 -4,-34 486,-34 486,4 -4,4"/>
<!-- Node1 -->
<g id="node1" class="node"><title>Node1</title>
<polygon fill="#bfbfbf" stroke="black" points="0,-5.5 0,-24.5 122,-24.5 122,-5.5 0,-5.5"/>
<text text-anchor="middle" x="61" y="-12.5" font-family="Helvetica,sans-Serif" font-size="10.00">view.Drawer.setStroke</text>
</g>
<!-- Node2 -->
<g id="node2" class="node"><title>Node2</title>
<g id="a_node2"><a xlink:href="../../d4/d64/classview_1_1_view_updater.html#afeceb6a4ebb5e3d12c51f027f8c5eabb" target="_top" xlink:title="view.ViewUpdater.setPenSize">
<polygon fill="white" stroke="black" points="158.5,-5.5 158.5,-24.5 313.5,-24.5 313.5,-5.5 158.5,-5.5"/>
<text text-anchor="middle" x="236" y="-12.5" font-family="Helvetica,sans-Serif" font-size="10.00">view.ViewUpdater.setPenSize</text>
</a>
</g>
</g>
<!-- Node1&#45;&gt;Node2 -->
<g id="edge1" class="edge"><title>Node1&#45;&gt;Node2</title>
<path fill="none" stroke="midnightblue" d="M132.051,-15C140.702,-15 149.581,-15 158.325,-15"/>
<polygon fill="midnightblue" stroke="midnightblue" points="132.022,-11.5001 122.021,-15 132.021,-18.5001 132.022,-11.5001"/>
</g>
<!-- Node3 -->
<g id="node3" class="node"><title>Node3</title>
<g id="a_node3"><a xlink:href="../../d2/d2b/classmodel_1_1instructions_1_1_front_end_instruction.html#ad73f35e44bf151648463df17e10152ac" target="_top" xlink:title="model.instructions.Front\lEndInstruction.execute">
<polygon fill="white" stroke="black" points="350,-0 350,-30 482,-30 482,-0 350,-0"/>
<text text-anchor="start" x="358" y="-18" font-family="Helvetica,sans-Serif" font-size="10.00">model.instructions.Front</text>
<text text-anchor="middle" x="416" y="-7" font-family="Helvetica,sans-Serif" font-size="10.00">EndInstruction.execute</text>
</a>
</g>
</g>
<!-- Node2&#45;&gt;Node3 -->
<g id="edge2" class="edge"><title>Node2&#45;&gt;Node3</title>
<path fill="none" stroke="midnightblue" d="M323.751,-15C332.495,-15 341.267,-15 349.73,-15"/>
<polygon fill="midnightblue" stroke="midnightblue" points="323.521,-11.5001 313.521,-15 323.521,-18.5001 323.521,-11.5001"/>
</g>
</g>
</svg>
