<?xml version="1.0" encoding="UTF-8" standalone="no"?>
<!DOCTYPE svg PUBLIC "-//W3C//DTD SVG 1.1//EN"
 "http://www.w3.org/Graphics/SVG/1.1/DTD/svg11.dtd">
<!-- Generated by graphviz version 2.36.0 (20140111.2315)
 -->
<!-- Title: view.Drawer.wrapY Pages: 1 -->
<svg width="284pt" height="104pt"
 viewBox="0.00 0.00 284.00 104.00" xmlns="http://www.w3.org/2000/svg" xmlns:xlink="http://www.w3.org/1999/xlink">
<g id="graph0" class="graph" transform="scale(1 1) rotate(0) translate(4 100)">
<title>view.Drawer.wrapY</title>
<polygon fill="white" stroke="none" points="-4,4 -4,-100 280,-100 280,4 -4,4"/>
<!-- Node1 -->
<g id="node1" class="node"><title>Node1</title>
<polygon fill="#bfbfbf" stroke="black" points="0.5,-38.5 0.5,-57.5 103.5,-57.5 103.5,-38.5 0.5,-38.5"/>
<text text-anchor="middle" x="52" y="-45.5" font-family="Helvetica,sans-Serif" font-size="10.00">view.Drawer.wrapY</text>
</g>
<!-- Node2 -->
<g id="node2" class="node"><title>Node2</title>
<g id="a_node2"><a xlink:href="../../de/d0a/classview_1_1_drawer.html#a1489f58b0b2c2012d23d546013a47972" target="_top" xlink:title="view.Drawer.drawLine">
<polygon fill="white" stroke="black" points="149.5,-76.5 149.5,-95.5 266.5,-95.5 266.5,-76.5 149.5,-76.5"/>
<text text-anchor="middle" x="208" y="-83.5" font-family="Helvetica,sans-Serif" font-size="10.00">view.Drawer.drawLine</text>
</a>
</g>
</g>
<!-- Node1&#45;&gt;Node2 -->
<g id="edge1" class="edge"><title>Node1&#45;&gt;Node2</title>
<path fill="none" stroke="midnightblue" d="M91.8607,-57.589C112.091,-62.5809 137.021,-68.7324 158.504,-74.0334"/>
<polygon fill="midnightblue" stroke="midnightblue" points="157.871,-77.4823 168.419,-76.4799 159.548,-70.6861 157.871,-77.4823"/>
</g>
<!-- Node3 -->
<g id="node3" class="node"><title>Node3</title>
<g id="a_node3"><a xlink:href="../../d8/df7/classview_1_1_turtle_view.html#a68c8a2962e23e5794fcfbe7ef1968fad" target="_top" xlink:title="view.TurtleView.getPenUp">
<polygon fill="white" stroke="black" points="140,-38.5 140,-57.5 276,-57.5 276,-38.5 140,-38.5"/>
<text text-anchor="middle" x="208" y="-45.5" font-family="Helvetica,sans-Serif" font-size="10.00">view.TurtleView.getPenUp</text>
</a>
</g>
</g>
<!-- Node1&#45;&gt;Node3 -->
<g id="edge2" class="edge"><title>Node1&#45;&gt;Node3</title>
<path fill="none" stroke="midnightblue" d="M103.852,-48C112.164,-48 120.938,-48 129.716,-48"/>
<polygon fill="midnightblue" stroke="midnightblue" points="129.996,-51.5001 139.996,-48 129.996,-44.5001 129.996,-51.5001"/>
</g>
<!-- Node4 -->
<g id="node4" class="node"><title>Node4</title>
<g id="a_node4"><a xlink:href="../../d8/df7/classview_1_1_turtle_view.html#a5e7cf3c4f078acae07bcbeee264a5581" target="_top" xlink:title="view.TurtleView.move">
<polygon fill="white" stroke="black" points="150,-0.5 150,-19.5 266,-19.5 266,-0.5 150,-0.5"/>
<text text-anchor="middle" x="208" y="-7.5" font-family="Helvetica,sans-Serif" font-size="10.00">view.TurtleView.move</text>
</a>
</g>
</g>
<!-- Node1&#45;&gt;Node4 -->
<g id="edge3" class="edge"><title>Node1&#45;&gt;Node4</title>
<path fill="none" stroke="midnightblue" d="M91.8607,-38.411C112.091,-33.4191 137.021,-27.2676 158.504,-21.9666"/>
<polygon fill="midnightblue" stroke="midnightblue" points="159.548,-25.3139 168.419,-19.5201 157.871,-18.5177 159.548,-25.3139"/>
</g>
</g>
</svg>
