<?xml version="1.0" encoding="UTF-8" standalone="no"?>
<!DOCTYPE svg PUBLIC "-//W3C//DTD SVG 1.1//EN"
 "http://www.w3.org/Graphics/SVG/1.1/DTD/svg11.dtd">
<!-- Generated by graphviz version 2.36.0 (20140111.2315)
 -->
<!-- Title: view.Drawer.Drawer Pages: 1 -->
<svg width="314pt" height="66pt"
 viewBox="0.00 0.00 314.00 66.00" xmlns="http://www.w3.org/2000/svg" xmlns:xlink="http://www.w3.org/1999/xlink">
<g id="graph0" class="graph" transform="scale(1 1) rotate(0) translate(4 62)">
<title>view.Drawer.Drawer</title>
<polygon fill="white" stroke="none" points="-4,4 -4,-62 310,-62 310,4 -4,4"/>
<!-- Node1 -->
<g id="node1" class="node"><title>Node1</title>
<polygon fill="#bfbfbf" stroke="black" points="0.5,-19.5 0.5,-38.5 109.5,-38.5 109.5,-19.5 0.5,-19.5"/>
<text text-anchor="middle" x="55" y="-26.5" font-family="Helvetica,sans-Serif" font-size="10.00">view.Drawer.Drawer</text>
</g>
<!-- Node2 -->
<g id="node2" class="node"><title>Node2</title>
<g id="a_node2"><a xlink:href="../../da/d64/classview_1_1_workspace.html#aafa1f230c037c8ce7686fc2bcfca50f6" target="_top" xlink:title="view.Workspace.getGridHeight">
<polygon fill="white" stroke="black" points="146,-38.5 146,-57.5 306,-57.5 306,-38.5 146,-38.5"/>
<text text-anchor="middle" x="226" y="-45.5" font-family="Helvetica,sans-Serif" font-size="10.00">view.Workspace.getGridHeight</text>
</a>
</g>
</g>
<!-- Node1&#45;&gt;Node2 -->
<g id="edge1" class="edge"><title>Node1&#45;&gt;Node2</title>
<path fill="none" stroke="midnightblue" d="M109.937,-35.064C118.219,-35.9951 126.954,-36.9771 135.757,-37.9668"/>
<polygon fill="midnightblue" stroke="midnightblue" points="135.377,-41.446 145.705,-39.0852 136.159,-34.4898 135.377,-41.446"/>
</g>
<!-- Node3 -->
<g id="node3" class="node"><title>Node3</title>
<g id="a_node3"><a xlink:href="../../da/d64/classview_1_1_workspace.html#a803a12ee4aa6dfb05f7e6e141dadc5e9" target="_top" xlink:title="view.Workspace.getGridWidth">
<polygon fill="white" stroke="black" points="148.5,-0.5 148.5,-19.5 303.5,-19.5 303.5,-0.5 148.5,-0.5"/>
<text text-anchor="middle" x="226" y="-7.5" font-family="Helvetica,sans-Serif" font-size="10.00">view.Workspace.getGridWidth</text>
</a>
</g>
</g>
<!-- Node1&#45;&gt;Node3 -->
<g id="edge2" class="edge"><title>Node1&#45;&gt;Node3</title>
<path fill="none" stroke="midnightblue" d="M109.937,-22.936C119.043,-21.9124 128.695,-20.8272 138.385,-19.7378"/>
<polygon fill="midnightblue" stroke="midnightblue" points="138.928,-23.1989 148.474,-18.6035 138.146,-16.2427 138.928,-23.1989"/>
</g>
</g>
</svg>
