<?xml version="1.0" encoding="UTF-8" standalone="no"?>
<!DOCTYPE svg PUBLIC "-//W3C//DTD SVG 1.1//EN"
 "http://www.w3.org/Graphics/SVG/1.1/DTD/svg11.dtd">
<!-- Generated by graphviz version 2.36.0 (20140111.2315)
 -->
<!-- Title: model.instructions.Variable Pages: 1 -->
<svg width="1756pt" height="859pt"
 viewBox="0.00 0.00 1756.00 859.20" xmlns="http://www.w3.org/2000/svg" xmlns:xlink="http://www.w3.org/1999/xlink">
<g id="graph0" class="graph" transform="scale(1 1) rotate(0) translate(4 855.201)">
<title>model.instructions.Variable</title>
<polygon fill="white" stroke="none" points="-4,4 -4,-855.201 1752,-855.201 1752,4 -4,4"/>
<!-- Node1 -->
<g id="node1" class="node"><title>Node1</title>
<polygon fill="#bfbfbf" stroke="black" points="966,-707.701 966,-726.701 1112,-726.701 1112,-707.701 966,-707.701"/>
<text text-anchor="middle" x="1039" y="-714.701" font-family="Helvetica,sans-Serif" font-size="10.00">model.instructions.Variable</text>
</g>
<!-- Node2 -->
<g id="node2" class="node"><title>Node2</title>
<g id="a_node2"><a xlink:href="../../d1/dea/classmodel_1_1instructions_1_1_instruction.html" target="_top" xlink:title="model.instructions.Instruction">
<polygon fill="white" stroke="black" points="646,-707.701 646,-726.701 804,-726.701 804,-707.701 646,-707.701"/>
<text text-anchor="middle" x="725" y="-714.701" font-family="Helvetica,sans-Serif" font-size="10.00">model.instructions.Instruction</text>
</a>
</g>
</g>
<!-- Node2&#45;&gt;Node1 -->
<g id="edge1" class="edge"><title>Node2&#45;&gt;Node1</title>
<path fill="none" stroke="midnightblue" d="M814.376,-717.201C862.255,-717.201 920.673,-717.201 965.792,-717.201"/>
<polygon fill="midnightblue" stroke="midnightblue" points="814.328,-713.701 804.328,-717.201 814.328,-720.701 814.328,-713.701"/>
</g>
<!-- Node3 -->
<g id="node3" class="node"><title>Node3</title>
<polygon fill="white" stroke="#bfbfbf" points="57,-491.701 57,-510.701 117,-510.701 117,-491.701 57,-491.701"/>
<text text-anchor="middle" x="87" y="-498.701" font-family="Helvetica,sans-Serif" font-size="10.00">Observer</text>
</g>
<!-- Node3&#45;&gt;Node2 -->
<g id="edge2" class="edge"><title>Node3&#45;&gt;Node2</title>
<path fill="none" stroke="midnightblue" d="M112.161,-516.069C153.662,-541.032 241.78,-591.542 322,-621.201 440.114,-664.87 585.213,-693.782 664.787,-707.647"/>
<polygon fill="midnightblue" stroke="midnightblue" points="113.935,-513.052 103.569,-510.864 110.308,-519.039 113.935,-513.052"/>
</g>
<!-- Node9 -->
<g id="node9" class="node"><title>Node9</title>
<g id="a_node9"><a xlink:href="../../d4/d64/classview_1_1_view_updater.html" target="_top" xlink:title="view.ViewUpdater">
<polygon fill="white" stroke="black" points="351,-443.701 351,-462.701 451,-462.701 451,-443.701 351,-443.701"/>
<text text-anchor="middle" x="401" y="-450.701" font-family="Helvetica,sans-Serif" font-size="10.00">view.ViewUpdater</text>
</a>
</g>
</g>
<!-- Node3&#45;&gt;Node9 -->
<g id="edge9" class="edge"><title>Node3&#45;&gt;Node9</title>
<path fill="none" stroke="midnightblue" d="M127.079,-495.189C183.8,-486.463 288.905,-470.293 350.82,-460.767"/>
<polygon fill="midnightblue" stroke="midnightblue" points="126.424,-491.748 117.072,-496.728 127.488,-498.667 126.424,-491.748"/>
</g>
<!-- Node21 -->
<g id="node21" class="node"><title>Node21</title>
<g id="a_node21"><a xlink:href="../../dc/df5/classmodel_1_1_parser.html" target="_top" xlink:title="model.Parser">
<polygon fill="white" stroke="black" points="685,-581.701 685,-600.701 765,-600.701 765,-581.701 685,-581.701"/>
<text text-anchor="middle" x="725" y="-588.701" font-family="Helvetica,sans-Serif" font-size="10.00">model.Parser</text>
</a>
</g>
</g>
<!-- Node3&#45;&gt;Node21 -->
<g id="edge25" class="edge"><title>Node3&#45;&gt;Node21</title>
<path fill="none" stroke="midnightblue" d="M127.209,-499.452C234.48,-495.196 530.729,-487.132 620,-523.201 629.924,-527.211 629.384,-532.85 638,-539.201 660.33,-555.662 688.097,-571.735 705.934,-581.552"/>
<polygon fill="midnightblue" stroke="midnightblue" points="126.985,-495.958 117.136,-499.863 127.271,-502.952 126.985,-495.958"/>
</g>
<!-- Node4 -->
<g id="node4" class="node"><title>Node4</title>
<g id="a_node4"><a xlink:href="../../d1/dca/classmodel_1_1_execution_environment.html" target="_top" xlink:title="model.ExecutionEnvironment">
<polygon fill="white" stroke="black" points="322.5,-727.701 322.5,-746.701 479.5,-746.701 479.5,-727.701 322.5,-727.701"/>
<text text-anchor="middle" x="401" y="-734.701" font-family="Helvetica,sans-Serif" font-size="10.00">model.ExecutionEnvironment</text>
</a>
</g>
</g>
<!-- Node4&#45;&gt;Node2 -->
<g id="edge3" class="edge"><title>Node4&#45;&gt;Node2</title>
<path fill="none" stroke="#9a32cd" stroke-dasharray="5,2" d="M489.727,-730.749C492.516,-730.562 495.28,-730.378 498,-730.201 547.12,-726.998 602.274,-723.817 645.799,-721.404"/>
<polygon fill="#9a32cd" stroke="#9a32cd" points="489.276,-727.272 479.538,-731.445 489.753,-734.255 489.276,-727.272"/>
<text text-anchor="middle" x="559" y="-733.201" font-family="Helvetica,sans-Serif" font-size="10.00"> myEnvironment</text>
</g>
<!-- Node17 -->
<g id="node17" class="node"><title>Node17</title>
<g id="a_node17"><a xlink:href="../../d1/dc7/classview_1_1_side_bar.html" target="_top" xlink:title="view.SideBar">
<polygon fill="white" stroke="black" points="1000.5,-432.701 1000.5,-451.701 1077.5,-451.701 1077.5,-432.701 1000.5,-432.701"/>
<text text-anchor="middle" x="1039" y="-439.701" font-family="Helvetica,sans-Serif" font-size="10.00">view.SideBar</text>
</a>
</g>
</g>
<!-- Node4&#45;&gt;Node17 -->
<g id="edge22" class="edge"><title>Node4&#45;&gt;Node17</title>
<path fill="none" stroke="#9a32cd" stroke-dasharray="5,2" d="M454.995,-725.432C585.515,-695.982 914.348,-618.778 948,-581.201 979.879,-545.604 936.905,-513.108 966,-475.201 974.539,-464.075 987.704,-456.576 1000.45,-451.58"/>
<polygon fill="#9a32cd" stroke="#9a32cd" points="454.195,-722.025 445.207,-727.635 455.732,-728.854 454.195,-722.025"/>
<text text-anchor="middle" x="725" y="-685.201" font-family="Helvetica,sans-Serif" font-size="10.00"> myEnvironment</text>
</g>
<!-- Node4&#45;&gt;Node21 -->
<g id="edge27" class="edge"><title>Node4&#45;&gt;Node21</title>
<path fill="none" stroke="#9a32cd" stroke-dasharray="5,2" d="M413.897,-719.138C430.049,-696.178 461.167,-657.135 498,-637.201 546.526,-610.938 565.944,-625.271 620,-614.201 641.377,-609.823 665.143,-604.595 684.554,-600.23"/>
<polygon fill="#9a32cd" stroke="#9a32cd" points="410.852,-717.39 408.097,-727.62 416.63,-721.341 410.852,-717.39"/>
<text text-anchor="middle" x="559" y="-640.201" font-family="Helvetica,sans-Serif" font-size="10.00"> myExecutionParameters</text>
</g>
<!-- Node24 -->
<g id="node24" class="node"><title>Node24</title>
<g id="a_node24"><a xlink:href="../../d6/de7/classview_1_1_s_logo_view.html" target="_top" xlink:title="view.SLogoView">
<polygon fill="white" stroke="black" points="1656.5,-257.701 1656.5,-276.701 1747.5,-276.701 1747.5,-257.701 1656.5,-257.701"/>
<text text-anchor="middle" x="1702" y="-264.701" font-family="Helvetica,sans-Serif" font-size="10.00">view.SLogoView</text>
</a>
</g>
</g>
<!-- Node4&#45;&gt;Node24 -->
<g id="edge41" class="edge"><title>Node4&#45;&gt;Node24</title>
<path fill="none" stroke="#9a32cd" stroke-dasharray="5,2" d="M489.843,-744.765C554.537,-749.688 644.678,-755.201 724,-755.201 724,-755.201 724,-755.201 1485,-755.201 1561.13,-755.201 1593.25,-739.788 1638,-678.201 1686.8,-611.04 1698.76,-332.804 1700.69,-276.98"/>
<polygon fill="#9a32cd" stroke="#9a32cd" points="489.924,-741.261 479.684,-743.98 489.385,-748.24 489.924,-741.261"/>
<text text-anchor="middle" x="1170" y="-758.201" font-family="Helvetica,sans-Serif" font-size="10.00"> myEnvironment</text>
</g>
<!-- Node5 -->
<g id="node5" class="node"><title>Node5</title>
<polygon fill="white" stroke="#bfbfbf" points="51.5,-697.701 51.5,-716.701 122.5,-716.701 122.5,-697.701 51.5,-697.701"/>
<text text-anchor="middle" x="87" y="-704.701" font-family="Helvetica,sans-Serif" font-size="10.00">Observable</text>
</g>
<!-- Node5&#45;&gt;Node4 -->
<g id="edge4" class="edge"><title>Node5&#45;&gt;Node4</title>
<path fill="none" stroke="midnightblue" d="M132.637,-711.493C182.066,-716.246 262.658,-723.995 322.457,-729.745"/>
<polygon fill="midnightblue" stroke="midnightblue" points="132.871,-707.999 122.582,-710.526 132.201,-714.967 132.871,-707.999"/>
</g>
<!-- Node6 -->
<g id="node6" class="node"><title>Node6</title>
<polygon fill="white" stroke="#bfbfbf" points="42.5,-823.701 42.5,-842.701 131.5,-842.701 131.5,-823.701 42.5,-823.701"/>
<text text-anchor="middle" x="87" y="-830.701" font-family="Helvetica,sans-Serif" font-size="10.00">Set&lt; Integer &gt;</text>
</g>
<!-- Node6&#45;&gt;Node4 -->
<g id="edge5" class="edge"><title>Node6&#45;&gt;Node4</title>
<path fill="none" stroke="#9a32cd" stroke-dasharray="5,2" d="M141.753,-834.186C188.385,-832.535 255.788,-823.885 304,-791.201 316.245,-782.9 310.318,-772.279 322,-763.201 331.355,-755.931 342.843,-750.643 354.098,-746.814"/>
<polygon fill="#9a32cd" stroke="#9a32cd" points="141.453,-830.693 131.546,-834.448 141.633,-837.69 141.453,-830.693"/>
<text text-anchor="middle" x="248" y="-843.201" font-family="Helvetica,sans-Serif" font-size="10.00"> myTurtleList</text>
<text text-anchor="middle" x="248" y="-832.201" font-family="Helvetica,sans-Serif" font-size="10.00">activeTurtleList</text>
</g>
<!-- Node7 -->
<g id="node7" class="node"><title>Node7</title>
<polygon fill="white" stroke="#bfbfbf" points="0,-774.201 0,-804.201 174,-804.201 174,-774.201 0,-774.201"/>
<text text-anchor="start" x="8" y="-792.201" font-family="Helvetica,sans-Serif" font-size="10.00">Map&lt; String, model.instructions.</text>
<text text-anchor="middle" x="87" y="-781.201" font-family="Helvetica,sans-Serif" font-size="10.00">Instruction &gt;</text>
</g>
<!-- Node7&#45;&gt;Node4 -->
<g id="edge6" class="edge"><title>Node7&#45;&gt;Node4</title>
<path fill="none" stroke="#9a32cd" stroke-dasharray="5,2" d="M184.071,-776.94C221.587,-771.754 264.902,-765.273 304,-758.201 322.299,-754.891 342.419,-750.593 359.492,-746.747"/>
<polygon fill="#9a32cd" stroke="#9a32cd" points="183.592,-773.473 174.16,-778.299 184.543,-780.408 183.592,-773.473"/>
<text text-anchor="middle" x="248" y="-779.201" font-family="Helvetica,sans-Serif" font-size="10.00"> myUserInstructionMap</text>
</g>
<!-- Node8 -->
<g id="node8" class="node"><title>Node8</title>
<polygon fill="white" stroke="#bfbfbf" points="23,-735.701 23,-754.701 151,-754.701 151,-735.701 23,-735.701"/>
<text text-anchor="middle" x="87" y="-742.701" font-family="Helvetica,sans-Serif" font-size="10.00">Map&lt; String, Double &gt;</text>
</g>
<!-- Node8&#45;&gt;Node4 -->
<g id="edge7" class="edge"><title>Node8&#45;&gt;Node4</title>
<path fill="none" stroke="#9a32cd" stroke-dasharray="5,2" d="M161.23,-743.323C209.637,-742.082 273.011,-740.457 322.303,-739.193"/>
<polygon fill="#9a32cd" stroke="#9a32cd" points="161.045,-739.827 151.138,-743.582 161.224,-746.825 161.045,-739.827"/>
<text text-anchor="middle" x="248" y="-746.201" font-family="Helvetica,sans-Serif" font-size="10.00"> myVariableMap</text>
</g>
<!-- Node9&#45;&gt;Node2 -->
<g id="edge8" class="edge"><title>Node9&#45;&gt;Node2</title>
<path fill="none" stroke="#9a32cd" stroke-dasharray="5,2" d="M423.006,-468.833C439.491,-481.646 462.499,-500.775 480,-520.201 489.407,-530.643 486.549,-538.052 498,-546.201 543.86,-578.839 581.424,-539.21 620,-580.201 646.166,-608.006 615.978,-633.011 638,-664.201 652.668,-684.975 678.31,-699.219 697.789,-707.666"/>
<polygon fill="#9a32cd" stroke="#9a32cd" points="425.113,-466.037 415.044,-462.74 420.859,-471.596 425.113,-466.037"/>
<text text-anchor="middle" x="559" y="-583.201" font-family="Helvetica,sans-Serif" font-size="10.00"> myViewUpdater</text>
</g>
<!-- Node9&#45;&gt;Node21 -->
<g id="edge28" class="edge"><title>Node9&#45;&gt;Node21</title>
<path fill="none" stroke="#9a32cd" stroke-dasharray="5,2" d="M461.326,-456.073C521.686,-459.527 608.036,-466.148 620,-476.201 642.295,-494.934 620.316,-516.065 638,-539.201 653.364,-559.301 678.913,-573.314 698.181,-581.687"/>
<polygon fill="#9a32cd" stroke="#9a32cd" points="461.31,-452.566 451.131,-455.505 460.92,-459.555 461.31,-452.566"/>
<text text-anchor="middle" x="559" y="-479.201" font-family="Helvetica,sans-Serif" font-size="10.00"> myViewUpdater</text>
</g>
<!-- Node10 -->
<g id="node10" class="node"><title>Node10</title>
<g id="a_node10"><a xlink:href="../../da/d64/classview_1_1_workspace.html" target="_top" xlink:title="view.Workspace">
<polygon fill="white" stroke="black" points="1228,-246.701 1228,-265.701 1318,-265.701 1318,-246.701 1228,-246.701"/>
<text text-anchor="middle" x="1273" y="-253.701" font-family="Helvetica,sans-Serif" font-size="10.00">view.Workspace</text>
</a>
</g>
</g>
<!-- Node10&#45;&gt;Node9 -->
<g id="edge10" class="edge"><title>Node10&#45;&gt;Node9</title>
<path fill="none" stroke="#9a32cd" stroke-dasharray="5,2" d="M1217.79,-260.827C1215.16,-260.972 1212.55,-261.098 1210,-261.201 1174.47,-262.631 1165.55,-261.743 1130,-261.201 1057.09,-260.09 1032.94,-285.131 966,-256.201 955.615,-251.713 958.453,-242.531 948,-238.201 820.297,-185.305 765.116,-208.908 638,-263.201 533.998,-307.621 438.227,-411.444 410.218,-443.56"/>
<polygon fill="#9a32cd" stroke="#9a32cd" points="1218.23,-264.307 1228,-260.189 1217.8,-257.32 1218.23,-264.307"/>
<text text-anchor="middle" x="889" y="-241.201" font-family="Helvetica,sans-Serif" font-size="10.00"> myWorkspace</text>
</g>
<!-- Node10&#45;&gt;Node24 -->
<g id="edge31" class="edge"><title>Node10&#45;&gt;Node24</title>
<path fill="none" stroke="#9a32cd" stroke-dasharray="5,2" d="M1328.34,-257.601C1413.6,-259.797 1577.23,-264.012 1656.19,-266.047"/>
<polygon fill="#9a32cd" stroke="#9a32cd" points="1328.18,-254.096 1318.09,-257.337 1327.99,-261.093 1328.18,-254.096"/>
<text text-anchor="middle" x="1484" y="-266.201" font-family="Helvetica,sans-Serif" font-size="10.00"> myWorkspace</text>
</g>
<!-- Node32 -->
<g id="node32" class="node"><title>Node32</title>
<g id="a_node32"><a xlink:href="../../de/d0a/classview_1_1_drawer.html" target="_top" xlink:title="view.Drawer">
<polygon fill="white" stroke="black" points="1447.5,-204.701 1447.5,-223.701 1520.5,-223.701 1520.5,-204.701 1447.5,-204.701"/>
<text text-anchor="middle" x="1484" y="-211.701" font-family="Helvetica,sans-Serif" font-size="10.00">view.Drawer</text>
</a>
</g>
</g>
<!-- Node10&#45;&gt;Node32 -->
<g id="edge45" class="edge"><title>Node10&#45;&gt;Node32</title>
<path fill="none" stroke="#9a32cd" stroke-dasharray="5,2" d="M1325.08,-244.523C1328.77,-243.723 1332.44,-242.941 1336,-242.201 1373.9,-234.315 1417.48,-226.124 1447.29,-220.654"/>
<polygon fill="#9a32cd" stroke="#9a32cd" points="1324.33,-241.105 1315.31,-246.668 1325.83,-247.942 1324.33,-241.105"/>
<text text-anchor="middle" x="1371" y="-245.201" font-family="Helvetica,sans-Serif" font-size="10.00"> myWorkspace</text>
</g>
<!-- Node11 -->
<g id="node11" class="node"><title>Node11</title>
<polygon fill="white" stroke="#bfbfbf" points="1005.5,-139.701 1005.5,-158.701 1072.5,-158.701 1072.5,-139.701 1005.5,-139.701"/>
<text text-anchor="middle" x="1039" y="-146.701" font-family="Helvetica,sans-Serif" font-size="10.00">StackPane</text>
</g>
<!-- Node11&#45;&gt;Node10 -->
<g id="edge11" class="edge"><title>Node11&#45;&gt;Node10</title>
<path fill="none" stroke="midnightblue" d="M1082.42,-156.03C1118.83,-163.476 1171.4,-178.129 1210,-205.201 1220.06,-212.259 1218.84,-218.001 1228,-226.201 1236.54,-233.849 1247.13,-241.126 1255.78,-246.598"/>
<polygon fill="midnightblue" stroke="midnightblue" points="1083.09,-152.594 1072.6,-154.117 1081.75,-159.465 1083.09,-152.594"/>
</g>
<!-- Node12 -->
<g id="node12" class="node"><title>Node12</title>
<polygon fill="white" stroke="#bfbfbf" points="678.5,-100.701 678.5,-119.701 771.5,-119.701 771.5,-100.701 678.5,-100.701"/>
<text text-anchor="middle" x="725" y="-107.701" font-family="Helvetica,sans-Serif" font-size="10.00">ResourceBundle</text>
</g>
<!-- Node12&#45;&gt;Node10 -->
<g id="edge12" class="edge"><title>Node12&#45;&gt;Node10</title>
<path fill="none" stroke="#9a32cd" stroke-dasharray="5,2" d="M781.916,-104.369C857.822,-98.0574 997.177,-92.1845 1112,-119.201 1158.84,-130.221 1178.66,-128.695 1210,-165.201 1228.41,-186.648 1211.35,-203.355 1228,-226.201 1234.21,-234.72 1243.61,-241.6 1252.13,-246.613"/>
<polygon fill="#9a32cd" stroke="#9a32cd" points="781.297,-100.91 771.636,-105.259 781.901,-107.884 781.297,-100.91"/>
<text text-anchor="middle" x="1039" y="-122.201" font-family="Helvetica,sans-Serif" font-size="10.00"> myResources</text>
</g>
<!-- Node12&#45;&gt;Node17 -->
<g id="edge21" class="edge"><title>Node12&#45;&gt;Node17</title>
<path fill="none" stroke="#9a32cd" stroke-dasharray="5,2" d="M735.555,-129.028C751.456,-158.687 785.997,-216.48 830,-251.201 874.714,-286.484 911.051,-257.853 948,-301.201 969.677,-326.632 949.169,-345.333 966,-374.201 980.636,-399.303 1007.33,-420.898 1023.78,-432.676"/>
<polygon fill="#9a32cd" stroke="#9a32cd" points="738.46,-127.031 730.723,-119.794 732.258,-130.277 738.46,-127.031"/>
<text text-anchor="middle" x="889" y="-304.201" font-family="Helvetica,sans-Serif" font-size="10.00"> myResources</text>
</g>
<!-- Node12&#45;&gt;Node24 -->
<g id="edge33" class="edge"><title>Node12&#45;&gt;Node24</title>
<path fill="none" stroke="#9a32cd" stroke-dasharray="5,2" d="M781.68,-100.67C797.267,-98.4109 814.253,-96.3308 830,-95.201 882.31,-91.4481 895.557,-94.8813 948,-95.201 1020.89,-95.6455 1039.61,-88.6458 1112,-97.201 1307.52,-120.308 1353.31,-146.227 1544,-195.201 1586.1,-206.013 1598.86,-203.295 1638,-222.201 1657.85,-231.789 1678.12,-247.56 1690.13,-257.658"/>
<polygon fill="#9a32cd" stroke="#9a32cd" points="781.036,-97.2271 771.666,-102.172 782.075,-104.15 781.036,-97.2271"/>
<text text-anchor="middle" x="1273" y="-137.201" font-family="Helvetica,sans-Serif" font-size="10.00"> myResources</text>
</g>
<!-- Node13 -->
<g id="node13" class="node"><title>Node13</title>
<g id="a_node13"><a xlink:href="../../d8/df7/classview_1_1_turtle_view.html" target="_top" xlink:title="view.TurtleView">
<polygon fill="white" stroke="black" points="996,-303.701 996,-322.701 1082,-322.701 1082,-303.701 996,-303.701"/>
<text text-anchor="middle" x="1039" y="-310.701" font-family="Helvetica,sans-Serif" font-size="10.00">view.TurtleView</text>
</a>
</g>
</g>
<!-- Node13&#45;&gt;Node10 -->
<g id="edge13" class="edge"><title>Node13&#45;&gt;Node10</title>
<path fill="none" stroke="#9a32cd" stroke-dasharray="5,2" d="M1092.37,-310.534C1126.53,-307.651 1171.73,-301.658 1210,-289.201 1227.16,-283.615 1245.2,-273.459 1257.37,-265.883"/>
<polygon fill="#9a32cd" stroke="#9a32cd" points="1091.83,-307.064 1082.14,-311.332 1092.38,-314.043 1091.83,-307.064"/>
<text text-anchor="middle" x="1170" y="-309.201" font-family="Helvetica,sans-Serif" font-size="10.00"> myActiveTurtle</text>
</g>
<!-- Node14 -->
<g id="node14" class="node"><title>Node14</title>
<polygon fill="white" stroke="#bfbfbf" points="691,-272.701 691,-291.701 759,-291.701 759,-272.701 691,-272.701"/>
<text text-anchor="middle" x="725" y="-279.701" font-family="Helvetica,sans-Serif" font-size="10.00">ImageView</text>
</g>
<!-- Node14&#45;&gt;Node13 -->
<g id="edge14" class="edge"><title>Node14&#45;&gt;Node13</title>
<path fill="none" stroke="midnightblue" d="M769.349,-286.508C829.248,-292.46 936.622,-303.128 995.869,-309.015"/>
<polygon fill="midnightblue" stroke="midnightblue" points="769.391,-282.995 759.094,-285.489 768.699,-289.961 769.391,-282.995"/>
</g>
<!-- Node15 -->
<g id="node15" class="node"><title>Node15</title>
<polygon fill="white" stroke="#bfbfbf" points="702,-310.701 702,-329.701 748,-329.701 748,-310.701 702,-310.701"/>
<text text-anchor="middle" x="725" y="-317.701" font-family="Helvetica,sans-Serif" font-size="10.00">Group</text>
</g>
<!-- Node15&#45;&gt;Node10 -->
<g id="edge17" class="edge"><title>Node15&#45;&gt;Node10</title>
<path fill="none" stroke="#9a32cd" stroke-dasharray="5,2" d="M758.299,-325.289C778.782,-328.255 805.874,-331.699 830,-333.201 998.647,-343.701 1058.62,-396.276 1210,-321.201 1235.71,-308.452 1256.49,-280.45 1266.15,-265.708"/>
<polygon fill="#9a32cd" stroke="#9a32cd" points="758.647,-321.803 748.241,-323.795 757.618,-328.727 758.647,-321.803"/>
<text text-anchor="middle" x="1039" y="-364.201" font-family="Helvetica,sans-Serif" font-size="10.00"> myLines</text>
</g>
<!-- Node15&#45;&gt;Node13 -->
<g id="edge15" class="edge"><title>Node15&#45;&gt;Node13</title>
<path fill="none" stroke="#9a32cd" stroke-dasharray="5,2" d="M758.654,-319.468C815.538,-318.192 932.74,-315.563 995.737,-314.149"/>
<polygon fill="#9a32cd" stroke="#9a32cd" points="758.357,-315.974 748.438,-319.698 758.514,-322.972 758.357,-315.974"/>
<text text-anchor="middle" x="889" y="-321.201" font-family="Helvetica,sans-Serif" font-size="10.00"> myStamps</text>
</g>
<!-- Node16 -->
<g id="node16" class="node"><title>Node16</title>
<polygon fill="white" stroke="#bfbfbf" points="971,-178.201 971,-208.201 1107,-208.201 1107,-178.201 971,-178.201"/>
<text text-anchor="start" x="979" y="-196.201" font-family="Helvetica,sans-Serif" font-size="10.00">Map&lt; Integer, view.Turtle</text>
<text text-anchor="middle" x="1039" y="-185.201" font-family="Helvetica,sans-Serif" font-size="10.00">View &gt;</text>
</g>
<!-- Node16&#45;&gt;Node10 -->
<g id="edge16" class="edge"><title>Node16&#45;&gt;Node10</title>
<path fill="none" stroke="#9a32cd" stroke-dasharray="5,2" d="M1116.84,-206.054C1146.32,-211.872 1180.05,-219.619 1210,-229.201 1224.76,-233.924 1240.78,-240.955 1252.84,-246.658"/>
<polygon fill="#9a32cd" stroke="#9a32cd" points="1117.5,-202.617 1107.01,-204.155 1116.17,-209.49 1117.5,-202.617"/>
<text text-anchor="middle" x="1170" y="-232.201" font-family="Helvetica,sans-Serif" font-size="10.00"> myTurtles</text>
</g>
<!-- Node17&#45;&gt;Node9 -->
<g id="edge51" class="edge"><title>Node17&#45;&gt;Node9</title>
<path fill="none" stroke="#9a32cd" stroke-dasharray="5,2" d="M990.064,-443.03C872.354,-445.066 570.043,-450.295 451.113,-452.352"/>
<polygon fill="#9a32cd" stroke="#9a32cd" points="990.269,-446.527 1000.21,-442.855 990.148,-439.528 990.269,-446.527"/>
<text text-anchor="middle" x="725" y="-452.201" font-family="Helvetica,sans-Serif" font-size="10.00"> mySidebar</text>
</g>
<!-- Node17&#45;&gt;Node10 -->
<g id="edge18" class="edge"><title>Node17&#45;&gt;Node10</title>
<path fill="none" stroke="#9a32cd" stroke-dasharray="5,2" d="M1069.67,-428.382C1087.11,-420.419 1109.66,-410.396 1130,-402.201 1165.08,-388.068 1181.46,-398.014 1210,-373.201 1244.87,-342.885 1263.2,-288.048 1269.47,-265.884"/>
<polygon fill="#9a32cd" stroke="#9a32cd" points="1068.18,-425.214 1060.56,-432.569 1071.1,-431.576 1068.18,-425.214"/>
<text text-anchor="middle" x="1170" y="-405.201" font-family="Helvetica,sans-Serif" font-size="10.00"> mySidebar</text>
</g>
<!-- Node17&#45;&gt;Node24 -->
<g id="edge47" class="edge"><title>Node17&#45;&gt;Node24</title>
<path fill="none" stroke="#9a32cd" stroke-dasharray="5,2" d="M1087.93,-435.597C1122.15,-430.499 1169.17,-422.717 1210,-413.201 1388.85,-371.514 1598.64,-302.082 1673.09,-276.79"/>
<polygon fill="#9a32cd" stroke="#9a32cd" points="1087.12,-432.177 1077.74,-437.092 1088.14,-439.103 1087.12,-432.177"/>
<text text-anchor="middle" x="1371" y="-383.201" font-family="Helvetica,sans-Serif" font-size="10.00"> mySidebar</text>
</g>
<!-- Node26 -->
<g id="node26" class="node"><title>Node26</title>
<g id="a_node26"><a xlink:href="../../da/dc8/classview_1_1_editor.html" target="_top" xlink:title="view.Editor">
<polygon fill="white" stroke="black" points="1239.5,-504.701 1239.5,-523.701 1306.5,-523.701 1306.5,-504.701 1239.5,-504.701"/>
<text text-anchor="middle" x="1273" y="-511.701" font-family="Helvetica,sans-Serif" font-size="10.00">view.Editor</text>
</a>
</g>
</g>
<!-- Node17&#45;&gt;Node26 -->
<g id="edge39" class="edge"><title>Node17&#45;&gt;Node26</title>
<path fill="none" stroke="#9a32cd" stroke-dasharray="5,2" d="M1087.7,-441.065C1122.84,-441.87 1171.08,-446.486 1210,-463.201 1232.03,-472.661 1252.44,-492.431 1263.47,-504.387"/>
<polygon fill="#9a32cd" stroke="#9a32cd" points="1087.75,-437.565 1077.7,-440.929 1087.65,-444.564 1087.75,-437.565"/>
<text text-anchor="middle" x="1170" y="-466.201" font-family="Helvetica,sans-Serif" font-size="10.00"> mySidebar</text>
</g>
<!-- Node18 -->
<g id="node18" class="node"><title>Node18</title>
<polygon fill="white" stroke="#bfbfbf" points="704.5,-386.701 704.5,-405.701 745.5,-405.701 745.5,-386.701 704.5,-386.701"/>
<text text-anchor="middle" x="725" y="-393.701" font-family="Helvetica,sans-Serif" font-size="10.00">VBox</text>
</g>
<!-- Node18&#45;&gt;Node17 -->
<g id="edge19" class="edge"><title>Node18&#45;&gt;Node17</title>
<path fill="none" stroke="midnightblue" d="M755.664,-400.575C812.695,-408.983 937.535,-427.389 1000.34,-436.648"/>
<polygon fill="midnightblue" stroke="midnightblue" points="755.921,-397.075 745.517,-399.079 754.9,-404 755.921,-397.075"/>
</g>
<!-- Node19 -->
<g id="node19" class="node"><title>Node19</title>
<polygon fill="white" stroke="#bfbfbf" points="638.5,-348.701 638.5,-367.701 811.5,-367.701 811.5,-348.701 638.5,-348.701"/>
<text text-anchor="middle" x="725" y="-355.701" font-family="Helvetica,sans-Serif" font-size="10.00">ObservableList&lt; view.Property &gt;</text>
</g>
<!-- Node19&#45;&gt;Node17 -->
<g id="edge20" class="edge"><title>Node19&#45;&gt;Node17</title>
<path fill="none" stroke="#9a32cd" stroke-dasharray="5,2" d="M819.883,-369.243C859.98,-375.456 906.914,-384.745 948,-398.201 975.107,-407.079 1004.42,-422.639 1021.99,-432.677"/>
<polygon fill="#9a32cd" stroke="#9a32cd" points="820.253,-365.759 809.843,-367.728 819.209,-372.681 820.253,-365.759"/>
<text text-anchor="middle" x="889" y="-401.201" font-family="Helvetica,sans-Serif" font-size="10.00"> myVariablesList</text>
</g>
<!-- Node20 -->
<g id="node20" class="node"><title>Node20</title>
<polygon fill="white" stroke="#bfbfbf" points="651,-510.701 651,-529.701 799,-529.701 799,-510.701 651,-510.701"/>
<text text-anchor="middle" x="725" y="-517.701" font-family="Helvetica,sans-Serif" font-size="10.00">TableView&lt; view.Property &gt;</text>
</g>
<!-- Node20&#45;&gt;Node17 -->
<g id="edge23" class="edge"><title>Node20&#45;&gt;Node17</title>
<path fill="none" stroke="#9a32cd" stroke-dasharray="5,2" d="M809.156,-517.779C862.246,-514.858 925.231,-508.413 948,-494.201 960.55,-486.367 954.318,-475.279 966,-466.201 975.988,-458.44 988.61,-453.124 1000.49,-449.512"/>
<polygon fill="#9a32cd" stroke="#9a32cd" points="808.834,-514.291 799.028,-518.302 809.195,-521.282 808.834,-514.291"/>
<text text-anchor="middle" x="889" y="-531.201" font-family="Helvetica,sans-Serif" font-size="10.00"> myTurtlePropertiesTable</text>
<text text-anchor="middle" x="889" y="-520.201" font-family="Helvetica,sans-Serif" font-size="10.00">myVariablesTable</text>
</g>
<!-- Node21&#45;&gt;Node17 -->
<g id="edge24" class="edge"><title>Node21&#45;&gt;Node17</title>
<path fill="none" stroke="#9a32cd" stroke-dasharray="5,2" d="M773.976,-579.208C791.56,-574.934 811.646,-570.194 830,-566.201 882.21,-554.843 909.523,-580.275 948,-543.201 973.308,-518.816 942.319,-492.17 966,-466.201 974.878,-456.465 987.807,-450.673 1000.27,-447.23"/>
<polygon fill="#9a32cd" stroke="#9a32cd" points="772.826,-575.886 763.944,-581.661 774.489,-582.686 772.826,-575.886"/>
<text text-anchor="middle" x="889" y="-569.201" font-family="Helvetica,sans-Serif" font-size="10.00"> myParser</text>
</g>
<!-- Node21&#45;&gt;Node24 -->
<g id="edge42" class="edge"><title>Node21&#45;&gt;Node24</title>
<path fill="none" stroke="#9a32cd" stroke-dasharray="5,2" d="M775.3,-599.876C792.567,-602.75 812.111,-605.82 830,-608.201 890.233,-616.217 905.316,-619.086 966,-622.201 1225.64,-635.53 1301,-624.617 1544,-532.201 1589.03,-515.074 1608.09,-515.973 1638,-478.201 1689.03,-413.763 1698.78,-308.734 1700.6,-276.745"/>
<polygon fill="#9a32cd" stroke="#9a32cd" points="775.868,-596.422 765.426,-598.212 774.706,-603.325 775.868,-596.422"/>
<text text-anchor="middle" x="1273" y="-624.201" font-family="Helvetica,sans-Serif" font-size="10.00"> myParser</text>
</g>
<!-- Node21&#45;&gt;Node26 -->
<g id="edge37" class="edge"><title>Node21&#45;&gt;Node26</title>
<path fill="none" stroke="#9a32cd" stroke-dasharray="5,2" d="M771.723,-602.806C821.193,-612.407 899.484,-618.585 948,-577.201 975.727,-553.55 937.542,-519.968 966,-497.201 1016.67,-456.665 1047.2,-493.768 1112,-497.201 1156.21,-499.543 1207.01,-505.502 1239.29,-509.701"/>
<polygon fill="#9a32cd" stroke="#9a32cd" points="772.429,-599.378 761.928,-600.787 771.016,-606.234 772.429,-599.378"/>
<text text-anchor="middle" x="1039" y="-500.201" font-family="Helvetica,sans-Serif" font-size="10.00"> myParser</text>
</g>
<!-- Node22 -->
<g id="node22" class="node"><title>Node22</title>
<polygon fill="white" stroke="#bfbfbf" points="345,-530.201 345,-560.201 457,-560.201 457,-530.201 345,-530.201"/>
<text text-anchor="start" x="353" y="-548.201" font-family="Helvetica,sans-Serif" font-size="10.00">List&lt; Entry&lt; String,</text>
<text text-anchor="middle" x="401" y="-537.201" font-family="Helvetica,sans-Serif" font-size="10.00"> Pattern &gt; &gt;</text>
</g>
<!-- Node22&#45;&gt;Node21 -->
<g id="edge26" class="edge"><title>Node22&#45;&gt;Node21</title>
<path fill="none" stroke="#9a32cd" stroke-dasharray="5,2" d="M467.05,-532.48C510.912,-526.259 569.728,-522.527 620,-535.201 655.593,-544.175 692.258,-567.978 711.094,-581.485"/>
<polygon fill="#9a32cd" stroke="#9a32cd" points="466.455,-529.03 457.083,-533.973 467.491,-535.953 466.455,-529.03"/>
<text text-anchor="middle" x="559" y="-538.201" font-family="Helvetica,sans-Serif" font-size="10.00"> myPatterns</text>
</g>
<!-- Node23 -->
<g id="node23" class="node"><title>Node23</title>
<polygon fill="white" stroke="#bfbfbf" points="340,-592.701 340,-611.701 462,-611.701 462,-592.701 340,-592.701"/>
<text text-anchor="middle" x="401" y="-599.701" font-family="Helvetica,sans-Serif" font-size="10.00">Map&lt; String, String &gt;</text>
</g>
<!-- Node23&#45;&gt;Node21 -->
<g id="edge29" class="edge"><title>Node23&#45;&gt;Node21</title>
<path fill="none" stroke="#9a32cd" stroke-dasharray="5,2" d="M472.39,-599.796C537.597,-597.569 632.209,-594.337 684.877,-592.538"/>
<polygon fill="#9a32cd" stroke="#9a32cd" points="472.063,-596.305 462.188,-600.145 472.302,-603.301 472.063,-596.305"/>
<text text-anchor="middle" x="559" y="-602.201" font-family="Helvetica,sans-Serif" font-size="10.00"> myCommandMap</text>
</g>
<!-- Node24&#45;&gt;Node21 -->
<g id="edge30" class="edge"><title>Node24&#45;&gt;Node21</title>
<path fill="none" stroke="#9a32cd" stroke-dasharray="5,2" d="M1700.55,-286.876C1698.52,-357.057 1688.03,-593.725 1638,-646.201 1590,-696.549 1554.56,-679.201 1485,-679.201 1038,-679.201 1038,-679.201 1038,-679.201 944.942,-679.201 911.179,-700.696 830,-655.201 818.676,-648.855 822.127,-640.321 812,-632.201 794.707,-618.337 771.955,-607.753 754.197,-600.814"/>
<polygon fill="#9a32cd" stroke="#9a32cd" points="1704.05,-286.851 1700.81,-276.763 1697.05,-286.668 1704.05,-286.851"/>
<text text-anchor="middle" x="1273" y="-682.201" font-family="Helvetica,sans-Serif" font-size="10.00"> mySLogoView</text>
</g>
<!-- Node25 -->
<g id="node25" class="node"><title>Node25</title>
<polygon fill="white" stroke="#bfbfbf" points="1461.5,-76.701 1461.5,-95.701 1506.5,-95.701 1506.5,-76.701 1461.5,-76.701"/>
<text text-anchor="middle" x="1484" y="-83.701" font-family="Helvetica,sans-Serif" font-size="10.00">Stage</text>
</g>
<!-- Node25&#45;&gt;Node24 -->
<g id="edge32" class="edge"><title>Node25&#45;&gt;Node24</title>
<path fill="none" stroke="#9a32cd" stroke-dasharray="5,2" d="M1516.71,-79.7813C1550.31,-74.8833 1603.2,-72.8347 1638,-99.201 1690.64,-139.082 1699.3,-228.123 1700.72,-257.553"/>
<polygon fill="#9a32cd" stroke="#9a32cd" points="1515.84,-76.3774 1506.53,-81.4392 1516.97,-83.2864 1515.84,-76.3774"/>
<text text-anchor="middle" x="1600" y="-102.201" font-family="Helvetica,sans-Serif" font-size="10.00"> myStage</text>
</g>
<!-- Node26&#45;&gt;Node24 -->
<g id="edge34" class="edge"><title>Node26&#45;&gt;Node24</title>
<path fill="none" stroke="#9a32cd" stroke-dasharray="5,2" d="M1317.11,-518.167C1391.73,-522.58 1545.81,-520.548 1638,-441.201 1689.62,-396.77 1698.95,-306.6 1700.63,-276.917"/>
<polygon fill="#9a32cd" stroke="#9a32cd" points="1316.9,-514.645 1306.69,-517.477 1316.44,-521.63 1316.9,-514.645"/>
<text text-anchor="middle" x="1484" y="-520.201" font-family="Helvetica,sans-Serif" font-size="10.00"> myEditor</text>
</g>
<!-- Node27 -->
<g id="node27" class="node"><title>Node27</title>
<polygon fill="white" stroke="#bfbfbf" points="1018,-593.701 1018,-612.701 1060,-612.701 1060,-593.701 1018,-593.701"/>
<text text-anchor="middle" x="1039" y="-600.701" font-family="Helvetica,sans-Serif" font-size="10.00">HBox</text>
</g>
<!-- Node27&#45;&gt;Node26 -->
<g id="edge35" class="edge"><title>Node27&#45;&gt;Node26</title>
<path fill="none" stroke="midnightblue" d="M1070.33,-601.898C1105.58,-599.334 1164.7,-591.733 1210,-569.201 1232.42,-558.052 1253,-536.65 1263.89,-524.083"/>
<polygon fill="midnightblue" stroke="midnightblue" points="1069.96,-598.414 1060.2,-602.542 1070.41,-605.4 1069.96,-598.414"/>
</g>
<!-- Node28 -->
<g id="node28" class="node"><title>Node28</title>
<polygon fill="white" stroke="#bfbfbf" points="1014.5,-555.701 1014.5,-574.701 1063.5,-574.701 1063.5,-555.701 1014.5,-555.701"/>
<text text-anchor="middle" x="1039" y="-562.701" font-family="Helvetica,sans-Serif" font-size="10.00">Button</text>
</g>
<!-- Node28&#45;&gt;Node26 -->
<g id="edge36" class="edge"><title>Node28&#45;&gt;Node26</title>
<path fill="none" stroke="#9a32cd" stroke-dasharray="5,2" d="M1073.72,-561.584C1108.31,-557.424 1163.49,-549.535 1210,-537.201 1223.32,-533.669 1237.77,-528.395 1249.37,-523.788"/>
<polygon fill="#9a32cd" stroke="#9a32cd" points="1073.2,-558.121 1063.67,-562.756 1074.01,-565.073 1073.2,-558.121"/>
<text text-anchor="middle" x="1170" y="-557.201" font-family="Helvetica,sans-Serif" font-size="10.00"> runButton</text>
</g>
<!-- Node29 -->
<g id="node29" class="node"><title>Node29</title>
<polygon fill="white" stroke="#bfbfbf" points="1010,-517.701 1010,-536.701 1068,-536.701 1068,-517.701 1010,-517.701"/>
<text text-anchor="middle" x="1039" y="-524.701" font-family="Helvetica,sans-Serif" font-size="10.00">TextArea</text>
</g>
<!-- Node29&#45;&gt;Node26 -->
<g id="edge38" class="edge"><title>Node29&#45;&gt;Node26</title>
<path fill="none" stroke="#9a32cd" stroke-dasharray="5,2" d="M1078.67,-525.034C1123.6,-522.516 1196.95,-518.406 1239.21,-516.039"/>
<polygon fill="#9a32cd" stroke="#9a32cd" points="1078.24,-521.553 1068.45,-525.607 1078.63,-528.542 1078.24,-521.553"/>
<text text-anchor="middle" x="1170" y="-525.201" font-family="Helvetica,sans-Serif" font-size="10.00"> textEditor</text>
</g>
<!-- Node30 -->
<g id="node30" class="node"><title>Node30</title>
<polygon fill="white" stroke="#bfbfbf" points="1424.5,-38.701 1424.5,-57.701 1543.5,-57.701 1543.5,-38.701 1424.5,-38.701"/>
<text text-anchor="middle" x="1484" y="-45.701" font-family="Helvetica,sans-Serif" font-size="10.00">Map&lt; String, Node &gt;</text>
</g>
<!-- Node30&#45;&gt;Node24 -->
<g id="edge40" class="edge"><title>Node30&#45;&gt;Node24</title>
<path fill="none" stroke="#9a32cd" stroke-dasharray="5,2" d="M1553.9,-38.6316C1582.73,-38.3543 1614.85,-43.402 1638,-62.201 1700.44,-112.892 1702.36,-223.984 1701.44,-257.463"/>
<polygon fill="#9a32cd" stroke="#9a32cd" points="1553.74,-35.1345 1543.85,-38.938 1553.96,-42.1313 1553.74,-35.1345"/>
<text text-anchor="middle" x="1600" y="-65.201" font-family="Helvetica,sans-Serif" font-size="10.00"> variables</text>
</g>
<!-- Node31 -->
<g id="node31" class="node"><title>Node31</title>
<polygon fill="white" stroke="#bfbfbf" points="1443.5,-0.701017 1443.5,-19.701 1524.5,-19.701 1524.5,-0.701017 1443.5,-0.701017"/>
<text text-anchor="middle" x="1484" y="-7.70102" font-family="Helvetica,sans-Serif" font-size="10.00">Dimension2D</text>
</g>
<!-- Node31&#45;&gt;Node24 -->
<g id="edge43" class="edge"><title>Node31&#45;&gt;Node24</title>
<path fill="none" stroke="#9a32cd" stroke-dasharray="5,2" d="M1534.95,-1.16707C1567.92,1.8236 1610.03,-0.437917 1638,-24.201 1675.04,-55.6616 1695.35,-216.701 1699.98,-257.697"/>
<polygon fill="#9a32cd" stroke="#9a32cd" points="1534.16,2.26706 1524.6,-2.30202 1534.92,-4.69125 1534.16,2.26706"/>
<text text-anchor="middle" x="1600" y="-27.201" font-family="Helvetica,sans-Serif" font-size="10.00"> myDimensions</text>
</g>
<!-- Node32&#45;&gt;Node9 -->
<g id="edge50" class="edge"><title>Node32&#45;&gt;Node9</title>
<path fill="none" stroke="#9a32cd" stroke-dasharray="5,2" d="M1446.51,-201.245C1356.37,-169.292 1129.2,-89.0855 1112,-86.201 904.222,-51.3654 826.799,2.28902 638,-91.201 485.047,-166.941 417.566,-393.95 404.437,-443.556"/>
<polygon fill="#9a32cd" stroke="#9a32cd" points="1445.46,-204.585 1456.05,-204.629 1447.8,-197.988 1445.46,-204.585"/>
<text text-anchor="middle" x="1039" y="-89.201" font-family="Helvetica,sans-Serif" font-size="10.00"> myDrawer</text>
</g>
<!-- Node32&#45;&gt;Node24 -->
<g id="edge44" class="edge"><title>Node32&#45;&gt;Node24</title>
<path fill="none" stroke="#9a32cd" stroke-dasharray="5,2" d="M1530.69,-220.158C1561.39,-224.744 1602.55,-232.032 1638,-242.201 1652.36,-246.322 1667.98,-252.507 1680.07,-257.694"/>
<polygon fill="#9a32cd" stroke="#9a32cd" points="1531.1,-216.681 1520.7,-218.705 1530.09,-223.608 1531.1,-216.681"/>
<text text-anchor="middle" x="1600" y="-245.201" font-family="Helvetica,sans-Serif" font-size="10.00"> drawer</text>
</g>
<!-- Node33 -->
<g id="node33" class="node"><title>Node33</title>
<polygon fill="white" stroke="#bfbfbf" points="1252.5,-197.701 1252.5,-216.701 1293.5,-216.701 1293.5,-197.701 1252.5,-197.701"/>
<text text-anchor="middle" x="1273" y="-204.701" font-family="Helvetica,sans-Serif" font-size="10.00">Color</text>
</g>
<!-- Node33&#45;&gt;Node32 -->
<g id="edge46" class="edge"><title>Node33&#45;&gt;Node32</title>
<path fill="none" stroke="#9a32cd" stroke-dasharray="5,2" d="M1303.93,-206.83C1330.7,-206.64 1370.98,-206.706 1406,-208.201 1419.53,-208.779 1434.37,-209.834 1447.38,-210.901"/>
<polygon fill="#9a32cd" stroke="#9a32cd" points="1303.66,-203.332 1293.69,-206.92 1303.72,-210.332 1303.66,-203.332"/>
<text text-anchor="middle" x="1371" y="-211.201" font-family="Helvetica,sans-Serif" font-size="10.00"> myColor</text>
</g>
<!-- Node34 -->
<g id="node34" class="node"><title>Node34</title>
<polygon fill="white" stroke="#bfbfbf" points="656,-471.701 656,-490.701 794,-490.701 794,-471.701 656,-471.701"/>
<text text-anchor="middle" x="725" y="-478.701" font-family="Helvetica,sans-Serif" font-size="10.00">ObservableList&lt; String &gt;</text>
</g>
<!-- Node34&#45;&gt;Node17 -->
<g id="edge48" class="edge"><title>Node34&#45;&gt;Node17</title>
<path fill="none" stroke="#9a32cd" stroke-dasharray="5,2" d="M804.326,-471.41C866.963,-463.581 952.03,-452.947 1000.35,-446.907"/>
<polygon fill="#9a32cd" stroke="#9a32cd" points="803.573,-467.977 794.084,-472.69 804.441,-474.923 803.573,-467.977"/>
<text text-anchor="middle" x="889" y="-482.201" font-family="Helvetica,sans-Serif" font-size="10.00"> myCommandItems</text>
<text text-anchor="middle" x="889" y="-471.201" font-family="Helvetica,sans-Serif" font-size="10.00">myHistoryItems</text>
</g>
<!-- Node35 -->
<g id="node35" class="node"><title>Node35</title>
<polygon fill="white" stroke="#bfbfbf" points="1007.5,-227.701 1007.5,-246.701 1070.5,-246.701 1070.5,-227.701 1007.5,-227.701"/>
<text text-anchor="middle" x="1039" y="-234.701" font-family="Helvetica,sans-Serif" font-size="10.00">Rectangle</text>
</g>
<!-- Node35&#45;&gt;Node10 -->
<g id="edge49" class="edge"><title>Node35&#45;&gt;Node10</title>
<path fill="none" stroke="#9a32cd" stroke-dasharray="5,2" d="M1080.87,-240.095C1115.32,-242.589 1165.9,-246.382 1210,-250.201 1215.82,-250.705 1221.94,-251.263 1227.98,-251.831"/>
<polygon fill="#9a32cd" stroke="#9a32cd" points="1080.95,-236.591 1070.73,-239.364 1080.45,-243.573 1080.95,-236.591"/>
<text text-anchor="middle" x="1170" y="-253.201" font-family="Helvetica,sans-Serif" font-size="10.00"> myBackground</text>
</g>
<!-- Node36 -->
<g id="node36" class="node"><title>Node36</title>
<polygon fill="white" stroke="#bfbfbf" points="333,-773.201 333,-803.201 469,-803.201 469,-773.201 333,-773.201"/>
<text text-anchor="start" x="341" y="-791.201" font-family="Helvetica,sans-Serif" font-size="10.00">List&lt; model.instructions.</text>
<text text-anchor="middle" x="401" y="-780.201" font-family="Helvetica,sans-Serif" font-size="10.00">Instruction &gt;</text>
</g>
<!-- Node36&#45;&gt;Node2 -->
<g id="edge52" class="edge"><title>Node36&#45;&gt;Node2</title>
<path fill="none" stroke="#9a32cd" stroke-dasharray="5,2" d="M478.894,-774.36C520.763,-766.491 573.392,-756.058 620,-745.201 643.856,-739.644 670.53,-732.442 690.891,-726.734"/>
<polygon fill="#9a32cd" stroke="#9a32cd" points="478.227,-770.924 469.04,-776.202 479.513,-777.805 478.227,-770.924"/>
<text text-anchor="middle" x="559" y="-773.201" font-family="Helvetica,sans-Serif" font-size="10.00"> myDependencies</text>
</g>
</g>
</svg>
