<?xml version="1.0" encoding="UTF-8" standalone="no"?>
<!DOCTYPE svg PUBLIC "-//W3C//DTD SVG 1.1//EN"
 "http://www.w3.org/Graphics/SVG/1.1/DTD/svg11.dtd">
<!-- Generated by graphviz version 2.36.0 (20140111.2315)
 -->
<!-- Title: view.ViewUpdater Pages: 1 -->
<!--zoomable 856 -->
<svg id="main" version="1.1" xmlns="http://www.w3.org/2000/svg" xmlns:xlink="http://www.w3.org/1999/xlink" xml:space="preserve" onload="init(evt)">
<style type="text/css"><![CDATA[
.edge:hover path { stroke: red; }
.edge:hover polygon { stroke: red; fill: red; }
]]></style>
<script type="text/javascript"><![CDATA[
var edges = document.getElementsByTagName('g');
if (edges && edges.length) {
  for (var i=0;i<edges.length;i++) {
    if (edges[i].id.substr(0,4)=='edge') {
      edges[i].setAttribute('class','edge');
    }
  }
}
]]></script>
        <defs>
                <circle id="rim" cx="0" cy="0" r="7"/>
                <circle id="rim2" cx="0" cy="0" r="3.5"/>
                <g id="zoomPlus">
                        <use xlink:href="#rim" fill="#404040">
                                <set attributeName="fill" to="#808080" begin="zoomplus.mouseover" end="zoomplus.mouseout"/>
                        </use>
                        <path d="M-4,0h8M0,-4v8" fill="none" stroke="white" stroke-width="1.5" pointer-events="none"/>
                </g>
                <g id="zoomMin">
                        <use xlink:href="#rim" fill="#404040">
                                <set attributeName="fill" to="#808080" begin="zoomminus.mouseover" end="zoomminus.mouseout"/>
                        </use>
                        <path d="M-4,0h8" fill="none" stroke="white" stroke-width="1.5" pointer-events="none"/>
                </g>
                <g id="dirArrow">
                        <path fill="none" stroke="white" stroke-width="1.5" d="M0,-3.0v7 M-2.5,-0.5L0,-3.0L2.5,-0.5"/>
                </g>
               <g id="resetDef">
                       <use xlink:href="#rim2" fill="#404040">
                               <set attributeName="fill" to="#808080" begin="reset.mouseover" end="reset.mouseout"/>
                       </use>
               </g>
        </defs>

<script type="text/javascript">
var viewWidth = 1746;
var viewHeight = 856;
var sectionId = 'dynsection-1';
</script>
<script xlink:href="../../svgpan.js"/>
<svg id="graph" class="graph">
<g id="viewport">
<title>view.ViewUpdater</title>
<polygon fill="white" stroke="none" points="-4,4 -4,-852 1742,-852 1742,4 -4,4"/>
<!-- Node1 -->
<g id="node1" class="node"><title>Node1</title>
<polygon fill="#bfbfbf" stroke="black" points="351,-436.5 351,-455.5 451,-455.5 451,-436.5 351,-436.5"/>
<text text-anchor="middle" x="401" y="-443.5" font-family="Helvetica,sans-Serif" font-size="10.00">view.ViewUpdater</text>
</g>
<!-- Node19 -->
<g id="node19" class="node"><title>Node19</title>
<g id="a_node19"><a xlink:href="../../dc/df5/classmodel_1_1_parser.html" target="_top" xlink:title="model.Parser">
<polygon fill="white" stroke="black" points="685,-206.5 685,-225.5 765,-225.5 765,-206.5 685,-206.5"/>
<text text-anchor="middle" x="725" y="-213.5" font-family="Helvetica,sans-Serif" font-size="10.00">model.Parser</text>
</a>
</g>
</g>
<!-- Node1&#45;&gt;Node19 -->
<g id="edge24" class="edge"><title>Node1&#45;&gt;Node19</title>
<path fill="none" stroke="#9a32cd" stroke-dasharray="5,2" d="M435.252,-432.294C482.473,-411.269 568.888,-366.791 620,-304 633.859,-286.974 623.12,-274.142 638,-258 652.19,-242.606 673.245,-232.191 690.97,-225.583"/>
<polygon fill="#9a32cd" stroke="#9a32cd" points="433.561,-429.214 425.797,-436.423 436.362,-435.629 433.561,-429.214"/>
<text text-anchor="middle" x="559" y="-403" font-family="Helvetica,sans-Serif" font-size="10.00"> myViewUpdater</text>
</g>
<!-- Node2 -->
<g id="node2" class="node"><title>Node2</title>
<polygon fill="white" stroke="#bfbfbf" points="57,-333.5 57,-352.5 117,-352.5 117,-333.5 57,-333.5"/>
<text text-anchor="middle" x="87" y="-340.5" font-family="Helvetica,sans-Serif" font-size="10.00">Observer</text>
</g>
<!-- Node2&#45;&gt;Node1 -->
<g id="edge1" class="edge"><title>Node2&#45;&gt;Node1</title>
<path fill="none" stroke="midnightblue" d="M126.392,-355.674C189.609,-376.544 314.238,-417.688 370.823,-436.368"/>
<polygon fill="midnightblue" stroke="midnightblue" points="127.386,-352.317 116.793,-352.505 125.192,-358.964 127.386,-352.317"/>
</g>
<!-- Node2&#45;&gt;Node19 -->
<g id="edge21" class="edge"><title>Node2&#45;&gt;Node19</title>
<path fill="none" stroke="midnightblue" d="M127.441,-335.124C241.516,-312.345 570.921,-246.568 684.752,-223.837"/>
<polygon fill="midnightblue" stroke="midnightblue" points="126.521,-331.739 117.4,-337.129 127.892,-338.603 126.521,-331.739"/>
</g>
<!-- Node3 -->
<g id="node3" class="node"><title>Node3</title>
<g id="a_node3"><a xlink:href="../../da/d64/classview_1_1_workspace.html" target="_top" xlink:title="view.Workspace">
<polygon fill="white" stroke="black" points="1218,-609.5 1218,-628.5 1308,-628.5 1308,-609.5 1218,-609.5"/>
<text text-anchor="middle" x="1263" y="-616.5" font-family="Helvetica,sans-Serif" font-size="10.00">view.Workspace</text>
</a>
</g>
</g>
<!-- Node3&#45;&gt;Node1 -->
<g id="edge2" class="edge"><title>Node3&#45;&gt;Node1</title>
<path fill="none" stroke="#9a32cd" stroke-dasharray="5,2" d="M1245.04,-635.832C1233.27,-646.671 1216.76,-660.309 1200,-669 1159.79,-689.857 1146.86,-690.717 1102,-697 897.617,-725.625 826.7,-762.57 638,-679 522.445,-627.824 431.548,-493.112 407.977,-455.738"/>
<polygon fill="#9a32cd" stroke="#9a32cd" points="1247.53,-638.295 1252.37,-628.871 1242.71,-633.218 1247.53,-638.295"/>
<text text-anchor="middle" x="889" y="-733" font-family="Helvetica,sans-Serif" font-size="10.00"> myWorkspace</text>
</g>
<!-- Node22 -->
<g id="node22" class="node"><title>Node22</title>
<g id="a_node22"><a xlink:href="../../d6/de7/classview_1_1_s_logo_view.html" target="_top" xlink:title="view.SLogoView">
<polygon fill="white" stroke="black" points="1646.5,-275.5 1646.5,-294.5 1737.5,-294.5 1737.5,-275.5 1646.5,-275.5"/>
<text text-anchor="middle" x="1692" y="-282.5" font-family="Helvetica,sans-Serif" font-size="10.00">view.SLogoView</text>
</a>
</g>
</g>
<!-- Node3&#45;&gt;Node22 -->
<g id="edge27" class="edge"><title>Node3&#45;&gt;Node22</title>
<path fill="none" stroke="#9a32cd" stroke-dasharray="5,2" d="M1318.42,-611.517C1397.43,-597.834 1543.66,-561.458 1628,-472 1678.06,-418.906 1688.43,-324.708 1690.5,-294.562"/>
<polygon fill="#9a32cd" stroke="#9a32cd" points="1317.48,-608.125 1308.19,-613.226 1318.63,-615.03 1317.48,-608.125"/>
<text text-anchor="middle" x="1474" y="-592" font-family="Helvetica,sans-Serif" font-size="10.00"> myWorkspace</text>
</g>
<!-- Node30 -->
<g id="node30" class="node"><title>Node30</title>
<g id="a_node30"><a xlink:href="../../de/d0a/classview_1_1_drawer.html" target="_top" xlink:title="view.Drawer">
<polygon fill="white" stroke="black" points="1437.5,-742.5 1437.5,-761.5 1510.5,-761.5 1510.5,-742.5 1437.5,-742.5"/>
<text text-anchor="middle" x="1474" y="-749.5" font-family="Helvetica,sans-Serif" font-size="10.00">view.Drawer</text>
</a>
</g>
</g>
<!-- Node3&#45;&gt;Node30 -->
<g id="edge41" class="edge"><title>Node3&#45;&gt;Node30</title>
<path fill="none" stroke="#9a32cd" stroke-dasharray="5,2" d="M1287.49,-633.951C1330.73,-661.463 1421.76,-719.395 1457.82,-742.343"/>
<polygon fill="#9a32cd" stroke="#9a32cd" points="1289.35,-630.981 1279.03,-628.565 1285.59,-636.887 1289.35,-630.981"/>
<text text-anchor="middle" x="1361" y="-704" font-family="Helvetica,sans-Serif" font-size="10.00"> myWorkspace</text>
</g>
<!-- Node4 -->
<g id="node4" class="node"><title>Node4</title>
<polygon fill="white" stroke="#bfbfbf" points="1000.5,-668.5 1000.5,-687.5 1067.5,-687.5 1067.5,-668.5 1000.5,-668.5"/>
<text text-anchor="middle" x="1034" y="-675.5" font-family="Helvetica,sans-Serif" font-size="10.00">StackPane</text>
</g>
<!-- Node4&#45;&gt;Node3 -->
<g id="edge3" class="edge"><title>Node4&#45;&gt;Node3</title>
<path fill="none" stroke="midnightblue" d="M1077.74,-672.342C1111.43,-667.256 1159.34,-658.628 1200,-646 1214.91,-641.369 1231.06,-634.262 1243.14,-628.502"/>
<polygon fill="midnightblue" stroke="midnightblue" points="1077.15,-668.891 1067.77,-673.807 1078.17,-675.817 1077.15,-668.891"/>
</g>
<!-- Node5 -->
<g id="node5" class="node"><title>Node5</title>
<polygon fill="white" stroke="#bfbfbf" points="678.5,-519.5 678.5,-538.5 771.5,-538.5 771.5,-519.5 678.5,-519.5"/>
<text text-anchor="middle" x="725" y="-526.5" font-family="Helvetica,sans-Serif" font-size="10.00">ResourceBundle</text>
</g>
<!-- Node5&#45;&gt;Node3 -->
<g id="edge4" class="edge"><title>Node5&#45;&gt;Node3</title>
<path fill="none" stroke="#9a32cd" stroke-dasharray="5,2" d="M781.944,-537.684C870.697,-551.58 1049.17,-580 1200,-607 1205.83,-608.043 1211.96,-609.18 1218,-610.325"/>
<polygon fill="#9a32cd" stroke="#9a32cd" points="782.251,-534.19 771.831,-536.103 781.17,-541.106 782.251,-534.19"/>
<text text-anchor="middle" x="1034" y="-593" font-family="Helvetica,sans-Serif" font-size="10.00"> myResources</text>
</g>
<!-- Node10 -->
<g id="node10" class="node"><title>Node10</title>
<g id="a_node10"><a xlink:href="../../d1/dc7/classview_1_1_side_bar.html" target="_top" xlink:title="view.SideBar">
<polygon fill="white" stroke="black" points="995.5,-371.5 995.5,-390.5 1072.5,-390.5 1072.5,-371.5 995.5,-371.5"/>
<text text-anchor="middle" x="1034" y="-378.5" font-family="Helvetica,sans-Serif" font-size="10.00">view.SideBar</text>
</a>
</g>
</g>
<!-- Node5&#45;&gt;Node10 -->
<g id="edge13" class="edge"><title>Node5&#45;&gt;Node10</title>
<path fill="none" stroke="#9a32cd" stroke-dasharray="5,2" d="M773.976,-517.007C791.56,-512.733 811.646,-507.993 830,-504 882.21,-492.642 905.635,-513.559 948,-481 962.5,-469.856 955.16,-458.728 966,-444 981.9,-422.396 1005.79,-402.016 1020.33,-390.557"/>
<polygon fill="#9a32cd" stroke="#9a32cd" points="772.826,-513.685 763.944,-519.46 774.489,-520.485 772.826,-513.685"/>
<text text-anchor="middle" x="889" y="-507" font-family="Helvetica,sans-Serif" font-size="10.00"> myResources</text>
</g>
<!-- Node5&#45;&gt;Node22 -->
<g id="edge29" class="edge"><title>Node5&#45;&gt;Node22</title>
<path fill="none" stroke="#9a32cd" stroke-dasharray="5,2" d="M781.944,-531.781C838.73,-533.51 921.894,-532.696 948,-515 963.469,-504.514 950.718,-487.756 966,-477 1036.49,-427.392 1072.81,-458 1159,-458 1159,-458 1159,-458 1475,-458 1552.79,-458 1569.94,-424.776 1628,-373 1654.78,-349.114 1676.67,-311.884 1686.06,-294.519"/>
<polygon fill="#9a32cd" stroke="#9a32cd" points="781.78,-528.273 771.667,-531.432 781.543,-535.269 781.78,-528.273"/>
<text text-anchor="middle" x="1263" y="-461" font-family="Helvetica,sans-Serif" font-size="10.00"> myResources</text>
</g>
<!-- Node6 -->
<g id="node6" class="node"><title>Node6</title>
<g id="a_node6"><a xlink:href="../../d8/df7/classview_1_1_turtle_view.html" target="_top" xlink:title="view.TurtleView">
<polygon fill="white" stroke="black" points="991,-630.5 991,-649.5 1077,-649.5 1077,-630.5 991,-630.5"/>
<text text-anchor="middle" x="1034" y="-637.5" font-family="Helvetica,sans-Serif" font-size="10.00">view.TurtleView</text>
</a>
</g>
</g>
<!-- Node6&#45;&gt;Node3 -->
<g id="edge5" class="edge"><title>Node6&#45;&gt;Node3</title>
<path fill="none" stroke="#9a32cd" stroke-dasharray="5,2" d="M1087.14,-635.177C1126.64,-631.523 1180.31,-626.557 1217.74,-623.095"/>
<polygon fill="#9a32cd" stroke="#9a32cd" points="1086.8,-631.693 1077.16,-636.099 1087.44,-638.663 1086.8,-631.693"/>
<text text-anchor="middle" x="1160" y="-634" font-family="Helvetica,sans-Serif" font-size="10.00"> myActiveTurtle</text>
</g>
<!-- Node7 -->
<g id="node7" class="node"><title>Node7</title>
<polygon fill="white" stroke="#bfbfbf" points="691,-650.5 691,-669.5 759,-669.5 759,-650.5 691,-650.5"/>
<text text-anchor="middle" x="725" y="-657.5" font-family="Helvetica,sans-Serif" font-size="10.00">ImageView</text>
</g>
<!-- Node7&#45;&gt;Node6 -->
<g id="edge6" class="edge"><title>Node7&#45;&gt;Node6</title>
<path fill="none" stroke="midnightblue" d="M769.324,-657.364C814.074,-654.619 885.93,-650.148 948,-646 961.875,-645.073 977.021,-644.018 990.634,-643.053"/>
<polygon fill="midnightblue" stroke="midnightblue" points="768.871,-653.885 759.103,-657.99 769.298,-660.872 768.871,-653.885"/>
</g>
<!-- Node8 -->
<g id="node8" class="node"><title>Node8</title>
<polygon fill="white" stroke="#bfbfbf" points="702,-601.5 702,-620.5 748,-620.5 748,-601.5 702,-601.5"/>
<text text-anchor="middle" x="725" y="-608.5" font-family="Helvetica,sans-Serif" font-size="10.00">Group</text>
</g>
<!-- Node8&#45;&gt;Node3 -->
<g id="edge9" class="edge"><title>Node8&#45;&gt;Node3</title>
<path fill="none" stroke="#9a32cd" stroke-dasharray="5,2" d="M758.061,-610.251C822.988,-608.88 974.669,-606.422 1102,-610 1141.21,-611.102 1185.77,-613.72 1217.88,-615.85"/>
<polygon fill="#9a32cd" stroke="#9a32cd" points="757.965,-606.752 748.044,-610.468 758.118,-613.75 757.965,-606.752"/>
<text text-anchor="middle" x="1034" y="-613" font-family="Helvetica,sans-Serif" font-size="10.00"> myLines</text>
</g>
<!-- Node8&#45;&gt;Node6 -->
<g id="edge7" class="edge"><title>Node8&#45;&gt;Node6</title>
<path fill="none" stroke="#9a32cd" stroke-dasharray="5,2" d="M758.102,-614.032C813.902,-619.303 928.754,-630.153 990.879,-636.021"/>
<polygon fill="#9a32cd" stroke="#9a32cd" points="758.364,-610.542 748.079,-613.086 757.705,-617.511 758.364,-610.542"/>
<text text-anchor="middle" x="889" y="-634" font-family="Helvetica,sans-Serif" font-size="10.00"> myStamps</text>
</g>
<!-- Node9 -->
<g id="node9" class="node"><title>Node9</title>
<polygon fill="white" stroke="#bfbfbf" points="966,-487 966,-517 1102,-517 1102,-487 966,-487"/>
<text text-anchor="start" x="974" y="-505" font-family="Helvetica,sans-Serif" font-size="10.00">Map&lt; Integer, view.Turtle</text>
<text text-anchor="middle" x="1034" y="-494" font-family="Helvetica,sans-Serif" font-size="10.00">View &gt;</text>
</g>
<!-- Node9&#45;&gt;Node3 -->
<g id="edge8" class="edge"><title>Node9&#45;&gt;Node3</title>
<path fill="none" stroke="#9a32cd" stroke-dasharray="5,2" d="M1112.54,-502.061C1141.81,-505.195 1174.23,-512.668 1200,-529 1231.25,-548.806 1250.87,-590.658 1258.44,-609.479"/>
<polygon fill="#9a32cd" stroke="#9a32cd" points="1112.61,-498.553 1102.33,-501.125 1111.97,-505.524 1112.61,-498.553"/>
<text text-anchor="middle" x="1160" y="-532" font-family="Helvetica,sans-Serif" font-size="10.00"> myTurtles</text>
</g>
<!-- Node10&#45;&gt;Node1 -->
<g id="edge47" class="edge"><title>Node10&#45;&gt;Node1</title>
<path fill="none" stroke="#9a32cd" stroke-dasharray="5,2" d="M992.382,-393.361C978.422,-397.242 962.625,-401.232 948,-404 767.012,-438.255 547.231,-444.717 451.047,-445.834"/>
<polygon fill="#9a32cd" stroke="#9a32cd" points="993.52,-396.676 1002.18,-390.573 991.604,-389.943 993.52,-396.676"/>
<text text-anchor="middle" x="725" y="-442" font-family="Helvetica,sans-Serif" font-size="10.00"> mySidebar</text>
</g>
<!-- Node10&#45;&gt;Node3 -->
<g id="edge10" class="edge"><title>Node10&#45;&gt;Node3</title>
<path fill="none" stroke="#9a32cd" stroke-dasharray="5,2" d="M1066.09,-394.875C1102.28,-412.355 1161.95,-445.453 1200,-489 1233.23,-527.036 1252.62,-585.987 1259.32,-609.165"/>
<polygon fill="#9a32cd" stroke="#9a32cd" points="1067.51,-391.678 1056.98,-390.566 1064.52,-398.006 1067.51,-391.678"/>
<text text-anchor="middle" x="1160" y="-492" font-family="Helvetica,sans-Serif" font-size="10.00"> mySidebar</text>
</g>
<!-- Node10&#45;&gt;Node22 -->
<g id="edge43" class="edge"><title>Node10&#45;&gt;Node22</title>
<path fill="none" stroke="#9a32cd" stroke-dasharray="5,2" d="M1083,-388.756C1187.32,-403.389 1440.36,-426.737 1628,-345 1652.93,-334.142 1673.95,-308.89 1684.23,-294.854"/>
<polygon fill="#9a32cd" stroke="#9a32cd" points="1083.19,-385.247 1072.79,-387.284 1082.19,-392.175 1083.19,-385.247"/>
<text text-anchor="middle" x="1361" y="-406" font-family="Helvetica,sans-Serif" font-size="10.00"> mySidebar</text>
</g>
<!-- Node24 -->
<g id="node24" class="node"><title>Node24</title>
<g id="a_node24"><a xlink:href="../../da/dc8/classview_1_1_editor.html" target="_top" xlink:title="view.Editor">
<polygon fill="white" stroke="black" points="1229.5,-198.5 1229.5,-217.5 1296.5,-217.5 1296.5,-198.5 1229.5,-198.5"/>
<text text-anchor="middle" x="1263" y="-205.5" font-family="Helvetica,sans-Serif" font-size="10.00">view.Editor</text>
</a>
</g>
</g>
<!-- Node10&#45;&gt;Node24 -->
<g id="edge35" class="edge"><title>Node10&#45;&gt;Node24</title>
<path fill="none" stroke="#9a32cd" stroke-dasharray="5,2" d="M1055.61,-365.291C1101.76,-330.118 1212.28,-245.895 1249.51,-217.518"/>
<polygon fill="#9a32cd" stroke="#9a32cd" points="1053.36,-362.607 1047.53,-371.452 1057.6,-368.175 1053.36,-362.607"/>
<text text-anchor="middle" x="1160" y="-319" font-family="Helvetica,sans-Serif" font-size="10.00"> mySidebar</text>
</g>
<!-- Node11 -->
<g id="node11" class="node"><title>Node11</title>
<polygon fill="white" stroke="#bfbfbf" points="704.5,-390.5 704.5,-409.5 745.5,-409.5 745.5,-390.5 704.5,-390.5"/>
<text text-anchor="middle" x="725" y="-397.5" font-family="Helvetica,sans-Serif" font-size="10.00">VBox</text>
</g>
<!-- Node11&#45;&gt;Node10 -->
<g id="edge11" class="edge"><title>Node11&#45;&gt;Node10</title>
<path fill="none" stroke="midnightblue" d="M755.677,-398.163C811.827,-394.688 933.506,-387.158 995.322,-383.332"/>
<polygon fill="midnightblue" stroke="midnightblue" points="755.436,-394.671 745.671,-398.783 755.868,-401.658 755.436,-394.671"/>
</g>
<!-- Node12 -->
<g id="node12" class="node"><title>Node12</title>
<polygon fill="white" stroke="#bfbfbf" points="638.5,-352.5 638.5,-371.5 811.5,-371.5 811.5,-352.5 638.5,-352.5"/>
<text text-anchor="middle" x="725" y="-359.5" font-family="Helvetica,sans-Serif" font-size="10.00">ObservableList&lt; view.Property &gt;</text>
</g>
<!-- Node12&#45;&gt;Node10 -->
<g id="edge12" class="edge"><title>Node12&#45;&gt;Node10</title>
<path fill="none" stroke="#9a32cd" stroke-dasharray="5,2" d="M822.027,-365.828C861.129,-367.628 906.749,-370.038 948,-373 963.523,-374.115 980.612,-375.661 995.371,-377.097"/>
<polygon fill="#9a32cd" stroke="#9a32cd" points="821.857,-362.316 811.709,-365.359 821.54,-369.309 821.857,-362.316"/>
<text text-anchor="middle" x="889" y="-376" font-family="Helvetica,sans-Serif" font-size="10.00"> myVariablesList</text>
</g>
<!-- Node13 -->
<g id="node13" class="node"><title>Node13</title>
<g id="a_node13"><a xlink:href="../../d1/dca/classmodel_1_1_execution_environment.html" target="_top" xlink:title="model.ExecutionEnvironment">
<polygon fill="white" stroke="black" points="322.5,-206.5 322.5,-225.5 479.5,-225.5 479.5,-206.5 322.5,-206.5"/>
<text text-anchor="middle" x="401" y="-213.5" font-family="Helvetica,sans-Serif" font-size="10.00">model.ExecutionEnvironment</text>
</a>
</g>
</g>
<!-- Node13&#45;&gt;Node10 -->
<g id="edge14" class="edge"><title>Node13&#45;&gt;Node10</title>
<path fill="none" stroke="#9a32cd" stroke-dasharray="5,2" d="M436.235,-229.087C481.788,-246.158 565.075,-276.176 638,-296 714.206,-316.715 734.782,-315.452 812,-332 876.558,-345.835 951.56,-362.614 995.496,-372.515"/>
<polygon fill="#9a32cd" stroke="#9a32cd" points="437.427,-225.796 426.836,-225.548 434.961,-232.347 437.427,-225.796"/>
<text text-anchor="middle" x="725" y="-335" font-family="Helvetica,sans-Serif" font-size="10.00"> myEnvironment</text>
</g>
<!-- Node13&#45;&gt;Node19 -->
<g id="edge23" class="edge"><title>Node13&#45;&gt;Node19</title>
<path fill="none" stroke="#9a32cd" stroke-dasharray="5,2" d="M489.587,-216C553.303,-216 636.539,-216 684.756,-216"/>
<polygon fill="#9a32cd" stroke="#9a32cd" points="489.537,-212.5 479.537,-216 489.537,-219.5 489.537,-212.5"/>
<text text-anchor="middle" x="559" y="-219" font-family="Helvetica,sans-Serif" font-size="10.00"> myExecutionParameters</text>
</g>
<!-- Node13&#45;&gt;Node22 -->
<g id="edge37" class="edge"><title>Node13&#45;&gt;Node22</title>
<path fill="none" stroke="#9a32cd" stroke-dasharray="5,2" d="M423.411,-200.453C473.385,-165.75 602.698,-85 724,-85 724,-85 724,-85 1475,-85 1544.47,-85 1575.27,-71.7635 1628,-117 1677.88,-159.798 1688.34,-246.175 1690.47,-275.219"/>
<polygon fill="#9a32cd" stroke="#9a32cd" points="421.179,-197.744 415.024,-206.367 425.213,-203.465 421.179,-197.744"/>
<text text-anchor="middle" x="1160" y="-88" font-family="Helvetica,sans-Serif" font-size="10.00"> myEnvironment</text>
</g>
<!-- Node14 -->
<g id="node14" class="node"><title>Node14</title>
<polygon fill="white" stroke="#bfbfbf" points="51.5,-170.5 51.5,-189.5 122.5,-189.5 122.5,-170.5 51.5,-170.5"/>
<text text-anchor="middle" x="87" y="-177.5" font-family="Helvetica,sans-Serif" font-size="10.00">Observable</text>
</g>
<!-- Node14&#45;&gt;Node13 -->
<g id="edge15" class="edge"><title>Node14&#45;&gt;Node13</title>
<path fill="none" stroke="midnightblue" d="M132.637,-185.15C182.066,-190.854 262.658,-200.153 322.457,-207.053"/>
<polygon fill="midnightblue" stroke="midnightblue" points="132.917,-181.66 122.582,-183.99 132.114,-188.613 132.917,-181.66"/>
</g>
<!-- Node15 -->
<g id="node15" class="node"><title>Node15</title>
<polygon fill="white" stroke="#bfbfbf" points="42.5,-132.5 42.5,-151.5 131.5,-151.5 131.5,-132.5 42.5,-132.5"/>
<text text-anchor="middle" x="87" y="-139.5" font-family="Helvetica,sans-Serif" font-size="10.00">Set&lt; Integer &gt;</text>
</g>
<!-- Node15&#45;&gt;Node13 -->
<g id="edge16" class="edge"><title>Node15&#45;&gt;Node13</title>
<path fill="none" stroke="#9a32cd" stroke-dasharray="5,2" d="M141.531,-142.924C185.905,-144.932 250.194,-150.733 304,-167 334.629,-176.26 367.173,-195.012 385.408,-206.444"/>
<polygon fill="#9a32cd" stroke="#9a32cd" points="141.671,-139.427 131.538,-142.521 141.389,-146.422 141.671,-139.427"/>
<text text-anchor="middle" x="248" y="-181" font-family="Helvetica,sans-Serif" font-size="10.00"> myTurtleList</text>
<text text-anchor="middle" x="248" y="-170" font-family="Helvetica,sans-Serif" font-size="10.00">activeTurtleList</text>
</g>
<!-- Node16 -->
<g id="node16" class="node"><title>Node16</title>
<polygon fill="white" stroke="#bfbfbf" points="0,-247 0,-277 174,-277 174,-247 0,-247"/>
<text text-anchor="start" x="8" y="-265" font-family="Helvetica,sans-Serif" font-size="10.00">Map&lt; String, model.instructions.</text>
<text text-anchor="middle" x="87" y="-254" font-family="Helvetica,sans-Serif" font-size="10.00">Instruction &gt;</text>
</g>
<!-- Node16&#45;&gt;Node13 -->
<g id="edge17" class="edge"><title>Node16&#45;&gt;Node13</title>
<path fill="none" stroke="#9a32cd" stroke-dasharray="5,2" d="M184.433,-249.929C221.823,-245.02 264.957,-239.075 304,-233 318.383,-230.762 333.937,-228.109 348.251,-225.573"/>
<polygon fill="#9a32cd" stroke="#9a32cd" points="183.51,-246.52 174.047,-251.286 184.417,-253.461 183.51,-246.52"/>
<text text-anchor="middle" x="248" y="-252" font-family="Helvetica,sans-Serif" font-size="10.00"> myUserInstructionMap</text>
</g>
<!-- Node17 -->
<g id="node17" class="node"><title>Node17</title>
<polygon fill="white" stroke="#bfbfbf" points="23,-208.5 23,-227.5 151,-227.5 151,-208.5 23,-208.5"/>
<text text-anchor="middle" x="87" y="-215.5" font-family="Helvetica,sans-Serif" font-size="10.00">Map&lt; String, Double &gt;</text>
</g>
<!-- Node17&#45;&gt;Node13 -->
<g id="edge18" class="edge"><title>Node17&#45;&gt;Node13</title>
<path fill="none" stroke="#9a32cd" stroke-dasharray="5,2" d="M161.23,-217.531C209.637,-217.22 273.011,-216.814 322.303,-216.498"/>
<polygon fill="#9a32cd" stroke="#9a32cd" points="161.115,-214.031 151.138,-217.595 161.16,-221.031 161.115,-214.031"/>
<text text-anchor="middle" x="248" y="-221" font-family="Helvetica,sans-Serif" font-size="10.00"> myVariableMap</text>
</g>
<!-- Node18 -->
<g id="node18" class="node"><title>Node18</title>
<polygon fill="white" stroke="#bfbfbf" points="651,-267.5 651,-286.5 799,-286.5 799,-267.5 651,-267.5"/>
<text text-anchor="middle" x="725" y="-274.5" font-family="Helvetica,sans-Serif" font-size="10.00">TableView&lt; view.Property &gt;</text>
</g>
<!-- Node18&#45;&gt;Node10 -->
<g id="edge19" class="edge"><title>Node18&#45;&gt;Node10</title>
<path fill="none" stroke="#9a32cd" stroke-dasharray="5,2" d="M809.483,-283.943C867.463,-289.372 936.333,-297.271 948,-305 961.282,-313.799 955.109,-324.372 966,-336 979.985,-350.931 999.811,-363.468 1014.27,-371.485"/>
<polygon fill="#9a32cd" stroke="#9a32cd" points="809.451,-280.425 799.172,-282.992 808.808,-287.395 809.451,-280.425"/>
<text text-anchor="middle" x="889" y="-319" font-family="Helvetica,sans-Serif" font-size="10.00"> myTurtlePropertiesTable</text>
<text text-anchor="middle" x="889" y="-308" font-family="Helvetica,sans-Serif" font-size="10.00">myVariablesTable</text>
</g>
<!-- Node19&#45;&gt;Node10 -->
<g id="edge20" class="edge"><title>Node19&#45;&gt;Node10</title>
<path fill="none" stroke="#9a32cd" stroke-dasharray="5,2" d="M764.235,-228.746C783.78,-235.011 808.02,-242.398 830,-248 881.86,-261.219 908.792,-235.573 948,-272 969.647,-292.112 948.669,-312.068 966,-336 977.506,-351.888 996.465,-363.857 1011.28,-371.441"/>
<polygon fill="#9a32cd" stroke="#9a32cd" points="765.072,-225.338 754.48,-225.588 762.915,-231.998 765.072,-225.338"/>
<text text-anchor="middle" x="889" y="-275" font-family="Helvetica,sans-Serif" font-size="10.00"> myParser</text>
</g>
<!-- Node19&#45;&gt;Node22 -->
<g id="edge38" class="edge"><title>Node19&#45;&gt;Node22</title>
<path fill="none" stroke="#9a32cd" stroke-dasharray="5,2" d="M774.527,-204.656C822.752,-196.277 896.73,-191.545 948,-226 963.845,-236.648 950.063,-254.49 966,-265 1022.6,-302.324 1497.12,-291.002 1646.3,-286.469"/>
<polygon fill="#9a32cd" stroke="#9a32cd" points="773.84,-201.224 764.644,-206.487 775.115,-208.107 773.84,-201.224"/>
<text text-anchor="middle" x="1263" y="-295" font-family="Helvetica,sans-Serif" font-size="10.00"> myParser</text>
</g>
<!-- Node19&#45;&gt;Node24 -->
<g id="edge33" class="edge"><title>Node19&#45;&gt;Node24</title>
<path fill="none" stroke="#9a32cd" stroke-dasharray="5,2" d="M755.72,-202.182C819.169,-174.406 972.647,-116.395 1102,-140 1157.82,-150.187 1217.94,-182.085 1245.95,-198.312"/>
<polygon fill="#9a32cd" stroke="#9a32cd" points="754.039,-199.099 746.327,-206.363 756.886,-205.494 754.039,-199.099"/>
<text text-anchor="middle" x="1034" y="-143" font-family="Helvetica,sans-Serif" font-size="10.00"> myParser</text>
</g>
<!-- Node20 -->
<g id="node20" class="node"><title>Node20</title>
<polygon fill="white" stroke="#bfbfbf" points="345,-0 345,-30 457,-30 457,-0 345,-0"/>
<text text-anchor="start" x="353" y="-18" font-family="Helvetica,sans-Serif" font-size="10.00">List&lt; Entry&lt; String,</text>
<text text-anchor="middle" x="401" y="-7" font-family="Helvetica,sans-Serif" font-size="10.00"> Pattern &gt; &gt;</text>
</g>
<!-- Node20&#45;&gt;Node19 -->
<g id="edge22" class="edge"><title>Node20&#45;&gt;Node19</title>
<path fill="none" stroke="#9a32cd" stroke-dasharray="5,2" d="M467.165,-29.2047C512.916,-41.3924 573.915,-62.2678 620,-95 665.619,-127.401 703.998,-184.006 718.159,-206.445"/>
<polygon fill="#9a32cd" stroke="#9a32cd" points="467.911,-25.7823 457.352,-26.6609 466.154,-32.5584 467.911,-25.7823"/>
<text text-anchor="middle" x="559" y="-98" font-family="Helvetica,sans-Serif" font-size="10.00"> myPatterns</text>
</g>
<!-- Node21 -->
<g id="node21" class="node"><title>Node21</title>
<polygon fill="white" stroke="#bfbfbf" points="340,-49.5 340,-68.5 462,-68.5 462,-49.5 340,-49.5"/>
<text text-anchor="middle" x="401" y="-56.5" font-family="Helvetica,sans-Serif" font-size="10.00">Map&lt; String, String &gt;</text>
</g>
<!-- Node21&#45;&gt;Node19 -->
<g id="edge25" class="edge"><title>Node21&#45;&gt;Node19</title>
<path fill="none" stroke="#9a32cd" stroke-dasharray="5,2" d="M430.839,-73.0612C495.226,-104.455 649.328,-179.592 704.19,-206.341"/>
<polygon fill="#9a32cd" stroke="#9a32cd" points="432.18,-69.8214 421.658,-68.5847 429.112,-76.1133 432.18,-69.8214"/>
<text text-anchor="middle" x="559" y="-169" font-family="Helvetica,sans-Serif" font-size="10.00"> myCommandMap</text>
</g>
<!-- Node22&#45;&gt;Node19 -->
<g id="edge26" class="edge"><title>Node22&#45;&gt;Node19</title>
<path fill="none" stroke="#9a32cd" stroke-dasharray="5,2" d="M1644.66,-296.498C1639.08,-297.527 1633.43,-298.404 1628,-299 1473.01,-316.014 984.115,-310.514 966,-298 947.596,-285.287 965.383,-265.077 948,-251 934.014,-239.674 824.878,-226.494 765.006,-220.015"/>
<polygon fill="#9a32cd" stroke="#9a32cd" points="1645.46,-299.907 1654.58,-294.51 1644.09,-293.043 1645.46,-299.907"/>
<text text-anchor="middle" x="1263" y="-313" font-family="Helvetica,sans-Serif" font-size="10.00"> mySLogoView</text>
</g>
<!-- Node23 -->
<g id="node23" class="node"><title>Node23</title>
<polygon fill="white" stroke="#bfbfbf" points="1451.5,-237.5 1451.5,-256.5 1496.5,-256.5 1496.5,-237.5 1451.5,-237.5"/>
<text text-anchor="middle" x="1474" y="-244.5" font-family="Helvetica,sans-Serif" font-size="10.00">Stage</text>
</g>
<!-- Node23&#45;&gt;Node22 -->
<g id="edge28" class="edge"><title>Node23&#45;&gt;Node22</title>
<path fill="none" stroke="#9a32cd" stroke-dasharray="5,2" d="M1506.88,-247.008C1538.13,-247.645 1586.92,-250.325 1628,-260 1643,-263.533 1659.15,-269.997 1671.34,-275.467"/>
<polygon fill="#9a32cd" stroke="#9a32cd" points="1506.65,-243.505 1496.6,-246.86 1506.55,-250.504 1506.65,-243.505"/>
<text text-anchor="middle" x="1590" y="-263" font-family="Helvetica,sans-Serif" font-size="10.00"> myStage</text>
</g>
<!-- Node24&#45;&gt;Node22 -->
<g id="edge30" class="edge"><title>Node24&#45;&gt;Node22</title>
<path fill="none" stroke="#9a32cd" stroke-dasharray="5,2" d="M1306.96,-203.975C1377.45,-199.181 1520.58,-197.155 1628,-246 1646.03,-254.2 1665.17,-266.648 1677.55,-275.265"/>
<polygon fill="#9a32cd" stroke="#9a32cd" points="1306.4,-200.506 1296.69,-204.729 1306.92,-207.487 1306.4,-200.506"/>
<text text-anchor="middle" x="1474" y="-220" font-family="Helvetica,sans-Serif" font-size="10.00"> myEditor</text>
</g>
<!-- Node25 -->
<g id="node25" class="node"><title>Node25</title>
<polygon fill="white" stroke="#bfbfbf" points="1013,-198.5 1013,-217.5 1055,-217.5 1055,-198.5 1013,-198.5"/>
<text text-anchor="middle" x="1034" y="-205.5" font-family="Helvetica,sans-Serif" font-size="10.00">HBox</text>
</g>
<!-- Node25&#45;&gt;Node24 -->
<g id="edge31" class="edge"><title>Node25&#45;&gt;Node24</title>
<path fill="none" stroke="midnightblue" d="M1065.19,-208C1107.8,-208 1185.29,-208 1229.25,-208"/>
<polygon fill="midnightblue" stroke="midnightblue" points="1065.14,-204.5 1055.14,-208 1065.14,-211.5 1065.14,-204.5"/>
</g>
<!-- Node26 -->
<g id="node26" class="node"><title>Node26</title>
<polygon fill="white" stroke="#bfbfbf" points="1009.5,-160.5 1009.5,-179.5 1058.5,-179.5 1058.5,-160.5 1009.5,-160.5"/>
<text text-anchor="middle" x="1034" y="-167.5" font-family="Helvetica,sans-Serif" font-size="10.00">Button</text>
</g>
<!-- Node26&#45;&gt;Node24 -->
<g id="edge32" class="edge"><title>Node26&#45;&gt;Node24</title>
<path fill="none" stroke="#9a32cd" stroke-dasharray="5,2" d="M1068.78,-173.717C1102.24,-177.633 1154.88,-184.418 1200,-193 1209.57,-194.821 1219.89,-197.162 1229.31,-199.451"/>
<polygon fill="#9a32cd" stroke="#9a32cd" points="1068.95,-170.215 1058.62,-172.548 1068.15,-177.169 1068.95,-170.215"/>
<text text-anchor="middle" x="1160" y="-196" font-family="Helvetica,sans-Serif" font-size="10.00"> runButton</text>
</g>
<!-- Node27 -->
<g id="node27" class="node"><title>Node27</title>
<polygon fill="white" stroke="#bfbfbf" points="1005,-236.5 1005,-255.5 1063,-255.5 1063,-236.5 1005,-236.5"/>
<text text-anchor="middle" x="1034" y="-243.5" font-family="Helvetica,sans-Serif" font-size="10.00">TextArea</text>
</g>
<!-- Node27&#45;&gt;Node24 -->
<g id="edge34" class="edge"><title>Node27&#45;&gt;Node24</title>
<path fill="none" stroke="#9a32cd" stroke-dasharray="5,2" d="M1073.42,-241.271C1106.95,-236.939 1156.85,-229.997 1200,-222 1209.55,-220.23 1219.86,-218.023 1229.28,-215.888"/>
<polygon fill="#9a32cd" stroke="#9a32cd" points="1072.61,-237.845 1063.14,-242.584 1073.5,-244.789 1072.61,-237.845"/>
<text text-anchor="middle" x="1160" y="-238" font-family="Helvetica,sans-Serif" font-size="10.00"> textEditor</text>
</g>
<!-- Node28 -->
<g id="node28" class="node"><title>Node28</title>
<polygon fill="white" stroke="#bfbfbf" points="1414.5,-152.5 1414.5,-171.5 1533.5,-171.5 1533.5,-152.5 1414.5,-152.5"/>
<text text-anchor="middle" x="1474" y="-159.5" font-family="Helvetica,sans-Serif" font-size="10.00">Map&lt; String, Node &gt;</text>
</g>
<!-- Node28&#45;&gt;Node22 -->
<g id="edge36" class="edge"><title>Node28&#45;&gt;Node22</title>
<path fill="none" stroke="#9a32cd" stroke-dasharray="5,2" d="M1543.76,-159.025C1571.82,-160.824 1603.38,-166.979 1628,-183 1662.71,-205.593 1681.53,-254.696 1688.18,-275.442"/>
<polygon fill="#9a32cd" stroke="#9a32cd" points="1543.75,-155.521 1533.6,-158.549 1543.42,-162.513 1543.75,-155.521"/>
<text text-anchor="middle" x="1590" y="-186" font-family="Helvetica,sans-Serif" font-size="10.00"> variables</text>
</g>
<!-- Node29 -->
<g id="node29" class="node"><title>Node29</title>
<polygon fill="white" stroke="#bfbfbf" points="1433.5,-114.5 1433.5,-133.5 1514.5,-133.5 1514.5,-114.5 1433.5,-114.5"/>
<text text-anchor="middle" x="1474" y="-121.5" font-family="Helvetica,sans-Serif" font-size="10.00">Dimension2D</text>
</g>
<!-- Node29&#45;&gt;Node22 -->
<g id="edge39" class="edge"><title>Node29&#45;&gt;Node22</title>
<path fill="none" stroke="#9a32cd" stroke-dasharray="5,2" d="M1524.91,-119.124C1557.29,-118.582 1598.75,-123.12 1628,-145 1672.18,-178.045 1686.1,-249.185 1689.82,-275.208"/>
<polygon fill="#9a32cd" stroke="#9a32cd" points="1524.62,-115.631 1514.74,-119.463 1524.85,-122.628 1524.62,-115.631"/>
<text text-anchor="middle" x="1590" y="-148" font-family="Helvetica,sans-Serif" font-size="10.00"> myDimensions</text>
</g>
<!-- Node30&#45;&gt;Node1 -->
<g id="edge46" class="edge"><title>Node30&#45;&gt;Node1</title>
<path fill="none" stroke="#9a32cd" stroke-dasharray="5,2" d="M1438.5,-764.965C1397.51,-779.181 1326.77,-800 1264,-800 724,-800 724,-800 724,-800 532.501,-800 424.803,-513.011 405.248,-455.837"/>
<polygon fill="#9a32cd" stroke="#9a32cd" points="1439.75,-768.234 1448.01,-761.598 1437.42,-761.635 1439.75,-768.234"/>
<text text-anchor="middle" x="1034" y="-803" font-family="Helvetica,sans-Serif" font-size="10.00"> myDrawer</text>
</g>
<!-- Node30&#45;&gt;Node22 -->
<g id="edge40" class="edge"><title>Node30&#45;&gt;Node22</title>
<path fill="none" stroke="#9a32cd" stroke-dasharray="5,2" d="M1494.39,-735.657C1527.31,-706.789 1593.86,-643.333 1628,-575 1678.66,-473.604 1688.78,-332.31 1690.62,-294.576"/>
<polygon fill="#9a32cd" stroke="#9a32cd" points="1492.06,-733.044 1486.79,-742.233 1496.64,-738.339 1492.06,-733.044"/>
<text text-anchor="middle" x="1590" y="-680" font-family="Helvetica,sans-Serif" font-size="10.00"> drawer</text>
</g>
<!-- Node31 -->
<g id="node31" class="node"><title>Node31</title>
<polygon fill="white" stroke="#bfbfbf" points="1242.5,-828.5 1242.5,-847.5 1283.5,-847.5 1283.5,-828.5 1242.5,-828.5"/>
<text text-anchor="middle" x="1263" y="-835.5" font-family="Helvetica,sans-Serif" font-size="10.00">Color</text>
</g>
<!-- Node31&#45;&gt;Node30 -->
<g id="edge42" class="edge"><title>Node31&#45;&gt;Node30</title>
<path fill="none" stroke="#9a32cd" stroke-dasharray="5,2" d="M1293.89,-836.767C1321.5,-834.672 1363.09,-829.05 1396,-814 1424.1,-801.153 1450.75,-775.72 1464.1,-761.752"/>
<polygon fill="#9a32cd" stroke="#9a32cd" points="1293.45,-833.288 1283.69,-837.428 1293.9,-840.274 1293.45,-833.288"/>
<text text-anchor="middle" x="1361" y="-836" font-family="Helvetica,sans-Serif" font-size="10.00"> myColor</text>
</g>
<!-- Node32 -->
<g id="node32" class="node"><title>Node32</title>
<polygon fill="white" stroke="#bfbfbf" points="656,-475.5 656,-494.5 794,-494.5 794,-475.5 656,-475.5"/>
<text text-anchor="middle" x="725" y="-482.5" font-family="Helvetica,sans-Serif" font-size="10.00">ObservableList&lt; String &gt;</text>
</g>
<!-- Node32&#45;&gt;Node10 -->
<g id="edge44" class="edge"><title>Node32&#45;&gt;Node10</title>
<path fill="none" stroke="#9a32cd" stroke-dasharray="5,2" d="M772.398,-472.847C790.343,-468.292 811.08,-463.206 830,-459 882.158,-447.405 898.448,-455.988 948,-436 976.526,-424.494 1005.77,-403.017 1021.42,-390.578"/>
<polygon fill="#9a32cd" stroke="#9a32cd" points="771.29,-469.518 762.468,-475.385 773.023,-476.3 771.29,-469.518"/>
<text text-anchor="middle" x="889" y="-473" font-family="Helvetica,sans-Serif" font-size="10.00"> myCommandItems</text>
<text text-anchor="middle" x="889" y="-462" font-family="Helvetica,sans-Serif" font-size="10.00">myHistoryItems</text>
</g>
<!-- Node33 -->
<g id="node33" class="node"><title>Node33</title>
<polygon fill="white" stroke="#bfbfbf" points="1002.5,-744.5 1002.5,-763.5 1065.5,-763.5 1065.5,-744.5 1002.5,-744.5"/>
<text text-anchor="middle" x="1034" y="-751.5" font-family="Helvetica,sans-Serif" font-size="10.00">Rectangle</text>
</g>
<!-- Node33&#45;&gt;Node3 -->
<g id="edge45" class="edge"><title>Node33&#45;&gt;Node3</title>
<path fill="none" stroke="#9a32cd" stroke-dasharray="5,2" d="M1075.67,-757.66C1111.46,-758.799 1163.43,-755.174 1200,-730 1236.54,-704.841 1253.92,-650.761 1259.7,-628.685"/>
<polygon fill="#9a32cd" stroke="#9a32cd" points="1075.72,-754.158 1065.57,-757.199 1075.4,-761.151 1075.72,-754.158"/>
<text text-anchor="middle" x="1160" y="-758" font-family="Helvetica,sans-Serif" font-size="10.00"> myBackground</text>
</g>
</g>
</svg>
        <g id="navigator" transform="translate(0 0)" fill="#404254">
                <rect fill="#f2f5e9" fill-opacity="0.5" stroke="#606060" stroke-width=".5" x="0" y="0" width="60" height="60"/>
                <use id="zoomplus" xlink:href="#zoomPlus" x="17" y="9" onmousedown="handleZoom(evt,'in')"/>
                <use id="zoomminus" xlink:href="#zoomMin" x="42" y="9" onmousedown="handleZoom(evt,'out')"/>
                <use id="reset" xlink:href="#resetDef" x="30" y="36" onmousedown="handleReset()"/>
                <g id="arrowUp" xlink:href="#dirArrow" transform="translate(30 24)" onmousedown="handlePan(0,-1)">
                  <use xlink:href="#rim" fill="#404040">
                        <set attributeName="fill" to="#808080" begin="arrowUp.mouseover" end="arrowUp.mouseout"/>
                  </use>
                  <path fill="none" stroke="white" stroke-width="1.5" d="M0,-3.0v7 M-2.5,-0.5L0,-3.0L2.5,-0.5"/>
                </g>
                <g id="arrowRight" xlink:href="#dirArrow" transform="rotate(90) translate(36 -43)" onmousedown="handlePan(1,0)">
                  <use xlink:href="#rim" fill="#404040">
                        <set attributeName="fill" to="#808080" begin="arrowRight.mouseover" end="arrowRight.mouseout"/>
                  </use>
                  <path fill="none" stroke="white" stroke-width="1.5" d="M0,-3.0v7 M-2.5,-0.5L0,-3.0L2.5,-0.5"/>
                </g>
                <g id="arrowDown" xlink:href="#dirArrow" transform="rotate(180) translate(-30 -48)" onmousedown="handlePan(0,1)">
                  <use xlink:href="#rim" fill="#404040">
                        <set attributeName="fill" to="#808080" begin="arrowDown.mouseover" end="arrowDown.mouseout"/>
                  </use>
                  <path fill="none" stroke="white" stroke-width="1.5" d="M0,-3.0v7 M-2.5,-0.5L0,-3.0L2.5,-0.5"/>
                </g>
                <g id="arrowLeft" xlink:href="#dirArrow" transform="rotate(270) translate(-36 17)" onmousedown="handlePan(-1,0)">
                  <use xlink:href="#rim" fill="#404040">
                        <set attributeName="fill" to="#808080" begin="arrowLeft.mouseover" end="arrowLeft.mouseout"/>
                  </use>
                  <path fill="none" stroke="white" stroke-width="1.5" d="M0,-3.0v7 M-2.5,-0.5L0,-3.0L2.5,-0.5"/>
                </g>
        </g>
        <svg viewBox="0 0 15 15" width="100%" height="30px" preserveAspectRatio="xMaxYMin meet">
         <g id="arrow_out" transform="scale(0.3 0.3)">
          <a xlink:href="classview_1_1_view_updater__coll__graph_org.svg" target="_base">
           <rect id="button" ry="5" rx="5" y="6" x="6" height="38" width="38"
                fill="#f2f5e9" fill-opacity="0.5" stroke="#606060" stroke-width="1.0"/>
           <path id="arrow"
             d="M 11.500037,31.436501 C 11.940474,20.09759 22.043105,11.32322 32.158766,21.979434 L 37.068811,17.246167 C 37.068811,17.246167 37.088388,32 37.088388,32 L 22.160133,31.978069 C 22.160133,31.978069 26.997745,27.140456 26.997745,27.140456 C 18.528582,18.264221 13.291696,25.230495 11.500037,31.436501 z"
             style="fill:#404040;"/>
          </a>
         </g>
        </svg>
</svg>
