<?xml version="1.0" encoding="UTF-8" standalone="no"?>
<!DOCTYPE svg PUBLIC "-//W3C//DTD SVG 1.1//EN"
 "http://www.w3.org/Graphics/SVG/1.1/DTD/svg11.dtd">
<!-- Generated by graphviz version 2.36.0 (20140111.2315)
 -->
<!-- Title: model.instructions.FrontEndInstruction.execute Pages: 1 -->
<svg width="734pt" height="317pt"
 viewBox="0.00 0.00 734.00 317.00" xmlns="http://www.w3.org/2000/svg" xmlns:xlink="http://www.w3.org/1999/xlink">
<g id="graph0" class="graph" transform="scale(1 1) rotate(0) translate(4 313)">
<title>model.instructions.FrontEndInstruction.execute</title>
<polygon fill="white" stroke="none" points="-4,4 -4,-313 730,-313 730,4 -4,4"/>
<!-- Node1 -->
<g id="node1" class="node"><title>Node1</title>
<polygon fill="#bfbfbf" stroke="black" points="0,-126 0,-156 132,-156 132,-126 0,-126"/>
<text text-anchor="start" x="8" y="-144" font-family="Helvetica,sans-Serif" font-size="10.00">model.instructions.Front</text>
<text text-anchor="middle" x="66" y="-133" font-family="Helvetica,sans-Serif" font-size="10.00">EndInstruction.execute</text>
</g>
<!-- Node2 -->
<g id="node2" class="node"><title>Node2</title>
<g id="a_node2"><a xlink:href="../../d4/d64/classview_1_1_view_updater.html#af98c295ff8b8377ebf0c45673a4f39f0" target="_top" xlink:title="view.ViewUpdater.clearStamps">
<polygon fill="white" stroke="black" points="174.5,-213.5 174.5,-232.5 337.5,-232.5 337.5,-213.5 174.5,-213.5"/>
<text text-anchor="middle" x="256" y="-220.5" font-family="Helvetica,sans-Serif" font-size="10.00">view.ViewUpdater.clearStamps</text>
</a>
</g>
</g>
<!-- Node1&#45;&gt;Node2 -->
<g id="edge1" class="edge"><title>Node1&#45;&gt;Node2</title>
<path fill="none" stroke="midnightblue" d="M86.774,-156.219C106.37,-170.582 137.754,-191.696 168,-204 174.35,-206.583 181.111,-208.842 187.949,-210.81"/>
<polygon fill="midnightblue" stroke="midnightblue" points="187.421,-214.292 197.985,-213.491 189.227,-207.529 187.421,-214.292"/>
</g>
<!-- Node5 -->
<g id="node5" class="node"><title>Node5</title>
<g id="a_node5"><a xlink:href="../../d4/d64/classview_1_1_view_updater.html#a2a80f45d7af563e6b2b75bf3488e254c" target="_top" xlink:title="view.ViewUpdater.createStamp">
<polygon fill="white" stroke="black" points="173.5,-251.5 173.5,-270.5 338.5,-270.5 338.5,-251.5 173.5,-251.5"/>
<text text-anchor="middle" x="256" y="-258.5" font-family="Helvetica,sans-Serif" font-size="10.00">view.ViewUpdater.createStamp</text>
</a>
</g>
</g>
<!-- Node1&#45;&gt;Node5 -->
<g id="edge4" class="edge"><title>Node1&#45;&gt;Node5</title>
<path fill="none" stroke="midnightblue" d="M77.5116,-156.013C94.0561,-178.437 128.397,-220.354 168,-242 172.189,-244.289 176.632,-246.303 181.209,-248.074"/>
<polygon fill="midnightblue" stroke="midnightblue" points="180.154,-251.413 190.749,-251.379 182.446,-244.798 180.154,-251.413"/>
</g>
<!-- Node9 -->
<g id="node9" class="node"><title>Node9</title>
<g id="a_node9"><a xlink:href="../../d1/dca/classmodel_1_1_execution_environment.html#a429a18123e450d0e124af2ccf2274b06" target="_top" xlink:title="model.ExecutionEnvironment.get\lActiveTurtle">
<polygon fill="white" stroke="black" points="168,-126 168,-156 344,-156 344,-126 168,-126"/>
<text text-anchor="start" x="176" y="-144" font-family="Helvetica,sans-Serif" font-size="10.00">model.ExecutionEnvironment.get</text>
<text text-anchor="middle" x="256" y="-133" font-family="Helvetica,sans-Serif" font-size="10.00">ActiveTurtle</text>
</a>
</g>
</g>
<!-- Node1&#45;&gt;Node9 -->
<g id="edge9" class="edge"><title>Node1&#45;&gt;Node9</title>
<path fill="none" stroke="midnightblue" d="M132.226,-141C140.458,-141 149.016,-141 157.612,-141"/>
<polygon fill="midnightblue" stroke="midnightblue" points="157.703,-144.5 167.703,-141 157.703,-137.5 157.703,-144.5"/>
</g>
<!-- Node10 -->
<g id="node10" class="node"><title>Node10</title>
<g id="a_node10"><a xlink:href="../../d4/d64/classview_1_1_view_updater.html#a06c4b1d2e671e58cb1e09852aa11eb15" target="_top" xlink:title="view.ViewUpdater.setBackground\lColor">
<polygon fill="white" stroke="black" points="169,-77 169,-107 343,-107 343,-77 169,-77"/>
<text text-anchor="start" x="177" y="-95" font-family="Helvetica,sans-Serif" font-size="10.00">view.ViewUpdater.setBackground</text>
<text text-anchor="middle" x="256" y="-84" font-family="Helvetica,sans-Serif" font-size="10.00">Color</text>
</a>
</g>
</g>
<!-- Node1&#45;&gt;Node10 -->
<g id="edge10" class="edge"><title>Node1&#45;&gt;Node10</title>
<path fill="none" stroke="midnightblue" d="M124.684,-125.965C144.534,-120.792 166.937,-114.952 187.499,-109.593"/>
<polygon fill="midnightblue" stroke="midnightblue" points="188.631,-112.915 197.425,-107.006 186.866,-106.142 188.631,-112.915"/>
</g>
<!-- Node12 -->
<g id="node12" class="node"><title>Node12</title>
<g id="a_node12"><a xlink:href="../../d4/d64/classview_1_1_view_updater.html#a48eecfbf1c8a334845e1c1014d3eed4e" target="_top" xlink:title="view.ViewUpdater.setPenColor">
<polygon fill="white" stroke="black" points="176,-38.5 176,-57.5 336,-57.5 336,-38.5 176,-38.5"/>
<text text-anchor="middle" x="256" y="-45.5" font-family="Helvetica,sans-Serif" font-size="10.00">view.ViewUpdater.setPenColor</text>
</a>
</g>
</g>
<!-- Node1&#45;&gt;Node12 -->
<g id="edge12" class="edge"><title>Node1&#45;&gt;Node12</title>
<path fill="none" stroke="midnightblue" d="M83.1351,-125.798C102.01,-108.868 134.908,-81.9238 168,-67 173.642,-64.4557 179.646,-62.2425 185.762,-60.3191"/>
<polygon fill="midnightblue" stroke="midnightblue" points="186.792,-63.665 195.429,-57.5292 184.851,-56.9395 186.792,-63.665"/>
</g>
<!-- Node14 -->
<g id="node14" class="node"><title>Node14</title>
<g id="a_node14"><a xlink:href="../../d4/d64/classview_1_1_view_updater.html#afeceb6a4ebb5e3d12c51f027f8c5eabb" target="_top" xlink:title="view.ViewUpdater.setPenSize">
<polygon fill="white" stroke="black" points="178.5,-0.5 178.5,-19.5 333.5,-19.5 333.5,-0.5 178.5,-0.5"/>
<text text-anchor="middle" x="256" y="-7.5" font-family="Helvetica,sans-Serif" font-size="10.00">view.ViewUpdater.setPenSize</text>
</a>
</g>
</g>
<!-- Node1&#45;&gt;Node14 -->
<g id="edge14" class="edge"><title>Node1&#45;&gt;Node14</title>
<path fill="none" stroke="midnightblue" d="M76.0779,-125.942C91.65,-101.496 125.883,-53.4517 168,-29 171.865,-26.7562 175.966,-24.7769 180.201,-23.0309"/>
<polygon fill="midnightblue" stroke="midnightblue" points="181.461,-26.2968 189.646,-19.5694 179.053,-19.7243 181.461,-26.2968"/>
</g>
<!-- Node16 -->
<g id="node16" class="node"><title>Node16</title>
<g id="a_node16"><a xlink:href="../../d4/d64/classview_1_1_view_updater.html#a7bf016ce22316f6d22eb9710ced3dc4b" target="_top" xlink:title="view.ViewUpdater.setShape">
<polygon fill="white" stroke="black" points="182,-175.5 182,-194.5 330,-194.5 330,-175.5 182,-175.5"/>
<text text-anchor="middle" x="256" y="-182.5" font-family="Helvetica,sans-Serif" font-size="10.00">view.ViewUpdater.setShape</text>
</a>
</g>
</g>
<!-- Node1&#45;&gt;Node16 -->
<g id="edge16" class="edge"><title>Node1&#45;&gt;Node16</title>
<path fill="none" stroke="midnightblue" d="M130.02,-156.05C142.597,-159.033 155.715,-162.128 168,-165 179.439,-167.674 191.731,-170.518 203.368,-173.196"/>
<polygon fill="midnightblue" stroke="midnightblue" points="202.858,-176.67 213.388,-175.499 204.426,-169.848 202.858,-176.67"/>
</g>
<!-- Node3 -->
<g id="node3" class="node"><title>Node3</title>
<g id="a_node3"><a xlink:href="../../da/d64/classview_1_1_workspace.html#ad460da1164f039e5ea9a265d446d13fe" target="_top" xlink:title="view.Workspace.getTurtleMap">
<polygon fill="white" stroke="black" points="385.5,-194.5 385.5,-213.5 540.5,-213.5 540.5,-194.5 385.5,-194.5"/>
<text text-anchor="middle" x="463" y="-201.5" font-family="Helvetica,sans-Serif" font-size="10.00">view.Workspace.getTurtleMap</text>
</a>
</g>
</g>
<!-- Node2&#45;&gt;Node3 -->
<g id="edge2" class="edge"><title>Node2&#45;&gt;Node3</title>
<path fill="none" stroke="midnightblue" d="M337.727,-215.518C349.982,-214.382 362.672,-213.206 375.052,-212.059"/>
<polygon fill="midnightblue" stroke="midnightblue" points="375.728,-215.511 385.363,-211.103 375.082,-208.541 375.728,-215.511"/>
</g>
<!-- Node4 -->
<g id="node4" class="node"><title>Node4</title>
<g id="a_node4"><a xlink:href="../../d8/df7/classview_1_1_turtle_view.html#aece45eec820c533ef48ccdf9a5515d7a" target="_top" xlink:title="view.TurtleView.clearStamps">
<polygon fill="white" stroke="black" points="388.5,-232.5 388.5,-251.5 537.5,-251.5 537.5,-232.5 388.5,-232.5"/>
<text text-anchor="middle" x="463" y="-239.5" font-family="Helvetica,sans-Serif" font-size="10.00">view.TurtleView.clearStamps</text>
</a>
</g>
</g>
<!-- Node2&#45;&gt;Node4 -->
<g id="edge3" class="edge"><title>Node2&#45;&gt;Node4</title>
<path fill="none" stroke="midnightblue" d="M337.727,-230.482C351.031,-231.715 364.847,-232.996 378.223,-234.235"/>
<polygon fill="midnightblue" stroke="midnightblue" points="378.07,-237.736 388.351,-235.174 378.716,-230.766 378.07,-237.736"/>
</g>
<!-- Node5&#45;&gt;Node3 -->
<g id="edge5" class="edge"><title>Node5&#45;&gt;Node3</title>
<path fill="none" stroke="midnightblue" d="M311.483,-251.476C322.407,-248.906 333.69,-245.767 344,-242 360.993,-235.791 363.047,-229.317 380,-223 386.951,-220.41 394.369,-218.101 401.795,-216.062"/>
<polygon fill="midnightblue" stroke="midnightblue" points="402.725,-219.436 411.525,-213.536 400.966,-212.661 402.725,-219.436"/>
</g>
<!-- Node6 -->
<g id="node6" class="node"><title>Node6</title>
<g id="a_node6"><a xlink:href="../../d8/df7/classview_1_1_turtle_view.html#a2efe7ca23cb6fdf75e0bfba1108d3af6" target="_top" xlink:title="view.TurtleView.createStamp">
<polygon fill="white" stroke="black" points="387,-270.5 387,-289.5 539,-289.5 539,-270.5 387,-270.5"/>
<text text-anchor="middle" x="463" y="-277.5" font-family="Helvetica,sans-Serif" font-size="10.00">view.TurtleView.createStamp</text>
</a>
</g>
</g>
<!-- Node5&#45;&gt;Node6 -->
<g id="edge6" class="edge"><title>Node5&#45;&gt;Node6</title>
<path fill="none" stroke="midnightblue" d="M338.61,-268.564C351.209,-269.732 364.248,-270.94 376.92,-272.115"/>
<polygon fill="midnightblue" stroke="midnightblue" points="376.709,-275.61 386.99,-273.048 377.355,-268.64 376.709,-275.61"/>
</g>
<!-- Node7 -->
<g id="node7" class="node"><title>Node7</title>
<g id="a_node7"><a xlink:href="../../d8/df7/classview_1_1_turtle_view.html#afddbc74313a99bb100c8c50efa88f330" target="_top" xlink:title="view.TurtleView.getYCoord">
<polygon fill="white" stroke="black" points="585.5,-289.5 585.5,-308.5 722.5,-308.5 722.5,-289.5 585.5,-289.5"/>
<text text-anchor="middle" x="654" y="-296.5" font-family="Helvetica,sans-Serif" font-size="10.00">view.TurtleView.getYCoord</text>
</a>
</g>
</g>
<!-- Node6&#45;&gt;Node7 -->
<g id="edge7" class="edge"><title>Node6&#45;&gt;Node7</title>
<path fill="none" stroke="midnightblue" d="M539.241,-287.564C551.024,-288.748 563.225,-289.975 575.068,-291.166"/>
<polygon fill="midnightblue" stroke="midnightblue" points="575.063,-294.683 585.363,-292.201 575.763,-287.718 575.063,-294.683"/>
</g>
<!-- Node8 -->
<g id="node8" class="node"><title>Node8</title>
<g id="a_node8"><a xlink:href="../../d8/df7/classview_1_1_turtle_view.html#a740c69205e98525bdb1cebba031c9f74" target="_top" xlink:title="view.TurtleView.getImageID">
<polygon fill="white" stroke="black" points="582,-251.5 582,-270.5 726,-270.5 726,-251.5 582,-251.5"/>
<text text-anchor="middle" x="654" y="-258.5" font-family="Helvetica,sans-Serif" font-size="10.00">view.TurtleView.getImageID</text>
</a>
</g>
</g>
<!-- Node6&#45;&gt;Node8 -->
<g id="edge8" class="edge"><title>Node6&#45;&gt;Node8</title>
<path fill="none" stroke="midnightblue" d="M539.241,-272.436C549.85,-271.37 560.798,-270.269 571.518,-269.191"/>
<polygon fill="midnightblue" stroke="midnightblue" points="572.107,-272.65 581.707,-268.167 571.407,-265.685 572.107,-272.65"/>
</g>
<!-- Node11 -->
<g id="node11" class="node"><title>Node11</title>
<g id="a_node11"><a xlink:href="../../da/d64/classview_1_1_workspace.html#a34a11a992dfdc0b97aa805ece5c075fc" target="_top" xlink:title="view.Workspace.setBackground">
<polygon fill="white" stroke="black" points="380.5,-82.5 380.5,-101.5 545.5,-101.5 545.5,-82.5 380.5,-82.5"/>
<text text-anchor="middle" x="463" y="-89.5" font-family="Helvetica,sans-Serif" font-size="10.00">view.Workspace.setBackground</text>
</a>
</g>
</g>
<!-- Node10&#45;&gt;Node11 -->
<g id="edge11" class="edge"><title>Node10&#45;&gt;Node11</title>
<path fill="none" stroke="midnightblue" d="M343.047,-92C352.043,-92 361.213,-92 370.269,-92"/>
<polygon fill="midnightblue" stroke="midnightblue" points="370.43,-95.5001 380.43,-92 370.43,-88.5001 370.43,-95.5001"/>
</g>
<!-- Node13 -->
<g id="node13" class="node"><title>Node13</title>
<g id="a_node13"><a xlink:href="../../de/d0a/classview_1_1_drawer.html#acb2c7fbc7b944742edfe3ce8b63beaff" target="_top" xlink:title="view.Drawer.changeColor">
<polygon fill="white" stroke="black" points="395.5,-38.5 395.5,-57.5 530.5,-57.5 530.5,-38.5 395.5,-38.5"/>
<text text-anchor="middle" x="463" y="-45.5" font-family="Helvetica,sans-Serif" font-size="10.00">view.Drawer.changeColor</text>
</a>
</g>
</g>
<!-- Node12&#45;&gt;Node13 -->
<g id="edge13" class="edge"><title>Node12&#45;&gt;Node13</title>
<path fill="none" stroke="midnightblue" d="M336.258,-48C352.248,-48 369.034,-48 384.946,-48"/>
<polygon fill="midnightblue" stroke="midnightblue" points="385.26,-51.5001 395.26,-48 385.26,-44.5001 385.26,-51.5001"/>
</g>
<!-- Node15 -->
<g id="node15" class="node"><title>Node15</title>
<g id="a_node15"><a xlink:href="../../de/d0a/classview_1_1_drawer.html#a9cb0e28a88520d78da1d438e68e80c60" target="_top" xlink:title="view.Drawer.setStroke">
<polygon fill="white" stroke="black" points="402,-0.5 402,-19.5 524,-19.5 524,-0.5 402,-0.5"/>
<text text-anchor="middle" x="463" y="-7.5" font-family="Helvetica,sans-Serif" font-size="10.00">view.Drawer.setStroke</text>
</a>
</g>
</g>
<!-- Node14&#45;&gt;Node15 -->
<g id="edge15" class="edge"><title>Node14&#45;&gt;Node15</title>
<path fill="none" stroke="midnightblue" d="M333.626,-10C352.625,-10 372.893,-10 391.58,-10"/>
<polygon fill="midnightblue" stroke="midnightblue" points="391.78,-13.5001 401.78,-10 391.78,-6.5001 391.78,-13.5001"/>
</g>
<!-- Node16&#45;&gt;Node3 -->
<g id="edge18" class="edge"><title>Node16&#45;&gt;Node3</title>
<path fill="none" stroke="midnightblue" d="M330.141,-191.779C344.716,-193.13 360.155,-194.561 375.138,-195.949"/>
<polygon fill="midnightblue" stroke="midnightblue" points="375.142,-199.465 385.422,-196.903 375.788,-192.494 375.142,-199.465"/>
</g>
<!-- Node17 -->
<g id="node17" class="node"><title>Node17</title>
<g id="a_node17"><a xlink:href="../../da/d64/classview_1_1_workspace.html#a4fa39210415cbc1075098e1babd0cec7" target="_top" xlink:title="view.Workspace.getActive\lTurtle">
<polygon fill="white" stroke="black" points="394,-145 394,-175 532,-175 532,-145 394,-145"/>
<text text-anchor="start" x="402" y="-163" font-family="Helvetica,sans-Serif" font-size="10.00">view.Workspace.getActive</text>
<text text-anchor="middle" x="463" y="-152" font-family="Helvetica,sans-Serif" font-size="10.00">Turtle</text>
</a>
</g>
</g>
<!-- Node16&#45;&gt;Node17 -->
<g id="edge17" class="edge"><title>Node16&#45;&gt;Node17</title>
<path fill="none" stroke="midnightblue" d="M330.141,-176.08C347.443,-173.97 365.964,-171.712 383.493,-169.574"/>
<polygon fill="midnightblue" stroke="midnightblue" points="384.18,-173.016 393.682,-168.331 383.332,-166.068 384.18,-173.016"/>
</g>
</g>
</svg>
