<?xml version="1.0" encoding="UTF-8" standalone="no"?>
<!DOCTYPE svg PUBLIC "-//W3C//DTD SVG 1.1//EN"
 "http://www.w3.org/Graphics/SVG/1.1/DTD/svg11.dtd">
<!-- Generated by graphviz version 2.36.0 (20140111.2315)
 -->
<!-- Title: view.SLogoView.configureAddTurtlesButton Pages: 1 -->
<svg width="1338pt" height="180pt"
 viewBox="0.00 0.00 1338.00 180.00" xmlns="http://www.w3.org/2000/svg" xmlns:xlink="http://www.w3.org/1999/xlink">
<g id="graph0" class="graph" transform="scale(1 1) rotate(0) translate(4 176)">
<title>view.SLogoView.configureAddTurtlesButton</title>
<polygon fill="white" stroke="none" points="-4,4 -4,-176 1334,-176 1334,4 -4,4"/>
<!-- Node1 -->
<g id="node1" class="node"><title>Node1</title>
<polygon fill="#bfbfbf" stroke="black" points="0.5,-72 0.5,-102 137.5,-102 137.5,-72 0.5,-72"/>
<text text-anchor="start" x="8.5" y="-90" font-family="Helvetica,sans-Serif" font-size="10.00">view.SLogoView.configure</text>
<text text-anchor="middle" x="69" y="-79" font-family="Helvetica,sans-Serif" font-size="10.00">AddTurtlesButton</text>
</g>
<!-- Node2 -->
<g id="node2" class="node"><title>Node2</title>
<g id="a_node2"><a xlink:href="../../da/d64/classview_1_1_workspace.html#a4abde41a3048fa8f64ddfec40c8ffdb7" target="_top" xlink:title="view.Workspace.addTurtle">
<polygon fill="white" stroke="black" points="174.5,-77.5 174.5,-96.5 311.5,-96.5 311.5,-77.5 174.5,-77.5"/>
<text text-anchor="middle" x="243" y="-84.5" font-family="Helvetica,sans-Serif" font-size="10.00">view.Workspace.addTurtle</text>
</a>
</g>
</g>
<!-- Node1&#45;&gt;Node2 -->
<g id="edge1" class="edge"><title>Node1&#45;&gt;Node2</title>
<path fill="none" stroke="midnightblue" d="M137.979,-87C146.55,-87 155.372,-87 164.082,-87"/>
<polygon fill="midnightblue" stroke="midnightblue" points="164.233,-90.5001 174.233,-87 164.233,-83.5001 164.233,-90.5001"/>
</g>
<!-- Node3 -->
<g id="node3" class="node"><title>Node3</title>
<g id="a_node3"><a xlink:href="../../da/d64/classview_1_1_workspace.html#a9eea72f983d5e7ad5af85056d927e380" target="_top" xlink:title="view.Workspace.configure\lTurtleEventHandler">
<polygon fill="white" stroke="black" points="368.5,-121 368.5,-151 505.5,-151 505.5,-121 368.5,-121"/>
<text text-anchor="start" x="376.5" y="-139" font-family="Helvetica,sans-Serif" font-size="10.00">view.Workspace.configure</text>
<text text-anchor="middle" x="437" y="-128" font-family="Helvetica,sans-Serif" font-size="10.00">TurtleEventHandler</text>
</a>
</g>
</g>
<!-- Node2&#45;&gt;Node3 -->
<g id="edge2" class="edge"><title>Node2&#45;&gt;Node3</title>
<path fill="none" stroke="midnightblue" d="M281.475,-96.564C305.783,-102.768 338.186,-111.037 367.041,-118.401"/>
<polygon fill="midnightblue" stroke="midnightblue" points="366.525,-121.881 377.08,-120.963 368.256,-115.099 366.525,-121.881"/>
</g>
<!-- Node12 -->
<g id="node12" class="node"><title>Node12</title>
<g id="a_node12"><a xlink:href="../../d1/dca/classmodel_1_1_execution_environment.html#a96986e0e8de018fd9b1b2bf79de862e1" target="_top" xlink:title="model.ExecutionEnvironment.add\lTurtle">
<polygon fill="white" stroke="black" points="348,-72 348,-102 526,-102 526,-72 348,-72"/>
<text text-anchor="start" x="356" y="-90" font-family="Helvetica,sans-Serif" font-size="10.00">model.ExecutionEnvironment.add</text>
<text text-anchor="middle" x="437" y="-79" font-family="Helvetica,sans-Serif" font-size="10.00">Turtle</text>
</a>
</g>
</g>
<!-- Node2&#45;&gt;Node12 -->
<g id="edge12" class="edge"><title>Node2&#45;&gt;Node12</title>
<path fill="none" stroke="midnightblue" d="M311.692,-87C320.073,-87 328.77,-87 337.494,-87"/>
<polygon fill="midnightblue" stroke="midnightblue" points="337.731,-90.5001 347.731,-87 337.731,-83.5001 337.731,-90.5001"/>
</g>
<!-- Node14 -->
<g id="node14" class="node"><title>Node14</title>
<g id="a_node14"><a xlink:href="../../d1/dca/classmodel_1_1_execution_environment.html#a472ef4da5205b0e95ec51fdbf52f654a" target="_top" xlink:title="model.ExecutionEnvironment.set\lActiveTurtle">
<polygon fill="white" stroke="black" points="349.5,-23 349.5,-53 524.5,-53 524.5,-23 349.5,-23"/>
<text text-anchor="start" x="357.5" y="-41" font-family="Helvetica,sans-Serif" font-size="10.00">model.ExecutionEnvironment.set</text>
<text text-anchor="middle" x="437" y="-30" font-family="Helvetica,sans-Serif" font-size="10.00">ActiveTurtle</text>
</a>
</g>
</g>
<!-- Node2&#45;&gt;Node14 -->
<g id="edge14" class="edge"><title>Node2&#45;&gt;Node14</title>
<path fill="none" stroke="midnightblue" d="M281.475,-77.436C305.783,-71.2324 338.186,-62.9629 367.041,-55.599"/>
<polygon fill="midnightblue" stroke="midnightblue" points="368.256,-58.9012 377.08,-53.037 366.525,-52.1186 368.256,-58.9012"/>
</g>
<!-- Node4 -->
<g id="node4" class="node"><title>Node4</title>
<g id="a_node4"><a xlink:href="../../da/d64/classview_1_1_workspace.html#a16bda9a6a7fe7f8d3d7b09108675f9c4" target="_top" xlink:title="view.Workspace.setActive\lTurtle">
<polygon fill="white" stroke="black" points="590.5,-99 590.5,-129 727.5,-129 727.5,-99 590.5,-99"/>
<text text-anchor="start" x="598.5" y="-117" font-family="Helvetica,sans-Serif" font-size="10.00">view.Workspace.setActive</text>
<text text-anchor="middle" x="659" y="-106" font-family="Helvetica,sans-Serif" font-size="10.00">Turtle</text>
</a>
</g>
</g>
<!-- Node3&#45;&gt;Node4 -->
<g id="edge3" class="edge"><title>Node3&#45;&gt;Node4</title>
<path fill="none" stroke="midnightblue" d="M505.502,-129.25C529.043,-126.896 555.652,-124.235 579.977,-121.802"/>
<polygon fill="midnightblue" stroke="midnightblue" points="580.644,-125.253 590.246,-120.775 579.948,-118.288 580.644,-125.253"/>
</g>
<!-- Node8 -->
<g id="node8" class="node"><title>Node8</title>
<g id="a_node8"><a xlink:href="../../d8/df7/classview_1_1_turtle_view.html#ab5fdc3775e06339f4a68d1b795a81643" target="_top" xlink:title="view.TurtleView.getID">
<polygon fill="white" stroke="black" points="1195,-152.5 1195,-171.5 1309,-171.5 1309,-152.5 1195,-152.5"/>
<text text-anchor="middle" x="1252" y="-159.5" font-family="Helvetica,sans-Serif" font-size="10.00">view.TurtleView.getID</text>
</a>
</g>
</g>
<!-- Node3&#45;&gt;Node8 -->
<g id="edge11" class="edge"><title>Node3&#45;&gt;Node8</title>
<path fill="none" stroke="midnightblue" d="M505.57,-138.161C659.031,-143.069 1032.31,-155.006 1184.62,-159.877"/>
<polygon fill="midnightblue" stroke="midnightblue" points="1184.66,-163.38 1194.77,-160.202 1184.88,-156.384 1184.66,-163.38"/>
</g>
<!-- Node5 -->
<g id="node5" class="node"><title>Node5</title>
<g id="a_node5"><a xlink:href="../../d1/dc7/classview_1_1_side_bar.html#a7d73038dbba05f96990b60664afa2670" target="_top" xlink:title="view.SideBar.updateTurtle\lProperties">
<polygon fill="white" stroke="black" points="792,-83 792,-113 930,-113 930,-83 792,-83"/>
<text text-anchor="start" x="800" y="-101" font-family="Helvetica,sans-Serif" font-size="10.00">view.SideBar.updateTurtle</text>
<text text-anchor="middle" x="861" y="-90" font-family="Helvetica,sans-Serif" font-size="10.00">Properties</text>
</a>
</g>
</g>
<!-- Node4&#45;&gt;Node5 -->
<g id="edge4" class="edge"><title>Node4&#45;&gt;Node5</title>
<path fill="none" stroke="midnightblue" d="M727.711,-108.583C744.952,-107.204 763.628,-105.71 781.363,-104.291"/>
<polygon fill="midnightblue" stroke="midnightblue" points="781.989,-107.752 791.678,-103.466 781.431,-100.774 781.989,-107.752"/>
</g>
<!-- Node6 -->
<g id="node6" class="node"><title>Node6</title>
<g id="a_node6"><a xlink:href="../../d9/d3a/classview_1_1_turtle_properties_view.html#af07bce3cf2bed2814a0fb3812d00b69e" target="_top" xlink:title="view.TurtlePropertiesView.update">
<polygon fill="white" stroke="black" points="966.5,-80.5 966.5,-99.5 1137.5,-99.5 1137.5,-80.5 966.5,-80.5"/>
<text text-anchor="middle" x="1052" y="-87.5" font-family="Helvetica,sans-Serif" font-size="10.00">view.TurtlePropertiesView.update</text>
</a>
</g>
</g>
<!-- Node5&#45;&gt;Node6 -->
<g id="edge5" class="edge"><title>Node5&#45;&gt;Node6</title>
<path fill="none" stroke="midnightblue" d="M930.233,-95.1118C938.669,-94.7547 947.408,-94.3848 956.151,-94.0148"/>
<polygon fill="midnightblue" stroke="midnightblue" points="956.556,-97.5009 966.399,-93.581 956.26,-90.5071 956.556,-97.5009"/>
</g>
<!-- Node7 -->
<g id="node7" class="node"><title>Node7</title>
<g id="a_node7"><a xlink:href="../../da/d64/classview_1_1_workspace.html#ad460da1164f039e5ea9a265d446d13fe" target="_top" xlink:title="view.Workspace.getTurtleMap">
<polygon fill="white" stroke="black" points="1174.5,-76.5 1174.5,-95.5 1329.5,-95.5 1329.5,-76.5 1174.5,-76.5"/>
<text text-anchor="middle" x="1252" y="-83.5" font-family="Helvetica,sans-Serif" font-size="10.00">view.Workspace.getTurtleMap</text>
</a>
</g>
</g>
<!-- Node6&#45;&gt;Node7 -->
<g id="edge6" class="edge"><title>Node6&#45;&gt;Node7</title>
<path fill="none" stroke="midnightblue" d="M1137.54,-88.292C1146.31,-88.115 1155.23,-87.9348 1164.02,-87.7573"/>
<polygon fill="midnightblue" stroke="midnightblue" points="1164.33,-91.2517 1174.26,-87.5504 1164.19,-84.2531 1164.33,-91.2517"/>
</g>
<!-- Node6&#45;&gt;Node8 -->
<g id="edge7" class="edge"><title>Node6&#45;&gt;Node8</title>
<path fill="none" stroke="midnightblue" d="M1072.29,-99.6806C1095.84,-111.205 1137.08,-130.463 1174,-143 1181.33,-145.491 1189.16,-147.804 1196.91,-149.898"/>
<polygon fill="midnightblue" stroke="midnightblue" points="1196.09,-153.3 1206.65,-152.429 1197.85,-146.525 1196.09,-153.3"/>
</g>
<!-- Node9 -->
<g id="node9" class="node"><title>Node9</title>
<g id="a_node9"><a xlink:href="../../d8/df7/classview_1_1_turtle_view.html#afddbc74313a99bb100c8c50efa88f330" target="_top" xlink:title="view.TurtleView.getYCoord">
<polygon fill="white" stroke="black" points="1183.5,-38.5 1183.5,-57.5 1320.5,-57.5 1320.5,-38.5 1183.5,-38.5"/>
<text text-anchor="middle" x="1252" y="-45.5" font-family="Helvetica,sans-Serif" font-size="10.00">view.TurtleView.getYCoord</text>
</a>
</g>
</g>
<!-- Node6&#45;&gt;Node9 -->
<g id="edge8" class="edge"><title>Node6&#45;&gt;Node9</title>
<path fill="none" stroke="midnightblue" d="M1097.93,-80.4695C1126.94,-74.3158 1164.89,-66.2667 1195.74,-59.7222"/>
<polygon fill="midnightblue" stroke="midnightblue" points="1196.85,-63.0643 1205.91,-57.5653 1195.4,-56.2166 1196.85,-63.0643"/>
</g>
<!-- Node10 -->
<g id="node10" class="node"><title>Node10</title>
<g id="a_node10"><a xlink:href="../../d8/df7/classview_1_1_turtle_view.html#a5da3d4c9dafb77af0db0c589a72eadc8" target="_top" xlink:title="view.TurtleView.getHeading">
<polygon fill="white" stroke="black" points="1180,-0.5 1180,-19.5 1324,-19.5 1324,-0.5 1180,-0.5"/>
<text text-anchor="middle" x="1252" y="-7.5" font-family="Helvetica,sans-Serif" font-size="10.00">view.TurtleView.getHeading</text>
</a>
</g>
</g>
<!-- Node6&#45;&gt;Node10 -->
<g id="edge9" class="edge"><title>Node6&#45;&gt;Node10</title>
<path fill="none" stroke="midnightblue" d="M1069.3,-80.2868C1092.05,-67.0799 1134.95,-43.4516 1174,-29 1180.75,-26.5031 1187.95,-24.234 1195.14,-22.2037"/>
<polygon fill="midnightblue" stroke="midnightblue" points="1196.14,-25.5591 1204.89,-19.5841 1194.32,-18.7988 1196.14,-25.5591"/>
</g>
<!-- Node11 -->
<g id="node11" class="node"><title>Node11</title>
<g id="a_node11"><a xlink:href="../../d5/dea/classview_1_1_side_table_view.html#adbdf2bf0ebf7fc8ab04db2087baea03a" target="_top" xlink:title="view.SideTableView.getTable">
<polygon fill="white" stroke="black" points="1178,-114.5 1178,-133.5 1326,-133.5 1326,-114.5 1178,-114.5"/>
<text text-anchor="middle" x="1252" y="-121.5" font-family="Helvetica,sans-Serif" font-size="10.00">view.SideTableView.getTable</text>
</a>
</g>
</g>
<!-- Node6&#45;&gt;Node11 -->
<g id="edge10" class="edge"><title>Node6&#45;&gt;Node11</title>
<path fill="none" stroke="midnightblue" d="M1108.42,-99.5161C1132.35,-103.626 1160.52,-108.464 1185.48,-112.75"/>
<polygon fill="midnightblue" stroke="midnightblue" points="1185.15,-116.243 1195.6,-114.486 1186.33,-109.344 1185.15,-116.243"/>
</g>
<!-- Node13 -->
<g id="node13" class="node"><title>Node13</title>
<g id="a_node13"><a xlink:href="../../d1/dca/classmodel_1_1_execution_environment.html#a93fd01341f06dfa81727344b120aef66" target="_top" xlink:title="model.ExecutionEnvironment.update\lObserver">
<polygon fill="white" stroke="black" points="562,-48 562,-78 756,-78 756,-48 562,-48"/>
<text text-anchor="start" x="570" y="-66" font-family="Helvetica,sans-Serif" font-size="10.00">model.ExecutionEnvironment.update</text>
<text text-anchor="middle" x="659" y="-55" font-family="Helvetica,sans-Serif" font-size="10.00">Observer</text>
</a>
</g>
</g>
<!-- Node12&#45;&gt;Node13 -->
<g id="edge13" class="edge"><title>Node12&#45;&gt;Node13</title>
<path fill="none" stroke="midnightblue" d="M526.215,-77.3766C534.635,-76.458 543.233,-75.5201 551.8,-74.5855"/>
<polygon fill="midnightblue" stroke="midnightblue" points="552.268,-78.0552 561.83,-73.4913 551.509,-71.0965 552.268,-78.0552"/>
</g>
<!-- Node14&#45;&gt;Node13 -->
<g id="edge15" class="edge"><title>Node14&#45;&gt;Node13</title>
<path fill="none" stroke="midnightblue" d="M524.634,-47.8448C533.641,-48.8683 542.867,-49.9167 552.055,-50.9608"/>
<polygon fill="midnightblue" stroke="midnightblue" points="551.667,-54.4392 561.999,-52.0907 552.458,-47.4839 551.667,-54.4392"/>
</g>
</g>
</svg>
