<?xml version="1.0" encoding="UTF-8" standalone="no"?>
<!DOCTYPE svg PUBLIC "-//W3C//DTD SVG 1.1//EN"
 "http://www.w3.org/Graphics/SVG/1.1/DTD/svg11.dtd">
<!-- Generated by graphviz version 2.36.0 (20140111.2315)
 -->
<!-- Title: view.SLogoView.setHeading Pages: 1 -->
<svg width="526pt" height="218pt"
 viewBox="0.00 0.00 526.00 218.00" xmlns="http://www.w3.org/2000/svg" xmlns:xlink="http://www.w3.org/1999/xlink">
<g id="graph0" class="graph" transform="scale(1 1) rotate(0) translate(4 214)">
<title>view.SLogoView.setHeading</title>
<polygon fill="white" stroke="none" points="-4,4 -4,-214 522,-214 522,4 -4,4"/>
<!-- Node1 -->
<g id="node1" class="node"><title>Node1</title>
<polygon fill="#bfbfbf" stroke="black" points="0,-144.5 0,-163.5 148,-163.5 148,-144.5 0,-144.5"/>
<text text-anchor="middle" x="74" y="-151.5" font-family="Helvetica,sans-Serif" font-size="10.00">view.SLogoView.setHeading</text>
</g>
<!-- Node2 -->
<g id="node2" class="node"><title>Node2</title>
<g id="a_node2"><a xlink:href="../../da/d64/classview_1_1_workspace.html#ad460da1164f039e5ea9a265d446d13fe" target="_top" xlink:title="view.Workspace.getTurtleMap">
<polygon fill="white" stroke="black" points="360.5,-190.5 360.5,-209.5 515.5,-209.5 515.5,-190.5 360.5,-190.5"/>
<text text-anchor="middle" x="438" y="-197.5" font-family="Helvetica,sans-Serif" font-size="10.00">view.Workspace.getTurtleMap</text>
</a>
</g>
</g>
<!-- Node1&#45;&gt;Node2 -->
<g id="edge1" class="edge"><title>Node1&#45;&gt;Node2</title>
<path fill="none" stroke="midnightblue" d="M148.256,-163.309C207.162,-170.794 290.007,-181.321 351.859,-189.181"/>
<polygon fill="midnightblue" stroke="midnightblue" points="351.625,-192.679 361.987,-190.468 352.508,-185.735 351.625,-192.679"/>
</g>
<!-- Node3 -->
<g id="node3" class="node"><title>Node3</title>
<g id="a_node3"><a xlink:href="../../d1/dc7/classview_1_1_side_bar.html#a7d73038dbba05f96990b60664afa2670" target="_top" xlink:title="view.SideBar.updateTurtle\lProperties">
<polygon fill="white" stroke="black" points="184,-109 184,-139 322,-139 322,-109 184,-109"/>
<text text-anchor="start" x="192" y="-127" font-family="Helvetica,sans-Serif" font-size="10.00">view.SideBar.updateTurtle</text>
<text text-anchor="middle" x="253" y="-116" font-family="Helvetica,sans-Serif" font-size="10.00">Properties</text>
</a>
</g>
</g>
<!-- Node1&#45;&gt;Node3 -->
<g id="edge2" class="edge"><title>Node1&#45;&gt;Node3</title>
<path fill="none" stroke="midnightblue" d="M131.491,-144.425C144.924,-142.149 159.494,-139.679 173.708,-137.27"/>
<polygon fill="midnightblue" stroke="midnightblue" points="174.699,-140.652 183.974,-135.53 173.529,-133.75 174.699,-140.652"/>
</g>
<!-- Node3&#45;&gt;Node2 -->
<g id="edge6" class="edge"><title>Node3&#45;&gt;Node2</title>
<path fill="none" stroke="midnightblue" d="M277.499,-139.246C298.027,-151.977 328.999,-169.795 358,-181 364.454,-183.493 371.334,-185.729 378.241,-187.714"/>
<polygon fill="midnightblue" stroke="midnightblue" points="377.766,-191.211 388.333,-190.443 379.594,-184.454 377.766,-191.211"/>
</g>
<!-- Node4 -->
<g id="node4" class="node"><title>Node4</title>
<g id="a_node4"><a xlink:href="../../d8/df7/classview_1_1_turtle_view.html#a5da3d4c9dafb77af0db0c589a72eadc8" target="_top" xlink:title="view.TurtleView.getHeading">
<polygon fill="white" stroke="black" points="366,-152.5 366,-171.5 510,-171.5 510,-152.5 366,-152.5"/>
<text text-anchor="middle" x="438" y="-159.5" font-family="Helvetica,sans-Serif" font-size="10.00">view.TurtleView.getHeading</text>
</a>
</g>
</g>
<!-- Node3&#45;&gt;Node4 -->
<g id="edge3" class="edge"><title>Node3&#45;&gt;Node4</title>
<path fill="none" stroke="midnightblue" d="M322.142,-138.15C341.61,-142.192 362.589,-146.549 381.223,-150.418"/>
<polygon fill="midnightblue" stroke="midnightblue" points="380.518,-153.846 391.021,-152.452 381.941,-146.992 380.518,-153.846"/>
</g>
<!-- Node5 -->
<g id="node5" class="node"><title>Node5</title>
<g id="a_node5"><a xlink:href="../../d8/df7/classview_1_1_turtle_view.html#ab5fdc3775e06339f4a68d1b795a81643" target="_top" xlink:title="view.TurtleView.getID">
<polygon fill="white" stroke="black" points="381,-114.5 381,-133.5 495,-133.5 495,-114.5 381,-114.5"/>
<text text-anchor="middle" x="438" y="-121.5" font-family="Helvetica,sans-Serif" font-size="10.00">view.TurtleView.getID</text>
</a>
</g>
</g>
<!-- Node3&#45;&gt;Node5 -->
<g id="edge4" class="edge"><title>Node3&#45;&gt;Node5</title>
<path fill="none" stroke="midnightblue" d="M322.142,-124C337.981,-124 354.82,-124 370.583,-124"/>
<polygon fill="midnightblue" stroke="midnightblue" points="370.765,-127.5 380.765,-124 370.765,-120.5 370.765,-127.5"/>
</g>
<!-- Node6 -->
<g id="node6" class="node"><title>Node6</title>
<g id="a_node6"><a xlink:href="../../d8/df7/classview_1_1_turtle_view.html#a85b9acc922cc69f27c79bf13e3356e09" target="_top" xlink:title="view.TurtleView.getPenPosition">
<polygon fill="white" stroke="black" points="358,-76.5 358,-95.5 518,-95.5 518,-76.5 358,-76.5"/>
<text text-anchor="middle" x="438" y="-83.5" font-family="Helvetica,sans-Serif" font-size="10.00">view.TurtleView.getPenPosition</text>
</a>
</g>
</g>
<!-- Node3&#45;&gt;Node6 -->
<g id="edge5" class="edge"><title>Node3&#45;&gt;Node6</title>
<path fill="none" stroke="midnightblue" d="M322.142,-109.85C341.61,-105.808 362.589,-101.451 381.223,-97.5821"/>
<polygon fill="midnightblue" stroke="midnightblue" points="381.941,-101.008 391.021,-95.5476 380.518,-94.1539 381.941,-101.008"/>
</g>
<!-- Node7 -->
<g id="node7" class="node"><title>Node7</title>
<g id="a_node7"><a xlink:href="../../d8/df7/classview_1_1_turtle_view.html#afddbc74313a99bb100c8c50efa88f330" target="_top" xlink:title="view.TurtleView.getYCoord">
<polygon fill="white" stroke="black" points="369.5,-38.5 369.5,-57.5 506.5,-57.5 506.5,-38.5 369.5,-38.5"/>
<text text-anchor="middle" x="438" y="-45.5" font-family="Helvetica,sans-Serif" font-size="10.00">view.TurtleView.getYCoord</text>
</a>
</g>
</g>
<!-- Node3&#45;&gt;Node7 -->
<g id="edge7" class="edge"><title>Node3&#45;&gt;Node7</title>
<path fill="none" stroke="midnightblue" d="M277.499,-108.754C298.027,-96.0227 328.999,-78.2049 358,-67 364.454,-64.5065 371.334,-62.271 378.241,-60.2863"/>
<polygon fill="midnightblue" stroke="midnightblue" points="379.594,-63.5463 388.333,-57.5568 377.766,-56.7891 379.594,-63.5463"/>
</g>
<!-- Node8 -->
<g id="node8" class="node"><title>Node8</title>
<g id="a_node8"><a xlink:href="../../d8/df7/classview_1_1_turtle_view.html#a5f7b22cd8ab69258535b18920a488b63" target="_top" xlink:title="view.TurtleView.isShowing">
<polygon fill="white" stroke="black" points="370,-0.5 370,-19.5 506,-19.5 506,-0.5 370,-0.5"/>
<text text-anchor="middle" x="438" y="-7.5" font-family="Helvetica,sans-Serif" font-size="10.00">view.TurtleView.isShowing</text>
</a>
</g>
</g>
<!-- Node3&#45;&gt;Node8 -->
<g id="edge8" class="edge"><title>Node3&#45;&gt;Node8</title>
<path fill="none" stroke="midnightblue" d="M266.073,-108.958C283.896,-87.7951 319.338,-49.5281 358,-29 362.479,-26.6216 367.259,-24.5365 372.166,-22.7092"/>
<polygon fill="midnightblue" stroke="midnightblue" points="373.347,-26.0045 381.713,-19.5037 371.119,-19.3685 373.347,-26.0045"/>
</g>
</g>
</svg>
