<?xml version="1.0" encoding="UTF-8" standalone="no"?>
<!DOCTYPE svg PUBLIC "-//W3C//DTD SVG 1.1//EN"
 "http://www.w3.org/Graphics/SVG/1.1/DTD/svg11.dtd">
<!-- Generated by graphviz version 2.36.0 (20140111.2315)
 -->
<!-- Title: view.SLogoView.setPenUp Pages: 1 -->
<svg width="722pt" height="180pt"
 viewBox="0.00 0.00 722.00 180.00" xmlns="http://www.w3.org/2000/svg" xmlns:xlink="http://www.w3.org/1999/xlink">
<g id="graph0" class="graph" transform="scale(1 1) rotate(0) translate(4 176)">
<title>view.SLogoView.setPenUp</title>
<polygon fill="white" stroke="none" points="-4,4 -4,-176 718,-176 718,4 -4,4"/>
<!-- Node1 -->
<g id="node1" class="node"><title>Node1</title>
<polygon fill="#bfbfbf" stroke="black" points="0,-122.5 0,-141.5 140,-141.5 140,-122.5 0,-122.5"/>
<text text-anchor="middle" x="70" y="-129.5" font-family="Helvetica,sans-Serif" font-size="10.00">view.SLogoView.setPenUp</text>
</g>
<!-- Node2 -->
<g id="node2" class="node"><title>Node2</title>
<g id="a_node2"><a xlink:href="../../da/d64/classview_1_1_workspace.html#ad460da1164f039e5ea9a265d446d13fe" target="_top" xlink:title="view.Workspace.getTurtleMap">
<polygon fill="white" stroke="black" points="558.5,-152.5 558.5,-171.5 713.5,-171.5 713.5,-152.5 558.5,-152.5"/>
<text text-anchor="middle" x="636" y="-159.5" font-family="Helvetica,sans-Serif" font-size="10.00">view.Workspace.getTurtleMap</text>
</a>
</g>
</g>
<!-- Node1&#45;&gt;Node2 -->
<g id="edge1" class="edge"><title>Node1&#45;&gt;Node2</title>
<path fill="none" stroke="midnightblue" d="M140.157,-135.679C242.845,-141.141 435.554,-151.391 547.785,-157.361"/>
<polygon fill="midnightblue" stroke="midnightblue" points="547.884,-160.871 558.055,-157.907 548.255,-153.881 547.884,-160.871"/>
</g>
<!-- Node3 -->
<g id="node3" class="node"><title>Node3</title>
<g id="a_node3"><a xlink:href="../../d1/dc7/classview_1_1_side_bar.html#a7d73038dbba05f96990b60664afa2670" target="_top" xlink:title="view.SideBar.updateTurtle\lProperties">
<polygon fill="white" stroke="black" points="176,-91 176,-121 314,-121 314,-91 176,-91"/>
<text text-anchor="start" x="184" y="-109" font-family="Helvetica,sans-Serif" font-size="10.00">view.SideBar.updateTurtle</text>
<text text-anchor="middle" x="245" y="-98" font-family="Helvetica,sans-Serif" font-size="10.00">Properties</text>
</a>
</g>
</g>
<!-- Node1&#45;&gt;Node3 -->
<g id="edge2" class="edge"><title>Node1&#45;&gt;Node3</title>
<path fill="none" stroke="midnightblue" d="M134.436,-122.466C144.667,-120.929 155.363,-119.321 165.891,-117.739"/>
<polygon fill="midnightblue" stroke="midnightblue" points="166.544,-121.18 175.913,-116.233 165.504,-114.258 166.544,-121.18"/>
</g>
<!-- Node4 -->
<g id="node4" class="node"><title>Node4</title>
<g id="a_node4"><a xlink:href="../../d9/d3a/classview_1_1_turtle_properties_view.html#af07bce3cf2bed2814a0fb3812d00b69e" target="_top" xlink:title="view.TurtlePropertiesView.update">
<polygon fill="white" stroke="black" points="350.5,-80.5 350.5,-99.5 521.5,-99.5 521.5,-80.5 350.5,-80.5"/>
<text text-anchor="middle" x="436" y="-87.5" font-family="Helvetica,sans-Serif" font-size="10.00">view.TurtlePropertiesView.update</text>
</a>
</g>
</g>
<!-- Node3&#45;&gt;Node4 -->
<g id="edge3" class="edge"><title>Node3&#45;&gt;Node4</title>
<path fill="none" stroke="midnightblue" d="M314.233,-100.224C322.669,-99.5095 331.408,-98.7697 340.151,-98.0295"/>
<polygon fill="midnightblue" stroke="midnightblue" points="340.73,-101.493 350.399,-97.162 340.139,-94.5181 340.73,-101.493"/>
</g>
<!-- Node4&#45;&gt;Node2 -->
<g id="edge4" class="edge"><title>Node4&#45;&gt;Node2</title>
<path fill="none" stroke="midnightblue" d="M456.293,-99.6806C479.838,-111.205 521.083,-130.463 558,-143 565.334,-145.491 573.162,-147.804 580.914,-149.898"/>
<polygon fill="midnightblue" stroke="midnightblue" points="580.09,-153.3 590.649,-152.429 581.851,-146.525 580.09,-153.3"/>
</g>
<!-- Node5 -->
<g id="node5" class="node"><title>Node5</title>
<g id="a_node5"><a xlink:href="../../d8/df7/classview_1_1_turtle_view.html#ab5fdc3775e06339f4a68d1b795a81643" target="_top" xlink:title="view.TurtleView.getID">
<polygon fill="white" stroke="black" points="579,-114.5 579,-133.5 693,-133.5 693,-114.5 579,-114.5"/>
<text text-anchor="middle" x="636" y="-121.5" font-family="Helvetica,sans-Serif" font-size="10.00">view.TurtleView.getID</text>
</a>
</g>
</g>
<!-- Node4&#45;&gt;Node5 -->
<g id="edge5" class="edge"><title>Node4&#45;&gt;Node5</title>
<path fill="none" stroke="midnightblue" d="M492.417,-99.5161C516.349,-103.626 544.525,-108.464 569.483,-112.75"/>
<polygon fill="midnightblue" stroke="midnightblue" points="569.148,-116.243 579.596,-114.486 570.333,-109.344 569.148,-116.243"/>
</g>
<!-- Node6 -->
<g id="node6" class="node"><title>Node6</title>
<g id="a_node6"><a xlink:href="../../d8/df7/classview_1_1_turtle_view.html#afddbc74313a99bb100c8c50efa88f330" target="_top" xlink:title="view.TurtleView.getYCoord">
<polygon fill="white" stroke="black" points="567.5,-76.5 567.5,-95.5 704.5,-95.5 704.5,-76.5 567.5,-76.5"/>
<text text-anchor="middle" x="636" y="-83.5" font-family="Helvetica,sans-Serif" font-size="10.00">view.TurtleView.getYCoord</text>
</a>
</g>
</g>
<!-- Node4&#45;&gt;Node6 -->
<g id="edge6" class="edge"><title>Node4&#45;&gt;Node6</title>
<path fill="none" stroke="midnightblue" d="M521.544,-88.292C533.413,-88.0523 545.566,-87.8068 557.299,-87.5697"/>
<polygon fill="midnightblue" stroke="midnightblue" points="557.558,-91.0653 567.485,-87.3639 557.416,-84.0667 557.558,-91.0653"/>
</g>
<!-- Node7 -->
<g id="node7" class="node"><title>Node7</title>
<g id="a_node7"><a xlink:href="../../d8/df7/classview_1_1_turtle_view.html#a5da3d4c9dafb77af0db0c589a72eadc8" target="_top" xlink:title="view.TurtleView.getHeading">
<polygon fill="white" stroke="black" points="564,-38.5 564,-57.5 708,-57.5 708,-38.5 564,-38.5"/>
<text text-anchor="middle" x="636" y="-45.5" font-family="Helvetica,sans-Serif" font-size="10.00">view.TurtleView.getHeading</text>
</a>
</g>
</g>
<!-- Node4&#45;&gt;Node7 -->
<g id="edge7" class="edge"><title>Node4&#45;&gt;Node7</title>
<path fill="none" stroke="midnightblue" d="M481.929,-80.4695C510.94,-74.3158 548.886,-66.2667 579.738,-59.7222"/>
<polygon fill="midnightblue" stroke="midnightblue" points="580.85,-63.0643 589.906,-57.5653 579.398,-56.2166 580.85,-63.0643"/>
</g>
<!-- Node8 -->
<g id="node8" class="node"><title>Node8</title>
<g id="a_node8"><a xlink:href="../../d5/dea/classview_1_1_side_table_view.html#adbdf2bf0ebf7fc8ab04db2087baea03a" target="_top" xlink:title="view.SideTableView.getTable">
<polygon fill="white" stroke="black" points="562,-0.5 562,-19.5 710,-19.5 710,-0.5 562,-0.5"/>
<text text-anchor="middle" x="636" y="-7.5" font-family="Helvetica,sans-Serif" font-size="10.00">view.SideTableView.getTable</text>
</a>
</g>
</g>
<!-- Node4&#45;&gt;Node8 -->
<g id="edge8" class="edge"><title>Node4&#45;&gt;Node8</title>
<path fill="none" stroke="midnightblue" d="M453.3,-80.2868C476.055,-67.0799 518.948,-43.4516 558,-29 564.747,-26.5031 571.948,-24.234 579.136,-22.2037"/>
<polygon fill="midnightblue" stroke="midnightblue" points="580.136,-25.5591 588.885,-19.5841 578.32,-18.7988 580.136,-25.5591"/>
</g>
</g>
</svg>
