<?xml version="1.0" encoding="UTF-8" standalone="no"?>
<!DOCTYPE svg PUBLIC "-//W3C//DTD SVG 1.1//EN"
 "http://www.w3.org/Graphics/SVG/1.1/DTD/svg11.dtd">
<!-- Generated by graphviz version 2.36.0 (20140111.2315)
 -->
<!-- Title: view.SLogoView.configureAddTurtlesButton Pages: 1 -->
<svg width="1278pt" height="66pt"
 viewBox="0.00 0.00 1278.00 66.00" xmlns="http://www.w3.org/2000/svg" xmlns:xlink="http://www.w3.org/1999/xlink">
<g id="graph0" class="graph" transform="scale(1 1) rotate(0) translate(4 62)">
<title>view.SLogoView.configureAddTurtlesButton</title>
<polygon fill="white" stroke="none" points="-4,4 -4,-62 1274,-62 1274,4 -4,4"/>
<!-- Node1 -->
<g id="node1" class="node"><title>Node1</title>
<polygon fill="#bfbfbf" stroke="black" points="0.5,-14 0.5,-44 137.5,-44 137.5,-14 0.5,-14"/>
<text text-anchor="start" x="8.5" y="-32" font-family="Helvetica,sans-Serif" font-size="10.00">view.SLogoView.configure</text>
<text text-anchor="middle" x="69" y="-21" font-family="Helvetica,sans-Serif" font-size="10.00">AddTurtlesButton</text>
</g>
<!-- Node2 -->
<g id="node2" class="node"><title>Node2</title>
<g id="a_node2"><a xlink:href="../../d6/de7/classview_1_1_s_logo_view.html#ae0050481c9168dd8eeb434d9aa79b047" target="_top" xlink:title="view.SLogoView.configureUI">
<polygon fill="white" stroke="black" points="174.5,-19.5 174.5,-38.5 321.5,-38.5 321.5,-19.5 174.5,-19.5"/>
<text text-anchor="middle" x="248" y="-26.5" font-family="Helvetica,sans-Serif" font-size="10.00">view.SLogoView.configureUI</text>
</a>
</g>
</g>
<!-- Node1&#45;&gt;Node2 -->
<g id="edge1" class="edge"><title>Node1&#45;&gt;Node2</title>
<path fill="none" stroke="midnightblue" d="M147.91,-29C156.702,-29 165.637,-29 174.358,-29"/>
<polygon fill="midnightblue" stroke="midnightblue" points="147.674,-25.5001 137.674,-29 147.674,-32.5001 147.674,-25.5001"/>
</g>
<!-- Node3 -->
<g id="node3" class="node"><title>Node3</title>
<g id="a_node3"><a xlink:href="../../d1/d75/classview_1_1_main_view.html#ade3718ede33fa2086649c8b3cf75d2f9" target="_top" xlink:title="view.MainView.initTabs">
<polygon fill="white" stroke="black" points="539.5,-38.5 539.5,-57.5 660.5,-57.5 660.5,-38.5 539.5,-38.5"/>
<text text-anchor="middle" x="600" y="-45.5" font-family="Helvetica,sans-Serif" font-size="10.00">view.MainView.initTabs</text>
</a>
</g>
</g>
<!-- Node2&#45;&gt;Node3 -->
<g id="edge2" class="edge"><title>Node2&#45;&gt;Node3</title>
<path fill="none" stroke="midnightblue" d="M331.556,-33.4816C395.367,-36.9457 482.18,-41.6584 539.361,-44.7624"/>
<polygon fill="midnightblue" stroke="midnightblue" points="331.695,-29.9841 321.52,-32.9368 331.316,-36.9738 331.695,-29.9841"/>
</g>
<!-- Node5 -->
<g id="node5" class="node"><title>Node5</title>
<g id="a_node5"><a xlink:href="../../d1/d75/classview_1_1_main_view.html#a39a2b399924a553ccd89dd2a2e6ea208" target="_top" xlink:title="view.MainView.newTab">
<polygon fill="white" stroke="black" points="358,-0.5 358,-19.5 478,-19.5 478,-0.5 358,-0.5"/>
<text text-anchor="middle" x="418" y="-7.5" font-family="Helvetica,sans-Serif" font-size="10.00">view.MainView.newTab</text>
</a>
</g>
</g>
<!-- Node2&#45;&gt;Node5 -->
<g id="edge4" class="edge"><title>Node2&#45;&gt;Node5</title>
<path fill="none" stroke="midnightblue" d="M331.654,-19.6523C340.487,-18.6533 349.339,-17.6521 357.821,-16.6928"/>
<polygon fill="midnightblue" stroke="midnightblue" points="331.253,-16.1751 321.71,-20.7768 332.04,-23.1308 331.253,-16.1751"/>
</g>
<!-- Node4 -->
<g id="node4" class="node"><title>Node4</title>
<g id="a_node4"><a xlink:href="../../d1/d75/classview_1_1_main_view.html#a9e27015c007bed90f32c79fc1187083f" target="_top" xlink:title="view.MainView.MainView">
<polygon fill="white" stroke="black" points="1140,-19.5 1140,-38.5 1270,-38.5 1270,-19.5 1140,-19.5"/>
<text text-anchor="middle" x="1205" y="-26.5" font-family="Helvetica,sans-Serif" font-size="10.00">view.MainView.MainView</text>
</a>
</g>
</g>
<!-- Node3&#45;&gt;Node4 -->
<g id="edge3" class="edge"><title>Node3&#45;&gt;Node4</title>
<path fill="none" stroke="midnightblue" d="M670.741,-45.8025C788.604,-42.0888 1025.48,-34.625 1139.62,-31.0286"/>
<polygon fill="midnightblue" stroke="midnightblue" points="670.63,-42.3042 660.745,-46.1175 670.85,-49.3007 670.63,-42.3042"/>
</g>
<!-- Node6 -->
<g id="node6" class="node"><title>Node6</title>
<g id="a_node6"><a xlink:href="../../d1/d75/classview_1_1_main_view.html#a0424800b5057be73f94e16ef2e1e2b33" target="_top" xlink:title="view.MainView.configureFileMenu">
<polygon fill="white" stroke="black" points="514.5,-0.5 514.5,-19.5 685.5,-19.5 685.5,-0.5 514.5,-0.5"/>
<text text-anchor="middle" x="600" y="-7.5" font-family="Helvetica,sans-Serif" font-size="10.00">view.MainView.configureFileMenu</text>
</a>
</g>
</g>
<!-- Node5&#45;&gt;Node6 -->
<g id="edge5" class="edge"><title>Node5&#45;&gt;Node6</title>
<path fill="none" stroke="midnightblue" d="M488.551,-10C496.961,-10 505.623,-10 514.221,-10"/>
<polygon fill="midnightblue" stroke="midnightblue" points="488.438,-6.5001 478.438,-10 488.438,-13.5001 488.438,-6.5001"/>
</g>
<!-- Node7 -->
<g id="node7" class="node"><title>Node7</title>
<g id="a_node7"><a xlink:href="../../d1/d75/classview_1_1_main_view.html#a200c2c8e08e038e2ea86acc40c17d8d2" target="_top" xlink:title="view.MainView.configureTopMenu">
<polygon fill="white" stroke="black" points="722,-0.5 722,-19.5 894,-19.5 894,-0.5 722,-0.5"/>
<text text-anchor="middle" x="808" y="-7.5" font-family="Helvetica,sans-Serif" font-size="10.00">view.MainView.configureTopMenu</text>
</a>
</g>
</g>
<!-- Node6&#45;&gt;Node7 -->
<g id="edge6" class="edge"><title>Node6&#45;&gt;Node7</title>
<path fill="none" stroke="midnightblue" d="M695.858,-10C704.572,-10 713.364,-10 721.983,-10"/>
<polygon fill="midnightblue" stroke="midnightblue" points="695.68,-6.5001 685.68,-10 695.68,-13.5001 695.68,-6.5001"/>
</g>
<!-- Node8 -->
<g id="node8" class="node"><title>Node8</title>
<g id="a_node8"><a xlink:href="../../d1/d75/classview_1_1_main_view.html#aff9e267e9368512a16e425f08d7b3ea0" target="_top" xlink:title="view.MainView.initRowConstraints">
<polygon fill="white" stroke="black" points="930.5,-0.5 930.5,-19.5 1103.5,-19.5 1103.5,-0.5 930.5,-0.5"/>
<text text-anchor="middle" x="1017" y="-7.5" font-family="Helvetica,sans-Serif" font-size="10.00">view.MainView.initRowConstraints</text>
</a>
</g>
</g>
<!-- Node7&#45;&gt;Node8 -->
<g id="edge7" class="edge"><title>Node7&#45;&gt;Node8</title>
<path fill="none" stroke="midnightblue" d="M904.224,-10C912.898,-10 921.651,-10 930.236,-10"/>
<polygon fill="midnightblue" stroke="midnightblue" points="904.091,-6.5001 894.091,-10 904.091,-13.5001 904.091,-6.5001"/>
</g>
<!-- Node8&#45;&gt;Node4 -->
<g id="edge8" class="edge"><title>Node8&#45;&gt;Node4</title>
<path fill="none" stroke="midnightblue" d="M1113.68,-19.774C1122.57,-20.6819 1131.43,-21.5866 1139.92,-22.4546"/>
<polygon fill="midnightblue" stroke="midnightblue" points="1113.95,-16.2837 1103.65,-18.7492 1113.24,-23.2474 1113.95,-16.2837"/>
</g>
</g>
</svg>
