<?xml version="1.0" encoding="UTF-8" standalone="no"?>
<!DOCTYPE svg PUBLIC "-//W3C//DTD SVG 1.1//EN"
 "http://www.w3.org/Graphics/SVG/1.1/DTD/svg11.dtd">
<!-- Generated by graphviz version 2.36.0 (20140111.2315)
 -->
<!-- Title: view.SLogoView.updateVariables Pages: 1 -->
<svg width="726pt" height="104pt"
 viewBox="0.00 0.00 726.00 104.00" xmlns="http://www.w3.org/2000/svg" xmlns:xlink="http://www.w3.org/1999/xlink">
<g id="graph0" class="graph" transform="scale(1 1) rotate(0) translate(4 100)">
<title>view.SLogoView.updateVariables</title>
<polygon fill="white" stroke="none" points="-4,4 -4,-100 722,-100 722,4 -4,4"/>
<!-- Node1 -->
<g id="node1" class="node"><title>Node1</title>
<polygon fill="#bfbfbf" stroke="black" points="0,-38.5 0,-57.5 170,-57.5 170,-38.5 0,-38.5"/>
<text text-anchor="middle" x="85" y="-45.5" font-family="Helvetica,sans-Serif" font-size="10.00">view.SLogoView.updateVariables</text>
</g>
<!-- Node2 -->
<g id="node2" class="node"><title>Node2</title>
<g id="a_node2"><a xlink:href="../../d1/dc7/classview_1_1_side_bar.html#a9ee7c3d1f9e3f461361703420eb09b26" target="_top" xlink:title="view.SideBar.updateVariable">
<polygon fill="white" stroke="black" points="206.5,-38.5 206.5,-57.5 357.5,-57.5 357.5,-38.5 206.5,-38.5"/>
<text text-anchor="middle" x="282" y="-45.5" font-family="Helvetica,sans-Serif" font-size="10.00">view.SideBar.updateVariable</text>
</a>
</g>
</g>
<!-- Node1&#45;&gt;Node2 -->
<g id="edge1" class="edge"><title>Node1&#45;&gt;Node2</title>
<path fill="none" stroke="midnightblue" d="M170.112,-48C178.781,-48 187.593,-48 196.268,-48"/>
<polygon fill="midnightblue" stroke="midnightblue" points="196.372,-51.5001 206.372,-48 196.372,-44.5001 196.372,-51.5001"/>
</g>
<!-- Node3 -->
<g id="node3" class="node"><title>Node3</title>
<g id="a_node3"><a xlink:href="../../d9/dd3/classview_1_1_variables_view.html#aebedf2b729065ddab04f33f4e217d785" target="_top" xlink:title="view.VariablesView.update">
<polygon fill="white" stroke="black" points="394,-38.5 394,-57.5 534,-57.5 534,-38.5 394,-38.5"/>
<text text-anchor="middle" x="464" y="-45.5" font-family="Helvetica,sans-Serif" font-size="10.00">view.VariablesView.update</text>
</a>
</g>
</g>
<!-- Node2&#45;&gt;Node3 -->
<g id="edge2" class="edge"><title>Node2&#45;&gt;Node3</title>
<path fill="none" stroke="midnightblue" d="M357.512,-48C366.132,-48 374.947,-48 383.629,-48"/>
<polygon fill="midnightblue" stroke="midnightblue" points="383.739,-51.5001 393.739,-48 383.739,-44.5001 383.739,-51.5001"/>
</g>
<!-- Node4 -->
<g id="node4" class="node"><title>Node4</title>
<g id="a_node4"><a xlink:href="../../d5/dea/classview_1_1_side_table_view.html#adbdf2bf0ebf7fc8ab04db2087baea03a" target="_top" xlink:title="view.SideTableView.getTable">
<polygon fill="white" stroke="black" points="570,-76.5 570,-95.5 718,-95.5 718,-76.5 570,-76.5"/>
<text text-anchor="middle" x="644" y="-83.5" font-family="Helvetica,sans-Serif" font-size="10.00">view.SideTableView.getTable</text>
</a>
</g>
</g>
<!-- Node3&#45;&gt;Node4 -->
<g id="edge3" class="edge"><title>Node3&#45;&gt;Node4</title>
<path fill="none" stroke="midnightblue" d="M509.917,-57.589C533.829,-62.6939 563.421,-69.0113 588.625,-74.3918"/>
<polygon fill="midnightblue" stroke="midnightblue" points="587.896,-77.815 598.406,-76.4799 589.357,-70.9692 587.896,-77.815"/>
</g>
<!-- Node5 -->
<g id="node5" class="node"><title>Node5</title>
<g id="a_node5"><a xlink:href="../../d6/d58/classview_1_1_property.html#a51a9b0be72a7421596996f752b75ad93" target="_top" xlink:title="view.Property.getName">
<polygon fill="white" stroke="black" points="581,-38.5 581,-57.5 707,-57.5 707,-38.5 581,-38.5"/>
<text text-anchor="middle" x="644" y="-45.5" font-family="Helvetica,sans-Serif" font-size="10.00">view.Property.getName</text>
</a>
</g>
</g>
<!-- Node3&#45;&gt;Node5 -->
<g id="edge4" class="edge"><title>Node3&#45;&gt;Node5</title>
<path fill="none" stroke="midnightblue" d="M534.074,-48C546.137,-48 558.715,-48 570.858,-48"/>
<polygon fill="midnightblue" stroke="midnightblue" points="570.935,-51.5001 580.935,-48 570.935,-44.5001 570.935,-51.5001"/>
</g>
<!-- Node6 -->
<g id="node6" class="node"><title>Node6</title>
<g id="a_node6"><a xlink:href="../../d6/d58/classview_1_1_property.html#ac169f9069f86f72b224cf0b1ccdd1c3c" target="_top" xlink:title="view.Property.getValue">
<polygon fill="white" stroke="black" points="582.5,-0.5 582.5,-19.5 705.5,-19.5 705.5,-0.5 582.5,-0.5"/>
<text text-anchor="middle" x="644" y="-7.5" font-family="Helvetica,sans-Serif" font-size="10.00">view.Property.getValue</text>
</a>
</g>
</g>
<!-- Node3&#45;&gt;Node6 -->
<g id="edge5" class="edge"><title>Node3&#45;&gt;Node6</title>
<path fill="none" stroke="midnightblue" d="M509.917,-38.411C533.829,-33.3061 563.421,-26.9887 588.625,-21.6082"/>
<polygon fill="midnightblue" stroke="midnightblue" points="589.357,-25.0308 598.406,-19.5201 587.896,-18.185 589.357,-25.0308"/>
</g>
</g>
</svg>
