<?xml version="1.0" encoding="UTF-8" standalone="no"?>
<!DOCTYPE svg PUBLIC "-//W3C//DTD SVG 1.1//EN"
 "http://www.w3.org/Graphics/SVG/1.1/DTD/svg11.dtd">
<!-- Generated by graphviz version 2.36.0 (20140111.2315)
 -->
<!-- Title: view.SLogoView.towards Pages: 1 -->
<svg width="898pt" height="180pt"
 viewBox="0.00 0.00 898.00 180.00" xmlns="http://www.w3.org/2000/svg" xmlns:xlink="http://www.w3.org/1999/xlink">
<g id="graph0" class="graph" transform="scale(1 1) rotate(0) translate(4 176)">
<title>view.SLogoView.towards</title>
<polygon fill="white" stroke="none" points="-4,4 -4,-176 894,-176 894,4 -4,4"/>
<!-- Node1 -->
<g id="node1" class="node"><title>Node1</title>
<polygon fill="#bfbfbf" stroke="black" points="0.5,-122.5 0.5,-141.5 131.5,-141.5 131.5,-122.5 0.5,-122.5"/>
<text text-anchor="middle" x="66" y="-129.5" font-family="Helvetica,sans-Serif" font-size="10.00">view.SLogoView.towards</text>
</g>
<!-- Node2 -->
<g id="node2" class="node"><title>Node2</title>
<g id="a_node2"><a xlink:href="../../d6/de7/classview_1_1_s_logo_view.html#ae7ad67f4b629b134cb805842a20f4050" target="_top" xlink:title="view.SLogoView.setHeading">
<polygon fill="white" stroke="black" points="168,-122.5 168,-141.5 316,-141.5 316,-122.5 168,-122.5"/>
<text text-anchor="middle" x="242" y="-129.5" font-family="Helvetica,sans-Serif" font-size="10.00">view.SLogoView.setHeading</text>
</a>
</g>
</g>
<!-- Node1&#45;&gt;Node2 -->
<g id="edge1" class="edge"><title>Node1&#45;&gt;Node2</title>
<path fill="none" stroke="midnightblue" d="M131.791,-132C140.264,-132 149.037,-132 157.761,-132"/>
<polygon fill="midnightblue" stroke="midnightblue" points="157.957,-135.5 167.957,-132 157.957,-128.5 157.957,-135.5"/>
</g>
<!-- Node3 -->
<g id="node3" class="node"><title>Node3</title>
<g id="a_node3"><a xlink:href="../../da/d64/classview_1_1_workspace.html#ad460da1164f039e5ea9a265d446d13fe" target="_top" xlink:title="view.Workspace.getTurtleMap">
<polygon fill="white" stroke="black" points="734.5,-152.5 734.5,-171.5 889.5,-171.5 889.5,-152.5 734.5,-152.5"/>
<text text-anchor="middle" x="812" y="-159.5" font-family="Helvetica,sans-Serif" font-size="10.00">view.Workspace.getTurtleMap</text>
</a>
</g>
</g>
<!-- Node2&#45;&gt;Node3 -->
<g id="edge2" class="edge"><title>Node2&#45;&gt;Node3</title>
<path fill="none" stroke="midnightblue" d="M316.093,-135.861C420.547,-141.378 612.203,-151.5 723.884,-157.399"/>
<polygon fill="midnightblue" stroke="midnightblue" points="723.934,-160.906 734.105,-157.939 724.304,-153.916 723.934,-160.906"/>
</g>
<!-- Node4 -->
<g id="node4" class="node"><title>Node4</title>
<g id="a_node4"><a xlink:href="../../d1/dc7/classview_1_1_side_bar.html#a7d73038dbba05f96990b60664afa2670" target="_top" xlink:title="view.SideBar.updateTurtle\lProperties">
<polygon fill="white" stroke="black" points="352,-91 352,-121 490,-121 490,-91 352,-91"/>
<text text-anchor="start" x="360" y="-109" font-family="Helvetica,sans-Serif" font-size="10.00">view.SideBar.updateTurtle</text>
<text text-anchor="middle" x="421" y="-98" font-family="Helvetica,sans-Serif" font-size="10.00">Properties</text>
</a>
</g>
</g>
<!-- Node2&#45;&gt;Node4 -->
<g id="edge3" class="edge"><title>Node2&#45;&gt;Node4</title>
<path fill="none" stroke="midnightblue" d="M307.903,-122.466C318.968,-120.841 330.564,-119.137 341.927,-117.468"/>
<polygon fill="midnightblue" stroke="midnightblue" points="342.449,-120.929 351.834,-116.013 341.432,-114.004 342.449,-120.929"/>
</g>
<!-- Node5 -->
<g id="node5" class="node"><title>Node5</title>
<g id="a_node5"><a xlink:href="../../d9/d3a/classview_1_1_turtle_properties_view.html#af07bce3cf2bed2814a0fb3812d00b69e" target="_top" xlink:title="view.TurtlePropertiesView.update">
<polygon fill="white" stroke="black" points="526.5,-80.5 526.5,-99.5 697.5,-99.5 697.5,-80.5 526.5,-80.5"/>
<text text-anchor="middle" x="612" y="-87.5" font-family="Helvetica,sans-Serif" font-size="10.00">view.TurtlePropertiesView.update</text>
</a>
</g>
</g>
<!-- Node4&#45;&gt;Node5 -->
<g id="edge4" class="edge"><title>Node4&#45;&gt;Node5</title>
<path fill="none" stroke="midnightblue" d="M490.233,-100.224C498.669,-99.5095 507.408,-98.7697 516.151,-98.0295"/>
<polygon fill="midnightblue" stroke="midnightblue" points="516.73,-101.493 526.399,-97.162 516.139,-94.5181 516.73,-101.493"/>
</g>
<!-- Node5&#45;&gt;Node3 -->
<g id="edge5" class="edge"><title>Node5&#45;&gt;Node3</title>
<path fill="none" stroke="midnightblue" d="M632.293,-99.6806C655.838,-111.205 697.083,-130.463 734,-143 741.334,-145.491 749.162,-147.804 756.914,-149.898"/>
<polygon fill="midnightblue" stroke="midnightblue" points="756.09,-153.3 766.649,-152.429 757.851,-146.525 756.09,-153.3"/>
</g>
<!-- Node6 -->
<g id="node6" class="node"><title>Node6</title>
<g id="a_node6"><a xlink:href="../../d8/df7/classview_1_1_turtle_view.html#ab5fdc3775e06339f4a68d1b795a81643" target="_top" xlink:title="view.TurtleView.getID">
<polygon fill="white" stroke="black" points="755,-114.5 755,-133.5 869,-133.5 869,-114.5 755,-114.5"/>
<text text-anchor="middle" x="812" y="-121.5" font-family="Helvetica,sans-Serif" font-size="10.00">view.TurtleView.getID</text>
</a>
</g>
</g>
<!-- Node5&#45;&gt;Node6 -->
<g id="edge6" class="edge"><title>Node5&#45;&gt;Node6</title>
<path fill="none" stroke="midnightblue" d="M668.417,-99.5161C692.349,-103.626 720.525,-108.464 745.483,-112.75"/>
<polygon fill="midnightblue" stroke="midnightblue" points="745.148,-116.243 755.596,-114.486 746.333,-109.344 745.148,-116.243"/>
</g>
<!-- Node7 -->
<g id="node7" class="node"><title>Node7</title>
<g id="a_node7"><a xlink:href="../../d8/df7/classview_1_1_turtle_view.html#afddbc74313a99bb100c8c50efa88f330" target="_top" xlink:title="view.TurtleView.getYCoord">
<polygon fill="white" stroke="black" points="743.5,-76.5 743.5,-95.5 880.5,-95.5 880.5,-76.5 743.5,-76.5"/>
<text text-anchor="middle" x="812" y="-83.5" font-family="Helvetica,sans-Serif" font-size="10.00">view.TurtleView.getYCoord</text>
</a>
</g>
</g>
<!-- Node5&#45;&gt;Node7 -->
<g id="edge7" class="edge"><title>Node5&#45;&gt;Node7</title>
<path fill="none" stroke="midnightblue" d="M697.544,-88.292C709.413,-88.0523 721.566,-87.8068 733.299,-87.5697"/>
<polygon fill="midnightblue" stroke="midnightblue" points="733.558,-91.0653 743.485,-87.3639 733.416,-84.0667 733.558,-91.0653"/>
</g>
<!-- Node8 -->
<g id="node8" class="node"><title>Node8</title>
<g id="a_node8"><a xlink:href="../../d8/df7/classview_1_1_turtle_view.html#a5da3d4c9dafb77af0db0c589a72eadc8" target="_top" xlink:title="view.TurtleView.getHeading">
<polygon fill="white" stroke="black" points="740,-38.5 740,-57.5 884,-57.5 884,-38.5 740,-38.5"/>
<text text-anchor="middle" x="812" y="-45.5" font-family="Helvetica,sans-Serif" font-size="10.00">view.TurtleView.getHeading</text>
</a>
</g>
</g>
<!-- Node5&#45;&gt;Node8 -->
<g id="edge8" class="edge"><title>Node5&#45;&gt;Node8</title>
<path fill="none" stroke="midnightblue" d="M657.929,-80.4695C686.94,-74.3158 724.886,-66.2667 755.738,-59.7222"/>
<polygon fill="midnightblue" stroke="midnightblue" points="756.85,-63.0643 765.906,-57.5653 755.398,-56.2166 756.85,-63.0643"/>
</g>
<!-- Node9 -->
<g id="node9" class="node"><title>Node9</title>
<g id="a_node9"><a xlink:href="../../d5/dea/classview_1_1_side_table_view.html#adbdf2bf0ebf7fc8ab04db2087baea03a" target="_top" xlink:title="view.SideTableView.getTable">
<polygon fill="white" stroke="black" points="738,-0.5 738,-19.5 886,-19.5 886,-0.5 738,-0.5"/>
<text text-anchor="middle" x="812" y="-7.5" font-family="Helvetica,sans-Serif" font-size="10.00">view.SideTableView.getTable</text>
</a>
</g>
</g>
<!-- Node5&#45;&gt;Node9 -->
<g id="edge9" class="edge"><title>Node5&#45;&gt;Node9</title>
<path fill="none" stroke="midnightblue" d="M629.3,-80.2868C652.055,-67.0799 694.948,-43.4516 734,-29 740.747,-26.5031 747.948,-24.234 755.136,-22.2037"/>
<polygon fill="midnightblue" stroke="midnightblue" points="756.136,-25.5591 764.885,-19.5841 754.32,-18.7988 756.136,-25.5591"/>
</g>
</g>
</svg>
