<?xml version="1.0" encoding="UTF-8" standalone="no"?>
<!DOCTYPE svg PUBLIC "-//W3C//DTD SVG 1.1//EN"
 "http://www.w3.org/Graphics/SVG/1.1/DTD/svg11.dtd">
<!-- Generated by graphviz version 2.36.0 (20140111.2315)
 -->
<!-- Title: view.SLogoView.towards Pages: 1 -->
<svg width="694pt" height="218pt"
 viewBox="0.00 0.00 694.00 218.00" xmlns="http://www.w3.org/2000/svg" xmlns:xlink="http://www.w3.org/1999/xlink">
<g id="graph0" class="graph" transform="scale(1 1) rotate(0) translate(4 214)">
<title>view.SLogoView.towards</title>
<polygon fill="white" stroke="none" points="-4,4 -4,-214 690,-214 690,4 -4,4"/>
<!-- Node1 -->
<g id="node1" class="node"><title>Node1</title>
<polygon fill="#bfbfbf" stroke="black" points="0.5,-144.5 0.5,-163.5 131.5,-163.5 131.5,-144.5 0.5,-144.5"/>
<text text-anchor="middle" x="66" y="-151.5" font-family="Helvetica,sans-Serif" font-size="10.00">view.SLogoView.towards</text>
</g>
<!-- Node2 -->
<g id="node2" class="node"><title>Node2</title>
<g id="a_node2"><a xlink:href="../../d6/de7/classview_1_1_s_logo_view.html#ae7ad67f4b629b134cb805842a20f4050" target="_top" xlink:title="view.SLogoView.setHeading">
<polygon fill="white" stroke="black" points="168,-144.5 168,-163.5 316,-163.5 316,-144.5 168,-144.5"/>
<text text-anchor="middle" x="242" y="-151.5" font-family="Helvetica,sans-Serif" font-size="10.00">view.SLogoView.setHeading</text>
</a>
</g>
</g>
<!-- Node1&#45;&gt;Node2 -->
<g id="edge1" class="edge"><title>Node1&#45;&gt;Node2</title>
<path fill="none" stroke="midnightblue" d="M131.791,-154C140.264,-154 149.037,-154 157.761,-154"/>
<polygon fill="midnightblue" stroke="midnightblue" points="157.957,-157.5 167.957,-154 157.957,-150.5 157.957,-157.5"/>
</g>
<!-- Node3 -->
<g id="node3" class="node"><title>Node3</title>
<g id="a_node3"><a xlink:href="../../da/d64/classview_1_1_workspace.html#ad460da1164f039e5ea9a265d446d13fe" target="_top" xlink:title="view.Workspace.getTurtleMap">
<polygon fill="white" stroke="black" points="528.5,-190.5 528.5,-209.5 683.5,-209.5 683.5,-190.5 528.5,-190.5"/>
<text text-anchor="middle" x="606" y="-197.5" font-family="Helvetica,sans-Serif" font-size="10.00">view.Workspace.getTurtleMap</text>
</a>
</g>
</g>
<!-- Node2&#45;&gt;Node3 -->
<g id="edge2" class="edge"><title>Node2&#45;&gt;Node3</title>
<path fill="none" stroke="midnightblue" d="M316.256,-163.309C375.162,-170.794 458.007,-181.321 519.859,-189.181"/>
<polygon fill="midnightblue" stroke="midnightblue" points="519.625,-192.679 529.987,-190.468 520.508,-185.735 519.625,-192.679"/>
</g>
<!-- Node4 -->
<g id="node4" class="node"><title>Node4</title>
<g id="a_node4"><a xlink:href="../../d1/dc7/classview_1_1_side_bar.html#a7d73038dbba05f96990b60664afa2670" target="_top" xlink:title="view.SideBar.updateTurtle\lProperties">
<polygon fill="white" stroke="black" points="352,-109 352,-139 490,-139 490,-109 352,-109"/>
<text text-anchor="start" x="360" y="-127" font-family="Helvetica,sans-Serif" font-size="10.00">view.SideBar.updateTurtle</text>
<text text-anchor="middle" x="421" y="-116" font-family="Helvetica,sans-Serif" font-size="10.00">Properties</text>
</a>
</g>
</g>
<!-- Node2&#45;&gt;Node4 -->
<g id="edge3" class="edge"><title>Node2&#45;&gt;Node4</title>
<path fill="none" stroke="midnightblue" d="M299.491,-144.425C312.924,-142.149 327.494,-139.679 341.708,-137.27"/>
<polygon fill="midnightblue" stroke="midnightblue" points="342.699,-140.652 351.974,-135.53 341.529,-133.75 342.699,-140.652"/>
</g>
<!-- Node4&#45;&gt;Node3 -->
<g id="edge7" class="edge"><title>Node4&#45;&gt;Node3</title>
<path fill="none" stroke="midnightblue" d="M445.499,-139.246C466.027,-151.977 496.999,-169.795 526,-181 532.454,-183.493 539.334,-185.729 546.241,-187.714"/>
<polygon fill="midnightblue" stroke="midnightblue" points="545.766,-191.211 556.333,-190.443 547.594,-184.454 545.766,-191.211"/>
</g>
<!-- Node5 -->
<g id="node5" class="node"><title>Node5</title>
<g id="a_node5"><a xlink:href="../../d8/df7/classview_1_1_turtle_view.html#a5da3d4c9dafb77af0db0c589a72eadc8" target="_top" xlink:title="view.TurtleView.getHeading">
<polygon fill="white" stroke="black" points="534,-152.5 534,-171.5 678,-171.5 678,-152.5 534,-152.5"/>
<text text-anchor="middle" x="606" y="-159.5" font-family="Helvetica,sans-Serif" font-size="10.00">view.TurtleView.getHeading</text>
</a>
</g>
</g>
<!-- Node4&#45;&gt;Node5 -->
<g id="edge4" class="edge"><title>Node4&#45;&gt;Node5</title>
<path fill="none" stroke="midnightblue" d="M490.142,-138.15C509.61,-142.192 530.589,-146.549 549.223,-150.418"/>
<polygon fill="midnightblue" stroke="midnightblue" points="548.518,-153.846 559.021,-152.452 549.941,-146.992 548.518,-153.846"/>
</g>
<!-- Node6 -->
<g id="node6" class="node"><title>Node6</title>
<g id="a_node6"><a xlink:href="../../d8/df7/classview_1_1_turtle_view.html#ab5fdc3775e06339f4a68d1b795a81643" target="_top" xlink:title="view.TurtleView.getID">
<polygon fill="white" stroke="black" points="549,-114.5 549,-133.5 663,-133.5 663,-114.5 549,-114.5"/>
<text text-anchor="middle" x="606" y="-121.5" font-family="Helvetica,sans-Serif" font-size="10.00">view.TurtleView.getID</text>
</a>
</g>
</g>
<!-- Node4&#45;&gt;Node6 -->
<g id="edge5" class="edge"><title>Node4&#45;&gt;Node6</title>
<path fill="none" stroke="midnightblue" d="M490.142,-124C505.981,-124 522.82,-124 538.583,-124"/>
<polygon fill="midnightblue" stroke="midnightblue" points="538.765,-127.5 548.765,-124 538.765,-120.5 538.765,-127.5"/>
</g>
<!-- Node7 -->
<g id="node7" class="node"><title>Node7</title>
<g id="a_node7"><a xlink:href="../../d8/df7/classview_1_1_turtle_view.html#a85b9acc922cc69f27c79bf13e3356e09" target="_top" xlink:title="view.TurtleView.getPenPosition">
<polygon fill="white" stroke="black" points="526,-76.5 526,-95.5 686,-95.5 686,-76.5 526,-76.5"/>
<text text-anchor="middle" x="606" y="-83.5" font-family="Helvetica,sans-Serif" font-size="10.00">view.TurtleView.getPenPosition</text>
</a>
</g>
</g>
<!-- Node4&#45;&gt;Node7 -->
<g id="edge6" class="edge"><title>Node4&#45;&gt;Node7</title>
<path fill="none" stroke="midnightblue" d="M490.142,-109.85C509.61,-105.808 530.589,-101.451 549.223,-97.5821"/>
<polygon fill="midnightblue" stroke="midnightblue" points="549.941,-101.008 559.021,-95.5476 548.518,-94.1539 549.941,-101.008"/>
</g>
<!-- Node8 -->
<g id="node8" class="node"><title>Node8</title>
<g id="a_node8"><a xlink:href="../../d8/df7/classview_1_1_turtle_view.html#afddbc74313a99bb100c8c50efa88f330" target="_top" xlink:title="view.TurtleView.getYCoord">
<polygon fill="white" stroke="black" points="537.5,-38.5 537.5,-57.5 674.5,-57.5 674.5,-38.5 537.5,-38.5"/>
<text text-anchor="middle" x="606" y="-45.5" font-family="Helvetica,sans-Serif" font-size="10.00">view.TurtleView.getYCoord</text>
</a>
</g>
</g>
<!-- Node4&#45;&gt;Node8 -->
<g id="edge8" class="edge"><title>Node4&#45;&gt;Node8</title>
<path fill="none" stroke="midnightblue" d="M445.499,-108.754C466.027,-96.0227 496.999,-78.2049 526,-67 532.454,-64.5065 539.334,-62.271 546.241,-60.2863"/>
<polygon fill="midnightblue" stroke="midnightblue" points="547.594,-63.5463 556.333,-57.5568 545.766,-56.7891 547.594,-63.5463"/>
</g>
<!-- Node9 -->
<g id="node9" class="node"><title>Node9</title>
<g id="a_node9"><a xlink:href="../../d8/df7/classview_1_1_turtle_view.html#a5f7b22cd8ab69258535b18920a488b63" target="_top" xlink:title="view.TurtleView.isShowing">
<polygon fill="white" stroke="black" points="538,-0.5 538,-19.5 674,-19.5 674,-0.5 538,-0.5"/>
<text text-anchor="middle" x="606" y="-7.5" font-family="Helvetica,sans-Serif" font-size="10.00">view.TurtleView.isShowing</text>
</a>
</g>
</g>
<!-- Node4&#45;&gt;Node9 -->
<g id="edge9" class="edge"><title>Node4&#45;&gt;Node9</title>
<path fill="none" stroke="midnightblue" d="M434.073,-108.958C451.896,-87.7951 487.338,-49.5281 526,-29 530.479,-26.6216 535.259,-24.5365 540.166,-22.7092"/>
<polygon fill="midnightblue" stroke="midnightblue" points="541.347,-26.0045 549.713,-19.5037 539.119,-19.3685 541.347,-26.0045"/>
</g>
</g>
</svg>
