<?xml version="1.0" encoding="UTF-8" standalone="no"?>
<!DOCTYPE svg PUBLIC "-//W3C//DTD SVG 1.1//EN"
 "http://www.w3.org/Graphics/SVG/1.1/DTD/svg11.dtd">
<!-- Generated by graphviz version 2.36.0 (20140111.2315)
 -->
<!-- Title: view.SLogoView.showTurtle Pages: 1 -->
<svg width="726pt" height="180pt"
 viewBox="0.00 0.00 726.00 180.00" xmlns="http://www.w3.org/2000/svg" xmlns:xlink="http://www.w3.org/1999/xlink">
<g id="graph0" class="graph" transform="scale(1 1) rotate(0) translate(4 176)">
<title>view.SLogoView.showTurtle</title>
<polygon fill="white" stroke="none" points="-4,4 -4,-176 722,-176 722,4 -4,4"/>
<!-- Node1 -->
<g id="node1" class="node"><title>Node1</title>
<polygon fill="#bfbfbf" stroke="black" points="0.5,-122.5 0.5,-141.5 143.5,-141.5 143.5,-122.5 0.5,-122.5"/>
<text text-anchor="middle" x="72" y="-129.5" font-family="Helvetica,sans-Serif" font-size="10.00">view.SLogoView.showTurtle</text>
</g>
<!-- Node2 -->
<g id="node2" class="node"><title>Node2</title>
<g id="a_node2"><a xlink:href="../../da/d64/classview_1_1_workspace.html#ad460da1164f039e5ea9a265d446d13fe" target="_top" xlink:title="view.Workspace.getTurtleMap">
<polygon fill="white" stroke="black" points="562.5,-152.5 562.5,-171.5 717.5,-171.5 717.5,-152.5 562.5,-152.5"/>
<text text-anchor="middle" x="640" y="-159.5" font-family="Helvetica,sans-Serif" font-size="10.00">view.Workspace.getTurtleMap</text>
</a>
</g>
</g>
<!-- Node1&#45;&gt;Node2 -->
<g id="edge1" class="edge"><title>Node1&#45;&gt;Node2</title>
<path fill="none" stroke="midnightblue" d="M143.54,-135.739C246.993,-141.222 439.711,-151.437 551.869,-157.382"/>
<polygon fill="midnightblue" stroke="midnightblue" points="551.962,-160.891 562.133,-157.926 552.332,-153.901 551.962,-160.891"/>
</g>
<!-- Node3 -->
<g id="node3" class="node"><title>Node3</title>
<g id="a_node3"><a xlink:href="../../d1/dc7/classview_1_1_side_bar.html#a7d73038dbba05f96990b60664afa2670" target="_top" xlink:title="view.SideBar.updateTurtle\lProperties">
<polygon fill="white" stroke="black" points="180,-91 180,-121 318,-121 318,-91 180,-91"/>
<text text-anchor="start" x="188" y="-109" font-family="Helvetica,sans-Serif" font-size="10.00">view.SideBar.updateTurtle</text>
<text text-anchor="middle" x="249" y="-98" font-family="Helvetica,sans-Serif" font-size="10.00">Properties</text>
</a>
</g>
</g>
<!-- Node1&#45;&gt;Node3 -->
<g id="edge2" class="edge"><title>Node1&#45;&gt;Node3</title>
<path fill="none" stroke="midnightblue" d="M137.17,-122.466C147.775,-120.891 158.874,-119.242 169.778,-117.622"/>
<polygon fill="midnightblue" stroke="midnightblue" points="170.341,-121.076 179.718,-116.145 169.312,-114.152 170.341,-121.076"/>
</g>
<!-- Node4 -->
<g id="node4" class="node"><title>Node4</title>
<g id="a_node4"><a xlink:href="../../d9/d3a/classview_1_1_turtle_properties_view.html#af07bce3cf2bed2814a0fb3812d00b69e" target="_top" xlink:title="view.TurtlePropertiesView.update">
<polygon fill="white" stroke="black" points="354.5,-80.5 354.5,-99.5 525.5,-99.5 525.5,-80.5 354.5,-80.5"/>
<text text-anchor="middle" x="440" y="-87.5" font-family="Helvetica,sans-Serif" font-size="10.00">view.TurtlePropertiesView.update</text>
</a>
</g>
</g>
<!-- Node3&#45;&gt;Node4 -->
<g id="edge3" class="edge"><title>Node3&#45;&gt;Node4</title>
<path fill="none" stroke="midnightblue" d="M318.233,-100.224C326.669,-99.5095 335.408,-98.7697 344.151,-98.0295"/>
<polygon fill="midnightblue" stroke="midnightblue" points="344.73,-101.493 354.399,-97.162 344.139,-94.5181 344.73,-101.493"/>
</g>
<!-- Node4&#45;&gt;Node2 -->
<g id="edge4" class="edge"><title>Node4&#45;&gt;Node2</title>
<path fill="none" stroke="midnightblue" d="M460.293,-99.6806C483.838,-111.205 525.083,-130.463 562,-143 569.334,-145.491 577.162,-147.804 584.914,-149.898"/>
<polygon fill="midnightblue" stroke="midnightblue" points="584.09,-153.3 594.649,-152.429 585.851,-146.525 584.09,-153.3"/>
</g>
<!-- Node5 -->
<g id="node5" class="node"><title>Node5</title>
<g id="a_node5"><a xlink:href="../../d8/df7/classview_1_1_turtle_view.html#ab5fdc3775e06339f4a68d1b795a81643" target="_top" xlink:title="view.TurtleView.getID">
<polygon fill="white" stroke="black" points="583,-114.5 583,-133.5 697,-133.5 697,-114.5 583,-114.5"/>
<text text-anchor="middle" x="640" y="-121.5" font-family="Helvetica,sans-Serif" font-size="10.00">view.TurtleView.getID</text>
</a>
</g>
</g>
<!-- Node4&#45;&gt;Node5 -->
<g id="edge5" class="edge"><title>Node4&#45;&gt;Node5</title>
<path fill="none" stroke="midnightblue" d="M496.417,-99.5161C520.349,-103.626 548.525,-108.464 573.483,-112.75"/>
<polygon fill="midnightblue" stroke="midnightblue" points="573.148,-116.243 583.596,-114.486 574.333,-109.344 573.148,-116.243"/>
</g>
<!-- Node6 -->
<g id="node6" class="node"><title>Node6</title>
<g id="a_node6"><a xlink:href="../../d8/df7/classview_1_1_turtle_view.html#afddbc74313a99bb100c8c50efa88f330" target="_top" xlink:title="view.TurtleView.getYCoord">
<polygon fill="white" stroke="black" points="571.5,-76.5 571.5,-95.5 708.5,-95.5 708.5,-76.5 571.5,-76.5"/>
<text text-anchor="middle" x="640" y="-83.5" font-family="Helvetica,sans-Serif" font-size="10.00">view.TurtleView.getYCoord</text>
</a>
</g>
</g>
<!-- Node4&#45;&gt;Node6 -->
<g id="edge6" class="edge"><title>Node4&#45;&gt;Node6</title>
<path fill="none" stroke="midnightblue" d="M525.544,-88.292C537.413,-88.0523 549.566,-87.8068 561.299,-87.5697"/>
<polygon fill="midnightblue" stroke="midnightblue" points="561.558,-91.0653 571.485,-87.3639 561.416,-84.0667 561.558,-91.0653"/>
</g>
<!-- Node7 -->
<g id="node7" class="node"><title>Node7</title>
<g id="a_node7"><a xlink:href="../../d8/df7/classview_1_1_turtle_view.html#a5da3d4c9dafb77af0db0c589a72eadc8" target="_top" xlink:title="view.TurtleView.getHeading">
<polygon fill="white" stroke="black" points="568,-38.5 568,-57.5 712,-57.5 712,-38.5 568,-38.5"/>
<text text-anchor="middle" x="640" y="-45.5" font-family="Helvetica,sans-Serif" font-size="10.00">view.TurtleView.getHeading</text>
</a>
</g>
</g>
<!-- Node4&#45;&gt;Node7 -->
<g id="edge7" class="edge"><title>Node4&#45;&gt;Node7</title>
<path fill="none" stroke="midnightblue" d="M485.929,-80.4695C514.94,-74.3158 552.886,-66.2667 583.738,-59.7222"/>
<polygon fill="midnightblue" stroke="midnightblue" points="584.85,-63.0643 593.906,-57.5653 583.398,-56.2166 584.85,-63.0643"/>
</g>
<!-- Node8 -->
<g id="node8" class="node"><title>Node8</title>
<g id="a_node8"><a xlink:href="../../d5/dea/classview_1_1_side_table_view.html#adbdf2bf0ebf7fc8ab04db2087baea03a" target="_top" xlink:title="view.SideTableView.getTable">
<polygon fill="white" stroke="black" points="566,-0.5 566,-19.5 714,-19.5 714,-0.5 566,-0.5"/>
<text text-anchor="middle" x="640" y="-7.5" font-family="Helvetica,sans-Serif" font-size="10.00">view.SideTableView.getTable</text>
</a>
</g>
</g>
<!-- Node4&#45;&gt;Node8 -->
<g id="edge8" class="edge"><title>Node4&#45;&gt;Node8</title>
<path fill="none" stroke="midnightblue" d="M457.3,-80.2868C480.055,-67.0799 522.948,-43.4516 562,-29 568.747,-26.5031 575.948,-24.234 583.136,-22.2037"/>
<polygon fill="midnightblue" stroke="midnightblue" points="584.136,-25.5591 592.885,-19.5841 582.32,-18.7988 584.136,-25.5591"/>
</g>
</g>
</svg>
