<?xml version="1.0" encoding="UTF-8" standalone="no"?>
<!DOCTYPE svg PUBLIC "-//W3C//DTD SVG 1.1//EN"
 "http://www.w3.org/Graphics/SVG/1.1/DTD/svg11.dtd">
<!-- Generated by graphviz version 2.36.0 (20140111.2315)
 -->
<!-- Title: view.SLogoView.configureAddTurtlesButton Pages: 1 -->
<svg width="1134pt" height="218pt"
 viewBox="0.00 0.00 1134.00 218.00" xmlns="http://www.w3.org/2000/svg" xmlns:xlink="http://www.w3.org/1999/xlink">
<g id="graph0" class="graph" transform="scale(1 1) rotate(0) translate(4 214)">
<title>view.SLogoView.configureAddTurtlesButton</title>
<polygon fill="white" stroke="none" points="-4,4 -4,-214 1130,-214 1130,4 -4,4"/>
<!-- Node1 -->
<g id="node1" class="node"><title>Node1</title>
<polygon fill="#bfbfbf" stroke="black" points="0.5,-98 0.5,-128 137.5,-128 137.5,-98 0.5,-98"/>
<text text-anchor="start" x="8.5" y="-116" font-family="Helvetica,sans-Serif" font-size="10.00">view.SLogoView.configure</text>
<text text-anchor="middle" x="69" y="-105" font-family="Helvetica,sans-Serif" font-size="10.00">AddTurtlesButton</text>
</g>
<!-- Node2 -->
<g id="node2" class="node"><title>Node2</title>
<g id="a_node2"><a xlink:href="../../da/d64/classview_1_1_workspace.html#a4abde41a3048fa8f64ddfec40c8ffdb7" target="_top" xlink:title="view.Workspace.addTurtle">
<polygon fill="white" stroke="black" points="174.5,-103.5 174.5,-122.5 311.5,-122.5 311.5,-103.5 174.5,-103.5"/>
<text text-anchor="middle" x="243" y="-110.5" font-family="Helvetica,sans-Serif" font-size="10.00">view.Workspace.addTurtle</text>
</a>
</g>
</g>
<!-- Node1&#45;&gt;Node2 -->
<g id="edge1" class="edge"><title>Node1&#45;&gt;Node2</title>
<path fill="none" stroke="midnightblue" d="M137.979,-113C146.55,-113 155.372,-113 164.082,-113"/>
<polygon fill="midnightblue" stroke="midnightblue" points="164.233,-116.5 174.233,-113 164.233,-109.5 164.233,-116.5"/>
</g>
<!-- Node3 -->
<g id="node3" class="node"><title>Node3</title>
<g id="a_node3"><a xlink:href="../../da/d64/classview_1_1_workspace.html#a9eea72f983d5e7ad5af85056d927e380" target="_top" xlink:title="view.Workspace.configure\lTurtleEventHandler">
<polygon fill="white" stroke="black" points="368.5,-147 368.5,-177 505.5,-177 505.5,-147 368.5,-147"/>
<text text-anchor="start" x="376.5" y="-165" font-family="Helvetica,sans-Serif" font-size="10.00">view.Workspace.configure</text>
<text text-anchor="middle" x="437" y="-154" font-family="Helvetica,sans-Serif" font-size="10.00">TurtleEventHandler</text>
</a>
</g>
</g>
<!-- Node2&#45;&gt;Node3 -->
<g id="edge2" class="edge"><title>Node2&#45;&gt;Node3</title>
<path fill="none" stroke="midnightblue" d="M281.475,-122.564C305.783,-128.768 338.186,-137.037 367.041,-144.401"/>
<polygon fill="midnightblue" stroke="midnightblue" points="366.525,-147.881 377.08,-146.963 368.256,-141.099 366.525,-147.881"/>
</g>
<!-- Node12 -->
<g id="node12" class="node"><title>Node12</title>
<g id="a_node12"><a xlink:href="../../d1/dca/classmodel_1_1_execution_environment.html#a96986e0e8de018fd9b1b2bf79de862e1" target="_top" xlink:title="model.ExecutionEnvironment.add\lTurtle">
<polygon fill="white" stroke="black" points="348,-98 348,-128 526,-128 526,-98 348,-98"/>
<text text-anchor="start" x="356" y="-116" font-family="Helvetica,sans-Serif" font-size="10.00">model.ExecutionEnvironment.add</text>
<text text-anchor="middle" x="437" y="-105" font-family="Helvetica,sans-Serif" font-size="10.00">Turtle</text>
</a>
</g>
</g>
<!-- Node2&#45;&gt;Node12 -->
<g id="edge12" class="edge"><title>Node2&#45;&gt;Node12</title>
<path fill="none" stroke="midnightblue" d="M311.692,-113C320.073,-113 328.77,-113 337.494,-113"/>
<polygon fill="midnightblue" stroke="midnightblue" points="337.731,-116.5 347.731,-113 337.731,-109.5 337.731,-116.5"/>
</g>
<!-- Node14 -->
<g id="node14" class="node"><title>Node14</title>
<g id="a_node14"><a xlink:href="../../d1/dca/classmodel_1_1_execution_environment.html#a472ef4da5205b0e95ec51fdbf52f654a" target="_top" xlink:title="model.ExecutionEnvironment.set\lActiveTurtle">
<polygon fill="white" stroke="black" points="349.5,-49 349.5,-79 524.5,-79 524.5,-49 349.5,-49"/>
<text text-anchor="start" x="357.5" y="-67" font-family="Helvetica,sans-Serif" font-size="10.00">model.ExecutionEnvironment.set</text>
<text text-anchor="middle" x="437" y="-56" font-family="Helvetica,sans-Serif" font-size="10.00">ActiveTurtle</text>
</a>
</g>
</g>
<!-- Node2&#45;&gt;Node14 -->
<g id="edge14" class="edge"><title>Node2&#45;&gt;Node14</title>
<path fill="none" stroke="midnightblue" d="M281.475,-103.436C305.783,-97.2324 338.186,-88.9629 367.041,-81.599"/>
<polygon fill="midnightblue" stroke="midnightblue" points="368.256,-84.9012 377.08,-79.037 366.525,-78.1186 368.256,-84.9012"/>
</g>
<!-- Node4 -->
<g id="node4" class="node"><title>Node4</title>
<g id="a_node4"><a xlink:href="../../da/d64/classview_1_1_workspace.html#a16bda9a6a7fe7f8d3d7b09108675f9c4" target="_top" xlink:title="view.Workspace.setActive\lTurtle">
<polygon fill="white" stroke="black" points="590.5,-125 590.5,-155 727.5,-155 727.5,-125 590.5,-125"/>
<text text-anchor="start" x="598.5" y="-143" font-family="Helvetica,sans-Serif" font-size="10.00">view.Workspace.setActive</text>
<text text-anchor="middle" x="659" y="-132" font-family="Helvetica,sans-Serif" font-size="10.00">Turtle</text>
</a>
</g>
</g>
<!-- Node3&#45;&gt;Node4 -->
<g id="edge3" class="edge"><title>Node3&#45;&gt;Node4</title>
<path fill="none" stroke="midnightblue" d="M505.502,-155.25C529.043,-152.896 555.652,-150.235 579.977,-147.802"/>
<polygon fill="midnightblue" stroke="midnightblue" points="580.644,-151.253 590.246,-146.775 579.948,-144.288 580.644,-151.253"/>
</g>
<!-- Node7 -->
<g id="node7" class="node"><title>Node7</title>
<g id="a_node7"><a xlink:href="../../d8/df7/classview_1_1_turtle_view.html#ab5fdc3775e06339f4a68d1b795a81643" target="_top" xlink:title="view.TurtleView.getID">
<polygon fill="white" stroke="black" points="989,-190.5 989,-209.5 1103,-209.5 1103,-190.5 989,-190.5"/>
<text text-anchor="middle" x="1046" y="-197.5" font-family="Helvetica,sans-Serif" font-size="10.00">view.TurtleView.getID</text>
</a>
</g>
</g>
<!-- Node3&#45;&gt;Node7 -->
<g id="edge11" class="edge"><title>Node3&#45;&gt;Node7</title>
<path fill="none" stroke="midnightblue" d="M505.571,-166.23C622.708,-173.563 862.071,-188.548 978.475,-195.835"/>
<polygon fill="midnightblue" stroke="midnightblue" points="978.473,-199.342 988.672,-196.474 978.91,-192.356 978.473,-199.342"/>
</g>
<!-- Node5 -->
<g id="node5" class="node"><title>Node5</title>
<g id="a_node5"><a xlink:href="../../d1/dc7/classview_1_1_side_bar.html#a7d73038dbba05f96990b60664afa2670" target="_top" xlink:title="view.SideBar.updateTurtle\lProperties">
<polygon fill="white" stroke="black" points="792,-109 792,-139 930,-139 930,-109 792,-109"/>
<text text-anchor="start" x="800" y="-127" font-family="Helvetica,sans-Serif" font-size="10.00">view.SideBar.updateTurtle</text>
<text text-anchor="middle" x="861" y="-116" font-family="Helvetica,sans-Serif" font-size="10.00">Properties</text>
</a>
</g>
</g>
<!-- Node4&#45;&gt;Node5 -->
<g id="edge4" class="edge"><title>Node4&#45;&gt;Node5</title>
<path fill="none" stroke="midnightblue" d="M727.711,-134.583C744.952,-133.204 763.628,-131.71 781.363,-130.291"/>
<polygon fill="midnightblue" stroke="midnightblue" points="781.989,-133.752 791.678,-129.466 781.431,-126.774 781.989,-133.752"/>
</g>
<!-- Node6 -->
<g id="node6" class="node"><title>Node6</title>
<g id="a_node6"><a xlink:href="../../d8/df7/classview_1_1_turtle_view.html#a5da3d4c9dafb77af0db0c589a72eadc8" target="_top" xlink:title="view.TurtleView.getHeading">
<polygon fill="white" stroke="black" points="974,-152.5 974,-171.5 1118,-171.5 1118,-152.5 974,-152.5"/>
<text text-anchor="middle" x="1046" y="-159.5" font-family="Helvetica,sans-Serif" font-size="10.00">view.TurtleView.getHeading</text>
</a>
</g>
</g>
<!-- Node5&#45;&gt;Node6 -->
<g id="edge5" class="edge"><title>Node5&#45;&gt;Node6</title>
<path fill="none" stroke="midnightblue" d="M930.142,-138.15C949.61,-142.192 970.589,-146.549 989.223,-150.418"/>
<polygon fill="midnightblue" stroke="midnightblue" points="988.518,-153.846 999.021,-152.452 989.941,-146.992 988.518,-153.846"/>
</g>
<!-- Node5&#45;&gt;Node7 -->
<g id="edge6" class="edge"><title>Node5&#45;&gt;Node7</title>
<path fill="none" stroke="midnightblue" d="M885.499,-139.246C906.027,-151.977 936.999,-169.795 966,-181 972.454,-183.493 979.334,-185.729 986.241,-187.714"/>
<polygon fill="midnightblue" stroke="midnightblue" points="985.766,-191.211 996.333,-190.443 987.594,-184.454 985.766,-191.211"/>
</g>
<!-- Node8 -->
<g id="node8" class="node"><title>Node8</title>
<g id="a_node8"><a xlink:href="../../d8/df7/classview_1_1_turtle_view.html#a85b9acc922cc69f27c79bf13e3356e09" target="_top" xlink:title="view.TurtleView.getPenPosition">
<polygon fill="white" stroke="black" points="966,-114.5 966,-133.5 1126,-133.5 1126,-114.5 966,-114.5"/>
<text text-anchor="middle" x="1046" y="-121.5" font-family="Helvetica,sans-Serif" font-size="10.00">view.TurtleView.getPenPosition</text>
</a>
</g>
</g>
<!-- Node5&#45;&gt;Node8 -->
<g id="edge7" class="edge"><title>Node5&#45;&gt;Node8</title>
<path fill="none" stroke="midnightblue" d="M930.142,-124C938.469,-124 947.072,-124 955.65,-124"/>
<polygon fill="midnightblue" stroke="midnightblue" points="955.69,-127.5 965.69,-124 955.69,-120.5 955.69,-127.5"/>
</g>
<!-- Node9 -->
<g id="node9" class="node"><title>Node9</title>
<g id="a_node9"><a xlink:href="../../da/d64/classview_1_1_workspace.html#ad460da1164f039e5ea9a265d446d13fe" target="_top" xlink:title="view.Workspace.getTurtleMap">
<polygon fill="white" stroke="black" points="968.5,-76.5 968.5,-95.5 1123.5,-95.5 1123.5,-76.5 968.5,-76.5"/>
<text text-anchor="middle" x="1046" y="-83.5" font-family="Helvetica,sans-Serif" font-size="10.00">view.Workspace.getTurtleMap</text>
</a>
</g>
</g>
<!-- Node5&#45;&gt;Node9 -->
<g id="edge8" class="edge"><title>Node5&#45;&gt;Node9</title>
<path fill="none" stroke="midnightblue" d="M930.142,-109.85C949.61,-105.808 970.589,-101.451 989.223,-97.5821"/>
<polygon fill="midnightblue" stroke="midnightblue" points="989.941,-101.008 999.021,-95.5476 988.518,-94.1539 989.941,-101.008"/>
</g>
<!-- Node10 -->
<g id="node10" class="node"><title>Node10</title>
<g id="a_node10"><a xlink:href="../../d8/df7/classview_1_1_turtle_view.html#afddbc74313a99bb100c8c50efa88f330" target="_top" xlink:title="view.TurtleView.getYCoord">
<polygon fill="white" stroke="black" points="977.5,-38.5 977.5,-57.5 1114.5,-57.5 1114.5,-38.5 977.5,-38.5"/>
<text text-anchor="middle" x="1046" y="-45.5" font-family="Helvetica,sans-Serif" font-size="10.00">view.TurtleView.getYCoord</text>
</a>
</g>
</g>
<!-- Node5&#45;&gt;Node10 -->
<g id="edge9" class="edge"><title>Node5&#45;&gt;Node10</title>
<path fill="none" stroke="midnightblue" d="M885.499,-108.754C906.027,-96.0227 936.999,-78.2049 966,-67 972.454,-64.5065 979.334,-62.271 986.241,-60.2863"/>
<polygon fill="midnightblue" stroke="midnightblue" points="987.594,-63.5463 996.333,-57.5568 985.766,-56.7891 987.594,-63.5463"/>
</g>
<!-- Node11 -->
<g id="node11" class="node"><title>Node11</title>
<g id="a_node11"><a xlink:href="../../d8/df7/classview_1_1_turtle_view.html#a5f7b22cd8ab69258535b18920a488b63" target="_top" xlink:title="view.TurtleView.isShowing">
<polygon fill="white" stroke="black" points="978,-0.5 978,-19.5 1114,-19.5 1114,-0.5 978,-0.5"/>
<text text-anchor="middle" x="1046" y="-7.5" font-family="Helvetica,sans-Serif" font-size="10.00">view.TurtleView.isShowing</text>
</a>
</g>
</g>
<!-- Node5&#45;&gt;Node11 -->
<g id="edge10" class="edge"><title>Node5&#45;&gt;Node11</title>
<path fill="none" stroke="midnightblue" d="M874.073,-108.958C891.896,-87.7951 927.338,-49.5281 966,-29 970.479,-26.6216 975.259,-24.5365 980.166,-22.7092"/>
<polygon fill="midnightblue" stroke="midnightblue" points="981.347,-26.0045 989.713,-19.5037 979.119,-19.3685 981.347,-26.0045"/>
</g>
<!-- Node13 -->
<g id="node13" class="node"><title>Node13</title>
<g id="a_node13"><a xlink:href="../../d1/dca/classmodel_1_1_execution_environment.html#a93fd01341f06dfa81727344b120aef66" target="_top" xlink:title="model.ExecutionEnvironment.update\lObserver">
<polygon fill="white" stroke="black" points="562,-74 562,-104 756,-104 756,-74 562,-74"/>
<text text-anchor="start" x="570" y="-92" font-family="Helvetica,sans-Serif" font-size="10.00">model.ExecutionEnvironment.update</text>
<text text-anchor="middle" x="659" y="-81" font-family="Helvetica,sans-Serif" font-size="10.00">Observer</text>
</a>
</g>
</g>
<!-- Node12&#45;&gt;Node13 -->
<g id="edge13" class="edge"><title>Node12&#45;&gt;Node13</title>
<path fill="none" stroke="midnightblue" d="M526.215,-103.377C534.635,-102.458 543.233,-101.52 551.8,-100.585"/>
<polygon fill="midnightblue" stroke="midnightblue" points="552.268,-104.055 561.83,-99.4913 551.509,-97.0965 552.268,-104.055"/>
</g>
<!-- Node14&#45;&gt;Node13 -->
<g id="edge15" class="edge"><title>Node14&#45;&gt;Node13</title>
<path fill="none" stroke="midnightblue" d="M524.634,-73.8448C533.641,-74.8683 542.867,-75.9167 552.055,-76.9608"/>
<polygon fill="midnightblue" stroke="midnightblue" points="551.667,-80.4392 561.999,-78.0907 552.458,-73.4839 551.667,-80.4392"/>
</g>
</g>
</svg>
