<?xml version="1.0" encoding="UTF-8" standalone="no"?>
<!DOCTYPE svg PUBLIC "-//W3C//DTD SVG 1.1//EN"
 "http://www.w3.org/Graphics/SVG/1.1/DTD/svg11.dtd">
<!-- Generated by graphviz version 2.36.0 (20140111.2315)
 -->
<!-- Title: view.SLogoView.createNewParser Pages: 1 -->
<!--zoomable 66 -->
<svg id="main" version="1.1" xmlns="http://www.w3.org/2000/svg" xmlns:xlink="http://www.w3.org/1999/xlink" xml:space="preserve" onload="init(evt)">
<style type="text/css"><![CDATA[
.edge:hover path { stroke: red; }
.edge:hover polygon { stroke: red; fill: red; }
]]></style>
<script type="text/javascript"><![CDATA[
var edges = document.getElementsByTagName('g');
if (edges && edges.length) {
  for (var i=0;i<edges.length;i++) {
    if (edges[i].id.substr(0,4)=='edge') {
      edges[i].setAttribute('class','edge');
    }
  }
}
]]></script>
        <defs>
                <circle id="rim" cx="0" cy="0" r="7"/>
                <circle id="rim2" cx="0" cy="0" r="3.5"/>
                <g id="zoomPlus">
                        <use xlink:href="#rim" fill="#404040">
                                <set attributeName="fill" to="#808080" begin="zoomplus.mouseover" end="zoomplus.mouseout"/>
                        </use>
                        <path d="M-4,0h8M0,-4v8" fill="none" stroke="white" stroke-width="1.5" pointer-events="none"/>
                </g>
                <g id="zoomMin">
                        <use xlink:href="#rim" fill="#404040">
                                <set attributeName="fill" to="#808080" begin="zoomminus.mouseover" end="zoomminus.mouseout"/>
                        </use>
                        <path d="M-4,0h8" fill="none" stroke="white" stroke-width="1.5" pointer-events="none"/>
                </g>
                <g id="dirArrow">
                        <path fill="none" stroke="white" stroke-width="1.5" d="M0,-3.0v7 M-2.5,-0.5L0,-3.0L2.5,-0.5"/>
                </g>
               <g id="resetDef">
                       <use xlink:href="#rim2" fill="#404040">
                               <set attributeName="fill" to="#808080" begin="reset.mouseover" end="reset.mouseout"/>
                       </use>
               </g>
        </defs>

<script type="text/javascript">
var viewWidth = 1284;
var viewHeight = 66;
var sectionId = 'dynsection-5';
</script>
<script xlink:href="../../svgpan.js"/>
<svg id="graph" class="graph">
<g id="viewport">
<title>view.SLogoView.createNewParser</title>
<polygon fill="white" stroke="none" points="-4,4 -4,-62 1280,-62 1280,4 -4,4"/>
<!-- Node1 -->
<g id="node1" class="node"><title>Node1</title>
<polygon fill="#bfbfbf" stroke="black" points="0,-14 0,-44 144,-44 144,-14 0,-14"/>
<text text-anchor="start" x="8" y="-32" font-family="Helvetica,sans-Serif" font-size="10.00">view.SLogoView.createNew</text>
<text text-anchor="middle" x="72" y="-21" font-family="Helvetica,sans-Serif" font-size="10.00">Parser</text>
</g>
<!-- Node2 -->
<g id="node2" class="node"><title>Node2</title>
<g id="a_node2"><a xlink:href="../../d6/de7/classview_1_1_s_logo_view.html#ae0050481c9168dd8eeb434d9aa79b047" target="_top" xlink:title="view.SLogoView.configureUI">
<polygon fill="white" stroke="black" points="180.5,-19.5 180.5,-38.5 327.5,-38.5 327.5,-19.5 180.5,-19.5"/>
<text text-anchor="middle" x="254" y="-26.5" font-family="Helvetica,sans-Serif" font-size="10.00">view.SLogoView.configureUI</text>
</a>
</g>
</g>
<!-- Node1&#45;&gt;Node2 -->
<g id="edge1" class="edge"><title>Node1&#45;&gt;Node2</title>
<path fill="none" stroke="midnightblue" d="M154.263,-29C162.945,-29 171.736,-29 180.31,-29"/>
<polygon fill="midnightblue" stroke="midnightblue" points="154.141,-25.5001 144.141,-29 154.141,-32.5001 154.141,-25.5001"/>
</g>
<!-- Node3 -->
<g id="node3" class="node"><title>Node3</title>
<g id="a_node3"><a xlink:href="../../d1/d75/classview_1_1_main_view.html#ade3718ede33fa2086649c8b3cf75d2f9" target="_top" xlink:title="view.MainView.initTabs">
<polygon fill="white" stroke="black" points="545.5,-38.5 545.5,-57.5 666.5,-57.5 666.5,-38.5 545.5,-38.5"/>
<text text-anchor="middle" x="606" y="-45.5" font-family="Helvetica,sans-Serif" font-size="10.00">view.MainView.initTabs</text>
</a>
</g>
</g>
<!-- Node2&#45;&gt;Node3 -->
<g id="edge2" class="edge"><title>Node2&#45;&gt;Node3</title>
<path fill="none" stroke="midnightblue" d="M337.556,-33.4816C401.367,-36.9457 488.18,-41.6584 545.361,-44.7624"/>
<polygon fill="midnightblue" stroke="midnightblue" points="337.695,-29.9841 327.52,-32.9368 337.316,-36.9738 337.695,-29.9841"/>
</g>
<!-- Node5 -->
<g id="node5" class="node"><title>Node5</title>
<g id="a_node5"><a xlink:href="../../d1/d75/classview_1_1_main_view.html#a39a2b399924a553ccd89dd2a2e6ea208" target="_top" xlink:title="view.MainView.newTab">
<polygon fill="white" stroke="black" points="364,-0.5 364,-19.5 484,-19.5 484,-0.5 364,-0.5"/>
<text text-anchor="middle" x="424" y="-7.5" font-family="Helvetica,sans-Serif" font-size="10.00">view.MainView.newTab</text>
</a>
</g>
</g>
<!-- Node2&#45;&gt;Node5 -->
<g id="edge4" class="edge"><title>Node2&#45;&gt;Node5</title>
<path fill="none" stroke="midnightblue" d="M337.654,-19.6523C346.487,-18.6533 355.339,-17.6521 363.821,-16.6928"/>
<polygon fill="midnightblue" stroke="midnightblue" points="337.253,-16.1751 327.71,-20.7768 338.04,-23.1308 337.253,-16.1751"/>
</g>
<!-- Node4 -->
<g id="node4" class="node"><title>Node4</title>
<g id="a_node4"><a xlink:href="../../d1/d75/classview_1_1_main_view.html#a9e27015c007bed90f32c79fc1187083f" target="_top" xlink:title="view.MainView.MainView">
<polygon fill="white" stroke="black" points="1146,-19.5 1146,-38.5 1276,-38.5 1276,-19.5 1146,-19.5"/>
<text text-anchor="middle" x="1211" y="-26.5" font-family="Helvetica,sans-Serif" font-size="10.00">view.MainView.MainView</text>
</a>
</g>
</g>
<!-- Node3&#45;&gt;Node4 -->
<g id="edge3" class="edge"><title>Node3&#45;&gt;Node4</title>
<path fill="none" stroke="midnightblue" d="M676.741,-45.8025C794.604,-42.0888 1031.48,-34.625 1145.62,-31.0286"/>
<polygon fill="midnightblue" stroke="midnightblue" points="676.63,-42.3042 666.745,-46.1175 676.85,-49.3007 676.63,-42.3042"/>
</g>
<!-- Node6 -->
<g id="node6" class="node"><title>Node6</title>
<g id="a_node6"><a xlink:href="../../d1/d75/classview_1_1_main_view.html#a0424800b5057be73f94e16ef2e1e2b33" target="_top" xlink:title="view.MainView.configureFileMenu">
<polygon fill="white" stroke="black" points="520.5,-0.5 520.5,-19.5 691.5,-19.5 691.5,-0.5 520.5,-0.5"/>
<text text-anchor="middle" x="606" y="-7.5" font-family="Helvetica,sans-Serif" font-size="10.00">view.MainView.configureFileMenu</text>
</a>
</g>
</g>
<!-- Node5&#45;&gt;Node6 -->
<g id="edge5" class="edge"><title>Node5&#45;&gt;Node6</title>
<path fill="none" stroke="midnightblue" d="M494.551,-10C502.961,-10 511.623,-10 520.221,-10"/>
<polygon fill="midnightblue" stroke="midnightblue" points="494.438,-6.5001 484.438,-10 494.438,-13.5001 494.438,-6.5001"/>
</g>
<!-- Node7 -->
<g id="node7" class="node"><title>Node7</title>
<g id="a_node7"><a xlink:href="../../d1/d75/classview_1_1_main_view.html#a200c2c8e08e038e2ea86acc40c17d8d2" target="_top" xlink:title="view.MainView.configureTopMenu">
<polygon fill="white" stroke="black" points="728,-0.5 728,-19.5 900,-19.5 900,-0.5 728,-0.5"/>
<text text-anchor="middle" x="814" y="-7.5" font-family="Helvetica,sans-Serif" font-size="10.00">view.MainView.configureTopMenu</text>
</a>
</g>
</g>
<!-- Node6&#45;&gt;Node7 -->
<g id="edge6" class="edge"><title>Node6&#45;&gt;Node7</title>
<path fill="none" stroke="midnightblue" d="M701.858,-10C710.572,-10 719.364,-10 727.983,-10"/>
<polygon fill="midnightblue" stroke="midnightblue" points="701.68,-6.5001 691.68,-10 701.68,-13.5001 701.68,-6.5001"/>
</g>
<!-- Node8 -->
<g id="node8" class="node"><title>Node8</title>
<g id="a_node8"><a xlink:href="../../d1/d75/classview_1_1_main_view.html#aff9e267e9368512a16e425f08d7b3ea0" target="_top" xlink:title="view.MainView.initRowConstraints">
<polygon fill="white" stroke="black" points="936.5,-0.5 936.5,-19.5 1109.5,-19.5 1109.5,-0.5 936.5,-0.5"/>
<text text-anchor="middle" x="1023" y="-7.5" font-family="Helvetica,sans-Serif" font-size="10.00">view.MainView.initRowConstraints</text>
</a>
</g>
</g>
<!-- Node7&#45;&gt;Node8 -->
<g id="edge7" class="edge"><title>Node7&#45;&gt;Node8</title>
<path fill="none" stroke="midnightblue" d="M910.224,-10C918.898,-10 927.651,-10 936.236,-10"/>
<polygon fill="midnightblue" stroke="midnightblue" points="910.091,-6.5001 900.091,-10 910.091,-13.5001 910.091,-6.5001"/>
</g>
<!-- Node8&#45;&gt;Node4 -->
<g id="edge8" class="edge"><title>Node8&#45;&gt;Node4</title>
<path fill="none" stroke="midnightblue" d="M1119.68,-19.774C1128.57,-20.6819 1137.43,-21.5866 1145.92,-22.4546"/>
<polygon fill="midnightblue" stroke="midnightblue" points="1119.95,-16.2837 1109.65,-18.7492 1119.24,-23.2474 1119.95,-16.2837"/>
</g>
</g>
</svg>
        <g id="navigator" transform="translate(0 0)" fill="#404254">
                <rect fill="#f2f5e9" fill-opacity="0.5" stroke="#606060" stroke-width=".5" x="0" y="0" width="60" height="60"/>
                <use id="zoomplus" xlink:href="#zoomPlus" x="17" y="9" onmousedown="handleZoom(evt,'in')"/>
                <use id="zoomminus" xlink:href="#zoomMin" x="42" y="9" onmousedown="handleZoom(evt,'out')"/>
                <use id="reset" xlink:href="#resetDef" x="30" y="36" onmousedown="handleReset()"/>
                <g id="arrowUp" xlink:href="#dirArrow" transform="translate(30 24)" onmousedown="handlePan(0,-1)">
                  <use xlink:href="#rim" fill="#404040">
                        <set attributeName="fill" to="#808080" begin="arrowUp.mouseover" end="arrowUp.mouseout"/>
                  </use>
                  <path fill="none" stroke="white" stroke-width="1.5" d="M0,-3.0v7 M-2.5,-0.5L0,-3.0L2.5,-0.5"/>
                </g>
                <g id="arrowRight" xlink:href="#dirArrow" transform="rotate(90) translate(36 -43)" onmousedown="handlePan(1,0)">
                  <use xlink:href="#rim" fill="#404040">
                        <set attributeName="fill" to="#808080" begin="arrowRight.mouseover" end="arrowRight.mouseout"/>
                  </use>
                  <path fill="none" stroke="white" stroke-width="1.5" d="M0,-3.0v7 M-2.5,-0.5L0,-3.0L2.5,-0.5"/>
                </g>
                <g id="arrowDown" xlink:href="#dirArrow" transform="rotate(180) translate(-30 -48)" onmousedown="handlePan(0,1)">
                  <use xlink:href="#rim" fill="#404040">
                        <set attributeName="fill" to="#808080" begin="arrowDown.mouseover" end="arrowDown.mouseout"/>
                  </use>
                  <path fill="none" stroke="white" stroke-width="1.5" d="M0,-3.0v7 M-2.5,-0.5L0,-3.0L2.5,-0.5"/>
                </g>
                <g id="arrowLeft" xlink:href="#dirArrow" transform="rotate(270) translate(-36 17)" onmousedown="handlePan(-1,0)">
                  <use xlink:href="#rim" fill="#404040">
                        <set attributeName="fill" to="#808080" begin="arrowLeft.mouseover" end="arrowLeft.mouseout"/>
                  </use>
                  <path fill="none" stroke="white" stroke-width="1.5" d="M0,-3.0v7 M-2.5,-0.5L0,-3.0L2.5,-0.5"/>
                </g>
        </g>
        <svg viewBox="0 0 15 15" width="100%" height="30px" preserveAspectRatio="xMaxYMin meet">
         <g id="arrow_out" transform="scale(0.3 0.3)">
          <a xlink:href="classview_1_1_s_logo_view_a31631c7a3cc6121d871884bc396cf934_icgraph_org.svg" target="_base">
           <rect id="button" ry="5" rx="5" y="6" x="6" height="38" width="38"
                fill="#f2f5e9" fill-opacity="0.5" stroke="#606060" stroke-width="1.0"/>
           <path id="arrow"
             d="M 11.500037,31.436501 C 11.940474,20.09759 22.043105,11.32322 32.158766,21.979434 L 37.068811,17.246167 C 37.068811,17.246167 37.088388,32 37.088388,32 L 22.160133,31.978069 C 22.160133,31.978069 26.997745,27.140456 26.997745,27.140456 C 18.528582,18.264221 13.291696,25.230495 11.500037,31.436501 z"
             style="fill:#404040;"/>
          </a>
         </g>
        </svg>
</svg>
