<?xml version="1.0" encoding="UTF-8" standalone="no"?>
<!DOCTYPE svg PUBLIC "-//W3C//DTD SVG 1.1//EN"
 "http://www.w3.org/Graphics/SVG/1.1/DTD/svg11.dtd">
<!-- Generated by graphviz version 2.36.0 (20140111.2315)
 -->
<!-- Title: view.SLogoView.setXY Pages: 1 -->
<svg width="702pt" height="180pt"
 viewBox="0.00 0.00 702.00 180.00" xmlns="http://www.w3.org/2000/svg" xmlns:xlink="http://www.w3.org/1999/xlink">
<g id="graph0" class="graph" transform="scale(1 1) rotate(0) translate(4 176)">
<title>view.SLogoView.setXY</title>
<polygon fill="white" stroke="none" points="-4,4 -4,-176 698,-176 698,4 -4,4"/>
<!-- Node1 -->
<g id="node1" class="node"><title>Node1</title>
<polygon fill="#bfbfbf" stroke="black" points="0.5,-122.5 0.5,-141.5 119.5,-141.5 119.5,-122.5 0.5,-122.5"/>
<text text-anchor="middle" x="60" y="-129.5" font-family="Helvetica,sans-Serif" font-size="10.00">view.SLogoView.setXY</text>
</g>
<!-- Node2 -->
<g id="node2" class="node"><title>Node2</title>
<g id="a_node2"><a xlink:href="../../da/d64/classview_1_1_workspace.html#ad460da1164f039e5ea9a265d446d13fe" target="_top" xlink:title="view.Workspace.getTurtleMap">
<polygon fill="white" stroke="black" points="538.5,-152.5 538.5,-171.5 693.5,-171.5 693.5,-152.5 538.5,-152.5"/>
<text text-anchor="middle" x="616" y="-159.5" font-family="Helvetica,sans-Serif" font-size="10.00">view.Workspace.getTurtleMap</text>
</a>
</g>
</g>
<!-- Node1&#45;&gt;Node2 -->
<g id="edge1" class="edge"><title>Node1&#45;&gt;Node2</title>
<path fill="none" stroke="midnightblue" d="M119.502,-135.168C217.239,-140.461 414.214,-151.127 528.172,-157.298"/>
<polygon fill="midnightblue" stroke="midnightblue" points="528.084,-160.798 538.259,-157.844 528.462,-153.809 528.084,-160.798"/>
</g>
<!-- Node3 -->
<g id="node3" class="node"><title>Node3</title>
<g id="a_node3"><a xlink:href="../../d1/dc7/classview_1_1_side_bar.html#a7d73038dbba05f96990b60664afa2670" target="_top" xlink:title="view.SideBar.updateTurtle\lProperties">
<polygon fill="white" stroke="black" points="156,-91 156,-121 294,-121 294,-91 156,-91"/>
<text text-anchor="start" x="164" y="-109" font-family="Helvetica,sans-Serif" font-size="10.00">view.SideBar.updateTurtle</text>
<text text-anchor="middle" x="225" y="-98" font-family="Helvetica,sans-Serif" font-size="10.00">Properties</text>
</a>
</g>
</g>
<!-- Node1&#45;&gt;Node3 -->
<g id="edge2" class="edge"><title>Node1&#45;&gt;Node3</title>
<path fill="none" stroke="midnightblue" d="M119.847,-122.613C128.236,-121.275 136.974,-119.882 145.663,-118.495"/>
<polygon fill="midnightblue" stroke="midnightblue" points="146.494,-121.907 155.818,-116.876 145.391,-114.995 146.494,-121.907"/>
</g>
<!-- Node4 -->
<g id="node4" class="node"><title>Node4</title>
<g id="a_node4"><a xlink:href="../../d9/d3a/classview_1_1_turtle_properties_view.html#af07bce3cf2bed2814a0fb3812d00b69e" target="_top" xlink:title="view.TurtlePropertiesView.update">
<polygon fill="white" stroke="black" points="330.5,-80.5 330.5,-99.5 501.5,-99.5 501.5,-80.5 330.5,-80.5"/>
<text text-anchor="middle" x="416" y="-87.5" font-family="Helvetica,sans-Serif" font-size="10.00">view.TurtlePropertiesView.update</text>
</a>
</g>
</g>
<!-- Node3&#45;&gt;Node4 -->
<g id="edge3" class="edge"><title>Node3&#45;&gt;Node4</title>
<path fill="none" stroke="midnightblue" d="M294.233,-100.224C302.669,-99.5095 311.408,-98.7697 320.151,-98.0295"/>
<polygon fill="midnightblue" stroke="midnightblue" points="320.73,-101.493 330.399,-97.162 320.139,-94.5181 320.73,-101.493"/>
</g>
<!-- Node4&#45;&gt;Node2 -->
<g id="edge4" class="edge"><title>Node4&#45;&gt;Node2</title>
<path fill="none" stroke="midnightblue" d="M436.293,-99.6806C459.838,-111.205 501.083,-130.463 538,-143 545.334,-145.491 553.162,-147.804 560.914,-149.898"/>
<polygon fill="midnightblue" stroke="midnightblue" points="560.09,-153.3 570.649,-152.429 561.851,-146.525 560.09,-153.3"/>
</g>
<!-- Node5 -->
<g id="node5" class="node"><title>Node5</title>
<g id="a_node5"><a xlink:href="../../d8/df7/classview_1_1_turtle_view.html#ab5fdc3775e06339f4a68d1b795a81643" target="_top" xlink:title="view.TurtleView.getID">
<polygon fill="white" stroke="black" points="559,-114.5 559,-133.5 673,-133.5 673,-114.5 559,-114.5"/>
<text text-anchor="middle" x="616" y="-121.5" font-family="Helvetica,sans-Serif" font-size="10.00">view.TurtleView.getID</text>
</a>
</g>
</g>
<!-- Node4&#45;&gt;Node5 -->
<g id="edge5" class="edge"><title>Node4&#45;&gt;Node5</title>
<path fill="none" stroke="midnightblue" d="M472.417,-99.5161C496.349,-103.626 524.525,-108.464 549.483,-112.75"/>
<polygon fill="midnightblue" stroke="midnightblue" points="549.148,-116.243 559.596,-114.486 550.333,-109.344 549.148,-116.243"/>
</g>
<!-- Node6 -->
<g id="node6" class="node"><title>Node6</title>
<g id="a_node6"><a xlink:href="../../d8/df7/classview_1_1_turtle_view.html#afddbc74313a99bb100c8c50efa88f330" target="_top" xlink:title="view.TurtleView.getYCoord">
<polygon fill="white" stroke="black" points="547.5,-76.5 547.5,-95.5 684.5,-95.5 684.5,-76.5 547.5,-76.5"/>
<text text-anchor="middle" x="616" y="-83.5" font-family="Helvetica,sans-Serif" font-size="10.00">view.TurtleView.getYCoord</text>
</a>
</g>
</g>
<!-- Node4&#45;&gt;Node6 -->
<g id="edge6" class="edge"><title>Node4&#45;&gt;Node6</title>
<path fill="none" stroke="midnightblue" d="M501.544,-88.292C513.413,-88.0523 525.566,-87.8068 537.299,-87.5697"/>
<polygon fill="midnightblue" stroke="midnightblue" points="537.558,-91.0653 547.485,-87.3639 537.416,-84.0667 537.558,-91.0653"/>
</g>
<!-- Node7 -->
<g id="node7" class="node"><title>Node7</title>
<g id="a_node7"><a xlink:href="../../d8/df7/classview_1_1_turtle_view.html#a5da3d4c9dafb77af0db0c589a72eadc8" target="_top" xlink:title="view.TurtleView.getHeading">
<polygon fill="white" stroke="black" points="544,-38.5 544,-57.5 688,-57.5 688,-38.5 544,-38.5"/>
<text text-anchor="middle" x="616" y="-45.5" font-family="Helvetica,sans-Serif" font-size="10.00">view.TurtleView.getHeading</text>
</a>
</g>
</g>
<!-- Node4&#45;&gt;Node7 -->
<g id="edge7" class="edge"><title>Node4&#45;&gt;Node7</title>
<path fill="none" stroke="midnightblue" d="M461.929,-80.4695C490.94,-74.3158 528.886,-66.2667 559.738,-59.7222"/>
<polygon fill="midnightblue" stroke="midnightblue" points="560.85,-63.0643 569.906,-57.5653 559.398,-56.2166 560.85,-63.0643"/>
</g>
<!-- Node8 -->
<g id="node8" class="node"><title>Node8</title>
<g id="a_node8"><a xlink:href="../../d5/dea/classview_1_1_side_table_view.html#adbdf2bf0ebf7fc8ab04db2087baea03a" target="_top" xlink:title="view.SideTableView.getTable">
<polygon fill="white" stroke="black" points="542,-0.5 542,-19.5 690,-19.5 690,-0.5 542,-0.5"/>
<text text-anchor="middle" x="616" y="-7.5" font-family="Helvetica,sans-Serif" font-size="10.00">view.SideTableView.getTable</text>
</a>
</g>
</g>
<!-- Node4&#45;&gt;Node8 -->
<g id="edge8" class="edge"><title>Node4&#45;&gt;Node8</title>
<path fill="none" stroke="midnightblue" d="M433.3,-80.2868C456.055,-67.0799 498.948,-43.4516 538,-29 544.747,-26.5031 551.948,-24.234 559.136,-22.2037"/>
<polygon fill="midnightblue" stroke="midnightblue" points="560.136,-25.5591 568.885,-19.5841 558.32,-18.7988 560.136,-25.5591"/>
</g>
</g>
</svg>
