<?xml version="1.0" encoding="UTF-8" standalone="no"?>
<!DOCTYPE svg PUBLIC "-//W3C//DTD SVG 1.1//EN"
 "http://www.w3.org/Graphics/SVG/1.1/DTD/svg11.dtd">
<!-- Generated by graphviz version 2.36.0 (20140111.2315)
 -->
<!-- Title: view.SLogoView.configureUI Pages: 1 -->
<svg width="1536pt" height="256pt"
 viewBox="0.00 0.00 1536.00 256.00" xmlns="http://www.w3.org/2000/svg" xmlns:xlink="http://www.w3.org/1999/xlink">
<g id="graph0" class="graph" transform="scale(1 1) rotate(0) translate(4 252)">
<title>view.SLogoView.configureUI</title>
<polygon fill="white" stroke="none" points="-4,4 -4,-252 1532,-252 1532,4 -4,4"/>
<!-- Node1 -->
<g id="node1" class="node"><title>Node1</title>
<polygon fill="#bfbfbf" stroke="black" points="0.5,-79.5 0.5,-98.5 147.5,-98.5 147.5,-79.5 0.5,-79.5"/>
<text text-anchor="middle" x="74" y="-86.5" font-family="Helvetica,sans-Serif" font-size="10.00">view.SLogoView.configureUI</text>
</g>
<!-- Node2 -->
<g id="node2" class="node"><title>Node2</title>
<g id="a_node2"><a xlink:href="../../d6/de7/classview_1_1_s_logo_view.html#acf432f20e1a7dda7bef97f0619fb0fa5" target="_top" xlink:title="view.SLogoView.configure\lAddTurtlesButton">
<polygon fill="white" stroke="black" points="191.5,-148 191.5,-178 328.5,-178 328.5,-148 191.5,-148"/>
<text text-anchor="start" x="199.5" y="-166" font-family="Helvetica,sans-Serif" font-size="10.00">view.SLogoView.configure</text>
<text text-anchor="middle" x="260" y="-155" font-family="Helvetica,sans-Serif" font-size="10.00">AddTurtlesButton</text>
</a>
</g>
</g>
<!-- Node1&#45;&gt;Node2 -->
<g id="edge1" class="edge"><title>Node1&#45;&gt;Node2</title>
<path fill="none" stroke="midnightblue" d="M94.8327,-98.6433C116.484,-108.998 152.302,-125.629 184,-138 189.79,-140.26 195.878,-142.502 201.977,-144.663"/>
<polygon fill="midnightblue" stroke="midnightblue" points="200.936,-148.006 211.531,-147.981 203.233,-141.394 200.936,-148.006"/>
</g>
<!-- Node16 -->
<g id="node16" class="node"><title>Node16</title>
<g id="a_node16"><a xlink:href="../../d6/de7/classview_1_1_s_logo_view.html#a31631c7a3cc6121d871884bc396cf934" target="_top" xlink:title="view.SLogoView.createNew\lParser">
<polygon fill="white" stroke="black" points="188,-99 188,-129 332,-129 332,-99 188,-99"/>
<text text-anchor="start" x="196" y="-117" font-family="Helvetica,sans-Serif" font-size="10.00">view.SLogoView.createNew</text>
<text text-anchor="middle" x="260" y="-106" font-family="Helvetica,sans-Serif" font-size="10.00">Parser</text>
</a>
</g>
</g>
<!-- Node1&#45;&gt;Node16 -->
<g id="edge17" class="edge"><title>Node1&#45;&gt;Node16</title>
<path fill="none" stroke="midnightblue" d="M145.087,-98.5227C155.818,-99.9807 166.97,-101.496 177.914,-102.983"/>
<polygon fill="midnightblue" stroke="midnightblue" points="177.507,-106.46 187.888,-104.338 178.45,-99.5234 177.507,-106.46"/>
</g>
<!-- Node17 -->
<g id="node17" class="node"><title>Node17</title>
<g id="a_node17"><a xlink:href="../../d6/de7/classview_1_1_s_logo_view.html#acaf3f13ffb1cb6bbab33a6560cc80757" target="_top" xlink:title="view.SLogoView.setGridPane\lConstraints">
<polygon fill="white" stroke="black" points="184.5,-50 184.5,-80 335.5,-80 335.5,-50 184.5,-50"/>
<text text-anchor="start" x="192.5" y="-68" font-family="Helvetica,sans-Serif" font-size="10.00">view.SLogoView.setGridPane</text>
<text text-anchor="middle" x="260" y="-57" font-family="Helvetica,sans-Serif" font-size="10.00">Constraints</text>
</a>
</g>
</g>
<!-- Node1&#45;&gt;Node17 -->
<g id="edge18" class="edge"><title>Node1&#45;&gt;Node17</title>
<path fill="none" stroke="midnightblue" d="M147.722,-79.5146C156.48,-78.3722 165.482,-77.198 174.391,-76.0359"/>
<polygon fill="midnightblue" stroke="midnightblue" points="174.929,-79.4955 184.392,-74.7314 174.024,-72.5543 174.929,-79.4955"/>
</g>
<!-- Node18 -->
<g id="node18" class="node"><title>Node18</title>
<g id="a_node18"><a xlink:href="../../dc/d3c/classview_1_1_customization_bar.html#a65f9fa71a815439e9030659d6647887f" target="_top" xlink:title="view.CustomizationBar.set\lParser">
<polygon fill="white" stroke="black" points="189,-1 189,-31 331,-31 331,-1 189,-1"/>
<text text-anchor="start" x="197" y="-19" font-family="Helvetica,sans-Serif" font-size="10.00">view.CustomizationBar.set</text>
<text text-anchor="middle" x="260" y="-8" font-family="Helvetica,sans-Serif" font-size="10.00">Parser</text>
</a>
</g>
</g>
<!-- Node1&#45;&gt;Node18 -->
<g id="edge19" class="edge"><title>Node1&#45;&gt;Node18</title>
<path fill="none" stroke="midnightblue" d="M95.2543,-79.4024C116.964,-69.2757 152.556,-53.1339 184,-41 189.798,-38.7625 195.892,-36.5344 201.995,-34.3824"/>
<polygon fill="midnightblue" stroke="midnightblue" points="203.248,-37.6525 211.552,-31.0728 200.957,-31.0379 203.248,-37.6525"/>
</g>
<!-- Node3 -->
<g id="node3" class="node"><title>Node3</title>
<g id="a_node3"><a xlink:href="../../da/d64/classview_1_1_workspace.html#a4abde41a3048fa8f64ddfec40c8ffdb7" target="_top" xlink:title="view.Workspace.addTurtle">
<polygon fill="white" stroke="black" points="372.5,-153.5 372.5,-172.5 509.5,-172.5 509.5,-153.5 372.5,-153.5"/>
<text text-anchor="middle" x="441" y="-160.5" font-family="Helvetica,sans-Serif" font-size="10.00">view.Workspace.addTurtle</text>
</a>
</g>
</g>
<!-- Node2&#45;&gt;Node3 -->
<g id="edge2" class="edge"><title>Node2&#45;&gt;Node3</title>
<path fill="none" stroke="midnightblue" d="M328.672,-163C339.587,-163 350.964,-163 362.097,-163"/>
<polygon fill="midnightblue" stroke="midnightblue" points="362.232,-166.5 372.232,-163 362.232,-159.5 362.232,-166.5"/>
</g>
<!-- Node4 -->
<g id="node4" class="node"><title>Node4</title>
<g id="a_node4"><a xlink:href="../../da/d64/classview_1_1_workspace.html#a9eea72f983d5e7ad5af85056d927e380" target="_top" xlink:title="view.Workspace.configure\lTurtleEventHandler">
<polygon fill="white" stroke="black" points="566.5,-197 566.5,-227 703.5,-227 703.5,-197 566.5,-197"/>
<text text-anchor="start" x="574.5" y="-215" font-family="Helvetica,sans-Serif" font-size="10.00">view.Workspace.configure</text>
<text text-anchor="middle" x="635" y="-204" font-family="Helvetica,sans-Serif" font-size="10.00">TurtleEventHandler</text>
</a>
</g>
</g>
<!-- Node3&#45;&gt;Node4 -->
<g id="edge3" class="edge"><title>Node3&#45;&gt;Node4</title>
<path fill="none" stroke="midnightblue" d="M479.475,-172.564C503.783,-178.768 536.186,-187.037 565.041,-194.401"/>
<polygon fill="midnightblue" stroke="midnightblue" points="564.525,-197.881 575.08,-196.963 566.256,-191.099 564.525,-197.881"/>
</g>
<!-- Node13 -->
<g id="node13" class="node"><title>Node13</title>
<g id="a_node13"><a xlink:href="../../d1/dca/classmodel_1_1_execution_environment.html#a96986e0e8de018fd9b1b2bf79de862e1" target="_top" xlink:title="model.ExecutionEnvironment.add\lTurtle">
<polygon fill="white" stroke="black" points="546,-148 546,-178 724,-178 724,-148 546,-148"/>
<text text-anchor="start" x="554" y="-166" font-family="Helvetica,sans-Serif" font-size="10.00">model.ExecutionEnvironment.add</text>
<text text-anchor="middle" x="635" y="-155" font-family="Helvetica,sans-Serif" font-size="10.00">Turtle</text>
</a>
</g>
</g>
<!-- Node3&#45;&gt;Node13 -->
<g id="edge13" class="edge"><title>Node3&#45;&gt;Node13</title>
<path fill="none" stroke="midnightblue" d="M509.692,-163C518.073,-163 526.77,-163 535.494,-163"/>
<polygon fill="midnightblue" stroke="midnightblue" points="535.731,-166.5 545.731,-163 535.731,-159.5 535.731,-166.5"/>
</g>
<!-- Node15 -->
<g id="node15" class="node"><title>Node15</title>
<g id="a_node15"><a xlink:href="../../d1/dca/classmodel_1_1_execution_environment.html#a472ef4da5205b0e95ec51fdbf52f654a" target="_top" xlink:title="model.ExecutionEnvironment.set\lActiveTurtle">
<polygon fill="white" stroke="black" points="547.5,-99 547.5,-129 722.5,-129 722.5,-99 547.5,-99"/>
<text text-anchor="start" x="555.5" y="-117" font-family="Helvetica,sans-Serif" font-size="10.00">model.ExecutionEnvironment.set</text>
<text text-anchor="middle" x="635" y="-106" font-family="Helvetica,sans-Serif" font-size="10.00">ActiveTurtle</text>
</a>
</g>
</g>
<!-- Node3&#45;&gt;Node15 -->
<g id="edge15" class="edge"><title>Node3&#45;&gt;Node15</title>
<path fill="none" stroke="midnightblue" d="M479.475,-153.436C503.783,-147.232 536.186,-138.963 565.041,-131.599"/>
<polygon fill="midnightblue" stroke="midnightblue" points="566.256,-134.901 575.08,-129.037 564.525,-128.119 566.256,-134.901"/>
</g>
<!-- Node5 -->
<g id="node5" class="node"><title>Node5</title>
<g id="a_node5"><a xlink:href="../../da/d64/classview_1_1_workspace.html#a16bda9a6a7fe7f8d3d7b09108675f9c4" target="_top" xlink:title="view.Workspace.setActive\lTurtle">
<polygon fill="white" stroke="black" points="788.5,-175 788.5,-205 925.5,-205 925.5,-175 788.5,-175"/>
<text text-anchor="start" x="796.5" y="-193" font-family="Helvetica,sans-Serif" font-size="10.00">view.Workspace.setActive</text>
<text text-anchor="middle" x="857" y="-182" font-family="Helvetica,sans-Serif" font-size="10.00">Turtle</text>
</a>
</g>
</g>
<!-- Node4&#45;&gt;Node5 -->
<g id="edge4" class="edge"><title>Node4&#45;&gt;Node5</title>
<path fill="none" stroke="midnightblue" d="M703.502,-205.25C727.043,-202.896 753.652,-200.235 777.977,-197.802"/>
<polygon fill="midnightblue" stroke="midnightblue" points="778.644,-201.253 788.246,-196.775 777.948,-194.288 778.644,-201.253"/>
</g>
<!-- Node9 -->
<g id="node9" class="node"><title>Node9</title>
<g id="a_node9"><a xlink:href="../../d8/df7/classview_1_1_turtle_view.html#ab5fdc3775e06339f4a68d1b795a81643" target="_top" xlink:title="view.TurtleView.getID">
<polygon fill="white" stroke="black" points="1393,-228.5 1393,-247.5 1507,-247.5 1507,-228.5 1393,-228.5"/>
<text text-anchor="middle" x="1450" y="-235.5" font-family="Helvetica,sans-Serif" font-size="10.00">view.TurtleView.getID</text>
</a>
</g>
</g>
<!-- Node4&#45;&gt;Node9 -->
<g id="edge12" class="edge"><title>Node4&#45;&gt;Node9</title>
<path fill="none" stroke="midnightblue" d="M703.57,-214.161C857.031,-219.069 1230.31,-231.006 1382.62,-235.877"/>
<polygon fill="midnightblue" stroke="midnightblue" points="1382.66,-239.38 1392.77,-236.202 1382.88,-232.384 1382.66,-239.38"/>
</g>
<!-- Node6 -->
<g id="node6" class="node"><title>Node6</title>
<g id="a_node6"><a xlink:href="../../d1/dc7/classview_1_1_side_bar.html#a7d73038dbba05f96990b60664afa2670" target="_top" xlink:title="view.SideBar.updateTurtle\lProperties">
<polygon fill="white" stroke="black" points="990,-159 990,-189 1128,-189 1128,-159 990,-159"/>
<text text-anchor="start" x="998" y="-177" font-family="Helvetica,sans-Serif" font-size="10.00">view.SideBar.updateTurtle</text>
<text text-anchor="middle" x="1059" y="-166" font-family="Helvetica,sans-Serif" font-size="10.00">Properties</text>
</a>
</g>
</g>
<!-- Node5&#45;&gt;Node6 -->
<g id="edge5" class="edge"><title>Node5&#45;&gt;Node6</title>
<path fill="none" stroke="midnightblue" d="M925.711,-184.583C942.952,-183.204 961.628,-181.71 979.363,-180.291"/>
<polygon fill="midnightblue" stroke="midnightblue" points="979.989,-183.752 989.678,-179.466 979.431,-176.774 979.989,-183.752"/>
</g>
<!-- Node7 -->
<g id="node7" class="node"><title>Node7</title>
<g id="a_node7"><a xlink:href="../../d9/d3a/classview_1_1_turtle_properties_view.html#af07bce3cf2bed2814a0fb3812d00b69e" target="_top" xlink:title="view.TurtlePropertiesView.update">
<polygon fill="white" stroke="black" points="1164.5,-156.5 1164.5,-175.5 1335.5,-175.5 1335.5,-156.5 1164.5,-156.5"/>
<text text-anchor="middle" x="1250" y="-163.5" font-family="Helvetica,sans-Serif" font-size="10.00">view.TurtlePropertiesView.update</text>
</a>
</g>
</g>
<!-- Node6&#45;&gt;Node7 -->
<g id="edge6" class="edge"><title>Node6&#45;&gt;Node7</title>
<path fill="none" stroke="midnightblue" d="M1128.23,-171.112C1136.67,-170.755 1145.41,-170.385 1154.15,-170.015"/>
<polygon fill="midnightblue" stroke="midnightblue" points="1154.56,-173.501 1164.4,-169.581 1154.26,-166.507 1154.56,-173.501"/>
</g>
<!-- Node8 -->
<g id="node8" class="node"><title>Node8</title>
<g id="a_node8"><a xlink:href="../../da/d64/classview_1_1_workspace.html#ad460da1164f039e5ea9a265d446d13fe" target="_top" xlink:title="view.Workspace.getTurtleMap">
<polygon fill="white" stroke="black" points="1372.5,-152.5 1372.5,-171.5 1527.5,-171.5 1527.5,-152.5 1372.5,-152.5"/>
<text text-anchor="middle" x="1450" y="-159.5" font-family="Helvetica,sans-Serif" font-size="10.00">view.Workspace.getTurtleMap</text>
</a>
</g>
</g>
<!-- Node7&#45;&gt;Node8 -->
<g id="edge7" class="edge"><title>Node7&#45;&gt;Node8</title>
<path fill="none" stroke="midnightblue" d="M1335.54,-164.292C1344.31,-164.115 1353.23,-163.935 1362.02,-163.757"/>
<polygon fill="midnightblue" stroke="midnightblue" points="1362.33,-167.252 1372.26,-163.55 1362.19,-160.253 1362.33,-167.252"/>
</g>
<!-- Node7&#45;&gt;Node9 -->
<g id="edge8" class="edge"><title>Node7&#45;&gt;Node9</title>
<path fill="none" stroke="midnightblue" d="M1270.29,-175.681C1293.84,-187.205 1335.08,-206.463 1372,-219 1379.33,-221.491 1387.16,-223.804 1394.91,-225.898"/>
<polygon fill="midnightblue" stroke="midnightblue" points="1394.09,-229.3 1404.65,-228.429 1395.85,-222.525 1394.09,-229.3"/>
</g>
<!-- Node10 -->
<g id="node10" class="node"><title>Node10</title>
<g id="a_node10"><a xlink:href="../../d8/df7/classview_1_1_turtle_view.html#afddbc74313a99bb100c8c50efa88f330" target="_top" xlink:title="view.TurtleView.getYCoord">
<polygon fill="white" stroke="black" points="1381.5,-114.5 1381.5,-133.5 1518.5,-133.5 1518.5,-114.5 1381.5,-114.5"/>
<text text-anchor="middle" x="1450" y="-121.5" font-family="Helvetica,sans-Serif" font-size="10.00">view.TurtleView.getYCoord</text>
</a>
</g>
</g>
<!-- Node7&#45;&gt;Node10 -->
<g id="edge9" class="edge"><title>Node7&#45;&gt;Node10</title>
<path fill="none" stroke="midnightblue" d="M1295.93,-156.47C1324.94,-150.316 1362.89,-142.267 1393.74,-135.722"/>
<polygon fill="midnightblue" stroke="midnightblue" points="1394.85,-139.064 1403.91,-133.565 1393.4,-132.217 1394.85,-139.064"/>
</g>
<!-- Node11 -->
<g id="node11" class="node"><title>Node11</title>
<g id="a_node11"><a xlink:href="../../d8/df7/classview_1_1_turtle_view.html#a5da3d4c9dafb77af0db0c589a72eadc8" target="_top" xlink:title="view.TurtleView.getHeading">
<polygon fill="white" stroke="black" points="1378,-76.5 1378,-95.5 1522,-95.5 1522,-76.5 1378,-76.5"/>
<text text-anchor="middle" x="1450" y="-83.5" font-family="Helvetica,sans-Serif" font-size="10.00">view.TurtleView.getHeading</text>
</a>
</g>
</g>
<!-- Node7&#45;&gt;Node11 -->
<g id="edge10" class="edge"><title>Node7&#45;&gt;Node11</title>
<path fill="none" stroke="midnightblue" d="M1267.3,-156.287C1290.05,-143.08 1332.95,-119.452 1372,-105 1378.75,-102.503 1385.95,-100.234 1393.14,-98.2037"/>
<polygon fill="midnightblue" stroke="midnightblue" points="1394.14,-101.559 1402.89,-95.5841 1392.32,-94.7988 1394.14,-101.559"/>
</g>
<!-- Node12 -->
<g id="node12" class="node"><title>Node12</title>
<g id="a_node12"><a xlink:href="../../d5/dea/classview_1_1_side_table_view.html#adbdf2bf0ebf7fc8ab04db2087baea03a" target="_top" xlink:title="view.SideTableView.getTable">
<polygon fill="white" stroke="black" points="1376,-190.5 1376,-209.5 1524,-209.5 1524,-190.5 1376,-190.5"/>
<text text-anchor="middle" x="1450" y="-197.5" font-family="Helvetica,sans-Serif" font-size="10.00">view.SideTableView.getTable</text>
</a>
</g>
</g>
<!-- Node7&#45;&gt;Node12 -->
<g id="edge11" class="edge"><title>Node7&#45;&gt;Node12</title>
<path fill="none" stroke="midnightblue" d="M1306.42,-175.516C1330.35,-179.626 1358.52,-184.464 1383.48,-188.75"/>
<polygon fill="midnightblue" stroke="midnightblue" points="1383.15,-192.243 1393.6,-190.486 1384.33,-185.344 1383.15,-192.243"/>
</g>
<!-- Node14 -->
<g id="node14" class="node"><title>Node14</title>
<g id="a_node14"><a xlink:href="../../d1/dca/classmodel_1_1_execution_environment.html#a93fd01341f06dfa81727344b120aef66" target="_top" xlink:title="model.ExecutionEnvironment.update\lObserver">
<polygon fill="white" stroke="black" points="760,-124 760,-154 954,-154 954,-124 760,-124"/>
<text text-anchor="start" x="768" y="-142" font-family="Helvetica,sans-Serif" font-size="10.00">model.ExecutionEnvironment.update</text>
<text text-anchor="middle" x="857" y="-131" font-family="Helvetica,sans-Serif" font-size="10.00">Observer</text>
</a>
</g>
</g>
<!-- Node13&#45;&gt;Node14 -->
<g id="edge14" class="edge"><title>Node13&#45;&gt;Node14</title>
<path fill="none" stroke="midnightblue" d="M724.215,-153.377C732.635,-152.458 741.233,-151.52 749.8,-150.585"/>
<polygon fill="midnightblue" stroke="midnightblue" points="750.268,-154.055 759.83,-149.491 749.509,-147.096 750.268,-154.055"/>
</g>
<!-- Node15&#45;&gt;Node14 -->
<g id="edge16" class="edge"><title>Node15&#45;&gt;Node14</title>
<path fill="none" stroke="midnightblue" d="M722.634,-123.845C731.641,-124.868 740.867,-125.917 750.055,-126.961"/>
<polygon fill="midnightblue" stroke="midnightblue" points="749.667,-130.439 759.999,-128.091 750.458,-123.484 749.667,-130.439"/>
</g>
</g>
</svg>
