<?xml version="1.0" encoding="UTF-8" standalone="no"?>
<!DOCTYPE svg PUBLIC "-//W3C//DTD SVG 1.1//EN"
 "http://www.w3.org/Graphics/SVG/1.1/DTD/svg11.dtd">
<!-- Generated by graphviz version 2.36.0 (20140111.2315)
 -->
<!-- Title: view.Workspace.Workspace Pages: 1 -->
<svg width="1140pt" height="304pt"
 viewBox="0.00 0.00 1140.00 304.00" xmlns="http://www.w3.org/2000/svg" xmlns:xlink="http://www.w3.org/1999/xlink">
<g id="graph0" class="graph" transform="scale(1 1) rotate(0) translate(4 300)">
<title>view.Workspace.Workspace</title>
<polygon fill="white" stroke="none" points="-4,4 -4,-300 1136,-300 1136,4 -4,4"/>
<!-- Node1 -->
<g id="node1" class="node"><title>Node1</title>
<polygon fill="#bfbfbf" stroke="black" points="0,-163.5 0,-182.5 144,-182.5 144,-163.5 0,-163.5"/>
<text text-anchor="middle" x="72" y="-170.5" font-family="Helvetica,sans-Serif" font-size="10.00">view.Workspace.Workspace</text>
</g>
<!-- Node2 -->
<g id="node2" class="node"><title>Node2</title>
<g id="a_node2"><a xlink:href="../../da/d64/classview_1_1_workspace.html#a4abde41a3048fa8f64ddfec40c8ffdb7" target="_top" xlink:title="view.Workspace.addTurtle">
<polygon fill="white" stroke="black" points="180.5,-197.5 180.5,-216.5 317.5,-216.5 317.5,-197.5 180.5,-197.5"/>
<text text-anchor="middle" x="249" y="-204.5" font-family="Helvetica,sans-Serif" font-size="10.00">view.Workspace.addTurtle</text>
</a>
</g>
</g>
<!-- Node1&#45;&gt;Node2 -->
<g id="edge1" class="edge"><title>Node1&#45;&gt;Node2</title>
<path fill="none" stroke="midnightblue" d="M122.213,-182.561C142.897,-186.58 167.136,-191.289 188.786,-195.496"/>
<polygon fill="midnightblue" stroke="midnightblue" points="188.37,-198.98 198.854,-197.452 189.705,-192.109 188.37,-198.98"/>
</g>
<!-- Node4 -->
<g id="node4" class="node"><title>Node4</title>
<g id="a_node4"><a xlink:href="../../da/d64/classview_1_1_workspace.html#a16bda9a6a7fe7f8d3d7b09108675f9c4" target="_top" xlink:title="view.Workspace.setActive\lTurtle">
<polygon fill="white" stroke="black" points="596.5,-124 596.5,-154 733.5,-154 733.5,-124 596.5,-124"/>
<text text-anchor="start" x="604.5" y="-142" font-family="Helvetica,sans-Serif" font-size="10.00">view.Workspace.setActive</text>
<text text-anchor="middle" x="665" y="-131" font-family="Helvetica,sans-Serif" font-size="10.00">Turtle</text>
</a>
</g>
</g>
<!-- Node1&#45;&gt;Node4 -->
<g id="edge16" class="edge"><title>Node1&#45;&gt;Node4</title>
<path fill="none" stroke="midnightblue" d="M144.288,-168.899C255.745,-162.487 470.441,-150.135 585.93,-143.491"/>
<polygon fill="midnightblue" stroke="midnightblue" points="586.328,-146.974 596.11,-142.906 585.926,-139.986 586.328,-146.974"/>
</g>
<!-- Node3 -->
<g id="node3" class="node"><title>Node3</title>
<g id="a_node3"><a xlink:href="../../da/d64/classview_1_1_workspace.html#a9eea72f983d5e7ad5af85056d927e380" target="_top" xlink:title="view.Workspace.configure\lTurtleEventHandler">
<polygon fill="white" stroke="black" points="374.5,-168 374.5,-198 511.5,-198 511.5,-168 374.5,-168"/>
<text text-anchor="start" x="382.5" y="-186" font-family="Helvetica,sans-Serif" font-size="10.00">view.Workspace.configure</text>
<text text-anchor="middle" x="443" y="-175" font-family="Helvetica,sans-Serif" font-size="10.00">TurtleEventHandler</text>
</a>
</g>
</g>
<!-- Node2&#45;&gt;Node3 -->
<g id="edge2" class="edge"><title>Node2&#45;&gt;Node3</title>
<path fill="none" stroke="midnightblue" d="M317.692,-198.538C332.748,-196.656 348.824,-194.647 364.248,-192.719"/>
<polygon fill="midnightblue" stroke="midnightblue" points="364.783,-196.179 374.272,-191.466 363.915,-189.233 364.783,-196.179"/>
</g>
<!-- Node12 -->
<g id="node12" class="node"><title>Node12</title>
<g id="a_node12"><a xlink:href="../../d1/dca/classmodel_1_1_execution_environment.html#a96986e0e8de018fd9b1b2bf79de862e1" target="_top" xlink:title="model.ExecutionEnvironment.add\lTurtle">
<polygon fill="white" stroke="black" points="354,-217 354,-247 532,-247 532,-217 354,-217"/>
<text text-anchor="start" x="362" y="-235" font-family="Helvetica,sans-Serif" font-size="10.00">model.ExecutionEnvironment.add</text>
<text text-anchor="middle" x="443" y="-224" font-family="Helvetica,sans-Serif" font-size="10.00">Turtle</text>
</a>
</g>
</g>
<!-- Node2&#45;&gt;Node12 -->
<g id="edge12" class="edge"><title>Node2&#45;&gt;Node12</title>
<path fill="none" stroke="midnightblue" d="M317.692,-215.814C326.164,-216.917 334.959,-218.062 343.779,-219.211"/>
<polygon fill="midnightblue" stroke="midnightblue" points="343.363,-222.686 353.731,-220.507 344.267,-215.745 343.363,-222.686"/>
</g>
<!-- Node14 -->
<g id="node14" class="node"><title>Node14</title>
<g id="a_node14"><a xlink:href="../../d1/dca/classmodel_1_1_execution_environment.html#a472ef4da5205b0e95ec51fdbf52f654a" target="_top" xlink:title="model.ExecutionEnvironment.set\lActiveTurtle">
<polygon fill="white" stroke="black" points="355.5,-266 355.5,-296 530.5,-296 530.5,-266 355.5,-266"/>
<text text-anchor="start" x="363.5" y="-284" font-family="Helvetica,sans-Serif" font-size="10.00">model.ExecutionEnvironment.set</text>
<text text-anchor="middle" x="443" y="-273" font-family="Helvetica,sans-Serif" font-size="10.00">ActiveTurtle</text>
</a>
</g>
</g>
<!-- Node2&#45;&gt;Node14 -->
<g id="edge14" class="edge"><title>Node2&#45;&gt;Node14</title>
<path fill="none" stroke="midnightblue" d="M268.02,-216.599C288.456,-227.222 322.975,-244.373 354,-256 360.395,-258.397 367.125,-260.693 373.896,-262.856"/>
<polygon fill="midnightblue" stroke="midnightblue" points="373.224,-266.312 383.812,-265.926 375.294,-259.625 373.224,-266.312"/>
</g>
<!-- Node3&#45;&gt;Node4 -->
<g id="edge3" class="edge"><title>Node3&#45;&gt;Node4</title>
<path fill="none" stroke="midnightblue" d="M511.502,-169.5C535.148,-164.77 561.89,-159.422 586.303,-154.539"/>
<polygon fill="midnightblue" stroke="midnightblue" points="587.127,-157.944 596.246,-152.551 585.754,-151.08 587.127,-157.944"/>
</g>
<!-- Node7 -->
<g id="node7" class="node"><title>Node7</title>
<g id="a_node7"><a xlink:href="../../d8/df7/classview_1_1_turtle_view.html#ab5fdc3775e06339f4a68d1b795a81643" target="_top" xlink:title="view.TurtleView.getID">
<polygon fill="white" stroke="black" points="995,-190.5 995,-209.5 1109,-209.5 1109,-190.5 995,-190.5"/>
<text text-anchor="middle" x="1052" y="-197.5" font-family="Helvetica,sans-Serif" font-size="10.00">view.TurtleView.getID</text>
</a>
</g>
</g>
<!-- Node3&#45;&gt;Node7 -->
<g id="edge11" class="edge"><title>Node3&#45;&gt;Node7</title>
<path fill="none" stroke="midnightblue" d="M511.571,-184.892C628.708,-188.173 868.071,-194.877 984.475,-198.137"/>
<polygon fill="midnightblue" stroke="midnightblue" points="984.578,-201.641 994.672,-198.422 984.774,-194.644 984.578,-201.641"/>
</g>
<!-- Node5 -->
<g id="node5" class="node"><title>Node5</title>
<g id="a_node5"><a xlink:href="../../d1/dc7/classview_1_1_side_bar.html#a7d73038dbba05f96990b60664afa2670" target="_top" xlink:title="view.SideBar.updateTurtle\lProperties">
<polygon fill="white" stroke="black" points="798,-109 798,-139 936,-139 936,-109 798,-109"/>
<text text-anchor="start" x="806" y="-127" font-family="Helvetica,sans-Serif" font-size="10.00">view.SideBar.updateTurtle</text>
<text text-anchor="middle" x="867" y="-116" font-family="Helvetica,sans-Serif" font-size="10.00">Properties</text>
</a>
</g>
</g>
<!-- Node4&#45;&gt;Node5 -->
<g id="edge4" class="edge"><title>Node4&#45;&gt;Node5</title>
<path fill="none" stroke="midnightblue" d="M733.711,-133.922C750.952,-132.629 769.628,-131.228 787.363,-129.898"/>
<polygon fill="midnightblue" stroke="midnightblue" points="787.968,-133.362 797.678,-129.124 787.445,-126.382 787.968,-133.362"/>
</g>
<!-- Node6 -->
<g id="node6" class="node"><title>Node6</title>
<g id="a_node6"><a xlink:href="../../d8/df7/classview_1_1_turtle_view.html#a5da3d4c9dafb77af0db0c589a72eadc8" target="_top" xlink:title="view.TurtleView.getHeading">
<polygon fill="white" stroke="black" points="980,-114.5 980,-133.5 1124,-133.5 1124,-114.5 980,-114.5"/>
<text text-anchor="middle" x="1052" y="-121.5" font-family="Helvetica,sans-Serif" font-size="10.00">view.TurtleView.getHeading</text>
</a>
</g>
</g>
<!-- Node5&#45;&gt;Node6 -->
<g id="edge5" class="edge"><title>Node5&#45;&gt;Node6</title>
<path fill="none" stroke="midnightblue" d="M936.142,-124C947.035,-124 958.401,-124 969.564,-124"/>
<polygon fill="midnightblue" stroke="midnightblue" points="969.74,-127.5 979.74,-124 969.74,-120.5 969.74,-127.5"/>
</g>
<!-- Node5&#45;&gt;Node7 -->
<g id="edge6" class="edge"><title>Node5&#45;&gt;Node7</title>
<path fill="none" stroke="midnightblue" d="M891.499,-139.246C912.027,-151.977 942.999,-169.795 972,-181 978.454,-183.493 985.334,-185.729 992.241,-187.714"/>
<polygon fill="midnightblue" stroke="midnightblue" points="991.766,-191.211 1002.33,-190.443 993.594,-184.454 991.766,-191.211"/>
</g>
<!-- Node8 -->
<g id="node8" class="node"><title>Node8</title>
<g id="a_node8"><a xlink:href="../../d8/df7/classview_1_1_turtle_view.html#a85b9acc922cc69f27c79bf13e3356e09" target="_top" xlink:title="view.TurtleView.getPenPosition">
<polygon fill="white" stroke="black" points="972,-76.5 972,-95.5 1132,-95.5 1132,-76.5 972,-76.5"/>
<text text-anchor="middle" x="1052" y="-83.5" font-family="Helvetica,sans-Serif" font-size="10.00">view.TurtleView.getPenPosition</text>
</a>
</g>
</g>
<!-- Node5&#45;&gt;Node8 -->
<g id="edge7" class="edge"><title>Node5&#45;&gt;Node8</title>
<path fill="none" stroke="midnightblue" d="M936.142,-109.85C955.61,-105.808 976.589,-101.451 995.223,-97.5821"/>
<polygon fill="midnightblue" stroke="midnightblue" points="995.941,-101.008 1005.02,-95.5476 994.518,-94.1539 995.941,-101.008"/>
</g>
<!-- Node9 -->
<g id="node9" class="node"><title>Node9</title>
<g id="a_node9"><a xlink:href="../../da/d64/classview_1_1_workspace.html#ad460da1164f039e5ea9a265d446d13fe" target="_top" xlink:title="view.Workspace.getTurtleMap">
<polygon fill="white" stroke="black" points="974.5,-38.5 974.5,-57.5 1129.5,-57.5 1129.5,-38.5 974.5,-38.5"/>
<text text-anchor="middle" x="1052" y="-45.5" font-family="Helvetica,sans-Serif" font-size="10.00">view.Workspace.getTurtleMap</text>
</a>
</g>
</g>
<!-- Node5&#45;&gt;Node9 -->
<g id="edge8" class="edge"><title>Node5&#45;&gt;Node9</title>
<path fill="none" stroke="midnightblue" d="M891.499,-108.754C912.027,-96.0227 942.999,-78.2049 972,-67 978.454,-64.5065 985.334,-62.271 992.241,-60.2863"/>
<polygon fill="midnightblue" stroke="midnightblue" points="993.594,-63.5463 1002.33,-57.5568 991.766,-56.7891 993.594,-63.5463"/>
</g>
<!-- Node10 -->
<g id="node10" class="node"><title>Node10</title>
<g id="a_node10"><a xlink:href="../../d8/df7/classview_1_1_turtle_view.html#afddbc74313a99bb100c8c50efa88f330" target="_top" xlink:title="view.TurtleView.getYCoord">
<polygon fill="white" stroke="black" points="983.5,-0.5 983.5,-19.5 1120.5,-19.5 1120.5,-0.5 983.5,-0.5"/>
<text text-anchor="middle" x="1052" y="-7.5" font-family="Helvetica,sans-Serif" font-size="10.00">view.TurtleView.getYCoord</text>
</a>
</g>
</g>
<!-- Node5&#45;&gt;Node10 -->
<g id="edge9" class="edge"><title>Node5&#45;&gt;Node10</title>
<path fill="none" stroke="midnightblue" d="M880.073,-108.958C897.896,-87.7951 933.338,-49.5281 972,-29 976.479,-26.6216 981.259,-24.5365 986.166,-22.7092"/>
<polygon fill="midnightblue" stroke="midnightblue" points="987.347,-26.0045 995.713,-19.5037 985.119,-19.3685 987.347,-26.0045"/>
</g>
<!-- Node11 -->
<g id="node11" class="node"><title>Node11</title>
<g id="a_node11"><a xlink:href="../../d8/df7/classview_1_1_turtle_view.html#a5f7b22cd8ab69258535b18920a488b63" target="_top" xlink:title="view.TurtleView.isShowing">
<polygon fill="white" stroke="black" points="984,-152.5 984,-171.5 1120,-171.5 1120,-152.5 984,-152.5"/>
<text text-anchor="middle" x="1052" y="-159.5" font-family="Helvetica,sans-Serif" font-size="10.00">view.TurtleView.isShowing</text>
</a>
</g>
</g>
<!-- Node5&#45;&gt;Node11 -->
<g id="edge10" class="edge"><title>Node5&#45;&gt;Node11</title>
<path fill="none" stroke="midnightblue" d="M936.142,-138.15C955.61,-142.192 976.589,-146.549 995.223,-150.418"/>
<polygon fill="midnightblue" stroke="midnightblue" points="994.518,-153.846 1005.02,-152.452 995.941,-146.992 994.518,-153.846"/>
</g>
<!-- Node13 -->
<g id="node13" class="node"><title>Node13</title>
<g id="a_node13"><a xlink:href="../../d1/dca/classmodel_1_1_execution_environment.html#a93fd01341f06dfa81727344b120aef66" target="_top" xlink:title="model.ExecutionEnvironment.update\lObserver">
<polygon fill="white" stroke="black" points="568,-241 568,-271 762,-271 762,-241 568,-241"/>
<text text-anchor="start" x="576" y="-259" font-family="Helvetica,sans-Serif" font-size="10.00">model.ExecutionEnvironment.update</text>
<text text-anchor="middle" x="665" y="-248" font-family="Helvetica,sans-Serif" font-size="10.00">Observer</text>
</a>
</g>
</g>
<!-- Node12&#45;&gt;Node13 -->
<g id="edge13" class="edge"><title>Node12&#45;&gt;Node13</title>
<path fill="none" stroke="midnightblue" d="M532.215,-241.623C540.635,-242.542 549.233,-243.48 557.8,-244.415"/>
<polygon fill="midnightblue" stroke="midnightblue" points="557.509,-247.904 567.83,-245.509 558.268,-240.945 557.509,-247.904"/>
</g>
<!-- Node14&#45;&gt;Node13 -->
<g id="edge15" class="edge"><title>Node14&#45;&gt;Node13</title>
<path fill="none" stroke="midnightblue" d="M530.634,-271.155C539.641,-270.132 548.867,-269.083 558.055,-268.039"/>
<polygon fill="midnightblue" stroke="midnightblue" points="558.458,-271.516 567.999,-266.909 557.667,-264.561 558.458,-271.516"/>
</g>
</g>
</svg>
