<?xml version="1.0" encoding="UTF-8" standalone="no"?>
<!DOCTYPE svg PUBLIC "-//W3C//DTD SVG 1.1//EN"
 "http://www.w3.org/Graphics/SVG/1.1/DTD/svg11.dtd">
<!-- Generated by graphviz version 2.36.0 (20140111.2315)
 -->
<!-- Title: view.Workspace.addTurtle Pages: 1 -->
<svg width="1458pt" height="91pt"
 viewBox="0.00 0.00 1458.00 91.00" xmlns="http://www.w3.org/2000/svg" xmlns:xlink="http://www.w3.org/1999/xlink">
<g id="graph0" class="graph" transform="scale(1 1) rotate(0) translate(4 87)">
<title>view.Workspace.addTurtle</title>
<polygon fill="white" stroke="none" points="-4,4 -4,-87 1454,-87 1454,4 -4,4"/>
<!-- Node1 -->
<g id="node1" class="node"><title>Node1</title>
<polygon fill="#bfbfbf" stroke="black" points="0.5,-22.5 0.5,-41.5 137.5,-41.5 137.5,-22.5 0.5,-22.5"/>
<text text-anchor="middle" x="69" y="-29.5" font-family="Helvetica,sans-Serif" font-size="10.00">view.Workspace.addTurtle</text>
</g>
<!-- Node2 -->
<g id="node2" class="node"><title>Node2</title>
<g id="a_node2"><a xlink:href="../../d6/de7/classview_1_1_s_logo_view.html#acf432f20e1a7dda7bef97f0619fb0fa5" target="_top" xlink:title="view.SLogoView.configure\lAddTurtlesButton">
<polygon fill="white" stroke="black" points="177.5,-39 177.5,-69 314.5,-69 314.5,-39 177.5,-39"/>
<text text-anchor="start" x="185.5" y="-57" font-family="Helvetica,sans-Serif" font-size="10.00">view.SLogoView.configure</text>
<text text-anchor="middle" x="246" y="-46" font-family="Helvetica,sans-Serif" font-size="10.00">AddTurtlesButton</text>
</a>
</g>
</g>
<!-- Node1&#45;&gt;Node2 -->
<g id="edge1" class="edge"><title>Node1&#45;&gt;Node2</title>
<path fill="none" stroke="midnightblue" d="M147.804,-41.7811C157.616,-43.0146 167.592,-44.2688 177.232,-45.4806"/>
<polygon fill="midnightblue" stroke="midnightblue" points="148.018,-38.2805 137.66,-40.5058 147.145,-45.2259 148.018,-38.2805"/>
</g>
<!-- Node10 -->
<g id="node10" class="node"><title>Node10</title>
<g id="a_node10"><a xlink:href="../../da/d64/classview_1_1_workspace.html#abbd85b844575ebab6643ba4ddc5a1612" target="_top" xlink:title="view.Workspace.Workspace">
<polygon fill="white" stroke="black" points="174,-0.5 174,-19.5 318,-19.5 318,-0.5 174,-0.5"/>
<text text-anchor="middle" x="246" y="-7.5" font-family="Helvetica,sans-Serif" font-size="10.00">view.Workspace.Workspace</text>
</a>
</g>
</g>
<!-- Node1&#45;&gt;Node10 -->
<g id="edge10" class="edge"><title>Node1&#45;&gt;Node10</title>
<path fill="none" stroke="midnightblue" d="M147.742,-22.2267C156.399,-21.1384 165.185,-20.0339 173.755,-18.9565"/>
<polygon fill="midnightblue" stroke="midnightblue" points="147.145,-18.7741 137.66,-23.4942 148.018,-25.7195 147.145,-18.7741"/>
</g>
<!-- Node3 -->
<g id="node3" class="node"><title>Node3</title>
<g id="a_node3"><a xlink:href="../../d6/de7/classview_1_1_s_logo_view.html#ae0050481c9168dd8eeb434d9aa79b047" target="_top" xlink:title="view.SLogoView.configureUI">
<polygon fill="white" stroke="black" points="354.5,-44.5 354.5,-63.5 501.5,-63.5 501.5,-44.5 354.5,-44.5"/>
<text text-anchor="middle" x="428" y="-51.5" font-family="Helvetica,sans-Serif" font-size="10.00">view.SLogoView.configureUI</text>
</a>
</g>
</g>
<!-- Node2&#45;&gt;Node3 -->
<g id="edge2" class="edge"><title>Node2&#45;&gt;Node3</title>
<path fill="none" stroke="midnightblue" d="M324.68,-54C334.502,-54 344.523,-54 354.263,-54"/>
<polygon fill="midnightblue" stroke="midnightblue" points="324.538,-50.5001 314.537,-54 324.537,-57.5001 324.538,-50.5001"/>
</g>
<!-- Node4 -->
<g id="node4" class="node"><title>Node4</title>
<g id="a_node4"><a xlink:href="../../d1/d75/classview_1_1_main_view.html#ade3718ede33fa2086649c8b3cf75d2f9" target="_top" xlink:title="view.MainView.initTabs">
<polygon fill="white" stroke="black" points="719.5,-63.5 719.5,-82.5 840.5,-82.5 840.5,-63.5 719.5,-63.5"/>
<text text-anchor="middle" x="780" y="-70.5" font-family="Helvetica,sans-Serif" font-size="10.00">view.MainView.initTabs</text>
</a>
</g>
</g>
<!-- Node3&#45;&gt;Node4 -->
<g id="edge3" class="edge"><title>Node3&#45;&gt;Node4</title>
<path fill="none" stroke="midnightblue" d="M511.556,-58.4816C575.367,-61.9457 662.18,-66.6584 719.361,-69.7624"/>
<polygon fill="midnightblue" stroke="midnightblue" points="511.695,-54.9841 501.52,-57.9368 511.316,-61.9738 511.695,-54.9841"/>
</g>
<!-- Node6 -->
<g id="node6" class="node"><title>Node6</title>
<g id="a_node6"><a xlink:href="../../d1/d75/classview_1_1_main_view.html#a39a2b399924a553ccd89dd2a2e6ea208" target="_top" xlink:title="view.MainView.newTab">
<polygon fill="white" stroke="black" points="538,-25.5 538,-44.5 658,-44.5 658,-25.5 538,-25.5"/>
<text text-anchor="middle" x="598" y="-32.5" font-family="Helvetica,sans-Serif" font-size="10.00">view.MainView.newTab</text>
</a>
</g>
</g>
<!-- Node3&#45;&gt;Node6 -->
<g id="edge5" class="edge"><title>Node3&#45;&gt;Node6</title>
<path fill="none" stroke="midnightblue" d="M511.654,-44.6523C520.487,-43.6533 529.339,-42.6521 537.821,-41.6928"/>
<polygon fill="midnightblue" stroke="midnightblue" points="511.253,-41.1751 501.71,-45.7768 512.04,-48.1308 511.253,-41.1751"/>
</g>
<!-- Node5 -->
<g id="node5" class="node"><title>Node5</title>
<g id="a_node5"><a xlink:href="../../d1/d75/classview_1_1_main_view.html#a9e27015c007bed90f32c79fc1187083f" target="_top" xlink:title="view.MainView.MainView">
<polygon fill="white" stroke="black" points="1320,-44.5 1320,-63.5 1450,-63.5 1450,-44.5 1320,-44.5"/>
<text text-anchor="middle" x="1385" y="-51.5" font-family="Helvetica,sans-Serif" font-size="10.00">view.MainView.MainView</text>
</a>
</g>
</g>
<!-- Node4&#45;&gt;Node5 -->
<g id="edge4" class="edge"><title>Node4&#45;&gt;Node5</title>
<path fill="none" stroke="midnightblue" d="M850.741,-70.8025C968.604,-67.0888 1205.48,-59.625 1319.62,-56.0286"/>
<polygon fill="midnightblue" stroke="midnightblue" points="850.63,-67.3042 840.745,-71.1175 850.85,-74.3007 850.63,-67.3042"/>
</g>
<!-- Node7 -->
<g id="node7" class="node"><title>Node7</title>
<g id="a_node7"><a xlink:href="../../d1/d75/classview_1_1_main_view.html#a0424800b5057be73f94e16ef2e1e2b33" target="_top" xlink:title="view.MainView.configureFileMenu">
<polygon fill="white" stroke="black" points="694.5,-25.5 694.5,-44.5 865.5,-44.5 865.5,-25.5 694.5,-25.5"/>
<text text-anchor="middle" x="780" y="-32.5" font-family="Helvetica,sans-Serif" font-size="10.00">view.MainView.configureFileMenu</text>
</a>
</g>
</g>
<!-- Node6&#45;&gt;Node7 -->
<g id="edge6" class="edge"><title>Node6&#45;&gt;Node7</title>
<path fill="none" stroke="midnightblue" d="M668.551,-35C676.961,-35 685.623,-35 694.221,-35"/>
<polygon fill="midnightblue" stroke="midnightblue" points="668.438,-31.5001 658.438,-35 668.438,-38.5001 668.438,-31.5001"/>
</g>
<!-- Node8 -->
<g id="node8" class="node"><title>Node8</title>
<g id="a_node8"><a xlink:href="../../d1/d75/classview_1_1_main_view.html#a200c2c8e08e038e2ea86acc40c17d8d2" target="_top" xlink:title="view.MainView.configureTopMenu">
<polygon fill="white" stroke="black" points="902,-25.5 902,-44.5 1074,-44.5 1074,-25.5 902,-25.5"/>
<text text-anchor="middle" x="988" y="-32.5" font-family="Helvetica,sans-Serif" font-size="10.00">view.MainView.configureTopMenu</text>
</a>
</g>
</g>
<!-- Node7&#45;&gt;Node8 -->
<g id="edge7" class="edge"><title>Node7&#45;&gt;Node8</title>
<path fill="none" stroke="midnightblue" d="M875.858,-35C884.572,-35 893.364,-35 901.983,-35"/>
<polygon fill="midnightblue" stroke="midnightblue" points="875.68,-31.5001 865.68,-35 875.68,-38.5001 875.68,-31.5001"/>
</g>
<!-- Node9 -->
<g id="node9" class="node"><title>Node9</title>
<g id="a_node9"><a xlink:href="../../d1/d75/classview_1_1_main_view.html#aff9e267e9368512a16e425f08d7b3ea0" target="_top" xlink:title="view.MainView.initRowConstraints">
<polygon fill="white" stroke="black" points="1110.5,-25.5 1110.5,-44.5 1283.5,-44.5 1283.5,-25.5 1110.5,-25.5"/>
<text text-anchor="middle" x="1197" y="-32.5" font-family="Helvetica,sans-Serif" font-size="10.00">view.MainView.initRowConstraints</text>
</a>
</g>
</g>
<!-- Node8&#45;&gt;Node9 -->
<g id="edge8" class="edge"><title>Node8&#45;&gt;Node9</title>
<path fill="none" stroke="midnightblue" d="M1084.22,-35C1092.9,-35 1101.65,-35 1110.24,-35"/>
<polygon fill="midnightblue" stroke="midnightblue" points="1084.09,-31.5001 1074.09,-35 1084.09,-38.5001 1084.09,-31.5001"/>
</g>
<!-- Node9&#45;&gt;Node5 -->
<g id="edge9" class="edge"><title>Node9&#45;&gt;Node5</title>
<path fill="none" stroke="midnightblue" d="M1293.68,-44.774C1302.57,-45.6819 1311.43,-46.5866 1319.92,-47.4546"/>
<polygon fill="midnightblue" stroke="midnightblue" points="1293.95,-41.2837 1283.65,-43.7492 1293.24,-48.2474 1293.95,-41.2837"/>
</g>
</g>
</svg>
