<?xml version="1.0" encoding="UTF-8" standalone="no"?>
<!DOCTYPE svg PUBLIC "-//W3C//DTD SVG 1.1//EN"
 "http://www.w3.org/Graphics/SVG/1.1/DTD/svg11.dtd">
<!-- Generated by graphviz version 2.36.0 (20140111.2315)
 -->
<!-- Title: view.Workspace.setActiveTurtle Pages: 1 -->
<svg width="516pt" height="218pt"
 viewBox="0.00 0.00 516.00 218.00" xmlns="http://www.w3.org/2000/svg" xmlns:xlink="http://www.w3.org/1999/xlink">
<g id="graph0" class="graph" transform="scale(1 1) rotate(0) translate(4 214)">
<title>view.Workspace.setActiveTurtle</title>
<polygon fill="white" stroke="none" points="-4,4 -4,-214 512,-214 512,4 -4,4"/>
<!-- Node1 -->
<g id="node1" class="node"><title>Node1</title>
<polygon fill="#bfbfbf" stroke="black" points="0.5,-90 0.5,-120 137.5,-120 137.5,-90 0.5,-90"/>
<text text-anchor="start" x="8.5" y="-108" font-family="Helvetica,sans-Serif" font-size="10.00">view.Workspace.setActive</text>
<text text-anchor="middle" x="69" y="-97" font-family="Helvetica,sans-Serif" font-size="10.00">Turtle</text>
</g>
<!-- Node2 -->
<g id="node2" class="node"><title>Node2</title>
<g id="a_node2"><a xlink:href="../../d1/dc7/classview_1_1_side_bar.html#a7d73038dbba05f96990b60664afa2670" target="_top" xlink:title="view.SideBar.updateTurtle\lProperties">
<polygon fill="white" stroke="black" points="174,-90 174,-120 312,-120 312,-90 174,-90"/>
<text text-anchor="start" x="182" y="-108" font-family="Helvetica,sans-Serif" font-size="10.00">view.SideBar.updateTurtle</text>
<text text-anchor="middle" x="243" y="-97" font-family="Helvetica,sans-Serif" font-size="10.00">Properties</text>
</a>
</g>
</g>
<!-- Node1&#45;&gt;Node2 -->
<g id="edge1" class="edge"><title>Node1&#45;&gt;Node2</title>
<path fill="none" stroke="midnightblue" d="M137.979,-105C146.483,-105 155.233,-105 163.876,-105"/>
<polygon fill="midnightblue" stroke="midnightblue" points="163.952,-108.5 173.952,-105 163.952,-101.5 163.952,-108.5"/>
</g>
<!-- Node3 -->
<g id="node3" class="node"><title>Node3</title>
<g id="a_node3"><a xlink:href="../../d8/df7/classview_1_1_turtle_view.html#a5da3d4c9dafb77af0db0c589a72eadc8" target="_top" xlink:title="view.TurtleView.getHeading">
<polygon fill="white" stroke="black" points="356,-190.5 356,-209.5 500,-209.5 500,-190.5 356,-190.5"/>
<text text-anchor="middle" x="428" y="-197.5" font-family="Helvetica,sans-Serif" font-size="10.00">view.TurtleView.getHeading</text>
</a>
</g>
</g>
<!-- Node2&#45;&gt;Node3 -->
<g id="edge2" class="edge"><title>Node2&#45;&gt;Node3</title>
<path fill="none" stroke="midnightblue" d="M260.333,-120.172C279.772,-137.419 313.906,-165.217 348,-181 353.331,-183.468 359.017,-185.635 364.803,-187.535"/>
<polygon fill="midnightblue" stroke="midnightblue" points="364.004,-190.95 374.588,-190.485 366.024,-184.248 364.004,-190.95"/>
</g>
<!-- Node4 -->
<g id="node4" class="node"><title>Node4</title>
<g id="a_node4"><a xlink:href="../../d8/df7/classview_1_1_turtle_view.html#ab5fdc3775e06339f4a68d1b795a81643" target="_top" xlink:title="view.TurtleView.getID">
<polygon fill="white" stroke="black" points="371,-152.5 371,-171.5 485,-171.5 485,-152.5 371,-152.5"/>
<text text-anchor="middle" x="428" y="-159.5" font-family="Helvetica,sans-Serif" font-size="10.00">view.TurtleView.getID</text>
</a>
</g>
</g>
<!-- Node2&#45;&gt;Node4 -->
<g id="edge3" class="edge"><title>Node2&#45;&gt;Node4</title>
<path fill="none" stroke="midnightblue" d="M282.171,-120.135C301.685,-127.567 325.917,-136.334 348,-143 356.153,-145.461 364.855,-147.818 373.393,-149.984"/>
<polygon fill="midnightblue" stroke="midnightblue" points="372.75,-153.43 383.297,-152.432 374.429,-146.634 372.75,-153.43"/>
</g>
<!-- Node5 -->
<g id="node5" class="node"><title>Node5</title>
<g id="a_node5"><a xlink:href="../../d8/df7/classview_1_1_turtle_view.html#a85b9acc922cc69f27c79bf13e3356e09" target="_top" xlink:title="view.TurtleView.getPenPosition">
<polygon fill="white" stroke="black" points="348,-114.5 348,-133.5 508,-133.5 508,-114.5 348,-114.5"/>
<text text-anchor="middle" x="428" y="-121.5" font-family="Helvetica,sans-Serif" font-size="10.00">view.TurtleView.getPenPosition</text>
</a>
</g>
</g>
<!-- Node2&#45;&gt;Node5 -->
<g id="edge4" class="edge"><title>Node2&#45;&gt;Node5</title>
<path fill="none" stroke="midnightblue" d="M312.142,-112.075C320.469,-112.939 329.072,-113.833 337.65,-114.723"/>
<polygon fill="midnightblue" stroke="midnightblue" points="337.382,-118.214 347.69,-115.766 338.105,-111.252 337.382,-118.214"/>
</g>
<!-- Node6 -->
<g id="node6" class="node"><title>Node6</title>
<g id="a_node6"><a xlink:href="../../da/d64/classview_1_1_workspace.html#ad460da1164f039e5ea9a265d446d13fe" target="_top" xlink:title="view.Workspace.getTurtleMap">
<polygon fill="white" stroke="black" points="350.5,-76.5 350.5,-95.5 505.5,-95.5 505.5,-76.5 350.5,-76.5"/>
<text text-anchor="middle" x="428" y="-83.5" font-family="Helvetica,sans-Serif" font-size="10.00">view.Workspace.getTurtleMap</text>
</a>
</g>
</g>
<!-- Node2&#45;&gt;Node6 -->
<g id="edge5" class="edge"><title>Node2&#45;&gt;Node6</title>
<path fill="none" stroke="midnightblue" d="M312.142,-97.9251C321.322,-96.9721 330.837,-95.9842 340.284,-95.0033"/>
<polygon fill="midnightblue" stroke="midnightblue" points="340.904,-98.4578 350.489,-93.9438 340.181,-91.4953 340.904,-98.4578"/>
</g>
<!-- Node7 -->
<g id="node7" class="node"><title>Node7</title>
<g id="a_node7"><a xlink:href="../../d8/df7/classview_1_1_turtle_view.html#afddbc74313a99bb100c8c50efa88f330" target="_top" xlink:title="view.TurtleView.getYCoord">
<polygon fill="white" stroke="black" points="359.5,-38.5 359.5,-57.5 496.5,-57.5 496.5,-38.5 359.5,-38.5"/>
<text text-anchor="middle" x="428" y="-45.5" font-family="Helvetica,sans-Serif" font-size="10.00">view.TurtleView.getYCoord</text>
</a>
</g>
</g>
<!-- Node2&#45;&gt;Node7 -->
<g id="edge6" class="edge"><title>Node2&#45;&gt;Node7</title>
<path fill="none" stroke="midnightblue" d="M282.171,-89.8653C301.685,-82.4325 325.917,-73.6663 348,-67 356.153,-64.5388 364.855,-62.1817 373.393,-60.0165"/>
<polygon fill="midnightblue" stroke="midnightblue" points="374.429,-63.3656 383.297,-57.5681 372.75,-56.5702 374.429,-63.3656"/>
</g>
<!-- Node8 -->
<g id="node8" class="node"><title>Node8</title>
<g id="a_node8"><a xlink:href="../../d8/df7/classview_1_1_turtle_view.html#a5f7b22cd8ab69258535b18920a488b63" target="_top" xlink:title="view.TurtleView.isShowing">
<polygon fill="white" stroke="black" points="360,-0.5 360,-19.5 496,-19.5 496,-0.5 360,-0.5"/>
<text text-anchor="middle" x="428" y="-7.5" font-family="Helvetica,sans-Serif" font-size="10.00">view.TurtleView.isShowing</text>
</a>
</g>
</g>
<!-- Node2&#45;&gt;Node8 -->
<g id="edge7" class="edge"><title>Node2&#45;&gt;Node8</title>
<path fill="none" stroke="midnightblue" d="M260.333,-89.8276C279.772,-72.5812 313.906,-44.7828 348,-29 353.331,-26.5324 359.017,-24.3648 364.803,-22.465"/>
<polygon fill="midnightblue" stroke="midnightblue" points="366.024,-25.7524 374.588,-19.5147 364.004,-19.0504 366.024,-25.7524"/>
</g>
</g>
</svg>
