<?xml version="1.0" encoding="UTF-8" standalone="no"?>
<!DOCTYPE svg PUBLIC "-//W3C//DTD SVG 1.1//EN"
 "http://www.w3.org/Graphics/SVG/1.1/DTD/svg11.dtd">
<!-- Generated by graphviz version 2.36.0 (20140111.2315)
 -->
<!-- Title: view.Workspace.getActiveTurtle Pages: 1 -->
<svg width="586pt" height="82pt"
 viewBox="0.00 0.00 586.00 82.00" xmlns="http://www.w3.org/2000/svg" xmlns:xlink="http://www.w3.org/1999/xlink">
<g id="graph0" class="graph" transform="scale(1 1) rotate(0) translate(4 78)">
<title>view.Workspace.getActiveTurtle</title>
<polygon fill="white" stroke="none" points="-4,4 -4,-78 582,-78 582,4 -4,4"/>
<!-- Node1 -->
<g id="node1" class="node"><title>Node1</title>
<polygon fill="#bfbfbf" stroke="black" points="0,-22 0,-52 138,-52 138,-22 0,-22"/>
<text text-anchor="start" x="8" y="-40" font-family="Helvetica,sans-Serif" font-size="10.00">view.Workspace.getActive</text>
<text text-anchor="middle" x="69" y="-29" font-family="Helvetica,sans-Serif" font-size="10.00">Turtle</text>
</g>
<!-- Node2 -->
<g id="node2" class="node"><title>Node2</title>
<g id="a_node2"><a xlink:href="../../dc/d3c/classview_1_1_customization_bar.html#ae18b74e088e9b57a49249dfb7c920097" target="_top" xlink:title="view.CustomizationBar.select\lTurtleImage">
<polygon fill="white" stroke="black" points="174.5,-44 174.5,-74 329.5,-74 329.5,-44 174.5,-44"/>
<text text-anchor="start" x="182.5" y="-62" font-family="Helvetica,sans-Serif" font-size="10.00">view.CustomizationBar.select</text>
<text text-anchor="middle" x="252" y="-51" font-family="Helvetica,sans-Serif" font-size="10.00">TurtleImage</text>
</a>
</g>
</g>
<!-- Node1&#45;&gt;Node2 -->
<g id="edge1" class="edge"><title>Node1&#45;&gt;Node2</title>
<path fill="none" stroke="midnightblue" d="M148.257,-46.5119C156.925,-47.5655 165.747,-48.6377 174.394,-49.6888"/>
<polygon fill="midnightblue" stroke="midnightblue" points="148.52,-43.0182 138.17,-45.2859 147.675,-49.967 148.52,-43.0182"/>
</g>
<!-- Node4 -->
<g id="node4" class="node"><title>Node4</title>
<g id="a_node4"><a xlink:href="../../d4/d64/classview_1_1_view_updater.html#a7bf016ce22316f6d22eb9710ced3dc4b" target="_top" xlink:title="view.ViewUpdater.setShape">
<polygon fill="white" stroke="black" points="178,-5.5 178,-24.5 326,-24.5 326,-5.5 178,-5.5"/>
<text text-anchor="middle" x="252" y="-12.5" font-family="Helvetica,sans-Serif" font-size="10.00">view.ViewUpdater.setShape</text>
</a>
</g>
</g>
<!-- Node1&#45;&gt;Node4 -->
<g id="edge3" class="edge"><title>Node1&#45;&gt;Node4</title>
<path fill="none" stroke="midnightblue" d="M148.278,-27.4855C158.064,-26.296 168.045,-25.083 177.75,-23.9033"/>
<polygon fill="midnightblue" stroke="midnightblue" points="147.675,-24.033 138.17,-28.7141 148.52,-30.9818 147.675,-24.033"/>
</g>
<!-- Node3 -->
<g id="node3" class="node"><title>Node3</title>
<g id="a_node3"><a xlink:href="../../dc/d3c/classview_1_1_customization_bar.html#a51c9304001bd726b1bc57009a08c0f5f" target="_top" xlink:title="view.CustomizationBar.CustomizationBar">
<polygon fill="white" stroke="black" points="366,-49.5 366,-68.5 578,-68.5 578,-49.5 366,-49.5"/>
<text text-anchor="middle" x="472" y="-56.5" font-family="Helvetica,sans-Serif" font-size="10.00">view.CustomizationBar.CustomizationBar</text>
</a>
</g>
</g>
<!-- Node2&#45;&gt;Node3 -->
<g id="edge2" class="edge"><title>Node2&#45;&gt;Node3</title>
<path fill="none" stroke="midnightblue" d="M339.608,-59C348.262,-59 357.114,-59 365.931,-59"/>
<polygon fill="midnightblue" stroke="midnightblue" points="339.552,-55.5001 329.552,-59 339.552,-62.5001 339.552,-55.5001"/>
</g>
<!-- Node5 -->
<g id="node5" class="node"><title>Node5</title>
<g id="a_node5"><a xlink:href="../../d2/d2b/classmodel_1_1instructions_1_1_front_end_instruction.html#ad73f35e44bf151648463df17e10152ac" target="_top" xlink:title="model.instructions.Front\lEndInstruction.execute">
<polygon fill="white" stroke="black" points="406,-0 406,-30 538,-30 538,-0 406,-0"/>
<text text-anchor="start" x="414" y="-18" font-family="Helvetica,sans-Serif" font-size="10.00">model.instructions.Front</text>
<text text-anchor="middle" x="472" y="-7" font-family="Helvetica,sans-Serif" font-size="10.00">EndInstruction.execute</text>
</a>
</g>
</g>
<!-- Node4&#45;&gt;Node5 -->
<g id="edge4" class="edge"><title>Node4&#45;&gt;Node5</title>
<path fill="none" stroke="midnightblue" d="M336.282,-15C359.269,-15 383.875,-15 405.685,-15"/>
<polygon fill="midnightblue" stroke="midnightblue" points="336.197,-11.5001 326.197,-15 336.197,-18.5001 336.197,-11.5001"/>
</g>
</g>
</svg>
