<?xml version="1.0" encoding="UTF-8" standalone="no"?>
<!DOCTYPE svg PUBLIC "-//W3C//DTD SVG 1.1//EN"
 "http://www.w3.org/Graphics/SVG/1.1/DTD/svg11.dtd">
<!-- Generated by graphviz version 2.36.0 (20140111.2315)
 -->
<!-- Title: view.Workspace.addTurtle Pages: 1 -->
<svg width="1164pt" height="243pt"
 viewBox="0.00 0.00 1164.00 243.00" xmlns="http://www.w3.org/2000/svg" xmlns:xlink="http://www.w3.org/1999/xlink">
<g id="graph0" class="graph" transform="scale(1 1) rotate(0) translate(4 239)">
<title>view.Workspace.addTurtle</title>
<polygon fill="white" stroke="none" points="-4,4 -4,-239 1160,-239 1160,4 -4,4"/>
<!-- Node1 -->
<g id="node1" class="node"><title>Node1</title>
<polygon fill="#bfbfbf" stroke="black" points="0.5,-161.5 0.5,-180.5 137.5,-180.5 137.5,-161.5 0.5,-161.5"/>
<text text-anchor="middle" x="69" y="-168.5" font-family="Helvetica,sans-Serif" font-size="10.00">view.Workspace.addTurtle</text>
</g>
<!-- Node2 -->
<g id="node2" class="node"><title>Node2</title>
<g id="a_node2"><a xlink:href="../../d1/dca/classmodel_1_1_execution_environment.html#a96986e0e8de018fd9b1b2bf79de862e1" target="_top" xlink:title="model.ExecutionEnvironment.add\lTurtle">
<polygon fill="white" stroke="black" points="174,-205 174,-235 352,-235 352,-205 174,-205"/>
<text text-anchor="start" x="182" y="-223" font-family="Helvetica,sans-Serif" font-size="10.00">model.ExecutionEnvironment.add</text>
<text text-anchor="middle" x="263" y="-212" font-family="Helvetica,sans-Serif" font-size="10.00">Turtle</text>
</a>
</g>
</g>
<!-- Node1&#45;&gt;Node2 -->
<g id="edge1" class="edge"><title>Node1&#45;&gt;Node2</title>
<path fill="none" stroke="midnightblue" d="M107.475,-180.564C131.783,-186.768 164.186,-195.037 193.041,-202.401"/>
<polygon fill="midnightblue" stroke="midnightblue" points="192.525,-205.881 203.08,-204.963 194.256,-199.099 192.525,-205.881"/>
</g>
<!-- Node4 -->
<g id="node4" class="node"><title>Node4</title>
<g id="a_node4"><a xlink:href="../../da/d64/classview_1_1_workspace.html#a9eea72f983d5e7ad5af85056d927e380" target="_top" xlink:title="view.Workspace.configure\lTurtleEventHandler">
<polygon fill="white" stroke="black" points="194.5,-107 194.5,-137 331.5,-137 331.5,-107 194.5,-107"/>
<text text-anchor="start" x="202.5" y="-125" font-family="Helvetica,sans-Serif" font-size="10.00">view.Workspace.configure</text>
<text text-anchor="middle" x="263" y="-114" font-family="Helvetica,sans-Serif" font-size="10.00">TurtleEventHandler</text>
</a>
</g>
</g>
<!-- Node1&#45;&gt;Node4 -->
<g id="edge3" class="edge"><title>Node1&#45;&gt;Node4</title>
<path fill="none" stroke="midnightblue" d="M107.475,-161.436C131.783,-155.232 164.186,-146.963 193.041,-139.599"/>
<polygon fill="midnightblue" stroke="midnightblue" points="194.256,-142.901 203.08,-137.037 192.525,-136.119 194.256,-142.901"/>
</g>
<!-- Node13 -->
<g id="node13" class="node"><title>Node13</title>
<g id="a_node13"><a xlink:href="../../d1/dca/classmodel_1_1_execution_environment.html#a472ef4da5205b0e95ec51fdbf52f654a" target="_top" xlink:title="model.ExecutionEnvironment.set\lActiveTurtle">
<polygon fill="white" stroke="black" points="175.5,-156 175.5,-186 350.5,-186 350.5,-156 175.5,-156"/>
<text text-anchor="start" x="183.5" y="-174" font-family="Helvetica,sans-Serif" font-size="10.00">model.ExecutionEnvironment.set</text>
<text text-anchor="middle" x="263" y="-163" font-family="Helvetica,sans-Serif" font-size="10.00">ActiveTurtle</text>
</a>
</g>
</g>
<!-- Node1&#45;&gt;Node13 -->
<g id="edge13" class="edge"><title>Node1&#45;&gt;Node13</title>
<path fill="none" stroke="midnightblue" d="M137.692,-171C146.651,-171 155.972,-171 165.301,-171"/>
<polygon fill="midnightblue" stroke="midnightblue" points="165.412,-174.5 175.412,-171 165.412,-167.5 165.412,-174.5"/>
</g>
<!-- Node3 -->
<g id="node3" class="node"><title>Node3</title>
<g id="a_node3"><a xlink:href="../../d1/dca/classmodel_1_1_execution_environment.html#a93fd01341f06dfa81727344b120aef66" target="_top" xlink:title="model.ExecutionEnvironment.update\lObserver">
<polygon fill="white" stroke="black" points="388,-191 388,-221 582,-221 582,-191 388,-191"/>
<text text-anchor="start" x="396" y="-209" font-family="Helvetica,sans-Serif" font-size="10.00">model.ExecutionEnvironment.update</text>
<text text-anchor="middle" x="485" y="-198" font-family="Helvetica,sans-Serif" font-size="10.00">Observer</text>
</a>
</g>
</g>
<!-- Node2&#45;&gt;Node3 -->
<g id="edge2" class="edge"><title>Node2&#45;&gt;Node3</title>
<path fill="none" stroke="midnightblue" d="M352.215,-214.386C360.635,-213.85 369.233,-213.303 377.8,-212.758"/>
<polygon fill="midnightblue" stroke="midnightblue" points="378.072,-216.248 387.83,-212.12 377.628,-209.262 378.072,-216.248"/>
</g>
<!-- Node5 -->
<g id="node5" class="node"><title>Node5</title>
<g id="a_node5"><a xlink:href="../../da/d64/classview_1_1_workspace.html#a16bda9a6a7fe7f8d3d7b09108675f9c4" target="_top" xlink:title="view.Workspace.setActive\lTurtle">
<polygon fill="white" stroke="black" points="416.5,-85 416.5,-115 553.5,-115 553.5,-85 416.5,-85"/>
<text text-anchor="start" x="424.5" y="-103" font-family="Helvetica,sans-Serif" font-size="10.00">view.Workspace.setActive</text>
<text text-anchor="middle" x="485" y="-92" font-family="Helvetica,sans-Serif" font-size="10.00">Turtle</text>
</a>
</g>
</g>
<!-- Node4&#45;&gt;Node5 -->
<g id="edge4" class="edge"><title>Node4&#45;&gt;Node5</title>
<path fill="none" stroke="midnightblue" d="M331.502,-115.25C355.043,-112.896 381.652,-110.235 405.977,-107.802"/>
<polygon fill="midnightblue" stroke="midnightblue" points="406.644,-111.253 416.246,-106.775 405.948,-104.288 406.644,-111.253"/>
</g>
<!-- Node9 -->
<g id="node9" class="node"><title>Node9</title>
<g id="a_node9"><a xlink:href="../../d8/df7/classview_1_1_turtle_view.html#ab5fdc3775e06339f4a68d1b795a81643" target="_top" xlink:title="view.TurtleView.getID">
<polygon fill="white" stroke="black" points="1021,-152.5 1021,-171.5 1135,-171.5 1135,-152.5 1021,-152.5"/>
<text text-anchor="middle" x="1078" y="-159.5" font-family="Helvetica,sans-Serif" font-size="10.00">view.TurtleView.getID</text>
</a>
</g>
</g>
<!-- Node4&#45;&gt;Node9 -->
<g id="edge12" class="edge"><title>Node4&#45;&gt;Node9</title>
<path fill="none" stroke="midnightblue" d="M331.57,-125.324C485.031,-132.875 858.306,-151.24 1010.62,-158.734"/>
<polygon fill="midnightblue" stroke="midnightblue" points="1010.61,-162.238 1020.77,-159.233 1010.95,-155.246 1010.61,-162.238"/>
</g>
<!-- Node6 -->
<g id="node6" class="node"><title>Node6</title>
<g id="a_node6"><a xlink:href="../../d1/dc7/classview_1_1_side_bar.html#a7d73038dbba05f96990b60664afa2670" target="_top" xlink:title="view.SideBar.updateTurtle\lProperties">
<polygon fill="white" stroke="black" points="618,-85 618,-115 756,-115 756,-85 618,-85"/>
<text text-anchor="start" x="626" y="-103" font-family="Helvetica,sans-Serif" font-size="10.00">view.SideBar.updateTurtle</text>
<text text-anchor="middle" x="687" y="-92" font-family="Helvetica,sans-Serif" font-size="10.00">Properties</text>
</a>
</g>
</g>
<!-- Node5&#45;&gt;Node6 -->
<g id="edge5" class="edge"><title>Node5&#45;&gt;Node6</title>
<path fill="none" stroke="midnightblue" d="M553.711,-100C570.952,-100 589.628,-100 607.363,-100"/>
<polygon fill="midnightblue" stroke="midnightblue" points="607.678,-103.5 617.678,-100 607.678,-96.5001 607.678,-103.5"/>
</g>
<!-- Node7 -->
<g id="node7" class="node"><title>Node7</title>
<g id="a_node7"><a xlink:href="../../d9/d3a/classview_1_1_turtle_properties_view.html#af07bce3cf2bed2814a0fb3812d00b69e" target="_top" xlink:title="view.TurtlePropertiesView.update">
<polygon fill="white" stroke="black" points="792.5,-81.5 792.5,-100.5 963.5,-100.5 963.5,-81.5 792.5,-81.5"/>
<text text-anchor="middle" x="878" y="-88.5" font-family="Helvetica,sans-Serif" font-size="10.00">view.TurtlePropertiesView.update</text>
</a>
</g>
</g>
<!-- Node6&#45;&gt;Node7 -->
<g id="edge6" class="edge"><title>Node6&#45;&gt;Node7</title>
<path fill="none" stroke="midnightblue" d="M756.233,-96.7508C764.669,-96.3491 773.408,-95.9329 782.151,-95.5166"/>
<polygon fill="midnightblue" stroke="midnightblue" points="782.577,-99.0004 792.399,-95.0286 782.244,-92.0083 782.577,-99.0004"/>
</g>
<!-- Node8 -->
<g id="node8" class="node"><title>Node8</title>
<g id="a_node8"><a xlink:href="../../d8/df7/classview_1_1_turtle_view.html#a5da3d4c9dafb77af0db0c589a72eadc8" target="_top" xlink:title="view.TurtleView.getHeading">
<polygon fill="white" stroke="black" points="1006,-76.5 1006,-95.5 1150,-95.5 1150,-76.5 1006,-76.5"/>
<text text-anchor="middle" x="1078" y="-83.5" font-family="Helvetica,sans-Serif" font-size="10.00">view.TurtleView.getHeading</text>
</a>
</g>
</g>
<!-- Node7&#45;&gt;Node8 -->
<g id="edge7" class="edge"><title>Node7&#45;&gt;Node8</title>
<path fill="none" stroke="midnightblue" d="M963.544,-88.865C974.218,-88.5955 985.12,-88.3202 995.741,-88.052"/>
<polygon fill="midnightblue" stroke="midnightblue" points="995.913,-91.5489 1005.82,-87.7974 995.736,-84.5511 995.913,-91.5489"/>
</g>
<!-- Node7&#45;&gt;Node9 -->
<g id="edge8" class="edge"><title>Node7&#45;&gt;Node9</title>
<path fill="none" stroke="midnightblue" d="M898.734,-100.674C922.369,-111.979 963.368,-130.702 1000,-143 1007.43,-145.496 1015.37,-147.822 1023.22,-149.929"/>
<polygon fill="midnightblue" stroke="midnightblue" points="1022.51,-153.361 1033.07,-152.479 1024.27,-146.585 1022.51,-153.361"/>
</g>
<!-- Node10 -->
<g id="node10" class="node"><title>Node10</title>
<g id="a_node10"><a xlink:href="../../d5/dea/classview_1_1_side_table_view.html#adbdf2bf0ebf7fc8ab04db2087baea03a" target="_top" xlink:title="view.SideTableView.getTable">
<polygon fill="white" stroke="black" points="1004,-38.5 1004,-57.5 1152,-57.5 1152,-38.5 1004,-38.5"/>
<text text-anchor="middle" x="1078" y="-45.5" font-family="Helvetica,sans-Serif" font-size="10.00">view.SideTableView.getTable</text>
</a>
</g>
</g>
<!-- Node7&#45;&gt;Node10 -->
<g id="edge9" class="edge"><title>Node7&#45;&gt;Node10</title>
<path fill="none" stroke="midnightblue" d="M922.943,-81.4569C952.55,-75.027 991.791,-66.5049 1023.26,-59.6711"/>
<polygon fill="midnightblue" stroke="midnightblue" points="1024.15,-63.059 1033.18,-57.5164 1022.67,-56.2185 1024.15,-63.059"/>
</g>
<!-- Node11 -->
<g id="node11" class="node"><title>Node11</title>
<g id="a_node11"><a xlink:href="../../da/d64/classview_1_1_workspace.html#ad460da1164f039e5ea9a265d446d13fe" target="_top" xlink:title="view.Workspace.getTurtleMap">
<polygon fill="white" stroke="black" points="1000.5,-0.5 1000.5,-19.5 1155.5,-19.5 1155.5,-0.5 1000.5,-0.5"/>
<text text-anchor="middle" x="1078" y="-7.5" font-family="Helvetica,sans-Serif" font-size="10.00">view.Workspace.getTurtleMap</text>
</a>
</g>
</g>
<!-- Node7&#45;&gt;Node11 -->
<g id="edge10" class="edge"><title>Node7&#45;&gt;Node11</title>
<path fill="none" stroke="midnightblue" d="M894.893,-81.3373C917.519,-67.9391 960.644,-43.7111 1000,-29 1006.74,-26.481 1013.93,-24.1988 1021.12,-22.1616"/>
<polygon fill="midnightblue" stroke="midnightblue" points="1022.12,-25.5165 1030.87,-19.5363 1020.3,-18.7574 1022.12,-25.5165"/>
</g>
<!-- Node12 -->
<g id="node12" class="node"><title>Node12</title>
<g id="a_node12"><a xlink:href="../../d8/df7/classview_1_1_turtle_view.html#afddbc74313a99bb100c8c50efa88f330" target="_top" xlink:title="view.TurtleView.getYCoord">
<polygon fill="white" stroke="black" points="1009.5,-114.5 1009.5,-133.5 1146.5,-133.5 1146.5,-114.5 1009.5,-114.5"/>
<text text-anchor="middle" x="1078" y="-121.5" font-family="Helvetica,sans-Serif" font-size="10.00">view.TurtleView.getYCoord</text>
</a>
</g>
</g>
<!-- Node7&#45;&gt;Node12 -->
<g id="edge11" class="edge"><title>Node7&#45;&gt;Node12</title>
<path fill="none" stroke="midnightblue" d="M936.004,-100.501C958.996,-104.333 985.697,-108.783 1009.64,-112.773"/>
<polygon fill="midnightblue" stroke="midnightblue" points="1009.27,-116.26 1019.71,-114.452 1010.42,-109.356 1009.27,-116.26"/>
</g>
<!-- Node13&#45;&gt;Node3 -->
<g id="edge14" class="edge"><title>Node13&#45;&gt;Node3</title>
<path fill="none" stroke="midnightblue" d="M350.634,-184.783C360.094,-186.288 369.795,-187.831 379.441,-189.366"/>
<polygon fill="midnightblue" stroke="midnightblue" points="379.034,-192.845 389.46,-190.959 380.134,-185.932 379.034,-192.845"/>
</g>
</g>
</svg>
