<?xml version="1.0" encoding="UTF-8" standalone="no"?>
<!DOCTYPE svg PUBLIC "-//W3C//DTD SVG 1.1//EN"
 "http://www.w3.org/Graphics/SVG/1.1/DTD/svg11.dtd">
<!-- Generated by graphviz version 2.36.0 (20140111.2315)
 -->
<!-- Title: view.Workspace.addTurtle Pages: 1 -->
<svg width="960pt" height="267pt"
 viewBox="0.00 0.00 960.00 267.00" xmlns="http://www.w3.org/2000/svg" xmlns:xlink="http://www.w3.org/1999/xlink">
<g id="graph0" class="graph" transform="scale(1 1) rotate(0) translate(4 263)">
<title>view.Workspace.addTurtle</title>
<polygon fill="white" stroke="none" points="-4,4 -4,-263 956,-263 956,4 -4,4"/>
<!-- Node1 -->
<g id="node1" class="node"><title>Node1</title>
<polygon fill="#bfbfbf" stroke="black" points="0.5,-185.5 0.5,-204.5 137.5,-204.5 137.5,-185.5 0.5,-185.5"/>
<text text-anchor="middle" x="69" y="-192.5" font-family="Helvetica,sans-Serif" font-size="10.00">view.Workspace.addTurtle</text>
</g>
<!-- Node2 -->
<g id="node2" class="node"><title>Node2</title>
<g id="a_node2"><a xlink:href="../../d1/dca/classmodel_1_1_execution_environment.html#a96986e0e8de018fd9b1b2bf79de862e1" target="_top" xlink:title="model.ExecutionEnvironment.add\lTurtle">
<polygon fill="white" stroke="black" points="174,-229 174,-259 352,-259 352,-229 174,-229"/>
<text text-anchor="start" x="182" y="-247" font-family="Helvetica,sans-Serif" font-size="10.00">model.ExecutionEnvironment.add</text>
<text text-anchor="middle" x="263" y="-236" font-family="Helvetica,sans-Serif" font-size="10.00">Turtle</text>
</a>
</g>
</g>
<!-- Node1&#45;&gt;Node2 -->
<g id="edge1" class="edge"><title>Node1&#45;&gt;Node2</title>
<path fill="none" stroke="midnightblue" d="M107.475,-204.564C131.783,-210.768 164.186,-219.037 193.041,-226.401"/>
<polygon fill="midnightblue" stroke="midnightblue" points="192.525,-229.881 203.08,-228.963 194.256,-223.099 192.525,-229.881"/>
</g>
<!-- Node4 -->
<g id="node4" class="node"><title>Node4</title>
<g id="a_node4"><a xlink:href="../../da/d64/classview_1_1_workspace.html#a9eea72f983d5e7ad5af85056d927e380" target="_top" xlink:title="view.Workspace.configure\lTurtleEventHandler">
<polygon fill="white" stroke="black" points="194.5,-131 194.5,-161 331.5,-161 331.5,-131 194.5,-131"/>
<text text-anchor="start" x="202.5" y="-149" font-family="Helvetica,sans-Serif" font-size="10.00">view.Workspace.configure</text>
<text text-anchor="middle" x="263" y="-138" font-family="Helvetica,sans-Serif" font-size="10.00">TurtleEventHandler</text>
</a>
</g>
</g>
<!-- Node1&#45;&gt;Node4 -->
<g id="edge3" class="edge"><title>Node1&#45;&gt;Node4</title>
<path fill="none" stroke="midnightblue" d="M107.475,-185.436C131.783,-179.232 164.186,-170.963 193.041,-163.599"/>
<polygon fill="midnightblue" stroke="midnightblue" points="194.256,-166.901 203.08,-161.037 192.525,-160.119 194.256,-166.901"/>
</g>
<!-- Node13 -->
<g id="node13" class="node"><title>Node13</title>
<g id="a_node13"><a xlink:href="../../d1/dca/classmodel_1_1_execution_environment.html#a472ef4da5205b0e95ec51fdbf52f654a" target="_top" xlink:title="model.ExecutionEnvironment.set\lActiveTurtle">
<polygon fill="white" stroke="black" points="175.5,-180 175.5,-210 350.5,-210 350.5,-180 175.5,-180"/>
<text text-anchor="start" x="183.5" y="-198" font-family="Helvetica,sans-Serif" font-size="10.00">model.ExecutionEnvironment.set</text>
<text text-anchor="middle" x="263" y="-187" font-family="Helvetica,sans-Serif" font-size="10.00">ActiveTurtle</text>
</a>
</g>
</g>
<!-- Node1&#45;&gt;Node13 -->
<g id="edge13" class="edge"><title>Node1&#45;&gt;Node13</title>
<path fill="none" stroke="midnightblue" d="M137.692,-195C146.651,-195 155.972,-195 165.301,-195"/>
<polygon fill="midnightblue" stroke="midnightblue" points="165.412,-198.5 175.412,-195 165.412,-191.5 165.412,-198.5"/>
</g>
<!-- Node3 -->
<g id="node3" class="node"><title>Node3</title>
<g id="a_node3"><a xlink:href="../../d1/dca/classmodel_1_1_execution_environment.html#a93fd01341f06dfa81727344b120aef66" target="_top" xlink:title="model.ExecutionEnvironment.update\lObserver">
<polygon fill="white" stroke="black" points="388,-215 388,-245 582,-245 582,-215 388,-215"/>
<text text-anchor="start" x="396" y="-233" font-family="Helvetica,sans-Serif" font-size="10.00">model.ExecutionEnvironment.update</text>
<text text-anchor="middle" x="485" y="-222" font-family="Helvetica,sans-Serif" font-size="10.00">Observer</text>
</a>
</g>
</g>
<!-- Node2&#45;&gt;Node3 -->
<g id="edge2" class="edge"><title>Node2&#45;&gt;Node3</title>
<path fill="none" stroke="midnightblue" d="M352.215,-238.386C360.635,-237.85 369.233,-237.303 377.8,-236.758"/>
<polygon fill="midnightblue" stroke="midnightblue" points="378.072,-240.248 387.83,-236.12 377.628,-233.262 378.072,-240.248"/>
</g>
<!-- Node5 -->
<g id="node5" class="node"><title>Node5</title>
<g id="a_node5"><a xlink:href="../../da/d64/classview_1_1_workspace.html#a16bda9a6a7fe7f8d3d7b09108675f9c4" target="_top" xlink:title="view.Workspace.setActive\lTurtle">
<polygon fill="white" stroke="black" points="416.5,-109 416.5,-139 553.5,-139 553.5,-109 416.5,-109"/>
<text text-anchor="start" x="424.5" y="-127" font-family="Helvetica,sans-Serif" font-size="10.00">view.Workspace.setActive</text>
<text text-anchor="middle" x="485" y="-116" font-family="Helvetica,sans-Serif" font-size="10.00">Turtle</text>
</a>
</g>
</g>
<!-- Node4&#45;&gt;Node5 -->
<g id="edge4" class="edge"><title>Node4&#45;&gt;Node5</title>
<path fill="none" stroke="midnightblue" d="M331.502,-139.25C355.043,-136.896 381.652,-134.235 405.977,-131.802"/>
<polygon fill="midnightblue" stroke="midnightblue" points="406.644,-135.253 416.246,-130.775 405.948,-128.288 406.644,-135.253"/>
</g>
<!-- Node8 -->
<g id="node8" class="node"><title>Node8</title>
<g id="a_node8"><a xlink:href="../../d8/df7/classview_1_1_turtle_view.html#ab5fdc3775e06339f4a68d1b795a81643" target="_top" xlink:title="view.TurtleView.getID">
<polygon fill="white" stroke="black" points="815,-190.5 815,-209.5 929,-209.5 929,-190.5 815,-190.5"/>
<text text-anchor="middle" x="872" y="-197.5" font-family="Helvetica,sans-Serif" font-size="10.00">view.TurtleView.getID</text>
</a>
</g>
</g>
<!-- Node4&#45;&gt;Node8 -->
<g id="edge12" class="edge"><title>Node4&#45;&gt;Node8</title>
<path fill="none" stroke="midnightblue" d="M331.571,-152.011C448.708,-162.432 688.071,-183.726 804.475,-194.082"/>
<polygon fill="midnightblue" stroke="midnightblue" points="804.401,-197.589 814.672,-194.989 805.022,-190.617 804.401,-197.589"/>
</g>
<!-- Node6 -->
<g id="node6" class="node"><title>Node6</title>
<g id="a_node6"><a xlink:href="../../d1/dc7/classview_1_1_side_bar.html#a7d73038dbba05f96990b60664afa2670" target="_top" xlink:title="view.SideBar.updateTurtle\lProperties">
<polygon fill="white" stroke="black" points="618,-109 618,-139 756,-139 756,-109 618,-109"/>
<text text-anchor="start" x="626" y="-127" font-family="Helvetica,sans-Serif" font-size="10.00">view.SideBar.updateTurtle</text>
<text text-anchor="middle" x="687" y="-116" font-family="Helvetica,sans-Serif" font-size="10.00">Properties</text>
</a>
</g>
</g>
<!-- Node5&#45;&gt;Node6 -->
<g id="edge5" class="edge"><title>Node5&#45;&gt;Node6</title>
<path fill="none" stroke="midnightblue" d="M553.711,-124C570.952,-124 589.628,-124 607.363,-124"/>
<polygon fill="midnightblue" stroke="midnightblue" points="607.678,-127.5 617.678,-124 607.678,-120.5 607.678,-127.5"/>
</g>
<!-- Node7 -->
<g id="node7" class="node"><title>Node7</title>
<g id="a_node7"><a xlink:href="../../d8/df7/classview_1_1_turtle_view.html#a5da3d4c9dafb77af0db0c589a72eadc8" target="_top" xlink:title="view.TurtleView.getHeading">
<polygon fill="white" stroke="black" points="800,-152.5 800,-171.5 944,-171.5 944,-152.5 800,-152.5"/>
<text text-anchor="middle" x="872" y="-159.5" font-family="Helvetica,sans-Serif" font-size="10.00">view.TurtleView.getHeading</text>
</a>
</g>
</g>
<!-- Node6&#45;&gt;Node7 -->
<g id="edge6" class="edge"><title>Node6&#45;&gt;Node7</title>
<path fill="none" stroke="midnightblue" d="M756.142,-138.15C775.61,-142.192 796.589,-146.549 815.223,-150.418"/>
<polygon fill="midnightblue" stroke="midnightblue" points="814.518,-153.846 825.021,-152.452 815.941,-146.992 814.518,-153.846"/>
</g>
<!-- Node6&#45;&gt;Node8 -->
<g id="edge7" class="edge"><title>Node6&#45;&gt;Node8</title>
<path fill="none" stroke="midnightblue" d="M711.499,-139.246C732.027,-151.977 762.999,-169.795 792,-181 798.454,-183.493 805.334,-185.729 812.241,-187.714"/>
<polygon fill="midnightblue" stroke="midnightblue" points="811.766,-191.211 822.333,-190.443 813.594,-184.454 811.766,-191.211"/>
</g>
<!-- Node9 -->
<g id="node9" class="node"><title>Node9</title>
<g id="a_node9"><a xlink:href="../../d8/df7/classview_1_1_turtle_view.html#a85b9acc922cc69f27c79bf13e3356e09" target="_top" xlink:title="view.TurtleView.getPenPosition">
<polygon fill="white" stroke="black" points="792,-114.5 792,-133.5 952,-133.5 952,-114.5 792,-114.5"/>
<text text-anchor="middle" x="872" y="-121.5" font-family="Helvetica,sans-Serif" font-size="10.00">view.TurtleView.getPenPosition</text>
</a>
</g>
</g>
<!-- Node6&#45;&gt;Node9 -->
<g id="edge8" class="edge"><title>Node6&#45;&gt;Node9</title>
<path fill="none" stroke="midnightblue" d="M756.142,-124C764.469,-124 773.072,-124 781.65,-124"/>
<polygon fill="midnightblue" stroke="midnightblue" points="781.69,-127.5 791.69,-124 781.69,-120.5 781.69,-127.5"/>
</g>
<!-- Node10 -->
<g id="node10" class="node"><title>Node10</title>
<g id="a_node10"><a xlink:href="../../da/d64/classview_1_1_workspace.html#ad460da1164f039e5ea9a265d446d13fe" target="_top" xlink:title="view.Workspace.getTurtleMap">
<polygon fill="white" stroke="black" points="794.5,-76.5 794.5,-95.5 949.5,-95.5 949.5,-76.5 794.5,-76.5"/>
<text text-anchor="middle" x="872" y="-83.5" font-family="Helvetica,sans-Serif" font-size="10.00">view.Workspace.getTurtleMap</text>
</a>
</g>
</g>
<!-- Node6&#45;&gt;Node10 -->
<g id="edge9" class="edge"><title>Node6&#45;&gt;Node10</title>
<path fill="none" stroke="midnightblue" d="M756.142,-109.85C775.61,-105.808 796.589,-101.451 815.223,-97.5821"/>
<polygon fill="midnightblue" stroke="midnightblue" points="815.941,-101.008 825.021,-95.5476 814.518,-94.1539 815.941,-101.008"/>
</g>
<!-- Node11 -->
<g id="node11" class="node"><title>Node11</title>
<g id="a_node11"><a xlink:href="../../d8/df7/classview_1_1_turtle_view.html#afddbc74313a99bb100c8c50efa88f330" target="_top" xlink:title="view.TurtleView.getYCoord">
<polygon fill="white" stroke="black" points="803.5,-38.5 803.5,-57.5 940.5,-57.5 940.5,-38.5 803.5,-38.5"/>
<text text-anchor="middle" x="872" y="-45.5" font-family="Helvetica,sans-Serif" font-size="10.00">view.TurtleView.getYCoord</text>
</a>
</g>
</g>
<!-- Node6&#45;&gt;Node11 -->
<g id="edge10" class="edge"><title>Node6&#45;&gt;Node11</title>
<path fill="none" stroke="midnightblue" d="M711.499,-108.754C732.027,-96.0227 762.999,-78.2049 792,-67 798.454,-64.5065 805.334,-62.271 812.241,-60.2863"/>
<polygon fill="midnightblue" stroke="midnightblue" points="813.594,-63.5463 822.333,-57.5568 811.766,-56.7891 813.594,-63.5463"/>
</g>
<!-- Node12 -->
<g id="node12" class="node"><title>Node12</title>
<g id="a_node12"><a xlink:href="../../d8/df7/classview_1_1_turtle_view.html#a5f7b22cd8ab69258535b18920a488b63" target="_top" xlink:title="view.TurtleView.isShowing">
<polygon fill="white" stroke="black" points="804,-0.5 804,-19.5 940,-19.5 940,-0.5 804,-0.5"/>
<text text-anchor="middle" x="872" y="-7.5" font-family="Helvetica,sans-Serif" font-size="10.00">view.TurtleView.isShowing</text>
</a>
</g>
</g>
<!-- Node6&#45;&gt;Node12 -->
<g id="edge11" class="edge"><title>Node6&#45;&gt;Node12</title>
<path fill="none" stroke="midnightblue" d="M700.073,-108.958C717.896,-87.7951 753.338,-49.5281 792,-29 796.479,-26.6216 801.259,-24.5365 806.166,-22.7092"/>
<polygon fill="midnightblue" stroke="midnightblue" points="807.347,-26.0045 815.713,-19.5037 805.119,-19.3685 807.347,-26.0045"/>
</g>
<!-- Node13&#45;&gt;Node3 -->
<g id="edge14" class="edge"><title>Node13&#45;&gt;Node3</title>
<path fill="none" stroke="midnightblue" d="M350.634,-208.783C360.094,-210.288 369.795,-211.831 379.441,-213.366"/>
<polygon fill="midnightblue" stroke="midnightblue" points="379.034,-216.845 389.46,-214.959 380.134,-209.932 379.034,-216.845"/>
</g>
</g>
</svg>
