<?xml version="1.0" encoding="UTF-8" standalone="no"?>
<!DOCTYPE svg PUBLIC "-//W3C//DTD SVG 1.1//EN"
 "http://www.w3.org/Graphics/SVG/1.1/DTD/svg11.dtd">
<!-- Generated by graphviz version 2.36.0 (20140111.2315)
 -->
<!-- Title: view.Workspace.setBackground Pages: 1 -->
<svg width="824pt" height="87pt"
 viewBox="0.00 0.00 824.00 87.00" xmlns="http://www.w3.org/2000/svg" xmlns:xlink="http://www.w3.org/1999/xlink">
<g id="graph0" class="graph" transform="scale(1 1) rotate(0) translate(4 83)">
<title>view.Workspace.setBackground</title>
<polygon fill="white" stroke="none" points="-4,4 -4,-83 820,-83 820,4 -4,4"/>
<!-- Node1 -->
<g id="node1" class="node"><title>Node1</title>
<polygon fill="#bfbfbf" stroke="black" points="0.5,-29.5 0.5,-48.5 165.5,-48.5 165.5,-29.5 0.5,-29.5"/>
<text text-anchor="middle" x="83" y="-36.5" font-family="Helvetica,sans-Serif" font-size="10.00">view.Workspace.setBackground</text>
</g>
<!-- Node2 -->
<g id="node2" class="node"><title>Node2</title>
<g id="a_node2"><a xlink:href="../../dc/d3c/classview_1_1_customization_bar.html#a4edc7c993b5d2b9ee521e3078b833e31" target="_top" xlink:title="view.CustomizationBar.change\lBackgroundColor">
<polygon fill="white" stroke="black" points="208,-49 208,-79 370,-79 370,-49 208,-49"/>
<text text-anchor="start" x="216" y="-67" font-family="Helvetica,sans-Serif" font-size="10.00">view.CustomizationBar.change</text>
<text text-anchor="middle" x="289" y="-56" font-family="Helvetica,sans-Serif" font-size="10.00">BackgroundColor</text>
</a>
</g>
</g>
<!-- Node1&#45;&gt;Node2 -->
<g id="edge1" class="edge"><title>Node1&#45;&gt;Node2</title>
<path fill="none" stroke="midnightblue" d="M171.7,-49.7476C183.692,-51.2172 195.953,-52.7197 207.802,-54.1718"/>
<polygon fill="midnightblue" stroke="midnightblue" points="172.057,-46.2652 161.706,-48.5227 171.206,-53.2132 172.057,-46.2652"/>
</g>
<!-- Node5 -->
<g id="node5" class="node"><title>Node5</title>
<g id="a_node5"><a xlink:href="../../d4/d64/classview_1_1_view_updater.html#a06c4b1d2e671e58cb1e09852aa11eb15" target="_top" xlink:title="view.ViewUpdater.setBackground\lColor">
<polygon fill="white" stroke="black" points="202,-0 202,-30 376,-30 376,-0 202,-0"/>
<text text-anchor="start" x="210" y="-18" font-family="Helvetica,sans-Serif" font-size="10.00">view.ViewUpdater.setBackground</text>
<text text-anchor="middle" x="289" y="-7" font-family="Helvetica,sans-Serif" font-size="10.00">Color</text>
</a>
</g>
</g>
<!-- Node1&#45;&gt;Node5 -->
<g id="edge4" class="edge"><title>Node1&#45;&gt;Node5</title>
<path fill="none" stroke="midnightblue" d="M174.944,-28.3007C183.88,-27.2495 192.93,-26.1848 201.815,-25.1394"/>
<polygon fill="midnightblue" stroke="midnightblue" points="174.442,-24.8356 164.919,-29.4801 175.26,-31.7876 174.442,-24.8356"/>
</g>
<!-- Node3 -->
<g id="node3" class="node"><title>Node3</title>
<g id="a_node3"><a xlink:href="../../dc/d3c/classview_1_1_customization_bar.html#ab0d07736db72531d01430e2474957435" target="_top" xlink:title="view.CustomizationBar.select\lBackgroundColor">
<polygon fill="white" stroke="black" points="412.5,-49 412.5,-79 567.5,-79 567.5,-49 412.5,-49"/>
<text text-anchor="start" x="420.5" y="-67" font-family="Helvetica,sans-Serif" font-size="10.00">view.CustomizationBar.select</text>
<text text-anchor="middle" x="490" y="-56" font-family="Helvetica,sans-Serif" font-size="10.00">BackgroundColor</text>
</a>
</g>
</g>
<!-- Node2&#45;&gt;Node3 -->
<g id="edge2" class="edge"><title>Node2&#45;&gt;Node3</title>
<path fill="none" stroke="midnightblue" d="M380.28,-64C390.981,-64 401.825,-64 412.312,-64"/>
<polygon fill="midnightblue" stroke="midnightblue" points="380.081,-60.5001 370.081,-64 380.081,-67.5001 380.081,-60.5001"/>
</g>
<!-- Node4 -->
<g id="node4" class="node"><title>Node4</title>
<g id="a_node4"><a xlink:href="../../dc/d3c/classview_1_1_customization_bar.html#a51c9304001bd726b1bc57009a08c0f5f" target="_top" xlink:title="view.CustomizationBar.CustomizationBar">
<polygon fill="white" stroke="black" points="604,-54.5 604,-73.5 816,-73.5 816,-54.5 604,-54.5"/>
<text text-anchor="middle" x="710" y="-61.5" font-family="Helvetica,sans-Serif" font-size="10.00">view.CustomizationBar.CustomizationBar</text>
</a>
</g>
</g>
<!-- Node3&#45;&gt;Node4 -->
<g id="edge3" class="edge"><title>Node3&#45;&gt;Node4</title>
<path fill="none" stroke="midnightblue" d="M577.608,-64C586.262,-64 595.114,-64 603.931,-64"/>
<polygon fill="midnightblue" stroke="midnightblue" points="577.552,-60.5001 567.552,-64 577.552,-67.5001 577.552,-60.5001"/>
</g>
<!-- Node6 -->
<g id="node6" class="node"><title>Node6</title>
<g id="a_node6"><a xlink:href="../../d2/d2b/classmodel_1_1instructions_1_1_front_end_instruction.html#ad73f35e44bf151648463df17e10152ac" target="_top" xlink:title="model.instructions.Front\lEndInstruction.execute">
<polygon fill="white" stroke="black" points="424,-0 424,-30 556,-30 556,-0 424,-0"/>
<text text-anchor="start" x="432" y="-18" font-family="Helvetica,sans-Serif" font-size="10.00">model.instructions.Front</text>
<text text-anchor="middle" x="490" y="-7" font-family="Helvetica,sans-Serif" font-size="10.00">EndInstruction.execute</text>
</a>
</g>
</g>
<!-- Node5&#45;&gt;Node6 -->
<g id="edge5" class="edge"><title>Node5&#45;&gt;Node6</title>
<path fill="none" stroke="midnightblue" d="M386.277,-15C398.973,-15 411.738,-15 423.745,-15"/>
<polygon fill="midnightblue" stroke="midnightblue" points="386.127,-11.5001 376.127,-15 386.127,-18.5001 386.127,-11.5001"/>
</g>
</g>
</svg>
