<?xml version="1.0" encoding="UTF-8" standalone="no"?>
<!DOCTYPE svg PUBLIC "-//W3C//DTD SVG 1.1//EN"
 "http://www.w3.org/Graphics/SVG/1.1/DTD/svg11.dtd">
<!-- Generated by graphviz version 2.36.0 (20140111.2315)
 -->
<!-- Title: model.Node.getInstruction Pages: 1 -->
<svg width="1042pt" height="66pt"
 viewBox="0.00 0.00 1042.00 66.00" xmlns="http://www.w3.org/2000/svg" xmlns:xlink="http://www.w3.org/1999/xlink">
<g id="graph0" class="graph" transform="scale(1 1) rotate(0) translate(4 62)">
<title>model.Node.getInstruction</title>
<polygon fill="white" stroke="none" points="-4,4 -4,-62 1038,-62 1038,4 -4,4"/>
<!-- Node1 -->
<g id="node1" class="node"><title>Node1</title>
<polygon fill="#bfbfbf" stroke="black" points="0,-19.5 0,-38.5 144,-38.5 144,-19.5 0,-19.5"/>
<text text-anchor="middle" x="72" y="-26.5" font-family="Helvetica,sans-Serif" font-size="10.00">model.Node.getInstruction</text>
</g>
<!-- Node2 -->
<g id="node2" class="node"><title>Node2</title>
<g id="a_node2"><a xlink:href="../../dc/df5/classmodel_1_1_parser.html#ae83c95a5190fc22b9b70b1a40b76661c" target="_top" xlink:title="model.Parser.makeTree">
<polygon fill="white" stroke="black" points="180,-19.5 180,-38.5 308,-38.5 308,-19.5 180,-19.5"/>
<text text-anchor="middle" x="244" y="-26.5" font-family="Helvetica,sans-Serif" font-size="10.00">model.Parser.makeTree</text>
</a>
</g>
</g>
<!-- Node1&#45;&gt;Node2 -->
<g id="edge1" class="edge"><title>Node1&#45;&gt;Node2</title>
<path fill="none" stroke="midnightblue" d="M154.157,-29C162.753,-29 171.402,-29 179.751,-29"/>
<polygon fill="midnightblue" stroke="midnightblue" points="154.11,-25.5001 144.11,-29 154.11,-32.5001 154.11,-25.5001"/>
</g>
<!-- Node3 -->
<g id="node3" class="node"><title>Node3</title>
<g id="a_node3"><a xlink:href="../../dc/df5/classmodel_1_1_parser.html#ab83c099e5a13c82b1a12d7eedda6fbf9" target="_top" xlink:title="model.Parser.parseAndExecute">
<polygon fill="white" stroke="black" points="344,-19.5 344,-38.5 510,-38.5 510,-19.5 344,-19.5"/>
<text text-anchor="middle" x="427" y="-26.5" font-family="Helvetica,sans-Serif" font-size="10.00">model.Parser.parseAndExecute</text>
</a>
</g>
</g>
<!-- Node2&#45;&gt;Node3 -->
<g id="edge2" class="edge"><title>Node2&#45;&gt;Node3</title>
<path fill="none" stroke="midnightblue" d="M318.192,-29C326.608,-29 335.231,-29 343.755,-29"/>
<polygon fill="midnightblue" stroke="midnightblue" points="318.051,-25.5001 308.051,-29 318.051,-32.5001 318.051,-25.5001"/>
</g>
<!-- Node4 -->
<g id="node4" class="node"><title>Node4</title>
<g id="a_node4"><a xlink:href="../../da/dc8/classview_1_1_editor.html#a149e24d4e5e4464f3fb1601f2717663b" target="_top" xlink:title="view.Editor.parse">
<polygon fill="white" stroke="black" points="582,-38.5 582,-57.5 678,-57.5 678,-38.5 582,-38.5"/>
<text text-anchor="middle" x="630" y="-45.5" font-family="Helvetica,sans-Serif" font-size="10.00">view.Editor.parse</text>
</a>
</g>
</g>
<!-- Node3&#45;&gt;Node4 -->
<g id="edge3" class="edge"><title>Node3&#45;&gt;Node4</title>
<path fill="none" stroke="midnightblue" d="M520.131,-37.7089C541.474,-39.7264 563.324,-41.7918 581.795,-43.5378"/>
<polygon fill="midnightblue" stroke="midnightblue" points="520.329,-34.2121 510.044,-36.7554 519.671,-41.1811 520.329,-34.2121"/>
</g>
<!-- Node7 -->
<g id="node7" class="node"><title>Node7</title>
<g id="a_node7"><a xlink:href="../../d1/dc7/classview_1_1_side_bar.html#ac97dbdf731a291e46ba643c78b4c5a93" target="_top" xlink:title="view.SideBar.createHistoryPane">
<polygon fill="white" stroke="black" points="546.5,-0.5 546.5,-19.5 713.5,-19.5 713.5,-0.5 546.5,-0.5"/>
<text text-anchor="middle" x="630" y="-7.5" font-family="Helvetica,sans-Serif" font-size="10.00">view.SideBar.createHistoryPane</text>
</a>
</g>
</g>
<!-- Node3&#45;&gt;Node7 -->
<g id="edge6" class="edge"><title>Node3&#45;&gt;Node7</title>
<path fill="none" stroke="midnightblue" d="M520.189,-20.2856C528.877,-19.4644 537.648,-18.6353 546.241,-17.823"/>
<polygon fill="midnightblue" stroke="midnightblue" points="519.671,-16.8189 510.044,-21.2446 520.329,-23.7879 519.671,-16.8189"/>
</g>
<!-- Node5 -->
<g id="node5" class="node"><title>Node5</title>
<g id="a_node5"><a xlink:href="../../da/dc8/classview_1_1_editor.html#abd790752cfd8c9f01fb5b27a3680a982" target="_top" xlink:title="view.Editor.createRunButton">
<polygon fill="white" stroke="black" points="750.5,-38.5 750.5,-57.5 899.5,-57.5 899.5,-38.5 750.5,-38.5"/>
<text text-anchor="middle" x="825" y="-45.5" font-family="Helvetica,sans-Serif" font-size="10.00">view.Editor.createRunButton</text>
</a>
</g>
</g>
<!-- Node4&#45;&gt;Node5 -->
<g id="edge4" class="edge"><title>Node4&#45;&gt;Node5</title>
<path fill="none" stroke="midnightblue" d="M688.4,-48C707.791,-48 729.718,-48 750.198,-48"/>
<polygon fill="midnightblue" stroke="midnightblue" points="688.213,-44.5001 678.213,-48 688.213,-51.5001 688.213,-44.5001"/>
</g>
<!-- Node6 -->
<g id="node6" class="node"><title>Node6</title>
<g id="a_node6"><a xlink:href="../../da/dc8/classview_1_1_editor.html#a5b88172770caabfc64e9b7adaee1a2c5" target="_top" xlink:title="view.Editor.Editor">
<polygon fill="white" stroke="black" points="936.5,-38.5 936.5,-57.5 1033.5,-57.5 1033.5,-38.5 936.5,-38.5"/>
<text text-anchor="middle" x="985" y="-45.5" font-family="Helvetica,sans-Serif" font-size="10.00">view.Editor.Editor</text>
</a>
</g>
</g>
<!-- Node5&#45;&gt;Node6 -->
<g id="edge5" class="edge"><title>Node5&#45;&gt;Node6</title>
<path fill="none" stroke="midnightblue" d="M910.07,-48C919.056,-48 927.955,-48 936.298,-48"/>
<polygon fill="midnightblue" stroke="midnightblue" points="909.911,-44.5001 899.911,-48 909.911,-51.5001 909.911,-44.5001"/>
</g>
<!-- Node8 -->
<g id="node8" class="node"><title>Node8</title>
<g id="a_node8"><a xlink:href="../../d1/dc7/classview_1_1_side_bar.html#aaa1459e91d727b5bd46e51f5b4a596f2" target="_top" xlink:title="view.SideBar.SideBar">
<polygon fill="white" stroke="black" points="767,-0.5 767,-19.5 883,-19.5 883,-0.5 767,-0.5"/>
<text text-anchor="middle" x="825" y="-7.5" font-family="Helvetica,sans-Serif" font-size="10.00">view.SideBar.SideBar</text>
</a>
</g>
</g>
<!-- Node7&#45;&gt;Node8 -->
<g id="edge7" class="edge"><title>Node7&#45;&gt;Node8</title>
<path fill="none" stroke="midnightblue" d="M723.812,-10C738.484,-10 753.271,-10 766.811,-10"/>
<polygon fill="midnightblue" stroke="midnightblue" points="723.689,-6.5001 713.689,-10 723.689,-13.5001 723.689,-6.5001"/>
</g>
</g>
</svg>
