<?xml version="1.0" encoding="UTF-8" standalone="no"?>
<!DOCTYPE svg PUBLIC "-//W3C//DTD SVG 1.1//EN"
 "http://www.w3.org/Graphics/SVG/1.1/DTD/svg11.dtd">
<!-- Generated by graphviz version 2.36.0 (20140111.2315)
 -->
<!-- Title: view.Editor Pages: 1 -->
<!--zoomable 582 -->
<svg id="main" version="1.1" xmlns="http://www.w3.org/2000/svg" xmlns:xlink="http://www.w3.org/1999/xlink" xml:space="preserve" onload="init(evt)">
<style type="text/css"><![CDATA[
.edge:hover path { stroke: red; }
.edge:hover polygon { stroke: red; fill: red; }
]]></style>
<script type="text/javascript"><![CDATA[
var edges = document.getElementsByTagName('g');
if (edges && edges.length) {
  for (var i=0;i<edges.length;i++) {
    if (edges[i].id.substr(0,4)=='edge') {
      edges[i].setAttribute('class','edge');
    }
  }
}
]]></script>
        <defs>
                <circle id="rim" cx="0" cy="0" r="7"/>
                <circle id="rim2" cx="0" cy="0" r="3.5"/>
                <g id="zoomPlus">
                        <use xlink:href="#rim" fill="#404040">
                                <set attributeName="fill" to="#808080" begin="zoomplus.mouseover" end="zoomplus.mouseout"/>
                        </use>
                        <path d="M-4,0h8M0,-4v8" fill="none" stroke="white" stroke-width="1.5" pointer-events="none"/>
                </g>
                <g id="zoomMin">
                        <use xlink:href="#rim" fill="#404040">
                                <set attributeName="fill" to="#808080" begin="zoomminus.mouseover" end="zoomminus.mouseout"/>
                        </use>
                        <path d="M-4,0h8" fill="none" stroke="white" stroke-width="1.5" pointer-events="none"/>
                </g>
                <g id="dirArrow">
                        <path fill="none" stroke="white" stroke-width="1.5" d="M0,-3.0v7 M-2.5,-0.5L0,-3.0L2.5,-0.5"/>
                </g>
               <g id="resetDef">
                       <use xlink:href="#rim2" fill="#404040">
                               <set attributeName="fill" to="#808080" begin="reset.mouseover" end="reset.mouseout"/>
                       </use>
               </g>
        </defs>

<script type="text/javascript">
var viewWidth = 1886;
var viewHeight = 582;
var sectionId = 'dynsection-1';
</script>
<script xlink:href="../../svgpan.js"/>
<svg id="graph" class="graph">
<g id="viewport">
<title>view.Editor</title>
<polygon fill="white" stroke="none" points="-4,4 -4,-578.391 1882,-578.391 1882,4 -4,4"/>
<!-- Node1 -->
<g id="node1" class="node"><title>Node1</title>
<polygon fill="#bfbfbf" stroke="black" points="367.5,-261.891 367.5,-280.891 434.5,-280.891 434.5,-261.891 367.5,-261.891"/>
<text text-anchor="middle" x="401" y="-268.891" font-family="Helvetica,sans-Serif" font-size="10.00">view.Editor</text>
</g>
<!-- Node29 -->
<g id="node29" class="node"><title>Node29</title>
<g id="a_node29"><a xlink:href="../../d6/de7/classview_1_1_s_logo_view.html" target="_top" xlink:title="view.SLogoView">
<polygon fill="white" stroke="black" points="611.5,-299.891 611.5,-318.891 702.5,-318.891 702.5,-299.891 611.5,-299.891"/>
<text text-anchor="middle" x="657" y="-306.891" font-family="Helvetica,sans-Serif" font-size="10.00">view.SLogoView</text>
</a>
</g>
</g>
<!-- Node1&#45;&gt;Node29 -->
<g id="edge39" class="edge"><title>Node1&#45;&gt;Node29</title>
<path fill="none" stroke="#9a32cd" stroke-dasharray="5,2" d="M444.591,-276.231C480.3,-280.462 532.591,-287.064 578,-294.391 588.755,-296.126 600.3,-298.219 611.123,-300.283"/>
<polygon fill="#9a32cd" stroke="#9a32cd" points="444.863,-272.739 434.523,-275.048 444.047,-279.691 444.863,-272.739"/>
<text text-anchor="middle" x="538" y="-297.391" font-family="Helvetica,sans-Serif" font-size="10.00"> myEditor</text>
</g>
<!-- Node2 -->
<g id="node2" class="node"><title>Node2</title>
<polygon fill="white" stroke="#bfbfbf" points="66,-223.891 66,-242.891 108,-242.891 108,-223.891 66,-223.891"/>
<text text-anchor="middle" x="87" y="-230.891" font-family="Helvetica,sans-Serif" font-size="10.00">HBox</text>
</g>
<!-- Node2&#45;&gt;Node1 -->
<g id="edge1" class="edge"><title>Node2&#45;&gt;Node1</title>
<path fill="none" stroke="midnightblue" d="M118.644,-237.123C177.658,-244.311 306.592,-260.014 367.237,-267.4"/>
<polygon fill="midnightblue" stroke="midnightblue" points="118.821,-233.619 108.471,-235.884 117.975,-240.568 118.821,-233.619"/>
</g>
<!-- Node3 -->
<g id="node3" class="node"><title>Node3</title>
<polygon fill="white" stroke="#bfbfbf" points="62.5,-299.891 62.5,-318.891 111.5,-318.891 111.5,-299.891 62.5,-299.891"/>
<text text-anchor="middle" x="87" y="-306.891" font-family="Helvetica,sans-Serif" font-size="10.00">Button</text>
</g>
<!-- Node3&#45;&gt;Node1 -->
<g id="edge2" class="edge"><title>Node3&#45;&gt;Node1</title>
<path fill="none" stroke="#9a32cd" stroke-dasharray="5,2" d="M121.785,-306.309C164.351,-302.308 239.714,-294.831 304,-286.391 325.074,-283.624 348.659,-279.947 367.178,-276.926"/>
<polygon fill="#9a32cd" stroke="#9a32cd" points="121.329,-302.837 111.697,-307.25 121.979,-309.806 121.329,-302.837"/>
<text text-anchor="middle" x="248" y="-302.391" font-family="Helvetica,sans-Serif" font-size="10.00"> runButton</text>
</g>
<!-- Node4 -->
<g id="node4" class="node"><title>Node4</title>
<g id="a_node4"><a xlink:href="../../dc/df5/classmodel_1_1_parser.html" target="_top" xlink:title="model.Parser">
<polygon fill="white" stroke="black" points="891,-464.891 891,-483.891 971,-483.891 971,-464.891 891,-464.891"/>
<text text-anchor="middle" x="931" y="-471.891" font-family="Helvetica,sans-Serif" font-size="10.00">model.Parser</text>
</a>
</g>
</g>
<!-- Node4&#45;&gt;Node1 -->
<g id="edge3" class="edge"><title>Node4&#45;&gt;Node1</title>
<path fill="none" stroke="#9a32cd" stroke-dasharray="5,2" d="M880.602,-470.13C867.878,-467.315 854.754,-462.75 844,-455.391 832.098,-447.246 837.026,-437.688 826,-428.391 785.842,-394.531 768.527,-394.749 718,-380.391 623.076,-353.416 573.002,-414.523 498,-350.391 476.84,-332.298 500.197,-309.554 480,-290.391 467.968,-278.975 450.268,-274.067 434.769,-272.083"/>
<polygon fill="#9a32cd" stroke="#9a32cd" points="880.193,-473.615 890.669,-472.033 881.493,-466.737 880.193,-473.615"/>
<text text-anchor="middle" x="657" y="-383.391" font-family="Helvetica,sans-Serif" font-size="10.00"> myParser</text>
</g>
<!-- Node20 -->
<g id="node20" class="node"><title>Node20</title>
<g id="a_node20"><a xlink:href="../../d1/dc7/classview_1_1_side_bar.html" target="_top" xlink:title="view.SideBar">
<polygon fill="white" stroke="black" points="1201.5,-350.891 1201.5,-369.891 1278.5,-369.891 1278.5,-350.891 1201.5,-350.891"/>
<text text-anchor="middle" x="1240" y="-357.891" font-family="Helvetica,sans-Serif" font-size="10.00">view.SideBar</text>
</a>
</g>
</g>
<!-- Node4&#45;&gt;Node20 -->
<g id="edge27" class="edge"><title>Node4&#45;&gt;Node20</title>
<path fill="none" stroke="#9a32cd" stroke-dasharray="5,2" d="M981.211,-469.456C1037.07,-463.287 1124.28,-451.768 1154,-437.391 1187.88,-421.001 1218.06,-386.842 1231.54,-370.085"/>
<polygon fill="#9a32cd" stroke="#9a32cd" points="980.732,-465.987 971.168,-470.545 981.487,-472.946 980.732,-465.987"/>
<text text-anchor="middle" x="1095" y="-466.391" font-family="Helvetica,sans-Serif" font-size="10.00"> myParser</text>
</g>
<!-- Node4&#45;&gt;Node29 -->
<g id="edge42" class="edge"><title>Node4&#45;&gt;Node29</title>
<path fill="none" stroke="#9a32cd" stroke-dasharray="5,2" d="M880.424,-473.343C866.969,-470.652 853.509,-465.348 844,-455.391 811.603,-421.466 857.927,-385.759 826,-351.391 824.881,-350.186 746.785,-331.002 697.478,-318.982"/>
<polygon fill="#9a32cd" stroke="#9a32cd" points="880.229,-476.854 890.646,-474.926 881.3,-469.937 880.229,-476.854"/>
<text text-anchor="middle" x="781" y="-354.391" font-family="Helvetica,sans-Serif" font-size="10.00"> myParser</text>
</g>
<!-- Node5 -->
<g id="node5" class="node"><title>Node5</title>
<polygon fill="white" stroke="#bfbfbf" points="627,-535.891 627,-554.891 687,-554.891 687,-535.891 627,-535.891"/>
<text text-anchor="middle" x="657" y="-542.891" font-family="Helvetica,sans-Serif" font-size="10.00">Observer</text>
</g>
<!-- Node5&#45;&gt;Node4 -->
<g id="edge4" class="edge"><title>Node5&#45;&gt;Node4</title>
<path fill="none" stroke="midnightblue" d="M697.338,-537.08C731.509,-529.665 782.246,-518.185 826,-506.391 851.536,-499.507 880.245,-490.582 901.02,-483.907"/>
<polygon fill="midnightblue" stroke="midnightblue" points="696.329,-533.717 687.291,-539.246 697.804,-540.559 696.329,-533.717"/>
</g>
<!-- Node12 -->
<g id="node12" class="node"><title>Node12</title>
<g id="a_node12"><a xlink:href="../../d4/d64/classview_1_1_view_updater.html" target="_top" xlink:title="view.ViewUpdater">
<polygon fill="white" stroke="black" points="1778,-350.891 1778,-369.891 1878,-369.891 1878,-350.891 1778,-350.891"/>
<text text-anchor="middle" x="1828" y="-357.891" font-family="Helvetica,sans-Serif" font-size="10.00">view.ViewUpdater</text>
</a>
</g>
</g>
<!-- Node5&#45;&gt;Node12 -->
<g id="edge12" class="edge"><title>Node5&#45;&gt;Node12</title>
<path fill="none" stroke="midnightblue" d="M697.688,-545.391C750.658,-545.391 847.386,-545.391 930,-545.391 930,-545.391 930,-545.391 1654,-545.391 1750.96,-545.391 1809.24,-408.142 1823.54,-370.077"/>
<polygon fill="midnightblue" stroke="midnightblue" points="697.383,-541.891 687.383,-545.391 697.383,-548.891 697.383,-541.891"/>
</g>
<!-- Node6 -->
<g id="node6" class="node"><title>Node6</title>
<polygon fill="white" stroke="#bfbfbf" points="601,-401.391 601,-431.391 713,-431.391 713,-401.391 601,-401.391"/>
<text text-anchor="start" x="609" y="-419.391" font-family="Helvetica,sans-Serif" font-size="10.00">List&lt; Entry&lt; String,</text>
<text text-anchor="middle" x="657" y="-408.391" font-family="Helvetica,sans-Serif" font-size="10.00"> Pattern &gt; &gt;</text>
</g>
<!-- Node6&#45;&gt;Node4 -->
<g id="edge5" class="edge"><title>Node6&#45;&gt;Node4</title>
<path fill="none" stroke="#9a32cd" stroke-dasharray="5,2" d="M722.974,-428.42C754.237,-434.493 792.185,-442.283 826,-450.391 834.074,-452.327 835.943,-453.383 844,-455.391 859.282,-459.199 876.189,-463.018 890.938,-466.223"/>
<polygon fill="#9a32cd" stroke="#9a32cd" points="723.554,-424.968 713.072,-426.51 722.229,-431.841 723.554,-424.968"/>
<text text-anchor="middle" x="781" y="-453.391" font-family="Helvetica,sans-Serif" font-size="10.00"> myPatterns</text>
</g>
<!-- Node7 -->
<g id="node7" class="node"><title>Node7</title>
<g id="a_node7"><a xlink:href="../../d1/dca/classmodel_1_1_execution_environment.html" target="_top" xlink:title="model.ExecutionEnvironment">
<polygon fill="white" stroke="black" points="322.5,-496.891 322.5,-515.891 479.5,-515.891 479.5,-496.891 322.5,-496.891"/>
<text text-anchor="middle" x="401" y="-503.891" font-family="Helvetica,sans-Serif" font-size="10.00">model.ExecutionEnvironment</text>
</a>
</g>
</g>
<!-- Node7&#45;&gt;Node4 -->
<g id="edge6" class="edge"><title>Node7&#45;&gt;Node4</title>
<path fill="none" stroke="#9a32cd" stroke-dasharray="5,2" d="M489.985,-501.417C575.748,-496.518 709.846,-488.724 826,-481.391 847.492,-480.034 871.475,-478.426 890.99,-477.094"/>
<polygon fill="#9a32cd" stroke="#9a32cd" points="489.554,-497.936 479.77,-502 489.953,-504.924 489.554,-497.936"/>
<text text-anchor="middle" x="657" y="-498.391" font-family="Helvetica,sans-Serif" font-size="10.00"> myExecutionParameters</text>
</g>
<!-- Node7&#45;&gt;Node20 -->
<g id="edge25" class="edge"><title>Node7&#45;&gt;Node20</title>
<path fill="none" stroke="#9a32cd" stroke-dasharray="5,2" d="M435.244,-519.566C473.355,-533.903 538.047,-555.913 596,-564.391 649.651,-572.239 664.035,-569.662 718,-564.391 914.576,-545.189 987.784,-585.082 1154,-478.391 1197.13,-450.705 1225.31,-392.729 1235.12,-369.91"/>
<polygon fill="#9a32cd" stroke="#9a32cd" points="436.278,-516.215 425.687,-515.922 433.783,-522.755 436.278,-516.215"/>
<text text-anchor="middle" x="781" y="-566.391" font-family="Helvetica,sans-Serif" font-size="10.00"> myEnvironment</text>
</g>
<!-- Node7&#45;&gt;Node29 -->
<g id="edge41" class="edge"><title>Node7&#45;&gt;Node29</title>
<path fill="none" stroke="#9a32cd" stroke-dasharray="5,2" d="M434.429,-492.688C473.304,-474.79 538.181,-440.029 578,-392.391 591.287,-376.495 582.818,-365.375 596,-349.391 606.753,-336.352 622.851,-325.941 635.665,-319.013"/>
<polygon fill="#9a32cd" stroke="#9a32cd" points="432.818,-489.575 425.137,-496.873 435.692,-495.958 432.818,-489.575"/>
<text text-anchor="middle" x="538" y="-461.391" font-family="Helvetica,sans-Serif" font-size="10.00"> myEnvironment</text>
</g>
<!-- Node8 -->
<g id="node8" class="node"><title>Node8</title>
<polygon fill="white" stroke="#bfbfbf" points="51.5,-515.891 51.5,-534.891 122.5,-534.891 122.5,-515.891 51.5,-515.891"/>
<text text-anchor="middle" x="87" y="-522.891" font-family="Helvetica,sans-Serif" font-size="10.00">Observable</text>
</g>
<!-- Node8&#45;&gt;Node7 -->
<g id="edge7" class="edge"><title>Node8&#45;&gt;Node7</title>
<path fill="none" stroke="midnightblue" d="M132.637,-522.673C182.066,-519.662 262.658,-514.755 322.457,-511.113"/>
<polygon fill="midnightblue" stroke="midnightblue" points="132.35,-519.183 122.582,-523.285 132.776,-526.171 132.35,-519.183"/>
</g>
<!-- Node9 -->
<g id="node9" class="node"><title>Node9</title>
<polygon fill="white" stroke="#bfbfbf" points="42.5,-477.891 42.5,-496.891 131.5,-496.891 131.5,-477.891 42.5,-477.891"/>
<text text-anchor="middle" x="87" y="-484.891" font-family="Helvetica,sans-Serif" font-size="10.00">Set&lt; Integer &gt;</text>
</g>
<!-- Node9&#45;&gt;Node7 -->
<g id="edge8" class="edge"><title>Node9&#45;&gt;Node7</title>
<path fill="none" stroke="#9a32cd" stroke-dasharray="5,2" d="M141.702,-484.489C185.492,-482.819 248.891,-481.99 304,-487.391 322.938,-489.247 343.68,-493.116 361.023,-496.881"/>
<polygon fill="#9a32cd" stroke="#9a32cd" points="141.411,-480.998 131.562,-484.904 141.697,-487.992 141.411,-480.998"/>
<text text-anchor="middle" x="248" y="-501.391" font-family="Helvetica,sans-Serif" font-size="10.00"> myTurtleList</text>
<text text-anchor="middle" x="248" y="-490.391" font-family="Helvetica,sans-Serif" font-size="10.00">activeTurtleList</text>
</g>
<!-- Node10 -->
<g id="node10" class="node"><title>Node10</title>
<polygon fill="white" stroke="#bfbfbf" points="0,-428.391 0,-458.391 174,-458.391 174,-428.391 0,-428.391"/>
<text text-anchor="start" x="8" y="-446.391" font-family="Helvetica,sans-Serif" font-size="10.00">Map&lt; String, model.instructions.</text>
<text text-anchor="middle" x="87" y="-435.391" font-family="Helvetica,sans-Serif" font-size="10.00">Instruction &gt;</text>
</g>
<!-- Node10&#45;&gt;Node7 -->
<g id="edge9" class="edge"><title>Node10&#45;&gt;Node7</title>
<path fill="none" stroke="#9a32cd" stroke-dasharray="5,2" d="M184.062,-449.087C221.844,-452.731 265.349,-458.683 304,-468.391 331.294,-475.246 361.217,-487.985 380.279,-496.813"/>
<polygon fill="#9a32cd" stroke="#9a32cd" points="184.357,-445.599 174.077,-448.164 183.713,-452.57 184.357,-445.599"/>
<text text-anchor="middle" x="248" y="-471.391" font-family="Helvetica,sans-Serif" font-size="10.00"> myUserInstructionMap</text>
</g>
<!-- Node11 -->
<g id="node11" class="node"><title>Node11</title>
<polygon fill="white" stroke="#bfbfbf" points="23,-553.891 23,-572.891 151,-572.891 151,-553.891 23,-553.891"/>
<text text-anchor="middle" x="87" y="-560.891" font-family="Helvetica,sans-Serif" font-size="10.00">Map&lt; String, Double &gt;</text>
</g>
<!-- Node11&#45;&gt;Node7 -->
<g id="edge10" class="edge"><title>Node11&#45;&gt;Node7</title>
<path fill="none" stroke="#9a32cd" stroke-dasharray="5,2" d="M161.259,-553.931C203.216,-548.081 256.757,-539.884 304,-530.391 324.38,-526.296 346.941,-520.71 365.069,-515.958"/>
<polygon fill="#9a32cd" stroke="#9a32cd" points="160.554,-550.495 151.127,-555.329 161.511,-557.429 160.554,-550.495"/>
<text text-anchor="middle" x="248" y="-553.391" font-family="Helvetica,sans-Serif" font-size="10.00"> myVariableMap</text>
</g>
<!-- Node12&#45;&gt;Node4 -->
<g id="edge11" class="edge"><title>Node12&#45;&gt;Node4</title>
<path fill="none" stroke="#9a32cd" stroke-dasharray="5,2" d="M1814.93,-378.867C1789.72,-414.971 1727.66,-491.391 1654,-491.391 1239,-491.391 1239,-491.391 1239,-491.391 1142.65,-491.391 1029.55,-482.94 971.216,-477.955"/>
<polygon fill="#9a32cd" stroke="#9a32cd" points="1818.07,-380.477 1820.79,-370.237 1812.28,-376.546 1818.07,-380.477"/>
<text text-anchor="middle" x="1465" y="-494.391" font-family="Helvetica,sans-Serif" font-size="10.00"> myViewUpdater</text>
</g>
<!-- Node13 -->
<g id="node13" class="node"><title>Node13</title>
<g id="a_node13"><a xlink:href="../../da/d64/classview_1_1_workspace.html" target="_top" xlink:title="view.Workspace">
<polygon fill="white" stroke="black" points="1420,-205.891 1420,-224.891 1510,-224.891 1510,-205.891 1420,-205.891"/>
<text text-anchor="middle" x="1465" y="-212.891" font-family="Helvetica,sans-Serif" font-size="10.00">view.Workspace</text>
</a>
</g>
</g>
<!-- Node13&#45;&gt;Node12 -->
<g id="edge13" class="edge"><title>Node13&#45;&gt;Node12</title>
<path fill="none" stroke="#9a32cd" stroke-dasharray="5,2" d="M1499.19,-228.722C1571.27,-257.673 1740.65,-325.709 1803.23,-350.842"/>
<polygon fill="#9a32cd" stroke="#9a32cd" points="1500.27,-225.384 1489.69,-224.905 1497.66,-231.88 1500.27,-225.384"/>
<text text-anchor="middle" x="1653" y="-308.391" font-family="Helvetica,sans-Serif" font-size="10.00"> myWorkspace</text>
</g>
<!-- Node26 -->
<g id="node26" class="node"><title>Node26</title>
<g id="a_node26"><a xlink:href="../../de/d0a/classview_1_1_drawer.html" target="_top" xlink:title="view.Drawer">
<polygon fill="white" stroke="black" points="1616.5,-185.891 1616.5,-204.891 1689.5,-204.891 1689.5,-185.891 1616.5,-185.891"/>
<text text-anchor="middle" x="1653" y="-192.891" font-family="Helvetica,sans-Serif" font-size="10.00">view.Drawer</text>
</a>
</g>
</g>
<!-- Node13&#45;&gt;Node26 -->
<g id="edge31" class="edge"><title>Node13&#45;&gt;Node26</title>
<path fill="none" stroke="#9a32cd" stroke-dasharray="5,2" d="M1520.28,-209.554C1551.23,-206.226 1589.14,-202.15 1616.33,-199.226"/>
<polygon fill="#9a32cd" stroke="#9a32cd" points="1519.65,-206.102 1510.08,-210.651 1520.4,-213.062 1519.65,-206.102"/>
<text text-anchor="middle" x="1563" y="-211.391" font-family="Helvetica,sans-Serif" font-size="10.00"> myWorkspace</text>
</g>
<!-- Node13&#45;&gt;Node29 -->
<g id="edge36" class="edge"><title>Node13&#45;&gt;Node29</title>
<path fill="none" stroke="#9a32cd" stroke-dasharray="5,2" d="M1409.82,-216.481C1288.08,-219.824 984.1,-233.166 736,-285.391 718.67,-289.039 699.667,-294.846 684.757,-299.835"/>
<polygon fill="#9a32cd" stroke="#9a32cd" points="1410.09,-219.975 1420,-216.214 1409.91,-212.978 1410.09,-219.975"/>
<text text-anchor="middle" x="1095" y="-243.391" font-family="Helvetica,sans-Serif" font-size="10.00"> myWorkspace</text>
</g>
<!-- Node14 -->
<g id="node14" class="node"><title>Node14</title>
<polygon fill="white" stroke="#bfbfbf" points="1206.5,-167.891 1206.5,-186.891 1273.5,-186.891 1273.5,-167.891 1206.5,-167.891"/>
<text text-anchor="middle" x="1240" y="-174.891" font-family="Helvetica,sans-Serif" font-size="10.00">StackPane</text>
</g>
<!-- Node14&#45;&gt;Node13 -->
<g id="edge14" class="edge"><title>Node14&#45;&gt;Node13</title>
<path fill="none" stroke="midnightblue" d="M1283.87,-182.902C1316.39,-187.295 1362.15,-193.931 1402,-201.391 1409.05,-202.71 1416.52,-204.262 1423.74,-205.844"/>
<polygon fill="midnightblue" stroke="midnightblue" points="1284.18,-179.412 1273.8,-181.556 1283.25,-186.35 1284.18,-179.412"/>
</g>
<!-- Node15 -->
<g id="node15" class="node"><title>Node15</title>
<polygon fill="white" stroke="#bfbfbf" points="354.5,-173.891 354.5,-192.891 447.5,-192.891 447.5,-173.891 354.5,-173.891"/>
<text text-anchor="middle" x="401" y="-180.891" font-family="Helvetica,sans-Serif" font-size="10.00">ResourceBundle</text>
</g>
<!-- Node15&#45;&gt;Node13 -->
<g id="edge15" class="edge"><title>Node15&#45;&gt;Node13</title>
<path fill="none" stroke="#9a32cd" stroke-dasharray="5,2" d="M457.986,-174.109C600.932,-152.075 990.513,-102.492 1308,-158.391 1350.81,-165.928 1362.21,-167.9 1402,-185.391 1410.58,-189.163 1411.68,-192.077 1420,-196.391 1426.35,-199.683 1433.4,-202.908 1439.97,-205.738"/>
<polygon fill="#9a32cd" stroke="#9a32cd" points="457.064,-170.71 447.723,-175.709 458.143,-177.627 457.064,-170.71"/>
<text text-anchor="middle" x="931" y="-139.391" font-family="Helvetica,sans-Serif" font-size="10.00"> myResources</text>
</g>
<!-- Node15&#45;&gt;Node20 -->
<g id="edge24" class="edge"><title>Node15&#45;&gt;Node20</title>
<path fill="none" stroke="#9a32cd" stroke-dasharray="5,2" d="M457.884,-184.962C612.214,-190.267 1040.39,-211.793 1154,-289.391 1167.47,-298.594 1160.55,-309.768 1172,-321.391 1184.56,-334.141 1202.16,-344.17 1216.16,-350.863"/>
<polygon fill="#9a32cd" stroke="#9a32cd" points="457.798,-181.458 447.687,-184.622 457.564,-188.454 457.798,-181.458"/>
<text text-anchor="middle" x="781" y="-213.391" font-family="Helvetica,sans-Serif" font-size="10.00"> myResources</text>
</g>
<!-- Node15&#45;&gt;Node29 -->
<g id="edge38" class="edge"><title>Node15&#45;&gt;Node29</title>
<path fill="none" stroke="#9a32cd" stroke-dasharray="5,2" d="M431.644,-197.33C466.747,-213.923 526.901,-242.631 578,-268.391 598.764,-278.859 622.369,-291.35 638.121,-299.772"/>
<polygon fill="#9a32cd" stroke="#9a32cd" points="432.973,-194.087 422.436,-192.984 429.985,-200.417 432.973,-194.087"/>
<text text-anchor="middle" x="538" y="-271.391" font-family="Helvetica,sans-Serif" font-size="10.00"> myResources</text>
</g>
<!-- Node16 -->
<g id="node16" class="node"><title>Node16</title>
<g id="a_node16"><a xlink:href="../../d8/df7/classview_1_1_turtle_view.html" target="_top" xlink:title="view.TurtleView">
<polygon fill="white" stroke="black" points="1197,-41.8908 1197,-60.8908 1283,-60.8908 1283,-41.8908 1197,-41.8908"/>
<text text-anchor="middle" x="1240" y="-48.8908" font-family="Helvetica,sans-Serif" font-size="10.00">view.TurtleView</text>
</a>
</g>
</g>
<!-- Node16&#45;&gt;Node13 -->
<g id="edge16" class="edge"><title>Node16&#45;&gt;Node13</title>
<path fill="none" stroke="#9a32cd" stroke-dasharray="5,2" d="M1293.47,-43.3177C1328.86,-41.0449 1374.04,-44.836 1402,-72.3908 1441.66,-111.483 1386.14,-152.182 1420,-196.391 1422.93,-200.222 1426.8,-203.292 1431.02,-205.75"/>
<polygon fill="#9a32cd" stroke="#9a32cd" points="1292.98,-39.846 1283.3,-44.1511 1293.55,-46.8226 1292.98,-39.846"/>
<text text-anchor="middle" x="1364" y="-75.3908" font-family="Helvetica,sans-Serif" font-size="10.00"> myActiveTurtle</text>
</g>
<!-- Node17 -->
<g id="node17" class="node"><title>Node17</title>
<polygon fill="white" stroke="#bfbfbf" points="897,-28.8908 897,-47.8908 965,-47.8908 965,-28.8908 897,-28.8908"/>
<text text-anchor="middle" x="931" y="-35.8908" font-family="Helvetica,sans-Serif" font-size="10.00">ImageView</text>
</g>
<!-- Node17&#45;&gt;Node16 -->
<g id="edge17" class="edge"><title>Node17&#45;&gt;Node16</title>
<path fill="none" stroke="midnightblue" d="M975.232,-40.2215C1034.08,-42.7137 1138.74,-47.1453 1196.97,-49.6109"/>
<polygon fill="midnightblue" stroke="midnightblue" points="975.285,-36.7207 965.146,-39.7944 974.989,-43.7145 975.285,-36.7207"/>
</g>
<!-- Node18 -->
<g id="node18" class="node"><title>Node18</title>
<polygon fill="white" stroke="#bfbfbf" points="908,-66.8908 908,-85.8908 954,-85.8908 954,-66.8908 908,-66.8908"/>
<text text-anchor="middle" x="931" y="-73.8908" font-family="Helvetica,sans-Serif" font-size="10.00">Group</text>
</g>
<!-- Node18&#45;&gt;Node13 -->
<g id="edge20" class="edge"><title>Node18&#45;&gt;Node13</title>
<path fill="none" stroke="#9a32cd" stroke-dasharray="5,2" d="M964.227,-78.5089C1067.67,-85.4422 1385.56,-107.847 1402,-122.391 1427.35,-144.82 1398.17,-170.522 1420,-196.391 1423.22,-200.206 1427.35,-203.277 1431.78,-205.743"/>
<polygon fill="#9a32cd" stroke="#9a32cd" points="964.284,-75.005 954.073,-77.832 963.818,-81.9895 964.284,-75.005"/>
<text text-anchor="middle" x="1240" y="-109.391" font-family="Helvetica,sans-Serif" font-size="10.00"> myLines</text>
</g>
<!-- Node18&#45;&gt;Node16 -->
<g id="edge18" class="edge"><title>Node18&#45;&gt;Node16</title>
<path fill="none" stroke="#9a32cd" stroke-dasharray="5,2" d="M964.102,-73.7767C1019.9,-69.2327 1134.75,-59.88 1196.88,-54.8209"/>
<polygon fill="#9a32cd" stroke="#9a32cd" points="963.762,-70.2927 954.079,-74.5929 964.33,-77.2696 963.762,-70.2927"/>
<text text-anchor="middle" x="1095" y="-71.3908" font-family="Helvetica,sans-Serif" font-size="10.00"> myStamps</text>
</g>
<!-- Node19 -->
<g id="node19" class="node"><title>Node19</title>
<polygon fill="white" stroke="#bfbfbf" points="1172,-282.391 1172,-312.391 1308,-312.391 1308,-282.391 1172,-282.391"/>
<text text-anchor="start" x="1180" y="-300.391" font-family="Helvetica,sans-Serif" font-size="10.00">Map&lt; Integer, view.Turtle</text>
<text text-anchor="middle" x="1240" y="-289.391" font-family="Helvetica,sans-Serif" font-size="10.00">View &gt;</text>
</g>
<!-- Node19&#45;&gt;Node13 -->
<g id="edge19" class="edge"><title>Node19&#45;&gt;Node13</title>
<path fill="none" stroke="#9a32cd" stroke-dasharray="5,2" d="M1318.03,-284.037C1345.26,-277.824 1375.64,-269.144 1402,-257.391 1421,-248.919 1440.47,-234.631 1452.4,-225.106"/>
<polygon fill="#9a32cd" stroke="#9a32cd" points="1317.17,-280.643 1308.16,-286.215 1318.67,-287.478 1317.17,-280.643"/>
<text text-anchor="middle" x="1364" y="-285.391" font-family="Helvetica,sans-Serif" font-size="10.00"> myTurtles</text>
</g>
<!-- Node20&#45;&gt;Node1 -->
<g id="edge47" class="edge"><title>Node20&#45;&gt;Node1</title>
<path fill="none" stroke="#9a32cd" stroke-dasharray="5,2" d="M1202.01,-346.496C1190.68,-340.46 1179.29,-332.233 1172,-321.391 1139.96,-273.708 1195.77,-232.827 1154,-193.391 1105.78,-147.868 858.587,-143.2 736,-166.391 661.88,-180.413 649.913,-205.61 578,-228.391 528.823,-243.969 470.424,-257.235 434.8,-264.758"/>
<polygon fill="#9a32cd" stroke="#9a32cd" points="1200.49,-349.647 1211.01,-350.875 1203.55,-343.353 1200.49,-349.647"/>
<text text-anchor="middle" x="781" y="-169.391" font-family="Helvetica,sans-Serif" font-size="10.00"> mySidebar</text>
</g>
<!-- Node20&#45;&gt;Node12 -->
<g id="edge33" class="edge"><title>Node20&#45;&gt;Node12</title>
<path fill="none" stroke="#9a32cd" stroke-dasharray="5,2" d="M1288.63,-360.391C1398.09,-360.391 1666.66,-360.391 1777.71,-360.391"/>
<polygon fill="#9a32cd" stroke="#9a32cd" points="1288.55,-356.891 1278.55,-360.391 1288.55,-363.891 1288.55,-356.891"/>
<text text-anchor="middle" x="1563" y="-363.391" font-family="Helvetica,sans-Serif" font-size="10.00"> mySidebar</text>
</g>
<!-- Node20&#45;&gt;Node13 -->
<g id="edge21" class="edge"><title>Node20&#45;&gt;Node13</title>
<path fill="none" stroke="#9a32cd" stroke-dasharray="5,2" d="M1280.85,-347.582C1321.84,-333.921 1382.38,-312.249 1402,-297.391 1428.89,-277.025 1449.87,-242.036 1459.01,-225.116"/>
<polygon fill="#9a32cd" stroke="#9a32cd" points="1279.54,-344.328 1271.14,-350.789 1281.73,-350.975 1279.54,-344.328"/>
<text text-anchor="middle" x="1364" y="-334.391" font-family="Helvetica,sans-Serif" font-size="10.00"> mySidebar</text>
</g>
<!-- Node20&#45;&gt;Node29 -->
<g id="edge45" class="edge"><title>Node20&#45;&gt;Node29</title>
<path fill="none" stroke="#9a32cd" stroke-dasharray="5,2" d="M1213.27,-345.86C1196.77,-337.084 1174.65,-326.297 1154,-319.391 995.127,-266.265 791.354,-288.093 702.616,-301.647"/>
<polygon fill="#9a32cd" stroke="#9a32cd" points="1211.82,-349.056 1222.28,-350.751 1215.16,-342.904 1211.82,-349.056"/>
<text text-anchor="middle" x="931" y="-294.391" font-family="Helvetica,sans-Serif" font-size="10.00"> mySidebar</text>
</g>
<!-- Node21 -->
<g id="node21" class="node"><title>Node21</title>
<polygon fill="white" stroke="#bfbfbf" points="910.5,-426.891 910.5,-445.891 951.5,-445.891 951.5,-426.891 910.5,-426.891"/>
<text text-anchor="middle" x="931" y="-433.891" font-family="Helvetica,sans-Serif" font-size="10.00">VBox</text>
</g>
<!-- Node21&#45;&gt;Node20 -->
<g id="edge22" class="edge"><title>Node21&#45;&gt;Node20</title>
<path fill="none" stroke="midnightblue" d="M961.765,-437.006C1005.2,-437.028 1087.96,-433.738 1154,-411.391 1182.2,-401.848 1211.1,-381.912 1226.88,-369.988"/>
<polygon fill="midnightblue" stroke="midnightblue" points="961.627,-433.505 951.604,-436.938 961.581,-440.505 961.627,-433.505"/>
</g>
<!-- Node22 -->
<g id="node22" class="node"><title>Node22</title>
<polygon fill="white" stroke="#bfbfbf" points="844.5,-388.891 844.5,-407.891 1017.5,-407.891 1017.5,-388.891 844.5,-388.891"/>
<text text-anchor="middle" x="931" y="-395.891" font-family="Helvetica,sans-Serif" font-size="10.00">ObservableList&lt; view.Property &gt;</text>
</g>
<!-- Node22&#45;&gt;Node20 -->
<g id="edge23" class="edge"><title>Node22&#45;&gt;Node20</title>
<path fill="none" stroke="#9a32cd" stroke-dasharray="5,2" d="M1027.73,-396.794C1067.07,-394.989 1112.94,-391.4 1154,-384.391 1173.35,-381.088 1194.6,-375.088 1211.01,-369.914"/>
<polygon fill="#9a32cd" stroke="#9a32cd" points="1027.46,-393.302 1017.62,-397.226 1027.76,-400.296 1027.46,-393.302"/>
<text text-anchor="middle" x="1095" y="-399.391" font-family="Helvetica,sans-Serif" font-size="10.00"> myVariablesList</text>
</g>
<!-- Node23 -->
<g id="node23" class="node"><title>Node23</title>
<polygon fill="white" stroke="#bfbfbf" points="857,-350.891 857,-369.891 1005,-369.891 1005,-350.891 857,-350.891"/>
<text text-anchor="middle" x="931" y="-357.891" font-family="Helvetica,sans-Serif" font-size="10.00">TableView&lt; view.Property &gt;</text>
</g>
<!-- Node23&#45;&gt;Node20 -->
<g id="edge26" class="edge"><title>Node23&#45;&gt;Node20</title>
<path fill="none" stroke="#9a32cd" stroke-dasharray="5,2" d="M1015.48,-360.391C1076.14,-360.391 1155.38,-360.391 1201.39,-360.391"/>
<polygon fill="#9a32cd" stroke="#9a32cd" points="1015.14,-356.891 1005.14,-360.391 1015.14,-363.891 1015.14,-356.891"/>
<text text-anchor="middle" x="1095" y="-374.391" font-family="Helvetica,sans-Serif" font-size="10.00"> myTurtlePropertiesTable</text>
<text text-anchor="middle" x="1095" y="-363.391" font-family="Helvetica,sans-Serif" font-size="10.00">myVariablesTable</text>
</g>
<!-- Node24 -->
<g id="node24" class="node"><title>Node24</title>
<polygon fill="white" stroke="#bfbfbf" points="862,-312.891 862,-331.891 1000,-331.891 1000,-312.891 862,-312.891"/>
<text text-anchor="middle" x="931" y="-319.891" font-family="Helvetica,sans-Serif" font-size="10.00">ObservableList&lt; String &gt;</text>
</g>
<!-- Node24&#45;&gt;Node20 -->
<g id="edge28" class="edge"><title>Node24&#45;&gt;Node20</title>
<path fill="none" stroke="#9a32cd" stroke-dasharray="5,2" d="M1010.08,-321.998C1052.87,-322.936 1106.68,-326.003 1154,-334.391 1174.36,-338 1196.7,-344.954 1213.36,-350.763"/>
<polygon fill="#9a32cd" stroke="#9a32cd" points="1010.07,-318.497 1000.01,-321.812 1009.94,-325.496 1010.07,-318.497"/>
<text text-anchor="middle" x="1095" y="-348.391" font-family="Helvetica,sans-Serif" font-size="10.00"> myCommandItems</text>
<text text-anchor="middle" x="1095" y="-337.391" font-family="Helvetica,sans-Serif" font-size="10.00">myHistoryItems</text>
</g>
<!-- Node25 -->
<g id="node25" class="node"><title>Node25</title>
<polygon fill="white" stroke="#bfbfbf" points="1208.5,-243.891 1208.5,-262.891 1271.5,-262.891 1271.5,-243.891 1208.5,-243.891"/>
<text text-anchor="middle" x="1240" y="-250.891" font-family="Helvetica,sans-Serif" font-size="10.00">Rectangle</text>
</g>
<!-- Node25&#45;&gt;Node13 -->
<g id="edge29" class="edge"><title>Node25&#45;&gt;Node13</title>
<path fill="none" stroke="#9a32cd" stroke-dasharray="5,2" d="M1281.75,-248.167C1314.38,-243.779 1361.27,-237.014 1402,-229.391 1409.05,-228.071 1416.52,-226.519 1423.74,-224.938"/>
<polygon fill="#9a32cd" stroke="#9a32cd" points="1281.13,-244.718 1271.68,-249.506 1282.05,-251.657 1281.13,-244.718"/>
<text text-anchor="middle" x="1364" y="-245.391" font-family="Helvetica,sans-Serif" font-size="10.00"> myBackground</text>
</g>
<!-- Node26&#45;&gt;Node12 -->
<g id="edge30" class="edge"><title>Node26&#45;&gt;Node12</title>
<path fill="none" stroke="#9a32cd" stroke-dasharray="5,2" d="M1686.72,-209.195C1709.15,-219.786 1738.6,-236.033 1760,-256.391 1790.5,-285.403 1813.57,-330.953 1822.71,-350.711"/>
<polygon fill="#9a32cd" stroke="#9a32cd" points="1688.14,-205.992 1677.59,-205.007 1685.22,-212.355 1688.14,-205.992"/>
<text text-anchor="middle" x="1734" y="-259.391" font-family="Helvetica,sans-Serif" font-size="10.00"> myDrawer</text>
</g>
<!-- Node26&#45;&gt;Node29 -->
<g id="edge44" class="edge"><title>Node26&#45;&gt;Node29</title>
<path fill="none" stroke="#9a32cd" stroke-dasharray="5,2" d="M1644.62,-176.237C1624.3,-127.097 1562.55,-0.390847 1466,-0.390847 930,-0.390847 930,-0.390847 930,-0.390847 890.856,-0.390847 877.308,1.17254 844,-19.3908 779.208,-59.3921 777.191,-88.3483 736,-152.391 702.084,-205.123 672.245,-274.65 661.883,-299.798"/>
<polygon fill="#9a32cd" stroke="#9a32cd" points="1641.45,-177.741 1648.42,-185.721 1647.95,-175.136 1641.45,-177.741"/>
<text text-anchor="middle" x="1240" y="-3.39085" font-family="Helvetica,sans-Serif" font-size="10.00"> drawer</text>
</g>
<!-- Node27 -->
<g id="node27" class="node"><title>Node27</title>
<polygon fill="white" stroke="#bfbfbf" points="1444.5,-167.891 1444.5,-186.891 1485.5,-186.891 1485.5,-167.891 1444.5,-167.891"/>
<text text-anchor="middle" x="1465" y="-174.891" font-family="Helvetica,sans-Serif" font-size="10.00">Color</text>
</g>
<!-- Node27&#45;&gt;Node26 -->
<g id="edge32" class="edge"><title>Node27&#45;&gt;Node26</title>
<path fill="none" stroke="#9a32cd" stroke-dasharray="5,2" d="M1496.1,-175.964C1522.97,-175.19 1563.32,-175.262 1598,-180.391 1606.18,-181.601 1614.88,-183.661 1622.86,-185.873"/>
<polygon fill="#9a32cd" stroke="#9a32cd" points="1495.68,-172.476 1485.81,-176.321 1495.92,-179.472 1495.68,-172.476"/>
<text text-anchor="middle" x="1563" y="-183.391" font-family="Helvetica,sans-Serif" font-size="10.00"> myColor</text>
</g>
<!-- Node28 -->
<g id="node28" class="node"><title>Node28</title>
<polygon fill="white" stroke="#bfbfbf" points="596,-450.891 596,-469.891 718,-469.891 718,-450.891 596,-450.891"/>
<text text-anchor="middle" x="657" y="-457.891" font-family="Helvetica,sans-Serif" font-size="10.00">Map&lt; String, String &gt;</text>
</g>
<!-- Node28&#45;&gt;Node4 -->
<g id="edge34" class="edge"><title>Node28&#45;&gt;Node4</title>
<path fill="none" stroke="#9a32cd" stroke-dasharray="5,2" d="M728.133,-464.001C779.837,-466.662 848.285,-470.185 890.712,-472.369"/>
<polygon fill="#9a32cd" stroke="#9a32cd" points="728.195,-460.499 718.028,-463.481 727.835,-467.49 728.195,-460.499"/>
<text text-anchor="middle" x="781" y="-472.391" font-family="Helvetica,sans-Serif" font-size="10.00"> myCommandMap</text>
</g>
<!-- Node29&#45;&gt;Node4 -->
<g id="edge35" class="edge"><title>Node29&#45;&gt;Node4</title>
<path fill="none" stroke="#9a32cd" stroke-dasharray="5,2" d="M712.688,-304.715C755.338,-302.359 809.944,-302.602 826,-317.391 871.495,-359.295 802.223,-409.778 844,-455.391 855.773,-468.245 874.115,-473.419 890.841,-475.204"/>
<polygon fill="#9a32cd" stroke="#9a32cd" points="712.455,-301.223 702.687,-305.326 712.881,-308.21 712.455,-301.223"/>
<text text-anchor="middle" x="781" y="-320.391" font-family="Helvetica,sans-Serif" font-size="10.00"> mySLogoView</text>
</g>
<!-- Node30 -->
<g id="node30" class="node"><title>Node30</title>
<polygon fill="white" stroke="#bfbfbf" points="378.5,-337.891 378.5,-356.891 423.5,-356.891 423.5,-337.891 378.5,-337.891"/>
<text text-anchor="middle" x="401" y="-344.891" font-family="Helvetica,sans-Serif" font-size="10.00">Stage</text>
</g>
<!-- Node30&#45;&gt;Node29 -->
<g id="edge37" class="edge"><title>Node30&#45;&gt;Node29</title>
<path fill="none" stroke="#9a32cd" stroke-dasharray="5,2" d="M433.894,-343.452C469.198,-338.996 527.758,-331.322 578,-323.391 588.736,-321.696 600.274,-319.714 611.096,-317.784"/>
<polygon fill="#9a32cd" stroke="#9a32cd" points="433.206,-340.01 423.719,-344.728 434.077,-346.956 433.206,-340.01"/>
<text text-anchor="middle" x="538" y="-338.391" font-family="Helvetica,sans-Serif" font-size="10.00"> myStage</text>
</g>
<!-- Node31 -->
<g id="node31" class="node"><title>Node31</title>
<polygon fill="white" stroke="#bfbfbf" points="341.5,-299.891 341.5,-318.891 460.5,-318.891 460.5,-299.891 341.5,-299.891"/>
<text text-anchor="middle" x="401" y="-306.891" font-family="Helvetica,sans-Serif" font-size="10.00">Map&lt; String, Node &gt;</text>
</g>
<!-- Node31&#45;&gt;Node29 -->
<g id="edge40" class="edge"><title>Node31&#45;&gt;Node29</title>
<path fill="none" stroke="#9a32cd" stroke-dasharray="5,2" d="M470.785,-309.391C515.419,-309.391 572.295,-309.391 611.171,-309.391"/>
<polygon fill="#9a32cd" stroke="#9a32cd" points="470.592,-305.891 460.592,-309.391 470.592,-312.891 470.592,-305.891"/>
<text text-anchor="middle" x="538" y="-312.391" font-family="Helvetica,sans-Serif" font-size="10.00"> variables</text>
</g>
<!-- Node32 -->
<g id="node32" class="node"><title>Node32</title>
<polygon fill="white" stroke="#bfbfbf" points="360.5,-394.891 360.5,-413.891 441.5,-413.891 441.5,-394.891 360.5,-394.891"/>
<text text-anchor="middle" x="401" y="-401.891" font-family="Helvetica,sans-Serif" font-size="10.00">Dimension2D</text>
</g>
<!-- Node32&#45;&gt;Node29 -->
<g id="edge43" class="edge"><title>Node32&#45;&gt;Node29</title>
<path fill="none" stroke="#9a32cd" stroke-dasharray="5,2" d="M450.207,-392.21C486.061,-382.527 535.862,-367.753 578,-350.391 600.207,-341.241 624.513,-327.893 639.991,-318.938"/>
<polygon fill="#9a32cd" stroke="#9a32cd" points="449.243,-388.845 440.483,-394.804 451.047,-395.608 449.243,-388.845"/>
<text text-anchor="middle" x="538" y="-380.391" font-family="Helvetica,sans-Serif" font-size="10.00"> myDimensions</text>
</g>
<!-- Node33 -->
<g id="node33" class="node"><title>Node33</title>
<polygon fill="white" stroke="#bfbfbf" points="58,-261.891 58,-280.891 116,-280.891 116,-261.891 58,-261.891"/>
<text text-anchor="middle" x="87" y="-268.891" font-family="Helvetica,sans-Serif" font-size="10.00">TextArea</text>
</g>
<!-- Node33&#45;&gt;Node1 -->
<g id="edge46" class="edge"><title>Node33&#45;&gt;Node1</title>
<path fill="none" stroke="#9a32cd" stroke-dasharray="5,2" d="M126.378,-271.391C188.353,-271.391 309.377,-271.391 367.423,-271.391"/>
<polygon fill="#9a32cd" stroke="#9a32cd" points="126.238,-267.891 116.238,-271.391 126.238,-274.891 126.238,-267.891"/>
<text text-anchor="middle" x="248" y="-274.391" font-family="Helvetica,sans-Serif" font-size="10.00"> textEditor</text>
</g>
</g>
</svg>
        <g id="navigator" transform="translate(0 0)" fill="#404254">
                <rect fill="#f2f5e9" fill-opacity="0.5" stroke="#606060" stroke-width=".5" x="0" y="0" width="60" height="60"/>
                <use id="zoomplus" xlink:href="#zoomPlus" x="17" y="9" onmousedown="handleZoom(evt,'in')"/>
                <use id="zoomminus" xlink:href="#zoomMin" x="42" y="9" onmousedown="handleZoom(evt,'out')"/>
                <use id="reset" xlink:href="#resetDef" x="30" y="36" onmousedown="handleReset()"/>
                <g id="arrowUp" xlink:href="#dirArrow" transform="translate(30 24)" onmousedown="handlePan(0,-1)">
                  <use xlink:href="#rim" fill="#404040">
                        <set attributeName="fill" to="#808080" begin="arrowUp.mouseover" end="arrowUp.mouseout"/>
                  </use>
                  <path fill="none" stroke="white" stroke-width="1.5" d="M0,-3.0v7 M-2.5,-0.5L0,-3.0L2.5,-0.5"/>
                </g>
                <g id="arrowRight" xlink:href="#dirArrow" transform="rotate(90) translate(36 -43)" onmousedown="handlePan(1,0)">
                  <use xlink:href="#rim" fill="#404040">
                        <set attributeName="fill" to="#808080" begin="arrowRight.mouseover" end="arrowRight.mouseout"/>
                  </use>
                  <path fill="none" stroke="white" stroke-width="1.5" d="M0,-3.0v7 M-2.5,-0.5L0,-3.0L2.5,-0.5"/>
                </g>
                <g id="arrowDown" xlink:href="#dirArrow" transform="rotate(180) translate(-30 -48)" onmousedown="handlePan(0,1)">
                  <use xlink:href="#rim" fill="#404040">
                        <set attributeName="fill" to="#808080" begin="arrowDown.mouseover" end="arrowDown.mouseout"/>
                  </use>
                  <path fill="none" stroke="white" stroke-width="1.5" d="M0,-3.0v7 M-2.5,-0.5L0,-3.0L2.5,-0.5"/>
                </g>
                <g id="arrowLeft" xlink:href="#dirArrow" transform="rotate(270) translate(-36 17)" onmousedown="handlePan(-1,0)">
                  <use xlink:href="#rim" fill="#404040">
                        <set attributeName="fill" to="#808080" begin="arrowLeft.mouseover" end="arrowLeft.mouseout"/>
                  </use>
                  <path fill="none" stroke="white" stroke-width="1.5" d="M0,-3.0v7 M-2.5,-0.5L0,-3.0L2.5,-0.5"/>
                </g>
        </g>
        <svg viewBox="0 0 15 15" width="100%" height="30px" preserveAspectRatio="xMaxYMin meet">
         <g id="arrow_out" transform="scale(0.3 0.3)">
          <a xlink:href="classview_1_1_editor__coll__graph_org.svg" target="_base">
           <rect id="button" ry="5" rx="5" y="6" x="6" height="38" width="38"
                fill="#f2f5e9" fill-opacity="0.5" stroke="#606060" stroke-width="1.0"/>
           <path id="arrow"
             d="M 11.500037,31.436501 C 11.940474,20.09759 22.043105,11.32322 32.158766,21.979434 L 37.068811,17.246167 C 37.068811,17.246167 37.088388,32 37.088388,32 L 22.160133,31.978069 C 22.160133,31.978069 26.997745,27.140456 26.997745,27.140456 C 18.528582,18.264221 13.291696,25.230495 11.500037,31.436501 z"
             style="fill:#404040;"/>
          </a>
         </g>
        </svg>
</svg>
