<?xml version="1.0" encoding="UTF-8" standalone="no"?>
<!DOCTYPE svg PUBLIC "-//W3C//DTD SVG 1.1//EN"
 "http://www.w3.org/Graphics/SVG/1.1/DTD/svg11.dtd">
<!-- Generated by graphviz version 2.36.0 (20140111.2315)
 -->
<!-- Title: model.instructions.MovementInstruction Pages: 1 -->
<svg width="1770pt" height="785pt"
 viewBox="0.00 0.00 1770.00 785.00" xmlns="http://www.w3.org/2000/svg" xmlns:xlink="http://www.w3.org/1999/xlink">
<g id="graph0" class="graph" transform="scale(1 1) rotate(0) translate(4 781)">
<title>model.instructions.MovementInstruction</title>
<polygon fill="white" stroke="none" points="-4,4 -4,-781 1766,-781 1766,4 -4,4"/>
<!-- Node1 -->
<g id="node1" class="node"><title>Node1</title>
<polygon fill="#bfbfbf" stroke="black" points="966.5,-0 966.5,-30 1125.5,-30 1125.5,-0 966.5,-0"/>
<text text-anchor="start" x="974.5" y="-18" font-family="Helvetica,sans-Serif" font-size="10.00">model.instructions.Movement</text>
<text text-anchor="middle" x="1046" y="-7" font-family="Helvetica,sans-Serif" font-size="10.00">Instruction</text>
</g>
<!-- Node2 -->
<g id="node2" class="node"><title>Node2</title>
<g id="a_node2"><a xlink:href="../../d1/dea/classmodel_1_1instructions_1_1_instruction.html" target="_top" xlink:title="model.instructions.Instruction">
<polygon fill="white" stroke="black" points="646,-102.5 646,-121.5 804,-121.5 804,-102.5 646,-102.5"/>
<text text-anchor="middle" x="725" y="-109.5" font-family="Helvetica,sans-Serif" font-size="10.00">model.instructions.Instruction</text>
</a>
</g>
</g>
<!-- Node2&#45;&gt;Node1 -->
<g id="edge1" class="edge"><title>Node2&#45;&gt;Node1</title>
<path fill="none" stroke="midnightblue" d="M767.124,-99.4868C814.92,-84.9445 896.171,-60.2266 966,-39 975.463,-36.1234 985.564,-33.0539 995.272,-30.1046"/>
<polygon fill="midnightblue" stroke="midnightblue" points="765.997,-96.1713 757.449,-102.431 768.034,-102.868 765.997,-96.1713"/>
</g>
<!-- Node3 -->
<g id="node3" class="node"><title>Node3</title>
<polygon fill="white" stroke="#bfbfbf" points="57,-275.5 57,-294.5 117,-294.5 117,-275.5 57,-275.5"/>
<text text-anchor="middle" x="87" y="-282.5" font-family="Helvetica,sans-Serif" font-size="10.00">Observer</text>
</g>
<!-- Node3&#45;&gt;Node2 -->
<g id="edge2" class="edge"><title>Node3&#45;&gt;Node2</title>
<path fill="none" stroke="midnightblue" d="M105.507,-268.532C142.196,-235.225 231.282,-160.525 322,-131 430.13,-95.8083 563.25,-97.6831 645.883,-103.718"/>
<polygon fill="midnightblue" stroke="midnightblue" points="103.095,-265.996 98.1039,-275.341 107.834,-271.148 103.095,-265.996"/>
</g>
<!-- Node9 -->
<g id="node9" class="node"><title>Node9</title>
<g id="a_node9"><a xlink:href="../../d4/d64/classview_1_1_view_updater.html" target="_top" xlink:title="view.ViewUpdater">
<polygon fill="white" stroke="black" points="351,-275.5 351,-294.5 451,-294.5 451,-275.5 351,-275.5"/>
<text text-anchor="middle" x="401" y="-282.5" font-family="Helvetica,sans-Serif" font-size="10.00">view.ViewUpdater</text>
</a>
</g>
</g>
<!-- Node3&#45;&gt;Node9 -->
<g id="edge9" class="edge"><title>Node3&#45;&gt;Node9</title>
<path fill="none" stroke="midnightblue" d="M127.079,-285C183.8,-285 288.905,-285 350.82,-285"/>
<polygon fill="midnightblue" stroke="midnightblue" points="127.072,-281.5 117.072,-285 127.072,-288.5 127.072,-281.5"/>
</g>
<!-- Node21 -->
<g id="node21" class="node"><title>Node21</title>
<g id="a_node21"><a xlink:href="../../dc/df5/classmodel_1_1_parser.html" target="_top" xlink:title="model.Parser">
<polygon fill="white" stroke="black" points="685,-613.5 685,-632.5 765,-632.5 765,-613.5 685,-613.5"/>
<text text-anchor="middle" x="725" y="-620.5" font-family="Helvetica,sans-Serif" font-size="10.00">model.Parser</text>
</a>
</g>
</g>
<!-- Node3&#45;&gt;Node21 -->
<g id="edge25" class="edge"><title>Node3&#45;&gt;Node21</title>
<path fill="none" stroke="midnightblue" d="M97.5203,-303.647C124.666,-354.693 207.912,-497.14 322,-561 383.928,-595.664 596.431,-614.116 684.882,-620.444"/>
<polygon fill="midnightblue" stroke="midnightblue" points="100.581,-301.948 92.8466,-294.707 94.3778,-305.191 100.581,-301.948"/>
</g>
<!-- Node4 -->
<g id="node4" class="node"><title>Node4</title>
<g id="a_node4"><a xlink:href="../../d1/dca/classmodel_1_1_execution_environment.html" target="_top" xlink:title="model.ExecutionEnvironment">
<polygon fill="white" stroke="black" points="322.5,-626.5 322.5,-645.5 479.5,-645.5 479.5,-626.5 322.5,-626.5"/>
<text text-anchor="middle" x="401" y="-633.5" font-family="Helvetica,sans-Serif" font-size="10.00">model.ExecutionEnvironment</text>
</a>
</g>
</g>
<!-- Node4&#45;&gt;Node2 -->
<g id="edge3" class="edge"><title>Node4&#45;&gt;Node2</title>
<path fill="none" stroke="#9a32cd" stroke-dasharray="5,2" d="M425.59,-620.555C443.857,-607.171 468.004,-586.043 480,-561 519.13,-479.312 462.802,-441.458 498,-358 530.333,-281.334 583.118,-290.584 620,-216 637.117,-181.385 610.814,-158.425 638,-131 641.768,-127.199 646.113,-124.083 650.807,-121.534"/>
<polygon fill="#9a32cd" stroke="#9a32cd" points="423.331,-617.865 417.174,-626.487 427.364,-623.587 423.331,-617.865"/>
<text text-anchor="middle" x="559" y="-361" font-family="Helvetica,sans-Serif" font-size="10.00"> myEnvironment</text>
</g>
<!-- Node17 -->
<g id="node17" class="node"><title>Node17</title>
<g id="a_node17"><a xlink:href="../../d1/dc7/classview_1_1_side_bar.html" target="_top" xlink:title="view.SideBar">
<polygon fill="white" stroke="black" points="1007.5,-354.5 1007.5,-373.5 1084.5,-373.5 1084.5,-354.5 1007.5,-354.5"/>
<text text-anchor="middle" x="1046" y="-361.5" font-family="Helvetica,sans-Serif" font-size="10.00">view.SideBar</text>
</a>
</g>
</g>
<!-- Node4&#45;&gt;Node17 -->
<g id="edge22" class="edge"><title>Node4&#45;&gt;Node17</title>
<path fill="none" stroke="#9a32cd" stroke-dasharray="5,2" d="M421.771,-619.618C438.45,-605.214 462.356,-583.147 480,-561 489.689,-548.838 485.053,-539.611 498,-531 540.065,-503.023 910.821,-500.203 948,-466 974.184,-441.913 941.714,-414 966,-388 976.665,-376.582 992.57,-370.536 1007.32,-367.358"/>
<polygon fill="#9a32cd" stroke="#9a32cd" points="419.132,-617.268 413.78,-626.411 423.666,-622.601 419.132,-617.268"/>
<text text-anchor="middle" x="725" y="-510" font-family="Helvetica,sans-Serif" font-size="10.00"> myEnvironment</text>
</g>
<!-- Node4&#45;&gt;Node21 -->
<g id="edge27" class="edge"><title>Node4&#45;&gt;Node21</title>
<path fill="none" stroke="#9a32cd" stroke-dasharray="5,2" d="M489.587,-632.464C553.303,-629.891 636.539,-626.531 684.756,-624.584"/>
<polygon fill="#9a32cd" stroke="#9a32cd" points="489.387,-628.969 479.537,-632.87 489.67,-635.963 489.387,-628.969"/>
<text text-anchor="middle" x="559" y="-634" font-family="Helvetica,sans-Serif" font-size="10.00"> myExecutionParameters</text>
</g>
<!-- Node24 -->
<g id="node24" class="node"><title>Node24</title>
<g id="a_node24"><a xlink:href="../../d6/de7/classview_1_1_s_logo_view.html" target="_top" xlink:title="view.SLogoView">
<polygon fill="white" stroke="black" points="1670.5,-394.5 1670.5,-413.5 1761.5,-413.5 1761.5,-394.5 1670.5,-394.5"/>
<text text-anchor="middle" x="1716" y="-401.5" font-family="Helvetica,sans-Serif" font-size="10.00">view.SLogoView</text>
</a>
</g>
</g>
<!-- Node4&#45;&gt;Node24 -->
<g id="edge41" class="edge"><title>Node4&#45;&gt;Node24</title>
<path fill="none" stroke="#9a32cd" stroke-dasharray="5,2" d="M428.889,-650.123C483.124,-677.253 610.167,-734 724,-734 724,-734 724,-734 1499,-734 1569.4,-734 1603.41,-743.94 1652,-693 1691.96,-651.105 1710.41,-458.778 1714.23,-413.545"/>
<polygon fill="#9a32cd" stroke="#9a32cd" points="430.428,-646.979 419.927,-645.575 427.26,-653.221 430.428,-646.979"/>
<text text-anchor="middle" x="1184" y="-737" font-family="Helvetica,sans-Serif" font-size="10.00"> myEnvironment</text>
</g>
<!-- Node5 -->
<g id="node5" class="node"><title>Node5</title>
<polygon fill="white" stroke="#bfbfbf" points="51.5,-591.5 51.5,-610.5 122.5,-610.5 122.5,-591.5 51.5,-591.5"/>
<text text-anchor="middle" x="87" y="-598.5" font-family="Helvetica,sans-Serif" font-size="10.00">Observable</text>
</g>
<!-- Node5&#45;&gt;Node4 -->
<g id="edge4" class="edge"><title>Node5&#45;&gt;Node4</title>
<path fill="none" stroke="midnightblue" d="M132.637,-606.007C182.066,-611.552 262.658,-620.593 322.457,-627.301"/>
<polygon fill="midnightblue" stroke="midnightblue" points="132.909,-602.516 122.582,-604.879 132.129,-609.472 132.909,-602.516"/>
</g>
<!-- Node6 -->
<g id="node6" class="node"><title>Node6</title>
<polygon fill="white" stroke="#bfbfbf" points="42.5,-717.5 42.5,-736.5 131.5,-736.5 131.5,-717.5 42.5,-717.5"/>
<text text-anchor="middle" x="87" y="-724.5" font-family="Helvetica,sans-Serif" font-size="10.00">Set&lt; Integer &gt;</text>
</g>
<!-- Node6&#45;&gt;Node4 -->
<g id="edge5" class="edge"><title>Node6&#45;&gt;Node4</title>
<path fill="none" stroke="#9a32cd" stroke-dasharray="5,2" d="M141.873,-719.92C186.189,-713.177 250.223,-701.307 304,-683 333.161,-673.073 364.869,-656.258 383.56,-645.662"/>
<polygon fill="#9a32cd" stroke="#9a32cd" points="141.267,-716.471 131.89,-721.403 142.295,-723.395 141.267,-716.471"/>
<text text-anchor="middle" x="248" y="-725" font-family="Helvetica,sans-Serif" font-size="10.00"> myTurtleList</text>
<text text-anchor="middle" x="248" y="-714" font-family="Helvetica,sans-Serif" font-size="10.00">activeTurtleList</text>
</g>
<!-- Node7 -->
<g id="node7" class="node"><title>Node7</title>
<polygon fill="white" stroke="#bfbfbf" points="0,-668 0,-698 174,-698 174,-668 0,-668"/>
<text text-anchor="start" x="8" y="-686" font-family="Helvetica,sans-Serif" font-size="10.00">Map&lt; String, model.instructions.</text>
<text text-anchor="middle" x="87" y="-675" font-family="Helvetica,sans-Serif" font-size="10.00">Instruction &gt;</text>
</g>
<!-- Node7&#45;&gt;Node4 -->
<g id="edge6" class="edge"><title>Node7&#45;&gt;Node4</title>
<path fill="none" stroke="#9a32cd" stroke-dasharray="5,2" d="M184.623,-669.608C221.949,-664.31 264.99,-658.049 304,-652 317.024,-649.98 331.023,-647.706 344.195,-645.52"/>
<polygon fill="#9a32cd" stroke="#9a32cd" points="183.666,-666.209 174.255,-671.076 184.647,-673.14 183.666,-666.209"/>
<text text-anchor="middle" x="248" y="-671" font-family="Helvetica,sans-Serif" font-size="10.00"> myUserInstructionMap</text>
</g>
<!-- Node8 -->
<g id="node8" class="node"><title>Node8</title>
<polygon fill="white" stroke="#bfbfbf" points="23,-629.5 23,-648.5 151,-648.5 151,-629.5 23,-629.5"/>
<text text-anchor="middle" x="87" y="-636.5" font-family="Helvetica,sans-Serif" font-size="10.00">Map&lt; String, Double &gt;</text>
</g>
<!-- Node8&#45;&gt;Node4 -->
<g id="edge7" class="edge"><title>Node8&#45;&gt;Node4</title>
<path fill="none" stroke="#9a32cd" stroke-dasharray="5,2" d="M161.23,-638.296C209.637,-637.83 273.011,-637.221 322.303,-636.747"/>
<polygon fill="#9a32cd" stroke="#9a32cd" points="161.104,-634.797 151.138,-638.393 161.171,-641.796 161.104,-634.797"/>
<text text-anchor="middle" x="248" y="-640" font-family="Helvetica,sans-Serif" font-size="10.00"> myVariableMap</text>
</g>
<!-- Node9&#45;&gt;Node2 -->
<g id="edge8" class="edge"><title>Node9&#45;&gt;Node2</title>
<path fill="none" stroke="#9a32cd" stroke-dasharray="5,2" d="M417.668,-267.908C435.548,-249.266 466.421,-219.608 498,-201 547.66,-171.737 574.312,-192.144 620,-157 631.14,-148.431 626.332,-138.835 638,-131 643.712,-127.164 650.074,-124.09 656.68,-121.628"/>
<polygon fill="#9a32cd" stroke="#9a32cd" points="414.931,-265.709 410.624,-275.389 420.027,-270.508 414.931,-265.709"/>
<text text-anchor="middle" x="559" y="-204" font-family="Helvetica,sans-Serif" font-size="10.00"> myViewUpdater</text>
</g>
<!-- Node9&#45;&gt;Node21 -->
<g id="edge28" class="edge"><title>Node9&#45;&gt;Node21</title>
<path fill="none" stroke="#9a32cd" stroke-dasharray="5,2" d="M421.321,-301.136C462.87,-336.732 561.669,-426.299 620,-520 631.821,-538.989 623.941,-549.602 638,-567 655.134,-588.202 682.506,-604.064 701.758,-613.395"/>
<polygon fill="#9a32cd" stroke="#9a32cd" points="423.469,-298.368 413.58,-294.564 418.938,-303.704 423.469,-298.368"/>
<text text-anchor="middle" x="559" y="-523" font-family="Helvetica,sans-Serif" font-size="10.00"> myViewUpdater</text>
</g>
<!-- Node10 -->
<g id="node10" class="node"><title>Node10</title>
<g id="a_node10"><a xlink:href="../../da/d64/classview_1_1_workspace.html" target="_top" xlink:title="view.Workspace">
<polygon fill="white" stroke="black" points="1242,-240.5 1242,-259.5 1332,-259.5 1332,-240.5 1242,-240.5"/>
<text text-anchor="middle" x="1287" y="-247.5" font-family="Helvetica,sans-Serif" font-size="10.00">view.Workspace</text>
</a>
</g>
</g>
<!-- Node10&#45;&gt;Node9 -->
<g id="edge10" class="edge"><title>Node10&#45;&gt;Node9</title>
<path fill="none" stroke="#9a32cd" stroke-dasharray="5,2" d="M1231.79,-254.626C1229.16,-254.771 1226.55,-254.897 1224,-255 1188.47,-256.43 1179.55,-255.499 1144,-255 1064.87,-253.889 1042.76,-269.263 966,-250 957.325,-247.823 956.702,-243.068 948,-241 806.172,-207.291 765.778,-240.222 620,-240 565.778,-239.917 550.925,-228.211 498,-240 467.457,-246.803 435.145,-264.415 416.882,-275.48"/>
<polygon fill="#9a32cd" stroke="#9a32cd" points="1232.23,-258.106 1242,-253.988 1231.8,-251.119 1232.23,-258.106"/>
<text text-anchor="middle" x="889" y="-244" font-family="Helvetica,sans-Serif" font-size="10.00"> myWorkspace</text>
</g>
<!-- Node10&#45;&gt;Node24 -->
<g id="edge31" class="edge"><title>Node10&#45;&gt;Node24</title>
<path fill="none" stroke="#9a32cd" stroke-dasharray="5,2" d="M1342.03,-257.879C1415.92,-270.378 1550.84,-299.463 1652,-357 1671.45,-368.064 1691.84,-384.241 1703.98,-394.439"/>
<polygon fill="#9a32cd" stroke="#9a32cd" points="1342.46,-254.402 1332.02,-256.224 1341.32,-261.308 1342.46,-254.402"/>
<text text-anchor="middle" x="1498" y="-316" font-family="Helvetica,sans-Serif" font-size="10.00"> myWorkspace</text>
</g>
<!-- Node32 -->
<g id="node32" class="node"><title>Node32</title>
<g id="a_node32"><a xlink:href="../../de/d0a/classview_1_1_drawer.html" target="_top" xlink:title="view.Drawer">
<polygon fill="white" stroke="black" points="1461.5,-338.5 1461.5,-357.5 1534.5,-357.5 1534.5,-338.5 1461.5,-338.5"/>
<text text-anchor="middle" x="1498" y="-345.5" font-family="Helvetica,sans-Serif" font-size="10.00">view.Drawer</text>
</a>
</g>
</g>
<!-- Node10&#45;&gt;Node32 -->
<g id="edge45" class="edge"><title>Node10&#45;&gt;Node32</title>
<path fill="none" stroke="#9a32cd" stroke-dasharray="5,2" d="M1313.79,-264.478C1324.76,-270.33 1337.82,-276.893 1350,-282 1380.2,-294.661 1390.01,-291.845 1420,-305 1442.29,-314.78 1466.6,-328.999 1481.82,-338.37"/>
<polygon fill="#9a32cd" stroke="#9a32cd" points="1315.22,-261.27 1304.76,-259.573 1311.88,-267.421 1315.22,-261.27"/>
<text text-anchor="middle" x="1385" y="-308" font-family="Helvetica,sans-Serif" font-size="10.00"> myWorkspace</text>
</g>
<!-- Node11 -->
<g id="node11" class="node"><title>Node11</title>
<polygon fill="white" stroke="#bfbfbf" points="1012.5,-183.5 1012.5,-202.5 1079.5,-202.5 1079.5,-183.5 1012.5,-183.5"/>
<text text-anchor="middle" x="1046" y="-190.5" font-family="Helvetica,sans-Serif" font-size="10.00">StackPane</text>
</g>
<!-- Node11&#45;&gt;Node10 -->
<g id="edge11" class="edge"><title>Node11&#45;&gt;Node10</title>
<path fill="none" stroke="midnightblue" d="M1089.8,-202.6C1125.69,-210.726 1178.27,-222.804 1224,-234 1232.31,-236.035 1241.24,-238.294 1249.65,-240.457"/>
<polygon fill="midnightblue" stroke="midnightblue" points="1090.21,-199.104 1079.68,-200.314 1088.66,-205.931 1090.21,-199.104"/>
</g>
<!-- Node12 -->
<g id="node12" class="node"><title>Node12</title>
<polygon fill="white" stroke="#bfbfbf" points="678.5,-538.5 678.5,-557.5 771.5,-557.5 771.5,-538.5 678.5,-538.5"/>
<text text-anchor="middle" x="725" y="-545.5" font-family="Helvetica,sans-Serif" font-size="10.00">ResourceBundle</text>
</g>
<!-- Node12&#45;&gt;Node10 -->
<g id="edge12" class="edge"><title>Node12&#45;&gt;Node10</title>
<path fill="none" stroke="#9a32cd" stroke-dasharray="5,2" d="M781.67,-549.525C839.397,-549.87 924.457,-546.515 948,-525 978.756,-496.894 938.198,-464.031 966,-433 1015.71,-377.511 1056.34,-409.416 1126,-383 1170.64,-366.072 1187.24,-369.471 1224,-339 1251.83,-315.925 1272.79,-277.4 1281.53,-259.58"/>
<polygon fill="#9a32cd" stroke="#9a32cd" points="781.62,-546.024 771.586,-549.425 781.551,-553.024 781.62,-546.024"/>
<text text-anchor="middle" x="1046" y="-436" font-family="Helvetica,sans-Serif" font-size="10.00"> myResources</text>
</g>
<!-- Node12&#45;&gt;Node17 -->
<g id="edge21" class="edge"><title>Node12&#45;&gt;Node17</title>
<path fill="none" stroke="#9a32cd" stroke-dasharray="5,2" d="M777.691,-535.7C789.159,-532.387 801.131,-528.463 812,-524 820.466,-520.524 821.403,-517.136 830,-514 880.196,-495.689 910.588,-529.148 948,-491 980.539,-457.821 935.203,-422.801 966,-388 976.449,-376.192 992.505,-370.1 1007.42,-366.993"/>
<polygon fill="#9a32cd" stroke="#9a32cd" points="776.48,-532.404 767.782,-538.452 778.354,-539.148 776.48,-532.404"/>
<text text-anchor="middle" x="889" y="-517" font-family="Helvetica,sans-Serif" font-size="10.00"> myResources</text>
</g>
<!-- Node12&#45;&gt;Node24 -->
<g id="edge33" class="edge"><title>Node12&#45;&gt;Node24</title>
<path fill="none" stroke="#9a32cd" stroke-dasharray="5,2" d="M757.195,-561.39C777.527,-569.463 804.857,-579.104 830,-584 889.408,-595.569 905.496,-589.444 966,-591 1037.09,-592.828 1055.32,-598.836 1126,-591 1238.56,-578.522 1459.35,-501.399 1558,-470 1600.05,-456.615 1611.55,-455.652 1652,-438 1668.52,-430.792 1686.53,-420.841 1699.05,-413.568"/>
<polygon fill="#9a32cd" stroke="#9a32cd" points="758.399,-558.101 747.817,-557.58 755.764,-564.586 758.399,-558.101"/>
<text text-anchor="middle" x="1287" y="-570" font-family="Helvetica,sans-Serif" font-size="10.00"> myResources</text>
</g>
<!-- Node13 -->
<g id="node13" class="node"><title>Node13</title>
<g id="a_node13"><a xlink:href="../../d8/df7/classview_1_1_turtle_view.html" target="_top" xlink:title="view.TurtleView">
<polygon fill="white" stroke="black" points="1003,-145.5 1003,-164.5 1089,-164.5 1089,-145.5 1003,-145.5"/>
<text text-anchor="middle" x="1046" y="-152.5" font-family="Helvetica,sans-Serif" font-size="10.00">view.TurtleView</text>
</a>
</g>
</g>
<!-- Node13&#45;&gt;Node10 -->
<g id="edge13" class="edge"><title>Node13&#45;&gt;Node10</title>
<path fill="none" stroke="#9a32cd" stroke-dasharray="5,2" d="M1099.14,-162.49C1135.55,-169.144 1184.52,-181.003 1224,-201 1244.56,-211.414 1264.84,-229.262 1276.35,-240.302"/>
<polygon fill="#9a32cd" stroke="#9a32cd" points="1099.67,-159.031 1089.22,-160.749 1098.46,-165.925 1099.67,-159.031"/>
<text text-anchor="middle" x="1184" y="-204" font-family="Helvetica,sans-Serif" font-size="10.00"> myActiveTurtle</text>
</g>
<!-- Node14 -->
<g id="node14" class="node"><title>Node14</title>
<polygon fill="white" stroke="#bfbfbf" points="691,-178.5 691,-197.5 759,-197.5 759,-178.5 691,-178.5"/>
<text text-anchor="middle" x="725" y="-185.5" font-family="Helvetica,sans-Serif" font-size="10.00">ImageView</text>
</g>
<!-- Node14&#45;&gt;Node13 -->
<g id="edge14" class="edge"><title>Node14&#45;&gt;Node13</title>
<path fill="none" stroke="midnightblue" d="M769.392,-185.034C814.196,-181.795 886.095,-176.11 948,-169 965.918,-166.942 985.628,-164.188 1002.57,-161.667"/>
<polygon fill="midnightblue" stroke="midnightblue" points="768.883,-181.561 759.158,-185.765 769.382,-188.543 768.883,-181.561"/>
</g>
<!-- Node15 -->
<g id="node15" class="node"><title>Node15</title>
<polygon fill="white" stroke="#bfbfbf" points="702,-140.5 702,-159.5 748,-159.5 748,-140.5 702,-140.5"/>
<text text-anchor="middle" x="725" y="-147.5" font-family="Helvetica,sans-Serif" font-size="10.00">Group</text>
</g>
<!-- Node15&#45;&gt;Node10 -->
<g id="edge17" class="edge"><title>Node15&#45;&gt;Node10</title>
<path fill="none" stroke="#9a32cd" stroke-dasharray="5,2" d="M758.204,-142.14C826.733,-126.685 991.717,-96.2378 1126,-125 1172.69,-135 1186.57,-139.361 1224,-169 1250.1,-189.668 1271.3,-223.664 1280.73,-240.266"/>
<polygon fill="#9a32cd" stroke="#9a32cd" points="757.389,-138.736 748.43,-144.392 758.96,-145.558 757.389,-138.736"/>
<text text-anchor="middle" x="1046" y="-128" font-family="Helvetica,sans-Serif" font-size="10.00"> myLines</text>
</g>
<!-- Node15&#45;&gt;Node13 -->
<g id="edge15" class="edge"><title>Node15&#45;&gt;Node13</title>
<path fill="none" stroke="#9a32cd" stroke-dasharray="5,2" d="M758.245,-150.505C816.296,-151.415 938.346,-153.328 1002.9,-154.34"/>
<polygon fill="#9a32cd" stroke="#9a32cd" points="758.232,-147.005 748.178,-150.348 758.122,-154.004 758.232,-147.005"/>
<text text-anchor="middle" x="889" y="-157" font-family="Helvetica,sans-Serif" font-size="10.00"> myStamps</text>
</g>
<!-- Node16 -->
<g id="node16" class="node"><title>Node16</title>
<polygon fill="white" stroke="#bfbfbf" points="978,-49 978,-79 1114,-79 1114,-49 978,-49"/>
<text text-anchor="start" x="986" y="-67" font-family="Helvetica,sans-Serif" font-size="10.00">Map&lt; Integer, view.Turtle</text>
<text text-anchor="middle" x="1046" y="-56" font-family="Helvetica,sans-Serif" font-size="10.00">View &gt;</text>
</g>
<!-- Node16&#45;&gt;Node10 -->
<g id="edge16" class="edge"><title>Node16&#45;&gt;Node10</title>
<path fill="none" stroke="#9a32cd" stroke-dasharray="5,2" d="M1124.67,-59.2742C1158.39,-61.1103 1196.4,-68.9023 1224,-91 1272.57,-129.89 1283.17,-211.969 1285.42,-240.211"/>
<polygon fill="#9a32cd" stroke="#9a32cd" points="1124.48,-55.7648 1114.35,-58.8864 1124.21,-62.7598 1124.48,-55.7648"/>
<text text-anchor="middle" x="1184" y="-94" font-family="Helvetica,sans-Serif" font-size="10.00"> myTurtles</text>
</g>
<!-- Node17&#45;&gt;Node9 -->
<g id="edge51" class="edge"><title>Node17&#45;&gt;Node9</title>
<path fill="none" stroke="#9a32cd" stroke-dasharray="5,2" d="M997.113,-359.662C920.946,-352.601 767.559,-337.717 638,-321 573.259,-312.647 498.851,-300.945 451.176,-293.178"/>
<polygon fill="#9a32cd" stroke="#9a32cd" points="997.058,-363.172 1007.34,-360.606 997.701,-356.202 997.058,-363.172"/>
<text text-anchor="middle" x="725" y="-344" font-family="Helvetica,sans-Serif" font-size="10.00"> mySidebar</text>
</g>
<!-- Node17&#45;&gt;Node10 -->
<g id="edge18" class="edge"><title>Node17&#45;&gt;Node10</title>
<path fill="none" stroke="#9a32cd" stroke-dasharray="5,2" d="M1085.51,-351.056C1098.52,-346.368 1113.03,-340.793 1126,-335 1179.99,-310.883 1240.97,-276.347 1269.56,-259.701"/>
<polygon fill="#9a32cd" stroke="#9a32cd" points="1084.16,-347.82 1075.9,-354.456 1086.49,-354.419 1084.16,-347.82"/>
<text text-anchor="middle" x="1184" y="-327" font-family="Helvetica,sans-Serif" font-size="10.00"> mySidebar</text>
</g>
<!-- Node17&#45;&gt;Node24 -->
<g id="edge47" class="edge"><title>Node17&#45;&gt;Node24</title>
<path fill="none" stroke="#9a32cd" stroke-dasharray="5,2" d="M1094.8,-370.053C1134.23,-374.828 1191.66,-381.282 1242,-385 1399.16,-396.606 1586.26,-401.485 1670.27,-403.203"/>
<polygon fill="#9a32cd" stroke="#9a32cd" points="1095.03,-366.555 1084.68,-368.816 1094.18,-373.504 1095.03,-366.555"/>
<text text-anchor="middle" x="1385" y="-398" font-family="Helvetica,sans-Serif" font-size="10.00"> mySidebar</text>
</g>
<!-- Node26 -->
<g id="node26" class="node"><title>Node26</title>
<g id="a_node26"><a xlink:href="../../da/dc8/classview_1_1_editor.html" target="_top" xlink:title="view.Editor">
<polygon fill="white" stroke="black" points="1253.5,-469.5 1253.5,-488.5 1320.5,-488.5 1320.5,-469.5 1253.5,-469.5"/>
<text text-anchor="middle" x="1287" y="-476.5" font-family="Helvetica,sans-Serif" font-size="10.00">view.Editor</text>
</a>
</g>
</g>
<!-- Node17&#45;&gt;Node26 -->
<g id="edge39" class="edge"><title>Node17&#45;&gt;Node26</title>
<path fill="none" stroke="#9a32cd" stroke-dasharray="5,2" d="M1094.44,-372.68C1105.51,-376.201 1116.74,-381.125 1126,-388 1137.58,-396.6 1132.36,-406.487 1144,-415 1173.86,-436.837 1190.4,-422.507 1224,-438 1242.52,-446.539 1261.79,-460.155 1273.84,-469.329"/>
<polygon fill="#9a32cd" stroke="#9a32cd" points="1095.4,-369.313 1084.82,-369.934 1093.48,-376.044 1095.4,-369.313"/>
<text text-anchor="middle" x="1184" y="-441" font-family="Helvetica,sans-Serif" font-size="10.00"> mySidebar</text>
</g>
<!-- Node18 -->
<g id="node18" class="node"><title>Node18</title>
<polygon fill="white" stroke="#bfbfbf" points="704.5,-415.5 704.5,-434.5 745.5,-434.5 745.5,-415.5 704.5,-415.5"/>
<text text-anchor="middle" x="725" y="-422.5" font-family="Helvetica,sans-Serif" font-size="10.00">VBox</text>
</g>
<!-- Node18&#45;&gt;Node17 -->
<g id="edge19" class="edge"><title>Node18&#45;&gt;Node17</title>
<path fill="none" stroke="midnightblue" d="M755.808,-422.115C798.656,-417.649 879.989,-407.983 948,-393 954.587,-391.549 988.149,-381.412 1013.97,-373.526"/>
<polygon fill="midnightblue" stroke="midnightblue" points="755.368,-418.641 745.775,-423.138 756.079,-425.605 755.368,-418.641"/>
</g>
<!-- Node19 -->
<g id="node19" class="node"><title>Node19</title>
<polygon fill="white" stroke="#bfbfbf" points="638.5,-377.5 638.5,-396.5 811.5,-396.5 811.5,-377.5 638.5,-377.5"/>
<text text-anchor="middle" x="725" y="-384.5" font-family="Helvetica,sans-Serif" font-size="10.00">ObservableList&lt; view.Property &gt;</text>
</g>
<!-- Node19&#45;&gt;Node17 -->
<g id="edge20" class="edge"><title>Node19&#45;&gt;Node17</title>
<path fill="none" stroke="#9a32cd" stroke-dasharray="5,2" d="M822.137,-380.069C884.299,-375.587 961.795,-369.999 1007.1,-366.732"/>
<polygon fill="#9a32cd" stroke="#9a32cd" points="821.628,-376.596 811.906,-380.806 822.132,-383.578 821.628,-376.596"/>
<text text-anchor="middle" x="889" y="-381" font-family="Helvetica,sans-Serif" font-size="10.00"> myVariablesList</text>
</g>
<!-- Node20 -->
<g id="node20" class="node"><title>Node20</title>
<polygon fill="white" stroke="#bfbfbf" points="651,-292.5 651,-311.5 799,-311.5 799,-292.5 651,-292.5"/>
<text text-anchor="middle" x="725" y="-299.5" font-family="Helvetica,sans-Serif" font-size="10.00">TableView&lt; view.Property &gt;</text>
</g>
<!-- Node20&#45;&gt;Node17 -->
<g id="edge23" class="edge"><title>Node20&#45;&gt;Node17</title>
<path fill="none" stroke="#9a32cd" stroke-dasharray="5,2" d="M788.906,-291.352C835.43,-286.567 898.957,-286.724 948,-312 959.538,-317.947 955.506,-327.36 966,-335 978.166,-343.857 993.331,-350.281 1007.11,-354.797"/>
<polygon fill="#9a32cd" stroke="#9a32cd" points="788.495,-287.876 778.952,-292.477 789.282,-294.832 788.495,-287.876"/>
<text text-anchor="middle" x="889" y="-326" font-family="Helvetica,sans-Serif" font-size="10.00"> myTurtlePropertiesTable</text>
<text text-anchor="middle" x="889" y="-315" font-family="Helvetica,sans-Serif" font-size="10.00">myVariablesTable</text>
</g>
<!-- Node21&#45;&gt;Node17 -->
<g id="edge24" class="edge"><title>Node21&#45;&gt;Node17</title>
<path fill="none" stroke="#9a32cd" stroke-dasharray="5,2" d="M768.815,-610.463C826.748,-592.608 925.473,-558.717 948,-529 986.163,-478.654 925.233,-436.261 966,-388 976.175,-375.955 992.192,-369.83 1007.15,-366.761"/>
<polygon fill="#9a32cd" stroke="#9a32cd" points="767.737,-607.133 759.193,-613.398 769.779,-613.829 767.737,-607.133"/>
<text text-anchor="middle" x="889" y="-592" font-family="Helvetica,sans-Serif" font-size="10.00"> myParser</text>
</g>
<!-- Node21&#45;&gt;Node24 -->
<g id="edge42" class="edge"><title>Node21&#45;&gt;Node24</title>
<path fill="none" stroke="#9a32cd" stroke-dasharray="5,2" d="M775.196,-629.257C837.774,-636.662 949.227,-648 1045,-648 1045,-648 1045,-648 1499,-648 1626.58,-648 1697,-458.677 1711.97,-413.565"/>
<polygon fill="#9a32cd" stroke="#9a32cd" points="775.556,-625.775 765.21,-628.059 774.723,-632.725 775.556,-625.775"/>
<text text-anchor="middle" x="1287" y="-651" font-family="Helvetica,sans-Serif" font-size="10.00"> myParser</text>
</g>
<!-- Node21&#45;&gt;Node26 -->
<g id="edge37" class="edge"><title>Node21&#45;&gt;Node26</title>
<path fill="none" stroke="#9a32cd" stroke-dasharray="5,2" d="M775.044,-625.661C832.843,-627.662 924.07,-626.892 948,-604 992.695,-561.243 919.521,-506.81 966,-466 1007.89,-429.223 1180.45,-458.028 1253.31,-472.246"/>
<polygon fill="#9a32cd" stroke="#9a32cd" points="775.143,-622.162 765.016,-625.275 774.874,-629.157 775.143,-622.162"/>
<text text-anchor="middle" x="1046" y="-469" font-family="Helvetica,sans-Serif" font-size="10.00"> myParser</text>
</g>
<!-- Node22 -->
<g id="node22" class="node"><title>Node22</title>
<polygon fill="white" stroke="#bfbfbf" points="345,-522 345,-552 457,-552 457,-522 345,-522"/>
<text text-anchor="start" x="353" y="-540" font-family="Helvetica,sans-Serif" font-size="10.00">List&lt; Entry&lt; String,</text>
<text text-anchor="middle" x="401" y="-529" font-family="Helvetica,sans-Serif" font-size="10.00"> Pattern &gt; &gt;</text>
</g>
<!-- Node22&#45;&gt;Node21 -->
<g id="edge26" class="edge"><title>Node22&#45;&gt;Node21</title>
<path fill="none" stroke="#9a32cd" stroke-dasharray="5,2" d="M467.306,-534.577C511.521,-534.877 570.645,-539.116 620,-556 622.464,-556.843 680.919,-594.885 709.088,-613.262"/>
<polygon fill="#9a32cd" stroke="#9a32cd" points="467.257,-531.077 457.256,-534.574 467.255,-538.077 467.257,-531.077"/>
<text text-anchor="middle" x="559" y="-559" font-family="Helvetica,sans-Serif" font-size="10.00"> myPatterns</text>
</g>
<!-- Node23 -->
<g id="node23" class="node"><title>Node23</title>
<polygon fill="white" stroke="#bfbfbf" points="340,-757.5 340,-776.5 462,-776.5 462,-757.5 340,-757.5"/>
<text text-anchor="middle" x="401" y="-764.5" font-family="Helvetica,sans-Serif" font-size="10.00">Map&lt; String, String &gt;</text>
</g>
<!-- Node23&#45;&gt;Node21 -->
<g id="edge29" class="edge"><title>Node23&#45;&gt;Node21</title>
<path fill="none" stroke="#9a32cd" stroke-dasharray="5,2" d="M432.652,-753.292C497.378,-724.347 646.612,-657.608 702.42,-632.651"/>
<polygon fill="#9a32cd" stroke="#9a32cd" points="431.077,-750.163 423.377,-757.44 433.934,-756.553 431.077,-750.163"/>
<text text-anchor="middle" x="559" y="-723" font-family="Helvetica,sans-Serif" font-size="10.00"> myCommandMap</text>
</g>
<!-- Node24&#45;&gt;Node21 -->
<g id="edge30" class="edge"><title>Node24&#45;&gt;Node21</title>
<path fill="none" stroke="#9a32cd" stroke-dasharray="5,2" d="M1712.87,-423.764C1706.6,-478.191 1686.47,-628.449 1652,-662 1602.15,-710.519 1568.56,-695 1499,-695 1045,-695 1045,-695 1045,-695 948.325,-695 923.535,-686.436 830,-662 800.708,-654.348 768.229,-641.413 747.489,-632.553"/>
<polygon fill="#9a32cd" stroke="#9a32cd" points="1716.36,-424.008 1714,-413.681 1709.41,-423.231 1716.36,-424.008"/>
<text text-anchor="middle" x="1287" y="-698" font-family="Helvetica,sans-Serif" font-size="10.00"> mySLogoView</text>
</g>
<!-- Node25 -->
<g id="node25" class="node"><title>Node25</title>
<polygon fill="white" stroke="#bfbfbf" points="1475.5,-234.5 1475.5,-253.5 1520.5,-253.5 1520.5,-234.5 1475.5,-234.5"/>
<text text-anchor="middle" x="1498" y="-241.5" font-family="Helvetica,sans-Serif" font-size="10.00">Stage</text>
</g>
<!-- Node25&#45;&gt;Node24 -->
<g id="edge32" class="edge"><title>Node25&#45;&gt;Node24</title>
<path fill="none" stroke="#9a32cd" stroke-dasharray="5,2" d="M1530.84,-239.971C1564.31,-237.497 1616.9,-238.82 1652,-265 1695.96,-297.789 1710.02,-368.434 1713.79,-394.276"/>
<polygon fill="#9a32cd" stroke="#9a32cd" points="1530.33,-236.502 1520.69,-240.88 1530.96,-243.474 1530.33,-236.502"/>
<text text-anchor="middle" x="1614" y="-268" font-family="Helvetica,sans-Serif" font-size="10.00"> myStage</text>
</g>
<!-- Node26&#45;&gt;Node24 -->
<g id="edge34" class="edge"><title>Node26&#45;&gt;Node24</title>
<path fill="none" stroke="#9a32cd" stroke-dasharray="5,2" d="M1330.66,-472.596C1398.78,-462.203 1536.24,-440.545 1652,-418 1658.93,-416.651 1666.26,-415.117 1673.38,-413.573"/>
<polygon fill="#9a32cd" stroke="#9a32cd" points="1330.09,-469.142 1320.73,-474.106 1331.15,-476.063 1330.09,-469.142"/>
<text text-anchor="middle" x="1498" y="-458" font-family="Helvetica,sans-Serif" font-size="10.00"> myEditor</text>
</g>
<!-- Node27 -->
<g id="node27" class="node"><title>Node27</title>
<polygon fill="white" stroke="#bfbfbf" points="1025,-524.5 1025,-543.5 1067,-543.5 1067,-524.5 1025,-524.5"/>
<text text-anchor="middle" x="1046" y="-531.5" font-family="Helvetica,sans-Serif" font-size="10.00">HBox</text>
</g>
<!-- Node27&#45;&gt;Node26 -->
<g id="edge35" class="edge"><title>Node27&#45;&gt;Node26</title>
<path fill="none" stroke="midnightblue" d="M1077.44,-530.861C1113.05,-526.727 1173.58,-518.258 1224,-504 1238.18,-499.989 1253.55,-493.805 1265.44,-488.591"/>
<polygon fill="midnightblue" stroke="midnightblue" points="1076.77,-527.414 1067.22,-532.007 1077.55,-534.371 1076.77,-527.414"/>
</g>
<!-- Node28 -->
<g id="node28" class="node"><title>Node28</title>
<polygon fill="white" stroke="#bfbfbf" points="1021.5,-486.5 1021.5,-505.5 1070.5,-505.5 1070.5,-486.5 1021.5,-486.5"/>
<text text-anchor="middle" x="1046" y="-493.5" font-family="Helvetica,sans-Serif" font-size="10.00">Button</text>
</g>
<!-- Node28&#45;&gt;Node26 -->
<g id="edge36" class="edge"><title>Node28&#45;&gt;Node26</title>
<path fill="none" stroke="#9a32cd" stroke-dasharray="5,2" d="M1080.82,-493.594C1126.65,-490.335 1207.94,-484.553 1253.22,-481.331"/>
<polygon fill="#9a32cd" stroke="#9a32cd" points="1080.52,-490.107 1070.79,-494.308 1081.01,-497.089 1080.52,-490.107"/>
<text text-anchor="middle" x="1184" y="-492" font-family="Helvetica,sans-Serif" font-size="10.00"> runButton</text>
</g>
<!-- Node29 -->
<g id="node29" class="node"><title>Node29</title>
<polygon fill="white" stroke="#bfbfbf" points="1017,-562.5 1017,-581.5 1075,-581.5 1075,-562.5 1017,-562.5"/>
<text text-anchor="middle" x="1046" y="-569.5" font-family="Helvetica,sans-Serif" font-size="10.00">TextArea</text>
</g>
<!-- Node29&#45;&gt;Node26 -->
<g id="edge38" class="edge"><title>Node29&#45;&gt;Node26</title>
<path fill="none" stroke="#9a32cd" stroke-dasharray="5,2" d="M1085.56,-566.64C1122.53,-560.445 1179.18,-548.138 1224,-526 1244.1,-516.071 1264.2,-499.257 1275.85,-488.661"/>
<polygon fill="#9a32cd" stroke="#9a32cd" points="1084.54,-563.259 1075.22,-568.3 1085.65,-570.171 1084.54,-563.259"/>
<text text-anchor="middle" x="1184" y="-557" font-family="Helvetica,sans-Serif" font-size="10.00"> textEditor</text>
</g>
<!-- Node30 -->
<g id="node30" class="node"><title>Node30</title>
<polygon fill="white" stroke="#bfbfbf" points="1438.5,-196.5 1438.5,-215.5 1557.5,-215.5 1557.5,-196.5 1438.5,-196.5"/>
<text text-anchor="middle" x="1498" y="-203.5" font-family="Helvetica,sans-Serif" font-size="10.00">Map&lt; String, Node &gt;</text>
</g>
<!-- Node30&#45;&gt;Node24 -->
<g id="edge40" class="edge"><title>Node30&#45;&gt;Node24</title>
<path fill="none" stroke="#9a32cd" stroke-dasharray="5,2" d="M1567.77,-199.956C1596.58,-200.96 1628.71,-207.158 1652,-226 1706.28,-269.921 1713.85,-363.98 1714.86,-394.339"/>
<polygon fill="#9a32cd" stroke="#9a32cd" points="1567.79,-196.456 1557.74,-199.805 1567.69,-203.455 1567.79,-196.456"/>
<text text-anchor="middle" x="1614" y="-229" font-family="Helvetica,sans-Serif" font-size="10.00"> variables</text>
</g>
<!-- Node31 -->
<g id="node31" class="node"><title>Node31</title>
<polygon fill="white" stroke="#bfbfbf" points="1457.5,-158.5 1457.5,-177.5 1538.5,-177.5 1538.5,-158.5 1457.5,-158.5"/>
<text text-anchor="middle" x="1498" y="-165.5" font-family="Helvetica,sans-Serif" font-size="10.00">Dimension2D</text>
</g>
<!-- Node31&#45;&gt;Node24 -->
<g id="edge43" class="edge"><title>Node31&#45;&gt;Node24</title>
<path fill="none" stroke="#9a32cd" stroke-dasharray="5,2" d="M1548.89,-160.716C1581.83,-158.783 1623.93,-162.198 1652,-186 1717.2,-241.288 1717.13,-359.483 1715.6,-394.213"/>
<polygon fill="#9a32cd" stroke="#9a32cd" points="1548.25,-157.255 1538.55,-161.513 1548.79,-164.234 1548.25,-157.255"/>
<text text-anchor="middle" x="1614" y="-189" font-family="Helvetica,sans-Serif" font-size="10.00"> myDimensions</text>
</g>
<!-- Node32&#45;&gt;Node9 -->
<g id="edge50" class="edge"><title>Node32&#45;&gt;Node9</title>
<path fill="none" stroke="#9a32cd" stroke-dasharray="5,2" d="M1451.08,-344.401C1383.64,-338.929 1253.9,-327.692 1144,-314 1056.55,-303.105 1035.85,-291.009 948,-284 887.745,-279.193 872.446,-283.222 812,-283 734.667,-282.716 715.333,-282.672 638,-283 573.467,-283.273 499.011,-283.967 451.268,-284.461"/>
<polygon fill="#9a32cd" stroke="#9a32cd" points="1451.1,-347.914 1461.35,-345.229 1451.67,-340.937 1451.1,-347.914"/>
<text text-anchor="middle" x="1046" y="-314" font-family="Helvetica,sans-Serif" font-size="10.00"> myDrawer</text>
</g>
<!-- Node32&#45;&gt;Node24 -->
<g id="edge44" class="edge"><title>Node32&#45;&gt;Node24</title>
<path fill="none" stroke="#9a32cd" stroke-dasharray="5,2" d="M1544.67,-355.063C1575.36,-360.341 1616.52,-368.458 1652,-379 1666.21,-383.223 1681.7,-389.345 1693.76,-394.474"/>
<polygon fill="#9a32cd" stroke="#9a32cd" points="1545.13,-351.591 1534.68,-353.382 1543.96,-358.494 1545.13,-351.591"/>
<text text-anchor="middle" x="1614" y="-382" font-family="Helvetica,sans-Serif" font-size="10.00"> drawer</text>
</g>
<!-- Node33 -->
<g id="node33" class="node"><title>Node33</title>
<polygon fill="white" stroke="#bfbfbf" points="1266.5,-356.5 1266.5,-375.5 1307.5,-375.5 1307.5,-356.5 1266.5,-356.5"/>
<text text-anchor="middle" x="1287" y="-363.5" font-family="Helvetica,sans-Serif" font-size="10.00">Color</text>
</g>
<!-- Node33&#45;&gt;Node32 -->
<g id="edge46" class="edge"><title>Node33&#45;&gt;Node32</title>
<path fill="none" stroke="#9a32cd" stroke-dasharray="5,2" d="M1318.03,-363.414C1355.9,-360.152 1420.91,-354.553 1461.29,-351.076"/>
<polygon fill="#9a32cd" stroke="#9a32cd" points="1317.32,-359.961 1307.66,-364.307 1317.93,-366.936 1317.32,-359.961"/>
<text text-anchor="middle" x="1385" y="-363" font-family="Helvetica,sans-Serif" font-size="10.00"> myColor</text>
</g>
<!-- Node34 -->
<g id="node34" class="node"><title>Node34</title>
<polygon fill="white" stroke="#bfbfbf" points="656,-453.5 656,-472.5 794,-472.5 794,-453.5 656,-453.5"/>
<text text-anchor="middle" x="725" y="-460.5" font-family="Helvetica,sans-Serif" font-size="10.00">ObservableList&lt; String &gt;</text>
</g>
<!-- Node34&#45;&gt;Node17 -->
<g id="edge48" class="edge"><title>Node34&#45;&gt;Node17</title>
<path fill="none" stroke="#9a32cd" stroke-dasharray="5,2" d="M785.584,-451.563C849.014,-439.21 941.238,-420.666 948,-416 960.176,-407.597 954.198,-396.92 966,-388 977.893,-379.011 993.161,-373.365 1007.1,-369.829"/>
<polygon fill="#9a32cd" stroke="#9a32cd" points="784.818,-448.146 775.669,-453.489 786.153,-455.018 784.818,-448.146"/>
<text text-anchor="middle" x="889" y="-456" font-family="Helvetica,sans-Serif" font-size="10.00"> myCommandItems</text>
<text text-anchor="middle" x="889" y="-445" font-family="Helvetica,sans-Serif" font-size="10.00">myHistoryItems</text>
</g>
<!-- Node35 -->
<g id="node35" class="node"><title>Node35</title>
<polygon fill="white" stroke="#bfbfbf" points="1014.5,-221.5 1014.5,-240.5 1077.5,-240.5 1077.5,-221.5 1014.5,-221.5"/>
<text text-anchor="middle" x="1046" y="-228.5" font-family="Helvetica,sans-Serif" font-size="10.00">Rectangle</text>
</g>
<!-- Node35&#45;&gt;Node10 -->
<g id="edge49" class="edge"><title>Node35&#45;&gt;Node10</title>
<path fill="none" stroke="#9a32cd" stroke-dasharray="5,2" d="M1087.8,-233.727C1123.69,-236.191 1177.34,-240.029 1224,-244 1229.82,-244.495 1235.94,-245.048 1241.98,-245.613"/>
<polygon fill="#9a32cd" stroke="#9a32cd" points="1087.93,-230.228 1077.71,-233.039 1087.45,-237.212 1087.93,-230.228"/>
<text text-anchor="middle" x="1184" y="-247" font-family="Helvetica,sans-Serif" font-size="10.00"> myBackground</text>
</g>
<!-- Node36 -->
<g id="node36" class="node"><title>Node36</title>
<polygon fill="white" stroke="#bfbfbf" points="333,-141 333,-171 469,-171 469,-141 333,-141"/>
<text text-anchor="start" x="341" y="-159" font-family="Helvetica,sans-Serif" font-size="10.00">List&lt; model.instructions.</text>
<text text-anchor="middle" x="401" y="-148" font-family="Helvetica,sans-Serif" font-size="10.00">Instruction &gt;</text>
</g>
<!-- Node36&#45;&gt;Node2 -->
<g id="edge52" class="edge"><title>Node36&#45;&gt;Node2</title>
<path fill="none" stroke="#9a32cd" stroke-dasharray="5,2" d="M479.2,-145.451C532.536,-138.163 602.882,-128.55 654.474,-121.5"/>
<polygon fill="#9a32cd" stroke="#9a32cd" points="478.544,-142.008 469.11,-146.83 479.492,-148.944 478.544,-142.008"/>
<text text-anchor="middle" x="559" y="-145" font-family="Helvetica,sans-Serif" font-size="10.00"> myDependencies</text>
</g>
<!-- Node37 -->
<g id="node37" class="node"><title>Node37</title>
<g id="a_node37"><a xlink:href="../../d1/d0b/classmodel_1_1_polar.html" target="_top" xlink:title="model.Polar">
<polygon fill="white" stroke="black" points="364,-4.5 364,-23.5 438,-23.5 438,-4.5 364,-4.5"/>
<text text-anchor="middle" x="401" y="-11.5" font-family="Helvetica,sans-Serif" font-size="10.00">model.Polar</text>
</a>
</g>
</g>
<!-- Node37&#45;&gt;Node1 -->
<g id="edge53" class="edge"><title>Node37&#45;&gt;Node1</title>
<path fill="none" stroke="#9a32cd" stroke-dasharray="5,2" d="M448.37,-11.7093C495.948,-9.48168 572.118,-6.25576 638,-5 715.319,-3.52623 734.684,-3.34163 812,-5 863.409,-6.10268 921.154,-8.57239 966.296,-10.7814"/>
<polygon fill="#9a32cd" stroke="#9a32cd" points="448.197,-8.21344 438.374,-12.1823 448.528,-15.2056 448.197,-8.21344"/>
<text text-anchor="middle" x="725" y="-8" font-family="Helvetica,sans-Serif" font-size="10.00"> myPolar</text>
</g>
<!-- Node38 -->
<g id="node38" class="node"><title>Node38</title>
<g id="a_node38"><a xlink:href="../../d6/d06/classmodel_1_1_turtle_command.html" target="_top" xlink:title="model.TurtleCommand">
<polygon fill="white" stroke="black" points="662.5,-25.5 662.5,-44.5 787.5,-44.5 787.5,-25.5 662.5,-25.5"/>
<text text-anchor="middle" x="725" y="-32.5" font-family="Helvetica,sans-Serif" font-size="10.00">model.TurtleCommand</text>
</a>
</g>
</g>
<!-- Node37&#45;&gt;Node38 -->
<g id="edge55" class="edge"><title>Node37&#45;&gt;Node38</title>
<path fill="none" stroke="#9a32cd" stroke-dasharray="5,2" d="M448.039,-17.0026C504.336,-20.6741 599.833,-26.9021 662.41,-30.9833"/>
<polygon fill="#9a32cd" stroke="#9a32cd" points="448.207,-13.5061 438,-16.3478 447.751,-20.4913 448.207,-13.5061"/>
<text text-anchor="middle" x="559" y="-32" font-family="Helvetica,sans-Serif" font-size="10.00"> myPolar</text>
</g>
<!-- Node38&#45;&gt;Node1 -->
<g id="edge54" class="edge"><title>Node38&#45;&gt;Node1</title>
<path fill="none" stroke="#9a32cd" stroke-dasharray="5,2" d="M797.622,-30.5096C847.778,-27.365 914.789,-23.1637 966.415,-19.927"/>
<polygon fill="#9a32cd" stroke="#9a32cd" points="797.268,-27.0248 787.506,-31.1438 797.706,-34.0111 797.268,-27.0248"/>
<text text-anchor="middle" x="889" y="-31" font-family="Helvetica,sans-Serif" font-size="10.00"> myTurtle</text>
</g>
</g>
</svg>
