<?xml version="1.0" encoding="UTF-8" standalone="no"?>
<!DOCTYPE svg PUBLIC "-//W3C//DTD SVG 1.1//EN"
 "http://www.w3.org/Graphics/SVG/1.1/DTD/svg11.dtd">
<!-- Generated by graphviz version 2.36.0 (20140111.2315)
 -->
<!-- Title: view.Editor Pages: 1 -->
<svg width="1928pt" height="815pt"
 viewBox="0.00 0.00 1928.00 815.00" xmlns="http://www.w3.org/2000/svg" xmlns:xlink="http://www.w3.org/1999/xlink">
<g id="graph0" class="graph" transform="scale(1 1) rotate(0) translate(4 811)">
<title>view.Editor</title>
<polygon fill="white" stroke="none" points="-4,4 -4,-811 1924,-811 1924,4 -4,4"/>
<!-- Node1 -->
<g id="node1" class="node"><title>Node1</title>
<polygon fill="#bfbfbf" stroke="black" points="367.5,-615.5 367.5,-634.5 434.5,-634.5 434.5,-615.5 367.5,-615.5"/>
<text text-anchor="middle" x="401" y="-622.5" font-family="Helvetica,sans-Serif" font-size="10.00">view.Editor</text>
</g>
<!-- Node35 -->
<g id="node35" class="node"><title>Node35</title>
<g id="a_node35"><a xlink:href="../../d6/de7/classview_1_1_s_logo_view.html" target="_top" xlink:title="view.SLogoView">
<polygon fill="white" stroke="black" points="637.5,-521.5 637.5,-540.5 728.5,-540.5 728.5,-521.5 637.5,-521.5"/>
<text text-anchor="middle" x="683" y="-528.5" font-family="Helvetica,sans-Serif" font-size="10.00">view.SLogoView</text>
</a>
</g>
</g>
<!-- Node1&#45;&gt;Node35 -->
<g id="edge49" class="edge"><title>Node1&#45;&gt;Node35</title>
<path fill="none" stroke="#9a32cd" stroke-dasharray="5,2" d="M444.294,-612.92C480.113,-602.476 532.711,-586.636 578,-571 605.977,-561.341 637.661,-548.94 658.628,-540.524"/>
<polygon fill="#9a32cd" stroke="#9a32cd" points="443.285,-609.569 434.657,-615.718 445.236,-616.291 443.285,-609.569"/>
<text text-anchor="middle" x="538" y="-599" font-family="Helvetica,sans-Serif" font-size="10.00"> myEditor</text>
</g>
<!-- Node2 -->
<g id="node2" class="node"><title>Node2</title>
<polygon fill="white" stroke="#bfbfbf" points="66,-615.5 66,-634.5 108,-634.5 108,-615.5 66,-615.5"/>
<text text-anchor="middle" x="87" y="-622.5" font-family="Helvetica,sans-Serif" font-size="10.00">HBox</text>
</g>
<!-- Node2&#45;&gt;Node1 -->
<g id="edge1" class="edge"><title>Node2&#45;&gt;Node1</title>
<path fill="none" stroke="midnightblue" d="M118.644,-625C177.658,-625 306.592,-625 367.237,-625"/>
<polygon fill="midnightblue" stroke="midnightblue" points="118.471,-621.5 108.471,-625 118.471,-628.5 118.471,-621.5"/>
</g>
<!-- Node3 -->
<g id="node3" class="node"><title>Node3</title>
<polygon fill="white" stroke="#bfbfbf" points="62.5,-577.5 62.5,-596.5 111.5,-596.5 111.5,-577.5 62.5,-577.5"/>
<text text-anchor="middle" x="87" y="-584.5" font-family="Helvetica,sans-Serif" font-size="10.00">Button</text>
</g>
<!-- Node3&#45;&gt;Node1 -->
<g id="edge2" class="edge"><title>Node3&#45;&gt;Node1</title>
<path fill="none" stroke="#9a32cd" stroke-dasharray="5,2" d="M121.785,-590.082C164.351,-594.083 239.714,-601.56 304,-610 325.074,-612.767 348.659,-616.444 367.178,-619.465"/>
<polygon fill="#9a32cd" stroke="#9a32cd" points="121.979,-586.585 111.697,-589.141 121.329,-593.554 121.979,-586.585"/>
<text text-anchor="middle" x="248" y="-613" font-family="Helvetica,sans-Serif" font-size="10.00"> runButton</text>
</g>
<!-- Node4 -->
<g id="node4" class="node"><title>Node4</title>
<g id="a_node4"><a xlink:href="../../dc/df5/classmodel_1_1_parser.html" target="_top" xlink:title="model.Parser">
<polygon fill="white" stroke="black" points="953,-594.5 953,-613.5 1033,-613.5 1033,-594.5 953,-594.5"/>
<text text-anchor="middle" x="993" y="-601.5" font-family="Helvetica,sans-Serif" font-size="10.00">model.Parser</text>
</a>
</g>
</g>
<!-- Node4&#45;&gt;Node1 -->
<g id="edge3" class="edge"><title>Node4&#45;&gt;Node1</title>
<path fill="none" stroke="#9a32cd" stroke-dasharray="5,2" d="M942.412,-608.491C930.495,-609.445 917.8,-610.356 906,-611 728.352,-620.69 515.094,-623.818 434.75,-624.696"/>
<polygon fill="#9a32cd" stroke="#9a32cd" points="942.963,-611.958 952.642,-607.648 942.388,-604.981 942.963,-611.958"/>
<text text-anchor="middle" x="683" y="-626" font-family="Helvetica,sans-Serif" font-size="10.00"> myParser</text>
</g>
<!-- Node20 -->
<g id="node20" class="node"><title>Node20</title>
<g id="a_node20"><a xlink:href="../../d1/dc7/classview_1_1_side_bar.html" target="_top" xlink:title="view.SideBar">
<polygon fill="white" stroke="black" points="1243.5,-336.5 1243.5,-355.5 1320.5,-355.5 1320.5,-336.5 1243.5,-336.5"/>
<text text-anchor="middle" x="1282" y="-343.5" font-family="Helvetica,sans-Serif" font-size="10.00">view.SideBar</text>
</a>
</g>
</g>
<!-- Node4&#45;&gt;Node20 -->
<g id="edge37" class="edge"><title>Node4&#45;&gt;Node20</title>
<path fill="none" stroke="#9a32cd" stroke-dasharray="5,2" d="M1033.17,-591.2C1084.69,-573.756 1171.56,-542.055 1196,-519 1247.36,-470.55 1271.8,-384.442 1278.81,-355.666"/>
<polygon fill="#9a32cd" stroke="#9a32cd" points="1032.04,-587.887 1023.68,-594.389 1034.27,-594.523 1032.04,-587.887"/>
<text text-anchor="middle" x="1138" y="-578" font-family="Helvetica,sans-Serif" font-size="10.00"> myParser</text>
</g>
<!-- Node4&#45;&gt;Node35 -->
<g id="edge52" class="edge"><title>Node4&#45;&gt;Node35</title>
<path fill="none" stroke="#9a32cd" stroke-dasharray="5,2" d="M966.013,-589.513C949.341,-580.83 926.963,-570.289 906,-564 873.717,-554.315 783.683,-542.649 728.696,-536.103"/>
<polygon fill="#9a32cd" stroke="#9a32cd" points="964.646,-592.75 975.117,-594.364 967.938,-586.572 964.646,-592.75"/>
<text text-anchor="middle" x="847" y="-567" font-family="Helvetica,sans-Serif" font-size="10.00"> myParser</text>
</g>
<!-- Node5 -->
<g id="node5" class="node"><title>Node5</title>
<polygon fill="white" stroke="#bfbfbf" points="653,-787.5 653,-806.5 713,-806.5 713,-787.5 653,-787.5"/>
<text text-anchor="middle" x="683" y="-794.5" font-family="Helvetica,sans-Serif" font-size="10.00">Observer</text>
</g>
<!-- Node5&#45;&gt;Node4 -->
<g id="edge4" class="edge"><title>Node5&#45;&gt;Node4</title>
<path fill="none" stroke="midnightblue" d="M723.582,-795.328C779.314,-792.278 877.323,-784.153 906,-764 960.442,-725.74 983.563,-641.855 990.009,-613.547"/>
<polygon fill="midnightblue" stroke="midnightblue" points="723.169,-791.845 713.363,-795.856 723.531,-798.835 723.169,-791.845"/>
</g>
<!-- Node12 -->
<g id="node12" class="node"><title>Node12</title>
<g id="a_node12"><a xlink:href="../../d4/d64/classview_1_1_view_updater.html" target="_top" xlink:title="view.ViewUpdater">
<polygon fill="white" stroke="black" points="1820,-414.5 1820,-433.5 1920,-433.5 1920,-414.5 1820,-414.5"/>
<text text-anchor="middle" x="1870" y="-421.5" font-family="Helvetica,sans-Serif" font-size="10.00">view.ViewUpdater</text>
</a>
</g>
</g>
<!-- Node5&#45;&gt;Node12 -->
<g id="edge12" class="edge"><title>Node5&#45;&gt;Node12</title>
<path fill="none" stroke="midnightblue" d="M723.592,-798.264C782.219,-800.024 895.582,-803 992,-803 992,-803 992,-803 1696,-803 1863.44,-803 1869.52,-493.072 1869.15,-433.749"/>
<polygon fill="midnightblue" stroke="midnightblue" points="723.401,-794.757 713.299,-797.951 723.188,-801.754 723.401,-794.757"/>
</g>
<!-- Node6 -->
<g id="node6" class="node"><title>Node6</title>
<polygon fill="white" stroke="#bfbfbf" points="627,-655 627,-685 739,-685 739,-655 627,-655"/>
<text text-anchor="start" x="635" y="-673" font-family="Helvetica,sans-Serif" font-size="10.00">List&lt; Entry&lt; String,</text>
<text text-anchor="middle" x="683" y="-662" font-family="Helvetica,sans-Serif" font-size="10.00"> Pattern &gt; &gt;</text>
</g>
<!-- Node6&#45;&gt;Node4 -->
<g id="edge5" class="edge"><title>Node6&#45;&gt;Node4</title>
<path fill="none" stroke="#9a32cd" stroke-dasharray="5,2" d="M749.187,-665.178C793.882,-660.835 854.225,-652.919 906,-639 929.506,-632.681 955.203,-621.639 972.328,-613.645"/>
<polygon fill="#9a32cd" stroke="#9a32cd" points="748.669,-661.711 739.039,-666.128 749.322,-668.68 748.669,-661.711"/>
<text text-anchor="middle" x="847" y="-664" font-family="Helvetica,sans-Serif" font-size="10.00"> myPatterns</text>
</g>
<!-- Node7 -->
<g id="node7" class="node"><title>Node7</title>
<g id="a_node7"><a xlink:href="../../d1/dca/classmodel_1_1_execution_environment.html" target="_top" xlink:title="model.ExecutionEnvironment">
<polygon fill="white" stroke="black" points="322.5,-401.5 322.5,-420.5 479.5,-420.5 479.5,-401.5 322.5,-401.5"/>
<text text-anchor="middle" x="401" y="-408.5" font-family="Helvetica,sans-Serif" font-size="10.00">model.ExecutionEnvironment</text>
</a>
</g>
</g>
<!-- Node7&#45;&gt;Node4 -->
<g id="edge6" class="edge"><title>Node7&#45;&gt;Node4</title>
<path fill="none" stroke="#9a32cd" stroke-dasharray="5,2" d="M470.152,-399.927C592.08,-381.74 840.904,-352.508 906,-405 935.383,-428.694 910.284,-452.834 924,-488 940.456,-530.192 971.022,-575.053 984.862,-594.308"/>
<polygon fill="#9a32cd" stroke="#9a32cd" points="469.542,-396.479 460.176,-401.432 470.587,-403.401 469.542,-396.479"/>
<text text-anchor="middle" x="683" y="-387" font-family="Helvetica,sans-Serif" font-size="10.00"> myExecutionParameters</text>
</g>
<!-- Node7&#45;&gt;Node20 -->
<g id="edge25" class="edge"><title>Node7&#45;&gt;Node20</title>
<path fill="none" stroke="#9a32cd" stroke-dasharray="5,2" d="M489.919,-413.426C564.761,-414.229 674.94,-412.426 770,-399 839.911,-389.126 854.122,-370.105 924,-360 1039.41,-343.311 1177.84,-343.583 1243.24,-344.906"/>
<polygon fill="#9a32cd" stroke="#9a32cd" points="489.641,-409.922 479.598,-413.296 489.553,-416.922 489.641,-409.922"/>
<text text-anchor="middle" x="847" y="-400" font-family="Helvetica,sans-Serif" font-size="10.00"> myEnvironment</text>
</g>
<!-- Node24 -->
<g id="node24" class="node"><title>Node24</title>
<g id="a_node24"><a xlink:href="../../d9/dd3/classview_1_1_variables_view.html" target="_top" xlink:title="view.VariablesView">
<polygon fill="white" stroke="black" points="941,-166.5 941,-185.5 1045,-185.5 1045,-166.5 941,-166.5"/>
<text text-anchor="middle" x="993" y="-173.5" font-family="Helvetica,sans-Serif" font-size="10.00">view.VariablesView</text>
</a>
</g>
</g>
<!-- Node7&#45;&gt;Node24 -->
<g id="edge34" class="edge"><title>Node7&#45;&gt;Node24</title>
<path fill="none" stroke="#9a32cd" stroke-dasharray="5,2" d="M443.986,-398.484C460.757,-393.556 480.265,-387.911 498,-383 520.583,-376.747 889.143,-292.277 906,-276 926.028,-256.661 906.815,-237.904 924,-216 934.906,-202.099 952.088,-192.051 966.451,-185.502"/>
<polygon fill="#9a32cd" stroke="#9a32cd" points="442.539,-395.262 433.938,-401.448 444.519,-401.976 442.539,-395.262"/>
<text text-anchor="middle" x="683" y="-362" font-family="Helvetica,sans-Serif" font-size="10.00"> myEnvironment</text>
</g>
<!-- Node7&#45;&gt;Node35 -->
<g id="edge51" class="edge"><title>Node7&#45;&gt;Node35</title>
<path fill="none" stroke="#9a32cd" stroke-dasharray="5,2" d="M433.713,-424.591C490.861,-449.083 609.793,-500.054 659.453,-521.337"/>
<polygon fill="#9a32cd" stroke="#9a32cd" points="435.01,-421.339 424.44,-420.617 432.253,-427.774 435.01,-421.339"/>
<text text-anchor="middle" x="538" y="-489" font-family="Helvetica,sans-Serif" font-size="10.00"> myEnvironment</text>
</g>
<!-- Node8 -->
<g id="node8" class="node"><title>Node8</title>
<polygon fill="white" stroke="#bfbfbf" points="51.5,-420.5 51.5,-439.5 122.5,-439.5 122.5,-420.5 51.5,-420.5"/>
<text text-anchor="middle" x="87" y="-427.5" font-family="Helvetica,sans-Serif" font-size="10.00">Observable</text>
</g>
<!-- Node8&#45;&gt;Node7 -->
<g id="edge7" class="edge"><title>Node8&#45;&gt;Node7</title>
<path fill="none" stroke="midnightblue" d="M132.637,-427.282C182.066,-424.272 262.658,-419.364 322.457,-415.722"/>
<polygon fill="midnightblue" stroke="midnightblue" points="132.35,-423.793 122.582,-427.894 132.776,-430.78 132.35,-423.793"/>
</g>
<!-- Node9 -->
<g id="node9" class="node"><title>Node9</title>
<polygon fill="white" stroke="#bfbfbf" points="42.5,-382.5 42.5,-401.5 131.5,-401.5 131.5,-382.5 42.5,-382.5"/>
<text text-anchor="middle" x="87" y="-389.5" font-family="Helvetica,sans-Serif" font-size="10.00">Set&lt; Integer &gt;</text>
</g>
<!-- Node9&#45;&gt;Node7 -->
<g id="edge8" class="edge"><title>Node9&#45;&gt;Node7</title>
<path fill="none" stroke="#9a32cd" stroke-dasharray="5,2" d="M141.702,-389.098C185.492,-387.429 248.891,-386.599 304,-392 322.938,-393.856 343.68,-397.725 361.023,-401.49"/>
<polygon fill="#9a32cd" stroke="#9a32cd" points="141.411,-385.607 131.562,-389.513 141.697,-392.601 141.411,-385.607"/>
<text text-anchor="middle" x="248" y="-406" font-family="Helvetica,sans-Serif" font-size="10.00"> myTurtleList</text>
<text text-anchor="middle" x="248" y="-395" font-family="Helvetica,sans-Serif" font-size="10.00">activeTurtleList</text>
</g>
<!-- Node10 -->
<g id="node10" class="node"><title>Node10</title>
<polygon fill="white" stroke="#bfbfbf" points="0,-333 0,-363 174,-363 174,-333 0,-333"/>
<text text-anchor="start" x="8" y="-351" font-family="Helvetica,sans-Serif" font-size="10.00">Map&lt; String, model.instructions.</text>
<text text-anchor="middle" x="87" y="-340" font-family="Helvetica,sans-Serif" font-size="10.00">Instruction &gt;</text>
</g>
<!-- Node10&#45;&gt;Node7 -->
<g id="edge9" class="edge"><title>Node10&#45;&gt;Node7</title>
<path fill="none" stroke="#9a32cd" stroke-dasharray="5,2" d="M184.062,-353.696C221.844,-357.34 265.349,-363.292 304,-373 331.294,-379.855 361.217,-392.594 380.279,-401.422"/>
<polygon fill="#9a32cd" stroke="#9a32cd" points="184.357,-350.209 174.077,-352.774 183.713,-357.179 184.357,-350.209"/>
<text text-anchor="middle" x="248" y="-376" font-family="Helvetica,sans-Serif" font-size="10.00"> myUserInstructionMap</text>
</g>
<!-- Node11 -->
<g id="node11" class="node"><title>Node11</title>
<polygon fill="white" stroke="#bfbfbf" points="23,-458.5 23,-477.5 151,-477.5 151,-458.5 23,-458.5"/>
<text text-anchor="middle" x="87" y="-465.5" font-family="Helvetica,sans-Serif" font-size="10.00">Map&lt; String, Double &gt;</text>
</g>
<!-- Node11&#45;&gt;Node7 -->
<g id="edge10" class="edge"><title>Node11&#45;&gt;Node7</title>
<path fill="none" stroke="#9a32cd" stroke-dasharray="5,2" d="M161.259,-458.54C203.216,-452.69 256.757,-444.493 304,-435 324.38,-430.905 346.941,-425.319 365.069,-420.567"/>
<polygon fill="#9a32cd" stroke="#9a32cd" points="160.554,-455.104 151.127,-459.939 161.511,-462.038 160.554,-455.104"/>
<text text-anchor="middle" x="248" y="-458" font-family="Helvetica,sans-Serif" font-size="10.00"> myVariableMap</text>
</g>
<!-- Node12&#45;&gt;Node4 -->
<g id="edge11" class="edge"><title>Node12&#45;&gt;Node4</title>
<path fill="none" stroke="#9a32cd" stroke-dasharray="5,2" d="M1861.46,-443.194C1841.83,-489.584 1784.46,-604 1696,-604 1281,-604 1281,-604 1281,-604 1192.56,-604 1088.79,-604 1033.46,-604"/>
<polygon fill="#9a32cd" stroke="#9a32cd" points="1864.81,-444.258 1865.36,-433.678 1858.33,-441.606 1864.81,-444.258"/>
<text text-anchor="middle" x="1507" y="-607" font-family="Helvetica,sans-Serif" font-size="10.00"> myViewUpdater</text>
</g>
<!-- Node13 -->
<g id="node13" class="node"><title>Node13</title>
<g id="a_node13"><a xlink:href="../../da/d64/classview_1_1_workspace.html" target="_top" xlink:title="view.Workspace">
<polygon fill="white" stroke="black" points="1462,-270.5 1462,-289.5 1552,-289.5 1552,-270.5 1462,-270.5"/>
<text text-anchor="middle" x="1507" y="-277.5" font-family="Helvetica,sans-Serif" font-size="10.00">view.Workspace</text>
</a>
</g>
</g>
<!-- Node13&#45;&gt;Node12 -->
<g id="edge13" class="edge"><title>Node13&#45;&gt;Node12</title>
<path fill="none" stroke="#9a32cd" stroke-dasharray="5,2" d="M1562.29,-291.767C1586.38,-297.553 1614.9,-305.184 1640,-314 1714.51,-340.167 1731.38,-351.66 1802,-387 1819.59,-395.8 1839.23,-406.792 1852.68,-414.5"/>
<polygon fill="#9a32cd" stroke="#9a32cd" points="1562.8,-288.291 1552.26,-289.402 1561.19,-295.104 1562.8,-288.291"/>
<text text-anchor="middle" x="1695" y="-355" font-family="Helvetica,sans-Serif" font-size="10.00"> myWorkspace</text>
</g>
<!-- Node32 -->
<g id="node32" class="node"><title>Node32</title>
<g id="a_node32"><a xlink:href="../../de/d0a/classview_1_1_drawer.html" target="_top" xlink:title="view.Drawer">
<polygon fill="white" stroke="black" points="1658.5,-376.5 1658.5,-395.5 1731.5,-395.5 1731.5,-376.5 1658.5,-376.5"/>
<text text-anchor="middle" x="1695" y="-383.5" font-family="Helvetica,sans-Serif" font-size="10.00">view.Drawer</text>
</a>
</g>
</g>
<!-- Node13&#45;&gt;Node32 -->
<g id="edge41" class="edge"><title>Node13&#45;&gt;Node32</title>
<path fill="none" stroke="#9a32cd" stroke-dasharray="5,2" d="M1533.91,-294.769C1572.61,-316.821 1644.43,-357.75 1677.07,-376.352"/>
<polygon fill="#9a32cd" stroke="#9a32cd" points="1535.26,-291.504 1524.83,-289.594 1531.79,-297.586 1535.26,-291.504"/>
<text text-anchor="middle" x="1605" y="-358" font-family="Helvetica,sans-Serif" font-size="10.00"> myWorkspace</text>
</g>
<!-- Node13&#45;&gt;Node35 -->
<g id="edge46" class="edge"><title>Node13&#45;&gt;Node35</title>
<path fill="none" stroke="#9a32cd" stroke-dasharray="5,2" d="M1493.95,-298.548C1482.58,-314.961 1464.29,-338.761 1444,-355 1347.48,-432.262 1314.69,-446.393 1196,-481 1193.2,-481.817 852.901,-514.704 728.707,-526.688"/>
<polygon fill="#9a32cd" stroke="#9a32cd" points="1497.12,-300.1 1499.8,-289.851 1491.32,-296.19 1497.12,-300.1"/>
<text text-anchor="middle" x="1138" y="-496" font-family="Helvetica,sans-Serif" font-size="10.00"> myWorkspace</text>
</g>
<!-- Node14 -->
<g id="node14" class="node"><title>Node14</title>
<polygon fill="white" stroke="#bfbfbf" points="1248.5,-0.5 1248.5,-19.5 1315.5,-19.5 1315.5,-0.5 1248.5,-0.5"/>
<text text-anchor="middle" x="1282" y="-7.5" font-family="Helvetica,sans-Serif" font-size="10.00">StackPane</text>
</g>
<!-- Node14&#45;&gt;Node13 -->
<g id="edge14" class="edge"><title>Node14&#45;&gt;Node13</title>
<path fill="none" stroke="midnightblue" d="M1325.85,-6.83621C1361.94,-6.60694 1412.58,-12.371 1444,-42 1478.48,-74.5167 1499.78,-229.617 1504.83,-270.241"/>
<polygon fill="midnightblue" stroke="midnightblue" points="1325.54,-3.34212 1315.62,-7.06211 1325.69,-10.3404 1325.54,-3.34212"/>
</g>
<!-- Node15 -->
<g id="node15" class="node"><title>Node15</title>
<polygon fill="white" stroke="#bfbfbf" points="354.5,-288.5 354.5,-307.5 447.5,-307.5 447.5,-288.5 354.5,-288.5"/>
<text text-anchor="middle" x="401" y="-295.5" font-family="Helvetica,sans-Serif" font-size="10.00">ResourceBundle</text>
</g>
<!-- Node15&#45;&gt;Node13 -->
<g id="edge15" class="edge"><title>Node15&#45;&gt;Node13</title>
<path fill="none" stroke="#9a32cd" stroke-dasharray="5,2" d="M457.904,-301.307C614.219,-309.771 1068.93,-329.053 1444,-292 1449.89,-291.418 1456.06,-290.548 1462.12,-289.536"/>
<polygon fill="#9a32cd" stroke="#9a32cd" points="457.783,-297.795 447.606,-300.741 457.399,-304.784 457.783,-297.795"/>
<text text-anchor="middle" x="993" y="-317" font-family="Helvetica,sans-Serif" font-size="10.00"> myResources</text>
</g>
<!-- Node15&#45;&gt;Node20 -->
<g id="edge24" class="edge"><title>Node15&#45;&gt;Node20</title>
<path fill="none" stroke="#9a32cd" stroke-dasharray="5,2" d="M458.046,-288.634C471.123,-286.78 485.02,-285.077 498,-284 747.809,-263.281 814.465,-245.498 1062,-285 1132.93,-296.32 1213.7,-322.376 1254.46,-336.493"/>
<polygon fill="#9a32cd" stroke="#9a32cd" points="457.153,-285.227 447.768,-290.143 458.171,-292.153 457.153,-285.227"/>
<text text-anchor="middle" x="847" y="-269" font-family="Helvetica,sans-Serif" font-size="10.00"> myResources</text>
</g>
<!-- Node15&#45;&gt;Node35 -->
<g id="edge48" class="edge"><title>Node15&#45;&gt;Node35</title>
<path fill="none" stroke="#9a32cd" stroke-dasharray="5,2" d="M422.581,-313.96C455.709,-339.767 522.741,-392.471 578,-439 612.852,-468.346 652.929,-504.506 671.519,-521.424"/>
<polygon fill="#9a32cd" stroke="#9a32cd" points="424.587,-311.086 414.545,-307.709 420.29,-316.612 424.587,-311.086"/>
<text text-anchor="middle" x="538" y="-442" font-family="Helvetica,sans-Serif" font-size="10.00"> myResources</text>
</g>
<!-- Node16 -->
<g id="node16" class="node"><title>Node16</title>
<g id="a_node16"><a xlink:href="../../d8/df7/classview_1_1_turtle_view.html" target="_top" xlink:title="view.TurtleView">
<polygon fill="white" stroke="black" points="1239,-259.5 1239,-278.5 1325,-278.5 1325,-259.5 1239,-259.5"/>
<text text-anchor="middle" x="1282" y="-266.5" font-family="Helvetica,sans-Serif" font-size="10.00">view.TurtleView</text>
</a>
</g>
</g>
<!-- Node16&#45;&gt;Node13 -->
<g id="edge16" class="edge"><title>Node16&#45;&gt;Node13</title>
<path fill="none" stroke="#9a32cd" stroke-dasharray="5,2" d="M1335.66,-271.597C1374.02,-273.49 1425.41,-276.025 1461.68,-277.814"/>
<polygon fill="#9a32cd" stroke="#9a32cd" points="1335.37,-268.079 1325.21,-271.082 1335.02,-275.07 1335.37,-268.079"/>
<text text-anchor="middle" x="1406" y="-280" font-family="Helvetica,sans-Serif" font-size="10.00"> myActiveTurtle</text>
</g>
<!-- Node17 -->
<g id="node17" class="node"><title>Node17</title>
<polygon fill="white" stroke="#bfbfbf" points="959,-14.5 959,-33.5 1027,-33.5 1027,-14.5 959,-14.5"/>
<text text-anchor="middle" x="993" y="-21.5" font-family="Helvetica,sans-Serif" font-size="10.00">ImageView</text>
</g>
<!-- Node17&#45;&gt;Node16 -->
<g id="edge17" class="edge"><title>Node17&#45;&gt;Node16</title>
<path fill="none" stroke="midnightblue" d="M1037.44,-19.4827C1083.99,-17.2944 1156.5,-22.0292 1196,-66 1223.31,-96.3976 1188.01,-217.468 1214,-249 1220.33,-256.681 1229.48,-261.493 1238.99,-264.487"/>
<polygon fill="midnightblue" stroke="midnightblue" points="1037.12,-15.9953 1027.35,-20.084 1037.54,-22.9829 1037.12,-15.9953"/>
</g>
<!-- Node18 -->
<g id="node18" class="node"><title>Node18</title>
<polygon fill="white" stroke="#bfbfbf" points="970,-52.5 970,-71.5 1016,-71.5 1016,-52.5 970,-52.5"/>
<text text-anchor="middle" x="993" y="-59.5" font-family="Helvetica,sans-Serif" font-size="10.00">Group</text>
</g>
<!-- Node18&#45;&gt;Node13 -->
<g id="edge20" class="edge"><title>Node18&#45;&gt;Node13</title>
<path fill="none" stroke="#9a32cd" stroke-dasharray="5,2" d="M1026.34,-59.118C1066.74,-56.4576 1137.67,-54.9063 1196,-70 1315.5,-100.923 1349.89,-115.131 1444,-195 1470.46,-217.456 1491.8,-253.401 1501.04,-270.442"/>
<polygon fill="#9a32cd" stroke="#9a32cd" points="1025.99,-55.6341 1016.27,-59.8467 1026.49,-62.6158 1025.99,-55.6341"/>
<text text-anchor="middle" x="1282" y="-128" font-family="Helvetica,sans-Serif" font-size="10.00"> myLines</text>
</g>
<!-- Node18&#45;&gt;Node16 -->
<g id="edge18" class="edge"><title>Node18&#45;&gt;Node16</title>
<path fill="none" stroke="#9a32cd" stroke-dasharray="5,2" d="M1026.35,-64.3263C1080.41,-68.5266 1184.35,-78.0596 1196,-90 1245.66,-140.913 1168.36,-194.456 1214,-249 1220.31,-256.541 1229.33,-261.313 1238.72,-264.312"/>
<polygon fill="#9a32cd" stroke="#9a32cd" points="1026.48,-60.8264 1016.25,-63.5583 1025.95,-67.8063 1026.48,-60.8264"/>
<text text-anchor="middle" x="1138" y="-93" font-family="Helvetica,sans-Serif" font-size="10.00"> myStamps</text>
</g>
<!-- Node19 -->
<g id="node19" class="node"><title>Node19</title>
<polygon fill="white" stroke="#bfbfbf" points="1214,-210 1214,-240 1350,-240 1350,-210 1214,-210"/>
<text text-anchor="start" x="1222" y="-228" font-family="Helvetica,sans-Serif" font-size="10.00">Map&lt; Integer, view.Turtle</text>
<text text-anchor="middle" x="1282" y="-217" font-family="Helvetica,sans-Serif" font-size="10.00">View &gt;</text>
</g>
<!-- Node19&#45;&gt;Node13 -->
<g id="edge19" class="edge"><title>Node19&#45;&gt;Node13</title>
<path fill="none" stroke="#9a32cd" stroke-dasharray="5,2" d="M1360.08,-239.344C1386.82,-244.83 1416.88,-251.572 1444,-259 1455.95,-262.272 1468.96,-266.565 1479.97,-270.416"/>
<polygon fill="#9a32cd" stroke="#9a32cd" points="1360.5,-235.859 1350.01,-237.304 1359.11,-242.72 1360.5,-235.859"/>
<text text-anchor="middle" x="1406" y="-262" font-family="Helvetica,sans-Serif" font-size="10.00"> myTurtles</text>
</g>
<!-- Node20&#45;&gt;Node1 -->
<g id="edge57" class="edge"><title>Node20&#45;&gt;Node1</title>
<path fill="none" stroke="#9a32cd" stroke-dasharray="5,2" d="M1272.92,-365.431C1259.63,-397.773 1232.77,-464.847 1214,-523 1204.53,-552.344 1215.9,-566.449 1196,-590 1104.48,-698.304 1043.33,-687.685 906,-723 772.494,-757.331 729.427,-767.637 596,-733 520.631,-713.435 443.416,-657.503 414.194,-634.777"/>
<polygon fill="#9a32cd" stroke="#9a32cd" points="1276.29,-366.436 1276.87,-355.857 1269.82,-363.763 1276.29,-366.436"/>
<text text-anchor="middle" x="847" y="-753" font-family="Helvetica,sans-Serif" font-size="10.00"> mySidebar</text>
</g>
<!-- Node20&#45;&gt;Node12 -->
<g id="edge43" class="edge"><title>Node20&#45;&gt;Node12</title>
<path fill="none" stroke="#9a32cd" stroke-dasharray="5,2" d="M1314.66,-359.353C1349.9,-373.526 1408.91,-395.201 1462,-405 1589.47,-428.528 1743,-428.108 1819.96,-425.969"/>
<polygon fill="#9a32cd" stroke="#9a32cd" points="1315.95,-356.102 1305.37,-355.571 1313.31,-362.585 1315.95,-356.102"/>
<text text-anchor="middle" x="1605" y="-428" font-family="Helvetica,sans-Serif" font-size="10.00"> mySidebar</text>
</g>
<!-- Node20&#45;&gt;Node13 -->
<g id="edge21" class="edge"><title>Node20&#45;&gt;Node13</title>
<path fill="none" stroke="#9a32cd" stroke-dasharray="5,2" d="M1330.84,-343.943C1363.62,-341.255 1407.58,-335.091 1444,-321 1463.26,-313.55 1482.66,-299.397 1494.51,-289.83"/>
<polygon fill="#9a32cd" stroke="#9a32cd" points="1330.33,-340.471 1320.61,-344.699 1330.85,-347.452 1330.33,-340.471"/>
<text text-anchor="middle" x="1406" y="-343" font-family="Helvetica,sans-Serif" font-size="10.00"> mySidebar</text>
</g>
<!-- Node20&#45;&gt;Node35 -->
<g id="edge55" class="edge"><title>Node20&#45;&gt;Node35</title>
<path fill="none" stroke="#9a32cd" stroke-dasharray="5,2" d="M1233.38,-353.961C1221.2,-355.965 1208.12,-358.089 1196,-360 1075.24,-379.046 1023.31,-329.698 924,-401 909.791,-411.202 918.798,-424.076 906,-436 890.664,-450.289 763.792,-500.235 709.02,-521.402"/>
<polygon fill="#9a32cd" stroke="#9a32cd" points="1234.06,-357.395 1243.36,-352.313 1232.92,-350.489 1234.06,-357.395"/>
<text text-anchor="middle" x="993" y="-404" font-family="Helvetica,sans-Serif" font-size="10.00"> mySidebar</text>
</g>
<!-- Node21 -->
<g id="node21" class="node"><title>Node21</title>
<polygon fill="white" stroke="#bfbfbf" points="972.5,-459.5 972.5,-478.5 1013.5,-478.5 1013.5,-459.5 972.5,-459.5"/>
<text text-anchor="middle" x="993" y="-466.5" font-family="Helvetica,sans-Serif" font-size="10.00">VBox</text>
</g>
<!-- Node21&#45;&gt;Node20 -->
<g id="edge22" class="edge"><title>Node21&#45;&gt;Node20</title>
<path fill="none" stroke="midnightblue" d="M1023.44,-474.076C1064.67,-479.674 1140.75,-484.385 1196,-455 1238.59,-432.349 1266.7,-378.072 1276.81,-355.795"/>
<polygon fill="midnightblue" stroke="midnightblue" points="1023.91,-470.607 1013.5,-472.616 1022.89,-477.533 1023.91,-470.607"/>
</g>
<!-- Node22 -->
<g id="node22" class="node"><title>Node22</title>
<polygon fill="white" stroke="#bfbfbf" points="596.5,-195.5 596.5,-214.5 769.5,-214.5 769.5,-195.5 596.5,-195.5"/>
<text text-anchor="middle" x="683" y="-202.5" font-family="Helvetica,sans-Serif" font-size="10.00">ObservableList&lt; view.Property &gt;</text>
</g>
<!-- Node22&#45;&gt;Node20 -->
<g id="edge23" class="edge"><title>Node22&#45;&gt;Node20</title>
<path fill="none" stroke="#9a32cd" stroke-dasharray="5,2" d="M779.707,-210.327C923.24,-218.676 1179.34,-235.116 1196,-247 1212.2,-258.555 1202.19,-271.984 1214,-288 1228.79,-308.058 1251.69,-325.956 1266.52,-336.396"/>
<polygon fill="#9a32cd" stroke="#9a32cd" points="779.757,-206.824 769.572,-209.74 779.353,-213.812 779.757,-206.824"/>
<text text-anchor="middle" x="993" y="-233" font-family="Helvetica,sans-Serif" font-size="10.00"> myVariablesList</text>
</g>
<!-- Node22&#45;&gt;Node24 -->
<g id="edge33" class="edge"><title>Node22&#45;&gt;Node24</title>
<path fill="none" stroke="#9a32cd" stroke-dasharray="5,2" d="M779.937,-195.967C833.134,-190.958 897.159,-184.93 940.846,-180.816"/>
<polygon fill="#9a32cd" stroke="#9a32cd" points="779.423,-192.5 769.795,-196.922 780.079,-199.469 779.423,-192.5"/>
<text text-anchor="middle" x="847" y="-198" font-family="Helvetica,sans-Serif" font-size="10.00"> myVariablesList</text>
</g>
<!-- Node23 -->
<g id="node23" class="node"><title>Node23</title>
<polygon fill="white" stroke="#bfbfbf" points="327,-120.5 327,-139.5 475,-139.5 475,-120.5 327,-120.5"/>
<text text-anchor="middle" x="401" y="-127.5" font-family="Helvetica,sans-Serif" font-size="10.00">TableView&lt; view.Property &gt;</text>
</g>
<!-- Node23&#45;&gt;Node20 -->
<g id="edge26" class="edge"><title>Node23&#45;&gt;Node20</title>
<path fill="none" stroke="#9a32cd" stroke-dasharray="5,2" d="M485.104,-127.567C678.116,-122.74 1144.28,-116.125 1196,-163 1237.59,-200.692 1187.08,-238.746 1214,-288 1225.66,-309.331 1248.45,-326.425 1264.19,-336.386"/>
<polygon fill="#9a32cd" stroke="#9a32cd" points="484.917,-124.071 475.009,-127.824 485.095,-131.069 484.917,-124.071"/>
<text text-anchor="middle" x="847" y="-141" font-family="Helvetica,sans-Serif" font-size="10.00"> myTurtlePropertiesTable</text>
<text text-anchor="middle" x="847" y="-130" font-family="Helvetica,sans-Serif" font-size="10.00">myVariablesTable</text>
</g>
<!-- Node25 -->
<g id="node25" class="node"><title>Node25</title>
<g id="a_node25"><a xlink:href="../../d5/dea/classview_1_1_side_table_view.html" target="_top" xlink:title="view.SideTableView">
<polygon fill="white" stroke="black" points="630,-70.5 630,-89.5 736,-89.5 736,-70.5 630,-70.5"/>
<text text-anchor="middle" x="683" y="-77.5" font-family="Helvetica,sans-Serif" font-size="10.00">view.SideTableView</text>
</a>
</g>
</g>
<!-- Node23&#45;&gt;Node25 -->
<g id="edge31" class="edge"><title>Node23&#45;&gt;Node25</title>
<path fill="none" stroke="#9a32cd" stroke-dasharray="5,2" d="M465.312,-118.694C514.977,-109.825 583.266,-97.6311 629.821,-89.3176"/>
<polygon fill="#9a32cd" stroke="#9a32cd" points="464.554,-115.274 455.325,-120.478 465.784,-122.165 464.554,-115.274"/>
<text text-anchor="middle" x="538" y="-116" font-family="Helvetica,sans-Serif" font-size="10.00"> myTable</text>
</g>
<!-- Node24&#45;&gt;Node20 -->
<g id="edge27" class="edge"><title>Node24&#45;&gt;Node20</title>
<path fill="none" stroke="#9a32cd" stroke-dasharray="5,2" d="M1051.38,-165.232C1096.37,-160.318 1157.58,-161.948 1196,-197 1226.46,-224.786 1193.29,-252.351 1214,-288 1226.29,-309.152 1249.16,-326.403 1264.72,-336.44"/>
<polygon fill="#9a32cd" stroke="#9a32cd" points="1050.69,-161.792 1041.19,-166.487 1051.54,-168.739 1050.69,-161.792"/>
<text text-anchor="middle" x="1138" y="-200" font-family="Helvetica,sans-Serif" font-size="10.00"> myVariablesPane</text>
</g>
<!-- Node25&#45;&gt;Node24 -->
<g id="edge28" class="edge"><title>Node25&#45;&gt;Node24</title>
<path fill="none" stroke="midnightblue" d="M746.141,-88.0205C801.377,-95.6757 877.643,-107.687 906,-119 935.448,-130.748 965.286,-153.499 980.898,-166.422"/>
<polygon fill="midnightblue" stroke="midnightblue" points="746.471,-84.5331 736.088,-86.643 745.52,-91.4683 746.471,-84.5331"/>
</g>
<!-- Node29 -->
<g id="node29" class="node"><title>Node29</title>
<g id="a_node29"><a xlink:href="../../d9/d3a/classview_1_1_turtle_properties_view.html" target="_top" xlink:title="view.TurtlePropertiesView">
<polygon fill="white" stroke="black" points="925.5,-90.5 925.5,-109.5 1060.5,-109.5 1060.5,-90.5 925.5,-90.5"/>
<text text-anchor="middle" x="993" y="-97.5" font-family="Helvetica,sans-Serif" font-size="10.00">view.TurtlePropertiesView</text>
</a>
</g>
</g>
<!-- Node25&#45;&gt;Node29 -->
<g id="edge36" class="edge"><title>Node25&#45;&gt;Node29</title>
<path fill="none" stroke="midnightblue" d="M746.123,-83.8064C790.64,-86.5612 852.019,-90.4149 906,-94 912.272,-94.4166 918.801,-94.858 925.334,-95.3048"/>
<polygon fill="midnightblue" stroke="midnightblue" points="746.236,-80.3068 736.039,-83.1833 745.804,-87.2935 746.236,-80.3068"/>
</g>
<!-- Node26 -->
<g id="node26" class="node"><title>Node26</title>
<g id="a_node26"><a xlink:href="../../d2/d38/classview_1_1_side_properties_view.html" target="_top" xlink:title="view.SidePropertiesView">
<polygon fill="white" stroke="black" points="335.5,-73.5 335.5,-92.5 466.5,-92.5 466.5,-73.5 335.5,-73.5"/>
<text text-anchor="middle" x="401" y="-80.5" font-family="Helvetica,sans-Serif" font-size="10.00">view.SidePropertiesView</text>
</a>
</g>
</g>
<!-- Node26&#45;&gt;Node25 -->
<g id="edge29" class="edge"><title>Node26&#45;&gt;Node25</title>
<path fill="none" stroke="midnightblue" d="M476.693,-82.1997C525.051,-81.6816 586.806,-81.0199 629.9,-80.5582"/>
<polygon fill="midnightblue" stroke="midnightblue" points="476.551,-78.7009 466.589,-82.308 476.626,-85.7005 476.551,-78.7009"/>
</g>
<!-- Node27 -->
<g id="node27" class="node"><title>Node27</title>
<polygon fill="white" stroke="#bfbfbf" points="19.5,-73.5 19.5,-92.5 154.5,-92.5 154.5,-73.5 19.5,-73.5"/>
<text text-anchor="middle" x="87" y="-80.5" font-family="Helvetica,sans-Serif" font-size="10.00">ObservableList&lt; Node &gt;</text>
</g>
<!-- Node27&#45;&gt;Node26 -->
<g id="edge30" class="edge"><title>Node27&#45;&gt;Node26</title>
<path fill="none" stroke="#9a32cd" stroke-dasharray="5,2" d="M164.803,-83C217.206,-83 285.836,-83 335.423,-83"/>
<polygon fill="#9a32cd" stroke="#9a32cd" points="164.549,-79.5001 154.549,-83 164.549,-86.5001 164.549,-79.5001"/>
<text text-anchor="middle" x="248" y="-86" font-family="Helvetica,sans-Serif" font-size="10.00"> myChildren</text>
</g>
<!-- Node28 -->
<g id="node28" class="node"><title>Node28</title>
<polygon fill="white" stroke="#bfbfbf" points="323.5,-24 323.5,-54 478.5,-54 478.5,-24 323.5,-24"/>
<text text-anchor="start" x="331.5" y="-42" font-family="Helvetica,sans-Serif" font-size="10.00">TableColumn&lt; view.Property,</text>
<text text-anchor="middle" x="401" y="-31" font-family="Helvetica,sans-Serif" font-size="10.00"> String &gt;</text>
</g>
<!-- Node28&#45;&gt;Node25 -->
<g id="edge32" class="edge"><title>Node28&#45;&gt;Node25</title>
<path fill="none" stroke="#9a32cd" stroke-dasharray="5,2" d="M488.483,-45.0897C517.083,-47.7056 549,-51.274 578,-56 600.678,-59.6958 625.787,-65.4421 645.652,-70.3854"/>
<polygon fill="#9a32cd" stroke="#9a32cd" points="488.786,-41.6029 478.515,-44.2038 488.166,-48.5755 488.786,-41.6029"/>
<text text-anchor="middle" x="538" y="-70" font-family="Helvetica,sans-Serif" font-size="10.00"> rightTableCol</text>
<text text-anchor="middle" x="538" y="-59" font-family="Helvetica,sans-Serif" font-size="10.00">leftTableCol</text>
</g>
<!-- Node29&#45;&gt;Node20 -->
<g id="edge35" class="edge"><title>Node29&#45;&gt;Node20</title>
<path fill="none" stroke="#9a32cd" stroke-dasharray="5,2" d="M1070.79,-104.56C1124.08,-108.486 1187.04,-114.957 1196,-124 1221.81,-150.04 1196.96,-255.536 1214,-288 1225.3,-309.524 1248.17,-326.573 1264.03,-336.471"/>
<polygon fill="#9a32cd" stroke="#9a32cd" points="1070.85,-101.055 1060.63,-103.832 1070.35,-108.037 1070.85,-101.055"/>
<text text-anchor="middle" x="1138" y="-127" font-family="Helvetica,sans-Serif" font-size="10.00"> myTurtlePropertiesPane</text>
</g>
<!-- Node30 -->
<g id="node30" class="node"><title>Node30</title>
<polygon fill="white" stroke="#bfbfbf" points="924,-421.5 924,-440.5 1062,-440.5 1062,-421.5 924,-421.5"/>
<text text-anchor="middle" x="993" y="-428.5" font-family="Helvetica,sans-Serif" font-size="10.00">ObservableList&lt; String &gt;</text>
</g>
<!-- Node30&#45;&gt;Node20 -->
<g id="edge38" class="edge"><title>Node30&#45;&gt;Node20</title>
<path fill="none" stroke="#9a32cd" stroke-dasharray="5,2" d="M1072.5,-430.173C1110.83,-427.568 1156.97,-421.089 1196,-406 1226.33,-394.276 1256.03,-369.376 1270.99,-355.625"/>
<polygon fill="#9a32cd" stroke="#9a32cd" points="1072.19,-426.686 1062.42,-430.783 1072.62,-433.673 1072.19,-426.686"/>
<text text-anchor="middle" x="1138" y="-444" font-family="Helvetica,sans-Serif" font-size="10.00"> myCommandItems</text>
<text text-anchor="middle" x="1138" y="-433" font-family="Helvetica,sans-Serif" font-size="10.00">myHistoryItems</text>
</g>
<!-- Node31 -->
<g id="node31" class="node"><title>Node31</title>
<polygon fill="white" stroke="#bfbfbf" points="1250.5,-171.5 1250.5,-190.5 1313.5,-190.5 1313.5,-171.5 1250.5,-171.5"/>
<text text-anchor="middle" x="1282" y="-178.5" font-family="Helvetica,sans-Serif" font-size="10.00">Rectangle</text>
</g>
<!-- Node31&#45;&gt;Node13 -->
<g id="edge39" class="edge"><title>Node31&#45;&gt;Node13</title>
<path fill="none" stroke="#9a32cd" stroke-dasharray="5,2" d="M1323.52,-187.566C1357.23,-194.178 1405.72,-206.408 1444,-227 1465.45,-238.538 1486.06,-258.497 1497.28,-270.353"/>
<polygon fill="#9a32cd" stroke="#9a32cd" points="1324.03,-184.102 1313.55,-185.692 1322.74,-190.981 1324.03,-184.102"/>
<text text-anchor="middle" x="1406" y="-230" font-family="Helvetica,sans-Serif" font-size="10.00"> myBackground</text>
</g>
<!-- Node32&#45;&gt;Node12 -->
<g id="edge40" class="edge"><title>Node32&#45;&gt;Node12</title>
<path fill="none" stroke="#9a32cd" stroke-dasharray="5,2" d="M1741.82,-389.247C1760.64,-391.192 1782.55,-394.248 1802,-399 1817.56,-402.801 1834.45,-409.119 1847.38,-414.452"/>
<polygon fill="#9a32cd" stroke="#9a32cd" points="1742,-385.748 1731.71,-388.276 1741.33,-392.716 1742,-385.748"/>
<text text-anchor="middle" x="1776" y="-402" font-family="Helvetica,sans-Serif" font-size="10.00"> myDrawer</text>
</g>
<!-- Node32&#45;&gt;Node35 -->
<g id="edge54" class="edge"><title>Node32&#45;&gt;Node35</title>
<path fill="none" stroke="#9a32cd" stroke-dasharray="5,2" d="M1683.87,-404.664C1659.56,-446.67 1593.52,-545 1508,-545 1137,-545 1137,-545 1137,-545 987.305,-545 809.917,-537.268 728.673,-533.296"/>
<polygon fill="#9a32cd" stroke="#9a32cd" points="1686.93,-406.377 1688.78,-395.946 1680.83,-402.941 1686.93,-406.377"/>
<text text-anchor="middle" x="1282" y="-548" font-family="Helvetica,sans-Serif" font-size="10.00"> drawer</text>
</g>
<!-- Node33 -->
<g id="node33" class="node"><title>Node33</title>
<polygon fill="white" stroke="#bfbfbf" points="1486.5,-376.5 1486.5,-395.5 1527.5,-395.5 1527.5,-376.5 1486.5,-376.5"/>
<text text-anchor="middle" x="1507" y="-383.5" font-family="Helvetica,sans-Serif" font-size="10.00">Color</text>
</g>
<!-- Node33&#45;&gt;Node32 -->
<g id="edge42" class="edge"><title>Node33&#45;&gt;Node32</title>
<path fill="none" stroke="#9a32cd" stroke-dasharray="5,2" d="M1537.86,-386C1570.64,-386 1623.27,-386 1658.23,-386"/>
<polygon fill="#9a32cd" stroke="#9a32cd" points="1537.55,-382.5 1527.55,-386 1537.55,-389.5 1537.55,-382.5"/>
<text text-anchor="middle" x="1605" y="-389" font-family="Helvetica,sans-Serif" font-size="10.00"> myColor</text>
</g>
<!-- Node34 -->
<g id="node34" class="node"><title>Node34</title>
<polygon fill="white" stroke="#bfbfbf" points="622,-704.5 622,-723.5 744,-723.5 744,-704.5 622,-704.5"/>
<text text-anchor="middle" x="683" y="-711.5" font-family="Helvetica,sans-Serif" font-size="10.00">Map&lt; String, String &gt;</text>
</g>
<!-- Node34&#45;&gt;Node4 -->
<g id="edge44" class="edge"><title>Node34&#45;&gt;Node4</title>
<path fill="none" stroke="#9a32cd" stroke-dasharray="5,2" d="M754.457,-711.353C799.552,-707.426 858.324,-698.054 906,-676 939.049,-660.712 969.703,-629.341 983.828,-613.54"/>
<polygon fill="#9a32cd" stroke="#9a32cd" points="754.16,-707.866 744.471,-712.154 754.719,-714.843 754.16,-707.866"/>
<text text-anchor="middle" x="847" y="-711" font-family="Helvetica,sans-Serif" font-size="10.00"> myCommandMap</text>
</g>
<!-- Node35&#45;&gt;Node4 -->
<g id="edge45" class="edge"><title>Node35&#45;&gt;Node4</title>
<path fill="none" stroke="#9a32cd" stroke-dasharray="5,2" d="M710.513,-545.256C731.077,-555.682 760.599,-569.298 788,-577 844.06,-592.758 911.435,-599.395 952.989,-602.138"/>
<polygon fill="#9a32cd" stroke="#9a32cd" points="711.952,-542.06 701.461,-540.579 708.738,-548.279 711.952,-542.06"/>
<text text-anchor="middle" x="847" y="-601" font-family="Helvetica,sans-Serif" font-size="10.00"> mySLogoView</text>
</g>
<!-- Node36 -->
<g id="node36" class="node"><title>Node36</title>
<polygon fill="white" stroke="#bfbfbf" points="378.5,-521.5 378.5,-540.5 423.5,-540.5 423.5,-521.5 378.5,-521.5"/>
<text text-anchor="middle" x="401" y="-528.5" font-family="Helvetica,sans-Serif" font-size="10.00">Stage</text>
</g>
<!-- Node36&#45;&gt;Node35 -->
<g id="edge47" class="edge"><title>Node36&#45;&gt;Node35</title>
<path fill="none" stroke="#9a32cd" stroke-dasharray="5,2" d="M433.684,-531C483.531,-531 580.433,-531 637.328,-531"/>
<polygon fill="#9a32cd" stroke="#9a32cd" points="433.506,-527.5 423.506,-531 433.506,-534.5 433.506,-527.5"/>
<text text-anchor="middle" x="538" y="-534" font-family="Helvetica,sans-Serif" font-size="10.00"> myStage</text>
</g>
<!-- Node37 -->
<g id="node37" class="node"><title>Node37</title>
<polygon fill="white" stroke="#bfbfbf" points="341.5,-483.5 341.5,-502.5 460.5,-502.5 460.5,-483.5 341.5,-483.5"/>
<text text-anchor="middle" x="401" y="-490.5" font-family="Helvetica,sans-Serif" font-size="10.00">Map&lt; String, Node &gt;</text>
</g>
<!-- Node37&#45;&gt;Node35 -->
<g id="edge50" class="edge"><title>Node37&#45;&gt;Node35</title>
<path fill="none" stroke="#9a32cd" stroke-dasharray="5,2" d="M470.987,-501.8C503.471,-505.998 542.74,-511.153 578,-516 597.518,-518.683 619.078,-521.772 637.482,-524.446"/>
<polygon fill="#9a32cd" stroke="#9a32cd" points="471.058,-498.28 460.693,-500.472 470.163,-505.222 471.058,-498.28"/>
<text text-anchor="middle" x="538" y="-519" font-family="Helvetica,sans-Serif" font-size="10.00"> variables</text>
</g>
<!-- Node38 -->
<g id="node38" class="node"><title>Node38</title>
<polygon fill="white" stroke="#bfbfbf" points="360.5,-559.5 360.5,-578.5 441.5,-578.5 441.5,-559.5 360.5,-559.5"/>
<text text-anchor="middle" x="401" y="-566.5" font-family="Helvetica,sans-Serif" font-size="10.00">Dimension2D</text>
</g>
<!-- Node38&#45;&gt;Node35 -->
<g id="edge53" class="edge"><title>Node38&#45;&gt;Node35</title>
<path fill="none" stroke="#9a32cd" stroke-dasharray="5,2" d="M451.622,-562.266C504.185,-555.132 586.435,-543.97 637.122,-537.091"/>
<polygon fill="#9a32cd" stroke="#9a32cd" points="450.962,-558.823 441.523,-563.636 451.903,-565.759 450.962,-558.823"/>
<text text-anchor="middle" x="538" y="-559" font-family="Helvetica,sans-Serif" font-size="10.00"> myDimensions</text>
</g>
<!-- Node39 -->
<g id="node39" class="node"><title>Node39</title>
<polygon fill="white" stroke="#bfbfbf" points="58,-653.5 58,-672.5 116,-672.5 116,-653.5 58,-653.5"/>
<text text-anchor="middle" x="87" y="-660.5" font-family="Helvetica,sans-Serif" font-size="10.00">TextArea</text>
</g>
<!-- Node39&#45;&gt;Node1 -->
<g id="edge56" class="edge"><title>Node39&#45;&gt;Node1</title>
<path fill="none" stroke="#9a32cd" stroke-dasharray="5,2" d="M126.42,-659.131C169.649,-654.685 241.942,-646.97 304,-639 325.049,-636.297 348.634,-632.863 367.159,-630.073"/>
<polygon fill="#9a32cd" stroke="#9a32cd" points="125.933,-655.663 116.342,-660.163 126.646,-662.626 125.933,-655.663"/>
<text text-anchor="middle" x="248" y="-656" font-family="Helvetica,sans-Serif" font-size="10.00"> textEditor</text>
</g>
</g>
</svg>
