<?xml version="1.0" encoding="UTF-8" standalone="no"?>
<!DOCTYPE svg PUBLIC "-//W3C//DTD SVG 1.1//EN"
 "http://www.w3.org/Graphics/SVG/1.1/DTD/svg11.dtd">
<!-- Generated by graphviz version 2.36.0 (20140111.2315)
 -->
<!-- Title: view.Property Pages: 1 -->
<svg width="203pt" height="106pt"
 viewBox="0.00 0.00 203.00 106.00" xmlns="http://www.w3.org/2000/svg" xmlns:xlink="http://www.w3.org/1999/xlink">
<g id="graph0" class="graph" transform="scale(1 1) rotate(0) translate(4 102)">
<title>view.Property</title>
<polygon fill="white" stroke="none" points="-4,4 -4,-102 199,-102 199,4 -4,4"/>
<!-- Node1 -->
<g id="node1" class="node"><title>Node1</title>
<polygon fill="#bfbfbf" stroke="black" points="56,-0.5 56,-19.5 136,-19.5 136,-0.5 56,-0.5"/>
<text text-anchor="middle" x="96" y="-7.5" font-family="Helvetica,sans-Serif" font-size="10.00">view.Property</text>
</g>
<!-- Node2 -->
<g id="node2" class="node"><title>Node2</title>
<polygon fill="white" stroke="#bfbfbf" points="0,-78.5 0,-97.5 86,-97.5 86,-78.5 0,-78.5"/>
<text text-anchor="middle" x="43" y="-85.5" font-family="Helvetica,sans-Serif" font-size="10.00">StringProperty</text>
</g>
<!-- Node2&#45;&gt;Node1 -->
<g id="edge1" class="edge"><title>Node2&#45;&gt;Node1</title>
<path fill="none" stroke="#9a32cd" stroke-dasharray="5,2" d="M51.0171,-68.8654C55.6428,-59.2799 61.9367,-47.554 69,-38 73.9655,-31.2835 80.5838,-24.6378 86.025,-19.6204"/>
<polygon fill="#9a32cd" stroke="#9a32cd" points="47.711,-67.6763 46.6951,-78.2224 54.0659,-70.6117 47.711,-67.6763"/>
<text text-anchor="middle" x="98.5" y="-52" font-family="Helvetica,sans-Serif" font-size="10.00"> myProperty</text>
<text text-anchor="middle" x="98.5" y="-41" font-family="Helvetica,sans-Serif" font-size="10.00">myName</text>
</g>
<!-- Node3 -->
<g id="node3" class="node"><title>Node3</title>
<polygon fill="white" stroke="#bfbfbf" points="104.5,-78.5 104.5,-97.5 195.5,-97.5 195.5,-78.5 104.5,-78.5"/>
<text text-anchor="middle" x="150" y="-85.5" font-family="Helvetica,sans-Serif" font-size="10.00">DoubleProperty</text>
</g>
<!-- Node3&#45;&gt;Node1 -->
<g id="edge2" class="edge"><title>Node3&#45;&gt;Node1</title>
<path fill="none" stroke="#9a32cd" stroke-dasharray="5,2" d="M144.112,-68.9141C140.413,-59.1786 135.008,-47.2961 128,-38 122.662,-30.9187 115.144,-24.4548 108.736,-19.628"/>
<polygon fill="#9a32cd" stroke="#9a32cd" points="140.832,-70.1384 147.451,-78.4115 147.436,-67.8167 140.832,-70.1384"/>
<text text-anchor="middle" x="158" y="-46.5" font-family="Helvetica,sans-Serif" font-size="10.00"> myVar</text>
</g>
</g>
</svg>
