<?xml version="1.0" encoding="UTF-8" standalone="no"?>
<!DOCTYPE svg PUBLIC "-//W3C//DTD SVG 1.1//EN"
 "http://www.w3.org/Graphics/SVG/1.1/DTD/svg11.dtd">
<!-- Generated by graphviz version 2.36.0 (20140111.2315)
 -->
<!-- Title: view.TurtleView.getHeading Pages: 1 -->
<svg width="2258pt" height="471pt"
 viewBox="0.00 0.00 2258.00 471.00" xmlns="http://www.w3.org/2000/svg" xmlns:xlink="http://www.w3.org/1999/xlink">
<g id="graph0" class="graph" transform="scale(1 1) rotate(0) translate(4 467)">
<title>view.TurtleView.getHeading</title>
<polygon fill="white" stroke="none" points="-4,4 -4,-467 2254,-467 2254,4 -4,4"/>
<!-- Node1 -->
<g id="node1" class="node"><title>Node1</title>
<polygon fill="#bfbfbf" stroke="black" points="0,-190.5 0,-209.5 144,-209.5 144,-190.5 0,-190.5"/>
<text text-anchor="middle" x="72" y="-197.5" font-family="Helvetica,sans-Serif" font-size="10.00">view.TurtleView.getHeading</text>
</g>
<!-- Node2 -->
<g id="node2" class="node"><title>Node2</title>
<g id="a_node2"><a xlink:href="../../d1/dc7/classview_1_1_side_bar.html#a7d73038dbba05f96990b60664afa2670" target="_top" xlink:title="view.SideBar.updateTurtle\lProperties">
<polygon fill="white" stroke="black" points="180,-185 180,-215 318,-215 318,-185 180,-185"/>
<text text-anchor="start" x="188" y="-203" font-family="Helvetica,sans-Serif" font-size="10.00">view.SideBar.updateTurtle</text>
<text text-anchor="middle" x="249" y="-192" font-family="Helvetica,sans-Serif" font-size="10.00">Properties</text>
</a>
</g>
</g>
<!-- Node1&#45;&gt;Node2 -->
<g id="edge1" class="edge"><title>Node1&#45;&gt;Node2</title>
<path fill="none" stroke="midnightblue" d="M154.237,-200C162.854,-200 171.553,-200 179.996,-200"/>
<polygon fill="midnightblue" stroke="midnightblue" points="154.179,-196.5 144.179,-200 154.179,-203.5 154.179,-196.5"/>
</g>
<!-- Node3 -->
<g id="node3" class="node"><title>Node3</title>
<g id="a_node3"><a xlink:href="../../d4/d64/classview_1_1_view_updater.html#ace7ce28317856b4b454a798d1af23b38" target="_top" xlink:title="view.ViewUpdater.clearScreen">
<polygon fill="white" stroke="black" points="762.5,-301.5 762.5,-320.5 921.5,-320.5 921.5,-301.5 762.5,-301.5"/>
<text text-anchor="middle" x="842" y="-308.5" font-family="Helvetica,sans-Serif" font-size="10.00">view.ViewUpdater.clearScreen</text>
</a>
</g>
</g>
<!-- Node2&#45;&gt;Node3 -->
<g id="edge2" class="edge"><title>Node2&#45;&gt;Node3</title>
<path fill="none" stroke="midnightblue" d="M266.895,-222.939C285.369,-245.95 317.285,-280.057 354,-295 502.48,-355.431 697.99,-335.163 789.545,-320.555"/>
<polygon fill="midnightblue" stroke="midnightblue" points="269.625,-220.748 260.712,-215.019 264.107,-225.055 269.625,-220.748"/>
</g>
<!-- Node5 -->
<g id="node5" class="node"><title>Node5</title>
<g id="a_node5"><a xlink:href="../../de/d0a/classview_1_1_drawer.html#a6b9f362b8bc763689630b1fe7b5c1887" target="_top" xlink:title="view.Drawer.draw">
<polygon fill="white" stroke="black" points="379,-266.5 379,-285.5 477,-285.5 477,-266.5 379,-266.5"/>
<text text-anchor="middle" x="428" y="-273.5" font-family="Helvetica,sans-Serif" font-size="10.00">view.Drawer.draw</text>
</a>
</g>
</g>
<!-- Node2&#45;&gt;Node5 -->
<g id="edge4" class="edge"><title>Node2&#45;&gt;Node5</title>
<path fill="none" stroke="midnightblue" d="M282.267,-220.393C302.308,-232.365 328.942,-247.05 354,-257 363.25,-260.673 373.442,-263.84 383.201,-266.477"/>
<polygon fill="midnightblue" stroke="midnightblue" points="283.918,-217.301 273.552,-215.11 280.289,-223.287 283.918,-217.301"/>
</g>
<!-- Node8 -->
<g id="node8" class="node"><title>Node8</title>
<g id="a_node8"><a xlink:href="../../da/d64/classview_1_1_workspace.html#a16bda9a6a7fe7f8d3d7b09108675f9c4" target="_top" xlink:title="view.Workspace.setActive\lTurtle">
<polygon fill="white" stroke="black" points="359.5,-381 359.5,-411 496.5,-411 496.5,-381 359.5,-381"/>
<text text-anchor="start" x="367.5" y="-399" font-family="Helvetica,sans-Serif" font-size="10.00">view.Workspace.setActive</text>
<text text-anchor="middle" x="428" y="-388" font-family="Helvetica,sans-Serif" font-size="10.00">Turtle</text>
</a>
</g>
</g>
<!-- Node2&#45;&gt;Node8 -->
<g id="edge8" class="edge"><title>Node2&#45;&gt;Node8</title>
<path fill="none" stroke="midnightblue" d="M259.629,-224.645C274.721,-260.348 307.146,-326.494 354,-366 361.123,-372.006 369.613,-376.938 378.24,-380.943"/>
<polygon fill="midnightblue" stroke="midnightblue" points="262.71,-222.934 255.669,-215.017 256.236,-225.597 262.71,-222.934"/>
</g>
<!-- Node20 -->
<g id="node20" class="node"><title>Node20</title>
<g id="a_node20"><a xlink:href="../../d4/d64/classview_1_1_view_updater.html#ab8c47e1d6b8bc5c076184e3e0af5e4b2" target="_top" xlink:title="view.ViewUpdater.setHeading">
<polygon fill="white" stroke="black" points="553.5,-133.5 553.5,-152.5 710.5,-152.5 710.5,-133.5 553.5,-133.5"/>
<text text-anchor="middle" x="632" y="-140.5" font-family="Helvetica,sans-Serif" font-size="10.00">view.ViewUpdater.setHeading</text>
</a>
</g>
</g>
<!-- Node2&#45;&gt;Node20 -->
<g id="edge22" class="edge"><title>Node2&#45;&gt;Node20</title>
<path fill="none" stroke="midnightblue" d="M278.534,-179.22C298.553,-165.976 326.548,-150.03 354,-143 422.6,-125.434 503.928,-128.076 560.646,-133.49"/>
<polygon fill="midnightblue" stroke="midnightblue" points="276.503,-176.369 270.198,-184.884 280.437,-182.158 276.503,-176.369"/>
</g>
<!-- Node22 -->
<g id="node22" class="node"><title>Node22</title>
<g id="a_node22"><a xlink:href="../../d6/de7/classview_1_1_s_logo_view.html#ae7ad67f4b629b134cb805842a20f4050" target="_top" xlink:title="view.SLogoView.setHeading">
<polygon fill="white" stroke="black" points="354,-228.5 354,-247.5 502,-247.5 502,-228.5 354,-228.5"/>
<text text-anchor="middle" x="428" y="-235.5" font-family="Helvetica,sans-Serif" font-size="10.00">view.SLogoView.setHeading</text>
</a>
</g>
</g>
<!-- Node2&#45;&gt;Node22 -->
<g id="edge25" class="edge"><title>Node2&#45;&gt;Node22</title>
<path fill="none" stroke="midnightblue" d="M328.16,-216.78C346.819,-220.786 366.099,-224.925 382.622,-228.472"/>
<polygon fill="midnightblue" stroke="midnightblue" points="328.692,-213.315 318.18,-214.637 327.222,-220.159 328.692,-213.315"/>
</g>
<!-- Node24 -->
<g id="node24" class="node"><title>Node24</title>
<g id="a_node24"><a xlink:href="../../d4/d64/classview_1_1_view_updater.html#ad79c00c54aabbeca7b8a0461fea36c29" target="_top" xlink:title="view.ViewUpdater.setPenUp">
<polygon fill="white" stroke="black" points="557.5,-67.5 557.5,-86.5 706.5,-86.5 706.5,-67.5 557.5,-67.5"/>
<text text-anchor="middle" x="632" y="-74.5" font-family="Helvetica,sans-Serif" font-size="10.00">view.ViewUpdater.setPenUp</text>
</a>
</g>
</g>
<!-- Node2&#45;&gt;Node24 -->
<g id="edge27" class="edge"><title>Node2&#45;&gt;Node24</title>
<path fill="none" stroke="midnightblue" d="M260.585,-175.674C275.929,-143.876 307.678,-89.5811 354,-67 436.402,-26.8309 549.554,-51.9822 602.062,-67.4822"/>
<polygon fill="midnightblue" stroke="midnightblue" points="257.402,-174.217 256.351,-184.76 263.747,-177.174 257.402,-174.217"/>
</g>
<!-- Node25 -->
<g id="node25" class="node"><title>Node25</title>
<g id="a_node25"><a xlink:href="../../d6/de7/classview_1_1_s_logo_view.html#a978a65a0b82bac25044f7e2816a680cc" target="_top" xlink:title="view.SLogoView.setPenUp">
<polygon fill="white" stroke="black" points="358,-152.5 358,-171.5 498,-171.5 498,-152.5 358,-152.5"/>
<text text-anchor="middle" x="428" y="-159.5" font-family="Helvetica,sans-Serif" font-size="10.00">view.SLogoView.setPenUp</text>
</a>
</g>
</g>
<!-- Node2&#45;&gt;Node25 -->
<g id="edge29" class="edge"><title>Node2&#45;&gt;Node25</title>
<path fill="none" stroke="midnightblue" d="M328.16,-183.22C346.819,-179.214 366.099,-175.075 382.622,-171.528"/>
<polygon fill="midnightblue" stroke="midnightblue" points="327.222,-179.841 318.18,-185.363 328.692,-186.685 327.222,-179.841"/>
</g>
<!-- Node26 -->
<g id="node26" class="node"><title>Node26</title>
<g id="a_node26"><a xlink:href="../../d4/d64/classview_1_1_view_updater.html#a497cc83cdcb6fdb430bdb78431c5cd20" target="_top" xlink:title="view.ViewUpdater.setXY">
<polygon fill="white" stroke="black" points="778,-341.5 778,-360.5 906,-360.5 906,-341.5 778,-341.5"/>
<text text-anchor="middle" x="842" y="-348.5" font-family="Helvetica,sans-Serif" font-size="10.00">view.ViewUpdater.setXY</text>
</a>
</g>
</g>
<!-- Node2&#45;&gt;Node26 -->
<g id="edge30" class="edge"><title>Node2&#45;&gt;Node26</title>
<path fill="none" stroke="midnightblue" d="M261.792,-224.191C277.942,-254.316 310.029,-304.544 354,-327 426.185,-363.865 662.887,-359.006 777.58,-354.218"/>
<polygon fill="midnightblue" stroke="midnightblue" points="264.826,-222.441 257.113,-215.178 258.613,-225.666 264.826,-222.441"/>
</g>
<!-- Node27 -->
<g id="node27" class="node"><title>Node27</title>
<g id="a_node27"><a xlink:href="../../d6/de7/classview_1_1_s_logo_view.html#a0948ea67bfc088f941e2af79727231ad" target="_top" xlink:title="view.SLogoView.setXY">
<polygon fill="white" stroke="black" points="368.5,-76.5 368.5,-95.5 487.5,-95.5 487.5,-76.5 368.5,-76.5"/>
<text text-anchor="middle" x="428" y="-83.5" font-family="Helvetica,sans-Serif" font-size="10.00">view.SLogoView.setXY</text>
</a>
</g>
</g>
<!-- Node2&#45;&gt;Node27 -->
<g id="edge32" class="edge"><title>Node2&#45;&gt;Node27</title>
<path fill="none" stroke="midnightblue" d="M270.687,-177.615C290.395,-157.456 321.763,-128.266 354,-110 364.563,-104.015 376.84,-99.2527 388.278,-95.5996"/>
<polygon fill="midnightblue" stroke="midnightblue" points="268.133,-175.222 263.728,-184.858 273.18,-180.073 268.133,-175.222"/>
</g>
<!-- Node28 -->
<g id="node28" class="node"><title>Node28</title>
<g id="a_node28"><a xlink:href="../../d4/d64/classview_1_1_view_updater.html#a9797c2f411ad272a0feb84c26836bfd4" target="_top" xlink:title="view.ViewUpdater.showTurtle">
<polygon fill="white" stroke="black" points="556,-190.5 556,-209.5 708,-209.5 708,-190.5 556,-190.5"/>
<text text-anchor="middle" x="632" y="-197.5" font-family="Helvetica,sans-Serif" font-size="10.00">view.ViewUpdater.showTurtle</text>
</a>
</g>
</g>
<!-- Node2&#45;&gt;Node28 -->
<g id="edge33" class="edge"><title>Node2&#45;&gt;Node28</title>
<path fill="none" stroke="midnightblue" d="M328.155,-200C394.866,-200 490.177,-200 555.974,-200"/>
<polygon fill="midnightblue" stroke="midnightblue" points="328.115,-196.5 318.115,-200 328.115,-203.5 328.115,-196.5"/>
</g>
<!-- Node29 -->
<g id="node29" class="node"><title>Node29</title>
<g id="a_node29"><a xlink:href="../../d6/de7/classview_1_1_s_logo_view.html#a00710838e28dcb10fe6da3c0ec0c4e20" target="_top" xlink:title="view.SLogoView.showTurtle">
<polygon fill="white" stroke="black" points="356.5,-0.5 356.5,-19.5 499.5,-19.5 499.5,-0.5 356.5,-0.5"/>
<text text-anchor="middle" x="428" y="-7.5" font-family="Helvetica,sans-Serif" font-size="10.00">view.SLogoView.showTurtle</text>
</a>
</g>
</g>
<!-- Node2&#45;&gt;Node29 -->
<g id="edge35" class="edge"><title>Node2&#45;&gt;Node29</title>
<path fill="none" stroke="midnightblue" d="M259.074,-175.368C273.621,-139.209 305.542,-71.9495 354,-34 362.088,-27.6663 371.914,-22.9714 381.702,-19.5026"/>
<polygon fill="midnightblue" stroke="midnightblue" points="255.81,-174.104 255.432,-184.692 262.331,-176.65 255.81,-174.104"/>
</g>
<!-- Node4 -->
<g id="node4" class="node"><title>Node4</title>
<g id="a_node4"><a xlink:href="../../d1/dd3/classmodel_1_1instructions_1_1_movement_instruction.html#a33e802cec8283d190a8daac6e485e3b4" target="_top" xlink:title="model.instructions.Movement\lInstruction.execute">
<polygon fill="white" stroke="black" points="958.5,-220 958.5,-250 1117.5,-250 1117.5,-220 958.5,-220"/>
<text text-anchor="start" x="966.5" y="-238" font-family="Helvetica,sans-Serif" font-size="10.00">model.instructions.Movement</text>
<text text-anchor="middle" x="1038" y="-227" font-family="Helvetica,sans-Serif" font-size="10.00">Instruction.execute</text>
</a>
</g>
</g>
<!-- Node3&#45;&gt;Node4 -->
<g id="edge3" class="edge"><title>Node3&#45;&gt;Node4</title>
<path fill="none" stroke="midnightblue" d="M885.642,-298.457C897.505,-294.711 910.333,-290.417 922,-286 950.8,-275.095 982.761,-260.732 1005.66,-250.027"/>
<polygon fill="midnightblue" stroke="midnightblue" points="884.463,-295.159 875.95,-301.466 886.538,-301.844 884.463,-295.159"/>
</g>
<!-- Node6 -->
<g id="node6" class="node"><title>Node6</title>
<g id="a_node6"><a xlink:href="../../d4/d64/classview_1_1_view_updater.html#adc0790ceed057768bd5a29a470e626d1" target="_top" xlink:title="view.ViewUpdater.updateWorkspace">
<polygon fill="white" stroke="black" points="538.5,-266.5 538.5,-285.5 725.5,-285.5 725.5,-266.5 538.5,-266.5"/>
<text text-anchor="middle" x="632" y="-273.5" font-family="Helvetica,sans-Serif" font-size="10.00">view.ViewUpdater.updateWorkspace</text>
</a>
</g>
</g>
<!-- Node5&#45;&gt;Node6 -->
<g id="edge5" class="edge"><title>Node5&#45;&gt;Node6</title>
<path fill="none" stroke="midnightblue" d="M487.362,-276C503.351,-276 521.088,-276 538.485,-276"/>
<polygon fill="midnightblue" stroke="midnightblue" points="487.127,-272.5 477.127,-276 487.127,-279.5 487.127,-272.5"/>
</g>
<!-- Node7 -->
<g id="node7" class="node"><title>Node7</title>
<g id="a_node7"><a xlink:href="../../d1/dd3/classmodel_1_1instructions_1_1_movement_instruction.html#a51c776093aeb820937b12e2b89eb2f89" target="_top" xlink:title="model.instructions.Movement\lInstruction.updateView">
<polygon fill="white" stroke="black" points="762.5,-247 762.5,-277 921.5,-277 921.5,-247 762.5,-247"/>
<text text-anchor="start" x="770.5" y="-265" font-family="Helvetica,sans-Serif" font-size="10.00">model.instructions.Movement</text>
<text text-anchor="middle" x="842" y="-254" font-family="Helvetica,sans-Serif" font-size="10.00">Instruction.updateView</text>
</a>
</g>
</g>
<!-- Node6&#45;&gt;Node7 -->
<g id="edge6" class="edge"><title>Node6&#45;&gt;Node7</title>
<path fill="none" stroke="midnightblue" d="M735.821,-269.079C744.762,-268.478 753.714,-267.875 762.413,-267.289"/>
<polygon fill="midnightblue" stroke="midnightblue" points="735.489,-265.594 725.746,-269.757 735.959,-272.578 735.489,-265.594"/>
</g>
<!-- Node7&#45;&gt;Node4 -->
<g id="edge7" class="edge"><title>Node7&#45;&gt;Node4</title>
<path fill="none" stroke="midnightblue" d="M931.608,-249.668C940.498,-248.431 949.483,-247.18 958.26,-245.959"/>
<polygon fill="midnightblue" stroke="midnightblue" points="931.05,-246.212 921.628,-251.057 932.015,-253.145 931.05,-246.212"/>
</g>
<!-- Node9 -->
<g id="node9" class="node"><title>Node9</title>
<g id="a_node9"><a xlink:href="../../da/d64/classview_1_1_workspace.html#abbd85b844575ebab6643ba4ddc5a1612" target="_top" xlink:title="view.Workspace.Workspace">
<polygon fill="white" stroke="black" points="966,-380.5 966,-399.5 1110,-399.5 1110,-380.5 966,-380.5"/>
<text text-anchor="middle" x="1038" y="-387.5" font-family="Helvetica,sans-Serif" font-size="10.00">view.Workspace.Workspace</text>
</a>
</g>
</g>
<!-- Node8&#45;&gt;Node9 -->
<g id="edge9" class="edge"><title>Node8&#45;&gt;Node9</title>
<path fill="none" stroke="midnightblue" d="M506.799,-395.232C625.66,-394.059 850.74,-391.838 965.632,-390.704"/>
<polygon fill="midnightblue" stroke="midnightblue" points="506.647,-391.733 496.682,-395.332 506.716,-398.733 506.647,-391.733"/>
</g>
<!-- Node10 -->
<g id="node10" class="node"><title>Node10</title>
<g id="a_node10"><a xlink:href="../../da/d64/classview_1_1_workspace.html#a9eea72f983d5e7ad5af85056d927e380" target="_top" xlink:title="view.Workspace.configure\lTurtleEventHandler">
<polygon fill="white" stroke="black" points="563.5,-419 563.5,-449 700.5,-449 700.5,-419 563.5,-419"/>
<text text-anchor="start" x="571.5" y="-437" font-family="Helvetica,sans-Serif" font-size="10.00">view.Workspace.configure</text>
<text text-anchor="middle" x="632" y="-426" font-family="Helvetica,sans-Serif" font-size="10.00">TurtleEventHandler</text>
</a>
</g>
</g>
<!-- Node8&#45;&gt;Node10 -->
<g id="edge10" class="edge"><title>Node8&#45;&gt;Node10</title>
<path fill="none" stroke="midnightblue" d="M506.488,-410.577C525.165,-414.091 544.979,-417.818 563.176,-421.241"/>
<polygon fill="midnightblue" stroke="midnightblue" points="507.019,-407.115 496.544,-408.706 505.724,-413.995 507.019,-407.115"/>
</g>
<!-- Node11 -->
<g id="node11" class="node"><title>Node11</title>
<g id="a_node11"><a xlink:href="../../da/d64/classview_1_1_workspace.html#a4abde41a3048fa8f64ddfec40c8ffdb7" target="_top" xlink:title="view.Workspace.addTurtle">
<polygon fill="white" stroke="black" points="773.5,-424.5 773.5,-443.5 910.5,-443.5 910.5,-424.5 773.5,-424.5"/>
<text text-anchor="middle" x="842" y="-431.5" font-family="Helvetica,sans-Serif" font-size="10.00">view.Workspace.addTurtle</text>
</a>
</g>
</g>
<!-- Node10&#45;&gt;Node11 -->
<g id="edge11" class="edge"><title>Node10&#45;&gt;Node11</title>
<path fill="none" stroke="midnightblue" d="M710.541,-434C731.208,-434 753.368,-434 773.452,-434"/>
<polygon fill="midnightblue" stroke="midnightblue" points="710.532,-430.5 700.532,-434 710.532,-437.5 710.532,-430.5"/>
</g>
<!-- Node11&#45;&gt;Node9 -->
<g id="edge21" class="edge"><title>Node11&#45;&gt;Node9</title>
<path fill="none" stroke="midnightblue" d="M894.957,-422.216C926.274,-415.113 965.643,-406.184 994.987,-399.529"/>
<polygon fill="midnightblue" stroke="midnightblue" points="894.073,-418.827 885.095,-424.453 895.622,-425.654 894.073,-418.827"/>
</g>
<!-- Node12 -->
<g id="node12" class="node"><title>Node12</title>
<g id="a_node12"><a xlink:href="../../d6/de7/classview_1_1_s_logo_view.html#acf432f20e1a7dda7bef97f0619fb0fa5" target="_top" xlink:title="view.SLogoView.configure\lAddTurtlesButton">
<polygon fill="white" stroke="black" points="969.5,-419 969.5,-449 1106.5,-449 1106.5,-419 969.5,-419"/>
<text text-anchor="start" x="977.5" y="-437" font-family="Helvetica,sans-Serif" font-size="10.00">view.SLogoView.configure</text>
<text text-anchor="middle" x="1038" y="-426" font-family="Helvetica,sans-Serif" font-size="10.00">AddTurtlesButton</text>
</a>
</g>
</g>
<!-- Node11&#45;&gt;Node12 -->
<g id="edge12" class="edge"><title>Node11&#45;&gt;Node12</title>
<path fill="none" stroke="midnightblue" d="M920.979,-434C936.99,-434 953.722,-434 969.334,-434"/>
<polygon fill="midnightblue" stroke="midnightblue" points="920.579,-430.5 910.579,-434 920.579,-437.5 920.579,-430.5"/>
</g>
<!-- Node13 -->
<g id="node13" class="node"><title>Node13</title>
<g id="a_node13"><a xlink:href="../../d6/de7/classview_1_1_s_logo_view.html#ae0050481c9168dd8eeb434d9aa79b047" target="_top" xlink:title="view.SLogoView.configureUI">
<polygon fill="white" stroke="black" points="1154.5,-424.5 1154.5,-443.5 1301.5,-443.5 1301.5,-424.5 1154.5,-424.5"/>
<text text-anchor="middle" x="1228" y="-431.5" font-family="Helvetica,sans-Serif" font-size="10.00">view.SLogoView.configureUI</text>
</a>
</g>
</g>
<!-- Node12&#45;&gt;Node13 -->
<g id="edge13" class="edge"><title>Node12&#45;&gt;Node13</title>
<path fill="none" stroke="midnightblue" d="M1116.89,-434C1129.27,-434 1142.02,-434 1154.27,-434"/>
<polygon fill="midnightblue" stroke="midnightblue" points="1116.61,-430.5 1106.61,-434 1116.61,-437.5 1116.61,-430.5"/>
</g>
<!-- Node14 -->
<g id="node14" class="node"><title>Node14</title>
<g id="a_node14"><a xlink:href="../../d1/d75/classview_1_1_main_view.html#ade3718ede33fa2086649c8b3cf75d2f9" target="_top" xlink:title="view.MainView.initTabs">
<polygon fill="white" stroke="black" points="1519.5,-443.5 1519.5,-462.5 1640.5,-462.5 1640.5,-443.5 1519.5,-443.5"/>
<text text-anchor="middle" x="1580" y="-450.5" font-family="Helvetica,sans-Serif" font-size="10.00">view.MainView.initTabs</text>
</a>
</g>
</g>
<!-- Node13&#45;&gt;Node14 -->
<g id="edge14" class="edge"><title>Node13&#45;&gt;Node14</title>
<path fill="none" stroke="midnightblue" d="M1311.56,-438.482C1375.37,-441.946 1462.18,-446.658 1519.36,-449.762"/>
<polygon fill="midnightblue" stroke="midnightblue" points="1311.7,-434.984 1301.52,-437.937 1311.32,-441.974 1311.7,-434.984"/>
</g>
<!-- Node16 -->
<g id="node16" class="node"><title>Node16</title>
<g id="a_node16"><a xlink:href="../../d1/d75/classview_1_1_main_view.html#a39a2b399924a553ccd89dd2a2e6ea208" target="_top" xlink:title="view.MainView.newTab">
<polygon fill="white" stroke="black" points="1338,-405.5 1338,-424.5 1458,-424.5 1458,-405.5 1338,-405.5"/>
<text text-anchor="middle" x="1398" y="-412.5" font-family="Helvetica,sans-Serif" font-size="10.00">view.MainView.newTab</text>
</a>
</g>
</g>
<!-- Node13&#45;&gt;Node16 -->
<g id="edge16" class="edge"><title>Node13&#45;&gt;Node16</title>
<path fill="none" stroke="midnightblue" d="M1311.65,-424.652C1320.49,-423.653 1329.34,-422.652 1337.82,-421.693"/>
<polygon fill="midnightblue" stroke="midnightblue" points="1311.25,-421.175 1301.71,-425.777 1312.04,-428.131 1311.25,-421.175"/>
</g>
<!-- Node15 -->
<g id="node15" class="node"><title>Node15</title>
<g id="a_node15"><a xlink:href="../../d1/d75/classview_1_1_main_view.html#a9e27015c007bed90f32c79fc1187083f" target="_top" xlink:title="view.MainView.MainView">
<polygon fill="white" stroke="black" points="2120,-424.5 2120,-443.5 2250,-443.5 2250,-424.5 2120,-424.5"/>
<text text-anchor="middle" x="2185" y="-431.5" font-family="Helvetica,sans-Serif" font-size="10.00">view.MainView.MainView</text>
</a>
</g>
</g>
<!-- Node14&#45;&gt;Node15 -->
<g id="edge15" class="edge"><title>Node14&#45;&gt;Node15</title>
<path fill="none" stroke="midnightblue" d="M1650.74,-450.803C1768.6,-447.089 2005.48,-439.625 2119.62,-436.029"/>
<polygon fill="midnightblue" stroke="midnightblue" points="1650.63,-447.304 1640.75,-451.117 1650.85,-454.301 1650.63,-447.304"/>
</g>
<!-- Node17 -->
<g id="node17" class="node"><title>Node17</title>
<g id="a_node17"><a xlink:href="../../d1/d75/classview_1_1_main_view.html#a0424800b5057be73f94e16ef2e1e2b33" target="_top" xlink:title="view.MainView.configureFileMenu">
<polygon fill="white" stroke="black" points="1494.5,-405.5 1494.5,-424.5 1665.5,-424.5 1665.5,-405.5 1494.5,-405.5"/>
<text text-anchor="middle" x="1580" y="-412.5" font-family="Helvetica,sans-Serif" font-size="10.00">view.MainView.configureFileMenu</text>
</a>
</g>
</g>
<!-- Node16&#45;&gt;Node17 -->
<g id="edge17" class="edge"><title>Node16&#45;&gt;Node17</title>
<path fill="none" stroke="midnightblue" d="M1468.55,-415C1476.96,-415 1485.62,-415 1494.22,-415"/>
<polygon fill="midnightblue" stroke="midnightblue" points="1468.44,-411.5 1458.44,-415 1468.44,-418.5 1468.44,-411.5"/>
</g>
<!-- Node18 -->
<g id="node18" class="node"><title>Node18</title>
<g id="a_node18"><a xlink:href="../../d1/d75/classview_1_1_main_view.html#a200c2c8e08e038e2ea86acc40c17d8d2" target="_top" xlink:title="view.MainView.configureTopMenu">
<polygon fill="white" stroke="black" points="1702,-405.5 1702,-424.5 1874,-424.5 1874,-405.5 1702,-405.5"/>
<text text-anchor="middle" x="1788" y="-412.5" font-family="Helvetica,sans-Serif" font-size="10.00">view.MainView.configureTopMenu</text>
</a>
</g>
</g>
<!-- Node17&#45;&gt;Node18 -->
<g id="edge18" class="edge"><title>Node17&#45;&gt;Node18</title>
<path fill="none" stroke="midnightblue" d="M1675.86,-415C1684.57,-415 1693.36,-415 1701.98,-415"/>
<polygon fill="midnightblue" stroke="midnightblue" points="1675.68,-411.5 1665.68,-415 1675.68,-418.5 1675.68,-411.5"/>
</g>
<!-- Node19 -->
<g id="node19" class="node"><title>Node19</title>
<g id="a_node19"><a xlink:href="../../d1/d75/classview_1_1_main_view.html#aff9e267e9368512a16e425f08d7b3ea0" target="_top" xlink:title="view.MainView.initRowConstraints">
<polygon fill="white" stroke="black" points="1910.5,-405.5 1910.5,-424.5 2083.5,-424.5 2083.5,-405.5 1910.5,-405.5"/>
<text text-anchor="middle" x="1997" y="-412.5" font-family="Helvetica,sans-Serif" font-size="10.00">view.MainView.initRowConstraints</text>
</a>
</g>
</g>
<!-- Node18&#45;&gt;Node19 -->
<g id="edge19" class="edge"><title>Node18&#45;&gt;Node19</title>
<path fill="none" stroke="midnightblue" d="M1884.22,-415C1892.9,-415 1901.65,-415 1910.24,-415"/>
<polygon fill="midnightblue" stroke="midnightblue" points="1884.09,-411.5 1874.09,-415 1884.09,-418.5 1884.09,-411.5"/>
</g>
<!-- Node19&#45;&gt;Node15 -->
<g id="edge20" class="edge"><title>Node19&#45;&gt;Node15</title>
<path fill="none" stroke="midnightblue" d="M2093.68,-424.774C2102.57,-425.682 2111.43,-426.587 2119.92,-427.455"/>
<polygon fill="midnightblue" stroke="midnightblue" points="2093.95,-421.284 2083.65,-423.749 2093.24,-428.247 2093.95,-421.284"/>
</g>
<!-- Node21 -->
<g id="node21" class="node"><title>Node21</title>
<g id="a_node21"><a xlink:href="../../d4/d64/classview_1_1_view_updater.html#ad29dfbb2499161b985c26e01f73ea5ac" target="_top" xlink:title="view.ViewUpdater.towards">
<polygon fill="white" stroke="black" points="772,-143.5 772,-162.5 912,-162.5 912,-143.5 772,-143.5"/>
<text text-anchor="middle" x="842" y="-150.5" font-family="Helvetica,sans-Serif" font-size="10.00">view.ViewUpdater.towards</text>
</a>
</g>
</g>
<!-- Node20&#45;&gt;Node21 -->
<g id="edge23" class="edge"><title>Node20&#45;&gt;Node21</title>
<path fill="none" stroke="midnightblue" d="M721.207,-147.241C738.152,-148.055 755.669,-148.898 771.903,-149.678"/>
<polygon fill="midnightblue" stroke="midnightblue" points="720.904,-143.722 710.747,-146.738 720.568,-150.714 720.904,-143.722"/>
</g>
<!-- Node21&#45;&gt;Node4 -->
<g id="edge24" class="edge"><title>Node21&#45;&gt;Node4</title>
<path fill="none" stroke="midnightblue" d="M874.858,-166.466C909.632,-181.164 965.174,-204.641 1001.37,-219.94"/>
<polygon fill="midnightblue" stroke="midnightblue" points="876.208,-163.236 865.634,-162.567 873.482,-169.684 876.208,-163.236"/>
</g>
<!-- Node23 -->
<g id="node23" class="node"><title>Node23</title>
<g id="a_node23"><a xlink:href="../../d6/de7/classview_1_1_s_logo_view.html#afa2b659c4d080b5f927978b453633ab2" target="_top" xlink:title="view.SLogoView.towards">
<polygon fill="white" stroke="black" points="566.5,-228.5 566.5,-247.5 697.5,-247.5 697.5,-228.5 566.5,-228.5"/>
<text text-anchor="middle" x="632" y="-235.5" font-family="Helvetica,sans-Serif" font-size="10.00">view.SLogoView.towards</text>
</a>
</g>
</g>
<!-- Node22&#45;&gt;Node23 -->
<g id="edge26" class="edge"><title>Node22&#45;&gt;Node23</title>
<path fill="none" stroke="midnightblue" d="M512.42,-238C530.438,-238 549.226,-238 566.395,-238"/>
<polygon fill="midnightblue" stroke="midnightblue" points="512.212,-234.5 502.212,-238 512.212,-241.5 512.212,-234.5"/>
</g>
<!-- Node24&#45;&gt;Node4 -->
<g id="edge28" class="edge"><title>Node24&#45;&gt;Node4</title>
<path fill="none" stroke="midnightblue" d="M716.892,-81.9341C776.655,-88.1579 857.491,-102.223 922,-134 965.383,-155.37 1005.21,-197.403 1024.6,-219.918"/>
<polygon fill="midnightblue" stroke="midnightblue" points="717.034,-78.4312 706.739,-80.9307 716.346,-85.3973 717.034,-78.4312"/>
</g>
<!-- Node26&#45;&gt;Node4 -->
<g id="edge31" class="edge"><title>Node26&#45;&gt;Node4</title>
<path fill="none" stroke="midnightblue" d="M902.277,-338.26C909.093,-335.919 915.81,-333.184 922,-330 962.99,-308.913 1002.58,-271.222 1022.89,-250.211"/>
<polygon fill="midnightblue" stroke="midnightblue" points="900.755,-335.07 892.27,-341.414 902.859,-341.746 900.755,-335.07"/>
</g>
<!-- Node28&#45;&gt;Node4 -->
<g id="edge34" class="edge"><title>Node28&#45;&gt;Node4</title>
<path fill="none" stroke="midnightblue" d="M718.28,-207.388C789.155,-213.528 889.212,-222.197 958.221,-228.175"/>
<polygon fill="midnightblue" stroke="midnightblue" points="718.307,-203.877 708.042,-206.501 717.703,-210.851 718.307,-203.877"/>
</g>
</g>
</svg>
