<?xml version="1.0" encoding="UTF-8" standalone="no"?>
<!DOCTYPE svg PUBLIC "-//W3C//DTD SVG 1.1//EN"
 "http://www.w3.org/Graphics/SVG/1.1/DTD/svg11.dtd">
<!-- Generated by graphviz version 2.36.0 (20140111.2315)
 -->
<!-- Title: view.TurtleView.getID Pages: 1 -->
<!--zoomable 436 -->
<svg id="main" version="1.1" xmlns="http://www.w3.org/2000/svg" xmlns:xlink="http://www.w3.org/1999/xlink" xml:space="preserve" onload="init(evt)">
<style type="text/css"><![CDATA[
.edge:hover path { stroke: red; }
.edge:hover polygon { stroke: red; fill: red; }
]]></style>
<script type="text/javascript"><![CDATA[
var edges = document.getElementsByTagName('g');
if (edges && edges.length) {
  for (var i=0;i<edges.length;i++) {
    if (edges[i].id.substr(0,4)=='edge') {
      edges[i].setAttribute('class','edge');
    }
  }
}
]]></script>
        <defs>
                <circle id="rim" cx="0" cy="0" r="7"/>
                <circle id="rim2" cx="0" cy="0" r="3.5"/>
                <g id="zoomPlus">
                        <use xlink:href="#rim" fill="#404040">
                                <set attributeName="fill" to="#808080" begin="zoomplus.mouseover" end="zoomplus.mouseout"/>
                        </use>
                        <path d="M-4,0h8M0,-4v8" fill="none" stroke="white" stroke-width="1.5" pointer-events="none"/>
                </g>
                <g id="zoomMin">
                        <use xlink:href="#rim" fill="#404040">
                                <set attributeName="fill" to="#808080" begin="zoomminus.mouseover" end="zoomminus.mouseout"/>
                        </use>
                        <path d="M-4,0h8" fill="none" stroke="white" stroke-width="1.5" pointer-events="none"/>
                </g>
                <g id="dirArrow">
                        <path fill="none" stroke="white" stroke-width="1.5" d="M0,-3.0v7 M-2.5,-0.5L0,-3.0L2.5,-0.5"/>
                </g>
               <g id="resetDef">
                       <use xlink:href="#rim2" fill="#404040">
                               <set attributeName="fill" to="#808080" begin="reset.mouseover" end="reset.mouseout"/>
                       </use>
               </g>
        </defs>

<script type="text/javascript">
var viewWidth = 2436;
var viewHeight = 436;
var sectionId = 'dynsection-7';
</script>
<script xlink:href="../../svgpan.js"/>
<svg id="graph" class="graph">
<g id="viewport">
<title>view.TurtleView.getID</title>
<polygon fill="white" stroke="none" points="-4,4 -4,-431.706 2432,-431.706 2432,4 -4,4"/>
<!-- Node1 -->
<g id="node1" class="node"><title>Node1</title>
<polygon fill="#bfbfbf" stroke="black" points="0,-357.206 0,-376.206 114,-376.206 114,-357.206 0,-357.206"/>
<text text-anchor="middle" x="57" y="-364.206" font-family="Helvetica,sans-Serif" font-size="10.00">view.TurtleView.getID</text>
</g>
<!-- Node2 -->
<g id="node2" class="node"><title>Node2</title>
<g id="a_node2"><a xlink:href="../../da/d64/classview_1_1_workspace.html#a9eea72f983d5e7ad5af85056d927e380" target="_top" xlink:title="view.Workspace.configure\lTurtleEventHandler">
<polygon fill="white" stroke="black" points="741.5,-383.706 741.5,-413.706 878.5,-413.706 878.5,-383.706 741.5,-383.706"/>
<text text-anchor="start" x="749.5" y="-401.706" font-family="Helvetica,sans-Serif" font-size="10.00">view.Workspace.configure</text>
<text text-anchor="middle" x="810" y="-390.706" font-family="Helvetica,sans-Serif" font-size="10.00">TurtleEventHandler</text>
</a>
</g>
</g>
<!-- Node1&#45;&gt;Node2 -->
<g id="edge1" class="edge"><title>Node1&#45;&gt;Node2</title>
<path fill="none" stroke="midnightblue" d="M118.802,-377.959C230.101,-397.162 474.092,-432.788 680,-417.706 699.981,-416.243 721.563,-413.52 741.253,-410.584"/>
<polygon fill="midnightblue" stroke="midnightblue" points="119.224,-374.48 108.771,-376.211 118.022,-381.376 119.224,-374.48"/>
</g>
<!-- Node13 -->
<g id="node13" class="node"><title>Node13</title>
<g id="a_node13"><a xlink:href="../../d9/d3a/classview_1_1_turtle_properties_view.html#af07bce3cf2bed2814a0fb3812d00b69e" target="_top" xlink:title="view.TurtlePropertiesView.update">
<polygon fill="white" stroke="black" points="150.5,-288.206 150.5,-307.206 321.5,-307.206 321.5,-288.206 150.5,-288.206"/>
<text text-anchor="middle" x="236" y="-295.206" font-family="Helvetica,sans-Serif" font-size="10.00">view.TurtlePropertiesView.update</text>
</a>
</g>
</g>
<!-- Node1&#45;&gt;Node13 -->
<g id="edge13" class="edge"><title>Node1&#45;&gt;Node13</title>
<path fill="none" stroke="midnightblue" d="M92.3322,-353.322C127.076,-339.778 179.92,-319.178 210.598,-307.219"/>
<polygon fill="midnightblue" stroke="midnightblue" points="90.6569,-350.219 82.6111,-357.112 93.1994,-356.741 90.6569,-350.219"/>
</g>
<!-- Node3 -->
<g id="node3" class="node"><title>Node3</title>
<g id="a_node3"><a xlink:href="../../da/d64/classview_1_1_workspace.html#a4abde41a3048fa8f64ddfec40c8ffdb7" target="_top" xlink:title="view.Workspace.addTurtle">
<polygon fill="white" stroke="black" points="951.5,-389.206 951.5,-408.206 1088.5,-408.206 1088.5,-389.206 951.5,-389.206"/>
<text text-anchor="middle" x="1020" y="-396.206" font-family="Helvetica,sans-Serif" font-size="10.00">view.Workspace.addTurtle</text>
</a>
</g>
</g>
<!-- Node2&#45;&gt;Node3 -->
<g id="edge2" class="edge"><title>Node2&#45;&gt;Node3</title>
<path fill="none" stroke="midnightblue" d="M888.541,-398.706C909.208,-398.706 931.368,-398.706 951.452,-398.706"/>
<polygon fill="midnightblue" stroke="midnightblue" points="888.532,-395.206 878.532,-398.706 888.532,-402.206 888.532,-395.206"/>
</g>
<!-- Node4 -->
<g id="node4" class="node"><title>Node4</title>
<g id="a_node4"><a xlink:href="../../d6/de7/classview_1_1_s_logo_view.html#acf432f20e1a7dda7bef97f0619fb0fa5" target="_top" xlink:title="view.SLogoView.configure\lAddTurtlesButton">
<polygon fill="white" stroke="black" points="1147.5,-383.706 1147.5,-413.706 1284.5,-413.706 1284.5,-383.706 1147.5,-383.706"/>
<text text-anchor="start" x="1155.5" y="-401.706" font-family="Helvetica,sans-Serif" font-size="10.00">view.SLogoView.configure</text>
<text text-anchor="middle" x="1216" y="-390.706" font-family="Helvetica,sans-Serif" font-size="10.00">AddTurtlesButton</text>
</a>
</g>
</g>
<!-- Node3&#45;&gt;Node4 -->
<g id="edge3" class="edge"><title>Node3&#45;&gt;Node4</title>
<path fill="none" stroke="midnightblue" d="M1098.98,-398.706C1114.99,-398.706 1131.72,-398.706 1147.33,-398.706"/>
<polygon fill="midnightblue" stroke="midnightblue" points="1098.58,-395.206 1088.58,-398.706 1098.58,-402.206 1098.58,-395.206"/>
</g>
<!-- Node12 -->
<g id="node12" class="node"><title>Node12</title>
<g id="a_node12"><a xlink:href="../../da/d64/classview_1_1_workspace.html#abbd85b844575ebab6643ba4ddc5a1612" target="_top" xlink:title="view.Workspace.Workspace">
<polygon fill="white" stroke="black" points="1144,-345.206 1144,-364.206 1288,-364.206 1288,-345.206 1144,-345.206"/>
<text text-anchor="middle" x="1216" y="-352.206" font-family="Helvetica,sans-Serif" font-size="10.00">view.Workspace.Workspace</text>
</a>
</g>
</g>
<!-- Node3&#45;&gt;Node12 -->
<g id="edge12" class="edge"><title>Node3&#45;&gt;Node12</title>
<path fill="none" stroke="midnightblue" d="M1072.96,-386.922C1104.27,-379.819 1143.64,-370.89 1172.99,-364.235"/>
<polygon fill="midnightblue" stroke="midnightblue" points="1072.07,-383.533 1063.1,-389.159 1073.62,-390.36 1072.07,-383.533"/>
</g>
<!-- Node5 -->
<g id="node5" class="node"><title>Node5</title>
<g id="a_node5"><a xlink:href="../../d6/de7/classview_1_1_s_logo_view.html#ae0050481c9168dd8eeb434d9aa79b047" target="_top" xlink:title="view.SLogoView.configureUI">
<polygon fill="white" stroke="black" points="1332.5,-389.206 1332.5,-408.206 1479.5,-408.206 1479.5,-389.206 1332.5,-389.206"/>
<text text-anchor="middle" x="1406" y="-396.206" font-family="Helvetica,sans-Serif" font-size="10.00">view.SLogoView.configureUI</text>
</a>
</g>
</g>
<!-- Node4&#45;&gt;Node5 -->
<g id="edge4" class="edge"><title>Node4&#45;&gt;Node5</title>
<path fill="none" stroke="midnightblue" d="M1294.89,-398.706C1307.27,-398.706 1320.02,-398.706 1332.27,-398.706"/>
<polygon fill="midnightblue" stroke="midnightblue" points="1294.61,-395.206 1284.61,-398.706 1294.61,-402.206 1294.61,-395.206"/>
</g>
<!-- Node6 -->
<g id="node6" class="node"><title>Node6</title>
<g id="a_node6"><a xlink:href="../../d1/d75/classview_1_1_main_view.html#ade3718ede33fa2086649c8b3cf75d2f9" target="_top" xlink:title="view.MainView.initTabs">
<polygon fill="white" stroke="black" points="1697.5,-408.206 1697.5,-427.206 1818.5,-427.206 1818.5,-408.206 1697.5,-408.206"/>
<text text-anchor="middle" x="1758" y="-415.206" font-family="Helvetica,sans-Serif" font-size="10.00">view.MainView.initTabs</text>
</a>
</g>
</g>
<!-- Node5&#45;&gt;Node6 -->
<g id="edge5" class="edge"><title>Node5&#45;&gt;Node6</title>
<path fill="none" stroke="midnightblue" d="M1489.56,-403.188C1553.37,-406.652 1640.18,-411.364 1697.36,-414.469"/>
<polygon fill="midnightblue" stroke="midnightblue" points="1489.7,-399.69 1479.52,-402.643 1489.32,-406.68 1489.7,-399.69"/>
</g>
<!-- Node8 -->
<g id="node8" class="node"><title>Node8</title>
<g id="a_node8"><a xlink:href="../../d1/d75/classview_1_1_main_view.html#a39a2b399924a553ccd89dd2a2e6ea208" target="_top" xlink:title="view.MainView.newTab">
<polygon fill="white" stroke="black" points="1516,-370.206 1516,-389.206 1636,-389.206 1636,-370.206 1516,-370.206"/>
<text text-anchor="middle" x="1576" y="-377.206" font-family="Helvetica,sans-Serif" font-size="10.00">view.MainView.newTab</text>
</a>
</g>
</g>
<!-- Node5&#45;&gt;Node8 -->
<g id="edge7" class="edge"><title>Node5&#45;&gt;Node8</title>
<path fill="none" stroke="midnightblue" d="M1489.65,-389.358C1498.49,-388.359 1507.34,-387.358 1515.82,-386.399"/>
<polygon fill="midnightblue" stroke="midnightblue" points="1489.25,-385.881 1479.71,-390.483 1490.04,-392.837 1489.25,-385.881"/>
</g>
<!-- Node7 -->
<g id="node7" class="node"><title>Node7</title>
<g id="a_node7"><a xlink:href="../../d1/d75/classview_1_1_main_view.html#a9e27015c007bed90f32c79fc1187083f" target="_top" xlink:title="view.MainView.MainView">
<polygon fill="white" stroke="black" points="2298,-389.206 2298,-408.206 2428,-408.206 2428,-389.206 2298,-389.206"/>
<text text-anchor="middle" x="2363" y="-396.206" font-family="Helvetica,sans-Serif" font-size="10.00">view.MainView.MainView</text>
</a>
</g>
</g>
<!-- Node6&#45;&gt;Node7 -->
<g id="edge6" class="edge"><title>Node6&#45;&gt;Node7</title>
<path fill="none" stroke="midnightblue" d="M1828.74,-415.509C1946.6,-411.795 2183.48,-404.331 2297.62,-400.735"/>
<polygon fill="midnightblue" stroke="midnightblue" points="1828.63,-412.01 1818.75,-415.824 1828.85,-419.007 1828.63,-412.01"/>
</g>
<!-- Node9 -->
<g id="node9" class="node"><title>Node9</title>
<g id="a_node9"><a xlink:href="../../d1/d75/classview_1_1_main_view.html#a0424800b5057be73f94e16ef2e1e2b33" target="_top" xlink:title="view.MainView.configureFileMenu">
<polygon fill="white" stroke="black" points="1672.5,-370.206 1672.5,-389.206 1843.5,-389.206 1843.5,-370.206 1672.5,-370.206"/>
<text text-anchor="middle" x="1758" y="-377.206" font-family="Helvetica,sans-Serif" font-size="10.00">view.MainView.configureFileMenu</text>
</a>
</g>
</g>
<!-- Node8&#45;&gt;Node9 -->
<g id="edge8" class="edge"><title>Node8&#45;&gt;Node9</title>
<path fill="none" stroke="midnightblue" d="M1646.55,-379.706C1654.96,-379.706 1663.62,-379.706 1672.22,-379.706"/>
<polygon fill="midnightblue" stroke="midnightblue" points="1646.44,-376.206 1636.44,-379.706 1646.44,-383.206 1646.44,-376.206"/>
</g>
<!-- Node10 -->
<g id="node10" class="node"><title>Node10</title>
<g id="a_node10"><a xlink:href="../../d1/d75/classview_1_1_main_view.html#a200c2c8e08e038e2ea86acc40c17d8d2" target="_top" xlink:title="view.MainView.configureTopMenu">
<polygon fill="white" stroke="black" points="1880,-370.206 1880,-389.206 2052,-389.206 2052,-370.206 1880,-370.206"/>
<text text-anchor="middle" x="1966" y="-377.206" font-family="Helvetica,sans-Serif" font-size="10.00">view.MainView.configureTopMenu</text>
</a>
</g>
</g>
<!-- Node9&#45;&gt;Node10 -->
<g id="edge9" class="edge"><title>Node9&#45;&gt;Node10</title>
<path fill="none" stroke="midnightblue" d="M1853.86,-379.706C1862.57,-379.706 1871.36,-379.706 1879.98,-379.706"/>
<polygon fill="midnightblue" stroke="midnightblue" points="1853.68,-376.206 1843.68,-379.706 1853.68,-383.206 1853.68,-376.206"/>
</g>
<!-- Node11 -->
<g id="node11" class="node"><title>Node11</title>
<g id="a_node11"><a xlink:href="../../d1/d75/classview_1_1_main_view.html#aff9e267e9368512a16e425f08d7b3ea0" target="_top" xlink:title="view.MainView.initRowConstraints">
<polygon fill="white" stroke="black" points="2088.5,-370.206 2088.5,-389.206 2261.5,-389.206 2261.5,-370.206 2088.5,-370.206"/>
<text text-anchor="middle" x="2175" y="-377.206" font-family="Helvetica,sans-Serif" font-size="10.00">view.MainView.initRowConstraints</text>
</a>
</g>
</g>
<!-- Node10&#45;&gt;Node11 -->
<g id="edge10" class="edge"><title>Node10&#45;&gt;Node11</title>
<path fill="none" stroke="midnightblue" d="M2062.22,-379.706C2070.9,-379.706 2079.65,-379.706 2088.24,-379.706"/>
<polygon fill="midnightblue" stroke="midnightblue" points="2062.09,-376.206 2052.09,-379.706 2062.09,-383.206 2062.09,-376.206"/>
</g>
<!-- Node11&#45;&gt;Node7 -->
<g id="edge11" class="edge"><title>Node11&#45;&gt;Node7</title>
<path fill="none" stroke="midnightblue" d="M2271.68,-389.48C2280.57,-390.388 2289.43,-391.293 2297.92,-392.161"/>
<polygon fill="midnightblue" stroke="midnightblue" points="2271.95,-385.99 2261.65,-388.455 2271.24,-392.954 2271.95,-385.99"/>
</g>
<!-- Node14 -->
<g id="node14" class="node"><title>Node14</title>
<g id="a_node14"><a xlink:href="../../d1/dc7/classview_1_1_side_bar.html#a7d73038dbba05f96990b60664afa2670" target="_top" xlink:title="view.SideBar.updateTurtle\lProperties">
<polygon fill="white" stroke="black" points="358,-200.706 358,-230.706 496,-230.706 496,-200.706 358,-200.706"/>
<text text-anchor="start" x="366" y="-218.706" font-family="Helvetica,sans-Serif" font-size="10.00">view.SideBar.updateTurtle</text>
<text text-anchor="middle" x="427" y="-207.706" font-family="Helvetica,sans-Serif" font-size="10.00">Properties</text>
</a>
</g>
</g>
<!-- Node13&#45;&gt;Node14 -->
<g id="edge14" class="edge"><title>Node13&#45;&gt;Node14</title>
<path fill="none" stroke="midnightblue" d="M268.472,-284.051C302.377,-269.341 356.176,-246 391.288,-230.766"/>
<polygon fill="midnightblue" stroke="midnightblue" points="266.831,-280.948 259.051,-288.139 269.617,-287.37 266.831,-280.948"/>
</g>
<!-- Node15 -->
<g id="node15" class="node"><title>Node15</title>
<g id="a_node15"><a xlink:href="../../d4/d64/classview_1_1_view_updater.html#ace7ce28317856b4b454a798d1af23b38" target="_top" xlink:title="view.ViewUpdater.clearScreen">
<polygon fill="white" stroke="black" points="940.5,-250.206 940.5,-269.206 1099.5,-269.206 1099.5,-250.206 940.5,-250.206"/>
<text text-anchor="middle" x="1020" y="-257.206" font-family="Helvetica,sans-Serif" font-size="10.00">view.ViewUpdater.clearScreen</text>
</a>
</g>
</g>
<!-- Node14&#45;&gt;Node15 -->
<g id="edge15" class="edge"><title>Node14&#45;&gt;Node15</title>
<path fill="none" stroke="midnightblue" d="M469.821,-234.654C488.449,-242.127 510.907,-249.839 532,-253.706 674.011,-279.741 843.237,-273.715 940.197,-266.815"/>
<polygon fill="midnightblue" stroke="midnightblue" points="471.035,-231.369 460.456,-230.79 468.365,-237.84 471.035,-231.369"/>
</g>
<!-- Node17 -->
<g id="node17" class="node"><title>Node17</title>
<g id="a_node17"><a xlink:href="../../de/d0a/classview_1_1_drawer.html#a6b9f362b8bc763689630b1fe7b5c1887" target="_top" xlink:title="view.Drawer.draw">
<polygon fill="white" stroke="black" points="557,-225.206 557,-244.206 655,-244.206 655,-225.206 557,-225.206"/>
<text text-anchor="middle" x="606" y="-232.206" font-family="Helvetica,sans-Serif" font-size="10.00">view.Drawer.draw</text>
</a>
</g>
</g>
<!-- Node14&#45;&gt;Node17 -->
<g id="edge17" class="edge"><title>Node14&#45;&gt;Node17</title>
<path fill="none" stroke="midnightblue" d="M506.251,-224.106C523.493,-225.957 541.261,-227.864 556.89,-229.542"/>
<polygon fill="midnightblue" stroke="midnightblue" points="506.496,-220.612 496.18,-223.025 505.749,-227.572 506.496,-220.612"/>
</g>
<!-- Node20 -->
<g id="node20" class="node"><title>Node20</title>
<g id="a_node20"><a xlink:href="../../da/d64/classview_1_1_workspace.html#a16bda9a6a7fe7f8d3d7b09108675f9c4" target="_top" xlink:title="view.Workspace.setActive\lTurtle">
<polygon fill="white" stroke="black" points="537.5,-339.706 537.5,-369.706 674.5,-369.706 674.5,-339.706 537.5,-339.706"/>
<text text-anchor="start" x="545.5" y="-357.706" font-family="Helvetica,sans-Serif" font-size="10.00">view.Workspace.setActive</text>
<text text-anchor="middle" x="606" y="-346.706" font-family="Helvetica,sans-Serif" font-size="10.00">Turtle</text>
</a>
</g>
</g>
<!-- Node14&#45;&gt;Node20 -->
<g id="edge21" class="edge"><title>Node14&#45;&gt;Node20</title>
<path fill="none" stroke="midnightblue" d="M445.335,-238.974C464.339,-263.132 496.841,-300.684 532,-324.706 540.485,-330.504 550.264,-335.479 559.851,-339.616"/>
<polygon fill="midnightblue" stroke="midnightblue" points="448.079,-236.802 439.193,-231.032 442.542,-241.084 448.079,-236.802"/>
</g>
<!-- Node21 -->
<g id="node21" class="node"><title>Node21</title>
<g id="a_node21"><a xlink:href="../../d4/d64/classview_1_1_view_updater.html#ab8c47e1d6b8bc5c076184e3e0af5e4b2" target="_top" xlink:title="view.ViewUpdater.setHeading">
<polygon fill="white" stroke="black" points="731.5,-83.2061 731.5,-102.206 888.5,-102.206 888.5,-83.2061 731.5,-83.2061"/>
<text text-anchor="middle" x="810" y="-90.2061" font-family="Helvetica,sans-Serif" font-size="10.00">view.ViewUpdater.setHeading</text>
</a>
</g>
</g>
<!-- Node14&#45;&gt;Node21 -->
<g id="edge24" class="edge"><title>Node14&#45;&gt;Node21</title>
<path fill="none" stroke="midnightblue" d="M441.652,-191.676C458.764,-164.22 490.904,-120.646 532,-101.706 605.413,-67.8721 701.765,-74.5693 759.333,-83.1715"/>
<polygon fill="midnightblue" stroke="midnightblue" points="438.61,-189.942 436.433,-200.311 444.601,-193.563 438.61,-189.942"/>
</g>
<!-- Node23 -->
<g id="node23" class="node"><title>Node23</title>
<g id="a_node23"><a xlink:href="../../d6/de7/classview_1_1_s_logo_view.html#ae7ad67f4b629b134cb805842a20f4050" target="_top" xlink:title="view.SLogoView.setHeading">
<polygon fill="white" stroke="black" points="532,-187.206 532,-206.206 680,-206.206 680,-187.206 532,-187.206"/>
<text text-anchor="middle" x="606" y="-194.206" font-family="Helvetica,sans-Serif" font-size="10.00">view.SLogoView.setHeading</text>
</a>
</g>
</g>
<!-- Node14&#45;&gt;Node23 -->
<g id="edge27" class="edge"><title>Node14&#45;&gt;Node23</title>
<path fill="none" stroke="midnightblue" d="M506.139,-207.318C514.691,-206.4 523.373,-205.468 531.862,-204.557"/>
<polygon fill="midnightblue" stroke="midnightblue" points="505.749,-203.84 496.18,-208.387 506.496,-210.8 505.749,-203.84"/>
</g>
<!-- Node25 -->
<g id="node25" class="node"><title>Node25</title>
<g id="a_node25"><a xlink:href="../../d4/d64/classview_1_1_view_updater.html#ad79c00c54aabbeca7b8a0461fea36c29" target="_top" xlink:title="view.ViewUpdater.setPenUp">
<polygon fill="white" stroke="black" points="735.5,-26.2061 735.5,-45.2061 884.5,-45.2061 884.5,-26.2061 735.5,-26.2061"/>
<text text-anchor="middle" x="810" y="-33.2061" font-family="Helvetica,sans-Serif" font-size="10.00">view.ViewUpdater.setPenUp</text>
</a>
</g>
</g>
<!-- Node14&#45;&gt;Node25 -->
<g id="edge29" class="edge"><title>Node14&#45;&gt;Node25</title>
<path fill="none" stroke="midnightblue" d="M433.156,-190.597C443.449,-147.799 471.013,-61.8495 532,-25.7061 612.726,22.135 731.191,-8.709 783.063,-26.1244"/>
<polygon fill="midnightblue" stroke="midnightblue" points="429.711,-189.964 430.901,-200.492 436.536,-191.519 429.711,-189.964"/>
</g>
<!-- Node26 -->
<g id="node26" class="node"><title>Node26</title>
<g id="a_node26"><a xlink:href="../../d6/de7/classview_1_1_s_logo_view.html#a978a65a0b82bac25044f7e2816a680cc" target="_top" xlink:title="view.SLogoView.setPenUp">
<polygon fill="white" stroke="black" points="536,-111.206 536,-130.206 676,-130.206 676,-111.206 536,-111.206"/>
<text text-anchor="middle" x="606" y="-118.206" font-family="Helvetica,sans-Serif" font-size="10.00">view.SLogoView.setPenUp</text>
</a>
</g>
</g>
<!-- Node14&#45;&gt;Node26 -->
<g id="edge31" class="edge"><title>Node14&#45;&gt;Node26</title>
<path fill="none" stroke="midnightblue" d="M454.673,-194.381C474.952,-178.963 504.037,-158.502 532,-144.706 543.725,-138.921 557.171,-134.049 569.302,-130.237"/>
<polygon fill="midnightblue" stroke="midnightblue" points="452.332,-191.767 446.551,-200.646 456.607,-197.31 452.332,-191.767"/>
</g>
<!-- Node27 -->
<g id="node27" class="node"><title>Node27</title>
<g id="a_node27"><a xlink:href="../../d4/d64/classview_1_1_view_updater.html#a497cc83cdcb6fdb430bdb78431c5cd20" target="_top" xlink:title="view.ViewUpdater.setXY">
<polygon fill="white" stroke="black" points="956,-295.206 956,-314.206 1084,-314.206 1084,-295.206 956,-295.206"/>
<text text-anchor="middle" x="1020" y="-302.206" font-family="Helvetica,sans-Serif" font-size="10.00">view.ViewUpdater.setXY</text>
</a>
</g>
</g>
<!-- Node14&#45;&gt;Node27 -->
<g id="edge32" class="edge"><title>Node14&#45;&gt;Node27</title>
<path fill="none" stroke="midnightblue" d="M455.701,-236.888C475.732,-250.924 504.077,-268.253 532,-276.706 678.711,-321.118 861.411,-316.726 955.87,-310.34"/>
<polygon fill="midnightblue" stroke="midnightblue" points="457.547,-233.905 447.383,-230.913 453.463,-239.59 457.547,-233.905"/>
</g>
<!-- Node28 -->
<g id="node28" class="node"><title>Node28</title>
<g id="a_node28"><a xlink:href="../../d6/de7/classview_1_1_s_logo_view.html#a0948ea67bfc088f941e2af79727231ad" target="_top" xlink:title="view.SLogoView.setXY">
<polygon fill="white" stroke="black" points="546.5,-35.2061 546.5,-54.2061 665.5,-54.2061 665.5,-35.2061 546.5,-35.2061"/>
<text text-anchor="middle" x="606" y="-42.2061" font-family="Helvetica,sans-Serif" font-size="10.00">view.SLogoView.setXY</text>
</a>
</g>
</g>
<!-- Node14&#45;&gt;Node28 -->
<g id="edge34" class="edge"><title>Node14&#45;&gt;Node28</title>
<path fill="none" stroke="midnightblue" d="M439.208,-191.087C455.256,-158.5 487.795,-101.368 532,-68.7061 540.476,-62.4429 550.673,-57.7598 560.721,-54.2779"/>
<polygon fill="midnightblue" stroke="midnightblue" points="435.93,-189.827 434.762,-200.358 442.242,-192.854 435.93,-189.827"/>
</g>
<!-- Node29 -->
<g id="node29" class="node"><title>Node29</title>
<g id="a_node29"><a xlink:href="../../d4/d64/classview_1_1_view_updater.html#a9797c2f411ad272a0feb84c26836bfd4" target="_top" xlink:title="view.ViewUpdater.showTurtle">
<polygon fill="white" stroke="black" points="734,-149.206 734,-168.206 886,-168.206 886,-149.206 734,-149.206"/>
<text text-anchor="middle" x="810" y="-156.206" font-family="Helvetica,sans-Serif" font-size="10.00">view.ViewUpdater.showTurtle</text>
</a>
</g>
</g>
<!-- Node14&#45;&gt;Node29 -->
<g id="edge35" class="edge"><title>Node14&#45;&gt;Node29</title>
<path fill="none" stroke="midnightblue" d="M471.473,-196.716C489.809,-189.528 511.599,-182.042 532,-177.706 599.307,-163.402 677.681,-159.143 733.85,-158.173"/>
<polygon fill="midnightblue" stroke="midnightblue" points="469.923,-193.566 461.949,-200.542 472.533,-200.062 469.923,-193.566"/>
</g>
<!-- Node30 -->
<g id="node30" class="node"><title>Node30</title>
<g id="a_node30"><a xlink:href="../../d6/de7/classview_1_1_s_logo_view.html#a00710838e28dcb10fe6da3c0ec0c4e20" target="_top" xlink:title="view.SLogoView.showTurtle">
<polygon fill="white" stroke="black" points="534.5,-389.206 534.5,-408.206 677.5,-408.206 677.5,-389.206 534.5,-389.206"/>
<text text-anchor="middle" x="606" y="-396.206" font-family="Helvetica,sans-Serif" font-size="10.00">view.SLogoView.showTurtle</text>
</a>
</g>
</g>
<!-- Node14&#45;&gt;Node30 -->
<g id="edge37" class="edge"><title>Node14&#45;&gt;Node30</title>
<path fill="none" stroke="midnightblue" d="M437.144,-240.669C451.63,-276.682 483.304,-342.816 532,-378.706 537.924,-383.072 544.749,-386.485 551.798,-389.153"/>
<polygon fill="midnightblue" stroke="midnightblue" points="440.247,-238.992 433.357,-230.943 433.724,-241.532 440.247,-238.992"/>
</g>
<!-- Node16 -->
<g id="node16" class="node"><title>Node16</title>
<g id="a_node16"><a xlink:href="../../d1/dd3/classmodel_1_1instructions_1_1_movement_instruction.html#a33e802cec8283d190a8daac6e485e3b4" target="_top" xlink:title="model.instructions.Movement\lInstruction.execute">
<polygon fill="white" stroke="black" points="1136.5,-172.706 1136.5,-202.706 1295.5,-202.706 1295.5,-172.706 1136.5,-172.706"/>
<text text-anchor="start" x="1144.5" y="-190.706" font-family="Helvetica,sans-Serif" font-size="10.00">model.instructions.Movement</text>
<text text-anchor="middle" x="1216" y="-179.706" font-family="Helvetica,sans-Serif" font-size="10.00">Instruction.execute</text>
</a>
</g>
</g>
<!-- Node15&#45;&gt;Node16 -->
<g id="edge16" class="edge"><title>Node15&#45;&gt;Node16</title>
<path fill="none" stroke="midnightblue" d="M1066.89,-247.352C1077.82,-244.132 1089.39,-240.495 1100,-236.706 1128.2,-226.632 1159.42,-213.181 1182.2,-202.92"/>
<polygon fill="midnightblue" stroke="midnightblue" points="1065.72,-244.048 1057.08,-250.183 1067.66,-250.774 1065.72,-244.048"/>
</g>
<!-- Node18 -->
<g id="node18" class="node"><title>Node18</title>
<g id="a_node18"><a xlink:href="../../d4/d64/classview_1_1_view_updater.html#adc0790ceed057768bd5a29a470e626d1" target="_top" xlink:title="view.ViewUpdater.updateWorkspace">
<polygon fill="white" stroke="black" points="716.5,-225.206 716.5,-244.206 903.5,-244.206 903.5,-225.206 716.5,-225.206"/>
<text text-anchor="middle" x="810" y="-232.206" font-family="Helvetica,sans-Serif" font-size="10.00">view.ViewUpdater.updateWorkspace</text>
</a>
</g>
</g>
<!-- Node17&#45;&gt;Node18 -->
<g id="edge18" class="edge"><title>Node17&#45;&gt;Node18</title>
<path fill="none" stroke="midnightblue" d="M665.362,-234.706C681.351,-234.706 699.088,-234.706 716.485,-234.706"/>
<polygon fill="midnightblue" stroke="midnightblue" points="665.127,-231.206 655.127,-234.706 665.127,-238.206 665.127,-231.206"/>
</g>
<!-- Node19 -->
<g id="node19" class="node"><title>Node19</title>
<g id="a_node19"><a xlink:href="../../d1/dd3/classmodel_1_1instructions_1_1_movement_instruction.html#a51c776093aeb820937b12e2b89eb2f89" target="_top" xlink:title="model.instructions.Movement\lInstruction.updateView">
<polygon fill="white" stroke="black" points="940.5,-197.706 940.5,-227.706 1099.5,-227.706 1099.5,-197.706 940.5,-197.706"/>
<text text-anchor="start" x="948.5" y="-215.706" font-family="Helvetica,sans-Serif" font-size="10.00">model.instructions.Movement</text>
<text text-anchor="middle" x="1020" y="-204.706" font-family="Helvetica,sans-Serif" font-size="10.00">Instruction.updateView</text>
</a>
</g>
</g>
<!-- Node18&#45;&gt;Node19 -->
<g id="edge19" class="edge"><title>Node18&#45;&gt;Node19</title>
<path fill="none" stroke="midnightblue" d="M911.173,-224.111C920.943,-223.078 930.758,-222.039 940.273,-221.033"/>
<polygon fill="midnightblue" stroke="midnightblue" points="910.598,-220.652 901.022,-225.185 911.335,-227.613 910.598,-220.652"/>
</g>
<!-- Node19&#45;&gt;Node16 -->
<g id="edge20" class="edge"><title>Node19&#45;&gt;Node16</title>
<path fill="none" stroke="midnightblue" d="M1109.61,-201.287C1118.5,-200.142 1127.48,-198.984 1136.26,-197.853"/>
<polygon fill="midnightblue" stroke="midnightblue" points="1109.1,-197.824 1099.63,-202.574 1109.99,-204.767 1109.1,-197.824"/>
</g>
<!-- Node20&#45;&gt;Node2 -->
<g id="edge23" class="edge"><title>Node20&#45;&gt;Node2</title>
<path fill="none" stroke="midnightblue" d="M684.488,-371.585C703.165,-375.653 722.979,-379.969 741.176,-383.932"/>
<polygon fill="midnightblue" stroke="midnightblue" points="685.06,-368.127 674.544,-369.419 683.57,-374.967 685.06,-368.127"/>
</g>
<!-- Node20&#45;&gt;Node12 -->
<g id="edge22" class="edge"><title>Node20&#45;&gt;Node12</title>
<path fill="none" stroke="midnightblue" d="M684.799,-354.706C803.66,-354.706 1028.74,-354.706 1143.63,-354.706"/>
<polygon fill="midnightblue" stroke="midnightblue" points="684.682,-351.206 674.682,-354.706 684.682,-358.206 684.682,-351.206"/>
</g>
<!-- Node22 -->
<g id="node22" class="node"><title>Node22</title>
<g id="a_node22"><a xlink:href="../../d4/d64/classview_1_1_view_updater.html#ad29dfbb2499161b985c26e01f73ea5ac" target="_top" xlink:title="view.ViewUpdater.towards">
<polygon fill="white" stroke="black" points="950,-94.2061 950,-113.206 1090,-113.206 1090,-94.2061 950,-94.2061"/>
<text text-anchor="middle" x="1020" y="-101.206" font-family="Helvetica,sans-Serif" font-size="10.00">view.ViewUpdater.towards</text>
</a>
</g>
</g>
<!-- Node21&#45;&gt;Node22 -->
<g id="edge25" class="edge"><title>Node21&#45;&gt;Node22</title>
<path fill="none" stroke="midnightblue" d="M899.207,-97.3709C916.152,-98.267 933.669,-99.1934 949.903,-100.052"/>
<polygon fill="midnightblue" stroke="midnightblue" points="898.918,-93.8508 888.747,-96.8177 898.548,-100.841 898.918,-93.8508"/>
</g>
<!-- Node22&#45;&gt;Node16 -->
<g id="edge26" class="edge"><title>Node22&#45;&gt;Node16</title>
<path fill="none" stroke="midnightblue" d="M1052.54,-117.361C1087.58,-132.535 1144,-156.963 1180.28,-172.672"/>
<polygon fill="midnightblue" stroke="midnightblue" points="1053.82,-114.104 1043.25,-113.342 1051.04,-120.527 1053.82,-114.104"/>
</g>
<!-- Node24 -->
<g id="node24" class="node"><title>Node24</title>
<g id="a_node24"><a xlink:href="../../d6/de7/classview_1_1_s_logo_view.html#afa2b659c4d080b5f927978b453633ab2" target="_top" xlink:title="view.SLogoView.towards">
<polygon fill="white" stroke="black" points="744.5,-187.206 744.5,-206.206 875.5,-206.206 875.5,-187.206 744.5,-187.206"/>
<text text-anchor="middle" x="810" y="-194.206" font-family="Helvetica,sans-Serif" font-size="10.00">view.SLogoView.towards</text>
</a>
</g>
</g>
<!-- Node23&#45;&gt;Node24 -->
<g id="edge28" class="edge"><title>Node23&#45;&gt;Node24</title>
<path fill="none" stroke="midnightblue" d="M690.42,-196.706C708.438,-196.706 727.226,-196.706 744.395,-196.706"/>
<polygon fill="midnightblue" stroke="midnightblue" points="690.212,-193.206 680.212,-196.706 690.212,-200.206 690.212,-193.206"/>
</g>
<!-- Node25&#45;&gt;Node16 -->
<g id="edge30" class="edge"><title>Node25&#45;&gt;Node16</title>
<path fill="none" stroke="midnightblue" d="M894.922,-37.6586C954.7,-41.9122 1035.54,-53.6334 1100,-84.7061 1144.18,-106.004 1183.96,-149.486 1203.06,-172.552"/>
<polygon fill="midnightblue" stroke="midnightblue" points="894.973,-34.1545 884.766,-36.993 894.515,-41.1396 894.973,-34.1545"/>
</g>
<!-- Node27&#45;&gt;Node16 -->
<g id="edge33" class="edge"><title>Node27&#45;&gt;Node16</title>
<path fill="none" stroke="midnightblue" d="M1068.68,-292.013C1079.29,-288.375 1090.27,-283.945 1100,-278.706 1139.23,-257.593 1178.57,-222.821 1199.53,-202.931"/>
<polygon fill="midnightblue" stroke="midnightblue" points="1067.52,-288.71 1059.09,-295.131 1069.68,-295.367 1067.52,-288.71"/>
</g>
<!-- Node29&#45;&gt;Node16 -->
<g id="edge36" class="edge"><title>Node29&#45;&gt;Node16</title>
<path fill="none" stroke="midnightblue" d="M896.28,-164.828C967.155,-169.915 1067.21,-177.098 1136.22,-182.051"/>
<polygon fill="midnightblue" stroke="midnightblue" points="896.267,-161.318 886.042,-164.093 895.766,-168.3 896.267,-161.318"/>
</g>
</g>
</svg>
        <g id="navigator" transform="translate(0 0)" fill="#404254">
                <rect fill="#f2f5e9" fill-opacity="0.5" stroke="#606060" stroke-width=".5" x="0" y="0" width="60" height="60"/>
                <use id="zoomplus" xlink:href="#zoomPlus" x="17" y="9" onmousedown="handleZoom(evt,'in')"/>
                <use id="zoomminus" xlink:href="#zoomMin" x="42" y="9" onmousedown="handleZoom(evt,'out')"/>
                <use id="reset" xlink:href="#resetDef" x="30" y="36" onmousedown="handleReset()"/>
                <g id="arrowUp" xlink:href="#dirArrow" transform="translate(30 24)" onmousedown="handlePan(0,-1)">
                  <use xlink:href="#rim" fill="#404040">
                        <set attributeName="fill" to="#808080" begin="arrowUp.mouseover" end="arrowUp.mouseout"/>
                  </use>
                  <path fill="none" stroke="white" stroke-width="1.5" d="M0,-3.0v7 M-2.5,-0.5L0,-3.0L2.5,-0.5"/>
                </g>
                <g id="arrowRight" xlink:href="#dirArrow" transform="rotate(90) translate(36 -43)" onmousedown="handlePan(1,0)">
                  <use xlink:href="#rim" fill="#404040">
                        <set attributeName="fill" to="#808080" begin="arrowRight.mouseover" end="arrowRight.mouseout"/>
                  </use>
                  <path fill="none" stroke="white" stroke-width="1.5" d="M0,-3.0v7 M-2.5,-0.5L0,-3.0L2.5,-0.5"/>
                </g>
                <g id="arrowDown" xlink:href="#dirArrow" transform="rotate(180) translate(-30 -48)" onmousedown="handlePan(0,1)">
                  <use xlink:href="#rim" fill="#404040">
                        <set attributeName="fill" to="#808080" begin="arrowDown.mouseover" end="arrowDown.mouseout"/>
                  </use>
                  <path fill="none" stroke="white" stroke-width="1.5" d="M0,-3.0v7 M-2.5,-0.5L0,-3.0L2.5,-0.5"/>
                </g>
                <g id="arrowLeft" xlink:href="#dirArrow" transform="rotate(270) translate(-36 17)" onmousedown="handlePan(-1,0)">
                  <use xlink:href="#rim" fill="#404040">
                        <set attributeName="fill" to="#808080" begin="arrowLeft.mouseover" end="arrowLeft.mouseout"/>
                  </use>
                  <path fill="none" stroke="white" stroke-width="1.5" d="M0,-3.0v7 M-2.5,-0.5L0,-3.0L2.5,-0.5"/>
                </g>
        </g>
        <svg viewBox="0 0 15 15" width="100%" height="30px" preserveAspectRatio="xMaxYMin meet">
         <g id="arrow_out" transform="scale(0.3 0.3)">
          <a xlink:href="classview_1_1_turtle_view_ab5fdc3775e06339f4a68d1b795a81643_icgraph_org.svg" target="_base">
           <rect id="button" ry="5" rx="5" y="6" x="6" height="38" width="38"
                fill="#f2f5e9" fill-opacity="0.5" stroke="#606060" stroke-width="1.0"/>
           <path id="arrow"
             d="M 11.500037,31.436501 C 11.940474,20.09759 22.043105,11.32322 32.158766,21.979434 L 37.068811,17.246167 C 37.068811,17.246167 37.088388,32 37.088388,32 L 22.160133,31.978069 C 22.160133,31.978069 26.997745,27.140456 26.997745,27.140456 C 18.528582,18.264221 13.291696,25.230495 11.500037,31.436501 z"
             style="fill:#404040;"/>
          </a>
         </g>
        </svg>
</svg>
