<?xml version="1.0" encoding="UTF-8" standalone="no"?>
<!DOCTYPE svg PUBLIC "-//W3C//DTD SVG 1.1//EN"
 "http://www.w3.org/Graphics/SVG/1.1/DTD/svg11.dtd">
<!-- Generated by graphviz version 2.36.0 (20140111.2315)
 -->
<!-- Title: view.TurtleView.createStamp Pages: 1 -->
<svg width="340pt" height="66pt"
 viewBox="0.00 0.00 340.00 66.00" xmlns="http://www.w3.org/2000/svg" xmlns:xlink="http://www.w3.org/1999/xlink">
<g id="graph0" class="graph" transform="scale(1 1) rotate(0) translate(4 62)">
<title>view.TurtleView.createStamp</title>
<polygon fill="white" stroke="none" points="-4,4 -4,-62 336,-62 336,4 -4,4"/>
<!-- Node1 -->
<g id="node1" class="node"><title>Node1</title>
<polygon fill="#bfbfbf" stroke="black" points="0,-19.5 0,-38.5 152,-38.5 152,-19.5 0,-19.5"/>
<text text-anchor="middle" x="76" y="-26.5" font-family="Helvetica,sans-Serif" font-size="10.00">view.TurtleView.createStamp</text>
</g>
<!-- Node2 -->
<g id="node2" class="node"><title>Node2</title>
<g id="a_node2"><a xlink:href="../../d8/df7/classview_1_1_turtle_view.html#a740c69205e98525bdb1cebba031c9f74" target="_top" xlink:title="view.TurtleView.getImageID">
<polygon fill="white" stroke="black" points="188,-38.5 188,-57.5 332,-57.5 332,-38.5 188,-38.5"/>
<text text-anchor="middle" x="260" y="-45.5" font-family="Helvetica,sans-Serif" font-size="10.00">view.TurtleView.getImageID</text>
</a>
</g>
</g>
<!-- Node1&#45;&gt;Node2 -->
<g id="edge1" class="edge"><title>Node1&#45;&gt;Node2</title>
<path fill="none" stroke="midnightblue" d="M152.077,-36.8377C160.593,-37.7267 169.301,-38.6358 177.89,-39.5324"/>
<polygon fill="midnightblue" stroke="midnightblue" points="177.59,-43.02 187.899,-40.5774 178.316,-36.0579 177.59,-43.02"/>
</g>
<!-- Node3 -->
<g id="node3" class="node"><title>Node3</title>
<g id="a_node3"><a xlink:href="../../d8/df7/classview_1_1_turtle_view.html#afddbc74313a99bb100c8c50efa88f330" target="_top" xlink:title="view.TurtleView.getYCoord">
<polygon fill="white" stroke="black" points="191.5,-0.5 191.5,-19.5 328.5,-19.5 328.5,-0.5 191.5,-0.5"/>
<text text-anchor="middle" x="260" y="-7.5" font-family="Helvetica,sans-Serif" font-size="10.00">view.TurtleView.getYCoord</text>
</a>
</g>
</g>
<!-- Node1&#45;&gt;Node3 -->
<g id="edge2" class="edge"><title>Node1&#45;&gt;Node3</title>
<path fill="none" stroke="midnightblue" d="M152.077,-21.1623C161.743,-20.1532 171.656,-19.1184 181.361,-18.1051"/>
<polygon fill="midnightblue" stroke="midnightblue" points="181.799,-21.5786 191.381,-17.0591 181.072,-14.6164 181.799,-21.5786"/>
</g>
</g>
</svg>
