<?xml version="1.0" encoding="UTF-8" standalone="no"?>
<!DOCTYPE svg PUBLIC "-//W3C//DTD SVG 1.1//EN"
 "http://www.w3.org/Graphics/SVG/1.1/DTD/svg11.dtd">
<!-- Generated by graphviz version 2.36.0 (20140111.2315)
 -->
<!-- Title: view.TurtleView.getID Pages: 1 -->
<svg width="2228pt" height="436pt"
 viewBox="0.00 0.00 2228.00 435.71" xmlns="http://www.w3.org/2000/svg" xmlns:xlink="http://www.w3.org/1999/xlink">
<g id="graph0" class="graph" transform="scale(1 1) rotate(0) translate(4 431.706)">
<title>view.TurtleView.getID</title>
<polygon fill="white" stroke="none" points="-4,4 -4,-431.706 2224,-431.706 2224,4 -4,4"/>
<!-- Node1 -->
<g id="node1" class="node"><title>Node1</title>
<polygon fill="#bfbfbf" stroke="black" points="0,-326.206 0,-345.206 114,-345.206 114,-326.206 0,-326.206"/>
<text text-anchor="middle" x="57" y="-333.206" font-family="Helvetica,sans-Serif" font-size="10.00">view.TurtleView.getID</text>
</g>
<!-- Node2 -->
<g id="node2" class="node"><title>Node2</title>
<g id="a_node2"><a xlink:href="../../da/d64/classview_1_1_workspace.html#a9eea72f983d5e7ad5af85056d927e380" target="_top" xlink:title="view.Workspace.configure\lTurtleEventHandler">
<polygon fill="white" stroke="black" points="533.5,-383.706 533.5,-413.706 670.5,-413.706 670.5,-383.706 533.5,-383.706"/>
<text text-anchor="start" x="541.5" y="-401.706" font-family="Helvetica,sans-Serif" font-size="10.00">view.Workspace.configure</text>
<text text-anchor="middle" x="602" y="-390.706" font-family="Helvetica,sans-Serif" font-size="10.00">TurtleEventHandler</text>
</a>
</g>
</g>
<!-- Node1&#45;&gt;Node2 -->
<g id="edge1" class="edge"><title>Node1&#45;&gt;Node2</title>
<path fill="none" stroke="midnightblue" d="M90.4383,-349.18C139.817,-368.885 237.27,-404.641 324,-417.706 389.044,-427.504 406.398,-422.511 472,-417.706 491.981,-416.243 513.563,-413.52 533.253,-410.584"/>
<polygon fill="midnightblue" stroke="midnightblue" points="91.5198,-345.842 80.9365,-345.348 88.9019,-352.334 91.5198,-345.842"/>
</g>
<!-- Node13 -->
<g id="node13" class="node"><title>Node13</title>
<g id="a_node13"><a xlink:href="../../d1/dc7/classview_1_1_side_bar.html#a7d73038dbba05f96990b60664afa2670" target="_top" xlink:title="view.SideBar.updateTurtle\lProperties">
<polygon fill="white" stroke="black" points="150,-200.706 150,-230.706 288,-230.706 288,-200.706 150,-200.706"/>
<text text-anchor="start" x="158" y="-218.706" font-family="Helvetica,sans-Serif" font-size="10.00">view.SideBar.updateTurtle</text>
<text text-anchor="middle" x="219" y="-207.706" font-family="Helvetica,sans-Serif" font-size="10.00">Properties</text>
</a>
</g>
</g>
<!-- Node1&#45;&gt;Node13 -->
<g id="edge13" class="edge"><title>Node1&#45;&gt;Node13</title>
<path fill="none" stroke="midnightblue" d="M79.1922,-319.812C110.231,-296.533 167.652,-253.467 198,-230.706"/>
<polygon fill="midnightblue" stroke="midnightblue" points="76.723,-317.289 70.823,-326.089 80.923,-322.889 76.723,-317.289"/>
</g>
<!-- Node3 -->
<g id="node3" class="node"><title>Node3</title>
<g id="a_node3"><a xlink:href="../../da/d64/classview_1_1_workspace.html#a4abde41a3048fa8f64ddfec40c8ffdb7" target="_top" xlink:title="view.Workspace.addTurtle">
<polygon fill="white" stroke="black" points="743.5,-389.206 743.5,-408.206 880.5,-408.206 880.5,-389.206 743.5,-389.206"/>
<text text-anchor="middle" x="812" y="-396.206" font-family="Helvetica,sans-Serif" font-size="10.00">view.Workspace.addTurtle</text>
</a>
</g>
</g>
<!-- Node2&#45;&gt;Node3 -->
<g id="edge2" class="edge"><title>Node2&#45;&gt;Node3</title>
<path fill="none" stroke="midnightblue" d="M680.541,-398.706C701.208,-398.706 723.368,-398.706 743.452,-398.706"/>
<polygon fill="midnightblue" stroke="midnightblue" points="680.532,-395.206 670.532,-398.706 680.532,-402.206 680.532,-395.206"/>
</g>
<!-- Node4 -->
<g id="node4" class="node"><title>Node4</title>
<g id="a_node4"><a xlink:href="../../d6/de7/classview_1_1_s_logo_view.html#acf432f20e1a7dda7bef97f0619fb0fa5" target="_top" xlink:title="view.SLogoView.configure\lAddTurtlesButton">
<polygon fill="white" stroke="black" points="939.5,-383.706 939.5,-413.706 1076.5,-413.706 1076.5,-383.706 939.5,-383.706"/>
<text text-anchor="start" x="947.5" y="-401.706" font-family="Helvetica,sans-Serif" font-size="10.00">view.SLogoView.configure</text>
<text text-anchor="middle" x="1008" y="-390.706" font-family="Helvetica,sans-Serif" font-size="10.00">AddTurtlesButton</text>
</a>
</g>
</g>
<!-- Node3&#45;&gt;Node4 -->
<g id="edge3" class="edge"><title>Node3&#45;&gt;Node4</title>
<path fill="none" stroke="midnightblue" d="M890.979,-398.706C906.99,-398.706 923.722,-398.706 939.334,-398.706"/>
<polygon fill="midnightblue" stroke="midnightblue" points="890.579,-395.206 880.579,-398.706 890.579,-402.206 890.579,-395.206"/>
</g>
<!-- Node12 -->
<g id="node12" class="node"><title>Node12</title>
<g id="a_node12"><a xlink:href="../../da/d64/classview_1_1_workspace.html#abbd85b844575ebab6643ba4ddc5a1612" target="_top" xlink:title="view.Workspace.Workspace">
<polygon fill="white" stroke="black" points="936,-345.206 936,-364.206 1080,-364.206 1080,-345.206 936,-345.206"/>
<text text-anchor="middle" x="1008" y="-352.206" font-family="Helvetica,sans-Serif" font-size="10.00">view.Workspace.Workspace</text>
</a>
</g>
</g>
<!-- Node3&#45;&gt;Node12 -->
<g id="edge12" class="edge"><title>Node3&#45;&gt;Node12</title>
<path fill="none" stroke="midnightblue" d="M864.957,-386.922C896.274,-379.819 935.643,-370.89 964.987,-364.235"/>
<polygon fill="midnightblue" stroke="midnightblue" points="864.073,-383.533 855.095,-389.159 865.622,-390.36 864.073,-383.533"/>
</g>
<!-- Node5 -->
<g id="node5" class="node"><title>Node5</title>
<g id="a_node5"><a xlink:href="../../d6/de7/classview_1_1_s_logo_view.html#ae0050481c9168dd8eeb434d9aa79b047" target="_top" xlink:title="view.SLogoView.configureUI">
<polygon fill="white" stroke="black" points="1124.5,-389.206 1124.5,-408.206 1271.5,-408.206 1271.5,-389.206 1124.5,-389.206"/>
<text text-anchor="middle" x="1198" y="-396.206" font-family="Helvetica,sans-Serif" font-size="10.00">view.SLogoView.configureUI</text>
</a>
</g>
</g>
<!-- Node4&#45;&gt;Node5 -->
<g id="edge4" class="edge"><title>Node4&#45;&gt;Node5</title>
<path fill="none" stroke="midnightblue" d="M1086.89,-398.706C1099.27,-398.706 1112.02,-398.706 1124.27,-398.706"/>
<polygon fill="midnightblue" stroke="midnightblue" points="1086.61,-395.206 1076.61,-398.706 1086.61,-402.206 1086.61,-395.206"/>
</g>
<!-- Node6 -->
<g id="node6" class="node"><title>Node6</title>
<g id="a_node6"><a xlink:href="../../d1/d75/classview_1_1_main_view.html#ade3718ede33fa2086649c8b3cf75d2f9" target="_top" xlink:title="view.MainView.initTabs">
<polygon fill="white" stroke="black" points="1489.5,-408.206 1489.5,-427.206 1610.5,-427.206 1610.5,-408.206 1489.5,-408.206"/>
<text text-anchor="middle" x="1550" y="-415.206" font-family="Helvetica,sans-Serif" font-size="10.00">view.MainView.initTabs</text>
</a>
</g>
</g>
<!-- Node5&#45;&gt;Node6 -->
<g id="edge5" class="edge"><title>Node5&#45;&gt;Node6</title>
<path fill="none" stroke="midnightblue" d="M1281.56,-403.188C1345.37,-406.652 1432.18,-411.364 1489.36,-414.469"/>
<polygon fill="midnightblue" stroke="midnightblue" points="1281.7,-399.69 1271.52,-402.643 1281.32,-406.68 1281.7,-399.69"/>
</g>
<!-- Node8 -->
<g id="node8" class="node"><title>Node8</title>
<g id="a_node8"><a xlink:href="../../d1/d75/classview_1_1_main_view.html#a39a2b399924a553ccd89dd2a2e6ea208" target="_top" xlink:title="view.MainView.newTab">
<polygon fill="white" stroke="black" points="1308,-370.206 1308,-389.206 1428,-389.206 1428,-370.206 1308,-370.206"/>
<text text-anchor="middle" x="1368" y="-377.206" font-family="Helvetica,sans-Serif" font-size="10.00">view.MainView.newTab</text>
</a>
</g>
</g>
<!-- Node5&#45;&gt;Node8 -->
<g id="edge7" class="edge"><title>Node5&#45;&gt;Node8</title>
<path fill="none" stroke="midnightblue" d="M1281.65,-389.358C1290.49,-388.359 1299.34,-387.358 1307.82,-386.399"/>
<polygon fill="midnightblue" stroke="midnightblue" points="1281.25,-385.881 1271.71,-390.483 1282.04,-392.837 1281.25,-385.881"/>
</g>
<!-- Node7 -->
<g id="node7" class="node"><title>Node7</title>
<g id="a_node7"><a xlink:href="../../d1/d75/classview_1_1_main_view.html#a9e27015c007bed90f32c79fc1187083f" target="_top" xlink:title="view.MainView.MainView">
<polygon fill="white" stroke="black" points="2090,-389.206 2090,-408.206 2220,-408.206 2220,-389.206 2090,-389.206"/>
<text text-anchor="middle" x="2155" y="-396.206" font-family="Helvetica,sans-Serif" font-size="10.00">view.MainView.MainView</text>
</a>
</g>
</g>
<!-- Node6&#45;&gt;Node7 -->
<g id="edge6" class="edge"><title>Node6&#45;&gt;Node7</title>
<path fill="none" stroke="midnightblue" d="M1620.74,-415.509C1738.6,-411.795 1975.48,-404.331 2089.62,-400.735"/>
<polygon fill="midnightblue" stroke="midnightblue" points="1620.63,-412.01 1610.75,-415.824 1620.85,-419.007 1620.63,-412.01"/>
</g>
<!-- Node9 -->
<g id="node9" class="node"><title>Node9</title>
<g id="a_node9"><a xlink:href="../../d1/d75/classview_1_1_main_view.html#a0424800b5057be73f94e16ef2e1e2b33" target="_top" xlink:title="view.MainView.configureFileMenu">
<polygon fill="white" stroke="black" points="1464.5,-370.206 1464.5,-389.206 1635.5,-389.206 1635.5,-370.206 1464.5,-370.206"/>
<text text-anchor="middle" x="1550" y="-377.206" font-family="Helvetica,sans-Serif" font-size="10.00">view.MainView.configureFileMenu</text>
</a>
</g>
</g>
<!-- Node8&#45;&gt;Node9 -->
<g id="edge8" class="edge"><title>Node8&#45;&gt;Node9</title>
<path fill="none" stroke="midnightblue" d="M1438.55,-379.706C1446.96,-379.706 1455.62,-379.706 1464.22,-379.706"/>
<polygon fill="midnightblue" stroke="midnightblue" points="1438.44,-376.206 1428.44,-379.706 1438.44,-383.206 1438.44,-376.206"/>
</g>
<!-- Node10 -->
<g id="node10" class="node"><title>Node10</title>
<g id="a_node10"><a xlink:href="../../d1/d75/classview_1_1_main_view.html#a200c2c8e08e038e2ea86acc40c17d8d2" target="_top" xlink:title="view.MainView.configureTopMenu">
<polygon fill="white" stroke="black" points="1672,-370.206 1672,-389.206 1844,-389.206 1844,-370.206 1672,-370.206"/>
<text text-anchor="middle" x="1758" y="-377.206" font-family="Helvetica,sans-Serif" font-size="10.00">view.MainView.configureTopMenu</text>
</a>
</g>
</g>
<!-- Node9&#45;&gt;Node10 -->
<g id="edge9" class="edge"><title>Node9&#45;&gt;Node10</title>
<path fill="none" stroke="midnightblue" d="M1645.86,-379.706C1654.57,-379.706 1663.36,-379.706 1671.98,-379.706"/>
<polygon fill="midnightblue" stroke="midnightblue" points="1645.68,-376.206 1635.68,-379.706 1645.68,-383.206 1645.68,-376.206"/>
</g>
<!-- Node11 -->
<g id="node11" class="node"><title>Node11</title>
<g id="a_node11"><a xlink:href="../../d1/d75/classview_1_1_main_view.html#aff9e267e9368512a16e425f08d7b3ea0" target="_top" xlink:title="view.MainView.initRowConstraints">
<polygon fill="white" stroke="black" points="1880.5,-370.206 1880.5,-389.206 2053.5,-389.206 2053.5,-370.206 1880.5,-370.206"/>
<text text-anchor="middle" x="1967" y="-377.206" font-family="Helvetica,sans-Serif" font-size="10.00">view.MainView.initRowConstraints</text>
</a>
</g>
</g>
<!-- Node10&#45;&gt;Node11 -->
<g id="edge10" class="edge"><title>Node10&#45;&gt;Node11</title>
<path fill="none" stroke="midnightblue" d="M1854.22,-379.706C1862.9,-379.706 1871.65,-379.706 1880.24,-379.706"/>
<polygon fill="midnightblue" stroke="midnightblue" points="1854.09,-376.206 1844.09,-379.706 1854.09,-383.206 1854.09,-376.206"/>
</g>
<!-- Node11&#45;&gt;Node7 -->
<g id="edge11" class="edge"><title>Node11&#45;&gt;Node7</title>
<path fill="none" stroke="midnightblue" d="M2063.68,-389.48C2072.57,-390.388 2081.43,-391.293 2089.92,-392.161"/>
<polygon fill="midnightblue" stroke="midnightblue" points="2063.95,-385.99 2053.65,-388.455 2063.24,-392.954 2063.95,-385.99"/>
</g>
<!-- Node14 -->
<g id="node14" class="node"><title>Node14</title>
<g id="a_node14"><a xlink:href="../../d4/d64/classview_1_1_view_updater.html#ace7ce28317856b4b454a798d1af23b38" target="_top" xlink:title="view.ViewUpdater.clearScreen">
<polygon fill="white" stroke="black" points="732.5,-250.206 732.5,-269.206 891.5,-269.206 891.5,-250.206 732.5,-250.206"/>
<text text-anchor="middle" x="812" y="-257.206" font-family="Helvetica,sans-Serif" font-size="10.00">view.ViewUpdater.clearScreen</text>
</a>
</g>
</g>
<!-- Node13&#45;&gt;Node14 -->
<g id="edge14" class="edge"><title>Node13&#45;&gt;Node14</title>
<path fill="none" stroke="midnightblue" d="M261.821,-234.654C280.449,-242.127 302.907,-249.839 324,-253.706 466.011,-279.741 635.237,-273.715 732.197,-266.815"/>
<polygon fill="midnightblue" stroke="midnightblue" points="263.035,-231.369 252.456,-230.79 260.365,-237.84 263.035,-231.369"/>
</g>
<!-- Node16 -->
<g id="node16" class="node"><title>Node16</title>
<g id="a_node16"><a xlink:href="../../de/d0a/classview_1_1_drawer.html#a6b9f362b8bc763689630b1fe7b5c1887" target="_top" xlink:title="view.Drawer.draw">
<polygon fill="white" stroke="black" points="349,-225.206 349,-244.206 447,-244.206 447,-225.206 349,-225.206"/>
<text text-anchor="middle" x="398" y="-232.206" font-family="Helvetica,sans-Serif" font-size="10.00">view.Drawer.draw</text>
</a>
</g>
</g>
<!-- Node13&#45;&gt;Node16 -->
<g id="edge16" class="edge"><title>Node13&#45;&gt;Node16</title>
<path fill="none" stroke="midnightblue" d="M298.251,-224.106C315.493,-225.957 333.261,-227.864 348.89,-229.542"/>
<polygon fill="midnightblue" stroke="midnightblue" points="298.496,-220.612 288.18,-223.025 297.749,-227.572 298.496,-220.612"/>
</g>
<!-- Node19 -->
<g id="node19" class="node"><title>Node19</title>
<g id="a_node19"><a xlink:href="../../da/d64/classview_1_1_workspace.html#a16bda9a6a7fe7f8d3d7b09108675f9c4" target="_top" xlink:title="view.Workspace.setActive\lTurtle">
<polygon fill="white" stroke="black" points="329.5,-339.706 329.5,-369.706 466.5,-369.706 466.5,-339.706 329.5,-339.706"/>
<text text-anchor="start" x="337.5" y="-357.706" font-family="Helvetica,sans-Serif" font-size="10.00">view.Workspace.setActive</text>
<text text-anchor="middle" x="398" y="-346.706" font-family="Helvetica,sans-Serif" font-size="10.00">Turtle</text>
</a>
</g>
</g>
<!-- Node13&#45;&gt;Node19 -->
<g id="edge20" class="edge"><title>Node13&#45;&gt;Node19</title>
<path fill="none" stroke="midnightblue" d="M237.335,-238.974C256.339,-263.132 288.841,-300.684 324,-324.706 332.485,-330.504 342.264,-335.479 351.851,-339.616"/>
<polygon fill="midnightblue" stroke="midnightblue" points="240.079,-236.802 231.193,-231.032 234.542,-241.084 240.079,-236.802"/>
</g>
<!-- Node20 -->
<g id="node20" class="node"><title>Node20</title>
<g id="a_node20"><a xlink:href="../../d4/d64/classview_1_1_view_updater.html#ab8c47e1d6b8bc5c076184e3e0af5e4b2" target="_top" xlink:title="view.ViewUpdater.setHeading">
<polygon fill="white" stroke="black" points="523.5,-92.2061 523.5,-111.206 680.5,-111.206 680.5,-92.2061 523.5,-92.2061"/>
<text text-anchor="middle" x="602" y="-99.2061" font-family="Helvetica,sans-Serif" font-size="10.00">view.ViewUpdater.setHeading</text>
</a>
</g>
</g>
<!-- Node13&#45;&gt;Node20 -->
<g id="edge23" class="edge"><title>Node13&#45;&gt;Node20</title>
<path fill="none" stroke="midnightblue" d="M233.277,-191.884C250.218,-164.231 282.382,-120.073 324,-101.706 402.533,-67.0472 506.221,-80.7212 561.803,-92.1768"/>
<polygon fill="midnightblue" stroke="midnightblue" points="230.217,-190.182 228.123,-200.568 236.237,-193.755 230.217,-190.182"/>
</g>
<!-- Node22 -->
<g id="node22" class="node"><title>Node22</title>
<g id="a_node22"><a xlink:href="../../d6/de7/classview_1_1_s_logo_view.html#ae7ad67f4b629b134cb805842a20f4050" target="_top" xlink:title="view.SLogoView.setHeading">
<polygon fill="white" stroke="black" points="324,-187.206 324,-206.206 472,-206.206 472,-187.206 324,-187.206"/>
<text text-anchor="middle" x="398" y="-194.206" font-family="Helvetica,sans-Serif" font-size="10.00">view.SLogoView.setHeading</text>
</a>
</g>
</g>
<!-- Node13&#45;&gt;Node22 -->
<g id="edge26" class="edge"><title>Node13&#45;&gt;Node22</title>
<path fill="none" stroke="midnightblue" d="M298.139,-207.318C306.691,-206.4 315.373,-205.468 323.862,-204.557"/>
<polygon fill="midnightblue" stroke="midnightblue" points="297.749,-203.84 288.18,-208.387 298.496,-210.8 297.749,-203.84"/>
</g>
<!-- Node24 -->
<g id="node24" class="node"><title>Node24</title>
<g id="a_node24"><a xlink:href="../../d4/d64/classview_1_1_view_updater.html#ad79c00c54aabbeca7b8a0461fea36c29" target="_top" xlink:title="view.ViewUpdater.setPenUp">
<polygon fill="white" stroke="black" points="527.5,-26.2061 527.5,-45.2061 676.5,-45.2061 676.5,-26.2061 527.5,-26.2061"/>
<text text-anchor="middle" x="602" y="-33.2061" font-family="Helvetica,sans-Serif" font-size="10.00">view.ViewUpdater.setPenUp</text>
</a>
</g>
</g>
<!-- Node13&#45;&gt;Node24 -->
<g id="edge28" class="edge"><title>Node13&#45;&gt;Node24</title>
<path fill="none" stroke="midnightblue" d="M225.156,-190.597C235.449,-147.799 263.013,-61.8495 324,-25.7061 404.726,22.135 523.191,-8.709 575.063,-26.1244"/>
<polygon fill="midnightblue" stroke="midnightblue" points="221.711,-189.964 222.901,-200.492 228.536,-191.519 221.711,-189.964"/>
</g>
<!-- Node25 -->
<g id="node25" class="node"><title>Node25</title>
<g id="a_node25"><a xlink:href="../../d6/de7/classview_1_1_s_logo_view.html#a978a65a0b82bac25044f7e2816a680cc" target="_top" xlink:title="view.SLogoView.setPenUp">
<polygon fill="white" stroke="black" points="328,-111.206 328,-130.206 468,-130.206 468,-111.206 328,-111.206"/>
<text text-anchor="middle" x="398" y="-118.206" font-family="Helvetica,sans-Serif" font-size="10.00">view.SLogoView.setPenUp</text>
</a>
</g>
</g>
<!-- Node13&#45;&gt;Node25 -->
<g id="edge30" class="edge"><title>Node13&#45;&gt;Node25</title>
<path fill="none" stroke="midnightblue" d="M246.673,-194.381C266.952,-178.963 296.037,-158.502 324,-144.706 335.725,-138.921 349.171,-134.049 361.302,-130.237"/>
<polygon fill="midnightblue" stroke="midnightblue" points="244.332,-191.767 238.551,-200.646 248.607,-197.31 244.332,-191.767"/>
</g>
<!-- Node26 -->
<g id="node26" class="node"><title>Node26</title>
<g id="a_node26"><a xlink:href="../../d4/d64/classview_1_1_view_updater.html#a497cc83cdcb6fdb430bdb78431c5cd20" target="_top" xlink:title="view.ViewUpdater.setXY">
<polygon fill="white" stroke="black" points="748,-295.206 748,-314.206 876,-314.206 876,-295.206 748,-295.206"/>
<text text-anchor="middle" x="812" y="-302.206" font-family="Helvetica,sans-Serif" font-size="10.00">view.ViewUpdater.setXY</text>
</a>
</g>
</g>
<!-- Node13&#45;&gt;Node26 -->
<g id="edge31" class="edge"><title>Node13&#45;&gt;Node26</title>
<path fill="none" stroke="midnightblue" d="M247.701,-236.888C267.732,-250.924 296.077,-268.253 324,-276.706 470.711,-321.118 653.411,-316.726 747.87,-310.34"/>
<polygon fill="midnightblue" stroke="midnightblue" points="249.547,-233.905 239.383,-230.913 245.463,-239.59 249.547,-233.905"/>
</g>
<!-- Node27 -->
<g id="node27" class="node"><title>Node27</title>
<g id="a_node27"><a xlink:href="../../d6/de7/classview_1_1_s_logo_view.html#a0948ea67bfc088f941e2af79727231ad" target="_top" xlink:title="view.SLogoView.setXY">
<polygon fill="white" stroke="black" points="338.5,-35.2061 338.5,-54.2061 457.5,-54.2061 457.5,-35.2061 338.5,-35.2061"/>
<text text-anchor="middle" x="398" y="-42.2061" font-family="Helvetica,sans-Serif" font-size="10.00">view.SLogoView.setXY</text>
</a>
</g>
</g>
<!-- Node13&#45;&gt;Node27 -->
<g id="edge33" class="edge"><title>Node13&#45;&gt;Node27</title>
<path fill="none" stroke="midnightblue" d="M231.208,-191.087C247.256,-158.5 279.795,-101.368 324,-68.7061 332.476,-62.4429 342.673,-57.7598 352.721,-54.2779"/>
<polygon fill="midnightblue" stroke="midnightblue" points="227.93,-189.827 226.762,-200.358 234.242,-192.854 227.93,-189.827"/>
</g>
<!-- Node28 -->
<g id="node28" class="node"><title>Node28</title>
<g id="a_node28"><a xlink:href="../../d4/d64/classview_1_1_view_updater.html#a9797c2f411ad272a0feb84c26836bfd4" target="_top" xlink:title="view.ViewUpdater.showTurtle">
<polygon fill="white" stroke="black" points="526,-149.206 526,-168.206 678,-168.206 678,-149.206 526,-149.206"/>
<text text-anchor="middle" x="602" y="-156.206" font-family="Helvetica,sans-Serif" font-size="10.00">view.ViewUpdater.showTurtle</text>
</a>
</g>
</g>
<!-- Node13&#45;&gt;Node28 -->
<g id="edge34" class="edge"><title>Node13&#45;&gt;Node28</title>
<path fill="none" stroke="midnightblue" d="M263.473,-196.716C281.809,-189.528 303.599,-182.042 324,-177.706 391.307,-163.402 469.681,-159.143 525.85,-158.173"/>
<polygon fill="midnightblue" stroke="midnightblue" points="261.923,-193.566 253.949,-200.542 264.533,-200.062 261.923,-193.566"/>
</g>
<!-- Node29 -->
<g id="node29" class="node"><title>Node29</title>
<g id="a_node29"><a xlink:href="../../d6/de7/classview_1_1_s_logo_view.html#a00710838e28dcb10fe6da3c0ec0c4e20" target="_top" xlink:title="view.SLogoView.showTurtle">
<polygon fill="white" stroke="black" points="326.5,-389.206 326.5,-408.206 469.5,-408.206 469.5,-389.206 326.5,-389.206"/>
<text text-anchor="middle" x="398" y="-396.206" font-family="Helvetica,sans-Serif" font-size="10.00">view.SLogoView.showTurtle</text>
</a>
</g>
</g>
<!-- Node13&#45;&gt;Node29 -->
<g id="edge36" class="edge"><title>Node13&#45;&gt;Node29</title>
<path fill="none" stroke="midnightblue" d="M229.144,-240.669C243.63,-276.682 275.304,-342.816 324,-378.706 329.924,-383.072 336.749,-386.485 343.798,-389.153"/>
<polygon fill="midnightblue" stroke="midnightblue" points="232.247,-238.992 225.357,-230.943 225.724,-241.532 232.247,-238.992"/>
</g>
<!-- Node15 -->
<g id="node15" class="node"><title>Node15</title>
<g id="a_node15"><a xlink:href="../../d1/dd3/classmodel_1_1instructions_1_1_movement_instruction.html#a33e802cec8283d190a8daac6e485e3b4" target="_top" xlink:title="model.instructions.Movement\lInstruction.execute">
<polygon fill="white" stroke="black" points="928.5,-172.706 928.5,-202.706 1087.5,-202.706 1087.5,-172.706 928.5,-172.706"/>
<text text-anchor="start" x="936.5" y="-190.706" font-family="Helvetica,sans-Serif" font-size="10.00">model.instructions.Movement</text>
<text text-anchor="middle" x="1008" y="-179.706" font-family="Helvetica,sans-Serif" font-size="10.00">Instruction.execute</text>
</a>
</g>
</g>
<!-- Node14&#45;&gt;Node15 -->
<g id="edge15" class="edge"><title>Node14&#45;&gt;Node15</title>
<path fill="none" stroke="midnightblue" d="M858.891,-247.352C869.822,-244.132 881.392,-240.495 892,-236.706 920.204,-226.632 951.418,-213.181 974.201,-202.92"/>
<polygon fill="midnightblue" stroke="midnightblue" points="857.715,-244.048 849.077,-250.183 859.656,-250.774 857.715,-244.048"/>
</g>
<!-- Node17 -->
<g id="node17" class="node"><title>Node17</title>
<g id="a_node17"><a xlink:href="../../d4/d64/classview_1_1_view_updater.html#adc0790ceed057768bd5a29a470e626d1" target="_top" xlink:title="view.ViewUpdater.updateWorkspace">
<polygon fill="white" stroke="black" points="508.5,-225.206 508.5,-244.206 695.5,-244.206 695.5,-225.206 508.5,-225.206"/>
<text text-anchor="middle" x="602" y="-232.206" font-family="Helvetica,sans-Serif" font-size="10.00">view.ViewUpdater.updateWorkspace</text>
</a>
</g>
</g>
<!-- Node16&#45;&gt;Node17 -->
<g id="edge17" class="edge"><title>Node16&#45;&gt;Node17</title>
<path fill="none" stroke="midnightblue" d="M457.362,-234.706C473.351,-234.706 491.088,-234.706 508.485,-234.706"/>
<polygon fill="midnightblue" stroke="midnightblue" points="457.127,-231.206 447.127,-234.706 457.127,-238.206 457.127,-231.206"/>
</g>
<!-- Node18 -->
<g id="node18" class="node"><title>Node18</title>
<g id="a_node18"><a xlink:href="../../d1/dd3/classmodel_1_1instructions_1_1_movement_instruction.html#a51c776093aeb820937b12e2b89eb2f89" target="_top" xlink:title="model.instructions.Movement\lInstruction.updateView">
<polygon fill="white" stroke="black" points="732.5,-197.706 732.5,-227.706 891.5,-227.706 891.5,-197.706 732.5,-197.706"/>
<text text-anchor="start" x="740.5" y="-215.706" font-family="Helvetica,sans-Serif" font-size="10.00">model.instructions.Movement</text>
<text text-anchor="middle" x="812" y="-204.706" font-family="Helvetica,sans-Serif" font-size="10.00">Instruction.updateView</text>
</a>
</g>
</g>
<!-- Node17&#45;&gt;Node18 -->
<g id="edge18" class="edge"><title>Node17&#45;&gt;Node18</title>
<path fill="none" stroke="midnightblue" d="M703.173,-224.111C712.943,-223.078 722.758,-222.039 732.273,-221.033"/>
<polygon fill="midnightblue" stroke="midnightblue" points="702.598,-220.652 693.022,-225.185 703.335,-227.613 702.598,-220.652"/>
</g>
<!-- Node18&#45;&gt;Node15 -->
<g id="edge19" class="edge"><title>Node18&#45;&gt;Node15</title>
<path fill="none" stroke="midnightblue" d="M901.608,-201.287C910.498,-200.142 919.483,-198.984 928.26,-197.853"/>
<polygon fill="midnightblue" stroke="midnightblue" points="901.098,-197.824 891.628,-202.574 901.993,-204.767 901.098,-197.824"/>
</g>
<!-- Node19&#45;&gt;Node2 -->
<g id="edge22" class="edge"><title>Node19&#45;&gt;Node2</title>
<path fill="none" stroke="midnightblue" d="M476.488,-371.585C495.165,-375.653 514.979,-379.969 533.176,-383.932"/>
<polygon fill="midnightblue" stroke="midnightblue" points="477.06,-368.127 466.544,-369.419 475.57,-374.967 477.06,-368.127"/>
</g>
<!-- Node19&#45;&gt;Node12 -->
<g id="edge21" class="edge"><title>Node19&#45;&gt;Node12</title>
<path fill="none" stroke="midnightblue" d="M476.799,-354.706C595.66,-354.706 820.74,-354.706 935.632,-354.706"/>
<polygon fill="midnightblue" stroke="midnightblue" points="476.682,-351.206 466.682,-354.706 476.682,-358.206 476.682,-351.206"/>
</g>
<!-- Node21 -->
<g id="node21" class="node"><title>Node21</title>
<g id="a_node21"><a xlink:href="../../d4/d64/classview_1_1_view_updater.html#ad29dfbb2499161b985c26e01f73ea5ac" target="_top" xlink:title="view.ViewUpdater.towards">
<polygon fill="white" stroke="black" points="742,-100.206 742,-119.206 882,-119.206 882,-100.206 742,-100.206"/>
<text text-anchor="middle" x="812" y="-107.206" font-family="Helvetica,sans-Serif" font-size="10.00">view.ViewUpdater.towards</text>
</a>
</g>
</g>
<!-- Node20&#45;&gt;Node21 -->
<g id="edge24" class="edge"><title>Node20&#45;&gt;Node21</title>
<path fill="none" stroke="midnightblue" d="M691.207,-105.099C708.152,-105.75 725.669,-106.424 741.903,-107.048"/>
<polygon fill="midnightblue" stroke="midnightblue" points="690.874,-101.583 680.747,-104.696 690.605,-108.578 690.874,-101.583"/>
</g>
<!-- Node21&#45;&gt;Node15 -->
<g id="edge25" class="edge"><title>Node21&#45;&gt;Node15</title>
<path fill="none" stroke="midnightblue" d="M846.329,-123.106C880.531,-136.858 933.651,-158.215 969.35,-172.569"/>
<polygon fill="midnightblue" stroke="midnightblue" points="847.372,-119.754 836.788,-119.27 844.761,-126.248 847.372,-119.754"/>
</g>
<!-- Node23 -->
<g id="node23" class="node"><title>Node23</title>
<g id="a_node23"><a xlink:href="../../d6/de7/classview_1_1_s_logo_view.html#afa2b659c4d080b5f927978b453633ab2" target="_top" xlink:title="view.SLogoView.towards">
<polygon fill="white" stroke="black" points="536.5,-187.206 536.5,-206.206 667.5,-206.206 667.5,-187.206 536.5,-187.206"/>
<text text-anchor="middle" x="602" y="-194.206" font-family="Helvetica,sans-Serif" font-size="10.00">view.SLogoView.towards</text>
</a>
</g>
</g>
<!-- Node22&#45;&gt;Node23 -->
<g id="edge27" class="edge"><title>Node22&#45;&gt;Node23</title>
<path fill="none" stroke="midnightblue" d="M482.42,-196.706C500.438,-196.706 519.226,-196.706 536.395,-196.706"/>
<polygon fill="midnightblue" stroke="midnightblue" points="482.212,-193.206 472.212,-196.706 482.212,-200.206 482.212,-193.206"/>
</g>
<!-- Node24&#45;&gt;Node15 -->
<g id="edge29" class="edge"><title>Node24&#45;&gt;Node15</title>
<path fill="none" stroke="midnightblue" d="M686.689,-40.3374C746.355,-46.2807 827.157,-59.8317 892,-90.7061 934.448,-110.917 974.058,-150.662 993.835,-172.479"/>
<polygon fill="midnightblue" stroke="midnightblue" points="686.837,-36.836 676.553,-39.3804 686.179,-43.805 686.837,-36.836"/>
</g>
<!-- Node26&#45;&gt;Node15 -->
<g id="edge32" class="edge"><title>Node26&#45;&gt;Node15</title>
<path fill="none" stroke="midnightblue" d="M860.68,-292.013C871.287,-288.375 882.265,-283.945 892,-278.706 931.235,-257.593 970.568,-222.821 991.53,-202.931"/>
<polygon fill="midnightblue" stroke="midnightblue" points="859.518,-288.71 851.09,-295.131 861.682,-295.367 859.518,-288.71"/>
</g>
<!-- Node28&#45;&gt;Node15 -->
<g id="edge35" class="edge"><title>Node28&#45;&gt;Node15</title>
<path fill="none" stroke="midnightblue" d="M688.28,-164.828C759.155,-169.915 859.212,-177.098 928.221,-182.051"/>
<polygon fill="midnightblue" stroke="midnightblue" points="688.267,-161.318 678.042,-164.093 687.766,-168.3 688.267,-161.318"/>
</g>
</g>
</svg>
