<?xml version="1.0" encoding="UTF-8" standalone="no"?>
<!DOCTYPE svg PUBLIC "-//W3C//DTD SVG 1.1//EN"
 "http://www.w3.org/Graphics/SVG/1.1/DTD/svg11.dtd">
<!-- Generated by graphviz version 2.36.0 (20140111.2315)
 -->
<!-- Title: view.TurtleView.move Pages: 1 -->
<svg width="1014pt" height="79pt"
 viewBox="0.00 0.00 1014.00 78.73" xmlns="http://www.w3.org/2000/svg" xmlns:xlink="http://www.w3.org/1999/xlink">
<g id="graph0" class="graph" transform="scale(1 1) rotate(0) translate(4 74.7276)">
<title>view.TurtleView.move</title>
<polygon fill="white" stroke="none" points="-4,4 -4,-74.7276 1010,-74.7276 1010,4 -4,4"/>
<!-- Node1 -->
<g id="node1" class="node"><title>Node1</title>
<polygon fill="#bfbfbf" stroke="black" points="0,-38.5 0,-57.5 116,-57.5 116,-38.5 0,-38.5"/>
<text text-anchor="middle" x="58" y="-45.5" font-family="Helvetica,sans-Serif" font-size="10.00">view.TurtleView.move</text>
</g>
<!-- Node2 -->
<g id="node2" class="node"><title>Node2</title>
<g id="a_node2"><a xlink:href="../../de/d0a/classview_1_1_drawer.html#a6b9f362b8bc763689630b1fe7b5c1887" target="_top" xlink:title="view.Drawer.draw">
<polygon fill="white" stroke="black" points="292,-38.5 292,-57.5 390,-57.5 390,-38.5 292,-38.5"/>
<text text-anchor="middle" x="341" y="-45.5" font-family="Helvetica,sans-Serif" font-size="10.00">view.Drawer.draw</text>
</a>
</g>
</g>
<!-- Node1&#45;&gt;Node2 -->
<g id="edge1" class="edge"><title>Node1&#45;&gt;Node2</title>
<path fill="none" stroke="midnightblue" d="M106.925,-59.7118C121.325,-62.7091 137.223,-65.506 152,-67 197.988,-71.6497 210.063,-72.1304 256,-67 272.642,-65.1413 290.801,-61.2722 305.963,-57.5077"/>
<polygon fill="midnightblue" stroke="midnightblue" points="107.257,-56.2026 96.7426,-57.5096 105.777,-63.0444 107.257,-56.2026"/>
</g>
<!-- Node6 -->
<g id="node6" class="node"><title>Node6</title>
<g id="a_node6"><a xlink:href="../../de/d0a/classview_1_1_drawer.html#a24eafc164d9d0ab08036dc5cf7d72dd4" target="_top" xlink:title="view.Drawer.wrapX">
<polygon fill="white" stroke="black" points="152,-38.5 152,-57.5 256,-57.5 256,-38.5 152,-38.5"/>
<text text-anchor="middle" x="204" y="-45.5" font-family="Helvetica,sans-Serif" font-size="10.00">view.Drawer.wrapX</text>
</a>
</g>
</g>
<!-- Node1&#45;&gt;Node6 -->
<g id="edge5" class="edge"><title>Node1&#45;&gt;Node6</title>
<path fill="none" stroke="midnightblue" d="M126.353,-48C134.954,-48 143.644,-48 151.929,-48"/>
<polygon fill="midnightblue" stroke="midnightblue" points="126.326,-44.5001 116.326,-48 126.326,-51.5001 126.326,-44.5001"/>
</g>
<!-- Node7 -->
<g id="node7" class="node"><title>Node7</title>
<g id="a_node7"><a xlink:href="../../de/d0a/classview_1_1_drawer.html#ad1636376006d26ed1ca9784e13f96a2a" target="_top" xlink:title="view.Drawer.wrapY">
<polygon fill="white" stroke="black" points="152.5,-0.5 152.5,-19.5 255.5,-19.5 255.5,-0.5 152.5,-0.5"/>
<text text-anchor="middle" x="204" y="-7.5" font-family="Helvetica,sans-Serif" font-size="10.00">view.Drawer.wrapY</text>
</a>
</g>
</g>
<!-- Node1&#45;&gt;Node7 -->
<g id="edge7" class="edge"><title>Node1&#45;&gt;Node7</title>
<path fill="none" stroke="midnightblue" d="M105.172,-35.8157C125.164,-30.54 148.219,-24.4562 166.924,-19.5201"/>
<polygon fill="midnightblue" stroke="midnightblue" points="104.113,-32.4752 95.3373,-38.411 105.899,-39.2435 104.113,-32.4752"/>
</g>
<!-- Node3 -->
<g id="node3" class="node"><title>Node3</title>
<g id="a_node3"><a xlink:href="../../d4/d64/classview_1_1_view_updater.html#adc0790ceed057768bd5a29a470e626d1" target="_top" xlink:title="view.ViewUpdater.updateWorkspace">
<polygon fill="white" stroke="black" points="426.5,-38.5 426.5,-57.5 613.5,-57.5 613.5,-38.5 426.5,-38.5"/>
<text text-anchor="middle" x="520" y="-45.5" font-family="Helvetica,sans-Serif" font-size="10.00">view.ViewUpdater.updateWorkspace</text>
</a>
</g>
</g>
<!-- Node2&#45;&gt;Node3 -->
<g id="edge2" class="edge"><title>Node2&#45;&gt;Node3</title>
<path fill="none" stroke="midnightblue" d="M400.382,-48C408.779,-48 417.587,-48 426.45,-48"/>
<polygon fill="midnightblue" stroke="midnightblue" points="400.366,-44.5001 390.366,-48 400.366,-51.5001 400.366,-44.5001"/>
</g>
<!-- Node4 -->
<g id="node4" class="node"><title>Node4</title>
<g id="a_node4"><a xlink:href="../../d1/dd3/classmodel_1_1instructions_1_1_movement_instruction.html#a51c776093aeb820937b12e2b89eb2f89" target="_top" xlink:title="model.instructions.Movement\lInstruction.updateView">
<polygon fill="white" stroke="black" points="650.5,-33 650.5,-63 809.5,-63 809.5,-33 650.5,-33"/>
<text text-anchor="start" x="658.5" y="-51" font-family="Helvetica,sans-Serif" font-size="10.00">model.instructions.Movement</text>
<text text-anchor="middle" x="730" y="-40" font-family="Helvetica,sans-Serif" font-size="10.00">Instruction.updateView</text>
</a>
</g>
</g>
<!-- Node3&#45;&gt;Node4 -->
<g id="edge3" class="edge"><title>Node3&#45;&gt;Node4</title>
<path fill="none" stroke="midnightblue" d="M623.821,-48C632.762,-48 641.714,-48 650.413,-48"/>
<polygon fill="midnightblue" stroke="midnightblue" points="623.746,-44.5001 613.746,-48 623.746,-51.5001 623.746,-44.5001"/>
</g>
<!-- Node5 -->
<g id="node5" class="node"><title>Node5</title>
<g id="a_node5"><a xlink:href="../../d1/dd3/classmodel_1_1instructions_1_1_movement_instruction.html#a33e802cec8283d190a8daac6e485e3b4" target="_top" xlink:title="model.instructions.Movement\lInstruction.execute">
<polygon fill="white" stroke="black" points="846.5,-33 846.5,-63 1005.5,-63 1005.5,-33 846.5,-33"/>
<text text-anchor="start" x="854.5" y="-51" font-family="Helvetica,sans-Serif" font-size="10.00">model.instructions.Movement</text>
<text text-anchor="middle" x="926" y="-40" font-family="Helvetica,sans-Serif" font-size="10.00">Instruction.execute</text>
</a>
</g>
</g>
<!-- Node4&#45;&gt;Node5 -->
<g id="edge4" class="edge"><title>Node4&#45;&gt;Node5</title>
<path fill="none" stroke="midnightblue" d="M819.895,-48C828.691,-48 837.577,-48 846.26,-48"/>
<polygon fill="midnightblue" stroke="midnightblue" points="819.628,-44.5001 809.628,-48 819.628,-51.5001 819.628,-44.5001"/>
</g>
<!-- Node6&#45;&gt;Node2 -->
<g id="edge6" class="edge"><title>Node6&#45;&gt;Node2</title>
<path fill="none" stroke="midnightblue" d="M266.277,-48C274.755,-48 283.365,-48 291.566,-48"/>
<polygon fill="midnightblue" stroke="midnightblue" points="266.038,-44.5001 256.038,-48 266.038,-51.5001 266.038,-44.5001"/>
</g>
<!-- Node7&#45;&gt;Node2 -->
<g id="edge8" class="edge"><title>Node7&#45;&gt;Node2</title>
<path fill="none" stroke="midnightblue" d="M248.762,-22.3183C267.311,-27.5393 288.599,-33.5316 305.945,-38.4141"/>
<polygon fill="midnightblue" stroke="midnightblue" points="249.64,-18.9295 239.066,-19.589 247.744,-25.6677 249.64,-18.9295"/>
</g>
</g>
</svg>
