<?xml version="1.0" encoding="UTF-8" standalone="no"?>
<!DOCTYPE svg PUBLIC "-//W3C//DTD SVG 1.1//EN"
 "http://www.w3.org/Graphics/SVG/1.1/DTD/svg11.dtd">
<!-- Generated by graphviz version 2.36.0 (20140111.2315)
 -->
<!-- Title: view.TurtleView.adjustAngle Pages: 1 -->
<svg width="1086pt" height="87pt"
 viewBox="0.00 0.00 1086.00 87.00" xmlns="http://www.w3.org/2000/svg" xmlns:xlink="http://www.w3.org/1999/xlink">
<g id="graph0" class="graph" transform="scale(1 1) rotate(0) translate(4 83)">
<title>view.TurtleView.adjustAngle</title>
<polygon fill="white" stroke="none" points="-4,4 -4,-83 1082,-83 1082,4 -4,4"/>
<!-- Node1 -->
<g id="node1" class="node"><title>Node1</title>
<polygon fill="#bfbfbf" stroke="black" points="0.5,-29.5 0.5,-48.5 145.5,-48.5 145.5,-29.5 0.5,-29.5"/>
<text text-anchor="middle" x="73" y="-36.5" font-family="Helvetica,sans-Serif" font-size="10.00">view.TurtleView.adjustAngle</text>
</g>
<!-- Node2 -->
<g id="node2" class="node"><title>Node2</title>
<g id="a_node2"><a xlink:href="../../d8/df7/classview_1_1_turtle_view.html#a166c0ff50e234c0a2725aa1cbc38c933" target="_top" xlink:title="view.TurtleView.setAbsolute\lHeading">
<polygon fill="white" stroke="black" points="182,-49 182,-79 328,-79 328,-49 182,-49"/>
<text text-anchor="start" x="190" y="-67" font-family="Helvetica,sans-Serif" font-size="10.00">view.TurtleView.setAbsolute</text>
<text text-anchor="middle" x="255" y="-56" font-family="Helvetica,sans-Serif" font-size="10.00">Heading</text>
</a>
</g>
</g>
<!-- Node1&#45;&gt;Node2 -->
<g id="edge1" class="edge"><title>Node1&#45;&gt;Node2</title>
<path fill="none" stroke="midnightblue" d="M152.58,-49.9139C162.272,-51.26 172.144,-52.6311 181.736,-53.9634"/>
<polygon fill="midnightblue" stroke="midnightblue" points="152.95,-46.4318 142.564,-48.5227 151.987,-53.3652 152.95,-46.4318"/>
</g>
<!-- Node7 -->
<g id="node7" class="node"><title>Node7</title>
<g id="a_node7"><a xlink:href="../../d8/df7/classview_1_1_turtle_view.html#a199407b3121d1bc310d7f75cdab2da94" target="_top" xlink:title="view.TurtleView.setRelative\lHeading">
<polygon fill="white" stroke="black" points="185,-0 185,-30 325,-30 325,-0 185,-0"/>
<text text-anchor="start" x="193" y="-18" font-family="Helvetica,sans-Serif" font-size="10.00">view.TurtleView.setRelative</text>
<text text-anchor="middle" x="255" y="-7" font-family="Helvetica,sans-Serif" font-size="10.00">Heading</text>
</a>
</g>
</g>
<!-- Node1&#45;&gt;Node7 -->
<g id="edge6" class="edge"><title>Node1&#45;&gt;Node7</title>
<path fill="none" stroke="midnightblue" d="M155.508,-28.1323C165.274,-26.8302 175.174,-25.5102 184.743,-24.2342"/>
<polygon fill="midnightblue" stroke="midnightblue" points="154.849,-24.6891 145.399,-29.4801 155.774,-31.6277 154.849,-24.6891"/>
</g>
<!-- Node3 -->
<g id="node3" class="node"><title>Node3</title>
<g id="a_node3"><a xlink:href="../../de/d0a/classview_1_1_drawer.html#a6b9f362b8bc763689630b1fe7b5c1887" target="_top" xlink:title="view.Drawer.draw">
<polygon fill="white" stroke="black" points="364,-29.5 364,-48.5 462,-48.5 462,-29.5 364,-29.5"/>
<text text-anchor="middle" x="413" y="-36.5" font-family="Helvetica,sans-Serif" font-size="10.00">view.Drawer.draw</text>
</a>
</g>
</g>
<!-- Node2&#45;&gt;Node3 -->
<g id="edge2" class="edge"><title>Node2&#45;&gt;Node3</title>
<path fill="none" stroke="midnightblue" d="M338.037,-50.853C346.866,-49.4382 355.626,-48.0344 363.862,-46.7144"/>
<polygon fill="midnightblue" stroke="midnightblue" points="337.384,-47.413 328.064,-52.4513 338.492,-54.3248 337.384,-47.413"/>
</g>
<!-- Node4 -->
<g id="node4" class="node"><title>Node4</title>
<g id="a_node4"><a xlink:href="../../d4/d64/classview_1_1_view_updater.html#adc0790ceed057768bd5a29a470e626d1" target="_top" xlink:title="view.ViewUpdater.updateWorkspace">
<polygon fill="white" stroke="black" points="498.5,-29.5 498.5,-48.5 685.5,-48.5 685.5,-29.5 498.5,-29.5"/>
<text text-anchor="middle" x="592" y="-36.5" font-family="Helvetica,sans-Serif" font-size="10.00">view.ViewUpdater.updateWorkspace</text>
</a>
</g>
</g>
<!-- Node3&#45;&gt;Node4 -->
<g id="edge3" class="edge"><title>Node3&#45;&gt;Node4</title>
<path fill="none" stroke="midnightblue" d="M472.382,-39C480.779,-39 489.587,-39 498.45,-39"/>
<polygon fill="midnightblue" stroke="midnightblue" points="472.366,-35.5001 462.366,-39 472.366,-42.5001 472.366,-35.5001"/>
</g>
<!-- Node5 -->
<g id="node5" class="node"><title>Node5</title>
<g id="a_node5"><a xlink:href="../../d1/dd3/classmodel_1_1instructions_1_1_movement_instruction.html#a51c776093aeb820937b12e2b89eb2f89" target="_top" xlink:title="model.instructions.Movement\lInstruction.updateView">
<polygon fill="white" stroke="black" points="722.5,-24 722.5,-54 881.5,-54 881.5,-24 722.5,-24"/>
<text text-anchor="start" x="730.5" y="-42" font-family="Helvetica,sans-Serif" font-size="10.00">model.instructions.Movement</text>
<text text-anchor="middle" x="802" y="-31" font-family="Helvetica,sans-Serif" font-size="10.00">Instruction.updateView</text>
</a>
</g>
</g>
<!-- Node4&#45;&gt;Node5 -->
<g id="edge4" class="edge"><title>Node4&#45;&gt;Node5</title>
<path fill="none" stroke="midnightblue" d="M695.821,-39C704.762,-39 713.714,-39 722.413,-39"/>
<polygon fill="midnightblue" stroke="midnightblue" points="695.746,-35.5001 685.746,-39 695.746,-42.5001 695.746,-35.5001"/>
</g>
<!-- Node6 -->
<g id="node6" class="node"><title>Node6</title>
<g id="a_node6"><a xlink:href="../../d1/dd3/classmodel_1_1instructions_1_1_movement_instruction.html#a33e802cec8283d190a8daac6e485e3b4" target="_top" xlink:title="model.instructions.Movement\lInstruction.execute">
<polygon fill="white" stroke="black" points="918.5,-24 918.5,-54 1077.5,-54 1077.5,-24 918.5,-24"/>
<text text-anchor="start" x="926.5" y="-42" font-family="Helvetica,sans-Serif" font-size="10.00">model.instructions.Movement</text>
<text text-anchor="middle" x="998" y="-31" font-family="Helvetica,sans-Serif" font-size="10.00">Instruction.execute</text>
</a>
</g>
</g>
<!-- Node5&#45;&gt;Node6 -->
<g id="edge5" class="edge"><title>Node5&#45;&gt;Node6</title>
<path fill="none" stroke="midnightblue" d="M891.895,-39C900.691,-39 909.577,-39 918.26,-39"/>
<polygon fill="midnightblue" stroke="midnightblue" points="891.628,-35.5001 881.628,-39 891.628,-42.5001 891.628,-35.5001"/>
</g>
<!-- Node7&#45;&gt;Node3 -->
<g id="edge7" class="edge"><title>Node7&#45;&gt;Node3</title>
<path fill="none" stroke="midnightblue" d="M335.442,-27.2219C345.157,-28.7165 354.843,-30.2066 363.895,-31.5993"/>
<polygon fill="midnightblue" stroke="midnightblue" points="335.748,-23.7279 325.332,-25.6665 334.684,-30.6465 335.748,-23.7279"/>
</g>
</g>
</svg>
