<?xml version="1.0" encoding="UTF-8" standalone="no"?>
<!DOCTYPE svg PUBLIC "-//W3C//DTD SVG 1.1//EN"
 "http://www.w3.org/Graphics/SVG/1.1/DTD/svg11.dtd">
<!-- Generated by graphviz version 2.36.0 (20140111.2315)
 -->
<!-- Title: view.TurtleView.getPenPosition Pages: 1 -->
<svg width="2274pt" height="471pt"
 viewBox="0.00 0.00 2274.00 471.00" xmlns="http://www.w3.org/2000/svg" xmlns:xlink="http://www.w3.org/1999/xlink">
<g id="graph0" class="graph" transform="scale(1 1) rotate(0) translate(4 467)">
<title>view.TurtleView.getPenPosition</title>
<polygon fill="white" stroke="none" points="-4,4 -4,-467 2270,-467 2270,4 -4,4"/>
<!-- Node1 -->
<g id="node1" class="node"><title>Node1</title>
<polygon fill="#bfbfbf" stroke="black" points="0,-190.5 0,-209.5 160,-209.5 160,-190.5 0,-190.5"/>
<text text-anchor="middle" x="80" y="-197.5" font-family="Helvetica,sans-Serif" font-size="10.00">view.TurtleView.getPenPosition</text>
</g>
<!-- Node2 -->
<g id="node2" class="node"><title>Node2</title>
<g id="a_node2"><a xlink:href="../../d1/dc7/classview_1_1_side_bar.html#a7d73038dbba05f96990b60664afa2670" target="_top" xlink:title="view.SideBar.updateTurtle\lProperties">
<polygon fill="white" stroke="black" points="196,-185 196,-215 334,-215 334,-185 196,-185"/>
<text text-anchor="start" x="204" y="-203" font-family="Helvetica,sans-Serif" font-size="10.00">view.SideBar.updateTurtle</text>
<text text-anchor="middle" x="265" y="-192" font-family="Helvetica,sans-Serif" font-size="10.00">Properties</text>
</a>
</g>
</g>
<!-- Node1&#45;&gt;Node2 -->
<g id="edge1" class="edge"><title>Node1&#45;&gt;Node2</title>
<path fill="none" stroke="midnightblue" d="M170.276,-200C178.883,-200 187.516,-200 195.871,-200"/>
<polygon fill="midnightblue" stroke="midnightblue" points="170.202,-196.5 160.202,-200 170.202,-203.5 170.202,-196.5"/>
</g>
<!-- Node3 -->
<g id="node3" class="node"><title>Node3</title>
<g id="a_node3"><a xlink:href="../../d4/d64/classview_1_1_view_updater.html#ace7ce28317856b4b454a798d1af23b38" target="_top" xlink:title="view.ViewUpdater.clearScreen">
<polygon fill="white" stroke="black" points="778.5,-301.5 778.5,-320.5 937.5,-320.5 937.5,-301.5 778.5,-301.5"/>
<text text-anchor="middle" x="858" y="-308.5" font-family="Helvetica,sans-Serif" font-size="10.00">view.ViewUpdater.clearScreen</text>
</a>
</g>
</g>
<!-- Node2&#45;&gt;Node3 -->
<g id="edge2" class="edge"><title>Node2&#45;&gt;Node3</title>
<path fill="none" stroke="midnightblue" d="M282.895,-222.939C301.369,-245.95 333.285,-280.057 370,-295 518.48,-355.431 713.99,-335.163 805.545,-320.555"/>
<polygon fill="midnightblue" stroke="midnightblue" points="285.625,-220.748 276.712,-215.019 280.107,-225.055 285.625,-220.748"/>
</g>
<!-- Node5 -->
<g id="node5" class="node"><title>Node5</title>
<g id="a_node5"><a xlink:href="../../de/d0a/classview_1_1_drawer.html#a6b9f362b8bc763689630b1fe7b5c1887" target="_top" xlink:title="view.Drawer.draw">
<polygon fill="white" stroke="black" points="395,-266.5 395,-285.5 493,-285.5 493,-266.5 395,-266.5"/>
<text text-anchor="middle" x="444" y="-273.5" font-family="Helvetica,sans-Serif" font-size="10.00">view.Drawer.draw</text>
</a>
</g>
</g>
<!-- Node2&#45;&gt;Node5 -->
<g id="edge4" class="edge"><title>Node2&#45;&gt;Node5</title>
<path fill="none" stroke="midnightblue" d="M298.267,-220.393C318.308,-232.365 344.942,-247.05 370,-257 379.25,-260.673 389.442,-263.84 399.201,-266.477"/>
<polygon fill="midnightblue" stroke="midnightblue" points="299.918,-217.301 289.552,-215.11 296.289,-223.287 299.918,-217.301"/>
</g>
<!-- Node8 -->
<g id="node8" class="node"><title>Node8</title>
<g id="a_node8"><a xlink:href="../../da/d64/classview_1_1_workspace.html#a16bda9a6a7fe7f8d3d7b09108675f9c4" target="_top" xlink:title="view.Workspace.setActive\lTurtle">
<polygon fill="white" stroke="black" points="375.5,-381 375.5,-411 512.5,-411 512.5,-381 375.5,-381"/>
<text text-anchor="start" x="383.5" y="-399" font-family="Helvetica,sans-Serif" font-size="10.00">view.Workspace.setActive</text>
<text text-anchor="middle" x="444" y="-388" font-family="Helvetica,sans-Serif" font-size="10.00">Turtle</text>
</a>
</g>
</g>
<!-- Node2&#45;&gt;Node8 -->
<g id="edge8" class="edge"><title>Node2&#45;&gt;Node8</title>
<path fill="none" stroke="midnightblue" d="M275.629,-224.645C290.721,-260.348 323.146,-326.494 370,-366 377.123,-372.006 385.613,-376.938 394.24,-380.943"/>
<polygon fill="midnightblue" stroke="midnightblue" points="278.71,-222.934 271.669,-215.017 272.236,-225.597 278.71,-222.934"/>
</g>
<!-- Node20 -->
<g id="node20" class="node"><title>Node20</title>
<g id="a_node20"><a xlink:href="../../d4/d64/classview_1_1_view_updater.html#ab8c47e1d6b8bc5c076184e3e0af5e4b2" target="_top" xlink:title="view.ViewUpdater.setHeading">
<polygon fill="white" stroke="black" points="569.5,-133.5 569.5,-152.5 726.5,-152.5 726.5,-133.5 569.5,-133.5"/>
<text text-anchor="middle" x="648" y="-140.5" font-family="Helvetica,sans-Serif" font-size="10.00">view.ViewUpdater.setHeading</text>
</a>
</g>
</g>
<!-- Node2&#45;&gt;Node20 -->
<g id="edge22" class="edge"><title>Node2&#45;&gt;Node20</title>
<path fill="none" stroke="midnightblue" d="M294.534,-179.22C314.553,-165.976 342.548,-150.03 370,-143 438.6,-125.434 519.928,-128.076 576.646,-133.49"/>
<polygon fill="midnightblue" stroke="midnightblue" points="292.503,-176.369 286.198,-184.884 296.437,-182.158 292.503,-176.369"/>
</g>
<!-- Node22 -->
<g id="node22" class="node"><title>Node22</title>
<g id="a_node22"><a xlink:href="../../d6/de7/classview_1_1_s_logo_view.html#ae7ad67f4b629b134cb805842a20f4050" target="_top" xlink:title="view.SLogoView.setHeading">
<polygon fill="white" stroke="black" points="370,-228.5 370,-247.5 518,-247.5 518,-228.5 370,-228.5"/>
<text text-anchor="middle" x="444" y="-235.5" font-family="Helvetica,sans-Serif" font-size="10.00">view.SLogoView.setHeading</text>
</a>
</g>
</g>
<!-- Node2&#45;&gt;Node22 -->
<g id="edge25" class="edge"><title>Node2&#45;&gt;Node22</title>
<path fill="none" stroke="midnightblue" d="M344.16,-216.78C362.819,-220.786 382.099,-224.925 398.622,-228.472"/>
<polygon fill="midnightblue" stroke="midnightblue" points="344.692,-213.315 334.18,-214.637 343.222,-220.159 344.692,-213.315"/>
</g>
<!-- Node24 -->
<g id="node24" class="node"><title>Node24</title>
<g id="a_node24"><a xlink:href="../../d4/d64/classview_1_1_view_updater.html#ad79c00c54aabbeca7b8a0461fea36c29" target="_top" xlink:title="view.ViewUpdater.setPenUp">
<polygon fill="white" stroke="black" points="573.5,-67.5 573.5,-86.5 722.5,-86.5 722.5,-67.5 573.5,-67.5"/>
<text text-anchor="middle" x="648" y="-74.5" font-family="Helvetica,sans-Serif" font-size="10.00">view.ViewUpdater.setPenUp</text>
</a>
</g>
</g>
<!-- Node2&#45;&gt;Node24 -->
<g id="edge27" class="edge"><title>Node2&#45;&gt;Node24</title>
<path fill="none" stroke="midnightblue" d="M276.585,-175.674C291.929,-143.876 323.678,-89.5811 370,-67 452.402,-26.8309 565.554,-51.9822 618.062,-67.4822"/>
<polygon fill="midnightblue" stroke="midnightblue" points="273.402,-174.217 272.351,-184.76 279.747,-177.174 273.402,-174.217"/>
</g>
<!-- Node25 -->
<g id="node25" class="node"><title>Node25</title>
<g id="a_node25"><a xlink:href="../../d6/de7/classview_1_1_s_logo_view.html#a978a65a0b82bac25044f7e2816a680cc" target="_top" xlink:title="view.SLogoView.setPenUp">
<polygon fill="white" stroke="black" points="374,-152.5 374,-171.5 514,-171.5 514,-152.5 374,-152.5"/>
<text text-anchor="middle" x="444" y="-159.5" font-family="Helvetica,sans-Serif" font-size="10.00">view.SLogoView.setPenUp</text>
</a>
</g>
</g>
<!-- Node2&#45;&gt;Node25 -->
<g id="edge29" class="edge"><title>Node2&#45;&gt;Node25</title>
<path fill="none" stroke="midnightblue" d="M344.16,-183.22C362.819,-179.214 382.099,-175.075 398.622,-171.528"/>
<polygon fill="midnightblue" stroke="midnightblue" points="343.222,-179.841 334.18,-185.363 344.692,-186.685 343.222,-179.841"/>
</g>
<!-- Node26 -->
<g id="node26" class="node"><title>Node26</title>
<g id="a_node26"><a xlink:href="../../d4/d64/classview_1_1_view_updater.html#a497cc83cdcb6fdb430bdb78431c5cd20" target="_top" xlink:title="view.ViewUpdater.setXY">
<polygon fill="white" stroke="black" points="794,-341.5 794,-360.5 922,-360.5 922,-341.5 794,-341.5"/>
<text text-anchor="middle" x="858" y="-348.5" font-family="Helvetica,sans-Serif" font-size="10.00">view.ViewUpdater.setXY</text>
</a>
</g>
</g>
<!-- Node2&#45;&gt;Node26 -->
<g id="edge30" class="edge"><title>Node2&#45;&gt;Node26</title>
<path fill="none" stroke="midnightblue" d="M277.792,-224.191C293.942,-254.316 326.029,-304.544 370,-327 442.185,-363.865 678.887,-359.006 793.58,-354.218"/>
<polygon fill="midnightblue" stroke="midnightblue" points="280.826,-222.441 273.113,-215.178 274.613,-225.666 280.826,-222.441"/>
</g>
<!-- Node27 -->
<g id="node27" class="node"><title>Node27</title>
<g id="a_node27"><a xlink:href="../../d6/de7/classview_1_1_s_logo_view.html#a0948ea67bfc088f941e2af79727231ad" target="_top" xlink:title="view.SLogoView.setXY">
<polygon fill="white" stroke="black" points="384.5,-76.5 384.5,-95.5 503.5,-95.5 503.5,-76.5 384.5,-76.5"/>
<text text-anchor="middle" x="444" y="-83.5" font-family="Helvetica,sans-Serif" font-size="10.00">view.SLogoView.setXY</text>
</a>
</g>
</g>
<!-- Node2&#45;&gt;Node27 -->
<g id="edge32" class="edge"><title>Node2&#45;&gt;Node27</title>
<path fill="none" stroke="midnightblue" d="M286.687,-177.615C306.395,-157.456 337.763,-128.266 370,-110 380.563,-104.015 392.84,-99.2527 404.278,-95.5996"/>
<polygon fill="midnightblue" stroke="midnightblue" points="284.133,-175.222 279.728,-184.858 289.18,-180.073 284.133,-175.222"/>
</g>
<!-- Node28 -->
<g id="node28" class="node"><title>Node28</title>
<g id="a_node28"><a xlink:href="../../d4/d64/classview_1_1_view_updater.html#a9797c2f411ad272a0feb84c26836bfd4" target="_top" xlink:title="view.ViewUpdater.showTurtle">
<polygon fill="white" stroke="black" points="572,-190.5 572,-209.5 724,-209.5 724,-190.5 572,-190.5"/>
<text text-anchor="middle" x="648" y="-197.5" font-family="Helvetica,sans-Serif" font-size="10.00">view.ViewUpdater.showTurtle</text>
</a>
</g>
</g>
<!-- Node2&#45;&gt;Node28 -->
<g id="edge33" class="edge"><title>Node2&#45;&gt;Node28</title>
<path fill="none" stroke="midnightblue" d="M344.155,-200C410.866,-200 506.177,-200 571.974,-200"/>
<polygon fill="midnightblue" stroke="midnightblue" points="344.115,-196.5 334.115,-200 344.115,-203.5 344.115,-196.5"/>
</g>
<!-- Node29 -->
<g id="node29" class="node"><title>Node29</title>
<g id="a_node29"><a xlink:href="../../d6/de7/classview_1_1_s_logo_view.html#a00710838e28dcb10fe6da3c0ec0c4e20" target="_top" xlink:title="view.SLogoView.showTurtle">
<polygon fill="white" stroke="black" points="372.5,-0.5 372.5,-19.5 515.5,-19.5 515.5,-0.5 372.5,-0.5"/>
<text text-anchor="middle" x="444" y="-7.5" font-family="Helvetica,sans-Serif" font-size="10.00">view.SLogoView.showTurtle</text>
</a>
</g>
</g>
<!-- Node2&#45;&gt;Node29 -->
<g id="edge35" class="edge"><title>Node2&#45;&gt;Node29</title>
<path fill="none" stroke="midnightblue" d="M275.074,-175.368C289.621,-139.209 321.542,-71.9495 370,-34 378.088,-27.6663 387.914,-22.9714 397.702,-19.5026"/>
<polygon fill="midnightblue" stroke="midnightblue" points="271.81,-174.104 271.432,-184.692 278.331,-176.65 271.81,-174.104"/>
</g>
<!-- Node4 -->
<g id="node4" class="node"><title>Node4</title>
<g id="a_node4"><a xlink:href="../../d1/dd3/classmodel_1_1instructions_1_1_movement_instruction.html#a33e802cec8283d190a8daac6e485e3b4" target="_top" xlink:title="model.instructions.Movement\lInstruction.execute">
<polygon fill="white" stroke="black" points="974.5,-220 974.5,-250 1133.5,-250 1133.5,-220 974.5,-220"/>
<text text-anchor="start" x="982.5" y="-238" font-family="Helvetica,sans-Serif" font-size="10.00">model.instructions.Movement</text>
<text text-anchor="middle" x="1054" y="-227" font-family="Helvetica,sans-Serif" font-size="10.00">Instruction.execute</text>
</a>
</g>
</g>
<!-- Node3&#45;&gt;Node4 -->
<g id="edge3" class="edge"><title>Node3&#45;&gt;Node4</title>
<path fill="none" stroke="midnightblue" d="M901.642,-298.457C913.505,-294.711 926.333,-290.417 938,-286 966.8,-275.095 998.761,-260.732 1021.66,-250.027"/>
<polygon fill="midnightblue" stroke="midnightblue" points="900.463,-295.159 891.95,-301.466 902.538,-301.844 900.463,-295.159"/>
</g>
<!-- Node6 -->
<g id="node6" class="node"><title>Node6</title>
<g id="a_node6"><a xlink:href="../../d4/d64/classview_1_1_view_updater.html#adc0790ceed057768bd5a29a470e626d1" target="_top" xlink:title="view.ViewUpdater.updateWorkspace">
<polygon fill="white" stroke="black" points="554.5,-266.5 554.5,-285.5 741.5,-285.5 741.5,-266.5 554.5,-266.5"/>
<text text-anchor="middle" x="648" y="-273.5" font-family="Helvetica,sans-Serif" font-size="10.00">view.ViewUpdater.updateWorkspace</text>
</a>
</g>
</g>
<!-- Node5&#45;&gt;Node6 -->
<g id="edge5" class="edge"><title>Node5&#45;&gt;Node6</title>
<path fill="none" stroke="midnightblue" d="M503.362,-276C519.351,-276 537.088,-276 554.485,-276"/>
<polygon fill="midnightblue" stroke="midnightblue" points="503.127,-272.5 493.127,-276 503.127,-279.5 503.127,-272.5"/>
</g>
<!-- Node7 -->
<g id="node7" class="node"><title>Node7</title>
<g id="a_node7"><a xlink:href="../../d1/dd3/classmodel_1_1instructions_1_1_movement_instruction.html#a51c776093aeb820937b12e2b89eb2f89" target="_top" xlink:title="model.instructions.Movement\lInstruction.updateView">
<polygon fill="white" stroke="black" points="778.5,-247 778.5,-277 937.5,-277 937.5,-247 778.5,-247"/>
<text text-anchor="start" x="786.5" y="-265" font-family="Helvetica,sans-Serif" font-size="10.00">model.instructions.Movement</text>
<text text-anchor="middle" x="858" y="-254" font-family="Helvetica,sans-Serif" font-size="10.00">Instruction.updateView</text>
</a>
</g>
</g>
<!-- Node6&#45;&gt;Node7 -->
<g id="edge6" class="edge"><title>Node6&#45;&gt;Node7</title>
<path fill="none" stroke="midnightblue" d="M751.821,-269.079C760.762,-268.478 769.714,-267.875 778.413,-267.289"/>
<polygon fill="midnightblue" stroke="midnightblue" points="751.489,-265.594 741.746,-269.757 751.959,-272.578 751.489,-265.594"/>
</g>
<!-- Node7&#45;&gt;Node4 -->
<g id="edge7" class="edge"><title>Node7&#45;&gt;Node4</title>
<path fill="none" stroke="midnightblue" d="M947.608,-249.668C956.498,-248.431 965.483,-247.18 974.26,-245.959"/>
<polygon fill="midnightblue" stroke="midnightblue" points="947.05,-246.212 937.628,-251.057 948.015,-253.145 947.05,-246.212"/>
</g>
<!-- Node9 -->
<g id="node9" class="node"><title>Node9</title>
<g id="a_node9"><a xlink:href="../../da/d64/classview_1_1_workspace.html#abbd85b844575ebab6643ba4ddc5a1612" target="_top" xlink:title="view.Workspace.Workspace">
<polygon fill="white" stroke="black" points="982,-380.5 982,-399.5 1126,-399.5 1126,-380.5 982,-380.5"/>
<text text-anchor="middle" x="1054" y="-387.5" font-family="Helvetica,sans-Serif" font-size="10.00">view.Workspace.Workspace</text>
</a>
</g>
</g>
<!-- Node8&#45;&gt;Node9 -->
<g id="edge9" class="edge"><title>Node8&#45;&gt;Node9</title>
<path fill="none" stroke="midnightblue" d="M522.799,-395.232C641.66,-394.059 866.74,-391.838 981.632,-390.704"/>
<polygon fill="midnightblue" stroke="midnightblue" points="522.647,-391.733 512.682,-395.332 522.716,-398.733 522.647,-391.733"/>
</g>
<!-- Node10 -->
<g id="node10" class="node"><title>Node10</title>
<g id="a_node10"><a xlink:href="../../da/d64/classview_1_1_workspace.html#a9eea72f983d5e7ad5af85056d927e380" target="_top" xlink:title="view.Workspace.configure\lTurtleEventHandler">
<polygon fill="white" stroke="black" points="579.5,-419 579.5,-449 716.5,-449 716.5,-419 579.5,-419"/>
<text text-anchor="start" x="587.5" y="-437" font-family="Helvetica,sans-Serif" font-size="10.00">view.Workspace.configure</text>
<text text-anchor="middle" x="648" y="-426" font-family="Helvetica,sans-Serif" font-size="10.00">TurtleEventHandler</text>
</a>
</g>
</g>
<!-- Node8&#45;&gt;Node10 -->
<g id="edge10" class="edge"><title>Node8&#45;&gt;Node10</title>
<path fill="none" stroke="midnightblue" d="M522.488,-410.577C541.165,-414.091 560.979,-417.818 579.176,-421.241"/>
<polygon fill="midnightblue" stroke="midnightblue" points="523.019,-407.115 512.544,-408.706 521.724,-413.995 523.019,-407.115"/>
</g>
<!-- Node11 -->
<g id="node11" class="node"><title>Node11</title>
<g id="a_node11"><a xlink:href="../../da/d64/classview_1_1_workspace.html#a4abde41a3048fa8f64ddfec40c8ffdb7" target="_top" xlink:title="view.Workspace.addTurtle">
<polygon fill="white" stroke="black" points="789.5,-424.5 789.5,-443.5 926.5,-443.5 926.5,-424.5 789.5,-424.5"/>
<text text-anchor="middle" x="858" y="-431.5" font-family="Helvetica,sans-Serif" font-size="10.00">view.Workspace.addTurtle</text>
</a>
</g>
</g>
<!-- Node10&#45;&gt;Node11 -->
<g id="edge11" class="edge"><title>Node10&#45;&gt;Node11</title>
<path fill="none" stroke="midnightblue" d="M726.541,-434C747.208,-434 769.368,-434 789.452,-434"/>
<polygon fill="midnightblue" stroke="midnightblue" points="726.532,-430.5 716.532,-434 726.532,-437.5 726.532,-430.5"/>
</g>
<!-- Node11&#45;&gt;Node9 -->
<g id="edge21" class="edge"><title>Node11&#45;&gt;Node9</title>
<path fill="none" stroke="midnightblue" d="M910.957,-422.216C942.274,-415.113 981.643,-406.184 1010.99,-399.529"/>
<polygon fill="midnightblue" stroke="midnightblue" points="910.073,-418.827 901.095,-424.453 911.622,-425.654 910.073,-418.827"/>
</g>
<!-- Node12 -->
<g id="node12" class="node"><title>Node12</title>
<g id="a_node12"><a xlink:href="../../d6/de7/classview_1_1_s_logo_view.html#acf432f20e1a7dda7bef97f0619fb0fa5" target="_top" xlink:title="view.SLogoView.configure\lAddTurtlesButton">
<polygon fill="white" stroke="black" points="985.5,-419 985.5,-449 1122.5,-449 1122.5,-419 985.5,-419"/>
<text text-anchor="start" x="993.5" y="-437" font-family="Helvetica,sans-Serif" font-size="10.00">view.SLogoView.configure</text>
<text text-anchor="middle" x="1054" y="-426" font-family="Helvetica,sans-Serif" font-size="10.00">AddTurtlesButton</text>
</a>
</g>
</g>
<!-- Node11&#45;&gt;Node12 -->
<g id="edge12" class="edge"><title>Node11&#45;&gt;Node12</title>
<path fill="none" stroke="midnightblue" d="M936.979,-434C952.99,-434 969.722,-434 985.334,-434"/>
<polygon fill="midnightblue" stroke="midnightblue" points="936.579,-430.5 926.579,-434 936.579,-437.5 936.579,-430.5"/>
</g>
<!-- Node13 -->
<g id="node13" class="node"><title>Node13</title>
<g id="a_node13"><a xlink:href="../../d6/de7/classview_1_1_s_logo_view.html#ae0050481c9168dd8eeb434d9aa79b047" target="_top" xlink:title="view.SLogoView.configureUI">
<polygon fill="white" stroke="black" points="1170.5,-424.5 1170.5,-443.5 1317.5,-443.5 1317.5,-424.5 1170.5,-424.5"/>
<text text-anchor="middle" x="1244" y="-431.5" font-family="Helvetica,sans-Serif" font-size="10.00">view.SLogoView.configureUI</text>
</a>
</g>
</g>
<!-- Node12&#45;&gt;Node13 -->
<g id="edge13" class="edge"><title>Node12&#45;&gt;Node13</title>
<path fill="none" stroke="midnightblue" d="M1132.89,-434C1145.27,-434 1158.02,-434 1170.27,-434"/>
<polygon fill="midnightblue" stroke="midnightblue" points="1132.61,-430.5 1122.61,-434 1132.61,-437.5 1132.61,-430.5"/>
</g>
<!-- Node14 -->
<g id="node14" class="node"><title>Node14</title>
<g id="a_node14"><a xlink:href="../../d1/d75/classview_1_1_main_view.html#ade3718ede33fa2086649c8b3cf75d2f9" target="_top" xlink:title="view.MainView.initTabs">
<polygon fill="white" stroke="black" points="1535.5,-443.5 1535.5,-462.5 1656.5,-462.5 1656.5,-443.5 1535.5,-443.5"/>
<text text-anchor="middle" x="1596" y="-450.5" font-family="Helvetica,sans-Serif" font-size="10.00">view.MainView.initTabs</text>
</a>
</g>
</g>
<!-- Node13&#45;&gt;Node14 -->
<g id="edge14" class="edge"><title>Node13&#45;&gt;Node14</title>
<path fill="none" stroke="midnightblue" d="M1327.56,-438.482C1391.37,-441.946 1478.18,-446.658 1535.36,-449.762"/>
<polygon fill="midnightblue" stroke="midnightblue" points="1327.7,-434.984 1317.52,-437.937 1327.32,-441.974 1327.7,-434.984"/>
</g>
<!-- Node16 -->
<g id="node16" class="node"><title>Node16</title>
<g id="a_node16"><a xlink:href="../../d1/d75/classview_1_1_main_view.html#a39a2b399924a553ccd89dd2a2e6ea208" target="_top" xlink:title="view.MainView.newTab">
<polygon fill="white" stroke="black" points="1354,-405.5 1354,-424.5 1474,-424.5 1474,-405.5 1354,-405.5"/>
<text text-anchor="middle" x="1414" y="-412.5" font-family="Helvetica,sans-Serif" font-size="10.00">view.MainView.newTab</text>
</a>
</g>
</g>
<!-- Node13&#45;&gt;Node16 -->
<g id="edge16" class="edge"><title>Node13&#45;&gt;Node16</title>
<path fill="none" stroke="midnightblue" d="M1327.65,-424.652C1336.49,-423.653 1345.34,-422.652 1353.82,-421.693"/>
<polygon fill="midnightblue" stroke="midnightblue" points="1327.25,-421.175 1317.71,-425.777 1328.04,-428.131 1327.25,-421.175"/>
</g>
<!-- Node15 -->
<g id="node15" class="node"><title>Node15</title>
<g id="a_node15"><a xlink:href="../../d1/d75/classview_1_1_main_view.html#a9e27015c007bed90f32c79fc1187083f" target="_top" xlink:title="view.MainView.MainView">
<polygon fill="white" stroke="black" points="2136,-424.5 2136,-443.5 2266,-443.5 2266,-424.5 2136,-424.5"/>
<text text-anchor="middle" x="2201" y="-431.5" font-family="Helvetica,sans-Serif" font-size="10.00">view.MainView.MainView</text>
</a>
</g>
</g>
<!-- Node14&#45;&gt;Node15 -->
<g id="edge15" class="edge"><title>Node14&#45;&gt;Node15</title>
<path fill="none" stroke="midnightblue" d="M1666.74,-450.803C1784.6,-447.089 2021.48,-439.625 2135.62,-436.029"/>
<polygon fill="midnightblue" stroke="midnightblue" points="1666.63,-447.304 1656.75,-451.117 1666.85,-454.301 1666.63,-447.304"/>
</g>
<!-- Node17 -->
<g id="node17" class="node"><title>Node17</title>
<g id="a_node17"><a xlink:href="../../d1/d75/classview_1_1_main_view.html#a0424800b5057be73f94e16ef2e1e2b33" target="_top" xlink:title="view.MainView.configureFileMenu">
<polygon fill="white" stroke="black" points="1510.5,-405.5 1510.5,-424.5 1681.5,-424.5 1681.5,-405.5 1510.5,-405.5"/>
<text text-anchor="middle" x="1596" y="-412.5" font-family="Helvetica,sans-Serif" font-size="10.00">view.MainView.configureFileMenu</text>
</a>
</g>
</g>
<!-- Node16&#45;&gt;Node17 -->
<g id="edge17" class="edge"><title>Node16&#45;&gt;Node17</title>
<path fill="none" stroke="midnightblue" d="M1484.55,-415C1492.96,-415 1501.62,-415 1510.22,-415"/>
<polygon fill="midnightblue" stroke="midnightblue" points="1484.44,-411.5 1474.44,-415 1484.44,-418.5 1484.44,-411.5"/>
</g>
<!-- Node18 -->
<g id="node18" class="node"><title>Node18</title>
<g id="a_node18"><a xlink:href="../../d1/d75/classview_1_1_main_view.html#a200c2c8e08e038e2ea86acc40c17d8d2" target="_top" xlink:title="view.MainView.configureTopMenu">
<polygon fill="white" stroke="black" points="1718,-405.5 1718,-424.5 1890,-424.5 1890,-405.5 1718,-405.5"/>
<text text-anchor="middle" x="1804" y="-412.5" font-family="Helvetica,sans-Serif" font-size="10.00">view.MainView.configureTopMenu</text>
</a>
</g>
</g>
<!-- Node17&#45;&gt;Node18 -->
<g id="edge18" class="edge"><title>Node17&#45;&gt;Node18</title>
<path fill="none" stroke="midnightblue" d="M1691.86,-415C1700.57,-415 1709.36,-415 1717.98,-415"/>
<polygon fill="midnightblue" stroke="midnightblue" points="1691.68,-411.5 1681.68,-415 1691.68,-418.5 1691.68,-411.5"/>
</g>
<!-- Node19 -->
<g id="node19" class="node"><title>Node19</title>
<g id="a_node19"><a xlink:href="../../d1/d75/classview_1_1_main_view.html#aff9e267e9368512a16e425f08d7b3ea0" target="_top" xlink:title="view.MainView.initRowConstraints">
<polygon fill="white" stroke="black" points="1926.5,-405.5 1926.5,-424.5 2099.5,-424.5 2099.5,-405.5 1926.5,-405.5"/>
<text text-anchor="middle" x="2013" y="-412.5" font-family="Helvetica,sans-Serif" font-size="10.00">view.MainView.initRowConstraints</text>
</a>
</g>
</g>
<!-- Node18&#45;&gt;Node19 -->
<g id="edge19" class="edge"><title>Node18&#45;&gt;Node19</title>
<path fill="none" stroke="midnightblue" d="M1900.22,-415C1908.9,-415 1917.65,-415 1926.24,-415"/>
<polygon fill="midnightblue" stroke="midnightblue" points="1900.09,-411.5 1890.09,-415 1900.09,-418.5 1900.09,-411.5"/>
</g>
<!-- Node19&#45;&gt;Node15 -->
<g id="edge20" class="edge"><title>Node19&#45;&gt;Node15</title>
<path fill="none" stroke="midnightblue" d="M2109.68,-424.774C2118.57,-425.682 2127.43,-426.587 2135.92,-427.455"/>
<polygon fill="midnightblue" stroke="midnightblue" points="2109.95,-421.284 2099.65,-423.749 2109.24,-428.247 2109.95,-421.284"/>
</g>
<!-- Node21 -->
<g id="node21" class="node"><title>Node21</title>
<g id="a_node21"><a xlink:href="../../d4/d64/classview_1_1_view_updater.html#ad29dfbb2499161b985c26e01f73ea5ac" target="_top" xlink:title="view.ViewUpdater.towards">
<polygon fill="white" stroke="black" points="788,-143.5 788,-162.5 928,-162.5 928,-143.5 788,-143.5"/>
<text text-anchor="middle" x="858" y="-150.5" font-family="Helvetica,sans-Serif" font-size="10.00">view.ViewUpdater.towards</text>
</a>
</g>
</g>
<!-- Node20&#45;&gt;Node21 -->
<g id="edge23" class="edge"><title>Node20&#45;&gt;Node21</title>
<path fill="none" stroke="midnightblue" d="M737.207,-147.241C754.152,-148.055 771.669,-148.898 787.903,-149.678"/>
<polygon fill="midnightblue" stroke="midnightblue" points="736.904,-143.722 726.747,-146.738 736.568,-150.714 736.904,-143.722"/>
</g>
<!-- Node21&#45;&gt;Node4 -->
<g id="edge24" class="edge"><title>Node21&#45;&gt;Node4</title>
<path fill="none" stroke="midnightblue" d="M890.858,-166.466C925.632,-181.164 981.174,-204.641 1017.37,-219.94"/>
<polygon fill="midnightblue" stroke="midnightblue" points="892.208,-163.236 881.634,-162.567 889.482,-169.684 892.208,-163.236"/>
</g>
<!-- Node23 -->
<g id="node23" class="node"><title>Node23</title>
<g id="a_node23"><a xlink:href="../../d6/de7/classview_1_1_s_logo_view.html#afa2b659c4d080b5f927978b453633ab2" target="_top" xlink:title="view.SLogoView.towards">
<polygon fill="white" stroke="black" points="582.5,-228.5 582.5,-247.5 713.5,-247.5 713.5,-228.5 582.5,-228.5"/>
<text text-anchor="middle" x="648" y="-235.5" font-family="Helvetica,sans-Serif" font-size="10.00">view.SLogoView.towards</text>
</a>
</g>
</g>
<!-- Node22&#45;&gt;Node23 -->
<g id="edge26" class="edge"><title>Node22&#45;&gt;Node23</title>
<path fill="none" stroke="midnightblue" d="M528.42,-238C546.438,-238 565.226,-238 582.395,-238"/>
<polygon fill="midnightblue" stroke="midnightblue" points="528.212,-234.5 518.212,-238 528.212,-241.5 528.212,-234.5"/>
</g>
<!-- Node24&#45;&gt;Node4 -->
<g id="edge28" class="edge"><title>Node24&#45;&gt;Node4</title>
<path fill="none" stroke="midnightblue" d="M732.892,-81.9341C792.655,-88.1579 873.491,-102.223 938,-134 981.383,-155.37 1021.21,-197.403 1040.6,-219.918"/>
<polygon fill="midnightblue" stroke="midnightblue" points="733.034,-78.4312 722.739,-80.9307 732.346,-85.3973 733.034,-78.4312"/>
</g>
<!-- Node26&#45;&gt;Node4 -->
<g id="edge31" class="edge"><title>Node26&#45;&gt;Node4</title>
<path fill="none" stroke="midnightblue" d="M918.277,-338.26C925.093,-335.919 931.81,-333.184 938,-330 978.99,-308.913 1018.58,-271.222 1038.89,-250.211"/>
<polygon fill="midnightblue" stroke="midnightblue" points="916.755,-335.07 908.27,-341.414 918.859,-341.746 916.755,-335.07"/>
</g>
<!-- Node28&#45;&gt;Node4 -->
<g id="edge34" class="edge"><title>Node28&#45;&gt;Node4</title>
<path fill="none" stroke="midnightblue" d="M734.28,-207.388C805.155,-213.528 905.212,-222.197 974.221,-228.175"/>
<polygon fill="midnightblue" stroke="midnightblue" points="734.307,-203.877 724.042,-206.501 733.703,-210.851 734.307,-203.877"/>
</g>
</g>
</svg>
