<?xml version="1.0" encoding="UTF-8" standalone="no"?>
<!DOCTYPE svg PUBLIC "-//W3C//DTD SVG 1.1//EN"
 "http://www.w3.org/Graphics/SVG/1.1/DTD/svg11.dtd">
<!-- Generated by graphviz version 2.36.0 (20140111.2315)
 -->
<!-- Title: view.TurtleView.getPenUp Pages: 1 -->
<svg width="1034pt" height="79pt"
 viewBox="0.00 0.00 1034.00 78.62" xmlns="http://www.w3.org/2000/svg" xmlns:xlink="http://www.w3.org/1999/xlink">
<g id="graph0" class="graph" transform="scale(1 1) rotate(0) translate(4 74.6177)">
<title>view.TurtleView.getPenUp</title>
<polygon fill="white" stroke="none" points="-4,4 -4,-74.6177 1030,-74.6177 1030,4 -4,4"/>
<!-- Node1 -->
<g id="node1" class="node"><title>Node1</title>
<polygon fill="#bfbfbf" stroke="black" points="0,-38.5 0,-57.5 136,-57.5 136,-38.5 0,-38.5"/>
<text text-anchor="middle" x="68" y="-45.5" font-family="Helvetica,sans-Serif" font-size="10.00">view.TurtleView.getPenUp</text>
</g>
<!-- Node2 -->
<g id="node2" class="node"><title>Node2</title>
<g id="a_node2"><a xlink:href="../../de/d0a/classview_1_1_drawer.html#a6b9f362b8bc763689630b1fe7b5c1887" target="_top" xlink:title="view.Drawer.draw">
<polygon fill="white" stroke="black" points="312,-38.5 312,-57.5 410,-57.5 410,-38.5 312,-38.5"/>
<text text-anchor="middle" x="361" y="-45.5" font-family="Helvetica,sans-Serif" font-size="10.00">view.Drawer.draw</text>
</a>
</g>
</g>
<!-- Node1&#45;&gt;Node2 -->
<g id="edge1" class="edge"><title>Node1&#45;&gt;Node2</title>
<path fill="none" stroke="midnightblue" d="M120.747,-59.4511C137.059,-62.5468 155.205,-65.4639 172,-67 218.03,-71.21 230.063,-72.1304 276,-67 292.642,-65.1413 310.801,-61.2722 325.963,-57.5077"/>
<polygon fill="midnightblue" stroke="midnightblue" points="121.341,-56.0012 110.855,-57.5112 119.994,-62.8703 121.341,-56.0012"/>
</g>
<!-- Node6 -->
<g id="node6" class="node"><title>Node6</title>
<g id="a_node6"><a xlink:href="../../de/d0a/classview_1_1_drawer.html#a24eafc164d9d0ab08036dc5cf7d72dd4" target="_top" xlink:title="view.Drawer.wrapX">
<polygon fill="white" stroke="black" points="172,-38.5 172,-57.5 276,-57.5 276,-38.5 172,-38.5"/>
<text text-anchor="middle" x="224" y="-45.5" font-family="Helvetica,sans-Serif" font-size="10.00">view.Drawer.wrapX</text>
</a>
</g>
</g>
<!-- Node1&#45;&gt;Node6 -->
<g id="edge5" class="edge"><title>Node1&#45;&gt;Node6</title>
<path fill="none" stroke="midnightblue" d="M146.271,-48C154.957,-48 163.639,-48 171.874,-48"/>
<polygon fill="midnightblue" stroke="midnightblue" points="146.099,-44.5001 136.099,-48 146.099,-51.5001 146.099,-44.5001"/>
</g>
<!-- Node7 -->
<g id="node7" class="node"><title>Node7</title>
<g id="a_node7"><a xlink:href="../../de/d0a/classview_1_1_drawer.html#ad1636376006d26ed1ca9784e13f96a2a" target="_top" xlink:title="view.Drawer.wrapY">
<polygon fill="white" stroke="black" points="172.5,-0.5 172.5,-19.5 275.5,-19.5 275.5,-0.5 172.5,-0.5"/>
<text text-anchor="middle" x="224" y="-7.5" font-family="Helvetica,sans-Serif" font-size="10.00">view.Drawer.wrapY</text>
</a>
</g>
</g>
<!-- Node1&#45;&gt;Node7 -->
<g id="edge7" class="edge"><title>Node1&#45;&gt;Node7</title>
<path fill="none" stroke="midnightblue" d="M117.794,-35.96C139.308,-30.6512 164.232,-24.5012 184.419,-19.5201"/>
<polygon fill="midnightblue" stroke="midnightblue" points="116.731,-32.6172 107.861,-38.411 118.408,-39.4133 116.731,-32.6172"/>
</g>
<!-- Node3 -->
<g id="node3" class="node"><title>Node3</title>
<g id="a_node3"><a xlink:href="../../d4/d64/classview_1_1_view_updater.html#adc0790ceed057768bd5a29a470e626d1" target="_top" xlink:title="view.ViewUpdater.updateWorkspace">
<polygon fill="white" stroke="black" points="446.5,-38.5 446.5,-57.5 633.5,-57.5 633.5,-38.5 446.5,-38.5"/>
<text text-anchor="middle" x="540" y="-45.5" font-family="Helvetica,sans-Serif" font-size="10.00">view.ViewUpdater.updateWorkspace</text>
</a>
</g>
</g>
<!-- Node2&#45;&gt;Node3 -->
<g id="edge2" class="edge"><title>Node2&#45;&gt;Node3</title>
<path fill="none" stroke="midnightblue" d="M420.382,-48C428.779,-48 437.587,-48 446.45,-48"/>
<polygon fill="midnightblue" stroke="midnightblue" points="420.366,-44.5001 410.366,-48 420.366,-51.5001 420.366,-44.5001"/>
</g>
<!-- Node4 -->
<g id="node4" class="node"><title>Node4</title>
<g id="a_node4"><a xlink:href="../../d1/dd3/classmodel_1_1instructions_1_1_movement_instruction.html#a51c776093aeb820937b12e2b89eb2f89" target="_top" xlink:title="model.instructions.Movement\lInstruction.updateView">
<polygon fill="white" stroke="black" points="670.5,-33 670.5,-63 829.5,-63 829.5,-33 670.5,-33"/>
<text text-anchor="start" x="678.5" y="-51" font-family="Helvetica,sans-Serif" font-size="10.00">model.instructions.Movement</text>
<text text-anchor="middle" x="750" y="-40" font-family="Helvetica,sans-Serif" font-size="10.00">Instruction.updateView</text>
</a>
</g>
</g>
<!-- Node3&#45;&gt;Node4 -->
<g id="edge3" class="edge"><title>Node3&#45;&gt;Node4</title>
<path fill="none" stroke="midnightblue" d="M643.821,-48C652.762,-48 661.714,-48 670.413,-48"/>
<polygon fill="midnightblue" stroke="midnightblue" points="643.746,-44.5001 633.746,-48 643.746,-51.5001 643.746,-44.5001"/>
</g>
<!-- Node5 -->
<g id="node5" class="node"><title>Node5</title>
<g id="a_node5"><a xlink:href="../../d1/dd3/classmodel_1_1instructions_1_1_movement_instruction.html#a33e802cec8283d190a8daac6e485e3b4" target="_top" xlink:title="model.instructions.Movement\lInstruction.execute">
<polygon fill="white" stroke="black" points="866.5,-33 866.5,-63 1025.5,-63 1025.5,-33 866.5,-33"/>
<text text-anchor="start" x="874.5" y="-51" font-family="Helvetica,sans-Serif" font-size="10.00">model.instructions.Movement</text>
<text text-anchor="middle" x="946" y="-40" font-family="Helvetica,sans-Serif" font-size="10.00">Instruction.execute</text>
</a>
</g>
</g>
<!-- Node4&#45;&gt;Node5 -->
<g id="edge4" class="edge"><title>Node4&#45;&gt;Node5</title>
<path fill="none" stroke="midnightblue" d="M839.895,-48C848.691,-48 857.577,-48 866.26,-48"/>
<polygon fill="midnightblue" stroke="midnightblue" points="839.628,-44.5001 829.628,-48 839.628,-51.5001 839.628,-44.5001"/>
</g>
<!-- Node6&#45;&gt;Node2 -->
<g id="edge6" class="edge"><title>Node6&#45;&gt;Node2</title>
<path fill="none" stroke="midnightblue" d="M286.277,-48C294.755,-48 303.365,-48 311.566,-48"/>
<polygon fill="midnightblue" stroke="midnightblue" points="286.038,-44.5001 276.038,-48 286.038,-51.5001 286.038,-44.5001"/>
</g>
<!-- Node7&#45;&gt;Node2 -->
<g id="edge8" class="edge"><title>Node7&#45;&gt;Node2</title>
<path fill="none" stroke="midnightblue" d="M268.762,-22.3183C287.311,-27.5393 308.599,-33.5316 325.945,-38.4141"/>
<polygon fill="midnightblue" stroke="midnightblue" points="269.64,-18.9295 259.066,-19.589 267.744,-25.6677 269.64,-18.9295"/>
</g>
</g>
</svg>
