<?xml version="1.0" encoding="UTF-8" standalone="no"?>
<!DOCTYPE svg PUBLIC "-//W3C//DTD SVG 1.1//EN"
 "http://www.w3.org/Graphics/SVG/1.1/DTD/svg11.dtd">
<!-- Generated by graphviz version 2.36.0 (20140111.2315)
 -->
<!-- Title: view.TurtleView.getYCoord Pages: 1 -->
<svg width="2488pt" height="464pt"
 viewBox="0.00 0.00 2488.00 464.41" xmlns="http://www.w3.org/2000/svg" xmlns:xlink="http://www.w3.org/1999/xlink">
<g id="graph0" class="graph" transform="scale(1 1) rotate(0) translate(4 460.409)">
<title>view.TurtleView.getYCoord</title>
<polygon fill="white" stroke="none" points="-4,4 -4,-460.409 2484,-460.409 2484,4 -4,4"/>
<!-- Node1 -->
<g id="node1" class="node"><title>Node1</title>
<polygon fill="#bfbfbf" stroke="black" points="0.5,-289.909 0.5,-308.909 137.5,-308.909 137.5,-289.909 0.5,-289.909"/>
<text text-anchor="middle" x="69" y="-296.909" font-family="Helvetica,sans-Serif" font-size="10.00">view.TurtleView.getYCoord</text>
</g>
<!-- Node2 -->
<g id="node2" class="node"><title>Node2</title>
<g id="a_node2"><a xlink:href="../../d8/df7/classview_1_1_turtle_view.html#a2efe7ca23cb6fdf75e0bfba1108d3af6" target="_top" xlink:title="view.TurtleView.createStamp">
<polygon fill="white" stroke="black" points="184,-322.909 184,-341.909 336,-341.909 336,-322.909 184,-322.909"/>
<text text-anchor="middle" x="260" y="-329.909" font-family="Helvetica,sans-Serif" font-size="10.00">view.TurtleView.createStamp</text>
</a>
</g>
</g>
<!-- Node1&#45;&gt;Node2 -->
<g id="edge1" class="edge"><title>Node1&#45;&gt;Node2</title>
<path fill="none" stroke="midnightblue" d="M134.323,-310.64C157.077,-314.613 182.439,-319.041 204.317,-322.861"/>
<polygon fill="midnightblue" stroke="midnightblue" points="134.866,-307.182 124.413,-308.909 133.662,-314.077 134.866,-307.182"/>
</g>
<!-- Node5 -->
<g id="node5" class="node"><title>Node5</title>
<g id="a_node5"><a xlink:href="../../d9/d3a/classview_1_1_turtle_properties_view.html#af07bce3cf2bed2814a0fb3812d00b69e" target="_top" xlink:title="view.TurtlePropertiesView.update">
<polygon fill="white" stroke="black" points="174.5,-257.909 174.5,-276.909 345.5,-276.909 345.5,-257.909 174.5,-257.909"/>
<text text-anchor="middle" x="260" y="-264.909" font-family="Helvetica,sans-Serif" font-size="10.00">view.TurtlePropertiesView.update</text>
</a>
</g>
</g>
<!-- Node1&#45;&gt;Node5 -->
<g id="edge4" class="edge"><title>Node1&#45;&gt;Node5</title>
<path fill="none" stroke="midnightblue" d="M136.307,-288.182C157.98,-284.513 181.831,-280.474 202.696,-276.942"/>
<polygon fill="midnightblue" stroke="midnightblue" points="135.47,-284.774 126.195,-289.894 136.638,-291.676 135.47,-284.774"/>
</g>
<!-- Node3 -->
<g id="node3" class="node"><title>Node3</title>
<g id="a_node3"><a xlink:href="../../d4/d64/classview_1_1_view_updater.html#a2a80f45d7af563e6b2b75bf3488e254c" target="_top" xlink:title="view.ViewUpdater.createStamp">
<polygon fill="white" stroke="black" points="382.5,-349.909 382.5,-368.909 547.5,-368.909 547.5,-349.909 382.5,-349.909"/>
<text text-anchor="middle" x="465" y="-356.909" font-family="Helvetica,sans-Serif" font-size="10.00">view.ViewUpdater.createStamp</text>
</a>
</g>
</g>
<!-- Node2&#45;&gt;Node3 -->
<g id="edge2" class="edge"><title>Node2&#45;&gt;Node3</title>
<path fill="none" stroke="midnightblue" d="M342.702,-343.275C359.15,-345.463 376.32,-347.747 392.392,-349.884"/>
<polygon fill="midnightblue" stroke="midnightblue" points="342.944,-339.777 332.57,-341.928 342.021,-346.716 342.944,-339.777"/>
</g>
<!-- Node4 -->
<g id="node4" class="node"><title>Node4</title>
<g id="a_node4"><a xlink:href="../../d2/d2b/classmodel_1_1instructions_1_1_front_end_instruction.html#ad73f35e44bf151648463df17e10152ac" target="_top" xlink:title="model.instructions.Front\lEndInstruction.execute">
<polygon fill="white" stroke="black" points="592,-426.409 592,-456.409 724,-456.409 724,-426.409 592,-426.409"/>
<text text-anchor="start" x="600" y="-444.409" font-family="Helvetica,sans-Serif" font-size="10.00">model.instructions.Front</text>
<text text-anchor="middle" x="658" y="-433.409" font-family="Helvetica,sans-Serif" font-size="10.00">EndInstruction.execute</text>
</a>
</g>
</g>
<!-- Node3&#45;&gt;Node4 -->
<g id="edge3" class="edge"><title>Node3&#45;&gt;Node4</title>
<path fill="none" stroke="midnightblue" d="M493.152,-373.677C516.8,-385.824 552.189,-403.334 584,-416.409 592.425,-419.872 601.526,-423.259 610.347,-426.366"/>
<polygon fill="midnightblue" stroke="midnightblue" points="494.576,-370.473 484.086,-368.987 491.36,-376.691 494.576,-370.473"/>
</g>
<!-- Node6 -->
<g id="node6" class="node"><title>Node6</title>
<g id="a_node6"><a xlink:href="../../d1/dc7/classview_1_1_side_bar.html#a7d73038dbba05f96990b60664afa2670" target="_top" xlink:title="view.SideBar.updateTurtle\lProperties">
<polygon fill="white" stroke="black" points="396,-199.409 396,-229.409 534,-229.409 534,-199.409 396,-199.409"/>
<text text-anchor="start" x="404" y="-217.409" font-family="Helvetica,sans-Serif" font-size="10.00">view.SideBar.updateTurtle</text>
<text text-anchor="middle" x="465" y="-206.409" font-family="Helvetica,sans-Serif" font-size="10.00">Properties</text>
</a>
</g>
</g>
<!-- Node5&#45;&gt;Node6 -->
<g id="edge5" class="edge"><title>Node5&#45;&gt;Node6</title>
<path fill="none" stroke="midnightblue" d="M307.757,-255.201C337.113,-247.537 375.188,-237.596 406.402,-229.447"/>
<polygon fill="midnightblue" stroke="midnightblue" points="306.553,-251.898 297.762,-257.811 308.322,-258.671 306.553,-251.898"/>
</g>
<!-- Node7 -->
<g id="node7" class="node"><title>Node7</title>
<g id="a_node7"><a xlink:href="../../d4/d64/classview_1_1_view_updater.html#ace7ce28317856b4b454a798d1af23b38" target="_top" xlink:title="view.ViewUpdater.clearScreen">
<polygon fill="white" stroke="black" points="992.5,-258.909 992.5,-277.909 1151.5,-277.909 1151.5,-258.909 992.5,-258.909"/>
<text text-anchor="middle" x="1072" y="-265.909" font-family="Helvetica,sans-Serif" font-size="10.00">view.ViewUpdater.clearScreen</text>
</a>
</g>
</g>
<!-- Node6&#45;&gt;Node7 -->
<g id="edge6" class="edge"><title>Node6&#45;&gt;Node7</title>
<path fill="none" stroke="midnightblue" d="M513.045,-232.885C534.362,-240.386 560.096,-248.251 584,-252.409 726.308,-277.159 895.436,-276.011 992.296,-272.501"/>
<polygon fill="midnightblue" stroke="midnightblue" points="514.179,-229.574 503.585,-229.479 511.808,-236.16 514.179,-229.574"/>
</g>
<!-- Node9 -->
<g id="node9" class="node"><title>Node9</title>
<g id="a_node9"><a xlink:href="../../de/d0a/classview_1_1_drawer.html#a6b9f362b8bc763689630b1fe7b5c1887" target="_top" xlink:title="view.Drawer.draw">
<polygon fill="white" stroke="black" points="609,-223.909 609,-242.909 707,-242.909 707,-223.909 609,-223.909"/>
<text text-anchor="middle" x="658" y="-230.909" font-family="Helvetica,sans-Serif" font-size="10.00">view.Drawer.draw</text>
</a>
</g>
</g>
<!-- Node6&#45;&gt;Node9 -->
<g id="edge8" class="edge"><title>Node6&#45;&gt;Node9</title>
<path fill="none" stroke="midnightblue" d="M544.131,-222.181C566.095,-224.366 589.327,-226.677 608.967,-228.631"/>
<polygon fill="midnightblue" stroke="midnightblue" points="544.444,-218.695 534.146,-221.188 543.751,-225.66 544.444,-218.695"/>
</g>
<!-- Node12 -->
<g id="node12" class="node"><title>Node12</title>
<g id="a_node12"><a xlink:href="../../da/d64/classview_1_1_workspace.html#a16bda9a6a7fe7f8d3d7b09108675f9c4" target="_top" xlink:title="view.Workspace.setActive\lTurtle">
<polygon fill="white" stroke="black" points="589.5,-338.409 589.5,-368.409 726.5,-368.409 726.5,-338.409 589.5,-338.409"/>
<text text-anchor="start" x="597.5" y="-356.409" font-family="Helvetica,sans-Serif" font-size="10.00">view.Workspace.setActive</text>
<text text-anchor="middle" x="658" y="-345.409" font-family="Helvetica,sans-Serif" font-size="10.00">Turtle</text>
</a>
</g>
</g>
<!-- Node6&#45;&gt;Node12 -->
<g id="edge12" class="edge"><title>Node6&#45;&gt;Node12</title>
<path fill="none" stroke="midnightblue" d="M486.021,-237.205C508.08,-261.218 545.554,-298.883 584,-323.409 593.01,-329.157 603.307,-334.187 613.269,-338.403"/>
<polygon fill="midnightblue" stroke="midnightblue" points="488.46,-234.684 479.152,-229.624 483.273,-239.384 488.46,-234.684"/>
</g>
<!-- Node24 -->
<g id="node24" class="node"><title>Node24</title>
<g id="a_node24"><a xlink:href="../../d4/d64/classview_1_1_view_updater.html#ab8c47e1d6b8bc5c076184e3e0af5e4b2" target="_top" xlink:title="view.ViewUpdater.setHeading">
<polygon fill="white" stroke="black" points="783.5,-90.9087 783.5,-109.909 940.5,-109.909 940.5,-90.9087 783.5,-90.9087"/>
<text text-anchor="middle" x="862" y="-97.9087" font-family="Helvetica,sans-Serif" font-size="10.00">view.ViewUpdater.setHeading</text>
</a>
</g>
</g>
<!-- Node6&#45;&gt;Node24 -->
<g id="edge26" class="edge"><title>Node6&#45;&gt;Node24</title>
<path fill="none" stroke="midnightblue" d="M481.612,-190.865C501.562,-163.155 538.96,-118.612 584,-100.409 661.804,-68.9643 762.243,-80.3875 818.308,-90.8478"/>
<polygon fill="midnightblue" stroke="midnightblue" points="478.633,-189.017 475.76,-199.215 484.365,-193.035 478.633,-189.017"/>
</g>
<!-- Node26 -->
<g id="node26" class="node"><title>Node26</title>
<g id="a_node26"><a xlink:href="../../d6/de7/classview_1_1_s_logo_view.html#ae7ad67f4b629b134cb805842a20f4050" target="_top" xlink:title="view.SLogoView.setHeading">
<polygon fill="white" stroke="black" points="584,-185.909 584,-204.909 732,-204.909 732,-185.909 584,-185.909"/>
<text text-anchor="middle" x="658" y="-192.909" font-family="Helvetica,sans-Serif" font-size="10.00">view.SLogoView.setHeading</text>
</a>
</g>
</g>
<!-- Node6&#45;&gt;Node26 -->
<g id="edge29" class="edge"><title>Node6&#45;&gt;Node26</title>
<path fill="none" stroke="midnightblue" d="M544.447,-206.605C557.432,-205.313 570.851,-203.979 583.702,-202.7"/>
<polygon fill="midnightblue" stroke="midnightblue" points="543.751,-203.157 534.146,-207.63 544.444,-210.123 543.751,-203.157"/>
</g>
<!-- Node28 -->
<g id="node28" class="node"><title>Node28</title>
<g id="a_node28"><a xlink:href="../../d4/d64/classview_1_1_view_updater.html#ad79c00c54aabbeca7b8a0461fea36c29" target="_top" xlink:title="view.ViewUpdater.setPenUp">
<polygon fill="white" stroke="black" points="787.5,-24.9087 787.5,-43.9087 936.5,-43.9087 936.5,-24.9087 787.5,-24.9087"/>
<text text-anchor="middle" x="862" y="-31.9087" font-family="Helvetica,sans-Serif" font-size="10.00">view.ViewUpdater.setPenUp</text>
</a>
</g>
</g>
<!-- Node6&#45;&gt;Node28 -->
<g id="edge31" class="edge"><title>Node6&#45;&gt;Node28</title>
<path fill="none" stroke="midnightblue" d="M472.757,-189.768C485.973,-146.992 519.731,-60.149 584,-24.4087 665.378,20.8464 781.992,-8.02469 834.082,-24.8193"/>
<polygon fill="midnightblue" stroke="midnightblue" points="469.389,-188.815 469.901,-199.397 476.1,-190.805 469.389,-188.815"/>
</g>
<!-- Node29 -->
<g id="node29" class="node"><title>Node29</title>
<g id="a_node29"><a xlink:href="../../d6/de7/classview_1_1_s_logo_view.html#a978a65a0b82bac25044f7e2816a680cc" target="_top" xlink:title="view.SLogoView.setPenUp">
<polygon fill="white" stroke="black" points="588,-109.909 588,-128.909 728,-128.909 728,-109.909 588,-109.909"/>
<text text-anchor="middle" x="658" y="-116.909" font-family="Helvetica,sans-Serif" font-size="10.00">view.SLogoView.setPenUp</text>
</a>
</g>
</g>
<!-- Node6&#45;&gt;Node29 -->
<g id="edge33" class="edge"><title>Node6&#45;&gt;Node29</title>
<path fill="none" stroke="midnightblue" d="M496.193,-193.653C519.44,-178.321 552.777,-157.715 584,-143.409 596.25,-137.796 610.196,-132.876 622.594,-128.976"/>
<polygon fill="midnightblue" stroke="midnightblue" points="494.182,-190.787 487.803,-199.246 498.065,-196.612 494.182,-190.787"/>
</g>
<!-- Node30 -->
<g id="node30" class="node"><title>Node30</title>
<g id="a_node30"><a xlink:href="../../d4/d64/classview_1_1_view_updater.html#a497cc83cdcb6fdb430bdb78431c5cd20" target="_top" xlink:title="view.ViewUpdater.setXY">
<polygon fill="white" stroke="black" points="1008,-298.909 1008,-317.909 1136,-317.909 1136,-298.909 1008,-298.909"/>
<text text-anchor="middle" x="1072" y="-305.909" font-family="Helvetica,sans-Serif" font-size="10.00">view.ViewUpdater.setXY</text>
</a>
</g>
</g>
<!-- Node6&#45;&gt;Node30 -->
<g id="edge34" class="edge"><title>Node6&#45;&gt;Node30</title>
<path fill="none" stroke="midnightblue" d="M496.961,-234.907C519.951,-248.982 552.627,-266.645 584,-275.409 731.525,-316.617 913.504,-316.085 1007.74,-312.213"/>
<polygon fill="midnightblue" stroke="midnightblue" points="498.678,-231.854 488.343,-229.522 494.968,-237.79 498.678,-231.854"/>
</g>
<!-- Node31 -->
<g id="node31" class="node"><title>Node31</title>
<g id="a_node31"><a xlink:href="../../d6/de7/classview_1_1_s_logo_view.html#a0948ea67bfc088f941e2af79727231ad" target="_top" xlink:title="view.SLogoView.setXY">
<polygon fill="white" stroke="black" points="598.5,-33.9087 598.5,-52.9087 717.5,-52.9087 717.5,-33.9087 598.5,-33.9087"/>
<text text-anchor="middle" x="658" y="-40.9087" font-family="Helvetica,sans-Serif" font-size="10.00">view.SLogoView.setXY</text>
</a>
</g>
</g>
<!-- Node6&#45;&gt;Node31 -->
<g id="edge36" class="edge"><title>Node6&#45;&gt;Node31</title>
<path fill="none" stroke="midnightblue" d="M479.313,-190.242C498.392,-157.765 536.506,-100.323 584,-67.4087 592.992,-61.1775 603.713,-56.4758 614.133,-52.963"/>
<polygon fill="midnightblue" stroke="midnightblue" points="476.181,-188.668 474.229,-199.082 482.249,-192.158 476.181,-188.668"/>
</g>
<!-- Node32 -->
<g id="node32" class="node"><title>Node32</title>
<g id="a_node32"><a xlink:href="../../d4/d64/classview_1_1_view_updater.html#a9797c2f411ad272a0feb84c26836bfd4" target="_top" xlink:title="view.ViewUpdater.showTurtle">
<polygon fill="white" stroke="black" points="786,-147.909 786,-166.909 938,-166.909 938,-147.909 786,-147.909"/>
<text text-anchor="middle" x="862" y="-154.909" font-family="Helvetica,sans-Serif" font-size="10.00">view.ViewUpdater.showTurtle</text>
</a>
</g>
</g>
<!-- Node6&#45;&gt;Node32 -->
<g id="edge37" class="edge"><title>Node6&#45;&gt;Node32</title>
<path fill="none" stroke="midnightblue" d="M514.145,-195.975C535.271,-188.655 560.555,-180.918 584,-176.409 651.453,-163.435 729.64,-159.018 785.711,-157.651"/>
<polygon fill="midnightblue" stroke="midnightblue" points="512.704,-192.772 504.444,-199.407 515.039,-199.371 512.704,-192.772"/>
</g>
<!-- Node33 -->
<g id="node33" class="node"><title>Node33</title>
<g id="a_node33"><a xlink:href="../../d6/de7/classview_1_1_s_logo_view.html#a00710838e28dcb10fe6da3c0ec0c4e20" target="_top" xlink:title="view.SLogoView.showTurtle">
<polygon fill="white" stroke="black" points="586.5,-387.909 586.5,-406.909 729.5,-406.909 729.5,-387.909 586.5,-387.909"/>
<text text-anchor="middle" x="658" y="-394.909" font-family="Helvetica,sans-Serif" font-size="10.00">view.SLogoView.showTurtle</text>
</a>
</g>
</g>
<!-- Node6&#45;&gt;Node33 -->
<g id="edge39" class="edge"><title>Node6&#45;&gt;Node33</title>
<path fill="none" stroke="midnightblue" d="M480.522,-238.329C505.589,-278.898 556.89,-358.63 584,-377.409 590.265,-381.749 597.439,-385.149 604.787,-387.812"/>
<polygon fill="midnightblue" stroke="midnightblue" points="483.382,-236.298 475.166,-229.609 477.418,-239.962 483.382,-236.298"/>
</g>
<!-- Node8 -->
<g id="node8" class="node"><title>Node8</title>
<g id="a_node8"><a xlink:href="../../d1/dd3/classmodel_1_1instructions_1_1_movement_instruction.html#a33e802cec8283d190a8daac6e485e3b4" target="_top" xlink:title="model.instructions.Movement\lInstruction.execute">
<polygon fill="white" stroke="black" points="1188.5,-177.409 1188.5,-207.409 1347.5,-207.409 1347.5,-177.409 1188.5,-177.409"/>
<text text-anchor="start" x="1196.5" y="-195.409" font-family="Helvetica,sans-Serif" font-size="10.00">model.instructions.Movement</text>
<text text-anchor="middle" x="1268" y="-184.409" font-family="Helvetica,sans-Serif" font-size="10.00">Instruction.execute</text>
</a>
</g>
</g>
<!-- Node7&#45;&gt;Node8 -->
<g id="edge7" class="edge"><title>Node7&#45;&gt;Node8</title>
<path fill="none" stroke="midnightblue" d="M1115.64,-255.866C1127.51,-252.119 1140.33,-247.826 1152,-243.409 1180.8,-232.504 1212.76,-218.14 1235.66,-207.436"/>
<polygon fill="midnightblue" stroke="midnightblue" points="1114.46,-252.567 1105.95,-258.875 1116.54,-259.252 1114.46,-252.567"/>
</g>
<!-- Node10 -->
<g id="node10" class="node"><title>Node10</title>
<g id="a_node10"><a xlink:href="../../d4/d64/classview_1_1_view_updater.html#adc0790ceed057768bd5a29a470e626d1" target="_top" xlink:title="view.ViewUpdater.updateWorkspace">
<polygon fill="white" stroke="black" points="768.5,-223.909 768.5,-242.909 955.5,-242.909 955.5,-223.909 768.5,-223.909"/>
<text text-anchor="middle" x="862" y="-230.909" font-family="Helvetica,sans-Serif" font-size="10.00">view.ViewUpdater.updateWorkspace</text>
</a>
</g>
</g>
<!-- Node9&#45;&gt;Node10 -->
<g id="edge9" class="edge"><title>Node9&#45;&gt;Node10</title>
<path fill="none" stroke="midnightblue" d="M717.362,-233.409C733.351,-233.409 751.088,-233.409 768.485,-233.409"/>
<polygon fill="midnightblue" stroke="midnightblue" points="717.127,-229.909 707.127,-233.409 717.127,-236.909 717.127,-229.909"/>
</g>
<!-- Node11 -->
<g id="node11" class="node"><title>Node11</title>
<g id="a_node11"><a xlink:href="../../d1/dd3/classmodel_1_1instructions_1_1_movement_instruction.html#a51c776093aeb820937b12e2b89eb2f89" target="_top" xlink:title="model.instructions.Movement\lInstruction.updateView">
<polygon fill="white" stroke="black" points="992.5,-204.409 992.5,-234.409 1151.5,-234.409 1151.5,-204.409 992.5,-204.409"/>
<text text-anchor="start" x="1000.5" y="-222.409" font-family="Helvetica,sans-Serif" font-size="10.00">model.instructions.Movement</text>
<text text-anchor="middle" x="1072" y="-211.409" font-family="Helvetica,sans-Serif" font-size="10.00">Instruction.updateView</text>
</a>
</g>
</g>
<!-- Node10&#45;&gt;Node11 -->
<g id="edge10" class="edge"><title>Node10&#45;&gt;Node11</title>
<path fill="none" stroke="midnightblue" d="M965.821,-226.488C974.762,-225.886 983.714,-225.284 992.413,-224.698"/>
<polygon fill="midnightblue" stroke="midnightblue" points="965.489,-223.002 955.746,-227.166 965.959,-229.987 965.489,-223.002"/>
</g>
<!-- Node11&#45;&gt;Node8 -->
<g id="edge11" class="edge"><title>Node11&#45;&gt;Node8</title>
<path fill="none" stroke="midnightblue" d="M1161.61,-207.077C1170.5,-205.839 1179.48,-204.589 1188.26,-203.367"/>
<polygon fill="midnightblue" stroke="midnightblue" points="1161.05,-203.621 1151.63,-208.466 1162.01,-210.554 1161.05,-203.621"/>
</g>
<!-- Node13 -->
<g id="node13" class="node"><title>Node13</title>
<g id="a_node13"><a xlink:href="../../da/d64/classview_1_1_workspace.html#abbd85b844575ebab6643ba4ddc5a1612" target="_top" xlink:title="view.Workspace.Workspace">
<polygon fill="white" stroke="black" points="1196,-337.909 1196,-356.909 1340,-356.909 1340,-337.909 1196,-337.909"/>
<text text-anchor="middle" x="1268" y="-344.909" font-family="Helvetica,sans-Serif" font-size="10.00">view.Workspace.Workspace</text>
</a>
</g>
</g>
<!-- Node12&#45;&gt;Node13 -->
<g id="edge13" class="edge"><title>Node12&#45;&gt;Node13</title>
<path fill="none" stroke="midnightblue" d="M736.799,-352.641C855.66,-351.468 1080.74,-349.247 1195.63,-348.113"/>
<polygon fill="midnightblue" stroke="midnightblue" points="736.647,-349.142 726.682,-352.741 736.716,-356.142 736.647,-349.142"/>
</g>
<!-- Node14 -->
<g id="node14" class="node"><title>Node14</title>
<g id="a_node14"><a xlink:href="../../da/d64/classview_1_1_workspace.html#a9eea72f983d5e7ad5af85056d927e380" target="_top" xlink:title="view.Workspace.configure\lTurtleEventHandler">
<polygon fill="white" stroke="black" points="793.5,-376.409 793.5,-406.409 930.5,-406.409 930.5,-376.409 793.5,-376.409"/>
<text text-anchor="start" x="801.5" y="-394.409" font-family="Helvetica,sans-Serif" font-size="10.00">view.Workspace.configure</text>
<text text-anchor="middle" x="862" y="-383.409" font-family="Helvetica,sans-Serif" font-size="10.00">TurtleEventHandler</text>
</a>
</g>
</g>
<!-- Node12&#45;&gt;Node14 -->
<g id="edge14" class="edge"><title>Node12&#45;&gt;Node14</title>
<path fill="none" stroke="midnightblue" d="M736.488,-367.986C755.165,-371.499 774.979,-375.226 793.176,-378.65"/>
<polygon fill="midnightblue" stroke="midnightblue" points="737.019,-364.524 726.544,-366.115 735.724,-371.403 737.019,-364.524"/>
</g>
<!-- Node15 -->
<g id="node15" class="node"><title>Node15</title>
<g id="a_node15"><a xlink:href="../../da/d64/classview_1_1_workspace.html#a4abde41a3048fa8f64ddfec40c8ffdb7" target="_top" xlink:title="view.Workspace.addTurtle">
<polygon fill="white" stroke="black" points="1003.5,-381.909 1003.5,-400.909 1140.5,-400.909 1140.5,-381.909 1003.5,-381.909"/>
<text text-anchor="middle" x="1072" y="-388.909" font-family="Helvetica,sans-Serif" font-size="10.00">view.Workspace.addTurtle</text>
</a>
</g>
</g>
<!-- Node14&#45;&gt;Node15 -->
<g id="edge15" class="edge"><title>Node14&#45;&gt;Node15</title>
<path fill="none" stroke="midnightblue" d="M940.541,-391.409C961.208,-391.409 983.368,-391.409 1003.45,-391.409"/>
<polygon fill="midnightblue" stroke="midnightblue" points="940.532,-387.909 930.532,-391.409 940.532,-394.909 940.532,-387.909"/>
</g>
<!-- Node15&#45;&gt;Node13 -->
<g id="edge25" class="edge"><title>Node15&#45;&gt;Node13</title>
<path fill="none" stroke="midnightblue" d="M1124.96,-379.625C1156.27,-372.522 1195.64,-363.593 1224.99,-356.937"/>
<polygon fill="midnightblue" stroke="midnightblue" points="1124.07,-376.236 1115.1,-381.861 1125.62,-383.063 1124.07,-376.236"/>
</g>
<!-- Node16 -->
<g id="node16" class="node"><title>Node16</title>
<g id="a_node16"><a xlink:href="../../d6/de7/classview_1_1_s_logo_view.html#acf432f20e1a7dda7bef97f0619fb0fa5" target="_top" xlink:title="view.SLogoView.configure\lAddTurtlesButton">
<polygon fill="white" stroke="black" points="1199.5,-376.409 1199.5,-406.409 1336.5,-406.409 1336.5,-376.409 1199.5,-376.409"/>
<text text-anchor="start" x="1207.5" y="-394.409" font-family="Helvetica,sans-Serif" font-size="10.00">view.SLogoView.configure</text>
<text text-anchor="middle" x="1268" y="-383.409" font-family="Helvetica,sans-Serif" font-size="10.00">AddTurtlesButton</text>
</a>
</g>
</g>
<!-- Node15&#45;&gt;Node16 -->
<g id="edge16" class="edge"><title>Node15&#45;&gt;Node16</title>
<path fill="none" stroke="midnightblue" d="M1150.98,-391.409C1166.99,-391.409 1183.72,-391.409 1199.33,-391.409"/>
<polygon fill="midnightblue" stroke="midnightblue" points="1150.58,-387.909 1140.58,-391.409 1150.58,-394.909 1150.58,-387.909"/>
</g>
<!-- Node17 -->
<g id="node17" class="node"><title>Node17</title>
<g id="a_node17"><a xlink:href="../../d6/de7/classview_1_1_s_logo_view.html#ae0050481c9168dd8eeb434d9aa79b047" target="_top" xlink:title="view.SLogoView.configureUI">
<polygon fill="white" stroke="black" points="1384.5,-381.909 1384.5,-400.909 1531.5,-400.909 1531.5,-381.909 1384.5,-381.909"/>
<text text-anchor="middle" x="1458" y="-388.909" font-family="Helvetica,sans-Serif" font-size="10.00">view.SLogoView.configureUI</text>
</a>
</g>
</g>
<!-- Node16&#45;&gt;Node17 -->
<g id="edge17" class="edge"><title>Node16&#45;&gt;Node17</title>
<path fill="none" stroke="midnightblue" d="M1346.89,-391.409C1359.27,-391.409 1372.02,-391.409 1384.27,-391.409"/>
<polygon fill="midnightblue" stroke="midnightblue" points="1346.61,-387.909 1336.61,-391.409 1346.61,-394.909 1346.61,-387.909"/>
</g>
<!-- Node18 -->
<g id="node18" class="node"><title>Node18</title>
<g id="a_node18"><a xlink:href="../../d1/d75/classview_1_1_main_view.html#ade3718ede33fa2086649c8b3cf75d2f9" target="_top" xlink:title="view.MainView.initTabs">
<polygon fill="white" stroke="black" points="1749.5,-400.909 1749.5,-419.909 1870.5,-419.909 1870.5,-400.909 1749.5,-400.909"/>
<text text-anchor="middle" x="1810" y="-407.909" font-family="Helvetica,sans-Serif" font-size="10.00">view.MainView.initTabs</text>
</a>
</g>
</g>
<!-- Node17&#45;&gt;Node18 -->
<g id="edge18" class="edge"><title>Node17&#45;&gt;Node18</title>
<path fill="none" stroke="midnightblue" d="M1541.56,-395.89C1605.37,-399.354 1692.18,-404.067 1749.36,-407.171"/>
<polygon fill="midnightblue" stroke="midnightblue" points="1541.7,-392.393 1531.52,-395.345 1541.32,-399.383 1541.7,-392.393"/>
</g>
<!-- Node20 -->
<g id="node20" class="node"><title>Node20</title>
<g id="a_node20"><a xlink:href="../../d1/d75/classview_1_1_main_view.html#a39a2b399924a553ccd89dd2a2e6ea208" target="_top" xlink:title="view.MainView.newTab">
<polygon fill="white" stroke="black" points="1568,-362.909 1568,-381.909 1688,-381.909 1688,-362.909 1568,-362.909"/>
<text text-anchor="middle" x="1628" y="-369.909" font-family="Helvetica,sans-Serif" font-size="10.00">view.MainView.newTab</text>
</a>
</g>
</g>
<!-- Node17&#45;&gt;Node20 -->
<g id="edge20" class="edge"><title>Node17&#45;&gt;Node20</title>
<path fill="none" stroke="midnightblue" d="M1541.65,-382.061C1550.49,-381.062 1559.34,-380.061 1567.82,-379.102"/>
<polygon fill="midnightblue" stroke="midnightblue" points="1541.25,-378.584 1531.71,-383.186 1542.04,-385.539 1541.25,-378.584"/>
</g>
<!-- Node19 -->
<g id="node19" class="node"><title>Node19</title>
<g id="a_node19"><a xlink:href="../../d1/d75/classview_1_1_main_view.html#a9e27015c007bed90f32c79fc1187083f" target="_top" xlink:title="view.MainView.MainView">
<polygon fill="white" stroke="black" points="2350,-381.909 2350,-400.909 2480,-400.909 2480,-381.909 2350,-381.909"/>
<text text-anchor="middle" x="2415" y="-388.909" font-family="Helvetica,sans-Serif" font-size="10.00">view.MainView.MainView</text>
</a>
</g>
</g>
<!-- Node18&#45;&gt;Node19 -->
<g id="edge19" class="edge"><title>Node18&#45;&gt;Node19</title>
<path fill="none" stroke="midnightblue" d="M1880.74,-408.211C1998.6,-404.497 2235.48,-397.034 2349.62,-393.437"/>
<polygon fill="midnightblue" stroke="midnightblue" points="1880.63,-404.713 1870.75,-408.526 1880.85,-411.709 1880.63,-404.713"/>
</g>
<!-- Node21 -->
<g id="node21" class="node"><title>Node21</title>
<g id="a_node21"><a xlink:href="../../d1/d75/classview_1_1_main_view.html#a0424800b5057be73f94e16ef2e1e2b33" target="_top" xlink:title="view.MainView.configureFileMenu">
<polygon fill="white" stroke="black" points="1724.5,-362.909 1724.5,-381.909 1895.5,-381.909 1895.5,-362.909 1724.5,-362.909"/>
<text text-anchor="middle" x="1810" y="-369.909" font-family="Helvetica,sans-Serif" font-size="10.00">view.MainView.configureFileMenu</text>
</a>
</g>
</g>
<!-- Node20&#45;&gt;Node21 -->
<g id="edge21" class="edge"><title>Node20&#45;&gt;Node21</title>
<path fill="none" stroke="midnightblue" d="M1698.55,-372.409C1706.96,-372.409 1715.62,-372.409 1724.22,-372.409"/>
<polygon fill="midnightblue" stroke="midnightblue" points="1698.44,-368.909 1688.44,-372.409 1698.44,-375.909 1698.44,-368.909"/>
</g>
<!-- Node22 -->
<g id="node22" class="node"><title>Node22</title>
<g id="a_node22"><a xlink:href="../../d1/d75/classview_1_1_main_view.html#a200c2c8e08e038e2ea86acc40c17d8d2" target="_top" xlink:title="view.MainView.configureTopMenu">
<polygon fill="white" stroke="black" points="1932,-362.909 1932,-381.909 2104,-381.909 2104,-362.909 1932,-362.909"/>
<text text-anchor="middle" x="2018" y="-369.909" font-family="Helvetica,sans-Serif" font-size="10.00">view.MainView.configureTopMenu</text>
</a>
</g>
</g>
<!-- Node21&#45;&gt;Node22 -->
<g id="edge22" class="edge"><title>Node21&#45;&gt;Node22</title>
<path fill="none" stroke="midnightblue" d="M1905.86,-372.409C1914.57,-372.409 1923.36,-372.409 1931.98,-372.409"/>
<polygon fill="midnightblue" stroke="midnightblue" points="1905.68,-368.909 1895.68,-372.409 1905.68,-375.909 1905.68,-368.909"/>
</g>
<!-- Node23 -->
<g id="node23" class="node"><title>Node23</title>
<g id="a_node23"><a xlink:href="../../d1/d75/classview_1_1_main_view.html#aff9e267e9368512a16e425f08d7b3ea0" target="_top" xlink:title="view.MainView.initRowConstraints">
<polygon fill="white" stroke="black" points="2140.5,-362.909 2140.5,-381.909 2313.5,-381.909 2313.5,-362.909 2140.5,-362.909"/>
<text text-anchor="middle" x="2227" y="-369.909" font-family="Helvetica,sans-Serif" font-size="10.00">view.MainView.initRowConstraints</text>
</a>
</g>
</g>
<!-- Node22&#45;&gt;Node23 -->
<g id="edge23" class="edge"><title>Node22&#45;&gt;Node23</title>
<path fill="none" stroke="midnightblue" d="M2114.22,-372.409C2122.9,-372.409 2131.65,-372.409 2140.24,-372.409"/>
<polygon fill="midnightblue" stroke="midnightblue" points="2114.09,-368.909 2104.09,-372.409 2114.09,-375.909 2114.09,-368.909"/>
</g>
<!-- Node23&#45;&gt;Node19 -->
<g id="edge24" class="edge"><title>Node23&#45;&gt;Node19</title>
<path fill="none" stroke="midnightblue" d="M2323.68,-382.183C2332.57,-383.091 2341.43,-383.995 2349.92,-384.863"/>
<polygon fill="midnightblue" stroke="midnightblue" points="2323.95,-378.692 2313.65,-381.158 2323.24,-385.656 2323.95,-378.692"/>
</g>
<!-- Node25 -->
<g id="node25" class="node"><title>Node25</title>
<g id="a_node25"><a xlink:href="../../d4/d64/classview_1_1_view_updater.html#ad29dfbb2499161b985c26e01f73ea5ac" target="_top" xlink:title="view.ViewUpdater.towards">
<polygon fill="white" stroke="black" points="1002,-100.909 1002,-119.909 1142,-119.909 1142,-100.909 1002,-100.909"/>
<text text-anchor="middle" x="1072" y="-107.909" font-family="Helvetica,sans-Serif" font-size="10.00">view.ViewUpdater.towards</text>
</a>
</g>
</g>
<!-- Node24&#45;&gt;Node25 -->
<g id="edge27" class="edge"><title>Node24&#45;&gt;Node25</title>
<path fill="none" stroke="midnightblue" d="M951.207,-104.649C968.152,-105.464 985.669,-106.306 1001.9,-107.087"/>
<polygon fill="midnightblue" stroke="midnightblue" points="950.904,-101.131 940.747,-104.147 950.568,-108.123 950.904,-101.131"/>
</g>
<!-- Node25&#45;&gt;Node8 -->
<g id="edge28" class="edge"><title>Node25&#45;&gt;Node8</title>
<path fill="none" stroke="midnightblue" d="M1104.86,-123.874C1139.63,-138.573 1195.17,-162.049 1231.37,-177.348"/>
<polygon fill="midnightblue" stroke="midnightblue" points="1106.21,-120.645 1095.63,-119.976 1103.48,-127.093 1106.21,-120.645"/>
</g>
<!-- Node27 -->
<g id="node27" class="node"><title>Node27</title>
<g id="a_node27"><a xlink:href="../../d6/de7/classview_1_1_s_logo_view.html#afa2b659c4d080b5f927978b453633ab2" target="_top" xlink:title="view.SLogoView.towards">
<polygon fill="white" stroke="black" points="796.5,-185.909 796.5,-204.909 927.5,-204.909 927.5,-185.909 796.5,-185.909"/>
<text text-anchor="middle" x="862" y="-192.909" font-family="Helvetica,sans-Serif" font-size="10.00">view.SLogoView.towards</text>
</a>
</g>
</g>
<!-- Node26&#45;&gt;Node27 -->
<g id="edge30" class="edge"><title>Node26&#45;&gt;Node27</title>
<path fill="none" stroke="midnightblue" d="M742.42,-195.409C760.438,-195.409 779.226,-195.409 796.395,-195.409"/>
<polygon fill="midnightblue" stroke="midnightblue" points="742.212,-191.909 732.212,-195.409 742.212,-198.909 742.212,-191.909"/>
</g>
<!-- Node28&#45;&gt;Node8 -->
<g id="edge32" class="edge"><title>Node28&#45;&gt;Node8</title>
<path fill="none" stroke="midnightblue" d="M946.892,-39.3428C1006.66,-45.5666 1087.49,-59.6321 1152,-91.4087 1195.38,-112.779 1235.21,-154.812 1254.6,-177.327"/>
<polygon fill="midnightblue" stroke="midnightblue" points="947.034,-35.8399 936.739,-38.3394 946.346,-42.8059 947.034,-35.8399"/>
</g>
<!-- Node30&#45;&gt;Node8 -->
<g id="edge35" class="edge"><title>Node30&#45;&gt;Node8</title>
<path fill="none" stroke="midnightblue" d="M1132.28,-295.669C1139.09,-293.328 1145.81,-290.593 1152,-287.409 1192.99,-266.322 1232.58,-228.63 1252.89,-207.62"/>
<polygon fill="midnightblue" stroke="midnightblue" points="1130.75,-292.478 1122.27,-298.823 1132.86,-299.155 1130.75,-292.478"/>
</g>
<!-- Node32&#45;&gt;Node8 -->
<g id="edge38" class="edge"><title>Node32&#45;&gt;Node8</title>
<path fill="none" stroke="midnightblue" d="M948.28,-164.797C1019.15,-170.937 1119.21,-179.605 1188.22,-185.584"/>
<polygon fill="midnightblue" stroke="midnightblue" points="948.307,-161.286 938.042,-163.91 947.703,-168.26 948.307,-161.286"/>
</g>
</g>
</svg>
