<?xml version="1.0" encoding="UTF-8" standalone="no"?>
<!DOCTYPE svg PUBLIC "-//W3C//DTD SVG 1.1//EN"
 "http://www.w3.org/Graphics/SVG/1.1/DTD/svg11.dtd">
<!-- Generated by graphviz version 2.36.0 (20140111.2315)
 -->
<!-- Title: view.TurtleView.isShowing Pages: 1 -->
<svg width="2250pt" height="471pt"
 viewBox="0.00 0.00 2250.00 471.00" xmlns="http://www.w3.org/2000/svg" xmlns:xlink="http://www.w3.org/1999/xlink">
<g id="graph0" class="graph" transform="scale(1 1) rotate(0) translate(4 467)">
<title>view.TurtleView.isShowing</title>
<polygon fill="white" stroke="none" points="-4,4 -4,-467 2246,-467 2246,4 -4,4"/>
<!-- Node1 -->
<g id="node1" class="node"><title>Node1</title>
<polygon fill="#bfbfbf" stroke="black" points="0,-190.5 0,-209.5 136,-209.5 136,-190.5 0,-190.5"/>
<text text-anchor="middle" x="68" y="-197.5" font-family="Helvetica,sans-Serif" font-size="10.00">view.TurtleView.isShowing</text>
</g>
<!-- Node2 -->
<g id="node2" class="node"><title>Node2</title>
<g id="a_node2"><a xlink:href="../../d1/dc7/classview_1_1_side_bar.html#a7d73038dbba05f96990b60664afa2670" target="_top" xlink:title="view.SideBar.updateTurtle\lProperties">
<polygon fill="white" stroke="black" points="172,-185 172,-215 310,-215 310,-185 172,-185"/>
<text text-anchor="start" x="180" y="-203" font-family="Helvetica,sans-Serif" font-size="10.00">view.SideBar.updateTurtle</text>
<text text-anchor="middle" x="241" y="-192" font-family="Helvetica,sans-Serif" font-size="10.00">Properties</text>
</a>
</g>
</g>
<!-- Node1&#45;&gt;Node2 -->
<g id="edge1" class="edge"><title>Node1&#45;&gt;Node2</title>
<path fill="none" stroke="midnightblue" d="M146.135,-200C154.753,-200 163.485,-200 171.977,-200"/>
<polygon fill="midnightblue" stroke="midnightblue" points="146.093,-196.5 136.093,-200 146.093,-203.5 146.093,-196.5"/>
</g>
<!-- Node3 -->
<g id="node3" class="node"><title>Node3</title>
<g id="a_node3"><a xlink:href="../../d4/d64/classview_1_1_view_updater.html#ace7ce28317856b4b454a798d1af23b38" target="_top" xlink:title="view.ViewUpdater.clearScreen">
<polygon fill="white" stroke="black" points="754.5,-301.5 754.5,-320.5 913.5,-320.5 913.5,-301.5 754.5,-301.5"/>
<text text-anchor="middle" x="834" y="-308.5" font-family="Helvetica,sans-Serif" font-size="10.00">view.ViewUpdater.clearScreen</text>
</a>
</g>
</g>
<!-- Node2&#45;&gt;Node3 -->
<g id="edge2" class="edge"><title>Node2&#45;&gt;Node3</title>
<path fill="none" stroke="midnightblue" d="M258.895,-222.939C277.369,-245.95 309.285,-280.057 346,-295 494.48,-355.431 689.99,-335.163 781.545,-320.555"/>
<polygon fill="midnightblue" stroke="midnightblue" points="261.625,-220.748 252.712,-215.019 256.107,-225.055 261.625,-220.748"/>
</g>
<!-- Node5 -->
<g id="node5" class="node"><title>Node5</title>
<g id="a_node5"><a xlink:href="../../de/d0a/classview_1_1_drawer.html#a6b9f362b8bc763689630b1fe7b5c1887" target="_top" xlink:title="view.Drawer.draw">
<polygon fill="white" stroke="black" points="371,-266.5 371,-285.5 469,-285.5 469,-266.5 371,-266.5"/>
<text text-anchor="middle" x="420" y="-273.5" font-family="Helvetica,sans-Serif" font-size="10.00">view.Drawer.draw</text>
</a>
</g>
</g>
<!-- Node2&#45;&gt;Node5 -->
<g id="edge4" class="edge"><title>Node2&#45;&gt;Node5</title>
<path fill="none" stroke="midnightblue" d="M274.267,-220.393C294.308,-232.365 320.942,-247.05 346,-257 355.25,-260.673 365.442,-263.84 375.201,-266.477"/>
<polygon fill="midnightblue" stroke="midnightblue" points="275.918,-217.301 265.552,-215.11 272.289,-223.287 275.918,-217.301"/>
</g>
<!-- Node8 -->
<g id="node8" class="node"><title>Node8</title>
<g id="a_node8"><a xlink:href="../../da/d64/classview_1_1_workspace.html#a16bda9a6a7fe7f8d3d7b09108675f9c4" target="_top" xlink:title="view.Workspace.setActive\lTurtle">
<polygon fill="white" stroke="black" points="351.5,-381 351.5,-411 488.5,-411 488.5,-381 351.5,-381"/>
<text text-anchor="start" x="359.5" y="-399" font-family="Helvetica,sans-Serif" font-size="10.00">view.Workspace.setActive</text>
<text text-anchor="middle" x="420" y="-388" font-family="Helvetica,sans-Serif" font-size="10.00">Turtle</text>
</a>
</g>
</g>
<!-- Node2&#45;&gt;Node8 -->
<g id="edge8" class="edge"><title>Node2&#45;&gt;Node8</title>
<path fill="none" stroke="midnightblue" d="M251.629,-224.645C266.721,-260.348 299.146,-326.494 346,-366 353.123,-372.006 361.613,-376.938 370.24,-380.943"/>
<polygon fill="midnightblue" stroke="midnightblue" points="254.71,-222.934 247.669,-215.017 248.236,-225.597 254.71,-222.934"/>
</g>
<!-- Node20 -->
<g id="node20" class="node"><title>Node20</title>
<g id="a_node20"><a xlink:href="../../d4/d64/classview_1_1_view_updater.html#ab8c47e1d6b8bc5c076184e3e0af5e4b2" target="_top" xlink:title="view.ViewUpdater.setHeading">
<polygon fill="white" stroke="black" points="545.5,-133.5 545.5,-152.5 702.5,-152.5 702.5,-133.5 545.5,-133.5"/>
<text text-anchor="middle" x="624" y="-140.5" font-family="Helvetica,sans-Serif" font-size="10.00">view.ViewUpdater.setHeading</text>
</a>
</g>
</g>
<!-- Node2&#45;&gt;Node20 -->
<g id="edge22" class="edge"><title>Node2&#45;&gt;Node20</title>
<path fill="none" stroke="midnightblue" d="M270.534,-179.22C290.553,-165.976 318.548,-150.03 346,-143 414.6,-125.434 495.928,-128.076 552.646,-133.49"/>
<polygon fill="midnightblue" stroke="midnightblue" points="268.503,-176.369 262.198,-184.884 272.437,-182.158 268.503,-176.369"/>
</g>
<!-- Node22 -->
<g id="node22" class="node"><title>Node22</title>
<g id="a_node22"><a xlink:href="../../d6/de7/classview_1_1_s_logo_view.html#ae7ad67f4b629b134cb805842a20f4050" target="_top" xlink:title="view.SLogoView.setHeading">
<polygon fill="white" stroke="black" points="346,-228.5 346,-247.5 494,-247.5 494,-228.5 346,-228.5"/>
<text text-anchor="middle" x="420" y="-235.5" font-family="Helvetica,sans-Serif" font-size="10.00">view.SLogoView.setHeading</text>
</a>
</g>
</g>
<!-- Node2&#45;&gt;Node22 -->
<g id="edge25" class="edge"><title>Node2&#45;&gt;Node22</title>
<path fill="none" stroke="midnightblue" d="M320.16,-216.78C338.819,-220.786 358.099,-224.925 374.622,-228.472"/>
<polygon fill="midnightblue" stroke="midnightblue" points="320.692,-213.315 310.18,-214.637 319.222,-220.159 320.692,-213.315"/>
</g>
<!-- Node24 -->
<g id="node24" class="node"><title>Node24</title>
<g id="a_node24"><a xlink:href="../../d4/d64/classview_1_1_view_updater.html#ad79c00c54aabbeca7b8a0461fea36c29" target="_top" xlink:title="view.ViewUpdater.setPenUp">
<polygon fill="white" stroke="black" points="549.5,-67.5 549.5,-86.5 698.5,-86.5 698.5,-67.5 549.5,-67.5"/>
<text text-anchor="middle" x="624" y="-74.5" font-family="Helvetica,sans-Serif" font-size="10.00">view.ViewUpdater.setPenUp</text>
</a>
</g>
</g>
<!-- Node2&#45;&gt;Node24 -->
<g id="edge27" class="edge"><title>Node2&#45;&gt;Node24</title>
<path fill="none" stroke="midnightblue" d="M252.585,-175.674C267.929,-143.876 299.678,-89.5811 346,-67 428.402,-26.8309 541.554,-51.9822 594.062,-67.4822"/>
<polygon fill="midnightblue" stroke="midnightblue" points="249.402,-174.217 248.351,-184.76 255.747,-177.174 249.402,-174.217"/>
</g>
<!-- Node25 -->
<g id="node25" class="node"><title>Node25</title>
<g id="a_node25"><a xlink:href="../../d6/de7/classview_1_1_s_logo_view.html#a978a65a0b82bac25044f7e2816a680cc" target="_top" xlink:title="view.SLogoView.setPenUp">
<polygon fill="white" stroke="black" points="350,-152.5 350,-171.5 490,-171.5 490,-152.5 350,-152.5"/>
<text text-anchor="middle" x="420" y="-159.5" font-family="Helvetica,sans-Serif" font-size="10.00">view.SLogoView.setPenUp</text>
</a>
</g>
</g>
<!-- Node2&#45;&gt;Node25 -->
<g id="edge29" class="edge"><title>Node2&#45;&gt;Node25</title>
<path fill="none" stroke="midnightblue" d="M320.16,-183.22C338.819,-179.214 358.099,-175.075 374.622,-171.528"/>
<polygon fill="midnightblue" stroke="midnightblue" points="319.222,-179.841 310.18,-185.363 320.692,-186.685 319.222,-179.841"/>
</g>
<!-- Node26 -->
<g id="node26" class="node"><title>Node26</title>
<g id="a_node26"><a xlink:href="../../d4/d64/classview_1_1_view_updater.html#a497cc83cdcb6fdb430bdb78431c5cd20" target="_top" xlink:title="view.ViewUpdater.setXY">
<polygon fill="white" stroke="black" points="770,-341.5 770,-360.5 898,-360.5 898,-341.5 770,-341.5"/>
<text text-anchor="middle" x="834" y="-348.5" font-family="Helvetica,sans-Serif" font-size="10.00">view.ViewUpdater.setXY</text>
</a>
</g>
</g>
<!-- Node2&#45;&gt;Node26 -->
<g id="edge30" class="edge"><title>Node2&#45;&gt;Node26</title>
<path fill="none" stroke="midnightblue" d="M253.792,-224.191C269.942,-254.316 302.029,-304.544 346,-327 418.185,-363.865 654.887,-359.006 769.58,-354.218"/>
<polygon fill="midnightblue" stroke="midnightblue" points="256.826,-222.441 249.113,-215.178 250.613,-225.666 256.826,-222.441"/>
</g>
<!-- Node27 -->
<g id="node27" class="node"><title>Node27</title>
<g id="a_node27"><a xlink:href="../../d6/de7/classview_1_1_s_logo_view.html#a0948ea67bfc088f941e2af79727231ad" target="_top" xlink:title="view.SLogoView.setXY">
<polygon fill="white" stroke="black" points="360.5,-76.5 360.5,-95.5 479.5,-95.5 479.5,-76.5 360.5,-76.5"/>
<text text-anchor="middle" x="420" y="-83.5" font-family="Helvetica,sans-Serif" font-size="10.00">view.SLogoView.setXY</text>
</a>
</g>
</g>
<!-- Node2&#45;&gt;Node27 -->
<g id="edge32" class="edge"><title>Node2&#45;&gt;Node27</title>
<path fill="none" stroke="midnightblue" d="M262.687,-177.615C282.395,-157.456 313.763,-128.266 346,-110 356.563,-104.015 368.84,-99.2527 380.278,-95.5996"/>
<polygon fill="midnightblue" stroke="midnightblue" points="260.133,-175.222 255.728,-184.858 265.18,-180.073 260.133,-175.222"/>
</g>
<!-- Node28 -->
<g id="node28" class="node"><title>Node28</title>
<g id="a_node28"><a xlink:href="../../d4/d64/classview_1_1_view_updater.html#a9797c2f411ad272a0feb84c26836bfd4" target="_top" xlink:title="view.ViewUpdater.showTurtle">
<polygon fill="white" stroke="black" points="548,-190.5 548,-209.5 700,-209.5 700,-190.5 548,-190.5"/>
<text text-anchor="middle" x="624" y="-197.5" font-family="Helvetica,sans-Serif" font-size="10.00">view.ViewUpdater.showTurtle</text>
</a>
</g>
</g>
<!-- Node2&#45;&gt;Node28 -->
<g id="edge33" class="edge"><title>Node2&#45;&gt;Node28</title>
<path fill="none" stroke="midnightblue" d="M320.155,-200C386.866,-200 482.177,-200 547.974,-200"/>
<polygon fill="midnightblue" stroke="midnightblue" points="320.115,-196.5 310.115,-200 320.115,-203.5 320.115,-196.5"/>
</g>
<!-- Node29 -->
<g id="node29" class="node"><title>Node29</title>
<g id="a_node29"><a xlink:href="../../d6/de7/classview_1_1_s_logo_view.html#a00710838e28dcb10fe6da3c0ec0c4e20" target="_top" xlink:title="view.SLogoView.showTurtle">
<polygon fill="white" stroke="black" points="348.5,-0.5 348.5,-19.5 491.5,-19.5 491.5,-0.5 348.5,-0.5"/>
<text text-anchor="middle" x="420" y="-7.5" font-family="Helvetica,sans-Serif" font-size="10.00">view.SLogoView.showTurtle</text>
</a>
</g>
</g>
<!-- Node2&#45;&gt;Node29 -->
<g id="edge35" class="edge"><title>Node2&#45;&gt;Node29</title>
<path fill="none" stroke="midnightblue" d="M251.074,-175.368C265.621,-139.209 297.542,-71.9495 346,-34 354.088,-27.6663 363.914,-22.9714 373.702,-19.5026"/>
<polygon fill="midnightblue" stroke="midnightblue" points="247.81,-174.104 247.432,-184.692 254.331,-176.65 247.81,-174.104"/>
</g>
<!-- Node4 -->
<g id="node4" class="node"><title>Node4</title>
<g id="a_node4"><a xlink:href="../../d1/dd3/classmodel_1_1instructions_1_1_movement_instruction.html#a33e802cec8283d190a8daac6e485e3b4" target="_top" xlink:title="model.instructions.Movement\lInstruction.execute">
<polygon fill="white" stroke="black" points="950.5,-220 950.5,-250 1109.5,-250 1109.5,-220 950.5,-220"/>
<text text-anchor="start" x="958.5" y="-238" font-family="Helvetica,sans-Serif" font-size="10.00">model.instructions.Movement</text>
<text text-anchor="middle" x="1030" y="-227" font-family="Helvetica,sans-Serif" font-size="10.00">Instruction.execute</text>
</a>
</g>
</g>
<!-- Node3&#45;&gt;Node4 -->
<g id="edge3" class="edge"><title>Node3&#45;&gt;Node4</title>
<path fill="none" stroke="midnightblue" d="M877.642,-298.457C889.505,-294.711 902.333,-290.417 914,-286 942.8,-275.095 974.761,-260.732 997.665,-250.027"/>
<polygon fill="midnightblue" stroke="midnightblue" points="876.463,-295.159 867.95,-301.466 878.538,-301.844 876.463,-295.159"/>
</g>
<!-- Node6 -->
<g id="node6" class="node"><title>Node6</title>
<g id="a_node6"><a xlink:href="../../d4/d64/classview_1_1_view_updater.html#adc0790ceed057768bd5a29a470e626d1" target="_top" xlink:title="view.ViewUpdater.updateWorkspace">
<polygon fill="white" stroke="black" points="530.5,-266.5 530.5,-285.5 717.5,-285.5 717.5,-266.5 530.5,-266.5"/>
<text text-anchor="middle" x="624" y="-273.5" font-family="Helvetica,sans-Serif" font-size="10.00">view.ViewUpdater.updateWorkspace</text>
</a>
</g>
</g>
<!-- Node5&#45;&gt;Node6 -->
<g id="edge5" class="edge"><title>Node5&#45;&gt;Node6</title>
<path fill="none" stroke="midnightblue" d="M479.362,-276C495.351,-276 513.088,-276 530.485,-276"/>
<polygon fill="midnightblue" stroke="midnightblue" points="479.127,-272.5 469.127,-276 479.127,-279.5 479.127,-272.5"/>
</g>
<!-- Node7 -->
<g id="node7" class="node"><title>Node7</title>
<g id="a_node7"><a xlink:href="../../d1/dd3/classmodel_1_1instructions_1_1_movement_instruction.html#a51c776093aeb820937b12e2b89eb2f89" target="_top" xlink:title="model.instructions.Movement\lInstruction.updateView">
<polygon fill="white" stroke="black" points="754.5,-247 754.5,-277 913.5,-277 913.5,-247 754.5,-247"/>
<text text-anchor="start" x="762.5" y="-265" font-family="Helvetica,sans-Serif" font-size="10.00">model.instructions.Movement</text>
<text text-anchor="middle" x="834" y="-254" font-family="Helvetica,sans-Serif" font-size="10.00">Instruction.updateView</text>
</a>
</g>
</g>
<!-- Node6&#45;&gt;Node7 -->
<g id="edge6" class="edge"><title>Node6&#45;&gt;Node7</title>
<path fill="none" stroke="midnightblue" d="M727.821,-269.079C736.762,-268.478 745.714,-267.875 754.413,-267.289"/>
<polygon fill="midnightblue" stroke="midnightblue" points="727.489,-265.594 717.746,-269.757 727.959,-272.578 727.489,-265.594"/>
</g>
<!-- Node7&#45;&gt;Node4 -->
<g id="edge7" class="edge"><title>Node7&#45;&gt;Node4</title>
<path fill="none" stroke="midnightblue" d="M923.608,-249.668C932.498,-248.431 941.483,-247.18 950.26,-245.959"/>
<polygon fill="midnightblue" stroke="midnightblue" points="923.05,-246.212 913.628,-251.057 924.015,-253.145 923.05,-246.212"/>
</g>
<!-- Node9 -->
<g id="node9" class="node"><title>Node9</title>
<g id="a_node9"><a xlink:href="../../da/d64/classview_1_1_workspace.html#abbd85b844575ebab6643ba4ddc5a1612" target="_top" xlink:title="view.Workspace.Workspace">
<polygon fill="white" stroke="black" points="958,-380.5 958,-399.5 1102,-399.5 1102,-380.5 958,-380.5"/>
<text text-anchor="middle" x="1030" y="-387.5" font-family="Helvetica,sans-Serif" font-size="10.00">view.Workspace.Workspace</text>
</a>
</g>
</g>
<!-- Node8&#45;&gt;Node9 -->
<g id="edge9" class="edge"><title>Node8&#45;&gt;Node9</title>
<path fill="none" stroke="midnightblue" d="M498.799,-395.232C617.66,-394.059 842.74,-391.838 957.632,-390.704"/>
<polygon fill="midnightblue" stroke="midnightblue" points="498.647,-391.733 488.682,-395.332 498.716,-398.733 498.647,-391.733"/>
</g>
<!-- Node10 -->
<g id="node10" class="node"><title>Node10</title>
<g id="a_node10"><a xlink:href="../../da/d64/classview_1_1_workspace.html#a9eea72f983d5e7ad5af85056d927e380" target="_top" xlink:title="view.Workspace.configure\lTurtleEventHandler">
<polygon fill="white" stroke="black" points="555.5,-419 555.5,-449 692.5,-449 692.5,-419 555.5,-419"/>
<text text-anchor="start" x="563.5" y="-437" font-family="Helvetica,sans-Serif" font-size="10.00">view.Workspace.configure</text>
<text text-anchor="middle" x="624" y="-426" font-family="Helvetica,sans-Serif" font-size="10.00">TurtleEventHandler</text>
</a>
</g>
</g>
<!-- Node8&#45;&gt;Node10 -->
<g id="edge10" class="edge"><title>Node8&#45;&gt;Node10</title>
<path fill="none" stroke="midnightblue" d="M498.488,-410.577C517.165,-414.091 536.979,-417.818 555.176,-421.241"/>
<polygon fill="midnightblue" stroke="midnightblue" points="499.019,-407.115 488.544,-408.706 497.724,-413.995 499.019,-407.115"/>
</g>
<!-- Node11 -->
<g id="node11" class="node"><title>Node11</title>
<g id="a_node11"><a xlink:href="../../da/d64/classview_1_1_workspace.html#a4abde41a3048fa8f64ddfec40c8ffdb7" target="_top" xlink:title="view.Workspace.addTurtle">
<polygon fill="white" stroke="black" points="765.5,-424.5 765.5,-443.5 902.5,-443.5 902.5,-424.5 765.5,-424.5"/>
<text text-anchor="middle" x="834" y="-431.5" font-family="Helvetica,sans-Serif" font-size="10.00">view.Workspace.addTurtle</text>
</a>
</g>
</g>
<!-- Node10&#45;&gt;Node11 -->
<g id="edge11" class="edge"><title>Node10&#45;&gt;Node11</title>
<path fill="none" stroke="midnightblue" d="M702.541,-434C723.208,-434 745.368,-434 765.452,-434"/>
<polygon fill="midnightblue" stroke="midnightblue" points="702.532,-430.5 692.532,-434 702.532,-437.5 702.532,-430.5"/>
</g>
<!-- Node11&#45;&gt;Node9 -->
<g id="edge21" class="edge"><title>Node11&#45;&gt;Node9</title>
<path fill="none" stroke="midnightblue" d="M886.957,-422.216C918.274,-415.113 957.643,-406.184 986.987,-399.529"/>
<polygon fill="midnightblue" stroke="midnightblue" points="886.073,-418.827 877.095,-424.453 887.622,-425.654 886.073,-418.827"/>
</g>
<!-- Node12 -->
<g id="node12" class="node"><title>Node12</title>
<g id="a_node12"><a xlink:href="../../d6/de7/classview_1_1_s_logo_view.html#acf432f20e1a7dda7bef97f0619fb0fa5" target="_top" xlink:title="view.SLogoView.configure\lAddTurtlesButton">
<polygon fill="white" stroke="black" points="961.5,-419 961.5,-449 1098.5,-449 1098.5,-419 961.5,-419"/>
<text text-anchor="start" x="969.5" y="-437" font-family="Helvetica,sans-Serif" font-size="10.00">view.SLogoView.configure</text>
<text text-anchor="middle" x="1030" y="-426" font-family="Helvetica,sans-Serif" font-size="10.00">AddTurtlesButton</text>
</a>
</g>
</g>
<!-- Node11&#45;&gt;Node12 -->
<g id="edge12" class="edge"><title>Node11&#45;&gt;Node12</title>
<path fill="none" stroke="midnightblue" d="M912.979,-434C928.99,-434 945.722,-434 961.334,-434"/>
<polygon fill="midnightblue" stroke="midnightblue" points="912.579,-430.5 902.579,-434 912.579,-437.5 912.579,-430.5"/>
</g>
<!-- Node13 -->
<g id="node13" class="node"><title>Node13</title>
<g id="a_node13"><a xlink:href="../../d6/de7/classview_1_1_s_logo_view.html#ae0050481c9168dd8eeb434d9aa79b047" target="_top" xlink:title="view.SLogoView.configureUI">
<polygon fill="white" stroke="black" points="1146.5,-424.5 1146.5,-443.5 1293.5,-443.5 1293.5,-424.5 1146.5,-424.5"/>
<text text-anchor="middle" x="1220" y="-431.5" font-family="Helvetica,sans-Serif" font-size="10.00">view.SLogoView.configureUI</text>
</a>
</g>
</g>
<!-- Node12&#45;&gt;Node13 -->
<g id="edge13" class="edge"><title>Node12&#45;&gt;Node13</title>
<path fill="none" stroke="midnightblue" d="M1108.89,-434C1121.27,-434 1134.02,-434 1146.27,-434"/>
<polygon fill="midnightblue" stroke="midnightblue" points="1108.61,-430.5 1098.61,-434 1108.61,-437.5 1108.61,-430.5"/>
</g>
<!-- Node14 -->
<g id="node14" class="node"><title>Node14</title>
<g id="a_node14"><a xlink:href="../../d1/d75/classview_1_1_main_view.html#ade3718ede33fa2086649c8b3cf75d2f9" target="_top" xlink:title="view.MainView.initTabs">
<polygon fill="white" stroke="black" points="1511.5,-443.5 1511.5,-462.5 1632.5,-462.5 1632.5,-443.5 1511.5,-443.5"/>
<text text-anchor="middle" x="1572" y="-450.5" font-family="Helvetica,sans-Serif" font-size="10.00">view.MainView.initTabs</text>
</a>
</g>
</g>
<!-- Node13&#45;&gt;Node14 -->
<g id="edge14" class="edge"><title>Node13&#45;&gt;Node14</title>
<path fill="none" stroke="midnightblue" d="M1303.56,-438.482C1367.37,-441.946 1454.18,-446.658 1511.36,-449.762"/>
<polygon fill="midnightblue" stroke="midnightblue" points="1303.7,-434.984 1293.52,-437.937 1303.32,-441.974 1303.7,-434.984"/>
</g>
<!-- Node16 -->
<g id="node16" class="node"><title>Node16</title>
<g id="a_node16"><a xlink:href="../../d1/d75/classview_1_1_main_view.html#a39a2b399924a553ccd89dd2a2e6ea208" target="_top" xlink:title="view.MainView.newTab">
<polygon fill="white" stroke="black" points="1330,-405.5 1330,-424.5 1450,-424.5 1450,-405.5 1330,-405.5"/>
<text text-anchor="middle" x="1390" y="-412.5" font-family="Helvetica,sans-Serif" font-size="10.00">view.MainView.newTab</text>
</a>
</g>
</g>
<!-- Node13&#45;&gt;Node16 -->
<g id="edge16" class="edge"><title>Node13&#45;&gt;Node16</title>
<path fill="none" stroke="midnightblue" d="M1303.65,-424.652C1312.49,-423.653 1321.34,-422.652 1329.82,-421.693"/>
<polygon fill="midnightblue" stroke="midnightblue" points="1303.25,-421.175 1293.71,-425.777 1304.04,-428.131 1303.25,-421.175"/>
</g>
<!-- Node15 -->
<g id="node15" class="node"><title>Node15</title>
<g id="a_node15"><a xlink:href="../../d1/d75/classview_1_1_main_view.html#a9e27015c007bed90f32c79fc1187083f" target="_top" xlink:title="view.MainView.MainView">
<polygon fill="white" stroke="black" points="2112,-424.5 2112,-443.5 2242,-443.5 2242,-424.5 2112,-424.5"/>
<text text-anchor="middle" x="2177" y="-431.5" font-family="Helvetica,sans-Serif" font-size="10.00">view.MainView.MainView</text>
</a>
</g>
</g>
<!-- Node14&#45;&gt;Node15 -->
<g id="edge15" class="edge"><title>Node14&#45;&gt;Node15</title>
<path fill="none" stroke="midnightblue" d="M1642.74,-450.803C1760.6,-447.089 1997.48,-439.625 2111.62,-436.029"/>
<polygon fill="midnightblue" stroke="midnightblue" points="1642.63,-447.304 1632.75,-451.117 1642.85,-454.301 1642.63,-447.304"/>
</g>
<!-- Node17 -->
<g id="node17" class="node"><title>Node17</title>
<g id="a_node17"><a xlink:href="../../d1/d75/classview_1_1_main_view.html#a0424800b5057be73f94e16ef2e1e2b33" target="_top" xlink:title="view.MainView.configureFileMenu">
<polygon fill="white" stroke="black" points="1486.5,-405.5 1486.5,-424.5 1657.5,-424.5 1657.5,-405.5 1486.5,-405.5"/>
<text text-anchor="middle" x="1572" y="-412.5" font-family="Helvetica,sans-Serif" font-size="10.00">view.MainView.configureFileMenu</text>
</a>
</g>
</g>
<!-- Node16&#45;&gt;Node17 -->
<g id="edge17" class="edge"><title>Node16&#45;&gt;Node17</title>
<path fill="none" stroke="midnightblue" d="M1460.55,-415C1468.96,-415 1477.62,-415 1486.22,-415"/>
<polygon fill="midnightblue" stroke="midnightblue" points="1460.44,-411.5 1450.44,-415 1460.44,-418.5 1460.44,-411.5"/>
</g>
<!-- Node18 -->
<g id="node18" class="node"><title>Node18</title>
<g id="a_node18"><a xlink:href="../../d1/d75/classview_1_1_main_view.html#a200c2c8e08e038e2ea86acc40c17d8d2" target="_top" xlink:title="view.MainView.configureTopMenu">
<polygon fill="white" stroke="black" points="1694,-405.5 1694,-424.5 1866,-424.5 1866,-405.5 1694,-405.5"/>
<text text-anchor="middle" x="1780" y="-412.5" font-family="Helvetica,sans-Serif" font-size="10.00">view.MainView.configureTopMenu</text>
</a>
</g>
</g>
<!-- Node17&#45;&gt;Node18 -->
<g id="edge18" class="edge"><title>Node17&#45;&gt;Node18</title>
<path fill="none" stroke="midnightblue" d="M1667.86,-415C1676.57,-415 1685.36,-415 1693.98,-415"/>
<polygon fill="midnightblue" stroke="midnightblue" points="1667.68,-411.5 1657.68,-415 1667.68,-418.5 1667.68,-411.5"/>
</g>
<!-- Node19 -->
<g id="node19" class="node"><title>Node19</title>
<g id="a_node19"><a xlink:href="../../d1/d75/classview_1_1_main_view.html#aff9e267e9368512a16e425f08d7b3ea0" target="_top" xlink:title="view.MainView.initRowConstraints">
<polygon fill="white" stroke="black" points="1902.5,-405.5 1902.5,-424.5 2075.5,-424.5 2075.5,-405.5 1902.5,-405.5"/>
<text text-anchor="middle" x="1989" y="-412.5" font-family="Helvetica,sans-Serif" font-size="10.00">view.MainView.initRowConstraints</text>
</a>
</g>
</g>
<!-- Node18&#45;&gt;Node19 -->
<g id="edge19" class="edge"><title>Node18&#45;&gt;Node19</title>
<path fill="none" stroke="midnightblue" d="M1876.22,-415C1884.9,-415 1893.65,-415 1902.24,-415"/>
<polygon fill="midnightblue" stroke="midnightblue" points="1876.09,-411.5 1866.09,-415 1876.09,-418.5 1876.09,-411.5"/>
</g>
<!-- Node19&#45;&gt;Node15 -->
<g id="edge20" class="edge"><title>Node19&#45;&gt;Node15</title>
<path fill="none" stroke="midnightblue" d="M2085.68,-424.774C2094.57,-425.682 2103.43,-426.587 2111.92,-427.455"/>
<polygon fill="midnightblue" stroke="midnightblue" points="2085.95,-421.284 2075.65,-423.749 2085.24,-428.247 2085.95,-421.284"/>
</g>
<!-- Node21 -->
<g id="node21" class="node"><title>Node21</title>
<g id="a_node21"><a xlink:href="../../d4/d64/classview_1_1_view_updater.html#ad29dfbb2499161b985c26e01f73ea5ac" target="_top" xlink:title="view.ViewUpdater.towards">
<polygon fill="white" stroke="black" points="764,-143.5 764,-162.5 904,-162.5 904,-143.5 764,-143.5"/>
<text text-anchor="middle" x="834" y="-150.5" font-family="Helvetica,sans-Serif" font-size="10.00">view.ViewUpdater.towards</text>
</a>
</g>
</g>
<!-- Node20&#45;&gt;Node21 -->
<g id="edge23" class="edge"><title>Node20&#45;&gt;Node21</title>
<path fill="none" stroke="midnightblue" d="M713.207,-147.241C730.152,-148.055 747.669,-148.898 763.903,-149.678"/>
<polygon fill="midnightblue" stroke="midnightblue" points="712.904,-143.722 702.747,-146.738 712.568,-150.714 712.904,-143.722"/>
</g>
<!-- Node21&#45;&gt;Node4 -->
<g id="edge24" class="edge"><title>Node21&#45;&gt;Node4</title>
<path fill="none" stroke="midnightblue" d="M866.858,-166.466C901.632,-181.164 957.174,-204.641 993.37,-219.94"/>
<polygon fill="midnightblue" stroke="midnightblue" points="868.208,-163.236 857.634,-162.567 865.482,-169.684 868.208,-163.236"/>
</g>
<!-- Node23 -->
<g id="node23" class="node"><title>Node23</title>
<g id="a_node23"><a xlink:href="../../d6/de7/classview_1_1_s_logo_view.html#afa2b659c4d080b5f927978b453633ab2" target="_top" xlink:title="view.SLogoView.towards">
<polygon fill="white" stroke="black" points="558.5,-228.5 558.5,-247.5 689.5,-247.5 689.5,-228.5 558.5,-228.5"/>
<text text-anchor="middle" x="624" y="-235.5" font-family="Helvetica,sans-Serif" font-size="10.00">view.SLogoView.towards</text>
</a>
</g>
</g>
<!-- Node22&#45;&gt;Node23 -->
<g id="edge26" class="edge"><title>Node22&#45;&gt;Node23</title>
<path fill="none" stroke="midnightblue" d="M504.42,-238C522.438,-238 541.226,-238 558.395,-238"/>
<polygon fill="midnightblue" stroke="midnightblue" points="504.212,-234.5 494.212,-238 504.212,-241.5 504.212,-234.5"/>
</g>
<!-- Node24&#45;&gt;Node4 -->
<g id="edge28" class="edge"><title>Node24&#45;&gt;Node4</title>
<path fill="none" stroke="midnightblue" d="M708.892,-81.9341C768.655,-88.1579 849.491,-102.223 914,-134 957.383,-155.37 997.206,-197.403 1016.6,-219.918"/>
<polygon fill="midnightblue" stroke="midnightblue" points="709.034,-78.4312 698.739,-80.9307 708.346,-85.3973 709.034,-78.4312"/>
</g>
<!-- Node26&#45;&gt;Node4 -->
<g id="edge31" class="edge"><title>Node26&#45;&gt;Node4</title>
<path fill="none" stroke="midnightblue" d="M894.277,-338.26C901.093,-335.919 907.81,-333.184 914,-330 954.99,-308.913 994.576,-271.222 1014.89,-250.211"/>
<polygon fill="midnightblue" stroke="midnightblue" points="892.755,-335.07 884.27,-341.414 894.859,-341.746 892.755,-335.07"/>
</g>
<!-- Node28&#45;&gt;Node4 -->
<g id="edge34" class="edge"><title>Node28&#45;&gt;Node4</title>
<path fill="none" stroke="midnightblue" d="M710.28,-207.388C781.155,-213.528 881.212,-222.197 950.221,-228.175"/>
<polygon fill="midnightblue" stroke="midnightblue" points="710.307,-203.877 700.042,-206.501 709.703,-210.851 710.307,-203.877"/>
</g>
</g>
</svg>
