<?xml version="1.0" encoding="UTF-8" standalone="no"?>
<!DOCTYPE svg PUBLIC "-//W3C//DTD SVG 1.1//EN"
 "http://www.w3.org/Graphics/SVG/1.1/DTD/svg11.dtd">
<!-- Generated by graphviz version 2.36.0 (20140111.2315)
 -->
<!-- Title: view.TurtleView.getYCoord Pages: 1 -->
<!--zoomable 496 -->
<svg id="main" version="1.1" xmlns="http://www.w3.org/2000/svg" xmlns:xlink="http://www.w3.org/1999/xlink" xml:space="preserve" onload="init(evt)">
<style type="text/css"><![CDATA[
.edge:hover path { stroke: red; }
.edge:hover polygon { stroke: red; fill: red; }
]]></style>
<script type="text/javascript"><![CDATA[
var edges = document.getElementsByTagName('g');
if (edges && edges.length) {
  for (var i=0;i<edges.length;i++) {
    if (edges[i].id.substr(0,4)=='edge') {
      edges[i].setAttribute('class','edge');
    }
  }
}
]]></script>
        <defs>
                <circle id="rim" cx="0" cy="0" r="7"/>
                <circle id="rim2" cx="0" cy="0" r="3.5"/>
                <g id="zoomPlus">
                        <use xlink:href="#rim" fill="#404040">
                                <set attributeName="fill" to="#808080" begin="zoomplus.mouseover" end="zoomplus.mouseout"/>
                        </use>
                        <path d="M-4,0h8M0,-4v8" fill="none" stroke="white" stroke-width="1.5" pointer-events="none"/>
                </g>
                <g id="zoomMin">
                        <use xlink:href="#rim" fill="#404040">
                                <set attributeName="fill" to="#808080" begin="zoomminus.mouseover" end="zoomminus.mouseout"/>
                        </use>
                        <path d="M-4,0h8" fill="none" stroke="white" stroke-width="1.5" pointer-events="none"/>
                </g>
                <g id="dirArrow">
                        <path fill="none" stroke="white" stroke-width="1.5" d="M0,-3.0v7 M-2.5,-0.5L0,-3.0L2.5,-0.5"/>
                </g>
               <g id="resetDef">
                       <use xlink:href="#rim2" fill="#404040">
                               <set attributeName="fill" to="#808080" begin="reset.mouseover" end="reset.mouseout"/>
                       </use>
               </g>
        </defs>

<script type="text/javascript">
var viewWidth = 2284;
var viewHeight = 496;
var sectionId = 'dynsection-11';
</script>
<script xlink:href="../../svgpan.js"/>
<svg id="graph" class="graph">
<g id="viewport">
<title>view.TurtleView.getYCoord</title>
<polygon fill="white" stroke="none" points="-4,4 -4,-492.245 2280,-492.245 2280,4 -4,4"/>
<!-- Node1 -->
<g id="node1" class="node"><title>Node1</title>
<polygon fill="#bfbfbf" stroke="black" points="0.5,-307.745 0.5,-326.745 137.5,-326.745 137.5,-307.745 0.5,-307.745"/>
<text text-anchor="middle" x="69" y="-314.745" font-family="Helvetica,sans-Serif" font-size="10.00">view.TurtleView.getYCoord</text>
</g>
<!-- Node2 -->
<g id="node2" class="node"><title>Node2</title>
<g id="a_node2"><a xlink:href="../../d8/df7/classview_1_1_turtle_view.html#a2efe7ca23cb6fdf75e0bfba1108d3af6" target="_top" xlink:title="view.TurtleView.createStamp">
<polygon fill="white" stroke="black" points="174,-379.745 174,-398.745 326,-398.745 326,-379.745 174,-379.745"/>
<text text-anchor="middle" x="250" y="-386.745" font-family="Helvetica,sans-Serif" font-size="10.00">view.TurtleView.createStamp</text>
</a>
</g>
</g>
<!-- Node1&#45;&gt;Node2 -->
<g id="edge1" class="edge"><title>Node1&#45;&gt;Node2</title>
<path fill="none" stroke="midnightblue" d="M103.194,-330.597C138.595,-344.836 193.788,-367.037 225.132,-379.645"/>
<polygon fill="midnightblue" stroke="midnightblue" points="104.354,-327.291 93.7698,-326.806 101.741,-333.785 104.354,-327.291"/>
</g>
<!-- Node5 -->
<g id="node5" class="node"><title>Node5</title>
<g id="a_node5"><a xlink:href="../../d1/dc7/classview_1_1_side_bar.html#a7d73038dbba05f96990b60664afa2670" target="_top" xlink:title="view.SideBar.updateTurtle\lProperties">
<polygon fill="white" stroke="black" points="181,-231.245 181,-261.245 319,-261.245 319,-231.245 181,-231.245"/>
<text text-anchor="start" x="189" y="-249.245" font-family="Helvetica,sans-Serif" font-size="10.00">view.SideBar.updateTurtle</text>
<text text-anchor="middle" x="250" y="-238.245" font-family="Helvetica,sans-Serif" font-size="10.00">Properties</text>
</a>
</g>
</g>
<!-- Node1&#45;&gt;Node5 -->
<g id="edge4" class="edge"><title>Node1&#45;&gt;Node5</title>
<path fill="none" stroke="midnightblue" d="M103.499,-303.958C134.001,-291.859 179.01,-274.007 210.878,-261.366"/>
<polygon fill="midnightblue" stroke="midnightblue" points="102.146,-300.729 94.1407,-307.67 104.727,-307.236 102.146,-300.729"/>
</g>
<!-- Node3 -->
<g id="node3" class="node"><title>Node3</title>
<g id="a_node3"><a xlink:href="../../d4/d64/classview_1_1_view_updater.html#a2a80f45d7af563e6b2b75bf3488e254c" target="_top" xlink:title="view.ViewUpdater.createStamp">
<polygon fill="white" stroke="black" points="362.5,-460.745 362.5,-479.745 527.5,-479.745 527.5,-460.745 362.5,-460.745"/>
<text text-anchor="middle" x="445" y="-467.745" font-family="Helvetica,sans-Serif" font-size="10.00">view.ViewUpdater.createStamp</text>
</a>
</g>
</g>
<!-- Node2&#45;&gt;Node3 -->
<g id="edge2" class="edge"><title>Node2&#45;&gt;Node3</title>
<path fill="none" stroke="midnightblue" d="M274.93,-404.013C296.914,-417.076 330.731,-435.925 362,-448.245 374.479,-453.162 388.448,-457.363 401.27,-460.736"/>
<polygon fill="midnightblue" stroke="midnightblue" points="276.648,-400.962 266.275,-398.804 273.038,-406.959 276.648,-400.962"/>
</g>
<!-- Node4 -->
<g id="node4" class="node"><title>Node4</title>
<g id="a_node4"><a xlink:href="../../d2/d2b/classmodel_1_1instructions_1_1_front_end_instruction.html#ad73f35e44bf151648463df17e10152ac" target="_top" xlink:title="model.instructions.Front\lEndInstruction.execute">
<polygon fill="white" stroke="black" points="592,-458.245 592,-488.245 724,-488.245 724,-458.245 592,-458.245"/>
<text text-anchor="start" x="600" y="-476.245" font-family="Helvetica,sans-Serif" font-size="10.00">model.instructions.Front</text>
<text text-anchor="middle" x="658" y="-465.245" font-family="Helvetica,sans-Serif" font-size="10.00">EndInstruction.execute</text>
</a>
</g>
</g>
<!-- Node3&#45;&gt;Node4 -->
<g id="edge3" class="edge"><title>Node3&#45;&gt;Node4</title>
<path fill="none" stroke="midnightblue" d="M537.667,-471.548C555.957,-471.808 574.812,-472.077 591.98,-472.321"/>
<polygon fill="midnightblue" stroke="midnightblue" points="537.627,-468.048 527.578,-471.405 537.527,-475.047 537.627,-468.048"/>
</g>
<!-- Node6 -->
<g id="node6" class="node"><title>Node6</title>
<g id="a_node6"><a xlink:href="../../d4/d64/classview_1_1_view_updater.html#ace7ce28317856b4b454a798d1af23b38" target="_top" xlink:title="view.ViewUpdater.clearScreen">
<polygon fill="white" stroke="black" points="788.5,-329.745 788.5,-348.745 947.5,-348.745 947.5,-329.745 788.5,-329.745"/>
<text text-anchor="middle" x="868" y="-336.745" font-family="Helvetica,sans-Serif" font-size="10.00">view.ViewUpdater.clearScreen</text>
</a>
</g>
</g>
<!-- Node5&#45;&gt;Node6 -->
<g id="edge5" class="edge"><title>Node5&#45;&gt;Node6</title>
<path fill="none" stroke="midnightblue" d="M274.438,-268.26C295.529,-286.512 328.304,-311.19 362,-322.245 511.617,-371.331 699.699,-359.939 798.746,-348.748"/>
<polygon fill="midnightblue" stroke="midnightblue" points="276.485,-265.397 266.681,-261.378 271.839,-270.633 276.485,-265.397"/>
</g>
<!-- Node8 -->
<g id="node8" class="node"><title>Node8</title>
<g id="a_node8"><a xlink:href="../../de/d0a/classview_1_1_drawer.html#a6b9f362b8bc763689630b1fe7b5c1887" target="_top" xlink:title="view.Drawer.draw">
<polygon fill="white" stroke="black" points="396,-293.745 396,-312.745 494,-312.745 494,-293.745 396,-293.745"/>
<text text-anchor="middle" x="445" y="-300.745" font-family="Helvetica,sans-Serif" font-size="10.00">view.Drawer.draw</text>
</a>
</g>
</g>
<!-- Node5&#45;&gt;Node8 -->
<g id="edge7" class="edge"><title>Node5&#45;&gt;Node8</title>
<path fill="none" stroke="midnightblue" d="M311.543,-264.295C327.915,-269.162 345.632,-274.417 362,-279.245 378.219,-284.03 396.254,-289.312 411.271,-293.7"/>
<polygon fill="midnightblue" stroke="midnightblue" points="312.13,-260.818 301.547,-261.322 310.134,-267.528 312.13,-260.818"/>
</g>
<!-- Node11 -->
<g id="node11" class="node"><title>Node11</title>
<g id="a_node11"><a xlink:href="../../da/d64/classview_1_1_workspace.html#a16bda9a6a7fe7f8d3d7b09108675f9c4" target="_top" xlink:title="view.Workspace.setActive\lTurtle">
<polygon fill="white" stroke="black" points="376.5,-370.245 376.5,-400.245 513.5,-400.245 513.5,-370.245 376.5,-370.245"/>
<text text-anchor="start" x="384.5" y="-388.245" font-family="Helvetica,sans-Serif" font-size="10.00">view.Workspace.setActive</text>
<text text-anchor="middle" x="445" y="-377.245" font-family="Helvetica,sans-Serif" font-size="10.00">Turtle</text>
</a>
</g>
</g>
<!-- Node5&#45;&gt;Node11 -->
<g id="edge11" class="edge"><title>Node5&#45;&gt;Node11</title>
<path fill="none" stroke="midnightblue" d="M269.307,-269.326C289.66,-293.645 324.623,-331.628 362,-355.245 371.355,-361.156 382.043,-366.136 392.542,-370.234"/>
<polygon fill="midnightblue" stroke="midnightblue" points="271.793,-266.839 262.737,-261.34 266.387,-271.286 271.793,-266.839"/>
</g>
<!-- Node23 -->
<g id="node23" class="node"><title>Node23</title>
<g id="a_node23"><a xlink:href="../../d4/d64/classview_1_1_view_updater.html#ab8c47e1d6b8bc5c076184e3e0af5e4b2" target="_top" xlink:title="view.ViewUpdater.setHeading">
<polygon fill="white" stroke="black" points="579.5,-110.745 579.5,-129.745 736.5,-129.745 736.5,-110.745 579.5,-110.745"/>
<text text-anchor="middle" x="658" y="-117.745" font-family="Helvetica,sans-Serif" font-size="10.00">view.ViewUpdater.setHeading</text>
</a>
</g>
</g>
<!-- Node5&#45;&gt;Node23 -->
<g id="edge25" class="edge"><title>Node5&#45;&gt;Node23</title>
<path fill="none" stroke="midnightblue" d="M266.006,-222.241C284.687,-194.808 319.391,-151.257 362,-132.245 439.469,-97.678 540.066,-102.79 601.51,-110.724"/>
<polygon fill="midnightblue" stroke="midnightblue" points="262.897,-220.596 260.296,-230.867 268.734,-224.46 262.897,-220.596"/>
</g>
<!-- Node25 -->
<g id="node25" class="node"><title>Node25</title>
<g id="a_node25"><a xlink:href="../../d6/de7/classview_1_1_s_logo_view.html#ae7ad67f4b629b134cb805842a20f4050" target="_top" xlink:title="view.SLogoView.setHeading">
<polygon fill="white" stroke="black" points="371,-217.745 371,-236.745 519,-236.745 519,-217.745 371,-217.745"/>
<text text-anchor="middle" x="445" y="-224.745" font-family="Helvetica,sans-Serif" font-size="10.00">view.SLogoView.setHeading</text>
</a>
</g>
</g>
<!-- Node5&#45;&gt;Node25 -->
<g id="edge28" class="edge"><title>Node5&#45;&gt;Node25</title>
<path fill="none" stroke="midnightblue" d="M329.365,-238.53C343.014,-237.187 357.165,-235.794 370.672,-234.464"/>
<polygon fill="midnightblue" stroke="midnightblue" points="328.654,-235.083 319.045,-239.546 329.339,-242.05 328.654,-235.083"/>
</g>
<!-- Node27 -->
<g id="node27" class="node"><title>Node27</title>
<g id="a_node27"><a xlink:href="../../d4/d64/classview_1_1_view_updater.html#ad79c00c54aabbeca7b8a0461fea36c29" target="_top" xlink:title="view.ViewUpdater.setPenUp">
<polygon fill="white" stroke="black" points="793.5,-29.7451 793.5,-48.7451 942.5,-48.7451 942.5,-29.7451 793.5,-29.7451"/>
<text text-anchor="middle" x="868" y="-36.7451" font-family="Helvetica,sans-Serif" font-size="10.00">view.ViewUpdater.setPenUp</text>
</a>
</g>
</g>
<!-- Node5&#45;&gt;Node27 -->
<g id="edge30" class="edge"><title>Node5&#45;&gt;Node27</title>
<path fill="none" stroke="midnightblue" d="M257.178,-221.293C269.197,-178.735 300.148,-93.1414 362,-56.2451 515.688,35.4335 745.116,-8.20551 831.98,-29.7165"/>
<polygon fill="midnightblue" stroke="midnightblue" points="253.75,-220.564 254.523,-231.13 260.508,-222.388 253.75,-220.564"/>
</g>
<!-- Node28 -->
<g id="node28" class="node"><title>Node28</title>
<g id="a_node28"><a xlink:href="../../d6/de7/classview_1_1_s_logo_view.html#a978a65a0b82bac25044f7e2816a680cc" target="_top" xlink:title="view.SLogoView.setPenUp">
<polygon fill="white" stroke="black" points="375,-141.745 375,-160.745 515,-160.745 515,-141.745 375,-141.745"/>
<text text-anchor="middle" x="445" y="-148.745" font-family="Helvetica,sans-Serif" font-size="10.00">view.SLogoView.setPenUp</text>
</a>
</g>
</g>
<!-- Node5&#45;&gt;Node28 -->
<g id="edge32" class="edge"><title>Node5&#45;&gt;Node28</title>
<path fill="none" stroke="midnightblue" d="M278.976,-225.166C300.686,-209.615 332.036,-188.875 362,-175.245 374.827,-169.411 389.426,-164.601 402.716,-160.86"/>
<polygon fill="midnightblue" stroke="midnightblue" points="276.901,-222.347 270.866,-231.055 281.014,-228.011 276.901,-222.347"/>
</g>
<!-- Node29 -->
<g id="node29" class="node"><title>Node29</title>
<g id="a_node29"><a xlink:href="../../d4/d64/classview_1_1_view_updater.html#a497cc83cdcb6fdb430bdb78431c5cd20" target="_top" xlink:title="view.ViewUpdater.setXY">
<polygon fill="white" stroke="black" points="594,-255.745 594,-274.745 722,-274.745 722,-255.745 594,-255.745"/>
<text text-anchor="middle" x="658" y="-262.745" font-family="Helvetica,sans-Serif" font-size="10.00">view.ViewUpdater.setXY</text>
</a>
</g>
</g>
<!-- Node5&#45;&gt;Node29 -->
<g id="edge33" class="edge"><title>Node5&#45;&gt;Node29</title>
<path fill="none" stroke="midnightblue" d="M329.554,-249.921C406.652,-253.529 522.742,-258.962 593.988,-262.296"/>
<polygon fill="midnightblue" stroke="midnightblue" points="329.566,-246.418 319.413,-249.447 329.239,-253.41 329.566,-246.418"/>
</g>
<!-- Node30 -->
<g id="node30" class="node"><title>Node30</title>
<g id="a_node30"><a xlink:href="../../d6/de7/classview_1_1_s_logo_view.html#a0948ea67bfc088f941e2af79727231ad" target="_top" xlink:title="view.SLogoView.setXY">
<polygon fill="white" stroke="black" points="385.5,-65.7451 385.5,-84.7451 504.5,-84.7451 504.5,-65.7451 385.5,-65.7451"/>
<text text-anchor="middle" x="445" y="-72.7451" font-family="Helvetica,sans-Serif" font-size="10.00">view.SLogoView.setXY</text>
</a>
</g>
</g>
<!-- Node5&#45;&gt;Node30 -->
<g id="edge35" class="edge"><title>Node5&#45;&gt;Node30</title>
<path fill="none" stroke="midnightblue" d="M262.964,-221.922C280.303,-189.185 315.498,-131.359 362,-99.2451 371.154,-92.9233 381.983,-88.2457 392.719,-84.7916"/>
<polygon fill="midnightblue" stroke="midnightblue" points="259.641,-220.728 258.163,-231.22 265.861,-223.94 259.641,-220.728"/>
</g>
<!-- Node31 -->
<g id="node31" class="node"><title>Node31</title>
<g id="a_node31"><a xlink:href="../../d4/d64/classview_1_1_view_updater.html#a9797c2f411ad272a0feb84c26836bfd4" target="_top" xlink:title="view.ViewUpdater.showTurtle">
<polygon fill="white" stroke="black" points="792,-181.745 792,-200.745 944,-200.745 944,-181.745 792,-181.745"/>
<text text-anchor="middle" x="868" y="-188.745" font-family="Helvetica,sans-Serif" font-size="10.00">view.ViewUpdater.showTurtle</text>
</a>
</g>
</g>
<!-- Node5&#45;&gt;Node31 -->
<g id="edge36" class="edge"><title>Node5&#45;&gt;Node31</title>
<path fill="none" stroke="midnightblue" d="M295.705,-227.559C315.633,-220.118 339.619,-212.358 362,-208.245 512.556,-180.577 692.502,-182.73 791.818,-186.904"/>
<polygon fill="midnightblue" stroke="midnightblue" points="294.361,-224.326 286.272,-231.169 296.863,-230.863 294.361,-224.326"/>
</g>
<!-- Node32 -->
<g id="node32" class="node"><title>Node32</title>
<g id="a_node32"><a xlink:href="../../d6/de7/classview_1_1_s_logo_view.html#a00710838e28dcb10fe6da3c0ec0c4e20" target="_top" xlink:title="view.SLogoView.showTurtle">
<polygon fill="white" stroke="black" points="373.5,-419.745 373.5,-438.745 516.5,-438.745 516.5,-419.745 373.5,-419.745"/>
<text text-anchor="middle" x="445" y="-426.745" font-family="Helvetica,sans-Serif" font-size="10.00">view.SLogoView.showTurtle</text>
</a>
</g>
</g>
<!-- Node5&#45;&gt;Node32 -->
<g id="edge38" class="edge"><title>Node5&#45;&gt;Node32</title>
<path fill="none" stroke="midnightblue" d="M264.441,-270.242C287.684,-310.928 335.438,-390.834 362,-409.245 368.263,-413.586 375.364,-416.988 382.706,-419.655"/>
<polygon fill="midnightblue" stroke="midnightblue" points="267.458,-268.465 259.478,-261.495 261.37,-271.92 267.458,-268.465"/>
</g>
<!-- Node7 -->
<g id="node7" class="node"><title>Node7</title>
<g id="a_node7"><a xlink:href="../../d1/dd3/classmodel_1_1instructions_1_1_movement_instruction.html#a33e802cec8283d190a8daac6e485e3b4" target="_top" xlink:title="model.instructions.Movement\lInstruction.execute">
<polygon fill="white" stroke="black" points="984.5,-201.245 984.5,-231.245 1143.5,-231.245 1143.5,-201.245 984.5,-201.245"/>
<text text-anchor="start" x="992.5" y="-219.245" font-family="Helvetica,sans-Serif" font-size="10.00">model.instructions.Movement</text>
<text text-anchor="middle" x="1064" y="-208.245" font-family="Helvetica,sans-Serif" font-size="10.00">Instruction.execute</text>
</a>
</g>
</g>
<!-- Node6&#45;&gt;Node7 -->
<g id="edge6" class="edge"><title>Node6&#45;&gt;Node7</title>
<path fill="none" stroke="midnightblue" d="M923.928,-326.614C932.235,-323.756 940.52,-320.327 948,-316.245 989.805,-293.433 1029.68,-253.262 1049.66,-231.421"/>
<polygon fill="midnightblue" stroke="midnightblue" points="922.677,-323.339 914.213,-329.711 924.804,-330.008 922.677,-323.339"/>
</g>
<!-- Node9 -->
<g id="node9" class="node"><title>Node9</title>
<g id="a_node9"><a xlink:href="../../d4/d64/classview_1_1_view_updater.html#adc0790ceed057768bd5a29a470e626d1" target="_top" xlink:title="view.ViewUpdater.updateWorkspace">
<polygon fill="white" stroke="black" points="564.5,-293.745 564.5,-312.745 751.5,-312.745 751.5,-293.745 564.5,-293.745"/>
<text text-anchor="middle" x="658" y="-300.745" font-family="Helvetica,sans-Serif" font-size="10.00">view.ViewUpdater.updateWorkspace</text>
</a>
</g>
</g>
<!-- Node8&#45;&gt;Node9 -->
<g id="edge8" class="edge"><title>Node8&#45;&gt;Node9</title>
<path fill="none" stroke="midnightblue" d="M504.186,-303.245C522.755,-303.245 543.79,-303.245 564.184,-303.245"/>
<polygon fill="midnightblue" stroke="midnightblue" points="504.143,-299.745 494.143,-303.245 504.143,-306.745 504.143,-299.745"/>
</g>
<!-- Node10 -->
<g id="node10" class="node"><title>Node10</title>
<g id="a_node10"><a xlink:href="../../d1/dd3/classmodel_1_1instructions_1_1_movement_instruction.html#a51c776093aeb820937b12e2b89eb2f89" target="_top" xlink:title="model.instructions.Movement\lInstruction.updateView">
<polygon fill="white" stroke="black" points="788.5,-277.245 788.5,-307.245 947.5,-307.245 947.5,-277.245 788.5,-277.245"/>
<text text-anchor="start" x="796.5" y="-295.245" font-family="Helvetica,sans-Serif" font-size="10.00">model.instructions.Movement</text>
<text text-anchor="middle" x="868" y="-284.245" font-family="Helvetica,sans-Serif" font-size="10.00">Instruction.updateView</text>
</a>
</g>
</g>
<!-- Node9&#45;&gt;Node10 -->
<g id="edge9" class="edge"><title>Node9&#45;&gt;Node10</title>
<path fill="none" stroke="midnightblue" d="M761.821,-297.807C770.762,-297.335 779.714,-296.861 788.413,-296.401"/>
<polygon fill="midnightblue" stroke="midnightblue" points="761.547,-294.317 751.746,-298.34 761.917,-301.307 761.547,-294.317"/>
</g>
<!-- Node10&#45;&gt;Node7 -->
<g id="edge10" class="edge"><title>Node10&#45;&gt;Node7</title>
<path fill="none" stroke="midnightblue" d="M916.814,-273.514C949.949,-260.533 993.496,-243.473 1024.42,-231.359"/>
<polygon fill="midnightblue" stroke="midnightblue" points="915.362,-270.323 907.328,-277.23 917.916,-276.841 915.362,-270.323"/>
</g>
<!-- Node12 -->
<g id="node12" class="node"><title>Node12</title>
<g id="a_node12"><a xlink:href="../../da/d64/classview_1_1_workspace.html#abbd85b844575ebab6643ba4ddc5a1612" target="_top" xlink:title="view.Workspace.Workspace">
<polygon fill="white" stroke="black" points="992,-419.745 992,-438.745 1136,-438.745 1136,-419.745 992,-419.745"/>
<text text-anchor="middle" x="1064" y="-426.745" font-family="Helvetica,sans-Serif" font-size="10.00">view.Workspace.Workspace</text>
</a>
</g>
</g>
<!-- Node11&#45;&gt;Node12 -->
<g id="edge12" class="edge"><title>Node11&#45;&gt;Node12</title>
<path fill="none" stroke="midnightblue" d="M520.198,-402.224C534.657,-404.997 549.751,-407.522 564,-409.245 715.491,-427.566 894.537,-430.149 991.647,-429.974"/>
<polygon fill="midnightblue" stroke="midnightblue" points="520.795,-398.774 510.306,-400.271 519.439,-405.642 520.795,-398.774"/>
</g>
<!-- Node13 -->
<g id="node13" class="node"><title>Node13</title>
<g id="a_node13"><a xlink:href="../../da/d64/classview_1_1_workspace.html#a9eea72f983d5e7ad5af85056d927e380" target="_top" xlink:title="view.Workspace.configure\lTurtleEventHandler">
<polygon fill="white" stroke="black" points="589.5,-370.245 589.5,-400.245 726.5,-400.245 726.5,-370.245 589.5,-370.245"/>
<text text-anchor="start" x="597.5" y="-388.245" font-family="Helvetica,sans-Serif" font-size="10.00">view.Workspace.configure</text>
<text text-anchor="middle" x="658" y="-377.245" font-family="Helvetica,sans-Serif" font-size="10.00">TurtleEventHandler</text>
</a>
</g>
</g>
<!-- Node11&#45;&gt;Node13 -->
<g id="edge13" class="edge"><title>Node11&#45;&gt;Node13</title>
<path fill="none" stroke="midnightblue" d="M523.726,-385.245C545.269,-385.245 568.474,-385.245 589.389,-385.245"/>
<polygon fill="midnightblue" stroke="midnightblue" points="523.632,-381.745 513.632,-385.245 523.632,-388.745 523.632,-381.745"/>
</g>
<!-- Node14 -->
<g id="node14" class="node"><title>Node14</title>
<g id="a_node14"><a xlink:href="../../da/d64/classview_1_1_workspace.html#a4abde41a3048fa8f64ddfec40c8ffdb7" target="_top" xlink:title="view.Workspace.addTurtle">
<polygon fill="white" stroke="black" points="799.5,-375.745 799.5,-394.745 936.5,-394.745 936.5,-375.745 799.5,-375.745"/>
<text text-anchor="middle" x="868" y="-382.745" font-family="Helvetica,sans-Serif" font-size="10.00">view.Workspace.addTurtle</text>
</a>
</g>
</g>
<!-- Node13&#45;&gt;Node14 -->
<g id="edge14" class="edge"><title>Node13&#45;&gt;Node14</title>
<path fill="none" stroke="midnightblue" d="M736.541,-385.245C757.208,-385.245 779.368,-385.245 799.452,-385.245"/>
<polygon fill="midnightblue" stroke="midnightblue" points="736.532,-381.745 726.532,-385.245 736.532,-388.745 736.532,-381.745"/>
</g>
<!-- Node14&#45;&gt;Node12 -->
<g id="edge24" class="edge"><title>Node14&#45;&gt;Node12</title>
<path fill="none" stroke="midnightblue" d="M920.957,-397.029C952.274,-404.132 991.643,-413.061 1020.99,-419.716"/>
<polygon fill="midnightblue" stroke="midnightblue" points="921.622,-393.591 911.095,-394.792 920.073,-400.418 921.622,-393.591"/>
</g>
<!-- Node15 -->
<g id="node15" class="node"><title>Node15</title>
<g id="a_node15"><a xlink:href="../../d6/de7/classview_1_1_s_logo_view.html#acf432f20e1a7dda7bef97f0619fb0fa5" target="_top" xlink:title="view.SLogoView.configure\lAddTurtlesButton">
<polygon fill="white" stroke="black" points="995.5,-370.245 995.5,-400.245 1132.5,-400.245 1132.5,-370.245 995.5,-370.245"/>
<text text-anchor="start" x="1003.5" y="-388.245" font-family="Helvetica,sans-Serif" font-size="10.00">view.SLogoView.configure</text>
<text text-anchor="middle" x="1064" y="-377.245" font-family="Helvetica,sans-Serif" font-size="10.00">AddTurtlesButton</text>
</a>
</g>
</g>
<!-- Node14&#45;&gt;Node15 -->
<g id="edge15" class="edge"><title>Node14&#45;&gt;Node15</title>
<path fill="none" stroke="midnightblue" d="M946.979,-385.245C962.99,-385.245 979.722,-385.245 995.334,-385.245"/>
<polygon fill="midnightblue" stroke="midnightblue" points="946.579,-381.745 936.579,-385.245 946.579,-388.745 946.579,-381.745"/>
</g>
<!-- Node16 -->
<g id="node16" class="node"><title>Node16</title>
<g id="a_node16"><a xlink:href="../../d6/de7/classview_1_1_s_logo_view.html#ae0050481c9168dd8eeb434d9aa79b047" target="_top" xlink:title="view.SLogoView.configureUI">
<polygon fill="white" stroke="black" points="1180.5,-375.745 1180.5,-394.745 1327.5,-394.745 1327.5,-375.745 1180.5,-375.745"/>
<text text-anchor="middle" x="1254" y="-382.745" font-family="Helvetica,sans-Serif" font-size="10.00">view.SLogoView.configureUI</text>
</a>
</g>
</g>
<!-- Node15&#45;&gt;Node16 -->
<g id="edge16" class="edge"><title>Node15&#45;&gt;Node16</title>
<path fill="none" stroke="midnightblue" d="M1142.89,-385.245C1155.27,-385.245 1168.02,-385.245 1180.27,-385.245"/>
<polygon fill="midnightblue" stroke="midnightblue" points="1142.61,-381.745 1132.61,-385.245 1142.61,-388.745 1142.61,-381.745"/>
</g>
<!-- Node17 -->
<g id="node17" class="node"><title>Node17</title>
<g id="a_node17"><a xlink:href="../../d1/d75/classview_1_1_main_view.html#ade3718ede33fa2086649c8b3cf75d2f9" target="_top" xlink:title="view.MainView.initTabs">
<polygon fill="white" stroke="black" points="1545.5,-394.745 1545.5,-413.745 1666.5,-413.745 1666.5,-394.745 1545.5,-394.745"/>
<text text-anchor="middle" x="1606" y="-401.745" font-family="Helvetica,sans-Serif" font-size="10.00">view.MainView.initTabs</text>
</a>
</g>
</g>
<!-- Node16&#45;&gt;Node17 -->
<g id="edge17" class="edge"><title>Node16&#45;&gt;Node17</title>
<path fill="none" stroke="midnightblue" d="M1337.56,-389.727C1401.37,-393.191 1488.18,-397.903 1545.36,-401.008"/>
<polygon fill="midnightblue" stroke="midnightblue" points="1337.7,-386.229 1327.52,-389.182 1337.32,-393.219 1337.7,-386.229"/>
</g>
<!-- Node19 -->
<g id="node19" class="node"><title>Node19</title>
<g id="a_node19"><a xlink:href="../../d1/d75/classview_1_1_main_view.html#a39a2b399924a553ccd89dd2a2e6ea208" target="_top" xlink:title="view.MainView.newTab">
<polygon fill="white" stroke="black" points="1364,-356.745 1364,-375.745 1484,-375.745 1484,-356.745 1364,-356.745"/>
<text text-anchor="middle" x="1424" y="-363.745" font-family="Helvetica,sans-Serif" font-size="10.00">view.MainView.newTab</text>
</a>
</g>
</g>
<!-- Node16&#45;&gt;Node19 -->
<g id="edge19" class="edge"><title>Node16&#45;&gt;Node19</title>
<path fill="none" stroke="midnightblue" d="M1337.65,-375.897C1346.49,-374.898 1355.34,-373.897 1363.82,-372.938"/>
<polygon fill="midnightblue" stroke="midnightblue" points="1337.25,-372.42 1327.71,-377.022 1338.04,-379.376 1337.25,-372.42"/>
</g>
<!-- Node18 -->
<g id="node18" class="node"><title>Node18</title>
<g id="a_node18"><a xlink:href="../../d1/d75/classview_1_1_main_view.html#a9e27015c007bed90f32c79fc1187083f" target="_top" xlink:title="view.MainView.MainView">
<polygon fill="white" stroke="black" points="2146,-375.745 2146,-394.745 2276,-394.745 2276,-375.745 2146,-375.745"/>
<text text-anchor="middle" x="2211" y="-382.745" font-family="Helvetica,sans-Serif" font-size="10.00">view.MainView.MainView</text>
</a>
</g>
</g>
<!-- Node17&#45;&gt;Node18 -->
<g id="edge18" class="edge"><title>Node17&#45;&gt;Node18</title>
<path fill="none" stroke="midnightblue" d="M1676.74,-402.048C1794.6,-398.334 2031.48,-390.87 2145.62,-387.274"/>
<polygon fill="midnightblue" stroke="midnightblue" points="1676.63,-398.549 1666.75,-402.363 1676.85,-405.546 1676.63,-398.549"/>
</g>
<!-- Node20 -->
<g id="node20" class="node"><title>Node20</title>
<g id="a_node20"><a xlink:href="../../d1/d75/classview_1_1_main_view.html#a0424800b5057be73f94e16ef2e1e2b33" target="_top" xlink:title="view.MainView.configureFileMenu">
<polygon fill="white" stroke="black" points="1520.5,-356.745 1520.5,-375.745 1691.5,-375.745 1691.5,-356.745 1520.5,-356.745"/>
<text text-anchor="middle" x="1606" y="-363.745" font-family="Helvetica,sans-Serif" font-size="10.00">view.MainView.configureFileMenu</text>
</a>
</g>
</g>
<!-- Node19&#45;&gt;Node20 -->
<g id="edge20" class="edge"><title>Node19&#45;&gt;Node20</title>
<path fill="none" stroke="midnightblue" d="M1494.55,-366.245C1502.96,-366.245 1511.62,-366.245 1520.22,-366.245"/>
<polygon fill="midnightblue" stroke="midnightblue" points="1494.44,-362.745 1484.44,-366.245 1494.44,-369.745 1494.44,-362.745"/>
</g>
<!-- Node21 -->
<g id="node21" class="node"><title>Node21</title>
<g id="a_node21"><a xlink:href="../../d1/d75/classview_1_1_main_view.html#a200c2c8e08e038e2ea86acc40c17d8d2" target="_top" xlink:title="view.MainView.configureTopMenu">
<polygon fill="white" stroke="black" points="1728,-356.745 1728,-375.745 1900,-375.745 1900,-356.745 1728,-356.745"/>
<text text-anchor="middle" x="1814" y="-363.745" font-family="Helvetica,sans-Serif" font-size="10.00">view.MainView.configureTopMenu</text>
</a>
</g>
</g>
<!-- Node20&#45;&gt;Node21 -->
<g id="edge21" class="edge"><title>Node20&#45;&gt;Node21</title>
<path fill="none" stroke="midnightblue" d="M1701.86,-366.245C1710.57,-366.245 1719.36,-366.245 1727.98,-366.245"/>
<polygon fill="midnightblue" stroke="midnightblue" points="1701.68,-362.745 1691.68,-366.245 1701.68,-369.745 1701.68,-362.745"/>
</g>
<!-- Node22 -->
<g id="node22" class="node"><title>Node22</title>
<g id="a_node22"><a xlink:href="../../d1/d75/classview_1_1_main_view.html#aff9e267e9368512a16e425f08d7b3ea0" target="_top" xlink:title="view.MainView.initRowConstraints">
<polygon fill="white" stroke="black" points="1936.5,-356.745 1936.5,-375.745 2109.5,-375.745 2109.5,-356.745 1936.5,-356.745"/>
<text text-anchor="middle" x="2023" y="-363.745" font-family="Helvetica,sans-Serif" font-size="10.00">view.MainView.initRowConstraints</text>
</a>
</g>
</g>
<!-- Node21&#45;&gt;Node22 -->
<g id="edge22" class="edge"><title>Node21&#45;&gt;Node22</title>
<path fill="none" stroke="midnightblue" d="M1910.22,-366.245C1918.9,-366.245 1927.65,-366.245 1936.24,-366.245"/>
<polygon fill="midnightblue" stroke="midnightblue" points="1910.09,-362.745 1900.09,-366.245 1910.09,-369.745 1910.09,-362.745"/>
</g>
<!-- Node22&#45;&gt;Node18 -->
<g id="edge23" class="edge"><title>Node22&#45;&gt;Node18</title>
<path fill="none" stroke="midnightblue" d="M2119.68,-376.019C2128.57,-376.927 2137.43,-377.832 2145.92,-378.7"/>
<polygon fill="midnightblue" stroke="midnightblue" points="2119.95,-372.529 2109.65,-374.994 2119.24,-379.493 2119.95,-372.529"/>
</g>
<!-- Node24 -->
<g id="node24" class="node"><title>Node24</title>
<g id="a_node24"><a xlink:href="../../d4/d64/classview_1_1_view_updater.html#ad29dfbb2499161b985c26e01f73ea5ac" target="_top" xlink:title="view.ViewUpdater.towards">
<polygon fill="white" stroke="black" points="798,-118.745 798,-137.745 938,-137.745 938,-118.745 798,-118.745"/>
<text text-anchor="middle" x="868" y="-125.745" font-family="Helvetica,sans-Serif" font-size="10.00">view.ViewUpdater.towards</text>
</a>
</g>
</g>
<!-- Node23&#45;&gt;Node24 -->
<g id="edge26" class="edge"><title>Node23&#45;&gt;Node24</title>
<path fill="none" stroke="midnightblue" d="M747.207,-123.638C764.152,-124.289 781.669,-124.963 797.903,-125.588"/>
<polygon fill="midnightblue" stroke="midnightblue" points="746.874,-120.122 736.747,-123.235 746.605,-127.117 746.874,-120.122"/>
</g>
<!-- Node24&#45;&gt;Node7 -->
<g id="edge27" class="edge"><title>Node24&#45;&gt;Node7</title>
<path fill="none" stroke="midnightblue" d="M899.467,-142.065C934.844,-158.112 993.005,-184.495 1029.59,-201.09"/>
<polygon fill="midnightblue" stroke="midnightblue" points="900.683,-138.774 890.131,-137.83 897.792,-145.149 900.683,-138.774"/>
</g>
<!-- Node26 -->
<g id="node26" class="node"><title>Node26</title>
<g id="a_node26"><a xlink:href="../../d6/de7/classview_1_1_s_logo_view.html#afa2b659c4d080b5f927978b453633ab2" target="_top" xlink:title="view.SLogoView.towards">
<polygon fill="white" stroke="black" points="592.5,-217.745 592.5,-236.745 723.5,-236.745 723.5,-217.745 592.5,-217.745"/>
<text text-anchor="middle" x="658" y="-224.745" font-family="Helvetica,sans-Serif" font-size="10.00">view.SLogoView.towards</text>
</a>
</g>
</g>
<!-- Node25&#45;&gt;Node26 -->
<g id="edge29" class="edge"><title>Node25&#45;&gt;Node26</title>
<path fill="none" stroke="midnightblue" d="M529.377,-227.245C550.328,-227.245 572.497,-227.245 592.376,-227.245"/>
<polygon fill="midnightblue" stroke="midnightblue" points="529.205,-223.745 519.205,-227.245 529.205,-230.745 529.205,-223.745"/>
</g>
<!-- Node27&#45;&gt;Node7 -->
<g id="edge31" class="edge"><title>Node27&#45;&gt;Node7</title>
<path fill="none" stroke="midnightblue" d="M887.717,-55.6021C903.796,-69.7084 927.552,-90.6778 948,-109.245 983.736,-141.693 1025.03,-180.422 1047.11,-201.235"/>
<polygon fill="midnightblue" stroke="midnightblue" points="889.894,-52.8567 880.066,-48.9 885.282,-58.1221 889.894,-52.8567"/>
</g>
<!-- Node29&#45;&gt;Node7 -->
<g id="edge34" class="edge"><title>Node29&#45;&gt;Node7</title>
<path fill="none" stroke="midnightblue" d="M732.363,-256.347C803.606,-247.706 911.409,-234.631 984.386,-225.78"/>
<polygon fill="midnightblue" stroke="midnightblue" points="731.631,-252.91 722.125,-257.589 732.474,-259.859 731.631,-252.91"/>
</g>
<!-- Node31&#45;&gt;Node7 -->
<g id="edge37" class="edge"><title>Node31&#45;&gt;Node7</title>
<path fill="none" stroke="midnightblue" d="M952.874,-202.054C963.364,-203.405 974.063,-204.784 984.467,-206.125"/>
<polygon fill="midnightblue" stroke="midnightblue" points="953.262,-198.575 942.897,-200.768 952.367,-205.517 953.262,-198.575"/>
</g>
</g>
</svg>
        <g id="navigator" transform="translate(0 0)" fill="#404254">
                <rect fill="#f2f5e9" fill-opacity="0.5" stroke="#606060" stroke-width=".5" x="0" y="0" width="60" height="60"/>
                <use id="zoomplus" xlink:href="#zoomPlus" x="17" y="9" onmousedown="handleZoom(evt,'in')"/>
                <use id="zoomminus" xlink:href="#zoomMin" x="42" y="9" onmousedown="handleZoom(evt,'out')"/>
                <use id="reset" xlink:href="#resetDef" x="30" y="36" onmousedown="handleReset()"/>
                <g id="arrowUp" xlink:href="#dirArrow" transform="translate(30 24)" onmousedown="handlePan(0,-1)">
                  <use xlink:href="#rim" fill="#404040">
                        <set attributeName="fill" to="#808080" begin="arrowUp.mouseover" end="arrowUp.mouseout"/>
                  </use>
                  <path fill="none" stroke="white" stroke-width="1.5" d="M0,-3.0v7 M-2.5,-0.5L0,-3.0L2.5,-0.5"/>
                </g>
                <g id="arrowRight" xlink:href="#dirArrow" transform="rotate(90) translate(36 -43)" onmousedown="handlePan(1,0)">
                  <use xlink:href="#rim" fill="#404040">
                        <set attributeName="fill" to="#808080" begin="arrowRight.mouseover" end="arrowRight.mouseout"/>
                  </use>
                  <path fill="none" stroke="white" stroke-width="1.5" d="M0,-3.0v7 M-2.5,-0.5L0,-3.0L2.5,-0.5"/>
                </g>
                <g id="arrowDown" xlink:href="#dirArrow" transform="rotate(180) translate(-30 -48)" onmousedown="handlePan(0,1)">
                  <use xlink:href="#rim" fill="#404040">
                        <set attributeName="fill" to="#808080" begin="arrowDown.mouseover" end="arrowDown.mouseout"/>
                  </use>
                  <path fill="none" stroke="white" stroke-width="1.5" d="M0,-3.0v7 M-2.5,-0.5L0,-3.0L2.5,-0.5"/>
                </g>
                <g id="arrowLeft" xlink:href="#dirArrow" transform="rotate(270) translate(-36 17)" onmousedown="handlePan(-1,0)">
                  <use xlink:href="#rim" fill="#404040">
                        <set attributeName="fill" to="#808080" begin="arrowLeft.mouseover" end="arrowLeft.mouseout"/>
                  </use>
                  <path fill="none" stroke="white" stroke-width="1.5" d="M0,-3.0v7 M-2.5,-0.5L0,-3.0L2.5,-0.5"/>
                </g>
        </g>
        <svg viewBox="0 0 15 15" width="100%" height="30px" preserveAspectRatio="xMaxYMin meet">
         <g id="arrow_out" transform="scale(0.3 0.3)">
          <a xlink:href="classview_1_1_turtle_view_afddbc74313a99bb100c8c50efa88f330_icgraph_org.svg" target="_base">
           <rect id="button" ry="5" rx="5" y="6" x="6" height="38" width="38"
                fill="#f2f5e9" fill-opacity="0.5" stroke="#606060" stroke-width="1.0"/>
           <path id="arrow"
             d="M 11.500037,31.436501 C 11.940474,20.09759 22.043105,11.32322 32.158766,21.979434 L 37.068811,17.246167 C 37.068811,17.246167 37.088388,32 37.088388,32 L 22.160133,31.978069 C 22.160133,31.978069 26.997745,27.140456 26.997745,27.140456 C 18.528582,18.264221 13.291696,25.230495 11.500037,31.436501 z"
             style="fill:#404040;"/>
          </a>
         </g>
        </svg>
</svg>
