<?xml version="1.0" encoding="UTF-8" standalone="no"?>
<!DOCTYPE svg PUBLIC "-//W3C//DTD SVG 1.1//EN"
 "http://www.w3.org/Graphics/SVG/1.1/DTD/svg11.dtd">
<!-- Generated by graphviz version 2.36.0 (20140111.2315)
 -->
<!-- Title: view.TurtleView.getImageID Pages: 1 -->
<svg width="710pt" height="38pt"
 viewBox="0.00 0.00 710.00 38.00" xmlns="http://www.w3.org/2000/svg" xmlns:xlink="http://www.w3.org/1999/xlink">
<g id="graph0" class="graph" transform="scale(1 1) rotate(0) translate(4 34)">
<title>view.TurtleView.getImageID</title>
<polygon fill="white" stroke="none" points="-4,4 -4,-34 706,-34 706,4 -4,4"/>
<!-- Node1 -->
<g id="node1" class="node"><title>Node1</title>
<polygon fill="#bfbfbf" stroke="black" points="0,-5.5 0,-24.5 144,-24.5 144,-5.5 0,-5.5"/>
<text text-anchor="middle" x="72" y="-12.5" font-family="Helvetica,sans-Serif" font-size="10.00">view.TurtleView.getImageID</text>
</g>
<!-- Node2 -->
<g id="node2" class="node"><title>Node2</title>
<g id="a_node2"><a xlink:href="../../d8/df7/classview_1_1_turtle_view.html#a2efe7ca23cb6fdf75e0bfba1108d3af6" target="_top" xlink:title="view.TurtleView.createStamp">
<polygon fill="white" stroke="black" points="180,-5.5 180,-24.5 332,-24.5 332,-5.5 180,-5.5"/>
<text text-anchor="middle" x="256" y="-12.5" font-family="Helvetica,sans-Serif" font-size="10.00">view.TurtleView.createStamp</text>
</a>
</g>
</g>
<!-- Node1&#45;&gt;Node2 -->
<g id="edge1" class="edge"><title>Node1&#45;&gt;Node2</title>
<path fill="none" stroke="midnightblue" d="M154.166,-15C162.762,-15 171.477,-15 179.998,-15"/>
<polygon fill="midnightblue" stroke="midnightblue" points="154.148,-11.5001 144.148,-15 154.148,-18.5001 154.148,-11.5001"/>
</g>
<!-- Node3 -->
<g id="node3" class="node"><title>Node3</title>
<g id="a_node3"><a xlink:href="../../d4/d64/classview_1_1_view_updater.html#a2a80f45d7af563e6b2b75bf3488e254c" target="_top" xlink:title="view.ViewUpdater.createStamp">
<polygon fill="white" stroke="black" points="368.5,-5.5 368.5,-24.5 533.5,-24.5 533.5,-5.5 368.5,-5.5"/>
<text text-anchor="middle" x="451" y="-12.5" font-family="Helvetica,sans-Serif" font-size="10.00">view.ViewUpdater.createStamp</text>
</a>
</g>
</g>
<!-- Node2&#45;&gt;Node3 -->
<g id="edge2" class="edge"><title>Node2&#45;&gt;Node3</title>
<path fill="none" stroke="midnightblue" d="M342.264,-15C350.923,-15 359.705,-15 368.325,-15"/>
<polygon fill="midnightblue" stroke="midnightblue" points="342.172,-11.5001 332.171,-15 342.171,-18.5001 342.172,-11.5001"/>
</g>
<!-- Node4 -->
<g id="node4" class="node"><title>Node4</title>
<g id="a_node4"><a xlink:href="../../d2/d2b/classmodel_1_1instructions_1_1_front_end_instruction.html#ad73f35e44bf151648463df17e10152ac" target="_top" xlink:title="model.instructions.Front\lEndInstruction.execute">
<polygon fill="white" stroke="black" points="570,-0 570,-30 702,-30 702,-0 570,-0"/>
<text text-anchor="start" x="578" y="-18" font-family="Helvetica,sans-Serif" font-size="10.00">model.instructions.Front</text>
<text text-anchor="middle" x="636" y="-7" font-family="Helvetica,sans-Serif" font-size="10.00">EndInstruction.execute</text>
</a>
</g>
</g>
<!-- Node3&#45;&gt;Node4 -->
<g id="edge3" class="edge"><title>Node3&#45;&gt;Node4</title>
<path fill="none" stroke="midnightblue" d="M543.848,-15C552.594,-15 561.336,-15 569.754,-15"/>
<polygon fill="midnightblue" stroke="midnightblue" points="543.599,-11.5001 533.599,-15 543.599,-18.5001 543.599,-11.5001"/>
</g>
</g>
</svg>
