<?xml version="1.0" encoding="UTF-8" standalone="no"?>
<!DOCTYPE svg PUBLIC "-//W3C//DTD SVG 1.1//EN"
 "http://www.w3.org/Graphics/SVG/1.1/DTD/svg11.dtd">
<!-- Generated by graphviz version 2.36.0 (20140111.2315)
 -->
<!-- Title: view.CustomizationBar Pages: 1 -->
<!--zoomable 841 -->
<svg id="main" version="1.1" xmlns="http://www.w3.org/2000/svg" xmlns:xlink="http://www.w3.org/1999/xlink" xml:space="preserve" onload="init(evt)">
<style type="text/css"><![CDATA[
.edge:hover path { stroke: red; }
.edge:hover polygon { stroke: red; fill: red; }
]]></style>
<script type="text/javascript"><![CDATA[
var edges = document.getElementsByTagName('g');
if (edges && edges.length) {
  for (var i=0;i<edges.length;i++) {
    if (edges[i].id.substr(0,4)=='edge') {
      edges[i].setAttribute('class','edge');
    }
  }
}
]]></script>
        <defs>
                <circle id="rim" cx="0" cy="0" r="7"/>
                <circle id="rim2" cx="0" cy="0" r="3.5"/>
                <g id="zoomPlus">
                        <use xlink:href="#rim" fill="#404040">
                                <set attributeName="fill" to="#808080" begin="zoomplus.mouseover" end="zoomplus.mouseout"/>
                        </use>
                        <path d="M-4,0h8M0,-4v8" fill="none" stroke="white" stroke-width="1.5" pointer-events="none"/>
                </g>
                <g id="zoomMin">
                        <use xlink:href="#rim" fill="#404040">
                                <set attributeName="fill" to="#808080" begin="zoomminus.mouseover" end="zoomminus.mouseout"/>
                        </use>
                        <path d="M-4,0h8" fill="none" stroke="white" stroke-width="1.5" pointer-events="none"/>
                </g>
                <g id="dirArrow">
                        <path fill="none" stroke="white" stroke-width="1.5" d="M0,-3.0v7 M-2.5,-0.5L0,-3.0L2.5,-0.5"/>
                </g>
               <g id="resetDef">
                       <use xlink:href="#rim2" fill="#404040">
                               <set attributeName="fill" to="#808080" begin="reset.mouseover" end="reset.mouseout"/>
                       </use>
               </g>
        </defs>

<script type="text/javascript">
var viewWidth = 1938;
var viewHeight = 841;
var sectionId = 'dynsection-1';
</script>
<script xlink:href="../../svgpan.js"/>
<svg id="graph" class="graph">
<g id="viewport">
<title>view.CustomizationBar</title>
<polygon fill="white" stroke="none" points="-4,4 -4,-836.725 1934,-836.725 1934,4 -4,4"/>
<!-- Node1 -->
<g id="node1" class="node"><title>Node1</title>
<polygon fill="#bfbfbf" stroke="black" points="1616.5,-608.225 1616.5,-627.225 1741.5,-627.225 1741.5,-608.225 1616.5,-608.225"/>
<text text-anchor="middle" x="1679" y="-615.225" font-family="Helvetica,sans-Serif" font-size="10.00">view.CustomizationBar</text>
</g>
<!-- Node2 -->
<g id="node2" class="node"><title>Node2</title>
<polygon fill="white" stroke="#bfbfbf" points="66,-756.225 66,-775.225 108,-775.225 108,-756.225 66,-756.225"/>
<text text-anchor="middle" x="87" y="-763.225" font-family="Helvetica,sans-Serif" font-size="10.00">HBox</text>
</g>
<!-- Node2&#45;&gt;Node1 -->
<g id="edge1" class="edge"><title>Node2&#45;&gt;Node1</title>
<path fill="none" stroke="midnightblue" d="M118.224,-770.413C173.84,-778.619 296.215,-794.725 400,-794.725 400,-794.725 400,-794.725 1466,-794.725 1529.9,-794.725 1548.93,-778.658 1598,-737.725 1636.65,-705.488 1663.92,-649.897 1673.86,-627.498"/>
<polygon fill="midnightblue" stroke="midnightblue" points="118.424,-766.904 108.016,-768.884 117.387,-773.826 118.424,-766.904"/>
</g>
<!-- Node28 -->
<g id="node28" class="node"><title>Node28</title>
<g id="a_node28"><a xlink:href="../../da/dc8/classview_1_1_editor.html" target="_top" xlink:title="view.Editor">
<polygon fill="white" stroke="black" points="367.5,-665.225 367.5,-684.225 434.5,-684.225 434.5,-665.225 367.5,-665.225"/>
<text text-anchor="middle" x="401" y="-672.225" font-family="Helvetica,sans-Serif" font-size="10.00">view.Editor</text>
</a>
</g>
</g>
<!-- Node2&#45;&gt;Node28 -->
<g id="edge37" class="edge"><title>Node2&#45;&gt;Node28</title>
<path fill="none" stroke="midnightblue" d="M118.278,-756.894C177.123,-739.731 306.466,-702.006 367.237,-684.281"/>
<polygon fill="midnightblue" stroke="midnightblue" points="117.091,-753.594 108.471,-759.754 119.051,-760.314 117.091,-753.594"/>
</g>
<!-- Node3 -->
<g id="node3" class="node"><title>Node3</title>
<g id="a_node3"><a xlink:href="../../da/d64/classview_1_1_workspace.html" target="_top" xlink:title="view.Workspace">
<polygon fill="white" stroke="black" points="1420,-274.225 1420,-293.225 1510,-293.225 1510,-274.225 1420,-274.225"/>
<text text-anchor="middle" x="1465" y="-281.225" font-family="Helvetica,sans-Serif" font-size="10.00">view.Workspace</text>
</a>
</g>
</g>
<!-- Node3&#45;&gt;Node1 -->
<g id="edge2" class="edge"><title>Node3&#45;&gt;Node1</title>
<path fill="none" stroke="#9a32cd" stroke-dasharray="5,2" d="M1494.58,-298.141C1524.4,-314.554 1570.56,-344.044 1598,-381.725 1653.02,-457.26 1672.15,-573.342 1676.78,-607.773"/>
<polygon fill="#9a32cd" stroke="#9a32cd" points="1495.99,-294.922 1485.52,-293.278 1492.68,-301.09 1495.99,-294.922"/>
<text text-anchor="middle" x="1563" y="-384.725" font-family="Helvetica,sans-Serif" font-size="10.00"> myWorkspace</text>
</g>
<!-- Node22 -->
<g id="node22" class="node"><title>Node22</title>
<g id="a_node22"><a xlink:href="../../d4/d64/classview_1_1_view_updater.html" target="_top" xlink:title="view.ViewUpdater">
<polygon fill="white" stroke="black" points="1830,-405.225 1830,-424.225 1930,-424.225 1930,-405.225 1830,-405.225"/>
<text text-anchor="middle" x="1880" y="-412.225" font-family="Helvetica,sans-Serif" font-size="10.00">view.ViewUpdater</text>
</a>
</g>
</g>
<!-- Node3&#45;&gt;Node22 -->
<g id="edge26" class="edge"><title>Node3&#45;&gt;Node22</title>
<path fill="none" stroke="#9a32cd" stroke-dasharray="5,2" d="M1516.27,-295.667C1541.02,-301.799 1571.21,-309.666 1598,-317.725 1693.38,-346.422 1804.66,-386.982 1853.65,-405.207"/>
<polygon fill="#9a32cd" stroke="#9a32cd" points="1516.93,-292.223 1506.38,-293.235 1515.26,-299.021 1516.93,-292.223"/>
<text text-anchor="middle" x="1679" y="-367.725" font-family="Helvetica,sans-Serif" font-size="10.00"> myWorkspace</text>
</g>
<!-- Node23 -->
<g id="node23" class="node"><title>Node23</title>
<g id="a_node23"><a xlink:href="../../de/d0a/classview_1_1_drawer.html" target="_top" xlink:title="view.Drawer">
<polygon fill="white" stroke="black" points="1642.5,-189.225 1642.5,-208.225 1715.5,-208.225 1715.5,-189.225 1642.5,-189.225"/>
<text text-anchor="middle" x="1679" y="-196.225" font-family="Helvetica,sans-Serif" font-size="10.00">view.Drawer</text>
</a>
</g>
</g>
<!-- Node3&#45;&gt;Node23 -->
<g id="edge28" class="edge"><title>Node3&#45;&gt;Node23</title>
<path fill="none" stroke="#9a32cd" stroke-dasharray="5,2" d="M1499.38,-270.341C1542.46,-253.068 1616.36,-223.439 1654.18,-208.275"/>
<polygon fill="#9a32cd" stroke="#9a32cd" points="1497.89,-267.17 1489.91,-274.14 1500.49,-273.667 1497.89,-267.17"/>
<text text-anchor="middle" x="1563" y="-261.725" font-family="Helvetica,sans-Serif" font-size="10.00"> myWorkspace</text>
</g>
<!-- Node26 -->
<g id="node26" class="node"><title>Node26</title>
<g id="a_node26"><a xlink:href="../../d6/de7/classview_1_1_s_logo_view.html" target="_top" xlink:title="view.SLogoView">
<polygon fill="white" stroke="black" points="611.5,-474.225 611.5,-493.225 702.5,-493.225 702.5,-474.225 611.5,-474.225"/>
<text text-anchor="middle" x="657" y="-481.225" font-family="Helvetica,sans-Serif" font-size="10.00">view.SLogoView</text>
</a>
</g>
</g>
<!-- Node3&#45;&gt;Node26 -->
<g id="edge33" class="edge"><title>Node3&#45;&gt;Node26</title>
<path fill="none" stroke="#9a32cd" stroke-dasharray="5,2" d="M1453.46,-302.218C1442.54,-319.996 1424.01,-346.618 1402,-363.725 1314,-432.138 1273,-416.561 1172,-463.725 1163.9,-467.51 1162.68,-470.574 1154,-472.725 1069.35,-493.701 808.269,-488.375 702.842,-485.233"/>
<polygon fill="#9a32cd" stroke="#9a32cd" points="1456.62,-303.754 1458.72,-293.368 1450.61,-300.179 1456.62,-303.754"/>
<text text-anchor="middle" x="1095" y="-488.725" font-family="Helvetica,sans-Serif" font-size="10.00"> myWorkspace</text>
</g>
<!-- Node4 -->
<g id="node4" class="node"><title>Node4</title>
<polygon fill="white" stroke="#bfbfbf" points="1206.5,-274.225 1206.5,-293.225 1273.5,-293.225 1273.5,-274.225 1206.5,-274.225"/>
<text text-anchor="middle" x="1240" y="-281.225" font-family="Helvetica,sans-Serif" font-size="10.00">StackPane</text>
</g>
<!-- Node4&#45;&gt;Node3 -->
<g id="edge3" class="edge"><title>Node4&#45;&gt;Node3</title>
<path fill="none" stroke="midnightblue" d="M1283.91,-283.725C1322.96,-283.725 1380.36,-283.725 1419.8,-283.725"/>
<polygon fill="midnightblue" stroke="midnightblue" points="1283.9,-280.225 1273.9,-283.725 1283.9,-287.225 1283.9,-280.225"/>
</g>
<!-- Node5 -->
<g id="node5" class="node"><title>Node5</title>
<polygon fill="white" stroke="#bfbfbf" points="354.5,-144.225 354.5,-163.225 447.5,-163.225 447.5,-144.225 354.5,-144.225"/>
<text text-anchor="middle" x="401" y="-151.225" font-family="Helvetica,sans-Serif" font-size="10.00">ResourceBundle</text>
</g>
<!-- Node5&#45;&gt;Node1 -->
<g id="edge51" class="edge"><title>Node5&#45;&gt;Node1</title>
<path fill="none" stroke="#9a32cd" stroke-dasharray="5,2" d="M423.56,-138.4C442.287,-125.952 470.631,-109.132 498,-100.725 539.811,-87.8825 552.408,-95.3083 596,-91.725 953.022,-62.3774 1102.67,101.064 1402,-95.725 1414.68,-104.058 1410.79,-112.675 1420,-124.725 1490.49,-216.901 1541.9,-214.148 1598,-315.725 1601.74,-322.491 1662.27,-556.755 1675.47,-607.92"/>
<polygon fill="#9a32cd" stroke="#9a32cd" points="421.481,-135.581 415.186,-144.103 425.421,-141.367 421.481,-135.581"/>
<text text-anchor="middle" x="1095" y="-9.72505" font-family="Helvetica,sans-Serif" font-size="10.00"> myResources</text>
</g>
<!-- Node5&#45;&gt;Node3 -->
<g id="edge4" class="edge"><title>Node5&#45;&gt;Node3</title>
<path fill="none" stroke="#9a32cd" stroke-dasharray="5,2" d="M436.45,-140.675C484.772,-123.572 575.766,-95.725 656,-95.725 656,-95.725 656,-95.725 1241,-95.725 1315.06,-95.725 1346.02,-90.2312 1402,-138.725 1413.07,-148.316 1448.96,-243.197 1460.44,-274.071"/>
<polygon fill="#9a32cd" stroke="#9a32cd" points="435.029,-137.467 426.806,-144.148 437.4,-144.053 435.029,-137.467"/>
<text text-anchor="middle" x="931" y="-98.725" font-family="Helvetica,sans-Serif" font-size="10.00"> myResources</text>
</g>
<!-- Node10 -->
<g id="node10" class="node"><title>Node10</title>
<g id="a_node10"><a xlink:href="../../d1/dc7/classview_1_1_side_bar.html" target="_top" xlink:title="view.SideBar">
<polygon fill="white" stroke="black" points="1201.5,-353.225 1201.5,-372.225 1278.5,-372.225 1278.5,-353.225 1201.5,-353.225"/>
<text text-anchor="middle" x="1240" y="-360.225" font-family="Helvetica,sans-Serif" font-size="10.00">view.SideBar</text>
</a>
</g>
</g>
<!-- Node5&#45;&gt;Node10 -->
<g id="edge13" class="edge"><title>Node5&#45;&gt;Node10</title>
<path fill="none" stroke="#9a32cd" stroke-dasharray="5,2" d="M457.686,-158.52C629.612,-173.439 1141.29,-218.754 1154,-230.725 1190.07,-264.685 1139.79,-303.088 1172,-340.725 1179.48,-349.469 1190.5,-354.757 1201.46,-357.949"/>
<polygon fill="#9a32cd" stroke="#9a32cd" points="457.847,-155.021 447.582,-157.644 457.242,-161.994 457.847,-155.021"/>
<text text-anchor="middle" x="781" y="-194.725" font-family="Helvetica,sans-Serif" font-size="10.00"> myResources</text>
</g>
<!-- Node5&#45;&gt;Node26 -->
<g id="edge35" class="edge"><title>Node5&#45;&gt;Node26</title>
<path fill="none" stroke="#9a32cd" stroke-dasharray="5,2" d="M415.626,-171.428C462.101,-231.809 613.452,-428.446 648.642,-474.166"/>
<polygon fill="#9a32cd" stroke="#9a32cd" points="418.201,-169.035 409.328,-163.245 412.654,-173.305 418.201,-169.035"/>
<text text-anchor="middle" x="538" y="-380.725" font-family="Helvetica,sans-Serif" font-size="10.00"> myResources</text>
</g>
<!-- Node6 -->
<g id="node6" class="node"><title>Node6</title>
<g id="a_node6"><a xlink:href="../../d8/df7/classview_1_1_turtle_view.html" target="_top" xlink:title="view.TurtleView">
<polygon fill="white" stroke="black" points="1197,-136.225 1197,-155.225 1283,-155.225 1283,-136.225 1197,-136.225"/>
<text text-anchor="middle" x="1240" y="-143.225" font-family="Helvetica,sans-Serif" font-size="10.00">view.TurtleView</text>
</a>
</g>
</g>
<!-- Node6&#45;&gt;Node3 -->
<g id="edge5" class="edge"><title>Node6&#45;&gt;Node3</title>
<path fill="none" stroke="#9a32cd" stroke-dasharray="5,2" d="M1293.25,-140.835C1327.07,-140.314 1370.52,-144.881 1402,-166.725 1440.34,-193.328 1456.86,-251.31 1462.06,-274.178"/>
<polygon fill="#9a32cd" stroke="#9a32cd" points="1292.97,-137.342 1283.08,-141.147 1293.19,-144.339 1292.97,-137.342"/>
<text text-anchor="middle" x="1364" y="-169.725" font-family="Helvetica,sans-Serif" font-size="10.00"> myActiveTurtle</text>
</g>
<!-- Node7 -->
<g id="node7" class="node"><title>Node7</title>
<polygon fill="white" stroke="#bfbfbf" points="897,-125.225 897,-144.225 965,-144.225 965,-125.225 897,-125.225"/>
<text text-anchor="middle" x="931" y="-132.225" font-family="Helvetica,sans-Serif" font-size="10.00">ImageView</text>
</g>
<!-- Node7&#45;&gt;Node6 -->
<g id="edge6" class="edge"><title>Node7&#45;&gt;Node6</title>
<path fill="none" stroke="midnightblue" d="M975.232,-136.274C1034.08,-138.383 1138.74,-142.133 1196.97,-144.219"/>
<polygon fill="midnightblue" stroke="midnightblue" points="975.265,-132.773 965.146,-135.913 975.014,-139.769 975.265,-132.773"/>
</g>
<!-- Node8 -->
<g id="node8" class="node"><title>Node8</title>
<polygon fill="white" stroke="#bfbfbf" points="908,-163.225 908,-182.225 954,-182.225 954,-163.225 908,-163.225"/>
<text text-anchor="middle" x="931" y="-170.225" font-family="Helvetica,sans-Serif" font-size="10.00">Group</text>
</g>
<!-- Node8&#45;&gt;Node3 -->
<g id="edge9" class="edge"><title>Node8&#45;&gt;Node3</title>
<path fill="none" stroke="#9a32cd" stroke-dasharray="5,2" d="M964.291,-174.682C1049.36,-179.939 1275.34,-194.581 1308,-203.725 1364.28,-219.479 1423.89,-256.602 1450.18,-274.179"/>
<polygon fill="#9a32cd" stroke="#9a32cd" points="964.372,-171.181 954.176,-174.061 963.942,-178.168 964.372,-171.181"/>
<text text-anchor="middle" x="1240" y="-206.725" font-family="Helvetica,sans-Serif" font-size="10.00"> myLines</text>
</g>
<!-- Node8&#45;&gt;Node6 -->
<g id="edge7" class="edge"><title>Node8&#45;&gt;Node6</title>
<path fill="none" stroke="#9a32cd" stroke-dasharray="5,2" d="M964.102,-169.902C1019.9,-164.994 1134.75,-154.893 1196.88,-149.43"/>
<polygon fill="#9a32cd" stroke="#9a32cd" points="963.734,-166.421 954.079,-170.783 964.347,-173.394 963.734,-166.421"/>
<text text-anchor="middle" x="1095" y="-166.725" font-family="Helvetica,sans-Serif" font-size="10.00"> myStamps</text>
</g>
<!-- Node9 -->
<g id="node9" class="node"><title>Node9</title>
<polygon fill="white" stroke="#bfbfbf" points="1172,-224.725 1172,-254.725 1308,-254.725 1308,-224.725 1172,-224.725"/>
<text text-anchor="start" x="1180" y="-242.725" font-family="Helvetica,sans-Serif" font-size="10.00">Map&lt; Integer, view.Turtle</text>
<text text-anchor="middle" x="1240" y="-231.725" font-family="Helvetica,sans-Serif" font-size="10.00">View &gt;</text>
</g>
<!-- Node9&#45;&gt;Node3 -->
<g id="edge8" class="edge"><title>Node9&#45;&gt;Node3</title>
<path fill="none" stroke="#9a32cd" stroke-dasharray="5,2" d="M1318.17,-252.67C1344.8,-257.389 1374.77,-262.984 1402,-268.725 1409.8,-270.37 1418.12,-272.276 1426.05,-274.167"/>
<polygon fill="#9a32cd" stroke="#9a32cd" points="1318.6,-249.192 1308.15,-250.906 1317.39,-256.086 1318.6,-249.192"/>
<text text-anchor="middle" x="1364" y="-271.725" font-family="Helvetica,sans-Serif" font-size="10.00"> myTurtles</text>
</g>
<!-- Node10&#45;&gt;Node3 -->
<g id="edge10" class="edge"><title>Node10&#45;&gt;Node3</title>
<path fill="none" stroke="#9a32cd" stroke-dasharray="5,2" d="M1288.91,-356.466C1321.73,-351.05 1365.7,-341.532 1402,-325.725 1421.07,-317.421 1440.52,-303.091 1452.43,-293.511"/>
<polygon fill="#9a32cd" stroke="#9a32cd" points="1288.01,-353.066 1278.68,-358.083 1289.1,-359.98 1288.01,-353.066"/>
<text text-anchor="middle" x="1364" y="-351.725" font-family="Helvetica,sans-Serif" font-size="10.00"> mySidebar</text>
</g>
<!-- Node10&#45;&gt;Node22 -->
<g id="edge30" class="edge"><title>Node10&#45;&gt;Node22</title>
<path fill="none" stroke="#9a32cd" stroke-dasharray="5,2" d="M1288.7,-368.324C1345.6,-374.861 1443.64,-385.675 1528,-392.725 1635.54,-401.712 1761.9,-408.777 1829.83,-412.289"/>
<polygon fill="#9a32cd" stroke="#9a32cd" points="1288.9,-364.824 1278.56,-367.155 1288.09,-371.778 1288.9,-364.824"/>
<text text-anchor="middle" x="1563" y="-401.725" font-family="Helvetica,sans-Serif" font-size="10.00"> mySidebar</text>
</g>
<!-- Node10&#45;&gt;Node26 -->
<g id="edge47" class="edge"><title>Node10&#45;&gt;Node26</title>
<path fill="none" stroke="#9a32cd" stroke-dasharray="5,2" d="M1202.7,-375.609C1187.79,-380.434 1170.24,-385.517 1154,-388.725 970.286,-425.022 911.503,-376.404 736,-441.725 712.938,-450.309 688.234,-464.569 672.95,-474.057"/>
<polygon fill="#9a32cd" stroke="#9a32cd" points="1204.17,-378.81 1212.56,-372.337 1201.96,-372.166 1204.17,-378.81"/>
<text text-anchor="middle" x="931" y="-414.725" font-family="Helvetica,sans-Serif" font-size="10.00"> mySidebar</text>
</g>
<!-- Node10&#45;&gt;Node28 -->
<g id="edge41" class="edge"><title>Node10&#45;&gt;Node28</title>
<path fill="none" stroke="#9a32cd" stroke-dasharray="5,2" d="M1224.16,-380.09C1208.62,-399.26 1184.72,-431.669 1172,-463.725 1154.54,-507.734 1186.61,-534.397 1154,-568.725 1053.66,-674.353 566.131,-676.605 434.699,-675.246"/>
<polygon fill="#9a32cd" stroke="#9a32cd" points="1226.96,-382.196 1230.65,-372.262 1221.57,-377.729 1226.96,-382.196"/>
<text text-anchor="middle" x="781" y="-670.725" font-family="Helvetica,sans-Serif" font-size="10.00"> mySidebar</text>
</g>
<!-- Node11 -->
<g id="node11" class="node"><title>Node11</title>
<polygon fill="white" stroke="#bfbfbf" points="910.5,-277.225 910.5,-296.225 951.5,-296.225 951.5,-277.225 910.5,-277.225"/>
<text text-anchor="middle" x="931" y="-284.225" font-family="Helvetica,sans-Serif" font-size="10.00">VBox</text>
</g>
<!-- Node11&#45;&gt;Node10 -->
<g id="edge11" class="edge"><title>Node11&#45;&gt;Node10</title>
<path fill="none" stroke="midnightblue" d="M961.743,-282.086C1007.07,-276.633 1094.44,-272.63 1154,-310.725 1167.1,-319.103 1159.85,-331.023 1172,-340.725 1180.42,-347.448 1190.97,-352.148 1201.19,-355.422"/>
<polygon fill="midnightblue" stroke="midnightblue" points="961.148,-278.634 951.688,-283.405 962.058,-285.575 961.148,-278.634"/>
</g>
<!-- Node12 -->
<g id="node12" class="node"><title>Node12</title>
<polygon fill="white" stroke="#bfbfbf" points="844.5,-239.225 844.5,-258.225 1017.5,-258.225 1017.5,-239.225 844.5,-239.225"/>
<text text-anchor="middle" x="931" y="-246.225" font-family="Helvetica,sans-Serif" font-size="10.00">ObservableList&lt; view.Property &gt;</text>
</g>
<!-- Node12&#45;&gt;Node10 -->
<g id="edge12" class="edge"><title>Node12&#45;&gt;Node10</title>
<path fill="none" stroke="#9a32cd" stroke-dasharray="5,2" d="M979.812,-237.329C1029.35,-228.567 1106.1,-223.957 1154,-264.725 1180.44,-287.222 1148.52,-315.163 1172,-340.725 1179.7,-349.11 1190.65,-354.306 1201.47,-357.524"/>
<polygon fill="#9a32cd" stroke="#9a32cd" points="979.156,-233.891 969.979,-239.185 980.455,-240.769 979.156,-233.891"/>
<text text-anchor="middle" x="1095" y="-267.725" font-family="Helvetica,sans-Serif" font-size="10.00"> myVariablesList</text>
</g>
<!-- Node13 -->
<g id="node13" class="node"><title>Node13</title>
<g id="a_node13"><a xlink:href="../../d1/dca/classmodel_1_1_execution_environment.html" target="_top" xlink:title="model.ExecutionEnvironment">
<polygon fill="white" stroke="black" points="322.5,-373.225 322.5,-392.225 479.5,-392.225 479.5,-373.225 322.5,-373.225"/>
<text text-anchor="middle" x="401" y="-380.225" font-family="Helvetica,sans-Serif" font-size="10.00">model.ExecutionEnvironment</text>
</a>
</g>
</g>
<!-- Node13&#45;&gt;Node10 -->
<g id="edge14" class="edge"><title>Node13&#45;&gt;Node10</title>
<path fill="none" stroke="#9a32cd" stroke-dasharray="5,2" d="M484.068,-371.981C602.081,-357.793 826.588,-335.512 1018,-343.725 1082.44,-346.49 1157.17,-353.771 1201.13,-358.474"/>
<polygon fill="#9a32cd" stroke="#9a32cd" points="483.53,-368.52 474.024,-373.2 484.373,-375.469 483.53,-368.52"/>
<text text-anchor="middle" x="781" y="-351.725" font-family="Helvetica,sans-Serif" font-size="10.00"> myEnvironment</text>
</g>
<!-- Node19 -->
<g id="node19" class="node"><title>Node19</title>
<g id="a_node19"><a xlink:href="../../dc/df5/classmodel_1_1_parser.html" target="_top" xlink:title="model.Parser">
<polygon fill="white" stroke="black" points="891,-570.225 891,-589.225 971,-589.225 971,-570.225 891,-570.225"/>
<text text-anchor="middle" x="931" y="-577.225" font-family="Helvetica,sans-Serif" font-size="10.00">model.Parser</text>
</a>
</g>
</g>
<!-- Node13&#45;&gt;Node19 -->
<g id="edge23" class="edge"><title>Node13&#45;&gt;Node19</title>
<path fill="none" stroke="#9a32cd" stroke-dasharray="5,2" d="M490.085,-384.9C518.406,-386.882 549.754,-390.436 578,-396.725 692.904,-422.308 724.795,-429.6 826,-489.725 865.414,-513.141 904.207,-552.058 921.14,-570.053"/>
<polygon fill="#9a32cd" stroke="#9a32cd" points="490.003,-381.388 479.799,-384.239 489.554,-388.373 490.003,-381.388"/>
<text text-anchor="middle" x="657" y="-436.725" font-family="Helvetica,sans-Serif" font-size="10.00"> myExecutionParameters</text>
</g>
<!-- Node13&#45;&gt;Node26 -->
<g id="edge43" class="edge"><title>Node13&#45;&gt;Node26</title>
<path fill="none" stroke="#9a32cd" stroke-dasharray="5,2" d="M429.875,-396.674C448.865,-405.958 474.692,-418.159 498,-427.725 542.019,-445.792 594.259,-463.624 626.264,-474.151"/>
<polygon fill="#9a32cd" stroke="#9a32cd" points="431.398,-393.523 420.881,-392.246 428.306,-399.803 431.398,-393.523"/>
<text text-anchor="middle" x="538" y="-460.725" font-family="Helvetica,sans-Serif" font-size="10.00"> myEnvironment</text>
</g>
<!-- Node14 -->
<g id="node14" class="node"><title>Node14</title>
<polygon fill="white" stroke="#bfbfbf" points="51.5,-433.225 51.5,-452.225 122.5,-452.225 122.5,-433.225 51.5,-433.225"/>
<text text-anchor="middle" x="87" y="-440.225" font-family="Helvetica,sans-Serif" font-size="10.00">Observable</text>
</g>
<!-- Node14&#45;&gt;Node13 -->
<g id="edge15" class="edge"><title>Node14&#45;&gt;Node13</title>
<path fill="none" stroke="midnightblue" d="M132.717,-442.876C176.879,-442.076 246.026,-438.262 304,-423.725 332.478,-416.584 363.357,-402.062 382.194,-392.361"/>
<polygon fill="midnightblue" stroke="midnightblue" points="132.548,-439.378 122.596,-443.014 132.643,-446.377 132.548,-439.378"/>
</g>
<!-- Node15 -->
<g id="node15" class="node"><title>Node15</title>
<polygon fill="white" stroke="#bfbfbf" points="42.5,-395.225 42.5,-414.225 131.5,-414.225 131.5,-395.225 42.5,-395.225"/>
<text text-anchor="middle" x="87" y="-402.225" font-family="Helvetica,sans-Serif" font-size="10.00">Set&lt; Integer &gt;</text>
</g>
<!-- Node15&#45;&gt;Node13 -->
<g id="edge16" class="edge"><title>Node15&#45;&gt;Node13</title>
<path fill="none" stroke="#9a32cd" stroke-dasharray="5,2" d="M141.939,-400.922C191.701,-397.413 266.155,-392.163 322.32,-388.202"/>
<polygon fill="#9a32cd" stroke="#9a32cd" points="141.44,-397.448 131.711,-401.643 141.932,-404.431 141.44,-397.448"/>
<text text-anchor="middle" x="248" y="-411.725" font-family="Helvetica,sans-Serif" font-size="10.00"> myTurtleList</text>
<text text-anchor="middle" x="248" y="-400.725" font-family="Helvetica,sans-Serif" font-size="10.00">activeTurtleList</text>
</g>
<!-- Node16 -->
<g id="node16" class="node"><title>Node16</title>
<polygon fill="white" stroke="#bfbfbf" points="0,-345.725 0,-375.725 174,-375.725 174,-345.725 0,-345.725"/>
<text text-anchor="start" x="8" y="-363.725" font-family="Helvetica,sans-Serif" font-size="10.00">Map&lt; String, model.instructions.</text>
<text text-anchor="middle" x="87" y="-352.725" font-family="Helvetica,sans-Serif" font-size="10.00">Instruction &gt;</text>
</g>
<!-- Node16&#45;&gt;Node13 -->
<g id="edge17" class="edge"><title>Node16&#45;&gt;Node13</title>
<path fill="none" stroke="#9a32cd" stroke-dasharray="5,2" d="M184.559,-367.359C221.877,-369.942 264.929,-372.944 304,-375.725 310.001,-376.152 316.212,-376.598 322.456,-377.048"/>
<polygon fill="#9a32cd" stroke="#9a32cd" points="184.411,-363.84 174.193,-366.642 183.928,-370.824 184.411,-363.84"/>
<text text-anchor="middle" x="248" y="-378.725" font-family="Helvetica,sans-Serif" font-size="10.00"> myUserInstructionMap</text>
</g>
<!-- Node17 -->
<g id="node17" class="node"><title>Node17</title>
<polygon fill="white" stroke="#bfbfbf" points="23,-307.225 23,-326.225 151,-326.225 151,-307.225 23,-307.225"/>
<text text-anchor="middle" x="87" y="-314.225" font-family="Helvetica,sans-Serif" font-size="10.00">Map&lt; String, Double &gt;</text>
</g>
<!-- Node17&#45;&gt;Node13 -->
<g id="edge18" class="edge"><title>Node17&#45;&gt;Node13</title>
<path fill="none" stroke="#9a32cd" stroke-dasharray="5,2" d="M161.414,-326.993C203.421,-333.442 256.961,-342.636 304,-353.725 327.047,-359.158 352.7,-367.003 371.686,-373.164"/>
<polygon fill="#9a32cd" stroke="#9a32cd" points="161.68,-323.493 151.268,-325.454 160.63,-330.414 161.68,-323.493"/>
<text text-anchor="middle" x="248" y="-356.725" font-family="Helvetica,sans-Serif" font-size="10.00"> myVariableMap</text>
</g>
<!-- Node18 -->
<g id="node18" class="node"><title>Node18</title>
<polygon fill="white" stroke="#bfbfbf" points="857,-438.225 857,-457.225 1005,-457.225 1005,-438.225 857,-438.225"/>
<text text-anchor="middle" x="931" y="-445.225" font-family="Helvetica,sans-Serif" font-size="10.00">TableView&lt; view.Property &gt;</text>
</g>
<!-- Node18&#45;&gt;Node10 -->
<g id="edge19" class="edge"><title>Node18&#45;&gt;Node10</title>
<path fill="none" stroke="#9a32cd" stroke-dasharray="5,2" d="M1015.21,-448.133C1057.9,-445.934 1110.03,-439.445 1154,-422.725 1184.39,-411.168 1214.07,-386.2 1229.01,-372.394"/>
<polygon fill="#9a32cd" stroke="#9a32cd" points="1014.96,-444.64 1005.13,-448.582 1015.28,-451.633 1014.96,-444.64"/>
<text text-anchor="middle" x="1095" y="-460.725" font-family="Helvetica,sans-Serif" font-size="10.00"> myTurtlePropertiesTable</text>
<text text-anchor="middle" x="1095" y="-449.725" font-family="Helvetica,sans-Serif" font-size="10.00">myVariablesTable</text>
</g>
<!-- Node19&#45;&gt;Node1 -->
<g id="edge52" class="edge"><title>Node19&#45;&gt;Node1</title>
<path fill="none" stroke="#9a32cd" stroke-dasharray="5,2" d="M981.785,-586.826C998.932,-589.038 1018.28,-591.275 1036,-592.725 1248.62,-610.121 1501.86,-615.478 1616.37,-617.075"/>
<polygon fill="#9a32cd" stroke="#9a32cd" points="981.798,-583.297 971.426,-585.459 980.882,-590.237 981.798,-583.297"/>
<text text-anchor="middle" x="1364" y="-615.725" font-family="Helvetica,sans-Serif" font-size="10.00"> myParser</text>
</g>
<!-- Node19&#45;&gt;Node10 -->
<g id="edge20" class="edge"><title>Node19&#45;&gt;Node10</title>
<path fill="none" stroke="#9a32cd" stroke-dasharray="5,2" d="M978.398,-567.572C996.343,-563.018 1017.08,-557.931 1036,-553.725 1088.16,-542.13 1114.92,-567.162 1154,-530.725 1176.55,-509.698 1159.31,-491.827 1172,-463.725 1188.36,-427.479 1217.08,-389.701 1231,-372.41"/>
<polygon fill="#9a32cd" stroke="#9a32cd" points="977.29,-564.243 968.468,-570.11 979.023,-571.025 977.29,-564.243"/>
<text text-anchor="middle" x="1095" y="-556.725" font-family="Helvetica,sans-Serif" font-size="10.00"> myParser</text>
</g>
<!-- Node19&#45;&gt;Node26 -->
<g id="edge44" class="edge"><title>Node19&#45;&gt;Node26</title>
<path fill="none" stroke="#9a32cd" stroke-dasharray="5,2" d="M892.409,-567.017C872.736,-560.565 848.188,-552.824 826,-546.725 786.394,-535.839 774.418,-540.255 736,-525.725 712.983,-517.02 688.269,-502.79 672.969,-493.342"/>
<polygon fill="#9a32cd" stroke="#9a32cd" points="891.334,-570.348 901.927,-570.163 893.53,-563.701 891.334,-570.348"/>
<text text-anchor="middle" x="781" y="-549.725" font-family="Helvetica,sans-Serif" font-size="10.00"> myParser</text>
</g>
<!-- Node19&#45;&gt;Node28 -->
<g id="edge39" class="edge"><title>Node19&#45;&gt;Node28</title>
<path fill="none" stroke="#9a32cd" stroke-dasharray="5,2" d="M891.848,-592.493C872.324,-598.669 848.078,-605.794 826,-610.725 681.78,-642.938 506.292,-663.674 434.735,-671.365"/>
<polygon fill="#9a32cd" stroke="#9a32cd" points="893.138,-595.754 901.59,-589.366 890.999,-589.089 893.138,-595.754"/>
<text text-anchor="middle" x="657" y="-654.725" font-family="Helvetica,sans-Serif" font-size="10.00"> myParser</text>
</g>
<!-- Node20 -->
<g id="node20" class="node"><title>Node20</title>
<polygon fill="white" stroke="#bfbfbf" points="627,-709.225 627,-728.225 687,-728.225 687,-709.225 627,-709.225"/>
<text text-anchor="middle" x="657" y="-716.225" font-family="Helvetica,sans-Serif" font-size="10.00">Observer</text>
</g>
<!-- Node20&#45;&gt;Node19 -->
<g id="edge21" class="edge"><title>Node20&#45;&gt;Node19</title>
<path fill="none" stroke="midnightblue" d="M684.732,-704.452C699.585,-696.841 718.54,-687.648 736,-680.725 774.942,-665.285 788.404,-671.203 826,-652.725 862.626,-634.724 900.628,-604.617 918.89,-589.302"/>
<polygon fill="midnightblue" stroke="midnightblue" points="682.882,-701.469 675.622,-709.184 686.109,-707.681 682.882,-701.469"/>
</g>
<!-- Node20&#45;&gt;Node22 -->
<g id="edge25" class="edge"><title>Node20&#45;&gt;Node22</title>
<path fill="none" stroke="midnightblue" d="M688.334,-732.416C758.3,-762.704 937.027,-832.725 1094,-832.725 1094,-832.725 1094,-832.725 1680,-832.725 1867.27,-832.725 1878.5,-486.46 1879,-424.241"/>
<polygon fill="midnightblue" stroke="midnightblue" points="689.38,-729.053 678.815,-728.249 686.572,-735.465 689.38,-729.053"/>
</g>
<!-- Node21 -->
<g id="node21" class="node"><title>Node21</title>
<polygon fill="white" stroke="#bfbfbf" points="601,-574.725 601,-604.725 713,-604.725 713,-574.725 601,-574.725"/>
<text text-anchor="start" x="609" y="-592.725" font-family="Helvetica,sans-Serif" font-size="10.00">List&lt; Entry&lt; String,</text>
<text text-anchor="middle" x="657" y="-581.725" font-family="Helvetica,sans-Serif" font-size="10.00"> Pattern &gt; &gt;</text>
</g>
<!-- Node21&#45;&gt;Node19 -->
<g id="edge22" class="edge"><title>Node21&#45;&gt;Node19</title>
<path fill="none" stroke="#9a32cd" stroke-dasharray="5,2" d="M723.728,-593.337C727.88,-593.49 731.997,-593.622 736,-593.725 775.987,-594.75 786.089,-596.399 826,-593.725 847.45,-592.288 871.222,-589.201 890.618,-586.291"/>
<polygon fill="#9a32cd" stroke="#9a32cd" points="723.514,-589.825 713.38,-592.916 723.23,-596.82 723.514,-589.825"/>
<text text-anchor="middle" x="781" y="-598.725" font-family="Helvetica,sans-Serif" font-size="10.00"> myPatterns</text>
</g>
<!-- Node22&#45;&gt;Node19 -->
<g id="edge24" class="edge"><title>Node22&#45;&gt;Node19</title>
<path fill="none" stroke="#9a32cd" stroke-dasharray="5,2" d="M1868.5,-433.11C1842.53,-475.935 1770.73,-578.725 1680,-578.725 1239,-578.725 1239,-578.725 1239,-578.725 1142.8,-578.725 1029.63,-579.222 971.254,-579.515"/>
<polygon fill="#9a32cd" stroke="#9a32cd" points="1871.52,-434.882 1873.6,-424.493 1865.5,-431.319 1871.52,-434.882"/>
<text text-anchor="middle" x="1465" y="-581.725" font-family="Helvetica,sans-Serif" font-size="10.00"> myViewUpdater</text>
</g>
<!-- Node23&#45;&gt;Node22 -->
<g id="edge27" class="edge"><title>Node23&#45;&gt;Node22</title>
<path fill="none" stroke="#9a32cd" stroke-dasharray="5,2" d="M1713.35,-212.428C1742.46,-225.773 1784.27,-248.463 1812,-278.725 1848.28,-318.31 1869.28,-381.168 1876.32,-405.07"/>
<polygon fill="#9a32cd" stroke="#9a32cd" points="1714.57,-209.137 1704.01,-208.264 1711.72,-215.531 1714.57,-209.137"/>
<text text-anchor="middle" x="1786" y="-281.725" font-family="Helvetica,sans-Serif" font-size="10.00"> myDrawer</text>
</g>
<!-- Node23&#45;&gt;Node26 -->
<g id="edge46" class="edge"><title>Node23&#45;&gt;Node26</title>
<path fill="none" stroke="#9a32cd" stroke-dasharray="5,2" d="M1662.4,-216.316C1647.18,-232.717 1622.76,-257.084 1598,-273.725 1418.68,-394.26 1364.98,-425.11 1154,-471.725 1132.21,-476.539 820.621,-481.423 702.739,-483.109"/>
<polygon fill="#9a32cd" stroke="#9a32cd" points="1665.33,-218.298 1669.47,-208.548 1660.15,-213.585 1665.33,-218.298"/>
<text text-anchor="middle" x="1240" y="-470.725" font-family="Helvetica,sans-Serif" font-size="10.00"> drawer</text>
</g>
<!-- Node24 -->
<g id="node24" class="node"><title>Node24</title>
<polygon fill="white" stroke="#bfbfbf" points="1444.5,-96.225 1444.5,-115.225 1485.5,-115.225 1485.5,-96.225 1444.5,-96.225"/>
<text text-anchor="middle" x="1465" y="-103.225" font-family="Helvetica,sans-Serif" font-size="10.00">Color</text>
</g>
<!-- Node24&#45;&gt;Node23 -->
<g id="edge29" class="edge"><title>Node24&#45;&gt;Node23</title>
<path fill="none" stroke="#9a32cd" stroke-dasharray="5,2" d="M1494.91,-118.407C1537.94,-137.283 1617.87,-172.347 1656.28,-189.199"/>
<polygon fill="#9a32cd" stroke="#9a32cd" points="1496.13,-115.12 1485.56,-114.308 1493.32,-121.53 1496.13,-115.12"/>
<text text-anchor="middle" x="1563" y="-166.725" font-family="Helvetica,sans-Serif" font-size="10.00"> myColor</text>
</g>
<!-- Node25 -->
<g id="node25" class="node"><title>Node25</title>
<polygon fill="white" stroke="#bfbfbf" points="596,-536.225 596,-555.225 718,-555.225 718,-536.225 596,-536.225"/>
<text text-anchor="middle" x="657" y="-543.225" font-family="Helvetica,sans-Serif" font-size="10.00">Map&lt; String, String &gt;</text>
</g>
<!-- Node25&#45;&gt;Node19 -->
<g id="edge31" class="edge"><title>Node25&#45;&gt;Node19</title>
<path fill="none" stroke="#9a32cd" stroke-dasharray="5,2" d="M718.005,-556.962C724.073,-557.958 730.153,-558.9 736,-559.725 789.476,-567.27 851.624,-573.177 890.879,-576.558"/>
<polygon fill="#9a32cd" stroke="#9a32cd" points="718.287,-553.46 707.843,-555.244 717.12,-560.362 718.287,-553.46"/>
<text text-anchor="middle" x="781" y="-573.725" font-family="Helvetica,sans-Serif" font-size="10.00"> myCommandMap</text>
</g>
<!-- Node26&#45;&gt;Node19 -->
<g id="edge32" class="edge"><title>Node26&#45;&gt;Node19</title>
<path fill="none" stroke="#9a32cd" stroke-dasharray="5,2" d="M712.607,-489.57C754.145,-494.792 807.251,-503.369 826,-514.725 837.103,-521.45 833.911,-529.558 844,-537.725 861.693,-552.048 885.079,-563.069 902.997,-570.221"/>
<polygon fill="#9a32cd" stroke="#9a32cd" points="712.945,-486.086 702.594,-488.348 712.096,-493.034 712.945,-486.086"/>
<text text-anchor="middle" x="781" y="-517.725" font-family="Helvetica,sans-Serif" font-size="10.00"> mySLogoView</text>
</g>
<!-- Node27 -->
<g id="node27" class="node"><title>Node27</title>
<polygon fill="white" stroke="#bfbfbf" points="378.5,-720.225 378.5,-739.225 423.5,-739.225 423.5,-720.225 378.5,-720.225"/>
<text text-anchor="middle" x="401" y="-727.225" font-family="Helvetica,sans-Serif" font-size="10.00">Stage</text>
</g>
<!-- Node27&#45;&gt;Node1 -->
<g id="edge50" class="edge"><title>Node27&#45;&gt;Node1</title>
<path fill="none" stroke="#9a32cd" stroke-dasharray="5,2" d="M433.731,-735.282C481.697,-743.185 575.606,-756.725 656,-756.725 656,-756.725 656,-756.725 1466,-756.725 1560.62,-756.725 1645.84,-658.683 1670.71,-627.279"/>
<polygon fill="#9a32cd" stroke="#9a32cd" points="434.104,-731.795 423.663,-733.593 432.946,-738.699 434.104,-731.795"/>
<text text-anchor="middle" x="1095" y="-759.725" font-family="Helvetica,sans-Serif" font-size="10.00"> myStage</text>
</g>
<!-- Node27&#45;&gt;Node26 -->
<g id="edge34" class="edge"><title>Node27&#45;&gt;Node26</title>
<path fill="none" stroke="#9a32cd" stroke-dasharray="5,2" d="M433.208,-717.417C447.851,-711.121 465.276,-702.863 480,-693.725 527.535,-664.224 548.899,-662.506 578,-614.725 598.766,-580.63 574.277,-560.218 596,-526.725 605.623,-511.887 622.307,-500.551 635.642,-493.253"/>
<polygon fill="#9a32cd" stroke="#9a32cd" points="431.455,-714.357 423.584,-721.448 434.159,-720.813 431.455,-714.357"/>
<text text-anchor="middle" x="538" y="-686.725" font-family="Helvetica,sans-Serif" font-size="10.00"> myStage</text>
</g>
<!-- Node28&#45;&gt;Node26 -->
<g id="edge36" class="edge"><title>Node28&#45;&gt;Node26</title>
<path fill="none" stroke="#9a32cd" stroke-dasharray="5,2" d="M422.722,-658.593C458.038,-631.173 532.259,-573.863 596,-526.725 611.662,-515.143 629.878,-502.155 642.093,-493.514"/>
<polygon fill="#9a32cd" stroke="#9a32cd" points="420.36,-655.996 414.612,-664.896 424.656,-661.523 420.36,-655.996"/>
<text text-anchor="middle" x="538" y="-602.725" font-family="Helvetica,sans-Serif" font-size="10.00"> myEditor</text>
</g>
<!-- Node29 -->
<g id="node29" class="node"><title>Node29</title>
<polygon fill="white" stroke="#bfbfbf" points="62.5,-644.225 62.5,-663.225 111.5,-663.225 111.5,-644.225 62.5,-644.225"/>
<text text-anchor="middle" x="87" y="-651.225" font-family="Helvetica,sans-Serif" font-size="10.00">Button</text>
</g>
<!-- Node29&#45;&gt;Node28 -->
<g id="edge38" class="edge"><title>Node29&#45;&gt;Node28</title>
<path fill="none" stroke="#9a32cd" stroke-dasharray="5,2" d="M121.75,-655.203C164.28,-657.156 239.606,-660.92 304,-665.725 325.034,-667.295 348.618,-669.499 367.147,-671.334"/>
<polygon fill="#9a32cd" stroke="#9a32cd" points="121.819,-651.702 111.671,-654.746 121.502,-658.695 121.819,-651.702"/>
<text text-anchor="middle" x="248" y="-668.725" font-family="Helvetica,sans-Serif" font-size="10.00"> runButton</text>
</g>
<!-- Node30 -->
<g id="node30" class="node"><title>Node30</title>
<polygon fill="white" stroke="#bfbfbf" points="58,-682.225 58,-701.225 116,-701.225 116,-682.225 58,-682.225"/>
<text text-anchor="middle" x="87" y="-689.225" font-family="Helvetica,sans-Serif" font-size="10.00">TextArea</text>
</g>
<!-- Node30&#45;&gt;Node28 -->
<g id="edge40" class="edge"><title>Node30&#45;&gt;Node28</title>
<path fill="none" stroke="#9a32cd" stroke-dasharray="5,2" d="M126.378,-689.634C188.353,-686.257 309.377,-679.663 367.423,-676.5"/>
<polygon fill="#9a32cd" stroke="#9a32cd" points="126.033,-686.147 116.238,-690.186 126.414,-693.137 126.033,-686.147"/>
<text text-anchor="middle" x="248" y="-689.725" font-family="Helvetica,sans-Serif" font-size="10.00"> textEditor</text>
</g>
<!-- Node31 -->
<g id="node31" class="node"><title>Node31</title>
<polygon fill="white" stroke="#bfbfbf" points="341.5,-474.225 341.5,-493.225 460.5,-493.225 460.5,-474.225 341.5,-474.225"/>
<text text-anchor="middle" x="401" y="-481.225" font-family="Helvetica,sans-Serif" font-size="10.00">Map&lt; String, Node &gt;</text>
</g>
<!-- Node31&#45;&gt;Node26 -->
<g id="edge42" class="edge"><title>Node31&#45;&gt;Node26</title>
<path fill="none" stroke="#9a32cd" stroke-dasharray="5,2" d="M470.785,-483.725C515.419,-483.725 572.295,-483.725 611.171,-483.725"/>
<polygon fill="#9a32cd" stroke="#9a32cd" points="470.592,-480.225 460.592,-483.725 470.592,-487.225 470.592,-480.225"/>
<text text-anchor="middle" x="538" y="-486.725" font-family="Helvetica,sans-Serif" font-size="10.00"> variables</text>
</g>
<!-- Node32 -->
<g id="node32" class="node"><title>Node32</title>
<polygon fill="white" stroke="#bfbfbf" points="360.5,-512.225 360.5,-531.225 441.5,-531.225 441.5,-512.225 360.5,-512.225"/>
<text text-anchor="middle" x="401" y="-519.225" font-family="Helvetica,sans-Serif" font-size="10.00">Dimension2D</text>
</g>
<!-- Node32&#45;&gt;Node26 -->
<g id="edge45" class="edge"><title>Node32&#45;&gt;Node26</title>
<path fill="none" stroke="#9a32cd" stroke-dasharray="5,2" d="M451.647,-516.044C486.968,-511.805 535.498,-505.583 578,-498.725 588.755,-496.99 600.3,-494.897 611.123,-492.833"/>
<polygon fill="#9a32cd" stroke="#9a32cd" points="451.109,-512.583 441.592,-517.24 451.936,-519.534 451.109,-512.583"/>
<text text-anchor="middle" x="538" y="-513.725" font-family="Helvetica,sans-Serif" font-size="10.00"> myDimensions</text>
</g>
<!-- Node33 -->
<g id="node33" class="node"><title>Node33</title>
<polygon fill="white" stroke="#bfbfbf" points="862,-353.225 862,-372.225 1000,-372.225 1000,-353.225 862,-353.225"/>
<text text-anchor="middle" x="931" y="-360.225" font-family="Helvetica,sans-Serif" font-size="10.00">ObservableList&lt; String &gt;</text>
</g>
<!-- Node33&#45;&gt;Node10 -->
<g id="edge48" class="edge"><title>Node33&#45;&gt;Node10</title>
<path fill="none" stroke="#9a32cd" stroke-dasharray="5,2" d="M1010.16,-362.725C1071.44,-362.725 1154.03,-362.725 1201.39,-362.725"/>
<polygon fill="#9a32cd" stroke="#9a32cd" points="1010.13,-359.225 1000.13,-362.725 1010.13,-366.225 1010.13,-359.225"/>
<text text-anchor="middle" x="1095" y="-376.725" font-family="Helvetica,sans-Serif" font-size="10.00"> myCommandItems</text>
<text text-anchor="middle" x="1095" y="-365.725" font-family="Helvetica,sans-Serif" font-size="10.00">myHistoryItems</text>
</g>
<!-- Node34 -->
<g id="node34" class="node"><title>Node34</title>
<polygon fill="white" stroke="#bfbfbf" points="1208.5,-312.225 1208.5,-331.225 1271.5,-331.225 1271.5,-312.225 1208.5,-312.225"/>
<text text-anchor="middle" x="1240" y="-319.225" font-family="Helvetica,sans-Serif" font-size="10.00">Rectangle</text>
</g>
<!-- Node34&#45;&gt;Node3 -->
<g id="edge49" class="edge"><title>Node34&#45;&gt;Node3</title>
<path fill="none" stroke="#9a32cd" stroke-dasharray="5,2" d="M1281.75,-316.501C1314.38,-312.113 1361.27,-305.349 1402,-297.725 1409.05,-296.405 1416.52,-294.853 1423.74,-293.272"/>
<polygon fill="#9a32cd" stroke="#9a32cd" points="1281.13,-313.052 1271.68,-317.84 1282.05,-319.991 1281.13,-313.052"/>
<text text-anchor="middle" x="1364" y="-313.725" font-family="Helvetica,sans-Serif" font-size="10.00"> myBackground</text>
</g>
</g>
</svg>
        <g id="navigator" transform="translate(0 0)" fill="#404254">
                <rect fill="#f2f5e9" fill-opacity="0.5" stroke="#606060" stroke-width=".5" x="0" y="0" width="60" height="60"/>
                <use id="zoomplus" xlink:href="#zoomPlus" x="17" y="9" onmousedown="handleZoom(evt,'in')"/>
                <use id="zoomminus" xlink:href="#zoomMin" x="42" y="9" onmousedown="handleZoom(evt,'out')"/>
                <use id="reset" xlink:href="#resetDef" x="30" y="36" onmousedown="handleReset()"/>
                <g id="arrowUp" xlink:href="#dirArrow" transform="translate(30 24)" onmousedown="handlePan(0,-1)">
                  <use xlink:href="#rim" fill="#404040">
                        <set attributeName="fill" to="#808080" begin="arrowUp.mouseover" end="arrowUp.mouseout"/>
                  </use>
                  <path fill="none" stroke="white" stroke-width="1.5" d="M0,-3.0v7 M-2.5,-0.5L0,-3.0L2.5,-0.5"/>
                </g>
                <g id="arrowRight" xlink:href="#dirArrow" transform="rotate(90) translate(36 -43)" onmousedown="handlePan(1,0)">
                  <use xlink:href="#rim" fill="#404040">
                        <set attributeName="fill" to="#808080" begin="arrowRight.mouseover" end="arrowRight.mouseout"/>
                  </use>
                  <path fill="none" stroke="white" stroke-width="1.5" d="M0,-3.0v7 M-2.5,-0.5L0,-3.0L2.5,-0.5"/>
                </g>
                <g id="arrowDown" xlink:href="#dirArrow" transform="rotate(180) translate(-30 -48)" onmousedown="handlePan(0,1)">
                  <use xlink:href="#rim" fill="#404040">
                        <set attributeName="fill" to="#808080" begin="arrowDown.mouseover" end="arrowDown.mouseout"/>
                  </use>
                  <path fill="none" stroke="white" stroke-width="1.5" d="M0,-3.0v7 M-2.5,-0.5L0,-3.0L2.5,-0.5"/>
                </g>
                <g id="arrowLeft" xlink:href="#dirArrow" transform="rotate(270) translate(-36 17)" onmousedown="handlePan(-1,0)">
                  <use xlink:href="#rim" fill="#404040">
                        <set attributeName="fill" to="#808080" begin="arrowLeft.mouseover" end="arrowLeft.mouseout"/>
                  </use>
                  <path fill="none" stroke="white" stroke-width="1.5" d="M0,-3.0v7 M-2.5,-0.5L0,-3.0L2.5,-0.5"/>
                </g>
        </g>
        <svg viewBox="0 0 15 15" width="100%" height="30px" preserveAspectRatio="xMaxYMin meet">
         <g id="arrow_out" transform="scale(0.3 0.3)">
          <a xlink:href="classview_1_1_customization_bar__coll__graph_org.svg" target="_base">
           <rect id="button" ry="5" rx="5" y="6" x="6" height="38" width="38"
                fill="#f2f5e9" fill-opacity="0.5" stroke="#606060" stroke-width="1.0"/>
           <path id="arrow"
             d="M 11.500037,31.436501 C 11.940474,20.09759 22.043105,11.32322 32.158766,21.979434 L 37.068811,17.246167 C 37.068811,17.246167 37.088388,32 37.088388,32 L 22.160133,31.978069 C 22.160133,31.978069 26.997745,27.140456 26.997745,27.140456 C 18.528582,18.264221 13.291696,25.230495 11.500037,31.436501 z"
             style="fill:#404040;"/>
          </a>
         </g>
        </svg>
</svg>
