<?xml version="1.0" encoding="UTF-8" standalone="no"?>
<!DOCTYPE svg PUBLIC "-//W3C//DTD SVG 1.1//EN"
 "http://www.w3.org/Graphics/SVG/1.1/DTD/svg11.dtd">
<!-- Generated by graphviz version 2.36.0 (20140111.2315)
 -->
<!-- Title: view.TurtleView Pages: 1 -->
<svg width="157pt" height="96pt"
 viewBox="0.00 0.00 157.00 96.00" xmlns="http://www.w3.org/2000/svg" xmlns:xlink="http://www.w3.org/1999/xlink">
<g id="graph0" class="graph" transform="scale(1 1) rotate(0) translate(4 92)">
<title>view.TurtleView</title>
<polygon fill="white" stroke="none" points="-4,4 -4,-92 153,-92 153,4 -4,4"/>
<!-- Node1 -->
<g id="node1" class="node"><title>Node1</title>
<polygon fill="#bfbfbf" stroke="black" points="28,-0.5 28,-19.5 114,-19.5 114,-0.5 28,-0.5"/>
<text text-anchor="middle" x="71" y="-7.5" font-family="Helvetica,sans-Serif" font-size="10.00">view.TurtleView</text>
</g>
<!-- Node2 -->
<g id="node2" class="node"><title>Node2</title>
<polygon fill="white" stroke="#bfbfbf" points="0,-68.5 0,-87.5 68,-87.5 68,-68.5 0,-68.5"/>
<text text-anchor="middle" x="34" y="-75.5" font-family="Helvetica,sans-Serif" font-size="10.00">ImageView</text>
</g>
<!-- Node2&#45;&gt;Node1 -->
<g id="edge1" class="edge"><title>Node2&#45;&gt;Node1</title>
<path fill="none" stroke="midnightblue" d="M43.7753,-59.563C50.9407,-46.7815 60.371,-29.9599 66.0436,-19.8411"/>
<polygon fill="midnightblue" stroke="midnightblue" points="40.6742,-57.9373 38.8371,-68.3717 46.7802,-61.3604 40.6742,-57.9373"/>
</g>
<!-- Node3 -->
<g id="node3" class="node"><title>Node3</title>
<polygon fill="white" stroke="#bfbfbf" points="86,-68.5 86,-87.5 132,-87.5 132,-68.5 86,-68.5"/>
<text text-anchor="middle" x="109" y="-75.5" font-family="Helvetica,sans-Serif" font-size="10.00">Group</text>
</g>
<!-- Node3&#45;&gt;Node1 -->
<g id="edge2" class="edge"><title>Node3&#45;&gt;Node1</title>
<path fill="none" stroke="#9a32cd" stroke-dasharray="5,2" d="M98.9605,-59.563C91.6015,-46.7815 81.9163,-29.9599 76.0903,-19.8411"/>
<polygon fill="#9a32cd" stroke="#9a32cd" points="96.0093,-61.4518 104.032,-68.3717 102.076,-57.959 96.0093,-61.4518"/>
<text text-anchor="middle" x="121" y="-41.5" font-family="Helvetica,sans-Serif" font-size="10.00"> myStamps</text>
</g>
</g>
</svg>
