<?xml version="1.0" encoding="UTF-8" standalone="no"?>
<!DOCTYPE svg PUBLIC "-//W3C//DTD SVG 1.1//EN"
 "http://www.w3.org/Graphics/SVG/1.1/DTD/svg11.dtd">
<!-- Generated by graphviz version 2.36.0 (20140111.2315)
 -->
<!-- Title: model.instructions.ListInstruction Pages: 1 -->
<svg width="1786pt" height="859pt"
 viewBox="0.00 0.00 1786.00 859.20" xmlns="http://www.w3.org/2000/svg" xmlns:xlink="http://www.w3.org/1999/xlink">
<g id="graph0" class="graph" transform="scale(1 1) rotate(0) translate(4 855.201)">
<title>model.instructions.ListInstruction</title>
<polygon fill="white" stroke="none" points="-4,4 -4,-855.201 1782,-855.201 1782,4 -4,4"/>
<!-- Node1 -->
<g id="node1" class="node"><title>Node1</title>
<polygon fill="#bfbfbf" stroke="black" points="966.5,-707.701 966.5,-726.701 1141.5,-726.701 1141.5,-707.701 966.5,-707.701"/>
<text text-anchor="middle" x="1054" y="-714.701" font-family="Helvetica,sans-Serif" font-size="10.00">model.instructions.ListInstruction</text>
</g>
<!-- Node2 -->
<g id="node2" class="node"><title>Node2</title>
<g id="a_node2"><a xlink:href="../../d1/dea/classmodel_1_1instructions_1_1_instruction.html" target="_top" xlink:title="model.instructions.Instruction">
<polygon fill="white" stroke="black" points="646,-707.701 646,-726.701 804,-726.701 804,-707.701 646,-707.701"/>
<text text-anchor="middle" x="725" y="-714.701" font-family="Helvetica,sans-Serif" font-size="10.00">model.instructions.Instruction</text>
</a>
</g>
</g>
<!-- Node2&#45;&gt;Node1 -->
<g id="edge1" class="edge"><title>Node2&#45;&gt;Node1</title>
<path fill="none" stroke="midnightblue" d="M814.53,-717.201C861.709,-717.201 919.519,-717.201 966.403,-717.201"/>
<polygon fill="midnightblue" stroke="midnightblue" points="814.325,-713.701 804.325,-717.201 814.325,-720.701 814.325,-713.701"/>
</g>
<!-- Node3 -->
<g id="node3" class="node"><title>Node3</title>
<polygon fill="white" stroke="#bfbfbf" points="57,-491.701 57,-510.701 117,-510.701 117,-491.701 57,-491.701"/>
<text text-anchor="middle" x="87" y="-498.701" font-family="Helvetica,sans-Serif" font-size="10.00">Observer</text>
</g>
<!-- Node3&#45;&gt;Node2 -->
<g id="edge2" class="edge"><title>Node3&#45;&gt;Node2</title>
<path fill="none" stroke="midnightblue" d="M112.161,-516.069C153.662,-541.032 241.78,-591.542 322,-621.201 440.114,-664.87 585.213,-693.782 664.787,-707.647"/>
<polygon fill="midnightblue" stroke="midnightblue" points="113.935,-513.052 103.569,-510.864 110.308,-519.039 113.935,-513.052"/>
</g>
<!-- Node9 -->
<g id="node9" class="node"><title>Node9</title>
<g id="a_node9"><a xlink:href="../../d4/d64/classview_1_1_view_updater.html" target="_top" xlink:title="view.ViewUpdater">
<polygon fill="white" stroke="black" points="351,-443.701 351,-462.701 451,-462.701 451,-443.701 351,-443.701"/>
<text text-anchor="middle" x="401" y="-450.701" font-family="Helvetica,sans-Serif" font-size="10.00">view.ViewUpdater</text>
</a>
</g>
</g>
<!-- Node3&#45;&gt;Node9 -->
<g id="edge9" class="edge"><title>Node3&#45;&gt;Node9</title>
<path fill="none" stroke="midnightblue" d="M127.079,-495.189C183.8,-486.463 288.905,-470.293 350.82,-460.767"/>
<polygon fill="midnightblue" stroke="midnightblue" points="126.424,-491.748 117.072,-496.728 127.488,-498.667 126.424,-491.748"/>
</g>
<!-- Node21 -->
<g id="node21" class="node"><title>Node21</title>
<g id="a_node21"><a xlink:href="../../dc/df5/classmodel_1_1_parser.html" target="_top" xlink:title="model.Parser">
<polygon fill="white" stroke="black" points="685,-581.701 685,-600.701 765,-600.701 765,-581.701 685,-581.701"/>
<text text-anchor="middle" x="725" y="-588.701" font-family="Helvetica,sans-Serif" font-size="10.00">model.Parser</text>
</a>
</g>
</g>
<!-- Node3&#45;&gt;Node21 -->
<g id="edge25" class="edge"><title>Node3&#45;&gt;Node21</title>
<path fill="none" stroke="midnightblue" d="M127.209,-499.452C234.48,-495.196 530.729,-487.132 620,-523.201 629.924,-527.211 629.384,-532.85 638,-539.201 660.33,-555.662 688.097,-571.735 705.934,-581.552"/>
<polygon fill="midnightblue" stroke="midnightblue" points="126.985,-495.958 117.136,-499.863 127.271,-502.952 126.985,-495.958"/>
</g>
<!-- Node4 -->
<g id="node4" class="node"><title>Node4</title>
<g id="a_node4"><a xlink:href="../../d1/dca/classmodel_1_1_execution_environment.html" target="_top" xlink:title="model.ExecutionEnvironment">
<polygon fill="white" stroke="black" points="322.5,-727.701 322.5,-746.701 479.5,-746.701 479.5,-727.701 322.5,-727.701"/>
<text text-anchor="middle" x="401" y="-734.701" font-family="Helvetica,sans-Serif" font-size="10.00">model.ExecutionEnvironment</text>
</a>
</g>
</g>
<!-- Node4&#45;&gt;Node2 -->
<g id="edge3" class="edge"><title>Node4&#45;&gt;Node2</title>
<path fill="none" stroke="#9a32cd" stroke-dasharray="5,2" d="M489.727,-730.749C492.516,-730.562 495.28,-730.378 498,-730.201 547.12,-726.998 602.274,-723.817 645.799,-721.404"/>
<polygon fill="#9a32cd" stroke="#9a32cd" points="489.276,-727.272 479.538,-731.445 489.753,-734.255 489.276,-727.272"/>
<text text-anchor="middle" x="559" y="-733.201" font-family="Helvetica,sans-Serif" font-size="10.00"> myEnvironment</text>
</g>
<!-- Node17 -->
<g id="node17" class="node"><title>Node17</title>
<g id="a_node17"><a xlink:href="../../d1/dc7/classview_1_1_side_bar.html" target="_top" xlink:title="view.SideBar">
<polygon fill="white" stroke="black" points="1015.5,-432.701 1015.5,-451.701 1092.5,-451.701 1092.5,-432.701 1015.5,-432.701"/>
<text text-anchor="middle" x="1054" y="-439.701" font-family="Helvetica,sans-Serif" font-size="10.00">view.SideBar</text>
</a>
</g>
</g>
<!-- Node4&#45;&gt;Node17 -->
<g id="edge22" class="edge"><title>Node4&#45;&gt;Node17</title>
<path fill="none" stroke="#9a32cd" stroke-dasharray="5,2" d="M455.009,-725.444C585.56,-696.022 914.461,-618.879 948,-581.201 980.938,-544.198 933.874,-508.911 966,-471.201 978.287,-456.779 997.95,-449.499 1015.48,-445.837"/>
<polygon fill="#9a32cd" stroke="#9a32cd" points="454.207,-722.037 445.218,-727.645 455.743,-728.867 454.207,-722.037"/>
<text text-anchor="middle" x="725" y="-685.201" font-family="Helvetica,sans-Serif" font-size="10.00"> myEnvironment</text>
</g>
<!-- Node4&#45;&gt;Node21 -->
<g id="edge27" class="edge"><title>Node4&#45;&gt;Node21</title>
<path fill="none" stroke="#9a32cd" stroke-dasharray="5,2" d="M413.897,-719.138C430.049,-696.178 461.167,-657.135 498,-637.201 546.526,-610.938 565.944,-625.271 620,-614.201 641.377,-609.823 665.143,-604.595 684.554,-600.23"/>
<polygon fill="#9a32cd" stroke="#9a32cd" points="410.852,-717.39 408.097,-727.62 416.63,-721.341 410.852,-717.39"/>
<text text-anchor="middle" x="559" y="-640.201" font-family="Helvetica,sans-Serif" font-size="10.00"> myExecutionParameters</text>
</g>
<!-- Node24 -->
<g id="node24" class="node"><title>Node24</title>
<g id="a_node24"><a xlink:href="../../d6/de7/classview_1_1_s_logo_view.html" target="_top" xlink:title="view.SLogoView">
<polygon fill="white" stroke="black" points="1686.5,-257.701 1686.5,-276.701 1777.5,-276.701 1777.5,-257.701 1686.5,-257.701"/>
<text text-anchor="middle" x="1732" y="-264.701" font-family="Helvetica,sans-Serif" font-size="10.00">view.SLogoView</text>
</a>
</g>
</g>
<!-- Node4&#45;&gt;Node24 -->
<g id="edge41" class="edge"><title>Node4&#45;&gt;Node24</title>
<path fill="none" stroke="#9a32cd" stroke-dasharray="5,2" d="M489.843,-744.765C554.537,-749.688 644.678,-755.201 724,-755.201 724,-755.201 724,-755.201 1515,-755.201 1591.13,-755.201 1623.25,-739.788 1668,-678.201 1716.8,-611.04 1728.76,-332.804 1730.69,-276.98"/>
<polygon fill="#9a32cd" stroke="#9a32cd" points="489.924,-741.261 479.684,-743.98 489.385,-748.24 489.924,-741.261"/>
<text text-anchor="middle" x="1200" y="-758.201" font-family="Helvetica,sans-Serif" font-size="10.00"> myEnvironment</text>
</g>
<!-- Node5 -->
<g id="node5" class="node"><title>Node5</title>
<polygon fill="white" stroke="#bfbfbf" points="51.5,-697.701 51.5,-716.701 122.5,-716.701 122.5,-697.701 51.5,-697.701"/>
<text text-anchor="middle" x="87" y="-704.701" font-family="Helvetica,sans-Serif" font-size="10.00">Observable</text>
</g>
<!-- Node5&#45;&gt;Node4 -->
<g id="edge4" class="edge"><title>Node5&#45;&gt;Node4</title>
<path fill="none" stroke="midnightblue" d="M132.637,-711.493C182.066,-716.246 262.658,-723.995 322.457,-729.745"/>
<polygon fill="midnightblue" stroke="midnightblue" points="132.871,-707.999 122.582,-710.526 132.201,-714.967 132.871,-707.999"/>
</g>
<!-- Node6 -->
<g id="node6" class="node"><title>Node6</title>
<polygon fill="white" stroke="#bfbfbf" points="42.5,-823.701 42.5,-842.701 131.5,-842.701 131.5,-823.701 42.5,-823.701"/>
<text text-anchor="middle" x="87" y="-830.701" font-family="Helvetica,sans-Serif" font-size="10.00">Set&lt; Integer &gt;</text>
</g>
<!-- Node6&#45;&gt;Node4 -->
<g id="edge5" class="edge"><title>Node6&#45;&gt;Node4</title>
<path fill="none" stroke="#9a32cd" stroke-dasharray="5,2" d="M141.753,-834.186C188.385,-832.535 255.788,-823.885 304,-791.201 316.245,-782.9 310.318,-772.279 322,-763.201 331.355,-755.931 342.843,-750.643 354.098,-746.814"/>
<polygon fill="#9a32cd" stroke="#9a32cd" points="141.453,-830.693 131.546,-834.448 141.633,-837.69 141.453,-830.693"/>
<text text-anchor="middle" x="248" y="-843.201" font-family="Helvetica,sans-Serif" font-size="10.00"> myTurtleList</text>
<text text-anchor="middle" x="248" y="-832.201" font-family="Helvetica,sans-Serif" font-size="10.00">activeTurtleList</text>
</g>
<!-- Node7 -->
<g id="node7" class="node"><title>Node7</title>
<polygon fill="white" stroke="#bfbfbf" points="0,-774.201 0,-804.201 174,-804.201 174,-774.201 0,-774.201"/>
<text text-anchor="start" x="8" y="-792.201" font-family="Helvetica,sans-Serif" font-size="10.00">Map&lt; String, model.instructions.</text>
<text text-anchor="middle" x="87" y="-781.201" font-family="Helvetica,sans-Serif" font-size="10.00">Instruction &gt;</text>
</g>
<!-- Node7&#45;&gt;Node4 -->
<g id="edge6" class="edge"><title>Node7&#45;&gt;Node4</title>
<path fill="none" stroke="#9a32cd" stroke-dasharray="5,2" d="M184.071,-776.94C221.587,-771.754 264.902,-765.273 304,-758.201 322.299,-754.891 342.419,-750.593 359.492,-746.747"/>
<polygon fill="#9a32cd" stroke="#9a32cd" points="183.592,-773.473 174.16,-778.299 184.543,-780.408 183.592,-773.473"/>
<text text-anchor="middle" x="248" y="-779.201" font-family="Helvetica,sans-Serif" font-size="10.00"> myUserInstructionMap</text>
</g>
<!-- Node8 -->
<g id="node8" class="node"><title>Node8</title>
<polygon fill="white" stroke="#bfbfbf" points="23,-735.701 23,-754.701 151,-754.701 151,-735.701 23,-735.701"/>
<text text-anchor="middle" x="87" y="-742.701" font-family="Helvetica,sans-Serif" font-size="10.00">Map&lt; String, Double &gt;</text>
</g>
<!-- Node8&#45;&gt;Node4 -->
<g id="edge7" class="edge"><title>Node8&#45;&gt;Node4</title>
<path fill="none" stroke="#9a32cd" stroke-dasharray="5,2" d="M161.23,-743.323C209.637,-742.082 273.011,-740.457 322.303,-739.193"/>
<polygon fill="#9a32cd" stroke="#9a32cd" points="161.045,-739.827 151.138,-743.582 161.224,-746.825 161.045,-739.827"/>
<text text-anchor="middle" x="248" y="-746.201" font-family="Helvetica,sans-Serif" font-size="10.00"> myVariableMap</text>
</g>
<!-- Node9&#45;&gt;Node2 -->
<g id="edge8" class="edge"><title>Node9&#45;&gt;Node2</title>
<path fill="none" stroke="#9a32cd" stroke-dasharray="5,2" d="M423.006,-468.833C439.491,-481.646 462.499,-500.775 480,-520.201 489.407,-530.643 486.549,-538.052 498,-546.201 543.86,-578.839 581.424,-539.21 620,-580.201 646.166,-608.006 615.978,-633.011 638,-664.201 652.668,-684.975 678.31,-699.219 697.789,-707.666"/>
<polygon fill="#9a32cd" stroke="#9a32cd" points="425.113,-466.037 415.044,-462.74 420.859,-471.596 425.113,-466.037"/>
<text text-anchor="middle" x="559" y="-583.201" font-family="Helvetica,sans-Serif" font-size="10.00"> myViewUpdater</text>
</g>
<!-- Node9&#45;&gt;Node21 -->
<g id="edge28" class="edge"><title>Node9&#45;&gt;Node21</title>
<path fill="none" stroke="#9a32cd" stroke-dasharray="5,2" d="M461.326,-456.073C521.686,-459.527 608.036,-466.148 620,-476.201 642.295,-494.934 620.316,-516.065 638,-539.201 653.364,-559.301 678.913,-573.314 698.181,-581.687"/>
<polygon fill="#9a32cd" stroke="#9a32cd" points="461.31,-452.566 451.131,-455.505 460.92,-459.555 461.31,-452.566"/>
<text text-anchor="middle" x="559" y="-479.201" font-family="Helvetica,sans-Serif" font-size="10.00"> myViewUpdater</text>
</g>
<!-- Node10 -->
<g id="node10" class="node"><title>Node10</title>
<g id="a_node10"><a xlink:href="../../da/d64/classview_1_1_workspace.html" target="_top" xlink:title="view.Workspace">
<polygon fill="white" stroke="black" points="1258,-246.701 1258,-265.701 1348,-265.701 1348,-246.701 1258,-246.701"/>
<text text-anchor="middle" x="1303" y="-253.701" font-family="Helvetica,sans-Serif" font-size="10.00">view.Workspace</text>
</a>
</g>
</g>
<!-- Node10&#45;&gt;Node9 -->
<g id="edge10" class="edge"><title>Node10&#45;&gt;Node9</title>
<path fill="none" stroke="#9a32cd" stroke-dasharray="5,2" d="M1247.79,-260.827C1245.16,-260.972 1242.55,-261.098 1240,-261.201 1204.47,-262.631 1195.55,-261.659 1160,-261.201 1073.76,-260.09 1045.25,-290.232 966,-256.201 955.604,-251.737 958.453,-242.531 948,-238.201 899.548,-218.131 882.335,-234.808 830,-238.201 744.127,-243.768 717.138,-229.401 638,-263.201 533.998,-307.621 438.227,-411.444 410.218,-443.56"/>
<polygon fill="#9a32cd" stroke="#9a32cd" points="1248.23,-264.307 1258,-260.189 1247.8,-257.32 1248.23,-264.307"/>
<text text-anchor="middle" x="889" y="-241.201" font-family="Helvetica,sans-Serif" font-size="10.00"> myWorkspace</text>
</g>
<!-- Node10&#45;&gt;Node24 -->
<g id="edge31" class="edge"><title>Node10&#45;&gt;Node24</title>
<path fill="none" stroke="#9a32cd" stroke-dasharray="5,2" d="M1358.34,-257.601C1443.6,-259.797 1607.23,-264.012 1686.19,-266.047"/>
<polygon fill="#9a32cd" stroke="#9a32cd" points="1358.18,-254.096 1348.09,-257.337 1357.99,-261.093 1358.18,-254.096"/>
<text text-anchor="middle" x="1514" y="-266.201" font-family="Helvetica,sans-Serif" font-size="10.00"> myWorkspace</text>
</g>
<!-- Node32 -->
<g id="node32" class="node"><title>Node32</title>
<g id="a_node32"><a xlink:href="../../de/d0a/classview_1_1_drawer.html" target="_top" xlink:title="view.Drawer">
<polygon fill="white" stroke="black" points="1477.5,-204.701 1477.5,-223.701 1550.5,-223.701 1550.5,-204.701 1477.5,-204.701"/>
<text text-anchor="middle" x="1514" y="-211.701" font-family="Helvetica,sans-Serif" font-size="10.00">view.Drawer</text>
</a>
</g>
</g>
<!-- Node10&#45;&gt;Node32 -->
<g id="edge45" class="edge"><title>Node10&#45;&gt;Node32</title>
<path fill="none" stroke="#9a32cd" stroke-dasharray="5,2" d="M1355.08,-244.523C1358.77,-243.723 1362.44,-242.941 1366,-242.201 1403.9,-234.315 1447.48,-226.124 1477.29,-220.654"/>
<polygon fill="#9a32cd" stroke="#9a32cd" points="1354.33,-241.105 1345.31,-246.668 1355.83,-247.942 1354.33,-241.105"/>
<text text-anchor="middle" x="1401" y="-245.201" font-family="Helvetica,sans-Serif" font-size="10.00"> myWorkspace</text>
</g>
<!-- Node11 -->
<g id="node11" class="node"><title>Node11</title>
<polygon fill="white" stroke="#bfbfbf" points="1020.5,-139.701 1020.5,-158.701 1087.5,-158.701 1087.5,-139.701 1020.5,-139.701"/>
<text text-anchor="middle" x="1054" y="-146.701" font-family="Helvetica,sans-Serif" font-size="10.00">StackPane</text>
</g>
<!-- Node11&#45;&gt;Node10 -->
<g id="edge11" class="edge"><title>Node11&#45;&gt;Node10</title>
<path fill="none" stroke="midnightblue" d="M1097.64,-155.864C1137.14,-163.569 1196.22,-179.11 1240,-208.201 1249.42,-214.462 1249.29,-218.983 1258,-226.201 1266.97,-233.633 1277.77,-241.017 1286.42,-246.599"/>
<polygon fill="midnightblue" stroke="midnightblue" points="1098.26,-152.42 1087.79,-154.026 1096.98,-159.301 1098.26,-152.42"/>
</g>
<!-- Node12 -->
<g id="node12" class="node"><title>Node12</title>
<polygon fill="white" stroke="#bfbfbf" points="678.5,-100.701 678.5,-119.701 771.5,-119.701 771.5,-100.701 678.5,-100.701"/>
<text text-anchor="middle" x="725" y="-107.701" font-family="Helvetica,sans-Serif" font-size="10.00">ResourceBundle</text>
</g>
<!-- Node12&#45;&gt;Node10 -->
<g id="edge12" class="edge"><title>Node12&#45;&gt;Node10</title>
<path fill="none" stroke="#9a32cd" stroke-dasharray="5,2" d="M781.957,-103.61C862.833,-95.8233 1016.46,-87.5868 1142,-119.201 1189.42,-131.142 1208.41,-131.88 1240,-169.201 1257.16,-189.478 1242.15,-204.878 1258,-226.201 1264.29,-234.66 1273.7,-241.535 1282.21,-246.558"/>
<polygon fill="#9a32cd" stroke="#9a32cd" points="781.115,-100.176 771.512,-104.652 781.81,-107.142 781.115,-100.176"/>
<text text-anchor="middle" x="1054" y="-122.201" font-family="Helvetica,sans-Serif" font-size="10.00"> myResources</text>
</g>
<!-- Node12&#45;&gt;Node17 -->
<g id="edge21" class="edge"><title>Node12&#45;&gt;Node17</title>
<path fill="none" stroke="#9a32cd" stroke-dasharray="5,2" d="M735.555,-129.028C751.456,-158.687 785.997,-216.48 830,-251.201 874.714,-286.484 911.051,-257.853 948,-301.201 969.677,-326.632 947.839,-346.15 966,-374.201 983.191,-400.753 1014.36,-421.327 1034.35,-432.598"/>
<polygon fill="#9a32cd" stroke="#9a32cd" points="738.46,-127.031 730.723,-119.794 732.258,-130.277 738.46,-127.031"/>
<text text-anchor="middle" x="889" y="-304.201" font-family="Helvetica,sans-Serif" font-size="10.00"> myResources</text>
</g>
<!-- Node12&#45;&gt;Node24 -->
<g id="edge33" class="edge"><title>Node12&#45;&gt;Node24</title>
<path fill="none" stroke="#9a32cd" stroke-dasharray="5,2" d="M781.635,-99.4002C797.222,-96.8401 814.219,-94.4823 830,-93.201 1162.67,-66.1913 1251.1,-110.758 1574,-195.201 1616.05,-206.198 1628.86,-203.295 1668,-222.201 1687.85,-231.789 1708.12,-247.56 1720.13,-257.658"/>
<polygon fill="#9a32cd" stroke="#9a32cd" points="780.895,-95.9758 771.623,-101.102 782.068,-102.877 780.895,-95.9758"/>
<text text-anchor="middle" x="1303" y="-137.201" font-family="Helvetica,sans-Serif" font-size="10.00"> myResources</text>
</g>
<!-- Node13 -->
<g id="node13" class="node"><title>Node13</title>
<g id="a_node13"><a xlink:href="../../d8/df7/classview_1_1_turtle_view.html" target="_top" xlink:title="view.TurtleView">
<polygon fill="white" stroke="black" points="1011,-303.701 1011,-322.701 1097,-322.701 1097,-303.701 1011,-303.701"/>
<text text-anchor="middle" x="1054" y="-310.701" font-family="Helvetica,sans-Serif" font-size="10.00">view.TurtleView</text>
</a>
</g>
</g>
<!-- Node13&#45;&gt;Node10 -->
<g id="edge13" class="edge"><title>Node13&#45;&gt;Node10</title>
<path fill="none" stroke="#9a32cd" stroke-dasharray="5,2" d="M1107.31,-311.419C1144.97,-308.942 1196.57,-303.068 1240,-289.201 1257.19,-283.712 1275.23,-273.54 1287.39,-265.934"/>
<polygon fill="#9a32cd" stroke="#9a32cd" points="1106.85,-307.941 1097.08,-312.032 1107.27,-314.928 1106.85,-307.941"/>
<text text-anchor="middle" x="1200" y="-309.201" font-family="Helvetica,sans-Serif" font-size="10.00"> myActiveTurtle</text>
</g>
<!-- Node14 -->
<g id="node14" class="node"><title>Node14</title>
<polygon fill="white" stroke="#bfbfbf" points="691,-272.701 691,-291.701 759,-291.701 759,-272.701 691,-272.701"/>
<text text-anchor="middle" x="725" y="-279.701" font-family="Helvetica,sans-Serif" font-size="10.00">ImageView</text>
</g>
<!-- Node14&#45;&gt;Node13 -->
<g id="edge14" class="edge"><title>Node14&#45;&gt;Node13</title>
<path fill="none" stroke="midnightblue" d="M769.153,-286.292C832.101,-292.259 948.382,-303.283 1010.79,-309.2"/>
<polygon fill="midnightblue" stroke="midnightblue" points="769.44,-282.804 759.154,-285.344 768.779,-289.772 769.44,-282.804"/>
</g>
<!-- Node15 -->
<g id="node15" class="node"><title>Node15</title>
<polygon fill="white" stroke="#bfbfbf" points="702,-310.701 702,-329.701 748,-329.701 748,-310.701 702,-310.701"/>
<text text-anchor="middle" x="725" y="-317.701" font-family="Helvetica,sans-Serif" font-size="10.00">Group</text>
</g>
<!-- Node15&#45;&gt;Node10 -->
<g id="edge17" class="edge"><title>Node15&#45;&gt;Node10</title>
<path fill="none" stroke="#9a32cd" stroke-dasharray="5,2" d="M758.299,-325.289C778.782,-328.255 805.874,-331.699 830,-333.201 1011.95,-344.529 1076.68,-402.198 1240,-321.201 1265.71,-308.452 1286.49,-280.45 1296.15,-265.708"/>
<polygon fill="#9a32cd" stroke="#9a32cd" points="758.647,-321.803 748.241,-323.795 757.618,-328.727 758.647,-321.803"/>
<text text-anchor="middle" x="1054" y="-367.201" font-family="Helvetica,sans-Serif" font-size="10.00"> myLines</text>
</g>
<!-- Node15&#45;&gt;Node13 -->
<g id="edge15" class="edge"><title>Node15&#45;&gt;Node13</title>
<path fill="none" stroke="#9a32cd" stroke-dasharray="5,2" d="M758.534,-319.505C818.114,-318.229 944.679,-315.52 1010.79,-314.105"/>
<polygon fill="#9a32cd" stroke="#9a32cd" points="758.142,-316.012 748.219,-319.725 758.292,-323.01 758.142,-316.012"/>
<text text-anchor="middle" x="889" y="-321.201" font-family="Helvetica,sans-Serif" font-size="10.00"> myStamps</text>
</g>
<!-- Node16 -->
<g id="node16" class="node"><title>Node16</title>
<polygon fill="white" stroke="#bfbfbf" points="986,-178.201 986,-208.201 1122,-208.201 1122,-178.201 986,-178.201"/>
<text text-anchor="start" x="994" y="-196.201" font-family="Helvetica,sans-Serif" font-size="10.00">Map&lt; Integer, view.Turtle</text>
<text text-anchor="middle" x="1054" y="-185.201" font-family="Helvetica,sans-Serif" font-size="10.00">View &gt;</text>
</g>
<!-- Node16&#45;&gt;Node10 -->
<g id="edge16" class="edge"><title>Node16&#45;&gt;Node10</title>
<path fill="none" stroke="#9a32cd" stroke-dasharray="5,2" d="M1132.35,-205.114C1165.83,-211.18 1205.23,-219.551 1240,-230.201 1254.4,-234.611 1270.03,-241.178 1281.99,-246.609"/>
<polygon fill="#9a32cd" stroke="#9a32cd" points="1132.62,-201.607 1122.16,-203.305 1131.39,-208.499 1132.62,-201.607"/>
<text text-anchor="middle" x="1200" y="-233.201" font-family="Helvetica,sans-Serif" font-size="10.00"> myTurtles</text>
</g>
<!-- Node17&#45;&gt;Node9 -->
<g id="edge51" class="edge"><title>Node17&#45;&gt;Node9</title>
<path fill="none" stroke="#9a32cd" stroke-dasharray="5,2" d="M1005,-443.012C884.938,-445.041 572.536,-450.319 451.198,-452.37"/>
<polygon fill="#9a32cd" stroke="#9a32cd" points="1005.4,-446.506 1015.34,-442.837 1005.28,-439.507 1005.4,-446.506"/>
<text text-anchor="middle" x="725" y="-452.201" font-family="Helvetica,sans-Serif" font-size="10.00"> mySidebar</text>
</g>
<!-- Node17&#45;&gt;Node10 -->
<g id="edge18" class="edge"><title>Node17&#45;&gt;Node10</title>
<path fill="none" stroke="#9a32cd" stroke-dasharray="5,2" d="M1089.51,-428.891C1109.97,-421.042 1136.43,-410.962 1160,-402.201 1195.45,-389.024 1211.46,-398.014 1240,-373.201 1274.87,-342.885 1293.2,-288.048 1299.47,-265.884"/>
<polygon fill="#9a32cd" stroke="#9a32cd" points="1088.07,-425.697 1079.99,-432.55 1090.58,-432.231 1088.07,-425.697"/>
<text text-anchor="middle" x="1200" y="-405.201" font-family="Helvetica,sans-Serif" font-size="10.00"> mySidebar</text>
</g>
<!-- Node17&#45;&gt;Node24 -->
<g id="edge47" class="edge"><title>Node17&#45;&gt;Node24</title>
<path fill="none" stroke="#9a32cd" stroke-dasharray="5,2" d="M1102.99,-436.468C1140.53,-431.553 1193.91,-423.616 1240,-413.201 1419.56,-372.622 1629.77,-302.208 1703.66,-276.74"/>
<polygon fill="#9a32cd" stroke="#9a32cd" points="1102.31,-433.026 1092.84,-437.773 1103.2,-439.969 1102.31,-433.026"/>
<text text-anchor="middle" x="1401" y="-383.201" font-family="Helvetica,sans-Serif" font-size="10.00"> mySidebar</text>
</g>
<!-- Node26 -->
<g id="node26" class="node"><title>Node26</title>
<g id="a_node26"><a xlink:href="../../da/dc8/classview_1_1_editor.html" target="_top" xlink:title="view.Editor">
<polygon fill="white" stroke="black" points="1269.5,-504.701 1269.5,-523.701 1336.5,-523.701 1336.5,-504.701 1269.5,-504.701"/>
<text text-anchor="middle" x="1303" y="-511.701" font-family="Helvetica,sans-Serif" font-size="10.00">view.Editor</text>
</a>
</g>
</g>
<!-- Node17&#45;&gt;Node26 -->
<g id="edge39" class="edge"><title>Node17&#45;&gt;Node26</title>
<path fill="none" stroke="#9a32cd" stroke-dasharray="5,2" d="M1103.13,-440.299C1141.62,-440.484 1196.2,-444.646 1240,-463.201 1262.07,-472.552 1282.47,-492.36 1293.48,-504.352"/>
<polygon fill="#9a32cd" stroke="#9a32cd" points="1102.71,-436.801 1092.72,-440.344 1102.74,-443.801 1102.71,-436.801"/>
<text text-anchor="middle" x="1200" y="-466.201" font-family="Helvetica,sans-Serif" font-size="10.00"> mySidebar</text>
</g>
<!-- Node18 -->
<g id="node18" class="node"><title>Node18</title>
<polygon fill="white" stroke="#bfbfbf" points="704.5,-386.701 704.5,-405.701 745.5,-405.701 745.5,-386.701 704.5,-386.701"/>
<text text-anchor="middle" x="725" y="-393.701" font-family="Helvetica,sans-Serif" font-size="10.00">VBox</text>
</g>
<!-- Node18&#45;&gt;Node17 -->
<g id="edge19" class="edge"><title>Node18&#45;&gt;Node17</title>
<path fill="none" stroke="midnightblue" d="M755.888,-400.405C815.617,-408.808 949.618,-427.658 1015.28,-436.895"/>
<polygon fill="midnightblue" stroke="midnightblue" points="756.353,-396.937 745.963,-399.009 755.378,-403.868 756.353,-396.937"/>
</g>
<!-- Node19 -->
<g id="node19" class="node"><title>Node19</title>
<polygon fill="white" stroke="#bfbfbf" points="638.5,-348.701 638.5,-367.701 811.5,-367.701 811.5,-348.701 638.5,-348.701"/>
<text text-anchor="middle" x="725" y="-355.701" font-family="Helvetica,sans-Serif" font-size="10.00">ObservableList&lt; view.Property &gt;</text>
</g>
<!-- Node19&#45;&gt;Node17 -->
<g id="edge20" class="edge"><title>Node19&#45;&gt;Node17</title>
<path fill="none" stroke="#9a32cd" stroke-dasharray="5,2" d="M820.38,-369.18C860.269,-375.146 906.91,-383.885 948,-396.201 979.646,-405.687 1014.4,-422.212 1034.93,-432.659"/>
<polygon fill="#9a32cd" stroke="#9a32cd" points="820.793,-365.703 810.392,-367.723 819.782,-372.63 820.793,-365.703"/>
<text text-anchor="middle" x="889" y="-399.201" font-family="Helvetica,sans-Serif" font-size="10.00"> myVariablesList</text>
</g>
<!-- Node20 -->
<g id="node20" class="node"><title>Node20</title>
<polygon fill="white" stroke="#bfbfbf" points="651,-510.701 651,-529.701 799,-529.701 799,-510.701 651,-510.701"/>
<text text-anchor="middle" x="725" y="-517.701" font-family="Helvetica,sans-Serif" font-size="10.00">TableView&lt; view.Property &gt;</text>
</g>
<!-- Node20&#45;&gt;Node17 -->
<g id="edge23" class="edge"><title>Node20&#45;&gt;Node17</title>
<path fill="none" stroke="#9a32cd" stroke-dasharray="5,2" d="M809.215,-518.296C862.331,-515.678 925.324,-509.535 948,-495.201 960.823,-487.095 953.853,-475.288 966,-466.201 980.178,-455.596 998.79,-449.677 1015.16,-446.373"/>
<polygon fill="#9a32cd" stroke="#9a32cd" points="808.911,-514.807 799.081,-518.76 809.231,-521.799 808.911,-514.807"/>
<text text-anchor="middle" x="889" y="-531.201" font-family="Helvetica,sans-Serif" font-size="10.00"> myTurtlePropertiesTable</text>
<text text-anchor="middle" x="889" y="-520.201" font-family="Helvetica,sans-Serif" font-size="10.00">myVariablesTable</text>
</g>
<!-- Node21&#45;&gt;Node17 -->
<g id="edge24" class="edge"><title>Node21&#45;&gt;Node17</title>
<path fill="none" stroke="#9a32cd" stroke-dasharray="5,2" d="M773.976,-579.208C791.56,-574.934 811.646,-570.194 830,-566.201 882.21,-554.843 909.523,-580.275 948,-543.201 973.308,-518.816 941.645,-491.538 966,-466.201 978.704,-452.985 997.968,-446.836 1015.14,-444.055"/>
<polygon fill="#9a32cd" stroke="#9a32cd" points="772.826,-575.886 763.944,-581.661 774.489,-582.686 772.826,-575.886"/>
<text text-anchor="middle" x="889" y="-569.201" font-family="Helvetica,sans-Serif" font-size="10.00"> myParser</text>
</g>
<!-- Node21&#45;&gt;Node24 -->
<g id="edge42" class="edge"><title>Node21&#45;&gt;Node24</title>
<path fill="none" stroke="#9a32cd" stroke-dasharray="5,2" d="M775.3,-599.876C792.567,-602.75 812.111,-605.82 830,-608.201 890.233,-616.217 905.316,-619.086 966,-622.201 1238.81,-636.206 1318.67,-629.303 1574,-532.201 1619.03,-515.074 1638.09,-515.973 1668,-478.201 1719.03,-413.763 1728.78,-308.734 1730.6,-276.745"/>
<polygon fill="#9a32cd" stroke="#9a32cd" points="775.868,-596.422 765.426,-598.212 774.706,-603.325 775.868,-596.422"/>
<text text-anchor="middle" x="1303" y="-625.201" font-family="Helvetica,sans-Serif" font-size="10.00"> myParser</text>
</g>
<!-- Node21&#45;&gt;Node26 -->
<g id="edge37" class="edge"><title>Node21&#45;&gt;Node26</title>
<path fill="none" stroke="#9a32cd" stroke-dasharray="5,2" d="M771.723,-602.806C821.193,-612.407 899.484,-618.585 948,-577.201 975.727,-553.55 937.542,-519.968 966,-497.201 1027.08,-448.336 1063.89,-493.063 1142,-497.201 1186.21,-499.543 1237.01,-505.502 1269.29,-509.701"/>
<polygon fill="#9a32cd" stroke="#9a32cd" points="772.429,-599.378 761.928,-600.787 771.016,-606.234 772.429,-599.378"/>
<text text-anchor="middle" x="1054" y="-500.201" font-family="Helvetica,sans-Serif" font-size="10.00"> myParser</text>
</g>
<!-- Node22 -->
<g id="node22" class="node"><title>Node22</title>
<polygon fill="white" stroke="#bfbfbf" points="345,-530.201 345,-560.201 457,-560.201 457,-530.201 345,-530.201"/>
<text text-anchor="start" x="353" y="-548.201" font-family="Helvetica,sans-Serif" font-size="10.00">List&lt; Entry&lt; String,</text>
<text text-anchor="middle" x="401" y="-537.201" font-family="Helvetica,sans-Serif" font-size="10.00"> Pattern &gt; &gt;</text>
</g>
<!-- Node22&#45;&gt;Node21 -->
<g id="edge26" class="edge"><title>Node22&#45;&gt;Node21</title>
<path fill="none" stroke="#9a32cd" stroke-dasharray="5,2" d="M467.05,-532.48C510.912,-526.259 569.728,-522.527 620,-535.201 655.593,-544.175 692.258,-567.978 711.094,-581.485"/>
<polygon fill="#9a32cd" stroke="#9a32cd" points="466.455,-529.03 457.083,-533.973 467.491,-535.953 466.455,-529.03"/>
<text text-anchor="middle" x="559" y="-538.201" font-family="Helvetica,sans-Serif" font-size="10.00"> myPatterns</text>
</g>
<!-- Node23 -->
<g id="node23" class="node"><title>Node23</title>
<polygon fill="white" stroke="#bfbfbf" points="340,-592.701 340,-611.701 462,-611.701 462,-592.701 340,-592.701"/>
<text text-anchor="middle" x="401" y="-599.701" font-family="Helvetica,sans-Serif" font-size="10.00">Map&lt; String, String &gt;</text>
</g>
<!-- Node23&#45;&gt;Node21 -->
<g id="edge29" class="edge"><title>Node23&#45;&gt;Node21</title>
<path fill="none" stroke="#9a32cd" stroke-dasharray="5,2" d="M472.39,-599.796C537.597,-597.569 632.209,-594.337 684.877,-592.538"/>
<polygon fill="#9a32cd" stroke="#9a32cd" points="472.063,-596.305 462.188,-600.145 472.302,-603.301 472.063,-596.305"/>
<text text-anchor="middle" x="559" y="-602.201" font-family="Helvetica,sans-Serif" font-size="10.00"> myCommandMap</text>
</g>
<!-- Node24&#45;&gt;Node21 -->
<g id="edge30" class="edge"><title>Node24&#45;&gt;Node21</title>
<path fill="none" stroke="#9a32cd" stroke-dasharray="5,2" d="M1730.55,-286.876C1728.52,-357.057 1718.03,-593.725 1668,-646.201 1620,-696.549 1584.56,-679.201 1515,-679.201 1053,-679.201 1053,-679.201 1053,-679.201 953.317,-679.201 917.145,-703.601 830,-655.201 818.652,-648.898 822.127,-640.321 812,-632.201 794.707,-618.337 771.955,-607.753 754.197,-600.814"/>
<polygon fill="#9a32cd" stroke="#9a32cd" points="1734.05,-286.851 1730.81,-276.763 1727.05,-286.668 1734.05,-286.851"/>
<text text-anchor="middle" x="1303" y="-682.201" font-family="Helvetica,sans-Serif" font-size="10.00"> mySLogoView</text>
</g>
<!-- Node25 -->
<g id="node25" class="node"><title>Node25</title>
<polygon fill="white" stroke="#bfbfbf" points="1491.5,-76.701 1491.5,-95.701 1536.5,-95.701 1536.5,-76.701 1491.5,-76.701"/>
<text text-anchor="middle" x="1514" y="-83.701" font-family="Helvetica,sans-Serif" font-size="10.00">Stage</text>
</g>
<!-- Node25&#45;&gt;Node24 -->
<g id="edge32" class="edge"><title>Node25&#45;&gt;Node24</title>
<path fill="none" stroke="#9a32cd" stroke-dasharray="5,2" d="M1546.71,-79.7813C1580.31,-74.8833 1633.2,-72.8347 1668,-99.201 1720.64,-139.082 1729.3,-228.123 1730.72,-257.553"/>
<polygon fill="#9a32cd" stroke="#9a32cd" points="1545.84,-76.3774 1536.53,-81.4392 1546.97,-83.2864 1545.84,-76.3774"/>
<text text-anchor="middle" x="1630" y="-102.201" font-family="Helvetica,sans-Serif" font-size="10.00"> myStage</text>
</g>
<!-- Node26&#45;&gt;Node24 -->
<g id="edge34" class="edge"><title>Node26&#45;&gt;Node24</title>
<path fill="none" stroke="#9a32cd" stroke-dasharray="5,2" d="M1347.11,-518.167C1421.73,-522.58 1575.81,-520.548 1668,-441.201 1719.62,-396.77 1728.95,-306.6 1730.63,-276.917"/>
<polygon fill="#9a32cd" stroke="#9a32cd" points="1346.9,-514.645 1336.69,-517.477 1346.44,-521.63 1346.9,-514.645"/>
<text text-anchor="middle" x="1514" y="-520.201" font-family="Helvetica,sans-Serif" font-size="10.00"> myEditor</text>
</g>
<!-- Node27 -->
<g id="node27" class="node"><title>Node27</title>
<polygon fill="white" stroke="#bfbfbf" points="1033,-593.701 1033,-612.701 1075,-612.701 1075,-593.701 1033,-593.701"/>
<text text-anchor="middle" x="1054" y="-600.701" font-family="Helvetica,sans-Serif" font-size="10.00">HBox</text>
</g>
<!-- Node27&#45;&gt;Node26 -->
<g id="edge35" class="edge"><title>Node27&#45;&gt;Node26</title>
<path fill="none" stroke="midnightblue" d="M1085.63,-602.28C1123.63,-600.07 1189.55,-592.683 1240,-568.201 1262.35,-557.358 1282.96,-536.308 1293.87,-523.936"/>
<polygon fill="midnightblue" stroke="midnightblue" points="1085.06,-598.804 1075.24,-602.795 1085.4,-605.796 1085.06,-598.804"/>
</g>
<!-- Node28 -->
<g id="node28" class="node"><title>Node28</title>
<polygon fill="white" stroke="#bfbfbf" points="1029.5,-555.701 1029.5,-574.701 1078.5,-574.701 1078.5,-555.701 1029.5,-555.701"/>
<text text-anchor="middle" x="1054" y="-562.701" font-family="Helvetica,sans-Serif" font-size="10.00">Button</text>
</g>
<!-- Node28&#45;&gt;Node26 -->
<g id="edge36" class="edge"><title>Node28&#45;&gt;Node26</title>
<path fill="none" stroke="#9a32cd" stroke-dasharray="5,2" d="M1089.02,-562.164C1126.45,-558.336 1188.19,-550.581 1240,-537.201 1253.45,-533.728 1268.04,-528.399 1279.68,-523.746"/>
<polygon fill="#9a32cd" stroke="#9a32cd" points="1088.28,-558.72 1078.67,-563.185 1088.97,-565.686 1088.28,-558.72"/>
<text text-anchor="middle" x="1200" y="-556.201" font-family="Helvetica,sans-Serif" font-size="10.00"> runButton</text>
</g>
<!-- Node29 -->
<g id="node29" class="node"><title>Node29</title>
<polygon fill="white" stroke="#bfbfbf" points="1025,-517.701 1025,-536.701 1083,-536.701 1083,-517.701 1025,-517.701"/>
<text text-anchor="middle" x="1054" y="-524.701" font-family="Helvetica,sans-Serif" font-size="10.00">TextArea</text>
</g>
<!-- Node29&#45;&gt;Node26 -->
<g id="edge38" class="edge"><title>Node29&#45;&gt;Node26</title>
<path fill="none" stroke="#9a32cd" stroke-dasharray="5,2" d="M1093.4,-525.18C1141.71,-522.637 1223.86,-518.314 1269.31,-515.921"/>
<polygon fill="#9a32cd" stroke="#9a32cd" points="1093.14,-521.689 1083.33,-525.71 1093.5,-528.679 1093.14,-521.689"/>
<text text-anchor="middle" x="1200" y="-525.201" font-family="Helvetica,sans-Serif" font-size="10.00"> textEditor</text>
</g>
<!-- Node30 -->
<g id="node30" class="node"><title>Node30</title>
<polygon fill="white" stroke="#bfbfbf" points="1454.5,-38.701 1454.5,-57.701 1573.5,-57.701 1573.5,-38.701 1454.5,-38.701"/>
<text text-anchor="middle" x="1514" y="-45.701" font-family="Helvetica,sans-Serif" font-size="10.00">Map&lt; String, Node &gt;</text>
</g>
<!-- Node30&#45;&gt;Node24 -->
<g id="edge40" class="edge"><title>Node30&#45;&gt;Node24</title>
<path fill="none" stroke="#9a32cd" stroke-dasharray="5,2" d="M1583.9,-38.6316C1612.73,-38.3543 1644.85,-43.402 1668,-62.201 1730.44,-112.892 1732.36,-223.984 1731.44,-257.463"/>
<polygon fill="#9a32cd" stroke="#9a32cd" points="1583.74,-35.1345 1573.85,-38.938 1583.96,-42.1313 1583.74,-35.1345"/>
<text text-anchor="middle" x="1630" y="-65.201" font-family="Helvetica,sans-Serif" font-size="10.00"> variables</text>
</g>
<!-- Node31 -->
<g id="node31" class="node"><title>Node31</title>
<polygon fill="white" stroke="#bfbfbf" points="1473.5,-0.701017 1473.5,-19.701 1554.5,-19.701 1554.5,-0.701017 1473.5,-0.701017"/>
<text text-anchor="middle" x="1514" y="-7.70102" font-family="Helvetica,sans-Serif" font-size="10.00">Dimension2D</text>
</g>
<!-- Node31&#45;&gt;Node24 -->
<g id="edge43" class="edge"><title>Node31&#45;&gt;Node24</title>
<path fill="none" stroke="#9a32cd" stroke-dasharray="5,2" d="M1564.95,-1.16707C1597.92,1.8236 1640.03,-0.437917 1668,-24.201 1705.04,-55.6616 1725.35,-216.701 1729.98,-257.697"/>
<polygon fill="#9a32cd" stroke="#9a32cd" points="1564.16,2.26706 1554.6,-2.30202 1564.92,-4.69125 1564.16,2.26706"/>
<text text-anchor="middle" x="1630" y="-27.201" font-family="Helvetica,sans-Serif" font-size="10.00"> myDimensions</text>
</g>
<!-- Node32&#45;&gt;Node9 -->
<g id="edge50" class="edge"><title>Node32&#45;&gt;Node9</title>
<path fill="none" stroke="#9a32cd" stroke-dasharray="5,2" d="M1476.45,-201.187C1382.99,-167.906 1142.54,-82.2947 1142,-82.201 921.229,-44.0963 837.439,10.8578 638,-91.201 486.06,-168.953 417.792,-394.398 404.474,-443.631"/>
<polygon fill="#9a32cd" stroke="#9a32cd" points="1475.47,-204.552 1486.07,-204.61 1477.82,-197.958 1475.47,-204.552"/>
<text text-anchor="middle" x="1054" y="-85.201" font-family="Helvetica,sans-Serif" font-size="10.00"> myDrawer</text>
</g>
<!-- Node32&#45;&gt;Node24 -->
<g id="edge44" class="edge"><title>Node32&#45;&gt;Node24</title>
<path fill="none" stroke="#9a32cd" stroke-dasharray="5,2" d="M1560.69,-220.158C1591.39,-224.744 1632.55,-232.032 1668,-242.201 1682.36,-246.322 1697.98,-252.507 1710.07,-257.694"/>
<polygon fill="#9a32cd" stroke="#9a32cd" points="1561.1,-216.681 1550.7,-218.705 1560.09,-223.608 1561.1,-216.681"/>
<text text-anchor="middle" x="1630" y="-245.201" font-family="Helvetica,sans-Serif" font-size="10.00"> drawer</text>
</g>
<!-- Node33 -->
<g id="node33" class="node"><title>Node33</title>
<polygon fill="white" stroke="#bfbfbf" points="1282.5,-197.701 1282.5,-216.701 1323.5,-216.701 1323.5,-197.701 1282.5,-197.701"/>
<text text-anchor="middle" x="1303" y="-204.701" font-family="Helvetica,sans-Serif" font-size="10.00">Color</text>
</g>
<!-- Node33&#45;&gt;Node32 -->
<g id="edge46" class="edge"><title>Node33&#45;&gt;Node32</title>
<path fill="none" stroke="#9a32cd" stroke-dasharray="5,2" d="M1333.93,-206.83C1360.7,-206.64 1400.98,-206.706 1436,-208.201 1449.53,-208.779 1464.37,-209.834 1477.38,-210.901"/>
<polygon fill="#9a32cd" stroke="#9a32cd" points="1333.66,-203.332 1323.69,-206.92 1333.72,-210.332 1333.66,-203.332"/>
<text text-anchor="middle" x="1401" y="-211.201" font-family="Helvetica,sans-Serif" font-size="10.00"> myColor</text>
</g>
<!-- Node34 -->
<g id="node34" class="node"><title>Node34</title>
<polygon fill="white" stroke="#bfbfbf" points="656,-471.701 656,-490.701 794,-490.701 794,-471.701 656,-471.701"/>
<text text-anchor="middle" x="725" y="-478.701" font-family="Helvetica,sans-Serif" font-size="10.00">ObservableList&lt; String &gt;</text>
</g>
<!-- Node34&#45;&gt;Node17 -->
<g id="edge48" class="edge"><title>Node34&#45;&gt;Node17</title>
<path fill="none" stroke="#9a32cd" stroke-dasharray="5,2" d="M804.222,-471.872C871.025,-463.904 964.205,-452.791 1015.47,-446.677"/>
<polygon fill="#9a32cd" stroke="#9a32cd" points="803.667,-468.413 794.152,-473.073 804.496,-475.364 803.667,-468.413"/>
<text text-anchor="middle" x="889" y="-483.201" font-family="Helvetica,sans-Serif" font-size="10.00"> myCommandItems</text>
<text text-anchor="middle" x="889" y="-472.201" font-family="Helvetica,sans-Serif" font-size="10.00">myHistoryItems</text>
</g>
<!-- Node35 -->
<g id="node35" class="node"><title>Node35</title>
<polygon fill="white" stroke="#bfbfbf" points="1022.5,-227.701 1022.5,-246.701 1085.5,-246.701 1085.5,-227.701 1022.5,-227.701"/>
<text text-anchor="middle" x="1054" y="-234.701" font-family="Helvetica,sans-Serif" font-size="10.00">Rectangle</text>
</g>
<!-- Node35&#45;&gt;Node10 -->
<g id="edge49" class="edge"><title>Node35&#45;&gt;Node10</title>
<path fill="none" stroke="#9a32cd" stroke-dasharray="5,2" d="M1095.82,-239.76C1133.33,-242.185 1190.44,-246.062 1240,-250.201 1245.82,-250.687 1251.94,-251.235 1257.98,-251.797"/>
<polygon fill="#9a32cd" stroke="#9a32cd" points="1095.99,-236.264 1085.79,-239.116 1095.54,-243.249 1095.99,-236.264"/>
<text text-anchor="middle" x="1200" y="-253.201" font-family="Helvetica,sans-Serif" font-size="10.00"> myBackground</text>
</g>
<!-- Node36 -->
<g id="node36" class="node"><title>Node36</title>
<polygon fill="white" stroke="#bfbfbf" points="333,-773.201 333,-803.201 469,-803.201 469,-773.201 333,-773.201"/>
<text text-anchor="start" x="341" y="-791.201" font-family="Helvetica,sans-Serif" font-size="10.00">List&lt; model.instructions.</text>
<text text-anchor="middle" x="401" y="-780.201" font-family="Helvetica,sans-Serif" font-size="10.00">Instruction &gt;</text>
</g>
<!-- Node36&#45;&gt;Node2 -->
<g id="edge52" class="edge"><title>Node36&#45;&gt;Node2</title>
<path fill="none" stroke="#9a32cd" stroke-dasharray="5,2" d="M478.894,-774.36C520.763,-766.491 573.392,-756.058 620,-745.201 643.856,-739.644 670.53,-732.442 690.891,-726.734"/>
<polygon fill="#9a32cd" stroke="#9a32cd" points="478.227,-770.924 469.04,-776.202 479.513,-777.805 478.227,-770.924"/>
<text text-anchor="middle" x="559" y="-773.201" font-family="Helvetica,sans-Serif" font-size="10.00"> myDependencies</text>
</g>
</g>
</svg>
