<?xml version="1.0" encoding="UTF-8" standalone="no"?>
<!DOCTYPE svg PUBLIC "-//W3C//DTD SVG 1.1//EN"
 "http://www.w3.org/Graphics/SVG/1.1/DTD/svg11.dtd">
<!-- Generated by graphviz version 2.36.0 (20140111.2315)
 -->
<!-- Title: view.VariablesView.createColumns Pages: 1 -->
<svg width="590pt" height="252pt"
 viewBox="0.00 0.00 590.00 252.00" xmlns="http://www.w3.org/2000/svg" xmlns:xlink="http://www.w3.org/1999/xlink">
<g id="graph0" class="graph" transform="scale(1 1) rotate(0) translate(4 248)">
<title>view.VariablesView.createColumns</title>
<polygon fill="white" stroke="none" points="-4,4 -4,-248 586,-248 586,4 -4,4"/>
<!-- Node1 -->
<g id="node1" class="node"><title>Node1</title>
<polygon fill="#bfbfbf" stroke="black" points="0.5,-99 0.5,-129 137.5,-129 137.5,-99 0.5,-99"/>
<text text-anchor="start" x="8.5" y="-117" font-family="Helvetica,sans-Serif" font-size="10.00">view.VariablesView.create</text>
<text text-anchor="middle" x="69" y="-106" font-family="Helvetica,sans-Serif" font-size="10.00">Columns</text>
</g>
<!-- Node2 -->
<g id="node2" class="node"><title>Node2</title>
<g id="a_node2"><a xlink:href="../../d1/dca/classmodel_1_1_execution_environment.html#a3afb09ec1e342a734f59161beca05b0e" target="_top" xlink:title="model.ExecutionEnvironment.add\lVariable">
<polygon fill="white" stroke="black" points="174,-214 174,-244 352,-244 352,-214 174,-214"/>
<text text-anchor="start" x="182" y="-232" font-family="Helvetica,sans-Serif" font-size="10.00">model.ExecutionEnvironment.add</text>
<text text-anchor="middle" x="263" y="-221" font-family="Helvetica,sans-Serif" font-size="10.00">Variable</text>
</a>
</g>
</g>
<!-- Node1&#45;&gt;Node2 -->
<g id="edge1" class="edge"><title>Node1&#45;&gt;Node2</title>
<path fill="none" stroke="midnightblue" d="M83.2874,-129.025C101.732,-148.982 137.021,-184.034 174,-204 178.232,-206.285 182.694,-208.379 187.272,-210.296"/>
<polygon fill="midnightblue" stroke="midnightblue" points="186.208,-213.637 196.798,-213.984 188.736,-207.109 186.208,-213.637"/>
</g>
<!-- Node4 -->
<g id="node4" class="node"><title>Node4</title>
<g id="a_node4"><a xlink:href="../../d5/dea/classview_1_1_side_table_view.html#aa65927382f1db908786608776f36d9a4" target="_top" xlink:title="view.SideTableView.getLeft\lTableCol">
<polygon fill="white" stroke="black" points="192,-165 192,-195 334,-195 334,-165 192,-165"/>
<text text-anchor="start" x="200" y="-183" font-family="Helvetica,sans-Serif" font-size="10.00">view.SideTableView.getLeft</text>
<text text-anchor="middle" x="263" y="-172" font-family="Helvetica,sans-Serif" font-size="10.00">TableCol</text>
</a>
</g>
</g>
<!-- Node1&#45;&gt;Node4 -->
<g id="edge3" class="edge"><title>Node1&#45;&gt;Node4</title>
<path fill="none" stroke="midnightblue" d="M105.775,-129.114C125.685,-137.27 151.019,-147.227 174,-155 181.113,-157.406 188.601,-159.776 196.082,-162.041"/>
<polygon fill="midnightblue" stroke="midnightblue" points="195.298,-165.46 205.881,-164.953 197.292,-158.75 195.298,-165.46"/>
</g>
<!-- Node5 -->
<g id="node5" class="node"><title>Node5</title>
<g id="a_node5"><a xlink:href="../../d6/d58/classview_1_1_property.html#a51a9b0be72a7421596996f752b75ad93" target="_top" xlink:title="view.Property.getName">
<polygon fill="white" stroke="black" points="200,-126.5 200,-145.5 326,-145.5 326,-126.5 200,-126.5"/>
<text text-anchor="middle" x="263" y="-133.5" font-family="Helvetica,sans-Serif" font-size="10.00">view.Property.getName</text>
</a>
</g>
</g>
<!-- Node1&#45;&gt;Node5 -->
<g id="edge4" class="edge"><title>Node1&#45;&gt;Node5</title>
<path fill="none" stroke="midnightblue" d="M137.692,-121.756C154.411,-123.672 172.389,-125.732 189.334,-127.674"/>
<polygon fill="midnightblue" stroke="midnightblue" points="189.397,-131.204 199.73,-128.865 190.194,-124.249 189.397,-131.204"/>
</g>
<!-- Node6 -->
<g id="node6" class="node"><title>Node6</title>
<g id="a_node6"><a xlink:href="../../d5/dea/classview_1_1_side_table_view.html#ad96d10df7f3d0a44b345ce889ad5d60e" target="_top" xlink:title="view.SideTableView.getRight\lTableCol">
<polygon fill="white" stroke="black" points="189,-77 189,-107 337,-107 337,-77 189,-77"/>
<text text-anchor="start" x="197" y="-95" font-family="Helvetica,sans-Serif" font-size="10.00">view.SideTableView.getRight</text>
<text text-anchor="middle" x="263" y="-84" font-family="Helvetica,sans-Serif" font-size="10.00">TableCol</text>
</a>
</g>
</g>
<!-- Node1&#45;&gt;Node6 -->
<g id="edge5" class="edge"><title>Node1&#45;&gt;Node6</title>
<path fill="none" stroke="midnightblue" d="M137.692,-106.244C150.855,-104.735 164.798,-103.138 178.403,-101.579"/>
<polygon fill="midnightblue" stroke="midnightblue" points="179.186,-105.012 188.723,-100.396 178.389,-98.0576 179.186,-105.012"/>
</g>
<!-- Node7 -->
<g id="node7" class="node"><title>Node7</title>
<g id="a_node7"><a xlink:href="../../d5/dea/classview_1_1_side_table_view.html#adbdf2bf0ebf7fc8ab04db2087baea03a" target="_top" xlink:title="view.SideTableView.getTable">
<polygon fill="white" stroke="black" points="189,-38.5 189,-57.5 337,-57.5 337,-38.5 189,-38.5"/>
<text text-anchor="middle" x="263" y="-45.5" font-family="Helvetica,sans-Serif" font-size="10.00">view.SideTableView.getTable</text>
</a>
</g>
</g>
<!-- Node1&#45;&gt;Node7 -->
<g id="edge6" class="edge"><title>Node1&#45;&gt;Node7</title>
<path fill="none" stroke="midnightblue" d="M99.8811,-98.9365C120.345,-89.0831 148.325,-76.5072 174,-68 183.051,-65.001 192.772,-62.2975 202.333,-59.9187"/>
<polygon fill="midnightblue" stroke="midnightblue" points="203.292,-63.2881 212.204,-57.5583 201.664,-56.48 203.292,-63.2881"/>
</g>
<!-- Node8 -->
<g id="node8" class="node"><title>Node8</title>
<g id="a_node8"><a xlink:href="../../d6/d58/classview_1_1_property.html#af57f40e26c8ed8fd7c55dfcda6215c6b" target="_top" xlink:title="view.Property.setValue">
<polygon fill="white" stroke="black" points="202,-0.5 202,-19.5 324,-19.5 324,-0.5 202,-0.5"/>
<text text-anchor="middle" x="263" y="-7.5" font-family="Helvetica,sans-Serif" font-size="10.00">view.Property.setValue</text>
</a>
</g>
</g>
<!-- Node1&#45;&gt;Node8 -->
<g id="edge7" class="edge"><title>Node1&#45;&gt;Node8</title>
<path fill="none" stroke="midnightblue" d="M83.924,-98.844C102.537,-79.5489 137.446,-46.6094 174,-29 179.637,-26.2846 185.663,-23.9538 191.818,-21.9537"/>
<polygon fill="midnightblue" stroke="midnightblue" points="192.961,-25.2655 201.56,-19.0753 190.978,-18.5525 192.961,-25.2655"/>
</g>
<!-- Node3 -->
<g id="node3" class="node"><title>Node3</title>
<g id="a_node3"><a xlink:href="../../d1/dca/classmodel_1_1_execution_environment.html#a93fd01341f06dfa81727344b120aef66" target="_top" xlink:title="model.ExecutionEnvironment.update\lObserver">
<polygon fill="white" stroke="black" points="388,-214 388,-244 582,-244 582,-214 388,-214"/>
<text text-anchor="start" x="396" y="-232" font-family="Helvetica,sans-Serif" font-size="10.00">model.ExecutionEnvironment.update</text>
<text text-anchor="middle" x="485" y="-221" font-family="Helvetica,sans-Serif" font-size="10.00">Observer</text>
</a>
</g>
</g>
<!-- Node2&#45;&gt;Node3 -->
<g id="edge2" class="edge"><title>Node2&#45;&gt;Node3</title>
<path fill="none" stroke="midnightblue" d="M352.215,-229C360.635,-229 369.233,-229 377.8,-229"/>
<polygon fill="midnightblue" stroke="midnightblue" points="377.83,-232.5 387.83,-229 377.83,-225.5 377.83,-232.5"/>
</g>
</g>
</svg>
