<?xml version="1.0" encoding="UTF-8" standalone="no"?>
<!DOCTYPE svg PUBLIC "-//W3C//DTD SVG 1.1//EN"
 "http://www.w3.org/Graphics/SVG/1.1/DTD/svg11.dtd">
<!-- Generated by graphviz version 2.36.0 (20140111.2315)
 -->
<!-- Title: view.Property.setValue Pages: 1 -->
<svg width="678pt" height="38pt"
 viewBox="0.00 0.00 678.00 38.00" xmlns="http://www.w3.org/2000/svg" xmlns:xlink="http://www.w3.org/1999/xlink">
<g id="graph0" class="graph" transform="scale(1 1) rotate(0) translate(4 34)">
<title>view.Property.setValue</title>
<polygon fill="white" stroke="none" points="-4,4 -4,-34 674,-34 674,4 -4,4"/>
<!-- Node1 -->
<g id="node1" class="node"><title>Node1</title>
<polygon fill="#bfbfbf" stroke="black" points="0,-5.5 0,-24.5 122,-24.5 122,-5.5 0,-5.5"/>
<text text-anchor="middle" x="61" y="-12.5" font-family="Helvetica,sans-Serif" font-size="10.00">view.Property.setValue</text>
</g>
<!-- Node2 -->
<g id="node2" class="node"><title>Node2</title>
<g id="a_node2"><a xlink:href="../../d1/dc7/classview_1_1_side_bar.html#aa92fe508daefb3ce28e76bf9e0314409" target="_top" xlink:title="view.SideBar.createVariable\lColumns">
<polygon fill="white" stroke="black" points="158,-0 158,-30 306,-30 306,-0 158,-0"/>
<text text-anchor="start" x="166" y="-18" font-family="Helvetica,sans-Serif" font-size="10.00">view.SideBar.createVariable</text>
<text text-anchor="middle" x="232" y="-7" font-family="Helvetica,sans-Serif" font-size="10.00">Columns</text>
</a>
</g>
</g>
<!-- Node1&#45;&gt;Node2 -->
<g id="edge1" class="edge"><title>Node1&#45;&gt;Node2</title>
<path fill="none" stroke="midnightblue" d="M132.241,-15C140.687,-15 149.328,-15 157.815,-15"/>
<polygon fill="midnightblue" stroke="midnightblue" points="132.059,-11.5001 122.059,-15 132.059,-18.5001 132.059,-11.5001"/>
</g>
<!-- Node3 -->
<g id="node3" class="node"><title>Node3</title>
<g id="a_node3"><a xlink:href="../../d1/dc7/classview_1_1_side_bar.html#a4d3c67d26a035d35d92c0234f89f6796" target="_top" xlink:title="view.SideBar.createVariablesPane">
<polygon fill="white" stroke="black" points="342,-5.5 342,-24.5 518,-24.5 518,-5.5 342,-5.5"/>
<text text-anchor="middle" x="430" y="-12.5" font-family="Helvetica,sans-Serif" font-size="10.00">view.SideBar.createVariablesPane</text>
</a>
</g>
</g>
<!-- Node2&#45;&gt;Node3 -->
<g id="edge2" class="edge"><title>Node2&#45;&gt;Node3</title>
<path fill="none" stroke="midnightblue" d="M316.459,-15C324.892,-15 333.472,-15 341.942,-15"/>
<polygon fill="midnightblue" stroke="midnightblue" points="316.262,-11.5001 306.262,-15 316.262,-18.5001 316.262,-11.5001"/>
</g>
<!-- Node4 -->
<g id="node4" class="node"><title>Node4</title>
<g id="a_node4"><a xlink:href="../../d1/dc7/classview_1_1_side_bar.html#aaa1459e91d727b5bd46e51f5b4a596f2" target="_top" xlink:title="view.SideBar.SideBar">
<polygon fill="white" stroke="black" points="554,-5.5 554,-24.5 670,-24.5 670,-5.5 554,-5.5"/>
<text text-anchor="middle" x="612" y="-12.5" font-family="Helvetica,sans-Serif" font-size="10.00">view.SideBar.SideBar</text>
</a>
</g>
</g>
<!-- Node3&#45;&gt;Node4 -->
<g id="edge3" class="edge"><title>Node3&#45;&gt;Node4</title>
<path fill="none" stroke="midnightblue" d="M528.319,-15C537.005,-15 545.599,-15 553.775,-15"/>
<polygon fill="midnightblue" stroke="midnightblue" points="528.1,-11.5001 518.1,-15 528.1,-18.5001 528.1,-11.5001"/>
</g>
</g>
</svg>
