<?xml version="1.0" encoding="UTF-8" standalone="no"?>
<!DOCTYPE svg PUBLIC "-//W3C//DTD SVG 1.1//EN"
 "http://www.w3.org/Graphics/SVG/1.1/DTD/svg11.dtd">
<!-- Generated by graphviz version 2.36.0 (20140111.2315)
 -->
<!-- Title: view.Property.getValue Pages: 1 -->
<svg width="526pt" height="66pt"
 viewBox="0.00 0.00 526.00 66.00" xmlns="http://www.w3.org/2000/svg" xmlns:xlink="http://www.w3.org/1999/xlink">
<g id="graph0" class="graph" transform="scale(1 1) rotate(0) translate(4 62)">
<title>view.Property.getValue</title>
<polygon fill="white" stroke="none" points="-4,4 -4,-62 522,-62 522,4 -4,4"/>
<!-- Node1 -->
<g id="node1" class="node"><title>Node1</title>
<polygon fill="#bfbfbf" stroke="black" points="0.5,-19.5 0.5,-38.5 123.5,-38.5 123.5,-19.5 0.5,-19.5"/>
<text text-anchor="middle" x="62" y="-26.5" font-family="Helvetica,sans-Serif" font-size="10.00">view.Property.getValue</text>
</g>
<!-- Node2 -->
<g id="node2" class="node"><title>Node2</title>
<g id="a_node2"><a xlink:href="../../d1/dc7/classview_1_1_side_bar.html#a9ee7c3d1f9e3f461361703420eb09b26" target="_top" xlink:title="view.SideBar.updateVariable">
<polygon fill="white" stroke="black" points="160.5,-19.5 160.5,-38.5 311.5,-38.5 311.5,-19.5 160.5,-19.5"/>
<text text-anchor="middle" x="236" y="-26.5" font-family="Helvetica,sans-Serif" font-size="10.00">view.SideBar.updateVariable</text>
</a>
</g>
</g>
<!-- Node1&#45;&gt;Node2 -->
<g id="edge1" class="edge"><title>Node1&#45;&gt;Node2</title>
<path fill="none" stroke="midnightblue" d="M133.824,-29C142.604,-29 151.601,-29 160.435,-29"/>
<polygon fill="midnightblue" stroke="midnightblue" points="133.641,-25.5001 123.641,-29 133.641,-32.5001 133.641,-25.5001"/>
</g>
<!-- Node3 -->
<g id="node3" class="node"><title>Node3</title>
<g id="a_node3"><a xlink:href="../../d6/de7/classview_1_1_s_logo_view.html#aba44200de8094d8957a326b999b1168a" target="_top" xlink:title="view.SLogoView.updateVariables">
<polygon fill="white" stroke="black" points="348,-38.5 348,-57.5 518,-57.5 518,-38.5 348,-38.5"/>
<text text-anchor="middle" x="433" y="-45.5" font-family="Helvetica,sans-Serif" font-size="10.00">view.SLogoView.updateVariables</text>
</a>
</g>
</g>
<!-- Node2&#45;&gt;Node3 -->
<g id="edge2" class="edge"><title>Node2&#45;&gt;Node3</title>
<path fill="none" stroke="midnightblue" d="M321.631,-37.2461C330.282,-38.0891 339.071,-38.9454 347.718,-39.7879"/>
<polygon fill="midnightblue" stroke="midnightblue" points="321.848,-33.7508 311.556,-36.2644 321.169,-40.7178 321.848,-33.7508"/>
</g>
<!-- Node4 -->
<g id="node4" class="node"><title>Node4</title>
<g id="a_node4"><a xlink:href="../../d4/d64/classview_1_1_view_updater.html#aa4cfbf2ecad29abda8cd3aaff891539a" target="_top" xlink:title="view.ViewUpdater.update">
<polygon fill="white" stroke="black" points="365,-0.5 365,-19.5 501,-19.5 501,-0.5 365,-0.5"/>
<text text-anchor="middle" x="433" y="-7.5" font-family="Helvetica,sans-Serif" font-size="10.00">view.ViewUpdater.update</text>
</a>
</g>
</g>
<!-- Node2&#45;&gt;Node4 -->
<g id="edge3" class="edge"><title>Node2&#45;&gt;Node4</title>
<path fill="none" stroke="midnightblue" d="M321.926,-20.7251C336.284,-19.3262 351.01,-17.8913 364.834,-16.5444"/>
<polygon fill="midnightblue" stroke="midnightblue" points="321.169,-17.2822 311.556,-21.7356 321.848,-24.2492 321.169,-17.2822"/>
</g>
</g>
</svg>
