<?xml version="1.0" encoding="UTF-8" standalone="no"?>
<!DOCTYPE svg PUBLIC "-//W3C//DTD SVG 1.1//EN"
 "http://www.w3.org/Graphics/SVG/1.1/DTD/svg11.dtd">
<!-- Generated by graphviz version 2.36.0 (20140111.2315)
 -->
<!-- Title: view.Property.getName Pages: 1 -->
<svg width="704pt" height="96pt"
 viewBox="0.00 0.00 704.00 96.00" xmlns="http://www.w3.org/2000/svg" xmlns:xlink="http://www.w3.org/1999/xlink">
<g id="graph0" class="graph" transform="scale(1 1) rotate(0) translate(4 92)">
<title>view.Property.getName</title>
<polygon fill="white" stroke="none" points="-4,4 -4,-92 700,-92 700,4 -4,4"/>
<!-- Node1 -->
<g id="node1" class="node"><title>Node1</title>
<polygon fill="#bfbfbf" stroke="black" points="0,-41.5 0,-60.5 126,-60.5 126,-41.5 0,-41.5"/>
<text text-anchor="middle" x="63" y="-48.5" font-family="Helvetica,sans-Serif" font-size="10.00">view.Property.getName</text>
</g>
<!-- Node2 -->
<g id="node2" class="node"><title>Node2</title>
<g id="a_node2"><a xlink:href="../../d9/dd3/classview_1_1_variables_view.html#a77a0efc0b8fdb1f12526b9146ce58473" target="_top" xlink:title="view.VariablesView.create\lColumns">
<polygon fill="white" stroke="black" points="163.5,-58 163.5,-88 300.5,-88 300.5,-58 163.5,-58"/>
<text text-anchor="start" x="171.5" y="-76" font-family="Helvetica,sans-Serif" font-size="10.00">view.VariablesView.create</text>
<text text-anchor="middle" x="232" y="-65" font-family="Helvetica,sans-Serif" font-size="10.00">Columns</text>
</a>
</g>
</g>
<!-- Node1&#45;&gt;Node2 -->
<g id="edge1" class="edge"><title>Node1&#45;&gt;Node2</title>
<path fill="none" stroke="midnightblue" d="M136.272,-60.5208C145.293,-61.7093 154.493,-62.9213 163.44,-64.0998"/>
<polygon fill="midnightblue" stroke="midnightblue" points="136.556,-57.0281 126.185,-59.192 135.642,-63.9682 136.556,-57.0281"/>
</g>
<!-- Node3 -->
<g id="node3" class="node"><title>Node3</title>
<g id="a_node3"><a xlink:href="../../d9/dd3/classview_1_1_variables_view.html#aebedf2b729065ddab04f33f4e217d785" target="_top" xlink:title="view.VariablesView.update">
<polygon fill="white" stroke="black" points="162,-19.5 162,-38.5 302,-38.5 302,-19.5 162,-19.5"/>
<text text-anchor="middle" x="232" y="-26.5" font-family="Helvetica,sans-Serif" font-size="10.00">view.VariablesView.update</text>
</a>
</g>
</g>
<!-- Node1&#45;&gt;Node3 -->
<g id="edge2" class="edge"><title>Node1&#45;&gt;Node3</title>
<path fill="none" stroke="midnightblue" d="M136.361,-41.4675C144.785,-40.3577 153.364,-39.2276 161.745,-38.1234"/>
<polygon fill="midnightblue" stroke="midnightblue" points="135.642,-38.0318 126.185,-42.808 136.556,-44.9719 135.642,-38.0318"/>
</g>
<!-- Node4 -->
<g id="node4" class="node"><title>Node4</title>
<g id="a_node4"><a xlink:href="../../d1/dc7/classview_1_1_side_bar.html#a9ee7c3d1f9e3f461361703420eb09b26" target="_top" xlink:title="view.SideBar.updateVariable">
<polygon fill="white" stroke="black" points="338.5,-19.5 338.5,-38.5 489.5,-38.5 489.5,-19.5 338.5,-19.5"/>
<text text-anchor="middle" x="414" y="-26.5" font-family="Helvetica,sans-Serif" font-size="10.00">view.SideBar.updateVariable</text>
</a>
</g>
</g>
<!-- Node3&#45;&gt;Node4 -->
<g id="edge3" class="edge"><title>Node3&#45;&gt;Node4</title>
<path fill="none" stroke="midnightblue" d="M312.219,-29C320.928,-29 329.773,-29 338.423,-29"/>
<polygon fill="midnightblue" stroke="midnightblue" points="312.078,-25.5001 302.078,-29 312.078,-32.5001 312.078,-25.5001"/>
</g>
<!-- Node5 -->
<g id="node5" class="node"><title>Node5</title>
<g id="a_node5"><a xlink:href="../../d6/de7/classview_1_1_s_logo_view.html#aba44200de8094d8957a326b999b1168a" target="_top" xlink:title="view.SLogoView.updateVariables">
<polygon fill="white" stroke="black" points="526,-38.5 526,-57.5 696,-57.5 696,-38.5 526,-38.5"/>
<text text-anchor="middle" x="611" y="-45.5" font-family="Helvetica,sans-Serif" font-size="10.00">view.SLogoView.updateVariables</text>
</a>
</g>
</g>
<!-- Node4&#45;&gt;Node5 -->
<g id="edge4" class="edge"><title>Node4&#45;&gt;Node5</title>
<path fill="none" stroke="midnightblue" d="M499.631,-37.2461C508.282,-38.0891 517.071,-38.9454 525.718,-39.7879"/>
<polygon fill="midnightblue" stroke="midnightblue" points="499.848,-33.7508 489.556,-36.2644 499.169,-40.7178 499.848,-33.7508"/>
</g>
<!-- Node6 -->
<g id="node6" class="node"><title>Node6</title>
<g id="a_node6"><a xlink:href="../../d4/d64/classview_1_1_view_updater.html#aa4cfbf2ecad29abda8cd3aaff891539a" target="_top" xlink:title="view.ViewUpdater.update">
<polygon fill="white" stroke="black" points="543,-0.5 543,-19.5 679,-19.5 679,-0.5 543,-0.5"/>
<text text-anchor="middle" x="611" y="-7.5" font-family="Helvetica,sans-Serif" font-size="10.00">view.ViewUpdater.update</text>
</a>
</g>
</g>
<!-- Node4&#45;&gt;Node6 -->
<g id="edge5" class="edge"><title>Node4&#45;&gt;Node6</title>
<path fill="none" stroke="midnightblue" d="M499.926,-20.7251C514.284,-19.3262 529.01,-17.8913 542.834,-16.5444"/>
<polygon fill="midnightblue" stroke="midnightblue" points="499.169,-17.2822 489.556,-21.7356 499.848,-24.2492 499.169,-17.2822"/>
</g>
</g>
</svg>
