<?xml version="1.0" encoding="UTF-8" standalone="no"?>
<!DOCTYPE svg PUBLIC "-//W3C//DTD SVG 1.1//EN"
 "http://www.w3.org/Graphics/SVG/1.1/DTD/svg11.dtd">
<!-- Generated by graphviz version 2.36.0 (20140111.2315)
 -->
<!-- Title: view.Property.getName Pages: 1 -->
<svg width="686pt" height="112pt"
 viewBox="0.00 0.00 686.00 112.00" xmlns="http://www.w3.org/2000/svg" xmlns:xlink="http://www.w3.org/1999/xlink">
<g id="graph0" class="graph" transform="scale(1 1) rotate(0) translate(4 108)">
<title>view.Property.getName</title>
<polygon fill="white" stroke="none" points="-4,4 -4,-108 682,-108 682,4 -4,4"/>
<!-- Node1 -->
<g id="node1" class="node"><title>Node1</title>
<polygon fill="#bfbfbf" stroke="black" points="0,-57.5 0,-76.5 126,-76.5 126,-57.5 0,-57.5"/>
<text text-anchor="middle" x="63" y="-64.5" font-family="Helvetica,sans-Serif" font-size="10.00">view.Property.getName</text>
</g>
<!-- Node2 -->
<g id="node2" class="node"><title>Node2</title>
<g id="a_node2"><a xlink:href="../../d1/dc7/classview_1_1_side_bar.html#aa92fe508daefb3ce28e76bf9e0314409" target="_top" xlink:title="view.SideBar.createVariable\lColumns">
<polygon fill="white" stroke="black" points="164,-74 164,-104 312,-104 312,-74 164,-74"/>
<text text-anchor="start" x="172" y="-92" font-family="Helvetica,sans-Serif" font-size="10.00">view.SideBar.createVariable</text>
<text text-anchor="middle" x="238" y="-81" font-family="Helvetica,sans-Serif" font-size="10.00">Columns</text>
</a>
</g>
</g>
<!-- Node1&#45;&gt;Node2 -->
<g id="edge1" class="edge"><title>Node1&#45;&gt;Node2</title>
<path fill="none" stroke="midnightblue" d="M136.513,-76.2212C145.516,-77.3662 154.727,-78.5376 163.742,-79.684"/>
<polygon fill="midnightblue" stroke="midnightblue" points="136.819,-72.7321 126.457,-74.9425 135.936,-79.6761 136.819,-72.7321"/>
</g>
<!-- Node5 -->
<g id="node5" class="node"><title>Node5</title>
<g id="a_node5"><a xlink:href="../../d1/dc7/classview_1_1_side_bar.html#a9ee7c3d1f9e3f461361703420eb09b26" target="_top" xlink:title="view.SideBar.updateVariable">
<polygon fill="white" stroke="black" points="162.5,-35.5 162.5,-54.5 313.5,-54.5 313.5,-35.5 162.5,-35.5"/>
<text text-anchor="middle" x="238" y="-42.5" font-family="Helvetica,sans-Serif" font-size="10.00">view.SideBar.updateVariable</text>
</a>
</g>
</g>
<!-- Node1&#45;&gt;Node5 -->
<g id="edge4" class="edge"><title>Node1&#45;&gt;Node5</title>
<path fill="none" stroke="midnightblue" d="M136.385,-57.795C144.933,-56.7079 153.671,-55.5967 162.252,-54.5056"/>
<polygon fill="midnightblue" stroke="midnightblue" points="135.936,-54.3239 126.457,-59.0575 136.819,-61.2679 135.936,-54.3239"/>
</g>
<!-- Node3 -->
<g id="node3" class="node"><title>Node3</title>
<g id="a_node3"><a xlink:href="../../d1/dc7/classview_1_1_side_bar.html#a4d3c67d26a035d35d92c0234f89f6796" target="_top" xlink:title="view.SideBar.createVariablesPane">
<polygon fill="white" stroke="black" points="350,-79.5 350,-98.5 526,-98.5 526,-79.5 350,-79.5"/>
<text text-anchor="middle" x="438" y="-86.5" font-family="Helvetica,sans-Serif" font-size="10.00">view.SideBar.createVariablesPane</text>
</a>
</g>
</g>
<!-- Node2&#45;&gt;Node3 -->
<g id="edge2" class="edge"><title>Node2&#45;&gt;Node3</title>
<path fill="none" stroke="midnightblue" d="M322.306,-89C331.371,-89 340.615,-89 349.725,-89"/>
<polygon fill="midnightblue" stroke="midnightblue" points="322.165,-85.5001 312.165,-89 322.165,-92.5001 322.165,-85.5001"/>
</g>
<!-- Node4 -->
<g id="node4" class="node"><title>Node4</title>
<g id="a_node4"><a xlink:href="../../d1/dc7/classview_1_1_side_bar.html#aaa1459e91d727b5bd46e51f5b4a596f2" target="_top" xlink:title="view.SideBar.SideBar">
<polygon fill="white" stroke="black" points="562,-79.5 562,-98.5 678,-98.5 678,-79.5 562,-79.5"/>
<text text-anchor="middle" x="620" y="-86.5" font-family="Helvetica,sans-Serif" font-size="10.00">view.SideBar.SideBar</text>
</a>
</g>
</g>
<!-- Node3&#45;&gt;Node4 -->
<g id="edge3" class="edge"><title>Node3&#45;&gt;Node4</title>
<path fill="none" stroke="midnightblue" d="M536.319,-89C545.005,-89 553.599,-89 561.775,-89"/>
<polygon fill="midnightblue" stroke="midnightblue" points="536.1,-85.5001 526.1,-89 536.1,-92.5001 536.1,-85.5001"/>
</g>
<!-- Node6 -->
<g id="node6" class="node"><title>Node6</title>
<g id="a_node6"><a xlink:href="../../d6/de7/classview_1_1_s_logo_view.html#aba44200de8094d8957a326b999b1168a" target="_top" xlink:title="view.SLogoView.updateVariables">
<polygon fill="white" stroke="black" points="353,-38.5 353,-57.5 523,-57.5 523,-38.5 353,-38.5"/>
<text text-anchor="middle" x="438" y="-45.5" font-family="Helvetica,sans-Serif" font-size="10.00">view.SLogoView.updateVariables</text>
</a>
</g>
</g>
<!-- Node5&#45;&gt;Node6 -->
<g id="edge5" class="edge"><title>Node5&#45;&gt;Node6</title>
<path fill="none" stroke="midnightblue" d="M323.593,-46.2817C333.29,-46.4286 343.174,-46.5784 352.865,-46.7252"/>
<polygon fill="midnightblue" stroke="midnightblue" points="323.625,-42.7819 313.573,-46.1299 323.519,-49.7811 323.625,-42.7819"/>
</g>
<!-- Node7 -->
<g id="node7" class="node"><title>Node7</title>
<g id="a_node7"><a xlink:href="../../d4/d64/classview_1_1_view_updater.html#aa4cfbf2ecad29abda8cd3aaff891539a" target="_top" xlink:title="view.ViewUpdater.update">
<polygon fill="white" stroke="black" points="370,-0.5 370,-19.5 506,-19.5 506,-0.5 370,-0.5"/>
<text text-anchor="middle" x="438" y="-7.5" font-family="Helvetica,sans-Serif" font-size="10.00">view.ViewUpdater.update</text>
</a>
</g>
</g>
<!-- Node5&#45;&gt;Node7 -->
<g id="edge6" class="edge"><title>Node5&#45;&gt;Node7</title>
<path fill="none" stroke="midnightblue" d="M302.94,-33.6974C328.833,-29.1204 358.401,-23.8938 383.168,-19.5158"/>
<polygon fill="midnightblue" stroke="midnightblue" points="302.081,-30.295 292.843,-35.4823 303.299,-37.1881 302.081,-30.295"/>
</g>
</g>
</svg>
