<?xml version="1.0" encoding="UTF-8" standalone="no"?>
<!DOCTYPE svg PUBLIC "-//W3C//DTD SVG 1.1//EN"
 "http://www.w3.org/Graphics/SVG/1.1/DTD/svg11.dtd">
<!-- Generated by graphviz version 2.36.0 (20140111.2315)
 -->
<!-- Title: model.instructions.Constant Pages: 1 -->
<!--zoomable 859 -->
<svg id="main" version="1.1" xmlns="http://www.w3.org/2000/svg" xmlns:xlink="http://www.w3.org/1999/xlink" xml:space="preserve" onload="init(evt)">
<style type="text/css"><![CDATA[
.edge:hover path { stroke: red; }
.edge:hover polygon { stroke: red; fill: red; }
]]></style>
<script type="text/javascript"><![CDATA[
var edges = document.getElementsByTagName('g');
if (edges && edges.length) {
  for (var i=0;i<edges.length;i++) {
    if (edges[i].id.substr(0,4)=='edge') {
      edges[i].setAttribute('class','edge');
    }
  }
}
]]></script>
        <defs>
                <circle id="rim" cx="0" cy="0" r="7"/>
                <circle id="rim2" cx="0" cy="0" r="3.5"/>
                <g id="zoomPlus">
                        <use xlink:href="#rim" fill="#404040">
                                <set attributeName="fill" to="#808080" begin="zoomplus.mouseover" end="zoomplus.mouseout"/>
                        </use>
                        <path d="M-4,0h8M0,-4v8" fill="none" stroke="white" stroke-width="1.5" pointer-events="none"/>
                </g>
                <g id="zoomMin">
                        <use xlink:href="#rim" fill="#404040">
                                <set attributeName="fill" to="#808080" begin="zoomminus.mouseover" end="zoomminus.mouseout"/>
                        </use>
                        <path d="M-4,0h8" fill="none" stroke="white" stroke-width="1.5" pointer-events="none"/>
                </g>
                <g id="dirArrow">
                        <path fill="none" stroke="white" stroke-width="1.5" d="M0,-3.0v7 M-2.5,-0.5L0,-3.0L2.5,-0.5"/>
                </g>
               <g id="resetDef">
                       <use xlink:href="#rim2" fill="#404040">
                               <set attributeName="fill" to="#808080" begin="reset.mouseover" end="reset.mouseout"/>
                       </use>
               </g>
        </defs>

<script type="text/javascript">
var viewWidth = 1762;
var viewHeight = 859;
var sectionId = 'dynsection-1';
</script>
<script xlink:href="../../svgpan.js"/>
<svg id="graph" class="graph">
<g id="viewport">
<title>model.instructions.Constant</title>
<polygon fill="white" stroke="none" points="-4,4 -4,-855.201 1758,-855.201 1758,4 -4,4"/>
<!-- Node1 -->
<g id="node1" class="node"><title>Node1</title>
<polygon fill="#bfbfbf" stroke="black" points="966,-707.701 966,-726.701 1118,-726.701 1118,-707.701 966,-707.701"/>
<text text-anchor="middle" x="1042" y="-714.701" font-family="Helvetica,sans-Serif" font-size="10.00">model.instructions.Constant</text>
</g>
<!-- Node2 -->
<g id="node2" class="node"><title>Node2</title>
<g id="a_node2"><a xlink:href="../../d1/dea/classmodel_1_1instructions_1_1_instruction.html" target="_top" xlink:title="model.instructions.Instruction">
<polygon fill="white" stroke="black" points="646,-707.701 646,-726.701 804,-726.701 804,-707.701 646,-707.701"/>
<text text-anchor="middle" x="725" y="-714.701" font-family="Helvetica,sans-Serif" font-size="10.00">model.instructions.Instruction</text>
</a>
</g>
</g>
<!-- Node2&#45;&gt;Node1 -->
<g id="edge1" class="edge"><title>Node2&#45;&gt;Node1</title>
<path fill="none" stroke="midnightblue" d="M814.285,-717.201C862.008,-717.201 920.315,-717.201 965.848,-717.201"/>
<polygon fill="midnightblue" stroke="midnightblue" points="814.27,-713.701 804.27,-717.201 814.27,-720.701 814.27,-713.701"/>
</g>
<!-- Node3 -->
<g id="node3" class="node"><title>Node3</title>
<polygon fill="white" stroke="#bfbfbf" points="57,-491.701 57,-510.701 117,-510.701 117,-491.701 57,-491.701"/>
<text text-anchor="middle" x="87" y="-498.701" font-family="Helvetica,sans-Serif" font-size="10.00">Observer</text>
</g>
<!-- Node3&#45;&gt;Node2 -->
<g id="edge2" class="edge"><title>Node3&#45;&gt;Node2</title>
<path fill="none" stroke="midnightblue" d="M112.161,-516.069C153.662,-541.032 241.78,-591.542 322,-621.201 440.114,-664.87 585.213,-693.782 664.787,-707.647"/>
<polygon fill="midnightblue" stroke="midnightblue" points="113.935,-513.052 103.569,-510.864 110.308,-519.039 113.935,-513.052"/>
</g>
<!-- Node9 -->
<g id="node9" class="node"><title>Node9</title>
<g id="a_node9"><a xlink:href="../../d4/d64/classview_1_1_view_updater.html" target="_top" xlink:title="view.ViewUpdater">
<polygon fill="white" stroke="black" points="351,-443.701 351,-462.701 451,-462.701 451,-443.701 351,-443.701"/>
<text text-anchor="middle" x="401" y="-450.701" font-family="Helvetica,sans-Serif" font-size="10.00">view.ViewUpdater</text>
</a>
</g>
</g>
<!-- Node3&#45;&gt;Node9 -->
<g id="edge9" class="edge"><title>Node3&#45;&gt;Node9</title>
<path fill="none" stroke="midnightblue" d="M127.079,-495.189C183.8,-486.463 288.905,-470.293 350.82,-460.767"/>
<polygon fill="midnightblue" stroke="midnightblue" points="126.424,-491.748 117.072,-496.728 127.488,-498.667 126.424,-491.748"/>
</g>
<!-- Node21 -->
<g id="node21" class="node"><title>Node21</title>
<g id="a_node21"><a xlink:href="../../dc/df5/classmodel_1_1_parser.html" target="_top" xlink:title="model.Parser">
<polygon fill="white" stroke="black" points="685,-581.701 685,-600.701 765,-600.701 765,-581.701 685,-581.701"/>
<text text-anchor="middle" x="725" y="-588.701" font-family="Helvetica,sans-Serif" font-size="10.00">model.Parser</text>
</a>
</g>
</g>
<!-- Node3&#45;&gt;Node21 -->
<g id="edge25" class="edge"><title>Node3&#45;&gt;Node21</title>
<path fill="none" stroke="midnightblue" d="M127.209,-499.452C234.48,-495.196 530.729,-487.132 620,-523.201 629.924,-527.211 629.384,-532.85 638,-539.201 660.33,-555.662 688.097,-571.735 705.934,-581.552"/>
<polygon fill="midnightblue" stroke="midnightblue" points="126.985,-495.958 117.136,-499.863 127.271,-502.952 126.985,-495.958"/>
</g>
<!-- Node4 -->
<g id="node4" class="node"><title>Node4</title>
<g id="a_node4"><a xlink:href="../../d1/dca/classmodel_1_1_execution_environment.html" target="_top" xlink:title="model.ExecutionEnvironment">
<polygon fill="white" stroke="black" points="322.5,-727.701 322.5,-746.701 479.5,-746.701 479.5,-727.701 322.5,-727.701"/>
<text text-anchor="middle" x="401" y="-734.701" font-family="Helvetica,sans-Serif" font-size="10.00">model.ExecutionEnvironment</text>
</a>
</g>
</g>
<!-- Node4&#45;&gt;Node2 -->
<g id="edge3" class="edge"><title>Node4&#45;&gt;Node2</title>
<path fill="none" stroke="#9a32cd" stroke-dasharray="5,2" d="M489.727,-730.749C492.516,-730.562 495.28,-730.378 498,-730.201 547.12,-726.998 602.274,-723.817 645.799,-721.404"/>
<polygon fill="#9a32cd" stroke="#9a32cd" points="489.276,-727.272 479.538,-731.445 489.753,-734.255 489.276,-727.272"/>
<text text-anchor="middle" x="559" y="-733.201" font-family="Helvetica,sans-Serif" font-size="10.00"> myEnvironment</text>
</g>
<!-- Node17 -->
<g id="node17" class="node"><title>Node17</title>
<g id="a_node17"><a xlink:href="../../d1/dc7/classview_1_1_side_bar.html" target="_top" xlink:title="view.SideBar">
<polygon fill="white" stroke="black" points="1003.5,-432.701 1003.5,-451.701 1080.5,-451.701 1080.5,-432.701 1003.5,-432.701"/>
<text text-anchor="middle" x="1042" y="-439.701" font-family="Helvetica,sans-Serif" font-size="10.00">view.SideBar</text>
</a>
</g>
</g>
<!-- Node4&#45;&gt;Node17 -->
<g id="edge22" class="edge"><title>Node4&#45;&gt;Node17</title>
<path fill="none" stroke="#9a32cd" stroke-dasharray="5,2" d="M454.999,-725.435C585.527,-695.992 914.377,-618.804 948,-581.201 980.144,-545.252 936.164,-512.087 966,-474.201 975.284,-462.412 989.738,-454.899 1003.49,-450.143"/>
<polygon fill="#9a32cd" stroke="#9a32cd" points="454.198,-722.028 445.21,-727.638 455.734,-728.857 454.198,-722.028"/>
<text text-anchor="middle" x="725" y="-685.201" font-family="Helvetica,sans-Serif" font-size="10.00"> myEnvironment</text>
</g>
<!-- Node4&#45;&gt;Node21 -->
<g id="edge27" class="edge"><title>Node4&#45;&gt;Node21</title>
<path fill="none" stroke="#9a32cd" stroke-dasharray="5,2" d="M413.897,-719.138C430.049,-696.178 461.167,-657.135 498,-637.201 546.526,-610.938 565.944,-625.271 620,-614.201 641.377,-609.823 665.143,-604.595 684.554,-600.23"/>
<polygon fill="#9a32cd" stroke="#9a32cd" points="410.852,-717.39 408.097,-727.62 416.63,-721.341 410.852,-717.39"/>
<text text-anchor="middle" x="559" y="-640.201" font-family="Helvetica,sans-Serif" font-size="10.00"> myExecutionParameters</text>
</g>
<!-- Node24 -->
<g id="node24" class="node"><title>Node24</title>
<g id="a_node24"><a xlink:href="../../d6/de7/classview_1_1_s_logo_view.html" target="_top" xlink:title="view.SLogoView">
<polygon fill="white" stroke="black" points="1662.5,-257.701 1662.5,-276.701 1753.5,-276.701 1753.5,-257.701 1662.5,-257.701"/>
<text text-anchor="middle" x="1708" y="-264.701" font-family="Helvetica,sans-Serif" font-size="10.00">view.SLogoView</text>
</a>
</g>
</g>
<!-- Node4&#45;&gt;Node24 -->
<g id="edge41" class="edge"><title>Node4&#45;&gt;Node24</title>
<path fill="none" stroke="#9a32cd" stroke-dasharray="5,2" d="M489.843,-744.765C554.537,-749.688 644.678,-755.201 724,-755.201 724,-755.201 724,-755.201 1491,-755.201 1567.13,-755.201 1599.25,-739.788 1644,-678.201 1692.8,-611.04 1704.76,-332.804 1706.69,-276.98"/>
<polygon fill="#9a32cd" stroke="#9a32cd" points="489.924,-741.261 479.684,-743.98 489.385,-748.24 489.924,-741.261"/>
<text text-anchor="middle" x="1176" y="-758.201" font-family="Helvetica,sans-Serif" font-size="10.00"> myEnvironment</text>
</g>
<!-- Node5 -->
<g id="node5" class="node"><title>Node5</title>
<polygon fill="white" stroke="#bfbfbf" points="51.5,-697.701 51.5,-716.701 122.5,-716.701 122.5,-697.701 51.5,-697.701"/>
<text text-anchor="middle" x="87" y="-704.701" font-family="Helvetica,sans-Serif" font-size="10.00">Observable</text>
</g>
<!-- Node5&#45;&gt;Node4 -->
<g id="edge4" class="edge"><title>Node5&#45;&gt;Node4</title>
<path fill="none" stroke="midnightblue" d="M132.637,-711.493C182.066,-716.246 262.658,-723.995 322.457,-729.745"/>
<polygon fill="midnightblue" stroke="midnightblue" points="132.871,-707.999 122.582,-710.526 132.201,-714.967 132.871,-707.999"/>
</g>
<!-- Node6 -->
<g id="node6" class="node"><title>Node6</title>
<polygon fill="white" stroke="#bfbfbf" points="42.5,-823.701 42.5,-842.701 131.5,-842.701 131.5,-823.701 42.5,-823.701"/>
<text text-anchor="middle" x="87" y="-830.701" font-family="Helvetica,sans-Serif" font-size="10.00">Set&lt; Integer &gt;</text>
</g>
<!-- Node6&#45;&gt;Node4 -->
<g id="edge5" class="edge"><title>Node6&#45;&gt;Node4</title>
<path fill="none" stroke="#9a32cd" stroke-dasharray="5,2" d="M141.753,-834.186C188.385,-832.535 255.788,-823.885 304,-791.201 316.245,-782.9 310.318,-772.279 322,-763.201 331.355,-755.931 342.843,-750.643 354.098,-746.814"/>
<polygon fill="#9a32cd" stroke="#9a32cd" points="141.453,-830.693 131.546,-834.448 141.633,-837.69 141.453,-830.693"/>
<text text-anchor="middle" x="248" y="-843.201" font-family="Helvetica,sans-Serif" font-size="10.00"> myTurtleList</text>
<text text-anchor="middle" x="248" y="-832.201" font-family="Helvetica,sans-Serif" font-size="10.00">activeTurtleList</text>
</g>
<!-- Node7 -->
<g id="node7" class="node"><title>Node7</title>
<polygon fill="white" stroke="#bfbfbf" points="0,-774.201 0,-804.201 174,-804.201 174,-774.201 0,-774.201"/>
<text text-anchor="start" x="8" y="-792.201" font-family="Helvetica,sans-Serif" font-size="10.00">Map&lt; String, model.instructions.</text>
<text text-anchor="middle" x="87" y="-781.201" font-family="Helvetica,sans-Serif" font-size="10.00">Instruction &gt;</text>
</g>
<!-- Node7&#45;&gt;Node4 -->
<g id="edge6" class="edge"><title>Node7&#45;&gt;Node4</title>
<path fill="none" stroke="#9a32cd" stroke-dasharray="5,2" d="M184.071,-776.94C221.587,-771.754 264.902,-765.273 304,-758.201 322.299,-754.891 342.419,-750.593 359.492,-746.747"/>
<polygon fill="#9a32cd" stroke="#9a32cd" points="183.592,-773.473 174.16,-778.299 184.543,-780.408 183.592,-773.473"/>
<text text-anchor="middle" x="248" y="-779.201" font-family="Helvetica,sans-Serif" font-size="10.00"> myUserInstructionMap</text>
</g>
<!-- Node8 -->
<g id="node8" class="node"><title>Node8</title>
<polygon fill="white" stroke="#bfbfbf" points="23,-735.701 23,-754.701 151,-754.701 151,-735.701 23,-735.701"/>
<text text-anchor="middle" x="87" y="-742.701" font-family="Helvetica,sans-Serif" font-size="10.00">Map&lt; String, Double &gt;</text>
</g>
<!-- Node8&#45;&gt;Node4 -->
<g id="edge7" class="edge"><title>Node8&#45;&gt;Node4</title>
<path fill="none" stroke="#9a32cd" stroke-dasharray="5,2" d="M161.23,-743.323C209.637,-742.082 273.011,-740.457 322.303,-739.193"/>
<polygon fill="#9a32cd" stroke="#9a32cd" points="161.045,-739.827 151.138,-743.582 161.224,-746.825 161.045,-739.827"/>
<text text-anchor="middle" x="248" y="-746.201" font-family="Helvetica,sans-Serif" font-size="10.00"> myVariableMap</text>
</g>
<!-- Node9&#45;&gt;Node2 -->
<g id="edge8" class="edge"><title>Node9&#45;&gt;Node2</title>
<path fill="none" stroke="#9a32cd" stroke-dasharray="5,2" d="M423.006,-468.833C439.491,-481.646 462.499,-500.775 480,-520.201 489.407,-530.643 486.549,-538.052 498,-546.201 543.86,-578.839 581.424,-539.21 620,-580.201 646.166,-608.006 615.978,-633.011 638,-664.201 652.668,-684.975 678.31,-699.219 697.789,-707.666"/>
<polygon fill="#9a32cd" stroke="#9a32cd" points="425.113,-466.037 415.044,-462.74 420.859,-471.596 425.113,-466.037"/>
<text text-anchor="middle" x="559" y="-583.201" font-family="Helvetica,sans-Serif" font-size="10.00"> myViewUpdater</text>
</g>
<!-- Node9&#45;&gt;Node21 -->
<g id="edge28" class="edge"><title>Node9&#45;&gt;Node21</title>
<path fill="none" stroke="#9a32cd" stroke-dasharray="5,2" d="M461.326,-456.073C521.686,-459.527 608.036,-466.148 620,-476.201 642.295,-494.934 620.316,-516.065 638,-539.201 653.364,-559.301 678.913,-573.314 698.181,-581.687"/>
<polygon fill="#9a32cd" stroke="#9a32cd" points="461.31,-452.566 451.131,-455.505 460.92,-459.555 461.31,-452.566"/>
<text text-anchor="middle" x="559" y="-479.201" font-family="Helvetica,sans-Serif" font-size="10.00"> myViewUpdater</text>
</g>
<!-- Node10 -->
<g id="node10" class="node"><title>Node10</title>
<g id="a_node10"><a xlink:href="../../da/d64/classview_1_1_workspace.html" target="_top" xlink:title="view.Workspace">
<polygon fill="white" stroke="black" points="1234,-246.701 1234,-265.701 1324,-265.701 1324,-246.701 1234,-246.701"/>
<text text-anchor="middle" x="1279" y="-253.701" font-family="Helvetica,sans-Serif" font-size="10.00">view.Workspace</text>
</a>
</g>
</g>
<!-- Node10&#45;&gt;Node9 -->
<g id="edge10" class="edge"><title>Node10&#45;&gt;Node9</title>
<path fill="none" stroke="#9a32cd" stroke-dasharray="5,2" d="M1223.79,-260.827C1221.16,-260.972 1218.55,-261.098 1216,-261.201 1180.47,-262.631 1171.55,-261.724 1136,-261.201 1060.42,-260.09 1035.4,-286.151 966,-256.201 955.612,-251.718 958.453,-242.531 948,-238.201 899.548,-218.131 882.335,-234.808 830,-238.201 744.127,-243.768 717.138,-229.401 638,-263.201 533.998,-307.621 438.227,-411.444 410.218,-443.56"/>
<polygon fill="#9a32cd" stroke="#9a32cd" points="1224.23,-264.307 1234,-260.189 1223.8,-257.32 1224.23,-264.307"/>
<text text-anchor="middle" x="889" y="-241.201" font-family="Helvetica,sans-Serif" font-size="10.00"> myWorkspace</text>
</g>
<!-- Node10&#45;&gt;Node24 -->
<g id="edge31" class="edge"><title>Node10&#45;&gt;Node24</title>
<path fill="none" stroke="#9a32cd" stroke-dasharray="5,2" d="M1334.34,-257.601C1419.6,-259.797 1583.23,-264.012 1662.19,-266.047"/>
<polygon fill="#9a32cd" stroke="#9a32cd" points="1334.18,-254.096 1324.09,-257.337 1333.99,-261.093 1334.18,-254.096"/>
<text text-anchor="middle" x="1490" y="-266.201" font-family="Helvetica,sans-Serif" font-size="10.00"> myWorkspace</text>
</g>
<!-- Node32 -->
<g id="node32" class="node"><title>Node32</title>
<g id="a_node32"><a xlink:href="../../de/d0a/classview_1_1_drawer.html" target="_top" xlink:title="view.Drawer">
<polygon fill="white" stroke="black" points="1453.5,-204.701 1453.5,-223.701 1526.5,-223.701 1526.5,-204.701 1453.5,-204.701"/>
<text text-anchor="middle" x="1490" y="-211.701" font-family="Helvetica,sans-Serif" font-size="10.00">view.Drawer</text>
</a>
</g>
</g>
<!-- Node10&#45;&gt;Node32 -->
<g id="edge45" class="edge"><title>Node10&#45;&gt;Node32</title>
<path fill="none" stroke="#9a32cd" stroke-dasharray="5,2" d="M1331.08,-244.523C1334.77,-243.723 1338.44,-242.941 1342,-242.201 1379.9,-234.315 1423.48,-226.124 1453.29,-220.654"/>
<polygon fill="#9a32cd" stroke="#9a32cd" points="1330.33,-241.105 1321.31,-246.668 1331.83,-247.942 1330.33,-241.105"/>
<text text-anchor="middle" x="1377" y="-245.201" font-family="Helvetica,sans-Serif" font-size="10.00"> myWorkspace</text>
</g>
<!-- Node11 -->
<g id="node11" class="node"><title>Node11</title>
<polygon fill="white" stroke="#bfbfbf" points="1008.5,-139.701 1008.5,-158.701 1075.5,-158.701 1075.5,-139.701 1008.5,-139.701"/>
<text text-anchor="middle" x="1042" y="-146.701" font-family="Helvetica,sans-Serif" font-size="10.00">StackPane</text>
</g>
<!-- Node11&#45;&gt;Node10 -->
<g id="edge11" class="edge"><title>Node11&#45;&gt;Node10</title>
<path fill="none" stroke="midnightblue" d="M1085.53,-155.684C1122.63,-162.949 1176.55,-177.532 1216,-205.201 1226.06,-212.259 1224.84,-218.001 1234,-226.201 1242.54,-233.849 1253.13,-241.126 1261.78,-246.598"/>
<polygon fill="midnightblue" stroke="midnightblue" points="1086.01,-152.213 1075.54,-153.824 1084.73,-159.095 1086.01,-152.213"/>
</g>
<!-- Node12 -->
<g id="node12" class="node"><title>Node12</title>
<polygon fill="white" stroke="#bfbfbf" points="678.5,-100.701 678.5,-119.701 771.5,-119.701 771.5,-100.701 678.5,-100.701"/>
<text text-anchor="middle" x="725" y="-107.701" font-family="Helvetica,sans-Serif" font-size="10.00">ResourceBundle</text>
</g>
<!-- Node12&#45;&gt;Node10 -->
<g id="edge12" class="edge"><title>Node12&#45;&gt;Node10</title>
<path fill="none" stroke="#9a32cd" stroke-dasharray="5,2" d="M782.192,-104.164C859.172,-97.5384 1001.19,-91.2244 1118,-119.201 1164.98,-130.452 1184.6,-129.49 1216,-166.201 1234.1,-187.359 1217.55,-203.736 1234,-226.201 1240.23,-234.706 1249.63,-241.585 1258.15,-246.6"/>
<polygon fill="#9a32cd" stroke="#9a32cd" points="781.418,-100.719 771.771,-105.097 782.043,-107.691 781.418,-100.719"/>
<text text-anchor="middle" x="1042" y="-122.201" font-family="Helvetica,sans-Serif" font-size="10.00"> myResources</text>
</g>
<!-- Node12&#45;&gt;Node17 -->
<g id="edge21" class="edge"><title>Node12&#45;&gt;Node17</title>
<path fill="none" stroke="#9a32cd" stroke-dasharray="5,2" d="M735.555,-129.028C751.456,-158.687 785.997,-216.48 830,-251.201 874.714,-286.484 911.051,-257.853 948,-301.201 969.677,-326.632 948.876,-345.506 966,-374.201 981.131,-399.557 1008.7,-420.918 1025.87,-432.608"/>
<polygon fill="#9a32cd" stroke="#9a32cd" points="738.46,-127.031 730.723,-119.794 732.258,-130.277 738.46,-127.031"/>
<text text-anchor="middle" x="889" y="-304.201" font-family="Helvetica,sans-Serif" font-size="10.00"> myResources</text>
</g>
<!-- Node12&#45;&gt;Node24 -->
<g id="edge33" class="edge"><title>Node12&#45;&gt;Node24</title>
<path fill="none" stroke="#9a32cd" stroke-dasharray="5,2" d="M781.68,-100.67C797.267,-98.4109 814.253,-96.3308 830,-95.201 882.31,-91.4481 895.556,-95.0468 948,-95.201 1023.56,-95.4232 1042.95,-87.4876 1118,-96.201 1313.66,-118.917 1359.27,-145.993 1550,-195.201 1592.09,-206.06 1604.86,-203.295 1644,-222.201 1663.85,-231.789 1684.12,-247.56 1696.13,-257.658"/>
<polygon fill="#9a32cd" stroke="#9a32cd" points="781.036,-97.2271 771.666,-102.172 782.075,-104.15 781.036,-97.2271"/>
<text text-anchor="middle" x="1279" y="-136.201" font-family="Helvetica,sans-Serif" font-size="10.00"> myResources</text>
</g>
<!-- Node13 -->
<g id="node13" class="node"><title>Node13</title>
<g id="a_node13"><a xlink:href="../../d8/df7/classview_1_1_turtle_view.html" target="_top" xlink:title="view.TurtleView">
<polygon fill="white" stroke="black" points="999,-303.701 999,-322.701 1085,-322.701 1085,-303.701 999,-303.701"/>
<text text-anchor="middle" x="1042" y="-310.701" font-family="Helvetica,sans-Serif" font-size="10.00">view.TurtleView</text>
</a>
</g>
</g>
<!-- Node13&#45;&gt;Node10 -->
<g id="edge13" class="edge"><title>Node13&#45;&gt;Node10</title>
<path fill="none" stroke="#9a32cd" stroke-dasharray="5,2" d="M1095.14,-310.74C1130.04,-307.942 1176.62,-301.967 1216,-289.201 1233.17,-283.636 1251.21,-273.476 1263.37,-265.894"/>
<polygon fill="#9a32cd" stroke="#9a32cd" points="1094.88,-307.249 1085.16,-311.478 1095.4,-314.23 1094.88,-307.249"/>
<text text-anchor="middle" x="1176" y="-310.201" font-family="Helvetica,sans-Serif" font-size="10.00"> myActiveTurtle</text>
</g>
<!-- Node14 -->
<g id="node14" class="node"><title>Node14</title>
<polygon fill="white" stroke="#bfbfbf" points="691,-272.701 691,-291.701 759,-291.701 759,-272.701 691,-272.701"/>
<text text-anchor="middle" x="725" y="-279.701" font-family="Helvetica,sans-Serif" font-size="10.00">ImageView</text>
</g>
<!-- Node14&#45;&gt;Node13 -->
<g id="edge14" class="edge"><title>Node14&#45;&gt;Node13</title>
<path fill="none" stroke="midnightblue" d="M769.103,-286.443C829.589,-292.395 938.947,-303.158 998.892,-309.057"/>
<polygon fill="midnightblue" stroke="midnightblue" points="769.41,-282.956 759.115,-285.46 768.724,-289.923 769.41,-282.956"/>
</g>
<!-- Node15 -->
<g id="node15" class="node"><title>Node15</title>
<polygon fill="white" stroke="#bfbfbf" points="702,-310.701 702,-329.701 748,-329.701 748,-310.701 702,-310.701"/>
<text text-anchor="middle" x="725" y="-317.701" font-family="Helvetica,sans-Serif" font-size="10.00">Group</text>
</g>
<!-- Node15&#45;&gt;Node10 -->
<g id="edge17" class="edge"><title>Node15&#45;&gt;Node10</title>
<path fill="none" stroke="#9a32cd" stroke-dasharray="5,2" d="M758.299,-325.289C778.782,-328.255 805.874,-331.699 830,-333.201 1001.29,-343.865 1062.15,-398.265 1216,-322.201 1241.93,-309.381 1262.62,-280.894 1272.2,-265.884"/>
<polygon fill="#9a32cd" stroke="#9a32cd" points="758.647,-321.803 748.241,-323.795 757.618,-328.727 758.647,-321.803"/>
<text text-anchor="middle" x="1042" y="-365.201" font-family="Helvetica,sans-Serif" font-size="10.00"> myLines</text>
</g>
<!-- Node15&#45;&gt;Node13 -->
<g id="edge15" class="edge"><title>Node15&#45;&gt;Node13</title>
<path fill="none" stroke="#9a32cd" stroke-dasharray="5,2" d="M758.449,-319.48C815.875,-318.204 935.334,-315.549 998.972,-314.135"/>
<polygon fill="#9a32cd" stroke="#9a32cd" points="758.07,-315.987 748.15,-319.709 758.226,-322.986 758.07,-315.987"/>
<text text-anchor="middle" x="889" y="-321.201" font-family="Helvetica,sans-Serif" font-size="10.00"> myStamps</text>
</g>
<!-- Node16 -->
<g id="node16" class="node"><title>Node16</title>
<polygon fill="white" stroke="#bfbfbf" points="974,-178.201 974,-208.201 1110,-208.201 1110,-178.201 974,-178.201"/>
<text text-anchor="start" x="982" y="-196.201" font-family="Helvetica,sans-Serif" font-size="10.00">Map&lt; Integer, view.Turtle</text>
<text text-anchor="middle" x="1042" y="-185.201" font-family="Helvetica,sans-Serif" font-size="10.00">View &gt;</text>
</g>
<!-- Node16&#45;&gt;Node10 -->
<g id="edge16" class="edge"><title>Node16&#45;&gt;Node10</title>
<path fill="none" stroke="#9a32cd" stroke-dasharray="5,2" d="M1120.42,-205.79C1150.61,-211.61 1185.27,-219.427 1216,-229.201 1230.77,-233.898 1246.79,-240.93 1258.85,-246.64"/>
<polygon fill="#9a32cd" stroke="#9a32cd" points="1120.85,-202.309 1110.37,-203.894 1119.55,-209.187 1120.85,-202.309"/>
<text text-anchor="middle" x="1176" y="-232.201" font-family="Helvetica,sans-Serif" font-size="10.00"> myTurtles</text>
</g>
<!-- Node17&#45;&gt;Node9 -->
<g id="edge51" class="edge"><title>Node17&#45;&gt;Node9</title>
<path fill="none" stroke="#9a32cd" stroke-dasharray="5,2" d="M993.206,-443.024C875.117,-445.057 570.511,-450.3 451.08,-452.356"/>
<polygon fill="#9a32cd" stroke="#9a32cd" points="993.44,-446.52 1003.38,-442.849 993.32,-439.521 993.44,-446.52"/>
<text text-anchor="middle" x="725" y="-452.201" font-family="Helvetica,sans-Serif" font-size="10.00"> mySidebar</text>
</g>
<!-- Node17&#45;&gt;Node10 -->
<g id="edge18" class="edge"><title>Node17&#45;&gt;Node10</title>
<path fill="none" stroke="#9a32cd" stroke-dasharray="5,2" d="M1073.71,-428.459C1091.74,-420.522 1115.04,-410.499 1136,-402.201 1171.16,-388.279 1187.46,-398.014 1216,-373.201 1250.87,-342.885 1269.2,-288.048 1275.47,-265.884"/>
<polygon fill="#9a32cd" stroke="#9a32cd" points="1072.01,-425.383 1064.28,-432.629 1074.84,-431.785 1072.01,-425.383"/>
<text text-anchor="middle" x="1176" y="-405.201" font-family="Helvetica,sans-Serif" font-size="10.00"> mySidebar</text>
</g>
<!-- Node17&#45;&gt;Node24 -->
<g id="edge47" class="edge"><title>Node17&#45;&gt;Node24</title>
<path fill="none" stroke="#9a32cd" stroke-dasharray="5,2" d="M1090.65,-435.824C1125.57,-430.76 1174.01,-422.924 1216,-413.201 1395.13,-371.721 1605.17,-302.013 1679.36,-276.727"/>
<polygon fill="#9a32cd" stroke="#9a32cd" points="1090.13,-432.363 1080.72,-437.241 1091.12,-439.293 1090.13,-432.363"/>
<text text-anchor="middle" x="1377" y="-383.201" font-family="Helvetica,sans-Serif" font-size="10.00"> mySidebar</text>
</g>
<!-- Node26 -->
<g id="node26" class="node"><title>Node26</title>
<g id="a_node26"><a xlink:href="../../da/dc8/classview_1_1_editor.html" target="_top" xlink:title="view.Editor">
<polygon fill="white" stroke="black" points="1245.5,-504.701 1245.5,-523.701 1312.5,-523.701 1312.5,-504.701 1245.5,-504.701"/>
<text text-anchor="middle" x="1279" y="-511.701" font-family="Helvetica,sans-Serif" font-size="10.00">view.Editor</text>
</a>
</g>
</g>
<!-- Node17&#45;&gt;Node26 -->
<g id="edge39" class="edge"><title>Node17&#45;&gt;Node26</title>
<path fill="none" stroke="#9a32cd" stroke-dasharray="5,2" d="M1090.85,-440.904C1126.67,-441.592 1176.13,-446.129 1216,-463.201 1238.04,-472.637 1258.45,-492.416 1269.47,-504.38"/>
<polygon fill="#9a32cd" stroke="#9a32cd" points="1090.7,-437.403 1080.67,-440.805 1090.64,-444.402 1090.7,-437.403"/>
<text text-anchor="middle" x="1176" y="-466.201" font-family="Helvetica,sans-Serif" font-size="10.00"> mySidebar</text>
</g>
<!-- Node18 -->
<g id="node18" class="node"><title>Node18</title>
<polygon fill="white" stroke="#bfbfbf" points="704.5,-386.701 704.5,-405.701 745.5,-405.701 745.5,-386.701 704.5,-386.701"/>
<text text-anchor="middle" x="725" y="-393.701" font-family="Helvetica,sans-Serif" font-size="10.00">VBox</text>
</g>
<!-- Node18&#45;&gt;Node17 -->
<g id="edge19" class="edge"><title>Node18&#45;&gt;Node17</title>
<path fill="none" stroke="midnightblue" d="M755.605,-400.524C813.104,-408.921 939.795,-427.422 1003.24,-436.687"/>
<polygon fill="midnightblue" stroke="midnightblue" points="756.105,-397.06 745.705,-399.079 755.094,-403.987 756.105,-397.06"/>
</g>
<!-- Node19 -->
<g id="node19" class="node"><title>Node19</title>
<polygon fill="white" stroke="#bfbfbf" points="638.5,-348.701 638.5,-367.701 811.5,-367.701 811.5,-348.701 638.5,-348.701"/>
<text text-anchor="middle" x="725" y="-355.701" font-family="Helvetica,sans-Serif" font-size="10.00">ObservableList&lt; view.Property &gt;</text>
</g>
<!-- Node19&#45;&gt;Node17 -->
<g id="edge20" class="edge"><title>Node19&#45;&gt;Node17</title>
<path fill="none" stroke="#9a32cd" stroke-dasharray="5,2" d="M818.297,-369.264C858.706,-375.525 906.313,-384.843 948,-398.201 975.896,-407.14 1006.22,-422.683 1024.41,-432.701"/>
<polygon fill="#9a32cd" stroke="#9a32cd" points="818.597,-365.77 808.186,-367.738 817.552,-372.692 818.597,-365.77"/>
<text text-anchor="middle" x="889" y="-401.201" font-family="Helvetica,sans-Serif" font-size="10.00"> myVariablesList</text>
</g>
<!-- Node20 -->
<g id="node20" class="node"><title>Node20</title>
<polygon fill="white" stroke="#bfbfbf" points="651,-510.701 651,-529.701 799,-529.701 799,-510.701 651,-510.701"/>
<text text-anchor="middle" x="725" y="-517.701" font-family="Helvetica,sans-Serif" font-size="10.00">TableView&lt; view.Property &gt;</text>
</g>
<!-- Node20&#45;&gt;Node17 -->
<g id="edge23" class="edge"><title>Node20&#45;&gt;Node17</title>
<path fill="none" stroke="#9a32cd" stroke-dasharray="5,2" d="M809.156,-517.779C862.246,-514.858 925.231,-508.413 948,-494.201 960.55,-486.367 954.264,-475.208 966,-466.201 976.845,-457.878 990.662,-452.395 1003.47,-448.803"/>
<polygon fill="#9a32cd" stroke="#9a32cd" points="808.834,-514.291 799.028,-518.302 809.195,-521.282 808.834,-514.291"/>
<text text-anchor="middle" x="889" y="-531.201" font-family="Helvetica,sans-Serif" font-size="10.00"> myTurtlePropertiesTable</text>
<text text-anchor="middle" x="889" y="-520.201" font-family="Helvetica,sans-Serif" font-size="10.00">myVariablesTable</text>
</g>
<!-- Node21&#45;&gt;Node17 -->
<g id="edge24" class="edge"><title>Node21&#45;&gt;Node17</title>
<path fill="none" stroke="#9a32cd" stroke-dasharray="5,2" d="M773.976,-579.208C791.56,-574.934 811.646,-570.194 830,-566.201 882.21,-554.843 909.523,-580.275 948,-543.201 973.308,-518.816 942.163,-492.027 966,-466.201 975.643,-455.753 989.829,-449.833 1003.28,-446.486"/>
<polygon fill="#9a32cd" stroke="#9a32cd" points="772.826,-575.886 763.944,-581.661 774.489,-582.686 772.826,-575.886"/>
<text text-anchor="middle" x="889" y="-569.201" font-family="Helvetica,sans-Serif" font-size="10.00"> myParser</text>
</g>
<!-- Node21&#45;&gt;Node24 -->
<g id="edge42" class="edge"><title>Node21&#45;&gt;Node24</title>
<path fill="none" stroke="#9a32cd" stroke-dasharray="5,2" d="M775.3,-599.876C792.567,-602.75 812.111,-605.82 830,-608.201 890.233,-616.217 905.316,-619.086 966,-622.201 1228.27,-635.665 1304.53,-625.554 1550,-532.201 1595.03,-515.074 1614.09,-515.973 1644,-478.201 1695.03,-413.763 1704.78,-308.734 1706.6,-276.745"/>
<polygon fill="#9a32cd" stroke="#9a32cd" points="775.868,-596.422 765.426,-598.212 774.706,-603.325 775.868,-596.422"/>
<text text-anchor="middle" x="1279" y="-624.201" font-family="Helvetica,sans-Serif" font-size="10.00"> myParser</text>
</g>
<!-- Node21&#45;&gt;Node26 -->
<g id="edge37" class="edge"><title>Node21&#45;&gt;Node26</title>
<path fill="none" stroke="#9a32cd" stroke-dasharray="5,2" d="M771.723,-602.806C821.193,-612.407 899.484,-618.585 948,-577.201 975.727,-553.55 937.542,-519.968 966,-497.201 1018.75,-454.999 1050.54,-493.627 1118,-497.201 1162.21,-499.543 1213.01,-505.502 1245.29,-509.701"/>
<polygon fill="#9a32cd" stroke="#9a32cd" points="772.429,-599.378 761.928,-600.787 771.016,-606.234 772.429,-599.378"/>
<text text-anchor="middle" x="1042" y="-500.201" font-family="Helvetica,sans-Serif" font-size="10.00"> myParser</text>
</g>
<!-- Node22 -->
<g id="node22" class="node"><title>Node22</title>
<polygon fill="white" stroke="#bfbfbf" points="345,-530.201 345,-560.201 457,-560.201 457,-530.201 345,-530.201"/>
<text text-anchor="start" x="353" y="-548.201" font-family="Helvetica,sans-Serif" font-size="10.00">List&lt; Entry&lt; String,</text>
<text text-anchor="middle" x="401" y="-537.201" font-family="Helvetica,sans-Serif" font-size="10.00"> Pattern &gt; &gt;</text>
</g>
<!-- Node22&#45;&gt;Node21 -->
<g id="edge26" class="edge"><title>Node22&#45;&gt;Node21</title>
<path fill="none" stroke="#9a32cd" stroke-dasharray="5,2" d="M467.05,-532.48C510.912,-526.259 569.728,-522.527 620,-535.201 655.593,-544.175 692.258,-567.978 711.094,-581.485"/>
<polygon fill="#9a32cd" stroke="#9a32cd" points="466.455,-529.03 457.083,-533.973 467.491,-535.953 466.455,-529.03"/>
<text text-anchor="middle" x="559" y="-538.201" font-family="Helvetica,sans-Serif" font-size="10.00"> myPatterns</text>
</g>
<!-- Node23 -->
<g id="node23" class="node"><title>Node23</title>
<polygon fill="white" stroke="#bfbfbf" points="340,-592.701 340,-611.701 462,-611.701 462,-592.701 340,-592.701"/>
<text text-anchor="middle" x="401" y="-599.701" font-family="Helvetica,sans-Serif" font-size="10.00">Map&lt; String, String &gt;</text>
</g>
<!-- Node23&#45;&gt;Node21 -->
<g id="edge29" class="edge"><title>Node23&#45;&gt;Node21</title>
<path fill="none" stroke="#9a32cd" stroke-dasharray="5,2" d="M472.39,-599.796C537.597,-597.569 632.209,-594.337 684.877,-592.538"/>
<polygon fill="#9a32cd" stroke="#9a32cd" points="472.063,-596.305 462.188,-600.145 472.302,-603.301 472.063,-596.305"/>
<text text-anchor="middle" x="559" y="-602.201" font-family="Helvetica,sans-Serif" font-size="10.00"> myCommandMap</text>
</g>
<!-- Node24&#45;&gt;Node21 -->
<g id="edge30" class="edge"><title>Node24&#45;&gt;Node21</title>
<path fill="none" stroke="#9a32cd" stroke-dasharray="5,2" d="M1706.55,-286.876C1704.52,-357.057 1694.03,-593.725 1644,-646.201 1596,-696.549 1560.56,-679.201 1491,-679.201 1041,-679.201 1041,-679.201 1041,-679.201 946.618,-679.201 912.372,-701.277 830,-655.201 818.671,-648.864 822.127,-640.321 812,-632.201 794.707,-618.337 771.955,-607.753 754.197,-600.814"/>
<polygon fill="#9a32cd" stroke="#9a32cd" points="1710.05,-286.851 1706.81,-276.763 1703.05,-286.668 1710.05,-286.851"/>
<text text-anchor="middle" x="1279" y="-682.201" font-family="Helvetica,sans-Serif" font-size="10.00"> mySLogoView</text>
</g>
<!-- Node25 -->
<g id="node25" class="node"><title>Node25</title>
<polygon fill="white" stroke="#bfbfbf" points="1467.5,-76.701 1467.5,-95.701 1512.5,-95.701 1512.5,-76.701 1467.5,-76.701"/>
<text text-anchor="middle" x="1490" y="-83.701" font-family="Helvetica,sans-Serif" font-size="10.00">Stage</text>
</g>
<!-- Node25&#45;&gt;Node24 -->
<g id="edge32" class="edge"><title>Node25&#45;&gt;Node24</title>
<path fill="none" stroke="#9a32cd" stroke-dasharray="5,2" d="M1522.71,-79.7813C1556.31,-74.8833 1609.2,-72.8347 1644,-99.201 1696.64,-139.082 1705.3,-228.123 1706.72,-257.553"/>
<polygon fill="#9a32cd" stroke="#9a32cd" points="1521.84,-76.3774 1512.53,-81.4392 1522.97,-83.2864 1521.84,-76.3774"/>
<text text-anchor="middle" x="1606" y="-102.201" font-family="Helvetica,sans-Serif" font-size="10.00"> myStage</text>
</g>
<!-- Node26&#45;&gt;Node24 -->
<g id="edge34" class="edge"><title>Node26&#45;&gt;Node24</title>
<path fill="none" stroke="#9a32cd" stroke-dasharray="5,2" d="M1323.11,-518.167C1397.73,-522.58 1551.81,-520.548 1644,-441.201 1695.62,-396.77 1704.95,-306.6 1706.63,-276.917"/>
<polygon fill="#9a32cd" stroke="#9a32cd" points="1322.9,-514.645 1312.69,-517.477 1322.44,-521.63 1322.9,-514.645"/>
<text text-anchor="middle" x="1490" y="-520.201" font-family="Helvetica,sans-Serif" font-size="10.00"> myEditor</text>
</g>
<!-- Node27 -->
<g id="node27" class="node"><title>Node27</title>
<polygon fill="white" stroke="#bfbfbf" points="1021,-593.701 1021,-612.701 1063,-612.701 1063,-593.701 1021,-593.701"/>
<text text-anchor="middle" x="1042" y="-600.701" font-family="Helvetica,sans-Serif" font-size="10.00">HBox</text>
</g>
<!-- Node27&#45;&gt;Node26 -->
<g id="edge35" class="edge"><title>Node27&#45;&gt;Node26</title>
<path fill="none" stroke="midnightblue" d="M1073.29,-602.045C1109.09,-599.624 1169.64,-592.161 1216,-569.201 1238.44,-558.089 1259.02,-536.674 1269.9,-524.095"/>
<polygon fill="midnightblue" stroke="midnightblue" points="1072.8,-598.568 1063.02,-602.646 1073.21,-605.556 1072.8,-598.568"/>
</g>
<!-- Node28 -->
<g id="node28" class="node"><title>Node28</title>
<polygon fill="white" stroke="#bfbfbf" points="1017.5,-555.701 1017.5,-574.701 1066.5,-574.701 1066.5,-555.701 1017.5,-555.701"/>
<text text-anchor="middle" x="1042" y="-562.701" font-family="Helvetica,sans-Serif" font-size="10.00">Button</text>
</g>
<!-- Node28&#45;&gt;Node26 -->
<g id="edge36" class="edge"><title>Node28&#45;&gt;Node26</title>
<path fill="none" stroke="#9a32cd" stroke-dasharray="5,2" d="M1076.72,-561.714C1111.89,-557.621 1168.41,-549.751 1216,-537.201 1229.32,-533.688 1243.78,-528.415 1255.38,-523.803"/>
<polygon fill="#9a32cd" stroke="#9a32cd" points="1076.07,-558.265 1066.53,-562.864 1076.86,-565.221 1076.07,-558.265"/>
<text text-anchor="middle" x="1176" y="-557.201" font-family="Helvetica,sans-Serif" font-size="10.00"> runButton</text>
</g>
<!-- Node29 -->
<g id="node29" class="node"><title>Node29</title>
<polygon fill="white" stroke="#bfbfbf" points="1013,-517.701 1013,-536.701 1071,-536.701 1071,-517.701 1013,-517.701"/>
<text text-anchor="middle" x="1042" y="-524.701" font-family="Helvetica,sans-Serif" font-size="10.00">TextArea</text>
</g>
<!-- Node29&#45;&gt;Node26 -->
<g id="edge38" class="edge"><title>Node29&#45;&gt;Node26</title>
<path fill="none" stroke="#9a32cd" stroke-dasharray="5,2" d="M1081.45,-525.074C1127.11,-522.548 1202.48,-518.379 1245.41,-516.004"/>
<polygon fill="#9a32cd" stroke="#9a32cd" points="1081.14,-521.586 1071.35,-525.633 1081.52,-528.575 1081.14,-521.586"/>
<text text-anchor="middle" x="1176" y="-525.201" font-family="Helvetica,sans-Serif" font-size="10.00"> textEditor</text>
</g>
<!-- Node30 -->
<g id="node30" class="node"><title>Node30</title>
<polygon fill="white" stroke="#bfbfbf" points="1430.5,-38.701 1430.5,-57.701 1549.5,-57.701 1549.5,-38.701 1430.5,-38.701"/>
<text text-anchor="middle" x="1490" y="-45.701" font-family="Helvetica,sans-Serif" font-size="10.00">Map&lt; String, Node &gt;</text>
</g>
<!-- Node30&#45;&gt;Node24 -->
<g id="edge40" class="edge"><title>Node30&#45;&gt;Node24</title>
<path fill="none" stroke="#9a32cd" stroke-dasharray="5,2" d="M1559.9,-38.6316C1588.73,-38.3543 1620.85,-43.402 1644,-62.201 1706.44,-112.892 1708.36,-223.984 1707.44,-257.463"/>
<polygon fill="#9a32cd" stroke="#9a32cd" points="1559.74,-35.1345 1549.85,-38.938 1559.96,-42.1313 1559.74,-35.1345"/>
<text text-anchor="middle" x="1606" y="-65.201" font-family="Helvetica,sans-Serif" font-size="10.00"> variables</text>
</g>
<!-- Node31 -->
<g id="node31" class="node"><title>Node31</title>
<polygon fill="white" stroke="#bfbfbf" points="1449.5,-0.701017 1449.5,-19.701 1530.5,-19.701 1530.5,-0.701017 1449.5,-0.701017"/>
<text text-anchor="middle" x="1490" y="-7.70102" font-family="Helvetica,sans-Serif" font-size="10.00">Dimension2D</text>
</g>
<!-- Node31&#45;&gt;Node24 -->
<g id="edge43" class="edge"><title>Node31&#45;&gt;Node24</title>
<path fill="none" stroke="#9a32cd" stroke-dasharray="5,2" d="M1540.95,-1.16707C1573.92,1.8236 1616.03,-0.437917 1644,-24.201 1681.04,-55.6616 1701.35,-216.701 1705.98,-257.697"/>
<polygon fill="#9a32cd" stroke="#9a32cd" points="1540.16,2.26706 1530.6,-2.30202 1540.92,-4.69125 1540.16,2.26706"/>
<text text-anchor="middle" x="1606" y="-27.201" font-family="Helvetica,sans-Serif" font-size="10.00"> myDimensions</text>
</g>
<!-- Node32&#45;&gt;Node9 -->
<g id="edge50" class="edge"><title>Node32&#45;&gt;Node9</title>
<path fill="none" stroke="#9a32cd" stroke-dasharray="5,2" d="M1452.41,-201.298C1360.5,-168.911 1126.64,-86.6597 1118,-85.201 907.629,-49.6704 829.048,3.76583 638,-91.201 485.163,-167.174 417.592,-394.002 404.441,-443.565"/>
<polygon fill="#9a32cd" stroke="#9a32cd" points="1451.28,-204.61 1461.87,-204.633 1453.6,-198.008 1451.28,-204.61"/>
<text text-anchor="middle" x="1042" y="-88.201" font-family="Helvetica,sans-Serif" font-size="10.00"> myDrawer</text>
</g>
<!-- Node32&#45;&gt;Node24 -->
<g id="edge44" class="edge"><title>Node32&#45;&gt;Node24</title>
<path fill="none" stroke="#9a32cd" stroke-dasharray="5,2" d="M1536.69,-220.158C1567.39,-224.744 1608.55,-232.032 1644,-242.201 1658.36,-246.322 1673.98,-252.507 1686.07,-257.694"/>
<polygon fill="#9a32cd" stroke="#9a32cd" points="1537.1,-216.681 1526.7,-218.705 1536.09,-223.608 1537.1,-216.681"/>
<text text-anchor="middle" x="1606" y="-245.201" font-family="Helvetica,sans-Serif" font-size="10.00"> drawer</text>
</g>
<!-- Node33 -->
<g id="node33" class="node"><title>Node33</title>
<polygon fill="white" stroke="#bfbfbf" points="1258.5,-197.701 1258.5,-216.701 1299.5,-216.701 1299.5,-197.701 1258.5,-197.701"/>
<text text-anchor="middle" x="1279" y="-204.701" font-family="Helvetica,sans-Serif" font-size="10.00">Color</text>
</g>
<!-- Node33&#45;&gt;Node32 -->
<g id="edge46" class="edge"><title>Node33&#45;&gt;Node32</title>
<path fill="none" stroke="#9a32cd" stroke-dasharray="5,2" d="M1309.93,-206.83C1336.7,-206.64 1376.98,-206.706 1412,-208.201 1425.53,-208.779 1440.37,-209.834 1453.38,-210.901"/>
<polygon fill="#9a32cd" stroke="#9a32cd" points="1309.66,-203.332 1299.69,-206.92 1309.72,-210.332 1309.66,-203.332"/>
<text text-anchor="middle" x="1377" y="-211.201" font-family="Helvetica,sans-Serif" font-size="10.00"> myColor</text>
</g>
<!-- Node34 -->
<g id="node34" class="node"><title>Node34</title>
<polygon fill="white" stroke="#bfbfbf" points="656,-471.701 656,-490.701 794,-490.701 794,-471.701 656,-471.701"/>
<text text-anchor="middle" x="725" y="-478.701" font-family="Helvetica,sans-Serif" font-size="10.00">ObservableList&lt; String &gt;</text>
</g>
<!-- Node34&#45;&gt;Node17 -->
<g id="edge48" class="edge"><title>Node34&#45;&gt;Node17</title>
<path fill="none" stroke="#9a32cd" stroke-dasharray="5,2" d="M804.326,-471.503C867.782,-463.647 954.41,-452.922 1003.33,-446.865"/>
<polygon fill="#9a32cd" stroke="#9a32cd" points="803.844,-468.036 794.35,-472.739 804.705,-474.983 803.844,-468.036"/>
<text text-anchor="middle" x="889" y="-482.201" font-family="Helvetica,sans-Serif" font-size="10.00"> myCommandItems</text>
<text text-anchor="middle" x="889" y="-471.201" font-family="Helvetica,sans-Serif" font-size="10.00">myHistoryItems</text>
</g>
<!-- Node35 -->
<g id="node35" class="node"><title>Node35</title>
<polygon fill="white" stroke="#bfbfbf" points="1010.5,-227.701 1010.5,-246.701 1073.5,-246.701 1073.5,-227.701 1010.5,-227.701"/>
<text text-anchor="middle" x="1042" y="-234.701" font-family="Helvetica,sans-Serif" font-size="10.00">Rectangle</text>
</g>
<!-- Node35&#45;&gt;Node10 -->
<g id="edge49" class="edge"><title>Node35&#45;&gt;Node10</title>
<path fill="none" stroke="#9a32cd" stroke-dasharray="5,2" d="M1083.96,-240.03C1119.03,-242.512 1170.86,-246.321 1216,-250.201 1221.82,-250.701 1227.94,-251.257 1233.98,-251.823"/>
<polygon fill="#9a32cd" stroke="#9a32cd" points="1083.86,-236.515 1073.64,-239.304 1083.37,-243.497 1083.86,-236.515"/>
<text text-anchor="middle" x="1176" y="-253.201" font-family="Helvetica,sans-Serif" font-size="10.00"> myBackground</text>
</g>
<!-- Node36 -->
<g id="node36" class="node"><title>Node36</title>
<polygon fill="white" stroke="#bfbfbf" points="333,-773.201 333,-803.201 469,-803.201 469,-773.201 333,-773.201"/>
<text text-anchor="start" x="341" y="-791.201" font-family="Helvetica,sans-Serif" font-size="10.00">List&lt; model.instructions.</text>
<text text-anchor="middle" x="401" y="-780.201" font-family="Helvetica,sans-Serif" font-size="10.00">Instruction &gt;</text>
</g>
<!-- Node36&#45;&gt;Node2 -->
<g id="edge52" class="edge"><title>Node36&#45;&gt;Node2</title>
<path fill="none" stroke="#9a32cd" stroke-dasharray="5,2" d="M478.894,-774.36C520.763,-766.491 573.392,-756.058 620,-745.201 643.856,-739.644 670.53,-732.442 690.891,-726.734"/>
<polygon fill="#9a32cd" stroke="#9a32cd" points="478.227,-770.924 469.04,-776.202 479.513,-777.805 478.227,-770.924"/>
<text text-anchor="middle" x="559" y="-773.201" font-family="Helvetica,sans-Serif" font-size="10.00"> myDependencies</text>
</g>
</g>
</svg>
        <g id="navigator" transform="translate(0 0)" fill="#404254">
                <rect fill="#f2f5e9" fill-opacity="0.5" stroke="#606060" stroke-width=".5" x="0" y="0" width="60" height="60"/>
                <use id="zoomplus" xlink:href="#zoomPlus" x="17" y="9" onmousedown="handleZoom(evt,'in')"/>
                <use id="zoomminus" xlink:href="#zoomMin" x="42" y="9" onmousedown="handleZoom(evt,'out')"/>
                <use id="reset" xlink:href="#resetDef" x="30" y="36" onmousedown="handleReset()"/>
                <g id="arrowUp" xlink:href="#dirArrow" transform="translate(30 24)" onmousedown="handlePan(0,-1)">
                  <use xlink:href="#rim" fill="#404040">
                        <set attributeName="fill" to="#808080" begin="arrowUp.mouseover" end="arrowUp.mouseout"/>
                  </use>
                  <path fill="none" stroke="white" stroke-width="1.5" d="M0,-3.0v7 M-2.5,-0.5L0,-3.0L2.5,-0.5"/>
                </g>
                <g id="arrowRight" xlink:href="#dirArrow" transform="rotate(90) translate(36 -43)" onmousedown="handlePan(1,0)">
                  <use xlink:href="#rim" fill="#404040">
                        <set attributeName="fill" to="#808080" begin="arrowRight.mouseover" end="arrowRight.mouseout"/>
                  </use>
                  <path fill="none" stroke="white" stroke-width="1.5" d="M0,-3.0v7 M-2.5,-0.5L0,-3.0L2.5,-0.5"/>
                </g>
                <g id="arrowDown" xlink:href="#dirArrow" transform="rotate(180) translate(-30 -48)" onmousedown="handlePan(0,1)">
                  <use xlink:href="#rim" fill="#404040">
                        <set attributeName="fill" to="#808080" begin="arrowDown.mouseover" end="arrowDown.mouseout"/>
                  </use>
                  <path fill="none" stroke="white" stroke-width="1.5" d="M0,-3.0v7 M-2.5,-0.5L0,-3.0L2.5,-0.5"/>
                </g>
                <g id="arrowLeft" xlink:href="#dirArrow" transform="rotate(270) translate(-36 17)" onmousedown="handlePan(-1,0)">
                  <use xlink:href="#rim" fill="#404040">
                        <set attributeName="fill" to="#808080" begin="arrowLeft.mouseover" end="arrowLeft.mouseout"/>
                  </use>
                  <path fill="none" stroke="white" stroke-width="1.5" d="M0,-3.0v7 M-2.5,-0.5L0,-3.0L2.5,-0.5"/>
                </g>
        </g>
        <svg viewBox="0 0 15 15" width="100%" height="30px" preserveAspectRatio="xMaxYMin meet">
         <g id="arrow_out" transform="scale(0.3 0.3)">
          <a xlink:href="classmodel_1_1instructions_1_1_constant__coll__graph_org.svg" target="_base">
           <rect id="button" ry="5" rx="5" y="6" x="6" height="38" width="38"
                fill="#f2f5e9" fill-opacity="0.5" stroke="#606060" stroke-width="1.0"/>
           <path id="arrow"
             d="M 11.500037,31.436501 C 11.940474,20.09759 22.043105,11.32322 32.158766,21.979434 L 37.068811,17.246167 C 37.068811,17.246167 37.088388,32 37.088388,32 L 22.160133,31.978069 C 22.160133,31.978069 26.997745,27.140456 26.997745,27.140456 C 18.528582,18.264221 13.291696,25.230495 11.500037,31.436501 z"
             style="fill:#404040;"/>
          </a>
         </g>
        </svg>
</svg>
